<?xml version="1.0" encoding="utf-8"?>
<!-- Generator: Adobe Illustrator 20.1.0, SVG Export Plug-In . SVG Version: 6.00 Build 0)  -->
<svg version="1.1" id="Layer_1" xmlns="http://www.w3.org/2000/svg" xmlns:xlink="http://www.w3.org/1999/xlink" x="0px" y="0px"
	 viewBox="0 0 167.4 169.2" style="enable-background:new 0 0 167.4 169.2;" xml:space="preserve">
<style type="text/css">
	.st0{fill:none;stroke:#B9AC92;stroke-width:1.0044;}
	.st1{fill:#B9AC92;}
</style>
<g>
	<path class="st0" d="M83.7,0.7l82,82.1c0,0,2.7,2.7,0,5.5l-79.3,79.3c0,0-2.7,2.7-5.5,0L1.7,88.2c0,0-2.7-2.7,0-5.5L83.7,0.7
		L83.7,0.7z"/>
	<path class="st1" d="M143.9,82.3c0-1.7-1.2-3.5-2.7-3.5c-1.7,0-2.7,1.6-3.1,3.1c-0.5-1.4-1.4-3.1-3.1-3.1c-1.4,0-2.7,1.8-2.7,3.5
		c0,1.9,1.1,3.2,2.3,4.3c1.6,1.6,3.1,3.5,3.5,6c0.4-2.5,1.9-4.4,3.5-6C142.8,85.5,143.9,84.1,143.9,82.3L143.9,82.3z M138.1,92.6
		C138.1,92.6,138.1,92.6,138.1,92.6C138.1,92.6,138.1,92.6,138.1,92.6L138.1,92.6L138.1,92.6z M124.5,114.5c0-2-1.1-3.9-3-3.9
		c-0.8,0-1.2,0.4-1.9,0.7l0-0.1c0.5-0.7,0.8-1.6,0.8-2.5c0-2.2-1.5-3.8-3.3-3.8c-1.9,0-3.3,1.6-3.3,3.8c0,1.1,0.3,1.7,0.8,2.5l0,0.1
		c-0.6-0.4-1.2-0.7-2-0.7c-1.7,0-2.8,2-2.8,3.8c0,2.2,1.5,3.9,3.4,3.9c1.7,0,3.2-1.6,3.8-3.4h0c0,4.5-1.9,7.2-1.9,7.2h4.1
		c0,0-1.9-2.8-1.9-7.1l0,0c0.3,0.7,0.6,1.3,1.1,1.9c0.7,0.8,1.8,1.5,2.8,1.5C123,118.5,124.5,116.8,124.5,114.5L124.5,114.5z
		 M122.9,60.9c0-2.1-1.4-3.4-2.6-4.7c-1.5-1.6-2.7-3.1-3.2-5.6c-0.4,2.6-1.9,4.5-3.6,6c-1.2,1.1-2.3,2.5-2.3,4.3
		c0,1.7,1.2,3.5,2.7,3.5c1.4,0,2.6-1.6,3-3.1h0c0,3.7-1.9,6.5-1.9,6.5h3.8c0,0-1.8-2.6-1.8-6.5h0c0.5,1.4,1.6,3.1,3,3.1
		C121.7,64.4,122.9,62.6,122.9,60.9L122.9,60.9z M103.4,85.7c0,0-4.7-3.9-5.9-8.8c-1.2,4.9-5.9,8.8-5.9,8.8s4.7,3.9,5.9,8.8
		C98.8,89.5,103.4,85.7,103.4,85.7L103.4,85.7z M97.5,94.4C97.5,94.4,97.5,94.4,97.5,94.4C97.5,94.4,97.5,94.4,97.5,94.4L97.5,94.4
		L97.5,94.4z M97.5,76.9C97.5,76.9,97.5,76.9,97.5,76.9C97.5,76.9,97.5,76.9,97.5,76.9L97.5,76.9L97.5,76.9z M6.1,86.2l77.1,77.1
		V9.1L6.1,86.2L6.1,86.2z M46,103.2c2.1-9.1,3.4-19.9-0.8-29c-1.9-6.3-3.6-11.9-1.9-18.8c0.8-2.9,3.6-5.3,6.4-6.1
		c2.6-0.3,5.3-4.2,5.8-5.2c0.3-0.5,1.1-1.3,2.1-1.4c2.2,0.3,4.8,0.3,6.3,1.8c1.5,1.4,3.4,6,4.1,6.7c0.7,0.7,3.5,2.8,4.1,3.2
		c0.5,0.4,1.3,1.3,1.3,2.1c-0.1,1-0.4,2-0.1,2.9c1.1,2.1,2.2,3,3.1,4c1.4,1.4,4.1,2.1,3.7,4.4c0,0,0,0.5-0.8,1.3
		c-1.7,1.8-9.9-4.2-13.6-7.3c-1.1,1.3-2.8,2-4.5,1.8c-2-0.5-2.7-2.6-3.6-4.1c-0.3,0-0.3,0.7-0.4,1c-0.1,1.9,1.1,3.4,1.9,5
		c2.4,3.9,5.8,6.6,8.9,10.2c2.9,3.7,1.5,9.1-0.4,12.9c-4.1,9-14.6,15.5-15,25.9c0.1,2,0.8,4.3,3,5.3c1.9,0.9,4.2,0.5,5.9-0.5
		c1.4-1.1,2.4-2.8,2.5-4.5c-0.2-1.7-1-3.4-2.7-4.1c-0.6-0.2-1.4-0.3-2,0.1c-0.4,0.2-0.7,0.9-1.1,0.5c0.3-0.8,1-1.2,1.8-1.4
		c2.4-0.5,4.5,1.1,5.2,3c0.6,1.3,0.8,3.3,0,4.6c-1.1,2.2-4.1,4.4-6.6,4.3c-2.7,0-5.6-0.3-7.2-3.6c-2.5-7.1,2.5-13.4,7-18.7
		c2.9-3.5,6.1-7.1,7.7-11c0,0,1-1.5,1.5-5c0.2-3.5-1.9-6.5-4.3-8.6c-3.5-3.8-6.8-7.4-7.5-12.6c-0.1-2.4,0.3-4.5,2-6.4l0.5,0.2
		c1.2,2.3,1.9,5.2,4.9,5.8c0.8,0.1,1.6,0.1,2.8-0.7c3.4,1.1,6.6,2.5,9.6,4.4l0.2-0.2c-2.4-1.5-3.1-4.6-3.1-7.4c-1-1.5-7.2-2.4-7.6-5
		c0-2,0.3-4.4-1.2-6c-0.8-0.9-2.2-1.8-3.2-1.8c-4.4-0.6-5.8,4.3-9.6,4.7c-2.4,0.8-4,2.7-4.6,4.4c-1.2,3.5-0.3,8.9,0.6,12.4
		c1.3,4.4,3.6,11.3,4,12.8c2.2,7.7,0.3,13.4-0.7,17.4c-2.1,6.4-3.5,11.2-3.7,13.2c-0.3,2-0.3,3.5-0.1,5.6c1.6,5.9,5.9,8.2,10.1,8.6
		c4.2,0.3,7.7-2.5,9.7-5.9c1-1.8,1.1-4.3,0.2-6.2c-1-1.9-3-3-4.9-3.3c-2.2-0.3-4.7,1-5.5,2.9c-0.6,1.6-0.7,4.6,2.2,6.4
		c-0.3,0.4-0.8,0-1-0.1c-2-1.4-2.4-3.4-2.1-5.6c0.4-2.2,1.6-4.4,4.6-5.4c3-1,6.2,0.4,7.9,3c1.7,2.6,3.2,7.2-1.3,11.9
		c-3.1,3.9-7.5,6.4-12.6,5.1c-5.1-1.3-7.1-4.8-8.4-8.6C43.9,113.4,44.9,108,46,103.2L46,103.2z M53,66.8c0.7,1.5,4.3,8.8,4.3,8.8
		c1,2.1,1.4,3.2,1.8,7.3c0.4,4.9-2.3,10.5-3.5,13.5c-1.7,4-4.8,10.3-6.2,12.3c-0.1,0-0.3,0-0.4-0.2c3.2-8.7,6.5-16.6,7-26
		c0.1-1.7-0.4-3.8-0.9-5.6c-1.7-6.3-5.3-11.7-6-18.6c0,0-0.5-2.8,2.4-4c3.1-1.3,4.9-0.4,4.9-0.4v0.3c-1.9-0.1-4.4,0-5.3,1.9
		C49.6,60.1,51.7,63.5,53,66.8L53,66.8z M65,82.8c0.5,2.9-1.8,5.2-5,3.5C62.9,85.8,65,82.8,65,82.8L65,82.8z M62.5,83.9
		c-0.9,0.3-2.3,0.3-3-0.3c-0.1-0.7,0.7-0.4,1-0.6c1.7-0.2,3.1-1.9,3.9-3.3C65.4,80.8,64.4,83.4,62.5,83.9L62.5,83.9z M59.3,90.7
		c-0.2-0.8,0.9-0.5,1.4-0.8c1.6-0.4,2.8-1.9,3.7-3.2C65.7,89.8,62.4,93,59.3,90.7L59.3,90.7z M28.2,96.2h0.6
		c-0.2,0.8-0.5,2.3,0.3,3.1c-0.4-1.3,0.2-3.9,0.9-3.4c-0.4,1.3-0.7,2.9,0.4,4c2.1,1,3.6,0.4,5.6-1.4c3.4-3.6,3.5-8.2,3.1-12.8
		c-0.1-0.8-0.2-1.6-0.8-2.2c-0.9,1.4-2.8,1.4-3,3c-3.1,5.3-10.2,0.8-7.1-5.8c-0.6-2.6,0.3-5.3,2.3-7c2.9-2.4,6.9-2.7,9.9-0.9
		c8.3,5.3,6.6,23.8-0.4,28.6C34.8,105.1,26.2,102.7,28.2,96.2L28.2,96.2z M34.3,101.2c2.7-0.2,4.9-1.9,6.4-4
		c3.8-5,4.3-13.4,1.2-19.1c-1.7-3.4-5.9-4.2-8.8-2.6c-1.3,0.7-2.2,2.1-2.3,3.3c1.5-0.5,6.8-2.8,9.7,5.1
		C41.9,90,40.8,98.6,34.3,101.2L34.3,101.2z M30.2,81.2c2.3,5.2,7,2,7.6,1.2C37.5,81.5,34,78.1,30.2,81.2L30.2,81.2z M29.2,83.2
		c-0.9,1.4,1.7,6.1,5.4,2.5C32.5,85.9,30.5,85.3,29.2,83.2L29.2,83.2z"/>
</g>
</svg>
