<?xml version="1.0" encoding="UTF-8"?>
<svg width="211px" height="44px" viewBox="0 0 211 44" version="1.1" xmlns="http://www.w3.org/2000/svg" xmlns:xlink="http://www.w3.org/1999/xlink">
    <!-- Generator: Sketch 43.1 (39012) - http://www.bohemiancoding.com/sketch -->
    <title>Page 1</title>
    <desc>Created with Sketch.</desc>
    <defs>
        <polygon id="path-1" points="0 27.5850549 0 0.118280571 26.9957017 0.118280571 26.9957017 27.5850549 9.99939064e-16 27.5850549"></polygon>
        <polygon id="path-3" points="0 43.2875543 210.931274 43.2875543 210.931274 0.602857143 0 0.602857143"></polygon>
    </defs>
    <g id="Symbols" stroke="none" stroke-width="1" fill="none" fill-rule="evenodd">
        <g id="income_generator_logo">
            <g id="Page-1">
                <g id="Group-3" transform="translate(0.000000, 0.484697)">
                    <mask id="mask-2" fill="white">
                        <use xlink:href="#path-1"></use>
                    </mask>
                    <g id="Clip-2"></g>
                    <path d="M22.8154903,12.3677349 C24.4908303,9.44026057 25.939496,5.956952 26.9957017,1.81110343 C24.5263989,0.651809143 22.0468474,0.118280571 19.1380617,0.118280571 C8.56756457,0.118280571 -0.000241142857,8.687292 -0.000241142857,19.2565834 C-0.000241142857,22.2425349 0.683398857,25.0669206 1.902376,27.5850549 C4.72857029,27.145572 15.773516,24.6780777 22.8154903,12.3677349" id="Fill-1" fill="#F5811F" mask="url(#mask-2)"></path>
                </g>
                <path d="M35.9464423,10.5840614 C34.6261851,12.7573614 33.0997509,14.6696243 31.4334537,16.3395386 C21.0751623,26.7213414 5.42800514,27.98493 1.93685943,28.1374529 C5.048808,34.4981986 11.5801623,38.8797643 19.1381823,38.8797643 C26.6781166,38.8797643 33.1980166,34.5180929 36.3159937,28.1808586 C37.5452194,25.6862357 38.2451366,22.8841557 38.2716623,19.9211129 C38.2740737,19.86143 38.2764851,19.8029529 38.2764851,19.7408586 C38.2764851,16.4239386 37.4312794,13.3041529 35.9464423,10.5840614" id="Fill-4" fill="#F5811F"></path>
                <path d="M53.1246757,33.6080197 C52.3367414,33.889554 51.4083414,34.0306226 50.25387,34.0306226 C48.2855414,34.0306226 46.45587,33.2993569 45.1344071,31.9754826 C43.7273386,30.5690169 42.9677386,28.656754 42.9677386,26.5449454 C42.9677386,24.3794826 43.6990043,22.4400911 45.0777386,21.0872797 C46.3998043,19.7658169 48.1728071,19.0628854 50.25387,19.0628854 C51.2956071,19.0628854 52.6737386,19.2877511 53.4616729,19.6253511 L53.5177386,19.6253511 L53.2645386,21.9608197 L53.1813443,21.9318826 C52.2240071,21.5382169 51.2395414,21.3121454 50.3672071,21.3121454 C49.0445386,21.3121454 47.89067,21.875214 47.0750043,22.9452854 C46.3154043,23.9020197 45.8940071,25.1680197 45.8940071,26.5449454 C45.8940071,28.1497511 46.4287414,29.6122826 47.3848729,30.5406826 C48.1728071,31.3563483 49.2428786,31.7506169 50.5360071,31.7506169 C52.8148071,31.7506169 53.99701,30.4285511 53.99701,30.4285511 L53.1246757,33.6080197 Z" id="Fill-6" fill="#6C6E70"></path>
                <path d="M65.446714,26.5179374 C65.446714,24.9426717 64.8842483,23.422266 63.9269111,22.4396089 C63.167914,21.6800089 62.1828454,21.2845346 61.1145826,21.2845346 C58.3004454,21.2845346 56.7818483,23.9865403 56.7818483,26.5179374 C56.7818483,28.1227431 57.3165826,29.6702774 58.272714,30.5980746 C59.0317111,31.355866 59.9884454,31.7224031 61.1145826,31.7224031 C62.2678483,31.7224031 63.1962483,31.355866 63.9558483,30.5980746 C64.8842483,29.6702774 65.446714,28.1227431 65.446714,26.5179374 M68.400714,26.5179374 C68.400714,28.5435374 67.6700511,30.4009403 66.375114,31.7796746 C65.0253169,33.2138717 63.167914,34.0024089 61.1145826,34.0024089 C59.1450483,34.0024089 57.3437111,33.2693346 55.9933111,31.9484746 C54.6151797,30.5408031 53.8278483,28.5996031 53.8278483,26.5179374 C53.8278483,24.3518717 54.5874483,22.4112746 55.9378483,21.059066 C57.259914,19.7370003 59.0600454,19.0340689 61.1145826,19.0340689 C63.1962483,19.0340689 64.9686483,19.7092689 66.290714,21.0319374 C67.6417169,22.3829403 68.400714,24.3518717 68.400714,26.5179374" id="Fill-8" fill="#6C6E70"></path>
                <path d="M82.5245114,25.1944851 L82.5245114,33.6923594 L79.7670429,33.6923594 L79.7670429,26.2934937 C79.7670429,22.831888 78.9507743,21.4537566 76.8413771,21.312688 C74.11164,21.312688 72.6207743,23.3660194 72.6207743,27.0524909 L72.6207743,33.6923594 L69.8645114,33.6923594 L69.8645114,19.3708851 L72.5363743,19.3708851 L72.5363743,21.511028 C73.35204,20.0189566 75.1250429,19.0628251 77.1506429,19.0628251 C78.7825771,19.0628251 80.0763086,19.5125566 80.97758,20.4132251 C81.9885714,21.4254223 82.5245114,23.0579594 82.5245114,25.1944851" id="Fill-10" fill="#6C6E70"></path>
                <path d="M92.2573989,33.7192469 C91.7232674,33.8603154 91.020336,34.030924 90.2890703,34.030924 C88.8265389,34.030924 87.6726703,33.6655926 86.9414046,32.9029783 C86.2378703,32.2000469 85.871936,31.1595154 85.871936,29.8380526 L85.871936,21.6500469 L83.3405389,21.6500469 L83.3405389,21.2557783 L88.488336,16.0531211 L88.6288017,16.0531211 L88.6288017,19.4007869 L92.3701331,19.4007869 L92.3701331,21.6500469 L88.6288017,21.6500469 L88.6288017,29.3310497 C88.6288017,30.0900469 88.8542703,30.7381183 89.3046046,31.1896583 C89.6705389,31.553784 90.176336,31.7792526 90.7394046,31.7792526 C91.9210046,31.7792526 92.9898703,30.9358554 92.9898703,30.9358554 L92.2573989,33.7192469 Z" id="Fill-12" fill="#6C6E70"></path>
                <path d="M103.426714,26.9412637 C103.17472,26.9412637 102.92152,26.9117237 102.66832,26.9117237 C102.386785,26.8833894 102.105854,26.8833894 101.852654,26.8833894 C101.036385,26.8833894 99.8825169,26.9677894 98.869114,27.3065951 C97.632654,27.7279923 97.0141226,28.4875923 97.0141226,29.5293294 C97.0141226,30.0622551 97.2094483,30.569258 97.6043197,30.9635266 C98.0823854,31.4409894 98.8419854,31.750858 99.5726483,31.750858 C100.754851,31.750858 101.767651,31.3849237 102.443454,30.7097237 C103.089717,30.0622551 103.426714,29.1621894 103.426714,28.1228637 L103.426714,26.9412637 Z M106.494051,33.692058 L103.877651,33.692058 C103.820983,33.1862609 103.737788,32.6237951 103.709454,31.9485951 C103.17472,32.6515266 101.79478,34.0025294 99.3465769,34.0025294 C97.5476511,34.0025294 96.113454,33.552798 95.2127854,32.6515266 C94.4531854,31.8925294 94.0872511,30.8507923 94.0872511,29.5293294 C94.0872511,28.374858 94.4815197,27.4193294 95.239914,26.6579209 C96.9568511,24.9150609 99.8825169,24.7739923 100.726517,24.7739923 C101.712188,24.7739923 102.443454,24.7739923 103.426714,24.8294551 C103.399585,23.5357237 103.146385,22.6633894 102.58392,22.1009237 C102.048583,21.5667923 101.204583,21.3123866 99.995854,21.3123866 C97.2371797,21.3123866 95.5497826,23.0582609 95.5497826,23.0582609 L95.8596511,20.3001894 C97.3221826,19.4555866 98.8419854,19.0341894 100.416648,19.0341894 C102.386785,19.0341894 103.792648,19.5122551 104.749985,20.441258 C105.735657,21.4257237 106.185388,22.8876523 106.185388,24.9705237 L106.185388,30.822458 C106.185388,32.1186009 106.409048,33.0451923 106.494051,33.5811323 L106.494051,33.692058 Z" id="Fill-14" fill="#6C6E70"></path>
                <path d="M121.265197,25.1944851 L121.265197,33.6923594 L118.506522,33.6923594 L118.506522,26.2934937 C118.506522,22.831888 117.690254,21.4537566 115.580857,21.312688 C112.852325,21.312688 111.362665,23.3660194 111.362665,27.0524909 L111.362665,33.6923594 L108.603991,33.6923594 L108.603991,19.3708851 L111.278265,19.3708851 L111.278265,21.511028 C112.093931,20.0189566 113.865125,19.0628251 115.891328,19.0628251 C117.523262,19.0628251 118.816994,19.5125566 119.718265,20.4132251 C120.730462,21.4254223 121.265197,23.0579594 121.265197,25.1944851" id="Fill-16" fill="#6C6E70"></path>
                <path d="M131.253515,27.164984 C131.843712,26.5735811 132.180106,25.7585183 132.180106,24.8596583 C132.180106,24.0982497 131.871443,23.3657783 131.280643,22.7767869 C130.633175,22.1287154 129.733712,21.763384 128.805312,21.763384 C126.89124,21.763384 125.343706,23.1710554 125.343706,24.9151211 C125.343706,25.8139811 125.653575,26.5735811 126.216643,27.1378554 C126.862906,27.7835154 127.763575,28.122924 128.83244,28.122924 C129.788572,28.122924 130.633175,27.7835154 131.253515,27.164984 M128.720912,43.2871926 C126.046637,43.2871926 123.76844,42.5251811 122.416835,41.1765897 C121.631312,40.3886554 120.815646,39.0376526 121.461909,36.816124 L124.782446,36.3362497 L124.782446,36.6183869 C124.191043,37.1519154 124.02164,37.799384 124.02164,38.2786554 C124.02164,38.896584 124.218172,39.4313183 124.640775,39.8539211 C125.400375,40.5851869 126.807443,40.9782497 128.805312,40.9782497 C130.774243,40.9782497 132.20844,40.5851869 132.96804,39.8255869 C133.585969,39.2076583 133.868709,38.3636583 132.939706,37.575724 C130.68924,35.604984 123.740709,36.7311211 123.740709,32.6793183 C123.740709,31.6393897 124.922309,30.5687154 126.244375,30.2600526 L126.496369,30.203384 L126.496369,29.9507869 L126.272709,29.8935154 C125.090506,29.3883211 124.161503,28.6847869 123.571306,27.8407869 C123.00884,26.9967869 122.699575,25.9821783 122.699575,24.8023869 C122.699575,23.3392526 123.205372,22.0720469 124.133169,21.1448526 C125.372643,19.906584 127.340972,19.2319869 129.788572,19.2319869 L136.765437,19.2319869 L136.17524,21.4818497 L132.854703,21.4818497 L133.137443,21.7350497 C134.402237,23.0010497 134.825443,24.1820469 134.825443,25.2515154 C134.825443,29.4160526 130.914709,30.3727869 129.198375,30.5976526 C127.848577,30.7935811 126.554243,30.9358554 126.554243,31.920924 C126.554243,32.7920526 128.523175,33.4395211 131.730977,34.0580526 C134.656643,34.6482497 136.400106,36.0824469 136.400106,38.4462497 C136.400106,41.3725183 133.333975,43.2871926 128.720912,43.2871926" id="Fill-18" fill="#6C6E70"></path>
                <path d="M147.626632,26.5179374 C147.626632,24.9426717 147.064167,23.422266 146.106829,22.4396089 C145.347832,21.6800089 144.362764,21.2845346 143.293295,21.2845346 C140.480364,21.2845346 138.961164,23.9865403 138.961164,26.5179374 C138.961164,28.1227431 139.495898,29.6702774 140.452632,30.5980746 C141.211027,31.355866 142.168364,31.7224031 143.293295,31.7224031 C144.447767,31.7224031 145.376167,31.355866 146.135164,30.5980746 C147.064167,29.6702774 147.626632,28.1227431 147.626632,26.5179374 M150.580029,26.5179374 C150.580029,28.5435374 149.849367,30.4009403 148.555032,31.7796746 C147.203427,33.2138717 145.347832,34.0024089 143.293295,34.0024089 C141.324364,34.0024089 139.524232,33.2693346 138.173229,31.9484746 C136.795701,30.5408031 136.007164,28.5996031 136.007164,26.5179374 C136.007164,24.3518717 136.764955,22.4112746 138.117164,21.059066 C139.439229,19.7370003 141.239361,19.0340689 143.293295,19.0340689 C145.376167,19.0340689 147.149169,19.7092689 148.470029,21.0319374 C149.820429,22.3829403 150.580029,24.3518717 150.580029,26.5179374" id="Fill-20" fill="#6C6E70"></path>
                <mask id="mask-4" fill="white">
                    <use xlink:href="#path-3"></use>
                </mask>
                <g id="Clip-23"></g>
                <polygon id="Fill-22" fill="#F5811F" mask="url(#mask-4)" points="164.805469 18.4444143 165.446909 18.4444143 165.446909 12.43212 164.805469 12.43212"></polygon>
                <polygon id="Fill-24" fill="#F5811F" mask="url(#mask-4)" points="171.019117 18.4447157 167.826989 13.6224614 167.826989 18.4447157 167.185549 18.4447157 167.185549 12.4324214 167.793229 12.4324214 170.985357 17.2371929 170.985357 12.4324214 171.6274 12.4324214 171.6274 18.4447157"></polygon>
                <path d="M175.237972,18.4953557 C174.647172,18.4953557 174.106409,18.2759157 173.701289,17.8701929 C173.135809,17.3047129 173.135809,16.71331 173.135809,15.4382671 C173.135809,14.1632243 173.135809,13.5718214 173.701289,13.0063414 C174.106409,12.6012214 174.647172,12.3811786 175.237972,12.3811786 C176.318895,12.3811786 177.121297,13.0401014 177.323857,14.1716643 L176.665537,14.1716643 C176.505177,13.4367814 175.989735,12.9557014 175.237972,12.9557014 C174.841292,12.9557014 174.461492,13.1076214 174.199249,13.3777014 C173.819449,13.7665443 173.777249,14.1801043 173.777249,15.4382671 C173.777249,16.6970329 173.819449,17.1105929 174.199249,17.4988329 C174.461492,17.7689129 174.841292,17.9208329 175.237972,17.9208329 C175.989735,17.9208329 176.522057,17.4397529 176.682417,16.70487 L177.323857,16.70487 C177.129737,17.8370357 176.310455,18.4953557 175.237972,18.4953557" id="Fill-25" fill="#F5811F" mask="url(#mask-4)"></path>
                <path d="M181.653336,13.3863826 C181.391093,13.1163026 181.011896,12.9559426 180.614011,12.9559426 C180.217331,12.9559426 179.837531,13.1163026 179.575891,13.3863826 C179.196091,13.7752254 179.153891,14.1803454 179.153891,15.4385083 C179.153891,16.6966711 179.196091,17.102394 179.575891,17.490634 C179.837531,17.760714 180.217331,17.921074 180.614011,17.921074 C181.011896,17.921074 181.391093,17.760714 181.653336,17.490634 C182.033136,17.102394 182.075336,16.6966711 182.075336,15.4385083 C182.075336,14.1803454 182.033136,13.7752254 181.653336,13.3863826 M182.151296,17.870434 C181.746176,18.275554 181.213853,18.4955969 180.614011,18.4955969 C180.014771,18.4955969 179.482448,18.275554 179.077931,17.870434 C178.511848,17.304954 178.511848,16.7135511 178.511848,15.4385083 C178.511848,14.1634654 178.511848,13.5720626 179.077931,13.0065826 C179.482448,12.6008597 180.014771,12.3814197 180.614011,12.3814197 C181.213853,12.3814197 181.746176,12.6008597 182.151296,13.0065826 C182.717379,13.5720626 182.717379,14.1634654 182.717379,15.4385083 C182.717379,16.7135511 182.717379,17.304954 182.151296,17.870434" id="Fill-26" fill="#F5811F" mask="url(#mask-4)"></path>
                <polygon id="Fill-27" fill="#F5811F" mask="url(#mask-4)" points="188.735099 18.4447157 188.735099 13.8762643 187.088696 17.4988329 186.539493 17.4988329 184.867771 13.8762643 184.867771 18.4447157 184.226331 18.4447157 184.226331 12.4324214 184.867771 12.4324214 186.827056 16.6970329 188.735099 12.4324214 189.376539 12.4324214 189.376539 18.4447157"></polygon>
                <polygon id="Fill-28" fill="#F5811F" mask="url(#mask-4)" points="191.113009 18.4447157 191.113009 12.4324214 194.845297 12.4324214 194.845297 13.0063414 191.754449 13.0063414 191.754449 15.1259871 194.389537 15.1259871 194.389537 15.70051 191.754449 15.70051 191.754449 17.8701929 194.845297 17.8701929 194.845297 18.4447157"></polygon>
                <path d="M168.284497,27.9315169 C167.862497,28.3872769 167.296414,28.6235969 166.680294,28.6235969 C166.088891,28.6235969 165.548731,28.4041569 165.143008,27.998434 C164.577528,27.432954 164.577528,26.8415511 164.577528,25.5665083 C164.577528,24.2914654 164.577528,23.7000626 165.143008,23.1345826 C165.548731,22.7294626 166.081054,22.5100226 166.680294,22.5100226 C167.828737,22.5100226 168.605217,23.2527426 168.78306,24.3083454 L168.141017,24.3083454 C167.972217,23.5481426 167.432057,23.0839426 166.680294,23.0839426 C166.283614,23.0839426 165.903211,23.2449054 165.641571,23.5149854 C165.261168,23.9032254 165.218968,24.3083454 165.218968,25.5665083 C165.218968,26.825274 165.261168,27.238834 165.641571,27.627074 C165.903211,27.897154 166.283614,28.049074 166.680294,28.049074 C167.119174,28.049074 167.541777,27.871834 167.819694,27.534234 C168.065057,27.238834 168.157897,26.909674 168.157897,26.4448711 L168.157897,25.9891111 L166.680294,25.9891111 L166.680294,25.4236311 L168.799337,25.4236311 L168.799337,26.3773511 C168.799337,27.070034 168.655857,27.534234 168.284497,27.9315169" id="Fill-29" fill="#F5811F" mask="url(#mask-4)"></path>
                <polygon id="Fill-30" fill="#F5811F" mask="url(#mask-4)" points="170.291469 28.573198 170.291469 22.5603009 174.023757 22.5603009 174.023757 23.1348237 170.932909 23.1348237 170.932909 25.2544694 173.5686 25.2544694 173.5686 25.8283894 170.932909 25.8283894 170.932909 27.9986751 174.023757 27.9986751 174.023757 28.573198"></polygon>
                <polygon id="Fill-31" fill="#F5811F" mask="url(#mask-4)" points="179.189519 28.573198 175.997391 23.7509437 175.997391 28.573198 175.355951 28.573198 175.355951 22.5603009 175.963028 22.5603009 179.155157 27.3656751 179.155157 22.5603009 179.797199 22.5603009 179.797199 28.573198"></polygon>
                <polygon id="Fill-32" fill="#F5811F" mask="url(#mask-4)" points="181.53379 28.573198 181.53379 22.5603009 185.266078 22.5603009 185.266078 23.1348237 182.17523 23.1348237 182.17523 25.2544694 184.810318 25.2544694 184.810318 25.8283894 182.17523 25.8283894 182.17523 27.9986751 185.266078 27.9986751 185.266078 28.573198"></polygon>
                <path d="M188.844035,23.1345223 L187.23923,23.1345223 L187.23923,25.338568 L188.844035,25.338568 C189.544555,25.338568 190.042515,24.975648 190.042515,24.2407651 C190.042515,23.5064851 189.544555,23.1345223 188.844035,23.1345223 L188.844035,23.1345223 Z M190.051558,28.5728966 L188.683073,25.9046509 L187.23923,25.9046509 L187.23923,28.5728966 L186.597187,28.5728966 L186.597187,22.5606023 L188.903115,22.5606023 C189.950278,22.5606023 190.685161,23.1942051 190.685161,24.2323251 C190.685161,25.110688 190.152838,25.684608 189.375755,25.8455709 L190.802718,28.5728966 L190.051558,28.5728966 Z" id="Fill-33" fill="#F5811F" mask="url(#mask-4)"></path>
                <path d="M193.857034,23.4807431 L192.725471,26.6565946 L194.971717,26.6565946 L193.857034,23.4807431 Z M195.638477,28.5730774 L195.157397,27.2130317 L192.531351,27.2130317 L192.049668,28.5730774 L191.365425,28.5730774 L193.577911,22.5607831 L194.118674,22.5607831 L196.322719,28.5730774 L195.638477,28.5730774 Z" id="Fill-34" fill="#F5811F" mask="url(#mask-4)"></path>
                <polygon id="Fill-35" fill="#F5811F" mask="url(#mask-4)" points="198.548649 23.1345223 198.548649 28.5728966 197.907209 28.5728966 197.907209 23.1345223 196.167966 23.1345223 196.167966 22.5606023 200.288495 22.5606023 200.288495 23.1345223"></polygon>
                <path d="M204.153291,23.5148649 C203.891048,23.2447849 203.511851,23.083822 203.114568,23.083822 C202.717888,23.083822 202.337485,23.2447849 202.076448,23.5148649 C201.696045,23.9037077 201.653845,24.3082249 201.653845,25.5663877 C201.653845,26.8251534 201.696045,27.2302734 202.076448,27.6191163 C202.337485,27.8891963 202.717888,28.0489534 203.114568,28.0489534 C203.511851,28.0489534 203.891048,27.8891963 204.153291,27.6191163 C204.533091,27.2302734 204.575291,26.8251534 204.575291,25.5663877 C204.575291,24.3082249 204.533091,23.9037077 204.153291,23.5148649 M204.651251,27.9983134 C204.246131,28.4040363 203.713808,28.6240791 203.114568,28.6240791 C202.515328,28.6240791 201.983005,28.4040363 201.577885,27.9983134 C201.011803,27.4328334 201.011803,26.8420334 201.011803,25.5663877 C201.011803,24.2913449 201.011803,23.7005449 201.577885,23.134462 C201.983005,22.729342 202.515328,22.509902 203.114568,22.509902 C203.713808,22.509902 204.246131,22.729342 204.651251,23.134462 C205.217334,23.7005449 205.217334,24.2913449 205.217334,25.5663877 C205.217334,26.8420334 205.217334,27.4328334 204.651251,27.9983134" id="Fill-36" fill="#F5811F" mask="url(#mask-4)"></path>
                <path d="M208.972049,23.1345223 L207.367846,23.1345223 L207.367846,25.338568 L208.972049,25.338568 C209.672569,25.338568 210.171132,24.975648 210.171132,24.2407651 C210.171132,23.5064851 209.672569,23.1345223 208.972049,23.1345223 L208.972049,23.1345223 Z M210.179572,28.5728966 L208.811086,25.9046509 L207.367846,25.9046509 L207.367846,28.5728966 L206.7252,28.5728966 L206.7252,22.5606023 L209.031129,22.5606023 C210.078292,22.5606023 210.813175,23.1942051 210.813175,24.2323251 C210.813175,25.110688 210.280852,25.684608 209.504372,25.8455709 L210.931335,28.5728966 L210.179572,28.5728966 Z" id="Fill-37" fill="#F5811F" mask="url(#mask-4)"></path>
                <polygon id="Fill-38" fill="#F5811F" mask="url(#mask-4)" points="164.80571 38.7010774 164.80571 32.6881803 165.44715 32.6881803 165.44715 38.1265546 168.521118 38.1265546 168.521118 38.7010774"></polygon>
                <polygon id="Fill-39" fill="#F5811F" mask="url(#mask-4)" points="169.641589 38.7010171 170.283029 38.7010171 170.283029 32.68812 169.641589 32.68812"></polygon>
                <polygon id="Fill-40" fill="#F5811F" mask="url(#mask-4)" points="176.530799 38.7010774 176.530799 34.132626 174.884396 37.7551946 174.335193 37.7551946 172.66347 34.132626 172.66347 38.7010774 172.02203 38.7010774 172.02203 32.6881803 172.66347 32.6881803 174.622756 36.9533946 176.530799 32.6881803 177.172239 32.6881803 177.172239 38.7010774"></polygon>
                <polygon id="Fill-41" fill="#F5811F" mask="url(#mask-4)" points="178.908709 38.7010171 179.550149 38.7010171 179.550149 32.68812 178.908709 32.68812"></polygon>
                <polygon id="Fill-42" fill="#F5811F" mask="url(#mask-4)" points="183.053291 33.2624017 183.053291 38.700776 182.411851 38.700776 182.411851 33.2624017 180.672005 33.2624017 180.672005 32.6884817 184.793137 32.6884817 184.793137 33.2624017"></polygon>
                <polygon id="Fill-43" fill="#F5811F" mask="url(#mask-4)" points="185.913366 38.7010774 185.913366 32.6881803 189.645655 32.6881803 189.645655 33.2627031 186.554806 33.2627031 186.554806 35.3823489 189.190497 35.3823489 189.190497 35.9562689 186.554806 35.9562689 186.554806 38.1265546 189.645655 38.1265546 189.645655 38.7010774"></polygon>
                <path d="M194.110234,33.7016434 C193.797351,33.3809234 193.392834,33.2621606 192.928031,33.2621606 L191.619228,33.2621606 L191.619228,38.1266149 L192.928031,38.1266149 C193.392834,38.1266149 193.797351,38.0090577 194.110234,37.6877349 C194.524397,37.256692 194.506914,36.362052 194.506914,35.6271691 C194.506914,34.8928891 194.524397,34.1326863 194.110234,33.7016434 M194.557554,38.1434949 C194.195237,38.5070177 193.662914,38.7011377 193.038354,38.7011377 L190.977788,38.7011377 L190.977788,32.6882406 L193.038354,32.6882406 C193.662914,32.6882406 194.195237,32.8829634 194.557554,33.2458834 C195.182717,33.8704434 195.148957,34.7916091 195.148957,35.6271691 C195.148957,36.463332 195.182717,37.5189349 194.557554,38.1434949" id="Fill-44" fill="#F5811F" mask="url(#mask-4)"></path>
                <polygon id="Fill-45" fill="#6C6E70" mask="url(#mask-4)" points="158.688277 43.2875543 158.9885 43.2875543 158.9885 9.77954857 158.688277 9.77954857"></polygon>
            </g>
        </g>
    </g>
</svg>