<?xml version="1.0" encoding="UTF-8"?>
<svg width="457px" height="145px" viewBox="0 0 457 145" version="1.1" xmlns="http://www.w3.org/2000/svg" xmlns:xlink="http://www.w3.org/1999/xlink">
    <!-- Generator: Sketch 46.1 (44463) - http://www.bohemiancoding.com/sketch -->
    <title>benitec_logo_white</title>
    <desc>Created with Sketch.</desc>
    <defs></defs>
    <g id="Page-1" stroke="none" stroke-width="1" fill="none" fill-rule="evenodd">
        <g id="benitec_logo_white" transform="translate(-195.000000, 0.000000)" fill-rule="nonzero">
            <g id="benitec" transform="translate(300.000000, 28.000000)" fill="#FFFFFF">
                <path d="M330.6,42 C325.2,42 320.8,40.4 317.3,37.1 C313.8,33.8 312.1,29.6 312.1,24.5 C312.1,19.4 313.9,15.2 317.4,11.9 C320.9,8.5 325.3,6.9 330.7,6.9 C335.9,6.9 341.2,8.5 346.7,11.6 L346.7,4.4 C340.7,1.8 335.3,0.6 330.4,0.6 C323.3,0.6 317.4,2.9 312.5,7.5 C307.7,12.1 305.3,17.8 305.3,24.6 C305.3,28.9 306.4,32.8 308.5,36.5 C310.6,40.2 313.5,43 317.1,45.1 C320.7,47.2 325.1,48.2 330.3,48.2 C336.7,48.2 342.3,46.9 347.2,44.2 L347.2,36.9 C341.7,40.2 336.2,42 330.6,42 L330.6,42 Z M258.2,47.5 L285.2,47.5 L285.2,41.6 L264.9,41.6 L264.9,27.1 L283.9,27.1 L283.9,21.1 L264.9,21.1 L264.9,7 L284.6,7 L284.6,1.1 L258.2,1.1 L258.2,47.5 L258.2,47.5 Z M198.4,6.9 L214.4,6.9 L214.4,47.6 L221.1,47.6 L221.1,6.9 L237.3,6.9 L237.3,1 L198.4,1 L198.4,6.9 L198.4,6.9 Z M170.7,47.6 L177.4,47.6 L177.4,1 L170.7,1 L170.7,47.6 Z M139.7,37.2 L108.3,1.1 L102.9,1.1 L102.9,47.6 L109.2,47.6 L109.2,11.7 L140.3,47.5 L146,47.5 L146,1 L139.7,1 L139.7,37.2 L139.7,37.2 Z M53.9,47.5 L80.9,47.5 L80.9,41.6 L60.5,41.6 L60.5,27.1 L79.6,27.1 L79.6,21.1 L60.5,21.1 L60.5,7 L80.2,7 L80.2,1.1 L53.9,1.1 L53.9,47.5 Z M21,27.8 C22.5,28.4 23.7,29.3 24.5,30.4 C25.3,31.6 25.8,32.9 25.8,34.3 C25.8,35.7 25.4,37 24.6,38.2 C23.8,39.4 22.8,40.3 21.5,40.9 C20.2,41.5 17.7,41.7 14.1,41.7 L7.5,41.7 L7.5,26.9 L13.7,26.9 C17,26.9 19.4,27.2 21,27.8 L21,27.8 Z M21.7,13.7 C21.7,15.9 21,17.6 19.5,19 C18,20.4 15.5,21 11.9,21 L7.5,21 L7.5,7 L13.2,7 C18.9,7 21.7,9.2 21.7,13.7 L21.7,13.7 Z M25.4,45.8 C27.8,44.6 29.6,43.1 30.8,41.2 C32,39.3 32.6,37.2 32.6,34.8 C32.6,31.8 31.6,29.2 29.6,27.1 C27.6,24.9 24.9,23.5 21.5,22.9 C26.2,20.9 28.6,17.6 28.6,13.1 C28.6,10.7 28,8.6 26.9,6.8 C25.8,5 24.1,3.6 22,2.5 C19.8,1.5 16.8,0.9 13,0.9 L0.8,0.9 L0.8,47.4 L16.6,47.4 C20.1,47.6 23.1,47 25.4,45.8 L25.4,45.8 Z" id="Shape"></path>
                <path d="M11,74.6 C11,75.2 10.8,75.7 10.5,76.2 C10.2,76.7 9.8,77 9.2,77.3 C8.7,77.5 7.7,77.6 6.2,77.6 L3.5,77.6 L3.5,71.6 L6,71.6 C7.3,71.6 8.3,71.7 9,72 C9.6,72.2 10.1,72.6 10.5,73.1 C10.8,73.5 11,74 11,74.6 M8.4,68.4 C7.8,69 6.8,69.2 5.3,69.2 L3.5,69.2 L3.5,63.5 L5.8,63.5 C8.1,63.5 9.3,64.4 9.3,66.2 C9.4,67.1 9,67.8 8.4,68.4 M12.6,71.7 C11.8,70.8 10.7,70.2 9.3,70 C11.2,69.2 12.2,67.9 12.2,66 C12.2,65 12,64.2 11.5,63.4 C11,62.7 10.4,62.1 9.5,61.7 C8.6,61.3 7.4,61.1 5.8,61.1 L0.8,61.1 L0.8,80.1 L7.2,80.1 C8.7,80.1 9.9,79.9 10.8,79.4 C11.8,78.9 12.5,78.3 13,77.5 C13.5,76.7 13.7,75.9 13.7,74.9 C13.8,73.6 13.4,72.6 12.6,71.7" id="Shape"></path>
                <rect id="Rectangle-path" x="41.5" y="61.1" width="2.7" height="19"></rect>
                <path d="M88.3,70.5 C88.3,72.6 87.6,74.3 86.2,75.7 C84.8,77.1 83,77.8 80.9,77.8 C78.8,77.8 77,77.1 75.6,75.8 C74.2,74.4 73.5,72.7 73.5,70.7 C73.5,68.6 74.2,66.9 75.6,65.5 C77,64.1 78.8,63.5 81,63.5 C83.1,63.5 84.8,64.2 86.2,65.6 C87.6,66.8 88.3,68.5 88.3,70.5 M91.1,70.6 C91.1,67.8 90.1,65.5 88.2,63.6 C86.2,61.7 83.8,60.8 80.9,60.8 C78,60.8 75.5,61.7 73.6,63.6 C71.7,65.5 70.7,67.8 70.7,70.6 C70.7,73.4 71.7,75.7 73.6,77.5 C75.5,79.3 77.9,80.3 80.8,80.3 C83.8,80.3 86.3,79.4 88.3,77.5 C90.1,75.7 91.1,73.4 91.1,70.6" id="Shape"></path>
                <path d="M126.8,66.4 C126.8,67.4 126.5,68.1 125.9,68.6 C125.3,69.1 124.4,69.4 123.3,69.4 L120.3,69.4 L120.3,63.5 L123.1,63.5 C125.6,63.4 126.8,64.4 126.8,66.4 M129.7,66.4 C129.7,64.8 129.2,63.4 128.1,62.5 C127,61.5 125.6,61 123.8,61 L117.8,61 L117.8,80 L120.5,80 L120.5,71.8 L122.5,71.8 C124.3,71.8 125.7,71.6 126.6,71.2 C127.6,70.8 128.3,70.2 128.9,69.3 C129.4,68.5 129.7,67.5 129.7,66.4" id="Shape"></path>
                <polygon id="Shape" points="169.6 69.3 158.9 69.3 158.9 61.1 156.2 61.1 156.2 80 158.9 80 158.9 71.8 169.6 71.8 169.6 80 172.3 80 172.3 61.1 169.6 61.1"></polygon>
                <path d="M211,72 L205.1,72 L207.9,65.1 L211,72 Z M217.4,80 L208.9,60.9 L207,60.9 L198.8,80 L201.6,80 L204,74.4 L212.1,74.4 L214.6,80 L217.4,80 Z" id="Shape"></path>
                <path d="M251.8,67.9 C251.5,68.4 251.1,68.7 250.6,69 C250.1,69.2 249.1,69.4 247.8,69.4 L246.8,69.4 L246.8,63.4 L247.6,63.4 C248.9,63.4 249.9,63.5 250.5,63.7 C251.1,63.9 251.5,64.2 251.8,64.7 C252.1,65.2 252.3,65.7 252.3,66.3 C252.2,66.9 252,67.5 251.8,67.9 L251.8,67.9 Z M258.6,80 L257.6,78.6 C257.2,78.1 256.7,77.2 256,76.2 C254.9,74.5 254.1,73.3 253.6,72.6 C253,71.9 252.4,71.4 251.8,71 C252.8,70.6 253.6,70 254.2,69.2 C254.8,68.4 255,67.4 255,66.3 C255,64.7 254.4,63.4 253.3,62.4 C252.2,61.4 250.6,61 248.7,61 L243.9,61 L243.9,80 L246.6,80 L246.6,71.7 L247.3,71.7 C248.2,71.7 248.8,71.8 249.2,72 C249.6,72.2 250,72.5 250.5,73 C251,73.5 251.5,74.1 252,74.9 L252.9,76.4 L253.7,77.8 L254.2,78.5 C254.3,78.6 254.3,78.7 254.4,78.7 L255.2,80 C255.2,80 258.6,80 258.6,80 Z" id="Shape"></path>
                <polygon id="Shape" points="294 68.9 287.7 61.1 285.2 61.1 285.2 80 287.9 80 287.9 65.3 293.8 72.6 294.3 72.6 300.1 65.3 300.1 80 302.9 80 302.9 61.1 300.3 61.1"></polygon>
                <path d="M341.5,72 L335.6,72 L338.4,65.1 L341.5,72 Z M348,80 L339.5,60.9 L337.6,60.9 L329.4,80 L332.2,80 L334.6,74.4 L342.7,74.4 L345.2,80 L348,80 Z" id="Shape"></path>
            </g>
            <g id="icon" transform="translate(195.000000, 0.000000)">
                <path d="M80.1,61.7 C77.3,58.1 72.9,53.8 66.2,48.8 C101,81.5 10.8,69.6 37.6,105.4 C40.4,109.5 45.2,114.4 52.4,120.1 L51,118.3 C22.4,84.6 111,96.8 80.1,61.7" id="Shape" fill="#FFFFFF"></path>
                <path d="M49.4,0.6 C129.8,61.3 -19,40.8 23.8,91.4 L25.8,93.9 C-58.9,26.4 101.8,49.8 49.4,0.6" id="Shape" fill="#F89829"></path>
            </g>
            <g id="silencing" transform="translate(0.000000, 28.000000)" fill="#F89829">
                <rect id="Rectangle-path" x="389.5" y="98.5" width="2.3" height="11.8"></rect>
                <rect id="Rectangle-path" x="601.1" y="92.3" width="2.3" height="18"></rect>
                <path d="M400.1,98.5 L400.1,110.3 L402.5,110.3 L402.5,101.8 C403.3,100.7 404.2,100.1 405.3,100.1 C406.2,100.1 406.8,100.4 407.2,100.9 C407.6,101.4 407.8,102.3 407.8,103.5 L407.8,110.2 L410.1,110.2 L410.1,103.4 C410.1,102 409.9,100.9 409.6,100.2 C409.3,99.5 408.8,99 408.2,98.6 C407.6,98.2 406.9,98 406.1,98 C404.8,98 403.6,98.6 402.5,99.7 L402.5,98.2 L400.1,98.2 L400.1,98.5 Z" id="Shape"></path>
                <path d="M424.3,102.7 C424.3,103.3 424.1,103.8 423.6,104.2 C423.2,104.6 422.6,104.8 421.9,104.8 C421.2,104.8 420.7,104.6 420.2,104.2 C419.8,103.8 419.5,103.3 419.5,102.7 C419.5,102.1 419.7,101.6 420.2,101.2 C420.6,100.8 421.2,100.6 421.8,100.6 C422.5,100.6 423,100.8 423.5,101.2 C424.1,101.5 424.3,102.1 424.3,102.7 L424.3,102.7 Z M421.4,110.9 C422.5,110.9 423.5,111.1 424.2,111.4 C424.9,111.7 425.3,112.2 425.3,112.7 C425.3,113.3 425,113.7 424.4,114 C423.8,114.3 423,114.5 422,114.5 C419.8,114.5 418.7,113.9 418.7,112.7 C418.7,112.2 419,111.7 419.5,111.4 C420,111 420.7,110.9 421.4,110.9 L421.4,110.9 Z M427.6,100.3 L427.6,98.5 L422.7,98.5 C421.1,98.5 419.8,98.9 418.9,99.6 C418,100.3 417.5,101.3 417.5,102.6 C417.5,104.3 418.4,105.6 420.1,106.3 C419.5,106.4 419.1,106.7 418.7,107 C418.4,107.3 418.2,107.7 418.2,108 C418.2,108.5 418.6,109 419.4,109.5 C417.4,110 416.4,111 416.4,112.6 C416.4,113.7 416.9,114.6 417.9,115.3 C418.9,116 420.3,116.3 421.9,116.3 C423.6,116.3 424.9,116 425.9,115.3 C426.9,114.6 427.4,113.7 427.4,112.6 C427.4,111.7 427.1,111 426.6,110.5 C426.3,110.2 425.9,109.9 425.5,109.7 C425.1,109.5 424.2,109.3 422.7,109 C421.8,108.8 421.2,108.6 420.9,108.5 C420.6,108.3 420.4,108.1 420.4,107.8 C420.4,107.3 420.8,107 421.7,106.9 C423,106.7 423.9,106.5 424.4,106.1 C425,105.8 425.4,105.3 425.8,104.7 C426.2,104.1 426.3,103.5 426.3,102.9 C426.3,102.4 426.2,102 426,101.6 C425.8,101.2 425.5,100.8 425,100.3 L427.6,100.3 Z" id="Shape"></path>
                <path d="M452.7,102.7 C452.7,103.3 452.5,103.8 452,104.2 C451.6,104.6 451,104.8 450.3,104.8 C449.6,104.8 449.1,104.6 448.6,104.2 C448.2,103.8 447.9,103.3 447.9,102.7 C447.9,102.1 448.1,101.6 448.6,101.2 C449,100.8 449.6,100.6 450.2,100.6 C450.9,100.6 451.4,100.8 451.9,101.2 C452.4,101.5 452.7,102.1 452.7,102.7 L452.7,102.7 Z M449.8,110.9 C450.9,110.9 451.9,111.1 452.6,111.4 C453.3,111.7 453.7,112.2 453.7,112.7 C453.7,113.3 453.4,113.7 452.8,114 C452.2,114.3 451.4,114.5 450.4,114.5 C448.2,114.5 447.1,113.9 447.1,112.7 C447.1,112.2 447.4,111.7 447.9,111.4 C448.3,111 449,110.9 449.8,110.9 L449.8,110.9 Z M456,100.3 L456,98.5 L451.1,98.5 C449.5,98.5 448.2,98.9 447.3,99.6 C446.4,100.3 445.9,101.3 445.9,102.6 C445.9,104.3 446.8,105.6 448.5,106.3 C447.9,106.4 447.5,106.7 447.1,107 C446.8,107.3 446.6,107.7 446.6,108 C446.6,108.5 447,109 447.8,109.5 C445.8,110 444.8,111 444.8,112.6 C444.8,113.7 445.3,114.6 446.3,115.3 C447.3,116 448.7,116.3 450.3,116.3 C452,116.3 453.3,116 454.3,115.3 C455.3,114.6 455.8,113.7 455.8,112.6 C455.8,111.7 455.5,111 455,110.5 C454.7,110.2 454.3,109.9 453.9,109.7 C453.5,109.5 452.6,109.3 451.1,109 C450.2,108.8 449.6,108.6 449.3,108.5 C449,108.3 448.8,108.1 448.8,107.8 C448.8,107.3 449.2,107 450.1,106.9 C451.4,106.7 452.3,106.5 452.8,106.1 C453.4,105.8 453.8,105.3 454.2,104.7 C454.6,104.1 454.7,103.5 454.7,102.9 C454.7,102.4 454.6,102 454.4,101.6 C454.2,101.2 453.9,100.8 453.4,100.3 L456,100.3 Z" id="Shape"></path>
                <path d="M470.4,103.2 L464.4,103.2 C464.6,102.3 464.9,101.5 465.4,101 C465.9,100.5 466.6,100.2 467.5,100.2 C468.3,100.2 469,100.5 469.5,101 C470.1,101.6 470.4,102.3 470.4,103.2 L470.4,103.2 Z M472.7,104.6 L472.7,104.3 C472.7,102.5 472.2,101 471.3,99.9 C470.4,98.8 469.1,98.3 467.5,98.3 C465.9,98.3 464.5,98.9 463.5,100 C462.5,101.1 462,102.6 462,104.4 C462,105.6 462.2,106.7 462.7,107.6 C463.2,108.5 463.8,109.2 464.6,109.8 C465.4,110.3 466.5,110.6 467.8,110.6 C468.8,110.6 469.6,110.5 470.3,110.3 C471,110.1 471.7,109.8 472.4,109.3 L472.4,107 C471.1,108 469.7,108.4 468.1,108.4 C467,108.4 466.1,108.1 465.4,107.4 C464.7,106.7 464.3,105.8 464.3,104.7 L472.7,104.6 L472.7,104.6 Z" id="Shape"></path>
                <path d="M480.1,98.5 L480.1,110.3 L482.5,110.3 L482.5,101.8 C483.3,100.7 484.2,100.1 485.3,100.1 C486.2,100.1 486.8,100.4 487.2,100.9 C487.6,101.4 487.8,102.3 487.8,103.5 L487.8,110.2 L490.1,110.2 L490.1,103.4 C490.1,102 489.9,100.9 489.6,100.2 C489.3,99.5 488.8,99 488.2,98.6 C487.6,98.2 486.9,98 486.1,98 C484.8,98 483.6,98.6 482.5,99.7 L482.5,98.2 L480.1,98.2 L480.1,98.5 Z" id="Shape"></path>
                <path d="M517.2,110.3 C517.7,110.4 518.4,110.5 519.1,110.5 C520.3,110.5 521.3,110.2 522,109.6 C522.8,109 523.1,108.2 523.1,107.2 C523.1,105.8 522.1,104.6 520.1,103.5 L519.3,103 C518.7,102.6 518.2,102.3 518,102.1 C517.7,101.9 517.6,101.6 517.6,101.3 C517.6,101 517.7,100.7 518,100.5 C518.3,100.3 518.6,100.2 519.1,100.2 C520,100.2 521.1,100.6 522.5,101.5 L522.5,99.2 C521.3,98.5 520.1,98.2 518.9,98.2 C517.8,98.2 516.9,98.5 516.2,99.1 C515.5,99.7 515.1,100.4 515.1,101.3 C515.1,102 515.3,102.7 515.8,103.2 C516.3,103.8 517.3,104.5 518.8,105.4 C519.6,105.8 520,106.2 520.3,106.4 C520.5,106.6 520.6,106.9 520.6,107.3 C520.6,107.6 520.4,107.9 520.1,108.2 C519.7,108.4 519.3,108.6 518.8,108.6 C518.3,108.6 517.7,108.5 517.1,108.2 C516.4,107.9 515.7,107.5 515.1,107.1 L515.1,109.6 C516,109.9 516.6,110.2 517.2,110.3" id="Shape"></path>
                <path d="M302.9,110.3 C303.4,110.4 304.1,110.5 304.8,110.5 C306,110.5 307,110.2 307.7,109.6 C308.5,109 308.8,108.2 308.8,107.2 C308.8,105.8 307.8,104.6 305.8,103.5 L305,103 C304.4,102.6 303.9,102.3 303.7,102.1 C303.4,101.9 303.3,101.6 303.3,101.3 C303.3,101 303.4,100.7 303.7,100.5 C304,100.3 304.3,100.2 304.8,100.2 C305.7,100.2 306.8,100.6 308.2,101.5 L308.2,99.2 C307,98.5 305.8,98.2 304.6,98.2 C303.5,98.2 302.6,98.5 301.9,99.1 C301.2,99.7 300.8,100.4 300.8,101.3 C300.8,102 301,102.7 301.5,103.2 C302,103.8 303,104.5 304.5,105.4 C305.3,105.8 305.7,106.2 306,106.4 C306.2,106.6 306.3,106.9 306.3,107.3 C306.3,107.6 306.1,107.9 305.8,108.2 C305.4,108.4 305,108.6 304.5,108.6 C304,108.6 303.4,108.5 302.8,108.2 C302.1,107.9 301.4,107.5 300.8,107.1 L300.8,109.6 C301.6,109.9 302.3,110.2 302.9,110.3" id="Shape"></path>
                <path d="M541.5,98.5 L541.5,100.6 L543.2,100.6 L543.2,110.3 L545.5,110.3 L545.5,100.6 L547.6,100.6 L547.6,98.5 L545.5,98.5 L545.5,97.8 C545.5,96.5 545.7,95.7 546,95.2 C546.4,94.7 547,94.5 547.9,94.5 C548.2,94.5 548.6,94.6 549,94.7 L549,92.4 C548.3,92.2 547.8,92.2 547.3,92.2 C546.2,92.2 545.2,92.7 544.4,93.6 C543.6,94.5 543.2,96 543.2,97.9 L543.2,98.6 L541.5,98.5 L541.5,98.5 Z" id="Shape"></path>
                <path d="M563.7,104.5 C563.7,105.6 563.3,106.6 562.6,107.3 C561.9,108 560.9,108.4 559.8,108.4 C558.6,108.4 557.7,108 557,107.3 C556.3,106.6 555.9,105.7 555.9,104.5 C555.9,103.4 556.3,102.4 557,101.7 C557.7,101 558.6,100.6 559.8,100.6 C561,100.6 561.9,101 562.7,101.7 C563.3,102.4 563.7,103.3 563.7,104.5 M566.1,104.6 C566.1,102.8 565.5,101.4 564.3,100.2 C563.1,99 561.6,98.5 559.8,98.5 C558,98.5 556.5,99.1 555.3,100.2 C554.1,101.4 553.5,102.8 553.5,104.5 C553.5,106.2 554.1,107.6 555.3,108.8 C556.5,109.9 558,110.5 559.8,110.5 C561.6,110.5 563.2,109.9 564.4,108.8 C565.5,107.7 566.1,106.3 566.1,104.6" id="Shape"></path>
                <path d="M573.7,98.5 L573.7,110.3 L576.1,110.3 L576.1,104.1 C576.1,103.1 576.4,102.3 576.9,101.5 C577.5,100.8 578.1,100.4 578.9,100.4 C579.6,100.4 580.4,100.8 581.2,101.6 L582.4,99.5 C581.4,98.6 580.5,98.2 579.6,98.2 C578.5,98.2 577.3,99.1 576.2,100.9 L576.1,101.1 L576.1,98.4 L573.7,98.4 L573.7,98.5 Z" id="Shape"></path>
                <path d="M620.9,98.5 L620.9,100.6 L622.6,100.6 L622.6,110.3 L624.9,110.3 L624.9,100.6 L627,100.6 L627,98.5 L624.9,98.5 L624.9,97.8 C624.9,96.5 625.1,95.7 625.4,95.2 C625.8,94.7 626.4,94.5 627.3,94.5 C627.6,94.5 628,94.6 628.4,94.7 L628.4,92.4 C627.7,92.2 627.2,92.2 626.7,92.2 C625.6,92.2 624.6,92.7 623.8,93.6 C623,94.5 622.6,96 622.6,97.9 L622.6,98.6 L620.9,98.5 L620.9,98.5 Z" id="Shape"></path>
                <path d="M641.3,103.2 L635.3,103.2 C635.5,102.3 635.8,101.5 636.3,101 C636.8,100.5 637.5,100.2 638.4,100.2 C639.3,100.2 639.9,100.5 640.4,101 C641,101.6 641.3,102.3 641.3,103.2 L641.3,103.2 Z M643.7,104.6 L643.7,104.3 C643.7,102.5 643.2,101 642.3,99.9 C641.4,98.8 640.1,98.3 638.5,98.3 C636.9,98.3 635.5,98.9 634.5,100 C633.5,101.1 633,102.6 633,104.4 C633,105.6 633.2,106.7 633.7,107.6 C634.2,108.5 634.8,109.2 635.6,109.8 C636.4,110.3 637.5,110.6 638.8,110.6 C639.8,110.6 640.6,110.5 641.3,110.3 C642,110.1 642.7,109.8 643.4,109.3 L643.4,107 C642.1,108 640.7,108.4 639.1,108.4 C638,108.4 637.1,108.1 636.4,107.4 C635.7,106.7 635.3,105.8 635.3,104.7 L643.7,104.6 L643.7,104.6 Z" id="Shape"></path>
                <path d="M505.900006,103.200003 L499.900006,103.200003 C500.100006,102.300003 500.400006,101.500003 500.900006,101.000003 C501.400006,100.500003 502.100006,100.200003 503.000006,100.200003 C503.900006,100.200003 504.500006,100.500003 505.000006,101.000003 C505.600006,101.600003 505.900006,102.300003 505.900006,103.200003 L505.900006,103.200003 Z M508.300006,104.600003 L508.300006,104.300003 C508.300006,102.500003 507.800006,101.000003 506.900006,99.9000031 C506.000006,98.8000031 504.700006,98.3000031 503.100006,98.3000031 C501.500006,98.3000031 500.100006,98.9000031 499.100006,100.000003 C498.100006,101.100003 497.600006,102.600003 497.600006,104.400003 C497.600006,105.600003 497.800006,106.700003 498.300006,107.600003 C498.800006,108.500003 499.400006,109.200003 500.200006,109.800003 C501.000006,110.300003 502.100006,110.600003 503.400006,110.600003 C504.400006,110.600003 505.200006,110.500003 505.900006,110.300003 C506.600006,110.100003 507.300006,109.800003 508.000006,109.300003 L508.000006,107.000003 C506.700006,108.000003 505.300006,108.400003 503.700006,108.400003 C502.600006,108.400003 501.700006,108.100003 501.000006,107.400003 C500.300006,106.700003 499.900006,105.800003 499.900006,104.700003 L508.300006,104.600003 L508.300006,104.600003 Z" id="Shape"></path>
                <path d="M645.5,93.8 C645.6,93.5 645.8,93.2 646.1,92.9 C646.3,92.7 646.6,92.5 647,92.3 C647.3,92.2 647.7,92.1 648.1,92.1 C648.5,92.1 648.8,92.2 649.2,92.3 C649.5,92.4 649.8,92.6 650.1,92.9 C650.3,93.1 650.5,93.4 650.7,93.8 C650.9,94.2 650.9,94.5 650.9,94.9 C650.9,95.3 650.8,95.6 650.7,96 C650.6,96.4 650.4,96.6 650.1,96.9 C649.9,97.1 649.6,97.3 649.2,97.5 C648.9,97.6 648.5,97.7 648.1,97.7 C647.7,97.7 647.4,97.6 647,97.5 C646.7,97.4 646.4,97.2 646.1,96.9 C645.9,96.7 645.7,96.4 645.5,96 C645.4,95.7 645.3,95.3 645.3,94.9 C645.2,94.5 645.3,94.2 645.5,93.8 L645.5,93.8 Z M644.9,96.2 C645.1,96.6 645.3,97 645.6,97.3 C645.9,97.6 646.3,97.8 646.7,98 C647.1,98.2 647.5,98.3 648,98.3 C648.5,98.3 648.9,98.2 649.3,98 C649.7,97.8 650.1,97.6 650.4,97.3 C650.7,97 650.9,96.6 651.1,96.2 C651.3,95.8 651.4,95.4 651.4,94.9 C651.4,94.4 651.3,94 651.1,93.6 C650.9,93.2 650.7,92.8 650.4,92.5 C650.1,92.2 649.7,92 649.3,91.8 C648.9,91.6 648.5,91.5 648,91.5 C647.5,91.5 647.1,91.6 646.7,91.8 C646.3,92 645.9,92.2 645.6,92.5 C645.3,92.8 645.1,93.2 644.9,93.6 C644.7,94 644.6,94.4 644.6,94.9 C644.6,95.3 644.7,95.8 644.9,96.2 L644.9,96.2 Z M647.4,93.6 L647.9,93.6 C648,93.6 648.1,93.6 648.2,93.6 C648.3,93.6 648.4,93.6 648.5,93.7 C648.6,93.7 648.7,93.8 648.7,93.9 C648.8,94 648.8,94.1 648.8,94.2 C648.8,94.3 648.8,94.4 648.7,94.5 C648.6,94.6 648.6,94.6 648.5,94.7 C648.4,94.7 648.3,94.8 648.2,94.8 C648.1,94.8 648,94.8 647.9,94.8 L647.4,94.8 L647.4,93.6 Z M646.7,96.8 L647.4,96.8 L647.4,95.2 L647.9,95.2 L648.8,96.8 L649.5,96.8 L648.5,95.2 C648.8,95.2 649,95.1 649.1,94.9 C649.3,94.7 649.4,94.5 649.4,94.1 C649.4,93.7 649.3,93.4 649.1,93.3 C648.9,93.1 648.5,93 648.1,93 L646.6,93 L646.7,96.8 L646.7,96.8 Z" id="Shape"></path>
                <path d="M316.5,93.9 C316.2,94.2 316.1,94.5 316.1,94.9 C316.1,95.3 316.2,95.6 316.5,95.9 C316.8,96.2 317.1,96.3 317.5,96.3 C317.9,96.3 318.2,96.2 318.5,95.9 C318.8,95.6 318.9,95.3 318.9,94.9 C318.9,94.5 318.8,94.2 318.5,93.9 C318.2,93.6 317.9,93.5 317.5,93.5 C317.1,93.5 316.7,93.6 316.5,93.9" id="Shape"></path>
                <path d="M612,93.9 C611.7,94.2 611.6,94.5 611.6,94.9 C611.6,95.3 611.7,95.6 612,95.9 C612.3,96.2 612.6,96.3 613,96.3 C613.4,96.3 613.7,96.2 614,95.9 C614.3,95.6 614.4,95.3 614.4,94.9 C614.4,94.5 614.3,94.2 614,93.9 C613.7,93.6 613.4,93.5 613,93.5 C612.6,93.5 612.2,93.6 612,93.9" id="Shape"></path>
                <rect id="Rectangle-path" x="611.8" y="98.5" width="2.3" height="11.8"></rect>
                <path d="M345.3,103.2 L339.3,103.2 C339.5,102.3 339.8,101.5 340.3,101 C340.8,100.5 341.5,100.2 342.4,100.2 C343.2,100.2 343.9,100.5 344.4,101 C345,101.6 345.2,102.3 345.3,103.2 L345.3,103.2 Z M347.6,104.6 L347.6,104.3 C347.6,102.5 347.1,101 346.2,99.9 C345.3,98.8 344,98.3 342.4,98.3 C340.8,98.3 339.4,98.9 338.4,100 C337.4,101.1 336.9,102.6 336.9,104.4 C336.9,105.6 337.1,106.7 337.6,107.6 C338.1,108.5 338.7,109.2 339.5,109.8 C340.3,110.3 341.4,110.6 342.7,110.6 C343.7,110.6 344.5,110.5 345.2,110.3 C345.9,110.1 346.6,109.8 347.3,109.3 L347.3,107 C346,108 344.6,108.4 343,108.4 C341.9,108.4 341,108.1 340.3,107.4 C339.6,106.7 339.2,105.8 339.2,104.7 L347.6,104.6 L347.6,104.6 Z" id="Shape"></path>
                <path d="M355,98.5 L355,110.3 L357.4,110.3 L357.4,101.8 C358.2,100.7 359.1,100.1 360.2,100.1 C361.1,100.1 361.7,100.4 362.1,100.9 C362.5,101.4 362.7,102.3 362.7,103.5 L362.7,110.2 L365,110.2 L365,103.4 C365,102 364.8,100.9 364.5,100.2 C364.2,99.5 363.7,99 363.1,98.6 C362.5,98.2 361.8,98 361,98 C359.7,98 358.5,98.6 357.4,99.7 L357.4,98.2 L355,98.2 L355,98.5 Z" id="Shape"></path>
                <path d="M378.9,108.3 C377.7,108.3 376.7,107.9 375.9,107.2 C375.2,106.5 374.8,105.5 374.8,104.3 C374.8,103.1 375.1,102.2 375.8,101.5 C376.5,100.8 377.3,100.4 378.4,100.4 C379.4,100.4 380.5,100.8 381.7,101.5 L381.7,99.1 C381,98.8 380.4,98.6 379.9,98.4 C379.4,98.3 378.9,98.2 378.3,98.2 C376.5,98.2 375.1,98.8 374.1,99.9 C373,101 372.5,102.5 372.5,104.4 C372.5,106.2 373.1,107.7 374.2,108.8 C375.3,109.9 376.8,110.4 378.6,110.4 C379.7,110.4 380.9,110.2 382.1,109.7 L382.1,107.4 C380.8,108.1 379.8,108.3 378.9,108.3" id="Shape"></path>
                <path d="M389.8,93.9 C389.5,94.2 389.4,94.5 389.4,94.9 C389.4,95.3 389.5,95.6 389.8,95.9 C390.1,96.2 390.4,96.3 390.8,96.3 C391.2,96.3 391.5,96.2 391.8,95.9 C392.1,95.6 392.2,95.3 392.2,94.9 C392.2,94.5 392.1,94.2 391.8,93.9 C391.5,93.6 391.2,93.5 390.8,93.5 C390.3,93.5 390,93.6 389.8,93.9" id="Shape"></path>
                <rect id="Rectangle-path" x="316.3" y="98.5" width="2.3" height="11.8"></rect>
                <rect id="Rectangle-path" x="326.9" y="92.3" width="2.3" height="18"></rect>
            </g>
        </g>
    </g>
</svg>