<?xml version="1.0" encoding="utf-8"?>
<!-- Generator: Adobe Illustrator 16.0.0, SVG Export Plug-In . SVG Version: 6.00 Build 0)  -->
<!DOCTYPE svg PUBLIC "-//W3C//DTD SVG 1.1//EN" "http://www.w3.org/Graphics/SVG/1.1/DTD/svg11.dtd">
<svg version="1.1" id="Layer_1" xmlns="http://www.w3.org/2000/svg" xmlns:xlink="http://www.w3.org/1999/xlink" x="0px" y="0px"
	 width="150px" height="146.756px" viewBox="0 0 150 146.756" enable-background="new 0 0 150 146.756" xml:space="preserve">
<g>
	<path fill="#FFFFFF" d="M146.035,65.012l-2.621,0.343c-3.151-18.15-13.411-34.295-28.592-44.933l0.155-1.164l0.328-2.449
		l-2.268-0.984L90.86,6.2l-6.781-4.644l-0.728-0.5l-0.881-0.064l-12.336-0.9L68.875,0l-0.994,0.778l-0.727,0.57L48.514,0.21
		L47.5,1.112L37.512,9.99l-0.034,0.03l-0.032,0.03c-2.37,2.224-4.003,6.104-3.885,9.225l0.085,2.256
		C19.341,32.154,9.636,47.905,6.595,65.356l-2.631-0.344L0,64.493l0.28,3.989l1.328,18.932l0.284,4.047l0.022-0.006l0.233,3.643
		l1.284,18.288l0.239,3.41l3.396-0.391l9.781-1.128c6.006,9.179,14.155,16.871,23.676,22.327
		c10.447,5.987,22.368,9.151,34.476,9.151c12.109,0,24.03-3.164,34.477-9.151c9.521-5.456,17.669-13.147,23.677-22.327l9.78,1.128
		l3.396,0.391l0.239-3.41l1.283-18.287l0.285-4.051l0.254-3.638l1.33-18.928l0.278-3.989L146.035,65.012z"/>
	<polygon fill="#004A64" points="79.921,29.719 109.667,34.296 111.737,18.824 89.272,9.074 82.232,4.252 69.896,3.352 
		68.193,4.685 54.082,3.835 54.684,19.753 	"/>
	<polygon fill="#004A64" points="42.682,82.16 40.286,92.536 45.916,92.547 43.519,82.221 	"/>
	<path fill="#004A64" d="M144.036,87.009c0.383,0,0.746,0.072,1.095,0.172l1.328-18.928l-70.678,9.248V38.959
		c0.361-0.016,7.845-0.468,12.58,3.673v6.005l9.047,1.047l10.734-7.294c-3.756-1.627-20.367-8.734-27.467-10.29
		c-0.904-0.198-26.687-4.56-26.687-4.56l-5.168,1.74l1.722-2.198L49.671,3.556l-9.987,8.877c-1.66,1.559-2.938,4.565-2.856,6.718
		l0.697,18.436L64.65,45.13v31.119L3.541,68.253l1.328,18.932c0.354-0.103,0.721-0.176,1.107-0.176c2.187,0,3.96,1.772,3.96,3.959
		c0,2.188-1.773,3.959-3.96,3.959c-0.194,0-0.38-0.028-0.568-0.058l1.284,18.289l68.309-7.878v-0.016v0.016l68.307,7.878
		l1.283-18.287c-0.183,0.027-0.364,0.056-0.555,0.056c-2.187,0-3.958-1.771-3.958-3.959
		C140.078,88.781,141.85,87.009,144.036,87.009 M31.341,106.611l-4.793,0.42v-13.72l-6.354,0.019v14.258l-4.756,0.417V74.578
		l4.756,0.501v12.725l6.354,0.19V75.75l4.793,0.506V106.611z M51.052,104.884l-4.716,0.413v-8.16l-6.469,0.196v8.531l-4.719,0.413
		V93.329l4.148-16.233l7.609,0.804l4.147,15.38V104.884z M74.111,102.863l-4.718,0.414V89.604l0.267-2.942l-0.152-0.008l-3.12,6.475
		l-3.804,0.009l-3.12-7.007l-0.153-0.008l0.267,3.216v14.798l-4.718,0.413V78.739l5.365,0.565l4.185,9.275l0.151,0.005l4.186-8.381
		l5.364,0.566V102.863z M97.552,104.72l-4.718-0.412V89.515l0.266-3.217l-0.151,0.009l-3.12,7.019l-3.807,0.006l-3.119-6.439
		l-0.15,0.01l0.266,2.932v13.621l-4.718-0.41V81.071l5.365-0.612l4.185,8.33l0.152-0.006l4.187-9.294l5.363-0.611V104.72z
		 M116.351,106.354l-14.61-1.271V78.4l14.306-1.63v4.94l-9.512,0.764v6.28l8.675-0.301v4.913l-8.675,0.01v7.504l9.816,0.525V106.354
		z M130.048,107.547l-3.88-11.079l-1.979-0.037v10.607l-4.795-0.418V76.389l7.877-0.896c3.767-0.43,6.772,2.783,6.772,7.236v5.926
		c0,2.748-1.255,5.351-3.12,6.739l4.376,12.611L130.048,107.547z"/>
	<path fill="#004A64" d="M34.037,32.167l-0.247-6.615c-12.353,9.847-21.098,24.02-23.948,40.229l5.16,0.675
		C17.429,52.959,24.295,41.011,34.037,32.167"/>
	<path fill="#004A64" d="M75,138.288c-19.824,0-37.436-9.462-48.572-24.116l-5.919,0.683C32.446,132.148,52.396,143.486,75,143.486
		c22.604,0,42.554-11.338,54.492-28.632l-5.919-0.683C112.436,128.826,94.824,138.288,75,138.288"/>
	<path fill="#004A64" d="M135.009,66.454l5.156-0.674c-2.993-17.03-12.496-31.815-25.854-41.695l-0.787,5.973
		C124.559,39.065,132.384,51.855,135.009,66.454"/>
	<path fill="#004A64" d="M127.195,80.815l-3.006,0.24v10.161l3.006-0.045c1.065-0.016,1.94-0.994,1.94-2.188V82.82
		C129.136,81.625,128.261,80.729,127.195,80.815"/>
</g>
<g>
	<defs>
		<path id="SVGID_1_" d="M77.885,128.812v3.361h0.526c0.317,0,0.562-0.231,0.562-0.525v-2.304c0-0.294-0.245-0.532-0.562-0.532
			H77.885z M80.485,115.136l-1.098,4.497h2.579l-1.098-4.497H80.485z M81.068,132.036h0.981v0.982h-0.981V132.036z M69.889,127.968
			h0.915v4.206h1.58v0.844h-2.495V127.968z M73.057,127.968h2.979v0.845h-1.032v4.205h-0.922v-4.205h-1.025V127.968z
			 M76.977,127.968h1.457c0.821,0,1.479,0.629,1.479,1.407v2.236c0,0.777-0.657,1.406-1.479,1.406h-1.457V127.968z M53.653,117.594
			l1.917-4.497h2.457v12.199h-2.161v-7.25l0.122-1.569h-0.07l-1.429,3.435h-1.743l-1.429-3.435h-0.069l0.122,1.569v7.25h-2.161
			v-12.199h2.457l1.917,4.497H53.653z M60.813,113.097h6.552v2.039h-4.356v2.771h3.973v2.04h-3.973v3.311h4.496v2.039h-6.692
			V113.097z M68.81,113.097h7.198v2.039h-2.492v10.16h-2.231v-10.16H68.81V113.097z M77.035,119.964l1.899-6.867h3.485l1.9,6.867
			v5.332h-2.162v-3.625h-2.962v3.625h-2.161V119.964z M87.018,113.097h2.214v10.16h3.816v2.039h-6.03V113.097z M98.188,123.432
			c0.783,0,1.411-0.61,1.411-1.256c0-2.509-5.054-2.021-5.054-5.854c0-1.936,1.586-3.398,3.572-3.398
			c1.985,0,3.555,1.429,3.555,3.607h-2.195c0-0.871-0.574-1.568-1.359-1.568c-0.75,0-1.359,0.522-1.359,1.201
			c0,2.005,5.072,1.883,5.072,5.892c0,1.864-1.586,3.415-3.591,3.415h-0.279c-2.004,0-3.608-1.551-3.608-3.415v-0.558h2.215v0.558
			c0,0.731,0.645,1.377,1.429,1.377H98.188z M30.237,113.731C41.155,127.153,57.516,135.019,75,135.019
			c17.483,0,33.845-7.865,44.762-21.287l-44.761-5.161L30.237,113.731z M18.243,66.88l43.138,5.646V47.614l-24.732-6.878
			l-2.301-0.64l-0.09-2.386l-0.045-1.211C25.894,44.782,20.348,55.303,18.243,66.88 M112.907,34.729l-1.2,9.191l-1.727,1.174
			l-10.735,7.293L98.24,53.07l-1.207-0.139l-8.694-1.006v20.637l43.423-5.682c-2.338-12.749-8.984-24.41-18.744-32.974
			L112.907,34.729z"/>
	</defs>
	<clipPath id="SVGID_2_">
		<use xlink:href="#SVGID_1_"  overflow="visible"/>
	</clipPath>
	
		<radialGradient id="SVGID_3_" cx="9.765625e-04" cy="146.7559" r="0.9997" gradientTransform="matrix(53.7476 0 0 -53.7476 75 7972.2495)" gradientUnits="userSpaceOnUse">
		<stop  offset="0" style="stop-color:#00AFDB"/>
		<stop  offset="0.3" style="stop-color:#00AFDB"/>
		<stop  offset="0.4387" style="stop-color:#0090B7"/>
		<stop  offset="0.5945" style="stop-color:#007294"/>
		<stop  offset="0.729" style="stop-color:#005C7A"/>
		<stop  offset="0.8352" style="stop-color:#004F6A"/>
		<stop  offset="0.9" style="stop-color:#004963"/>
		<stop  offset="1" style="stop-color:#004963"/>
	</radialGradient>
	<rect x="18.243" y="33.906" clip-path="url(#SVGID_2_)" fill="url(#SVGID_3_)" width="113.519" height="101.113"/>
</g>
</svg>
