<?xml version="1.0" encoding="UTF-8"?> <svg xmlns="http://www.w3.org/2000/svg" id="Layer_1" data-name="Layer 1" viewBox="0 0 258.67 78.67"> <defs> <style>.cls-1{fill:#fff;}</style> </defs> <title>chesser-temp-logo-text-white-061017</title> <path class="cls-1" d="M29.45,46.18a21.69,21.69,0,0,1-9.1,1.89q-7.49,0-11.95-4.55T3.95,31.42q0-7.55,4.49-12.1t11.79-4.55a25,25,0,0,1,9.1,1.67l-1.25,3.93a24.18,24.18,0,0,0-7.79-1.49A10.63,10.63,0,0,0,12,22.26q-3.06,3.38-3.06,9.16a13,13,0,0,0,3.17,8.9,10.45,10.45,0,0,0,8.25,3.61,24.12,24.12,0,0,0,8.28-1.55Z"></path> <path class="cls-1" d="M67,47.24H62.23V26.91q0-4.23-1.35-6.13a4.85,4.85,0,0,0-4.25-1.9q-4.35,0-9.34,5.42V47.24H42.54V4.3h4.75V20.19q5.11-5.42,10.77-5.42Q67,14.77,67,25.54v21.7Z"></path> <path class="cls-1" d="M105.32,31.54H83.56a12.85,12.85,0,0,0,3.12,8.89,9.86,9.86,0,0,0,7.65,3.5,27.8,27.8,0,0,0,8.92-1.55l0.82,3.8a23.73,23.73,0,0,1-9.8,1.89,15,15,0,0,1-11.38-4.53Q78.57,39,78.57,31.29q0-7.55,3.88-12a12.64,12.64,0,0,1,10-4.49,11.73,11.73,0,0,1,9.16,4.17q3.68,4.17,3.68,11.11v1.49Zm-5.17-3.86a9,9,0,0,0-2.31-6.25,6.88,6.88,0,0,0-5.17-2.54,8.25,8.25,0,0,0-6.1,2.43,9.64,9.64,0,0,0-2.69,6.36h16.28Z"></path> <path class="cls-1" d="M138.46,20.06a24.16,24.16,0,0,0-7.52-1.31A12.29,12.29,0,0,0,124.83,20a3.89,3.89,0,0,0-2.25,3.45,3.25,3.25,0,0,0,1,2.39,10.2,10.2,0,0,0,4.14,1.9l4.53,1.31a20,20,0,0,1,5.11,2.12,8.43,8.43,0,0,1,3,3,8.13,8.13,0,0,1,1,4.06,8.27,8.27,0,0,1-3.8,7.17,16.63,16.63,0,0,1-9.68,2.63,23,23,0,0,1-9.65-1.77l0.91-4.11a19.73,19.73,0,0,0,8.55,1.89,12.47,12.47,0,0,0,6.44-1.48,4.43,4.43,0,0,0,2.48-3.91,4.14,4.14,0,0,0-1.23-2.94q-1.23-1.29-5.8-2.69-3.68-1.13-5.42-1.69a11.31,11.31,0,0,1-3.23-1.66,7.6,7.6,0,0,1,.55-12.54q3.59-2.4,9.53-2.4a32,32,0,0,1,8.52,1.31Z"></path> <path class="cls-1" d="M175.86,20.06a24.16,24.16,0,0,0-7.52-1.31A12.3,12.3,0,0,0,162.23,20,3.89,3.89,0,0,0,160,23.5a3.25,3.25,0,0,0,1,2.39,10.2,10.2,0,0,0,4.14,1.9l4.53,1.31a20,20,0,0,1,5.11,2.12,8.42,8.42,0,0,1,3,3,8.12,8.12,0,0,1,1,4.06,8.28,8.28,0,0,1-3.8,7.17,16.64,16.64,0,0,1-9.68,2.63,23,23,0,0,1-9.65-1.77l0.91-4.11a19.73,19.73,0,0,0,8.55,1.89,12.47,12.47,0,0,0,6.44-1.48A4.43,4.43,0,0,0,174,38.69a4.14,4.14,0,0,0-1.23-2.94q-1.23-1.29-5.8-2.69-3.68-1.13-5.42-1.69a11.33,11.33,0,0,1-3.23-1.66,7.6,7.6,0,0,1,.55-12.54q3.59-2.4,9.53-2.4a32,32,0,0,1,8.52,1.31Z"></path> <path class="cls-1" d="M217.53,31.54H195.77a12.85,12.85,0,0,0,3.12,8.89,9.86,9.86,0,0,0,7.65,3.5,27.8,27.8,0,0,0,8.92-1.55l0.82,3.8a23.73,23.73,0,0,1-9.8,1.89,15,15,0,0,1-11.38-4.53q-4.32-4.53-4.32-12.23,0-7.55,3.88-12a12.64,12.64,0,0,1,10-4.49,11.73,11.73,0,0,1,9.16,4.17q3.68,4.17,3.68,11.11v1.49Zm-5.17-3.86A9,9,0,0,0,210,21.42a6.88,6.88,0,0,0-5.17-2.54,8.25,8.25,0,0,0-6.1,2.43,9.64,9.64,0,0,0-2.69,6.36h16.28Z"></path> <path class="cls-1" d="M254.47,16.38l-1.92,4.56a13.94,13.94,0,0,0-5.42-1.37,7.91,7.91,0,0,0-4.11,1.2,13.16,13.16,0,0,0-3.7,3.44,12.31,12.31,0,0,0-1.69,2.51V47.24h-4.72V15.53h4.72V22q3.8-7.18,9.86-7.18A16,16,0,0,1,254.47,16.38Z"></path> <path class="cls-1" d="M35,65.16l-0.63,1.51a4.6,4.6,0,0,0-1.79-.45,2.61,2.61,0,0,0-1.36.4A4.35,4.35,0,0,0,30,67.75a4.05,4.05,0,0,0-.56.83v6.77H27.86V64.88h1.56V67q1.26-2.37,3.25-2.37A5.28,5.28,0,0,1,35,65.16Z"></path> <path class="cls-1" d="M47.46,70.16H40.28a4.24,4.24,0,0,0,1,2.93,3.25,3.25,0,0,0,2.53,1.15,9.18,9.18,0,0,0,2.94-.51L47,75a7.83,7.83,0,0,1-3.23.62,5,5,0,0,1-3.76-1.5,5.61,5.61,0,0,1-1.43-4,5.87,5.87,0,0,1,1.28-4,4.17,4.17,0,0,1,3.31-1.48,3.87,3.87,0,0,1,3,1.38,5.34,5.34,0,0,1,1.22,3.67v0.49Zm-1.71-1.28A3,3,0,0,0,45,66.82,2.27,2.27,0,0,0,43.28,66a2.72,2.72,0,0,0-2,.8,3.18,3.18,0,0,0-.89,2.1h5.37Z"></path> <path class="cls-1" d="M58.4,66.37a8,8,0,0,0-2.48-.43,4.06,4.06,0,0,0-2,.43,1.28,1.28,0,0,0-.74,1.14,1.07,1.07,0,0,0,.34.79,3.37,3.37,0,0,0,1.37.63l1.5,0.43a6.58,6.58,0,0,1,1.69.7,2.78,2.78,0,0,1,1,1,2.68,2.68,0,0,1,.33,1.34,2.73,2.73,0,0,1-1.26,2.37,5.49,5.49,0,0,1-3.19.87A7.58,7.58,0,0,1,51.72,75L52,73.68a6.51,6.51,0,0,0,2.82.62A4.11,4.11,0,0,0,57,73.81a1.46,1.46,0,0,0,.82-1.29,1.37,1.37,0,0,0-.41-1,4.93,4.93,0,0,0-1.91-.89l-1.79-.56a3.72,3.72,0,0,1-1.06-.55,2.51,2.51,0,0,1,.18-4.14,5.56,5.56,0,0,1,3.14-.79,10.54,10.54,0,0,1,2.81.43Z"></path> <path class="cls-1" d="M67.78,64.63a4.27,4.27,0,0,1,3.44,1.51,5.93,5.93,0,0,1,1.28,4,6,6,0,0,1-1.28,4,4.66,4.66,0,0,1-6.87,0,6,6,0,0,1-1.27-4,5.93,5.93,0,0,1,1.28-4A4.27,4.27,0,0,1,67.78,64.63Zm0,9.62A2.59,2.59,0,0,0,70,73a5.72,5.72,0,0,0,0-5.9,2.78,2.78,0,0,0-4.52,0,5.83,5.83,0,0,0,0,5.93A2.58,2.58,0,0,0,67.78,74.25Z"></path> <path class="cls-1" d="M84.16,75.34H82.59V73.8A4.89,4.89,0,0,1,79,75.59q-2.94,0-2.94-3.57V64.88h1.57v6.7a3.75,3.75,0,0,0,.42,2,1.56,1.56,0,0,0,1.43.66,4.5,4.5,0,0,0,3.08-1.79V64.88h1.57V75.34Z"></path> <path class="cls-1" d="M96.68,65.16l-0.63,1.51a4.6,4.6,0,0,0-1.79-.45,2.61,2.61,0,0,0-1.36.4,4.35,4.35,0,0,0-1.22,1.14,4.05,4.05,0,0,0-.56.83v6.77H89.57V64.88h1.56V67q1.26-2.37,3.25-2.37A5.28,5.28,0,0,1,96.68,65.16Z"></path> <path class="cls-1" d="M108.83,75a7.16,7.16,0,0,1-3,.62,5.27,5.27,0,0,1-3.94-1.5,6.14,6.14,0,0,1,0-8,5.22,5.22,0,0,1,3.89-1.5,8.24,8.24,0,0,1,3,.55l-0.41,1.3A8,8,0,0,0,105.8,66a3.51,3.51,0,0,0-2.74,1.11,4.84,4.84,0,0,0,0,6,3.45,3.45,0,0,0,2.72,1.19,8,8,0,0,0,2.73-.51Z"></path> <path class="cls-1" d="M121.52,70.16h-7.18a4.24,4.24,0,0,0,1,2.93,3.25,3.25,0,0,0,2.53,1.15,9.18,9.18,0,0,0,2.94-.51L121.11,75a7.83,7.83,0,0,1-3.23.62,5,5,0,0,1-3.76-1.5,5.61,5.61,0,0,1-1.43-4,5.87,5.87,0,0,1,1.28-4,4.17,4.17,0,0,1,3.31-1.48,3.87,3.87,0,0,1,3,1.38,5.34,5.34,0,0,1,1.22,3.67v0.49Zm-1.71-1.28a3,3,0,0,0-.76-2.06,2.27,2.27,0,0,0-1.71-.84,2.72,2.72,0,0,0-2,.8,3.18,3.18,0,0,0-.89,2.1h5.37Z"></path> <path class="cls-1" d="M132.46,66.37a8,8,0,0,0-2.48-.43,4.06,4.06,0,0,0-2,.43,1.28,1.28,0,0,0-.74,1.14,1.07,1.07,0,0,0,.34.79,3.37,3.37,0,0,0,1.37.63l1.5,0.43a6.58,6.58,0,0,1,1.69.7,2.78,2.78,0,0,1,1,1,2.68,2.68,0,0,1,.33,1.34,2.73,2.73,0,0,1-1.26,2.37,5.49,5.49,0,0,1-3.19.87,7.58,7.58,0,0,1-3.18-.58l0.3-1.36a6.51,6.51,0,0,0,2.82.62,4.11,4.11,0,0,0,2.12-.49,1.46,1.46,0,0,0,.82-1.29,1.37,1.37,0,0,0-.41-1,4.93,4.93,0,0,0-1.91-.89l-1.79-.56a3.72,3.72,0,0,1-1.06-.55,2.51,2.51,0,0,1,.18-4.14,5.56,5.56,0,0,1,3.14-.79,10.54,10.54,0,0,1,2.81.43Z"></path> <path class="cls-1" d="M157.48,75.34H153.2V62.53h-2.73V61.17h4.3V74h2.71v1.36Z"></path> <path class="cls-1" d="M168,75.34H166.4V66.23h-3.08V64.88H168V75.34Zm-0.76-14.42a1,1,0,0,1,.75.32,1,1,0,0,1,.31.76,1.06,1.06,0,0,1-.31.77,1,1,0,0,1-.76.31,1,1,0,0,1-.73-0.33,1.06,1.06,0,0,1-.32-0.76,1,1,0,0,1,.32-0.75A1,1,0,0,1,167.21,60.92Z"></path> <path class="cls-1" d="M183.75,75.34h-1.57V68.47q0-2.49-.92-2.49a1.51,1.51,0,0,0-1,.86,5.35,5.35,0,0,0-.57.95v7.55h-1.56V68.47q0-2.49-.93-2.49a1.52,1.52,0,0,0-1,.86,5.42,5.42,0,0,0-.57.95v7.55H174V64.88h1.51v1.58a4.28,4.28,0,0,1,1-1.33,1.92,1.92,0,0,1,1.21-.5,1.57,1.57,0,0,1,1.13.5,2.65,2.65,0,0,1,.69,1.33,4.25,4.25,0,0,1,1.05-1.33,1.93,1.93,0,0,1,1.21-.5q1.9,0,1.9,3.39v7.32Z"></path> <path class="cls-1" d="M192.66,75.34h-1.57V66.23H188V64.88h4.65V75.34Zm-0.76-14.42a1,1,0,0,1,.75.32A1,1,0,0,1,193,62a1.06,1.06,0,0,1-.31.77,1,1,0,0,1-.76.31,1,1,0,0,1-.73-0.33,1.06,1.06,0,0,1-.32-0.76,1,1,0,0,1,.32-0.75A1,1,0,0,1,191.89,60.92Z"></path> <path class="cls-1" d="M207.71,74.87a7.4,7.4,0,0,1-3.1.72q-2.8,0-2.8-3v-6.4h-2V64.88h2V62h1.53v2.86h3.56v1.36h-3.56v6a2.32,2.32,0,0,0,.42,1.48,1.39,1.39,0,0,0,1.15.53,6.07,6.07,0,0,0,2.54-.57Z"></path> <path class="cls-1" d="M220.27,70.16h-7.18a4.24,4.24,0,0,0,1,2.93,3.25,3.25,0,0,0,2.53,1.15,9.18,9.18,0,0,0,2.94-.51L219.86,75a7.83,7.83,0,0,1-3.23.62,5,5,0,0,1-3.76-1.5,5.61,5.61,0,0,1-1.43-4,5.86,5.86,0,0,1,1.28-4A4.17,4.17,0,0,1,216,64.63a3.87,3.87,0,0,1,3,1.38,5.34,5.34,0,0,1,1.21,3.67v0.49Zm-1.71-1.28a3,3,0,0,0-.76-2.06,2.27,2.27,0,0,0-1.71-.84,2.72,2.72,0,0,0-2,.8,3.18,3.18,0,0,0-.89,2.1h5.37Z"></path> <path class="cls-1" d="M232.26,75.34h-1.57V73.84a3.73,3.73,0,0,1-1.38,1.28,3.83,3.83,0,0,1-1.89.5,3.23,3.23,0,0,1-2.84-1.6,7.3,7.3,0,0,1-1-4.06,6.35,6.35,0,0,1,1.09-3.81,3.39,3.39,0,0,1,2.89-1.51,3.79,3.79,0,0,1,3.18,1.61V61.17h1.57V75.34Zm-1.57-3.2V67.79A3.21,3.21,0,0,0,228,66a2.33,2.33,0,0,0-2,1.15,5.21,5.21,0,0,0-.75,2.91,5.73,5.73,0,0,0,.71,3,2.17,2.17,0,0,0,1.94,1.18,2.53,2.53,0,0,0,1.2-.32,3.85,3.85,0,0,0,1.13-1A2.46,2.46,0,0,0,230.69,72.14Z"></path> </svg> 