<?xml version="1.0" encoding="utf-8"?>
<!-- Generator: Adobe Illustrator 21.1.0, SVG Export Plug-In . SVG Version: 6.00 Build 0)  -->
<svg version="1.1" id="Layer_1" xmlns="http://www.w3.org/2000/svg" xmlns:xlink="http://www.w3.org/1999/xlink" x="0px" y="0px"
	 viewBox="0 0 253.6 35.9" style="enable-background:new 0 0 253.6 35.9;" xml:space="preserve">
<style type="text/css">
	.st0{fill:#003A40;}
	.st1{fill:#B7A99A;}
</style>
<g>
	<path class="st0" d="M172.7,6.5L162,31.1h-4.9l-3.4-7.6l-3.4,7.6h-4.9L134.6,6.4V4.8h3.8l9.5,21.5l3.5-8.1l-5.2-11.9V4.8h3.8
		l3.7,8.3l3.7-8.3h3.8v1.6l0,0.1L156,18.3l3.5,8.1L169,4.8h3.8v1.6L172.7,6.5z M119.8,27.2c-5.1,0-9-4-9-9.3s3.9-9.3,9-9.3
		c5.1,0,9,4,9,9.3S124.9,27.2,119.8,27.2 M119.8,4.5c-7.5,0-13.3,5.9-13.3,13.5s5.8,13.5,13.3,13.5c7.4,0,13.3-5.9,13.3-13.5
		S127.2,4.5,119.8,4.5 M88.8,17.3V8.8h4.8c1.6,0,2.8,0.3,3.6,1c1,0.8,1.5,1.9,1.5,3.2c0,1.3-0.5,2.4-1.5,3.2c-0.8,0.6-2,1-3.6,1
		H88.8z M99.7,19.6c2-1.5,3.1-3.8,3.1-6.6c0-2.7-1.1-5.1-3.1-6.6c-1.6-1.1-3.4-1.6-5.9-1.6h-9.2v26.2h4.2v-9.8h0.5l9.9,9.8h4.1v-1.7
		l-8.3-8.1C96.9,21.1,98.4,20.6,99.7,19.6 M63,18.9l4.1-9.4l4.1,9.4H63z M64.6,4.8L53.9,29.4l0,0.1v1.6h3.8l3.6-8.2H73l3.6,8.2h3.8
		v-1.6L69.5,4.8H64.6z M236.2,18.9l4.1-9.4l4.1,9.4H236.2z M242.8,4.8h-4.9l-10.8,24.6l0,0.1v1.6h3.8l3.6-8.2h11.8l3.6,8.2h3.8v-1.6
		L242.8,4.8z M218.5,4.8h4.2v26.2h-6.1l-11.3-20.9v20.9h-4.2V4.8h6.1l11.3,20.9V4.8z M179.3,18.9l4.1-9.4l4.1,9.4H179.3z M181,4.8
		l-10.8,24.6l0,0.1v1.6h3.8l3.6-8.2h11.8l3.6,8.2h3.8v-1.6L185.9,4.8H181z"/>
	<g>
		<path class="st1" d="M17.9,27.3c-1.4,0-2.6-1.1-2.6-2.6s1.1-2.6,2.6-2.6s2.6,1.1,2.6,2.6S19.3,27.3,17.9,27.3 M17.9,20.5
			c-2.4,0-4.3,1.9-4.3,4.3s1.9,4.3,4.3,4.3s4.3-1.9,4.3-4.3S20.3,20.5,17.9,20.5 M17.9,34.2c-5.1,0-9.6-2.3-12.6-6l12.6-15.7
			l12.6,15.7C27.5,31.8,23,34.2,17.9,34.2 M31.5,26.8L19,11.1l1.6-2l12.2,15.2C32.5,25.2,32.1,26,31.5,26.8 M17.9,1.7
			c8.9,0,16.2,7.3,16.2,16.2c0,1.5-0.2,3-0.6,4.5L18.6,3.7c-0.3-0.4-0.8-0.4-1.2-0.1C17,3.9,17,4.4,17.3,4.8l2.3,2.9L4.3,26.8
			c-1.7-2.5-2.6-5.6-2.6-8.8C1.7,9,9,1.7,17.9,1.7 M17.9,0C8,0,0,8,0,17.9c0,9.9,8,17.9,17.9,17.9s17.9-8,17.9-17.9
			C35.9,8,27.8,0,17.9,0"/>
	</g>
</g>
</svg>
