<svg width="295.1" height="309" xmlns="http://www.w3.org/2000/svg">
 <style>.st0{fill:#cb0044}.st1{fill:#4a4f55}</style>

 <g>
  <title>background</title>
  <rect fill="none" id="canvas_background" height="402" width="582" y="-1" x="-1"/>
 </g>
 <g>
  <title>Layer 1</title>
  <path id="svg_1" class="st0" d="m148.8,0l144.4,219.2l0,-219.2l-144.4,0zm-145.7,219.2l144.4,-219.2l-144.4,0l0,219.2zm12.4,11l7.3,0l15.5,39.1l-8.3,0l-3.3,-8.7l-15.3,0l-3.3,8.7l-8.1,0l15.5,-39.1zm8.3,22.8l-4.8,-12.5l-4.8,12.5l9.6,0zm18.7,-22.5l14.1,0c11.3,0 19.2,8.4 19.2,19.3l0,0.1c0,10.9 -7.8,19.4 -19.2,19.4l-14.1,0l0,-38.8zm14.1,31.1c6.5,0 10.9,-4.7 10.9,-11.6l0,-0.1c0,-6.9 -4.4,-11.7 -10.9,-11.7l-6.1,0l0,23.4l6.1,0zm19.7,-31.1l8.8,0l9.4,27.3l9.4,-27.3l8.6,0l-14.6,39.1l-7,0l-14.6,-39.1zm47.2,-0.3l7.3,0l15.5,39.1l-8.3,0l-3.3,-8.7l-15.2,0l-3.3,8.7l-8.2,0l15.5,-39.1zm8.3,22.8l-4.8,-12.6l-4.8,12.6l9.6,0zm18.7,-22.5l7.3,0l16.9,23.9l0,-23.9l7.8,0l0,38.8l-6.7,0l-17.5,-24.7l0,24.7l-7.8,0l0,-38.8zm37.8,19.5l0,-0.1c0,-11 7.7,-20.1 18.8,-20.1c6.8,0 10.9,2.4 14.2,6l-5,6.3c-2.8,-2.7 -5.6,-4.4 -9.2,-4.4c-6.1,0 -10.5,5.4 -10.5,12.1l0,0.1c0,6.6 4.3,12.2 10.5,12.2c4.1,0 6.6,-1.8 9.5,-4.5l5,5.5c-3.7,4.3 -7.8,6.9 -14.8,6.9c-10.6,-0.1 -18.5,-8.9 -18.5,-20zm39.4,-19.5l27.2,0l0,7.6l-19.3,0l0,7.9l17,0l0,7.6l-17,0l0,8.1l19.6,0l0,7.6l-27.5,0l0,-38.8zm34.2,0l14.1,0c11.3,0 19.2,8.4 19.2,19.3l0,0.1c0,10.9 -7.8,19.4 -19.2,19.4l-14.1,0l0,-38.8zm14.1,31.1c6.5,0 10.9,-4.7 10.9,-11.6l0,-0.1c0,-6.9 -4.4,-11.7 -10.9,-11.7l-6.1,0l0,23.4l6.1,0z"/>
  <text xml:space="preserve" text-anchor="start" font-family="Helvetica, Arial, sans-serif" font-size="33" id="svg_6" y="307.497909" x="1.042693" stroke-opacity="null" stroke-width="0" stroke="null" fill="#fffcfc">SHARE REGISTRY</text>
 </g>
</svg>