<svg xmlns="http://www.w3.org/2000/svg" viewBox="0 0 402.59 137.29"><defs><style>.cls-1{fill:#2d368f;}.cls-2{fill:#2d5da9;}.cls-3{fill:#0091d0;}.cls-4{fill:#15bff1;}.cls-5{fill:#6ecef5;}.cls-6{fill:#a0ddf9;}</style></defs><title>Asset 1</title><g id="Layer_2" data-name="Layer 2"><g id="Layer_1-2" data-name="Layer 1"><path class="cls-1" d="M156.36,50.74a22.18,22.18,0,1,0,22.18,22.18A22.18,22.18,0,0,0,156.36,50.74Zm0,33.92A11.74,11.74,0,1,1,168.1,72.92,11.74,11.74,0,0,1,156.36,84.66Z"/><path class="cls-1" d="M22.18,50.74A22.18,22.18,0,1,0,44.35,72.92,22.18,22.18,0,0,0,22.18,50.74Zm0,33.92A11.74,11.74,0,1,1,33.92,72.92,11.74,11.74,0,0,1,22.18,84.66Z"/><path class="cls-1" d="M180.75,88.58l5.18-8c4.62,3.35,9.48,5.1,13.46,5.1,3.51,0,5.1-1.27,5.1-3.19v-.16c0-2.63-4.14-3.51-8.84-4.94-6-1.75-12.74-4.54-12.74-12.82v-.16c0-8.68,7-13.54,15.61-13.54a29.55,29.55,0,0,1,15.93,4.94l-4.62,8.36c-4.22-2.47-8.44-4-11.55-4-2.95,0-4.46,1.27-4.46,2.95v.16c0,2.39,4.06,3.5,8.68,5.1,6,2,12.9,4.86,12.9,12.66v.16c0,9.48-7.09,13.78-16.33,13.78A29.91,29.91,0,0,1,180.75,88.58Z"/><path class="cls-1" d="M220.75,36.09H233.5V46.84H220.75Zm.32,15.45h12.11V94.23H221.07Z"/><path class="cls-1" d="M241.25,36.09h12.11V94.23H241.25Z"/><path class="cls-1" d="M88.13,94.23H76.51V69.55a7.94,7.94,0,1,0-15.88,0V94.23H49V69.55a19.56,19.56,0,1,1,39.11,0Z"/><path class="cls-1" d="M125,79.33a11.74,11.74,0,1,1-.27-13.21L132,58.44A22.17,22.17,0,1,0,132.34,87Z"/><circle class="cls-2" cx="376.68" cy="52.01" r="4.32" transform="translate(7.04 141.23) rotate(-21.43)"/><circle class="cls-2" cx="367.72" cy="37.56" r="4.32" transform="translate(71.67 258.87) rotate(-42.61)"/><circle class="cls-2" cx="354.14" cy="27.32" r="4.32" transform="translate(173.23 332.99) rotate(-63.79)"/><circle class="cls-2" cx="337.78" cy="22.68" r="4.32" transform="translate(285.58 357.17) rotate(-84.97)"/><circle class="cls-2" cx="320.85" cy="24.27" r="4.32" transform="translate(5.91 90.21) rotate(-16.15)"/><circle class="cls-2" cx="305.64" cy="31.86" r="4.32" transform="translate(43.29 191.88) rotate(-37.33)"/><circle class="cls-2" cx="294.2" cy="44.44" r="4.32" transform="matrix(0.52, -0.85, 0.85, 0.52, 102.64, 272.1)"/><circle class="cls-2" cx="288.07" cy="60.3" r="4.32" transform="translate(177.2 332.93) rotate(-79.69)"/><circle class="cls-2" cx="288.09" cy="77.3" r="4.32" transform="translate(-9.41 55.73) rotate(-10.87)"/><circle class="cls-2" cx="294.25" cy="93.15" r="4.32" transform="translate(-4.58 170.36) rotate(-32.05)"/><circle class="cls-2" cx="305.72" cy="105.7" r="4.32" transform="translate(38.05 287.34) rotate(-53.23)"/><circle class="cls-2" cx="320.96" cy="113.26" r="4.32" transform="translate(125.61 391.98) rotate(-74.41)"/><circle class="cls-2" cx="335.89" cy="115.81" r="4.32" transform="matrix(1, -0.1, 0.1, 1, -9.58, 33.47)"/><circle class="cls-2" cx="354.24" cy="110.13" r="4.32" transform="translate(-11.63 171.37) rotate(-26.77)"/><circle class="cls-2" cx="367.79" cy="99.86" r="4.32" transform="translate(47.31 306.09) rotate(-47.95)"/><circle class="cls-2" cx="376.72" cy="85.39" r="4.32" transform="translate(162.74 406.98) rotate(-69.13)"/><circle class="cls-2" cx="379.82" cy="68.67" r="4.32" transform="matrix(1, -0.01, 0.01, 1, -0.37, 2.07)"/><circle class="cls-1" cx="304.84" cy="94.83" r="4.55" transform="translate(16.15 231.13) rotate(-42.55)"/><circle class="cls-1" cx="297.36" cy="82.7" r="4.55" transform="translate(-9.69 114.05) rotate(-21.37)"/><circle class="cls-1" cx="316.21" cy="103.44" r="4.55" transform="translate(83.5 341.21) rotate(-63.73)"/><circle class="cls-1" cx="329.91" cy="107.37" r="4.55" transform="translate(193.71 426.46) rotate(-84.91)"/><circle class="cls-1" cx="344.11" cy="106.07" r="4.55" transform="translate(-15.92 99.54) rotate(-16.09)"/><circle class="cls-1" cx="356.88" cy="99.74" r="4.55" transform="translate(12.49 236.5) rotate(-37.27)"/><circle class="cls-1" cx="366.5" cy="89.22" r="4.55" transform="translate(98.71 354.87) rotate(-58.45)"/><circle class="cls-1" cx="371.67" cy="75.93" r="4.55" transform="translate(230.09 427.87) rotate(-79.63)"/><circle class="cls-1" cx="371.69" cy="61.67" r="4.55" transform="translate(-4.97 70.82) rotate(-10.81)"/><circle class="cls-1" cx="366.56" cy="48.37" r="4.55" transform="translate(30.04 201.55) rotate(-31.99)"/><circle class="cls-1" cx="356.97" cy="37.82" r="4.55" transform="translate(112.72 300.88) rotate(-53.17)"/><circle class="cls-1" cx="344.21" cy="31.45" r="4.55" transform="translate(221.08 354.42) rotate(-74.35)"/><circle class="cls-1" cx="330.02" cy="30.12" r="4.55" transform="translate(-1.37 31.95) rotate(-5.53)"/><circle class="cls-1" cx="316.3" cy="34.01" r="4.55" transform="translate(18.47 145.81) rotate(-26.71)"/><circle class="cls-1" cx="304.91" cy="42.59" r="4.55" transform="translate(68.86 240.24) rotate(-47.89)"/><circle class="cls-1" cx="297.4" cy="54.71" r="4.55" transform="translate(140.07 312.94) rotate(-69.07)"/><circle class="cls-1" cx="294.77" cy="68.72" r="4.55" transform="translate(-0.3 1.3) rotate(-0.25)"/><circle class="cls-3" cx="284.67" cy="87.61" r="3.8" transform="translate(-12.3 110.38) rotate(-21.49)"/><circle class="cls-3" cx="294.78" cy="103.99" r="3.8" transform="translate(7.56 227.33) rotate(-42.67)"/><circle class="cls-3" cx="310.13" cy="115.62" r="3.8" transform="translate(69.68 343.06) rotate(-63.85)"/><circle class="cls-3" cx="328.65" cy="120.91" r="3.8" transform="translate(179.73 437.85) rotate(-85.03)"/><circle class="cls-3" cx="347.82" cy="119.15" r="3.8" transform="translate(-19.44 101.85) rotate(-16.21)"/><circle class="cls-3" cx="365.07" cy="110.59" r="3.8" transform="translate(7.86 244.42) rotate(-37.39)"/><circle class="cls-3" cx="378.06" cy="96.37" r="3.8" transform="translate(98.69 368.71) rotate(-58.57)"/><circle class="cls-3" cx="385.03" cy="78.43" r="3.8" transform="translate(239.35 443.36) rotate(-79.75)"/><circle class="cls-3" cx="385.05" cy="59.17" r="3.8" transform="translate(-4.23 74.09) rotate(-10.93)"/><circle class="cls-3" cx="378.11" cy="41.21" r="3.8" transform="translate(35.94 207.3) rotate(-32.11)"/><circle class="cls-3" cx="365.15" cy="26.97" r="3.8" transform="translate(125.26 303.58) rotate(-53.29)"/><circle class="cls-3" cx="347.92" cy="18.37" r="3.8" transform="translate(237.07 348.67) rotate(-74.47)"/><circle class="cls-3" cx="328.74" cy="16.58" r="3.8" transform="matrix(1, -0.1, 0.1, 1, -0.03, 32.46)"/><circle class="cls-3" cx="310.22" cy="21.84" r="3.8" transform="translate(23.54 142.38) rotate(-26.83)"/><circle class="cls-3" cx="294.85" cy="33.43" r="3.8" transform="translate(72.75 230.22) rotate(-48.01)"/><circle class="cls-3" cx="284.7" cy="49.8" r="3.8" transform="translate(137.01 298.24) rotate(-69.19)"/><circle class="cls-3" cx="281.15" cy="68.73" r="3.8" transform="translate(-0.44 1.83) rotate(-0.37)"/><circle class="cls-4" cx="386.49" cy="48.26" r="3.46" transform="translate(9.29 145.35) rotate(-21.55)"/><circle class="cls-4" cx="375.56" cy="30.55" r="3.46" transform="translate(78.97 262.96) rotate(-42.73)"/><circle class="cls-4" cx="358.97" cy="17.99" r="3.46" transform="translate(184.96 332.48) rotate(-63.91)"/><circle class="cls-4" cx="338.97" cy="12.27" r="3.46" transform="translate(297.74 348.94) rotate(-85.09)"/><circle class="cls-4" cx="318.24" cy="14.16" r="3.46" transform="translate(8.78 89.74) rotate(-16.27)"/><circle class="cls-4" cx="299.6" cy="23.41" r="3.46" transform="translate(47.52 187.01) rotate(-37.45)"/><circle class="cls-4" cx="285.56" cy="38.78" r="3.46" transform="translate(103.81 262.42) rotate(-58.63)"/><circle class="cls-4" cx="278.02" cy="58.17" r="3.46" transform="translate(171.59 321.52) rotate(-79.81)"/><circle class="cls-4" cx="278" cy="78.99" r="3.46" transform="translate(-9.96 54.46) rotate(-10.99)"/><circle class="cls-4" cx="285.5" cy="98.4" r="3.46" transform="translate(-8.56 167.13) rotate(-32.17)"/><circle class="cls-4" cx="299.51" cy="113.79" r="3.46" transform="translate(29.43 286.17) rotate(-53.35)"/><circle class="cls-4" cx="318.13" cy="123.08" r="3.46" transform="translate(114.66 396.86) rotate(-74.53)"/><circle class="cls-4" cx="338.85" cy="125.02" r="3.46" transform="translate(-10.76 34.34) rotate(-5.71)"/><circle class="cls-4" cx="358.87" cy="119.34" r="3.46" transform="translate(-15.17 175.22) rotate(-26.89)"/><circle class="cls-4" cx="375.49" cy="106.81" r="3.46" transform="translate(45.12 314.79) rotate(-48.07)"/><circle class="cls-4" cx="386.45" cy="89.12" r="3.46" transform="translate(166.21 418.94) rotate(-69.25)"/><circle class="cls-4" cx="390.29" cy="68.67" r="3.46" transform="translate(-0.51 2.94) rotate(-0.43)"/><circle class="cls-1" cx="360.93" cy="58.16" r="4.69" transform="translate(3.71 135.9) rotate(-21.43)"/><circle class="cls-1" cx="355.3" cy="49.01" r="4.69" transform="translate(60.63 253.49) rotate(-42.61)"/><circle class="cls-1" cx="346.75" cy="42.52" r="4.69" transform="translate(155.46 334.84) rotate(-63.79)"/><circle class="cls-1" cx="336.43" cy="39.56" r="4.69" transform="translate(267.54 371.22) rotate(-84.97)"/><circle class="cls-1" cx="325.73" cy="40.52" r="4.69" transform="translate(1.59 92.21) rotate(-16.15)"/><circle class="cls-1" cx="316.11" cy="45.28" r="4.69" transform="translate(37.3 200.98) rotate(-37.33)"/><circle class="cls-1" cx="308.86" cy="53.2" r="4.69" transform="translate(102.17 288.79) rotate(-58.51)"/><circle class="cls-1" cx="304.96" cy="63.2" r="4.69" transform="translate(188.2 351.93) rotate(-79.69)"/><circle class="cls-1" cx="304.93" cy="73.94" r="4.69" transform="translate(-8.47 58.84) rotate(-10.87)"/><circle class="cls-1" cx="308.79" cy="83.96" r="4.69" transform="translate(2.51 176.67) rotate(-32.05)"/><circle class="cls-1" cx="316.01" cy="91.91" r="4.69" transform="translate(53.22 290.04) rotate(-53.23)"/><circle class="cls-1" cx="325.61" cy="96.72" r="4.69" transform="translate(144.95 384.36) rotate(-74.41)"/><circle class="cls-1" cx="336.3" cy="97.73" r="4.69" transform="translate(-7.92 33.23) rotate(-5.59)"/><circle class="cls-1" cx="346.63" cy="94.81" r="4.69" transform="translate(-5.55 166.3) rotate(-26.77)"/><circle class="cls-1" cx="355.21" cy="88.36" r="4.69" transform="translate(51.69 292.95) rotate(-47.95)"/><circle class="cls-1" cx="360.88" cy="80.24" r="4.69" transform="translate(158.29 388.22) rotate(-69.13)"/><circle class="cls-1" cx="363.87" cy="70.69" r="4.69" transform="matrix(1, -0.01, 0.01, 1, -0.37, 1.98)"/><circle class="cls-5" cx="276.02" cy="91" r="3.13" transform="translate(-14.11 108.06) rotate(-21.61)"/><circle class="cls-5" cx="287.99" cy="110.32" r="3.13" transform="translate(1.71 225.01) rotate(-42.79)"/><circle class="cls-5" cx="306.14" cy="124" r="3.13" transform="translate(60.38 344.68) rotate(-63.97)"/><circle class="cls-5" cx="328" cy="130.2" r="3.13" transform="translate(170.54 446.03) rotate(-85.15)"/><circle class="cls-5" cx="350.63" cy="128.09" r="3.13" transform="translate(-21.87 103.76) rotate(-16.33)"/><circle class="cls-5" cx="370.96" cy="117.94" r="3.13" transform="translate(4.88 250.27) rotate(-37.51)"/><circle class="cls-5" cx="386.25" cy="101.14" r="3.13" transform="matrix(0.52, -0.85, 0.85, 0.52, 99.13, 378.59)"/><circle class="cls-5" cx="394.44" cy="79.94" r="3.13" transform="translate(246.39 454.18) rotate(-79.87)"/><circle class="cls-5" cx="394.42" cy="57.21" r="3.13" transform="translate(-3.65 76.67) rotate(-11.05)"/><circle class="cls-5" cx="386.19" cy="36.03" r="3.13" transform="translate(40.3 211.53) rotate(-32.23)"/><circle class="cls-5" cx="370.86" cy="19.26" r="3.13" transform="translate(134.35 305.56) rotate(-53.41)"/><circle class="cls-5" cx="350.51" cy="9.15" r="3.13" transform="translate(248.56 344.63) rotate(-74.59)"/><circle class="cls-5" cx="327.88" cy="7.08" r="3.13" transform="translate(0.95 33.01) rotate(-5.77)"/><circle class="cls-5" cx="306.03" cy="13.33" r="3.13" transform="translate(27.2 140.15) rotate(-26.95)"/><circle class="cls-5" cx="287.91" cy="27.05" r="3.13" transform="translate(75.61 223.4) rotate(-48.13)"/><circle class="cls-5" cx="275.98" cy="46.39" r="3.13" transform="matrix(0.35, -0.94, 0.94, 0.35, 135.08, 288.18)"/><circle class="cls-5" cx="271.83" cy="68.73" r="3.13" transform="translate(-0.58 2.34) rotate(-0.49)"/><circle class="cls-5" cx="276.02" cy="91" r="3.13" transform="translate(-14.11 108.06) rotate(-21.61)"/><circle class="cls-5" cx="287.99" cy="110.32" r="3.13" transform="translate(1.71 225.01) rotate(-42.79)"/><circle class="cls-5" cx="306.14" cy="124" r="3.13" transform="translate(60.38 344.68) rotate(-63.97)"/><circle class="cls-5" cx="328" cy="130.2" r="3.13" transform="translate(170.54 446.03) rotate(-85.15)"/><circle class="cls-5" cx="350.63" cy="128.09" r="3.13" transform="translate(-21.87 103.76) rotate(-16.33)"/><circle class="cls-5" cx="370.96" cy="117.94" r="3.13" transform="translate(4.88 250.27) rotate(-37.51)"/><circle class="cls-5" cx="386.25" cy="101.14" r="3.13" transform="matrix(0.52, -0.85, 0.85, 0.52, 99.13, 378.59)"/><circle class="cls-5" cx="394.44" cy="79.94" r="3.13" transform="translate(246.39 454.18) rotate(-79.87)"/><circle class="cls-5" cx="394.42" cy="57.21" r="3.13" transform="translate(-3.65 76.67) rotate(-11.05)"/><circle class="cls-5" cx="386.19" cy="36.03" r="3.13" transform="translate(40.3 211.53) rotate(-32.23)"/><circle class="cls-5" cx="370.86" cy="19.26" r="3.13" transform="translate(134.35 305.56) rotate(-53.41)"/><circle class="cls-5" cx="350.51" cy="9.15" r="3.13" transform="translate(248.56 344.63) rotate(-74.59)"/><circle class="cls-5" cx="327.88" cy="7.08" r="3.13" transform="translate(0.95 33.01) rotate(-5.77)"/><circle class="cls-5" cx="306.03" cy="13.33" r="3.13" transform="translate(27.2 140.15) rotate(-26.95)"/><circle class="cls-5" cx="287.91" cy="27.05" r="3.13" transform="translate(75.61 223.4) rotate(-48.13)"/><circle class="cls-5" cx="275.98" cy="46.39" r="3.13" transform="matrix(0.35, -0.94, 0.94, 0.35, 135.08, 288.18)"/><circle class="cls-5" cx="271.83" cy="68.73" r="3.13" transform="translate(-0.58 2.34) rotate(-0.49)"/><circle class="cls-6" cx="395.33" cy="44.84" r="2.82" transform="translate(11.38 149.16) rotate(-21.67)"/><circle class="cls-6" cx="382.57" cy="24.17" r="2.82" transform="translate(85.67 266.64) rotate(-42.85)"/><circle class="cls-6" cx="363.2" cy="9.5" r="2.82" transform="translate(195.63 331.87) rotate(-64.03)"/><circle class="cls-6" cx="339.84" cy="2.82" r="2.82" transform="translate(308.66 341.24) rotate(-85.21)"/><circle class="cls-6" cx="315.64" cy="5.03" r="2.82" transform="translate(11.41 89.28) rotate(-16.39)"/><circle class="cls-6" cx="293.88" cy="15.84" r="2.82" transform="translate(51.3 182.48) rotate(-37.57)"/><circle class="cls-6" cx="277.49" cy="33.78" r="2.82" transform="translate(104.66 253.49) rotate(-58.75)"/><circle class="cls-6" cx="268.69" cy="56.43" r="2.82" transform="translate(166.16 311.12) rotate(-79.93)"/><circle class="cls-6" cx="268.67" cy="80.73" r="2.82" transform="translate(-10.52 53.29) rotate(-11.11)"/><circle class="cls-6" cx="277.43" cy="103.39" r="2.82" transform="translate(-12.33 164.2) rotate(-32.29)"/><circle class="cls-6" cx="293.78" cy="121.36" r="2.82" transform="translate(21.4 285.2) rotate(-53.47)"/><circle class="cls-6" cx="315.52" cy="132.21" r="2.82" transform="translate(104.52 401.48) rotate(-74.65)"/><circle class="cls-6" cx="339.72" cy="134.46" r="2.82" transform="translate(-11.9 35.21) rotate(-5.83)"/><circle class="cls-6" cx="363.09" cy="127.83" r="2.82" transform="translate(-18.45 178.85) rotate(-27.01)"/><circle class="cls-6" cx="382.49" cy="113.2" r="2.82" transform="translate(43.13 322.84) rotate(-48.19)"/><circle class="cls-6" cx="395.29" cy="92.55" r="2.82" transform="translate(169.42 429.89) rotate(-69.37)"/><circle class="cls-6" cx="399.77" cy="68.66" r="2.82" transform="translate(-0.64 3.85) rotate(-0.55)"/><path class="cls-4" d="M164.89,117.82h-1.61l-4.71-7.37v10.81h-2.3V105.2h1.61l6.2,9.8,6.2-9.8h1.61v16.07h-2.3V110.46Z"/><path class="cls-4" d="M183.82,111.51v2.18h-5.28v5.39h7.12v2.18h-9.41V105.2h9.18v2.18h-6.89v4.13Z"/><path class="cls-4" d="M188.62,121.27V105.2h4.82a8.76,8.76,0,0,1,5.51,1.51,8.24,8.24,0,0,1,0,13,8.84,8.84,0,0,1-5.53,1.51Zm9.3-12.53a6.52,6.52,0,0,0-4.59-1.35h-2.41v11.71h2.41a6.52,6.52,0,0,0,4.59-1.35,6.16,6.16,0,0,0,0-9Z"/><path class="cls-4" d="M205.4,105.2h2.3v16.07h-2.3Z"/><path class="cls-4" d="M219,105a8,8,0,0,1,5.88,2.48L223.37,109a6.1,6.1,0,0,0-4.34-1.81,6.09,6.09,0,0,0,.21,12.17,6,6,0,0,0,4.61-2.27l1.63,1.47A8.25,8.25,0,1,1,219,105Z"/><path class="cls-4" d="M237.44,117.14h-6.77L229,121.27H226.6l6.66-16.07h1.61l6.66,16.07h-2.39ZM231.58,115h5l-2.48-6Z"/><path class="cls-4" d="M246.21,119.09h7.12v2.18h-9.41V105.2h2.3Z"/></g></g></svg>