<?xml version="1.0" encoding="utf-8"?>
<!-- Generator: Adobe Illustrator 17.1.0, SVG Export Plug-In . SVG Version: 6.00 Build 0)  -->
<!DOCTYPE svg PUBLIC "-//W3C//DTD SVG 1.1 Tiny//EN" "http://www.w3.org/Graphics/SVG/1.1/DTD/svg11-tiny.dtd">
<svg version="1.1" baseProfile="tiny" id="Layer_1" xmlns="http://www.w3.org/2000/svg" xmlns:xlink="http://www.w3.org/1999/xlink"
	 x="0px" y="0px" viewBox="0 0 219.144 57.591" xml:space="preserve">
<g>
	<g>
		<path fill="#FFFFFF" d="M78.581,38.999c1.808,1.097,5.554,2.389,8.459,2.389c2.97,0,4.197-1.033,4.197-2.647
			c0-1.614-0.969-2.39-4.649-3.616c-6.522-2.195-9.04-5.747-8.975-9.492c0-5.876,5.036-10.332,12.85-10.332
			c3.68,0,6.974,0.839,8.911,1.809l-1.743,6.78c-1.42-0.776-4.133-1.809-6.845-1.809c-2.389,0-3.745,0.969-3.745,2.583
			c0,1.485,1.227,2.26,5.101,3.616c6.005,2.066,8.524,5.102,8.588,9.751c0,5.876-4.649,10.203-13.689,10.203
			c-4.133,0-7.813-0.904-10.203-2.195L78.581,38.999z"/>
		<path fill="#FFFFFF" d="M111.644,34.93c0.323,4.069,4.326,6.005,8.911,6.005c3.358,0,6.07-0.452,8.717-1.292l1.292,6.651
			c-3.229,1.292-7.168,1.937-11.43,1.937c-10.719,0-16.853-6.199-16.853-16.078c0-8.008,4.972-16.854,15.949-16.854
			c10.202,0,14.077,7.943,14.077,15.756c0,1.679-0.194,3.164-0.323,3.874H111.644z M123.202,28.215c0-2.39-1.033-6.393-5.553-6.393
			c-4.133,0-5.812,3.745-6.07,6.393H123.202z"/>
		<path fill="#FFFFFF" d="M135.234,26.406c0-4.649-0.129-7.683-0.259-10.395h8.459l0.322,5.812h0.259
			c1.614-4.585,5.489-6.522,8.523-6.522c0.904,0,1.356,0,2.066,0.13v9.234c-0.71-0.129-1.55-0.259-2.647-0.259
			c-3.616,0-6.07,1.937-6.715,4.972c-0.129,0.646-0.194,1.42-0.194,2.196v16.013h-9.815V26.406z"/>
		<path fill="#FFFFFF" d="M167.18,29.312h0.129c0.71-1.291,1.485-2.582,2.26-3.809l6.393-9.492h11.817l-11.3,12.785l12.914,18.79
			h-12.075l-7.62-12.979l-2.518,3.099v9.879h-9.815V1.74h9.815V29.312z"/>
		<path fill="#FFFFFF" d="M219.144,31.443c0,11.558-8.201,16.854-16.66,16.854c-9.234,0-16.337-6.07-16.337-16.273
			c0-10.202,6.715-16.724,16.853-16.724C212.687,15.3,219.144,21.951,219.144,31.443z M196.286,31.767
			c0,5.423,2.26,9.492,6.457,9.492c3.81,0,6.263-3.81,6.263-9.492c0-4.714-1.808-9.493-6.263-9.493
			C198.029,22.274,196.286,27.117,196.286,31.767z"/>
	</g>
	<g>
		<path fill="#FFFFFF" d="M57.591,4.319C57.591,1.934,55.657,0,53.272,0H4.319C1.934,0,0,1.934,0,4.319v23.889h18.222
			c-1.962-2.039-2.795-4.352-2.754-6.731c0-7.01,6.009-12.325,15.33-12.325c4.391,0,8.319,1.001,10.63,2.158l-2.08,8.088
			c-1.695-0.925-4.93-2.158-8.166-2.158c-2.85,0-4.468,1.156-4.468,3.082c0,1.772,1.464,2.696,6.085,4.313
			c2.87,0.988,5.062,2.165,6.676,3.573h18.114V4.319z"/>
		<path fill="#FFFFFF" d="M26.716,48.44c-4.93,0-9.321-1.079-12.172-2.619l2.08-8.397c2.157,1.309,6.625,2.85,10.092,2.85
			c3.544,0,5.007-1.233,5.007-3.158c0-1.926-1.156-2.851-5.547-4.314c-2.819-0.949-5.007-2.11-6.653-3.418H0v23.889
			c0,2.386,1.934,4.319,4.319,4.319h48.953c2.385,0,4.319-1.934,4.319-4.319V29.383h-16.94c1.606,1.89,2.358,4.153,2.396,6.885
			C43.047,43.278,37.501,48.44,26.716,48.44z"/>
	</g>
</g>
</svg>
