<?xml version="1.0" encoding="utf-8"?>
<!-- Generator: Adobe Illustrator 21.1.0, SVG Export Plug-In . SVG Version: 6.00 Build 0)  -->
<svg version="1.1" id="Layer_1" xmlns="http://www.w3.org/2000/svg" xmlns:xlink="http://www.w3.org/1999/xlink" x="0px" y="0px"
	 viewBox="0 0 296.52316 72.16512" style="enable-background:new 0 0 296.52316 72.16512;" xml:space="preserve">
<style type="text/css">
	.st0{fill:#003E7E;}
	.st1{fill:#58595B;}
	.st2{fill:#FFFFFF;}
</style>
<circle class="st0" cx="36.08256" cy="36.08256" r="36.08256"/>
<path class="st0" d="M111.40002,43.20031l-1.19612-11.52388c-0.18642-1.83426-0.39899-3.72123-0.63855-5.66219
	c-0.23872-1.94012-0.50528-3.98736-0.79714-6.14047c-0.50527,1.01055-1.20287,2.47871-2.09364,4.40575
	c-0.89077,1.92789-2.00001,4.30031-3.32941,7.1177l-5.46269,11.80308c-0.45213-0.05314-1.0367-0.05314-1.75454,0
	c-0.77099-1.54155-2.52553-5.21006-5.26363-11.00553l-6.02111-12.36108c-0.18642,1.91397-0.35851,3.8815-0.51793,5.90133
	c-0.15942,2.02067-0.33319,4.13414-0.51877,6.34039c-0.05315,1.14298-0.14594,2.63856-0.27921,4.48589
	c-0.13328,1.84775-0.2927,4.06075-0.47828,6.639c-0.6917-0.05314-1.46268-0.05314-2.31296,0
	c0.08013-0.71784,0.23281-2.27922,0.45888-4.68538c0.22523-2.40532,0.52468-5.68201,0.89668-9.82923
	c0.37199-3.42895,0.81063-8.26701,1.3159-14.51419c0.98356,0.05356,2.10039,0.05356,3.34966,0
	c0.34501,0.71784,0.92367,1.92746,1.7343,3.62844c0.81063,1.70182,1.88107,3.92157,3.21047,6.65924
	c0.69085,1.35555,1.58077,3.13034,2.67146,5.32309c1.08984,2.19318,2.40575,4.81866,3.94772,7.87561l10.88574-23.48639
	c0.95657,0.02657,2.00676,0.02657,3.14974,0c0.10629,1.06369,0.2927,2.7381,0.55842,5.02406
	c0.26571,2.28681,0.61156,5.22356,1.0367,8.81235l1.9941,15.19238C114.11112,43.17416,112.59615,43.17416,111.40002,43.20031z"/>
<path class="st0" d="M143.29977,43.14042c-0.37285-0.01307-0.81148-0.01982-1.3159-0.01982
	c-0.50528,0-0.95067,0.00675-1.33531,0.01982c-0.38634,0.01392-0.71194,0.03374-0.97765,0.05989l-3.30917-9.25098
	c-0.26572,0-0.65205,0-1.15648,0c-0.47829,0-1.07634-0.01308-1.79419-0.03965h-3.15057c-1.22227,0-2.33911,0.00675-3.34882,0.01982
	c-1.01055,0.0135-1.91397,0.03374-2.71194,0.05989l-3.62887,9.21092c-0.77098-0.05314-1.47533-0.05314-2.11304,0l11.76301-28.74959
	c0.6647,0.07971,1.72755,0.07971,3.19023,0l10.8461,28.74959C143.99062,43.17416,143.67177,43.15434,143.29977,43.14042z
	 M135.2854,30.95859c-0.58542-1.54113-1.27626-3.38213-2.07423-5.52259c-0.79715-2.13961-1.7014-4.57868-2.71111-7.31677
	l-5.18349,12.95914c-0.10712,0.26613-0.19317,0.49853-0.2598,0.69802c-0.06664,0.19907-0.12569,0.36567-0.17883,0.49811h2.4319
	c0.61156,0.02699,1.15648,0.04007,1.63475,0.04007c0.50528,0,0.94392,0,1.31592,0c0.29269,0,0.6647,0,1.11682,0
	c0.45213,0,0.99706-0.01307,1.63477-0.04007h2.75159L135.2854,30.95859z"/>
<path class="st0" d="M162.24039,43.87809c-4.57278,0-8.28093-1.36863-11.12532-4.10714
	c-2.87137-2.73767-4.30621-6.38004-4.30621-10.92539c0-4.35978,1.56812-7.97515,4.7052-10.8461
	c2.97682-2.73768,6.57869-4.10715,10.80562-4.10715c4.59892,0,8.32057,1.42261,11.16496,4.26657l-0.87727,1.11641
	c-2.3661-2.09954-5.14384-3.14974-8.33408-3.14974c-3.37581,0-6.27333,1.0367-8.69257,3.11009
	c-2.71111,2.3661-4.06667,5.52934-4.06667,9.49013c0,3.69508,1.23578,6.79252,3.70816,9.29063
	c2.49854,2.49938,5.47536,3.74823,8.93213,3.74823c1.99327,0,3.89374-0.23914,5.70142-0.71742
	c0-1.70098-0.00674-3.34291-0.01939-4.92453c-0.01434-1.58162-0.03374-3.10334-0.05989-4.5656l-6.1409,0.07971v-1.7149h1.75455
	c0.61156,0.02699,1.20963,0.04007,1.79419,0.04007c0.61156,0,1.22227,0,1.83467,0c0.61072,0,1.20877,0,1.79419,0
	c0.61072,0,1.20963-0.01307,1.79419-0.04007h1.59511l-0.03964,6.06118c0,0.37242,0,0.79756,0,1.27584
	c0,0.45255,0.01265,0.9709,0.03964,1.55505v2.99073C170.45383,43.18724,166.46646,43.87809,162.24039,43.87809z"/>
<path class="st0" d="M197.20973,43.20031c-0.50526,0-1.3159-0.01307-2.43188-0.04007
	c-1.11684-0.02615-2.11389-0.03965-2.99117-0.03965c-0.85112,0-1.60861,0-2.27246,0c-0.53227,0-1.22313,0-2.07339,0
	c-0.85112,0-1.84818,0.0135-2.99117,0.03965c-1.14297,0.02699-1.99326,0.04007-2.55167,0.04007c-0.53227,0-0.77184,0-0.71785,0
	l0.11978-13.99584c0-2.04683-0.03964-6.9646-0.11978-14.75375l8.13416,0.07971c0.6647,0,1.4222,0,2.27332,0
	c0.87727,0,1.87431-0.01307,2.99031-0.04007c1.11684-0.02615,1.92746-0.03965,2.43274-0.03965c0.50443,0,0.7305,0,0.67735,0v1.75454
	c-1.80769-0.07971-5.84819-0.11978-12.12152-0.11978c0,1.67483-0.00674,3.47576-0.02025,5.40323
	c-0.01349,1.92747-0.03374,3.98104-0.05989,6.1603h2.83173c0.61072,0,1.34206,0,2.19234,0
	c0.85112,0,1.83469-0.01307,2.95151-0.03965c1.116-0.02615,1.94012-0.04007,2.47154-0.04007c0.53143,0,0.78448,0,0.75833,0v1.7149
	c0.05231,0-0.17377,0-0.67819,0c-0.50528,0-1.3159-0.01307-2.43274-0.04007c-1.11598-0.02615-2.11304-0.03965-2.99031-0.03965
	c-0.85112,0-1.60861,0-2.27248,0h-2.83173c0,1.88782,0.0405,5.98104,0.11978,12.28136
	c0.42514,0.02657,0.95741,0.03965,1.59512,0.03965c0.66385,0,1.43568,0,2.31296,0c0.61072,0,1.34206,0,2.19318,0
	c0.87726,0,1.87347-0.01307,2.99031-0.03965c1.11684-0.02615,1.94011-0.04007,2.47238-0.04007c0.53142,0,0.77014,0,0.71785,0
	v1.75454C197.94023,43.20031,197.71417,43.20031,197.20973,43.20031z"/>
<path class="st0" d="M218.70203,43.20031c-0.45213,0-1.16998-0.01307-2.15269-0.04007
	c-0.98439-0.02615-1.88782-0.03965-2.71194-0.03965c-0.79713,0-1.52847,0-2.19318,0c-0.93042,0-2.07339,0.00675-3.42896,0.01982
	c-1.35555,0.01392-2.92451,0.03374-4.7052,0.05989l0.11978-14.75375c0-2.01983-0.03964-6.68497-0.11978-13.99584
	c1.59511,0.05356,3.07045,0.05356,4.42599,0l-0.11978,13.99584c0,0.37284,0,1.09026,0,2.15353
	c0,1.0367,0.0135,2.41924,0.0405,4.14679c0.02615,1.7014,0.03964,3.12401,0.03964,4.26657c0,1.11641,0,1.96753,0,2.5521
	c5.79504,0,9.59599-0.04007,11.40367-0.11978v1.75454C219.35323,43.20031,219.15416,43.20031,218.70203,43.20031z"/>
<path class="st0" d="M239.19725,43.20031c-0.45213,0-1.16997-0.01307-2.15268-0.04007
	c-0.98441-0.02615-1.88782-0.03965-2.71194-0.03965c-0.79713,0-1.52849,0-2.19318,0c-0.93042,0-2.07339,0.00675-3.42896,0.01982
	c-1.35555,0.01392-2.92451,0.03374-4.7052,0.05989l0.11978-14.75375c0-2.01983-0.03966-6.68497-0.11978-13.99584
	c1.59511,0.05356,3.07045,0.05356,4.42599,0l-0.11978,13.99584c0,0.37284,0,1.09026,0,2.15353
	c0,1.0367,0.01349,2.41924,0.04048,4.14679c0.02615,1.7014,0.03966,3.12401,0.03966,4.26657c0,1.11641,0,1.96753,0,2.5521
	c5.79504,0,9.59599-0.04007,11.40367-0.11978v1.75454C239.84846,43.20031,239.64938,43.20031,239.19725,43.20031z"/>
<path class="st0" d="M266.272,43.14042c-0.37283-0.01307-0.81146-0.01982-1.31589-0.01982
	c-0.50528,0-0.95065,0.00675-1.3353,0.01982c-0.38635,0.01392-0.71194,0.03374-0.97766,0.05989l-3.30917-9.25098
	c-0.26572,0-0.65204,0-1.15646,0c-0.4783,0-1.07635-0.01308-1.79419-0.03965h-3.15059c-1.22227,0-2.33911,0.00675-3.34882,0.01982
	c-1.01054,0.0135-1.91397,0.03374-2.71194,0.05989l-3.62886,9.21092c-0.771-0.05314-1.47534-0.05314-2.11304,0l11.76302-28.74959
	c0.6647,0.07971,1.72754,0.07971,3.19023,0l10.8461,28.74959C266.96286,43.17416,266.64401,43.15434,266.272,43.14042z
	 M258.25766,30.95859c-0.58542-1.54113-1.27628-3.38213-2.07425-5.52259c-0.79713-2.13961-1.7014-4.57868-2.71111-7.31677
	l-5.18349,12.95914c-0.10713,0.26613-0.19318,0.49853-0.25981,0.69802c-0.06664,0.19907-0.12569,0.36567-0.17883,0.49811h2.4319
	c0.61156,0.02699,1.15648,0.04007,1.63477,0.04007c0.50526,0,0.94391,0,1.3159,0c0.29271,0,0.6647,0,1.11684,0
	s0.99704-0.01307,1.63475-0.04007h2.7516L258.25766,30.95859z"/>
<path class="st0" d="M292.90814,43.55923c-1.01056-1.27584-2.42599-3.05062-4.24716-5.32351
	c-1.82034-2.27247-4.06076-5.07003-6.71872-8.39354c-0.98355-1.16955-2.16028-2.585-3.52847-4.24675
	c-1.3699-1.66091-2.97092-3.58162-4.80475-5.76173v5.10378c-0.02701,1.09068-0.0405,1.95404-0.0405,2.59217
	c0,0.63771,0,1.06327,0,1.27584c0,2.02068,0.01349,4.2206,0.0405,6.59935c0.02615,2.37917,0.0658,4.97809,0.11893,7.79548
	c-0.71783-0.02615-1.40869-0.02615-2.07339,0c0,0.02615,0-0.4787,0-1.5154s0.01352-2.60482,0.0405-4.70521v-8.13415v-8.17464
	c-0.02698-2.09954-0.0405-3.66851-0.0405-4.70521s0-1.54113,0-1.51498c0.18558,0.02657,0.41165,0.03965,0.67819,0.03965
	c0.26572,0,0.57108,0,0.91693,0c0.345,0,0.66385,0,0.9574,0c0.29187,0,0.57108-0.01307,0.83679-0.03965
	c1.62125,2.04725,5.01056,6.31382,10.16873,12.79972c1.116,1.35555,2.43192,2.95067,3.9469,4.78492
	c1.51581,1.83426,3.22986,3.92157,5.14383,6.26025c0.02615-1.19613,0.0405-2.56517,0.0405-4.10714c0-1.56812,0-3.34923,0-5.34292
	c0-6.80517-0.0405-11.60359-0.11978-14.39483c0.74399,0.02657,1.43567,0.02657,2.07339,0v6.18054
	c-0.02701,2.10039-0.03964,3.84143-0.03964,5.22356c0,1.35555,0,2.33953,0,2.95066c0,0.61198,0,1.60861,0,2.99073
	c0,1.38255,0.01263,3.16366,0.03964,5.34334v6.41968H292.90814z"/>
<g>
	<path class="st1" d="M86.70881,61.30449c0,0.10337-0.00568,0.19329-0.01705,0.27082
		c-0.01189,0.07752-0.03152,0.14161-0.06047,0.19329c-0.02843,0.05168-0.0615,0.08889-0.09872,0.11163
		c-0.03721,0.02274-0.07855,0.03411-0.12455,0.03411h-5.33207c-0.13179,0-0.25635-0.04445-0.37366-0.13334
		s-0.17572-0.24498-0.17572-0.46721v-9.90958c0-0.22327,0.0584-0.37935,0.17572-0.46824
		c0.11732-0.08786,0.24187-0.13231,0.37366-0.13231h5.27212c0.046,0,0.08734,0.01137,0.12456,0.03411
		c0.03721,0.02274,0.06718,0.05995,0.08992,0.11163c0.02326,0.05168,0.04186,0.11577,0.05582,0.19329
		c0.01447,0.07753,0.02171,0.17262,0.02171,0.28735c0,0.10337-0.00724,0.19329-0.02171,0.27082
		c-0.01395,0.07649-0.03255,0.13954-0.05582,0.18813c-0.02274,0.04961-0.05271,0.08476-0.08992,0.1075
		c-0.03722,0.02377-0.07856,0.03514-0.12456,0.03514h-4.34493v3.48546h3.72681c0.04548,0,0.08734,0.01344,0.12455,0.03928
		c0.03722,0.02584,0.06874,0.06099,0.09406,0.10647c0.02584,0.04651,0.04445,0.10957,0.05582,0.18916
		c0.01189,0.08062,0.01757,0.17469,0.01757,0.28322c0,0.10337-0.00568,0.19226-0.01757,0.26668
		c-0.01137,0.07442-0.02998,0.13438-0.05582,0.17986c-0.02532,0.04651-0.05685,0.07856-0.09406,0.09923
		c-0.03721,0.01964-0.07907,0.02998-0.12455,0.02998h-3.72681v3.97541h4.40488c0.046,0,0.08734,0.01137,0.12455,0.03411
		c0.03722,0.02378,0.07029,0.05892,0.09872,0.1075c0.02895,0.04858,0.04858,0.11163,0.06047,0.18916
		C86.70313,61.09465,86.70881,61.18975,86.70881,61.30449z"/>
	<path class="st1" d="M96.01266,61.38201c0.07442,0.1261,0.11835,0.22637,0.13283,0.30079
		c0.01447,0.07442-0.00414,0.13231-0.05582,0.17572c-0.05117,0.04342-0.13593,0.07132-0.25324,0.08579
		c-0.11732,0.01447-0.2734,0.02171-0.46773,0.02171c-0.18347,0-0.32663-0.00413-0.42948-0.01344
		c-0.10284-0.00827-0.1845-0.02377-0.24497-0.04651c-0.05995-0.02274-0.10595-0.05065-0.13696-0.08166
		c-0.03152-0.03204-0.05891-0.07339-0.08166-0.12507l-2.473-4.42194l-2.49884,4.42194
		c-0.02843,0.05168-0.05995,0.09509-0.09458,0.1292c-0.03411,0.03411-0.08114,0.06202-0.14161,0.08166
		c-0.05995,0.01964-0.14161,0.03411-0.24445,0.04238c-0.10336,0.0093-0.24033,0.01344-0.41243,0.01344
		c-0.18864,0-0.33749-0.00723-0.44653-0.02171c-0.10854-0.01447-0.1845-0.04238-0.2274-0.08579
		c-0.04289-0.04341-0.05737-0.1013-0.04289-0.17572c0.01447-0.07442,0.0584-0.17469,0.13334-0.30079l3.03065-5.10932l-2.8937-4.9367
		c-0.06873-0.12611-0.11266-0.2274-0.13282-0.30493c-0.02016-0.07752-0.00724-0.13747,0.03876-0.18089
		c0.04548-0.04238,0.12559-0.06925,0.24033-0.08166c0.11422-0.01137,0.27185-0.01654,0.47237-0.01654
		c0.17159,0,0.31165,0.00414,0.42069,0.0124c0.10854,0.0093,0.19433,0.02274,0.25739,0.04342
		c0.06305,0.01964,0.10853,0.04858,0.13747,0.08579c0.02842,0.03721,0.05995,0.07856,0.09457,0.12404l2.3867,4.15629
		l2.37015-4.15629c0.02843-0.04548,0.05737-0.08683,0.08579-0.12404c0.02843-0.03721,0.07029-0.06615,0.12456-0.08579
		c0.05427-0.02067,0.13024-0.03411,0.2274-0.04342c0.09716-0.00827,0.22895-0.0124,0.39537-0.0124
		c0.17727,0,0.32198,0.00724,0.43362,0.02171c0.11111,0.01344,0.19122,0.04135,0.24032,0.08062
		c0.04858,0.04031,0.06719,0.09923,0.05582,0.17675c-0.01189,0.07753-0.05168,0.17882-0.12041,0.30493l-2.88491,4.90259
		L96.01266,61.38201z"/>
	<path class="st1" d="M104.71494,54.05759c0,0.55507-0.09148,1.05639-0.27495,1.50292
		c-0.18296,0.44654-0.44498,0.82692-0.78558,1.14218c-0.34058,0.31423-0.7587,0.55817-1.25381,0.72976
		s-1.08585,0.25738-1.77271,0.25738h-1.2626v4.00125c0,0.04548-0.01292,0.08579-0.03825,0.1199
		c-0.02584,0.03514-0.06615,0.06202-0.12042,0.08166c-0.05426,0.02067-0.12868,0.03721-0.22327,0.05168
		c-0.09457,0.01447-0.21345,0.02171-0.35661,0.02171s-0.26151-0.00723-0.35609-0.02171
		c-0.09457-0.01447-0.17055-0.03101-0.2274-0.05168c-0.05737-0.01964-0.09768-0.04651-0.12042-0.08166
		c-0.02274-0.03411-0.0341-0.07442-0.0341-0.1199V51.43832c0-0.22844,0.05995-0.39175,0.18037-0.48891
		c0.1199-0.09716,0.25428-0.14574,0.40312-0.14574h2.37894c0.24032,0,0.47031,0.0093,0.69099,0.02998
		c0.22017,0.01964,0.48064,0.06305,0.78144,0.12817c0.30027,0.06615,0.60675,0.18916,0.91891,0.37004
		c0.31164,0.17986,0.57626,0.40209,0.79384,0.66463c0.21758,0.26358,0.38503,0.5685,0.50235,0.91478
		C104.65602,53.25755,104.71494,53.63999,104.71494,54.05759z M103.16085,54.17749c0-0.45171-0.08475-0.83002-0.25324-1.13288
		c-0.169-0.30389-0.37779-0.52923-0.62691-0.67807c-0.24911-0.14885-0.50648-0.24394-0.77265-0.28425
		c-0.26668-0.03928-0.5256-0.05995-0.7773-0.05995H99.3653v4.45709h1.33082c0.44654,0,0.8171-0.05789,1.11221-0.17262
		c0.29459-0.1137,0.54214-0.27288,0.74268-0.47651c0.20053-0.20259,0.35196-0.44654,0.45532-0.72976
		C103.10917,54.81732,103.16085,54.51032,103.16085,54.17749z"/>
	<path class="st1" d="M112.97999,61.30449c0,0.10337-0.00569,0.19329-0.01706,0.27082
		c-0.01189,0.07752-0.03152,0.14161-0.06047,0.19329c-0.02842,0.05168-0.0615,0.08889-0.09871,0.11163
		c-0.03721,0.02274-0.07856,0.03411-0.12456,0.03411h-5.33207c-0.13179,0-0.25634-0.04445-0.37366-0.13334
		c-0.11732-0.08889-0.17572-0.24498-0.17572-0.46721v-9.90958c0-0.22327,0.0584-0.37935,0.17572-0.46824
		c0.11732-0.08786,0.24187-0.13231,0.37366-0.13231h5.27212c0.046,0,0.08735,0.01137,0.12456,0.03411
		s0.06718,0.05995,0.08993,0.11163c0.02325,0.05168,0.04186,0.11577,0.05582,0.19329
		c0.01447,0.07753,0.02171,0.17262,0.02171,0.28735c0,0.10337-0.00723,0.19329-0.02171,0.27082
		c-0.01395,0.07649-0.03256,0.13954-0.05582,0.18813c-0.02274,0.04961-0.05272,0.08476-0.08993,0.1075
		c-0.03721,0.02377-0.07856,0.03514-0.12456,0.03514h-4.34493v3.48546h3.72681c0.04548,0,0.08734,0.01344,0.12456,0.03928
		c0.03721,0.02584,0.06873,0.06099,0.09406,0.10647c0.02584,0.04651,0.04445,0.10957,0.05582,0.18916
		c0.01189,0.08062,0.01758,0.17469,0.01758,0.28322c0,0.10337-0.00568,0.19226-0.01758,0.26668
		c-0.01137,0.07442-0.02998,0.13438-0.05582,0.17986c-0.02532,0.04651-0.05685,0.07856-0.09406,0.09923
		c-0.03722,0.01964-0.07908,0.02998-0.12456,0.02998h-3.72681v3.97541h4.40488c0.046,0,0.08735,0.01137,0.12456,0.03411
		c0.03721,0.02378,0.07029,0.05892,0.09871,0.1075c0.02895,0.04858,0.04858,0.11163,0.06047,0.18916
		C112.9743,61.09465,112.97999,61.18975,112.97999,61.30449z"/>
	<path class="st1" d="M122.61874,61.69107c0,0.04548-0.00879,0.08579-0.02584,0.1199
		c-0.01705,0.03514-0.05479,0.06305-0.11163,0.08579c-0.05737,0.02274-0.13747,0.04031-0.24033,0.05168
		c-0.10336,0.01137-0.24084,0.01757-0.41242,0.01757c-0.14885,0-0.2703-0.0062-0.36488-0.01757
		c-0.09458-0.01137-0.17056-0.02998-0.2274-0.05582c-0.05737-0.02584-0.10181-0.06099-0.13335-0.1075
		c-0.03152-0.04548-0.0584-0.10233-0.08166-0.17159l-1.02176-2.61823c-0.1199-0.29769-0.24445-0.57161-0.37315-0.82072
		c-0.1292-0.24911-0.28219-0.46307-0.45946-0.64396c-0.17779-0.17986-0.38658-0.32043-0.62691-0.42069
		c-0.24032-0.10027-0.52974-0.14988-0.86723-0.14988h-0.98766v4.731c0,0.04548-0.01292,0.08579-0.03824,0.1199
		c-0.02584,0.03514-0.06615,0.06202-0.12042,0.08166c-0.05427,0.02067-0.12869,0.03721-0.22327,0.05168
		c-0.09458,0.01447-0.21345,0.02171-0.35661,0.02171c-0.14316,0-0.26151-0.00723-0.35609-0.02171
		c-0.09458-0.01447-0.17056-0.03101-0.2274-0.05168c-0.05737-0.01964-0.09768-0.04651-0.12042-0.08166
		c-0.02274-0.03411-0.03411-0.07442-0.03411-0.1199V51.40421c0-0.22327,0.0584-0.37935,0.17572-0.46824
		c0.11732-0.08786,0.24187-0.13231,0.37366-0.13231h2.36137c0.28012,0,0.51373,0.00724,0.69978,0.02067
		c0.18606,0.01447,0.35351,0.02998,0.50236,0.04755c0.42948,0.07442,0.80831,0.19226,1.13753,0.35247
		c0.32922,0.16021,0.6052,0.36281,0.82847,0.60882c0.22327,0.24704,0.39072,0.52819,0.50235,0.84655
		c0.11163,0.31733,0.16745,0.66774,0.16745,1.05122c0,0.37211-0.05013,0.70598-0.14988,1.00057
		c-0.10026,0.29459-0.24497,0.55507-0.43361,0.78144c-0.18916,0.22637-0.41553,0.42276-0.67859,0.58815
		c-0.26358,0.16642-0.55817,0.30596-0.88428,0.42069c0.18295,0.08062,0.34885,0.18192,0.4977,0.30493
		c0.14885,0.123,0.28787,0.27081,0.41656,0.4424c0.12868,0.17159,0.25066,0.36901,0.36488,0.59228
		c0.11473,0.22327,0.22895,0.47548,0.34369,0.7556l0.99592,2.44768c0.08011,0.20569,0.13179,0.3504,0.15453,0.4331
		C122.60686,61.58047,122.61874,61.64559,122.61874,61.69107z M120.39485,53.886c0-0.43517-0.09768-0.80314-0.29201-1.10394
		c-0.19484-0.29976-0.52096-0.51579-0.97886-0.6481c-0.14317-0.03928-0.30493-0.06822-0.4853-0.08579
		c-0.18037-0.01654-0.41656-0.02584-0.70856-0.02584h-1.24503v3.74387h1.44246c0.38969,0,0.72562-0.04755,1.00935-0.14161
		c0.28322-0.09406,0.51941-0.22637,0.70805-0.39485c0.18916-0.16849,0.32766-0.36798,0.41656-0.59642
		C120.3504,54.40386,120.39485,54.15475,120.39485,53.886z"/>
	<path class="st1" d="M131.37321,51.43832c0,0.10957-0.00568,0.20363-0.01756,0.28322
		c-0.01138,0.08063-0.02998,0.14471-0.05582,0.19329c-0.02533,0.04961-0.05685,0.08476-0.09407,0.1075
		s-0.07907,0.03411-0.12456,0.03411h-3.12574v9.63462c0,0.04548-0.01138,0.08579-0.03411,0.1199
		c-0.02326,0.03514-0.06306,0.06202-0.12042,0.08166c-0.05737,0.02067-0.13282,0.03721-0.2274,0.05168
		c-0.09458,0.01447-0.21345,0.02171-0.35661,0.02171c-0.13696,0-0.2548-0.00723-0.35196-0.02171
		c-0.09716-0.01447-0.17469-0.03101-0.23154-0.05168c-0.05737-0.01964-0.09768-0.04651-0.12042-0.08166
		c-0.02274-0.03411-0.03411-0.07442-0.03411-0.1199v-9.63462h-3.12575c-0.046,0-0.08734-0.01137-0.12455-0.03411
		c-0.03722-0.02274-0.06719-0.05788-0.08993-0.1075c-0.02326-0.04858-0.04186-0.11267-0.05582-0.19329
		c-0.01447-0.07959-0.02171-0.17365-0.02171-0.28322c0-0.10853,0.00724-0.20466,0.02171-0.28735
		c0.01395-0.08269,0.03255-0.14988,0.05582-0.20156c0.02274-0.05168,0.05271-0.08889,0.08993-0.11163
		c0.03721-0.02274,0.07855-0.03411,0.12455-0.03411h7.72806c0.04549,0,0.08734,0.01137,0.12456,0.03411
		s0.06874,0.05995,0.09407,0.11163c0.02583,0.05168,0.04443,0.11887,0.05582,0.20156
		C131.36754,51.23366,131.37321,51.32979,131.37321,51.43832z"/>
	<path class="st1" d="M138.6842,58.79789c0,0.52096-0.09561,0.98403-0.28735,1.39025
		c-0.19174,0.40726-0.4579,0.75146-0.79849,1.03468s-0.74164,0.49718-1.20213,0.63983c-0.461,0.14368-0.95767,0.215-1.49001,0.215
		c-0.37212,0-0.71683-0.03204-1.03468-0.0951c-0.31732-0.06305-0.60106-0.13954-0.85017-0.23154
		c-0.24858-0.09096-0.4579-0.18606-0.62639-0.28322c-0.16899-0.09716-0.28632-0.17986-0.35246-0.24911
		c-0.06564-0.06822-0.11423-0.15608-0.14575-0.26151c-0.03152-0.10646-0.04703-0.24807-0.04703-0.42483
		c0-0.12611,0.00568-0.2305,0.01706-0.31423c0.01137-0.08269,0.02841-0.14988,0.05168-0.20156
		c0.02274-0.05169,0.05116-0.08683,0.08578-0.1075c0.03412-0.01964,0.07391-0.02998,0.1199-0.02998
		c0.08011,0,0.1933,0.04858,0.33955,0.14574c0.14575,0.0982,0.33336,0.20363,0.5623,0.31836
		c0.22896,0.11473,0.50494,0.2212,0.82848,0.32146c0.32353,0.10027,0.69667,0.15091,1.12047,0.15091
		c0.32043,0,0.61398-0.04341,0.88016-0.1292c0.26616-0.08579,0.49512-0.20776,0.68686-0.36488
		c0.19174-0.15711,0.33955-0.35041,0.4424-0.57988c0.10284-0.22844,0.15453-0.48891,0.15453-0.78144
		c0-0.31423-0.07184-0.58401-0.21448-0.80728c-0.14316-0.22224-0.33232-0.41863-0.56696-0.58815
		c-0.23463-0.16848-0.50235-0.3225-0.80263-0.46307c-0.3008-0.14058-0.60831-0.28322-0.92305-0.42896
		c-0.31526-0.14678-0.62122-0.30803-0.91891-0.48581c-0.29768-0.17675-0.56386-0.38659-0.79849-0.62639
		c-0.23515-0.24084-0.42534-0.52303-0.57109-0.84552c-0.14626-0.32353-0.21913-0.71218-0.21913-1.16389
		c0-0.46411,0.08476-0.87756,0.25325-1.24038c0.16899-0.36384,0.40364-0.66877,0.70442-0.91478
		c0.30028-0.24601,0.65791-0.43413,1.07344-0.56231c0.41451-0.12921,0.86258-0.19329,1.34375-0.19329
		c0.246,0,0.49356,0.02171,0.74268,0.06408c0.2491,0.04342,0.48375,0.10027,0.7039,0.17159
		c0.22017,0.07235,0.41656,0.15194,0.58815,0.24084s0.28477,0.16022,0.33904,0.215c0.05479,0.05375,0.09045,0.09716,0.1075,0.12817
		c0.01706,0.03204,0.03152,0.07132,0.04291,0.1199c0.01137,0.04962,0.02016,0.1075,0.02583,0.17675
		c0.00569,0.06822,0.00879,0.15712,0.00879,0.26565c0,0.10337-0.00465,0.19536-0.01292,0.27495
		c-0.00879,0.08062-0.0217,0.14781-0.03876,0.20156c-0.01706,0.05478-0.04187,0.09509-0.07288,0.12093
		c-0.03152,0.02584-0.0677,0.03825-0.1075,0.03825c-0.06305,0-0.16176-0.04031-0.29614-0.1199
		c-0.13489-0.08062-0.29924-0.17055-0.49356-0.27081c-0.19484-0.10027-0.42535-0.19123-0.69151-0.27495
		c-0.26616-0.08269-0.5654-0.12404-0.8972-0.12404c-0.30907,0-0.57832,0.04135-0.80728,0.12404
		c-0.22896,0.08372-0.41759,0.19329-0.56644,0.33077c-0.14885,0.13747-0.26048,0.30079-0.3349,0.48891
		c-0.07443,0.18916-0.11163,0.38968-0.11163,0.60158c0,0.30906,0.07132,0.57574,0.21448,0.79901
		c0.14316,0.22327,0.33334,0.42069,0.57109,0.59228c0.23721,0.17159,0.50804,0.3287,0.81142,0.47238
		c0.30338,0.14264,0.61243,0.28735,0.92717,0.4331c0.31476,0.14574,0.62381,0.30596,0.9277,0.48064
		c0.30338,0.17469,0.57367,0.38142,0.81142,0.61812c0.23721,0.23774,0.42896,0.51889,0.57523,0.84242
		C138.61133,57.97408,138.6842,58.35653,138.6842,58.79789z"/>
	<path class="st1" d="M145.89751,61.69107c0,0.04548-0.01137,0.08579-0.0341,0.1199
		c-0.02325,0.03514-0.06305,0.06202-0.12042,0.08166c-0.05737,0.02067-0.13283,0.03721-0.2274,0.05168
		c-0.09457,0.01447-0.21346,0.02171-0.35661,0.02171c-0.13695,0-0.25479-0.00723-0.35196-0.02171
		c-0.09715-0.01447-0.17468-0.03101-0.23154-0.05168c-0.05736-0.01964-0.09767-0.04651-0.12041-0.08166
		c-0.02275-0.03411-0.03412-0.07442-0.03412-0.1199V51.02693c0-0.04651,0.01292-0.08579,0.03824-0.12093
		c0.02585-0.03411,0.06874-0.06099,0.12921-0.08166c0.05995-0.01964,0.13696-0.03721,0.23154-0.05065
		c0.09457-0.01447,0.20776-0.02171,0.33904-0.02171c0.14316,0,0.26204,0.00724,0.35661,0.02171
		c0.09457,0.01344,0.17003,0.03101,0.2274,0.05065c0.05737,0.02068,0.09717,0.04755,0.12042,0.08166
		c0.02274,0.03514,0.0341,0.07442,0.0341,0.12093V61.69107z"/>
	<path class="st1" d="M157.07382,61.30449c0,0.11473-0.02068,0.2119-0.05789,0.29252
		c-0.03928,0.07959-0.08888,0.14574-0.15091,0.19743c-0.06201,0.05169-0.13231,0.08889-0.2088,0.11164
		c-0.07648,0.02274-0.15504,0.03411-0.23154,0.03411h-0.48787c-0.15506,0-0.28943-0.0155-0.40416-0.04755
		c-0.11473-0.03101-0.2243-0.08889-0.3287-0.17159c-0.10336-0.08269-0.20776-0.19639-0.31061-0.33904
		c-0.10388-0.14265-0.21346-0.32663-0.32973-0.5499l-3.38985-6.31972c-0.17728-0.3256-0.35558-0.66774-0.53595-1.02538
		c-0.17986-0.35764-0.34731-0.70598-0.50235-1.04398h-0.01706c0.01137,0.41242,0.01964,0.83312,0.02585,1.26208
		c0.00568,0.43,0.00826,0.85586,0.00826,1.27966v6.7063c0,0.04031-0.01189,0.07856-0.03616,0.11577
		c-0.02429,0.03721-0.06461,0.06615-0.1225,0.08579c-0.05736,0.02067-0.13283,0.03721-0.22636,0.05168
		c-0.09355,0.01447-0.21294,0.02171-0.35765,0.02171c-0.14522,0-0.2646-0.00723-0.35815-0.02171
		c-0.09354-0.01447-0.16745-0.03101-0.22171-0.05168c-0.05479-0.01964-0.09407-0.04858-0.11784-0.08579
		c-0.02429-0.03721-0.03618-0.07545-0.03618-0.11577V51.43832c0-0.22844,0.06461-0.39175,0.19484-0.48891
		c0.12973-0.09716,0.27185-0.14574,0.42535-0.14574h0.72665c0.17107,0,0.31474,0.01447,0.42999,0.04238
		c0.11525,0.02894,0.21861,0.07649,0.3101,0.14161c0.09148,0.06615,0.18036,0.15815,0.26564,0.27495
		c0.0858,0.11784,0.17572,0.26461,0.26978,0.4424l2.60583,4.87675c0.16074,0.29769,0.31526,0.58815,0.46461,0.87136
		c0.14937,0.28425,0.29356,0.56334,0.43155,0.83725c0.138,0.27495,0.27547,0.54576,0.41087,0.81141
		c0.13541,0.26668,0.26979,0.5344,0.40312,0.80314h0.00827c-0.01241-0.4517-0.0186-0.92305-0.0217-1.41196
		c-0.0031-0.48995-0.00414-0.96026-0.00414-1.41299v-6.0272c0-0.04031,0.01137-0.07752,0.03618-0.11163
		c0.02377-0.03514,0.06409-0.06512,0.12196-0.09096c0.05789-0.02584,0.13231-0.04445,0.2274-0.05582
		c0.09303-0.01137,0.215-0.01654,0.36592-0.01654c0.13229,0,0.24806,0.00517,0.34523,0.01654
		c0.09509,0.01137,0.17159,0.02998,0.22534,0.05582c0.05582,0.02584,0.09509,0.05582,0.11783,0.09096
		c0.02481,0.03411,0.03722,0.07132,0.03722,0.11163V61.30449z"/>
	<path class="st1" d="M171.99658,52.31486c0,0.10853-0.00517,0.20466-0.01654,0.28735s-0.02895,0.15195-0.05168,0.2057
		c-0.02274,0.05478-0.05168,0.09303-0.08578,0.11577c-0.03412,0.02377-0.07236,0.03514-0.11163,0.03514
		c-0.06926,0-0.18399-0.05478-0.34421-0.16332c-0.16022-0.10853-0.37418-0.22947-0.64397-0.36074
		c-0.26875-0.13128-0.59021-0.25221-0.96542-0.36074c-0.37521-0.10853-0.81969-0.16331-1.33548-0.16331
		c-0.61191,0-1.16182,0.11163-1.64867,0.3349c-0.48685,0.22327-0.89824,0.53233-1.23624,0.92718
		c-0.338,0.39589-0.59642,0.86517-0.7773,1.40886c-0.17986,0.5437-0.26979,1.13288-0.26979,1.76857
		c0,0.71011,0.09821,1.33961,0.29562,1.88951c0.19743,0.54887,0.47134,1.01297,0.81969,1.39025
		c0.34937,0.37831,0.76593,0.66463,1.24968,0.85896c0.48375,0.19433,1.01505,0.29149,1.59285,0.29149
		c0.34317,0,0.69151-0.04134,1.04295-0.12403c0.35246-0.0827,0.68013-0.20776,0.98402-0.37315v-3.23738h-2.57687
		c-0.09717,0-0.16953-0.04858-0.21811-0.14574c-0.04961-0.09716-0.07338-0.24911-0.07338-0.45584
		c0-0.10854,0.00516-0.20156,0.01756-0.27909c0.01137-0.07649,0.02998-0.13954,0.05582-0.18812
		c0.02585-0.04858,0.05582-0.08476,0.08994-0.1075c0.0341-0.02274,0.07751-0.03411,0.12817-0.03411h3.52991
		c0.06305,0,0.12506,0.01137,0.18811,0.03411c0.06306,0.02274,0.12094,0.05685,0.17262,0.10336
		c0.05064,0.04548,0.09096,0.10853,0.1199,0.18812c0.02791,0.08063,0.04239,0.17159,0.04239,0.27495v4.23278
		c0,0.14988-0.02585,0.27805-0.07649,0.38659c-0.05168,0.10957-0.16022,0.20466-0.32664,0.28839
		c-0.16641,0.08269-0.38037,0.17262-0.64395,0.26978c-0.26358,0.09716-0.53543,0.18089-0.81555,0.24911
		c-0.28116,0.06926-0.56438,0.1199-0.85069,0.15505c-0.28632,0.03411-0.56953,0.05168-0.84966,0.05168
		c-0.85896,0-1.62593-0.13334-2.3009-0.40002c-0.67599-0.26565-1.24657-0.645-1.71378-1.13701
		c-0.46619-0.49305-0.82278-1.08223-1.0688-1.7696c-0.246-0.68634-0.369-1.45331-0.369-2.3009
		c0-0.8817,0.13333-1.67968,0.39899-2.39599c0.26668-0.71529,0.64085-1.32514,1.1246-1.82852
		c0.48375-0.50339,1.06569-0.89411,1.74376-1.17216s1.42953-0.41656,2.25336-0.41656c0.4238,0,0.82175,0.03721,1.19386,0.11164
		c0.37212,0.07442,0.70288,0.16228,0.99229,0.26151c0.28839,0.10026,0.53233,0.20983,0.72975,0.32663
		c0.19743,0.11784,0.33284,0.21397,0.40726,0.28735c0.07443,0.07442,0.12611,0.16125,0.15506,0.25841
		C171.98212,51.99133,171.99658,52.1319,171.99658,52.31486z"/>
	<path class="st1" d="M180.32985,61.27037c0,0.11473-0.00621,0.20983-0.01758,0.28736
		c-0.01137,0.07752-0.02997,0.14368-0.05582,0.19743c-0.02583,0.05478-0.05685,0.09509-0.09406,0.12094
		c-0.03722,0.02584-0.08167,0.03824-0.13335,0.03824h-4.9119c-0.13127,0-0.25531-0.04445-0.37314-0.13334
		c-0.11681-0.08889-0.17572-0.24498-0.17572-0.46721V51.02693c0-0.04651,0.01137-0.08579,0.0341-0.12093
		c0.02275-0.03411,0.06306-0.06099,0.1199-0.08166c0.05789-0.01964,0.13438-0.03721,0.23257-0.05065
		c0.09717-0.01447,0.21396-0.02171,0.35144-0.02171c0.14368,0,0.26254,0.00724,0.35661,0.02171
		c0.09406,0.01344,0.17055,0.03101,0.2274,0.05065c0.05685,0.02068,0.09715,0.04755,0.1199,0.08166
		c0.02274,0.03514,0.03514,0.07442,0.03514,0.12093v9.60775h3.98367c0.05168,0,0.09613,0.01344,0.13335,0.03928
		c0.0372,0.02584,0.06822,0.06305,0.09406,0.11163c0.02585,0.04858,0.04445,0.11267,0.05582,0.19329
		C180.32364,61.05848,180.32985,61.15564,180.32985,61.27037z"/>
	<path class="st1" d="M190.70663,56.23031c0,0.89824-0.10648,1.70862-0.31837,2.4301
		c-0.2119,0.72046-0.52818,1.33444-0.94888,1.84093c-0.4207,0.50752-0.94888,0.89617-1.58354,1.16802
		c-0.6357,0.27185-1.37682,0.40829-2.22441,0.40829c-0.83519,0-1.55875-0.12507-2.16756-0.37418
		c-0.60985-0.24807-1.11427-0.61088-1.5112-1.08533c-0.39795-0.47548-0.69461-1.06466-0.88893-1.7696
		c-0.19432-0.70391-0.29253-1.51326-0.29253-2.4301c0-0.8755,0.10646-1.67141,0.31836-2.38669
		c0.2119-0.71529,0.52924-1.32307,0.95303-1.82439c0.4238-0.50132,0.95302-0.88791,1.58871-1.15975
		c0.63466-0.27185,1.37682-0.40726,2.22337-0.40726c0.81865,0,1.53186,0.123,2.13861,0.36901s1.11118,0.60572,1.51534,1.07809
		c0.40312,0.47134,0.7039,1.05535,0.90134,1.751C190.60739,54.5341,190.70663,55.33104,190.70663,56.23031z M189.14375,56.33265
		c0-0.62949-0.05582-1.21454-0.16745-1.75513c-0.11163-0.54163-0.29768-1.01091-0.55714-1.40886
		c-0.26047-0.39796-0.60777-0.70805-1.0419-0.93132c-0.43517-0.22327-0.97267-0.3349-1.6125-0.3349
		c-0.64085,0-1.17834,0.1199-1.61249,0.36074c-0.43413,0.23981-0.78763,0.56127-1.05846,0.96129
		c-0.27184,0.40105-0.46617,0.8693-0.584,1.40369c-0.11681,0.53543-0.17572,1.09773-0.17572,1.68795
		c0,0.65223,0.05478,1.25381,0.16331,1.80268c0.10854,0.5499,0.29149,1.02331,0.54886,1.42126
		c0.25739,0.39795,0.60159,0.70702,1.03365,0.92718c0.43103,0.2212,0.97267,0.33077,1.62489,0.33077
		c0.64604,0,1.18871-0.1199,1.62903-0.36074c0.44034-0.23981,0.79488-0.5654,1.06363-0.97473s0.45998-0.88274,0.57471-1.42023
		C189.08588,57.50377,189.14375,56.93423,189.14375,56.33265z"/>
	<path class="st1" d="M200.19034,58.72864c0,0.34937-0.04445,0.67084-0.13333,0.96646
		c-0.0889,0.29459-0.21294,0.5592-0.37315,0.79384s-0.3535,0.44137-0.57988,0.61812
		c-0.22636,0.17779-0.48064,0.32663-0.76385,0.44654c-0.28426,0.1199-0.58711,0.21086-0.91064,0.27081
		s-0.69461,0.08993-1.11221,0.08993h-2.90248c-0.13127,0-0.25531-0.04445-0.37314-0.13334
		c-0.11681-0.08889-0.17572-0.24498-0.17572-0.46721v-9.90958c0-0.22327,0.05891-0.37935,0.17572-0.46824
		c0.11783-0.08786,0.24187-0.13231,0.37314-0.13231h2.52521c0.6636,0,1.20729,0.06305,1.63109,0.18813
		c0.4238,0.1261,0.77731,0.30906,1.06053,0.5499c0.28322,0.24084,0.49614,0.53543,0.63982,0.8848
		c0.14265,0.34937,0.215,0.74423,0.215,1.18456c0,0.26358-0.03203,0.51476-0.09509,0.7556
		c-0.06305,0.24084-0.15608,0.46204-0.27908,0.66567s-0.27701,0.38452-0.46307,0.54473
		c-0.18605,0.16021-0.40002,0.29252-0.63983,0.39589c0.30287,0.05685,0.58609,0.16125,0.84967,0.31319
		s0.49408,0.3442,0.6915,0.57884c0.19743,0.23567,0.35352,0.50959,0.46825,0.82485
		C200.13246,58.00508,200.19034,58.35136,200.19034,58.72864z M197.96593,53.75679c0-0.26875-0.0372-0.51165-0.11163-0.72976
		c-0.07338-0.21706-0.19122-0.40209-0.3504-0.55403c-0.16022-0.15091-0.36902-0.26668-0.62535-0.34731
		c-0.25739-0.08063-0.59746-0.1199-1.02022-0.1199h-1.52463v3.59709h1.67967c0.38246,0,0.69048-0.04962,0.92513-0.14988
		c0.2336-0.10027,0.42792-0.23464,0.58194-0.40416c0.15401-0.16848,0.26772-0.36591,0.33904-0.59228
		C197.93079,54.23124,197.96593,53.99763,197.96593,53.75679z M198.63574,58.81443c0-0.3318-0.05272-0.62329-0.15816-0.8755
		c-0.10646-0.25221-0.26048-0.46411-0.46307-0.63569s-0.45686-0.30182-0.76283-0.39072
		c-0.30595-0.08889-0.68944-0.13334-1.15251-0.13334h-1.76547v3.91545h2.14275c0.33698,0,0.63156-0.03928,0.88274-0.1199
		c0.25117-0.07959,0.47238-0.19846,0.6636-0.35661c0.19122-0.15712,0.34213-0.35351,0.45067-0.58815
		S198.63574,59.12349,198.63574,58.81443z"/>
	<path class="st1" d="M210.40381,61.39028c0.04651,0.12611,0.07028,0.2274,0.07339,0.30493
		c0.0031,0.07752-0.01862,0.13644-0.06409,0.17572c-0.04652,0.04031-0.12198,0.06615-0.2274,0.07752
		c-0.10648,0.01137-0.24808,0.01757-0.42587,0.01757c-0.17674,0-0.31836-0.00413-0.42482-0.01344
		c-0.10544-0.00827-0.18607-0.02274-0.23981-0.04238c-0.05479-0.01964-0.09509-0.04755-0.12094-0.08166
		s-0.04962-0.07752-0.07236-0.1292l-0.95302-2.70402h-4.62041l-0.90961,2.66991c-0.01758,0.05168-0.04031,0.09613-0.06926,0.13334
		c-0.02791,0.03721-0.07028,0.06822-0.12404,0.09406c-0.05478,0.02584-0.13229,0.04445-0.23154,0.05582
		c-0.10027,0.01137-0.2305,0.01757-0.39072,0.01757c-0.16641,0-0.30286-0.00723-0.40828-0.02171
		c-0.10648-0.01447-0.17986-0.04134-0.22328-0.08166c-0.04237-0.04031-0.06305-0.0982-0.05995-0.17572
		c0.00311-0.07752,0.02689-0.17882,0.07339-0.30492l3.7263-10.32097c0.02274-0.06305,0.05272-0.11473,0.08992-0.15504
		c0.03722-0.03928,0.092-0.07132,0.16331-0.09406s0.16331-0.03825,0.27495-0.04755c0.11163-0.00827,0.25325-0.0124,0.42484-0.0124
		c0.18295,0,0.3349,0.00414,0.4548,0.0124c0.1199,0.0093,0.21809,0.02481,0.29253,0.04755
		c0.07338,0.02274,0.13127,0.05582,0.17159,0.09819c0.03928,0.04342,0.07132,0.09613,0.09404,0.15918L210.40381,61.39028z
		 M205.62112,52.27971h-0.00827l-1.91432,5.53931h3.86378L205.62112,52.27971z"/>
	<path class="st1" d="M217.84503,61.27037c0,0.11473-0.0062,0.20983-0.01758,0.28736
		c-0.01137,0.07752-0.02997,0.14368-0.05582,0.19743c-0.02583,0.05478-0.05684,0.09509-0.09406,0.12094
		c-0.03722,0.02584-0.08167,0.03824-0.13335,0.03824h-4.91188c-0.13127,0-0.25531-0.04445-0.37315-0.13334
		c-0.11681-0.08889-0.17572-0.24498-0.17572-0.46721V51.02693c0-0.04651,0.01137-0.08579,0.03412-0.12093
		c0.02274-0.03411,0.06305-0.06099,0.1199-0.08166c0.05788-0.01964,0.13437-0.03721,0.23256-0.05065
		c0.09717-0.01447,0.21397-0.02171,0.35144-0.02171c0.14368,0,0.26256,0.00724,0.35661,0.02171
		c0.09406,0.01344,0.17055,0.03101,0.2274,0.05065c0.05685,0.02068,0.09717,0.04755,0.1199,0.08166
		c0.02274,0.03514,0.03514,0.07442,0.03514,0.12093v9.60775h3.98367c0.05168,0,0.09613,0.01344,0.13335,0.03928
		s0.06822,0.06305,0.09406,0.11163c0.02585,0.04858,0.04445,0.11267,0.05582,0.19329
		C217.83884,61.05848,217.84503,61.15564,217.84503,61.27037z"/>
	<path class="st1" d="M224.57718,61.69107c0,0.04548-0.01241,0.08579-0.03514,0.1199
		c-0.02275,0.03514-0.06306,0.06202-0.1199,0.08166c-0.05685,0.02067-0.13335,0.03721-0.2274,0.05168
		c-0.09407,0.01447-0.21294,0.02171-0.35661,0.02171c-0.13748,0-0.25427-0.00723-0.35144-0.02171
		c-0.09819-0.01447-0.17468-0.03101-0.23257-0.05168c-0.05685-0.01964-0.09715-0.04651-0.1199-0.08166
		c-0.02274-0.03411-0.0341-0.07442-0.0341-0.1199V51.02693c0-0.04651,0.01241-0.08579,0.03824-0.12093
		c0.02585-0.03411,0.06926-0.06099,0.12921-0.08166c0.05995-0.01964,0.13747-0.03721,0.23154-0.05065
		c0.09406-0.01447,0.20776-0.02171,0.33904-0.02171c0.14368,0,0.26254,0.00724,0.35661,0.02171
		c0.09406,0.01344,0.17055,0.03101,0.2274,0.05065c0.05684,0.02068,0.09715,0.04755,0.1199,0.08166
		c0.02274,0.03514,0.03514,0.07442,0.03514,0.12093V61.69107z"/>
	<path class="st1" d="M235.75194,61.30449c0,0.11473-0.01964,0.2119-0.05789,0.29252
		c-0.03824,0.07959-0.08888,0.14574-0.15091,0.19743c-0.06201,0.05169-0.13127,0.08889-0.2088,0.11164
		c-0.07648,0.02274-0.15401,0.03411-0.2305,0.03411h-0.48891c-0.15402,0-0.28839-0.0155-0.40312-0.04755
		c-0.11577-0.03101-0.22534-0.08889-0.3287-0.17159c-0.1044-0.08269-0.20776-0.19639-0.31113-0.33904
		c-0.10336-0.14265-0.21397-0.32663-0.32974-0.5499l-3.38933-6.31972c-0.17778-0.3256-0.3566-0.66774-0.53645-1.02538
		c-0.17986-0.35764-0.34731-0.70598-0.50235-1.04398h-0.01758c0.01137,0.41242,0.02068,0.83312,0.02585,1.26208
		c0.0062,0.43,0.00929,0.85586,0.00929,1.27966v6.7063c0,0.04031-0.01241,0.07856-0.03618,0.11577
		c-0.02481,0.03721-0.06511,0.06615-0.123,0.08579c-0.05685,0.02067-0.13231,0.03721-0.22636,0.05168
		c-0.09303,0.01447-0.21294,0.02171-0.35765,0.02171c-0.1447,0-0.2646-0.00723-0.35764-0.02171
		c-0.09407-0.01447-0.16849-0.03101-0.22223-0.05168c-0.05479-0.01964-0.09407-0.04858-0.11784-0.08579
		c-0.02481-0.03721-0.03618-0.07545-0.03618-0.11577V51.43832c0-0.22844,0.06512-0.39175,0.19434-0.48891
		c0.13023-0.09716,0.27184-0.14574,0.42586-0.14574h0.72665c0.17159,0,0.31422,0.01447,0.42999,0.04238
		c0.11473,0.02894,0.21809,0.07649,0.31009,0.14161c0.09097,0.06615,0.17986,0.15815,0.26566,0.27495
		c0.08578,0.11784,0.17572,0.26461,0.26978,0.4424l2.60583,4.87675c0.16022,0.29769,0.31526,0.58815,0.46513,0.87136
		c0.14885,0.28425,0.29253,0.56334,0.43103,0.83725c0.1385,0.27495,0.27495,0.54576,0.41139,0.81141
		c0.13541,0.26668,0.26875,0.5344,0.40208,0.80314h0.00827c-0.01137-0.4517-0.0186-0.92305-0.0217-1.41196
		c-0.00208-0.48995-0.00414-0.96026-0.00414-1.41299v-6.0272c0-0.04031,0.01241-0.07752,0.03618-0.11163
		c0.02481-0.03514,0.06511-0.06512,0.123-0.09096c0.05685-0.02584,0.13231-0.04445,0.22636-0.05582
		c0.09303-0.01137,0.21603-0.01654,0.36694-0.01654c0.13231,0,0.24704,0.00517,0.34421,0.01654
		c0.09613,0.01137,0.17159,0.02998,0.22636,0.05582c0.05478,0.02584,0.09407,0.05582,0.11784,0.09096
		c0.02377,0.03411,0.03618,0.07132,0.03618,0.11163V61.30449z"/>
	<path class="st1" d="M243.0195,61.65696c-0.02274,0.06305-0.05374,0.11473-0.09406,0.15401
		c-0.04031,0.04031-0.09613,0.07235-0.16745,0.0951c-0.07132,0.02274-0.16331,0.03824-0.27495,0.04651
		c-0.11163,0.0093-0.25014,0.01344-0.41656,0.01344c-0.1261,0-0.23567-0.00206-0.32973-0.00413
		c-0.09509-0.0031-0.17676-0.01034-0.24498-0.02171c-0.06926-0.01137-0.12817-0.02481-0.17676-0.03824
		c-0.04857-0.01447-0.08992-0.03308-0.12404-0.05582c-0.0341-0.02378-0.06201-0.05065-0.08165-0.08166
		c-0.01964-0.03204-0.03824-0.07029-0.05582-0.1168l-3.63223-10.32096c-0.04549-0.12507-0.0703-0.2274-0.07236-0.30492
		c-0.0031-0.07649,0.02068-0.13541,0.07236-0.17572c0.05168-0.04031,0.13437-0.06512,0.2491-0.07753
		c0.11475-0.01137,0.26875-0.01654,0.46411-0.01654c0.16022,0,0.28735,0.00414,0.38142,0.0124
		c0.09509,0.0093,0.16745,0.02481,0.21913,0.04755s0.08992,0.05272,0.11577,0.08993
		c0.02583,0.03721,0.05064,0.08476,0.07338,0.14161l3.1857,9.35141h0.00827l3.09991-9.33384
		c0.01756-0.06305,0.0372-0.11473,0.05995-0.15504c0.02274-0.03928,0.06305-0.07132,0.1199-0.09406
		c0.05788-0.02274,0.13747-0.03825,0.24083-0.04755c0.10338-0.00827,0.24084-0.0124,0.41243-0.0124
		c0.17676,0,0.31734,0.00724,0.4207,0.02171c0.10336,0.01344,0.17262,0.04135,0.20982,0.08062
		c0.03722,0.04031,0.05168,0.09923,0.04341,0.17675c-0.00827,0.07753-0.03618,0.17882-0.08165,0.30493L243.0195,61.65696z"/>
	<path class="st1" d="M254.51366,61.30449c0,0.10337-0.0062,0.19329-0.01756,0.27082s-0.03101,0.14161-0.05995,0.19329
		s-0.06099,0.08889-0.09821,0.11163c-0.0372,0.02274-0.07959,0.03411-0.12506,0.03411h-5.3326
		c-0.13127,0-0.25531-0.04445-0.37314-0.13334c-0.11681-0.08889-0.17572-0.24498-0.17572-0.46721v-9.90958
		c0-0.22327,0.05891-0.37935,0.17572-0.46824c0.11783-0.08786,0.24187-0.13231,0.37314-0.13231h5.27264
		c0.04547,0,0.08682,0.01137,0.12404,0.03411c0.0372,0.02274,0.06718,0.05995,0.09096,0.11163
		c0.02274,0.05168,0.04135,0.11577,0.05582,0.19329c0.01344,0.07753,0.02068,0.17262,0.02068,0.28735
		c0,0.10337-0.00723,0.19329-0.02068,0.27082c-0.01447,0.07649-0.03308,0.13954-0.05582,0.18813
		c-0.02377,0.04961-0.05376,0.08476-0.09096,0.1075c-0.03722,0.02377-0.07857,0.03514-0.12404,0.03514h-4.34442v3.48546h3.7263
		c0.04547,0,0.08682,0.01344,0.12404,0.03928c0.0372,0.02584,0.06924,0.06099,0.09509,0.10647
		c0.02583,0.04651,0.04445,0.10957,0.05582,0.18916c0.01137,0.08062,0.01654,0.17469,0.01654,0.28322
		c0,0.10337-0.00517,0.19226-0.01654,0.26668c-0.01137,0.07442-0.02998,0.13438-0.05582,0.17986
		c-0.02585,0.04651-0.05789,0.07856-0.09509,0.09923c-0.03722,0.01964-0.07857,0.02998-0.12404,0.02998h-3.7263v3.97541h4.40437
		c0.04547,0,0.08786,0.01137,0.12506,0.03411c0.03722,0.02378,0.06926,0.05892,0.09821,0.1075
		c0.02895,0.04858,0.04858,0.11163,0.05995,0.18916S254.51366,61.18975,254.51366,61.30449z"/>
	<path class="st1" d="M262.53787,58.79789c0,0.52096-0.09613,0.98403-0.28735,1.39025
		c-0.19226,0.40726-0.45792,0.75146-0.79901,1.03468c-0.34009,0.28322-0.74112,0.49718-1.20215,0.63983
		c-0.45996,0.14368-0.95715,0.215-1.48947,0.215c-0.3721,0-0.71735-0.03204-1.03467-0.0951
		c-0.31735-0.06305-0.60056-0.13954-0.84967-0.23154c-0.24911-0.09096-0.45792-0.18606-0.62741-0.28322
		c-0.16849-0.09716-0.28633-0.17986-0.35146-0.24911c-0.06615-0.06822-0.11473-0.15608-0.14677-0.26151
		c-0.03101-0.10646-0.04652-0.24807-0.04652-0.42483c0-0.12611,0.00517-0.2305,0.01654-0.31423
		c0.01137-0.08269,0.02895-0.14988,0.05168-0.20156c0.02275-0.05169,0.05168-0.08683,0.0858-0.1075
		c0.03514-0.01964,0.07442-0.02998,0.12094-0.02998c0.07957,0,0.19328,0.04858,0.33904,0.14574
		c0.14575,0.0982,0.33282,0.20363,0.56229,0.31836c0.22845,0.11473,0.50546,0.2212,0.82901,0.32146
		c0.32248,0.10027,0.69666,0.15091,1.12045,0.15091c0.32043,0,0.61398-0.04341,0.87964-0.1292
		c0.26669-0.08579,0.49512-0.20776,0.68738-0.36488c0.19122-0.15711,0.33905-0.35041,0.44138-0.57988
		c0.10336-0.22844,0.15503-0.48891,0.15503-0.78144c0-0.31423-0.07132-0.58401-0.215-0.80728
		c-0.14264-0.22224-0.33179-0.41863-0.56644-0.58815c-0.23462-0.16848-0.50235-0.3225-0.80313-0.46307
		c-0.29977-0.14058-0.60779-0.28322-0.92307-0.42896c-0.31421-0.14678-0.62122-0.30803-0.91891-0.48581
		c-0.29767-0.17675-0.56332-0.38659-0.79797-0.62639c-0.23462-0.24084-0.4248-0.52303-0.57159-0.84552
		c-0.14575-0.32353-0.21809-0.71218-0.21809-1.16389c0-0.46411,0.08372-0.87756,0.25325-1.24038
		c0.16846-0.36384,0.40311-0.66877,0.70389-0.91478c0.30081-0.24601,0.65845-0.43413,1.07294-0.56231
		c0.41553-0.12921,0.8631-0.19329,1.34375-0.19329c0.246,0,0.49408,0.02171,0.74319,0.06408
		c0.24908,0.04342,0.48373,0.10027,0.70392,0.17159c0.22015,0.07235,0.41653,0.15194,0.58813,0.24084
		c0.17157,0.08889,0.28528,0.16022,0.33902,0.215c0.05481,0.05375,0.08994,0.09716,0.10751,0.12817
		c0.01758,0.03204,0.03101,0.07132,0.04343,0.1199c0.01135,0.04962,0.01962,0.1075,0.02582,0.17675
		c0.00519,0.06822,0.00827,0.15712,0.00827,0.26565c0,0.10337-0.00412,0.19536-0.01343,0.27495
		c-0.00827,0.08062-0.02066,0.14781-0.03824,0.20156c-0.01758,0.05478-0.04135,0.09509-0.07339,0.12093
		c-0.03101,0.02584-0.0672,0.03825-0.10648,0.03825c-0.06305,0-0.16226-0.04031-0.29666-0.1199
		c-0.13437-0.08062-0.29974-0.17055-0.49408-0.27081c-0.19431-0.10027-0.42484-0.19123-0.69046-0.27495
		c-0.26669-0.08269-0.5654-0.12404-0.89825-0.12404c-0.30905,0-0.57779,0.04135-0.80624,0.12404
		c-0.22946,0.08372-0.41861,0.19329-0.56747,0.33077c-0.14883,0.13747-0.26047,0.30079-0.3349,0.48891
		c-0.0744,0.18916-0.11163,0.38968-0.11163,0.60158c0,0.30906,0.07236,0.57574,0.215,0.79901
		c0.14264,0.22327,0.33386,0.42069,0.57059,0.59228c0.23773,0.17159,0.50854,0.3287,0.8114,0.47238
		c0.30389,0.14264,0.61295,0.28735,0.92822,0.4331c0.31424,0.14574,0.62329,0.30596,0.92719,0.48064
		c0.30286,0.17469,0.57367,0.38142,0.8114,0.61812c0.23773,0.23774,0.42896,0.51889,0.57471,0.84242
		C262.46552,57.97408,262.53787,58.35653,262.53787,58.79789z"/>
	<path class="st1" d="M271.31766,51.43832c0,0.10957-0.0062,0.20363-0.01758,0.28322
		c-0.01135,0.08063-0.02997,0.14471-0.05582,0.19329c-0.02582,0.04961-0.05682,0.08476-0.09406,0.1075
		c-0.0372,0.02274-0.07855,0.03411-0.12506,0.03411h-3.12473v9.63462c0,0.04548-0.01239,0.08579-0.03513,0.1199
		c-0.02277,0.03514-0.06305,0.06202-0.1199,0.08166c-0.05685,0.02067-0.13336,0.03721-0.22742,0.05168
		c-0.09406,0.01447-0.21292,0.02171-0.3566,0.02171c-0.13748,0-0.25427-0.00723-0.35144-0.02171
		c-0.09821-0.01447-0.17468-0.03101-0.23257-0.05168c-0.05685-0.01964-0.09717-0.04651-0.1199-0.08166
		c-0.02274-0.03411-0.03412-0.07442-0.03412-0.1199v-9.63462h-3.12573c-0.0455,0-0.08682-0.01137-0.12405-0.03411
		c-0.0372-0.02274-0.06821-0.05788-0.09094-0.1075c-0.02277-0.04858-0.04135-0.11267-0.05582-0.19329
		c-0.0145-0.07959-0.02069-0.17365-0.02069-0.28322c0-0.10853,0.0062-0.20466,0.02069-0.28735
		c0.01447-0.08269,0.03305-0.14988,0.05582-0.20156c0.02274-0.05168,0.05374-0.08889,0.09094-0.11163
		c0.03723-0.02274,0.07855-0.03411,0.12405-0.03411h7.72754c0.04651,0,0.08786,0.01137,0.12506,0.03411
		c0.03723,0.02274,0.06824,0.05995,0.09406,0.11163c0.02585,0.05168,0.04446,0.11887,0.05582,0.20156
		C271.31146,51.23366,271.31766,51.32979,271.31766,51.43832z"/>
	<path class="st1" d="M274.22427,61.69107c0,0.04548-0.01239,0.08579-0.03513,0.1199
		c-0.02277,0.03514-0.06305,0.06202-0.1199,0.08166c-0.05685,0.02067-0.13336,0.03721-0.22742,0.05168
		c-0.09406,0.01447-0.21292,0.02171-0.3566,0.02171c-0.13748,0-0.25427-0.00723-0.35144-0.02171
		c-0.09821-0.01447-0.17468-0.03101-0.23257-0.05168c-0.05685-0.01964-0.09717-0.04651-0.1199-0.08166
		c-0.02274-0.03411-0.03412-0.07442-0.03412-0.1199V51.02693c0-0.04651,0.01242-0.08579,0.03824-0.12093
		c0.02585-0.03411,0.06927-0.06099,0.12921-0.08166c0.05997-0.01964,0.13748-0.03721,0.23154-0.05065
		c0.09406-0.01447,0.20776-0.02171,0.33905-0.02171c0.14368,0,0.26254,0.00724,0.3566,0.02171
		c0.09406,0.01344,0.17056,0.03101,0.22742,0.05065c0.05685,0.02068,0.09714,0.04755,0.1199,0.08166
		c0.02274,0.03514,0.03513,0.07442,0.03513,0.12093V61.69107z"/>
	<path class="st1" d="M285.39905,61.30449c0,0.11473-0.01965,0.2119-0.05789,0.29252
		c-0.03824,0.07959-0.0889,0.14574-0.15091,0.19743c-0.06201,0.05169-0.13129,0.08889-0.2088,0.11164
		c-0.07648,0.02274-0.15402,0.03411-0.2305,0.03411h-0.48892c-0.15402,0-0.28839-0.0155-0.40311-0.04755
		c-0.11578-0.03101-0.22534-0.08889-0.3287-0.17159c-0.1044-0.08269-0.20776-0.19639-0.31113-0.33904
		c-0.10336-0.14265-0.21396-0.32663-0.32974-0.5499L279.5,54.51239c-0.17776-0.3256-0.3566-0.66774-0.53644-1.02538
		c-0.17987-0.35764-0.34732-0.70598-0.50235-1.04398h-0.01758c0.01135,0.41242,0.02066,0.83312,0.02585,1.26208
		c0.0062,0.43,0.00928,0.85586,0.00928,1.27966v6.7063c0,0.04031-0.01239,0.07856-0.03616,0.11577
		c-0.02481,0.03721-0.06512,0.06615-0.12302,0.08579c-0.05685,0.02067-0.13229,0.03721-0.22635,0.05168
		c-0.09305,0.01447-0.21295,0.02171-0.35767,0.02171c-0.14468,0-0.26459-0.00723-0.35764-0.02171
		c-0.09406-0.01447-0.16849-0.03101-0.22223-0.05168c-0.05478-0.01964-0.09406-0.04858-0.11783-0.08579
		c-0.02481-0.03721-0.03619-0.07545-0.03619-0.11577V51.43832c0-0.22844,0.06512-0.39175,0.19434-0.48891
		c0.13025-0.09716,0.27185-0.14574,0.42587-0.14574h0.72665c0.17157,0,0.31421,0.01447,0.42999,0.04238
		c0.11472,0.02894,0.21811,0.07649,0.31009,0.14161c0.09097,0.06615,0.17984,0.15815,0.26566,0.27495
		c0.08578,0.11784,0.17572,0.26461,0.26978,0.4424l2.60583,4.87675c0.16022,0.29769,0.31525,0.58815,0.46512,0.87136
		c0.14886,0.28425,0.29254,0.56334,0.43103,0.83725c0.13852,0.27495,0.27496,0.54576,0.41141,0.81141
		c0.13541,0.26668,0.26874,0.5344,0.40207,0.80314h0.00827c-0.01135-0.4517-0.01859-0.92305-0.0217-1.41196
		c-0.00208-0.48995-0.00412-0.96026-0.00412-1.41299v-6.0272c0-0.04031,0.01239-0.07752,0.03616-0.11163
		c0.02481-0.03514,0.06512-0.06512,0.12302-0.09096c0.05685-0.02584,0.13229-0.04445,0.22635-0.05582
		c0.09305-0.01137,0.21603-0.01654,0.36694-0.01654c0.13232,0,0.24707,0.00517,0.34421,0.01654
		c0.09613,0.01137,0.1716,0.02998,0.22638,0.05582c0.05478,0.02584,0.09406,0.05582,0.11783,0.09096
		c0.02377,0.03411,0.03619,0.07132,0.03619,0.11163V61.30449z"/>
	<path class="st1" d="M296.52316,52.31486c0,0.10853-0.00519,0.20466-0.01654,0.28735
		c-0.01138,0.08269-0.02896,0.15195-0.0517,0.2057c-0.02274,0.05478-0.05167,0.09303-0.08578,0.11577
		c-0.03412,0.02377-0.07236,0.03514-0.11163,0.03514c-0.06927,0-0.18399-0.05478-0.34421-0.16332
		c-0.16022-0.10853-0.37418-0.22947-0.64395-0.36074c-0.26877-0.13128-0.59024-0.25221-0.96545-0.36074
		c-0.37521-0.10853-0.81967-0.16331-1.33545-0.16331c-0.61194,0-1.16183,0.11163-1.64868,0.3349
		c-0.48685,0.22327-0.89822,0.53233-1.23624,0.92718c-0.33801,0.39589-0.59641,0.86517-0.77731,1.40886
		c-0.17984,0.5437-0.26978,1.13288-0.26978,1.76857c0,0.71011,0.09821,1.33961,0.29562,1.88951
		c0.19742,0.54887,0.47134,1.01297,0.81967,1.39025c0.3494,0.37831,0.76596,0.66463,1.24969,0.85896
		c0.48373,0.19433,1.01505,0.29149,1.59283,0.29149c0.3432,0,0.69153-0.04134,1.04297-0.12403
		c0.35248-0.0827,0.68015-0.20776,0.98404-0.37315v-3.23738h-2.5769c-0.09714,0-0.16949-0.04858-0.21808-0.14574
		c-0.04962-0.09716-0.07339-0.24911-0.07339-0.45584c0-0.10854,0.00516-0.20156,0.01758-0.27909
		c0.01135-0.07649,0.02997-0.13954,0.05582-0.18812c0.02582-0.04858,0.05582-0.08476,0.0899-0.1075
		c0.03412-0.02274,0.07755-0.03411,0.12817-0.03411h3.52991c0.06305,0,0.12509,0.01137,0.18814,0.03411
		c0.06305,0.02274,0.12094,0.05685,0.17261,0.10336c0.05066,0.04548,0.09097,0.10853,0.1199,0.18812
		c0.02792,0.08063,0.04239,0.17159,0.04239,0.27495v4.23278c0,0.14988-0.02585,0.27805-0.07651,0.38659
		c-0.05167,0.10957-0.16022,0.20466-0.32663,0.28839c-0.16641,0.08269-0.38037,0.17262-0.64395,0.26978
		c-0.26358,0.09716-0.53543,0.18089-0.81555,0.24911c-0.28116,0.06926-0.56436,0.1199-0.85068,0.15505
		c-0.28635,0.03411-0.56955,0.05168-0.84967,0.05168c-0.85895,0-1.62592-0.13334-2.3009-0.40002
		c-0.67599-0.26565-1.24658-0.645-1.71378-1.13701c-0.46619-0.49305-0.82278-1.08223-1.06879-1.7696
		c-0.24603-0.68634-0.36902-1.45331-0.36902-2.3009c0-0.8817,0.13333-1.67968,0.39899-2.39599
		c0.26666-0.71529,0.64087-1.32514,1.1246-1.82852c0.48373-0.50339,1.0657-0.89411,1.74377-1.17216s1.42953-0.41656,2.25333-0.41656
		c0.4238,0,0.82178,0.03721,1.19388,0.11164c0.3721,0.07442,0.70288,0.16228,0.99231,0.26151
		c0.28839,0.10026,0.53232,0.20983,0.72974,0.32663c0.19745,0.11784,0.33286,0.21397,0.40726,0.28735
		c0.07443,0.07442,0.1261,0.16125,0.15506,0.25841C296.50867,51.99133,296.52316,52.1319,296.52316,52.31486z"/>
</g>
<polygon class="st2" points="45.37991,27.5979 57.18995,34.55935 43.52425,35.64913 45.44501,49.22299 36.07256,39.21819 
	26.65767,49.18306 28.63611,35.61749 14.97517,34.46962 26.8147,27.55844 19.19468,16.1622 31.97989,21.10966 36.13881,8.04665 
	40.24218,21.12723 53.0483,16.23416 "/>
<path class="st2" d="M36.0828,68.24875c-17.73681,0-32.16699-14.42969-32.16699-32.16602
	c0-17.73682,14.43018-32.16699,32.16699-32.16699s32.1665,14.43017,32.1665,32.16699
	C68.24931,53.81906,53.81962,68.24875,36.0828,68.24875z M36.0828,4.91574c-17.18554,0-31.16699,13.98144-31.16699,31.16699
	c0,17.18457,13.98145,31.16602,31.16699,31.16602c17.18506,0,31.1665-13.98145,31.1665-31.16602
	C67.24931,18.89718,53.26786,4.91574,36.0828,4.91574z"/>
</svg>
