<?xml version="1.0" encoding="utf-8"?>
<!-- Generator: Adobe Illustrator 17.0.1, SVG Export Plug-In . SVG Version: 6.00 Build 0)  -->
<!DOCTYPE svg PUBLIC "-//W3C//DTD SVG 1.1//EN" "http://www.w3.org/Graphics/SVG/1.1/DTD/svg11.dtd">
<svg version="1.1" id="Layer_1" xmlns="http://www.w3.org/2000/svg" xmlns:xlink="http://www.w3.org/1999/xlink" x="0px" y="0px"
	 width="100px" height="37px" viewBox="0 0 100 37" enable-background="new 0 0 100 37" xml:space="preserve">
<g>
	<path fill="#FEFEFE" d="M0.525,36.256h4.733V22.543H0.525V36.256z M0.404,19.13c0-0.71,0.198-1.24,0.593-1.586
		s1.033-0.52,1.913-0.52c0.879,0,1.52,0.177,1.924,0.532c0.403,0.355,0.605,0.88,0.605,1.574c0,1.387-0.843,2.081-2.53,2.081
		C1.239,21.211,0.404,20.517,0.404,19.13z M16.125,22.228c-1.138,0-2.026,0.466-2.663,1.398c-0.637,0.933-0.956,2.217-0.956,3.855
		c0,3.406,1.295,5.108,3.885,5.108c0.783,0,1.541-0.109,2.276-0.327c0.734-0.218,1.472-0.48,2.215-0.787v4.043
		c-1.477,0.653-3.147,0.98-5.011,0.98c-2.671,0-4.719-0.774-6.143-2.324c-1.424-1.549-2.136-3.788-2.136-6.717
		c0-1.832,0.345-3.441,1.035-4.83c0.69-1.387,1.682-2.454,2.977-3.2c1.295-0.747,2.818-1.12,4.57-1.12
		c1.912,0,3.74,0.415,5.482,1.246l-1.464,3.764c-0.637-0.299-1.292-0.558-1.961-0.774C17.55,22.329,16.839,22.223,16.125,22.228
		 M28.892,33.158c0.573,0,1.063-0.182,1.47-0.545c0.408-0.363,0.612-0.835,0.612-1.416v-1.065l-1.09,0.048
		c-1.556,0.057-2.335,0.63-2.335,1.719C27.549,32.739,27.997,33.158,28.892,33.158z M32.402,36.256l-0.908-1.815h-0.096
		c-0.638,0.79-1.288,1.331-1.949,1.621c-0.662,0.291-1.517,0.436-2.566,0.436c-1.291,0-2.308-0.387-3.05-1.162
		c-0.743-0.774-1.114-1.864-1.114-3.268c0-1.46,0.509-2.547,1.525-3.261c1.017-0.714,2.49-1.116,4.418-1.205l2.288-0.073v-0.193
		c0-1.13-0.557-1.695-1.67-1.695c-1,0-2.272,0.34-3.813,1.017l-1.368-3.123c1.598-0.823,3.615-1.234,6.052-1.234
		c1.76,0,3.12,0.435,4.085,1.307c0.964,0.871,1.446,2.09,1.446,3.655v8.993C35.682,36.256,32.402,36.256,32.402,36.256z
		 M46.586,22.3c0.411,0,0.803,0.033,1.174,0.097l0.267,0.049l-0.424,4.466c-0.388-0.097-0.925-0.145-1.61-0.145
		c-1.033,0-1.784,0.236-2.251,0.709c-0.468,0.471-0.702,1.15-0.702,2.039v6.741h-4.733V22.543h3.522l0.738,2.19h0.23
		c0.39-0.72,0.959-1.326,1.653-1.76C45.156,22.525,45.867,22.301,46.586,22.3 M58.615,29.018l-0.763-2.904
		c-0.177-0.646-0.393-1.481-0.647-2.506c-0.188-0.729-0.355-1.464-0.502-2.203c-0.073,0.411-0.216,1.09-0.43,2.033
		c-0.214,0.945-0.688,2.804-1.422,5.58H58.615z M60.479,36.256l-0.872-3.316h-5.749l-0.895,3.316H47.71l5.773-17.768h6.379
		l5.845,17.768L60.479,36.256L60.479,36.256z M77.337,32.044c0,1.47-0.5,2.578-1.5,3.328c-1.001,0.751-2.438,1.126-4.31,1.126
		c-1.016,0-1.9-0.054-2.65-0.163c-0.75-0.109-1.517-0.309-2.3-0.6v-3.788c0.734,0.323,1.54,0.59,2.415,0.799
		c0.876,0.21,1.656,0.315,2.342,0.315c1.025,0,1.537-0.234,1.537-0.702c0-0.242-0.143-0.458-0.43-0.647
		c-0.286-0.19-1.12-0.56-2.499-1.108c-1.259-0.516-2.138-1.103-2.639-1.761c-0.5-0.658-0.75-1.49-0.75-2.5
		c0-1.275,0.492-2.267,1.477-2.977c0.984-0.71,2.376-1.065,4.175-1.065c0.904,0,1.753,0.099,2.548,0.297
		c0.795,0.197,1.62,0.485,2.475,0.865l-1.283,3.05c-0.647-0.289-1.315-0.529-1.997-0.72c-0.702-0.198-1.275-0.297-1.719-0.297
		c-0.774,0-1.161,0.19-1.161,0.569c0,0.234,0.135,0.434,0.405,0.6c0.27,0.165,1.05,0.501,2.342,1.01
		c0.96,0.395,1.677,0.782,2.149,1.162c0.471,0.38,0.818,0.825,1.04,1.338c0.222,0.512,0.333,1.135,0.333,1.87 M79.393,36.256h4.733
		V22.543h-4.733V36.256z M79.273,19.13c0-0.71,0.197-1.24,0.592-1.586c0.396-0.346,1.033-0.52,1.913-0.52
		c0.88,0,1.52,0.177,1.924,0.532c0.404,0.355,0.605,0.88,0.605,1.574c0,1.387-0.843,2.081-2.53,2.081
		C80.107,21.211,79.272,20.517,79.273,19.13L79.273,19.13z M92.27,33.158c0.572,0,1.063-0.182,1.47-0.545s0.611-0.835,0.611-1.416
		v-1.065l-1.09,0.048c-1.556,0.057-2.335,0.63-2.335,1.719C90.926,32.739,91.374,33.158,92.27,33.158L92.27,33.158z M95.78,36.256
		l-0.909-1.815h-0.096c-0.638,0.79-1.287,1.331-1.949,1.621c-0.662,0.291-1.517,0.436-2.566,0.436c-1.291,0-2.308-0.387-3.05-1.162
		c-0.742-0.774-1.113-1.864-1.113-3.268c0-1.46,0.508-2.547,1.524-3.261c1.017-0.714,2.49-1.116,4.419-1.205l2.287-0.073v-0.193
		c0-1.13-0.557-1.695-1.67-1.695c-1,0-2.272,0.34-3.813,1.017l-1.368-3.123c1.598-0.823,3.616-1.234,6.052-1.234
		c1.76,0,3.121,0.435,4.085,1.307c0.964,0.871,1.446,2.09,1.446,3.655v8.993L95.78,36.256L95.78,36.256z M-0.031,15.51
		c0,0,10.399-9.45,32.136-7.73c0,0,12.554-7.47,19.43-7.276c0,0,38.812,1.062,48.335,15.006c0,0-26.588-7.34-39.2-3.735
		c0,0,8.202-4.938,24.328-2.585c0,0-11.78-5.989-35.554-6.687c0,0-8.207,0.82-16.039,7.426C33.294,10.023,17.063,6.849-0.031,15.51"
		/>
</g>
</svg>
