<?xml version="1.0" encoding="utf-8"?>
<!-- Generator: Adobe Illustrator 19.0.0, SVG Export Plug-In . SVG Version: 6.00 Build 0)  -->
<svg version="1.1" id="Layer_1" xmlns="http://www.w3.org/2000/svg" xmlns:xlink="http://www.w3.org/1999/xlink" x="0px" y="0px"
	 viewBox="0 0 595.3 156" style="enable-background:new 0 0 595.3 156;" xml:space="preserve">
<style type="text/css">
	.st0{fill:#FFC627;}
	.st1{fill:#0D2240;}
	.st2{fill-rule:evenodd;clip-rule:evenodd;fill:#0D2240;}
</style>
<g>
	<polygon class="st0" points="263.3,4.1 234.7,4.1 233.8,7.8 242.1,7.8 231.9,15.1 228.4,29.1 263.3,4.1 	"/>
	<polygon class="st1" points="155.7,4 184.2,4 159,104.7 130.5,104.7 155.7,4 	"/>
	<polygon class="st1" points="195.3,4 223.8,4 198.6,104.7 170.1,104.7 195.3,4 	"/>
	<polygon class="st1" points="228.3,29.5 257,29.5 238.3,104.7 209.7,104.7 228.3,29.5 	"/>
	<path class="st1" d="M506.6,53.8c-3.4-1.5-6.7-2.6-10-3.3c-3.2-0.7-6.1-1-8.7-1c-6.4,0-11.7,1.8-15.7,5.4
		c-11.8,9.9-8.3,21.3-5.4,24.8c2.6,3.8,10.2,8.3,23.6,4.1c3-0.9,6.2-2.1,9.5-3.6l-9.4,23.3c-10.1,3.6-20.9,3.6-22.3,3.6
		c-10.6,0-19.3-3.2-26.2-9.5c-6.9-6.3-8.5-17-4.7-32c2.6-10.4,7.8-19.4,15.6-26.9c7.8-7.6,19-11.4,33.7-11.4c3.5,0,7.2,0.3,11.1,0.8
		c4,0.4,8.2,1.2,12.5,2.3L506.6,53.8L506.6,53.8z"/>
	<path class="st1" d="M377.8,40.7c3-3.4,7.3-6.3,12.9-8.7c5.5-2.5,16.2-5.3,23.2-5.2c6.7,0,12.4,1.7,17,5.2c4.6,3.4,6,9.1,4.2,17.1
		l-13.9,55.5h-28.6l9.8-39.2c1.1-4.6,0.8-8.1-1.1-10.6c-1.8-2.5-8.1-8.4-20.5,2.3c-3.5,3.2-6.2,7.7-8,13.6l-8.5,34h-28.6l18.6-74.4
		h26L377.8,40.7L377.8,40.7z"/>
	<path class="st1" d="M273.6,33.7c7.7-1.7,14.6-3,20.7-3.8c6.2-0.9,11.6-1.3,16.3-1.3c11.4,0,19.3,2,23.5,5.9
		c4.2,3.9,5.9,8.4,4.9,13.5l-14.2,56.6h-28.7l8.2-33c-1.4,0.9-2.9,1.6-4.5,2.3c-1.6,0.5-12.7,3.9-14.9,4.7
		c-8.9,4.3-5.9,9.1-4.7,10.5c3.8,3.8,13.6,0.3,13.8,0.3l-7.5,16.3c-0.5,0-9.8,0.7-10.8,0.7c-10.8,0-18.1-2-21.9-5.9
		c-8.6-7.6-7.2-30.5,20.9-37.7c3.5-1,6.9-1.9,10.3-2.6c3.3-0.8,6.4-1.5,9.2-2.3c3.6-0.9,6.6-1.8,9-2.8c7.3-3.6,6.4-9.8-6.4-9.8
		c-3,0-7,0.5-12,1.6c-4.9,1-11.1,2.9-18.4,5.7L273.6,33.7L273.6,33.7z"/>
	<path class="st1" d="M336.9,149.4c3.6-12.8,6.2-21.1,9.1-29.5H339c-3.2,11.8-6.1,20.6-9.1,29.5H336.9L336.9,149.4z"/>
	<path class="st1" d="M374.7,135.9c4.9-0.9,9.1-3.5,10.5-8.7c1.5-5.5-2.5-7.3-7.6-7.3h-13.3c-2.7,9.9-5.6,19.7-9.2,29.5h6.7
		c1.2-4.4,6.2-21.1,7.4-25c1.6-0.1,3.2-0.2,4.8-0.2c2.7,0,5.7,0.4,4.8,3.9c-1,3.8-4.6,5.3-8,5.3c-0.9,0-1.7-0.1-2.6-0.3
		c1.2,5.4,2.6,10.7,3.2,16.3h7.1L374.7,135.9L374.7,135.9z"/>
	<path class="st1" d="M417.1,144.6c-2.8,0.1-5.7,0.1-8.5,0.1h-5.4c1.7-5.7,7-22.2,7.9-24.8h-6.9c-2.8,9.9-5.8,19.7-9.4,29.5h20.7
		L417.1,144.6L417.1,144.6z"/>
	<path class="st1" d="M437.2,149.4c3.6-12.8,6.2-21.1,9.1-29.5h-6.9c-3.2,11.8-6.1,20.6-9.1,29.5H437.2L437.2,149.4z"/>
	<path class="st1" d="M476.1,149.4h7.8c2.8-9.8,6-19.9,9.4-29.5h-6.1c-2.1,7.4-4.6,15.4-6.8,22.3h-0.1c-2.3-7.5-5.3-14.7-7.6-22.3
		h-8.1c-2.8,9.9-5.8,19.7-9.3,29.5h6.2c2.2-7.7,4.8-16,6.5-22h0.2L476.1,149.4L476.1,149.4z"/>
	<path class="st1" d="M511.6,119.9c-1.6,6-6.8,23.5-9.3,29.5h21.6l1.6-5c-3.8,0.3-5.2,0.3-6.3,0.3h-8.7l2.5-8.1h13l1.5-4.5
		c-2.4,0-4.3,0.2-5.9,0.2h-7.1l2.4-7.7h7.2c2.5,0,5,0,7.5,0.2l1.5-4.9H511.6L511.6,119.9z"/>
	<path class="st1" d="M566.9,120.2c-2.2-0.5-4.4-0.8-6.8-0.8c-5.2,0-10.8,2.3-12.2,7.5c-1.9,7.3,8.6,10.4,7.4,15
		c-0.7,2.5-3.6,3.3-5.7,3.3c-2.7,0-5.1-0.8-7.3-1.9l-1,5.4c2.6,0.6,5.2,1.2,8,1.2c8.2,0,11.7-4.7,12.6-8c1.9-7-8.7-10-7.5-14.6
		c0.5-1.9,2.9-3.3,5.7-3.3c2.1,0,4,0.6,5.8,1.3L566.9,120.2L566.9,120.2z"/>
	<path class="st2" d="M67.9,54.9h23.5L88,26.4L67.9,54.9L67.9,54.9z M74.8,4l51,0l-11,12l14.3,88.8H95.8l-3.3-29.4H57.2l-20.9,29.4
		H3.2L74.8,4L74.8,4z"/>
	<path class="st2" d="M300.4,134.4l7.5-9.9l0.8,9.9H300.4L300.4,134.4z M308.6,139.1c0.4,3.3,0.7,6.8,0.7,10.3h7.1
		c-1.1-9.8-2.2-19.7-2.8-29.5h-8c-7.6,9.9-15.4,19.8-23.3,29.5h7.3c2.5-3.5,5.1-7,7.7-10.3H308.6L308.6,139.1z"/>
	<path class="st2" d="M562.3,57.6c1.2-4.7,0.7-8.2-1.4-10.1c-2-2-4.8-2.9-8.2-2.9c-3,0-6.1,1.1-9.2,3.4c-3.1,2.3-5.1,5.5-6.2,9.6
		L562.3,57.6L562.3,57.6z M559.2,27.5c10.8-0.4,22.1,3.8,26.6,11.1c4.5,7.2,5.6,15.3,3.3,24.5c-0.4,1.4-2.4,7.3-3,8.8l-53.7-0.2
		c0.2,5.2,1.9,9.3,5.1,12.1c3.2,2.7,7.9,4.1,13.8,4.1c3.5,0,7.4-0.5,11.8-1.5c4.5-1,9.3-2.3,14.4-3.9l-7.7,21.1
		c-5.3,1.3-10.4,2.3-15.1,2.9c-4.7,0.8-9,1.1-13,1.1c-15.5,0-26-4.1-31.7-12.4c-6.6-9.3-13.5-31.8,13.2-55.3
		C536.7,28.2,549.1,27.9,559.2,27.5L559.2,27.5z"/>
</g>
</svg>
