<?xml version="1.0" encoding="utf-8"?>
<!-- Generator: Adobe Illustrator 21.0.2, SVG Export Plug-In . SVG Version: 6.00 Build 0)  -->
<svg version="1.1" id="Layer_1" xmlns="http://www.w3.org/2000/svg" xmlns:xlink="http://www.w3.org/1999/xlink" x="0px" y="0px"
	 viewBox="0 0 97 86" style="enable-background:new 0 0 97 86;" xml:space="preserve">
<style type="text/css">
	.st0{fill:#86806E;}
	.st1{fill:url(#SVGID_1_);}
</style>
<g>
	<g>
		<path class="st0" d="M8.3,82.6v3.2H7.5v-6.9h2.4c1.2,0,1.7,0.9,1.7,1.7c0,0.8-0.5,1.4-1.3,1.6v0c0.8,0.1,1.1,0.4,1.1,1.8
			c0,0.3,0.1,1.4,0.2,1.8h-0.9c-0.3-0.5-0.2-1.4-0.3-2.3c-0.1-0.8-0.8-0.9-1-0.9L8.3,82.6L8.3,82.6z M8.3,81.9h1.3
			c0.6,0,0.9-0.5,0.9-1.1c0-0.5-0.3-1.1-0.9-1.1H8.3L8.3,81.9L8.3,81.9z"/>
		<path class="st0" d="M17.3,85.8v-6.9h3.6v0.8h-2.7v2.2h2.5v0.8h-2.5V85h2.7v0.8L17.3,85.8L17.3,85.8z"/>
		<path class="st0" d="M27.3,83.8V84c0,0.9,0.6,1.2,1.2,1.2c0.7,0,1.2-0.3,1.2-1.1c0-1.5-3.1-1.4-3.1-3.4c0-1.2,0.9-1.9,2-1.9
			c1.3,0,2,0.6,1.9,2h-0.9c0-0.8-0.2-1.2-1.1-1.2c-0.5,0-1.1,0.3-1.1,1c0,1.5,3.1,1.3,3.1,3.5c0,1.4-1,1.9-2.1,1.9c-2,0-2-1.5-2-2.2
			H27.3z"/>
		<path class="st0" d="M36.4,83.3V81c0-1.4,0.7-2.3,2.2-2.3c1.5,0,2.2,0.9,2.2,2.3v2.3c0,1.9-0.7,2.7-2.2,2.7
			C37.1,86,36.4,85.2,36.4,83.3z M39.8,83.3V81c0-1.4-1-1.5-1.3-1.5c-0.3,0-1.3,0-1.3,1.5v2.3c0,1.5,0.4,1.9,1.3,1.9
			C39.4,85.2,39.8,84.8,39.8,83.3z"/>
		<path class="st0" d="M46.8,78.9h0.9v4.4c0,1.5,0.5,1.9,1.3,1.9c0.8,0,1.3-0.4,1.3-1.9v-4.4h0.9v4.4c0,1.9-0.7,2.7-2.2,2.7
			c-1.5,0-2.2-0.8-2.2-2.7V78.9z"/>
		<path class="st0" d="M58,82.6v3.2h-0.9v-6.9h2.4c1.2,0,1.7,0.9,1.7,1.7c0,0.8-0.5,1.4-1.3,1.6v0c0.8,0.1,1.1,0.4,1.1,1.8
			c0,0.3,0.1,1.4,0.2,1.8h-0.9c-0.3-0.5-0.2-1.4-0.3-2.3c-0.1-0.8-0.8-0.9-1-0.9L58,82.6L58,82.6z M58,81.9h1.3
			c0.6,0,0.9-0.5,0.9-1.1c0-0.5-0.3-1.1-0.9-1.1H58L58,81.9L58,81.9z"/>
		<path class="st0" d="M70,80.8c0-0.4,0-0.8-0.2-1c-0.2-0.2-0.6-0.3-0.8-0.3c-0.7,0-1,0.4-1,0.5c0,0.1-0.2,0.3-0.2,1.4v1.9
			c0,1.7,0.6,1.9,1.2,1.9c0.3,0,1.1-0.1,1.1-1.4H71c0,2.2-1.5,2.2-1.9,2.2c-0.9,0-2.2-0.1-2.2-2.7v-1.9c0-2,0.9-2.5,2.2-2.5
			s1.9,0.7,1.8,2L70,80.8L70,80.8z"/>
		<path class="st0" d="M76.8,85.8v-6.9h3.6v0.8h-2.7v2.2h2.5v0.8h-2.5V85h2.7v0.8L76.8,85.8L76.8,85.8z"/>
		<path class="st0" d="M86.4,83.8V84c0,0.9,0.6,1.2,1.2,1.2c0.7,0,1.2-0.3,1.2-1.1c0-1.5-3.1-1.4-3.1-3.4c0-1.2,0.9-1.9,2-1.9
			c1.3,0,2,0.6,1.9,2h-0.9c0-0.8-0.2-1.2-1.1-1.2c-0.5,0-1.1,0.3-1.1,1c0,1.5,3.1,1.3,3.1,3.5c0,1.4-1,1.9-2.1,1.9c-2,0-2-1.5-2-2.2
			H86.4z"/>
	</g>
	<g>
		<path class="st0" d="M3.4,65.9c-0.2,2.3-0.3,4.6-0.5,6.9c-0.2,0-0.5-0.1-0.7-0.1s-0.5,0-0.7,0c-0.2,0-0.5,0-0.7,0s-0.5,0-0.7,0.1
			c0.7-3.6,1.2-7.1,1.8-10.6c0.5-3.5,1-7.1,1.4-10.7c0.2,0,0.4,0.1,0.6,0.1s0.4,0,0.6,0c0.2,0,0.4,0,0.6,0c0.2,0,0.4-0.1,0.6-0.1
			c0.6,1.2,1.1,2.5,1.7,3.8c0.6,1.3,1.2,2.5,1.8,3.8c0.6,1.3,1.2,2.5,1.8,3.7c0.6,1.2,1.2,2.4,1.7,3.5c1.2-2.3,2.5-4.7,3.7-7.3
			c1.2-2.5,2.4-5,3.5-7.5c0.5,0.1,1,0.2,1.3,0.2c0.3,0,0.8,0,1.3-0.2c0.2,1.8,0.4,3.7,0.7,5.7c0.2,2,0.5,4,0.7,6
			c0.2,1.9,0.5,3.8,0.7,5.4c0.2,1.7,0.4,3.1,0.6,4.1c-0.4,0-0.8-0.1-1.2-0.1c-0.4,0-0.8,0-1.2,0c-0.4,0-0.8,0-1.3,0s-0.9,0-1.3,0.1
			c-0.1-2.1-0.3-4.4-0.5-6.9c-0.2-2.5-0.5-4.9-0.7-7.4H19c-1.2,2.4-2.3,4.8-3.5,7.2c-1.1,2.3-2.3,4.7-3.4,7.1c-0.1,0-0.2,0-0.3,0
			c-0.1,0-0.2,0-0.3,0s-0.2,0-0.3,0c-0.1,0-0.2,0-0.3,0c-1.1-2.3-2.2-4.6-3.3-6.9c-1.1-2.3-2.2-4.7-3.4-7H4.1
			C3.8,61.3,3.6,63.6,3.4,65.9z"/>
		<path class="st0" d="M47.1,72.9c-0.5,0-1-0.1-1.4-0.1c-0.5,0-0.9,0-1.3,0s-0.9,0-1.3,0c-0.5,0-0.9,0-1.3,0.1c-0.3-1-0.7-2-1-3.1
			s-0.7-2.1-1.1-3.1c-0.7,0-1.3,0-2,0s-1.3,0-2,0c-0.5,0-1.1,0-1.6,0c-0.5,0-1.1,0-1.6,0c-0.4,1.1-0.8,2.1-1.1,3.1
			c-0.3,1.1-0.7,2.1-1,3.1c-0.2,0-0.5-0.1-0.7-0.1c-0.2,0-0.5,0-0.7,0c-0.2,0-0.5,0-0.7,0s-0.5,0-0.8,0.1c0.2-0.5,0.6-1.3,1-2.2
			c0.4-0.9,0.9-2,1.4-3.2c0.5-1.2,1-2.5,1.6-3.9c0.6-1.4,1.1-2.8,1.7-4.2c0.6-1.4,1.1-2.8,1.7-4.1c0.5-1.4,1.1-2.6,1.5-3.8
			c0.2,0,0.4,0.1,0.6,0.1c0.2,0,0.4,0,0.6,0c0.2,0,0.4,0,0.6,0c0.2,0,0.4-0.1,0.6-0.1c0.7,1.7,1.4,3.6,2.1,5.6c0.8,2,1.5,4,2.3,5.9
			c0.8,1.9,1.5,3.7,2.2,5.5C45.8,70.2,46.5,71.7,47.1,72.9z M36.1,57.4c-0.5,1.2-1,2.5-1.5,3.7c-0.5,1.2-0.9,2.4-1.4,3.7h5.7
			c-0.5-1.2-0.9-2.5-1.3-3.7C37.1,59.9,36.6,58.7,36.1,57.4z"/>
		<path class="st0" d="M51.5,55c0-0.5,0-0.9-0.1-1.1c-0.3,0-0.7,0-1.1,0c-0.5,0-0.9,0-1.5,0.1c-0.5,0-1,0.1-1.6,0.1
			c-0.5,0-1,0.1-1.5,0.2c0-0.2,0.1-0.5,0.1-0.7c0-0.2,0-0.5,0-0.7c0-0.2,0-0.5,0-0.7s-0.1-0.5-0.1-0.7c0.7,0,1.3,0,1.9,0.1
			c0.6,0,1.1,0,1.7,0s1.2,0,1.9,0c0.7,0,1.5,0,2.5,0s1.8,0,2.5,0c0.7,0,1.3,0,1.9,0c0.6,0,1.1,0,1.7,0s1.1,0,1.8-0.1
			c0,0.2-0.1,0.5-0.1,0.7s0,0.5,0,0.7c0,0.2,0,0.5,0,0.7c0,0.2,0.1,0.5,0.1,0.7c-0.4-0.1-0.9-0.1-1.4-0.2c-0.5,0-1-0.1-1.5-0.1
			c-0.5,0-1-0.1-1.4-0.1c-0.5,0-0.8,0-1.1,0c0,0.1,0,0.2,0,0.4c0,0.2,0,0.4,0,0.6v1.6v7.7c0,1.7,0,3.2,0.1,4.6
			c0,1.3,0.1,2.6,0.2,3.9c-0.3,0-0.7-0.1-1.1-0.1c-0.4,0-0.9,0-1.4,0s-1,0-1.4,0c-0.4,0-0.8,0-1.1,0.1c0.1-1.3,0.2-2.6,0.2-3.9
			c0-1.3,0.1-2.8,0.1-4.6v-7.7C51.5,56,51.5,55.5,51.5,55z"/>
		<path class="st0" d="M70.2,53.1c-0.9,0-1.7,0.3-2.3,0.8S67,55.2,67,55.9c0,0.8,0.2,1.4,0.7,1.9c0.5,0.5,1.1,0.9,1.7,1.3
			c0.7,0.4,1.4,0.8,2.3,1.1c0.8,0.4,1.6,0.8,2.3,1.3c0.7,0.5,1.3,1.2,1.7,1.9c0.5,0.8,0.7,1.7,0.7,2.9c0,1-0.2,2-0.6,2.8
			c-0.4,0.9-0.9,1.6-1.7,2.2c-0.7,0.6-1.6,1.1-2.6,1.4c-1,0.3-2.1,0.5-3.4,0.5c-1.1,0-2.1-0.1-3-0.4s-1.6-0.5-2-0.9
			c0.2-0.7,0.4-1.4,0.5-2c0.2-0.6,0.3-1.2,0.4-1.9h0.6c0.1,0.5,0.2,0.9,0.5,1.3c0.2,0.4,0.5,0.8,0.9,1.1c0.3,0.3,0.8,0.6,1.3,0.7
			c0.5,0.2,1.1,0.3,1.7,0.3c1.2,0,2.2-0.3,2.7-0.9c0.6-0.6,0.9-1.4,0.9-2.2c0-0.8-0.2-1.4-0.7-1.9c-0.5-0.5-1-0.9-1.7-1.3
			c-0.7-0.4-1.4-0.8-2.2-1.1c-0.8-0.4-1.6-0.8-2.2-1.3c-0.7-0.5-1.2-1.1-1.7-1.9c-0.5-0.8-0.7-1.7-0.7-2.9c0-1.1,0.2-2,0.6-2.8
			c0.4-0.8,0.9-1.5,1.5-2.1c0.6-0.6,1.4-1,2.2-1.3c0.8-0.3,1.7-0.4,2.6-0.4c1.1,0,2.1,0.1,2.9,0.4c0.8,0.3,1.6,0.6,2.2,1.1
			c-0.2,0.5-0.3,0.9-0.5,1.4s-0.3,1-0.5,1.7h-0.5C73.3,54,72.1,53.1,70.2,53.1z"/>
		<path class="st0" d="M97,72.9c-0.5,0-1-0.1-1.4-0.1c-0.5,0-0.9,0-1.3,0c-0.4,0-0.9,0-1.3,0c-0.5,0-0.9,0-1.3,0.1
			c-0.3-1-0.7-2-1-3.1s-0.7-2.1-1.1-3.1c-0.7,0-1.3,0-2,0c-0.7,0-1.3,0-2,0c-0.5,0-1.1,0-1.6,0c-0.5,0-1.1,0-1.6,0
			c-0.4,1.1-0.8,2.1-1.1,3.1c-0.3,1.1-0.7,2.1-1,3.1c-0.2,0-0.5-0.1-0.7-0.1c-0.2,0-0.5,0-0.7,0c-0.3,0-0.5,0-0.7,0s-0.5,0-0.8,0.1
			c0.2-0.5,0.6-1.3,1-2.2c0.4-0.9,0.9-2,1.4-3.2c0.5-1.2,1-2.5,1.6-3.9c0.6-1.4,1.1-2.8,1.7-4.2c0.6-1.4,1.1-2.8,1.7-4.1
			c0.5-1.4,1.1-2.6,1.5-3.8c0.2,0,0.4,0.1,0.6,0.1c0.2,0,0.4,0,0.6,0c0.2,0,0.4,0,0.6,0c0.2,0,0.4-0.1,0.6-0.1
			c0.7,1.7,1.4,3.6,2.1,5.6c0.8,2,1.5,4,2.3,5.9c0.8,1.9,1.5,3.7,2.2,5.5C95.7,70.2,96.4,71.7,97,72.9z M86,57.4
			c-0.5,1.2-1,2.5-1.5,3.7c-0.5,1.2-0.9,2.4-1.4,3.7h5.7c-0.5-1.2-0.9-2.5-1.3-3.7C87,59.9,86.5,58.7,86,57.4z"/>
	</g>
</g>
<linearGradient id="SVGID_1_" gradientUnits="userSpaceOnUse" x1="31.6267" y1="589.4696" x2="65.7028" y2="574.6529" gradientTransform="matrix(1 0 0 -1 0 602)">
	<stop  offset="0" style="stop-color:#A64F25"/>
	<stop  offset="4.160510e-02" style="stop-color:#A75128"/>
	<stop  offset="7.872158e-02" style="stop-color:#AD5A33"/>
	<stop  offset="0.1141" style="stop-color:#B56A46"/>
	<stop  offset="0.1485" style="stop-color:#BF805F"/>
	<stop  offset="0.1818" style="stop-color:#CC9B7F"/>
	<stop  offset="0.21" style="stop-color:#DBB8A1"/>
	<stop  offset="0.2163" style="stop-color:#D9B49C"/>
	<stop  offset="0.2671" style="stop-color:#CB997D"/>
	<stop  offset="0.3242" style="stop-color:#C18162"/>
	<stop  offset="0.3884" style="stop-color:#B66F4B"/>
	<stop  offset="0.4628" style="stop-color:#AF613A"/>
	<stop  offset="0.5537" style="stop-color:#AB562D"/>
	<stop  offset="0.6789" style="stop-color:#A75127"/>
	<stop  offset="1" style="stop-color:#A64F25"/>
</linearGradient>
<path class="st1" d="M67.6,17.4l-7.1-7.1l-6.4,15.5h-3.3L58.1,8l-7-7c-1.4-1.4-3.6-1.4-4.9,0L29.7,17.5c-1.4,1.4-1.4,3.6,0,4.9l7,7
	l6.4-15.5h3.3l-7.4,17.9l7.1,7.1c1.4,1.4,3.6,1.4,4.9,0l16.5-16.5C69,21,69,18.8,67.6,17.4z M47.7,25.8h-3.3l5-12h3.3L47.7,25.8z"/>
</svg>
