<?xml version="1.0" encoding="utf-8"?>
<!-- Generator: Adobe Illustrator 19.2.1, SVG Export Plug-In . SVG Version: 6.00 Build 0)  -->
<svg version="1.1" id="Layer_1" xmlns="http://www.w3.org/2000/svg" xmlns:xlink="http://www.w3.org/1999/xlink" x="0px" y="0px"
	 viewBox="0 0 474.3 85.9" style="enable-background:new 0 0 474.3 85.9;" xml:space="preserve">
<style type="text/css">
	.st0{fill:#231F20;}
	.st1{fill:#EE7E2C;}
	.st2{fill:#B9B5AE;}
</style>
<g>
	<path class="st0" d="M26.4,55.6c0-2.2-0.6-4.2-1.8-5.8c-1.2-1.6-3.1-2.9-5.7-3.8c-1.6-0.6-3.3-1-5.1-1.1c-1.8-0.1-3.7-0.2-5.7-0.2
		H7.3H6.6c0,0.2,0,1.9-0.1,4.9c0,3.1-0.1,5.5-0.1,7.3v5.8v3.8h0.8H8c1.8,0,3.6-0.1,5.6-0.3c2-0.2,3.7-0.6,5.1-1.1
		c2.5-0.9,4.4-2.1,5.7-3.6C25.7,60,26.4,58,26.4,55.6 M33.1,55.7c0,3.2-1.2,6.1-3.7,8.7c-2.5,2.6-5.8,4.4-10,5.3
		c-1.8,0.4-3.8,0.7-5.9,0.8c-2.1,0.2-4.5,0.3-7.1,0.3l0.1,13.9H0c0-1.3,0.1-3.7,0.2-7.3c0.1-3.6,0.1-9.1,0.1-16.6
		c0-2.4,0-5.3-0.1-8.7c0-3.4-0.1-7.3-0.2-11.5c1.1,0,2.2,0,3.3,0H6c4.6,0,8.4,0.2,11.6,0.7c3.2,0.5,5.9,1.3,8.1,2.5
		c2.4,1.2,4.2,2.9,5.5,4.9C32.5,50.6,33.1,53,33.1,55.7"/>
	<path class="st0" d="M95.6,84.7h-6.6c0-1.3,0.1-3.7,0.1-7.3c0-3.6,0-8,0-13.3h-7h-9.7h-9.4h-5.9c0,6.1,0,10.8,0.1,13.9
		c0,3.2,0.1,5.4,0.1,6.7h-6.6c0-1.3,0.1-3.6,0.2-7c0.1-3.4,0.1-9.1,0.1-17.1c0-2.4,0-5.3-0.1-8.8c-0.1-3.5-0.1-7.2-0.2-11.2h6.6
		c0,3.3,0,6.6-0.1,9.8c0,3.2-0.1,6.3-0.1,9.2h5.2h10.2h10.3h6.4c0-2.9,0-6-0.1-9.2c0-3.2-0.1-6.5-0.1-9.9h6.6
		c-0.1,3.3-0.1,7.2-0.2,11.5c-0.1,4.4-0.1,7.9-0.1,10.6c0,6.5,0,11.4,0.1,14.9C95.6,81,95.6,83.4,95.6,84.7"/>
	<path class="st0" d="M157.9,42.5c-0.2,0.2-2.8,3-7.8,8.3c-5,5.3-9.1,9.5-12.1,12.8c0,4,0,8.2,0,12.6c0.1,4.4,0.1,7.2,0.1,8.5h-6.6
		c0.1-1.3,0.1-4.2,0.2-8.7c0.1-4.5,0.1-8.5,0.1-12.1c-3.2-3.6-7.2-7.8-12-12.9c-4.8-5-7.3-7.8-7.7-8.1l5.2-3.3
		c0.3,0.4,2.4,2.7,6.2,6.9c3.8,4.3,7.7,8.5,11.5,12.7h0.1c3.7-4,7.6-8.2,11.6-12.6c4.1-4.4,6.2-6.8,6.4-7L157.9,42.5z"/>
	<path class="st0" d="M204.8,84.7c-0.3,0-2,0-5-0.1c-3,0-6.9-0.1-11.6-0.1c-3.1,0-6,0-8.8,0.1c-2.8,0-5.1,0.1-7.1,0.1
		c0.1-3.8,0.1-7.6,0.2-11.5c0.1-3.9,0.1-7.7,0.1-11.4c0-6.3,0-11-0.1-14.3c-0.1-3.3-0.1-5.6-0.2-6.9h6.7c-0.1,2.8-0.2,6.1-0.2,9.8
		c-0.1,3.7-0.1,6.8-0.1,9.2c0,5.8,0,10.6,0.1,14.5c0,3.9,0.1,5.9,0.1,6.2h3.9h4.1c4.7,0,8.8,0,12.3-0.1c3.5,0,5.3-0.1,5.6-0.1V84.7z
		"/>
	<path class="st0" d="M320.5,62c-0.1,1.6-0.1,3.4-0.2,5.5c-0.1,2.1-0.1,3.9-0.1,5.3c0,2.2,0,4.7,0.1,7.4c0,2.7,0.1,4.2,0.1,4.6
		c-0.2,0-1,0.1-2.4,0.2c-1.3,0.1-2.6,0.1-3.9,0.1c-6.3,0-11.8-0.6-16.6-1.7c-4.8-1.1-9-3.1-12.5-5.9c-2.2-1.7-3.9-3.8-5.3-6.4
		c-1.3-2.5-2-5.4-2-8.7c0-4,1.3-7.6,3.8-10.7c2.5-3.2,6.1-5.7,10.5-7.6c3-1.3,6.5-2.3,10.4-3c3.9-0.7,7.9-1,12.1-1h1.8h1.5l0.5,4.8
		H317h-1.8c-4,0-7.8,0.3-11.1,0.8c-3.4,0.6-6.3,1.4-8.8,2.5c-3.4,1.5-6.1,3.5-8,6.1c-1.9,2.6-2.9,5.3-2.9,8.2c0,3.7,1,6.7,3.1,9.1
		c2,2.4,4.6,4.3,7.9,5.6c2.9,1.2,5.9,2.1,9.1,2.5c3.2,0.5,6.5,0.7,9.9,0.7c0-0.4,0-2.1-0.1-5.1c0-3.1-0.1-7.5-0.2-13.4H320.5z"/>
	<path class="st0" d="M350.3,84.7h-6.6c0-1.3,0.1-3.6,0.2-7c0.1-3.4,0.1-8.3,0.1-14.6c0-2.5,0-5.8,0-9.9c0-4.1-0.1-8.3-0.2-12.7h6.6
		c-0.1,3.1-0.1,6.8-0.2,11C350,55.6,350,59,350,61.7c0,6.7,0,11.9,0.1,15.5C350.2,80.9,350.2,83.4,350.3,84.7"/>
	<path class="st0" d="M408.9,80.7c0,0.2-0.1,0.8-0.2,1.7c-0.1,0.9-0.2,1.9-0.3,3h-0.7h-0.7c-6.5,0-12.2-0.7-17.2-2
		c-5-1.3-9.2-3.3-12.4-5.9c-2.3-1.8-4-3.9-5.3-6.4c-1.3-2.5-2-5.3-2-8.5c0-2.9,0.6-5.5,1.9-7.9c1.3-2.4,3-4.4,5.1-6.2
		c3-2.6,7.1-4.6,12.3-6.1c5.1-1.5,10.6-2.3,16.5-2.3h1h0.8c0,0.4,0.1,1,0.2,1.9c0.1,0.9,0.2,1.8,0.3,2.8h-0.7h-0.7
		c-3.3,0-6.8,0.3-10.3,0.9c-3.6,0.6-6.6,1.5-9.2,2.7c-3.4,1.6-5.9,3.6-7.7,6.1c-1.8,2.5-2.7,5.1-2.7,8c0,3,0.8,5.7,2.4,8.1
		c1.6,2.4,4.2,4.5,7.7,6.1c2.9,1.3,6.1,2.3,9.6,3c3.5,0.6,7.1,0.9,10.6,0.9h0.8C408.1,80.7,408.5,80.7,408.9,80.7"/>
	<path class="st0" d="M457.3,64.7c-1.4-2.7-2.9-5.5-4.5-8.4c-1.6-2.9-3.2-6-5-9.2l-0.2,0c-1.3,2.4-3,5.4-4.9,8.9
		c-1.9,3.5-3.5,6.4-4.7,8.7h0H457.3L457.3,64.7z M474.3,82.9l-6.2,2.6c-0.1-0.2-0.9-1.9-2.5-4.9c-1.5-3-3.6-6.9-6.1-11.7h-23.7
		c-2.7,5.1-4.9,9.1-6.4,11.9c-1.5,2.8-2.3,4.4-2.5,4.7l-5.3-2.4c0.7-1.1,3.5-6.2,8.5-15.1c5-9,10.2-18.4,15.5-28.2h5.1
		c5.3,9.8,10.5,19.4,15.6,28.6C471.5,77.8,474.1,82.6,474.3,82.9"/>
	<path class="st1" d="M264.1,58.9c-0.3-1.9-0.8-3.7-1.5-5.4c-0.1-0.3-1.2-2.3-1.3-2.6c-4.2-7.2-11.7-12.7-11.7-12.7
		c-10.3-7.9-10.9-12.6-10.9-12.6c0.1,5,2.6,10.1,5.3,14.1c2.6,3.9,5.5,6.9,6.9,8.3c0.3,0.3,0.6,0.6,0.9,0.9c1.7,1.6,3,3.4,4,5.6
		c1.2,2.6,1.8,5.3,1.8,8.1c0,3.2-0.6,6-1.8,8.5c-1.2,2.5-2.9,4.6-5.1,6.4c-1.5,1.2-3.3,2.2-5.4,2.9c-2,0.7-4.5,1.1-6.8,1.1
		c-2.3,0-4.6-0.4-6.6-1.1c-2.1-0.7-3.9-1.7-5.4-2.9c-2.2-1.7-3.9-3.9-5.1-6.4c-1.2-2.5-1.8-5.3-1.8-8.5c0-2.8,0.6-5.5,1.8-8.1
		c1-2.2,2.3-4.1,4-5.6c0.3-0.3,0.6-0.6,0.9-0.9c1.4-1.4,4.3-4.4,6.9-8.3c2.7-4,5.2-9,5.3-14.1c0,0-0.6,4.7-10.9,12.6
		c0,0-7.4,5.5-11.6,12.7c-0.2,0.3-1.2,2.3-1.3,2.6c-0.7,1.7-1.2,3.5-1.5,5.4c-0.2,1.2-0.3,2.4-0.3,3.6c0,3.8,0.8,7.3,2.4,10.3
		c1.6,3,3.6,5.6,6.2,7.6c2.3,1.8,4.9,3.2,7.8,4.2c2.9,0.9,6,1.4,9.2,1.4h0.1h0.1c3.2,0,6.5-0.5,9.3-1.4c2.9-0.9,5.5-2.3,7.8-4.2
		c2.6-2,4.6-4.5,6.2-7.6c1.6-3,2.4-6.5,2.4-10.3C264.3,61.2,264.2,60.1,264.1,58.9"/>
	<path class="st1" d="M222.9,2.3c0.8,0.9,1.6,1.8,2.6,2.6c0.3,0.2,0.6,0.5,0.9,0.7v0c1.4,1.2,4.3,3.7,6.9,6.9
		c2.7,3.4,5.2,7.5,5.3,11.7c0.2-4.2,2.6-8.3,5.3-11.7c2.6-3.2,5.5-5.8,6.9-6.9v0c0.3-0.2,0.6-0.5,0.9-0.7c1-0.8,1.9-1.7,2.6-2.7
		c-5,1-10.4,1.5-16,1.5C233.1,3.8,227.8,3.3,222.9,2.3"/>
	<path class="st2" d="M232.1,12.6c-2.6-3.2-5.5-5.8-6.9-6.9c0,0,0,0,0,0c-0.3-0.2-0.6-0.5-0.9-0.7c-1-0.8-1.8-1.7-2.6-2.6
		c-3-0.6-5.9-1.3-8.6-2.2c0.2,0.3,0.3,0.6,0.4,0.9c0.1,0.2,0.2,0.4,0.3,0.6c0.2,0.3,0.3,0.5,0.5,0.8c0.2,0.3,0.3,0.5,0.5,0.8
		c4.2,6,11.6,10.6,11.6,10.6c9.7,6.2,10.8,10,10.9,10.5v0C237.3,20.1,234.8,15.9,232.1,12.6"/>
	<path class="st2" d="M253.1,4.9c-0.3,0.2-0.6,0.5-0.9,0.7v0c-1.4,1.1-4.3,3.7-7,6.9c-2.7,3.4-5.2,7.5-5.3,11.7v0
		c0.1-0.5,1.3-4.3,10.9-10.5c0,0,7.4-4.6,11.6-10.6c0.2-0.2,0.3-0.5,0.5-0.8c0.2-0.3,0.3-0.5,0.5-0.8c0.1-0.2,0.2-0.4,0.4-0.6
		c0.2-0.3,0.3-0.7,0.5-1c-2.7,0.9-5.6,1.7-8.6,2.3C254.9,3.2,254.1,4.1,253.1,4.9"/>
</g>
</svg>
