<?xml version="1.0" encoding="utf-8"?>
<!-- Generator: Adobe Illustrator 16.0.0, SVG Export Plug-In . SVG Version: 6.00 Build 0)  -->
<!DOCTYPE svg PUBLIC "-//W3C//DTD SVG 1.1//EN" "http://www.w3.org/Graphics/SVG/1.1/DTD/svg11.dtd">
<svg version="1.1" id="Layer_1" xmlns="http://www.w3.org/2000/svg" xmlns:xlink="http://www.w3.org/1999/xlink" x="0px" y="0px" viewBox="0 0 200 46.059" enable-background="new 0 0 200 46.059" xml:space="preserve">
<g>
	<path fill="#FFFFFF" d="M1.238,46.059c0.619,0,1.168-0.551,1.168-1.17V1.709c0-0.617-0.549-1.168-1.168-1.168
		C0.482,0.542,0,1.092,0,1.709v43.179C0,45.508,0.482,46.059,1.238,46.059z"/>
	<path fill="#FFFFFF" d="M10.691,11.473v33.416c0,1.65,2.407,1.65,2.407,0V11.404C13.099,9.824,10.691,9.824,10.691,11.473z"/>
	<path fill="#FFFFFF" d="M13.167,5.767v-3.85c0-1.513-2.543-1.513-2.543,0v3.85C10.624,7.28,13.167,7.28,13.167,5.767z"/>
	<path fill="#FFFFFF" d="M50.548,10.992L35.08,41.727l-15.607-30.94c-0.687-1.582-2.957-0.619-2.338,0.825l16.983,33.484
		c0.549,0.826,1.581,0.755,1.994-0.068l16.432-33.21C53.301,10.099,51.099,9.548,50.548,10.992z"/>
	<path fill="#FFFFFF" d="M71.38,45.922c4.538,0.067,9.074-1.238,12.169-4.126c1.308-1.308-0.343-2.683-1.582-1.72
		c-3.163,2.407-7.013,3.575-10.794,3.507c-4.469-0.069-8.8-1.856-11.687-5.295c-2.064-2.406-3.164-5.226-3.506-8.181h30.94
		c1.856,0,2.198-1.308,2.13-2.27c-0.137-8.869-4.952-15.264-12.65-17.327c-3.439-0.894-7.221-0.826-10.384,0
		c-7.424,2.063-12.238,8.732-12.581,16.159c-0.275,5.158,1.238,9.418,4.125,13.132C60.723,43.856,66.016,45.851,71.38,45.922z
		 M66.842,12.78c2.818-0.756,6.049-0.756,8.801-0.068c6.875,1.856,10.932,7.563,11.069,15.126H55.909
		C55.98,20.962,59.967,14.637,66.842,12.78z"/>
	<path fill="#FFFFFF" d="M121.928,25.225v18.152c0,1.512,1.031,2.474,2.543,2.474c1.581,0,2.475-0.962,2.475-2.474V25.225
		c0-9.9-7.632-15.401-15.607-15.401c-5.157,0-10.52,1.994-12.995,6.806V2.191c0-2.887-5.088-2.957-5.088,0v41.186
		c0,1.512,1.032,2.474,2.612,2.474c1.582,0,2.476-0.962,2.476-2.474V26.256c0-7.082,6.256-11.757,12.925-11.757
		C116.838,14.499,121.928,18.899,121.928,25.225z"/>
	<path fill="#FFFFFF" d="M150.154,45.576c1.306,0,2.475-0.963,2.475-2.406V27.632c0-6.944,3.024-12.584,10.109-12.584
		c1.581,0,2.608-0.823,2.608-2.336c0-1.582-1.027-2.407-2.608-2.407c-3.921,0-8.048,1.237-10.247,5.845v-3.438
		c0-3.301-4.88-3.026-4.88,0V43.17C147.611,44.613,148.642,45.576,150.154,45.576z"/>
	<path fill="#FFFFFF" d="M182.242,45.851c4.469,0.071,9.076-1.167,12.24-4.124c2.681-2.751-0.896-5.569-3.302-3.369
		c-2.684,2.062-5.981,2.887-9.146,2.887c-6.873,0-11.688-4.675-12.581-10.312h27.158c2.819,0,3.508-1.65,3.371-3.163v0.068
		c-0.14-8.801-4.952-15.126-12.723-17.258h-0.069c-3.367-0.894-7.081-0.962-10.311,0c-12.788,3.575-16.021,19.389-8.595,29.153
		C171.517,43.789,176.879,45.851,182.242,45.851z M178.391,15.119c2.338-0.688,5.157-0.688,7.427-0.071h-0.069
		c5.362,1.376,8.938,5.846,9.419,11.69h-25.923C169.658,21.167,172.891,16.561,178.391,15.119z"/>
	<path fill="#FFFFFF" d="M140.238,11.863l-1.411-0.667v-0.01l1.374-0.739c1.818-0.98,2.948-2.85,2.948-4.882
		c0-3.07-2.498-5.565-5.57-5.565c-3.069,0-5.569,2.495-5.569,5.565c0,2.028,1.13,3.897,2.949,4.883l1.342,0.725v0.036l-1.381,0.654
		c-2.227,1.05-3.607,3.214-3.603,5.658l0.022,0.148l0.014,0.45l2.587,26.08c0,0,0.388,1.724,3.642,1.724s3.635-1.724,3.635-1.724
		l2.604-26.228v-0.212c0-0.082,0.008-0.161,0.024-0.249C143.845,15.115,142.429,12.896,140.238,11.863z"/>
</g>
</svg>
