<svg viewBox="0 0 100 100" xmlns="http://www.w3.org/2000/svg" fill-rule="evenodd" clip-rule="evenodd" stroke-linejoin="round" stroke-miterlimit="1.414"><path d="M76.287 93.237v1.285h-.128c0-.16-.064-.192-.182-.192h-3.299v.599h1.938c.215 0 .279-.075.322-.171h.107l-.053 1.157h-.129c0-.108-.107-.172-.321-.172h-1.885v.686h3.287c.108 0 .151 0 .183-.214h.139V97.5h-.128c0-.14-.054-.171-.171-.171h-5.11v-.107c.257 0 .289-.054.289-.108v-3.427c0-.075 0-.128-.289-.15v-.085h5.12c.107 0 .15 0 .182-.215h.128zm-36.672 2.549a.314.314 0 0 0 0 .161c0 .214 1.07.536 2.142.536 1.071 0 1.499-.172 1.499-.504 0-.535-4.231.053-4.231-1.371 0-.75.986-1.253 2.485-1.253.899.037 1.795.144 2.678.322a.411.411 0 0 0 .289-.108h.107l-.696 1.071h-.107v-.107c0-.171-1.178-.386-2.143-.386-.963 0-1.21.183-1.21.354 0 .642 4.285-.15 4.285 1.553 0 .642-.675 1.339-2.892 1.339a11.277 11.277 0 0 1-2.763-.322.38.38 0 0 0-.215.107h-.107l.771-1.392h.108zm18.935-2.367v.107c-.106 0-.182 0-.182.086s1.254 2.281 1.929 3.459c.107.183.16.215.288.215v.107H58.55v-.107c.14 0 .194 0 .194-.075 0-.076-.322-.568-.353-.664l-2.411-.043a6.81 6.81 0 0 0-.321.674c-.095.232 0 .076.182.076v.106H54.02v-.106a.292.292 0 0 0 .247-.183c.107-.171 1.82-3.427 1.82-3.47 0-.042-.107-.064-.214-.075v-.107h2.677zm-35.847.033c1.07 0 1.928.299 1.928 1.07 0 .429-.429.707-.996.804.685.128 1.178.396 1.178.943 0 .546-.6 1.07-2.057 1.07h-3.963v-.107c.257 0 .289-.054.289-.107v-3.448c0-.065 0-.108-.289-.14v-.085h3.91zm27.687 0c1.07 0 1.928.299 1.928 1.07 0 .429-.429.707-.997.804.686.128 1.178.396 1.178.943 0 .546-.6 1.07-2.056 1.07H46.48v-.107c.257 0 .289-.054.289-.107v-3.448c0-.065 0-.108-.289-.14v-.085h3.91zm-13.475 0v.085c-.257 0-.289.075-.289.14v3.394c0 .064 0 .107.289.13v.106l-2.142.032v-.107c.257 0 .289-.054.289-.107v-3.448c0-.065 0-.108-.289-.14v-.085h2.142zm-6.458 0c1.521 0 2.142.385 2.142 1.231 0 .846-.61 1.071-1.468 1.21l1.286 1.178c.073.083.179.13.289.13v.106h-2.142v-.106c.139 0 .214 0 .214-.13 0-.128-1.07-1.07-1.21-1.242h-1.007v1.242c0 .064 0 .107.289.13v.106h-2.142v-.106c.257 0 .289-.066.289-.13v-3.394c0-.065 0-.108-.289-.14v-.085h3.749zm34.349 0v.085c-.214 0-.278.053-.278.107s1.767 1.435 2.495 1.992v-1.959c0-.087-.076-.13-.214-.14v-.085h1.885v.085c-.258 0-.289.075-.289.14v3.394c0 .064 0 .107.278.13v.106h-1.949v-.106c.182 0 .235 0 .235-.076a35.907 35.907 0 0 0-2.967-2.378v2.324c0 .064 0 .107.279.13v.106h-1.949v-.106c.257 0 .289-.066.289-.13v-3.394c0-.065 0-.108-.279-.14v-.085h2.464zM22.36 96.568c.728 0 1.017-.107 1.017-.45 0-.342-.289-.428-1.006-.428h-1.736l-.021.878h1.746zm27.687 0c.718 0 1.007-.107 1.007-.45 0-.342-.289-.428-1.007-.428h-1.746v.878h1.746zm8.097-.653l-.996-1.756-.91 1.756h1.906zm-27.869-.879c.611 0 .803-.182.803-.396 0-.214-.182-.407-.792-.407h-1.725v.803h1.714zm-8.269-.107c.889 0 1.071 0 1.071-.343 0-.342-.214-.342-1.071-.342h-1.392v.685h1.392zm27.687 0c.878 0 1.072 0 1.072-.343 0-.342-.215-.342-1.072-.342h-1.392v.685h1.392zm27.334-7.175c0-2.282-2.518-3.535-5.624-3.535-3.105 0-5.687 1.253-5.687 3.535 0 2.281 2.571 3.512 5.655 3.512 3.085 0 5.656-1.231 5.656-3.512zm-35.614 0c0-2.282-2.526-3.535-5.633-3.535-3.106 0-5.676 1.253-5.676 3.535 0 2.281 2.57 3.512 5.655 3.512 3.084 0 5.654-1.231 5.654-3.512zm23.874-3.118l-1.649 2.207-.182-.107a.465.465 0 0 0 0-.182c0-.268-1.392-.6-2.935-.6-1.542 0-3.373.46-3.373 1.788s1.928 1.821 3.395 1.821c.642 0 3.042-.353 3.042-.728 0-.075-.065-.128-.107-.192l.214-.151 1.863 2.036-.214.107c-.054-.107-.128-.107-.256-.107-1.551.43-3.148.668-4.756.707-2.892 0-5.998-1.179-5.998-3.514 0-2.334 3.149-3.502 6.009-3.502a16.653 16.653 0 0 1 3.213.279c.707.138 1.07.246 1.253.246a.403.403 0 0 0 .267-.108h.214zm22.16 0l-1.263 1.821-.214-.085v-.15c0-.322-2.068-.686-3.771-.686-1.702 0-2.141.321-2.141.611 0 1.146 7.497-.279 7.497 2.731 0 1.071-1.178 2.357-5.119 2.357a20.06 20.06 0 0 1-4.756-.59.598.598 0 0 0-.364.172h-.215l1.339-2.314.183.064a.594.594 0 0 0 0 .278c0 .355 1.928.943 3.823.943 1.896 0 2.646-.321 2.646-.889 0-.963-7.498.107-7.498-2.42 0-1.286 1.735-2.196 4.392-2.196a30.4 30.4 0 0 1 4.776.536.685.685 0 0 0 .493-.183h.192zm-61.66-.31c2.678 0 3.813.664 3.813 2.142 0 1.179-1.071 1.821-2.592 2.142l2.142 2.142a.677.677 0 0 0 .536.215v.171h-3.781v-.161c.257 0 .407-.064.407-.214s-1.927-1.927-2.143-2.142h-1.777v2.175c0 .107.053.214.514.235v.161h-3.748v-.151c.449 0 .503-.107.503-.235v-6.083c0-.108-.065-.215-.515-.236v-.161h6.641zm27.644-.022v.151c-.449 0-.503.107-.503.235v6.073c0 .107 0 .214.503.235v.161h-3.449v-.161c.321 0 .429-.053.429-.138 0-.087-.461-.343-5.249-4.178v4.091c0 .108.054.215.504.237v.16h-3.449v-.15c.45 0 .504-.107.504-.236l.01-6.072c0-.107-.054-.214-.503-.236v-.161h4.37v.15c-.429 0-.514.086-.514.171 0 .087 3.138 2.549 4.391 3.557V84.7c0-.16-.129-.213-.364-.235v-.161h3.32zm-38.976.011c1.96 0 3.385.515 3.385 1.8 0 .792-.75 1.264-1.746 1.424 1.21.246 2.142.707 2.142 1.682s-1.071 1.928-3.663 1.928H7.569v-.161c.428 0 .503-.107.503-.236l-.011-6.04c0-.107-.053-.214-.515-.236v-.161h6.909zm-.589 5.431c1.285 0 1.778-.214 1.778-.782 0-.568-.503-.783-1.778-.783h-3.084v1.565h3.084zm54.528-1.992c0-1.233 1.456-1.928 2.999-1.928 1.542 0 2.934.695 2.934 1.928 0 1.231-1.414 1.927-2.977 1.927-1.564 0-2.956-.696-2.956-1.927zm-35.549 0c0-1.233 1.404-1.928 2.978-1.928 1.575 0 2.967.695 2.967 1.928 0 1.231-1.382 1.927-2.967 1.927-1.586 0-2.978-.696-2.978-1.927zm-7.412-.536c1.072 0 1.393-.343 1.393-.718 0-.375-.321-.717-1.393-.717h-3.041v1.435h3.041zm-12.188-.365c1.564 0 1.96-.085 1.96-.599s-.396-.6-1.96-.6h-2.463v1.199h2.463zm75.542-14.887a37.415 37.415 0 0 0-8.568-3.706A30.753 30.753 0 0 1 69.1 62.905c-4.766-3.642-7.626-9.983-8.193-11.921 1.949-.322 5.441 1.928 7.861 2.217 4.821.6 5.57 4.67 7.873 7.776 2.388 3.299 9.318 2.891 12.959 3.716 1.458-5.034 5.42-8.568 4.788-14.244a13.618 13.618 0 0 0-2.035-2.142c-1.435-.301-8.783-7.498-9.339-9.105-1.5-4.284-5.57-6.351-7.155-10.71l-.064.086-.139-.996C72.261 24.528 60.232 14.6 56.623 12.779h-.139l-.9-.321a11.406 11.406 0 0 0-2.839-.567l-2.313-.151c-4.391-6.426-5.783-3.427-11.846-7.24.579 1.371 1.65 3.213 2.464 4.691-10.389-.557-16.602 7.112-22.546 7.123.956.562 2.065.81 3.17.707-2.999 2.999-7.626 10.046-12.146 10.089a7.228 7.228 0 0 0 6.234 1.072c-2.357 7.304-1.339 12.509-10.218 15.85 4.712 1.072 6.213.783 9.393-.749 1.339 6.426 1.178 13.71-5.591 17.212 2.035-.182 6.105-.471 8.655-3.278.406 8.462-4.124 11.279-9.94 14.374 16.28 3.213 26.273 4.852 40.508 9.694 14.266-4.831 23.905-6.127 40.218-9.308v-.011z" fill="#ffce34"/><path d="M67.184 31.137c-.686.214-.686.225-.686.225l-4.777-3.749 5.463 1.543.642 1.789-.642.192zM50.561 49.528c.057.053 5.471 4.101 9.061 4.101h.257a46.107 46.107 0 0 1-1.232-2.934l-.386-.825c-5.055-4.434-9.789-10.453-12.124-16.537h.108l.192.279.536.835c4.883 7.337 12.016 15.798 20.692 16.473a4.052 4.052 0 0 0 1.897-3.085 14.17 14.17 0 0 0 .192-2.035v-2.035h.107c.227.631.417 1.275.567 1.927.068.269.121.541.161.815a10.7 10.7 0 0 1-.085 4.637c.403.489.885.91 1.425 1.243l1.209.696c.89.482 5.067 4.906 4.424 6.533.086.194.172.354.279.515 2.484 2.174 6.218 2.276 7.412 2.335 1.193.059 2.389.022 3.576-.107.75-.289 3.111-6.559 3.214-6.855a.968.968 0 0 0-.129-.879h-.107l-.236-.085a1.634 1.634 0 0 1-.513-.247c-.889-.835-1.961-2.73 1.424-2.73.107-.033.45-.215 0-.429a19.647 19.647 0 0 1-1.789-.911 6.21 6.21 0 0 1-2.27-2.034c-.044-.076-.483-.697-.729-.076-.247.622.7 2.296.696 3.042a6.064 6.064 0 0 0 .397 2.185v.108h-.107c-.093.01-.186.01-.279 0a10.733 10.733 0 0 1-2.142-3.813c-.3-.772-.589-1.586-.878-2.335a18.479 18.479 0 0 0-.889-2.035 7.062 7.062 0 0 0-.429-.675c-.338-.475-.65-.968-.932-1.478a38.408 38.408 0 0 1-.503-.986c-.856-1.553-1.071-2.998-1.928-4.551-.856-1.554-2.367-3.417-5.762-5.838a11.245 11.245 0 0 1-1.435-1.435l.278-.322a.293.293 0 0 0 0-.15c0-.107-.375-.385-.375-.385-2.131-1.789-3.78-3.535-5.419-4.852a8.677 8.677 0 0 0-5.292-2.249 24.339 24.339 0 0 1-2.805-.14 9.818 9.818 0 0 1-3.406-.942l-.215-.107h1.736c.29-.065 4.155-.353 5.354-.353a19.107 19.107 0 0 0-2.549-1.071c-1.103-.386-2.302-.761-3.534-1.211a17.461 17.461 0 0 1-6.855-4.102 2.784 2.784 0 0 0-1.071-.889c-.46-.236-1.017-.44-1.639-.706a9.754 9.754 0 0 1-3.641-2.71l3.47 6.426c-.417.932-.739 1.949-1.135 2.891a6.405 6.405 0 0 1-1.639 2.485l-.161.15.065-.214c.236-.782.428-1.146.717-2.357a8.324 8.324 0 0 0 .183-3.48 2.758 2.758 0 0 0-1.928-2.035c-2.26-.643-3.878.267-6.159 1.5-5.923 3.191-9.779 7.989-11.064 14.223-1.639 7.712 1.318 17.876 1.318 17.876h-.108c-2.977-5.248-5.623-16.847-.964-25.706a19.859 19.859 0 0 1 7.252-7.422 25.88 25.88 0 0 1 3.363-1.746c-7.359 2.035-11.568 4.82-14.074 7.498a15.412 15.412 0 0 0-2.763 4.037 23.11 23.11 0 0 0-1.157 3.139c-1.499 4.819-.965 10.335 0 15.101.46 2.39 1.06 4.564 1.532 6.384.406 1.344.717 2.715.931 4.102.75 6.106.943 12.189-6.748 17.887a287.913 287.913 0 0 1 33.568 9.083 270.046 270.046 0 0 1 32.613-8.697c-2.72-.343-4.038-.482-5.108-.59-1.072-.107-1.714-.171-3.107-.385-4.187-.632-10.272-1.017-14.417-1.446a46.41 46.41 0 0 1-5.354-.889 39.641 39.641 0 0 1-7.498-2.71 29.89 29.89 0 0 1-3.92-2.303 36.323 36.323 0 0 1-7.819-7.283c2.678 1.864 5.666 3.899 9.019 5.934a30.528 30.528 0 0 0 5.001 2.335c1.65.621 3.139 1.071 4.028 1.392 3.406.922 6.533 1.35 14.78 1.992 1.168.076 2.196.236 6.18.858-1.285-.697-2.164-1.157-2.999-1.661a31.11 31.11 0 0 1-2.999-2.142 13.95 13.95 0 0 1-2.142-2.142c-.524-.632-.878-1.178-1.135-1.543a14.242 14.242 0 0 1-8.344-4.037l.075-.108c.66.364 1.348.675 2.057.932 1.522.597 3.138.923 4.773.965l-.682-1.468-.429-.75a17.19 17.19 0 0 1-3.363-1.242 23.25 23.25 0 0 1-7.218-5.419z" fill="#650038" fill-rule="nonzero"/></svg>