<?xml version="1.0" encoding="utf-8"?>
<!-- Generator: Adobe Illustrator 19.1.0, SVG Export Plug-In . SVG Version: 6.00 Build 0)  -->
<svg version="1.1" id="Layer_1" xmlns="http://www.w3.org/2000/svg" xmlns:xlink="http://www.w3.org/1999/xlink" x="0px" y="0px"
	 viewBox="0 0 200 23" style="enable-background:new 0 0 200 23;" xml:space="preserve">
<style type="text/css">
	.st0{fill:#FFF9EF;}
</style>
<g>
	<g>
		<path class="st0" d="M45.2226868,15.6000996c0,2.1748009-0.8829002,3.9424-2.6495018,5.3017998
			c-1.7705002,1.3574009-4.1717987,2.0380001-7.2059975,2.0380001c-1.752903,0-3.2813034-0.160099-4.585001-0.4804001
			c-1.3066006-0.3223-2.5254002-0.7294998-3.6650009-1.2250996v-5.2944994h0.5986004
			c1.1299,0.9404993,2.3936005,1.6626005,3.7901001,2.1661005c1.3993988,0.5043983,2.7441139,0.7557983,4.0331993,0.7557983
			c0.3320007,0,0.7675018-0.0287991,1.3086014-0.0879002c0.5389977-0.0594997,0.9804001-0.1576996,1.3211975-0.2967987
			c0.4190025-0.1778011,0.7608032-0.4008999,1.0312996-0.6680012c0.2715034-0.2651997,0.4053001-0.6611996,0.4053001-1.1855984
			c0-0.4848003-0.1962967-0.9028006-0.5878983-1.2534008c-0.3925858-0.3500996-0.9706993-0.6205997-1.7294998-0.8080997
			c-0.7979012-0.1968002-1.6386986-0.3832998-2.5243988-0.5552006c-0.8886871-0.1742992-1.7187996-0.3944998-2.4981003-0.6610994
			c-1.7812004-0.6040001-3.0644016-1.4204006-3.8457012-2.4541006c-0.7831993-1.0331993-1.174799-2.3158998-1.174799-3.8476996
			c0-2.0560999,0.8848-3.7348001,2.6552982-5.0346003c1.764616-1.3003,4.039999-1.9497,6.8183994-1.9497
			c1.3935013,0,2.7723999,0.1406,4.1328011,0.4218c1.3592987,0.2803,2.5390015,0.6348,3.535099,1.0606v5.0868998h-0.5848999
			c-0.8526001-0.7129002-1.899498-1.3076-3.1357841-1.7876c-1.2373161-0.48-2.501915-0.7192001-3.7910004-0.7192001
			c-0.454113,0-0.909214,0.0327001-1.3594131,0.0957003c-0.4491997,0.0653996-0.8828011,0.1854997-1.2998009,0.3636999
			C33.8446846,4.7305002,33.5272865,4.9535999,33.2636871,5.2563c-0.267601,0.3023-0.3985023,0.6455998-0.3985023,1.0317998
			c0,0.5820003,0.2139015,1.0298004,0.6387024,1.3418002c0.4277,0.3115001,1.2343979,0.5951996,2.4189987,0.8525
			c0.777298,0.1675005,1.5233994,0.3301001,2.2392006,0.4888c0.7178001,0.1587,1.4862976,0.3760004,2.3106003,0.6513996
			c1.6229973,0.5546007,2.8183136,1.3086004,3.5926971,2.2622004
			C44.8378868,12.8397999,45.2226868,14.0775995,45.2226868,15.6000996z"/>
		<path class="st0" d="M64.2821884,22.5405006H48.9647865V0.4595h15.3174019v4.2710004h-9.885704V8.54h9.1758003v4.2735004
			h-9.1758003v5.4560003h9.885704V22.5405006z"/>
		<path class="st0" d="M89.257782,22.5405006h-6.669899L76.8280869,14.4438h-2.5332031v8.0967007h-5.4316025V0.4595h9.1592026
			c1.2509003,0,2.3271027,0.0732,3.2285156,0.2212c0.8993835,0.1484,1.7430878,0.4712,2.5321884,0.9643
			c0.794899,0.4946001,1.4296951,1.1352999,1.8983994,1.9214001c0.4697952,0.7860999,0.7040939,1.7715001,0.7040939,2.9575
			c0,1.6323996-0.3622971,2.9604998-1.0887985,3.9892998c-0.7237015,1.0283003-1.7597961,1.8838005-3.107399,2.5658998
			L89.257782,22.5405006z M80.740181,7.2217002c0-0.5542002-0.1122971-1.0288-0.3290939-1.4238
			C80.1933823,5.4022999,79.8192825,5.0907998,79.2890854,4.8638C78.9188843,4.7055998,78.4882812,4.6099,77.9940872,4.5742002
			C77.5019989,4.54,76.927681,4.5219998,76.2724838,4.5219998h-1.9776001v5.9472003h1.6787033
			c0.8740997,0,1.6044998-0.0448999,2.1904984-0.1342001c0.5879135-0.0879002,1.0810013-0.2911005,1.4813995-0.6084003
			c0.3759995-0.3056993,0.6532974-0.6435995,0.830101-1.0146999C80.6513824,8.3388996,80.740181,7.8438001,80.740181,7.2217002z"/>
		<path class="st0" d="M110.8515854,0.4595l-7.7245865,22.0810013h-6.1163177L89.286087,0.4595h5.739296L100.1425858,15.96
			L105.2616806,0.4595H110.8515854z"/>
		<path class="st0" d="M123.4638824,22.9706993c-1.5732956,0-3.0273972-0.2416992-4.3574982-0.7269993
			c-1.3330002-0.4843998-2.4775009-1.2070999-3.4355011-2.1651001c-0.9580002-0.9589996-1.7002029-2.1553001-2.2275009-3.5888996
			c-0.524498-1.4335003-0.7891006-3.0897999-0.7891006-4.9692001c0-1.7484999,0.2528992-3.3354006,0.7559052-4.7588
			c0.5009003-1.4238,1.2333984-2.645,2.1893997-3.6631002C116.5194855,2.1201,117.6581802,1.3633,119.0204849,0.8291
			c1.3593979-0.5327,2.847702-0.7998,4.4580002-0.7998c0.892601,0,1.6952972,0.0522,2.4131012,0.1548
			c0.714798,0.104,1.3740005,0.2402,1.9824142,0.4082c0.6366806,0.1875,1.2099991,0.3974,1.7284775,0.6304
			c0.5147095,0.2319,0.968811,0.4471999,1.3575287,0.6454999v5.3535004h-0.6241302
			C130.0673828,6.9857998,129.7343903,6.7061,129.3320007,6.3799c-0.4023132-0.3246999-0.860321-0.6436-1.3740005-0.9590001
			c-0.5205154-0.3144999-1.0839996-0.5805998-1.6924133-0.7974c-0.6054001-0.2163-1.2539062-0.3231997-1.9472046-0.3231997
			c-0.7666016,0-1.4990997,0.1254997-2.1904984,0.3759999c-0.6942978,0.2523999-1.3310013,0.6693997-1.9188843,1.2514
			c-0.5615158,0.5625-1.0127182,1.3077002-1.3594131,2.2343998c-0.3467026,0.9273005-0.5175858,2.0517998-0.5175858,3.375
			c0,1.3803997,0.185585,2.5341997,0.5595856,3.4624004c0.3740005,0.9281998,0.8476944,1.6567993,1.4169998,2.1900005
			c0.577095,0.5433998,1.2206955,0.9300995,1.9335938,1.1625996c0.7098999,0.2308998,1.4121017,0.347599,2.1064072,0.347599
			c0.6630936,0,1.3174133-0.1034985,1.9677963-0.3090992c0.6503983-0.2080002,1.25-0.4883003,1.8008041-0.8423004
			c0.4618988-0.2845993,0.8934937-0.5897999,1.2919922-0.9144993c0.398407-0.325201,0.7256012-0.6044998,0.9813995-0.8403006
			h0.5694275v5.2788c-0.5293274,0.2469997-1.0381165,0.4794998-1.5215302,0.6963005
			c-0.4814758,0.2181988-0.9911957,0.4067001-1.5214767,0.5643997c-0.6924133,0.2075005-1.3408127,0.3656998-1.9512177,0.4745998
			C125.3612823,22.9150009,124.5272827,22.9706993,123.4638824,22.9706993z"/>
		<path class="st0" d="M155.5663757,11.5063c0,3.5200996-0.9677887,6.316-2.902298,8.3862991
			C150.7294769,21.9643993,148.0565796,23,144.6454773,23c-3.4081879,0-6.0751953-1.0356007-8.0106964-3.1074009
			c-1.9326935-2.0702991-2.9013977-4.8661995-2.9013977-8.3862991c0-3.5488,0.9687042-6.3534999,2.9013977-8.415
			C138.570282,1.0303,141.2372894,0,144.6454773,0c3.3936005,0,6.0615234,1.0303,8.0068054,3.0913
			C154.5937805,5.1528001,155.5663757,7.9575,155.5663757,11.5063z M148.3251801,17.0967007
			c0.5342102-0.6714001,0.9277039-1.4654007,1.183609-2.3794003c0.2548981-0.9141006,0.3807983-1.9888,0.3807983-3.2241001
			c0-1.3257008-0.1455078-2.4517002-0.4384003-3.3824005c-0.2940063-0.9281998-0.6797028-1.6801-1.1524048-2.2538996
			c-0.4842987-0.5923004-1.0410004-1.0239-1.6717834-1.2910004c-0.6319122-0.2655997-1.2872162-0.4003997-1.9707184-0.4003997
			c-0.6914978,0-1.3417969,0.1289001-1.9541931,0.3866997c-0.6123047,0.2569003-1.175705,0.6822-1.6845093,1.2740002
			c-0.4745789,0.5551-0.8612976,1.3182998-1.1591949,2.2920003c-0.2998047,0.9741001-0.4481964,2.1040001-0.4481964,3.3880997
			c0,1.3155003,0.1434937,2.4345999,0.4315948,3.3593998c0.2910004,0.9253006,0.6699066,1.6781998,1.1464996,2.2616997
			c0.4746094,0.5834999,1.0263062,1.0132008,1.6621094,1.2905998c0.6366882,0.2772999,1.3046875,0.4150009,2.0058899,0.4150009
			c0.7031097,0,1.3720093-0.1401005,2.0068054-0.4228001C147.2978821,18.1289005,147.8534851,17.6898994,148.3251801,17.0967007z"/>
		<path class="st0" d="M180.1298828,22.5405006h-6.6728821L167.6972809,14.4438h-2.5292816v8.0967007h-5.4346161V0.4595h9.1582031
			c1.2528992,0,2.3291016,0.0732,3.2304993,0.2212c0.9003906,0.1484,1.7451019,0.4712,2.5301971,0.9643
			c0.7969055,0.4946001,1.429718,1.1352999,1.8984985,1.9214001c0.4725952,0.7860999,0.7070007,1.7715001,0.7070007,2.9575
			c0,1.6323996-0.3641968,2.9604998-1.0897827,3.9892998c-0.7246246,1.0283003-1.7598114,1.8838005-3.1075134,2.5658998
			L180.1298828,22.5405006z M171.6083832,7.2217002c0-0.5542002-0.1063843-1.0288-0.3251953-1.4238
			c-0.2187042-0.3956003-0.5937042-0.7071004-1.125-0.9341002c-0.3701019-0.1582003-0.8018036-0.2539001-1.2929993-0.2895999
			C168.3730011,4.54,167.796875,4.5219998,167.1435852,4.5219998h-1.9755859v5.9472003h1.6796875
			c0.868103,0,1.5975952-0.0448999,2.1884003-0.1342001c0.5879059-0.0879002,1.0811005-0.2911005,1.4776001-0.6084003
			c0.3798981-0.3056993,0.657196-0.6435995,0.8329926-1.0146999C171.5224762,8.3388996,171.6083832,7.8438001,171.6083832,7.2217002
			z"/>
		<path class="st0" d="M200,7.4277c0,0.9897995-0.1679993,1.9555998-0.5,2.8998995
			c-0.3320007,0.9463005-0.8057251,1.7383003-1.4199219,2.3804007c-0.8457031,0.8710995-1.7870789,1.5277996-2.8251953,1.9731998
			c-1.0370941,0.4442997-2.3301086,0.6665001-3.8740082,0.6665001h-3.3984985v7.1928005h-5.4637909V0.4595h8.9881897
			c1.3467102,0,2.4825134,0.1201,3.4082184,0.3618c0.9228821,0.2431999,1.7412872,0.6064,2.4521942,1.0903
			c0.8535004,0.5845,1.503891,1.3300999,1.9559937,2.2398C199.7714844,5.0615001,200,6.1543002,200,7.4277z M194.3515778,7.5546999
			c0-0.6205997-0.160202-1.1547999-0.4833984-1.6040001c-0.324295-0.4487-0.6963043-0.7621999-1.1210938-0.9399996
			c-0.5723114-0.2363-1.1260071-0.3686004-1.6670074-0.3920002c-0.5390778-0.0249-1.2597961-0.0372-2.160202-0.0372h-0.9375
			v6.5992002h1.5644989c0.9277039,0,1.6903992-0.0595999,2.2938995-0.1787004
			c0.6045074-0.1171999,1.1084137-0.3541002,1.5166016-0.7081003c0.3506165-0.3163996,0.6045074-0.6942997,0.7598114-1.1332998
			C194.2733765,8.7230997,194.3515778,8.1870003,194.3515778,7.5546999z"/>
	</g>
	<g>
		<g>
			<polygon class="st0" points="0,0.2007 0,10.2686005 9.8964863,0.2007 			"/>
			<polygon class="st0" points="0,22.7896004 8.9921865,22.7896004 0,13.6395998 			"/>
			<polygon class="st0" points="22.2060852,0.2007 12.4247866,0.2007 22.2060852,10.1484003 			"/>
			<polygon class="st0" points="22.2060852,13.9408998 13.5097866,22.7896004 22.2060852,22.7896004 			"/>
		</g>
		<g>
			<path class="st0" d="M5.8358865,6.2621999v11.1089001h10.9218998V6.2621999H5.8358865z M13.8788862,14.3511H8.6591864V9.0419998
				h5.2196999V14.3511z"/>
		</g>
	</g>
</g>
</svg>
