<?xml version="1.0" encoding="UTF-8"?> <svg xmlns="http://www.w3.org/2000/svg" id="Layer_1" data-name="Layer 1" viewBox="0 0 261.5 80.75"> <defs> <style>.cls-1{fill:#0098cf;}.cls-2{fill:#e84c38;}.cls-3,.cls-5{fill:#fff;}.cls-4{fill:#ffcf01;}.cls-5{stroke:#fff;stroke-miterlimit:10;stroke-width:0.82px;}</style> </defs> <title>Kopore-Metals-logo-white-101017</title> <path class="cls-1" d="M179,28c-7.32,1.59-14.64,1-21.87-.13a52.44,52.44,0,0,1-5.49-1.28,49.3,49.3,0,0,0-12.19-1.54L133.16,25c0,0.4,0,.81,0,1.22a25.74,25.74,0,0,0,.14,2.64L135.51,29c3.61,0.3,7.3.42,10.82,0.92,7.41,1.06,14.71,2.36,22.31,3,4.71,0.4,8.89.13,11.93-2.26a20.48,20.48,0,0,1,2-1.36q0.14-1.15.18-2.34C181.53,27.36,180.26,27.72,179,28Z"></path> <path class="cls-2" d="M168.31,39.84c-3.32.07-6.64,0-10,.12-5.31.13-10.62,0.43-15.93,0.46-1.62,0-3.23,0-4.85-.09a24.49,24.49,0,0,0,2.83,3.41,25,25,0,0,0,7.91,5.32,24.83,24.83,0,0,0,19.29,0,25,25,0,0,0,7.91-5.32,24.71,24.71,0,0,0,4.4-6A32.45,32.45,0,0,1,168.31,39.84Z"></path> <path class="cls-1" d="M155.6,36.7a11.45,11.45,0,0,0,2.19-.44c-1.41-.31-2.8-0.35-4.05-0.59-3.75-.72-7.44-1.53-11.16-2.29a33.45,33.45,0,0,0-8.63-.88,23.71,23.71,0,0,0,1.15,3.33c0.07,0.16.16,0.31,0.23,0.47,4,0.08,8,.21,12,0.29C150.07,36.66,152.83,36.71,155.6,36.7Z"></path> <path class="cls-3" d="M150.35,20.11a68.89,68.89,0,0,1,16-3,23.38,23.38,0,0,1,8.78,1,47.85,47.85,0,0,0,6.85,1.57,23.84,23.84,0,0,0-1.11-3.2A24.8,24.8,0,0,0,167.6,3.31a24.82,24.82,0,0,0-19.29,0,24.8,24.8,0,0,0-13.23,13.23A23.84,23.84,0,0,0,133.24,24,88.86,88.86,0,0,0,150.35,20.11Z"></path> <path class="cls-4" d="M158.59,20.78c-2.56,1.08-4.94,2.3-7.4,3.47l0.18,0.17c1.16,0,2.35,0,3.47.13,3.56,0.42,7,1,10.74,1.11a51,51,0,0,0,17-2.48c0-.17,0-0.33-0.06-0.5A57,57,0,0,1,167,20.46,12,12,0,0,0,158.59,20.78Z"></path> <path class="cls-3" d="M191.69,20.53a78.41,78.41,0,0,0,15.51-1c3.32-.63,6.38-1.71,9.61-2.51,2.12-.53,4.23-1.12,6.41-1.53a15.92,15.92,0,0,0-5.31-8.26,19.56,19.56,0,0,0-6.7-3.55,28.11,28.11,0,0,0-8.4-1.21H186.5v17.8Q189.06,20.5,191.69,20.53Z"></path> <path class="cls-3" d="M220.75,31.08A18.43,18.43,0,0,0,223,27a16.24,16.24,0,0,0,1-6c0-.44,0-0.85-0.06-1.27l-4.32,0c-3.53,0-6.73,2.9-9.57,4-5.61,2.28-11.15,2.61-16.61,5a27.38,27.38,0,0,0-6.89,4.5V49.8H201.6V42.17a1.19,1.19,0,0,1,2.22-.61l4.87,8.24h17.73l-8.87-15.6A15.32,15.32,0,0,0,220.75,31.08Z"></path> <path class="cls-3" d="M196.76,23.69c-5.79.45-6,.5-10.26,2v1.59c2-.83,4.09-1.56,6.28-2.24C194,24.62,195.21,24.21,196.76,23.69Z"></path> <path class="cls-3" d="M230.84,2.5h27.87V14.91H247.94a2,2,0,0,0-2,2v1.28a2,2,0,0,0,2,2H258.5V31.93H247.93a2,2,0,0,0-2,2v1.51a2,2,0,0,0,2,2h11.29V49.8H230.84V2.5Z"></path> <path class="cls-1" d="M78.27,30.21a29.93,29.93,0,0,0-13.09,3,52.43,52.43,0,0,1-11.56,4.11,9.17,9.17,0,0,0-5.31,3.26c-0.6.72-1.28,1.37-2,2,0.34,0.39.68,0.78,1,1.15,0.17,0.17.35,0.31,0.52,0.47,4.31-.69,8.61-1.4,12.93-2A62.6,62.6,0,0,1,75,41.66,20.36,20.36,0,0,1,82.26,44l0.24-.21a24.58,24.58,0,0,0,3.75-4.87c-4.44-2-9.09-2-13.9-1Q64.18,39.62,56,41.28a21.7,21.7,0,0,1-2.27.23l-0.15-.42c0.66-.35,1.31-0.75,2-1,7.77-3.25,15.78-5.84,24.21-6.31a43.65,43.65,0,0,1,8.59.66,23.72,23.72,0,0,0,.89-3.16A77.82,77.82,0,0,0,78.27,30.21Z"></path> <path class="cls-3" d="M43.58,38.76l1.54-1.06c3.73-2.52,7.54-4.75,12.09-5.43a11.92,11.92,0,0,0,5.54-2.6A43.68,43.68,0,0,1,69,25.44c4-2.1,8.12-3.7,12.74-2.72a46,46,0,0,1,5,1.61l3.07,1a24.06,24.06,0,0,0-1.93-8.82A24.81,24.81,0,0,0,74.59,3.31a24.82,24.82,0,0,0-19.29,0A24.81,24.81,0,0,0,42.07,16.54a24.15,24.15,0,0,0-1.95,9.65,24.15,24.15,0,0,0,1.95,9.65A26.22,26.22,0,0,0,43.58,38.76Z"></path> <path class="cls-2" d="M64.49,47.72c-3.38.23-6.75,0.5-10.1,0.9,0.31,0.14.6,0.31,0.91,0.44a24.83,24.83,0,0,0,18.46.33A19,19,0,0,0,64.49,47.72Z"></path> <path class="cls-3" d="M41.81,51.11c-2.4.72-4.82,1.52-6.46,3.64l0,0H49.49L46.26,50C44.77,50.3,43.29,50.66,41.81,51.11Z"></path> <path class="cls-3" d="M32.1,48.84a50.43,50.43,0,0,1,8.24-7.73l-10-15a3.32,3.32,0,0,1,.13-3.87L45.64,2.5H27.13l-6.84,8.36a1.18,1.18,0,0,1-2.09-.75V2.5H2.88V49.8H18.2V39.15a1.2,1.2,0,0,1,2.19-.66l9.19,13.79C30.38,51.09,31.2,49.93,32.1,48.84Z"></path> <path class="cls-3" d="M2.89,58.65H8l4.57,6.72a0.57,0.57,0,0,0,.94,0L18,58.65h5.1V78H17V72.41a0.43,0.43,0,0,0-.78-0.24l-2.7,4a0.57,0.57,0,0,1-.94,0l-2.72-4a0.43,0.43,0,0,0-.78.24V78H2.89V58.65Z"></path> <path class="cls-3" d="M165.39,58.65h5.1l4.57,6.72a0.57,0.57,0,0,0,.94,0l4.54-6.72h5.1V78h-6.17V72.41a0.43,0.43,0,0,0-.78-0.24l-2.7,4a0.57,0.57,0,0,1-.94,0l-2.72-4a0.43,0.43,0,0,0-.78.24V78h-6.17V58.65Z"></path> <path class="cls-3" d="M29.81,58.65H41.19v5.07H36.54a0.57,0.57,0,0,0-.57.57v1a0.57,0.57,0,0,0,.57.57H41.1v4.81H36.54a0.57,0.57,0,0,0-.57.57v1.1a0.57,0.57,0,0,0,.57.57h4.85V78H29.81V58.65Z"></path> <path class="cls-3" d="M224.52,58.65h11.39v5.07h-4.65a0.57,0.57,0,0,0-.57.57v1a0.57,0.57,0,0,0,.57.57h4.56v4.81h-4.56a0.57,0.57,0,0,0-.57.57v1.1a0.57,0.57,0,0,0,.57.57h4.85V78H224.52V58.65Z"></path> <path class="cls-3" d="M50.33,63.72h-4V58.65h15.5v5.07h-4a0.57,0.57,0,0,0-.57.57V78H50.9V64.29A0.57,0.57,0,0,0,50.33,63.72Z"></path> <path class="cls-3" d="M207.93,63.72h-4V58.65h15.5v5.07h-4a0.57,0.57,0,0,0-.57.57V78H208.5V64.29A0.57,0.57,0,0,0,207.93,63.72Z"></path> <path class="cls-3" d="M69.77,58.65h4.64L81.73,78H75.65l-0.5-1.37a0.57,0.57,0,0,0-.53-0.37H69.56a0.57,0.57,0,0,0-.53.37L68.52,78H62.44Zm3.39,12.72L72.5,69.67a0.44,0.44,0,0,0-.83,0L71,71.38a0.44,0.44,0,0,0,.42.6h1.31A0.44,0.44,0,0,0,73.16,71.38Z"></path> <path class="cls-3" d="M86.24,58.65h6.43V72.34a0.57,0.57,0,0,0,.57.57H98V78H86.24V58.65Z"></path> <path class="cls-3" d="M134.19,58.65h6.43V72.34a0.57,0.57,0,0,0,.57.57H146V78H134.19V58.65Z"></path> <path class="cls-3" d="M152.18,58.65h6.55V78h-6.55V58.65Z"></path> <path class="cls-3" d="M192.3,58.65h6.55V78H192.3V58.65Z"></path> <path class="cls-3" d="M242.48,78V58.65h5.36a17.7,17.7,0,0,1,4.85.61,9.73,9.73,0,0,1,3.59,1.83,7.88,7.88,0,0,1,2.23,3,11.8,11.8,0,0,1,0,8.37,7.87,7.87,0,0,1-2.23,3,9.87,9.87,0,0,1-3.59,1.84,17.27,17.27,0,0,1-4.85.62h-5.36Zm6.17-6.1a0.57,0.57,0,0,0,.59.57,4.61,4.61,0,0,0,2.77-1,3.94,3.94,0,0,0,1.19-3.14A3.89,3.89,0,0,0,252,65.17a4.65,4.65,0,0,0-2.77-1,0.57,0.57,0,0,0-.59.57v7.13Z"></path> <path class="cls-3" d="M128.77,12.18a14.88,14.88,0,0,0-4.65-5.57,20,20,0,0,0-6.88-3.12,34.58,34.58,0,0,0-8.47-1H93.66V49.8h15.11V40.46a2,2,0,0,1,1.87-2,33.25,33.25,0,0,0,6.6-.95,19.91,19.91,0,0,0,6.88-3.12,14.87,14.87,0,0,0,4.65-5.57,18.63,18.63,0,0,0,1.7-8.33A18.64,18.64,0,0,0,128.77,12.18Zm-15.07,12.2q-1.31,1.38-4.29,1.38h-0.11a0.53,0.53,0,0,1-.53-0.48V15.75a0.53,0.53,0,0,1,.53-0.49h0.11q3,0,4.29,1.38A5.38,5.38,0,0,1,115,20.51,5.39,5.39,0,0,1,113.69,24.38Z"></path> <path class="cls-5" d="M102.89,71.53h4.88a0.54,0.54,0,0,1,.52.43,3.14,3.14,0,0,0,3.11,2.44,2.66,2.66,0,0,0,1.85-.59,1.78,1.78,0,0,0,.65-1.36,1.76,1.76,0,0,0-.62-1.32,7,7,0,0,0-2.87-1.1,12,12,0,0,1-5.26-2.29,4.7,4.7,0,0,1-1.58-3.65,5.11,5.11,0,0,1,.81-2.75,5.43,5.43,0,0,1,2.44-2,11,11,0,0,1,4.46-.74,8.83,8.83,0,0,1,5.3,1.35,5.89,5.89,0,0,1,2.17,4.29l-4.86,0a0.53,0.53,0,0,1-.51-0.38,2.09,2.09,0,0,0-.8-1.12,2.77,2.77,0,0,0-1.86-.58,2.18,2.18,0,0,0-1.47.43,1.34,1.34,0,0,0-.49,1,1.07,1.07,0,0,0,.41.81,4.46,4.46,0,0,0,1.88.7,22.86,22.86,0,0,1,5.26,1.67,5.62,5.62,0,0,1,2.31,2.1,5.49,5.49,0,0,1,.72,2.8,6.17,6.17,0,0,1-1,3.35,6.1,6.1,0,0,1-2.7,2.33,10.5,10.5,0,0,1-4.37.79q-4.63,0-6.41-1.86A7.46,7.46,0,0,1,102.89,71.53Z"></path> </svg> 