<?xml version="1.0" encoding="utf-8"?>
<!-- Generator: Adobe Illustrator 19.2.1, SVG Export Plug-In . SVG Version: 6.00 Build 0)  -->
<svg version="1.1" id="Layer_1" xmlns="http://www.w3.org/2000/svg" xmlns:xlink="http://www.w3.org/1999/xlink" x="0px" y="0px"
	 width="109px" height="31px" viewBox="0 0 109 31" style="enable-background:new 0 0 109 31;" xml:space="preserve">
<style type="text/css">
	.st0{fill:#F37124;}
</style>
<g>
	<path class="st0" d="M3.4,30.3H1v-16h2.4v1.1c0.9-0.9,2-1.4,3.2-1.4c1.4,0,2.6,0.5,3.5,1.6c0.9,1,1.4,2.4,1.4,3.9
		c0,1.6-0.5,2.8-1.4,3.9C9.2,24.4,8,25,6.6,25c-1.2,0-2.3-0.5-3.3-1.5V30.3z M9.1,19.5c0-1-0.3-1.8-0.8-2.4
		c-0.5-0.6-1.2-0.9-2.1-0.9c-0.9,0-1.6,0.3-2.1,0.9c-0.5,0.6-0.8,1.4-0.8,2.4c0,1,0.3,1.8,0.8,2.4c0.5,0.6,1.2,0.9,2.1,0.9
		c0.8,0,1.5-0.3,2.1-0.9C8.8,21.3,9.1,20.5,9.1,19.5 M12.5,19.4c0-1.5,0.5-2.8,1.6-3.8c1.1-1,2.4-1.6,3.9-1.6c1.5,0,2.9,0.5,3.9,1.6
		c1.1,1.1,1.6,2.4,1.6,3.9c0,1.6-0.5,2.9-1.6,3.9c-1.1,1-2.4,1.6-4,1.6c-1.5,0-2.9-0.5-3.9-1.6C13,22.3,12.5,21,12.5,19.4
		 M14.9,19.5c0,1,0.3,1.9,0.8,2.5c0.6,0.6,1.3,0.9,2.2,0.9c0.9,0,1.7-0.3,2.2-0.9c0.6-0.6,0.8-1.4,0.8-2.4c0-1-0.3-1.8-0.8-2.4
		c-0.6-0.6-1.3-0.9-2.2-0.9c-0.9,0-1.7,0.3-2.2,0.9C15.2,17.7,14.9,18.5,14.9,19.5 M25.8,14.3l2.7,5.9l2.9-6.9l2.9,6.9l2.7-5.9h2.7
		l-5.4,11.1l-2.9-6.7l-2.9,6.7l-5.4-11.1H25.8z M49.4,20.1H42c0.1,0.8,0.3,1.5,0.8,2c0.5,0.5,1.1,0.7,1.9,0.7c0.6,0,1.1-0.1,1.5-0.4
		c0.4-0.3,0.8-0.8,1.3-1.6l2,1.1c-0.3,0.5-0.6,1-1,1.4c-0.3,0.4-0.7,0.7-1.1,0.9c-0.4,0.2-0.8,0.4-1.3,0.5c-0.5,0.1-1,0.2-1.5,0.2
		c-1.5,0-2.8-0.5-3.7-1.5c-0.9-1-1.4-2.3-1.4-4c0-1.6,0.5-3,1.4-4c0.9-1,2.1-1.5,3.6-1.5c1.5,0,2.7,0.5,3.6,1.5c0.9,1,1.3,2.3,1.3,4
		L49.4,20.1z M46.9,18.1c-0.3-1.3-1.1-1.9-2.4-1.9c-0.3,0-0.6,0-0.8,0.1c-0.3,0.1-0.5,0.2-0.7,0.4c-0.2,0.2-0.4,0.4-0.5,0.6
		c-0.2,0.2-0.3,0.5-0.3,0.8H46.9z M50.9,14.3h2.4v0.9c0.4-0.5,0.8-0.8,1.2-0.9c0.3-0.2,0.8-0.3,1.2-0.3c0.6,0,1.3,0.2,2,0.6
		l-1.1,2.2c-0.5-0.3-0.9-0.5-1.3-0.5c-1.3,0-2,1-2,3v5.4h-2.4V14.3z M68.7,19.4c0-1.5,0.5-2.8,1.6-3.8c1.1-1,2.4-1.6,3.9-1.6
		c1.5,0,2.9,0.5,3.9,1.6c1.1,1.1,1.6,2.4,1.6,3.9c0,1.6-0.5,2.9-1.6,3.9c-1.1,1-2.4,1.6-4,1.6c-1.6,0-2.9-0.5-3.9-1.6
		C69.3,22.3,68.7,21,68.7,19.4 M71.2,19.5c0,1,0.3,1.9,0.8,2.5c0.6,0.6,1.3,0.9,2.2,0.9c0.9,0,1.7-0.3,2.2-0.9
		c0.6-0.6,0.8-1.4,0.8-2.4c0-1-0.3-1.8-0.8-2.4c-0.6-0.6-1.3-0.9-2.2-0.9c-0.9,0-1.7,0.3-2.2,0.9C71.5,17.7,71.2,18.5,71.2,19.5
		 M83.2,14.3v5.9c0,1.7,0.7,2.6,2,2.6c1.3,0,2-0.9,2-2.6v-5.9h2.4v6c0,0.8-0.1,1.5-0.3,2.1c-0.2,0.5-0.5,1-1,1.5
		c-0.8,0.7-1.8,1-3.1,1c-1.2,0-2.3-0.4-3.1-1c-0.5-0.4-0.8-0.9-1.1-1.5c-0.2-0.5-0.3-1.2-0.3-2.1v-6H83.2z M97.1,16.1l-2,1.1
		c-0.3-0.6-0.7-1-1.2-1c-0.2,0-0.4,0.1-0.6,0.2c-0.2,0.1-0.2,0.3-0.2,0.6c0,0.4,0.5,0.8,1.4,1.2c1.3,0.5,2.1,1,2.6,1.5
		c0.4,0.5,0.7,1.1,0.7,1.9c0,1-0.4,1.8-1.1,2.5c-0.7,0.6-1.6,1-2.6,1c-1.7,0-3-0.8-3.7-2.5l2-0.9c0.3,0.5,0.5,0.8,0.6,0.9
		c0.3,0.3,0.6,0.4,1,0.4c0.8,0,1.2-0.4,1.2-1.1c0-0.4-0.3-0.8-0.9-1.2c-0.2-0.1-0.5-0.2-0.7-0.3c-0.2-0.1-0.5-0.2-0.7-0.4
		c-0.7-0.3-1.2-0.7-1.5-1c-0.4-0.4-0.5-1-0.5-1.7c0-0.9,0.3-1.6,0.9-2.2c0.6-0.6,1.4-0.9,2.3-0.9C95.5,14,96.5,14.7,97.1,16.1
		 M108.3,20.1h-7.4c0.1,0.8,0.3,1.5,0.8,2c0.5,0.5,1.1,0.7,1.9,0.7c0.6,0,1.1-0.1,1.5-0.4c0.4-0.3,0.8-0.8,1.3-1.6l2,1.1
		c-0.3,0.5-0.6,1-1,1.4c-0.3,0.4-0.7,0.7-1.1,0.9c-0.4,0.2-0.8,0.4-1.3,0.5c-0.5,0.1-1,0.2-1.5,0.2c-1.5,0-2.8-0.5-3.7-1.5
		c-0.9-1-1.4-2.3-1.4-4c0-1.6,0.5-3,1.4-4c0.9-1,2.1-1.5,3.6-1.5c1.5,0,2.7,0.5,3.6,1.5c0.9,1,1.3,2.3,1.3,4L108.3,20.1z
		 M105.8,18.1c-0.3-1.3-1.1-1.9-2.4-1.9c-0.3,0-0.6,0-0.8,0.1c-0.3,0.1-0.5,0.2-0.7,0.4c-0.2,0.2-0.4,0.4-0.5,0.6
		c-0.1,0.2-0.3,0.5-0.3,0.8H105.8z M58.5,10v14.7h2.1v-7h4.5v7h2.1V1h-2.1v14.6h-4.5V10H58.5z"/>
</g>
</svg>
