<?xml version="1.0" encoding="utf-8"?>
<!-- Generator: Adobe Illustrator 21.0.2, SVG Export Plug-In . SVG Version: 6.00 Build 0)  -->
<svg version="1.1" id="Layer_1" xmlns="http://www.w3.org/2000/svg" xmlns:xlink="http://www.w3.org/1999/xlink" x="0px" y="0px"
	 viewBox="0 0 72.9 70.9" style="enable-background:new 0 0 72.9 70.9;" xml:space="preserve">
<style type="text/css">
	.st0{fill:#005387;}
	.st1{fill:#FFCF46;}
	.st2{fill:#96A9C9;}
</style>
<path class="st0" d="M70.7,55.8L36.4,0L2.2,55.8C0.8,57.9,0,59.9,0,62c0,3.9,3.1,6.7,8.3,8.7c-3.8-2.5-6.1-5.4-6.1-8.7
	c0-8.4,15.3-15.2,34.1-15.2S70.4,53.6,70.4,62c0,3.3-2.4,6.4-6.4,8.9c5.6-1.9,9-4.8,9-8.9C72.9,59.9,72.1,57.9,70.7,55.8"/>
<path class="st1" d="M36.4,41.6c-9.5-12.8,0-23.1,0-23.1l0,0C36.4,18.5,45.9,28.7,36.4,41.6L36.4,41.6z"/>
<path class="st2" d="M41.8,46.9c2.2,0,4-1.8,4-3.9c0-2.2-1.8-3.9-4-3.9H31.1c-2.2,0-4,1.8-4,3.9c0,2.2,1.8,3.9,4,3.9H41.8z"/>
<path class="st0" d="M59.7,67.5c4.9,0,5.3-4.6,1.9-6.1c-1.2-0.5-9.3-4.1-9.3-4.1h10.1c-0.2-1.5-1.2-2.5-2.7-2.5c0,0-5.8,0-6.9,0
	c-5.1,0-5.1,4.5-2,5.9c1.7,0.8,9.1,4.1,9.1,4.1H47.7c0,0.3,2.1,2.7,4.3,2.7H59.7z"/>
<path class="st0" d="M35.8,64.8c4.2,0,10.1,0,10.1,0c0,0.3-2.1,2.7-4.3,2.7c-0.8,0-6.3,0-7.4,0c-1.7,0-2.7-1.2-2.7-2.9
	c0-0.5,0-9.8,0-9.8h4.3V64.8z"/>
<path class="st0" d="M21.4,54.8L21.4,54.8h-5.5l0,0L8.2,67.6c2,0,4.6-0.6,5.7-2.6c0.1-0.1,0.2-0.3,0.3-0.5H23
	c0.2,0.3,0.3,0.5,0.3,0.5c1.2,2,3.7,2.6,5.7,2.6L21.4,54.8z M15.8,61.8c1.3-2.2,2.8-4.7,2.8-4.7l0,0c0.2,0.3,1.6,2.6,2.8,4.7H15.8z"
	/>
</svg>
