<?xml version="1.0" encoding="utf-8"?>
<!-- Generator: Adobe Illustrator 21.0.2, SVG Export Plug-In . SVG Version: 6.00 Build 0)  -->
<svg version="1.1" id="Layer_1" xmlns="http://www.w3.org/2000/svg" xmlns:xlink="http://www.w3.org/1999/xlink" x="0px" y="0px"
	 viewBox="0 0 405.7 123.5" style="enable-background:new 0 0 405.7 123.5;" xml:space="preserve">
<style type="text/css">
	.st0{fill:#1E4388;}
	.st1{fill:url(#SVGID_1_);}
</style>
<g>
	<path class="st0" d="M11.6,102.2c-2.8,0-5.6,2.5-6.2,5.7c-0.6,3.2,1.2,5.7,4,5.7c2.8,0,5.6-2.5,6.2-5.7
		C16.2,104.6,14.4,102.2,11.6,102.2 M8.9,115.8c-2.1,0-3.8-1-4.8-2.6l-1.7,9H0l2.8-14.4c0.9-4.5,4.9-8,9.2-8c4.2,0,7,3.4,6.1,8
		C17.2,112.4,13.2,115.8,8.9,115.8"/>
	<path class="st0" d="M28.3,102.1c-2.8,0-5.6,2.5-6.3,5.7c-0.6,3.2,1.2,5.7,4.1,5.7c2.8,0,5.6-2.5,6.2-5.7
		C33,104.7,31.1,102.1,28.3,102.1 M33.4,115.4H31l0.5-2.4c-1.5,1.7-3.6,2.8-5.8,2.8c-4.2,0-6.9-3.4-6-8c0.9-4.6,5-8,9.2-8
		c4.3,0,6.9,3.5,6.1,8L33.4,115.4z"/>
	<path class="st0" d="M50.3,100.2l-3.2,16.4c-0.8,4-4,6.4-7.6,6.4c-3.2,0-5.3-1.9-5.3-5h2.5c0.2,1.6,1.3,2.6,3.2,2.6
		c2.3,0,4.2-1.6,4.6-3.9l0.4-2.3c-1.1,1-2.5,1.5-4.1,1.5c-3.6,0-5.9-2.5-5.1-6.4l1.8-9.2h2.5l-1.8,9.2c-0.4,2.3,0.7,3.9,3.1,3.9
		c2.3,0,4.2-1.7,4.6-3.9l1.8-9.2H50.3z"/>
	<path class="st0" d="M70.4,115.4h-2.5l1.9-9.9c0.4-2-0.6-3.5-2.6-3.5c-2,0-3.6,1.5-4,3.5l-1.9,9.9h-2.5l1.9-9.9
		c0.4-2-0.6-3.5-2.6-3.5c-2,0-3.6,1.5-4,3.5l-1.9,9.9h-2.5l1.9-9.8c0.6-3.3,3.5-5.9,7-5.9c2.1,0,3.5,1,4.1,2.5
		c1.2-1.5,3-2.5,5.1-2.5c3.5,0,5.3,2.5,4.7,5.9L70.4,115.4z"/>
	<path class="st0" d="M76.1,108.8l10.2-4c-0.6-1.7-2.1-2.7-3.8-2.7c-2.4,0-5.6,2.1-6.2,5.6C76.2,108.2,76.1,108.5,76.1,108.8
		 M88.2,110.7c-1.8,3.3-4.7,5.1-8.2,5.1c-4.4,0-7.1-3.5-6.3-8c0.9-4.4,5-8,9.2-8c3.3,0,6.1,2.3,6.2,6.3L76.5,111
		c0.7,1.5,2.2,2.4,3.9,2.4c2.2,0,3.9-0.9,5.2-2.7H88.2z"/>
	<path class="st0" d="M91.6,115.4h-2.5l1.8-9.3c0.7-3.8,4-6.4,7.6-6.4c3.6,0,5.8,2.5,5.1,6.4l-1.8,9.3h-2.5l1.8-9.3
		c0.4-2.3-0.7-3.9-3.1-3.9c-2.4,0-4.2,1.7-4.6,3.9L91.6,115.4z"/>
	<path class="st0" d="M109.8,115.4c-3.6,0.4-5.7-1.7-4.9-5.6l2.5-12.9h2.5l-0.6,3.3h3.5l-0.5,2.4h-3.5l-1.4,7.3
		c-0.5,2.7,1,3.4,2.9,3.3L109.8,115.4z"/>
	<path class="st0" d="M125.5,115.8c-3.7,0-6-2-5.8-5.2h2.5c0,1.8,1.5,2.9,3.7,2.9c2.4,0,4-1.2,4.3-2.5c0.2-1.1-0.1-1.9-3.7-2.4
		c-3.6-0.5-5.7-1.4-5.1-4.3c0.4-2.2,2.8-4.5,6.9-4.5c3.5,0,5.5,1.8,5.3,4.8h-2.5c0-1.6-1.3-2.5-3.2-2.5c-2,0-3.6,0.9-3.9,2.1
		c-0.2,1.1,0.6,1.5,3.5,2c3.3,0.5,5.9,1.2,5.2,4.6C132.1,113.9,129.2,115.8,125.5,115.8"/>
	<path class="st0" d="M147.5,107.9c0.6-3.1-1.2-5.7-4.1-5.7c-2.8,0-5.6,2.5-6.2,5.7c-0.6,3,1.2,5.5,4,5.5
		C144.1,113.4,146.9,110.9,147.5,107.9 M150,107.9c-0.9,4.4-4.9,8-9.2,8c-4.3,0-7-3.6-6.1-8c0.9-4.4,4.9-8,9.2-8
		C148.3,99.8,150.9,103.4,150,107.9"/>
	<path class="st0" d="M155.1,93.4h2.5l-3.2,16.4c-0.5,2.7,1,3.4,2.9,3.3l-0.5,2.4c-3.7,0.4-5.7-1.7-5-5.6L155.1,93.4z"/>
	<path class="st0" d="M170.2,100.2h2.5l-1.8,9.2c-0.7,3.8-4,6.4-7.6,6.4c-3.6,0-5.9-2.5-5.1-6.4l1.8-9.2h2.5l-1.8,9.2
		c-0.4,2.3,0.7,3.9,3.1,3.9c2.3,0,4.2-1.7,4.6-3.9L170.2,100.2z"/>
	<path class="st0" d="M177.8,115.4c-3.6,0.4-5.7-1.7-4.9-5.6l2.5-12.9h2.5l-0.6,3.3h3.5l-0.5,2.4h-3.5l-1.4,7.3
		c-0.5,2.7,1,3.4,2.9,3.3L177.8,115.4z"/>
	<path class="st0" d="M182,115.4h-2.5l3-15.2h2.5L182,115.4z M182.8,97.9l0.4-1.9c0.1-0.7,0.8-1.2,1.5-1.2c0.7,0,1.2,0.5,1,1.2
		l-0.4,1.9H182.8z"/>
	<path class="st0" d="M198.3,107.9c0.6-3.1-1.2-5.7-4.1-5.7c-2.8,0-5.6,2.5-6.2,5.7c-0.6,3,1.2,5.5,4,5.5
		C194.9,113.4,197.7,110.9,198.3,107.9 M200.8,107.9c-0.9,4.4-4.9,8-9.2,8c-4.3,0-7-3.6-6.1-8c0.9-4.4,4.9-8,9.2-8
		C199,99.8,201.7,103.4,200.8,107.9"/>
	<path class="st0" d="M203.6,115.4h-2.5l1.8-9.3c0.7-3.8,4-6.4,7.6-6.4c3.6,0,5.8,2.5,5.1,6.4l-1.8,9.3h-2.5l1.8-9.3
		c0.4-2.3-0.7-3.9-3.1-3.9c-2.4,0-4.2,1.7-4.6,3.9L203.6,115.4z"/>
	<path class="st0" d="M221.7,115.8c-3.7,0-6-2-5.8-5.2h2.5c0,1.8,1.5,2.9,3.7,2.9c2.4,0,4-1.2,4.3-2.5c0.2-1.1,0-1.9-3.7-2.4
		c-3.6-0.5-5.7-1.4-5.1-4.3c0.4-2.2,2.8-4.5,6.9-4.5c3.5,0,5.5,1.8,5.3,4.8h-2.5c0-1.6-1.3-2.5-3.2-2.5c-2,0-3.6,0.9-3.9,2.1
		c-0.2,1.1,0.6,1.5,3.5,2c3.3,0.5,5.9,1.2,5.3,4.6C228.3,113.9,225.3,115.8,221.7,115.8"/>
	<path class="st0" d="M260,115.4h-2.5l1.8-9.5c0.5-2.4-0.4-3.8-2.7-3.8c-2.1,0-3.9,1.7-4.4,4l-1.8,9.3H248l1.8-9.5
		c0.5-2.4-0.4-3.8-2.7-3.8c-2.1,0-3.9,1.7-4.4,4l-1.8,9.3h-2.5l3-15.2h2.4l-0.3,1.7c1.2-1.3,2.8-2,4.4-2c2.2,0,3.6,1,4.2,2.6
		c1.3-1.6,3.1-2.6,5.3-2.6c3.5,0,5.2,2.4,4.4,6.2L260,115.4z"/>
	<path class="st0" d="M272.7,102.2c-2.9,0-5.6,2.5-6.2,5.7c-0.6,3,1.2,5.6,4,5.6c2.8,0,5.7-2.5,6.3-5.6
		C277.4,104.8,275.5,102.2,272.7,102.2 M277.8,115.4h-2.4l0.5-2.5c-1.4,1.6-3.6,2.8-5.8,2.8c-4.4,0-6.9-3.6-6.1-8
		c0.9-4.4,4.8-8,9.2-8c2.2,0,4,1.3,4.7,2.8l0.5-2.4h2.4L277.8,115.4z"/>
	<path class="st0" d="M290.6,102.2c-2.9,0-5.6,2.5-6.2,5.7c-0.6,3,1.2,5.6,4,5.6c2.8,0,5.7-2.5,6.3-5.6
		C295.3,104.8,293.5,102.2,290.6,102.2 M295.8,115.4h-2.4l0.5-2.5c-1.4,1.6-3.6,2.8-5.8,2.8c-4.4,0-6.9-3.6-6.1-8
		c0.9-4.4,4.8-8,9.2-8c2.2,0,3.8,1.2,4.7,2.7l1.8-9.1h2.5L295.8,115.4z"/>
	<path class="st0" d="M312.7,106.2c-0.1-2.5-1.9-4.1-4.1-4.1c-2.1,0-4.6,1.5-5.8,4.1H312.7z M314.3,110.7c-1.7,3.3-4.7,5.1-8.2,5.1
		c-4.4,0-7.1-3.5-6.3-8c0.9-4.4,5-8,9.2-8c3.9,0,7.1,3.3,6,8.7h-12.8c-0.3,3.2,1.8,5,4.3,5c2.2,0,3.9-1,5.1-2.8H314.3z"/>
	<path class="st0" d="M337.4,106.2c-0.1-2.5-1.9-4.1-4.1-4.1c-2.1,0-4.6,1.5-5.8,4.1H337.4z M339,110.7c-1.7,3.3-4.7,5.1-8.2,5.1
		c-4.4,0-7.1-3.5-6.3-8c0.9-4.4,5-8,9.2-8c3.9,0,7.1,3.3,6,8.7h-12.8c-0.3,3.2,1.8,5,4.3,5c2.2,0,3.9-1,5.1-2.8H339z"/>
	<path class="st0" d="M350,102.2c-2.9,0-5.6,2.5-6.2,5.7c-0.6,3,1.2,5.6,4,5.6c2.8,0,5.7-2.5,6.3-5.6
		C354.6,104.8,352.8,102.2,350,102.2 M355.1,115.4h-2.4l0.5-2.5c-1.4,1.6-3.6,2.8-5.8,2.8c-4.4,0-6.9-3.6-6.1-8c0.9-4.4,4.8-8,9.2-8
		c2.2,0,4,1.3,4.7,2.8l0.5-2.4h2.4L355.1,115.4z"/>
	<path class="st0" d="M364.3,115.8c-3.7,0-6-2-5.8-5.2h2.5c0,1.8,1.5,2.9,3.7,2.9c2.4,0,4-1.2,4.3-2.5c0.2-1.1-0.1-1.9-3.7-2.4
		c-3.6-0.5-5.7-1.4-5.1-4.3c0.4-2.2,2.8-4.5,6.9-4.5c3.5,0,5.5,1.8,5.3,4.8h-2.5c0-1.6-1.3-2.5-3.2-2.5c-2,0-3.6,0.9-3.9,2.1
		c-0.2,1.1,0.6,1.5,3.5,2c3.3,0.5,5.9,1.2,5.3,4.6C370.9,113.9,367.9,115.8,364.3,115.8"/>
	<path class="st0" d="M388.6,100.2l-3.2,16.4c-0.8,4-4,6.4-7.6,6.4c-3.2,0-5.3-1.9-5.3-5h2.5c0.2,1.6,1.3,2.6,3.2,2.6
		c2.3,0,4.2-1.6,4.6-3.9l0.4-2.3c-1.1,1-2.5,1.5-4.1,1.5c-3.6,0-5.9-2.5-5.1-6.4l1.8-9.2h2.5l-1.8,9.2c-0.4,2.3,0.7,3.9,3.1,3.9
		c2.3,0,4.2-1.7,4.6-3.9l1.8-9.2H388.6z"/>
	<path class="st0" d="M33.5,63.5c-12.5,0-20.5-6.6-19.9-17.2h12.8c0.9,4.2,5.6,5.7,9.4,5.7c5.1,0,9.2-1.5,9.8-4.4
		c0.6-2.8-0.9-3.9-9.3-5.3c-8.5-1.3-19.8-3.7-17.6-14.7c1.5-7.7,10-15.8,24.2-15.8c11.3,0,18.5,6.1,18.3,15.4H48
		c-0.3-2.3-2.7-4.1-7.4-4.1c-5.8,0-8.7,2.1-9,3.9c-0.5,2.6,2.9,3.4,8.9,4.4c11.8,2,20.1,4.7,18,15.4C56.5,56.7,46.1,63.5,33.5,63.5"
		/>
	<path class="st0" d="M134.3,62.4h-12.6l5.8-28.8c0.6-2.8,0.9-9.4-7.4-9.4c-5.5,0-10.3,3.8-11.4,9.4l-5.8,28.8H90.2L96,33.6
		c0.6-2.8,1-9.4-7.3-9.4c-5.6,0-10.3,3.8-11.4,9.4l-5.8,28.8H58.9l5.7-28.5c2.5-12.5,13.1-22,26.6-22c6.7,0,11.6,2.7,14.3,7
		c4.6-4.3,10.7-7,17.1-7c13.8,0,20.1,9.1,17.5,22L134.3,62.4z"/>
	<path class="st0" d="M171.1,23.8c-7,0-13.8,6-15.5,14.2c-1.6,7.8,2.9,13.9,9.8,13.9c7,0,13.9-6.2,15.4-13.9
		C182.4,30.1,178.1,23.8,171.1,23.8 M188.6,62.4h-12l1-5.2c-4.6,4.1-10.3,6.2-16.3,6.2c-13,0-21.3-11.5-18.5-25.6
		c2.9-14.3,15.6-25.9,30.5-25.9c14.8,0,22.9,11.7,20.1,25.9L188.6,62.4z"/>
	<linearGradient id="SVGID_1_" gradientUnits="userSpaceOnUse" x1="323.1305" y1="86.3006" x2="323.1305" y2="11.6536">
		<stop  offset="0" style="stop-color:#CFDD3E"/>
		<stop  offset="4.059090e-02" style="stop-color:#CFDD3E"/>
		<stop  offset="0.9754" style="stop-color:#3BAE4B"/>
		<stop  offset="1" style="stop-color:#3BAE4B"/>
	</linearGradient>
	<path class="st1" d="M393.5,13.3l-5.4,27.8c-1,5.4-5.6,9.3-11.1,9.3c-8,0-7.6-6.7-7.1-9.3l5.4-27.8h-12.2l-5.4,27.8
		c-2.4,12.5,3.7,20.9,15.4,20.9c4.3,0,8.3-1.5,11.7-3.9l-1.1,5.5c-0.9,4.4-4.1,9.2-10.7,9.2c-4.2,0-7-1.8-7-5.3h-12.7
		c-0.2,9.8,7,16.6,17.5,16.6c12.8,0,22.8-8.5,25.3-21.4l9.6-49.6H393.5z M316.8,37.9c1.6-8.1,8.5-14.2,15.5-14.2
		c7,0,11.4,6.3,9.8,14.2c-1.5,7.6-8.4,13.9-15.4,13.9C319.7,51.8,315.3,45.8,316.8,37.9 M304.1,37.8c-2.8,14.2,5.5,25.6,18.5,25.6
		c5.9,0,11.7-2.1,16.3-6.2l-1,5.2h12l4.9-24.6c2.9-14.3-5.2-25.9-20.1-25.9C319.8,11.9,307,23.6,304.1,37.8 M262.5,37.3
		c1.5-7.7,8.4-13.9,15.4-13.9c7,0,11.5,6,10,13.9c-1.6,8.1-8.4,14.2-15.5,14.2C265.4,51.5,261,45.1,262.5,37.3 M249.7,37.3
		l-9.1,46.9h12.8l5.2-26.7c3,3.8,7.5,5.8,13.3,5.8c13.1,0,25.9-11.6,28.7-26c2.8-14.2-5.5-25.9-20.4-25.9
		C265.2,11.4,252.5,23,249.7,37.3"/>
	<path class="st0" d="M224.7,23.8l1.5-7.4L227,12c-15.2-1.3-26.2,8.3-28.9,21.9l-5.7,28.5H205l5.7-28.5
		C212,27.4,217.6,23.2,224.7,23.8"/>
	<path class="st0" d="M236.4,41.7l3.5-17.4l0-0.2l17-12.2h-14.5l2.3-11.3H232l-8.2,41c-2.7,13.5,3.2,22.2,18,20.7l1.7-8.4l0.6-3.1
		C237.7,51.2,235.1,48.6,236.4,41.7"/>
</g>
</svg>
