<?xml version="1.0" encoding="UTF-8"?>
<svg width="85px" height="40px" viewBox="0 0 85 40" version="1.1" xmlns="http://www.w3.org/2000/svg" xmlns:xlink="http://www.w3.org/1999/xlink">
    <!-- Generator: Sketch 49.1 (51147) - http://www.bohemiancoding.com/sketch -->
    <title>logo/apn</title>
    <desc>Created with Sketch.</desc>
    <defs>
        <path d="M0,25.5811383 C0,19.1928639 1.82174917,14.8920558 8.96074234,12.6966703 L9.36412447,13.9762841 C6.06614905,15.470648 5.07855205,18.4294487 5.3203274,20.5930933 L9.74193247,20.5930933 L9.74193247,28.9313502 L0,28.9313502 L0,25.5811383 Z M16.0638048,0 L26.8170946,28.9312414 L19.690435,28.9312414 L8.67197224,0 L16.0638048,0 Z M41.1886714,14.691181 C44.348619,14.691181 46.1953982,12.803592 46.1953982,10.3414011 L46.1953982,10.2592374 C46.1953982,7.42758189 44.2258269,5.9092762 41.0656979,5.9092762 L36.1823073,5.9092762 L36.1823073,14.691181 L41.1886714,14.691181 Z M29.8627748,0.204973988 L41.5993086,0.204973988 C48.4522705,0.204973988 52.5974572,4.26763425 52.5974572,10.1360825 L52.5974572,10.2180649 C52.5974572,16.8662523 47.4265843,20.3135008 40.9837155,20.3135008 L36.1823073,20.3135008 L36.1823073,28.9312595 L29.8627748,28.9312595 L29.8627748,0.204973988 Z M62.9333445,0.20511909 L81.8079645,28.9312233 L74.6582701,28.9312233 L63.3436189,11.578355 L63.3436189,28.9312233 L57.1062501,28.9312233 L57.1062501,0.20511909 L62.9333445,0.20511909 Z M75.218253,0.20511909 L84.4514234,0.20511909 L84.4514234,3.38030238 C84.4514234,9.33091437 82.780217,13.3689074 76.3005288,15.4814037 L75.5764723,14.3791765 C78.7019584,12.962986 79.6380443,10.1588997 79.4089654,8.10825296 L75.218253,8.10825296 L75.218253,0.20511909 Z M26.4717168,37.5465152 L26.4717168,34.4010777 L27.6827701,34.4010777 L27.6827701,37.515137 C27.6827701,38.4116828 28.1309523,38.8754635 28.870063,38.8754635 C29.6093551,38.8754635 30.0575373,38.4272813 30.0575373,37.5544958 L30.0575373,34.4010777 L31.2685906,34.4010777 L31.2685906,37.5073378 C31.2685906,39.1745539 30.332686,39.9920194 28.8544646,39.9920194 C27.3758804,39.9920194 26.4717168,39.1667547 26.4717168,37.5465152 M23.6507262,37.16907 L23.6507262,37.1532902 C23.6507262,36.2097678 22.9585921,35.4233177 21.9836915,35.4233177 C21.0086095,35.4233177 20.3322552,36.193988 20.3322552,37.1376918 L20.3322552,37.1532902 C20.3322552,38.096994 21.0243893,38.8832627 21.9994713,38.8832627 C22.9743719,38.8832627 23.6507262,38.1127738 23.6507262,37.16907 M19.0660633,37.16907 L19.0660633,37.1532902 C19.0660633,35.588552 20.3006956,34.3069432 21.9994713,34.3069432 C23.6978842,34.3069432 24.9167367,35.5727723 24.9167367,37.1376918 L24.9167367,37.1532902 C24.9167367,38.7182097 23.6821044,40 21.9836915,40 C20.2850972,40 19.0660633,38.7339895 19.0660633,37.16907 Z M34.294936,35.5177244 L32.6199207,35.5177244 L32.6199207,34.4011684 L37.1808232,34.4011684 L37.1808232,35.5177244 L35.5059893,35.5177244 L35.5059893,39.9057747 L34.294936,39.9057747 L34.294936,35.5177244 Z M40.7200843,38.8126164 C41.710946,38.8126164 42.3793198,38.1442427 42.3793198,37.1689793 L42.3793198,37.1535623 C42.3793198,36.1782989 41.710946,35.4941454 40.7200843,35.4941454 L39.7841797,35.4941454 L39.7841797,38.8126164 L40.7200843,38.8126164 Z M38.5733078,34.4011684 L40.7200843,34.4011684 C42.4500567,34.4011684 43.6453302,35.5886427 43.6453302,37.1377825 L43.6453302,37.1535623 C43.6453302,38.702702 42.4500567,39.9055933 40.7200843,39.9055933 L38.5733078,39.9055933 L38.5733078,34.4011684 Z M49.5812507,37.16907 L49.5812507,37.1532902 C49.5812507,36.2097678 48.8891166,35.4233177 47.9140346,35.4233177 C46.939134,35.4233177 46.2627797,36.193988 46.2627797,37.1376918 L46.2627797,37.1532902 C46.2627797,38.096994 46.9549138,38.8832627 47.9299958,38.8832627 C48.9048964,38.8832627 49.5812507,38.1127738 49.5812507,37.16907 M44.9965878,37.16907 L44.9965878,37.1532902 C44.9965878,35.588552 46.2312201,34.3069432 47.9299958,34.3069432 C49.6284087,34.3069432 50.8470798,35.5727723 50.8470798,37.1376918 L50.8470798,37.1532902 C50.8470798,38.7182097 49.6126289,40 47.9140346,40 C46.2156217,40 44.9965878,38.7339895 44.9965878,37.16907 M56.7830003,37.16907 L56.7830003,37.1532902 C56.7830003,36.2097678 56.0910476,35.4233177 55.1159656,35.4233177 C54.1410649,35.4233177 53.4645293,36.193988 53.4645293,37.1376918 L53.4645293,37.1532902 C53.4645293,38.096994 54.1568447,38.8832627 55.1317453,38.8832627 C56.106646,38.8832627 56.7830003,38.1127738 56.7830003,37.16907 M52.1983374,37.16907 L52.1983374,37.1532902 C52.1983374,35.588552 53.4329697,34.3069432 55.1317453,34.3069432 C56.8301583,34.3069432 58.0490107,35.5727723 58.0490107,37.1376918 L58.0490107,37.1532902 C58.0490107,38.7182097 56.8143785,40 55.1159656,40 C53.4173713,40 52.1983374,38.7339895 52.1983374,37.16907 M62.1194521,37.0748447 C62.7092896,37.0748447 63.0473761,36.7603372 63.0473761,36.2961939 L63.0473761,36.2805954 C63.0473761,35.7614949 62.6857106,35.4941454 62.0958731,35.4941454 L60.8928004,35.4941454 L60.8928004,37.0748447 L62.1194521,37.0748447 Z M59.6817471,34.4011684 L62.1981696,34.4011684 C62.8981029,34.4011684 63.4404197,34.5977809 63.8020852,34.9594464 C64.1091562,35.2661547 64.2742092,35.6985571 64.2742092,36.2176577 L64.2742092,36.2332561 C64.2742092,37.1220027 63.794286,37.6802807 63.0947154,37.9398309 L64.4390807,39.9057747 L63.0237971,39.9057747 L61.844122,38.1442427 L60.8928004,38.1442427 L60.8928004,39.9057747 L59.6817471,39.9057747 L59.6817471,34.4011684 Z" id="path-1"></path>
    </defs>
    <g id="logo/apn" stroke="none" stroke-width="1" fill="none" fill-rule="evenodd">
        <mask id="mask-2" fill="white">
            <use xlink:href="#path-1"></use>
        </mask>
        <use id="Mask" fill="#FFFFFF" xlink:href="#path-1"></use>
    </g>
</svg>
