<?xml version="1.0" encoding="utf-8"?>
<!-- Generator: Adobe Illustrator 22.1.0, SVG Export Plug-In . SVG Version: 6.00 Build 0)  -->
<svg version="1.1" id="Layer_1" xmlns="http://www.w3.org/2000/svg" xmlns:xlink="http://www.w3.org/1999/xlink" x="0px" y="0px"
	 viewBox="0 0 798.1 267.2" style="enable-background:new 0 0 798.1 267.2;" xml:space="preserve">
<style type="text/css">
	.st0{fill:none;}
	.st1{fill:#FFFFFF;}
	.st2{fill:#FC3D66;}
</style>
<g>
	<g>
		<path class="st0" d="M360.2,35.8V17.4C360.2,5.7,367,0,379.4,0h39.3c12.4,0,19.2,5.7,19.2,17.4v18.4H360.2z M371.3,24.2h55.5v-6.6
			c0-3.7-2-5.9-7.6-5.9h-40.4c-5.6,0-7.6,2.2-7.6,5.9v6.6H371.3z"/>
		<path class="st0" d="M37.5,157.7H18.2C6,157.7,0,151.3,0,139.4v-37.5C0,90,6,83.5,18.2,83.5h19.3V157.7z M25.3,147.1v-53h-6.9
			c-3.9,0-6.2,1.9-6.2,7.2v38.6c0,5.3,2.3,7.2,6.2,7.2L25.3,147.1L25.3,147.1z"/>
		<path class="st0" d="M437.9,231.3v18.4c0,11.7-6.8,17.4-19.2,17.4h-39.3c-12.4,0-19.2-5.7-19.2-17.4v-18.4L437.9,231.3z
			 M426.8,243h-55.5v6.6c0,3.7,2,5.9,7.6,5.9h40.4c5.6,0,7.6-2.2,7.6-5.9V243H426.8z"/>
		<path class="st0" d="M760.6,83.5h19.3c12.2,0,18.2,6.5,18.2,18.3v37.5c0,11.9-6,18.3-18.2,18.3h-19.3V83.5z M772.8,94.1v53h6.9
			c3.9,0,6.2-1.9,6.2-7.2v-38.6c0-5.3-2.3-7.2-6.2-7.2L772.8,94.1z"/>
	</g>
	<g>
		<g>
			<g>
				<path class="st1" d="M232.1,96.5h19.3c12.2,0,18.2,6.8,18.2,19.2V155c0,12.4-6,19.2-18.2,19.2h-19.3V96.5z M244.3,107.6v55.5
					h6.9c3.9,0,6.2-2,6.2-7.6v-40.4c0-5.6-2.3-7.6-6.2-7.6L244.3,107.6L244.3,107.6z"/>
				<path class="st1" d="M316.5,174.2h-12.3l-2.1-14.1h-15l-2.1,14.1h-11.2l12.4-77.7H304L316.5,174.2z M288.6,149.5h11.8l-5.9-39.3
					L288.6,149.5z"/>
				<path class="st1" d="M315,96.5h37.8v11.1H340v66.6h-12.2v-66.6H315V96.5z"/>
				<path class="st1" d="M394.1,174.2h-12.3l-2.1-14.1h-15l-2.1,14.1h-11.2l12.4-77.7h17.9L394.1,174.2z M366.2,149.5H378l-5.9-39.3
					L366.2,149.5z"/>
				<path class="st1" d="M429.2,129.2H446v11.1h-16.8v22.8h21.1v11.1H417V96.5h33.3v11.1h-21.1L429.2,129.2L429.2,129.2z"/>
				<path class="st1" d="M499.1,96.5l-12.8,37.8l13.7,40h-12.9l-10-30.8L467,174.2h-11.4l13.7-40l-12.8-37.8h12.7l9.2,28.7l9.4-28.7
					h11.3V96.5z"/>
				<path class="st1" d="M539.8,145.2v10.3c0,12.4-6.2,19.5-18.2,19.5s-18.2-7.1-18.2-19.5v-40.4c0-12.4,6.2-19.5,18.2-19.5
					s18.2,7.1,18.2,19.5v7.5h-11.5v-8.3c0-5.6-2.4-7.7-6.3-7.7c-3.9,0-6.3,2.1-6.3,7.7v42c0,5.6,2.4,7.6,6.3,7.6
					c3.9,0,6.3-2,6.3-7.6v-11.1L539.8,145.2L539.8,145.2z"/>
				<path class="st1" d="M558.6,174.2h-12.2V96.5h12.2v33.3h13.9V96.5h12.4v77.7h-12.4v-33.3h-13.9V174.2z"/>
				<path class="st1" d="M633.3,174.2H621l-2.1-14.1h-15l-2.1,14.1h-11.2L603,96.5h17.9L633.3,174.2z M605.5,149.5h11.8l-5.9-39.3
					L605.5,149.5z"/>
				<path class="st1" d="M648.5,117.9v56.3h-11V96.5h15.3l12.5,46.5V96.5h10.9v77.7h-12.5L648.5,117.9z"/>
				<path class="st1" d="M702.6,130.9h17.1v24.6c0,12.4-6.2,19.5-18.2,19.5s-18.2-7.1-18.2-19.5v-40.4c0-12.4,6.2-19.5,18.2-19.5
					s18.2,7.1,18.2,19.5v7.5h-11.6v-8.3c0-5.6-2.4-7.7-6.3-7.7c-3.9,0-6.3,2.1-6.3,7.7v42c0,5.6,2.4,7.6,6.3,7.6
					c3.9,0,6.3-2,6.3-7.6V142h-5.6L702.6,130.9L702.6,130.9z"/>
				<path class="st1" d="M738.8,129.2h16.8v11.1h-16.8v22.8h21.1v11.1h-33.3V96.5h33.3v11.1h-21.1V129.2z"/>
			</g>
			<g>
				<g>
					<path class="st1" d="M772.3,86.8c3.4,0,6,2.6,6,6.2s-2.6,6.2-6,6.2s-6-2.6-6-6.2S768.9,86.8,772.3,86.8z M772.3,98
						c2.7,0,4.8-2.1,4.8-5s-2-5-4.8-5c-2.7,0-4.8,2.1-4.8,5S769.5,98,772.3,98z M773.1,96.7c-0.1-0.2-0.1-0.3-0.1-1v-0.8
						c0-0.8-0.3-1.1-0.9-1.1h-0.4v2.9h-1.3v-7.4h2c1.3,0,1.9,0.6,1.9,1.9v0.2c0,0.9-0.3,1.4-0.9,1.7c0.7,0.3,0.9,0.9,0.9,1.8v0.8
						c0,0.4,0,0.7,0.2,1H773.1z M771.7,90.5v2.1h0.5c0.5,0,0.8-0.2,0.8-0.9v-0.3c0-0.6-0.2-0.9-0.7-0.9
						C772.3,90.5,771.7,90.5,771.7,90.5z"/>
				</g>
			</g>
		</g>
		<g>
			<path class="st2" d="M103.1,35.3v191.8l-60.4-22.8V62.4L103.1,35.3 M107.5,28.6l-69.1,31v147.7l69.1,26.1V28.6L107.5,28.6z"/>
			<path class="st2" d="M127.9,34.9l20.7,8l10.8,30l3.6,10l4.4-9.7l8.9-19.5l12.5,4.9l-0.2,61.8l-14.2,7.5l-7.3,3.8l7.2,3.9
				l14.2,7.6l-0.2,61.3L176,209l-8.7-19.3l-4.4-9.7l-3.7,10l-10.8,29.4l-20.5,7.7v-81l22.7-10.5l8.4-3.9l-8.4-4l-22.7-10.8
				L127.9,34.9 M123.6,28.6v91l25.2,12l-25.2,11.7v90.1l28.2-10.6l11.5-31.3l10.4,23l19-7.1l0.2-66.9l-16.5-8.9L193,123l0.2-67.4
				l-19.1-7.4l-10.6,23.2L152,39.6L123.6,28.6L123.6,28.6z"/>
		</g>
	</g>
</g>
</svg>
