<svg viewBox="0 0 120 38" version="1.1" xmlns="http://www.w3.org/2000/svg" xmlns:xlink="http://www.w3.org/1999/xlink" xmlns:sketch="http://www.bohemiancoding.com/sketch/ns">
    <title>Aristocrat logo</title>
    <defs></defs>
    <g stroke="none" stroke-width="1" fill="none" fill-rule="evenodd" sketch:type="MSPage">
        <g sketch:type="MSArtboardGroup" transform="translate(-232.000000, -12.000000)" fill="#06357A" class="logo-svg">
            <g sketch:type="MSLayerGroup" transform="translate(2.000000, -5.000000)">
                <g transform="translate(230.000000, 17.000000)" sketch:type="MSShapeGroup">
                    <path d="M118.262007,36.5847209 L118.257993,36.5847209 L117.994796,37.2943488 L117.856952,37.2943488 L117.594201,36.5847209 L117.588848,36.5847209 L117.588848,37.2943488 L117.411747,37.2943488 L117.411747,36.3898605 L117.697695,36.3898605 L117.925204,37.0066977 L118.15316,36.3898605 L118.437323,36.3898605 L118.437323,37.2943488 L118.262007,37.2943488 L118.262007,36.5847209 L118.262007,36.5847209 Z M116.752416,36.5423023 L116.473606,36.5423023 L116.473606,36.3898605 L117.206989,36.3898605 L117.206989,36.5423023 L116.929071,36.5423023 L116.929071,37.2943488 L116.752416,37.2943488 L116.752416,36.5423023 Z" id="Fill-18"></path>
                    <path d="M62.9602974,19.3976744 L40.1536059,19.3976744 L40.1536059,21.7258372 L43.841487,21.7271628 L43.841487,37.2943488 L46.1933086,37.2943488 L46.1977695,21.7271628 L62.9602974,21.7289302" id="Fill-19"></path>
                    <path d="M119.669442,19.3976744 L108.463048,19.3976744 L108.463048,21.7271628 L112.889219,21.7271628 L112.889219,37.2943488 L115.244164,37.2943488 L115.244164,21.7271628 L119.669442,21.7271628" id="Fill-20"></path>
                    <path d="M28.0416357,19.3985581 L30.3956877,19.3985581 L30.3956877,37.2943488 L28.0416357,37.2943488 L28.0416357,19.3985581 Z" id="Fill-21"></path>
                    <path d="M75.3443866,14.5279302 L87.7280297,14.5279302 L87.7280297,16.8596279 L75.3443866,16.8596279 L75.3443866,14.5279302 Z" id="Fill-22"></path>
                    <path d="M83.4187361,35.2613488 C79.3873606,35.2613488 76.1219331,32.0264884 76.1219331,28.0338372 C76.1219331,24.0438372 79.3873606,20.808093 83.4187361,20.808093 C85.0322677,20.808093 86.5204461,21.3268372 87.7280297,22.2034884 L87.7280297,19.468814 C86.4316729,18.825907 84.9671375,18.4653488 83.4187361,18.4653488 C78.0847584,18.4653488 73.7589591,22.7500698 73.7589591,28.0338372 C73.7589591,33.3176047 78.0847584,37.6036512 83.4187361,37.6036512 C84.9671375,37.6036512 86.4316729,37.2417674 87.7280297,36.5993023 L87.7280297,33.8646279 C86.5204461,34.7421628 85.0322677,35.2613488 83.4187361,35.2613488" id="Fill-23"></path>
                    <path d="M87.7280297,6.3985814 C87.7280297,9.78455814 84.9564312,12.5320465 81.5357621,12.5320465 C78.1159851,12.5320465 75.3443866,9.78455814 75.3443866,6.3985814 C75.3443866,3.01083721 78.1159851,0.263348837 81.5357621,0.263348837 C84.9564312,0.263348837 87.7280297,3.01083721 87.7280297,6.3985814" id="Fill-24"></path>
                    <path d="M60.5286245,13.0702326 C56.2104089,13.0702326 52.4069888,15.2609767 50.1907807,18.5811163 L53.173829,18.5811163 C55.0090706,16.6263256 57.6245353,15.4019302 60.5286245,15.4019302 C66.0686989,15.4019302 70.5586617,19.8505814 70.5586617,25.3380465 C70.5586617,30.8233023 66.0686989,35.2737209 60.5286245,35.2737209 C54.9889963,35.2737209 50.4963569,30.8233023 50.4963569,25.3380465 C50.4963569,24.3690465 50.6386617,23.430093 50.9000743,22.5441628 L48.4666171,22.5441628 C48.2573978,23.442907 48.1440892,24.3756744 48.1440892,25.3380465 C48.1440892,32.1126512 53.6881784,37.6058605 60.5286245,37.6058605 C67.3690706,37.6058605 72.9127138,32.1126512 72.9127138,25.3380465 C72.9127138,18.5634419 67.3690706,13.0702326 60.5286245,13.0702326" id="Fill-25"></path>
                    <path d="M34.1388848,30.3023488 C35.0199257,31.1175814 36.6031227,32.692814 36.6031227,33.9079302 C36.6031227,35.1787209 35.8902602,36.302814 35.0391078,37.2943488 L37.8722677,37.2943488 C38.4892193,36.286907 38.9005204,35.175186 38.9005204,33.9079302 C38.9005204,31.7366279 37.015316,29.9316279 35.7484015,28.6789535 C34.1727881,27.1174186 33.6441636,25.6031628 33.6441636,24.174186 C33.6441636,21.9688605 35.4513011,21.7320233 36.2284015,21.7320233 C37.5109294,21.7320233 38.6154647,22.5706744 39.3894424,23.3810465 L39.3894424,20.4329535 C38.4954647,19.8664884 37.4324164,19.4533488 36.2284015,19.4533488 C33.3069145,19.4533488 31.3467658,21.3511395 31.3467658,24.174186 C31.3467658,26.137814 32.1176208,28.4337209 34.1388848,30.3023488" id="Fill-26"></path>
                    <path d="M23.6565056,25.2205116 C23.6663197,29.4252558 19.5564312,29.4411628 19.5564312,29.4411628 L19.5573234,21.4814884 C19.5573234,21.4814884 23.6489219,21.7103721 23.6565056,25.2205116 M21.46171,19.6482093 C19.882974,19.1135581 17.2046097,19.2416977 17.2046097,19.2416977 L17.2046097,37.3027442 L19.5573234,37.3027442 L19.5573234,31.8488605 L20.2331599,31.8488605 C20.2331599,31.8488605 21.3252045,34.782814 22.8151673,35.9515349 C24.0450558,36.9161163 26.5494424,37.461814 26.5494424,37.461814 L26.5503346,35.2516279 C26.5503346,35.2516279 24.7021561,34.7143256 23.6007435,33.6083488 C22.8682528,32.87 22.5318959,32.3229767 22.2,31.3402791 C24.525948,30.3434419 25.8642379,28.3789302 25.896803,25.6080233 C25.93829,21.8955116 23.8492193,20.4537209 21.46171,19.6482093" id="Fill-27"></path>
                    <path d="M96.1021561,25.2205116 C96.1097398,29.4252558 91.9989591,29.4411628 92.0034201,29.4411628 L92.0034201,21.4814884 C92.0034201,21.4814884 96.0932342,21.7103721 96.1021561,25.2205116 M93.9082528,19.6482093 C92.3286245,19.1135581 89.6502602,19.2416977 89.6502602,19.2416977 L89.6502602,37.3027442 L92.0034201,37.3027442 L92.0034201,31.8488605 L92.6788104,31.8488605 C92.6788104,31.8488605 93.7704089,34.782814 95.2594796,35.9515349 C96.4898141,36.9161163 98.9937546,37.461814 98.9937546,37.461814 L98.995539,35.2516279 C98.995539,35.2516279 97.1460223,34.7143256 96.0481784,33.6083488 C95.3116729,32.87 94.979777,32.3229767 94.6469888,31.3402791 C96.9698141,30.3434419 98.3098885,28.3789302 98.3393309,25.6080233 C98.3839405,21.8955116 96.2935316,20.4537209 93.9082528,19.6482093" id="Fill-28"></path>
                    <path d="M4.93739777,28.4222326 C6.92654275,22.6767209 10.7134572,19.9738605 12.5910781,18.3884651 L12.5910781,28.4222326 L4.93739777,28.4222326 M14.9424535,13.6976744 C14.9424535,13.6976744 8.86527881,17.3624651 5.10066914,22.8684884 C1.1464684,28.6413953 0,37.3027442 0,37.3027442 L2.61724907,37.3027442 C3.00178439,35.1897674 3.85873606,31.4679767 4.14200743,30.7517209 L12.5910781,30.7517209 L12.5910781,37.3027442 L14.9406691,37.3027442" id="Fill-29"></path>
                    <path d="M107.439257,30.2457907 L102.83777,30.2457907 L102.83777,23.3850233 C104.584684,24.8162093 107.439257,29.5723953 107.439257,30.2457907 M100.481933,19.1506744 L100.481933,37.2934651 L102.83777,37.2934651 L102.83777,32.5783721 L108.320743,32.5783721 C108.925651,34.2843953 108.966691,36.0668605 108.966691,37.2934651 L111.319851,37.3080465 C111.403271,32.9221395 110.427658,30.973093 109.848178,29.6263023 C106.65145,22.1911163 101.462007,19.737907 100.481933,19.1506744" id="Fill-30"></path>
                </g>
            </g>
        </g>
    </g>
</svg>