<svg xmlns="http://www.w3.org/2000/svg" xmlns:xlink="http://www.w3.org/1999/xlink" id="Layer_1" x="0px" y="0px" viewBox="0 0 180 125" style="enable-background:new 0 0 180 125;" xml:space="preserve"> <style type="text/css"> .st0{fill:#FFFFFF;} .st1{fill:#0092B3;} .st2{fill:none;} .st3{fill:url(#SVGID_1_);} </style> <g> <g> <path class="st0" d="M81.2,55.1L84,55c0.4,0,0.8,0,1.2,0l4.6-9.2l4.6,9.2c0.3,0,0.7,0,1,0c1.9,0,3.8,0.1,5.7,0.2 c0.9,0,1.8,0.1,2.7,0.2l-9.3-17.9H85l-9.2,17.9c0.9-0.1,1.7-0.1,2.6-0.2C79.3,55.2,80.2,55.2,81.2,55.1z"></path> <path class="st0" d="M129.5,58.4c1.9,0.3,3.7,0.7,5.6,1c1.8,0.3,3.7,0.7,5.5,1c1.8,0.3,3.7,0.7,5.6,1c1.9,0.4,3.7,0.8,5.6,1.2 c1.5,0.4,3,0.8,4.4,1.2c-0.1-1.4-0.3-2.6-0.7-3.7c-0.5-1.4-1.3-2.7-2.5-3.6c-1.2-1-2.8-1.7-4.8-2.2c-2-0.5-4.6-0.7-7.6-0.7h-7.9 c-2.5,0-4.4-0.3-5.5-0.9c-1.2-0.6-1.7-1.8-1.7-3.4c0-1.7,0.6-2.9,1.7-3.5c1.2-0.6,3-0.9,5.6-0.9h20.7v-7.2h-20.7 c-3,0-5.6,0.3-7.6,0.8c-2,0.5-3.6,1.3-4.8,2.2c-1.2,1-2,2.2-2.5,3.7c-0.5,1.5-0.7,3.1-0.7,5c0,1.9,0.2,3.5,0.7,5 c0.3,1,0.8,1.9,1.5,2.7c1.5,0.2,3.1,0.4,4.6,0.6C125.8,57.8,127.7,58.1,129.5,58.4z"></path> </g> <g> <path class="st0" d="M56.4,63.8c0.1,0.4,0.2,0.8,0.2,1.3c0,1.7-0.6,2.9-1.8,3.5c-1.2,0.6-3,0.9-5.6,0.9H25.7v7.2h23.5 c3.1,0,5.6-0.3,7.6-0.8c2-0.5,3.6-1.3,4.8-2.3c1.2-1,2.1-2.2,2.5-3.7c0.5-1.4,0.7-3.1,0.7-5c0-0.6,0-1.2-0.1-1.8 c-2.8,0.1-5.5,0.3-8.3,0.5C56.5,63.8,56.5,63.8,56.4,63.8z"></path> <path class="st0" d="M64.7,76.8h9.4l4.6-8.9l2.6-5.1c-3.2,0.1-6.3,0.1-9.5,0.3L64.7,76.8z"></path> <path class="st0" d="M98.3,62.8l2.7,5.1l4.6,8.9h9.4L107.8,63c-3.1-0.1-6.2-0.2-9.2-0.2C98.5,62.8,98.4,62.8,98.3,62.8z"></path> <path class="st0" d="M147.8,66.3c-0.2,1.1-0.8,1.9-1.7,2.4c-1.2,0.6-3,0.9-5.6,0.9h-23.5v7.2h23.5c3.1,0,5.6-0.3,7.6-0.8 c2-0.5,3.6-1.3,4.8-2.3c1.2-1,2.1-2.2,2.5-3.7c0.3-0.8,0.5-1.7,0.6-2.6c-2.5-0.4-5.1-0.8-7.6-1.1 C148.3,66.3,148.1,66.3,147.8,66.3z"></path> </g> <g> <path class="st1" d="M29.4,85.9l-0.5-1h-2.5l-0.5,1h-1.1l2.3-4.4h1.1l2.3,4.4H29.4z M26.8,84.2h1.8l-0.9-1.8L26.8,84.2z"></path> <path class="st1" d="M34.8,85.9l-2.5-3.1v3.1h-0.9v-4.4h1l2.5,3.1v-3.1h0.9v4.4H34.8z"></path> <path class="st1" d="M38.7,85.9V84l-2.2-2.5h1.3l1.4,1.8l1.4-1.8h1.3L39.6,84v1.9H38.7z"></path> <path class="st1" d="M42.2,83.1c0-0.3,0-0.5,0.1-0.7c0-0.2,0.1-0.4,0.3-0.5c0.1-0.1,0.3-0.2,0.5-0.3c0.2-0.1,0.5-0.1,0.8-0.1h1.3 c0.3,0,0.6,0,0.9,0.1c0.2,0.1,0.4,0.2,0.5,0.3c0.1,0.1,0.2,0.3,0.3,0.5c0,0.2,0.1,0.4,0.1,0.7v1.3c0,0.3,0,0.5-0.1,0.7 c0,0.2-0.1,0.4-0.3,0.5c-0.1,0.1-0.3,0.2-0.5,0.3c-0.2,0.1-0.5,0.1-0.9,0.1h-1.3c-0.3,0-0.6,0-0.8-0.1c-0.2-0.1-0.4-0.2-0.5-0.3 c-0.1-0.1-0.2-0.3-0.3-0.5c0-0.2-0.1-0.4-0.1-0.7V83.1z M45.9,83.1c0-0.3-0.1-0.5-0.2-0.6c-0.1-0.1-0.3-0.2-0.6-0.2h-1.3 c-0.3,0-0.5,0.1-0.6,0.2c-0.1,0.1-0.2,0.3-0.2,0.6v1.3c0,0.3,0.1,0.5,0.2,0.6c0.1,0.1,0.3,0.2,0.6,0.2h1.3c0.3,0,0.5-0.1,0.6-0.2 c0.1-0.1,0.2-0.3,0.2-0.6V83.1z"></path> <path class="st1" d="M51.7,85.9l-2.5-3.1v3.1h-0.9v-4.4h1l2.5,3.1v-3.1h0.9v4.4H51.7z"></path> <path class="st1" d="M58.4,85.9h-2.7c-0.3,0-0.6,0-0.8-0.1c-0.2-0.1-0.4-0.2-0.5-0.3c-0.1-0.1-0.2-0.3-0.3-0.5 c0-0.2-0.1-0.4-0.1-0.7v-1.3c0-0.3,0-0.5,0.1-0.7c0-0.2,0.1-0.4,0.3-0.5c0.1-0.1,0.3-0.2,0.5-0.3c0.2-0.1,0.5-0.1,0.8-0.1h2.7v0.8 h-2.7c-0.3,0-0.5,0.1-0.6,0.2c-0.1,0.1-0.2,0.3-0.2,0.6v0.2H58v0.8h-3.2v0.3c0,0.3,0.1,0.5,0.2,0.6c0.1,0.1,0.3,0.2,0.6,0.2h2.7 V85.9z"></path> <path class="st0" d="M61.7,87v-6.6h0.6V87H61.7z"></path> <path class="st1" d="M69.8,85.9l-0.5-1h-2.5l-0.5,1h-1.1l2.3-4.4h1.1l2.3,4.4H69.8z M67.1,84.2h1.8L68,82.4L67.1,84.2z"></path> <path class="st1" d="M75.1,85.9l-2.5-3.1v3.1h-0.9v-4.4h1l2.5,3.1v-3.1h0.9v4.4H75.1z"></path> <path class="st1" d="M79,85.9V84l-2.2-2.5h1.3l1.4,1.8l1.4-1.8h1.3L80,84v1.9H79z"></path> <path class="st1" d="M83.5,81.5l1.4,3.5l1.3-3.5h1l1.3,3.5l1.4-3.5h1l-1.7,4.4h-1.2l-1.2-3.2l-1.2,3.2h-1.2l-1.8-4.4H83.5z"></path> <path class="st1" d="M91.6,85.9v-4.4h0.9v1.8h2.6v-1.8h0.9v4.4h-0.9v-1.8h-2.6v1.8H91.6z"></path> <path class="st1" d="M101.8,85.9h-2.7c-0.3,0-0.6,0-0.8-0.1c-0.2-0.1-0.4-0.2-0.5-0.3c-0.1-0.1-0.2-0.3-0.3-0.5 c0-0.2-0.1-0.4-0.1-0.7v-1.3c0-0.3,0-0.5,0.1-0.7c0-0.2,0.1-0.4,0.3-0.5c0.1-0.1,0.3-0.2,0.5-0.3c0.2-0.1,0.5-0.1,0.8-0.1h2.7v0.8 h-2.7c-0.3,0-0.5,0.1-0.6,0.2c-0.1,0.1-0.2,0.3-0.2,0.6v0.2h3.2v0.8h-3.2v0.3c0,0.3,0.1,0.5,0.2,0.6c0.1,0.1,0.3,0.2,0.6,0.2h2.7 V85.9z"></path> <path class="st1" d="M106,85.9l-1.3-1.4H104v1.4H103v-4.4h2.6c0.3,0,0.6,0,0.8,0.1c0.2,0.1,0.4,0.1,0.5,0.3 c0.1,0.1,0.2,0.3,0.3,0.5c0,0.2,0.1,0.4,0.1,0.6v0.2c0,0.2,0,0.4-0.1,0.6c0,0.2-0.1,0.3-0.2,0.4c-0.1,0.1-0.2,0.2-0.4,0.3 c-0.2,0.1-0.4,0.1-0.7,0.1l1.4,1.4H106z M104,82.3v1.4h1.7c0.1,0,0.3,0,0.4,0c0.1,0,0.2,0,0.2-0.1c0.1,0,0.1-0.1,0.1-0.2 c0-0.1,0-0.2,0-0.3v-0.2c0-0.1,0-0.2,0-0.3c0-0.1-0.1-0.1-0.1-0.2c-0.1,0-0.1-0.1-0.2-0.1c-0.1,0-0.2,0-0.4,0H104z"></path> <path class="st1" d="M112.9,85.9h-2.7c-0.3,0-0.6,0-0.8-0.1c-0.2-0.1-0.4-0.2-0.5-0.3c-0.1-0.1-0.2-0.3-0.3-0.5 c0-0.2-0.1-0.4-0.1-0.7v-1.3c0-0.3,0-0.5,0.1-0.7c0-0.2,0.1-0.4,0.3-0.5c0.1-0.1,0.3-0.2,0.5-0.3c0.2-0.1,0.5-0.1,0.8-0.1h2.7v0.8 h-2.7c-0.3,0-0.5,0.1-0.6,0.2c-0.1,0.1-0.2,0.3-0.2,0.6v0.2h3.2v0.8h-3.2v0.3c0,0.3,0.1,0.5,0.2,0.6c0.1,0.1,0.3,0.2,0.6,0.2h2.7 V85.9z"></path> <path class="st0" d="M116.2,87v-6.6h0.6V87H116.2z"></path> <path class="st1" d="M124.3,85.9l-0.5-1h-2.5l-0.5,1h-1.1l2.3-4.4h1.1l2.3,4.4H124.3z M121.6,84.2h1.8l-0.9-1.8L121.6,84.2z"></path> <path class="st1" d="M129.6,85.9l-2.5-3.1v3.1h-0.9v-4.4h1l2.5,3.1v-3.1h0.9v4.4H129.6z"></path> <path class="st1" d="M133.5,85.9V84l-2.2-2.5h1.3l1.4,1.8l1.4-1.8h1.3l-2.2,2.5v1.9H133.5z"></path> <path class="st1" d="M137.1,81.5h4.4v0.8h-1.7v3.6h-0.9v-3.6h-1.7V81.5z"></path> <path class="st1" d="M142.3,85.9v-4.4h0.9v4.4H142.3z"></path> <path class="st1" d="M149.6,85.9v-2.8l0,0l-1.3,2.8h-1.1l-1.4-2.9l0,0v2.8h-0.9v-4.4h1.1l1.8,3.5l1.8-3.5h1.1v4.4H149.6z"></path> <path class="st1" d="M156.2,85.9h-2.7c-0.3,0-0.6,0-0.8-0.1c-0.2-0.1-0.4-0.2-0.5-0.3c-0.1-0.1-0.2-0.3-0.3-0.5 c0-0.2-0.1-0.4-0.1-0.7v-1.3c0-0.3,0-0.5,0.1-0.7c0-0.2,0.1-0.4,0.3-0.5c0.1-0.1,0.3-0.2,0.5-0.3c0.2-0.1,0.5-0.1,0.8-0.1h2.7v0.8 h-2.7c-0.3,0-0.5,0.1-0.6,0.2c-0.1,0.1-0.2,0.3-0.2,0.6v0.2h3.2v0.8h-3.2v0.3c0,0.3,0.1,0.5,0.2,0.6c0.1,0.1,0.3,0.2,0.6,0.2h2.7 V85.9z"></path> </g> <g> <g> <g> <path class="st0" d="M133.1,19.4c-1.8-2-3.8-3.8-5.9-5.5c-2.1-1.7-4.3-3.2-6.6-4.6c-0.2-0.1-0.4-0.3-0.6-0.4l2.9,2.8l0.5,0.5 l-0.4,0.6c-0.2,0.3-0.4,0.5-0.5,0.7c1.1,0.7,2.3,1.5,3.4,2.3c2.1,1.5,4.1,3.2,6,4.9c3.8,3.5,7.2,7.6,10.1,11.9l0.2-0.1 C139.8,27.8,136.8,23.3,133.1,19.4z"></path> <path class="st0" d="M108.1,3.9l-0.2-0.2c-0.7-0.2-1.4-0.4-2.2-0.6c-2.6-0.7-5.3-1.1-7.9-1.4c-2.7-0.3-5.4-0.4-8-0.4 C84.4,1.3,79,2.1,73.9,3.6C68.7,5,63.8,7.1,59.2,9.9C50,15.4,42.4,23.3,37.3,32.6l0.2,0.1c1.4-2.3,2.9-4.4,4.5-6.5 c1.6-2.1,3.4-4,5.3-5.8c3.8-3.6,8-6.8,12.5-9.3c4.5-2.6,9.4-4.5,14.5-5.8c5-1.3,10.2-1.9,15.4-1.8c2.6,0,5.2,0.2,7.7,0.6 c2.6,0.4,5.1,0.9,7.6,1.6c2,0.6,3.9,1.2,5.8,2c0.2-0.1,0.5-0.2,0.7-0.3L108.1,3.9z"></path> </g> </g> <path class="st1" d="M110.8,10.9c-0.1,0.4,0,0.9,0.3,1.2c0.3,0.3,0.7,0.5,1.2,0.4l0,0.3c-0.5,0.1-1.1-0.1-1.4-0.5 c-0.4-0.4-0.5-1-0.4-1.5L110.8,10.9z"></path> <path class="st1" d="M110.5,12.7c0.5,0.5,1.2,0.8,1.9,0.7l0,0.3c-0.8,0.1-1.7-0.2-2.2-0.8c-0.6-0.6-0.8-1.5-0.6-2.3l0.3,0.1 C109.8,11.5,110,12.2,110.5,12.7z"></path> </g> <g> <g> <g> <path class="st0" d="M143.1,90.4c-1.3,2.4-2.8,4.7-4.4,6.9c-1.6,2.2-3.4,4.3-5.3,6.2c-3.8,3.9-8.1,7.3-12.8,10 c-4.7,2.8-9.7,4.9-14.9,6.3c-5.2,1.4-10.6,2-16,2c-2.7,0-5.4-0.3-8-0.7c-2.7-0.4-5.3-1-7.8-1.8c-4-1.2-7.8-2.7-11.5-4.6 c-0.1,0-0.1,0-0.2,0.1l3.5,3.5l0.5,0.5l-0.4,0.6c0,0-0.1,0.1-0.1,0.1c2.4,1,4.9,1.9,7.4,2.5c2.7,0.7,5.5,1.2,8.2,1.6 c2.8,0.3,5.6,0.5,8.4,0.5c5.6-0.1,11.1-0.9,16.5-2.5c5.3-1.6,10.5-3.9,15.2-6.8c9.4-5.9,17.1-14.4,22-24.2L143.1,90.4z"></path> <path class="st0" d="M51.9,108c-1.9-1.5-3.7-3.1-5.5-4.9c-3.8-3.8-7.2-8.1-10.1-12.8l-0.2,0.1c2.2,5.1,5.2,9.8,8.9,14 c1.7,1.9,3.5,3.7,5.4,5.4l0.3-0.5C51.1,108.9,51.5,108.4,51.9,108z"></path> </g> </g> <path class="st1" d="M62.9,111.2c0.1-0.4,0-0.9-0.3-1.2c-0.3-0.3-0.7-0.5-1.2-0.4l0-0.3c0.5-0.1,1.1,0.1,1.4,0.5 c0.4,0.4,0.5,1,0.4,1.5L62.9,111.2z"></path> <path class="st1" d="M63.3,109.4c-0.5-0.5-1.2-0.8-1.9-0.7l0-0.3c0.8-0.1,1.7,0.2,2.2,0.8c0.6,0.6,0.8,1.5,0.6,2.3l-0.3-0.1 C64,110.7,63.8,109.9,63.3,109.4z"></path> </g> <g> <path class="st1" d="M117.5,9.2l-0.4-0.4l3.2-3.2L117.6,3l-3.2,3.2L114,5.8l0.4-0.4l0.4-0.4L110.9,1c-0.3,0.2-0.7,0.5-1,0.7 c-0.1,0.1-0.2,0.2-0.3,0.3c-0.4,0.4-0.7,0.8-1,1.3l3.9,3.9l0.4-0.4l0.4-0.4l0.4,0.4l-1.2,1.2c-0.1,0-0.1,0-0.2,0c0,0-0.1,0-0.1,0 c0,0-0.1,0-0.1,0c0,0-0.1,0-0.1,0c0,0-0.1,0-0.1,0c0,0-0.1,0-0.1,0c0,0-0.1,0-0.1,0c0,0-0.1,0-0.1,0c0,0-0.1,0-0.1,0.1 c0,0-0.1,0-0.1,0c0,0-0.1,0.1-0.1,0.1c0,0-0.1,0-0.1,0.1c0,0-0.1,0.1-0.1,0.1c0,0-0.1,0-0.1,0.1c-0.1,0.1-0.1,0.1-0.2,0.2 c0,0,0,0,0,0l1.3,1.3c0,0,0,0,0,0c0,0-0.1,0.1-0.1,0.1c0,0,0,0,0,0c-0.1,0.1-0.1,0.1-0.1,0.2c-0.1,0.1-0.1,0.3-0.1,0.4 c0,0.2,0.1,0.4,0.2,0.5c0,0,0.1,0.1,0.1,0.1c0,0,0.1,0.1,0.1,0.1c0,0,0,0,0.1,0c0,0,0.1,0,0.1,0c0,0,0,0,0.1,0c0,0,0.1,0,0.1,0 c0,0,0,0,0.1,0c0,0,0.1,0,0.1,0c0,0,0.1,0,0.1,0c0,0,0.1,0,0.1,0c0,0,0.1,0,0.1,0c0,0,0,0,0.1,0c0,0,0.1,0,0.1-0.1c0,0,0,0,0.1,0 c0.1,0,0.1-0.1,0.1-0.1c0,0,0,0,0.1-0.1l1.3,1.3c0.1-0.1,0.1-0.1,0.2-0.2c0.2-0.2,0.3-0.4,0.4-0.6c0-0.1,0.1-0.2,0.1-0.3 c0.1-0.2,0.1-0.4,0.1-0.5c0-0.1,0-0.2,0-0.3l0.8-0.8l0.4-0.4l0.4,0.4l-0.8,0.8l3.9,3.9c0.6-0.4,1.1-0.8,1.5-1.3 c0.3-0.3,0.5-0.6,0.7-1l-3.9-3.9L117.5,9.2z"></path> </g> <g> <path class="st1" d="M56.2,112.9l0.4,0.4l-3.2,3.2l2.7,2.7l3.2-3.2l0.4,0.4l-0.4,0.4l-0.4,0.4l3.9,3.9c0.3-0.2,0.7-0.5,1-0.7 c0.1-0.1,0.2-0.2,0.3-0.3c0.4-0.4,0.7-0.8,1-1.3l-3.9-3.9l-0.4,0.4l-0.4,0.4l-0.4-0.4l1.2-1.2c0.1,0,0.1,0,0.2,0c0,0,0.1,0,0.1,0 c0,0,0.1,0,0.1,0c0,0,0.1,0,0.1,0c0,0,0.1,0,0.1,0c0,0,0.1,0,0.1,0c0,0,0.1,0,0.1,0c0,0,0.1,0,0.1,0c0,0,0.1,0,0.1-0.1 c0,0,0.1,0,0.1,0c0,0,0.1-0.1,0.1-0.1c0,0,0.1,0,0.1-0.1c0,0,0.1-0.1,0.1-0.1c0,0,0.1,0,0.1-0.1c0.1-0.1,0.1-0.1,0.2-0.2 c0,0,0,0,0,0l-1.3-1.3c0,0,0,0,0,0c0,0,0.1-0.1,0.1-0.1c0,0,0,0,0,0c0.1-0.1,0.1-0.1,0.1-0.2c0.1-0.1,0.1-0.3,0.1-0.4 c0-0.2-0.1-0.4-0.2-0.5c0,0-0.1-0.1-0.1-0.1c0,0-0.1-0.1-0.1-0.1c0,0,0,0-0.1,0c0,0-0.1,0-0.1,0c0,0,0,0-0.1,0c0,0-0.1,0-0.1,0 c0,0,0,0-0.1,0c0,0-0.1,0-0.1,0c0,0-0.1,0-0.1,0c0,0-0.1,0-0.1,0c0,0-0.1,0-0.1,0c0,0,0,0-0.1,0c0,0-0.1,0-0.1,0.1c0,0,0,0-0.1,0 c-0.1,0-0.1,0.1-0.1,0.1c0,0,0,0-0.1,0.1l-1.3-1.3c-0.1,0.1-0.1,0.1-0.2,0.2c-0.2,0.2-0.3,0.4-0.4,0.6c0,0.1-0.1,0.2-0.1,0.3 c-0.1,0.2-0.1,0.4-0.1,0.5c0,0.1,0,0.2,0,0.3l-0.8,0.8l-0.4,0.4l-0.4-0.4l0.8-0.8l-3.9-3.9c-0.6,0.4-1.1,0.8-1.5,1.3 c-0.3,0.3-0.5,0.6-0.7,1l3.9,3.9L56.2,112.9z"></path> </g> <g> <path class="st1" d="M32.2,36.6L32,36.9l-2.7-2.4l-2,2.3l2.7,2.4l-0.3,0.3l-0.3-0.3l-0.3-0.3l-3,3.3c0.2,0.3,0.4,0.5,0.6,0.7 c0.1,0.1,0.2,0.2,0.2,0.2c0.3,0.3,0.7,0.5,1.1,0.8l3-3.3l-0.3-0.3L30.2,40l0.3-0.3l1,0.9c0,0,0,0.1,0,0.1c0,0,0,0.1,0,0.1 c0,0,0,0.1,0,0.1c0,0,0,0.1,0,0.1c0,0,0,0.1,0,0.1c0,0,0,0.1,0,0.1c0,0,0,0.1,0,0.1c0,0,0,0.1,0,0.1c0,0,0,0.1,0.1,0.1 c0,0,0,0.1,0,0.1c0,0,0,0.1,0.1,0.1c0,0,0,0.1,0.1,0.1c0,0,0.1,0.1,0.1,0.1c0,0,0,0,0,0.1c0,0.1,0.1,0.1,0.1,0.1c0,0,0,0,0,0 l1-1.1c0,0,0,0,0,0c0,0,0.1,0.1,0.1,0.1c0,0,0,0,0,0c0.1,0,0.1,0.1,0.2,0.1c0.1,0,0.2,0.1,0.3,0c0.2,0,0.3-0.1,0.4-0.2 c0,0,0.1-0.1,0.1-0.1c0,0,0.1-0.1,0.1-0.1c0,0,0,0,0,0c0,0,0-0.1,0-0.1c0,0,0,0,0-0.1c0,0,0-0.1,0-0.1c0,0,0,0,0-0.1 c0,0,0,0,0-0.1c0,0,0-0.1,0-0.1c0,0,0,0,0-0.1c0,0,0-0.1,0-0.1c0,0,0,0,0-0.1c0,0,0-0.1-0.1-0.1c0,0,0,0,0,0c0,0-0.1-0.1-0.1-0.1 c0,0,0,0-0.1,0l1-1.1c-0.1,0-0.1-0.1-0.2-0.1c-0.2-0.1-0.3-0.2-0.5-0.3c-0.1,0-0.1,0-0.2-0.1c-0.1,0-0.3-0.1-0.4-0.1 c-0.1,0-0.1,0-0.2,0l-0.7-0.6l-0.3-0.3l0.3-0.3l0.7,0.6l3-3.3c-0.3-0.4-0.7-0.8-1.1-1.2c-0.3-0.2-0.5-0.4-0.8-0.6l-3,3.3 L32.2,36.6z"></path> </g> <g> <path class="st2" d="M27.9,44l3-3.3l-0.3-0.3L30.2,40l0.3-0.3l1,0.9c0,0,0,0.1,0,0.1c0,0,0,0.1,0,0.1c0,0,0,0.1,0,0.1 c0,0,0,0.1,0,0.1c0,0,0,0.1,0,0.1c0,0,0,0.1,0,0.1c0,0,0,0.1,0,0.1c0,0,0,0.1,0,0.1c0,0,0,0.1,0.1,0.1c0,0,0,0.1,0,0.1 c0,0,0,0.1,0.1,0.1c0,0,0,0.1,0.1,0.1c0,0,0.1,0.1,0.1,0.1c0,0,0,0,0,0.1c0,0.1,0.1,0.1,0.1,0.1c0,0,0,0,0,0l1-1.1c0,0,0,0,0,0 c0,0,0.1,0.1,0.1,0.1c0,0,0,0,0,0c0.1,0,0.1,0.1,0.2,0.1c0.1,0,0.2,0,0.3,0c0,0,0.1,0,0.1,0c0.2,0,0.3-0.1,0.4-0.2 c0,0,0.1-0.1,0.1-0.1c0,0,0.1-0.1,0.1-0.1c0,0,0,0,0,0c0,0,0-0.1,0-0.1c0,0,0,0,0-0.1c0,0,0-0.1,0-0.1c0,0,0,0,0-0.1 c0,0,0,0,0-0.1c0,0,0-0.1,0-0.1c0,0,0,0,0-0.1c0,0,0-0.1,0-0.1c0,0,0,0,0-0.1c0,0,0-0.1-0.1-0.1c0,0,0,0,0,0c0,0-0.1-0.1-0.1-0.1 c0,0,0,0-0.1,0l1-1.1c-0.1,0-0.1-0.1-0.2-0.1c-0.2-0.1-0.3-0.2-0.5-0.3c-0.1,0-0.1,0-0.2-0.1c-0.1,0-0.3-0.1-0.4-0.1 c0,0-0.1,0-0.1,0c0,0-0.1,0-0.1,0l-0.7-0.6l-0.3-0.3l0.3-0.3l0.7,0.6l3-3.3c-0.3-0.4-0.7-0.8-1.1-1.2c-0.3-0.2-0.5-0.4-0.8-0.6 l-3,3.3l0.7,0.6L32,36.9l-2.7-2.4l-2,2.3l2.7,2.4l-0.3,0.3l-0.3-0.3l-0.3-0.3l-3,3.3c0.2,0.3,0.4,0.5,0.6,0.7 c0.1,0.1,0.2,0.2,0.2,0.2C27.2,43.5,27.5,43.7,27.9,44z"></path> <path class="st0" d="M35.8,45.7c1.2-0.6,3-0.9,5.6-0.9h20.7v-7.2H41.4c-2.5,0-4.7,0.2-6.6,0.5c0.2,0.1,0.3,0.2,0.5,0.3 c0.1,0.1,0.1,0.1,0.2,0.2l0.4,0.4l-0.4,0.4L34.9,40c0,0,0,0,0,0c0,0,0,0.1,0,0.1c0,0,0,0.1,0.1,0.1c0,0,0,0.1,0,0.1 c0,0,0,0.1,0,0.1c0,0,0,0.1,0,0.1c0,0,0,0.1,0,0.1c0,0,0,0.1,0,0.1c0,0,0,0.1,0,0.1c0,0.1,0,0.1-0.1,0.1c0,0,0,0.1,0,0.1 c0,0.1-0.1,0.1-0.1,0.2c0,0.1-0.1,0.1-0.1,0.2c-0.2,0.2-0.4,0.3-0.7,0.3c-0.1,0-0.1,0-0.2,0c-0.1,0-0.3,0-0.4-0.1c0,0,0,0-0.1,0 l-0.6,0.7l-0.4,0.4l-0.4-0.4l0,0l0,0c-0.1-0.1-0.1-0.1-0.2-0.2c0,0,0,0-0.1-0.1l0,0l0,0c0,0-0.1-0.1-0.1-0.1c0,0,0-0.1-0.1-0.1 l0,0l0,0c0,0,0-0.1-0.1-0.1c0,0,0-0.1,0-0.1l0,0l0,0c0,0,0-0.1-0.1-0.1c0,0,0-0.1,0-0.1l0,0l0,0c0,0,0-0.1,0-0.1c0,0,0-0.1,0-0.1 l0,0l0,0c0,0,0-0.1,0-0.1l-2.8,3.1L28,44.6l-0.4-0.2c-0.3-0.2-0.7-0.4-1-0.7c-0.1,0.2-0.1,0.3-0.2,0.5c-0.5,1.5-0.7,3.1-0.7,5 c0,1.9,0.2,3.5,0.7,5c0.5,1.5,1.3,2.7,2.5,3.6c1.2,1,2.8,1.7,4.8,2.2c1.3,0.3,2.9,0.6,4.8,0.7c1.9-0.4,3.9-0.9,5.9-1.2 c1.9-0.4,3.7-0.7,5.6-1c1.9-0.3,3.7-0.6,5.6-0.9c2.1-0.3,4.2-0.6,6.3-0.9c-0.1-0.1-0.1-0.1-0.2-0.2c-1.2-1-2.8-1.7-4.8-2.2 c-2-0.5-4.6-0.7-7.6-0.7h-7.9c-2.5,0-4.4-0.3-5.5-0.9c-1.2-0.6-1.7-1.8-1.7-3.4C34.1,47.5,34.7,46.3,35.8,45.7z"></path> </g> <path class="st0" d="M34.3,42.3c0.3,0,0.7-0.1,0.9-0.3c0.2-0.3,0.4-0.6,0.3-0.9l0.3,0c0.1,0.4-0.1,0.9-0.4,1.2 c-0.3,0.3-0.7,0.5-1.2,0.4L34.3,42.3z"></path> <path class="st0" d="M35.8,42.5c0.4-0.4,0.6-1,0.5-1.6l0.3,0c0.1,0.7-0.1,1.3-0.6,1.8c-0.5,0.5-1.1,0.7-1.8,0.6l0-0.3 C34.8,43.1,35.4,42.9,35.8,42.5z"></path> <linearGradient id="SVGID_1_" gradientUnits="userSpaceOnUse" x1="1.4951" y1="65.2444" x2="178.5049" y2="65.2444"> <stop offset="0" style="stop-color:#0B1C2A"></stop> <stop offset="7.061372e-002" style="stop-color:#0A2535"></stop> <stop offset="0.1922" style="stop-color:#083D51"></stop> <stop offset="0.35" style="stop-color:#04647E"></stop> <stop offset="0.5112" style="stop-color:#0092B3"></stop> <stop offset="0.5141" style="stop-color:#0091B1"></stop> <stop offset="0.6301" style="stop-color:#046782"></stop> <stop offset="0.7402" style="stop-color:#07465C"></stop> <stop offset="0.8417" style="stop-color:#092F41"></stop> <stop offset="0.9314" style="stop-color:#0A2130"></stop> <stop offset="1" style="stop-color:#0B1C2A"></stop> </linearGradient> <path class="st3" d="M157.1,65.5c-7.3-1.8-14.7-3.1-22.1-4.2c-12.8-1.8-25.7-2.8-38.7-3c-9-0.1-12.6,0-12.6,0 c-12.9,0.2-25.8,1.2-38.7,3c-7.4,1.1-14.8,2.4-22.1,4.2c-7.3,1.8-14.5,3.9-21.4,6.8c7.2-1.9,14.5-3.4,21.9-4.6 c7.3-1.2,14.7-2.1,22.1-2.8c3.6-0.4,7.3-0.6,10.9-0.9c0,0,0.1,0,0.1,0c2.8-0.2,5.5-0.4,8.3-0.5c0.1,0,0.2,0,0.3,0 c2.2-0.1,4.4-0.2,6.6-0.3c0,0,0,0,0,0c3.2-0.1,6.3-0.2,9.5-0.3c0.1,0,0.1,0,0.2,0c0.8,0,1.5,0,2.3,0c0,0,3-0.1,12.6,0 c0.7,0,1.4,0,2,0c0.1,0,0.2,0,0.3,0c3.1,0.1,6.2,0.1,9.2,0.2c0.1,0,0.3,0,0.4,0c8.8,0.3,17.5,0.9,26.2,1.7 c4.4,0.4,8.9,0.9,13.3,1.5c0.3,0,0.5,0.1,0.8,0.1c2.5,0.3,5.1,0.7,7.6,1.1c0.2,0,0.3,0,0.5,0.1c0.2,0,0.3,0.1,0.5,0.1 c7.2,1.2,14.3,2.7,21.4,4.5C171.6,69.4,164.3,67.3,157.1,65.5z"></path> </g> </svg>