<?xml version="1.0" encoding="utf-8"?>
<!-- Generator: Adobe Illustrator 21.0.2, SVG Export Plug-In . SVG Version: 6.00 Build 0)  -->
<svg version="1.1" id="Layer_1" xmlns="http://www.w3.org/2000/svg" xmlns:xlink="http://www.w3.org/1999/xlink" x="0px" y="0px"
	 viewBox="0 0 221.2 63.6" style="enable-background:new 0 0 221.2 63.6;" xml:space="preserve">
<style type="text/css">
	.st0{fill:#FFFFFF;}
	.st1{fill:none;}
	.st2{clip-path:url(#SVGID_2_);fill:#FFFFFF;}
	.st3{clip-path:url(#SVGID_4_);fill:#FFFFFF;}
	.st4{clip-path:url(#SVGID_6_);fill:#FFFFFF;}
	.st5{fill:#C89941;}
</style>
<path class="st0" d="M70.7,26.2h3.8c0.9,0,1.5-0.6,1.5-1.3c0-0.8-0.6-1.3-1.5-1.3h-3.8V26.2z M70.7,21.7h3.4c0.9,0,1.3-0.6,1.3-1.2
	c0-0.6-0.5-1.2-1.3-1.2h-3.4V21.7z M74.3,17.5c1.6,0,3,0.9,3,2.8c0,1-0.5,1.7-1.3,2.1c1.1,0.4,1.9,1.2,1.9,2.6c0,1.9-1.4,3-3.2,3h-6
	V17.5H74.3z"/>
<path class="st0" d="M82.2,22.9h2.9c1.4,0,2-0.8,2-1.8c0-0.9-0.6-1.8-2-1.8h-2.9V22.9z M85.2,17.5c2.3,0,3.8,1.5,3.8,3.6
	c0,1.5-1.1,2.7-2.5,3.2l2.6,3.7h-2.4l-2.2-3.3h-2.4v3.3h-1.9V17.5H85.2z"/>
<rect y="0" class="st1" width="221.2" height="63.6"/>
<polygon class="st0" points="93.7,23.4 90,17.5 92.2,17.5 94.7,21.6 97.2,17.5 99.4,17.5 95.7,23.4 95.7,28.1 93.7,28.1 "/>
<path class="st0" d="M102.4,24.3h2.2l-1.1-2.7L102.4,24.3z M108.2,28.1h-2.1l-0.8-2h-3.5l-0.8,2h-2.1l4.7-10.7L108.2,28.1z"/>
<polygon class="st0" points="111.8,17.5 111.8,21.7 116.6,21.7 116.6,17.5 118.6,17.5 118.6,28.1 116.6,28.1 116.6,23.6 111.8,23.6 
	111.8,28.1 109.9,28.1 109.9,17.5 "/>
<g>
	<defs>
		<rect id="SVGID_1_" y="0" width="221.2" height="63.6"/>
	</defs>
	<clipPath id="SVGID_2_">
		<use xlink:href="#SVGID_1_"  style="overflow:visible;"/>
	</clipPath>
	<path class="st2" d="M127.8,22.9h2.9c1.4,0,2-0.8,2-1.8c0-0.9-0.6-1.8-2-1.8h-2.9V22.9z M130.8,17.5c2.3,0,3.8,1.5,3.8,3.6
		c0,1.5-1.1,2.7-2.5,3.2l2.6,3.7h-2.4l-2.2-3.3h-2.4v3.3h-1.9V17.5H130.8z"/>
</g>
<polygon class="st0" points="144.7,17.5 144.7,19.4 138.6,19.4 138.6,21.7 142.9,21.7 142.9,23.6 138.6,23.6 138.6,26.2 144.7,26.2 
	144.7,28.1 136.7,28.1 136.7,17.5 "/>
<g>
	<defs>
		<rect id="SVGID_3_" y="0" width="221.2" height="63.6"/>
	</defs>
	<clipPath id="SVGID_4_">
		<use xlink:href="#SVGID_3_"  style="overflow:visible;"/>
	</clipPath>
	<path class="st3" d="M147.3,25c0.8,0.8,1.9,1.4,3.1,1.4c1.5,0,2.5-0.6,2.5-1.6c0-2.3-6.8-0.1-6.8-4.4c0-1.9,2-3.2,4.4-3.2
		c1.7,0,3.1,0.6,4.2,1.6l-1.4,1.3c-1-0.9-1.8-1.3-2.8-1.3c-1.6,0-2.2,0.8-2.2,1.4c0,2.4,6.8,0,6.8,4.4c0,2.2-2.2,3.5-4.6,3.5
		c-1.5,0-3.2-0.6-4.5-1.9L147.3,25z"/>
	<path class="st3" d="M161.8,26.4c1.9,0,3.6-1.6,3.6-3.6c0-2-1.7-3.6-3.6-3.6c-1.9,0-3.6,1.6-3.6,3.6
		C158.2,24.8,159.9,26.4,161.8,26.4 M161.8,17.3c3.1,0,5.6,2.4,5.6,5.5c0,3.1-2.5,5.5-5.6,5.5c-3.1,0-5.6-2.4-5.6-5.5
		C156.2,19.7,158.7,17.3,161.8,17.3"/>
	<path class="st3" d="M169.2,17.5h1.9v5.8c0,1.9,1.2,3.1,2.7,3.1c1.5,0,2.7-1.2,2.7-3.1v-5.8h1.9v6.2c0,2.4-1.9,4.5-4.7,4.5
		c-2.8,0-4.7-2.1-4.7-4.5V17.5z"/>
	<path class="st3" d="M182.9,22.9h2.9c1.4,0,2-0.8,2-1.8c0-0.9-0.6-1.8-2-1.8h-2.9V22.9z M186,17.5c2.3,0,3.8,1.5,3.8,3.6
		c0,1.5-1.1,2.7-2.5,3.2l2.6,3.7h-2.4l-2.2-3.3h-2.4v3.3H181V17.5H186z"/>
	<path class="st3" d="M201,26.1c-1.2,1.5-2.8,2.2-4.5,2.2c-3.1,0-5.6-2.4-5.6-5.5c0-3.1,2.5-5.5,5.6-5.5c1.7,0,3.3,0.7,4.5,2.2
		l-1.6,1.2c-0.7-1-1.7-1.5-2.9-1.5c-1.9,0-3.6,1.6-3.6,3.6c0,2,1.7,3.6,3.6,3.6c1.2,0,2.2-0.6,2.9-1.5L201,26.1z"/>
</g>
<polygon class="st0" points="211,17.5 211,19.4 204.9,19.4 204.9,21.7 209.2,21.7 209.2,23.6 204.9,23.6 204.9,26.2 211,26.2 
	211,28.1 203,28.1 203,17.5 "/>
<g>
	<defs>
		<rect id="SVGID_5_" y="0" width="221.2" height="63.6"/>
	</defs>
	<clipPath id="SVGID_6_">
		<use xlink:href="#SVGID_5_"  style="overflow:visible;"/>
	</clipPath>
	<path class="st4" d="M213.6,25c0.8,0.8,1.9,1.4,3.1,1.4c1.5,0,2.5-0.6,2.5-1.6c0-2.3-6.8-0.1-6.8-4.4c0-1.9,2-3.2,4.4-3.2
		c1.7,0,3.1,0.6,4.2,1.6l-1.4,1.3c-1-0.9-1.8-1.3-2.8-1.3c-1.6,0-2.2,0.8-2.2,1.4c0,2.4,6.8,0,6.8,4.4c0,2.2-2.2,3.5-4.6,3.5
		c-1.5,0-3.2-0.6-4.5-1.9L213.6,25z"/>
</g>
<polygon class="st0" points="68,42.8 68,36.1 69.3,36.1 69.3,41.6 73.1,41.6 73.1,42.8 "/>
<rect x="80.4" y="36.1" class="st0" width="1.2" height="6.6"/>
<polygon class="st0" points="89.3,36 92.2,39 95.2,36 95.2,42.8 94,42.8 94,38.7 92.2,40.5 90.5,38.7 90.5,42.8 89.3,42.8 "/>
<rect x="102.9" y="36.1" class="st0" width="1.2" height="6.6"/>
<polygon class="st0" points="113.2,37.3 111.2,37.3 111.2,36.1 116.3,36.1 116.3,37.3 114.4,37.3 114.4,42.8 113.2,42.8 "/>
<polygon class="st0" points="128.6,36.1 128.6,37.3 124.7,37.3 124.7,38.8 127.4,38.8 127.4,39.9 124.7,39.9 124.7,41.6 128.6,41.6 
	128.6,42.8 123.5,42.8 123.5,36.1 "/>
<g>
	<path class="st0" d="M137.2,41.6h1.6c1.4,0,2.3-1,2.3-2.2c0-1.2-0.9-2.2-2.3-2.2h-1.6V41.6z M136,36.1h2.8c2.2,0,3.6,1.6,3.6,3.3
		c0,1.8-1.4,3.3-3.6,3.3H136V36.1z"/>
	<path class="st5" d="M35.7,10.2c-0.1-0.7-0.3-1.5-0.6-2.3c-0.3-0.8-0.6-1.5-1-2.1c-0.4-0.7-0.9-1.4-1.4-2c-0.6-0.7-1.2-1.2-1.9-1.7
		c-1.4-1-3-1.6-4.7-1.9c-1.5-0.3-3.1-0.2-4.7,0c-1.5,0.2-2.8,0.9-3.8,1.5c-1,0.5-4.1,3.1-4.3,3.3c-0.1,0.1-0.1,0.1-0.1,0.2
		c0,0.1,0.1,0.1,0.2,0.2c0,0,4,1,5.2,4.2c0,0.1,0.1,0.1,0.2,0.1c0.1,0,0.2,0,0.2-0.1c0.6-0.7,1.3-1.3,1.9-1.7c0-0.1,0-0.2,0-0.2
		c0-0.1,0-0.1,0-0.2C20.5,6.4,20,5.4,19,4.7c0,0,0,0,0-0.1c0,0,0,0,0.1,0c0.6,0.2,1.1,0.5,1.6,0.9c0.5,0.4,0.9,0.9,1.2,1.5
		c0,0,0,0.1,0.1,0.1c0,0.1,0.1,0.1,0.1,0.2c0.2-0.1,0.3-0.1,0.5-0.2C23.1,7,23.6,7,24.1,7c0,0,0,0,0.1,0c0-0.1,0-0.1,0.1-0.2
		c0,0,0,0,0,0c0.3-1,0.4-2.1,0-3.1c0,0,0-0.1,0-0.1c0,0,0.1,0,0.1,0c0.8,0.9,1.1,2.1,1.1,3.3c0,0,0,0,0,0c0,0.1,0,0.1,0,0.2
		c0.7,0.2,1.4,0.5,2,0.9c0.1,0,0.1-0.1,0.2-0.1c0.7-0.6,1.4-1.3,1.7-2.3c0,0,0,0,0.1,0c0,0,0,0,0,0c0.1,1-0.3,2.1-0.9,3
		c0,0.1-0.1,0.1-0.1,0.2c0.9,1,2.3,3,1.1,6.1c-0.1,0.4-0.3,0.8-0.5,1.1c-0.4,0.7-1.1,1.3-1.9,1.9c-0.4,0.3-0.8,0.5-1.2,0.7
		c-0.4,0.2-0.9,0.4-1.3,0.5c-0.9,0.3-1.9,0.3-2.7,0.3c-1.1-0.2-2.5-0.9-3.1-2c-0.3-0.7-0.3-1.4,0.2-2.2c0.2-0.3,0.6-0.5,0.9-0.6
		c0.4-0.2,0.8-0.3,1.2-0.3c0.4,0,0.9,0,1.4,0.1c0.3,0.1,0.6,0.2,0.8,0.2c0.3,0.1,0.5,0.2,0.8,0.3l0.1,0c0.1,0,0.2,0,0.2,0
		c0.1-0.1,0.1-0.1,0.1-0.2c-0.2-0.7-0.5-1.3-1.1-1.8c-0.5-0.5-1.2-1-2-1.2c-0.8-0.2-1.6-0.2-2.4-0.1c-0.8,0.2-1.5,0.6-2.2,1.1
		c-0.7,0.5-1.2,1.2-1.6,1.9c-0.4,0.8-0.6,1.7-0.6,2.6c0,0.9,0.3,1.8,0.7,2.6c0.4,0.7,0.9,1.3,1.6,1.9c0.6,0.5,1.3,1,2,1.3
		c0.7,0.3,1.5,0.6,2.2,0.7c0.6,0.1,1.3,0.2,2,0.2c0.1,0,0.2,0,0.3,0c0.7,0,1.4-0.1,2.2-0.2c1.4-0.3,2.8-0.8,4.1-1.5
		c1.3-0.7,2.5-1.7,3.5-2.8c1.1-1.2,1.9-2.7,2.3-4.1C35.8,13.5,35.9,11.9,35.7,10.2"/>
	<path class="st5" d="M17.7,50.7c-0.4-0.7-0.7-1.4-1-2.2l-0.2-0.6c0-0.1-0.1-0.2-0.1-0.3c0-0.1,0-0.2-0.1-0.2
		c-0.1-0.3-0.1-0.6-0.2-0.8l-0.1-0.3c-1.4-9.1,4.2-12.6,6.6-14.1l0.1-0.1c2.3-1.5,3.5-2.4,4.8-3.6c0.7-0.6,1.3-1.2,2-1.9
		c0.7-0.8,1.3-1.5,1.7-2.1c0.1-0.1,0-0.2,0-0.3c-0.1-0.1-0.2-0.1-0.3,0c-1.2,1-2.7,2-4.4,2.9c-1.5,0.9-3.1,1.6-4.7,2.2l-0.3,0.1
		c-0.3,0.1-0.6,0.2-0.9,0.3l-2,0.6c-0.2,0.1-0.3,0.1-0.5,0.2c-0.1,0-0.1,0.1-0.2,0.1l-0.7,0.3l-0.7,0.4c-0.8,0.5-1.6,1.1-2.5,1.9
		l-0.8,0.9c-0.1,0.1-0.1,0.1-0.2,0.2l-0.6,0.8c-0.1,0.2-0.2,0.3-0.3,0.5l-0.1,0.2c-0.2,0.4-0.4,0.8-0.6,1.1l-0.1,0.3
		c-0.1,0.2-0.1,0.3-0.2,0.5c0,0.1-0.1,0.2-0.1,0.3c0,0.1,0,0.1-0.1,0.2c-0.1,0.2-0.1,0.4-0.2,0.6l0,0.2c-0.1,0.5-0.2,0.9-0.2,1.4
		l0,0.2c0,0.2,0,0.4-0.1,0.5l0,1.2l0,0.4c0,0.3,0,0.5,0.1,0.8c0,0.2,0,0.4,0.1,0.5c0,0.1,0,0.2,0,0.2c0,0.3,0.1,0.5,0.1,0.8l0.1,0.2
		c0.1,0.4,0.2,0.8,0.4,1.2c0.1,0.2,0.2,0.5,0.3,0.7l0.1,0.4l0.5,1c0.1,0.1,0.2,0.3,0.2,0.4c0,0.1,0.1,0.1,0.1,0.2l0.1,0.2
		c0.1,0.2,0.2,0.3,0.3,0.5l0.4,0.6c0.5,0.7,1.1,1.5,1.9,2.2c0.7,0.7,1.5,1.3,2.3,1.8c1,0.6,1.9,0.9,2.7,1.1c0,0,0,0,0,0
		c0.1,0,0.2-0.1,0.2-0.1c0-0.1,0-0.2,0-0.2C19.5,53.7,18.6,52.3,17.7,50.7"/>
	<path class="st5" d="M37,63.1c-0.6-0.2-1.2-0.5-1.9-1c-0.5-0.4-1-0.9-1.6-1.4c-0.9-1-1.7-2.1-2.5-3.3c-1.4-2.3-2.2-4.9-2.6-7.5
		c-1.1-7.5,7.1-15.3,8.6-16.6c13.8-12.2,5.3-22,3.1-25.9c-0.4-0.7-0.8-1.3-1.3-1.9c-0.5-0.6-0.9-1.2-1.4-1.8c-0.1-0.1-0.2-0.1-0.3,0
		C37,3.6,37,3.7,37,3.8c0.6,1.2,1.2,2.5,1.7,4.1c0.5,1.5,0.9,2.9,1.2,4.2c0.3,1.4,0.4,2.8,0.4,4.2c0,1.4-0.2,2.7-0.5,4
		c-0.3,1.3-0.9,2.5-1.6,3.5L38,24.2c-0.1,0.1-0.2,0.3-0.3,0.4c-0.2,0.3-0.4,0.5-0.6,0.8c-0.4,0.6-0.9,1-1.4,1.5
		c-0.9,0.9-1.9,1.7-3.1,2.6c-0.6,0.4-1.2,0.8-1.8,1.2c-0.7,0.5-1.3,0.9-1.9,1.3c-0.6,0.4-1.3,0.9-2,1.6c-0.3,0.3-0.7,0.6-1,0.9
		c-0.3,0.3-0.6,0.7-0.9,1.1c-0.3,0.4-0.6,0.8-0.8,1.2c-0.3,0.4-0.5,0.9-0.7,1.3c-0.4,0.8-0.7,1.7-0.9,2.7c-0.4,1.6-0.5,3.3-0.3,5.3
		c0.1,1.8,0.4,3.4,0.9,5c1,3.3,2.8,6.2,5.1,8.5c1.2,1.2,2.5,2.2,3.9,2.9c0.8,0.4,1.5,0.7,2.3,0.9c0.6,0.2,1.2,0.3,1.8,0.3
		c0.2,0,0.4,0,0.7,0c0.1,0,0.2-0.1,0.2-0.2C37.1,63.3,37.1,63.2,37,63.1"/>
	<path class="st5" d="M50.8,12.8c-1.6-2.2-4.4-4.5-5-4.7c-0.1,0-0.2,0-0.2,0.1c-0.1,0.1-0.1,0.2,0,0.3c1.5,2,2.6,4,3.3,6.1
		c0.7,2.1,1.1,4.1,1.1,6.2c0,1-0.1,2-0.3,3.1c-0.1,0.4-0.2,0.9-0.4,1.5c-0.1,0.2-0.1,0.4-0.2,0.6l-0.3,0.8c-0.6,1.7-1.8,3.3-3.4,5.1
		c-0.7,0.7-1.4,1.5-2.4,2.4c-0.8,0.7-1.7,1.6-2.6,2.5c-1,1-1.9,2-2.6,2.9c-0.9,1.2-1.6,2.4-2,3.6c-0.5,1.3-0.7,2.7-0.7,4.1
		c0,1.3,0.2,2.5,0.7,3.9c0.7,2.2,1.9,4.4,3.7,6.5c0,0.1,0.1,0.1,0.2,0.1c0,0,0.1,0,0.1,0c0.1,0,0.1-0.2,0.1-0.3
		c-0.4-1.1-0.8-2.3-1.1-3.4c0-0.1-0.1-0.2-0.1-0.4c0-0.2-0.1-0.3-0.1-0.5L38.3,53c0-0.2-0.1-0.4-0.1-0.6c-0.1-0.3-0.1-0.6-0.2-0.8
		c0-0.2-0.1-0.4-0.1-0.7l0-0.2c-0.1-1.1-0.1-2.2,0.1-3.2c0.2-1.1,0.5-2,1-2.8c0.5-0.8,1.1-1.6,1.9-2.4c0.7-0.8,1.6-1.5,2.5-2.2
		c0.5-0.4,1-0.8,1.5-1.2c0.4-0.3,0.8-0.7,1.3-1c0.9-0.7,1.9-1.6,2.8-2.5c1-1,1.9-2,2.6-3C55.7,27.4,55.4,18.3,50.8,12.8"/>
	<path class="st5" d="M13.3,12c0,0-2.6,0.8-3.3,3.3c0.4-0.3,0.7-0.5,1-0.6c0.4,0.1,1.3-0.2,1.6-0.4c0.2-0.2,0.2-0.6,0.2-1L13.3,12z"
		/>
	<path class="st5" d="M14,29.1c-1.4,0.1-2.9,0.2-4.3,0.3c-0.7,0.1-1.4,0.2-2,0.1c-0.6,0-1.2-0.2-1.7-0.4c-1.1-0.4-2-1.2-2.6-2.2
		c-0.3-0.5-0.5-1.1-0.7-1.6c0-0.1-0.1-0.3-0.1-0.4c0-0.1,0-0.1,0-0.3c0-0.2,0-0.5,0.1-0.8C3,22.7,3.5,21.4,4,20.1
		c0.5-1.3,1.1-2.5,1.7-3.8c0.6-1.2,1.3-2.5,2-3.6c0.7-1.2,1.5-2.4,2.4-3.4l0,0c0.1-0.1,0.1-0.2,0-0.3c-0.1-0.1-0.2-0.1-0.4,0
		c-2.3,1.8-4.1,4.1-5.8,6.5c-0.8,1.2-1.6,2.4-2.2,3.7c-0.7,1.3-1.3,2.6-1.7,4.2C0,23.8,0,24.2,0,24.7c0,0.5,0.1,1.2,0.3,1.5
		c0.3,0.8,0.7,1.5,1.2,2.2c1,1.3,2.4,2.4,4,2.9c0.8,0.2,1.6,0.3,2.4,0.2c0.8-0.1,1.6-0.3,2.2-0.5c1.4-0.4,2.7-0.8,4.1-1.3
		c0.1,0,0.2-0.1,0.2-0.2C14.3,29.2,14.2,29.1,14,29.1"/>
</g>
</svg>
