<?xml version="1.0" encoding="utf-8"?>
<!-- Generator: Adobe Illustrator 21.0.2, SVG Export Plug-In . SVG Version: 6.00 Build 0)  -->
<svg version="1.1" id="Layer_1" xmlns="http://www.w3.org/2000/svg" xmlns:xlink="http://www.w3.org/1999/xlink" x="0px" y="0px" viewBox="0 0 500 225" style="enable-background:new 0 0 500 225;" xml:space="preserve">
  <style type="text/css">
	.st0{fill:none;}
	.st1{fill:#FFFFFE;}
	.st2{fill:#15284B;}
	.st3{fill:none;stroke:#15284B;stroke-width:1.2582;}
	.st4{fill:#FFFFFF;}
	.st5{fill:#15284B;stroke:#FFFFFF;stroke-width:4.4206;stroke-miterlimit:10;}
	.st6{fill:#3E8EDE;stroke:#FFFFFF;stroke-width:4.2187;stroke-miterlimit:10;}
	.st7{fill:none;stroke:#00ABC5;stroke-width:2.0922;stroke-miterlimit:10;}
	.st8{fill:none;stroke:#3E8EDE;stroke-width:2.2444;stroke-miterlimit:10;}
	.st9{fill:#3E8EDE;stroke:#3E8EDE;stroke-width:1.75;stroke-linecap:round;stroke-linejoin:round;stroke-miterlimit:10;}
	.st10{fill:#FFFFFF;stroke:#FFFFFF;stroke-width:7;stroke-miterlimit:10;}
</style>
  <g>
    <g>
      <path class="st0" d="M103.4,214.5c-1.2,0-1.8,1.1-1.9,2h3.6C105.1,215.8,104.8,214.5,103.4,214.5z" />
      <path class="st0" d="M92.4,190.7c-2.8,0-4,2.6-4.2,4.4h8C96.2,193.4,95.5,190.7,92.4,190.7z" />
      <path class="st0" d="M135.6,214.6c-1.5,0-2.1,1.3-2.1,2.6c0,1.5,0.9,2.6,2.1,2.6c1.2,0,2.1-1.1,2.1-2.6
			C137.6,216,137.1,214.6,135.6,214.6z" />
      <path class="st0" d="M155,212c-2,0-3,1.9-3,3.9c0,2,1.1,3.8,3,3.8c1.9,0,3-1.8,3-3.9C158,213.9,157.1,212,155,212z" />
      <path class="st0" d="M85.1,214.6c-1.5,0-2.1,1.3-2.1,2.6c0,1.5,0.9,2.6,2.1,2.6c1.2,0,2.1-1.1,2.1-2.6
			C87.1,216,86.6,214.6,85.1,214.6z" />
      <path class="st0" d="M39,214.5c-1.2,0-1.8,1.1-1.9,2h3.6C40.8,215.8,40.4,214.5,39,214.5z" />
      <path class="st0" d="M58.3,214.5c-1.2,0-1.8,1.1-1.9,2H60C60,215.8,59.6,214.5,58.3,214.5z" />
      <path class="st0" d="M46.3,190.9c-3.2,0-4.5,3.2-4.5,6.2c0,3.5,1.7,6.1,4.5,6.1c2.6,0,4.4-2.5,4.4-6.2
			C50.6,194.1,49.4,190.9,46.3,190.9z" />
      <path class="st0" d="M168,214.5c-1.2,0-1.8,1.1-1.9,2h3.6C169.8,215.8,169.4,214.5,168,214.5z" />
      <path class="st0" d="M163.5,190.7c-2.8,0-4,2.6-4.2,4.4h8C167.3,193.4,166.6,190.7,163.5,190.7z" />
      <path class="st0" d="M38,98.9L38,98.9l-0.4,0C37.7,99,37.9,99,38,98.9z" />
      <path class="st1" d="M33.7,99.3c1.4,0,2.9-0.2,3.9-0.4l0.4-0.1V61.5v-1.1h21.6v5.9H44v10h13.4v5.9H44v14.9
			C55.1,92.8,62.9,82,62.9,69.4c0-10.8-5.7-20.3-14.3-25.6c0,0.2,0,0.3,0,0.5c0.2,3.5-0.4,8.1-4,11.2c-1,0.9-2.3,1.7-3.9,2.3l0,0
			c-1.6,0.6-3.3,1.2-5,1.8c-3.3,1.2-6.6,2.6-9.6,4.3c-5.1,2.9-9.1,6.8-10.6,13c-0.6,2.6-0.7,5.5-0.3,8.9c0.3,2.6,0.9,5.1,1.6,7.6
			c0.1,0.3,0.2,0.7,0.3,1c0,0.1,0.1,0.3,0.1,0.4c4.6,2.8,10,4.5,15.7,4.5C33.2,99.4,33.4,99.3,33.7,99.3z" />
      <path class="st2" d="M174.2,68.4l-0.3-4.8c0,0-3.4,1.3-5,0.1c-1.6-1.2-3.6-11.3-3.6-11.3l-5.1-2.5l-2-1.6L147,22.3l-3.1,1.1
			l-1-7.4l-4.4-10.4L133.1,18c0,0-3.1,21.7-5,21.8c-1.8,0.1-19.3-11.4-19.9-13.5c-0.6-2,6.6-12.7,6.6-12.7l-12.1-1.1l-2.9-1.3
			l-6.5-3.5l3,4.8l-7.2-0.1L84.1,19c0,0,1.2,6.5-0.8,7.7c-2,1.2-4.9-1.5-4.9-1.5L77.1,25l-3.4-3.8l-6-0.2l-2.5,6l-2.6,0.1l1.9,2.2
			l-7,2.7l0.6,8.6l-3.6-7.5l-3.3,4.2l0.9,4.3l-3.4,2.1l-0.2,0.1c8.6,5.3,14.3,14.7,14.3,25.6c0,12.6-7.8,23.4-18.9,27.8V82.4h13.4
			v-5.9H44v-10h15.6v-5.9H38v1.1v37.3v0.1c-0.1,0-0.2,0-0.4,0c-1,0.1-2.5,0.3-3.9,0.4c-0.2,0-0.5,0-0.7,0c-5.8,0-11.2-1.6-15.7-4.5
			c0.1,0.5,0.3,1,0.4,1.5c2.7,8.2,5.5,17.1,5.9,19.7l0,0l0,0c0.1,0.3,0.1,0.6,0,0.7c-0.5,1.5-3.2,2.1-3.2,2.1l6.5,6.5
			c0,0,19.6-8.5,21.1-8.3c1.5,0.2,2.9,3.1,2.9,3.1s34.6-13.3,39.1-12.3c4.4,1,16.7,15.4,16.7,15.4l3.2,0.2l8.2-10.5l-3.4,11.8
			l3.2,1.1l1.5-4.8l2,3.1l-1.9,4.3l3.4-0.7l10.5,14.3l7,1.4l7.1-1.8l7.4,4h1.9l-0.4-1.4l5.1-4.7l8.8-2.1l8.5-23.3l1.6-1.5l4.7-35.4
			L174.2,68.4z M110.5,99l-3.4-24.5L95,99h-1.9L80.8,74.3L77.5,99h-4.2h-0.9l5.5-38.3h1.7l14.5,29.2l14.3-29.2h1.7l5.5,38.3H110.5z
			 M166.1,80.6c0,2.9-0.5,5.6-1.3,7.9c-0.9,2.4-2.2,4.4-3.9,6.2c-1.7,1.7-3.8,3.1-6.1,3.9c-2.3,0.9-4.9,1.3-7.8,1.3h0
			c-3.5,0-6.6-0.6-9.4-1.8c-2.8-1.2-5.2-3-7.3-5.4c-1.6-1.8-2.8-3.8-3.6-6c-0.8-2.1-1.2-4.4-1.2-6.9v0v0v0v0c0-3.6,0.9-7,2.7-10.1
			c1.8-3.1,4.3-5.6,7.5-7.3c3.2-1.8,6.8-2.6,10.7-2.6h0h0h0c3.2,0,6.2,0.6,9.1,1.7c2.9,1.2,5.6,3,8.3,5.6l0.6,0.5l-4,3.8l-0.5-0.5
			c-2-2-4.2-3.4-6.5-4.4c-2.4-1-4.6-1.5-6.8-1.5c-2.8,0-5.4,0.7-7.9,2c-2.5,1.4-4.4,3.2-5.8,5.5c-1.4,2.3-2,4.7-2,7.3
			c0,2.6,0.7,5.1,2.1,7.5c1.4,2.4,3.4,4.2,5.9,5.6c2.5,1.4,5.2,2,8.2,2c3.6,0,6.6-1,9.1-3c1.2-1,2.2-2.2,2.9-3.5
			c0.6-1,1-2.2,1.3-3.4l0-0.1h-11.6v-5.1h17.4L166.1,80.6z" />
      <polygon class="st2" points="148.5,168.6 155.7,170.3 156.5,167.8 159.1,169.5 159.5,168.2 161.1,165.3 161.8,157.3 153.7,158.1 
			143.5,155.7 147.2,164 		" />
      <path class="st2" d="M16.8,93.5c-0.7-2.5-1.2-5-1.6-7.6c-0.4-3.4-0.3-6.4,0.3-8.9c1.4-6.2,5.5-10.1,10.6-13c3-1.7,6.3-3.1,9.6-4.3
			c1.7-0.6,3.4-1.2,5-1.8l0,0c1.6-0.6,2.8-1.4,3.9-2.3c3.6-3.1,4.2-7.7,4-11.2c0-0.2,0-0.4,0-0.5c-4.5-2.8-9.9-4.4-15.6-4.4
			C16.4,39.5,3,52.9,3,69.4c0,10.8,5.7,20.2,14.2,25.5c0-0.1-0.1-0.3-0.1-0.4C17,94.2,16.9,93.8,16.8,93.5z" />
      <polygon class="st1" points="108.4,60.7 94.1,89.9 79.6,60.7 77.9,60.7 72.4,99 73.3,99 77.5,99 80.8,74.3 93.1,99 95,99 
			107.1,74.5 110.5,99 115.6,99 110.1,60.7 		" />
      <path class="st1" d="M148.7,84.9h11.6l0,0.1c-0.3,1.2-0.7,2.4-1.3,3.4c-0.7,1.3-1.7,2.4-2.9,3.5c-2.5,2-5.5,3-9.1,3
			c-3,0-5.7-0.7-8.2-2c-2.5-1.4-4.4-3.2-5.9-5.6c-1.4-2.4-2.1-4.9-2.1-7.5c0-2.6,0.7-5,2-7.3c1.4-2.3,3.3-4.1,5.8-5.5
			c2.5-1.4,5.1-2,7.9-2c2.2,0,4.5,0.5,6.8,1.5c2.3,1,4.5,2.5,6.5,4.4l0.5,0.5l4-3.8l-0.6-0.5c-2.7-2.5-5.4-4.4-8.3-5.6
			c-2.8-1.2-5.9-1.7-9.1-1.7h0h0h0c-4,0-7.5,0.9-10.7,2.6c-3.2,1.8-5.7,4.2-7.5,7.3c-1.8,3.1-2.7,6.5-2.7,10.1v0v0v0v0
			c0,2.4,0.4,4.7,1.2,6.9c0.8,2.1,2,4.2,3.6,6c2.1,2.4,4.5,4.2,7.3,5.4c2.8,1.2,5.9,1.8,9.4,1.8h0c2.9,0,5.5-0.4,7.8-1.3
			c2.3-0.9,4.4-2.2,6.1-3.9c1.7-1.7,3.1-3.8,3.9-6.2c0.9-2.4,1.3-5,1.3-7.9l0-0.8h-17.4V84.9z" />
      <polygon class="st2" points="20.7,212.2 23.5,212.2 23.5,220.6 24.8,220.6 24.8,212.2 27.7,212.2 27.7,211.1 20.7,211.1 		" />
      <path class="st2" d="M32.1,213.7c-0.5,0-0.9,0.1-1.3,0.3c-0.4,0.2-0.7,0.5-0.9,0.9h0v-4.2h-1.2v10h1.2v-4.1c0-0.2,0-0.4,0.1-0.6
			c0.2-0.7,0.9-1.2,1.7-1.2c1.2,0,1.6,0.9,1.6,2v3.9h1.2v-4C34.4,214.2,33,213.7,32.1,213.7z" />
      <path class="st2" d="M39.1,213.7c-2,0-3.2,1.6-3.2,3.7s1.2,3.4,3.3,3.4c1.1,0,1.8-0.2,2.3-0.4l-0.2-0.9c-0.5,0.2-1,0.4-1.9,0.4
			c-1.2,0-2.3-0.7-2.3-2.4h4.8c0-0.1,0-0.3,0-0.6C41.9,215.6,41.4,213.7,39.1,213.7z M37.2,216.5c0.1-0.9,0.6-2,1.9-2
			c1.4,0,1.7,1.2,1.7,2H37.2z" />
      <path class="st2" d="M52.4,215.1c0,1.5,0,2.6,0.1,3.9l0,0c-0.5-1-1-2-1.7-3.1l-3-4.8h-1.3v9.4h1.1v-4c0-1.6,0-2.7-0.1-3.9l0,0
			c0.5,1,1.1,2.1,1.8,3.2l3,4.8h1.2v-9.4h-1.1V215.1z" />
      <path class="st2" d="M58.4,213.7c-2,0-3.2,1.6-3.2,3.7s1.2,3.4,3.3,3.4c1.1,0,1.8-0.2,2.3-0.4l-0.2-0.9c-0.5,0.2-1,0.4-1.9,0.4
			c-1.2,0-2.3-0.7-2.3-2.4h4.8c0-0.1,0-0.3,0-0.6C61.2,215.6,60.6,213.7,58.4,213.7z M56.4,216.5c0.1-0.9,0.6-2,1.9-2
			c1.4,0,1.7,1.2,1.7,2H56.4z" />
      <path class="st2" d="M69.6,217.2c-0.2,0.8-0.4,1.5-0.5,2.2h0c-0.2-0.7-0.3-1.4-0.6-2.2l-1.1-3.4h-1l-1.1,3.5
			c-0.2,0.7-0.4,1.5-0.6,2.2h0c-0.1-0.7-0.3-1.4-0.5-2.2l-0.9-3.5h-1.3l2,6.8h1.1l1.1-3.2c0.2-0.7,0.4-1.4,0.6-2.2h0
			c0.2,0.8,0.4,1.5,0.6,2.2l1,3.2h1.1l2.2-6.8h-1.2L69.6,217.2z" />
      <polygon class="st2" points="76,220.6 77.2,220.6 77.2,216.3 80.8,216.3 80.8,215.3 77.2,215.3 77.2,212.2 81.1,212.2 81.1,211.1 
			76,211.1 		" />
      <path class="st2" d="M85.1,213.7c-1.9,0-3.4,1.3-3.4,3.6c0,2.1,1.4,3.5,3.3,3.5c1.6,0,3.4-1.1,3.4-3.6
			C88.4,215.1,87.1,213.7,85.1,213.7z M85.1,219.8c-1.2,0-2.1-1.1-2.1-2.6c0-1.3,0.6-2.6,2.1-2.6c1.5,0,2,1.5,2,2.6
			C87.1,218.7,86.3,219.8,85.1,219.8z" />
      <path class="st2" d="M91.1,215.1L91.1,215.1l-0.1-1.3h-1.1c0,0.6,0.1,1.3,0.1,2.1v4.7h1.2V217c0-0.2,0-0.4,0.1-0.6
			c0.2-0.9,0.8-1.6,1.7-1.6c0.2,0,0.3,0,0.4,0v-1.2c-0.1,0-0.2,0-0.4,0C92.1,213.7,91.4,214.2,91.1,215.1z" />
      <path class="st2" d="M97.7,214.6c0.7,0,1.1,0.2,1.4,0.3l0.3-1c-0.3-0.2-1-0.4-1.7-0.4c-2.2,0-3.6,1.5-3.6,3.6
			c0,2.1,1.3,3.5,3.4,3.5c0.9,0,1.6-0.2,1.9-0.4l-0.2-0.9c-0.3,0.2-0.8,0.3-1.5,0.3c-1.3,0-2.4-1-2.4-2.5
			C95.3,215.8,96.1,214.6,97.7,214.6z" />
      <path class="st2" d="M103.5,213.7c-2,0-3.2,1.6-3.2,3.7s1.2,3.4,3.3,3.4c1.1,0,1.8-0.2,2.3-0.4l-0.2-0.9c-0.5,0.2-1,0.4-1.9,0.4
			c-1.2,0-2.3-0.7-2.3-2.4h4.8c0-0.1,0-0.3,0-0.6C106.3,215.6,105.7,213.7,103.5,213.7z M101.5,216.5c0.1-0.9,0.6-2,1.9-2
			c1.4,0,1.7,1.2,1.7,2H101.5z" />
      <rect x="110.8" y="213.8" class="st2" width="1.2" height="6.8" />
      <path class="st2" d="M111.4,211.1c-0.4,0-0.8,0.3-0.8,0.8c0,0.4,0.3,0.8,0.7,0.8c0.5,0,0.8-0.3,0.8-0.8
			C112.2,211.5,111.9,211.1,111.4,211.1z" />
      <path class="st2" d="M117.5,213.7c-1.1,0-1.9,0.6-2.2,1.3h0l-0.1-1.1H114c0,0.6,0.1,1.1,0.1,1.8v4.9h1.2v-4.1c0-0.2,0-0.4,0.1-0.6
			c0.2-0.7,0.8-1.3,1.7-1.3c1.2,0,1.6,0.9,1.6,2v3.9h1.2v-4.1C119.9,214.2,118.4,213.7,117.5,213.7z" />
      <rect x="124.9" y="211.1" class="st2" width="1.2" height="9.4" />
      <path class="st2" d="M129.3,215.1L129.3,215.1l-0.1-1.3h-1.1c0,0.6,0.1,1.3,0.1,2.1v4.7h1.2V217c0-0.2,0-0.4,0.1-0.6
			c0.2-0.9,0.8-1.6,1.7-1.6c0.2,0,0.3,0,0.4,0v-1.2c-0.1,0-0.2,0-0.4,0C130.4,213.7,129.6,214.2,129.3,215.1z" />
      <path class="st2" d="M135.6,213.7c-1.9,0-3.4,1.3-3.4,3.6c0,2.1,1.4,3.5,3.3,3.5c1.6,0,3.4-1.1,3.4-3.6
			C138.9,215.1,137.6,213.7,135.6,213.7z M135.6,219.8c-1.2,0-2.1-1.1-2.1-2.6c0-1.3,0.6-2.6,2.1-2.6s2,1.5,2,2.6
			C137.6,218.7,136.8,219.8,135.6,219.8z" />
      <path class="st2" d="M143.8,213.7c-1.1,0-1.9,0.6-2.2,1.3h0l-0.1-1.1h-1.1c0,0.6,0.1,1.1,0.1,1.8v4.9h1.2v-4.1
			c0-0.2,0-0.4,0.1-0.6c0.2-0.7,0.8-1.3,1.7-1.3c1.2,0,1.6,0.9,1.6,2v3.9h1.2v-4.1C146.2,214.2,144.8,213.7,143.8,213.7z" />
      <path class="st2" d="M155.1,211c-2.5,0-4.4,2-4.4,5c0,2.9,1.7,4.8,4.2,4.8c2.4,0,4.4-1.7,4.4-5C159.3,213,157.7,211,155.1,211z
			 M155,219.7c-1.9,0-3-1.8-3-3.8c0-2.1,1-3.9,3-3.9c2,0,3,2,3,3.8C158,218,156.9,219.7,155,219.7z" />
      <path class="st2" d="M162,215.1L162,215.1l-0.1-1.3h-1.1c0,0.6,0.1,1.3,0.1,2.1v4.7h1.2V217c0-0.2,0-0.4,0.1-0.6
			c0.2-0.9,0.8-1.6,1.7-1.6c0.2,0,0.3,0,0.4,0v-1.2c-0.1,0-0.2,0-0.4,0C163,213.7,162.3,214.2,162,215.1z" />
      <path class="st2" d="M168.1,213.7c-2,0-3.2,1.6-3.2,3.7s1.2,3.4,3.3,3.4c1.1,0,1.8-0.2,2.3-0.4l-0.2-0.9c-0.5,0.2-1,0.4-1.9,0.4
			c-1.2,0-2.3-0.7-2.3-2.4h4.8c0-0.1,0-0.3,0-0.6C171,215.6,170.4,213.7,168.1,213.7z M166.2,216.5c0.1-0.9,0.6-2,1.9-2
			c1.4,0,1.7,1.2,1.7,2H166.2z" />
      <polygon class="st2" points="20.8,206.1 25.4,206.1 25.4,195.4 34.6,195.4 34.6,191.7 25.4,191.7 25.4,184.8 35.3,184.8 35.3,181 
			20.8,181 		" />
      <path class="st2" d="M55.4,196.8c0-5.5-3.6-9.3-9-9.3c-5.5,0-9.4,3.6-9.4,9.6c0,5.8,4,9.3,9.1,9.3
			C50.7,206.5,55.4,203.5,55.4,196.8z M46.2,203.2c-2.8,0-4.5-2.6-4.5-6.1c0-3,1.3-6.2,4.5-6.2c3.1,0,4.4,3.3,4.4,6.1
			C50.6,200.6,48.8,203.2,46.2,203.2z" />
      <path class="st2" d="M63.3,206.1v-9.4c0-0.5,0-1,0.1-1.4c0.4-2.1,1.9-3.5,4.1-3.5c0.6,0,1,0,1.4,0.1v-4.3
			c-0.4-0.1-0.6-0.1-1.1-0.1c-2,0-4.1,1.3-5,3.8h-0.1l-0.2-3.4h-3.9c0.1,1.6,0.1,3.4,0.1,5.8v12.3H63.3z" />
      <path class="st2" d="M81.9,206l-0.1-3.5c-0.5,0.1-1,0.2-1.8,0.2c-1.7,0-2.3-1.1-2.3-3.3v-8h4.4V188h-4.4v-4.6l-4.5,1.3v3.4h-2.6
			v3.4h2.6v8.5c0,2.4,0.4,4.1,1.5,5.1c0.9,0.9,2.2,1.5,3.9,1.5C80,206.5,81.3,206.3,81.9,206z" />
      <path class="st2" d="M93.8,203c-2.9,0-5.5-1.4-5.6-4.7h12.1c0.1-0.4,0.1-1.1,0.1-1.9c0-4-1.9-8.8-7.8-8.8c-5.8,0-8.9,4.7-8.9,9.7
			c0,5.5,3.5,9.2,9.3,9.2c2.6,0,4.8-0.5,6.3-1.2l-0.7-3.1C97.4,202.6,95.9,203,93.8,203z M92.4,190.7c3.1,0,3.8,2.8,3.8,4.4h-8
			C88.4,193.2,89.6,190.7,92.4,190.7z" />
      <path class="st2" d="M115.5,200.7c0-2.7-1.5-4.4-4.8-5.5c-2.3-0.9-3.2-1.4-3.2-2.5c0-1.1,0.9-1.9,2.5-1.9c1.6,0,3.1,0.6,3.8,1
			l0.9-3.2c-1.1-0.6-2.8-1.1-4.8-1.1c-4.2,0-6.8,2.5-6.8,5.7c0,2.2,1.4,4.1,5,5.3c2.2,0.8,3,1.4,3,2.6c0,1.2-0.9,2-2.9,2
			c-1.6,0-3.6-0.7-4.6-1.3l-0.9,3.3c1.3,0.7,3.3,1.3,5.5,1.3C113,206.4,115.5,204.1,115.5,200.7z" />
      <path class="st2" d="M128,202.8c-3.1,0-5.5-2.1-5.5-5.8c0-3.3,2-5.9,5.5-5.9c1.6,0,2.7,0.3,3.5,0.7l0.8-3.5
			c-1-0.4-2.8-0.8-4.4-0.8c-6.4,0-10.1,4.2-10.1,9.6c0,5.6,3.7,9.3,9.3,9.3c2.3,0,4.2-0.5,5.1-0.9l-0.6-3.4
			C130.7,202.5,129.6,202.8,128,202.8z" />
      <path class="st2" d="M151.5,200.6V188h-4.6v10.9c0,0.5-0.1,1-0.3,1.4c-0.5,1.2-1.6,2.5-3.5,2.5c-2.4,0-3.4-1.9-3.4-4.9V188h-4.6
			v10.6c0,5.9,3,7.9,6.3,7.9c3.3,0,5.1-1.9,5.8-3.1h0.1l0.2,2.7h4C151.6,204.6,151.5,202.8,151.5,200.6z" />
      <path class="st2" d="M163.8,187.5c-5.8,0-8.9,4.7-8.9,9.7c0,5.5,3.5,9.2,9.3,9.2c2.6,0,4.8-0.5,6.3-1.2l-0.7-3.1
			c-1.4,0.5-2.9,0.8-5,0.8c-2.9,0-5.5-1.4-5.6-4.7h12.1c0.1-0.4,0.1-1.1,0.1-1.9C171.6,192.4,169.6,187.5,163.8,187.5z M159.3,195.1
			c0.2-1.9,1.4-4.4,4.2-4.4c3,0,3.8,2.8,3.8,4.4H159.3z" />
    </g>
    <line class="st3" x1="233.7" y1="4.4" x2="233.7" y2="220.7" />
    <g>
      <path class="st4" d="M434.1,114.9c0.8,1.5,1.6,3.1,2.3,4.7c0.2-2.1,0.3-4.2,0.5-6.3c-0.9-0.1-1.9-0.2-2.8-0.4
			c-0.1,0.5-0.1,1-0.2,1.5C434,114.6,434,114.8,434.1,114.9" />
      <path class="st5" d="M494.4,83.3c-2.2,0.2-4.5,0.6-6.5,1.7c-0.8,0.5-1.5,0.9-2.2,1.4c-1.8-7.6-4.6-15-8.7-21.8
			c0.6-0.4,1.3-0.8,1.8-1.3c2.4-2.3,3-4.7,2.5-8.3c-0.5-3.6-2.8-5.1-3.4-5.9c-0.6-0.8-2.9-2.1-5.2-1.9c-2.2,0.2-4.5,0.6-6.5,1.7
			c-0.5,0.3-0.9,0.5-1.3,0.8c-2.5-2.2-5.2-4.4-8.1-6.4c-1-0.7-2.3-1.6-3.6-2.5c1.4-1.9,1.7-4,1.3-6.9c-0.5-3.6-2.8-5-3.4-5.9
			c-0.6-0.8-2.9-2.1-5.2-1.9c-2.2,0.2-4.5,0.6-6.5,1.7c-1.4,0.7-2.4,1.6-3.2,2.4c-6.9-3.5-14.7-6.3-22.7-6.8
			c0.3-1.8-0.1-3.6-1.1-5.7c-1.6-3.2-4.2-4-5-4.6c-0.8-0.6-3.5-1.1-5.6-0.3c-2.1,0.8-4.2,1.8-5.8,3.4c-3.1,3.1-3.6,6.1-3.4,8.1
			c-10.8,0.9-21.5,2.5-31.1,6.7c0,0,0-0.1-0.1-0.1c-1.6-3.2-4.2-4-5-4.6c-0.8-0.6-3.5-1.1-5.6-0.3c-2.1,0.8-4.2,1.8-5.8,3.4
			c-5.4,5.4-2.8,10.7-2.8,10.7l1.3,2.7c-7.1,5.5-11.1,8.8-14.7,14.2c-0.9-2-2.3-3-2.8-3.7c-0.6-0.8-2.9-2.1-5.2-1.9
			c-2.2,0.2-4.5,0.6-6.5,1.7c-6.7,3.7-5.8,9.5-5.8,9.5l0.6,4.2l1,1.8l0.8,0.9l3.3,1.6l5.8-0.2c0,0,0.8-0.2,1.8-0.6
			c-4.4,8.3-11,18-16.4,28.2c0.2-1.1,0.1-2.2-0.1-3.5c-0.5-3.6-2.8-5.1-3.4-5.9c-0.6-0.8-2.9-2.1-5.2-1.9c-2.2,0.2-4.5,0.6-6.5,1.7
			c-6.7,3.7-5.8,9.5-5.8,9.5l0.6,4.2l1,1.8l0.8,0.9l3.3,1.6l5.8-0.2c0,0,4.6-1.2,6.9-3.5c0.1-0.1,0.2-0.2,0.3-0.4
			c-2.8,5.8-5.1,11.7-6.2,17.6c-0.1,0.7-0.2,1.4-0.4,2.1c-0.5-0.6-1-1-1.3-1.3" />
      <path class="st6" d="M437,139.1c-8.7,7-23.5,14-33.2,16.2c-9.6,2.2-31.6-0.5-37-5.4c-5.4-4.9-25.7-13.2-34.3-37
			c-1-2.8-1.5-7.4-0.5-17.6c0,0,0.3-3.1,0.9-6.6c0.6-3.5,4.1-4.1,8-8c4-4,12.5-12.4,23.2-16.5c10.7-4.1,25.6-2.7,34.8-4.1
			c9.2-1.4,11.5-0.2,22.7,3.2c11.2,3.4,18.4,12.8,25.3,21.2c6.9,8.4,5.5,21.3,5.4,26.4C452.2,123.1,445.6,132.1,437,139.1" />
      <path class="st7" d="M323.7,77.6c-7.2,13.5-10.1,20-9.4,23.8c0.7,3.9,18.2,39.8,22.4,48.1c4.2,8.3,23.3,20.6,37.2,20.7
			c13.9,0.2,31.3-0.4,46.6-7c15.3-6.6,46.5-20.1,52-26c5.5-5.9,12.2-23.7,7.9-37.3c-4.3-13.6-8.4-28.5-21.1-36.6
			c-12.7-8.1-15-10.5-27.9-11.6c-12.9-1.1-31.6-7.7-47.9-5.7c-16.3,2.1-32.3,10.6-39.8,14.7c-7.5,4.1-12.3,3.7-15.1,8.2
			C325.9,73.6,323.7,77.6,323.7,77.6z" />
      <path class="st8" d="M331.6,80.8c-6.4,12.1-9,17.9-8.4,21.3c0.6,3.5,16.3,35.6,20.1,43.1c3.8,7.4,20.9,18.4,33.3,18.6
			c12.4,0.1,28-0.3,41.7-6.2c13.7-5.9,41.6-18,46.5-23.2c4.9-5.3,10.9-21.2,7.1-33.3c-3.8-12.2-7.5-25.5-18.8-32.8
			c-11.4-7.3-13.5-9.4-25-10.4c-11.5-1-28.2-6.9-42.9-5.1c-14.6,1.8-28.9,9.4-35.6,13.1c-6.7,3.7-11,3.3-13.5,7.4
			C333.5,77.2,331.6,80.8,331.6,80.8" />
      <g>
        <path class="st9" d="M291.9,188.6c0.3,0.1,0.4,0.2,0.3,0.5l-3.5,17.2v8.3c0,0.3-0.1,0.4-0.4,0.4c-0.3,0-0.4-0.1-0.4-0.4v-8.3
				l-2.8-17.3c-0.1-0.3,0.1-0.4,0.3-0.5c0.1,0,0.2,0,0.3,0.1c0.1,0.1,0.1,0.2,0.2,0.3l2.4,15l3.1-15
				C291.5,188.6,291.6,188.5,291.9,188.6z" />
        <path class="st9" d="M303.1,214c0.3,0,0.4,0.1,0.4,0.4c0,0.3-0.1,0.4-0.4,0.4h-6.3c-0.3,0-0.4-0.1-0.4-0.4V202h-0.5
				c-0.3,0-0.4-0.1-0.4-0.4c0-0.3,0.1-0.4,0.4-0.4h0.5V190c0-0.3,0.1-0.4,0.4-0.4h6.3c0.3,0,0.4,0.1,0.4,0.4c0,0.3-0.1,0.4-0.4,0.4
				h-5.9v10.7h3.6c0.3,0,0.4,0.1,0.4,0.4c0,0.3-0.1,0.4-0.4,0.4h-3.6V214H303.1z" />
        <path class="st9" d="M315.3,215.2c0.1,0.3-0.1,0.4-0.3,0.5h-0.1c-0.3,0-0.4-0.1-0.4-0.3l-1.1-7.8h-3.8l-0.9,7.3
				c0,0.1-0.1,0.2-0.2,0.3s-0.2,0.1-0.3,0.1c-0.3-0.1-0.4-0.2-0.4-0.5l0.9-7.3h-0.4c-0.3,0-0.4-0.1-0.4-0.4c0-0.3,0.1-0.4,0.4-0.4
				h0.5l2.1-16.6c0.1-0.3,0.2-0.4,0.4-0.4s0.4,0.1,0.4,0.4l2.4,16.9c0,0.1,0,0.1,0,0.2v0L315.3,215.2z M313.3,206.6l-1.9-13.4
				l-1.6,13.4H313.3z" />
        <path class="st9" d="M326.4,199.1c0,0.1-0.1,0.3-0.3,0.8c-0.2,0.5-0.7,0.9-1.3,1.3c0.4,0.2,0.7,0.6,1,1.1
				c0.3,0.5,0.5,1.1,0.6,1.9v10.2c0,0.3-0.1,0.4-0.4,0.4c-0.3,0-0.4-0.1-0.4-0.4v-10.1c-0.1-0.5-0.2-0.9-0.3-1.2
				c-0.2-0.3-0.3-0.6-0.5-0.7c-0.2-0.2-0.4-0.3-0.6-0.4c-0.2-0.1-0.3-0.1-0.4-0.2c-0.3,0.1-0.6,0.2-0.9,0.2h-2.8V214
				c0,0.3-0.1,0.4-0.4,0.4c-0.3,0-0.4-0.1-0.4-0.4v-12.2h-0.4c-0.3,0-0.4-0.1-0.4-0.4c0-0.3,0.1-0.4,0.4-0.4h0.4v-11.2
				c0-0.3,0.1-0.4,0.4-0.4h2.9c0,0,0.2,0.1,0.6,0.2c0.4,0.1,0.8,0.4,1.3,0.7c0.5,0.4,0.9,1,1.3,1.8c0.4,0.8,0.6,1.9,0.6,3.2v3.7
				C326.4,199,326.4,199,326.4,199.1C326.4,199.1,326.4,199.1,326.4,199.1z M323.7,200.8c0.7-0.3,1.1-0.6,1.4-1.1
				c0.3-0.4,0.4-0.7,0.5-0.8v-3.6c0-1.2-0.2-2.1-0.5-2.8c-0.3-0.7-0.6-1.2-1-1.5c-0.4-0.3-0.7-0.6-1-0.6c-0.3-0.1-0.5-0.1-0.5-0.1
				h-2.5V201h2.8c0.1,0,0.2,0,0.4,0c0.1,0,0.2-0.1,0.4-0.1C323.6,200.8,323.6,200.8,323.7,200.8z" />
        <path class="st9" d="M334.4,214.4h-0.2c-0.3,0-0.6-0.1-1-0.2c-0.4-0.1-0.8-0.3-1.1-0.6c-0.4-0.3-0.7-0.6-0.9-1.1s-0.4-1-0.5-1.6
				v-2.2c0-0.3,0.1-0.4,0.4-0.4c0.3,0,0.4,0.1,0.4,0.4v2.2c0.1,0.6,0.2,1.1,0.5,1.4c0.3,0.3,0.6,0.6,0.9,0.8
				c0.3,0.2,0.6,0.3,0.9,0.3c0.3,0.1,0.4,0.1,0.4,0.1h0.2c0.7,0,1.2-0.1,1.6-0.4c0.4-0.2,0.8-0.5,1-0.8c0.2-0.3,0.4-0.6,0.5-0.9
				c0.1-0.3,0.1-0.5,0.2-0.6c0-0.1,0-0.2,0-0.5c0-0.2,0-0.5,0-0.8c0-0.3,0-0.6,0-0.9c0-0.3,0-0.6,0.1-0.8c0-0.3,0-0.7-0.2-1.1
				c-0.1-0.4-0.2-0.7-0.3-0.9L331,195c0,0,0-0.1-0.1-0.2c-0.1-0.1-0.1-0.3-0.2-0.6c0-0.3-0.1-0.6,0-1c0-0.4,0.1-0.9,0.2-1.5
				c0.1-0.5,0.3-0.9,0.6-1.3c0.3-0.3,0.6-0.6,0.9-0.8c0.3-0.2,0.7-0.4,1-0.5c0.3-0.1,0.6-0.2,0.9-0.2h0c0.6,0,1.1,0.1,1.6,0.3
				c0.4,0.2,0.8,0.5,1.1,0.8c0.3,0.3,0.5,0.6,0.7,1c0.2,0.3,0.3,0.6,0.3,0.9v2.3c0,0.3-0.1,0.4-0.4,0.4c-0.3,0-0.4-0.1-0.4-0.4v-2.3
				c-0.1-0.4-0.2-0.8-0.5-1.1c-0.2-0.3-0.5-0.5-0.9-0.8c-0.4-0.2-0.9-0.3-1.5-0.3c-0.5,0.1-0.9,0.2-1.2,0.3
				c-0.3,0.1-0.6,0.4-0.9,0.6c-0.3,0.3-0.5,0.7-0.6,1.1c-0.1,0.5-0.2,0.9-0.2,1.3c0,0.3,0,0.6,0,0.8c0,0.3,0.1,0.5,0.2,0.6l6.3,11
				c0,0,0.1,0.1,0.1,0.3c0.1,0.2,0.1,0.4,0.2,0.6c0.1,0.2,0.1,0.5,0.2,0.7c0.1,0.3,0.1,0.5,0,0.8c-0.1,0.2-0.1,0.5-0.1,0.8
				c0,0.3,0,0.7,0,1c0,0.4,0,0.7,0,1.1v0.1c-0.2,0.7-0.4,1.2-0.8,1.7c-0.3,0.4-0.7,0.8-1.3,1.2C336,214.2,335.3,214.4,334.4,214.4z" />
        <path class="st9" d="M356.6,214.7h-0.4c-0.7-0.1-1.2-0.2-1.7-0.5c-0.5-0.3-0.8-0.6-1.1-0.9c-0.3-0.3-0.5-0.7-0.6-1.1
				c-0.1-0.4-0.2-0.8-0.2-1.2v-17.3c0-0.3,0.1-0.4,0.4-0.4c0.3,0,0.4,0.1,0.4,0.4V211c0,0.1,0,0.3,0.1,0.6c0,0.3,0.2,0.6,0.3,0.9
				c0.2,0.3,0.5,0.6,0.9,0.9c0.4,0.3,0.9,0.4,1.6,0.5c0.6,0.1,1.1,0,1.5-0.3c0.4-0.2,0.7-0.5,0.8-0.8c0.2-0.3,0.3-0.6,0.4-0.9
				c0.1-0.3,0.1-0.4,0.1-0.5v-17.6c0-0.1,0-0.3,0-0.5s0-0.4-0.1-0.7c-0.1-0.2-0.1-0.5-0.2-0.7c-0.1-0.2-0.2-0.4-0.4-0.6
				c-0.4-0.4-1-0.6-1.8-0.6c-0.7,0-1.2,0.1-1.6,0.3c-0.4,0.2-0.7,0.4-0.9,0.6c-0.2,0.2-0.4,0.4-0.4,0.6c-0.1,0.2-0.1,0.3-0.1,0.3
				c0,0.1-0.1,0.2-0.2,0.3c-0.1,0.1-0.2,0.1-0.3,0c-0.3-0.1-0.4-0.2-0.3-0.5c0,0,0.1-0.2,0.2-0.4c0.1-0.2,0.3-0.5,0.6-0.8
				c0.3-0.3,0.7-0.6,1.2-0.8c0.5-0.3,1.2-0.4,2-0.4c1,0,1.8,0.3,2.4,0.8c0.3,0.2,0.5,0.5,0.6,0.8c0.1,0.3,0.2,0.6,0.3,0.9
				c0.1,0.3,0.1,0.5,0.1,0.8c0,0.3,0,0.4,0,0.6v17.7c0,0.3-0.1,0.6-0.2,1c-0.1,0.4-0.3,0.7-0.6,1c-0.3,0.3-0.6,0.6-1,0.8
				C357.7,214.6,357.2,214.7,356.6,214.7z" />
        <path class="st9" d="M371,189.7c0.3,0,0.4,0.1,0.4,0.4c0,0.3-0.1,0.4-0.4,0.4h-5.9v10.7h3.6c0.3,0,0.4,0.1,0.4,0.4
				c0,0.3-0.1,0.4-0.4,0.4h-3.6v12.3c0,0.3-0.1,0.4-0.4,0.4c-0.3,0-0.4-0.1-0.4-0.4v-12.3h-0.5c-0.3,0-0.4-0.1-0.4-0.4
				c0-0.3,0.1-0.4,0.4-0.4h0.5v-11.1c0-0.3,0.1-0.4,0.4-0.4H371z" />
        <path class="st9" d="M395.6,189.8c0.3,0.1,0.4,0.2,0.4,0.4l-0.4,24.1c-0.1,0.3-0.2,0.4-0.5,0.4c-0.3,0-0.4-0.1-0.4-0.4l0.3-21.3
				l-3.1,9.7c-0.1,0.2-0.2,0.3-0.4,0.3c-0.2,0.1-0.3-0.1-0.4-0.3l-3.3-9.9v21.5c0,0.3-0.1,0.4-0.4,0.4c-0.3,0-0.4-0.1-0.4-0.4v-24.1
				c0-0.2,0.1-0.4,0.3-0.4c0.2-0.1,0.4,0.1,0.5,0.3l3.7,11.1l3.6-11.1C395.3,189.8,395.4,189.7,395.6,189.8z" />
        <path class="st9" d="M401.1,214.8c-0.3,0-0.4-0.1-0.4-0.4v-24.1c0-0.3,0.1-0.4,0.4-0.4c0.3,0,0.4,0.1,0.4,0.4v24.1
				C401.5,214.6,401.4,214.8,401.1,214.8z" />
        <path class="st9" d="M412.9,214c0.3,0,0.4,0.1,0.4,0.4c0,0.3-0.1,0.4-0.4,0.4h-5.3c-0.3,0-0.4-0.1-0.4-0.4V190
				c0-0.3,0.1-0.4,0.4-0.4c0.3,0,0.4,0.1,0.4,0.4v24H412.9z" />
        <path class="st9" d="M425.2,214c0.3,0,0.4,0.1,0.4,0.4c0,0.3-0.1,0.4-0.4,0.4h-6.3c-0.3,0-0.4-0.1-0.4-0.4V202H418
				c-0.3,0-0.4-0.1-0.4-0.4c0-0.3,0.1-0.4,0.4-0.4h0.5V190c0-0.3,0.1-0.4,0.4-0.4h6.3c0.3,0,0.4,0.1,0.4,0.4c0,0.3-0.1,0.4-0.4,0.4
				h-5.9v10.7h3.6c0.3,0,0.4,0.1,0.4,0.4c0,0.3-0.1,0.4-0.4,0.4h-3.6V214H425.2z" />
        <path class="st9" d="M432.9,214.4h-0.2c-0.3,0-0.6-0.1-1-0.2c-0.4-0.1-0.8-0.3-1.1-0.6c-0.4-0.3-0.7-0.6-0.9-1.1s-0.4-1-0.5-1.6
				v-2.2c0-0.3,0.1-0.4,0.4-0.4c0.3,0,0.4,0.1,0.4,0.4v2.2c0.1,0.6,0.2,1.1,0.5,1.4c0.3,0.3,0.6,0.6,0.9,0.8
				c0.3,0.2,0.6,0.3,0.9,0.3c0.3,0.1,0.4,0.1,0.4,0.1h0.2c0.7,0,1.2-0.1,1.6-0.4c0.4-0.2,0.8-0.5,1-0.8c0.2-0.3,0.4-0.6,0.5-0.9
				c0.1-0.3,0.1-0.5,0.2-0.6c0-0.1,0-0.2,0-0.5c0-0.2,0-0.5,0-0.8c0-0.3,0-0.6,0-0.9c0-0.3,0-0.6,0.1-0.8c0-0.3,0-0.7-0.2-1.1
				c-0.1-0.4-0.2-0.7-0.3-0.9l-6.3-10.9c0,0,0-0.1-0.1-0.2c-0.1-0.1-0.1-0.3-0.2-0.6c0-0.3-0.1-0.6,0-1c0-0.4,0.1-0.9,0.2-1.5
				c0.1-0.5,0.3-0.9,0.6-1.3c0.3-0.3,0.6-0.6,0.9-0.8c0.3-0.2,0.7-0.4,1-0.5c0.3-0.1,0.6-0.2,0.9-0.2h0c0.6,0,1.1,0.1,1.6,0.3
				c0.4,0.2,0.8,0.5,1.1,0.8c0.3,0.3,0.5,0.6,0.7,1c0.2,0.3,0.3,0.6,0.3,0.9v2.3c0,0.3-0.1,0.4-0.4,0.4c-0.3,0-0.4-0.1-0.4-0.4v-2.3
				c-0.1-0.4-0.2-0.8-0.5-1.1c-0.2-0.3-0.5-0.5-0.9-0.8c-0.4-0.2-0.9-0.3-1.5-0.3c-0.5,0.1-0.9,0.2-1.2,0.3
				c-0.3,0.1-0.6,0.4-0.9,0.6c-0.3,0.3-0.5,0.7-0.6,1.1c-0.1,0.5-0.2,0.9-0.2,1.3c0,0.3,0,0.6,0,0.8c0,0.3,0.1,0.5,0.2,0.6l6.3,11
				c0,0,0.1,0.1,0.1,0.3c0.1,0.2,0.1,0.4,0.2,0.6c0.1,0.2,0.1,0.5,0.2,0.7c0.1,0.3,0.1,0.5,0,0.8c-0.1,0.2-0.1,0.5-0.1,0.8
				c0,0.3,0,0.7,0,1c0,0.4,0,0.7,0,1.1v0.1c-0.2,0.7-0.4,1.2-0.8,1.7c-0.3,0.4-0.7,0.8-1.3,1.2C434.5,214.2,433.8,214.4,432.9,214.4
				z" />
        <path class="st9" d="M448.8,188.9c0.3,0,0.4,0.1,0.4,0.4c0,0.3-0.1,0.4-0.4,0.4h-3.5v24.6c0,0.3-0.1,0.4-0.4,0.4
				c-0.3,0-0.4-0.1-0.4-0.4v-24.6h-3.5c-0.3,0-0.4-0.1-0.4-0.4c0-0.3,0.1-0.4,0.4-0.4H448.8z" />
        <path class="st9" d="M457.3,214.7h-0.4c-0.7-0.1-1.2-0.2-1.7-0.5c-0.5-0.3-0.8-0.6-1.1-0.9c-0.3-0.3-0.5-0.7-0.6-1.1
				c-0.1-0.4-0.2-0.8-0.2-1.2v-17.3c0-0.3,0.1-0.4,0.4-0.4c0.3,0,0.4,0.1,0.4,0.4V211c0,0.1,0,0.3,0.1,0.6c0,0.3,0.2,0.6,0.3,0.9
				c0.2,0.3,0.5,0.6,0.9,0.9c0.4,0.3,0.9,0.4,1.6,0.5c0.6,0.1,1.1,0,1.5-0.3c0.4-0.2,0.7-0.5,0.8-0.8c0.2-0.3,0.3-0.6,0.4-0.9
				c0.1-0.3,0.1-0.4,0.1-0.5v-17.6c0-0.1,0-0.3,0-0.5s0-0.4-0.1-0.7c-0.1-0.2-0.1-0.5-0.2-0.7c-0.1-0.2-0.2-0.4-0.4-0.6
				c-0.4-0.4-1-0.6-1.8-0.6c-0.7,0-1.2,0.1-1.6,0.3c-0.4,0.2-0.7,0.4-0.9,0.6c-0.2,0.2-0.4,0.4-0.4,0.6c-0.1,0.2-0.1,0.3-0.1,0.3
				c0,0.1-0.1,0.2-0.2,0.3c-0.1,0.1-0.2,0.1-0.3,0c-0.3-0.1-0.4-0.2-0.3-0.5c0,0,0.1-0.2,0.2-0.4c0.1-0.2,0.3-0.5,0.6-0.8
				c0.3-0.3,0.7-0.6,1.2-0.8c0.5-0.3,1.2-0.4,2-0.4c1,0,1.8,0.3,2.4,0.8c0.3,0.2,0.5,0.5,0.6,0.8c0.1,0.3,0.2,0.6,0.3,0.9
				c0.1,0.3,0.1,0.5,0.1,0.8c0,0.3,0,0.4,0,0.6v17.7c0,0.3-0.1,0.6-0.2,1c-0.1,0.4-0.3,0.7-0.6,1c-0.3,0.3-0.6,0.6-1,0.8
				C458.4,214.6,457.9,214.7,457.3,214.7z" />
        <path class="st9" d="M471.7,188.6c0.3,0,0.4,0.1,0.4,0.4v25.5c0,0.3-0.1,0.4-0.4,0.4c-0.3,0-0.4-0.1-0.4-0.4v-8l-6.1-14.3v22.3
				c0,0.3-0.1,0.4-0.4,0.4c-0.3,0-0.4-0.1-0.4-0.4v-24.4c0-0.2,0.1-0.4,0.3-0.4c0.2,0,0.3,0.1,0.5,0.2l6.1,14.4V189
				C471.3,188.7,471.5,188.6,471.7,188.6z" />
        <path class="st9" d="M484.1,214c0.3,0,0.4,0.1,0.4,0.4c0,0.3-0.1,0.4-0.4,0.4h-6.3c-0.3,0-0.4-0.1-0.4-0.4V202h-0.5
				c-0.3,0-0.4-0.1-0.4-0.4c0-0.3,0.1-0.4,0.4-0.4h0.5V190c0-0.3,0.1-0.4,0.4-0.4h6.3c0.3,0,0.4,0.1,0.4,0.4c0,0.3-0.1,0.4-0.4,0.4
				h-5.9v10.7h3.6c0.3,0,0.4,0.1,0.4,0.4c0,0.3-0.1,0.4-0.4,0.4h-3.6V214H484.1z" />
        <path class="st9" d="M491.8,214.4h-0.2c-0.3,0-0.6-0.1-1-0.2c-0.4-0.1-0.8-0.3-1.1-0.6c-0.4-0.3-0.7-0.6-0.9-1.1s-0.4-1-0.5-1.6
				v-2.2c0-0.3,0.1-0.4,0.4-0.4c0.3,0,0.4,0.1,0.4,0.4v2.2c0.1,0.6,0.2,1.1,0.5,1.4c0.3,0.3,0.6,0.6,0.9,0.8
				c0.3,0.2,0.6,0.3,0.9,0.3c0.3,0.1,0.4,0.1,0.4,0.1h0.2c0.7,0,1.2-0.1,1.6-0.4c0.4-0.2,0.8-0.5,1-0.8c0.2-0.3,0.4-0.6,0.5-0.9
				c0.1-0.3,0.1-0.5,0.2-0.6c0-0.1,0-0.2,0-0.5c0-0.2,0-0.5,0-0.8c0-0.3,0-0.6,0-0.9c0-0.3,0-0.6,0.1-0.8c0-0.3,0-0.7-0.2-1.1
				c-0.1-0.4-0.2-0.7-0.3-0.9l-6.3-10.9c0,0,0-0.1-0.1-0.2c-0.1-0.1-0.1-0.3-0.2-0.6c0-0.3-0.1-0.6,0-1c0-0.4,0.1-0.9,0.2-1.5
				c0.1-0.5,0.3-0.9,0.6-1.3c0.3-0.3,0.6-0.6,0.9-0.8c0.3-0.2,0.7-0.4,1-0.5c0.3-0.1,0.6-0.2,0.9-0.2h0c0.6,0,1.1,0.1,1.6,0.3
				c0.4,0.2,0.8,0.5,1.1,0.8c0.3,0.3,0.5,0.6,0.7,1c0.2,0.3,0.3,0.6,0.3,0.9v2.3c0,0.3-0.1,0.4-0.4,0.4c-0.3,0-0.4-0.1-0.4-0.4v-2.3
				c-0.1-0.4-0.2-0.8-0.5-1.1c-0.2-0.3-0.5-0.5-0.9-0.8c-0.4-0.2-0.9-0.3-1.5-0.3c-0.5,0.1-0.9,0.2-1.2,0.3
				c-0.3,0.1-0.6,0.4-0.9,0.6c-0.3,0.3-0.5,0.7-0.6,1.1c-0.1,0.5-0.2,0.9-0.2,1.3c0,0.3,0,0.6,0,0.8c0,0.3,0.1,0.5,0.2,0.6l6.3,11
				c0,0,0.1,0.1,0.1,0.3c0.1,0.2,0.1,0.4,0.2,0.6c0.1,0.2,0.1,0.5,0.2,0.7c0.1,0.3,0.1,0.5,0,0.8c-0.1,0.2-0.1,0.5-0.1,0.8
				c0,0.3,0,0.7,0,1c0,0.4,0,0.7,0,1.1v0.1c-0.2,0.7-0.4,1.2-0.8,1.7c-0.3,0.4-0.7,0.8-1.3,1.2C493.4,214.2,492.7,214.4,491.8,214.4
				z" />
      </g>
      <path class="st2" d="M302,83.6c2.1,2.5,4.4,2.4,5.2,2.7c0.8,0.3,3-0.7,3.7-1.5c0.8-0.9,1.8-2.6,2.2-4.1c0.4-1.4,0.5-3-0.1-4.5
			c-0.3-0.7-0.8-2.4-1.9-3.1c-1.1-0.7-5-1-5.8-0.3c-0.8,0.7-2.2,1.4-3,2.6c-0.8,1.2-1.1,2.8-1.3,3.5C300.9,79.6,301.7,83.3,302,83.6
			" />
      <path class="st2" d="M325.7,43.7c0.1,3.3,2,4.6,2.4,5.3c0.4,0.7,2.7,1.3,3.9,1.1c1.1-0.2,3-1,4.2-1.9c1.2-0.9,2.3-2,2.7-3.6
			c0.2-0.7,0.8-2.4,0.4-3.6c-0.5-1.2-3.3-3.9-4.4-3.8c-1.1,0.1-2.6-0.2-4,0.2c-1.3,0.4-2.6,1.5-3.1,2
			C327.2,39.9,325.7,43.3,325.7,43.7" />
      <path class="st2" d="M378.3,19.6c-1.9,2.7-1.1,4.9-1.2,5.7c-0.1,0.8,1.4,2.7,2.4,3.2c1,0.5,3,1,4.5,1c1.5,0,3-0.3,4.4-1.3
			c0.6-0.4,2.1-1.4,2.5-2.7c0.4-1.2-0.4-5.1-1.3-5.7c-0.9-0.6-2-1.8-3.3-2.2c-1.3-0.4-2.9-0.3-3.7-0.3
			C381.8,17.5,378.5,19.3,378.3,19.6" />
      <path class="st2" d="M427.3,31.6c3.2-0.9,4-3.1,4.6-3.6c0.6-0.6,0.6-3,0.2-4c-0.5-1.1-1.7-2.7-2.8-3.7c-1.1-1-2.5-1.7-4.2-1.8
			c-0.7,0-2.5-0.2-3.6,0.5c-1.1,0.7-3,4.1-2.6,5.2c0.3,1,0.4,2.6,1.1,3.8c0.7,1.2,2,2.1,2.7,2.6C423.2,31,426.9,31.7,427.3,31.6" />
      <path class="st2" d="M453.6,49.1c2.1,2.5,4.4,2.4,5.2,2.7c0.8,0.3,3-0.7,3.7-1.5c0.8-0.9,1.8-2.6,2.2-4.1c0.4-1.4,0.5-3-0.1-4.5
			c-0.3-0.7-0.8-2.4-1.9-3.1s-5-1-5.8-0.3c-0.8,0.7-2.2,1.4-3,2.6c-0.8,1.2-1.1,2.8-1.3,3.5C452.5,45.2,453.4,48.8,453.6,49.1" />
      <path class="st2" d="M476.1,71.8c2.1,2.5,4.4,2.4,5.2,2.7c0.8,0.3,3-0.7,3.7-1.5c0.8-0.9,1.8-2.6,2.2-4.1c0.4-1.4,0.5-3-0.1-4.5
			c-0.3-0.7-0.8-2.4-1.9-3.1c-1.1-0.7-5-1-5.8-0.3c-0.8,0.7-2.2,1.4-3,2.6c-0.8,1.2-1.1,2.8-1.3,3.5C475,67.9,475.9,71.5,476.1,71.8
			" />
      <g>
        <path class="st10" d="M376.3,81.3h-1.2l-5.3,5c-0.2,0.2-0.3,0.2-0.4,0.2c-0.3,0-0.4-0.3-0.4-0.8v-1c0-0.5,0.2-0.8,0.5-1.2
				l6.4-6.2c0.4-0.4,0.7-0.5,1.1-0.5h0.5c0.5,0,0.8,0.3,0.8,0.8v49.3c0.7,0.4,1,1,1,1.8v4.8c0,0.5-0.3,0.8-0.8,0.8H376
				c-0.5,0-0.8-0.3-0.8-0.8v-4.8c0-0.7,0.4-1.3,1.1-1.8V81.3z" />
        <path class="st10" d="M393.1,121.3c0-0.5,0.3-0.8,0.8-0.8h1.6c0.3,0,0.5,0.1,0.7,0.4c0.1,0.2,0.1,0.3,0.1,0.4
				c0,2.1,0,3.5,0.1,4.3c0.1,0.8,0.2,1.6,0.4,2.2c1,3.3,3,4.9,6.2,4.9c3.1,0,5.1-1.6,6-4.7c0.1-0.3,0.2-0.7,0.3-1.1
				c0.1-0.4,0.1-1.1,0.2-1.9c0.1-0.8,0.1-1.9,0.1-3.3c0-1.4,0-3.2,0-5.5c0-2.3,0-4.2,0-5.5c0-1.4-0.1-2.5-0.1-3.3
				c-0.1-0.8-0.1-1.4-0.2-1.8c-0.1-0.4-0.2-0.8-0.3-1.1c-0.9-3.2-2.9-4.8-6-4.8c-1.4,0-2.5,0.3-3.4,1c-0.9,0.6-1.7,1.5-2.4,2.5
				c-0.3,0.5-0.7,0.8-1.1,0.8h-0.6c-0.5,0-0.7-0.3-0.7-0.8V77.6c0-0.6,0.2-0.8,0.7-0.8h15.5c0.3,0,0.5,0.1,0.6,0.3
				c0.1,0.2,0.1,0.4,0.1,0.5v2.6c0,0.5-0.3,0.8-0.8,0.8h-0.4c-0.8,0-1.2-0.4-1.2-1.2V79H397c-0.3,0-0.5,0.2-0.5,0.5V101h0.1
				c0.6-1,1.4-1.8,2.5-2.5c1.1-0.6,2.3-0.9,3.7-0.9c4.2,0,6.8,2.1,8,6.3c0.1,0.4,0.2,0.8,0.3,1.3c0.1,0.5,0.2,1.1,0.2,2
				c0.1,0.9,0.1,2,0.1,3.5c0,1.4,0,3.3,0,5.6c0,2.3,0,4.2,0,5.6c0,1.4-0.1,2.5-0.2,3.4c-0.1,0.9-0.2,1.5-0.2,2
				c-0.1,0.5-0.2,0.9-0.3,1.3c-1.3,4.3-3.9,6.4-8,6.4c-2.1,0-3.8-0.6-5.2-1.7c-1.4-1.1-2.3-2.7-2.9-4.8c-0.1-0.1-0.1-0.1-0.1-0.2
				c-0.4,0-0.8-0.2-1.1-0.5c-0.3-0.3-0.5-0.7-0.5-1.1V121.3z" />
      </g>
      <path class="st2" d="M362.2,23.4c-1.9,2.7-1.1,4.9-1.2,5.7c-0.1,0.8,1.4,2.7,2.4,3.2c1,0.5,3,1,4.5,1c1.5,0,3-0.3,4.4-1.3
			c0.6-0.4,2.1-1.4,2.5-2.7c0.4-1.2-0.4-5.1-1.3-5.7c-0.9-0.6-2-1.8-3.3-2.2c-1.3-0.4-2.9-0.3-3.7-0.3
			C365.7,21.3,362.4,23.1,362.2,23.4" />
      <path class="st2" d="M282,110.4c-2.2,3.2-1.4,5.8-1.5,6.8c-0.1,1,1.7,3.2,2.9,3.8c1.2,0.6,3.6,1.2,5.3,1.2c1.7,0,3.5-0.3,5.1-1.5
			c0.7-0.5,2.5-1.7,2.9-3.2s-0.4-6-1.5-6.7c-1.1-0.7-2.3-2.1-3.9-2.6c-1.6-0.5-3.5-0.4-4.4-0.3C286.1,107.9,282.3,110.1,282,110.4" />
      <path class="st2" d="M480.4,83.8c1.4,1.7,3,1.6,3.6,1.9c0.5,0.2,2-0.4,2.6-1c0.5-0.6,1.2-1.8,1.5-2.8c0.3-1,0.4-2-0.1-3.1
			c-0.2-0.5-0.6-1.6-1.3-2.1c-0.8-0.5-3.4-0.7-4-0.2c-0.5,0.5-1.5,1-2.1,1.8c-0.5,0.8-0.8,1.9-0.9,2.4
			C479.6,81.1,480.2,83.6,480.4,83.8" />
    </g>
  </g>
</svg>