<?xml version="1.0" encoding="utf-8"?>
<!-- Generator: Adobe Illustrator 19.1.0, SVG Export Plug-In . SVG Version: 6.00 Build 0)  -->
<svg version="1.1" id="Layer_1" xmlns="http://www.w3.org/2000/svg" xmlns:xlink="http://www.w3.org/1999/xlink" x="0px" y="0px"
	 viewBox="0 0 203 208.938858" style="enable-background:new 0 0 203 208.938858;" xml:space="preserve">
<style type="text/css">
	.st0{fill:#404041;}
	.st1{fill:#FAAF40;}
</style>
<g>
	<path class="st0" d="M15.8498573,140.7300873H0v-10.5662689h43.1594543v10.5662689H27.3095989v41.5223389H15.8498573V140.7300873z"
		/>
	<path class="st0" d="M52.5012436,130.1638184h23.8119965c6.6228867,0,11.7575531,1.8600006,15.1806793,5.2831268
		c2.9019241,2.901947,4.4645615,6.9947052,4.4645615,11.9060059v0.1489105c0,8.408432-4.539032,13.6920166-11.1618958,16.1472321
		l12.7245712,18.6033325H84.1265106l-11.1619263-16.6684113h-9.0036278v16.6684113h-11.459713V130.1638184z M75.5695877,155.464035
		c5.5805283,0,8.7802658-2.9763947,8.7802658-7.3669891v-0.1488953c0-4.9113159-3.4231033-7.440979-9.0036316-7.440979H63.9609566
		v14.9568634H75.5695877z"/>
	<path class="st0" d="M105.7416611,130.1638184h39.2896194v10.1944275h-27.9043274v10.5662994h24.5556793v10.1948853h-24.5556793
		v10.9385681h28.2766113v10.1944275h-39.6619034V130.1638184z"/>
	<path class="st0" d="M155.5993195,130.1638184h11.4597473v22.7701111l21.1334381-22.7701111h13.8404846l-21.207901,22.1004486
		L203,182.2524261h-13.766037l-16.1476746-22.1749115l-6.0272217,6.2506104v15.9243011h-11.4597473V130.1638184z"/>
</g>
<polygon class="st0" points="21.8105412,54.3308678 46.4863472,79.0067062 61.3498497,64.1432037 100.901207,103.6945572 
	125.5150986,79.0804977 125.5373154,79.1027451 140.4008179,64.2392426 165.0766296,88.9150772 189.7645111,64.2271957 
	125.5373154,0 86.0779343,39.45924 61.3498497,14.7311516 "/>
<g>
	<polygon class="st1" points="174.039032,7.8686495 129.0522308,52.855442 89.739769,13.5430222 20.9472408,82.421608 
		22.0068436,83.4799347 89.7405014,15.6615458 129.0522003,54.9732513 175.0979309,8.9275684 174.0390625,7.8686647 	"/>
</g>
<g>
	<path class="st1" d="M15.9255905,198.8801422h1.8558464l3.0175171,4.6895752l3.0175171-4.6895752h1.8563328v9.9173431h-1.7427502
		v-7.1123657l-3.1310997,4.6759338h-0.0565491l-3.1028252-4.6476593v7.0840912h-1.7139893V198.8801422z"/>
	<path class="st1" d="M32.4712372,198.8801422h7.3526993v1.55896h-5.6104393v2.5778198h4.9728127v1.55896h-4.9728127v2.6636047
		h5.6811218v1.5579987h-7.4233818V198.8801422z"/>
	<path class="st1" d="M48.6478577,200.4956512h-3.145237v-1.615509h8.0473595v1.615509h-3.145237v8.3018341h-1.7568855V200.4956512z
		"/>
	<path class="st1" d="M61.8791084,198.80896h1.6150284l4.3634605,9.9885254h-1.841713l-1.0056763-2.394516h-4.6895828
		l-1.0198135,2.394516h-1.7851601L61.8791084,198.80896z M64.3725815,204.8586273l-1.7139893-3.966156l-1.7003365,3.966156
		H64.3725815z"/>
	<path class="st1" d="M73.8063431,198.8801422h1.7422638v8.3310699h5.213623v1.5862732h-6.9558868V198.8801422z"/>
	<path class="st1" d="M86.1581802,207.3525848l1.0480881-1.2469788c0.9491272,0.8218994,1.8987427,1.2889099,3.1310959,1.2889099
		c1.0768509,0,1.7568893-0.495285,1.7568893-1.2460175v-0.0282745c0-0.7088013-0.3968124-1.0909729-2.2385178-1.5160675
		c-2.1108017-0.509903-3.3012314-1.1338806-3.3012314-2.960968v-0.0282745c0-1.7003326,1.4171066-2.8761444,3.3860474-2.8761444
		c1.4453888,0,2.592926,0.438736,3.5986023,1.2469788l-0.9349976,1.3171844
		c-0.8925781-0.6659088-1.7851562-1.0198212-2.6918793-1.0198212c-1.0198135,0-1.6150284,0.5235596-1.6150284,1.1758118v0.0282745
		c0,0.7653503,0.4533615,1.1046295,2.3520966,1.5579987c2.0966721,0.509903,3.1876602,1.2615967,3.1876602,2.9044189v0.0282745
		c0,1.8563232-1.4595261,2.960968-3.5420532,2.960968C88.7788849,208.938858,87.3481216,208.4152985,86.1581802,207.3525848z"/>
	<path class="st1" d="M108.6394119,198.8801422h1.7422638v8.3310699h5.2141113v1.5862732h-6.9563751V198.8801422z"/>
	<path class="st1" d="M121.7565918,198.8801422h1.7422638v9.9173431h-1.7422638V198.8801422z"/>
	<path class="st1" d="M130.3967285,198.8801422h1.8553619l3.0184937,4.6895752l3.0175171-4.6895752h1.8553619v9.9173431h-1.7422638
		v-7.1123657l-3.1306152,4.6759338h-0.0575256l-3.1023407-4.6476593v7.0840912h-1.7139893V198.8801422z"/>
	<path class="st1" d="M147.0423126,198.8801422h1.7422638v9.9173431h-1.7422638V198.8801422z"/>
	<path class="st1" d="M158.1188965,200.4956512h-3.1452484v-1.615509h8.0473633v1.615509h-3.1452332v8.3018341h-1.7568817
		V200.4956512z"/>
	<path class="st1" d="M169.111618,198.8801422h7.3531952v1.55896h-5.6109314v2.5778198h4.9732971v1.55896h-4.9732971v2.6636047
		h5.6811218v1.5579987h-7.4233856V198.8801422z"/>
	<path class="st1" d="M182.8518066,198.8801422h3.6970673c3.1169586,0,5.2706604,2.1390686,5.2706604,4.9303894v0.0282745
		c0,2.7913361-2.1537018,4.9586792-5.2706604,4.9586792h-3.6970673V198.8801422z M186.5488739,207.2112122
		c2.0834961,0,3.443573-1.4029694,3.443573-3.3441315v-0.0282745c0-1.9411469-1.3600769-3.3714294-3.443573-3.3714294h-1.9548035
		v6.7438354H186.5488739z"/>
</g>
</svg>
