<?xml version="1.0" encoding="utf-8"?>
<!-- Generator: Adobe Illustrator 19.1.0, SVG Export Plug-In . SVG Version: 6.00 Build 0)  -->
<svg version="1.1" id="Layer_1" xmlns="http://www.w3.org/2000/svg" xmlns:xlink="http://www.w3.org/1999/xlink" x="0px" y="0px"
	 viewBox="-398 391.7565308 203 208.9389496" style="enable-background:new -398 391.7565308 203 208.9389496;"
	 xml:space="preserve">
<style type="text/css">
	.st0{fill:#FFFFFF;}
	.st1{fill:#FAAF40;}
</style>
<polygon class="st0" points="-398,521.9205322 -398,532.4865723 -382.1492615,532.4865723 -382.1492615,574.0103149 
	-370.6913452,574.0103149 -370.6913452,532.4865723 -354.8406067,532.4865723 -354.8406067,521.9205322 "/>
<path class="st0" d="M-322.429657,547.2211304c5.5791931,0,8.7789612-2.9767456,8.7789612-7.366272v-0.1497192
	c0-4.9119873-3.4227295-7.4411621-9.0036011-7.4411621h-11.3847046v14.9571533H-322.429657z M-345.4985657,521.9208984h23.8126831
	c6.6224976,0,11.7574463,1.8602905,15.1801758,5.28302c2.9019165,2.9019165,4.4643555,6.9952393,4.4643555,11.9055176v0.1497192
	c0,8.407959-4.5392456,13.692627-11.1617432,16.1469116l12.7241821,18.6029053h-13.3947449l-11.1617432-16.6677246h-9.0036011
	v16.6677246h-11.4595642V521.9208984z"/>
<polygon class="st0" points="-292.2580261,521.9208984 -252.9689789,521.9208984 -252.9689789,532.1158447 
	-280.8733215,532.1158447 -280.8733215,542.6818848 -256.3168335,542.6818848 -256.3168335,552.8768921 -280.8733215,552.8768921 
	-280.8733215,563.8156738 -252.5962677,563.8156738 -252.5962677,574.0089722 -292.2580261,574.0089722 "/>
<polygon class="st0" points="-209.8074341,521.9205322 -230.9411926,544.6899414 -230.9411926,521.9205322 
	-242.4007721,521.9205322 -242.4007721,574.0103149 -230.9411926,574.0103149 -230.9411926,558.0847168 -224.9127197,551.833252 
	-208.7657928,574.0103149 -195,574.0103149 -217.1737061,544.0210571 -195.9667511,521.9205322 "/>
<polygon class="st0" points="-272.4619141,391.7565308 -311.9223633,431.2153015 -336.6502075,406.4874268 -376.1905212,446.087616 
	-351.5125732,470.763916 -336.6502075,455.8999023 -297.0982666,495.4518433 -272.4852295,470.8371277 -272.4619141,470.8604431 
	-257.5995789,455.9964294 -232.9232941,480.672699 -208.2353516,455.9830933 "/>
<polygon class="st1" points="-223.9606171,399.6253357 -268.9470215,444.6117249 -308.2593384,405.2993774 
	-377.0534363,474.1783447 -375.9935303,475.2366028 -308.2593384,407.4176025 -268.9470215,446.7299194 -222.902359,400.6835938 "/>
<polygon class="st1" points="-374.1829834,590.637085 -377.199707,595.3277588 -380.2181091,590.637085 -382.0733948,590.637085 
	-382.0733948,600.5559082 -380.3595276,600.5559082 -380.3595276,593.4708252 -377.2579346,598.1182251 -377.199707,598.1182251 
	-374.0698242,593.4425049 -374.0698242,600.5559082 -372.3276672,600.5559082 -372.3276672,590.637085 "/>
<polygon class="st1" points="-365.5286255,590.637085 -365.5286255,600.5559082 -358.1057739,600.5559082 -358.1057739,598.9967651 
	-363.786499,598.9967651 -363.786499,596.3344727 -358.8129578,596.3344727 -358.8129578,594.7753296 -363.786499,594.7753296 
	-363.786499,592.196228 -358.1756592,592.196228 -358.1756592,590.637085 "/>
<polygon class="st1" points="-352.4969482,590.637085 -352.4969482,592.2528076 -349.3521118,592.2528076 -349.3521118,600.5559082 
	-347.5949707,600.5559082 -347.5949707,592.2528076 -344.4484558,592.2528076 -344.4484558,590.637085 "/>
<path class="st1" d="M-335.3408508,592.6499634l1.7138367,3.96521h-3.4143982L-335.3408508,592.6499634z M-336.1212463,590.5667114
	l-4.362854,9.9886475h1.7854004l1.019989-2.3944092h4.6889954l1.0066833,2.3944092h1.84198l-4.364502-9.9886475H-336.1212463z"/>
<polygon class="st1" points="-324.1932678,590.637085 -324.1932678,600.5559082 -317.2379761,600.5559082 -317.2379761,598.9685059 
	-322.4511108,598.9685059 -322.4511108,590.637085 "/>
<path class="st1" d="M-311.8414917,599.1097412l1.0483093-1.2462769c0.9484253,0.8219604,1.8985596,1.2879028,3.1315308,1.2879028
	c1.0765686,0,1.7554626-0.4942017,1.7554626-1.2463379V597.87677c0-0.7088623-0.3960266-1.0899048-2.2380066-1.5158691
	c-2.1098938-0.5091553-3.3012695-1.1331177-3.3012695-2.960144v-0.0282593c0-1.7005615,1.4176941-2.8770142,3.3861389-2.8770142
	c1.4459534,0,2.5924072,0.4393311,3.5990906,1.2479858l-0.9351196,1.3161621
	c-0.8918762-0.6655884-1.7854309-1.0199585-2.6922607-1.0199585c-1.0200195,0-1.6140442,0.5241089-1.6140442,1.1763916v0.0282593
	c0,0.7654419,0.4526062,1.1048584,2.3511658,1.5574951c2.0965576,0.5108032,3.1881104,1.2629395,3.1881104,2.9052124v0.0283203
	c0,1.8552856-1.459259,2.960144-3.5425415,2.960144C-309.2207642,600.6954956-310.6517639,600.1730347-311.8414917,599.1097412"/>
<polygon class="st1" points="-289.36026,590.637085 -289.36026,600.5559082 -282.4033203,600.5559082 -282.4033203,598.9685059 
	-287.6181335,598.9685059 -287.6181335,590.637085 "/>
<rect x="-276.2425537" y="590.6359253" class="st1" width="1.7421445" height="9.9187698"/>
<polygon class="st1" points="-259.7117615,590.637085 -262.7301636,595.3277588 -265.7469177,590.637085 -267.6022034,590.637085 
	-267.6022034,600.5559082 -265.8900146,600.5559082 -265.8900146,593.4708252 -262.7867432,598.1182251 -262.7301636,598.1182251 
	-259.5986328,593.4425049 -259.5986328,600.5559082 -257.8564758,600.5559082 -257.8564758,590.637085 "/>
<rect x="-250.9572601" y="590.6359253" class="st1" width="1.7421445" height="9.9187698"/>
<polygon class="st1" points="-243.0260773,590.637085 -243.0260773,592.2528076 -239.8812256,592.2528076 -239.8812256,600.5559082 
	-238.1224365,600.5559082 -238.1224365,592.2528076 -234.9775848,592.2528076 -234.9775848,590.637085 "/>
<polygon class="st1" points="-228.8877106,590.637085 -228.8877106,600.5559082 -221.464859,600.5559082 -221.464859,598.9967651 
	-227.1455688,598.9967651 -227.1455688,596.3344727 -222.1720428,596.3344727 -222.1720428,594.7753296 -227.1455688,594.7753296 
	-227.1455688,592.196228 -221.5347443,592.196228 -221.5347443,590.637085 "/>
<path class="st1" d="M-211.4504242,598.968811c2.0832672,0,3.4427032-1.40271,3.4427032-3.3445435v-0.0282593
	c0-1.9418335-1.359436-3.3711548-3.4427032-3.3711548h-1.9551239v6.7439575H-211.4504242z M-215.1476898,590.6374512h3.6972656
	c3.1165619,0,5.2697144,2.1398315,5.2697144,4.9302368v0.0283203c0,2.7921143-2.1531525,4.9585571-5.2697144,4.9585571h-3.6972656
	V590.6374512z"/>
</svg>
