<?xml version="1.0" encoding="utf-8"?>
<!-- Generator: Adobe Illustrator 22.1.0, SVG Export Plug-In . SVG Version: 6.00 Build 0)  -->
<svg version="1.2" baseProfile="tiny" xmlns="http://www.w3.org/2000/svg" xmlns:xlink="http://www.w3.org/1999/xlink" x="0px"
	 y="0px" viewBox="0 0 456 160.9" xml:space="preserve">
<g id="LogoType">
	<g>
		<path d="M205.8,82.5h-11.1l-17.8-23.4l-8.1,8.3v15.1h-9.1v-52h9.1v26.2l24.7-26.2h11.2l-21.6,22.4L205.8,82.5z"/>
		<path d="M221.7,30.5v52h-9.1v-52H221.7z"/>
		<path d="M253.5,82.5h-19.4v-52h19.4c16.4,0,27.6,11.2,27.6,25.9S269.9,82.5,253.5,82.5z M253.5,38.8h-10.3v35.4h10.3
			c10.9,0,18.1-7.4,18.1-17.6C271.6,46.3,264.5,38.8,253.5,38.8z"/>
		<path d="M316.3,69.7H316l-16.3-24.4v37.2h-9v-52h9.7l15.8,24.6l15.8-24.6h9.7v52h-9.1V45.2L316.3,69.7z"/>
		<path d="M403.6,82.5h-9.7l-5.3-12.6H364l-5.4,12.6h-9.4l22.9-52.4h8.5L403.6,82.5z M376.3,41l-8.9,20.8h17.9L376.3,41z"/>
		<path d="M447,30.5h8.9v51.6h-7.6l-28.5-36.7v36.7H411V30.5h8.4L447,66.2V30.5z"/>
		<path d="M184.3,130.9l-10.9-14.2h-11.2v14.2h-2.5V96.7h14.4c7.4,0,12.2,4,12.2,9.7v0.1c0,5.7-4.3,9-10,9.8l11.3,14.6H184.3z
			 M183.7,106.5c0-4.6-3.6-7.5-9.8-7.5h-11.7v15.4h11.5C179.5,114.4,183.7,111.5,183.7,106.5L183.7,106.5z"/>
		<path d="M194.1,130.9V96.7h24.4V99h-21.8v13.5h19.6v2.3h-19.6v13.7h22.1v2.3H194.1z"/>
		<path d="M237.5,131.4c-5.5,0-9.7-1.8-13.8-5.5l1.7-1.9c3.8,3.5,7.2,5.1,12.3,5.1c5.1,0,8.7-2.9,8.7-6.8v-0.1
			c0-3.6-1.9-5.7-9.7-7.3c-8.2-1.7-11.5-4.5-11.5-9.6v-0.1c0-5.1,4.6-9,11-9c5,0,8.3,1.4,11.7,4.2l-1.6,2c-3.2-2.8-6.5-3.9-10.2-3.9
			c-5,0-8.4,2.9-8.4,6.5v0.1c0,3.6,1.9,5.8,10,7.5c7.9,1.6,11.3,4.5,11.3,9.4v0.1C248.8,127.6,244.1,131.4,237.5,131.4z"/>
		<path d="M271.9,131.5c-10.4,0-17.2-8.3-17.2-17.6v-0.1c0-9.3,6.9-17.7,17.3-17.7c10.4,0,17.2,8.3,17.2,17.6c0,0,0,0,0,0.1
			C289.2,123.1,282.3,131.5,271.9,131.5z M286.5,113.8c0-8.5-6.2-15.4-14.6-15.4c-8.5,0-14.5,6.8-14.5,15.3v0.1
			c0,8.5,6.2,15.4,14.6,15.4S286.5,122.3,286.5,113.8L286.5,113.8z"/>
		<path d="M310.3,131.4c-8.2,0-14-5.2-14-14.8v-20h2.5v19.8c0,8.1,4.4,12.7,11.6,12.7c6.9,0,11.4-4.2,11.4-12.5v-20h2.5v19.7
			C324.4,126.2,318.7,131.4,310.3,131.4z"/>
		<path d="M357.7,130.9l-10.9-14.2h-11.2v14.2h-2.5V96.7h14.4c7.4,0,12.2,4,12.2,9.7v0.1c0,5.7-4.3,9-10,9.8l11.3,14.6H357.7z
			 M357.1,106.5c0-4.6-3.6-7.5-9.8-7.5h-11.7v15.4h11.5C352.9,114.4,357.1,111.5,357.1,106.5L357.1,106.5z"/>
		<path d="M383,131.5c-9.8,0-17-7.8-17-17.6v-0.1c0-9.7,7.2-17.7,17.1-17.7c6.1,0,9.8,2.3,13.3,5.5l-1.8,1.9c-3-2.9-6.4-5-11.5-5
			c-8.2,0-14.4,6.7-14.4,15.3v0.1c0,8.7,6.3,15.4,14.5,15.4c4.9,0,8.3-1.9,11.8-5.3l1.7,1.7C392.9,129.1,389,131.5,383,131.5z"/>
		<path d="M402.6,130.9V96.7H427V99h-21.8v13.5h19.6v2.3h-19.6v13.7h22.1v2.3H402.6z"/>
		<path d="M446,131.4c-5.5,0-9.7-1.8-13.8-5.5l1.7-1.9c3.8,3.5,7.2,5.1,12.3,5.1c5.1,0,8.7-2.9,8.7-6.8v-0.1c0-3.6-1.9-5.7-9.7-7.3
			c-8.2-1.7-11.5-4.5-11.5-9.6v-0.1c0-5.1,4.6-9,11-9c5,0,8.3,1.4,11.7,4.2l-1.6,2c-3.2-2.8-6.5-3.9-10.2-3.9c-5,0-8.4,2.9-8.4,6.5
			v0.1c0,3.6,1.9,5.8,10,7.5c7.9,1.6,11.3,4.5,11.3,9.4v0.1C457.3,127.6,452.6,131.4,446,131.4z"/>
	</g>
</g>
<g id="Brandmark">
	<g>
		<path fill="#010101" d="M71.6,48.5l-4.8-4.8l6.4-4.4c0.7,0.4,1.3-0.5,1.3-0.5c1-1,2-0.7,2.5-0.4c21.5,22.6,27.1,43.7,27.1,43.7
			S99,51,81.2,30.9l0.8-0.8c0.6-0.6,0.6-1.6,0-2.3l-3-3c-0.6-0.6-1.6-0.6-2.3,0l-0.8,0.8c-20.1-17.9-51.3-23-51.3-23
			c18.1,7.8,32.2,17.3,43.2,26.9c0.7,0.8,1,1.8,0.2,2.7c0,0-0.9,0.7-0.4,1.5l-4.4,6.4l-5.2-5.2L21.5,74.4V30.4H-0.6v100.5h22.1
			v-30.7l11.6-12.1l31.1,42.8h26.6L48,73.1L71.6,48.5z"/>
	</g>
	<path fill="#CFBE86" d="M94,40.1c10.9,18.6,13.1,41.5,13.1,41.5l-1.3,2l-2.6,0.5l-2-1.2c0,0-5.8-12.5-19.3-30L62.3,73.8l65.3,86.8
		V0L94,40.1z"/>
</g>
<g id="Guides">
</g>
</svg>
