<svg xmlns="http://www.w3.org/2000/svg" fill-rule="evenodd" viewBox="0 0 624 148" xmlns:xlink="http://www.w3.org/1999/xlink" xmlns:serif="http://www.serif.com/" clip-rule="evenodd"><g serif:id="Layer 1"><use width="211.604" height="10.94" x="4.202" y="123.681" xlink:href="#_Image1" transform="scale(.998 .995)" opacity=".24"/><path fill="url(#a)" d="M90.06 15.22c-5.8 5.14-12.43 9.17-18.62 13.8-2.3 1.7-4.5 3.56-6.22 5.9-3.04 4.12-2.35 7.14 2.15 9.48 2.28 1.18 4.68 2.1 6.94 3.33 4.5 2.42 5.1 5.74 1.84 9.64-.47.55-.94 1.08-1.42 1.62-3.63 4.07-3.27 10.26.85 13.88 1.9 1.67 3.98 3.05 6.4 3.8 2.94.9 5.88 1.72 8.8 2.64 4.48 1.4 8.52 3.43 11.54 7.36 2.3 3 7.4 3.75 11.23 2 1.7-.8 3.36-1.46 5.2-1.8 3.27-.63 5.14-3.86 4.45-7.3-.26-1.28-.7-2.54-1.5-3.56-.97-1.23-.9-2.33-.07-3.54 1.27-1.83.83-3.26-1.05-4.28-2.02-1.1-3-2.74-2.94-5.1.04-1.16.4-1.87 1.55-2.25 4.88-1.6 7.43-5.3 8.7-10.16 1.05-4.12.65-8.36 1.08-12.53.02-.25-.07-.66-.24-.76-.5-.3-.78.2-1.06.5-1.6 1.64-2.82 3.62-4.12 5.5-1.5 2.2-2.9 4.5-4.86 6.32-1.58 1.44-2.86 1.42-3.98-.18-5.66-8.1-13.82-11.2-23.07-12.22-2.8-.3-5.67-.5-8.4-1.38-2.42-.8-2.8-1.7-1.26-3.75 1.98-2.65 4.18-5.12 6.26-7.7 1.96-2.4 3.7-4.95 4.9-7.86.56-1.4 1.12-2.8.86-4.92-1.5 1.34-2.7 2.42-3.9 3.5zm-.48 30.5c-1.46-.3-2.96-.36-4.44-.57-4-.57-8.1-.64-12-1.83-3.44-1.04-4.5-3.17-3.42-6.66.8-2.62 2.62-4.47 4.63-6.1 4.65-3.75 9.8-6.85 14.02-11.18-1.2 2.1-2.92 3.7-4.55 5.4-1.94 2-4.02 3.9-5.5 6.33-2.2 3.6-1.37 6.15 2.55 7.64 2.07.8 4.25 1.17 6.44 1.42 2.04.23 3.57 1.6 3.97 3.6.24 1.2.14 2.05-1 2.05-.2 0-.43-.02-.7-.07zm18.4 24.35c.7-.34 1.44-.63 2.18-.84 1.73-.48 2.15-1.46 1.3-3.07-3.45-6.68-7.77-12.7-14-16.9-2.62-1.75-3.5-4.17-4.38-6.82-.43-1.3-.02-2 1.4-1.8 4.47.67 8.8 1.8 12.43 4.7 3.04 2.43 5.48 5.55 5.23 9.5-.25 4 1.27 7.32 2.32 10.86.5 1.74 1.36 3.36 3.65 3.86-2.06 1.7-4.23 1.46-6.35 1.23-1.75-.2-3.47-.38-5.07.5.4-.57.8-.98 1.3-1.23zM120.7 51.9c1.96-1.84 3.3-4.13 4.6-6.45-.48 3.46-1.17 6.84-2.9 9.9-.93 1.63-2.36 2.13-4.16 1.92-1.7-.2-2.65-1.24-3.27-2.73-.34-.85-.2-1.34.8-1 .45.18.9.25 1.3.25 1.43 0 2.55-.9 3.63-1.9zm-24.86 8.46c0-.3-.04-.6 0-.87.1-.55-.2-1.32.45-1.55.62-.22.93.5 1.26.93 1.05 1.36 2.03 2.76 3.08 4.12.9 1.14.4 1.62-.76 1.9-.34.1-.65.13-.95.13-1.93 0-3.08-1.68-3.1-4.67zm20.57 20.98c2-.8 1.3-2.43 1.1-3.9-.06-.56-.33-1.2.3-1.56.66-.38 1.28-.04 1.74.43 1.26 1.3 1.97 2.87 1.7 4.7-.25 1.74-1.35 2.85-2.92 3.45-1.5.57-3.05.68-4.62.64-1.35-.02-2.7.03-4-.44-2.54-.93-3.5-2.9-2.6-5.48.35-1.02.66-2.38 1.77-2.52 1.3-.16 1 1.48 1.6 2.22.2.27.33.64.53.93.76 1.08 2.46 1.8 3.98 1.8.5 0 1-.1 1.43-.26z"/><path fill="url(#b)" d="M91.48 32.9c-1.22.06-2.43.32-3.64.52-.2.03-.35.25-.96.7 3.2.63 5.98 1.12 8.73 1.7 7.27 1.53 13.77 3.58 18.3 9.67 1.88 2.54 3.04 2.55 5.08.12 1.34-1.6 1.96-1.88 3.18-3.57.66-.9.55-1.57-.5-2-8.9-3.76-17.9-7.24-27.65-7.24-.83 0-1.67.03-2.52.1z"/><path fill="url(#c)" d="M204.98 32.16c.05-.1.1-.23.17-.33.03-.05.16-.08.18-.06.44.55-.1.92-.28 1.34-.92 2.2-1.73 4.48-1.05 6.84.46 1.6.34 3.37 1.33 4.8-2.14-3-2.66-6.32-1.64-9.88-1.7 2.45-1.1 9.3 1.38 11.53 1.86 1.65 1.53 3.22.77 5.04-1.04 2.5-3.92 4.33-6.1 3.78.88-.43 1.96-.15 2.5-1.1-3.74.74-6.9-.36-9.6-2.9-2.86-2.7-5.6-5.55-8.42-8.3-7.1-6.96-16.96-6.48-23.37-3.28-2.14 1.07-4.2 2.36-5.5 4.3-.12.08-.24.15-.33.25-3.15 3.2-6.98 4.03-11.24 3.17-3.5-.7-7.58-2.7-10.84-4.1-1.5-.64-2.05-.16-2.2 1.42-.2 1.77.3 4.35-.17 6.07-1.23 4.52-3.78 7.94-8.1 9.92-3.2 1.46-3.5 3.15-1.27 5.92.2.24.4.52.65.66 2.98 1.7 3.98 3.92 1.9 7.06-.44.68.04 1.35.4 1.95.86 1.4 1.5 2.9 1.8 4.53.74 4.02-1.5 7.63-5.42 8.46-1.82.38-3.5.94-5.2 1.77-4.43 2.2-10.38 1.14-13.5-2.65-3.15-3.85-7.22-5.93-11.77-7.33-3.38-1.06-6.8-1.93-10.12-3.17-4.6-1.73-8.55-4.36-9.9-9.6-1.03-4.08-.38-7.76 2.83-10.7.88-.78 1.68-1.6 2.27-2.64 1.93-3.34.24-5.83-3.45-6.83-1-.27-2.74.8-3.2 1.44-3.57 5.06-5.04 8.5-6.43 14.6-.04.16-.08.3-.1.47-1 7.93-5.38 13.76-11.25 18.66C45.15 88 40.1 93.08 36.92 100c-2.33 5.06-6.73 8.64-10.8 12.35-3.14 2.86-6.34 5.65-9.07 8.96-1.77 2.14-2.9 4.58-3.88 7.14-.63 1.65-.23 2.53 1.66 2.5 4.6-.05 9.2-.08 13.8-.03 1.56.03 2.25-.7 2.44-2.15.07-.47.15-.93.17-1.4.16-4.52 2.28-7.88 6.02-10.17 2.3-1.4 4.68-2.66 7.05-3.94 3.02-1.62 5.8-3.48 7.87-6.34 1.57-2.17 3.93-3.45 6.24-4.7 4.2-2.26 8.46-4.44 12.65-6.7 3.84-2.06 8.16-3.07 12.44-.15 3.07 2.1 6.76 2.87 10.34 3.77 3 .77 3.56 1.95 1.54 4.26-5.3 6.06-10.34 12.42-17.2 16.82-3.08 1.98-5.9 4.23-7.78 7.48-.43.73-1.07 1.46-.66 2.36.36.8 1.06.75 1.74.7.18 0 .35-.02.52 0 5.82.1 11.65.12 17.47.33 2.15.07 3.12-.8 3.24-2.9.13-2.03.25-4.05.48-6.07.35-3.1 2.07-5.03 4.94-6.14 6.38-2.48 12.74-5.04 18.15-9.47.8-.66 1.8-.84 2.8-.92 2.9-.2 4.4 1.1 4.47 4 .1 3.38-1.4 5.87-4.25 7.5-2.5 1.4-4.93 2.87-7.24 4.56-1.64 1.18-3.1 2.55-4.4 4.1-1 1.2-2.2 2.62-1.6 4.16.47 1.17 1.62 1.08 2.7.98.36-.03.7-.06 1.03-.04 2.3.08 4.6 0 6.9 0 2.75-.02 5.5-.05 8.27-.04 1.6 0 2.45-.28 1.8-2.3-1.06-3.2.14-5.98 2.25-8.4 2.1-2.4 4.44-4.54 6.95-6.48 2.08-1.6 3.4-3.6 3.43-6.3.02-1.25.63-1.8 1.62-2.25 3.88-1.78 7.34-4.2 10.48-7.13 2.05-1.92 3.44-1.9 6.64.14 2.56 1.64 5.05 3.3 8.28 2.9 2.74-.33 5.5-.55 8.22-.97 1.8-.26 3.52-.1 5.24.35 2.35.6 3.88 2.1 4.4 4.58.06.3.16.6.16.92.14 5.83 2.18 10.93 5.62 15.52 1.35 1.8.38 3.78.23 5.68-.3 3.58-.33 3.58 3.22 3.57 3 0 6 0 8.98-.05 2.58-.04 2.97-.72 1.84-3.15-.9-1.92-2.1-3.68-3.53-5.18-2.25-2.34-3.13-5.1-3.03-8.3.1-3.43-.08-6.86-.65-10.26-1.32-7.74-5.8-13.5-11.35-18.5-1.54-1.37-2.3-2.74-2.54-4.9-1.08-10.2-3.92-19.75-11.05-27.45-2.23-2.42-4.82-4.4-7.87-5.58-.2-.08-.48-.22-.8-.4 1.05-1.12 2.13-2.2 3.33-3.17 1.25-1.02 2.7-1.42 4.28-1.3 3.62.25 6.88 1.48 9.66 3.86 4.06 3.48 8.06 7.04 12.1 10.54 1.07.9 2.16 1.8 3.6 2.08 5.48 1.06 12.42-3.76 13.36-9.33.1-.66.04-1.4.65-1.85 3.38-2.5 4.47-6.03 4.32-10.1-.32-1.2-.62-2.37-.93-3.55-1.52-2.25-1.86-5.02-3.17-7.84-.3 1.42-.5 2.4-.7 3.4-.18-2.7-1.23-4.98-2.3-7.67-.97 3.66-1.84 6.94-2.72 10.23zM151.03 69c.7 3.2-1.9 10.65.67 18 .97 2.75 2.92 4.94 5.55 6.9-.13 0-.26.02-.4.02-5.3 0-14.28-8.66-5.82-24.92zm-85.2 2.38c4.32 9.22 7.7 13.13 13.26 18.42-8.93-3.84-11.3-6.9-13.26-18.43z"/><path fill="#884f22" d="M236.9 80.43h15.7v5.15l-3.77 2.4c.6 2.4 2.95 4.66 8.14 4.66 6.62 0 8.15-2.33 8.5-6.23l-3.9-2.73 3.9-2.58c-.47-3.74-2.12-4.58-6.84-6l-8.4-2.4c-8.6-2.32-11.68-6.14-12.5-11.38l-4.02-2.82 3.9-2.74c.95-7.72 7.45-13.87 20.08-13.87 11.45 0 19.48 6.22 19.48 13.03v7.8h-15.7V57.6l3.66-2.42c-.6-2.82-2.95-4.98-8.03-4.98-5.2 0-7.2 2.5-7.68 5.4l3.78 2.9-3.66 2.58c.47 2.07 2 3.24 6.37 4.4l9.1 2.57c9.1 2.4 11.7 6.23 12.16 12.96l3.9 2.67-4 2.82c-.84 8.3-6.16 14.36-20.1 14.36-11.44 0-20.06-5.98-20.06-13.7v-6.73zM307.15 80.18h12.04l-5.9-21.1h-.25l-5.9 21.1zm11.45 20.26v-5.06l4.02-2.58-1.18-4.8h-16.3l-1.3 4.8h.12l4.13 2.58v5.06h-19.96v-5.06l4.02-2.58h.1l6.62-20.84-2.83-3.24 4.5-2.08 5.54-17.52-2.85-1.66V42.3h19.84v5.16l-2.73 1.66 5.67 17.52v-.08l4.72 2.16-2.95 3.32-.1-.08 6.5 20.84 3.88 2.58v5.06H318.6zM390.5 50.03h-.12v16.94l3.78 2.75-3.78 2.57v20.5l4.37 2.58v5.07h-15.47l-18.3-34.97h-.23V92.8l4.13 2.58v5.07h-19.72v-5.07l3.9-2.5V72.3l-3.9-2.57 3.9-2.73v-17.1l-3.9-2.4V42.3h15.12l17.94 35.06h.36v-27.4l-4.02-2.5V42.3h20.2v5.16l-4.26 2.57zM429.93 50.1h-2.7v16.8l4 2.73-4 2.74V92.8l4 2.5v5.15H411.4V95.3l4-2.5V72.37l-4-2.74 4-2.74V50.1h-2.6l-3.65 2.92h-7.32V42.3h39.2v10.72h-7.44l-3.67-2.9zM463.12 80.18h12.04l-5.9-21.1h-.24l-5.9 21.1zm11.45 20.26v-5.06l4.02-2.58-1.2-4.8h-16.3l-1.3 4.8h.13l4.14 2.58v5.06H444.1v-5.06l4.03-2.58h.1l6.63-20.84-2.84-3.24 4.5-2.08 5.54-17.52-2.84-1.66V42.3h19.84v5.16l-2.72 1.66L482 66.64v-.08l4.73 2.16-2.95 3.32-.12-.08 6.5 20.84 3.9 2.58v5.06h-19.5zM560.2 42.3v10.64H553l-3.78-2.83H536.7v15.63h12.52v7.8H536.7V92.9l3.9 2.4v5.15h-19.72V95.3l4.13-2.58V72.37h-.1l-4.02-2.74L525 66.8V50.04l-4.12-2.57V42.3h39.32zM595.38 73.53h-12.52v18.7h12.75l3.56-2.75h7.2v10.96h-39.08V95.3l3.9-2.4V72.3l-3.9-2.6 3.9-2.73v-17.1l-3.9-2.4V42.3h39.08v10.55h-7.2l-3.66-2.82h-12.64V65.8h12.52v7.73z"/><path fill="#6c6e70" d="M294.1 129.4l-4.06-10.43c-.07-.2-.26-.14-.26.02l-.84 10.28c-.02.34-.12.46-.48.46h-1.1c-.35 0-.5-.12-.47-.46l1.3-15.22c.02-.35.12-.46.48-.46h.95c.3 0 .36.05.46.28l4.8 12.42c.06.12.2.12.25 0l4.82-12.42c.1-.23.17-.28.46-.28h.95c.36 0 .46.1.48.46l1.3 15.21c.04.35-.1.46-.46.46h-1.1c-.36 0-.46-.1-.48-.45l-.84-10.3c0-.15-.2-.22-.26 0l-4.06 10.43c-.12.34-.28.34-.52.34h-.82c-.23 0-.4 0-.52-.33M313.08 129.74h-1.1c-.36 0-.47-.12-.47-.46v-15.22c0-.35.13-.46.48-.46h1.1c.36 0 .48.1.48.46v15.22c0 .34-.12.46-.48.46M324.1 113.88l8.56 11.6c.12.18.27.1.27-.03v-11.4c0-.34.1-.45.47-.45h1.1c.36 0 .48.1.48.46v15.2c0 .36-.12.48-.48.48h-.8c-.27 0-.32-.1-.46-.28l-8.58-11.62c-.12-.16-.26-.1-.26.05v11.38c0 .34-.12.46-.48.46h-1.1c-.35 0-.47-.12-.47-.46v-15.22c0-.35.12-.46.47-.46h.82c.26 0 .3.1.45.28"/><path fill="#6c6e70" d="M345.82 127.43c0 .46 0 .46.48.46h6.92c.36 0 .48.1.48.45v.93c0 .34-.12.46-.48.46h-8.98c-.35 0-.47-.12-.47-.46v-15.22c0-.35.12-.46.47-.46h8.98c.36 0 .48.1.48.46v.92c0 .35-.12.46-.48.46h-6.92c-.48 0-.48 0-.48.46v3.95c0 .46 0 .46.48.46h5.73c.36 0 .48.12.48.47v.92c0 .34-.1.45-.47.45h-5.73c-.48 0-.48 0-.48.46v4.83zM363.78 120.8c0 .45 0 .45.48.45h3.05c2.73 0 3.62-1.3 3.62-2.9 0-1.6-.9-2.9-3.6-2.9h-3.07c-.47 0-.47 0-.47.45v4.9zm3.4-7.2c3.78 0 5.74 1.73 5.74 4.75 0 2.5-1.3 4.08-3.9 4.6l3.93 6.32c.16.28.02.46-.22.46h-1.4c-.37 0-.4 0-.6-.32l-3.9-6.3h-2.58c-.47 0-.47 0-.47.46v5.72c0 .34-.12.46-.48.46h-1.1c-.36 0-.48-.12-.48-.46v-15.22c0-.35.12-.46.48-.46h4.97zM386.53 116.8l-2.34 6.6c-.08.18.04.25.16.25H389c.1 0 .23-.07.16-.25l-2.34-6.6c-.05-.16-.24-.16-.3 0m.7-3.2c.34 0 .48 0 .65.46l5.56 15.22c.12.34-.04.46-.3.46h-1.22c-.38 0-.47 0-.64-.46l-1.24-3.46c-.1-.28-.17-.33-.48-.33h-5.73c-.3 0-.37.04-.47.32l-1.24 3.46c-.18.46-.27.46-.65.46h-1.22c-.26 0-.43-.12-.3-.46l5.55-15.22c.17-.46.3-.46.65-.46h1.1zM401.03 129.28v-15.22c0-.35.12-.46.48-.46h1.1c.36 0 .48.1.48.46v13.37c0 .46 0 .46.48.46h5.78c.36 0 .48.1.48.45v.93c0 .34-.12.46-.48.46h-7.83c-.35 0-.47-.12-.47-.46M416.43 127.73c-.22-.18-.2-.35-.02-.53l.77-.85c.17-.2.3-.23.55-.03 2.53 2.33 7.6 2.3 7.6-.66 0-3.35-8.6-3.55-8.44-8.4.07-2.02 1.75-3.94 5.45-3.75 2.48.12 4.4 1.3 4.4 1.3.16.1.2.2.1.4l-.6 1.07c-.1.2-.25.14-.42.05-2.95-1.5-6.86-1.38-6.86 1.15 0 3.1 8.43 3.4 8.43 8.07 0 2.86-2.63 4.47-5.76 4.3-3.05-.2-4.55-1.58-5.17-2.1M444.73 129.28v-15.22c0-.35.12-.46.47-.46h1.1c.36 0 .48.1.48.46v13.37c0 .46 0 .46.48.46h5.78c.35 0 .47.1.47.45v.93c0 .34-.1.46-.46.46h-7.84c-.35 0-.47-.12-.47-.46M462.44 129.74h-1.1c-.35 0-.47-.12-.47-.46v-15.22c0-.35.12-.46.48-.46h1.1c.35 0 .47.1.47.46v15.22c0 .34-.12.46-.48.46M478.47 129.4l-4.06-10.43c-.06-.2-.25-.14-.25.02l-.84 10.28c-.02.34-.1.46-.47.46h-1.1c-.36 0-.5-.12-.48-.46l1.32-15.22c.02-.35.12-.46.48-.46h.95c.3 0 .36.05.45.28l4.83 12.42c.05.12.2.12.24 0l4.82-12.42c.1-.23.17-.28.46-.28h.95c.36 0 .45.1.48.46l1.3 15.21c.04.35-.1.46-.46.46h-1.1c-.36 0-.46-.1-.48-.45l-.85-10.3c0-.15-.2-.22-.26 0l-4.07 10.43c-.12.34-.3.34-.53.34h-.8c-.25 0-.4 0-.53-.33M497.45 129.74h-1.1c-.36 0-.47-.12-.47-.46v-15.22c0-.35.1-.46.47-.46h1.1c.36 0 .48.1.48.46v15.22c0 .34-.12.46-.48.46M505.76 113.6h10.36c.36 0 .48.1.48.46v.92c0 .35-.12.46-.48.46h-3.67c-.48 0-.48 0-.48.46v13.38c0 .34-.12.46-.48.46h-1.1c-.36 0-.48-.12-.48-.46V115.9c0-.46 0-.46-.48-.46h-3.68c-.36 0-.48-.1-.48-.46v-.92c0-.35.12-.46.48-.46"/><path fill="#6c6e70" d="M526 127.43c0 .46 0 .46.5.46h6.9c.37 0 .5.1.5.45v.93c0 .34-.13.46-.5.46h-8.97c-.36 0-.47-.12-.47-.46v-15.22c0-.35.1-.46.47-.46h8.98c.37 0 .5.1.5.46v.92c0 .35-.13.46-.5.46h-6.9c-.5 0-.5 0-.5.46v3.95c0 .46 0 .46.5.46h5.72c.36 0 .48.12.48.47v.92c0 .34-.12.45-.48.45h-5.73c-.5 0-.5 0-.5.46v4.83zM544.44 127.9h3.08c3.6 0 6.4-2.3 6.4-6.23 0-3.94-2.8-6.23-6.4-6.23h-3.08c-.47 0-.47 0-.47.46v11.53c0 .46 0 .46.47.46m-2.53 1.38v-15.22c0-.35.13-.46.5-.46h5.13c4.65 0 8.45 3.1 8.45 8.07 0 4.95-3.8 8.07-8.46 8.07h-5.13c-.37 0-.5-.12-.5-.46"/><path fill="none" stroke="#6c6e70" stroke-width="1.42" d="M234.74 120.75h36.05M568.8 120.75h36.05"/></g><defs><radialGradient id="a" cx="0" cy="0" r="1" gradientUnits="userSpaceOnUse" gradientTransform="matrix(-98.583 41.898 -41.898 -98.583 153.12 67.091)"><stop offset="0" stop-color="#c79225"/><stop offset=".01" stop-color="#c79225"/><stop offset=".87" stop-color="#884f22"/><stop offset="1" stop-color="#884f22"/></radialGradient><radialGradient id="b" cx="0" cy="0" r="1" gradientUnits="userSpaceOnUse" gradientTransform="matrix(-98.583 41.898 -41.898 -98.583 153.12 67.091)"><stop offset="0" stop-color="#c79225"/><stop offset=".01" stop-color="#c79225"/><stop offset=".87" stop-color="#884f22"/><stop offset="1" stop-color="#884f22"/></radialGradient><radialGradient id="c" cx="0" cy="0" r="1" gradientUnits="userSpaceOnUse" gradientTransform="matrix(-98.583 41.898 -41.898 -98.583 153.12 67.091)"><stop offset="0" stop-color="#c79225"/><stop offset=".01" stop-color="#c79225"/><stop offset=".87" stop-color="#884f22"/><stop offset="1" stop-color="#884f22"/></radialGradient></defs></svg>