<?xml version="1.0" encoding="utf-8"?>
<!-- Generator: Adobe Illustrator 17.1.0, SVG Export Plug-In . SVG Version: 6.00 Build 0)  -->
<!DOCTYPE svg PUBLIC "-//W3C//DTD SVG 1.1//EN" "http://www.w3.org/Graphics/SVG/1.1/DTD/svg11.dtd">
<svg version="1.1" id="Layer_1" xmlns="http://www.w3.org/2000/svg" xmlns:xlink="http://www.w3.org/1999/xlink" x="0px" y="0px"
	 viewBox="0 0 100.6 28.2" enable-background="new 0 0 100.6 28.2" xml:space="preserve">
<g>
	<path fill="#00A8E1" d="M60.7,26.7c-0.6,0.3-1.6,0.5-2.6,0.5c-2.7,0-4-1.4-4-4.7c0-3.4,1.2-4.7,4-4.7c0.8,0,1.7,0.2,2.3,0.4
		L60.4,19c-0.6-0.3-1.4-0.4-2.2-0.4c-2.2,0-3.2,0.9-3.2,4c0,2.9,0.9,3.9,3.1,3.9c0.7,0,1.4-0.1,1.9-0.3v-3.8h0.7V26.7z"/>
	<path fill="#00A8E1" d="M68.2,26.3l0,0.8h-5.3V18h0.8v8.3H68.2z"/>
	<path fill="#00A8E1" d="M72.9,27.2c-2.6,0-3.6-1.3-3.6-4.7s1-4.7,3.6-4.7c2.6,0,3.6,1.3,3.6,4.7C76.5,25.9,75.5,27.2,72.9,27.2z
		 M72.9,18.6c-2,0-2.8,0.9-2.8,3.9c0,3.1,0.8,3.9,2.8,3.9c2,0,2.8-0.9,2.8-3.9C75.7,19.4,74.9,18.6,72.9,18.6z"/>
	<path fill="#00A8E1" d="M82,27h-3.3V18h3.2c1.7,0,2.5,0.7,2.5,2.2c0,1.2-0.6,1.8-1.3,2v0c1.1,0.2,1.7,0.9,1.7,2.3
		C84.7,26.1,84,27,82,27z M82,22.6h-2.5v3.7H82c1.2,0,1.9-0.5,1.9-1.9C83.9,23.2,83.3,22.6,82,22.6z M81.8,18.7h-2.4V22h2.4
		c1.1,0,1.7-0.6,1.7-1.7C83.6,19.1,83,18.7,81.8,18.7z"/>
	<path fill="#00A8E1" d="M91.9,24.6h-4.4L86.7,27h-0.9l3.5-9.1h0.9l3.5,9.1h-0.9L91.9,24.6z M89.4,19.5l-1.6,4.4h3.9l-1.6-4.4
		l-0.3-0.9h0L89.4,19.5z"/>
	<path fill="#00A8E1" d="M100.6,26.3l0,0.8h-5.3V18h0.8v8.3H100.6z"/>
</g>
<g>
	<path fill="#003478" d="M11.4,1l3.7,12l0.5,1.5h0.1L16,13l3.4-12h1.5l-4.4,15h-1.9L10.9,3.9l-0.4-1.6h-0.1L10,3.9L6.4,16H4.5L0,1
		h1.6L5,13l0.4,1.6h0.1l0.4-1.5L9.6,1H11.4z"/>
	<path fill="#003478" d="M25.4,1.8c-0.7,0-1.1-0.2-1.1-0.9c0-0.6,0.4-0.9,1.1-0.9c0.7,0,1.1,0.3,1.1,0.9C26.5,1.5,26.1,1.8,25.4,1.8
		z M24.7,16V4.3l1.4-0.1V16H24.7z"/>
	<path fill="#003478" d="M34,16.3c-1.7,0-3.3-0.5-4.3-1.3l0.2-1.2c1,0.8,2.7,1.3,4.1,1.3c2.4,0,3.3-1.1,3.3-2.3c0-3-7.6-1.6-7.6-5.5
		c0-1.9,1.6-3.2,4.6-3.2c1.3,0,2.6,0.2,3.7,0.8L37.9,6c-1.2-0.5-2.5-0.7-3.6-0.7c-1.9,0-3.2,0.8-3.2,1.9c0,2.8,7.5,1.3,7.5,5.5
		C38.6,14.7,37.3,16.3,34,16.3z"/>
	<path fill="#003478" d="M41,9.8C41,6.2,42.9,4,46.6,4C49.7,4,52,5.8,52,9.5c0,0.2,0,0.5,0,0.6h-9.5c0.1,3.4,1.6,4.8,4.9,4.8
		c1.5,0,2.7-0.3,3.9-0.9l0.2,1.2c-1.2,0.7-2.6,1-4.3,1C42.8,16.3,41,14,41,9.8z M50.7,9.2c-0.1-2.7-1.7-3.9-4.1-3.9
		c-2.8,0-4,1.5-4.2,3.9H50.7z"/>
	<path fill="#003478" d="M58.6,2.4V16h-1.5V2.4h-5.6l0-1.4h12.7l0,1.4H58.6z"/>
	<path fill="#003478" d="M63.8,9.8c0-3.5,1.9-5.7,5.6-5.7c3.1,0,5.4,1.8,5.4,5.5c0,0.2,0,0.5,0,0.6h-9.5c0.1,3.4,1.6,4.8,4.9,4.8
		c1.5,0,2.7-0.3,3.9-0.9l0.2,1.2c-1.2,0.7-2.6,1-4.3,1C65.6,16.3,63.8,14,63.8,9.8z M73.5,9.2c-0.1-2.7-1.7-3.9-4.1-3.9
		c-2.8,0-4,1.5-4.2,3.9H73.5z"/>
	<path fill="#003478" d="M86.5,6c-0.9-0.4-2-0.7-3.2-0.7c-3.3,0-4.6,1.6-4.6,4.7c0,3.5,1.6,5,4.6,5c1.2,0,2.4-0.3,3.3-0.9l0.1,1.2
		c-0.9,0.6-2.2,1-3.7,1c-3.8,0-5.7-2-5.7-6.2c0-3.8,1.7-6,5.7-6c1.3,0,2.6,0.3,3.6,0.7L86.5,6z"/>
	<path fill="#003478" d="M98.8,16V8.6c0-2.1-1.2-3.2-3.8-3.2c-1.7,0-3.2,0.8-3.9,1.7V16h-1.4V0.2l1.4-0.1v4l0,1.6l0,0
		c1-1.1,2.5-1.7,4.2-1.7c3.2,0,4.8,1.6,4.8,4.5V16H98.8z"/>
</g>
</svg>
