<?xml version="1.0" encoding="UTF-8"?>
<svg width="203px" height="46px" viewBox="0 0 203 46" version="1.1" xmlns="http://www.w3.org/2000/svg" xmlns:xlink="http://www.w3.org/1999/xlink">
    <!-- Generator: Sketch 46.2 (44496) - http://www.bohemiancoding.com/sketch -->
    <title>love-group-logo</title>
    <desc>Created with Sketch.</desc>
    <defs></defs>
    <g id="Website-(Desktop)" stroke="none" stroke-width="1" fill="none" fill-rule="evenodd">
        <g id="Home" transform="translate(-100.000000, -19.000000)" fill="#FFFFFF">
            <g id="nav">
                <g id="love-group-white" transform="translate(100.000000, 19.000000)">
                    <g id="LG_Logo_UK_StockTicket">
                        <path d="M107.721734,19.773181 C105.847223,21.2576317 103.413143,22.1485909 100.880682,22.1485909 C95.0594291,22.1485909 90.3232423,17.5631113 90.3232423,11.8893233 C90.3232423,6.24850715 95.0594291,1.66302755 100.880682,1.66302755 C103.643498,1.66302755 106.241706,2.68563307 108.14933,4.40112661 L108.971408,3.3785211 C106.833669,1.49816882 103.972233,0.343676317 100.880682,0.343676317 C94.3028582,0.343676317 88.9420745,5.48967562 88.9420745,11.8893233 C88.9420745,18.288971 94.2699846,23.4679421 100.814935,23.4679421 C103.873612,23.4679421 106.833669,22.3132089 108.971408,20.4660691 L108.971408,12.1201256 L107.721734,12.1201256 L107.721734,19.773181 Z M131.385391,23.4349704 L125.629885,15.3860133 C129.280766,14.462323 131.286771,11.8893233 131.286771,7.96376003 C131.286771,3.1474782 128.063966,0.376648064 122.373967,0.376648064 L114.250128,0.376648064 L114.250128,23.4349704 L115.631535,23.4349704 L115.631535,15.7489431 L122.373967,15.7489431 C123.064791,15.7489431 123.689388,15.7159714 124.314465,15.6168155 L129.741235,23.4349704 L131.385391,23.4349704 Z M115.631535,14.3963795 L115.631535,1.72921172 L122.4066,1.72921172 C127.208534,1.72921172 129.938476,3.93928148 129.938476,7.99673178 C129.938476,12.1201256 127.208534,14.3963795 122.4066,14.3963795 L115.631535,14.3963795 Z M146.560001,0.343676317 C139.982177,0.343676317 134.654027,5.48967562 134.654027,11.8893233 C134.654027,18.288971 139.982177,23.4679421 146.560001,23.4679421 C153.137825,23.4679421 158.465975,18.288971 158.465975,11.8893233 C158.465975,5.48967562 153.137825,0.343676317 146.560001,0.343676317 L146.560001,0.343676317 Z M146.560001,1.69623997 C152.315507,1.69623997 157.051454,6.24850715 157.051454,11.8893233 C157.051454,17.5301395 152.315507,22.1153784 146.560001,22.1153784 C140.804255,22.1153784 136.068309,17.5301395 136.068309,11.8893233 C136.068309,6.24850715 140.804255,1.69623997 146.560001,1.69623997 L146.560001,1.69623997 Z M163.793885,14.0004779 L163.793885,0.376648064 L162.412478,0.376648064 L162.412478,14.0004779 C162.412478,20.0042239 165.833004,23.4679421 171.720243,23.4679421 C177.607243,23.4679421 181.02777,20.0042239 181.02777,14.0004779 L181.02777,0.376648064 L179.646362,0.376648064 L179.646362,14.0004779 C179.646362,19.1464772 176.719418,22.1153784 171.720243,22.1153784 C166.721069,22.1153784 163.793885,19.1464772 163.793885,14.0004779 L163.793885,14.0004779 Z M194.134227,0.376648064 L186.043741,0.376648064 L186.043741,23.4349704 L187.424909,23.4349704 L187.424909,15.7489431 L194.134227,15.7489431 C199.791352,15.7489431 202.981524,12.9119288 202.981524,7.96376003 C202.981524,3.1474782 199.791352,0.376648064 194.134227,0.376648064 L194.134227,0.376648064 Z M194.101593,14.3963795 L187.424909,14.3963795 L187.424909,1.72921172 L194.101593,1.72921172 C198.903287,1.72921172 201.665863,3.93928148 201.665863,7.99673178 C201.665863,12.1201256 198.903287,14.3963795 194.101593,14.3963795 L194.101593,14.3963795 Z" id="Fill-1"></path>
                        <path d="M0,0.327070108 L0,23.4183641 L15.0632719,23.4183641 L15.0632719,18.866097 L5.19641608,18.866097 L5.19641608,0.327070108 L0,0.327070108 Z M27.4061998,0.162211371 C20.3679066,0.162211371 15.0397565,5.14335194 15.0397565,11.8727171 C15.0397565,18.5693512 20.3679066,23.649407 27.4061998,23.649407 C34.4444929,23.649407 39.772643,18.5363795 39.772643,11.8727171 C39.772643,5.17632368 34.4444929,0.162211371 27.4061998,0.162211371 L27.4061998,0.162211371 Z M27.4719468,4.71447855 C31.3198286,4.71447855 34.4444929,7.81526683 34.4444929,11.8727171 C34.4444929,15.9301674 31.3198286,19.0971399 27.4719468,19.0971399 C23.6238251,19.0971399 20.3679066,15.9301674 20.3679066,11.8727171 C20.3679066,7.81526683 23.5909515,4.71447855 27.4719468,4.71447855 L27.4719468,4.71447855 Z M38.940487,0.327070108 L47.9852648,23.4183641 L53.3460485,23.4183641 L62.4892069,0.327070108 L57.1284232,0.327070108 L50.8135875,17.7445762 L44.5318652,0.327070108 L38.940487,0.327070108 Z M64.1134468,0.327070108 L64.1134468,23.4183641 L82.0052813,23.4183641 L82.0052813,19.0971399 L69.3101028,19.0971399 L69.3101028,13.9841123 L80.3937589,13.9841123 L80.3937589,9.66264737 L69.3101028,9.66264737 L69.3101028,4.64853505 L81.6436726,4.64853505 L81.6436726,0.327070108 L64.1134468,0.327070108 L64.1134468,0.327070108 Z" id="Fill-2"></path>
                        <g id="stock-code" transform="translate(89.470370, 33.180328)">
                            <g id="Stock-code:">
                                <path d="M4.48606498,2.7906632 C3.09842352,2.7906632 2.18874744,3.34699167 2.18874744,4.27523674 C2.18874744,7.08896752 8.26276251,5.61985829 8.24734427,9.54740584 C8.24734427,11.3408789 6.65965116,12.500702 4.34730084,12.500702 C2.77502596,12.500702 1.23320211,11.8202725 0.215598369,10.8464077 L0.770654955,9.77937046 C1.77284046,10.7377709 3.14506369,11.294486 4.36271907,11.294486 C5.91957571,11.294486 6.89053928,10.6604494 6.89053928,9.60926307 C6.90595752,6.71782414 0.832713365,8.248404 0.832713365,4.36763598 C0.832713365,2.66694873 2.32751159,1.5848338 4.56277072,1.5848338 C5.81164804,1.5848338 7.09136184,1.98651919 7.98523421,2.5896272 L7.4610141,3.68720644 C6.48966508,3.05355643 5.34910088,2.7906632 4.48606498,2.7906632" id="Fill-3"></path>
                                <path d="M14.1390387,11.8972074 C13.5689493,12.2838151 12.9518343,12.500702 12.3042683,12.500702 C11.1174494,12.5161663 10.2389952,11.8048082 10.2389952,10.1969068 L10.2389952,5.51199475 L9.0672091,5.51199475 L9.0672091,4.56867198 L10.2389952,4.56867198 L10.2389952,2.43498412 L11.4258141,2.43498412 L11.4258141,4.56867198 L14.0002745,4.56867198 L14.0002745,5.51199475 L11.4258141,5.51199475 L11.4258141,9.99587077 C11.4258141,10.9851999 11.8112701,11.3872719 12.5050908,11.3872719 C12.9213833,11.3718075 13.3527085,11.2326288 13.7998374,10.9697355 L14.1390387,11.8972074" id="Fill-4"></path>
                                <path d="M15.7675901,8.38758276 C15.7675901,10.2123711 16.9702127,11.4491291 18.6812517,11.4491291 C20.3768725,11.4491291 21.5949134,10.2123711 21.5949134,8.38758276 C21.5949134,6.59449629 20.3768725,5.34150075 18.6812517,5.34150075 C16.9702127,5.34150075 15.7675901,6.59449629 15.7675901,8.38758276 Z M22.7971505,8.37211846 C22.7971505,10.8000148 21.085726,12.500702 18.6812517,12.500702 C16.2609737,12.500702 14.5649675,10.8000148 14.5649675,8.37211846 C14.5649675,5.96007306 16.2609737,4.27523674 18.6812517,4.27523674 C21.085726,4.27523674 22.7971505,5.96007306 22.7971505,8.37211846 L22.7971505,8.37211846 Z" id="Fill-5"></path>
                                <path d="M27.966115,5.35696506 C26.2859124,5.35696506 25.0832898,6.59449629 25.0832898,8.38758276 C25.0832898,10.1969068 26.2859124,11.4336648 27.966115,11.4336648 C29.029588,11.4336648 29.9084276,11.0625214 30.4789024,10.3824785 L31.1723377,11.09345 C30.4480659,11.9749155 29.32292,12.500702 27.9198603,12.500702 C25.5612552,12.500702 23.8960855,10.8154791 23.8960855,8.38758276 C23.8960855,5.97553737 25.5766735,4.27523674 27.9198603,4.27523674 C29.2300251,4.27523674 30.3093018,4.72331505 31.0489918,5.48106613 L30.3860075,6.31575214 C29.7696634,5.71264414 28.9528822,5.35696506 27.966115,5.35696506" id="Fill-6"></path>
                                <polyline id="Fill-7" points="35.6794742 8.32572553 33.9684352 10.1041209 33.9684352 12.4543091 32.7658126 12.4543091 32.7658126 0.981725801 33.9684352 0.981725801 33.9684352 8.54261245 38.1460069 4.32124305 39.5644849 4.32124305 36.5274774 7.46011091 39.8882679 12.4543091 38.4543717 12.4543091 35.6794742 8.32572553"></polyline>
                                <path d="M49.2779752,5.35696506 C47.5977726,5.35696506 46.39515,6.59449629 46.39515,8.38758276 C46.39515,10.1969068 47.5977726,11.4336648 49.2779752,11.4336648 C50.3414482,11.4336648 51.2202878,11.0625214 51.7907626,10.3824785 L52.4841979,11.09345 C51.7599261,11.9749155 50.6347802,12.500702 49.2317204,12.500702 C46.8731154,12.500702 45.2083311,10.8154791 45.2083311,8.38758276 C45.2083311,5.97553737 46.8885336,4.27523674 49.2317204,4.27523674 C50.5418853,4.27523674 51.621162,4.72331505 52.360852,5.48106613 L51.6978677,6.31575214 C51.0815236,5.71264414 50.2647424,5.35696506 49.2779752,5.35696506" id="Fill-8"></path>
                                <path d="M54.4924234,8.38758276 C54.4924234,10.2123711 55.6954315,11.4491291 57.4064705,11.4491291 C59.1017058,11.4491291 60.3201321,10.2123711 60.3201321,8.38758276 C60.3201321,6.59449629 59.1017058,5.34150075 57.4064705,5.34150075 C55.6954315,5.34150075 54.4924234,6.59449629 54.4924234,8.38758276 Z M61.5223693,8.37211846 C61.5223693,10.8000148 59.8109448,12.500702 57.4064705,12.500702 C54.9861925,12.500702 53.2901863,10.8000148 53.2901863,8.37211846 C53.2901863,5.96007306 54.9861925,4.27523674 57.4064705,4.27523674 C59.8109448,4.27523674 61.5223693,5.96007306 61.5223693,8.37211846 L61.5223693,8.37211846 Z" id="Fill-9"></path>
                                <path d="M69.6971193,8.40304707 C69.6971193,6.60957399 68.4790785,5.31057214 66.767654,5.31057214 C65.0415822,5.31057214 63.8231559,6.60957399 63.8231559,8.40304707 C63.8231559,10.1969068 65.0415822,11.4800577 66.767654,11.4800577 C68.4790785,11.4800577 69.6971193,10.1969068 69.6971193,8.40304707 Z M70.8993565,0.981725801 L70.8993565,12.4543091 L69.6971193,12.4543091 L69.6971193,10.7068423 C69.0954226,11.8512011 67.9856949,12.5161663 66.5367659,12.5161663 C64.2244156,12.5161663 62.6209188,10.8000148 62.6209188,8.37211846 C62.6209188,5.94460875 64.2244156,4.25977243 66.5209622,4.25977243 C67.9702766,4.25977243 69.0954226,4.92435105 69.6971193,6.08378752 L69.6971193,0.981725801 L70.8993565,0.981725801 L70.8993565,0.981725801 Z" id="Fill-10"></path>
                                <path d="M79.433737,7.87764722 C79.3562603,6.30028783 78.3082056,5.27964352 76.720127,5.27964352 C75.1632704,5.27964352 74.0535426,6.30028783 73.8835566,7.87764722 L79.433737,7.87764722 Z M80.5122428,8.8364343 L73.8835566,8.8364343 C74.0843791,10.4443357 75.2403615,11.495522 76.8280547,11.495522 C77.8298547,11.495522 78.7090798,11.1243786 79.3408421,10.4598 L80.0038263,11.1556938 C79.2329144,12.0058442 78.0923502,12.500702 76.7355452,12.500702 C74.3461037,12.500702 72.6967376,10.8154791 72.6967376,8.38758276 C72.6967376,5.96007306 74.361522,4.29031444 76.720127,4.27523674 C79.3408421,4.27523674 80.6359741,6.08378752 80.5122428,8.8364343 L80.5122428,8.8364343 Z" id="Fill-11"></path>
                                <path d="M83.105205,11.7893439 C83.105205,12.2374222 82.781422,12.5776369 82.3651296,12.5776369 C81.9338043,12.5776369 81.6100213,12.2374222 81.6100213,11.7893439 C81.6100213,11.3408789 81.9338043,11.0006642 82.3651296,11.0006642 C82.781422,11.0006642 83.105205,11.3408789 83.105205,11.7893439 Z M83.105205,7.19721768 C83.105205,7.64529599 82.781422,7.98551076 82.3651296,7.98551076 C81.9338043,7.98551076 81.6100213,7.64529599 81.6100213,7.19721768 C81.6100213,6.74875276 81.9338043,6.40853799 82.3651296,6.40853799 C82.781422,6.40853799 83.105205,6.74875276 83.105205,7.19721768 L83.105205,7.19721768 Z" id="Fill-13"></path>
                            </g>
                            <g id="LVE" transform="translate(89.628655, 0.998850)">
                                <polyline id="Fill-15" points="1.63202731 0.632377142 1.63202731 10.3111007 6.36465562 10.3111007 6.36465562 11.4554595 0.398953684 11.4554595 0.398953684 0.632377142 1.63202731 0.632377142"></polyline>
                                <polyline id="Fill-16" points="6.33960099 0.632377142 10.0546256 10.0636718 13.7850684 0.632377142 15.0802004 0.632377142 10.6713551 11.4554595 9.3916413 11.4554595 5.01401793 0.632377142 6.33960099 0.632377142"></polyline>
                                <polyline id="Fill-17" points="23.6712429 0.632377142 23.6712429 1.77634931 17.5818096 1.77634931 17.5818096 5.4096884 23.0236769 5.4096884 23.0236769 6.53858287 17.5818096 6.53858287 17.5818096 10.3111007 23.8712945 10.3111007 23.8712945 11.4554595 16.348736 11.4554595 16.348736 0.632377142 23.6712429 0.632377142"></polyline>
                            </g>
                        </g>
                    </g>
                </g>
            </g>
        </g>
    </g>
</svg>