<svg xmlns="http://www.w3.org/2000/svg" viewBox="0 0 76.3 15.9" width="96" height="18">
  <title>RioTinto</title>
  <g fill="#fff">
    <path d="M25.3 13.5c-1.6.3-2.8-1.2-3.2-3.6s.3-4.4 1.8-4.7S26.6 6.6 27 9s-.2 4.2-1.7 4.5m-.7-9.3a5 5 0 0 0-5.3 5.3 5 5 0 0 0 5.3 5.3A5 5 0 0 0 30 9.5a5 5 0 0 0-5.4-5.3M71.7 13.5c-1.5.3-2.7-1.2-3-3.6s0-4.4 1.6-4.7S73 6.6 73.5 9s-.2 4.2-1.8 4.5M71 4a5 5 0 0 0-5.3 5.4 5.3 5.3 0 1 0 10.6 0A5 5 0 0 0 71 4M55 6.8a3.7 3.7 0 0 1 .2 1.2v6.5H59v-.7c-.6 0-1.2-.3-1.2-1.6V7.4A3 3 0 0 0 54.5 4a3.5 3.5 0 0 0-3.2 2V4.3h-3.7V5c.5 0 1.2.3 1.2 1.6v5.7c0 1.2-.7 1.5-1.2 1.5v.7h5v-.7c-.5 0-1.2-.3-1.2-1.5V8.6a3.8 3.8 0 0 1 .4-1.8 2 2 0 0 1 1.7-1 1.5 1.5 0 0 1 1.5 1M64.6 14.5v-.7c-.5 0-1.2-.3-1.2-1.5v-7h1.4v-1h-1.4V2.2H62a2.8 2.8 0 0 1-2.6 2.7v.7h1.4v7c0 1.5.5 2 2.3 2zM37.8 1.4v10.8c0 1.2.7 1.5 1.3 1.5v.8H34v-.8c.6 0 1.3-.3 1.3-1.5V1.4H34c-1.5 0-2 .4-2 1.6h-1V0h11v3h-.7c0-1.2-.5-1.6-2-1.6h-1.2M4 1.4v10.8c0 1.2.7 1.5 1.2 1.5v.8H0v-.8c.5 0 1.2-.3 1.2-1.5V2.4C1.2 1 .6.8 0 .8V0h6.5c4 0 5 2 5 3.8A3.5 3.5 0 0 1 8 7.3c2 0 3 5.2 4.5 7a1.8 1.8 0 0 0 1.3.7v.8h-1.5a3.6 3.6 0 0 1-2.8-1.2c-1.7-2.2-2.3-7-4.4-7.2H5v-.8h.3c2.6 0 3-1.4 3-2.6 0-1.3-.5-2.6-2.8-2.6H4M45.5 2.2a1.4 1.4 0 0 1-2.8 0 1.4 1.4 0 0 1 2.8 0M46.8 14.5v-.7c-.6 0-1.3-.3-1.3-1.5v-8h-3.8v.8c.5 0 1.2.3 1.2 1.6v5.7c0 1.2-.8 1.5-1.3 1.5v.7zM14.3 14.5v-8c0-1.2-.7-1.4-1.2-1.4v-.6h4v8c0 1 .6 1.4 1.2 1.4v.7zM17 2.2a1.3 1.3 0 0 1-1.4 1.2 1.3 1.3 0 0 1-1.4-1.2A1.3 1.3 0 0 1 15.6 1 1.3 1.3 0 0 1 17 2.2"/>
  </g>
</svg>
