<?xml version="1.0" encoding="UTF-8"?>
<svg width="479px" height="110px" viewBox="0 0 479 110" version="1.1" xmlns="http://www.w3.org/2000/svg" xmlns:xlink="http://www.w3.org/1999/xlink">
    <!-- Generator: Sketch 48.2 (47327) - http://www.bohemiancoding.com/sketch -->
    <title>orbital-logo-horizontal</title>
    <desc>Created with Sketch.</desc>
    <defs></defs>
    <g id="Page-1" stroke="none" stroke-width="1" fill="none" fill-rule="evenodd">
        <g id="orbital-logo-horizontal" transform="translate(0.828125, 0.000000)">
            <path d="M72.5188669,71.6247248 C47.6532479,96.4768691 19.6528381,108.800437 9.98859661,99.1371582 C0.32146765,89.4777291 12.6469608,61.4859816 37.5125798,36.6338374 C62.3781987,11.7788057 90.3786085,-0.54187511 100.043812,9.12140394 C109.709979,18.7817956 97.3844858,46.7696931 72.5188669,71.6247248 M94.0591243,0 L15.0714429,0 C6.78450737,0 0,6.76622029 0,15.0367937 L0,94.096661 C0,102.366272 6.78450737,109.13153 15.0714429,109.13153 L94.0591243,109.13153 C102.348947,109.13153 109.13153,102.366272 109.13153,94.096661 L109.13153,15.0367937 C109.13153,6.76622029 102.348947,0 94.0591243,0" id="Fill-1" fill="#00A4E0"></path>
            <path d="M176.101711,50.7152754 C173.515533,53.7374563 169.355703,55.2677963 163.734831,55.2677963 C158.114922,55.2677963 153.949317,53.7374563 151.353514,50.7172004 C148.80391,47.7460308 147.51034,43.3195945 147.51034,37.5610887 C147.51034,31.7977704 148.80391,27.3655593 151.352552,24.3876524 C153.949317,21.3529593 158.114922,19.8129945 163.734831,19.8129945 C169.355703,19.8129945 173.515533,21.3529593 176.102673,24.3876524 C178.638803,27.3674842 179.925636,31.7996954 179.925636,37.5610887 C179.925636,43.3176695 178.638803,47.7431434 176.101711,50.7152754 M163.734831,12.5901746 C154.752987,12.5901746 147.869344,14.6002137 143.273512,18.5608106 C138.725803,22.4809835 136.420668,28.867025 136.420668,37.5408766 C136.420668,46.2137658 138.725803,52.6007698 143.274474,56.5228676 C147.869344,60.4834645 154.752987,62.4931186 163.734831,62.4931186 C172.715713,62.4931186 179.593581,60.4853895 184.177864,56.5247926 C188.714985,52.6007698 191.015307,46.2137658 191.015307,37.5408766 C191.015307,28.867025 188.714985,22.4809835 184.177864,18.5588857 C179.593581,14.5982887 172.715713,12.5901746 163.734831,12.5901746" id="Fill-2" fill="#231F20"></path>
            <path d="M264.786358,54.1873185 L264.786358,40.0225299 L286.074446,40.0225299 C288.20441,40.0225299 289.882972,40.6837523 291.062007,41.9869475 C292.210244,43.2583809 292.79158,44.9792915 292.79158,47.104443 C292.79158,49.2286319 292.216981,50.9476176 291.085107,52.2161636 C289.920508,53.5241712 288.234247,54.1873185 286.074446,54.1873185 L264.786358,54.1873185 Z M264.786358,20.859593 L284.769326,20.859593 C286.543173,20.859593 288.003252,21.3995432 289.106252,22.4659688 C290.216952,23.5391318 290.779039,25.0107606 290.779039,26.8452437 C290.779039,28.6835767 290.214064,30.1532805 289.10144,31.2129688 C287.997477,32.2649573 286.540286,32.7972076 284.769326,32.7972076 L264.786358,32.7972076 L264.786358,20.859593 Z M298.915828,57.685926 C302.257551,55.2508567 303.881252,51.9023958 303.881252,47.4451602 C303.902426,42.4643366 301.878335,38.9792037 297.691556,36.782829 L296.221852,36.0099591 L297.512535,34.9714454 C300.444243,32.6124118 301.869673,29.8799368 301.869673,26.6209863 C301.869673,23.6170925 301.041942,21.1752858 299.338356,19.1598569 C297.621295,17.1319158 295.515393,15.6958986 293.079361,14.8922295 C290.558631,14.0587235 287.715471,13.6352332 284.627842,13.6352332 L255.94311,13.6352332 C255.315575,13.6352332 254.814124,13.8450534 254.360797,14.2906807 C253.907469,14.7411204 253.695724,15.2367966 253.695724,15.853745 L253.688024,61.3876164 L286.286192,61.4116783 C291.26509,61.4116783 295.514431,60.1575695 298.915828,57.685926 Z" id="Fill-3" fill="#231F20"></path>
            <path d="M374.767756,13.6354257 L329.992317,13.6354257 C329.31762,13.6354257 328.804619,13.8336962 328.378242,14.2571865 C327.946089,14.6806768 327.746856,15.1859778 327.746856,15.8539375 L327.746856,19.1282876 C327.746856,19.791435 327.945127,20.2899986 328.368617,20.7019392 C328.797882,21.1177296 329.312808,21.3121502 329.992317,21.3121502 L346.835682,21.3121502 L346.785633,61.4301579 L355.714542,61.4118708 C356.349777,61.4118708 356.851228,61.2155253 357.292043,60.7949224 C357.725158,60.3829818 357.925354,59.9075177 357.925354,59.2973067 L357.925354,21.3121502 L374.767756,21.3121502 C375.446303,21.3121502 375.964116,21.1177296 376.393381,20.7019392 C376.816872,20.2899986 377.01418,19.78951 377.01418,19.1282876 L377.01418,15.8539375 C377.01418,15.1879027 376.814947,14.6806768 376.387606,14.258149 C375.956416,13.8336962 375.442453,13.6354257 374.767756,13.6354257" id="Fill-4" fill="#231F20"></path>
            <path d="M475.245646,53.7352426 L443.405912,53.7352426 L443.405912,15.9223697 C443.405912,15.252485 443.198979,14.7327469 442.752389,14.2823072 C442.313499,13.8424547 441.817823,13.635522 441.196062,13.635522 L434.563626,13.635522 C433.937053,13.635522 433.435602,13.8453422 432.98035,14.2909695 C432.528948,14.7375593 432.31624,15.2582599 432.31624,15.9223697 L432.272929,61.3802053 L475.245646,61.4119671 C475.871257,61.4119671 476.367895,61.2088842 476.80871,60.7728817 C477.250488,60.3388041 477.456458,59.8489028 477.456458,59.227142 L477.456458,55.9556793 C477.456458,55.3300686 477.248563,54.831505 476.80101,54.3839528 C476.361158,53.9421754 475.867407,53.7352426 475.245646,53.7352426" id="Fill-5" fill="#231F20"></path>
            <path d="M470.913533,17.2662777 L469.004939,17.2662777 L469.004939,19.8197318 L470.913533,19.8197318 C471.560318,19.8197318 472.267739,19.3336804 472.267739,18.5733228 C472.267739,17.7532916 471.560318,17.2662777 470.913533,17.2662777 Z M472.145504,23.7119928 L470.205149,20.7927971 L469.004939,20.7927971 L469.004939,23.7119928 L467.864402,23.7119928 L467.864402,16.3240118 L470.913533,16.3240118 C472.176304,16.3240118 473.438112,17.2056416 473.438112,18.5733228 C473.438112,20.2153103 471.960709,20.7629603 471.529518,20.7629603 L473.531473,23.7119928 L472.145504,23.7119928 Z M470.389945,14.6204257 C467.371614,14.6204257 464.938469,16.992934 464.938469,20.0026026 C464.938469,22.9516352 467.371614,25.3857421 470.389945,25.3857421 C473.408276,25.3857421 475.840457,22.9516352 475.840457,20.0026026 C475.840457,16.992934 473.408276,14.6204257 470.389945,14.6204257 Z M470.389945,26.4492802 C466.786427,26.4492802 463.861456,23.5608838 463.861456,20.0026026 C463.861456,16.4144847 466.786427,13.5568875 470.389945,13.5568875 C474.023299,13.5568875 476.918433,16.4144847 476.918433,20.0026026 C476.918433,23.5608838 474.023299,26.4492802 470.389945,26.4492802 Z" id="Fill-6" fill="#231F20"></path>
            <path d="M413.040693,41.6159122 L411.930956,41.6794358 L388.168337,41.6794358 L391.564922,29.1421974 C392.210745,26.7725766 393.485065,24.8572454 395.350348,23.4404778 C397.216593,22.0285226 399.424517,21.3114765 401.913485,21.3114765 L413.040693,21.3114765 L413.040693,41.6159122 Z M403.183956,13.6357145 C390.414761,13.6607389 383.101853,17.8378934 380.82463,26.4077974 L376.764898,41.6159122 L376.635926,41.6159122 L371.495331,61.4246718 L380.337616,61.4111971 C381.020975,61.4111971 381.662948,61.1830898 382.300109,60.7124381 C382.920907,60.2504486 383.308786,59.685474 383.485882,58.986715 L386.09131,49.3561602 L413.036843,49.3561602 L413.036843,61.4083097 L421.883941,61.4111971 C422.523027,61.4111971 423.032177,61.2129266 423.487429,60.7865489 C423.927282,60.3765332 424.130365,59.9039565 424.130365,59.2975954 L424.130365,13.6357145 L403.183956,13.6357145 Z" id="Fill-7" fill="#231F20"></path>
            <path d="M312.895821,13.6354257 C312.27021,13.6354257 311.767796,13.8452459 311.314469,14.2908732 C310.861142,14.7403505 310.649397,15.2369891 310.649397,15.8539375 L310.681159,61.4186082 L319.457996,61.4118708 C320.092269,61.4118708 320.606232,61.2049381 321.073996,60.7593107 C321.528286,60.3261956 321.739068,59.8401443 321.739068,59.2270458 L321.739068,13.6354257 L312.895821,13.6354257 Z" id="Fill-8" fill="#231F20"></path>
            <path d="M207.699863,35.3945507 L207.699863,21.2278371 L223.836769,21.2278371 C226.433535,21.2278371 228.761769,21.7495002 230.754099,22.7812766 C232.953361,23.9131507 234.116034,25.826557 234.116034,28.3136001 C234.116034,30.8006432 232.945661,32.7111621 230.732924,33.8439987 C228.73097,34.8719252 226.409473,35.3945507 223.836769,35.3945507 L207.699863,35.3945507 Z M248.739925,61.3237078 L233.132382,41.0096473 C235.948593,40.4918342 245.206668,37.3358688 245.206668,28.3136001 C245.206668,23.7553043 243.644567,20.2441846 240.432778,17.5800455 C237.206551,14.9082066 232.98801,13.5511127 227.893614,13.5511127 L198.785392,13.5511127 C198.168444,13.5511127 197.680468,13.7561205 197.252165,14.1930855 C196.814237,14.6425627 196.60923,15.1449762 196.60923,15.7686619 L196.59768,61.3102331 L205.490014,61.3265953 C206.114662,61.3265953 206.612263,61.1244749 207.055003,60.6865474 C207.494856,60.2543948 207.699863,59.7606436 207.699863,59.1427327 L207.699863,43.0712752 L217.415116,43.0712752 L223.180359,43.0231513 L234.677159,58.5536962 C235.155511,59.3236786 235.851382,59.982976 236.756112,60.528701 C237.633892,61.0580639 238.437561,61.3265953 239.143057,61.3265953 L239.141132,61.3188954 C239.164232,61.3198579 239.188293,61.3237078 239.211393,61.3237078 L248.739925,61.3237078 Z" id="Fill-9" fill="#231F20"></path>
            <path d="M286.470987,69.3501006 C286.470987,69.0478825 286.368965,68.805338 286.148557,68.5849306 C285.92815,68.3635606 285.672131,68.2605755 285.342001,68.2605755 L281.611436,68.2605755 C281.309218,68.2605755 281.077261,68.3597107 280.859741,68.5791557 C280.644146,68.7986007 280.543085,69.0430701 280.543085,69.3481756 L280.543085,84.855621 C280.543085,87.0173466 280.037784,88.6776211 279.040657,89.7873583 C278.022356,90.9250073 276.470841,91.502494 274.433275,91.502494 L271.225336,91.502494 C269.184883,91.502494 267.635293,90.9250073 266.616991,89.7863958 C265.620827,88.6776211 265.116488,87.0173466 265.116488,84.855621 L265.116488,69.3481756 C265.116488,69.0440326 265.014465,68.7995631 264.795983,68.5762683 C264.582313,68.3597107 264.350356,68.2605755 264.04525,68.2605755 L260.297361,68.2605755 C259.971081,68.2605755 259.717949,68.3625981 259.504279,68.5801182 C259.288684,68.7995631 259.187624,69.0440326 259.187624,69.3501006 L259.187624,84.8305966 C259.187624,88.2897425 260.159726,90.8788083 262.156868,92.7469781 C264.143423,94.6016732 267.126142,95.5439391 271.024178,95.5439391 L274.634433,95.5439391 C278.532469,95.5439391 281.516151,94.6016732 283.501743,92.7469781 C285.471935,90.9047952 286.470987,88.2406561 286.470987,84.8305966 L286.470987,69.3501006 Z" id="Fill-10" fill="#00A4E0"></path>
            <path d="M313.550306,84.4038339 L298.982239,84.4038339 L300.976493,76.9504043 C301.354747,75.5451864 302.100667,74.4075374 303.195967,73.5682566 C304.289342,72.7280133 305.58195,72.3035605 307.039142,72.3035605 L313.550306,72.3035605 L313.550306,84.4038339 Z M318.568666,68.261153 L307.760038,68.261153 C300.602089,68.2736652 296.503858,70.6326987 295.236274,75.4730006 L290.206364,94.5493144 C290.17749,94.6802114 290.155353,94.8005211 290.145728,94.9112061 C290.149578,94.9631799 290.182302,95.0584652 290.258338,95.1556755 C290.347849,95.2759853 290.472008,95.3837828 290.805026,95.3837828 L294.77621,95.3837828 C295.122702,95.3837828 295.450907,95.2634731 295.779112,95.0170787 C296.097692,94.7803091 296.294038,94.4906032 296.383548,94.129674 L297.903301,88.445279 L313.550306,88.445279 L313.550306,94.3154322 C313.550306,94.6455622 313.642704,94.8909941 313.841937,95.0911895 C314.042132,95.2904224 314.288526,95.3837828 314.617694,95.3837828 L318.38772,95.3837828 C318.700525,95.3837828 318.948845,95.28561 319.170215,95.0757898 C319.383885,94.8746319 319.477245,94.6522995 319.477245,94.3548938 L319.477245,69.3092915 C319.477245,69.0138108 319.384847,68.7703038 319.187539,68.5441215 C319.013331,68.3448885 318.828535,68.261153 318.568666,68.261153 Z" id="Fill-11" fill="#00A4E0"></path>
            <path d="M354.662553,68.7870509 C354.675065,68.7562516 354.687578,68.7062028 354.687578,68.6686661 C354.687578,68.6234297 354.644266,68.5647185 354.608654,68.523332 C354.450808,68.3308364 354.302586,68.2605755 354.080254,68.2605755 L349.689429,68.2605755 C349.255352,68.2663503 348.598942,68.4193843 348.050329,69.6773431 L339.542024,88.6275723 L331.037568,69.6840804 C330.486068,68.4068721 329.837358,68.2605755 329.396543,68.2605755 L325.004756,68.2605755 C324.791086,68.2605755 324.635165,68.3375737 324.483093,68.5165946 C324.42342,68.5839681 324.397433,68.6330545 324.397433,68.6686661 C324.397433,68.6686661 324.399358,68.6975405 324.432082,68.7658764 L324.442669,68.7870509 L335.972193,93.8134037 C336.620903,95.221509 337.496758,95.3841678 338.098307,95.3841678 L340.985741,95.3841678 C341.588252,95.3841678 342.464107,95.221509 343.111855,93.8134037 L354.662553,68.7870509 Z" id="Fill-12" fill="#00A4E0"></path>
        </g>
    </g>
</svg>