<svg xmlns="http://www.w3.org/2000/svg" width="207" height="83" viewBox="0 0 207 83">
  <defs>
    <linearGradient id="spectrum-a" x1="49.905%" x2="49.905%" y1="99.964%" y2=".004%">
      <stop offset="0%" stop-color="#010101"/>
      <stop offset="100%" stop-color="#4E4E4E"/>
    </linearGradient>
    <linearGradient id="spectrum-b" x1="49.905%" x2="49.905%" y1="99.964%" y2="-.176%">
      <stop offset="0%" stop-color="#010101"/>
      <stop offset="100%" stop-color="#4E4E4E"/>
    </linearGradient>
    <linearGradient id="spectrum-c" x1="7270%" x2="7270%" y1="6782%" y2="4035%">
      <stop offset="0%" stop-color="#010101"/>
      <stop offset="100%" stop-color="#4E4E4E"/>
    </linearGradient>
    <linearGradient id="spectrum-d" x1="14026%" x2="14026%" y1="6787%" y2="4048%">
      <stop offset="0%" stop-color="#010101"/>
      <stop offset="100%" stop-color="#4E4E4E"/>
    </linearGradient>
    <linearGradient id="spectrum-e" x1="16683%" x2="16683%" y1="6775%" y2="4042%">
      <stop offset="0%" stop-color="#010101"/>
      <stop offset="100%" stop-color="#4E4E4E"/>
    </linearGradient>
    <linearGradient id="spectrum-f" x1="-21.247%" x2="174.528%" y1="3.217%" y2="89.843%">
      <stop offset="0%" stop-color="#EC008C"/>
      <stop offset="32%" stop-color="#EC008C"/>
      <stop offset="75%" stop-color="#9E1F63"/>
      <stop offset="100%" stop-color="#9E1F63"/>
    </linearGradient>
    <linearGradient id="spectrum-g" x1="-2.39%" x2="133.87%" y1="2.416%" y2="87.522%">
      <stop offset="0%" stop-color="#FAED25"/>
      <stop offset="100%" stop-color="#F79326"/>
    </linearGradient>
    <linearGradient id="spectrum-h" x1="-2.442%" x2="133.818%" y1="2.413%" y2="87.413%">
      <stop offset="0%" stop-color="#FAED25"/>
      <stop offset="100%" stop-color="#F79326"/>
    </linearGradient>
    <linearGradient id="spectrum-i" x1="4.38%" x2="116.255%" y1=".688%" y2="85.639%">
      <stop offset="0%" stop-color="#D9E028"/>
      <stop offset="1%" stop-color="#D9E028"/>
      <stop offset="48%" stop-color="#7FC347"/>
      <stop offset="100%" stop-color="#3C9B80"/>
    </linearGradient>
    <linearGradient id="spectrum-j" x1="4.38%" x2="116.255%" y1=".689%" y2="85.678%">
      <stop offset="0%" stop-color="#D9E028"/>
      <stop offset="1%" stop-color="#D9E028"/>
      <stop offset="48%" stop-color="#7FC347"/>
      <stop offset="100%" stop-color="#3C9B80"/>
    </linearGradient>
    <linearGradient id="spectrum-k" x1="-2.115%" x2="103.772%" y1="38.347%" y2="55.937%">
      <stop offset="0%" stop-color="#8BD7F8"/>
      <stop offset="11%" stop-color="#8BD7F8"/>
      <stop offset="58%" stop-color="#2CACE2"/>
      <stop offset="71%" stop-color="#2AA9E0"/>
      <stop offset="81%" stop-color="#25A0DA"/>
      <stop offset="89%" stop-color="#1C90CF"/>
      <stop offset="97%" stop-color="#0F7AC0"/>
      <stop offset="100%" stop-color="#0970B9"/>
    </linearGradient>
    <linearGradient id="spectrum-l" x1="5.762%" x2="91.813%" y1="110.495%" y2="29.587%">
      <stop offset="0%" stop-color="#B0228C"/>
      <stop offset="75%" stop-color="#6A2F90"/>
      <stop offset="82%" stop-color="#673090"/>
      <stop offset="100%" stop-color="#333472"/>
    </linearGradient>
    <linearGradient id="spectrum-m" x1="21.57%" x2="78.439%" y1="-.384%" y2="161.287%">
      <stop offset="0%" stop-color="#B0228C"/>
      <stop offset="73%" stop-color="#673090"/>
      <stop offset="100%" stop-color="#333472"/>
    </linearGradient>
  </defs>
  <g fill="none" fill-rule="evenodd">
    <path fill="url(#spectrum-a)" fill-rule="nonzero" d="M12.63,40.35 C6.56,40.35 3.14,43.15 2.46,48.65 C1.72,54.65 5.36,56.03 9.46,56.65 C11.75,57.01 13.35,57.42 13.1,59.41 C12.85,61.4 11.94,62 9.33,62 C7.5860937,61.9439716 5.9281654,61.2293473 4.69,60 L4.53,59.82 L4.33,59.97 C2.72670034,61.2396901 1.31248859,62.7313468 0.13,64.4 L0,64.56 L0.15,64.72 C2.45559521,66.8577375 5.51844909,67.9878622 8.66,67.86 C15.38,67.86 18.83,65.19 19.54,59.49 C20.36,52.84 16.27,51.63 12.37,51.02 C10.15,50.68 8.71,50.33 8.93,48.54 C9.13,46.95 9.66,46.15 11.98,46.15 C13.6894772,46.1944178 15.3371288,46.7986739 16.67,47.87 L16.85,48.03 L17.03,47.86 C18.4670611,46.4354596 19.7415335,44.8557845 20.83,43.15 L21,43 L20.8,42.84 C18.3995912,41.1853003 15.5452692,40.3153785 12.63,40.35 Z"/>
    <path fill="url(#spectrum-b)" fill-rule="nonzero" d="M0,64.56 L0.15,64.72 C2.45559521,66.8577375 5.51844909,67.9878622 8.66,67.86 C15.38,67.86 18.83,65.19 19.54,59.49 C20.36,52.84 16.27,51.63 12.37,51.02 C10.15,50.68 8.71,50.33 8.93,48.54 C9.13,46.95 9.66,46.15 11.98,46.15 C13.6894772,46.1944178 15.3371288,46.7986739 16.67,47.87 L16.85,48.03 L17.03,47.86 C18.4670611,46.4354596 19.7415335,44.8557845 20.83,43.15 L21,43 L20.8,42.84 C18.4021534,41.2089238 15.5596929,40.356884 12.66,40.4 C6.59,40.4 3.17,43.2 2.49,48.7 C1.75,54.7 5.39,56.08 9.49,56.7 C11.78,57.06 13.38,57.47 13.13,59.46 C12.88,61.45 11.94,62 9.33,62 C7.5860937,61.9439716 5.9281654,61.2293473 4.69,60 L4.53,59.82 L4.33,59.97 C2.72670034,61.2396901 1.31248859,62.7313468 0.13,64.4 L0,64.56 Z"/>
    <path d="M35.21,50.48 C35.51,48.06 35.08,47.2 34.8,46.89 C34.52,46.58 34.45,46.83 34.21,46.83 L30.48,46.83 L29.48,54.32 L33.15,54.32 C34.14,54.32 34.92,52.87 35.21,50.48 Z"/>
    <path fill="url(#spectrum-b)" fill-rule="nonzero" d="M34.13 60.55C38.43 60.55 41.37 55.31 41.95 50.62 42.36 47.24 41.7 44.16 40.14 42.38 39.2328697 41.2809547 37.8945443 40.628202 36.47 40.59L24.63 40.59 21.29 67.59 21.56 67.59C21.56 67.59 22.98 67.73 24.87 67.73 26.3 67.73 27.64 67.59 27.65 67.59L27.86 67.82 28.79 60.53 34.13 60.55zM30.48 46.83L34.21 46.83C34.45 46.83 34.64 46.7 34.8 46.89 34.96 47.08 35.51 48.06 35.21 50.48 34.91 52.9 34.14 54.32 33.21 54.32L29.51 54.32 30.48 46.83zM59 64.63C59.105882 63.7572094 59.1626382 62.8791588 59.17 62L59.17 61.8 49.84 61.8 50.48 56.19 59.14 56.19 59.2 56.19C59.4270692 55.3287494 59.5974345 54.4535395 59.71 53.57 59.8158768 52.6739757 59.8659733 51.7722382 59.86 50.87L59.86 50.55 51.2 50.55 51.75 46.81 61.09 46.81 61.09 46.37C61.09 46.37 61.41 44.78 61.56 43.56 61.6661355 42.6703647 61.7262157 41.775838 61.74 40.88L61.74 40.57 45.89 40.57 42.55 67.41 58.46 67.41 58.46 67.31C58.688495 66.4271267 58.8687617 65.5324698 59 64.63z"/>
    <path fill="url(#spectrum-c)" fill-rule="nonzero" d="M75.59,40.35 C67.76,40.35 63.91,44.43 62.73,53.98 C62.06,59.4 62.66,62.98 64.61,65.16 C66.19,66.95 68.69,67.82 72.26,67.82 C75.1019129,67.8813612 77.8815496,66.9829995 80.15,65.27 L80.28,65.15 L80.22,65 C79.6636687,63.2551647 78.7356911,61.6516739 77.5,60.3 L77.31,60.11 L77.12,60.31 C76.016907,61.2810154 74.5892357,61.8021154 73.12,61.77 C72.112166,61.8617913 71.1166419,61.4944392 70.41,60.77 C69.41,59.68 69.21,57.54 69.64,54.02 C70.43,47.64 72.23,46.39 75.08,46.39 C76.4369983,46.3073384 77.7591288,46.8398631 78.68,47.84 L78.85,48.06 L79.06,47.87 C80.5901207,46.5386185 81.8731486,44.9475284 82.85,43.17 L82.94,43.01 L82.82,42.87 C82.73,42.8 80.53,40.35 75.59,40.35 Z"/>
    <path fill="url(#spectrum-b)" fill-rule="nonzero" d="M64.61 65.16C66.19 66.95 68.69 67.82 72.26 67.82 75.1019129 67.8813612 77.8815496 66.9829995 80.15 65.27L80.28 65.15 80.22 65C79.6636687 63.2551647 78.7356911 61.6516739 77.5 60.3L77.31 60.11 77.12 60.31C76.016907 61.2810154 74.5892357 61.8021154 73.12 61.77 72.112166 61.8617913 71.1166419 61.4944392 70.41 60.77 69.41 59.68 69.21 57.54 69.64 54.02 70.43 47.64 72.23 46.39 75.08 46.39 76.4369983 46.3073384 77.7591288 46.8398631 78.68 47.84L78.85 48.06 79.06 47.87C80.5901207 46.5386185 81.8731486 44.9475284 82.85 43.17L82.94 43.01 82.82 42.87C82.73 42.77 80.53 40.32 75.59 40.32 67.76 40.32 63.91 44.4 62.73 53.95 62.06 59.4 62.66 63 64.61 65.16zM92.37 67.75C90.52 67.75 88.98 67.61 88.96 67.61L88.69 67.61 91.27 46.72 85.38 46.37 85.38 46.12C85.38 46.12 85.38 44.76 85.57 43.4 85.6691143 42.5199818 85.8126306 41.6455336 86 40.78L86 40.59 104.8 40.59 104.8 40.83C104.824311 41.6382856 104.78754 42.4472531 104.69 43.25 104.52 44.61 104.24 46.13 104.23 46.15L104.23 46.34 98.23 46.69 95.65 67.59 95.43 67.59C95.43 67.59 93.84 67.73 92.34 67.73"/>
    <path d="M120.28,49.52 C120.286765,48.6428798 119.973949,47.7933006 119.4,47.13 C119.178157,46.8976753 118.858212,46.7860665 118.54,46.83 L114.54,46.83 L113.84,52.44 L117.75,52.44 C118.6,52.44 120.14,50.6 120.28,49.52 Z"/>
    <path fill="url(#spectrum-b)" fill-rule="nonzero" d="M111.94,67.48 L113.17,57.43 L115.77,57.43 C116.388259,60.9113192 117.577618,64.2665271 119.29,67.36 L119.36,67.54 L119.5,67.54 C119.5,67.54 121.02,67.7 122.63,67.7 C124.24,67.7 126.26,67.56 126.28,67.56 L126.68,67.56 L126.5,67.2 C124.03,62.26 122.92,59.41 122.18,56.03 C124.46,54.1 126.57,50.82 126.82,48.81 C127.03,47.09 126.03,44.49 124.48,42.74 C123.420806,41.432299 121.851302,40.6420845 120.17,40.57 L108.75,40.57 L105.41,67.57 L105.68,67.57 C105.68,67.57 107.06,67.7 108.68,67.7 C110.04,67.7 111.68,67.56 111.74,67.56 L111.94,67.48 Z M114.57,46.83 L118.57,46.83 C118.888212,46.7860665 119.208157,46.8976753 119.43,47.13 C120.003949,47.7933006 120.316765,48.6428798 120.31,49.52 C120.17,50.6 118.63,52.44 117.81,52.44 L113.9,52.44 L114.57,46.83 Z"/>
    <path fill="url(#spectrum-d)" fill-rule="nonzero" d="M149.27,58.31 L151.45,40.64 L151.17,40.64 C151.17,40.64 149.45,40.5 147.98,40.5 C146.51,40.5 144.98,40.64 144.92,40.64 L144.71,40.64 L142.48,58.7 C142.17,61.14 141.16,62.05 138.72,62.05 C137.861351,62.1682584 136.993517,61.9093669 136.34,61.34 C135.840793,60.5820808 135.688045,59.6474087 135.92,58.77 L138.16,40.64 L137.88,40.64 C137.88,40.64 136.19,40.5 134.79,40.5 C133.39,40.5 131.65,40.64 131.63,40.64 L131.42,40.64 L129.23,58.28 C128.81,61.71 129.23,64.02 130.59,65.54 C131.95,67.06 134.37,67.87 138.07,67.87 C145.09,67.87 148.44,65 149.27,58.31 Z"/>
    <path fill="url(#spectrum-b)" fill-rule="nonzero" d="M130.59,65.54 C131.99,67.13 134.37,67.87 138.07,67.87 C145.07,67.87 148.44,65.01 149.27,58.31 L151.45,40.64 L151.17,40.64 C151.17,40.64 149.45,40.5 147.98,40.5 C146.51,40.5 144.98,40.64 144.92,40.64 L144.71,40.64 L142.48,58.7 C142.17,61.14 141.16,62.05 138.72,62.05 C137.861351,62.1682584 136.993517,61.9093669 136.34,61.34 C135.840793,60.5820808 135.688045,59.6474087 135.92,58.77 L138.16,40.64 L137.88,40.64 C137.88,40.64 136.19,40.5 134.79,40.5 C133.39,40.5 131.65,40.64 131.63,40.64 L131.42,40.64 L129.23,58.28 C128.81,61.71 129.24,64 130.59,65.54 Z"/>
    <path fill="url(#spectrum-e)" fill-rule="nonzero" d="M177.08,40.42 C175.03,40.42 173.45,40.57 173.43,40.57 L173.3,40.57 L167.52,49.2 L163.67,40.57 L163.51,40.57 C163.51,40.57 161.82,40.42 160,40.42 C158.18,40.42 156,40.56 155.93,40.57 L155.72,40.57 L152.38,67.57 L152.65,67.57 C152.65,67.57 154.14,67.71 155.81,67.71 C157.14,67.71 158.72,67.57 158.73,67.57 L158.94,67.57 L158.94,67.36 C160.29,56.44 160.67,51.36 160.78,49.46 C161.238225,50.8062918 161.803359,52.1137911 162.47,53.37 L165.17,58.66 L167.22,58.66 L171.22,53.48 C172.202636,52.2021503 173.1076,50.8664099 173.93,49.48 C173.55,51.48 172.7,56.61 171.39,67.19 L171.39,67.48 L171.66,67.48 C171.66,67.48 173.18,67.62 174.66,67.62 C176.14,67.62 177.66,67.49 177.72,67.48 L178,67.48 L181.34,40.48 L181,40.48 C181,40.48 178.68,40.42 177.08,40.42 Z"/>
    <path fill="url(#spectrum-b)" fill-rule="nonzero" d="M155.72,40.58 L152.38,67.58 L152.65,67.58 C152.65,67.58 154.14,67.72 155.81,67.72 C157.14,67.72 158.72,67.58 158.73,67.58 L158.94,67.58 L158.94,67.37 C160.29,56.45 160.67,51.37 160.78,49.47 C161.238225,50.8162918 161.803359,52.1237911 162.47,53.38 L165.17,58.67 L167.22,58.67 L171.22,53.49 C172.202636,52.2121503 173.1076,50.8764099 173.93,49.49 C173.55,51.49 172.7,56.62 171.39,67.2 L171.39,67.49 L171.66,67.49 C171.66,67.49 173.18,67.63 174.66,67.63 C176.14,67.63 177.66,67.5 177.72,67.49 L178,67.49 L181.34,40.49 L181,40.49 C181,40.49 178.67,40.34 177.07,40.34 C175.02,40.34 173.44,40.49 173.42,40.49 L173.29,40.49 L167.51,49.12 L163.66,40.49 L163.5,40.49 C163.5,40.49 161.81,40.34 159.99,40.34 C158.17,40.34 155.99,40.48 155.92,40.49 L155.72,40.58 Z"/>
    <path fill="url(#spectrum-f)" fill-rule="nonzero" d="M203.4,7.87 C201.27,7.87 199.15,7.87 197.03,7.99 C201.399945,20.1310031 204.486771,32.69616 206.24,45.48 C206.387511,32.8846418 205.437251,20.3003828 203.4,7.87 Z"/>
    <path fill="url(#spectrum-g)" fill-rule="nonzero" d="M196.15,5.33 C193.07,5.46333333 190.016667,5.67 186.99,5.95 C195.121911,18.2200546 201.594737,31.5120456 206.24,45.48 C204.36752,31.7655376 200.983606,18.3003088 196.15,5.33 Z"/>
    <path fill="url(#spectrum-h)" fill-rule="nonzero" d="M187,6 C195.131911,18.2700546 201.604737,31.5620456 206.25,45.53 C204.377902,31.7981937 200.990583,18.3159931 196.15,5.33 C193.07,5.46333333 190.02,5.68666667 187,6 Z"/>
    <path fill="url(#spectrum-i)" fill-rule="nonzero" d="M184.35,1.91 C179.723333,2.41 175.146667,3.07666667 170.62,3.91 C184.807046,15.6112443 196.85873,29.6828202 206.24,45.5 C201.101442,29.9830095 193.72716,15.2984522 184.35,1.91 Z"/>
    <path fill="url(#spectrum-j)" fill-rule="nonzero" d="M170.62,3.89 C184.807046,15.5912443 196.85873,29.6628202 206.24,45.48 C201.099656,29.9699776 193.725431,15.2922723 184.35,1.91 C179.723333,2.41 175.146667,3.07 170.62,3.89 Z"/>
    <path fill="url(#spectrum-k)" fill-rule="nonzero" d="M206.23,45.48 C195.762855,27.8510274 181.990882,12.4084892 165.67,1.77635684e-14 C157.952345,1.60381997 150.335828,3.66071338 142.86,6.16 C166.814971,14.0293269 188.541975,27.5105608 206.23,45.48 Z"/>
    <path fill="url(#spectrum-k)" fill-rule="nonzero" d="M142.86,6.16 C166.814971,14.0293269 188.541975,27.5105608 206.23,45.48 C195.762855,27.8510274 181.990882,12.4084892 165.67,0 C157.952345,1.60381997 150.335828,3.66071338 142.86,6.16 Z"/>
    <path fill="url(#spectrum-l)" fill-rule="nonzero" d="M135.45,3.84 C118.541281,10.1629302 102.542678,18.6935013 87.87,29.21 C129.65,19.76 171.48,25.6 206.23,45.48 C186.683518,25.6498057 162.278444,11.2922573 135.45,3.84 Z"/>
    <path fill="url(#spectrum-m)" fill-rule="nonzero" d="M87.87,29.21 C129.65,19.76 171.48,25.6 206.23,45.48 C186.683518,25.6498057 162.278444,11.2922573 135.45,3.84 C118.541281,10.1629302 102.542678,18.6935013 87.87,29.21 Z"/>
    <path fill="#939598" fill-rule="nonzero" d="M7.11 79.13C7.96394467 78.8377579 8.53564282 78.0325492 8.53 77.13 8.55189336 76.4621939 8.288479 75.8166413 7.80563508 75.3547906 7.32279117 74.8929399 6.66617431 74.6584626 6 74.71L3 74.71 3 82.48 4.48 82.48 4.48 79.38 5.57 79.38 7.09 82.48 8.85 82.48 7.11 79.13zM5.91 78.13L4.48 78.13 4.48 76.13 5.91 76.13C6.46228475 76.13 6.91 76.5777153 6.91 77.13 6.91 77.6822847 6.46228475 78.13 5.91 78.13zM16.55 74.71L15.36 74.71 12.53 82.48 14.11 82.48 14.58 81.1 17.34 81.1 17.8 82.48 19.38 82.48 16.55 74.71zM15 79.83L16 77 17 79.83 15 79.83zM27.77 79.13C28.6239447 78.8377579 29.1956428 78.0325492 29.19 77.13 29.2001471 76.4709426 28.9330439 75.8379198 28.4538438 75.3853419 27.9746436 74.9327639 27.3274029 74.7022397 26.67 74.75L23.62 74.75 23.62 82.52 25.14 82.52 25.14 79.42 26.23 79.42 27.75 82.52 29.51 82.52 27.77 79.13zM26.57 78.13L25.14 78.13 25.14 76.13 26.57 76.13C27.1222847 76.13 27.57 76.5777153 27.57 77.13 27.57 77.6822847 27.1222847 78.13 26.57 78.13z"/>
    <polygon fill="#939598" fill-rule="nonzero" points="34.04 82.48 34.04 74.71 39.16 74.71 39.16 76.06 35.55 76.06 35.55 77.88 38.62 77.88 38.62 79.24 35.55 79.24 35.55 81.12 39.16 81.12 39.16 82.48"/>
    <polygon fill="#939598" fill-rule="nonzero" points="49.73 82.48 49.73 74.71 54.85 74.71 54.85 76.06 51.25 76.06 51.25 77.88 54.31 77.88 54.31 79.24 51.25 79.24 51.25 81.12 54.85 81.12 54.85 82.48"/>
    <path fill="#939598" fill-rule="nonzero" d="M62.78 74.71L61.58 74.71 58.76 82.48 60.34 82.48 60.81 81.1 63.57 81.1 64 82.48 65.58 82.48 62.78 74.71zM61.24 79.83L62.24 77 63.24 79.83 61.24 79.83zM74 79.13C74.8539447 78.8377579 75.4256428 78.0325492 75.42 77.13 75.4301471 76.4709426 75.1630439 75.8379198 74.6838438 75.3853419 74.2046436 74.9327639 73.5574029 74.7022397 72.9 74.75L69.85 74.75 69.85 82.52 71.37 82.52 71.37 79.42 72.46 79.42 74 82.48 75.76 82.48 74 79.13zM72.8 78.13L71.37 78.13 71.37 76.13 72.8 76.13C73.3522847 76.13 73.8 76.5777153 73.8 77.13 73.8 77.6822847 73.3522847 78.13 72.8 78.13z"/>
    <polygon fill="#939598" fill-rule="nonzero" points="83.24 76.06 83.24 82.48 81.72 82.48 81.72 76.06 79.69 76.06 79.69 74.71 85.27 74.71 85.27 76.06"/>
    <polygon fill="#939598" fill-rule="nonzero" points="93.93 82.48 93.93 79.22 91.3 79.22 91.3 82.48 89.78 82.48 89.78 74.71 91.3 74.71 91.3 77.88 93.93 77.88 93.93 74.71 95.44 74.71 95.44 82.48"/>
    <path fill="#939598" fill-rule="nonzero" d="M102.67,82.54 C101.626746,82.6292121 100.5956,82.2648494 99.84,81.54 L100.84,80.54 C101.348135,81.0110091 102.028951,81.2500191 102.72,81.2 C103.61,81.2 104.09,80.86 104.09,80.2 C104.101534,79.9567492 104.015088,79.7190246 103.85,79.54 C103.653893,79.3800613 103.412575,79.2856327 103.16,79.27 L102.22,79.14 C101.664817,79.0909934 101.139556,78.866882 100.72,78.5 C100.332037,78.0879916 100.129674,77.5351078 100.16,76.97 C100.16,75.58 101.16,74.61 102.87,74.61 C103.797321,74.5474847 104.708201,74.8777239 105.38,75.52 L104.38,76.52 C103.941452,76.1313545 103.364367,75.9365884 102.78,75.98 C101.98,75.98 101.58,76.43 101.58,76.98 C101.575803,77.1904641 101.659087,77.3932417 101.81,77.54 C102.017253,77.7070361 102.266228,77.8142336 102.53,77.85 L103.45,77.98 C103.9965,78.0090876 104.517526,78.2203145 104.93,78.58 C105.355686,79.0195594 105.573911,79.6196779 105.53,80.23 C105.53,81.73 104.28,82.58 102.65,82.58"/>
    <polygon fill="#939598" fill-rule="nonzero" points="116.07 82.48 116.07 74.71 117.59 74.71 117.59 81.12 121.11 81.12 121.11 82.48"/>
    <rect width="1.52" height="7.77" x="125.63" y="74.71" fill="#939598" fill-rule="nonzero"/>
    <polygon fill="#939598" fill-rule="nonzero" points="137.75 82.48 137.75 77.95 136.27 80.9 135.25 80.9 133.75 77.95 133.75 82.48 132.23 82.48 132.23 74.71 133.73 74.71 135.76 78.91 137.78 74.71 139.27 74.71 139.27 82.48"/>
    <rect width="1.52" height="7.77" x="144.36" y="74.71" fill="#939598" fill-rule="nonzero"/>
    <polygon fill="#939598" fill-rule="nonzero" points="153.94 76.06 153.94 82.48 152.42 82.48 152.42 76.06 150.39 76.06 150.39 74.71 155.97 74.71 155.97 76.06"/>
    <polygon fill="#939598" fill-rule="nonzero" points="160.48 82.48 160.48 74.71 165.6 74.71 165.6 76.06 162 76.06 162 77.88 165.06 77.88 165.06 79.24 162 79.24 162 81.12 165.6 81.12 165.6 82.48"/>
    <path fill="#939598" fill-rule="nonzero" d="M175.22,81.74 C174.659207,82.251035 173.917793,82.5173683 173.16,82.48 L170.36,82.48 L170.36,74.71 L173.16,74.71 C173.918462,74.6680905 174.66158,74.9350359 175.22,75.45 C176.09,76.32 176,77.39 176,78.56 C176,79.73 176.09,80.86 175.22,81.74 M174.16,76.54 C173.880994,76.2036938 173.455534,76.0245524 173.02,76.06 L171.88,76.06 L171.88,81.13 L173,81.13 C173.436998,81.1613269 173.862023,80.9786407 174.14,80.64 C174.42,80.29 174.47,79.74 174.47,78.56 C174.47,77.38 174.42,76.89 174.14,76.56"/>
  </g>
</svg>
