<?xml version="1.0" encoding="utf-8"?>
<!-- Generator: Adobe Illustrator 19.2.1, SVG Export Plug-In . SVG Version: 6.00 Build 0)  -->
<svg version="1.1" xmlns="http://www.w3.org/2000/svg" xmlns:xlink="http://www.w3.org/1999/xlink" x="0px" y="0px"
	 width="242px" height="68px" viewBox="0 0 242 68" style="enable-background:new 0 0 242 68;" xml:space="preserve">
<style type="text/css">
	.st0{fill:#FFFFFF;}
	.st1{fill:#A91F23;}
	.st2{fill:#EC2024;}
	.st3{fill:url(#NABLOGO_SVGID_1_);}
</style>
<g>
	<g>
		<path class="st0" d="M72.9,23.9c2.5-2.5,5-3.4,8.1-3.4c5.9,0,9.3,3.4,9.3,10.2v15.8h-7.1V31.9c0-3.7-1.2-5.6-3.7-5.6
			c-2.2,0-3.4,0.9-5.6,3.1v17.1h-7.1V25.7c-0.3,0-2.2-0.3-2.2-0.3v-4l7.8-0.3C72.6,21.1,72.9,22.9,72.9,23.9 M134.7,26.3
			c-1.9,0-3.7,0.9-5.9,3.4v10.9c0.9,0.3,2.5,0.9,4,0.9c5,0,5.9-4,5.9-7.8C139,28.8,137.8,26.3,134.7,26.3 M129.1,11.4v11.8
			c2.2-1.9,4.3-2.8,7.1-2.8c6.2,0,10.2,4.7,10.2,12.4c0,9-5,14.3-13.7,14.3c-3.1,0-7.1-0.6-10.6-1.6c0,0,0-28.9,0-29.5
			c-0.3,0-2.5-0.3-2.5-0.3v-4L129.1,11.4z M95.9,22c2.8-0.9,6.2-1.6,9.3-1.6c7.1,0,10.9,3.1,10.9,9v12.7c0.6,0,2.5,0.3,2.5,0.3v4
			l-7.8,0.3c0,0-0.3-1.2-0.3-1.9c-2.2,1.9-4.7,2.8-7.5,2.8c-5.6,0-9-3.1-9-8.1c0-5.6,4.3-8.4,12.7-8.4h2.5v-0.9c0-2.8-0.6-4-4.7-4
			c-2.2,0-5,0.6-7.1,1.6h-0.6l-1.2-5.3L95.9,22 M100.8,39.1c0,1.9,1.2,3.1,3.4,3.1c1.9,0,3.1-0.6,5-2.2v-4h-2.5
			C101.5,35.7,100.8,37.5,100.8,39.1"/>
		<g>
			<path class="st1" d="M37.8,6.8L28.5,18l-13-6.2c-0.3,0-0.6-0.3-0.9,0c-0.3,0-0.3,0.3,0,0.9L17.6,27l-13,6.2
				c-0.3,0-0.6,0.3-0.6,0.6s0.3,0.6,0.6,0.6l13,6.5l-3.1,14.3c0,0.3,0,0.6,0,0.9c0,0,0.6,0,0.9,0l13-6.2l9,11.5
				c0.3,0.3,0.6,0.6,0.9,0.3c0.3,0,0.3-0.3,0.6-0.6l3.4-14H57c0.3,0,0.6,0,0.9-0.3c0-0.3,0-0.6-0.3-0.9l-9-11.5L58,22.9
				c0.3-0.3,0.3-0.6,0.3-0.9c0-0.3-0.3-0.3-0.9-0.3h-3.7c-0.3,0-0.6,0-0.6,0.3L39.3,36.6H39c0,0,0,0,0-0.3
				c0.3-0.3,7.8-9.6,11.8-14.3v-0.3c0-0.3,0-0.3-0.3-0.3h-4.7c-0.3,0-0.9,0.3-0.9,0.6c-2.2,2.5-13.4,14.3-13.7,14.3H31
				c0,0,0,0,0-0.3l11.5-14c0.3-0.3,0.3-0.6,0.3-0.9c0,0-3.1-14-3.1-14.3c0-0.3-0.3-0.6-0.6-0.6C38.1,6.5,37.8,6.5,37.8,6.8z"/>
			<path class="st2" d="M13.3,35.3c-3.4,0-6.5-0.6-9.3-1.9c0,0,0.3,0,0.3-0.3l13-6.2l-3.1-14.3c0-0.3,0-0.6,0-0.9c0,0,0.6,0,0.9,0
				l13,6.2l9.3-11.2c0.3-0.3,0.6-0.3,0.6-0.3c0,1.2,0.3,2.2,0.3,3.4C38.7,23.9,27.2,35.3,13.3,35.3z M48.7,22.9
				c0.3-0.3,0.6-0.9,0.9-1.2h-4.3c-0.3,0-0.6,0.3-0.9,0.3c0,0.6,0,1.6,0.6,1.9C45.6,24.8,47.4,24.2,48.7,22.9z M53,21.4
				c-0.3,0-0.6,0-0.6,0.3L52.1,22c0,0.6,0.3,0.9,0.6,1.2c0.9,0.9,2.8,0.3,3.7-0.9c0.3-0.3,0.3-0.6,0.6-0.9h-0.3L53,21.4
				C53,21.7,53,21.4,53,21.4z"/>
			
				<radialGradient id="NABLOGO_SVGID_1_" cx="647.7795" cy="24471.9941" r="371.4691" gradientTransform="matrix(0.1218 0 0 0.1218 -41.0342 -2927.0618)" gradientUnits="userSpaceOnUse">
				<stop  offset="0.4905" style="stop-color:#DE1F26"/>
				<stop  offset="0.7361" style="stop-color:#E84B4F"/>
				<stop  offset="1" style="stop-color:#F27778"/>
			</radialGradient>
			<path class="st3" d="M55.5,22.6c0,0-1.9,0-2.5,0s-0.9,0.3-1.2,0.6c-4.7,5-12.4,13-12.7,13c-0.9,0.9-1.6,0.3-0.6-0.6
				c0.3-0.3,6.5-7.8,10.2-12.4c0-0.3,0.3-0.6,0-0.6c-0.3,0-3.4,0-3.7,0s-0.6,0-0.9,0.3c-4.7,5-12.7,13.4-13,13.4
				c-0.9,0.9-1.6,0.3-0.6-0.6c0.3-0.3,7.1-8.7,10.6-13.4c0.3-0.3,0.3-0.6,0.3-1.2L38.4,8.6c0-0.3-0.3-0.6-0.6,0l-8.4,10.2
				c-0.3,0.3-0.9,0.6-1.2,0.3l-11.8-5.9c-0.3,0-0.6,0-0.6,0.3l2.8,13c0,0.3,0,0.9-0.6,1.2L6.1,33.5c-0.3,0-0.3,0.6,0,0.6L17.9,40
				c0.3,0,0.6,0.6,0.6,1.2L15.4,54c0,0.3,0,0.6,0.6,0.3l12.1-5.6c0.3,0,0.9,0,1.2,0.3l8.1,10.2c0.3,0.3,0.6,0.3,0.6,0l3.1-12.7
				c0-0.3,0.6-0.6,0.9-0.6h13c0.3,0,0.6-0.3,0.3-0.6l-8.1-10.6c-0.3-0.3-0.3-0.9,0-1.2l8.4-10.2C56.1,22.9,55.8,22.6,55.5,22.6z"/>
		</g>
	</g>
	<g>
		<rect x="237" class="st0" width="1" height="68"/>
		<g>
			<g>
				<path class="st0" d="M196.4,22.9v-5.8c0-1.4-0.2-2.1-1.2-2.1c-0.8,0-1.2,0.4-1.8,1.1v6.7h-3.3v-5.8c0-1.4-0.2-2.1-1.2-2.1
					c-0.8,0-1.2,0.4-1.8,1.1v6.7h-3.3V12.8h2.5l0.3,1.1c0.9-1,1.8-1.4,3.2-1.4c1.5,0,2.5,0.5,3,1.5c1-1,1.8-1.5,3.3-1.5
					c2.5,0,3.6,1.5,3.6,4v6.5L196.4,22.9L196.4,22.9z"/>
				<path class="st0" d="M206,23.3c-3.6,0-5.3-2-5.3-5.2c0-3.5,1.9-5.6,5.5-5.6c3.6,0,5.3,2,5.3,5.3C211.5,21.1,209.5,23.3,206,23.3
					z M206,15c-1.4,0-2,1.1-2,2.8c0,2.1,0.6,2.9,2.1,2.9c1.4,0,1.9-1.1,1.9-2.7C208.1,15.9,207.4,15,206,15z"/>
				<path class="st0" d="M218.6,15.7c-0.2-0.1-0.7-0.1-1-0.1c-0.6,0-1.1,0.5-1.8,1.4v6h-3.3V12.8h2.6l0.3,1.5
					c0.9-1.2,1.5-1.8,2.5-1.8c0.5,0,0.8,0,1.1,0.1L218.6,15.7z"/>
				<path class="st0" d="M228.6,18.7h-6.4c0,1.3,0.7,2,2.4,2c1.1,0,2.4-0.1,3.5-0.4l0.3,2.4c-1.3,0.4-2.7,0.6-4.2,0.6
					c-3.6,0-5.3-1.6-5.3-5.3c0-3.5,1.8-5.6,5.2-5.6c3.2,0,4.6,1.7,4.6,4.9C228.7,17.7,228.6,18.2,228.6,18.7z M223.9,14.7
					c-1.2,0-1.7,0.9-1.7,2h3.3C225.5,15.5,225.1,14.7,223.9,14.7z"/>
			</g>
			<g>
				<path class="st0" d="M182.4,55.3v-5.8c0-1.4-0.2-2.1-1.2-2.1c-0.8,0-1.2,0.4-1.8,1.1v6.7h-3.3v-5.8c0-1.4-0.2-2.1-1.2-2.1
					c-0.8,0-1.2,0.4-1.8,1.1v6.7h-3.3V45.1h2.5l0.3,1.1c0.9-1,1.8-1.4,3.2-1.4c1.5,0,2.5,0.5,3,1.5c1-1,1.8-1.5,3.3-1.5
					c2.5,0,3.6,1.5,3.6,4v6.5H182.4z"/>
				<path class="st0" d="M191.9,55.6c-3.6,0-5.3-2-5.3-5.2c0-3.5,1.9-5.6,5.5-5.6c3.6,0,5.3,2,5.3,5.3
					C197.4,53.4,195.5,55.6,191.9,55.6z M192,47.4c-1.4,0-2,1.1-2,2.8c0,2.1,0.6,2.9,2.1,2.9c1.4,0,1.9-1.1,1.9-2.7
					C194,48.3,193.4,47.4,192,47.4z"/>
				<path class="st0" d="M204.9,55.3v-5.8c0-1.4-0.3-2.1-1.3-2.1c-0.8,0-1.3,0.4-1.9,1.1v6.7h-3.3V45.1h2.5l0.3,1.1
					c1-1,1.9-1.4,3.3-1.4c2.5,0,3.7,1.5,3.7,4v6.5H204.9z"/>
				<path class="st0" d="M218.9,51h-6.4c0,1.3,0.7,2,2.4,2c1.1,0,2.4-0.1,3.5-0.4l0.3,2.4c-1.3,0.4-2.7,0.6-4.2,0.6
					c-3.6,0-5.3-1.6-5.3-5.3c0-3.5,1.8-5.6,5.2-5.6c3.2,0,4.6,1.7,4.6,4.9C218.9,50,218.9,50.6,218.9,51z M214.2,47
					c-1.2,0-1.7,0.9-1.7,2h3.3C215.8,47.8,215.4,47,214.2,47z"/>
				<path class="st0" d="M226,55.3c-1.6,3.4-3.3,4.2-5.1,4.2c-0.6,0-1.1-0.1-1.5-0.3l0.1-2.4h1.3c0.7,0,1.1-0.4,1.7-1.5
					c-1.3-2.8-2.6-6.6-3.3-10.2h3.4c0.5,2.4,1.1,4.8,1.8,6.9h0c0.6-2.1,1.2-4.7,1.6-6.9h3.2C228.1,49.6,227.1,53,226,55.3z"/>
			</g>
			<g>
				<path class="st0" d="M194,40.4c-1.7,0-2.9-0.8-2.9-3v-5h-1.4v-2.5h1.3l0.8-3.2h2.5v3.2h2v2.5h-2v3.7c0,1.3,0.3,1.6,1.2,1.6h0.8
					v2.3C195.8,40.3,194.8,40.4,194,40.4z"/>
				<path class="st0" d="M214.9,40.1l-0.2-0.9c-0.8,0.8-1.8,1.2-3.1,1.2c-2,0-3.6-1-3.6-3.2c0-2.5,1.9-3.4,5.5-3.4h0.7v-0.4
					c0-0.9-0.4-1.4-1.8-1.4c-1,0-2.1,0.3-3,0.6l-0.5-2.3c1.1-0.4,2.6-0.7,3.9-0.7c3.2,0,4.7,1.1,4.7,3.7v6.8L214.9,40.1L214.9,40.1z
					 M214.2,35.8h-0.8c-1.6,0-2.2,0.4-2.2,1.3c0,0.6,0.4,1.1,1.2,1.1c0.7,0,1.3-0.4,1.7-0.9L214.2,35.8L214.2,35.8z"/>
				<path class="st0" d="M225.4,40.1v-5.8c0-1.4-0.3-2.1-1.3-2.1c-0.8,0-1.3,0.4-1.9,1.1v6.7h-3.3V29.9h2.5l0.3,1.1
					c1-1,1.9-1.4,3.3-1.4c2.5,0,3.7,1.5,3.7,4v6.5L225.4,40.1L225.4,40.1z"/>
				<path class="st0" d="M203.5,29.6c-1.3,0-2.2,0.5-2.9,1.1v-4.7h-3.3v14.1h3.3v-6.7c0.7-0.7,1.1-1.1,1.9-1.1c1,0,1.3,0.7,1.3,2.1
					v5.8h3.3v-6.5C207.1,31.1,205.9,29.6,203.5,29.6z"/>
			</g>
		</g>
	</g>
</g>
</svg>
