<svg width="311" height="82" viewBox="0 0 311 82" fill="none" xmlns="http://www.w3.org/2000/svg">
<rect width="310.42" height="81.95" fill="black" fill-opacity="0" transform="translate(0.0100014)"/>
<path d="M5.33 25.13L34.08 6.81L38.31 4.11V1.37329e-06L23.9 9.26L8.14 19.34C2.84 22.71 0.670001 26.67 0.0100014 29.88C1.52438 28.0285 3.31948 26.4258 5.33 25.13V25.13Z" fill="white"/>
<path d="M38.31 20.44V16.37L6.91 36.78C2.78 39.78 0.0499988 43.93 0.0499988 49.16C0.0483143 51.4108 0.565258 53.6316 1.56071 55.6503C2.55617 57.669 4.00337 59.4311 5.79 60.8L38.32 81.95V64.19L12.5 48C11.6682 47.4416 10.9868 46.6869 10.5159 45.8027C10.045 44.9184 9.79911 43.9318 9.8 42.93C9.79534 41.9383 10.0391 40.9612 10.5089 40.0878C10.9788 39.2144 11.6599 38.4726 12.49 37.93L38.31 20.44Z" fill="white"/>
<path d="M7.09 28.13C2.22 31.22 0.369999 34.58 0.0899994 38.49C1.96006 36.28 4.14713 34.3592 6.58 32.79L38.31 12.28V8.16L7.09 28.13Z" fill="white"/>
<path d="M293.28 58.75H298.58V29.48L293.28 32.89V58.75Z" fill="white"/>
<path d="M310.43 23.2H281.42V28.31H310.43V23.2Z" fill="white"/>
<path d="M67.73 27.89C69.7084 27.8472 71.6662 28.2985 73.4262 29.203C75.1863 30.1075 76.693 31.4366 77.81 33.07L78.2 33.65L82.61 30.65L82.26 30.08C79.45 25.51 73.89 22.67 67.73 22.67C57.11 22.67 49.39 30.35 49.39 40.93C49.39 51.51 57.1 59.24 67.73 59.24C70.5403 59.3138 73.3255 58.6936 75.839 57.4342C78.3525 56.1749 80.5167 54.3153 82.14 52.02L82.51 51.46L78.21 48.29L77.8 48.9C76.6901 50.5384 75.184 51.8697 73.4217 52.7701C71.6594 53.6705 69.6981 54.1107 67.72 54.05C60.29 54.05 54.91 48.55 54.91 40.97C54.91 33.39 60.3 27.89 67.73 27.89Z" fill="white"/>
<path d="M99.64 23.2L85.15 58.44L85.04 58.72H90.63L94.45 49.24H110.45L114.33 58.75H120.04L105.45 23.2H99.64ZM96.56 44.13L102.45 29.63L108.36 44.13H96.56Z" fill="white"/>
<path d="M160.81 23.2L146.32 58.44L146.21 58.72H151.8L155.65 49.21H171.65L175.45 58.75H181.16L166.56 23.2H160.81ZM157.74 44.13L163.65 29.63L169.56 44.13H157.74Z" fill="white"/>
<path d="M200.45 23.2H186.85V58.75H192.18V45.02H200.45C208.45 45.02 213.22 40.95 213.22 34.12C213.22 27.29 208.45 23.2 200.45 23.2ZM200.33 39.93H192.18V28.31H200.33C205.26 28.31 207.75 30.31 207.75 34.12C207.75 37.93 205.29 39.93 200.36 39.93H200.33Z" fill="white"/>
<path d="M263.95 23.44L258.62 26.86V58.51H283.71V53.4H263.95V23.44Z" fill="white"/>
<path d="M244.31 43.92C244.31 50.06 240.87 53.59 234.86 53.59C228.85 53.59 225.45 50.06 225.45 43.92V23.21L220.15 26.62V44.21C220.15 53.04 225.94 58.74 234.9 58.74C243.86 58.74 249.67 53.04 249.67 44.21V23.21L244.34 26.63L244.31 43.92Z" fill="white"/>
<path d="M130.57 58.75H135.88V29.48L130.57 32.89V58.75Z" fill="white"/>
<path d="M147.73 23.2H118.72V28.31H147.73V23.2Z" fill="white"/>
</svg>
