<?xml version="1.0" encoding="utf-8"?>
<!-- Generator: Adobe Illustrator 19.0.0, SVG Export Plug-In . SVG Version: 6.00 Build 0)  -->
<svg version="1.1" id="Layer_1" xmlns="http://www.w3.org/2000/svg" xmlns:xlink="http://www.w3.org/1999/xlink" x="0px" y="0px"
	 width="271.7px" height="48.4px" viewBox="0 0 271.7 48.4" style="enable-background:new 0 0 271.7 48.4;" xml:space="preserve">
<style type="text/css">
	.st0{fill:#FFFFFF;}
	.st1{fill:#9F9EA7;}
	.st2{fill:#11375C;}
	.st3{fill:#8B9FD1;}
</style>
<polygon class="st0" points="43.4,0.3 30.7,17.9 40.9,32.4 53.6,14 "/>
<polygon class="st1" points="52.4,48 65.1,30.5 54.9,16 42.2,34.4 "/>
<path class="st2" d="M0,0.2L32.5,48h19.9L20.2,0C20.2,0,0,0.3,0,0.2z"/>
<g>
	<path class="st0" d="M101.4,1.5h6.3l6.2,16.3h0.1l6.3-16.3h5.9l-10.3,24.9h-4.4L101.4,1.5z"/>
	<path class="st0" d="M130,1.5h5.5v24.9H130V1.5z"/>
	<path class="st0" d="M146.7,6.3h-7.1V1.5h19.7v4.9h-7.1v20.1h-5.5V6.3z"/>
	<path class="st0" d="M168.4,1.5h4.5l10.8,24.9h-6.2l-2.1-5.3h-9.7l-2.1,5.3h-6.1L168.4,1.5z M170.5,8.7l-3,7.7h6.1L170.5,8.7z"/>
	<path class="st0" d="M199.8,1.5h5.5v19.9h10.2v5.1h-15.7V1.5z"/>
	<path class="st0" d="M219.8,1.5h5.5v24.9h-5.5V1.5z"/>
	<path class="st0" d="M231.9,1.5h16.7v5.1h-11.2v5.1h10.4v5.1h-10.4v9.7h-5.5V1.5z"/>
	<path class="st0" d="M254.2,1.5h16.9v5.1h-11.4v4.6h10.8v5.1h-10.8v5.1h12.1v5.1h-17.6V1.5z"/>
</g>
<g>
	<path class="st0" d="M115.2,33.6c-0.7-1-1.7-1.5-3.1-1.5c-0.4,0-0.8,0.1-1.2,0.2c-0.4,0.1-0.8,0.3-1.1,0.5
		c-0.3,0.2-0.6,0.5-0.8,0.9c-0.2,0.4-0.3,0.8-0.3,1.3c0,0.7,0.2,1.3,0.6,1.7c0.4,0.4,0.9,0.7,1.5,1c0.6,0.3,1.2,0.5,2,0.7
		c0.7,0.2,1.4,0.5,2,0.8c0.6,0.3,1.1,0.8,1.5,1.3c0.4,0.5,0.6,1.3,0.6,2.3c0,0.7-0.2,1.4-0.5,1.9c-0.3,0.6-0.7,1.1-1.2,1.4
		c-0.5,0.4-1.1,0.7-1.7,0.9c-0.6,0.2-1.2,0.3-1.9,0.3c-1,0-1.9-0.2-2.8-0.5c-0.9-0.4-1.6-1-2.2-1.8l1.5-1c0.3,0.6,0.8,1,1.4,1.4
		c0.6,0.3,1.3,0.5,2.2,0.5c0.4,0,0.8-0.1,1.2-0.2c0.4-0.1,0.8-0.3,1.1-0.6c0.3-0.2,0.6-0.5,0.8-0.9c0.2-0.4,0.3-0.8,0.3-1.2
		c0-0.5-0.1-1-0.3-1.4c-0.2-0.4-0.5-0.7-0.9-0.9c-0.4-0.2-0.8-0.4-1.3-0.6c-0.5-0.2-1-0.3-1.5-0.5c-0.5-0.2-1-0.3-1.5-0.6
		c-0.5-0.2-0.9-0.5-1.3-0.8c-0.4-0.3-0.7-0.7-0.9-1.2c-0.2-0.5-0.3-1.1-0.3-1.8c0-0.8,0.1-1.4,0.4-2c0.3-0.6,0.7-1,1.2-1.4
		c0.5-0.4,1-0.6,1.6-0.8c0.6-0.2,1.2-0.3,1.9-0.3c0.9,0,1.7,0.1,2.4,0.4c0.7,0.3,1.4,0.8,2,1.5L115.2,33.6z"/>
	<path class="st0" d="M141.6,44.3c-0.3,0.4-0.6,0.8-1,1.1c-0.4,0.4-0.8,0.7-1.3,0.9c-0.5,0.3-1.1,0.5-1.6,0.6
		c-0.6,0.1-1.2,0.2-1.9,0.2c-1.2,0-2.3-0.2-3.3-0.6c-1-0.4-1.9-1-2.6-1.7c-0.7-0.7-1.3-1.6-1.7-2.6c-0.4-1-0.6-2.1-0.6-3.3
		c0-1.2,0.2-2.3,0.6-3.3c0.4-1,1-1.9,1.7-2.6c0.7-0.7,1.6-1.3,2.6-1.7c1-0.4,2.1-0.6,3.3-0.6c1,0,2,0.2,2.9,0.6s1.8,1,2.5,1.9
		l-1.4,1c-0.2-0.3-0.4-0.5-0.7-0.8c-0.3-0.3-0.6-0.5-1-0.7c-0.4-0.2-0.8-0.3-1.2-0.5c-0.4-0.1-0.8-0.2-1.2-0.2c-1,0-1.9,0.2-2.7,0.6
		c-0.8,0.4-1.5,0.9-2,1.5c-0.6,0.6-1,1.3-1.3,2.2c-0.3,0.8-0.4,1.7-0.4,2.6c0,0.9,0.1,1.8,0.4,2.6c0.3,0.8,0.7,1.5,1.3,2.2
		c0.6,0.6,1.2,1.1,2,1.5c0.8,0.4,1.7,0.6,2.7,0.6c0.4,0,0.8,0,1.2-0.1c0.4-0.1,0.8-0.2,1.2-0.4c0.4-0.2,0.8-0.4,1.1-0.7
		c0.3-0.3,0.7-0.7,1-1.1L141.6,44.3z"/>
	<path class="st0" d="M154.3,46.8h-1.6V31h1.6V46.8z"/>
	<path class="st0" d="M168.7,45.3h8.4v1.5h-10.1V31h9.8v1.5h-8.2v5.4h7.6v1.5h-7.6V45.3z"/>
	<path class="st0" d="M200.2,44.3L200.2,44.3l0-13.4h1.6v15.8h-2l-9.4-13.5h0v13.5h-1.6V31h2L200.2,44.3z"/>
	<path class="st0" d="M227.6,44.3c-0.3,0.4-0.6,0.8-1,1.1c-0.4,0.4-0.8,0.7-1.3,0.9c-0.5,0.3-1.1,0.5-1.6,0.6
		c-0.6,0.1-1.2,0.2-1.9,0.2c-1.2,0-2.3-0.2-3.3-0.6c-1-0.4-1.9-1-2.6-1.7c-0.7-0.7-1.3-1.6-1.7-2.6c-0.4-1-0.6-2.1-0.6-3.3
		c0-1.2,0.2-2.3,0.6-3.3c0.4-1,1-1.9,1.7-2.6c0.7-0.7,1.6-1.3,2.6-1.7c1-0.4,2.1-0.6,3.3-0.6c1,0,2,0.2,2.9,0.6c1,0.4,1.8,1,2.5,1.9
		l-1.4,1c-0.2-0.3-0.4-0.5-0.7-0.8c-0.3-0.3-0.6-0.5-1-0.7s-0.8-0.3-1.2-0.5c-0.4-0.1-0.8-0.2-1.2-0.2c-1,0-1.9,0.2-2.7,0.6
		c-0.8,0.4-1.5,0.9-2,1.5c-0.6,0.6-1,1.3-1.3,2.2c-0.3,0.8-0.4,1.7-0.4,2.6c0,0.9,0.1,1.8,0.4,2.6c0.3,0.8,0.7,1.5,1.3,2.2
		c0.6,0.6,1.2,1.1,2,1.5c0.8,0.4,1.7,0.6,2.7,0.6c0.4,0,0.8,0,1.2-0.1c0.4-0.1,0.8-0.2,1.2-0.4c0.4-0.2,0.8-0.4,1.1-0.7
		c0.3-0.3,0.7-0.7,1-1.1L227.6,44.3z"/>
	<path class="st0" d="M240.3,45.3h8.4v1.5h-10.1V31h9.8v1.5h-8.2v5.4h7.6v1.5h-7.6V45.3z"/>
	<path class="st0" d="M267.9,33.6c-0.7-1-1.7-1.5-3.1-1.5c-0.4,0-0.8,0.1-1.2,0.2c-0.4,0.1-0.8,0.3-1.1,0.5s-0.6,0.5-0.8,0.9
		c-0.2,0.4-0.3,0.8-0.3,1.3c0,0.7,0.2,1.3,0.6,1.7c0.4,0.4,0.9,0.7,1.5,1c0.6,0.3,1.2,0.5,2,0.7c0.7,0.2,1.4,0.5,2,0.8
		c0.6,0.3,1.1,0.8,1.5,1.3c0.4,0.5,0.6,1.3,0.6,2.3c0,0.7-0.2,1.4-0.5,1.9c-0.3,0.6-0.7,1.1-1.2,1.4c-0.5,0.4-1.1,0.7-1.7,0.9
		c-0.6,0.2-1.2,0.3-1.9,0.3c-1,0-1.9-0.2-2.8-0.5c-0.9-0.4-1.6-1-2.2-1.8l1.5-1c0.3,0.6,0.8,1,1.4,1.4c0.6,0.3,1.3,0.5,2.2,0.5
		c0.4,0,0.8-0.1,1.2-0.2c0.4-0.1,0.8-0.3,1.1-0.6c0.3-0.2,0.6-0.5,0.8-0.9c0.2-0.4,0.3-0.8,0.3-1.2c0-0.5-0.1-1-0.3-1.4
		c-0.2-0.4-0.5-0.7-0.9-0.9c-0.4-0.2-0.8-0.4-1.3-0.6c-0.5-0.2-1-0.3-1.5-0.5s-1-0.3-1.5-0.6c-0.5-0.2-0.9-0.5-1.3-0.8
		c-0.4-0.3-0.7-0.7-0.9-1.2c-0.2-0.5-0.3-1.1-0.3-1.8c0-0.8,0.1-1.4,0.4-2c0.3-0.6,0.7-1,1.2-1.4c0.5-0.4,1-0.6,1.6-0.8
		c0.6-0.2,1.2-0.3,1.9-0.3c0.9,0,1.7,0.1,2.4,0.4c0.7,0.3,1.4,0.8,2,1.5L267.9,33.6z"/>
</g>
<path class="st3" d="M96,48.2L63.5,0.3H43.6l32.2,48C75.8,48.4,96,48,96,48.2z"/>
</svg>
