<?xml version="1.0" encoding="utf-8"?>
<!-- Generator: Adobe Illustrator 21.0.2, SVG Export Plug-In . SVG Version: 6.00 Build 0)  -->
<svg version="1.1" id="Layer_1" xmlns="http://www.w3.org/2000/svg" xmlns:xlink="http://www.w3.org/1999/xlink" x="0px" y="0px"
	 viewBox="0 0 194 64" style="enable-background:new 0 0 194 64;" xml:space="preserve">
<style type="text/css">
	.st0{fill:#3b6399;}
	.st1{fill:#608e42;}
	.st2{fill:#f2ba49;}
	.st3{fill:#871b3d;}
	.st4{fill:#231F20;}
</style>
<title>RFM-logo-new</title>
<g>
	<g id="XMLID_22_">
		<rect id="XMLID_34_" x="43.7" y="0.9" class="st0" width="14.6" height="28.4"/>
		<rect id="XMLID_33_" x="44.1" y="44" class="st1" width="14.1" height="14.3"/>
		<rect id="XMLID_32_" x="15.8" y="29.8" class="st2" width="13.5" height="28.6"/>
		<rect id="XMLID_31_" x="0.8" y="0.9" class="st3" width="14.3" height="14.5"/>
		<rect id="XMLID_30_" x="14.5" y="0.9" class="st4" width="1.4" height="57.4"/>
		<rect id="XMLID_29_" x="28.8" y="0.9" class="st4" width="1.4" height="57.4"/>
		
			<rect id="XMLID_28_" x="28.8" y="0.7" transform="matrix(-1.836970e-16 1 -1 -1.836970e-16 58.9424 -0.1048)" class="st4" width="1.4" height="57.4"/>
		
			<rect id="XMLID_27_" x="42.9" y="29" transform="matrix(-1.836970e-16 1 -1 -1.836970e-16 87.2775 -4.445135e-02)" class="st4" width="1.4" height="29.1"/>
		<rect id="XMLID_26_" x="43.1" y="0.9" class="st4" width="1.4" height="28.7"/>
		<rect id="XMLID_25_" x="43.1" y="43.4" class="st4" width="1.4" height="15"/>
		
			<rect id="XMLID_24_" x="7.3" y="36.4" transform="matrix(-1.836970e-16 1 -1 -1.836970e-16 51.6369 35.5961)" class="st4" width="1.4" height="14.4"/>
		
			<rect id="XMLID_23_" x="14.6" y="0.8" transform="matrix(-1.836970e-16 1 -1 -1.836970e-16 30.5468 -1.602065e-03)" class="st4" width="1.4" height="28.9"/>
	</g>
	<g id="XMLID_1_">
		<path id="XMLID_21_" class="st4" d="M68.5,9.9H73c0.4,0,0.7,0,1,0.1c0.3,0,0.6,0.1,0.9,0.2c0.3,0.1,0.5,0.3,0.7,0.5
			c0.2,0.2,0.3,0.6,0.4,1c0.1,0.3,0.1,0.7,0.1,1.2c0,0.5,0.1,1,0.1,1.5c0,0.5,0.1,1,0.2,1.5c0.1,0.5,0.2,0.9,0.4,1.2l0,0.1l1.9,0
			v-0.4l-0.1-0.1c-0.1-0.1-0.2-0.1-0.2-0.3c-0.1-0.1-0.1-0.3-0.2-0.5c-0.1-0.2-0.1-0.6-0.1-1c0-0.4-0.1-0.9-0.1-1.5
			c0-0.4,0-0.8-0.1-1.3c0-0.5-0.1-0.9-0.3-1.3c-0.1-0.4-0.3-0.8-0.6-1.1c-0.2-0.2-0.5-0.4-0.8-0.6c0.8-0.4,1.3-0.9,1.7-1.4
			c0.4-0.6,0.6-1.4,0.6-2.5c0-1.5-0.5-2.6-1.5-3.3c-0.9-0.7-2.3-1-4.1-1h-6.4V17l1.8,0V9.9z M76.4,6.6C76.3,7,76,7.3,75.7,7.5
			c-0.3,0.2-0.7,0.4-1.2,0.5c-0.5,0.1-1,0.2-1.5,0.2h-4.5V2.5H73c0.5,0,1,0,1.4,0.1c0.4,0.1,0.8,0.2,1.2,0.4
			c0.3,0.2,0.6,0.5,0.8,0.8c0.2,0.4,0.3,0.8,0.3,1.4C76.7,5.8,76.6,6.2,76.4,6.6z"/>
		<path id="XMLID_20_" class="st4" d="M81.3,16.1c0.3,0.4,0.8,0.7,1.3,0.9c0.5,0.2,1.2,0.3,2,0.3c0.5,0,1-0.1,1.4-0.2
			c0.4-0.1,0.7-0.3,1-0.5c0.3-0.2,0.6-0.4,0.8-0.6c0.1-0.1,0.2-0.2,0.3-0.3v1.3h1.7V5.3h-1.7v6.4c0,0.6-0.1,1.2-0.2,1.7
			c-0.2,0.5-0.4,0.9-0.7,1.3c-0.3,0.4-0.6,0.6-1,0.8c-0.4,0.2-0.9,0.3-1.4,0.3c-1,0-1.7-0.2-2.1-0.7C82.3,14.6,82,13.9,82,13V5.3
			h-1.7V13c0,0.6,0.1,1.2,0.2,1.7C80.7,15.2,81,15.7,81.3,16.1z"/>
		<path id="XMLID_19_" class="st4" d="M94.1,11.3c0-0.6,0.1-1.2,0.2-1.8c0.1-0.6,0.3-1,0.6-1.4c0.3-0.4,0.6-0.7,1.1-1
			c0.5-0.2,1.1-0.4,1.8-0.3l0.2,0V5h-0.2c-1,0-1.8,0.2-2.4,0.6c-0.5,0.3-0.9,0.8-1.2,1.4V5.3h-1.7v11.7h1.7V11.3z"/>
		<path id="XMLID_18_" class="st4" d="M106.3,9.7c-0.2,0.1-0.5,0.2-0.8,0.2c-0.3,0.1-0.6,0.1-0.9,0.1l-1.8,0.2
			c-2.7,0.4-4.1,1.6-4.1,3.6c0,0.6,0.1,1.1,0.3,1.5c0.2,0.4,0.5,0.8,0.9,1.1c0.4,0.3,0.8,0.5,1.3,0.6c0.5,0.1,1,0.2,1.5,0.2
			c0.9,0,1.7-0.2,2.4-0.5c0.6-0.3,1.2-0.7,1.7-1.2c0,0.1,0,0.1,0,0.2c0,0.2,0.1,0.4,0.2,0.6c0.1,0.2,0.2,0.3,0.4,0.4
			c0.2,0.1,0.4,0.2,0.6,0.2c0.4,0.1,0.8,0.1,1.3,0l0.6-0.2v-1.4l-0.2,0.1c-0.7,0.2-0.9,0.2-1,0.1c-0.1-0.1-0.2-0.2-0.2-0.8V8.7
			c0-0.7-0.1-1.3-0.3-1.7c-0.2-0.5-0.5-0.9-0.9-1.2c-0.4-0.3-0.9-0.5-1.4-0.6c-1.1-0.3-2.4-0.3-3.5,0c-0.6,0.1-1.1,0.4-1.5,0.7
			c-0.4,0.3-0.8,0.7-1.1,1.2c-0.3,0.5-0.4,1.1-0.5,1.8l0,0.2h1.7l0-0.1c0.1-0.5,0.2-0.9,0.3-1.2c0.2-0.3,0.4-0.6,0.7-0.7
			c0.3-0.2,0.6-0.3,0.9-0.4c0.4-0.1,0.8-0.1,1.2-0.1c1,0,1.7,0.2,2.1,0.6c0.4,0.4,0.6,0.9,0.6,1.5c0,0.2,0,0.4-0.1,0.6
			C106.6,9.5,106.5,9.6,106.3,9.7z M101.8,15.7c-0.3-0.1-0.5-0.2-0.7-0.3c-0.2-0.2-0.4-0.3-0.5-0.6c-0.1-0.2-0.2-0.5-0.2-0.8
			c0-0.7,0.3-1.2,0.8-1.6c0.5-0.4,1.3-0.6,2.3-0.7c0.6,0,1.2-0.1,1.7-0.2c0.5-0.1,1-0.2,1.5-0.4v1.5c0,0.5-0.1,1-0.3,1.4
			c-0.2,0.4-0.5,0.7-0.9,1c-0.4,0.3-0.8,0.5-1.3,0.6C103.4,15.9,102.6,15.9,101.8,15.7z"/>
		<rect id="XMLID_17_" x="111.7" y="0.9" class="st4" width="1.7" height="16.2"/>
		<polygon id="XMLID_16_" class="st4" points="68.3,30.5 76.3,30.5 76.3,28.9 68.3,28.9 68.3,23.5 77,23.5 77,21.9 66.5,21.9 
			66.5,38.1 68.3,38.1 		"/>
		<path id="XMLID_15_" class="st4" d="M85.3,37.7c0.3-0.2,0.6-0.4,0.8-0.6c0.1-0.1,0.2-0.2,0.3-0.3v1.3h1.7V26.4h-1.7v6.4
			c0,0.6-0.1,1.2-0.2,1.7c-0.2,0.5-0.4,0.9-0.7,1.3c-0.3,0.4-0.6,0.6-1,0.8c-0.4,0.2-0.9,0.3-1.4,0.3c-1,0-1.7-0.2-2.1-0.7
			c-0.4-0.5-0.6-1.2-0.6-2.1v-7.7h-1.7V34c0,0.6,0.1,1.2,0.2,1.7c0.1,0.5,0.4,1,0.7,1.4c0.3,0.4,0.8,0.7,1.3,0.9
			c0.5,0.2,1.2,0.3,2,0.3c0.5,0,1-0.1,1.4-0.2C84.7,38.1,85,37.9,85.3,37.7z"/>
		<path id="XMLID_14_" class="st4" d="M98.7,30.5v7.6h1.7v-7.6c0-0.5,0-0.9-0.1-1.4c-0.1-0.5-0.2-0.9-0.5-1.3
			c-0.4-0.6-1-1.1-1.6-1.3c-0.6-0.2-1.3-0.4-2-0.4c-0.8,0-1.5,0.2-2.1,0.6c-0.5,0.3-0.9,0.7-1.4,1.1v-1.3h-1.7v11.7h1.7v-6.3
			c0-0.4,0-0.8,0-1.1c0-0.3,0.1-0.7,0.2-1c0.1-0.3,0.2-0.5,0.4-0.8c0.2-0.2,0.4-0.5,0.7-0.7c0.3-0.2,0.6-0.4,0.9-0.5
			c0.3-0.1,0.7-0.2,1.1-0.2c1,0,1.7,0.2,2.1,0.7C98.5,28.8,98.7,29.5,98.7,30.5z"/>
		<path id="XMLID_13_" class="st4" d="M110.1,37.8c0.4-0.2,0.7-0.4,1-0.7c0.2-0.2,0.4-0.4,0.5-0.6v1.6h1.7V21.9h-1.7v5.9
			c-0.4-0.5-0.9-0.9-1.5-1.2c-0.8-0.4-1.6-0.6-2.4-0.6c-0.9,0-1.7,0.2-2.3,0.5c-0.7,0.3-1.2,0.8-1.6,1.4c-0.4,0.6-0.8,1.2-1,2
			c-0.2,0.7-0.3,1.5-0.3,2.3c0,0.8,0.1,1.7,0.3,2.4c0.2,0.8,0.5,1.4,0.9,2c0.4,0.6,1,1,1.7,1.3c0.7,0.3,1.5,0.5,2.4,0.5
			c0.4,0,0.8-0.1,1.2-0.2C109.3,38.2,109.7,38,110.1,37.8z M111.4,34.1c-0.2,0.6-0.4,1.1-0.7,1.5c-0.3,0.4-0.7,0.7-1.2,1
			c-0.5,0.2-1,0.4-1.6,0.4c-0.5,0-1-0.1-1.5-0.3c-0.4-0.2-0.8-0.5-1.2-0.8c-0.3-0.4-0.6-0.8-0.8-1.3c-0.2-0.5-0.3-1.2-0.3-1.9
			c0-0.7,0-1.4,0.2-2c0.1-0.6,0.4-1.1,0.7-1.6c0.3-0.4,0.7-0.8,1.2-1.1c0.5-0.3,1-0.4,1.7-0.4c0.6,0,1.1,0.1,1.5,0.4
			c0.5,0.2,0.8,0.6,1.2,1c0.3,0.4,0.6,0.9,0.7,1.5c0.2,0.6,0.3,1.2,0.3,1.8C111.6,32.9,111.5,33.5,111.4,34.1z"/>
		<path id="XMLID_12_" class="st4" d="M123.3,37.6c0.4-0.3,0.8-0.7,1-1.1c0.2-0.4,0.4-1,0.4-1.5c0-0.8-0.2-1.4-0.6-1.8
			c-0.4-0.4-0.9-0.8-1.4-1c-0.5-0.2-1.2-0.4-1.8-0.6c-0.6-0.1-1.2-0.3-1.7-0.4c-0.5-0.2-1-0.4-1.3-0.6c-0.3-0.2-0.5-0.6-0.5-1
			c0-0.5,0.2-1,0.6-1.3c0.4-0.3,1-0.5,1.8-0.5c0.8,0,1.5,0.2,2,0.5c0.5,0.3,0.8,0.9,0.9,1.7l0,0.1h1.7l0-0.2
			c-0.2-1.3-0.7-2.3-1.5-2.9c-0.8-0.6-1.8-0.9-3.1-0.9c-1.3,0-2.3,0.3-3.1,1c-0.7,0.6-1.1,1.5-1.1,2.5c0,0.8,0.2,1.4,0.6,1.9
			c0.4,0.4,0.9,0.8,1.4,1c0.6,0.2,1.2,0.4,1.8,0.5c0.6,0.1,1.2,0.2,1.7,0.4c0.5,0.1,1,0.4,1.3,0.6c0.3,0.2,0.5,0.6,0.5,1.1
			c0,0.3-0.1,0.5-0.2,0.7c-0.1,0.2-0.3,0.4-0.5,0.6c-0.2,0.2-0.5,0.3-0.8,0.4c-0.3,0.1-0.7,0.2-1.2,0.2c-1,0-1.7-0.2-2.2-0.6
			c-0.5-0.4-0.9-1-1-2l0-0.1h-1.7l0,0.2c0,0.6,0.2,1.1,0.4,1.6c0.2,0.5,0.5,0.9,0.9,1.3c0.4,0.4,0.8,0.7,1.4,0.9
			c0.5,0.2,1.2,0.3,1.9,0.3c0.7,0,1.3-0.1,1.9-0.2C122.3,38.1,122.8,37.8,123.3,37.6z"/>
		<polygon id="XMLID_11_" class="st4" points="74.3,56 69.2,42.3 66.6,42.3 66.6,58.5 68.4,58.5 68.4,45 73.4,58.4 73.4,58.5 
			75,58.5 80,45 80,58.5 81.8,58.5 81.8,42.3 79.3,42.3 		"/>
		<path id="XMLID_10_" class="st4" d="M93.8,57.2c-0.1-0.1-0.2-0.2-0.2-0.8v-6.2c0-0.7-0.1-1.3-0.3-1.7c-0.2-0.5-0.5-0.9-0.9-1.2
			c-0.4-0.3-0.9-0.5-1.4-0.6c-1.1-0.3-2.4-0.3-3.5,0c-0.6,0.1-1.1,0.4-1.5,0.7c-0.4,0.3-0.8,0.7-1.1,1.2c-0.3,0.5-0.4,1.1-0.5,1.8
			l0,0.2H86l0-0.1c0.1-0.5,0.2-0.9,0.3-1.2c0.2-0.3,0.4-0.6,0.7-0.7c0.3-0.2,0.6-0.3,0.9-0.4c0.4-0.1,0.8-0.1,1.2-0.1
			c1,0,1.7,0.2,2.1,0.6c0.4,0.4,0.6,0.9,0.6,1.5c0,0.2,0,0.4-0.1,0.6c0,0.2-0.1,0.3-0.3,0.4c-0.2,0.1-0.5,0.2-0.8,0.2
			c-0.3,0.1-0.6,0.1-0.9,0.1L88,51.7c-2.7,0.4-4.1,1.6-4.1,3.6c0,0.6,0.1,1.1,0.3,1.5c0.2,0.4,0.5,0.8,0.9,1.1
			c0.4,0.3,0.8,0.5,1.3,0.6c0.5,0.1,1,0.2,1.5,0.2c0.9,0,1.7-0.2,2.4-0.5c0.6-0.3,1.2-0.7,1.7-1.2c0,0.1,0,0.1,0,0.2
			c0,0.2,0.1,0.4,0.2,0.6c0.1,0.2,0.2,0.3,0.4,0.4c0.2,0.1,0.4,0.2,0.6,0.2c0.4,0.1,0.8,0.1,1.3,0l0.6-0.2V57l-0.2,0.1
			C94,57.3,93.8,57.2,93.8,57.2z M87,57.1c-0.3-0.1-0.5-0.2-0.7-0.3c-0.2-0.2-0.4-0.3-0.5-0.6c-0.1-0.2-0.2-0.5-0.2-0.8
			c0-0.7,0.3-1.2,0.8-1.6c0.5-0.4,1.3-0.6,2.3-0.7c0.6,0,1.2-0.1,1.7-0.2c0.5-0.1,1-0.2,1.5-0.4v1.5c0,0.5-0.1,1-0.3,1.4
			c-0.2,0.4-0.5,0.7-0.9,1c-0.4,0.3-0.8,0.5-1.3,0.6C88.6,57.3,87.8,57.3,87,57.1z"/>
		<path id="XMLID_9_" class="st4" d="M105.5,48.1c-0.4-0.6-1-1.1-1.6-1.3c-0.6-0.2-1.3-0.4-2-0.4c-0.8,0-1.5,0.2-2.1,0.6
			c-0.5,0.3-0.9,0.7-1.4,1.1v-1.3h-1.7v11.7h1.7v-6.3c0-0.4,0-0.8,0-1.1c0-0.3,0.1-0.7,0.2-1c0.1-0.3,0.2-0.5,0.4-0.8
			c0.2-0.2,0.4-0.5,0.7-0.7c0.3-0.2,0.6-0.4,0.9-0.5c0.3-0.1,0.7-0.2,1.1-0.2c1,0,1.7,0.2,2.1,0.7c0.4,0.5,0.6,1.2,0.6,2.2v7.6h1.7
			v-7.6c0-0.5,0-0.9-0.1-1.4C105.9,49,105.8,48.5,105.5,48.1z"/>
		<path id="XMLID_8_" class="st4" d="M117.9,57.2c-0.1-0.1-0.2-0.2-0.2-0.8v-6.2c0-0.7-0.1-1.3-0.3-1.7c-0.2-0.5-0.5-0.9-0.9-1.2
			c-0.4-0.3-0.9-0.5-1.4-0.6c-1.1-0.3-2.4-0.3-3.5,0c-0.6,0.1-1.1,0.4-1.5,0.7c-0.4,0.3-0.8,0.7-1.1,1.2c-0.3,0.5-0.4,1.1-0.5,1.8
			l0,0.2h1.7l0-0.1c0.1-0.5,0.2-0.9,0.3-1.2c0.2-0.3,0.4-0.6,0.7-0.7c0.3-0.2,0.6-0.3,0.9-0.4c0.4-0.1,0.8-0.1,1.2-0.1
			c1,0,1.7,0.2,2.1,0.6c0.4,0.4,0.6,0.9,0.6,1.5c0,0.2,0,0.4-0.1,0.6c0,0.2-0.1,0.3-0.3,0.4c-0.2,0.1-0.5,0.2-0.8,0.2
			c-0.3,0.1-0.6,0.1-0.9,0.1l-1.8,0.2c-2.7,0.4-4.1,1.6-4.1,3.6c0,0.6,0.1,1.1,0.3,1.5c0.2,0.4,0.5,0.8,0.9,1.1
			c0.4,0.3,0.8,0.5,1.3,0.6c0.5,0.1,1,0.2,1.5,0.2c0.9,0,1.7-0.2,2.4-0.5c0.6-0.3,1.2-0.7,1.7-1.2c0,0.1,0,0.1,0,0.2
			c0,0.2,0.1,0.4,0.2,0.6c0.1,0.2,0.2,0.3,0.4,0.4c0.2,0.1,0.4,0.2,0.6,0.2c0.4,0.1,0.8,0.1,1.3,0l0.6-0.2V57l-0.2,0.1
			C118.2,57.3,118,57.2,117.9,57.2z M111.2,57.1c-0.3-0.1-0.5-0.2-0.7-0.3c-0.2-0.2-0.4-0.3-0.5-0.6c-0.1-0.2-0.2-0.5-0.2-0.8
			c0-0.7,0.3-1.2,0.8-1.6c0.5-0.4,1.3-0.6,2.3-0.7c0.6,0,1.2-0.1,1.7-0.2c0.5-0.1,1-0.2,1.5-0.4v1.5c0,0.5-0.1,1-0.3,1.4
			c-0.2,0.4-0.5,0.7-0.9,1c-0.4,0.3-0.8,0.5-1.3,0.6C112.8,57.3,112,57.3,111.2,57.1z"/>
		<path id="XMLID_7_" class="st4" d="M129.4,48.4c-0.1-0.2-0.3-0.4-0.5-0.6c-0.3-0.3-0.7-0.6-1-0.8c-0.4-0.2-0.8-0.3-1.1-0.5
			c-0.4-0.1-0.8-0.2-1.2-0.2c-0.9,0-1.8,0.2-2.4,0.5c-0.7,0.3-1.2,0.8-1.7,1.3c-0.4,0.6-0.7,1.2-0.9,2c-0.2,0.7-0.3,1.6-0.3,2.4
			c0,0.8,0.1,1.6,0.3,2.3c0.2,0.8,0.5,1.4,1,2c0.4,0.6,1,1,1.6,1.4c0.7,0.3,1.4,0.5,2.3,0.5c0.8,0,1.6-0.2,2.4-0.6
			c0.6-0.3,1.1-0.7,1.5-1.2c0,0.5,0,0.9-0.1,1.4c-0.1,0.6-0.3,1.2-0.5,1.6c-0.3,0.5-0.7,0.9-1.2,1.1c-0.5,0.3-1.2,0.4-2.1,0.4
			c-0.4,0-0.8,0-1.1-0.1c-0.3-0.1-0.7-0.2-1-0.3c-0.3-0.1-0.5-0.3-0.7-0.6c-0.2-0.3-0.4-0.6-0.5-1l0-0.1h-1.7l0,0.2
			c0,0.4,0.1,0.8,0.3,1.2c0.2,0.4,0.5,0.8,0.9,1.1c0.4,0.3,0.9,0.6,1.5,0.8c0.6,0.2,1.4,0.3,2.2,0.3c1.1,0,2-0.2,2.7-0.5
			c0.7-0.3,1.3-0.8,1.7-1.3c0.4-0.5,0.7-1.2,0.9-1.9c0.2-0.7,0.2-1.5,0.2-2.2V46.7h-1.7V48.4z M125.7,57.2c-0.7,0-1.2-0.1-1.7-0.4
			c-0.5-0.3-0.9-0.6-1.2-1.1c-0.3-0.5-0.5-1-0.7-1.6c-0.1-0.6-0.2-1.3-0.2-2c0-0.7,0.1-1.3,0.3-1.8c0.2-0.5,0.5-1,0.8-1.3
			c0.3-0.4,0.7-0.6,1.2-0.8c0.4-0.2,0.9-0.3,1.5-0.3c0.6,0,1.1,0.1,1.6,0.4c0.5,0.2,0.8,0.6,1.2,1c0.3,0.4,0.5,0.9,0.7,1.5
			c0.2,0.6,0.2,1.2,0.2,1.9c0,0.6-0.1,1.2-0.3,1.8c-0.2,0.6-0.4,1.1-0.7,1.5c-0.3,0.4-0.7,0.7-1.2,1
			C126.8,57.1,126.3,57.2,125.7,57.2z"/>
		<path id="XMLID_6_" class="st4" d="M138.5,46.4c-0.8,0-1.6,0.2-2.3,0.5c-0.7,0.3-1.2,0.8-1.7,1.3c-0.5,0.6-0.8,1.2-1.1,2
			c-0.2,0.7-0.4,1.6-0.4,2.4c0,0.9,0.1,1.7,0.3,2.4c0.2,0.7,0.5,1.4,1,2c0.4,0.6,1,1,1.7,1.3c0.7,0.3,1.5,0.5,2.4,0.5
			c0.7,0,1.4-0.1,2-0.3c0.6-0.2,1.1-0.5,1.5-0.8c0.4-0.4,0.8-0.8,1-1.3c0.3-0.5,0.5-1,0.7-1.5l0.1-0.2h-1.8l0,0.1
			c-0.2,0.8-0.6,1.4-1.2,1.8c-0.6,0.4-1.3,0.7-2.1,0.7c-0.6,0-1.1-0.1-1.6-0.3c-0.5-0.2-0.8-0.5-1.1-0.9c-0.3-0.4-0.5-0.8-0.7-1.4
			c-0.1-0.5-0.2-1-0.2-1.5h8.9l0-0.2c0-2.1-0.4-3.7-1.4-4.8C141.5,47,140.2,46.4,138.5,46.4z M138.5,47.9c0.6,0,1.1,0.1,1.5,0.3
			c0.4,0.2,0.8,0.5,1.1,0.8c0.3,0.3,0.5,0.8,0.7,1.2c0.1,0.4,0.2,0.9,0.2,1.4h-7.1c0.1-0.5,0.2-0.9,0.3-1.3c0.2-0.5,0.4-0.9,0.7-1.2
			c0.3-0.3,0.7-0.6,1.1-0.8C137.5,48,138,47.9,138.5,47.9z"/>
		<path id="XMLID_5_" class="st4" d="M161,47.9c-0.3-0.4-0.6-0.8-1.1-1.1c-0.5-0.3-1.1-0.4-1.9-0.4c-0.8,0-1.6,0.2-2.3,0.6
			c-0.6,0.3-1.1,0.8-1.4,1.4c-0.1-0.2-0.2-0.4-0.3-0.6c-0.2-0.3-0.4-0.5-0.7-0.7c-0.3-0.2-0.6-0.4-1-0.5c-0.4-0.1-0.9-0.2-1.4-0.2
			c-0.8,0-1.5,0.2-2.2,0.5c-0.5,0.3-0.9,0.7-1.3,1.1v-1.4h-1.7v11.7h1.7v-6.3c0-0.2,0-0.5,0-0.8c0-0.3,0.1-0.6,0.1-0.8
			c0.1-0.3,0.1-0.5,0.2-0.8c0.1-0.2,0.2-0.5,0.3-0.6c0.3-0.4,0.7-0.7,1.1-0.9c0.4-0.2,0.9-0.3,1.3-0.3c0.9,0,1.5,0.2,1.8,0.6
			c0.3,0.4,0.5,1.1,0.5,1.8v8.1h1.7v-6.3c0-0.2,0-0.5,0-0.8c0-0.3,0.1-0.6,0.1-0.8c0.1-0.3,0.1-0.5,0.2-0.8c0.1-0.2,0.2-0.5,0.3-0.6
			c0.3-0.4,0.7-0.7,1.1-0.9c0.4-0.2,0.9-0.3,1.3-0.3c0.9,0,1.5,0.2,1.8,0.6c0.3,0.4,0.5,1.1,0.5,1.8v8.1h1.7v-7.4
			c0-0.6,0-1.1-0.1-1.7C161.4,48.8,161.3,48.3,161,47.9z"/>
		<path id="XMLID_4_" class="st4" d="M169.2,46.4c-0.8,0-1.6,0.2-2.3,0.5c-0.7,0.3-1.2,0.8-1.7,1.3c-0.5,0.6-0.8,1.2-1.1,2
			c-0.2,0.7-0.4,1.6-0.4,2.4c0,0.9,0.1,1.7,0.3,2.4c0.2,0.7,0.5,1.4,1,2c0.4,0.6,1,1,1.7,1.3c0.7,0.3,1.5,0.5,2.4,0.5
			c0.7,0,1.4-0.1,2-0.3c0.6-0.2,1.1-0.5,1.5-0.8c0.4-0.4,0.8-0.8,1-1.3c0.3-0.5,0.5-1,0.7-1.5l0.1-0.2h-1.8l0,0.1
			c-0.2,0.8-0.6,1.4-1.2,1.8c-0.6,0.4-1.3,0.7-2.1,0.7c-0.6,0-1.1-0.1-1.6-0.3c-0.5-0.2-0.8-0.5-1.1-0.9c-0.3-0.4-0.5-0.8-0.7-1.4
			c-0.1-0.5-0.2-1-0.2-1.5h8.9l0-0.2c0-2.1-0.4-3.7-1.4-4.8C172.1,47,170.8,46.4,169.2,46.4z M169.2,47.9c0.6,0,1.1,0.1,1.5,0.3
			c0.4,0.2,0.8,0.5,1.1,0.8c0.3,0.3,0.5,0.8,0.7,1.2c0.1,0.4,0.2,0.9,0.2,1.4h-7.1c0.1-0.5,0.2-0.9,0.3-1.3c0.2-0.5,0.4-0.9,0.7-1.2
			c0.3-0.3,0.7-0.6,1.1-0.8C168.1,48,168.6,47.9,169.2,47.9z"/>
		<path id="XMLID_3_" class="st4" d="M185.4,48.1c-0.4-0.6-1-1.1-1.6-1.3c-0.6-0.2-1.3-0.4-2-0.4c-0.8,0-1.5,0.2-2.1,0.6
			c-0.5,0.3-0.9,0.7-1.4,1.1v-1.3h-1.7v11.7h1.7v-6.3c0-0.4,0-0.8,0-1.1c0-0.3,0.1-0.7,0.2-1c0.1-0.3,0.2-0.5,0.4-0.8
			c0.2-0.2,0.4-0.5,0.7-0.7c0.3-0.2,0.6-0.4,0.9-0.5c0.3-0.1,0.7-0.2,1.1-0.2c1,0,1.7,0.2,2.1,0.7c0.4,0.5,0.6,1.2,0.6,2.2v7.6h1.7
			v-7.6c0-0.5,0-0.9-0.1-1.4C185.8,49,185.7,48.5,185.4,48.1z"/>
		<path id="XMLID_2_" class="st4" d="M193,57.1c-0.2,0-0.3,0.1-0.5,0.1c-0.4,0.1-0.9,0-1.1,0c-0.1,0-0.2-0.1-0.3-0.2
			c-0.1-0.1-0.1-0.3-0.1-0.4c0-0.2,0-0.4,0-0.7v-7.7h2.1v-1.4H191v-3.2h-1.7v3.2h-1.6v1.4h1.6v8.2c0,0.9,0.2,1.5,0.6,1.9
			c0.4,0.4,0.9,0.5,1.6,0.5c0.3,0,0.6,0,0.9-0.1c0.3-0.1,0.5-0.1,0.6-0.2l0.1,0V57L193,57.1z"/>
	</g>
</g>
</svg>
