<svg id="Layer_1" xmlns="http://www.w3.org/2000/svg" viewBox="0 0 400 50">
  <style>
    .st0{fill:#fff}
  </style>
  <path class="st0" d="M57.1 11C55.4 5.2 51.5 0 40.9 0c-4.4 0-9.2 1.4-12.6 4.4 0 0-2.1 2.1-3.1 3-.1 0-10.4-4.5-10.4-4.5L0 50h69.8L57.1 11z"/>
  <path d="M14.9 2.9L0 50h17.8c2.1-2.7 7.6-7.1 8.1-7.3l4-1.8c3.5-2.5 4.3-1.2 5.8-1.6 2.2-.8 1.5-5.1-.1-5.9-3.1-1.3-4.3.2-8.2-1.8-.8-.4-1.5-.8-2.1-1.5-2.7-1.8-6.4-9.2-1.9-14.2.8-.7-2.7-3.3-7.3-3.1.1-.5 4.8-2.4 7.7-1.2-1.3-1.6-4-1.9-4-1.9 2.7-1 5.9.5 7.6 1.4-.5-1.1-1.9-2.1-4.2-2.7 2.9-.2 5.6 1.2 6.4 2.6-.3-1.2-.9-2.7-4.2-3.5-.1-.1-10.5-4.6-10.5-4.6z" fill="#3c4e53"/>
  <path d="M69.8 50H42.7c.4-2.6 1.5-4.2 2.1-5.1.8-1.3 1.2-2.8 1.2-4.4v-1.7c.1-3.2-.4-6.5-2.1-9-.3-.5-.7-.8-1.2-1.2-1.4-1.1-3.3-1.2-4.4-.9-2.6.5-6.4-.5-8.2-2.5-1.6-2 .4-4.7 1.7-4.5 3 1.8 7.3 3.5 10.8 4 .9.2 1.8.2 2.7.2 4.1 4.2 11 6.7 11.3 6.7-2.8-2.7-8.6-8.8-11.2-11.9-.5-1.8-2.5-5-3.1-5.8l.2-3.5c-1.2-.9-14.2-6-14.2-6 3.4-3 8.1-4.4 12.6-4.4 10.6 0 14.5 5.2 16.2 11l12.7 39z" fill="#aa273e"/>
  <g>
    <path class="st0" d="M194 36.5c1.7 0 2.5.6 2.5 2.4 0 2-1.4 2.2-3.2 2.2H188v-4.7c0 .1 6 .1 6 .1zm-9.2-2.6v15.6h3.2v-6h3.1c1.4 0 3.2 1.7 6.4 6h4.2c-3.6-4.7-5.3-6.5-6.5-6.7 3.9-.1 5-2 5-4.3 0-2.5-1.1-4.6-5.2-4.6h-10.2zm24.1 6.1c2.2 0 2.9.4 3.1 2.4h-6.4c0-1.8.8-2.4 3.3-2.4zm0-2.1c-4 0-6.5 1.4-6.5 6 0 4.7 2.7 6 6.7 6 1.4 0 3.6-.2 4.9-.6l-.6-2.3c-.9.3-2.8.6-4 .6-2.9 0-4-.5-4.1-2.9h9.4V44c.2-5-1.6-6.1-5.8-6.1zm13.2 0c-3.7 0-5.8.9-5.8 3.8 0 2.3 1.8 3.1 4.7 3.2 2.8.2 3.4.6 3.4 1.4 0 1.2-.6 1.4-3.1 1.4-1.5 0-3.5-.2-4.4-.5l-.4 2.2c1.4.4 3.5.5 4.9.5 3.8 0 5.8-.9 5.8-3.8 0-2.3-1.5-3.2-4.8-3.4-2.8-.1-3.2-.4-3.2-1.2 0-1.2.7-1.3 2.8-1.3 1.5 0 3.3.2 4.4.5l.4-2.3c-1.5-.4-3.2-.5-4.7-.5zm13.5 2.1c2.8 0 3.6.5 3.6 3.8 0 3.2-.8 3.8-3.6 3.8s-3.6-.6-3.6-3.8c0-3.2.7-3.8 3.6-3.8zm0 9.9c4.4 0 6.7-1.4 6.7-6s-2.2-6-6.7-6c-4.4 0-6.6 1.3-6.6 6s2.1 6 6.6 6zm18.2-2.8c-1 .1-1.9.4-2.9.4-2.9 0-3.4-.6-3.4-3.2v-6.1h-2.9v6.4c0 4.1 1.7 5.4 5.6 5.4 2.2 0 4.9-.4 6.6-.9V38.3h-2.9c-.1 0-.1 8.8-.1 8.8zm13-9.2c-1.9 0-3.3.6-4.1 1.5v-1.2h-2.9v11.4h2.9v-7.2c0-.4 0-.6.1-.9.3-.6 1.9-.9 3.6-.9.6 0 1.2.1 1.6.1V38c-.3-.1-.8-.1-1.2-.1zm12.1 9.1c-.7.2-2 .4-3.3.4-3 0-4.1-.6-4.1-3.6 0-3.2 1.1-3.6 4.1-3.6 1.2 0 2.5.2 3.3.4l.4-2.4c-1-.3-2.7-.4-4-.4-4.2 0-6.9 1.3-6.9 6s2.7 6 6.9 6c1.4 0 3-.1 4-.6l-.4-2.2zm7.9-7c2.2 0 2.9.4 3.1 2.4h-6.4c.1-1.8.8-2.4 3.3-2.4zm0-2.1c-4 0-6.5 1.4-6.5 6 0 4.7 2.7 6 6.7 6 1.4 0 3.6-.2 4.9-.6l-.6-2.3c-.9.3-2.8.6-4 .6-2.9 0-4-.5-4.1-2.9h9.4V44c.2-5-1.5-6.1-5.8-6.1zm13.3 0c-3.7 0-5.8.9-5.8 3.8 0 2.3 1.8 3.1 4.7 3.2 2.8.2 3.4.6 3.4 1.4 0 1.2-.6 1.4-3.1 1.4-1.5 0-3.5-.2-4.4-.5l-.4 2.2c1.4.4 3.5.5 4.9.5 3.8 0 5.8-.9 5.8-3.8 0-2.3-1.5-3.2-4.8-3.4-2.8-.1-3.2-.4-3.2-1.2 0-1.2.7-1.3 2.8-1.3 1.5 0 3.3.2 4.4.5l.4-2.3c-1.5-.4-3.3-.5-4.7-.5zm14.6-4v15.6h12.6V47h-9.4V33.9h-3.2zm13.5 15.7h2.9V38.2h-2.9v11.4zm1.5-16.2c-1.4 0-1.8.1-1.8 1.4 0 1.3.4 1.5 1.8 1.5 1.3 0 1.7-.2 1.7-1.5 0-1.2-.4-1.4-1.7-1.4zm7.3 7.3c.9-.2 1.9-.4 2.7-.4 2.6 0 3.1.6 3.1 3.1v6.1h2.9v-6.2c0-1.1-.1-1.9-.4-2.5 1.1-.2 2.4-.4 3.1-.4 2.6 0 3.1.6 3.1 3.1v6.1h2.9v-6.5c0-4.1-1.5-5.4-5.5-5.4-1.6 0-3.4.4-5.2.9-.9-.6-2.2-.9-3.7-.9-2.2 0-4.7.4-6.2.9v10.8h2.9l.3-8.7zm20.4 8.9h2.9V38.2h-2.9v11.4zm1.6-16.2c-1.4 0-1.7.1-1.7 1.4 0 1.3.4 1.5 1.7 1.5 1.3 0 1.7-.2 1.7-1.5-.1-1.2-.5-1.4-1.7-1.4zm7.9 7.2h4.9v-2.4h-4.9v-2.9l-2.9.9v2h-2.4v2.4h2.4v5.2c0 3.4 1.5 4.1 4.6 4.1 1.4 0 2.7-.1 3.6-.4l-.4-2.2c-.5.1-1.4.3-2.3.3-2.1 0-2.5-.5-2.5-2l-.1-5zm12.7-.6c2.2 0 2.9.4 3.1 2.4h-6.4c.1-1.8.8-2.4 3.3-2.4zm-.1-2.1c-4 0-6.5 1.4-6.5 6 0 4.7 2.7 6 6.7 6 1.4 0 3.6-.2 4.9-.6L384 47c-.9.3-2.8.6-4 .6-2.9 0-4-.5-4.1-2.9h9.4V44c.2-5-1.5-6.1-5.8-6.1zm14.5 9.7c-3 0-3.7-.6-3.7-3.7 0-2.8.6-3.6 3.6-3.6 1.7 0 3.2.4 3.2 1.1v5.9c-1 .1-2.1.3-3.1.3zm-.7-9.7c-3.9 0-6 1.4-6 6 0 4.7 2.1 6 6.7 6 2 0 4.6-.3 6-.7V33.5h-2.9v5.2c-1.2-.6-2.3-.8-3.8-.8zM94.2 27.3H85c-3.2 6.2-7.6 15.8-10 22.2h6.2c.6-1.5 1.2-3.2 1.8-4.9h12.6c.9 1.9 1.7 3.6 2.3 4.9h6.3c-3.1-5.9-7.3-15.3-10-22.2zm-9.6 12.8c1.3-3.1 2.6-6.1 3.7-8.4h2c.9 2.4 2 5.4 3.3 8.4h-9zm30.9-7.4c-2.7 0-4.6.8-5.8 2.3v-1.8h-5.3v16.3h5.3v-9.1c0-.6 0-1.2.1-1.7.1-.9 2.5-1.4 4.9-1.4 1 0 2 .1 2.4.1v-4.6c-.4-.1-1-.1-1.6-.1zm14.6-6.2v7.1c-1.8-.7-3.2-.9-5-.9-5.1 0-8.4 2-8.4 8.6 0 6.7 3.1 8.6 9.7 8.6 3.1 0 6.8-.4 8.9-1.1V26.5h-5.2zm.2 19c-1.2.3-2.7.4-3.8.4-3.7 0-4.4-.6-4.4-4.7 0-3.5.8-4.5 4.4-4.5 2.2 0 3.8.5 3.8 1.2v7.6zm24.8-4.2c0-7.1-2.7-8.6-8.9-8.6-5.7 0-9.3 1.9-9.3 8.5 0 6.7 4.1 8.6 9.7 8.6 2.2 0 5.5-.4 7.3-.8l-.9-4c-1.4.4-3.9.7-5.6.7-3.6 0-5-.5-5.1-3.1H155c.1-.4.1-.8.1-1.3zm-12.7-2.1c.2-2.2 1.1-2.8 3.8-2.8 2.7 0 3.6.4 3.6 2.8h-7.4zm22.7-6.5c-3.1 0-6.2.4-8.4.7l.7 3.9c1.4-.4 3.6-.6 6.1-.6 4.5 0 5.2.6 5.2 3-2.1-.2-3.7-.4-5.2-.4-4.7 0-7.6.7-7.6 5.3 0 4.2 1.9 5.5 8.4 5.5 3 0 6.8-.4 9.4-1.2v-9.7c0-5-2.8-6.5-8.6-6.5zm3.6 13.1c-1.3.3-2.7.4-3.9.4-2.9 0-3.5-.3-3.5-1.9s.6-1.9 3.6-1.9c1.3 0 2.5.1 3.9.2l-.1 3.2z"/>
  </g>
</svg>
