<?xml version="1.0" encoding="utf-8"?>
<!-- Generator: Adobe Illustrator 17.1.0, SVG Export Plug-In . SVG Version: 6.00 Build 0)  -->
<!DOCTYPE svg PUBLIC "-//W3C//DTD SVG 1.1//EN" "http://www.w3.org/Graphics/SVG/1.1/DTD/svg11.dtd">
<svg version="1.1" id="Layer_1" xmlns="http://www.w3.org/2000/svg" xmlns:xlink="http://www.w3.org/1999/xlink" x="0px" y="0px"
	 width="425.1px" height="69.4px" viewBox="0 0 425.1 69.4" enable-background="new 0 0 425.1 69.4" xml:space="preserve">
<g>
	<path fill="#77777A" d="M134.4,68.3v-6.9c-3.3,4.5-7.9,7.8-15,7.8c-11.2,0-21.9-8.8-21.9-24.8v-0.2c0-16,10.5-24.8,21.9-24.8
		c7.3,0,11.7,3.3,15,7.2V2.8H148v65.5H134.4z M134.6,44.2c0-8-5.3-13.3-11.6-13.3c-6.4,0-11.8,5.2-11.8,13.3v0.2
		c0,8,5.4,13.3,11.8,13.3c6.4,0,11.6-5.3,11.6-13.3V44.2z"/>
	<path fill="#77777A" d="M178.4,69.4c-14.9,0-25.9-11-25.9-24.8v-0.2c0-13.8,11.1-25,26.1-25c14.9,0,25.9,11,25.9,24.8v0.2
		C204.5,58.2,193.4,69.4,178.4,69.4 M191.1,44.4c0-7.1-5.1-13.3-12.7-13.3c-7.8,0-12.5,6-12.5,13.1v0.2c0,7.1,5.1,13.3,12.7,13.3
		c7.8,0,12.5-6,12.5-13.1V44.4z"/>
	<path fill="#77777A" d="M237.3,33.6c-9.1,0-14.6,5.5-14.6,17v17.8H209V20.2h13.6v9.7c2.8-6.6,7.3-10.9,15.3-10.6v14.3H237.3z"/>
	<path fill="#77777A" d="M259.8,69.2c-6.7,0-14.3-2.2-20.6-7.3l5.8-9c5.2,3.8,10.7,5.7,15.2,5.7c3.9,0,5.7-1.4,5.7-3.6V55
		c0-3-4.7-3.9-9.9-5.6c-6.7-2-14.4-5.1-14.4-14.4v-0.2c0-9.8,7.9-15.2,17.6-15.2c6.1,0,12.7,2.1,17.9,5.6l-5.2,9.4
		c-4.8-2.8-9.5-4.5-13-4.5c-3.3,0-5,1.4-5,3.3v0.2c0,2.7,4.6,3.9,9.8,5.7c6.7,2.2,14.5,5.5,14.5,14.3v0.2
		C278.2,64.4,270.2,69.2,259.8,69.2"/>
	<path fill="#77777A" d="M312.5,68.3v-5.2c-3.3,3.7-7.9,6.1-14.5,6.1c-9.1,0-16.5-5.2-16.5-14.7v-0.2c0-10.5,8-15.3,19.4-15.3
		c4.9,0,8.3,0.8,11.8,2v-0.8c0-5.7-3.5-8.8-10.3-8.8c-5.2,0-8.9,1-13.3,2.6l-3.4-10.4c5.3-2.3,10.5-3.8,18.6-3.8
		c14.9,0,21.4,7.7,21.4,20.7v27.9H312.5z M312.8,48.9c-2.3-1.1-5.4-1.8-8.7-1.8c-5.8,0-9.4,2.3-9.4,6.6V54c0,3.7,3.1,5.8,7.4,5.8
		c6.4,0,10.7-3.5,10.7-8.4V48.9z"/>
	<polygon fill="#77777A" points="362.8,68.8 350.6,68.8 325.2,5.5 340.5,5.5 356.9,49.8 373.3,5.5 388.2,5.5 	"/>
	<path fill="#77777A" d="M393.2,5.5h14.3v11.6h-14.3V5.5z M393.5,22.2h13.6v46.1h-13.6V22.2z"/>
	<path fill="#129CDB" d="M52.1,32.8c-0.8,0.1-1.6,0.6-2,1.3l-0.2,0.4L39.4,52.6l6.4,11.1l2,3.4l0.3,0.5c0.2,0.2,0.4,0.3,0.7,0.3
		c0.3,0,0.7-0.2,0.9-0.4c0.1-0.1,0.2-0.2,0.2-0.3l0,0l0.1-0.1l19.8-34.3L52.1,32.8z"/>
	<path fill="#F43545" d="M48.9,67.9c-0.3,0-0.5-0.1-0.7-0.3l-2.3-4l-6.4-11.1l0,0L18.6,16.4H5.7h-4H1.3C1,16.4,0.6,16.7,0.5,17l0,0
		c-0.1,0.1-0.1,0.3-0.1,0.4c0,0.1,0,0.3,0.1,0.4l0,0.1l0,0L28.9,67l0.4,0.7c0.5,0.6,1.1,1,1.9,1.1h0.7h15.3h0.3
		c0.4,0,0.8-0.2,1.2-0.3c0.4-0.2,0.7-0.5,1-0.9C49.5,67.8,49.2,67.9,48.9,67.9"/>
	<path fill="#97D422" d="M11.1,0h-0.7c-1,0.1-1.8,0.7-2.2,1.6l0,0L0.6,14.8l-0.4,0.6C0.1,15.7,0,16,0,16.4c0,0,0,0,0,0
		c0,0.3,0.1,0.7,0.2,1l0.3,0.5c-0.1-0.1-0.1-0.3-0.1-0.4c0-0.1,0-0.3,0.1-0.4l0,0c0.1-0.3,0.5-0.5,0.8-0.6c0,0,38.3,0,38.4,0
		c0.1,0,0.1,0,0.2,0c0.8-0.1,1.5-0.5,2-1.1l0.5-0.8L50.7,0H11.1z"/>
	<path fill="#9AD5E8" d="M71.8,0h-1.2c-0.6,0.1-1.1,0.4-1.5,0.9l-0.6,1l-8.3,14.5l17.1,0h0.6c0.8-0.1,1.5-0.5,2-1.2l0.4-0.6L88.7,0
		H71.8z"/>
	<path fill="#77777A" d="M417.2,5.5v1h-2v5.2h-1.2V6.6h-2v-1H417.2z M423.9,11.8l-0.2-3.7c0-0.5,0-1.1,0-1.7h-0.1
		c-0.2,0.5-0.4,1.3-0.5,1.9l-1.1,3.5h-1.3l-1.1-3.5c-0.1-0.5-0.3-1.2-0.4-1.8H419c0,0.6,0,1.2,0,1.7l-0.2,3.7h-1.2l0.5-6.2h1.9
		l1.1,3c0.2,0.5,0.3,0.9,0.4,1.6h0c0.2-0.5,0.3-1.1,0.4-1.5l1.1-3.1h1.8l0.5,6.2H423.9z"/>
</g>
</svg>
