<?xml version="1.0" encoding="utf-8"?>
<!-- Generator: Adobe Illustrator 22.0.0, SVG Export Plug-In . SVG Version: 6.00 Build 0)  -->
<svg version="1.1" id="Layer_1" xmlns="http://www.w3.org/2000/svg" xmlns:xlink="http://www.w3.org/1999/xlink" x="0px" y="0px"
	 viewBox="0 0 364 140" style="enable-background:new 0 0 364 140;" xml:space="preserve">
<style type="text/css">
	.st0{fill:#0F4C8C;}
	.st1{fill:#FFFFFF;}
	.st2{fill:#6CADDE;}
</style>
<g>
	<g>
		<g>
			<path class="st0" d="M17.2,32.1c43.7,50.7,92.9,21.4,114.2,4.2C119.5,14.7,96.5,0,70,0C46.8,0,26.2,11.3,13.5,28.7
				C14.7,29.5,15.9,30.7,17.2,32.1z"/>
			<path class="st0" d="M16.2,114.8C29,130.2,48.4,140,70,140c38.7,0,70-31.3,70-70c0-11.1-2.6-21.5-7.1-30.8
				C72.1,119.7,35.6,129.8,16.2,114.8z"/>
			<path class="st0" d="M82.3,74.1C45.8,87.1,8.9,77.6,0,72c0.3,9.4,2.3,18.2,5.9,26.3C14,103.5,43.6,122.5,82.3,74.1z"/>
		</g>
		<path class="st1" d="M6,98.3c2.7,6,6.1,11.5,10.2,16.5c19.4,15,55.9,4.9,116.6-75.6c-0.5-1-1-1.9-1.5-2.9
			c-21.4,17.2-70.5,46.5-114.2-4.2c-1.3-1.5-2.5-2.6-3.6-3.4C5,40.3,0,54.5,0,70c0,0.7,0,1.3,0,1.9C8.9,77.5,45.8,87,82.3,74
			C43.6,122.5,14,103.5,6,98.3z"/>
		<path class="st2" d="M135.2,44.4C135.1,44.4,135.1,44.4,135.2,44.4c-2.9,4.7-59.9,98-103.8,83.9l0,0c1.6,1,3.1,2,4.8,2.9
			C50.7,138.6,95.3,150.1,135.2,44.4z"/>
	</g>
	<g>
		<g>
			<path class="st0" d="M223.1,106.7h3v-12H239v-2.5h-12.9v-9.1h13.2v-2.6H223L223.1,106.7L223.1,106.7z M185.6,80.1h-1.3
				c-8.6,0-8.6,5.2-8.6,12.3v1.5c0,1.7,0,3.4,0,5.2c0.4,6.7,3.4,7.8,9.4,7.8c0.7,0,1.6,0,2.4,0c6.7,0,8.8-2.2,8.9-8.7
				c0.1-3.1,0.1-6.2,0.1-9.3C196.5,80.8,192.8,80.1,185.6,80.1z M193.4,97.8c-0.2,6.4-2.4,6.7-8.4,6.7c-5.4,0-6.3-1.3-6.4-6.3V94
				l0.1-4.8c0.1-5.7,1.4-6.4,6-6.4h1c5.7,0,7.7,0,7.7,6.5C193.5,92,193.5,94.9,193.4,97.8z M202,106.7h3v-12h12.9v-2.5H205v-9.1
				h13.2v-2.6H202V106.7z M249.9,91.8c-3.4-0.2-3.9-1.7-3.9-4.6c0-1.3,0.2-2.9,1.4-3.7c1.2-0.7,4-0.8,5.5-0.8h1.4
				c4.1,0,4.9,0.9,5.1,4.8h2.9v-0.4c0-6.7-4-7-9.6-7H252c-5.5,0-9.1,0.8-9.1,7.1c0,8,6.2,7.1,12.7,7.4c3.5,0.2,4.1,1,4.1,4.5
				c0,4.5-1.5,5-5.9,5h-2.5c-4.9,0-5.7-1-5.7-5.8h-2.9c0,0.4-0.1,0.8-0.1,1.3c0,6.6,4,7.1,9.6,7.1c1.7,0,3.4,0,5.1-0.2
				c4.8-0.5,5.4-3.6,5.4-7.6C262.8,90.7,256.6,92.3,249.9,91.8z M342,88c0-5.6-2.3-7.6-7.8-7.6h-12.6v26.3h2.9V96.1h9.1
				c3.4,0,5,1.1,5,4.6v6h3.1V100c0-2.9-1.2-4.8-4.3-5C342,94.1,342,91.5,342,88z M333.2,93.6h-8.7V83h9.7c4.3,0,4.7,1.9,4.7,5.7
				C338.9,92.7,337.2,93.6,333.2,93.6z M305.1,80.1h-1.3c-8.6,0-8.6,5.2-8.6,12.3v1.5c0,1.7,0,3.4,0,5.2c0.4,6.7,3.4,7.8,9.4,7.8
				c0.7,0,1.6,0,2.4,0c6.7,0,8.8-2.2,8.9-8.7c0.1-3.1,0.1-6.2,0.1-9.3C316,80.8,312.3,80.1,305.1,80.1z M313,97.8
				c-0.2,6.4-2.4,6.7-8.4,6.7c-5.4,0-6.3-1.3-6.4-6.3V94l0.1-4.8c0.1-5.7,1.4-6.4,6-6.4h1c5.7,0,7.7,0,7.7,6.5
				C313,92,313,94.9,313,97.8z M364,83v-2.6h-17.1v26.3H364v-2.5h-14.2v-9.7h13.6V92h-13.6v-8.9L364,83L364,83z M286.6,92H271V80.4
				h-2.9v26.3h2.9V94.5h15.6v12.1h3V80.3h-3V92z M224.8,39.6h0.3l7.3,21.7h6.6l7.1-21.7h0.2l-0.6,21.7h7.6V33h-12.4l-5.2,17.8h-0.3
				L229.9,33h-12.1v28.3h7.6L224.8,39.6z M204.5,39.6l-0.6,21.7h7.6V33h-12.4l-5.2,17.8h-0.3L188.1,33H176v28.3h7.6L183,39.6h0.3
				l7.3,21.7h6.6l7.1-21.7H204.5z M278.3,61.4h7.8l-8.7-28.3h-11.7l-8.6,28.3h8l1.4-4.9h10.3L278.3,61.4z M268.1,51l3.5-12.3
				l3.6,12.3H268.1z"/>
		</g>
	</g>
</g>
</svg>
