<?xml version="1.0" encoding="utf-8"?>
<!-- Generator: Adobe Illustrator 19.1.0, SVG Export Plug-In . SVG Version: 6.00 Build 0)  -->
<svg version="1.1" id="Layer_1" xmlns="http://www.w3.org/2000/svg" xmlns:xlink="http://www.w3.org/1999/xlink" x="0px" y="0px"
	 viewBox="-36 339 177 105" style="enable-background:new -36 339 177 105;" xml:space="preserve">
<style type="text/css">
	.st0{fill:#FF6C5B;}
	.st1{fill:#221E1F;}
</style>
<g>
	<rect x="-31.5" y="429.9" class="st0" width="167.8" height="8.3"/>
	<g>
		<g>
			<path class="st1" d="M117.9,408.5c0,5.9-4.7,11.2-12.1,11.2c-6.5,0-10.9-4.3-10.9-11c0-15.6,16.8-14.1,23-24.2V408.5z
				 M87.8,383.4c0-10.6,8-17.2,16.9-17.2c8.9,0,13.6,4.5,13.6,11.8c0,21-32.3,10.7-32.3,31.5c0,8.5,6.9,13.3,14.7,13.3
				c8.8,0,15.1-5.7,17.2-10.5c0.6,7.2,3.5,10.5,9.2,10.5c6.4,0,9-5.6,9.2-8.8h-0.3c-0.3,3.1-2.4,5.1-5.2,5.1c-2.5,0-4.6-1.6-4.6-5.1
				v-29.1c0-12.7-6-20.3-18.8-20.3c-11.4,0-20,8.1-20,18.8L87.8,383.4L87.8,383.4z"/>
		</g>
		<g>
			<path class="st1" d="M0.8,408.4c0,5.9-4.7,11.2-12.1,11.2c-6.5,0-10.9-4.3-10.9-11c0-15.6,16.8-14.1,23-24.2V408.4z M21.7,374.1
				c0,19.3-13.3,29.7-28.1,29.7c-14,0-22.9-8.1-22.9-20.5c0-10.6,8-17.2,16.9-17.2s13.6,4.5,13.6,11.8c0,21-32.3,10.7-32.3,31.5
				c0,8.5,6.9,13.3,14.7,13.3c8.8,0,15.1-5.7,17.3-10.5c0.5,7.2,3.5,10.5,9.2,10.5c6.4,0,9-5.6,9.2-8.8h-0.3
				c-0.3,3.1-2.4,5.1-5.2,5.1c-2.5,0-4.6-1.6-4.6-5.1v-29.2c0-12.7-6-20.3-18.8-20.3c-11.4,0-20,8.1-20,18.8
				c0,12.5,9,20.7,23.1,20.7c14.9,0,28.3-10.5,28.3-29.9c0-16.8-12.2-27.6-28.5-27.6c-19.1,0-24.4,13.2-24.4,13.2h0.2
				c0,0,5.2-12.9,24.2-12.9C9.6,346.7,21.7,357.4,21.7,374.1z M72.3,385.7c0-12.6-5.2-20.8-16-20.8c-9,0-15.1,6.2-17,11.6v-31.7
				H23.8v0.3h6.9v76.1h-6.9v0.3H46v-0.3h-6.8v-39.5c0-7.4,5.3-15.2,13.6-15.2c6.7,0,10.9,4.1,10.9,11.4v32.5c0,7.7,3.3,12.2,9,12.2
				c6.5,0,9.2-5.6,9.4-8.8h-0.3c-0.2,3.1-2.4,5.1-4.8,5.1c-2.5,0-4.7-1.6-4.7-5.1V385.7L72.3,385.7z"/>
		</g>
	</g>
</g>
</svg>
