<svg xmlns="http://www.w3.org/2000/svg" xmlns:xlink="http://www.w3.org/1999/xlink" viewBox="0 0 186 52.667" enable-background="new 0 0 186 52.667"><path fill="#F15D22" d="M59.74 23.568l3.47-4.155c2.4 1.982 4.918 3.24 7.967 3.24 2.402 0 3.85-.953 3.85-2.516v-.077c0-1.486-.915-2.248-5.375-3.392-5.375-1.372-8.843-2.86-8.843-8.158v-.076c0-4.84 3.887-8.043 9.337-8.043 3.89 0 7.206 1.22 9.912 3.394l-3.05 4.42c-2.363-1.637-4.69-2.63-6.938-2.63-2.25 0-3.43 1.03-3.43 2.327v.078c0 1.753 1.143 2.324 5.755 3.506 5.413 1.41 8.463 3.354 8.463 8.006v.075c0 5.3-4.04 8.273-9.797 8.273-4.04 0-8.12-1.41-11.322-4.27"/><path fill="#F15D22" d="M83.333.773h6.33l7.01 11.283L103.69.773h6.328v26.682h-5.833v-17.42l-7.51 11.398h-.152L89.09 10.15v17.305h-5.757zM122.096.582h5.413l11.435 26.874h-6.137l-2.44-5.984h-11.283l-2.44 5.984h-5.985L122.096.582zm6.175 15.704l-3.544-8.652-3.545 8.652h7.09zM139.587.773h12.2c3.39 0 6.02.952 7.773 2.706 1.487 1.486 2.288 3.583 2.288 6.1v.075c0 4.307-2.325 7.013-5.718 8.272l6.518 9.53h-6.86l-5.718-8.54h-4.612v8.54h-5.87V.772zm11.817 12.96c2.858 0 4.498-1.524 4.498-3.774v-.077c0-2.516-1.754-3.812-4.612-3.812h-5.832v7.663h5.946zM171.566 6.185h-8.12V.772h22.11v5.413h-8.12v21.27h-5.87z"/><path fill="#AFB1B4" d="M61.265 32.033h8.215c4.797 0 7.698 2.844 7.698 6.95v.058c0 4.654-3.62 7.068-8.13 7.068h-3.36v6.032h-4.423V32.033zm7.927 10.14c2.212 0 3.505-1.323 3.505-3.045v-.058c0-1.98-1.38-3.044-3.59-3.044h-3.42v6.147h3.505zM82.875 31.89h4.08l8.617 20.25h-4.625l-1.838-4.51h-8.505l-1.838 4.51h-4.51l8.618-20.25zm4.653 11.833l-2.67-6.52-2.672 6.52h5.342zM97.087 32.033h9.19c2.558 0 4.54.718 5.86 2.04 1.12 1.12 1.725 2.7 1.725 4.595v.058c0 3.246-1.753 5.285-4.31 6.232l4.912 7.182h-5.17l-4.31-6.435h-3.475v6.435h-4.424V32.033zm8.904 9.766c2.156 0 3.39-1.15 3.39-2.845v-.057c0-1.896-1.32-2.872-3.475-2.872h-4.395V41.8h4.48zM116.268 32.033h4.422v8.79l8.158-8.79h5.342l-8.184 8.53 8.557 11.577h-5.312l-6.232-8.56-2.328 2.413v6.147h-4.422zM136.722 32.033h4.424V52.14h-4.424zM144.583 32.033h4.08l9.42 12.38v-12.38h4.366V52.14h-3.764l-9.737-12.782V52.14h-4.367zM164.797 42.144v-.06c0-5.715 4.452-10.397 10.543-10.397 3.62 0 5.8.977 7.9 2.758l-2.788 3.36c-1.55-1.292-2.93-2.04-5.256-2.04-3.22 0-5.774 2.846-5.774 6.263v.057c0 3.677 2.526 6.377 6.09 6.377 1.606 0 3.044-.4 4.164-1.206v-2.873h-4.45v-3.82h8.73v8.733c-2.068 1.75-4.912 3.187-8.588 3.187-6.262 0-10.57-4.393-10.57-10.34"/><path fill="#F15D22" d="M51.8 47.285c0 2.685-2.176 4.86-4.86 4.86H4.96c-2.686 0-4.862-2.175-4.862-4.86V5.305c0-2.684 2.176-4.86 4.86-4.86h41.98c2.686 0 4.862 2.176 4.862 4.86v41.98z"/><path fill="#fff" d="M12.576 9.107h14.81c8.645 0 13.874 5.126 13.874 12.53v.104c0 8.387-6.523 12.737-14.653 12.737H20.55V45.35h-7.974V9.108zm14.29 18.278c3.988 0 6.317-2.383 6.317-5.49v-.103c0-3.57-2.484-5.488-6.472-5.488h-6.16v11.08h6.316zM17.325 12.47H33.92v17.84H17.326z"/><path fill="#AFB1B4" d="M34.678 21.877c0 4.62-3.744 8.364-8.363 8.364-4.62 0-8.364-3.744-8.364-8.363 0-4.62 3.745-8.363 8.365-8.363s8.363 3.743 8.363 8.363"/><defs><path id="a" d="M21.266 21.876c0 2.788 2.26 5.05 5.05 5.05 2.787 0 5.05-2.262 5.05-5.05s-2.263-5.05-5.05-5.05c-2.79 0-5.05 2.262-5.05 5.05"/></defs><clipPath id="b"><use xlink:href="#a" overflow="visible"/></clipPath><linearGradient id="c" gradientUnits="userSpaceOnUse" x1="-195.501" y1="541.222" x2="-194.501" y2="541.222" gradientTransform="matrix(8.273 5.793 5.793 -8.273 -1495.643 5629.005)"><stop offset="0" stop-color="#FCCBAD"/><stop offset=".06" stop-color="#FABB99"/><stop offset=".188" stop-color="#F89F75"/><stop offset=".324" stop-color="#F58757"/><stop offset=".466" stop-color="#F3743F"/><stop offset=".617" stop-color="#F2672F"/><stop offset=".785" stop-color="#F15F25"/><stop offset="1" stop-color="#F15D22"/></linearGradient><path clip-path="url(#b)" fill="url(#c)" d="M24.588 12.082l11.52 8.068-8.066 11.52-11.52-8.067z"/><path fill="#FDDBC5" d="M25.69 20.054c0 .71-.576 1.29-1.29 1.29-.71 0-1.29-.58-1.29-1.29 0-.714.58-1.29 1.29-1.29.714 0 1.29.576 1.29 1.29"/></svg>