<svg id="366ca8b1-cb6f-4540-8c79-71a1f83dc828" data-name="Layer 1" xmlns="http://www.w3.org/2000/svg" viewBox="0 0 473.59 116.84"><defs><style>.\34 9c982f4-1361-4108-bcc5-3cb232acea91{fill:#fff}</style></defs><title>logo</title><path class="49c982f4-1361-4108-bcc5-3cb232acea91" d="M526.7 341.79h-25.58v114.68h23c25.09 0 30.33-9.23 30.33-38.61v-34.14c.03-33.36-2.03-41.93-27.75-41.93zm11.9 75.44c0 19.69-2.22 25.87-14 25.87H517v-88h6.35c13.51 0 15.25 5.72 15.25 22.71zm27.16-75.44H609v13.34h-27.36V391h25.72v13.34h-25.72v38.76H609v13.37h-43.2zm98.14 19.86v11.43H649v-7.94c0-7.3-2.54-11.9-9.21-11.9-8.26 0-9.84 5.87-9.84 19.68v56.23c0 13.5 4.28 15.88 9.35 15.88 5.89 0 9.7-4.14 9.7-13.65v-7.95h14.9v12.7c0 12.07-4.93 21.27-23.34 21.27-20 0-26.52-10.62-26.52-28.42V371c0-16 5.24-30.19 26.83-30.19 15.72.02 23.03 7.96 23.03 20.83zm62.57-19.86h24.61v114.68h-14.93V353.23h-.32l-16.2 103.24h-15.87L686 353.23h-.32v103.24h-14V341.79h25.25l14.61 87.35h.31zm35.88 0h15.89v114.68h-15.89zm69.72 101.31v13.37h-42.56V341.79h15.88V443.1zM404.57 421.93h35.29v-46.16h-46.18V411a10.9 10.9 0 0 0 10.89 10.93z" transform="translate(-358.48 -340.55)"/><path class="49c982f4-1361-4108-bcc5-3cb232acea91" d="M442.09 340.55h-83.61v116.59h116.57v-83.61a33 33 0 0 0-32.96-32.98zm7.77 91.39h-45.29A20.91 20.91 0 0 1 383.68 411v-45.24h66.19z" transform="translate(-358.48 -340.55)"/></svg>