<svg id="Layer_1" data-name="Layer 1" xmlns="http://www.w3.org/2000/svg" viewBox="0 0 202 24"><defs><style>.cls-1{fill:#005379;}.cls-2{fill:#fff;}</style></defs><title>Artboard 1</title><path class="cls-1" d="M108.69,9.91c-4.49-1-5.22-1.64-5.22-2.89V7c0-1.22,1.39-2.07,3.38-2.07A10.8,10.8,0,0,1,112.92,7a.41.41,0,0,0,.55-.09l2.19-2.78a.4.4,0,0,0,.08-.31.42.42,0,0,0-.16-.28A14.3,14.3,0,0,0,106.91.82c-4.91,0-8.34,2.66-8.34,6.48v.06c0,4.09,3,5.53,8.06,6.65,4.57.95,4.92,1.76,4.92,2.8v.06c0,1.33-1.49,2.22-3.71,2.22a11,11,0,0,1-7.09-2.63.41.41,0,0,0-.55,0l-2.46,2.63a.41.41,0,0,0-.11.31.41.41,0,0,0,.15.29,15.7,15.7,0,0,0,10,3.44c5.29,0,8.71-2.61,8.71-6.65v-.06c0-4.24-3.73-5.64-7.76-6.52"/><path class="cls-1" d="M80.82,14.75C84.19,13.68,86,11.37,86,8.19V8.13A6.38,6.38,0,0,0,84,3.31a10.39,10.39,0,0,0-7-2.19H66.64a.41.41,0,0,0-.41.41V9.36c4.9,0,4.9-4.07,4.9-4.07h5.53c1.65,0,4.41.4,4.41,3.06V8.4c0,1.9-1.68,3.09-4.37,3.09H71.13c-4.9,0-4.9,4.07-4.9,4.07v6.88a.41.41,0,0,0,.41.41h4.08a.41.41,0,0,0,.41-.41V15.56h4.51l5.59,7.13a.41.41,0,0,0,.32.16H86.4a.41.41,0,0,0,.32-.66Z"/><path class="cls-1" d="M11,1.12H1.41A.41.41,0,0,0,1,1.53V9.36c4.9,0,4.9-4.07,4.9-4.07h4.58c1.65,0,4.36.67,4.36,3.06V8.4c0,1.9-1.91,3.09-4.6,3.09H5.9C1,11.49,1,15.56,1,15.56v6.88a.41.41,0,0,0,.41.41H5.49a.41.41,0,0,0,.41-.41V15.56h4.51a12.12,12.12,0,0,0,5.75-1.39,6.71,6.71,0,0,0,3.66-6V8.13a6.42,6.42,0,0,0-2.24-4.76A10.43,10.43,0,0,0,11,1.12"/><path class="cls-2" d="M133.94,5.28V1.53a.41.41,0,0,0-.41-.41h-4.08a.41.41,0,0,0-.41.41V9.36c4.9,0,4.9-4.07,4.9-4.07"/><path class="cls-2" d="M52.48,9.36V1.53a.41.41,0,0,0-.41-.41H48a.41.41,0,0,0-.41.41V5.28s0,4.07,4.9,4.07"/><path class="cls-1" d="M47.58,13.57C47.58,17,45.65,19,42.14,19s-5.47-2-5.47-5.54V1.53a.41.41,0,0,0-.41-.41H32.18a.41.41,0,0,0-.41.41v12c0,6.11,3.76,9.61,10.3,9.61,6.06,0,9.74-3,10.31-8.3-.24-1.16-1.18-3.39-4.81-3.39Z"/><path class="cls-1" d="M149.75,13.39V1.53a.41.41,0,0,0-.41-.41h-4.08a.41.41,0,0,0-.41.41v12c0,3.47-1.93,5.39-5.43,5.39s-5.47-2-5.47-5.54V11.49c-3.69,0-4.6,2.31-4.83,3.45.53,5.26,4.19,8.25,10.23,8.25,6.61,0,10.4-3.57,10.4-9.79"/><path class="cls-1" d="M168.63,22.44V15.56s0-4.07-4.9-4.07v11a.41.41,0,0,0,.41.41h4.08a.41.41,0,0,0,.41-.41"/><path class="cls-2" d="M168.63,9.36V1.53a.41.41,0,0,0-.41-.41h-4.08a.41.41,0,0,0-.41.41V5.28s0,4.07,4.9,4.07"/><path class="cls-2" d="M188.71,15.56h0v6.88a.41.41,0,0,0,.41.41h4.08a.41.41,0,0,0,.41-.41v-11c-4.9,0-4.9,4.07-4.9,4.07"/><path class="cls-1" d="M201,4.87V1.53a.41.41,0,0,0-.41-.41H181.73a.41.41,0,0,0-.41.41V4.87a.41.41,0,0,0,.41.41h7V9.36c4.9,0,4.9-4.08,4.9-4.08h7a.41.41,0,0,0,.41-.41"/></svg>