<?xml version="1.0" encoding="utf-8"?>
<!-- Generator: Adobe Illustrator 22.0.1, SVG Export Plug-In . SVG Version: 6.00 Build 0)  -->
<svg version="1.1" id="Ebene_1" xmlns="http://www.w3.org/2000/svg" xmlns:xlink="http://www.w3.org/1999/xlink" x="0px" y="0px"
	 viewBox="0 0 537.9 219.4" style="enable-background:new 0 0 537.9 219.4;" xml:space="preserve">
<style type="text/css">
	.st0{fill:#70B782;}
	.st1{fill:#7B7B7A;}
	.st2{opacity:0.6;fill:#FFFFFF;}
	.st3{fill:#FFFFFF;}
	.st4{opacity:0.8;fill:#FFFFFF;}
</style>
<rect x="48.4" y="89" class="st0" width="12.5" height="54.1"/>
<path class="st0" d="M104.3,114.7c0-5.7-0.7-9.7-2.1-12.3c-1.4-2.5-4.1-3.8-7.9-3.8c-1.4,0-2.9,0.1-4.6,0.3
	c-1.7,0.2-2.9,0.4-3.7,0.5v43.6H73.5V90.8c2.4-0.7,5.6-1.3,9.5-2c3.9-0.6,8-0.9,12.4-0.9c3.7,0,6.8,0.5,9.2,1.4
	c2.4,1,4.4,2.2,5.9,3.8c0.8-0.6,1.7-1.1,2.9-1.8c1.2-0.6,2.5-1.2,3.9-1.7c1.4-0.5,3-0.9,4.6-1.3c1.6-0.3,3.3-0.5,4.9-0.5
	c4.2,0,7.7,0.6,10.4,1.8c2.7,1.2,4.9,2.9,6.4,5.1c1.6,2.2,2.6,4.8,3.2,7.9c0.6,3.1,0.9,6.4,0.9,10.1v30.4h-12.5v-28.4
	c0-5.7-0.7-9.7-2.1-12.3c-1.4-2.5-4-3.8-8-3.8c-2,0-3.9,0.3-5.7,1c-1.8,0.7-3.1,1.3-4,1.9c0.6,1.7,0.9,3.6,1.1,5.5
	c0.2,1.9,0.3,4,0.3,6.2v29.9h-12.5V114.7z"/>
<path class="st0" d="M190.9,114.7c0-5.7-0.7-9.7-2.1-12.3c-1.4-2.5-4.1-3.8-7.9-3.8c-1.4,0-2.9,0.1-4.6,0.3
	c-1.7,0.2-2.9,0.4-3.7,0.5v43.6h-12.5V90.8c2.4-0.7,5.6-1.3,9.5-2c3.9-0.6,8-0.9,12.4-0.9c3.7,0,6.8,0.5,9.2,1.4
	c2.4,1,4.4,2.2,5.9,3.8c0.8-0.6,1.7-1.1,2.9-1.8c1.2-0.6,2.5-1.2,3.9-1.7c1.4-0.5,3-0.9,4.6-1.3c1.6-0.3,3.3-0.5,4.9-0.5
	c4.2,0,7.7,0.6,10.4,1.8c2.7,1.2,4.9,2.9,6.4,5.1c1.6,2.2,2.6,4.8,3.2,7.9c0.6,3.1,0.9,6.4,0.9,10.1v30.4h-12.5v-28.4
	c0-5.7-0.7-9.7-2.1-12.3c-1.4-2.5-4-3.8-8-3.8c-2,0-3.9,0.3-5.7,1c-1.8,0.7-3.1,1.3-4,1.9c0.6,1.7,0.9,3.6,1.1,5.5
	c0.2,1.9,0.3,4,0.3,6.2v29.9h-12.5V114.7z"/>
<path class="st1" d="M291.7,141.5c-2.4,0.6-5.6,1.3-9.4,1.9c-3.9,0.7-8.1,1-12.7,1c-4.3,0-8-0.6-10.9-1.9c-2.9-1.2-5.3-3-7-5.2
	c-1.8-2.2-3-4.8-3.8-7.9c-0.8-3.1-1.1-6.4-1.1-10.1V89h12.5v28.3c0,5.8,0.8,9.9,2.5,12.4c1.7,2.5,4.6,3.7,8.8,3.7
	c1.5,0,3.1-0.1,4.8-0.2c1.7-0.1,2.9-0.3,3.8-0.5V89h12.5V141.5z"/>
<path class="st1" d="M304.2,74.8l12.5-2.1V89H336v10.4h-19.2v22c0,4.3,0.7,7.4,2.1,9.3c1.4,1.9,3.7,2.8,7,2.8c2.3,0,4.3-0.2,6-0.7
	c1.8-0.5,3.2-0.9,4.2-1.3l2.1,9.9c-1.4,0.6-3.3,1.3-5.7,1.9c-2.3,0.7-5.1,1-8.3,1c-3.9,0-7.1-0.5-9.7-1.6c-2.6-1-4.6-2.5-6.2-4.5
	c-1.5-2-2.6-4.3-3.2-7.1c-0.6-2.8-0.9-6-0.9-9.6V74.8z"/>
<path class="st1" d="M345.6,116.3c0-4.8,0.7-8.9,2.1-12.5c1.4-3.6,3.3-6.6,5.6-8.9c2.3-2.4,5-4.2,8.1-5.4c3-1.2,6.1-1.8,9.3-1.8
	c7.4,0,13.3,2.3,17.4,6.9c4.2,4.6,6.3,11.5,6.3,20.7c0,0.7,0,1.5-0.1,2.3c0,0.9-0.1,1.6-0.2,2.3h-35.7c0.3,4.3,1.9,7.7,4.6,10.1
	c2.7,2.4,6.7,3.6,11.8,3.6c3,0,5.8-0.3,8.3-0.8c2.5-0.6,4.5-1.1,5.9-1.8l1.7,10.2c-0.7,0.3-1.6,0.7-2.8,1.1c-1.2,0.4-2.6,0.7-4.1,1
	c-1.6,0.3-3.2,0.6-5,0.8c-1.8,0.2-3.6,0.3-5.5,0.3c-4.8,0-8.9-0.7-12.4-2.1c-3.5-1.4-6.4-3.4-8.7-5.9c-2.3-2.5-4-5.5-5.1-8.9
	C346.2,124.2,345.6,120.4,345.6,116.3z M381.9,110.8c0-1.7-0.2-3.4-0.7-4.9c-0.5-1.6-1.2-2.9-2.1-4c-0.9-1.1-2.1-2-3.4-2.7
	c-1.3-0.7-2.9-1-4.8-1c-1.9,0-3.6,0.4-5.1,1.1c-1.4,0.7-2.7,1.7-3.7,2.8c-1,1.2-1.8,2.5-2.3,4c-0.6,1.5-0.9,3.1-1.1,4.7H381.9z"/>
<path class="st1" d="M452.3,116.1c0,4.1-0.5,7.9-1.6,11.4c-1.1,3.4-2.6,6.4-4.6,8.9c-2,2.5-4.5,4.4-7.5,5.8s-6.4,2.1-10.2,2.1
	c-2.6,0-4.9-0.3-7-0.9c-2.1-0.6-3.9-1.3-5.3-2.1v37h-12.5V90.8c2.5-0.7,5.7-1.3,9.4-2c3.7-0.6,7.7-0.9,11.8-0.9
	c4.3,0,8.1,0.7,11.5,2c3.4,1.3,6.3,3.2,8.6,5.6c2.4,2.4,4.2,5.4,5.5,8.9C451.6,107.9,452.3,111.8,452.3,116.1z M439.4,116.3
	c0-5.6-1.3-9.9-3.8-13c-2.5-3.1-6.6-4.7-12.2-4.7c-1.2,0-2.4,0.1-3.7,0.2c-1.3,0.1-2.5,0.3-3.8,0.7v30.9c1.1,0.8,2.6,1.5,4.4,2.1
	c1.8,0.7,3.8,1,5.8,1c4.6,0,7.9-1.6,10-4.7C438.4,125.8,439.4,121.6,439.4,116.3z"/>
<path class="st1" d="M60.9,72.8c0,1.9-0.6,3.4-1.8,4.5c-1.2,1.1-2.7,1.7-4.3,1.7c-1.7,0-3.2-0.6-4.4-1.7c-1.2-1.1-1.8-2.6-1.8-4.5
	c0-1.9,0.6-3.5,1.8-4.6c1.2-1.1,2.7-1.7,4.4-1.7c1.7,0,3.1,0.6,4.3,1.7C60.2,69.3,60.9,70.8,60.9,72.8z"/>
<g>
	<path class="st1" d="M58.4,176.8v1.4h-9.9v-16.4h1.7v15H58.4z"/>
	<path class="st1" d="M77.1,178.2c-0.3-0.8-0.6-1.6-0.9-2.3c-0.3-0.7-0.5-1.5-0.8-2.2h-8.5c-0.3,0.7-0.6,1.4-0.9,2.2
		c-0.3,0.7-0.6,1.5-0.9,2.3h-1.8c0.7-1.7,1.3-3.3,1.9-4.8c0.6-1.5,1.2-2.9,1.7-4.2c0.6-1.3,1.1-2.6,1.7-3.8c0.6-1.2,1.1-2.4,1.8-3.6
		h1.5c0.6,1.2,1.2,2.4,1.7,3.6c0.6,1.2,1.1,2.5,1.7,3.8c0.6,1.3,1.1,2.7,1.7,4.2c0.6,1.5,1.2,3.1,1.9,4.8H77.1z M71.1,163.6
		c-0.6,1.4-1.2,2.7-1.8,4.1c-0.6,1.4-1.2,2.9-1.9,4.5h7.4c-0.6-1.6-1.3-3.1-1.9-4.5C72.3,166.4,71.7,165,71.1,163.6z"/>
	<path class="st1" d="M95.6,170.4h1.7v7.3c-0.3,0.1-0.9,0.3-1.9,0.5c-0.9,0.2-2.1,0.3-3.4,0.3c-1.1,0-2.2-0.2-3.2-0.6
		s-1.8-0.9-2.5-1.6c-0.7-0.7-1.3-1.6-1.7-2.7c-0.4-1.1-0.6-2.3-0.6-3.7c0-1.4,0.2-2.6,0.7-3.7c0.4-1.1,1-2,1.8-2.7
		c0.7-0.7,1.6-1.3,2.6-1.6c1-0.4,2-0.6,3.2-0.6c1.3,0,2.4,0.1,3.2,0.4c0.8,0.3,1.4,0.5,1.8,0.7l-0.6,1.4c-0.5-0.3-1.1-0.6-1.9-0.8
		c-0.8-0.2-1.7-0.3-2.6-0.3c-0.9,0-1.7,0.1-2.5,0.4c-0.8,0.3-1.4,0.7-2,1.3c-0.6,0.6-1,1.3-1.3,2.2c-0.3,0.9-0.5,1.9-0.5,3.1
		c0,1.1,0.1,2.1,0.4,2.9c0.3,0.9,0.7,1.6,1.2,2.2c0.5,0.6,1.2,1.1,2,1.4s1.7,0.5,2.8,0.5c0.9,0,1.6,0,2.1-0.1c0.6-0.1,1-0.2,1.2-0.2
		V170.4z"/>
	<path class="st1" d="M103.3,170.6h5.7v1.5h-5.7V170.6z"/>
	<path class="st1" d="M117.6,177.1c1.6,0,2.7-0.3,3.4-0.9c0.7-0.6,1-1.5,1-2.5c0-0.7-0.1-1.3-0.4-1.7c-0.3-0.5-0.7-0.8-1.1-1.1
		s-1-0.5-1.7-0.6s-1.3-0.2-2-0.2h-0.3v-1.3h0.6c0.5,0,0.9,0,1.4-0.1s0.9-0.2,1.3-0.5c0.4-0.2,0.7-0.5,1-0.9c0.3-0.4,0.4-0.9,0.4-1.5
		c0-0.5-0.1-1-0.3-1.3c-0.2-0.4-0.4-0.7-0.7-0.9c-0.3-0.2-0.7-0.4-1.1-0.5c-0.4-0.1-0.8-0.2-1.3-0.2c-0.9,0-1.6,0.1-2.1,0.4
		c-0.5,0.2-0.9,0.5-1.2,0.7l-0.7-1.2c0.2-0.1,0.4-0.2,0.6-0.4c0.3-0.1,0.6-0.3,0.9-0.4s0.7-0.2,1.2-0.3c0.4-0.1,0.9-0.1,1.4-0.1
		c0.9,0,1.6,0.1,2.2,0.3c0.6,0.2,1.2,0.5,1.6,0.9c0.4,0.4,0.7,0.8,0.9,1.3c0.2,0.5,0.3,1.1,0.3,1.7c0,1-0.3,1.7-0.8,2.3
		s-1.2,1-2.1,1.3c0.5,0.1,0.9,0.3,1.4,0.5c0.4,0.2,0.8,0.5,1.2,0.9c0.4,0.4,0.6,0.8,0.9,1.3s0.3,1.1,0.3,1.8c0,0.7-0.1,1.3-0.4,1.9
		c-0.3,0.6-0.6,1.1-1.2,1.5s-1.2,0.8-1.9,1c-0.8,0.2-1.7,0.4-2.8,0.4c-0.6,0-1.1,0-1.5-0.1s-0.9-0.2-1.2-0.2
		c-0.4-0.1-0.6-0.2-0.9-0.3c-0.2-0.1-0.4-0.2-0.5-0.2l0.4-1.4c0.1,0.1,0.3,0.1,0.5,0.2c0.2,0.1,0.5,0.2,0.8,0.3
		c0.3,0.1,0.7,0.2,1.1,0.2C116.6,177.1,117.1,177.1,117.6,177.1z"/>
	<path class="st1" d="M140.9,161.8h1.7v16.4h-1.7V161.8z"/>
	<path class="st1" d="M158.5,175.8c-0.2-0.4-0.4-0.9-0.7-1.6c-0.3-0.6-0.7-1.4-1-2.1s-0.8-1.6-1.2-2.4c-0.4-0.8-0.8-1.6-1.2-2.3
		c-0.4-0.7-0.7-1.3-1-1.9s-0.5-0.9-0.6-1.1c-0.2,2-0.4,4.1-0.5,6.4c-0.1,2.3-0.2,4.7-0.3,7.3h-1.7c0.2-3,0.3-5.8,0.5-8.6
		s0.4-5.3,0.7-7.8h1.5c0.5,0.8,1,1.7,1.6,2.7c0.6,1,1.1,2.1,1.7,3.2c0.6,1.1,1.1,2.2,1.6,3.3s1,2.1,1.4,2.9c0.4-0.9,0.9-1.8,1.4-2.9
		c0.5-1.1,1.1-2.2,1.6-3.3c0.6-1.1,1.1-2.2,1.7-3.2c0.6-1,1.1-1.9,1.6-2.7h1.4c0.3,2.5,0.5,5.1,0.7,7.8c0.2,2.7,0.4,5.6,0.5,8.6
		h-1.7c-0.1-2.5-0.2-5-0.3-7.3c-0.1-2.3-0.3-4.4-0.5-6.4c-0.1,0.2-0.3,0.6-0.6,1.1c-0.3,0.5-0.6,1.2-1,1.9c-0.4,0.7-0.8,1.5-1.2,2.3
		c-0.4,0.8-0.8,1.6-1.2,2.4c-0.4,0.8-0.7,1.5-1,2.1c-0.3,0.6-0.5,1.2-0.7,1.6H158.5z"/>
	<path class="st1" d="M183.7,175.8c-0.2-0.4-0.4-0.9-0.7-1.6c-0.3-0.6-0.7-1.4-1-2.1s-0.8-1.6-1.2-2.4c-0.4-0.8-0.8-1.6-1.2-2.3
		c-0.4-0.7-0.7-1.3-1-1.9s-0.5-0.9-0.6-1.1c-0.2,2-0.4,4.1-0.5,6.4c-0.1,2.3-0.2,4.7-0.3,7.3h-1.7c0.2-3,0.3-5.8,0.5-8.6
		s0.4-5.3,0.7-7.8h1.5c0.5,0.8,1,1.7,1.6,2.7c0.6,1,1.1,2.1,1.7,3.2c0.6,1.1,1.1,2.2,1.6,3.3s1,2.1,1.4,2.9c0.4-0.9,0.9-1.8,1.4-2.9
		c0.5-1.1,1.1-2.2,1.6-3.3c0.6-1.1,1.1-2.2,1.7-3.2c0.6-1,1.1-1.9,1.6-2.7h1.4c0.3,2.5,0.5,5.1,0.7,7.8c0.2,2.7,0.4,5.6,0.5,8.6
		h-1.7c-0.1-2.5-0.2-5-0.3-7.3c-0.1-2.3-0.3-4.4-0.5-6.4c-0.1,0.2-0.3,0.6-0.6,1.1c-0.3,0.5-0.6,1.2-1,1.9c-0.4,0.7-0.8,1.5-1.2,2.3
		c-0.4,0.8-0.8,1.6-1.2,2.4c-0.4,0.8-0.7,1.5-1,2.1c-0.3,0.6-0.5,1.2-0.7,1.6H183.7z"/>
	<path class="st1" d="M207.4,178.5c-1.2,0-2.1-0.2-3-0.5s-1.5-0.8-2-1.4c-0.5-0.6-0.9-1.3-1.1-2c-0.2-0.8-0.3-1.6-0.3-2.5v-10.3h1.7
		v10.1c0,0.9,0.1,1.7,0.3,2.3c0.2,0.7,0.5,1.2,0.9,1.6c0.4,0.4,0.9,0.7,1.5,0.9c0.6,0.2,1.2,0.3,1.9,0.3c0.7,0,1.3-0.1,1.9-0.3
		c0.6-0.2,1.1-0.5,1.5-0.9c0.4-0.4,0.7-1,0.9-1.6c0.2-0.7,0.3-1.4,0.3-2.3v-10.1h1.7v10.3c0,0.9-0.1,1.7-0.3,2.5
		c-0.2,0.8-0.6,1.5-1.1,2c-0.5,0.6-1.2,1-2,1.4C209.6,178.4,208.6,178.5,207.4,178.5z"/>
	<path class="st1" d="M233.6,178.2c-0.3-0.5-0.7-1.2-1.2-1.9c-0.5-0.7-1-1.5-1.6-2.4s-1.2-1.7-1.9-2.6c-0.6-0.9-1.3-1.8-1.9-2.6
		c-0.6-0.8-1.3-1.6-1.9-2.4c-0.6-0.7-1.2-1.4-1.6-1.9v13.8h-1.7v-16.4h1.4c0.9,0.9,1.8,1.9,2.7,3.1c1,1.2,1.9,2.4,2.9,3.6
		s1.8,2.4,2.6,3.6c0.8,1.2,1.5,2.2,2,3v-13.3h1.7v16.4H233.6z"/>
	<path class="st1" d="M258.7,170c0,1.4-0.2,2.6-0.7,3.7c-0.4,1.1-1,2-1.8,2.7c-0.7,0.7-1.6,1.3-2.6,1.6c-1,0.4-2,0.5-3.1,0.5
		s-2.2-0.2-3.1-0.5c-1-0.4-1.9-0.9-2.6-1.6c-0.7-0.7-1.3-1.6-1.8-2.7c-0.4-1.1-0.7-2.3-0.7-3.7s0.2-2.6,0.7-3.7c0.4-1.1,1-2,1.8-2.7
		c0.7-0.7,1.6-1.3,2.6-1.6c1-0.4,2-0.5,3.1-0.5s2.2,0.2,3.1,0.5c1,0.4,1.9,0.9,2.6,1.6c0.7,0.7,1.3,1.6,1.8,2.7
		C258.5,167.3,258.7,168.6,258.7,170z M256.9,170c0-1.1-0.2-2.1-0.5-3c-0.3-0.9-0.7-1.6-1.3-2.2c-0.6-0.6-1.2-1.1-2-1.4
		c-0.8-0.3-1.7-0.5-2.6-0.5c-1,0-1.8,0.2-2.6,0.5c-0.8,0.3-1.4,0.8-2,1.4c-0.6,0.6-1,1.4-1.3,2.2c-0.3,0.9-0.5,1.9-0.5,3
		c0,1.1,0.2,2.1,0.5,3c0.3,0.9,0.7,1.6,1.3,2.2c0.6,0.6,1.2,1.1,2,1.4s1.7,0.5,2.6,0.5c1,0,1.8-0.2,2.6-0.5c0.8-0.3,1.4-0.8,2-1.4
		c0.6-0.6,1-1.4,1.3-2.2C256.8,172.1,256.9,171.1,256.9,170z"/>
	<path class="st1" d="M276.7,161.8v1.4h-5.6v15h-1.7v-15h-5.6v-1.4H276.7z"/>
	<path class="st1" d="M294.1,161.8h1.7v16.4h-1.7v-7.9h-9.5v7.9H283v-16.4h1.7v7.1h9.5V161.8z"/>
	<path class="st1" d="M303.9,178.2v-16.4h10.1v1.4h-8.3v5.7h7.4v1.4h-7.4v6.5h9v1.4H303.9z"/>
	<path class="st1" d="M333,166.7c0,1.2-0.3,2.2-1,2.9c-0.7,0.7-1.6,1.2-2.7,1.5c0.3,0.3,0.6,0.7,1,1.3c0.4,0.5,0.9,1.1,1.3,1.8
		c0.5,0.6,0.9,1.3,1.3,2s0.8,1.4,1.1,2h-1.8c-0.4-0.6-0.7-1.3-1.1-1.9c-0.4-0.6-0.8-1.2-1.3-1.8c-0.4-0.6-0.8-1.1-1.2-1.6
		s-0.8-0.9-1.1-1.3c-0.5,0-1.1,0.1-1.6,0.1H323v6.6h-1.7v-16.1c0.6-0.2,1.3-0.3,2.1-0.3c0.8-0.1,1.6-0.1,2.2-0.1
		c2.4,0,4.2,0.4,5.4,1.3S333,165,333,166.7z M325.9,163c-0.6,0-1.2,0-1.7,0.1c-0.5,0-0.9,0.1-1.2,0.1v7h2.4c0.8,0,1.5,0,2.2-0.1
		c0.7-0.1,1.3-0.2,1.8-0.5c0.5-0.2,0.9-0.6,1.2-1.1s0.5-1.1,0.5-1.9c0-0.7-0.2-1.3-0.5-1.8s-0.7-0.8-1.2-1.1c-0.5-0.3-1-0.5-1.7-0.6
		C327.2,163.1,326.6,163,325.9,163z"/>
	<path class="st1" d="M352.8,178.2c-0.3-0.8-0.6-1.6-0.9-2.3s-0.5-1.5-0.8-2.2h-8.5c-0.3,0.7-0.6,1.4-0.9,2.2
		c-0.3,0.7-0.6,1.5-0.9,2.3h-1.8c0.7-1.7,1.3-3.3,1.9-4.8c0.6-1.5,1.2-2.9,1.7-4.2c0.6-1.3,1.1-2.6,1.7-3.8s1.1-2.4,1.8-3.6h1.5
		c0.6,1.2,1.2,2.4,1.7,3.6c0.6,1.2,1.1,2.5,1.7,3.8c0.6,1.3,1.1,2.7,1.7,4.2c0.6,1.5,1.2,3.1,1.9,4.8H352.8z M346.8,163.6
		c-0.6,1.4-1.2,2.7-1.8,4.1s-1.2,2.9-1.9,4.5h7.4c-0.6-1.6-1.3-3.1-1.9-4.5C348.1,166.4,347.5,165,346.8,163.6z"/>
	<path class="st1" d="M365.1,161.6c2.5,0,4.3,0.4,5.5,1.3c1.2,0.9,1.8,2.1,1.8,3.8c0,0.9-0.2,1.7-0.5,2.4s-0.9,1.2-1.5,1.6
		c-0.7,0.4-1.5,0.7-2.4,0.9c-0.9,0.2-2,0.3-3.2,0.3h-2.4v6.3h-1.7v-16.1c0.6-0.2,1.3-0.3,2.1-0.3
		C363.7,161.7,364.4,161.6,365.1,161.6z M365.2,163c-0.6,0-1.2,0-1.6,0.1c-0.4,0-0.8,0.1-1.1,0.1v7.2h2.2c0.9,0,1.8-0.1,2.5-0.2
		c0.7-0.1,1.4-0.3,1.9-0.6c0.5-0.3,0.9-0.7,1.2-1.1c0.3-0.5,0.4-1.1,0.4-1.9c0-0.7-0.2-1.3-0.5-1.8c-0.3-0.5-0.7-0.8-1.2-1.1
		c-0.5-0.3-1.1-0.5-1.7-0.6C366.6,163.1,365.9,163,365.2,163z"/>
	<path class="st1" d="M383.2,178.2v-6.7c-1.2-1.7-2.3-3.4-3.3-5c-1-1.6-1.9-3.2-2.8-4.7h2c0.7,1.4,1.5,2.8,2.3,4.2s1.7,2.8,2.7,4.1
		c0.9-1.3,1.8-2.6,2.6-4.1c0.9-1.4,1.6-2.8,2.4-4.2h1.9c-0.9,1.5-1.8,3.1-2.8,4.7c-1,1.6-2.1,3.3-3.2,4.9v6.8H383.2z"/>
</g>
<g>
	<circle class="st0" cx="469.7" cy="59.8" r="25"/>
	<circle class="st0" cx="469.7" cy="59.8" r="25"/>
</g>
<g>
	<path class="st2" d="M472.2,43.2c-1.2-0.2-2.3,0.5-2.6,1.7c-0.2,1,0.3,1.9,1.2,2.4c0,0,0,0.1-0.1,0.1l-0.2,1.1
		c-0.1,0.3,0.2,0.7,0.5,0.7c0.3,0.1,0.7-0.2,0.7-0.5l0.2-1.1c0-0.1,0-0.1,0-0.2c0.9-0.1,1.8-0.8,2-1.7
		C474.2,44.6,473.4,43.4,472.2,43.2z"/>
	<path class="st3" d="M485.2,44.7c-1.5-1.6-4.1-1.7-5.7-0.1c-1.3,1.3-1.6,3.3-0.8,4.8c-0.1,0-0.2,0.1-0.2,0.2l-1.4,1.4
		c-0.5,0.4-0.5,1.2,0,1.6s1.2,0.5,1.6,0l1.4-1.4c0.1-0.1,0.1-0.2,0.2-0.2c1.5,0.9,3.5,0.7,4.8-0.6C486.7,48.9,486.7,46.3,485.2,44.7
		z"/>
	<path class="st4" d="M483.2,65.5c-0.9-0.5-1.9-0.3-2.6,0.4c0,0-0.1-0.1-0.1-0.1l-0.9-0.5c-0.3-0.2-0.7-0.1-0.8,0.3
		c-0.2,0.3-0.1,0.7,0.3,0.8l0.9,0.5c0,0,0.1,0,0.1,0c-0.2,0.9,0.2,1.9,1.1,2.4c1.1,0.6,2.4,0.2,3-0.9
		C484.7,67.4,484.3,66.1,483.2,65.5z"/>
	<path class="st4" d="M462.6,72.6c0.1-0.1,0.1-0.1,0.1-0.2l0.8-1.3c0.2-0.4,0.1-1-0.3-1.2c-0.4-0.2-1-0.1-1.2,0.3l-0.8,1.3
		c0,0.1-0.1,0.1-0.1,0.2c-1.3-0.3-2.7,0.2-3.4,1.4c-0.9,1.5-0.4,3.3,1.1,4.2c1.5,0.9,3.3,0.4,4.2-1.1
		C463.8,75.1,463.5,73.6,462.6,72.6z"/>
	<path class="st3" d="M458.6,53.6l-1.3-0.7c-0.1,0-0.1,0-0.2-0.1c0.3-1.2-0.2-2.6-1.4-3.2c-1.4-0.8-3.2-0.3-4,1.1
		c-0.8,1.4-0.3,3.2,1.1,4c1.2,0.7,2.6,0.4,3.5-0.5c0,0,0.1,0.1,0.2,0.1l1.3,0.7c0.4,0.2,0.9,0.1,1.1-0.3
		C459.2,54.4,459.1,53.8,458.6,53.6z"/>
	<path class="st3" d="M477.5,63.1l-0.3-0.1c0.8-2.2,0.8-4.8-0.4-7.1c-0.1-0.3-0.3-0.6-0.5-0.8c0.6-0.6,0.6-1.5,0-2.2
		c-0.6-0.6-1.5-0.6-2.1-0.1c-0.7-0.5-1.4-1-2.2-1.3c0.1-0.8-0.5-1.5-1.2-1.6c-0.8-0.2-1.5,0.3-1.7,1c-1.4-0.1-2.9,0.2-4.3,0.9
		c-1.3,0.6-2.4,1.6-3.2,2.7c-0.7-0.4-1.6-0.1-2.1,0.6c-0.4,0.7-0.2,1.7,0.6,2.1l0.1,0c-0.7,2.1-0.5,4.5,0.5,6.6
		c0.6,1.2,1.5,2.3,2.5,3.1l-0.2,0.3c-0.4,0.7-0.2,1.7,0.6,2.1c0.7,0.4,1.7,0.2,2.1-0.6l0.2-0.4c2.2,0.7,4.6,0.7,6.9-0.4
		c1.2-0.6,2.2-1.4,2.9-2.3l0.3,0.2c0.7,0.4,1.7,0.1,2.1-0.6C478.5,64.5,478.2,63.5,477.5,63.1z"/>
</g>
<path class="st1" d="M61,72.8c0,1.9-0.6,3.5-1.9,4.6c-1.3,1.1-2.7,1.7-4.4,1.7c-1.8,0-3.3-0.6-4.5-1.7c-1.3-1.1-1.9-2.7-1.9-4.6
	c0-2,0.6-3.6,1.9-4.7c1.3-1.1,2.8-1.7,4.5-1.7c1.7,0,3.2,0.6,4.4,1.7C60.4,69.2,61,70.8,61,72.8z"/>
</svg>
