<?xml version="1.0" encoding="utf-8"?>
<!-- Generator: Adobe Illustrator 19.2.1, SVG Export Plug-In . SVG Version: 6.00 Build 0)  -->
<svg version="1.1" id="Layer_1" xmlns="http://www.w3.org/2000/svg" xmlns:xlink="http://www.w3.org/1999/xlink" x="0px" y="0px"
	 viewBox="0 0 172 80" style="enable-background:new 0 0 172 80;" xml:space="preserve">
<style type="text/css">
	.st0{fill:#F5A81C;}
	.st1{fill:#FFFFFF;}
</style>
<g>
	<g>
		<path class="st0" d="M3.5,79.5c-1.1,0-2-0.4-2.5-1.1c-0.5-0.7-0.6-1.7-0.3-2.7l23.2-71c0.8-2.3,3.4-4.2,5.8-4.2h112.6
			c2.4,0,5,1.9,5.8,4.2l23.2,71c0.3,1,0.2,2-0.3,2.7c-0.5,0.7-1.4,1.1-2.5,1.1H3.5z"/>
		<path class="st1" d="M142.3,1c2.2,0,4.6,1.7,5.3,3.8l23.2,71c0.3,0.9,0.2,1.7-0.2,2.3c-0.4,0.6-1.2,0.9-2.1,0.9H3.5
			c-0.9,0-1.7-0.3-2.1-0.9c-0.4-0.6-0.5-1.4-0.2-2.3l23.2-71C25.1,2.7,27.5,1,29.7,1H142.3 M142.3,0H29.7c-2.6,0-5.4,2-6.3,4.5
			l-23.2,71C-0.6,78,0.9,80,3.5,80h165c2.6,0,4.1-2,3.3-4.5l-23.2-71C147.7,2,144.9,0,142.3,0L142.3,0z"/>
	</g>
</g>
<path class="st1" d="M146.1,67.6c-1.6-0.7-3.1-1.9-4.4-3.6L125,42.5c5.6-0.8,9.9-2.5,13.1-5.2c3.1-2.7,4.7-6,4.7-9.9
	c0-4.9-1.8-8.7-5.4-11.4c-3.6-2.7-8.7-4-15.3-4H94.8h-1.2H65.7v2.3h2.6c3.4,0,5.5,0.5,6.5,1.3c0.9,0.8,1.4,2.9,1.4,6.1v17.5H47.8
	V21.7c0-3.3,0.4-5.4,1.4-6.2s3.1-1.2,6.5-1.2h2.6V12H29.2v2.3h2.6c3.4,0,5.5,0.5,6.5,1.3c0.9,0.8,1.4,2.9,1.4,6.1v39.8
	c0,3.3-0.4,5.4-1.4,6.2c-1,0.9-3.1,1.3-6.5,1.3h-2.6v2.3h29V69h-2.6c-3.4,0-5.5-0.5-6.5-1.3c-0.9-0.8-1.4-2.9-1.4-6.2v-20h28.6v20
	c0,3.3-0.4,5.4-1.4,6.2C74,68.6,71.8,69,68.4,69h-2.6v2.3h27.9h1.1h28V69h-2.6c-3.4,0-5.5-0.5-6.5-1.3c-0.9-0.9-1.4-2.9-1.4-6.2
	V42.7h4.7l20.6,28.5h15.1v-2.3C149.9,68.8,147.8,68.4,146.1,67.6z M104.2,61.5c0,3.3-0.4,5.4-1.4,6.2c-1,0.9-3.1,1.3-6.5,1.3h-4.1
	c-3.4,0-5.5-0.5-6.5-1.3c-0.9-0.8-1.4-2.9-1.4-6.2V21.7c0-3.3,0.4-5.4,1.4-6.2c0.9-0.8,3.1-1.2,6.5-1.2h4.2c3.4,0,5.3,0.6,6.3,1.4
	s1.5,2.9,1.5,6.1V61.5z M112.3,40.4V21.2c0-2.8,0.5-4.6,1.4-5.5c0.9-0.9,2.9-1.3,6-1.3c4.9,0,8.6,1.1,11,3.3s3.6,5.6,3.6,10.1
	c0,4.3-1.4,7.5-4.2,9.5c-2.8,2.1-7.1,3.1-13,3.1H112.3z"/>
</svg>
