<svg width="176" height="136" viewBox="0 0 176 136" fill="none" xmlns="http://www.w3.org/2000/svg">
<rect width="175.2" height="136" fill="black" fill-opacity="0"/>
<rect width="103.6" height="21.3" fill="black" fill-opacity="0" transform="translate(35.5 114.7)"/>
<path d="M35.5 133.2H37.5L44.1 114.7H47.4L54 133.2H56V135.5H48.8V133.2H51L49.4 128.6H42.1L40.5 133.2H42.7V135.5H35.5V133.2ZM48.7 126.2L46.2 119C45.9 118.1 45.8 117.4 45.8 117.4H45.7C45.7 117.4 45.6 118.1 45.3 119L42.7 126.2H48.7Z" fill="white"/>
<path d="M56.5 117H54V114.8H59.3V121.7C59.3 122.4 59.2 122.9 59.2 122.9H59.3C59.3 122.9 60.6 120.3 64.1 120.3C68.1 120.3 70.7 123.5 70.7 128.1C70.7 132.8 67.8 135.9 63.9 135.9C60.5 135.9 59.2 133.2 59.2 133.2H59.1C59.1 133.2 59.2 133.7 59.2 134.4V135.6H56.5V117ZM63.5 133.4C65.8 133.4 67.8 131.5 67.8 128.1C67.8 124.9 66.1 122.8 63.6 122.8C61.4 122.8 59.3 124.4 59.3 128.1C59.3 130.8 60.7 133.4 63.5 133.4Z" fill="white"/>
<path d="M79.4 126.4H80.3V125.8C80.3 123.4 78.9 122.6 77.1 122.6C74.7 122.6 72.8 124 72.8 124L71.7 122C71.7 122 73.9 120.2 77.3 120.2C81.1 120.2 83.1 122.2 83.1 125.9V132.5C83.1 132.9 83.3 133.1 83.7 133.1H85.2V135.3H82.2C80.9 135.3 80.3 134.7 80.3 133.7V133.5C80.3 132.9 80.4 132.5 80.4 132.5H80.5C80.5 132.5 79.2 135.6 75.6 135.6C73.1 135.6 70.7 134.2 70.7 131.1C70.7 126.7 76.9 126.4 79.4 126.4ZM76.3 133.7C78.8 133.7 80.4 131.1 80.4 128.9V128.3H79.7C78.3 128.3 73.7 128.4 73.7 131.2C73.6 132.5 74.5 133.7 76.3 133.7Z" fill="white"/>
<path d="M86.2 117H83.7V114.8H89V131.1C89 132.4 89.3 133.2 90.6 133.2C91.1 133.2 91.4 133.2 91.4 133.2V135.6C91.4 135.6 90.8 135.7 90.1 135.7C88 135.7 86.2 134.8 86.2 131.4V117Z" fill="white"/>
<path d="M99.2 120.3C103.6 120.3 107.2 123.6 107.2 128.1C107.2 132.6 103.6 135.9 99.2 135.9C94.8 135.9 91.2 132.6 91.2 128.1C91.1 123.5 94.7 120.3 99.2 120.3ZM99.2 133.4C102 133.4 104.3 131.2 104.3 128.1C104.3 125 102 122.8 99.2 122.8C96.4 122.8 94.1 125 94.1 128.1C94 131.2 96.3 133.4 99.2 133.4Z" fill="white"/>
<path d="M107.4 133.3H109.7V123.5C109.7 123.1 109.5 122.9 109.1 122.9H107.3V120.7H110.7C112 120.7 112.6 121.3 112.6 122.3V123.1C112.6 123.6 112.5 124 112.5 124H112.6C112.9 123.2 114.6 120.4 118.4 120.4C121.8 120.4 123.3 122.3 123.3 126.1V133.4H125.7V135.6H120.5V126.7C120.5 124.6 120.1 123 117.7 123C114.7 123 112.7 125.7 112.7 128.7V133.4H115.1V135.6H107.6V133.3H107.4Z" fill="white"/>
<path d="M132.7 120.3C136.9 120.3 139.1 123.4 139.1 127.3C139.1 127.7 139 128.4 139 128.4H128.1C128.3 131.7 130.6 133.5 133.2 133.5C135.8 133.5 137.6 131.8 137.6 131.8L138.8 133.9C138.8 133.9 136.6 136 133 136C128.3 136 125.1 132.6 125.1 128.2C125.3 123.3 128.5 120.3 132.7 120.3ZM136.2 126.5C136.1 123.9 134.5 122.5 132.6 122.5C130.4 122.5 128.7 124 128.2 126.5H136.2Z" fill="white"/>
<rect width="175.2" height="21.6" fill="black" fill-opacity="0" transform="translate(0 83)"/>
<path d="M10.7 83C16.7 83 21.4 87.6 21.4 93.6C21.4 99.7 16.7 104.5 10.7 104.5C4.7 104.5 0 99.7 0 93.6C0 87.6 4.7 83 10.7 83ZM10.7 101.8C14.9 101.8 18.3 98.2 18.3 93.5C18.3 89 14.9 85.5 10.7 85.5C6.5 85.5 3.1 89 3.1 93.5C3 98.2 6.4 101.8 10.7 101.8Z" fill="white"/>
<path d="M29.6 88.9C31.8 88.9 35.4 89.7 35.4 92.3V94.1H32.9V93.1C32.9 92 31 91.4 29.7 91.4C26.7 91.4 24.6 93.5 24.6 96.7C24.6 100.1 27 102 29.8 102C32.3 102 34 100.5 34.6 100.1L35.7 102.2C35 102.8 32.9 104.5 29.7 104.5C25.4 104.5 21.7 101.5 21.7 96.7C21.7 92.1 25.2 88.9 29.6 88.9Z" fill="white"/>
<path d="M43.2 88.9C47.4 88.9 49.6 92 49.6 95.9C49.6 96.3 49.5 97 49.5 97H38.7C38.9 100.3 41.2 102.1 43.8 102.1C46.4 102.1 48.2 100.4 48.2 100.4L49.4 102.5C49.4 102.5 47.2 104.6 43.6 104.6C38.9 104.6 35.7 101.2 35.7 96.8C35.8 91.9 39 88.9 43.2 88.9ZM46.7 95.1C46.6 92.5 45 91.1 43.1 91.1C40.9 91.1 39.2 92.6 38.8 95.1H46.7Z" fill="white"/>
<path d="M58.4 94.9H59.3V94.3C59.3 91.9 57.9 91.1 56.1 91.1C53.7 91.1 51.8 92.5 51.8 92.5L50.7 90.5C50.7 90.5 52.9 88.7 56.3 88.7C60.1 88.7 62.1 90.7 62.1 94.4V101C62.1 101.4 62.3 101.6 62.7 101.6H64.2V103.8H61.2C59.9 103.8 59.3 103.2 59.3 102.2V102C59.3 101.4 59.4 101 59.4 101H59.5C59.5 101 58.2 104.1 54.6 104.1C52.1 104.1 49.7 102.7 49.7 99.6C49.7 95.3 55.9 94.9 58.4 94.9ZM55.2 102.2C57.7 102.2 59.3 99.6 59.3 97.4V96.8H58.6C57.2 96.8 52.6 96.9 52.6 99.7C52.6 101 53.5 102.2 55.2 102.2Z" fill="white"/>
<path d="M64.2 101.9H66.5V92.1C66.5 91.7 66.3 91.5 65.9 91.5H64.1V89.3H67.5C68.8 89.3 69.4 89.9 69.4 90.9V91.7C69.4 92.2 69.3 92.6 69.3 92.6H69.4C69.7 91.8 71.4 89 75.2 89C78.6 89 80.1 90.9 80.1 94.7V102H82.5V104.2H77.3V95.3C77.3 93.2 76.9 91.6 74.5 91.6C71.5 91.6 69.5 94.3 69.5 97.3V102H71.9V104.2H64.4V101.9H64.2Z" fill="white"/>
<path d="M98.3 83C101.9 83 106.3 84.5 106.3 87.1V89.7H103.6V88.2C103.6 86.5 100.9 85.6 98.4 85.6C93.6 85.6 90.5 88.9 90.5 93.7C90.5 98.5 93.6 102 98.5 102C100.4 102 104.1 101.4 104.1 99.4V96.7H100V94.4H106.8V100.2C106.8 103.4 101.5 104.5 98.3 104.5C91.9 104.5 87.5 99.9 87.5 93.7C87.5 87.5 91.9 83 98.3 83Z" fill="white"/>
<path d="M107.8 101.9H110V92.1C110 91.7 109.8 91.5 109.4 91.5H107.5V89.3H110.9C112.2 89.3 112.8 89.8 112.8 91V91.9C112.8 92.5 112.7 92.9 112.7 92.9H112.8C113.5 90.7 115.2 89 117.5 89C117.9 89 118.2 89.1 118.2 89.1V91.9C118.2 91.9 117.8 91.8 117.4 91.8C114.2 91.8 112.9 95 112.9 97.9V101.8H115.1V104H107.8V101.9Z" fill="white"/>
<path d="M125.6 88.9C130 88.9 133.6 92.2 133.6 96.7C133.6 101.2 130 104.5 125.6 104.5C121.2 104.5 117.6 101.2 117.6 96.7C117.6 92.1 121.2 88.9 125.6 88.9ZM125.6 102C128.4 102 130.7 99.8 130.7 96.7C130.7 93.6 128.4 91.4 125.6 91.4C122.8 91.4 120.5 93.6 120.5 96.7C120.5 99.7 122.8 102 125.6 102Z" fill="white"/>
<path d="M132.8 89.2H139.4V91.4H137.4L139.9 100C140.1 100.6 140.1 101.4 140.1 101.4H140.2C140.2 101.4 140.3 100.6 140.4 100L143.7 89.2H146.3L149.6 100C149.8 100.6 149.8 101.4 149.8 101.4H149.9C149.9 101.4 150 100.6 150.1 100L152.7 91.4H150.7V89.2H157.3V91.4H155.5L151.7 104.1H148.5L145.4 94.2C145.2 93.5 145.1 92.8 145.1 92.8H145C145 92.8 144.9 93.5 144.7 94.2L141.6 104.1H138.5L134.7 91.4H132.8V89.2Z" fill="white"/>
<path d="M156.9 101.9H159.2V92.1C159.2 91.7 159 91.5 158.6 91.5H156.8V89.3H160.2C161.5 89.3 162.1 89.9 162.1 90.9V91.7C162.1 92.2 162 92.6 162 92.6H162.1C162.4 91.8 164.1 89 167.9 89C171.3 89 172.8 90.9 172.8 94.7V102H175.2V104.2H170V95.3C170 93.2 169.6 91.6 167.2 91.6C164.2 91.6 162.2 94.3 162.2 97.3V102H164.6V104.2H157.1V101.9H156.9Z" fill="white"/>
<rect width="76.8" height="56.1" fill="black" fill-opacity="0" transform="translate(51.1 0.0999756)"/>
<path d="M112.59 22.7768C113.311 21.7988 113.103 20.4215 112.125 19.7005C111.147 18.9795 109.77 19.1878 109.049 20.1658C108.328 21.1438 108.536 22.5211 109.514 23.2421C110.492 23.9631 111.869 23.7547 112.59 22.7768Z" fill="#82BC00"/>
<path d="M103.065 17.9003C103.797 16.7951 103.494 15.3059 102.389 14.5741C101.284 13.8423 99.7949 14.145 99.0631 15.2502C98.3313 16.3554 98.634 17.8446 99.7392 18.5764C100.844 19.3082 102.334 19.0055 103.065 17.9003Z" fill="#82BC00"/>
<path d="M90.6329 18.6602C91.4041 17.3839 90.9947 15.7241 89.7184 14.9529C88.4421 14.1816 86.7822 14.5911 86.011 15.8673C85.2398 17.1436 85.6492 18.8035 86.9255 19.5747C88.2018 20.346 89.8616 19.9365 90.6329 18.6602Z" fill="#82BC00"/>
<path d="M91.1 6.3C91.8 6.3 92.5 6.4 93.2 6.5C95 6.8 96.8 7.2 98.8 7.7C100.7 8.2 102.6 8.9 104.5 9.9C106 10.9 108.1 11.9 110.1 13.2C112.2 14.5 114.2 16.1 115.9 17.9C116.4 18.3 117 18.6 117.5 19C118.1 19.7 118.8 20.7 119.2 21.6C119.7 22.5 120 23.3 120.2 23.6C122 26.5 122.8 29.8 122.8 32.9C122.8 34.5 122.6 36 122.4 37.5C122.3 38.2 122.1 39 121.9 39.7C121.7 40.4 121.5 41.1 121.3 41.7C120.4 44.3 118.9 46.6 117 48.6C115.1 50.6 113 52.6 110.6 53.8C109.1 54.6 107.4 55.5 105.9 56V56.1C108.6 55.5 111.3 54.6 113.9 53.3C116.3 52.1 118.6 50.5 120.5 48.5C122.4 46.5 123.9 44.2 124.8 41.6C125 40.9 125.2 40.3 125.4 39.6C125.6 38.9 125.7 38.2 125.9 37.4C126.2 35.9 126.3 34.4 126.3 32.8C126.3 29.6 125.5 26.3 123.7 23.5C123.5 23.3 123.2 22.4 122.7 21.5C122.2 20.6 121.6 19.5 121 18.9C120.5 18.5 119.9 18.1 119.4 17.8C117.8 16 115.7 14.4 113.6 13.1C111.5 11.8 109.5 10.7 108 9.8C106.1 8.8 104.2 8.1 102.3 7.6C100.4 7.1 98.6 6.8 96.7 6.4C95 6.2 93.1 6.2 91.1 6.3Z" fill="#82BC00"/>
<path d="M117.971 29.9239C118.646 29.1209 118.543 27.9224 117.74 27.247C116.937 26.5717 115.738 26.6752 115.063 27.4782C114.387 28.2813 114.491 29.4798 115.294 30.1552C116.097 30.8305 117.296 30.727 117.971 29.9239Z" fill="#82BC00"/>
<path d="M85.4 46.9C85.7 48.3 86.4 50 87.5 51.4C88.2 52.3 89.1 53.2 90.2 53.9L90.3 53.8C91.2 54.4 91.9 54.7 92.3 55C92.5 55.1 92.6 55.2 92.7 55.3C93.7 55.7 94.7 56 95.7 56.2C95.6 56.1 95.5 56 95.4 56C95 55.7 94.4 55.4 93.4 54.8L93.3 54.9C92.3 54.2 91.4 53.3 90.6 52.4C89.4 50.9 88.7 49.3 88.5 47.9C88.2 46.5 88.4 45.2 88.6 44.4C87.9 43.3 87.9 41.9 88.3 40.5C88.7 39.2 89.4 38.1 90.1 36.9C91 35.6 92.4 34.3 94.1 33.4C95.7 32.6 97.5 32.2 98.9 32.5C99.3 32.6 99.7 32.6 100.1 32.7C99.8 32.6 99.5 32.4 99.2 32.3C99 32.2 98.7 32.1 98.5 32.1C98.2 32 97.9 32 97.7 31.9C97.1 31.8 96.5 31.7 95.9 31.6C94.5 31.3 92.7 31.7 91.1 32.5C89.5 33.3 88.1 34.6 87.1 36C86.4 37.2 85.7 38.2 85.3 39.6C84.9 41 84.9 42.4 85.6 43.5C85.2 44.2 85.1 45.5 85.4 46.9Z" fill="#82BC00"/>
<path d="M79.0514 24.2927C79.8325 22.8945 79.3323 21.1278 77.934 20.3467C76.5358 19.5656 74.7691 20.0659 73.988 21.4641C73.2069 22.8623 73.7071 24.629 75.1054 25.4101C76.5036 26.1912 78.2703 25.691 79.0514 24.2927Z" fill="#82BC00"/>
<path d="M101.5 33C101.1 32.8 100.5 32.4 99.8 31.8C99.6 31.8 99.5 31.7 99.3 31.7C99.7 32 100.4 32.4 101 32.9C101.4 33 101.7 33.1 101.5 33Z" fill="#82BC00"/>
<path d="M59.5972 45.5432C60.5233 43.6598 59.7473 41.3823 57.864 40.4561C55.9806 39.53 53.7031 40.3059 52.7769 42.1893C51.8508 44.0727 52.6267 46.3502 54.5101 47.2764C56.3934 48.2025 58.671 47.4265 59.5972 45.5432Z" fill="#82BC00"/>
<path d="M67.944 33.4368C68.7619 31.8702 68.155 29.9373 66.5884 29.1193C65.0219 28.3014 63.0889 28.9083 62.271 30.4749C61.4531 32.0414 62.06 33.9744 63.6265 34.7923C65.1931 35.6102 67.126 35.0033 67.944 33.4368Z" fill="#82BC00"/>
<path d="M90.5 0.299976C90.8 0.299976 91.1 0.199976 91.5 0.199976C92.7 0.0999756 94 0.0999756 95.3 0.0999756C93.3 0.0999756 91.4 0.0999756 89.6 0.199976V0.299976C90 0.299976 90.3 0.299976 90.5 0.299976Z" fill="#82BC00"/>
<path d="M117.542 38.8198C118.039 38.2278 117.963 37.3447 117.371 36.8473C116.779 36.3499 115.896 36.4266 115.398 37.0185C114.901 37.6105 114.978 38.4936 115.57 38.991C116.161 39.4884 117.045 39.4117 117.542 38.8198Z" fill="#82BC00"/>
<path d="M127.8 46C127.5 46.5 127.3 47.2 127.2 47.9C127.5 47.4 127.7 46.9 127.9 46.4C127.9 46.3 127.8 46.2 127.8 46Z" fill="#82BC00"/>
<rect width="107.9" height="63.6084" fill="black" fill-opacity="0" transform="translate(25.8)"/>
<path d="M27.1 53.9C27.2 53.6 27.3 53.3 27.4 53C27.3 53.3 27.2 53.6 27.1 53.9Z" fill="white"/>
<path d="M27.9 53C28.1 51.5 27.4 55.2 27.1 53.9C27 54.3 26.9 54.5 26.8 54.6C27 55.4 27.4 54.3 27.9 53Z" fill="white"/>
<path d="M26.1 53.9C26.3 53 26.8 51.7 27 52.1L27.1 50.8C26.6 52.1 26.2 53.4 25.8 54.7C26.3 54 26.9 52.8 27.4 53C27.6 52.5 27.8 51.9 28 51.4C27.2 52.9 26.7 53.2 26.1 53.9Z" fill="white"/>
<path d="M30.8 44.8L31.2 44.1C31.1 43.8 30.7 44.4 30.3 44.8C30.8 44.7 30.4 46.4 32 44C31.4 44.6 30.9 45.2 30.8 44.8Z" fill="white"/>
<path d="M29.7 45.3C29.8 45.4 30 45.1 30.3 44.8C30.2 44.8 30 44.9 29.7 45.3Z" fill="white"/>
<path d="M30.7 48.9L30.8 48.3C30.1 49.5 29.3 50.6 28.7 51.9C29.5 51.7 29.5 50.1 30.7 48.9Z" fill="white"/>
<path d="M53.7 14.6H53.9L54.1 14.3C54 14.3 53.9 14.4 53.7 14.6Z" fill="white"/>
<path d="M54.6 13.7C54.5 13.9 54.3 14 54.2 14.2C55.7 13.2 55.5 13.9 57.1 12.5C56.2 12.9 55.4 13.3 54.6 13.7Z" fill="white"/>
<path d="M53.9 14.6C52.4 16.4 51 16.3 48.7 18.8C50.8 17.5 52.8 15.9 54.3 14.6H53.9Z" fill="white"/>
<path d="M44.7 31.3C44.6 31.3 44.6 31.3 44.7 31.3C45.9 31.3 47 29.3 48.7 28.6L48.2 27.8C46.8 29.4 46.1 29.3 44.7 31.3Z" fill="white"/>
<path d="M68.6 14.9C68.3 15 68 15.2 67.8 15.3C68.1 15.2 68.4 15 68.6 14.9Z" fill="white"/>
<path d="M70.5 13.3C69.7 14.2 68.6 14 67.7 14.4C67.8 14.6 70 14.1 68.5 14.9C69.4 14.4 70.2 14.1 69.6 14.8C71.5 13.9 69.5 14.2 70.5 13.3Z" fill="white"/>
<path d="M72.4 12.5C73.3 12.2 74.5 11.9 75 11.4C74 11.8 73 11.7 72.4 12.5Z" fill="white"/>
<path d="M73.4 13.8L73.9 13.4L72.4 13.6L73.4 13.8Z" fill="white"/>
<path d="M79 11.8C80.7 10.8 79.7 10.9 78.4 11.2C78.8 11.2 79.1 11.2 79.2 11.3C78.1 11.7 77 12.2 76 12.7C76.9 12.3 78 12 79 11.8Z" fill="white"/>
<path d="M75.3 11.6L74.4 12.3C74.4 12.4 75.9 11.8 77.2 11.4C76.3 11.6 75.5 11.8 75.3 11.6Z" fill="white"/>
<path d="M78.3 11.1C78 11.1 77.6 11.2 77.2 11.4L78.3 11.1Z" fill="white"/>
<path d="M82.2 10.3C81.3 10.7 81.8 11 81.8 11.1L82.3 11L82.2 10.3Z" fill="white"/>
<path d="M85.5 10.7C86.9 10.6 86 11 86 11.3C86.9 11.5 88.5 10.8 89.2 10.7C88.1 10.3 86.9 10.6 85.5 10.7Z" fill="white"/>
<path d="M90 11.5C89.1 11.6 88.2 11.7 87.3 11.8C87.9 12.4 88.9 11.6 90 11.5Z" fill="white"/>
<path d="M94.8 10.7C94.4 10.4 93.5 10.5 92.8 10.5C93.3 10.7 93.8 10.9 94.2 11.1C94.5 11 94.3 10.8 94.8 10.7Z" fill="white"/>
<path d="M37.1 35.3C34.6 40.5 33.6 44.8 33.6 44.8C36.2 39.8 43.8 33.6 43.8 33.6C43.8 33.6 39.6 35.3 38.7 36.2C37.8 37 39.6 30 37.1 35.3Z" fill="white"/>
<path d="M99.4 42.6C100.3 42.5 101.6 41.3 102.2 40.9C101 41 100 41.6 98.8 42.2C100 41.7 99.3 42.4 99.4 42.6Z" fill="white"/>
<path d="M83.1 59C83.5 60 84.5 60.8 85.5 61.7C84.5 60.7 85.4 61.1 85.6 61C85.2 60.1 83.6 59.4 83.1 59Z" fill="white"/>
<path d="M133.3 31.1C132.8 28.9 132.1 26.8 131.3 24.6C131.3 24.4 131.2 24.3 131.2 24.1C130.5 21.5 129.3 19 127.9 16.8C126.5 14.5 124.7 12.6 122.7 11C122.7 11 122.8 11.1 122.8 11.2C121.6 10 120.4 8.9 119.2 8C119.7 9 121 9.9 122 10.5L125.1 13.4C125.6 13.6 124.2 13.2 123.9 12.9C124 13.2 124.1 13.5 124.2 13.7C123.7 12.6 122.4 11.6 121.3 10.9C121.4 11.1 121.6 11.4 121.8 11.6C119.2 10.7 116 7.8 114.1 5.9C114.5 6.1 114.9 6.3 115.2 6.4L115 6.1C115.4 6.5 116.1 6.8 116.5 7C116.5 6.5 116.3 6.1 116.2 5.7C115.9 5.5 115.6 5.3 115.3 5.2C112.6 3.9 109.7 2.6 106.9 1.7C104.1 0.8 101.5 0.2 99.1 0C96.3 0 93.9 0 91.6 0.1C91.3 0.1 91 0.1 90.6 0.2C89.7 0.1 88.7 0.1 87.6 0.2C88.2 0.1 88.7 0.1 89.2 0.1V0.3C88.5 0.4 87.8 0.5 87.1 0.6C85.8 0.6 84.5 0.8 83.2 0.9C81.3 1.1 79.6 1.4 78.9 1.3C77.8 2.4 80.3 1.6 82.6 1.1C80.2 1.7 77.5 2.6 75.1 3.6C75 3.7 74.8 3.7 74.7 3.8C75.7 3.3 76.3 2.7 77.6 2.7C78.1 2.3 77.9 2.1 77 2.2C75.8 2.7 73.9 3.3 72.5 3.9C71.2 4.4 70.1 5 70.1 5.3C69.6 5.4 69.1 5.5 68.7 5.5L67.8 6.5L67.3 6.6C67.5 6.6 67.6 6.6 67.8 6.6C66.8 7.2 65.7 7.7 64.7 8.3C62.9 9.3 61.2 10.4 60.1 11.6C60 11.9 59.9 12.1 59.8 12.3C58.9 12.6 60 11.8 60.2 11.3C58.3 12.6 57 13.6 56.7 14.4C57.7 13.7 58.7 13 59.8 12.4C59.7 12.7 59.7 12.8 59.8 12.9C59 13.9 58.3 14.7 57.9 14.9C55.4 16.4 53.3 17.4 51.4 18.4C51.4 18.3 51.5 18.2 51.5 18.2C51.7 18.1 51.9 17.9 52.1 17.8C53.2 16.9 54.5 15.9 55.1 15.5C54.3 15.9 53.5 16.3 52.6 16.7L52.1 17.5C51.8 17.7 51.6 17.8 51.5 17.8C51.5 17.8 51.4 17.8 51.3 17.7L51.2 17.6L51.1 17.7C51 17.7 50.9 17.7 50.8 17.8V18L50 19C50 19.1 50 19.1 50 19.1C48.9 19.5 47.7 19.9 45.9 21.5V21.6C44.9 22.3 43.8 23.1 42.7 24.2C42.4 24.4 41.9 25.3 41.4 26.3C41.3 26.4 41.3 26.4 41.2 26.5C40.8 27.3 40.7 27.7 40.7 27.9C40.6 28.2 40.6 28.5 40.6 28.5C41.3 28.3 42.6 27.4 43.9 26.4C44 26.3 44.2 26.2 44.3 26.1C44.2 26.2 44.1 26.3 44 26.5L44.2 26.3C44.2 26.2 44.3 26.1 44.3 26.1C45.5 25.2 46.7 24.2 47.7 23.6C48.5 23.4 49 23.3 49.8 23.1C51.1 22.7 49.3 24.9 49 25.5C51.2 24.7 54.2 22.4 57.6 20C61 17.5 65 14.8 68.7 12.8C69.8 12.2 70.2 11.1 71.4 10.5C72 10.4 72.7 10.3 73.3 10.2C74.5 9.7 76.3 8.8 76.9 8.7C79.4 8.4 82.8 7.5 86.4 6.9C89.9 6.3 93.7 6.1 96.4 6.6C98.2 6.9 100 7.3 102 7.8C103.9 8.3 105.8 9 107.7 10C109.2 11 111.3 12 113.3 13.3C115.4 14.6 117.4 16.2 119.1 18C119.6 18.4 120.2 18.7 120.7 19.1C121.3 19.8 122 20.8 122.4 21.7C122.9 22.6 123.2 23.4 123.4 23.7C125.2 26.6 126 29.9 126 33C126 34.6 125.8 36.1 125.6 37.6C125.5 38.3 125.3 39.1 125.1 39.8C124.9 40.5 124.7 41.2 124.5 41.8C123.6 44.4 122.1 46.7 120.2 48.7C118.3 50.7 116 52.3 113.6 53.5C111 54.8 108.3 55.7 105.6 56.3C105.4 56.2 105.3 56.1 105.1 56C104.3 56.3 103.4 56.5 103.2 56.7C102.7 56.8 102.2 56.8 101.7 56.9C100.3 56.7 99.2 56.7 98.3 57.1C97.3 56.8 98 56.7 97.4 56.5C95.8 56.4 94.2 56.1 92.6 55.4C92.5 55.3 92.3 55.2 92.2 55.1C91.8 54.8 91.2 54.5 90.2 53.9L90.1 54C89.1 53.3 88.2 52.4 87.4 51.5C86.2 50 85.5 48.4 85.3 47C85 45.6 85.2 44.3 85.4 43.5C84.7 42.4 84.7 41 85.1 39.6C85.5 38.3 86.2 37.2 86.9 36C87.8 34.7 89.2 33.4 90.9 32.5C92.5 31.7 94.3 31.3 95.7 31.6C96.3 31.7 96.9 31.8 97.5 31.9C97.8 32 98.1 32 98.3 32.1C98.6 32.2 98.8 32.2 99 32.3C100 32.6 100.8 33.1 101.5 33.6C101.6 33.7 101.7 33.8 101.8 33.9C101.3 33 99.9 32.2 99.2 31.8C99.8 31.9 100.4 32.1 100.9 32.3C100.3 31.9 99.6 31.5 99.1 31C101.1 31.7 104.3 33.6 105.3 35.5C104.8 35.3 104.3 35.2 103.9 35C104.4 35.4 104.7 36 104.6 36.7C104.2 36.4 103.9 36 103.5 35.8C103.7 36.1 103.9 36.4 104 36.8C104 36.9 104.1 37.1 104.1 37.2C104.2 37.3 104.2 37.5 104.3 37.6C104.3 37.7 104.4 37.8 104.4 37.9C104.5 38.3 104.5 38.8 104.5 39.2V39.3C104.5 39.3 104.5 39.3 104.5 39.4V39.6C104.5 39.7 104.5 39.8 104.5 39.9C104.5 40.1 104.4 40.3 104.4 40.6C104.2 41.5 103.7 42.3 103 43C101.6 44.5 99.5 45.4 97.3 45.3C97.4 45.8 97.6 46.4 98 46.9C98.4 47.4 98.9 48 99.8 48.3C100.7 48.7 102.1 48.9 103.9 48.5C104.8 48.3 105.8 47.9 107 47.2C108.1 46.5 109.3 45.5 110.3 44C110.5 43.7 110.6 43.4 110.8 43.1C110.9 43 111 42.8 111 42.6L111.1 42.4L111.2 42.1L111.4 41.6V41.5V41.4L111.5 41.2C111.6 40.9 111.7 40.6 111.7 40.3C111.9 39.5 112 38.7 112 37.8C112 37.6 112.1 37.4 112.1 37.2C112.2 35.9 112.1 34.4 111.7 33C111.5 32.3 111.3 31.5 110.9 30.8C110.6 30.1 110.2 29.4 109.8 28.8C108.4 27.5 106.6 26.2 104.6 25.3C103.6 24.9 102.5 24.5 101.4 24.2C100.9 24.1 100.3 24 99.8 23.9C99.3 23.8 98.8 23.8 98.3 23.8C97.5 23.8 96.8 23.8 96 23.8C95.7 23.7 95.3 23.7 95 23.6C94.1 23.8 92.8 24.1 91.5 24.5C90.1 24.9 88.8 25.4 87.7 25.9C84.4 27.2 81.4 29.4 79.3 32.6C78.8 33.4 78.3 34.2 78 35.1C77.6 35.9 77.3 36.9 77.1 37.7C76.7 39.3 76.5 41.1 76.5 42.8C76.5 46.2 77.5 49.6 79.2 52.4C80.4 54.4 81.8 56.1 83.5 57.6C83.9 57.7 84.3 57.6 84.6 57.8C84.4 57.3 84.4 56.5 84.2 56C84.5 56.6 85.2 57.1 85.6 57.5C85.4 56.6 84.9 55.7 84.8 54.8C86.1 57.3 87.8 59 89.7 60.9C89.6 60.8 89.5 60.6 89.5 60.6C90.2 61 90.9 61.7 91.4 62.3C91.7 62.4 91.9 62.5 92.2 62.6C93.3 62.9 94.5 63.2 95.6 63.3C96.7 63.4 97.8 63.5 98.9 63.6C103 63.7 107.1 62.9 110.7 61.6C110.9 61.5 111 61.5 111.2 61.4C112.5 61.6 114.8 61.8 117.7 60.4C119.7 59.5 121.8 58.3 123.7 56.7C125.2 55.5 126.7 54.1 128 52.6C126.9 50.9 127.2 48.1 128 46.4C128 46.8 128.3 47.2 128.3 47.5C128.4 47.2 128.7 46.8 128.8 46.5C128.8 46.6 128.8 46.8 128.9 46.9L129.1 46.5C128.7 45.3 129.7 43.1 129.8 41.7C129.8 42.1 129.9 42.5 130 42.9C131.2 41.7 130.8 39 131.2 37.4C132 41.5 131.7 46.3 129.5 49.9C129.5 48.5 129.5 47.1 129.5 45.7C128.9 47.5 129 49.7 128.7 51.6C128.8 51.5 128.9 51.4 129 51.2C130.5 49.1 131.6 46.9 132.2 44.7C132.5 43.6 132.7 42.5 132.8 41.6C132.9 40.7 132.9 39.8 132.7 39C133.3 37.7 133.6 36.2 133.7 34.8C133.7 33.1 133.6 31.9 133.3 31.1ZM50.6 18.9C50.7 18.8 50.8 18.8 51 18.7V18.8C50.8 18.8 50.7 18.8 50.6 18.9ZM99.6 47L99.1 46.9C99.8 46.7 100.2 46.9 100.8 46.4C100.8 46.6 100.7 46.6 100.6 46.8C101.6 46.6 102.4 46 103.2 45.4C103 45.7 102.8 46.1 102.5 46.4C103.3 45.7 104.1 44.8 104.9 44.3C103.7 47 101.7 46.3 99.6 47ZM110.6 35.6V35.4C111.5 34.6 110.6 33.4 110.5 32.3C113 32.8 111.4 38.1 110.9 39.7C111 39.1 111 38.6 111 38.1C110.8 38.4 110.6 38.7 110.5 39C110.6 37.8 110.6 36.7 110.6 35.6Z" fill="white"/>
<path d="M88.5 60.9C88.8 61 89 61.1 89.3 61.2C88.6 60.4 87.9 59.5 87.1 58.7C87.5 59.4 88.1 60.1 88.5 60.9Z" fill="white"/>
<path d="M123.8 10.4C122.8 9.39998 123.7 9.79998 123.9 9.59998C123.5 8.79998 121.9 7.99998 121.3 7.59998C121.8 8.69998 122.8 9.49998 123.8 10.4Z" fill="white"/>
</svg>
