<svg xmlns="http://www.w3.org/2000/svg" width="395.739" height="41.81" viewBox="0 0 395.739 41.81"><path fill="#0F4C95" d="M20.54 25.117L30.06 1.3h11.076L24.39 40.51h-7.905L0 1.3h11.077M84.073 20.177c0 12.688-9.1 21.633-21.684 21.633-12.586 0-21.686-8.945-21.686-21.633C40.704 8.32 51.104 0 62.39 0c11.283 0 21.683 8.32 21.683 20.177m-32.76.052c0 6.76 4.99 11.7 11.076 11.7 6.083 0 11.075-4.94 11.075-11.7 0-5.41-4.992-10.35-11.076-10.35-6.086 0-11.078 4.94-11.078 10.35M117.832 14.457c-2.08-2.81-5.46-4.316-8.944-4.316-6.24 0-10.452 4.785-10.452 10.87 0 6.187 4.264 10.66 10.608 10.66 3.328 0 6.656-1.612 8.788-4.16v12.22c-3.38 1.04-5.824 1.82-8.996 1.82-5.46 0-10.66-2.08-14.717-5.773-4.317-3.9-6.293-8.996-6.293-14.82 0-5.356 2.028-10.504 5.773-14.353C97.447 2.652 103.012.26 108.524.26c3.276 0 6.292.728 9.308 1.976v12.22zM158.132 1.3v22.05c0 5.043-.208 10.035-4.108 13.83-3.276 3.225-8.424 4.37-13 4.37-4.577 0-9.725-1.145-13-4.37-3.9-3.795-4.11-8.787-4.11-13.83V1.3h10.193v20.645c0 5.096.364 10.66 6.917 10.66 6.55 0 6.916-5.564 6.916-10.66V1.3h10.192zM186.107 11.39c-1.872-1.56-4.264-2.6-6.76-2.6-1.872 0-4.368 1.09-4.368 3.275 0 2.288 2.755 3.172 4.523 3.744l2.6.78c5.46 1.61 9.672 4.367 9.672 10.712 0 3.9-.936 7.904-4.056 10.556-3.07 2.6-7.177 3.692-11.13 3.692-4.94 0-9.776-1.664-13.78-4.472l4.368-8.216c2.548 2.236 5.565 4.056 9.05 4.056 2.39 0 4.94-1.196 4.94-3.952 0-2.86-4.005-3.848-6.19-4.473-6.395-1.82-10.608-3.484-10.608-11.076C164.37 5.46 170.04.26 177.89.26c3.953 0 8.79 1.25 12.273 3.225l-4.056 7.904z"/><path fill="#66C5E9" d="M239.28 18.617c-.103 5.72-.52 10.608-4.003 15.496-3.848 5.356-9.62 7.696-16.172 7.696-12.324 0-20.905-8.373-20.905-20.697C198.2 8.373 206.832 0 219.47 0c8.06 0 14.298 3.64 17.68 10.973l-9.674 4.056c-1.404-3.745-4.368-6.24-8.476-6.24-6.707 0-10.192 6.395-10.192 12.375 0 6.084 3.64 12.272 10.348 12.272 4.42 0 7.8-2.288 8.216-6.812h-8.32v-8.008h20.23zM276.562 40.51h-12.688l-9.62-15.08h-.104v15.08h-10.192V1.3h15.236c7.748 0 13.624 3.693 13.624 12.065 0 5.408-3.016 10.088-8.58 11.076l12.324 16.07zM254.15 18.876h.988c3.328 0 7.072-.624 7.072-4.888 0-4.265-3.744-4.89-7.072-4.89h-.988v9.777zM320.708 20.178c0 12.688-9.1 21.632-21.684 21.632-12.584 0-21.684-8.944-21.684-21.632 0-11.856 10.4-20.176 21.684-20.176s21.684 8.32 21.684 20.176m-32.76.052c0 6.76 4.992 11.7 11.076 11.7 6.084 0 11.077-4.94 11.077-11.7 0-5.408-4.992-10.348-11.076-10.348-6.084 0-11.076 4.94-11.076 10.348M359.446 1.3v22.05c0 5.043-.208 10.035-4.108 13.83-3.276 3.225-8.424 4.37-13 4.37-4.577 0-9.725-1.145-13-4.37-3.9-3.795-4.11-8.787-4.11-13.83V1.3h10.194v20.645c0 5.096.364 10.66 6.916 10.66s6.916-5.564 6.916-10.66V1.3h10.192zM365.89 1.3h15.6c8.425 0 14.25 3.9 14.25 12.897 0 9.256-4.993 13.312-13.885 13.312h-5.772v13H365.89V1.3zm10.193 17.993h1.716c3.69 0 7.33 0 7.33-4.784 0-4.94-3.38-4.993-7.33-4.993h-1.717v9.776z"/></svg>