<svg width="324" height="290" xmlns="http://www.w3.org/2000/svg" xmlns:xlink="http://www.w3.org/1999/xlink"><svg width="32" height="32" id="ic_action_arrow" x="138.3" y="203.93" xmlns="http://www.w3.org/2000/svg"><path d="M16 0a16 16 0 1 0 16 16A16 16 0 0 0 16 0zm0 30a14 14 0 1 1 14-14 14 14 0 0 1-14 14z" fill="#009fee"/><path d="M18.7 9.29a1 1 0 0 0-1.41 1.41l3.93 3.93a.22.22 0 0 1 0 .3.21.21 0 0 1-.15.07H8a1 1 0 0 0 0 2h13.07a.22.22 0 0 1 .21.2.2.2 0 0 1-.06.15l-3.93 3.93a1 1 0 1 0 1.3 1.52l.11-.11 6-6 .7-.71-.71-.71z" fill="#009fee"/></svg><svg width="32" height="32" id="ic_action_arrow_dark" x="132.2" y="237.73" xmlns="http://www.w3.org/2000/svg"><path d="M16 0a16 16 0 1 0 16 16A16 16 0 0 0 16 0zm0 30a14 14 0 1 1 14-14 14 14 0 0 1-14 14z" fill="#093f78"/><path d="M18.7 9.29a1 1 0 0 0-1.41 1.41l3.93 3.93a.22.22 0 0 1 0 .3.21.21 0 0 1-.15.07H8a1 1 0 0 0 0 2h13.07a.22.22 0 0 1 .21.2.2.2 0 0 1-.06.15l-3.93 3.93a1 1 0 1 0 1.3 1.52l.11-.11 6-6 .7-.71-.71-.71z" fill="#093f78"/></svg><svg width="32" height="32" id="ic_action_arrow_white" x="170.3" y="203.93" xmlns="http://www.w3.org/2000/svg"><path d="M16 0a16 16 0 1 0 16 16A16 16 0 0 0 16 0zm0 30a14 14 0 1 1 14-14 14 14 0 0 1-14 14z" fill="#fff"/><path d="M18.7 9.29a1 1 0 0 0-1.41 1.41l3.93 3.93a.22.22 0 0 1 0 .3.21.21 0 0 1-.15.07H8a1 1 0 0 0 0 2h13.07a.22.22 0 0 1 .21.2.2.2 0 0 1-.06.15l-3.93 3.93a1 1 0 1 0 1.3 1.52l.11-.11 6-6 .7-.71-.71-.71z" fill="#fff"/></svg><svg width="32" height="32" id="ic_action_dollarSign" x="202.3" y="203.93" xmlns="http://www.w3.org/2000/svg"><path d="M16 0a16 16 0 1 0 16 16A16 16 0 0 0 16 0zm0 30a14 14 0 1 1 14-14 14 14 0 0 1-14 14z" fill="#009fee"/><path d="M19.66 14.08a1.43 1.43 0 0 1 .19 0c.82 0 1-.72 1-1.24a4.1 4.1 0 0 0-.41-1.76A4.91 4.91 0 0 0 17 8.56V7.39a1 1 0 0 0-1-1c-.36 0-1 .24-1 .82v1.36c-2 .32-3 1.52-4 3.87v.82a5.42 5.42 0 0 0 .4 1.18 4.53 4.53 0 0 0 .59.88 4.76 4.76 0 0 0 1.85 1.26c.37.17 1.16.27 1.16.37v4.93a2 2 0 0 1-1.71-1.48 3.13 3.13 0 0 1-.19-.88 1.84 1.84 0 0 0 0-.38 1 1 0 0 0-1.06-.86c-.42 0-1.06.32-1.06.9v.7a7.34 7.34 0 0 0 .42 1.28 5.13 5.13 0 0 0 3.6 2.69v.9a1 1 0 0 0 .74.78h.25a1 1 0 0 0 1-1v-.75a4.33 4.33 0 0 0 3.81-4.26 3.6 3.6 0 0 0-.8-2.38 4.35 4.35 0 0 0-1.92-1.36c-.34-.14-1.06-.25-1.06-.34v-4.92a2.25 2.25 0 0 1 2 2.14v.64c-.02.26.3.76.64.78zM15 15c-1-.37-1.93-.92-1.93-2.13A2.42 2.42 0 0 1 15 10.55zm3.71 3.63a1.31 1.31 0 0 1 .29.68v.58c0 1.11-1 1.76-2 2v-4.46a2.14 2.14 0 0 1 1.71 1.15z" fill="#009fee"/></svg><svg width="32" height="32" id="ic_action_dollarSign_dark" x="194.2" y="237.73" xmlns="http://www.w3.org/2000/svg"><path d="M16 0a16 16 0 1 0 16 16A16 16 0 0 0 16 0zm0 30a14 14 0 1 1 14-14 14 14 0 0 1-14 14z" fill="#093f78"/><path d="M19.66 14.08a1.43 1.43 0 0 1 .19 0c.82 0 1-.72 1-1.24a4.1 4.1 0 0 0-.41-1.76A4.91 4.91 0 0 0 17 8.56V7.39a1 1 0 0 0-1-1c-.36 0-1 .24-1 .82v1.36c-2 .32-3 1.52-4 3.87v.82a5.42 5.42 0 0 0 .4 1.18 4.53 4.53 0 0 0 .59.88 4.76 4.76 0 0 0 1.85 1.26c.37.17 1.16.27 1.16.37v4.93a2 2 0 0 1-1.71-1.48 3.13 3.13 0 0 1-.19-.88 1.84 1.84 0 0 0 0-.38 1 1 0 0 0-1.06-.86c-.42 0-1.06.32-1.06.9v.7a7.34 7.34 0 0 0 .42 1.28 5.13 5.13 0 0 0 3.6 2.69v.9a1 1 0 0 0 .74.78h.25a1 1 0 0 0 1-1v-.75a4.33 4.33 0 0 0 3.81-4.26 3.6 3.6 0 0 0-.8-2.38 4.35 4.35 0 0 0-1.92-1.36c-.34-.14-1.06-.25-1.06-.34v-4.92a2.25 2.25 0 0 1 2 2.14v.64c-.02.26.3.76.64.78zM15 15c-1-.37-1.93-.92-1.93-2.13A2.42 2.42 0 0 1 15 10.55zm3.71 3.63a1.31 1.31 0 0 1 .29.68v.58c0 1.11-1 1.76-2 2v-4.46a2.14 2.14 0 0 1 1.71 1.15z" fill="#093f78"/></svg><svg width="32" height="32" id="ic_action_dollarSign_white" x="226.2" y="237.73" xmlns="http://www.w3.org/2000/svg"><path d="M16 0a16 16 0 1 0 16 16A16 16 0 0 0 16 0zm0 30a14 14 0 1 1 14-14 14 14 0 0 1-14 14z" fill="#fff"/><path d="M19.66 14.08a1.43 1.43 0 0 1 .19 0c.82 0 1-.72 1-1.24a4.1 4.1 0 0 0-.41-1.76A4.91 4.91 0 0 0 17 8.56V7.39a1 1 0 0 0-1-1c-.36 0-1 .24-1 .82v1.36c-2 .32-3 1.52-4 3.87v.82a5.42 5.42 0 0 0 .4 1.18 4.53 4.53 0 0 0 .59.88 4.76 4.76 0 0 0 1.85 1.26c.37.17 1.16.27 1.16.37v4.93a2 2 0 0 1-1.71-1.48 3.13 3.13 0 0 1-.19-.88 1.84 1.84 0 0 0 0-.38 1 1 0 0 0-1.06-.86c-.42 0-1.06.32-1.06.9v.7a7.34 7.34 0 0 0 .42 1.28 5.13 5.13 0 0 0 3.6 2.69v.9a1 1 0 0 0 .74.78h.25a1 1 0 0 0 1-1v-.75a4.33 4.33 0 0 0 3.81-4.26 3.6 3.6 0 0 0-.8-2.38 4.35 4.35 0 0 0-1.92-1.36c-.34-.14-1.06-.25-1.06-.34v-4.92a2.25 2.25 0 0 1 2 2.14v.64c-.02.26.3.76.64.78zM15 15c-1-.37-1.93-.92-1.93-2.13A2.42 2.42 0 0 1 15 10.55zm3.71 3.63a1.31 1.31 0 0 1 .29.68v.58c0 1.11-1 1.76-2 2v-4.46a2.14 2.14 0 0 1 1.71 1.15z" fill="#fff"/></svg><svg width="32" height="32" id="ic_action_phone" x="258.2" y="237.73" xmlns="http://www.w3.org/2000/svg"><path d="M16 0a16 16 0 1 0 16 16A16 16 0 0 0 16 0zm0 30a14 14 0 1 1 14-14 14 14 0 0 1-14 14z" fill="#009fee"/><path d="M22.23 8H19.5a1.69 1.69 0 0 0-1.28.56 1.74 1.74 0 0 0-.49 1.2 7.78 7.78 0 0 1-.4 2.49 1.74 1.74 0 0 0 .44 1.75l2.32 2.33a12 12 0 0 1-3.72 3.72l-2.29-2.27a1.63 1.63 0 0 0-1.87-.47 7.9 7.9 0 0 1-2.45.38 1.71 1.71 0 0 0-1.19.48A1.69 1.69 0 0 0 8 19.5v2.73A1.81 1.81 0 0 0 9.76 24a14.14 14.14 0 0 0 12.33-7.08A14 14 0 0 0 24 9.76a1.7 1.7 0 0 0-.53-1.23A1.74 1.74 0 0 0 22.23 8zM10 22v-2.27a9.62 9.62 0 0 0 2.72-.45l1.79 1.78A12 12 0 0 1 10 22zm11.07-7.49l-1.79-1.78a9.57 9.57 0 0 0 .45-2.73H22a12.11 12.11 0 0 1-.93 4.51z" fill="#009fee"/></svg><svg width="32" height="32" id="ic_action_phone_dark" x="291.7" xmlns="http://www.w3.org/2000/svg"><path d="M16 0a16 16 0 1 0 16 16A16 16 0 0 0 16 0zm0 30a14 14 0 1 1 14-14 14 14 0 0 1-14 14z" fill="#093f78"/><path d="M22.23 8H19.5a1.69 1.69 0 0 0-1.28.56 1.74 1.74 0 0 0-.49 1.2 7.78 7.78 0 0 1-.4 2.49 1.74 1.74 0 0 0 .44 1.75l2.32 2.33a12 12 0 0 1-3.72 3.72l-2.29-2.27a1.63 1.63 0 0 0-1.87-.47 7.9 7.9 0 0 1-2.45.38 1.71 1.71 0 0 0-1.19.48A1.69 1.69 0 0 0 8 19.5v2.73A1.81 1.81 0 0 0 9.76 24a14.14 14.14 0 0 0 12.33-7.08A14 14 0 0 0 24 9.76a1.7 1.7 0 0 0-.53-1.23A1.74 1.74 0 0 0 22.23 8zM10 22v-2.27a9.62 9.62 0 0 0 2.72-.45l1.79 1.78A12 12 0 0 1 10 22zm11.07-7.49l-1.79-1.78a9.57 9.57 0 0 0 .45-2.73H22a12.11 12.11 0 0 1-.93 4.51z" fill="#093f78"/></svg><svg width="32" height="32" id="ic_action_phone_white" x="106.3" y="203.93" xmlns="http://www.w3.org/2000/svg"><path d="M16 0a16 16 0 1 0 16 16A16 16 0 0 0 16 0zm0 30a14 14 0 1 1 14-14 14 14 0 0 1-14 14z" fill="#fff"/><path d="M22.23 8H19.5a1.69 1.69 0 0 0-1.28.56 1.74 1.74 0 0 0-.49 1.2 7.78 7.78 0 0 1-.4 2.49 1.74 1.74 0 0 0 .44 1.75l2.32 2.33a12 12 0 0 1-3.72 3.72l-2.29-2.27a1.63 1.63 0 0 0-1.87-.47 7.9 7.9 0 0 1-2.45.38 1.71 1.71 0 0 0-1.19.48A1.69 1.69 0 0 0 8 19.5v2.73A1.81 1.81 0 0 0 9.76 24a14.14 14.14 0 0 0 12.33-7.08A14 14 0 0 0 24 9.76a1.7 1.7 0 0 0-.53-1.23A1.74 1.74 0 0 0 22.23 8zM10 22v-2.27a9.62 9.62 0 0 0 2.72-.45l1.79 1.78A12 12 0 0 1 10 22zm11.07-7.49l-1.79-1.78a9.57 9.57 0 0 0 .45-2.73H22a12.11 12.11 0 0 1-.93 4.51z" fill="#fff"/></svg><svg data-name="Layer 1" width="19.97" height="20.1" id="ic_arrow_left" x="291.7" y="217.06" xmlns="http://www.w3.org/2000/svg"><path d="M9.99 0a10.05 10.05 0 1 1-10 10.05A10 10 0 0 1 9.99 0zm0 18.1a8.05 8.05 0 1 0-8-8.05 8 8 0 0 0 8 8.05z" fill="#009fee"/><path d="M4.28 9.4a1 1 0 0 0 0 1.41l4 4A1 1 0 0 0 9.7 13.4l-2.3-2.3h7.59a1 1 0 1 0 0-2H7.4l2.3-2.29A1 1 0 1 0 8.28 5.4z" fill="#009fee"/></svg><svg data-name="Layer 1" width="19.97" height="20.1" id="ic_arrow_right" x="291.7" y="237.16" xmlns="http://www.w3.org/2000/svg"><path d="M9.99 20.1a10.05 10.05 0 1 1 10-10.05 10 10 0 0 1-10 10.05zm0-18.1a8.05 8.05 0 1 0 8 8.05 8 8 0 0 0-8-8.05z" fill="#009fee"/><path d="M15.7 10.71a1 1 0 0 0 0-1.41l-4-4a1 1 0 0 0-1.41 1.41L12.58 9H4.99a1 1 0 0 0 0 2h7.59l-2.29 2.29a1 1 0 1 0 1.41 1.41z" fill="#009fee"/></svg><svg id="ic_document" width="39.7" height="46.4" x="216" xmlns="http://www.w3.org/2000/svg"><style>.alst1{fill:#121833}</style><path d="M29.8 2.8h-27v34.8h26.9V2.8h.1zm-22.9 5c0-.8.9-1.3 1.6-.9l2.2 1.4c.7.4 1.5.5 2.3.2l2.4-.9c.6-.2 1.2-.2 1.7 0l3.1 1c.8.3 1.8.1 2.5-.5l1.1-.9c.7-.5 1.7-.1 1.7.8v8.6H6.9V7.8zm2.7 25.1c0 .8-.6 1.4-1.4 1.4s-1.4-.6-1.4-1.4V22.6c0-.8.6-1.4 1.4-1.4s1.4.6 1.4 1.4v10.3zm5.4 0c0 .8-.6 1.4-1.4 1.4s-1.4-.6-1.4-1.4v-5.8c0-.8.6-1.4 1.4-1.4s1.4.6 1.4 1.4v5.8zm5.4 0c0 .8-.6 1.4-1.4 1.4s-1.4-.6-1.4-1.4V22.7c0-.8.6-1.4 1.4-1.4s1.4.6 1.4 1.4v10.2zm5.4 0c0 .8-.6 1.4-1.4 1.4s-1.4-.6-1.4-1.4v-4.3c0-.8.6-1.4 1.4-1.4s1.4.6 1.4 1.4v4.3z" fill="none"/><path class="alst1" d="M9.6 46.4h30.2V5.9h-7.2V0H0v40.5h7.1v3.4c0 .7.3 1.3.8 1.8.4.5 1 .7 1.7.7zm-6.8-8.7V2.8h26.9v34.8H2.8v.1zm29.7.6V8.8h4.2v34.8H19.5l11.1-2.9c.6-.1 1.1-.5 1.4-1 .3-.4.5-.9.5-1.4z"/><path class="alst1" d="M8.2 21.2c-.8 0-1.4.6-1.4 1.4v10.3c0 .8.6 1.4 1.4 1.4s1.4-.6 1.4-1.4V22.6c0-.8-.6-1.4-1.4-1.4zm5.4 4.5c-.8 0-1.4.6-1.4 1.4v5.8c0 .8.6 1.4 1.4 1.4s1.4-.6 1.4-1.4v-5.8c0-.8-.6-1.4-1.4-1.4zm5.4-4.4c-.8 0-1.4.6-1.4 1.4v10.2c0 .8.6 1.4 1.4 1.4s1.4-.6 1.4-1.4V22.7c0-.8-.6-1.4-1.4-1.4zm5.4 5.9c-.8 0-1.4.6-1.4 1.4v4.3c0 .8.6 1.4 1.4 1.4s1.4-.6 1.4-1.4v-4.3c0-.8-.7-1.4-1.4-1.4zm1-19.1c0-.9-1-1.3-1.7-.8l-1.1.9c-.7.6-1.6.7-2.5.5l-3.1-1c-.6-.2-1.2-.2-1.7 0l-2.4.9c-.8.3-1.6.2-2.3-.2L8.4 6.9c-.7-.4-1.5.1-1.5.9v8.9h18.5V8.1z"/></svg><svg width="30" height="32" id="ic_document_white" x="164.2" y="237.73" xmlns="http://www.w3.org/2000/svg"><g transform="translate(1)" fill="#FFF"><use xlink:href="#ampath0_fill"/><use xlink:href="#ampath1_fill"/><use xlink:href="#ampath2_fill"/><use xlink:href="#ampath3_fill"/><use xlink:href="#ampath4_fill"/><use xlink:href="#ampath5_fill"/></g><defs><path id="ampath0_fill" d="M19 5.087a.5.5 0 0 0-.825-.38L16.316 6.3a1.997 1.997 0 0 1-1.85.404l-1.432-.408a1.999 1.999 0 0 0-1.85.404L9.316 8.3a1.997 1.997 0 0 1-1.85.404l-1.828-.522A.5.5 0 0 0 5 8.663V12h14V5.087z"/><path id="ampath1_fill" d="M5 16a1 1 0 1 1 2 0v6a1 1 0 1 1-2 0v-6z"/><path id="ampath2_fill" d="M9 18a1 1 0 1 1 2 0v4a1 1 0 1 1-2 0v-4z"/><path id="ampath3_fill" d="M14 15a1 1 0 0 0-1 1v6a1 1 0 1 0 2 0v-6a1 1 0 0 0-1-1z"/><path id="ampath4_fill" d="M17 18a1 1 0 1 1 2 0v4a1 1 0 1 1-2 0v-4z"/><path id="ampath5_fill" fill-rule="evenodd" d="M4.995 31a1 1 0 0 0 1 1H28a1 1 0 0 0 1-1V5a1 1 0 0 0-1-1h-4V1a1 1 0 0 0-1-1H1a1 1 0 0 0-1 1v26a1 1 0 0 0 1 1h3.995v3zM2 26V2h20v24H2zm20.36 2.3A2 2 0 0 0 24 26.332V6h3v24.009H13l9.36-1.71z"/></defs></svg><svg data-name="Layer 1" width="14" height="14" id="ic_down" x="61" y="273.73" xmlns="http://www.w3.org/2000/svg"><path d="M13.7 6.3a1 1 0 0 0-1.4 0L8 10.6V1a1 1 0 0 0-1-1 .94.94 0 0 0-1 1v9.6L1.7 6.3a1 1 0 0 0-1.4 0 1 1 0 0 0 0 1.4l6 6a1 1 0 0 0 1.4 0l6-6a1 1 0 0 0 0-1.4z" fill="#b2b2b2"/></svg><svg version="1.2" baseProfile="tiny" width="16" height="16" id="ic_drop" x="16" y="273.73" xmlns="http://www.w3.org/2000/svg"><path fill="#FFF" d="M14.7 6.3c-.4-.4-1-.4-1.4 0L9 10.6V1c0-.5-.4-1-1-1S7 .4 7 1v9.6L2.7 6.3c-.4-.4-1-.4-1.4 0s-.4 1 0 1.4l6 6c.2.2.4.3.7.3s.5-.1.7-.3l6-6c.4-.4.4-1 0-1.4z"/></svg><svg data-name="Layer 1" width="33.51" height="33.6" id="ic_facebookHandle" x="129.46" y="157.83" xmlns="http://www.w3.org/2000/svg"><path d="M31.5 0H2.1A2 2 0 0 0 0 2v29.5a2.18 2.18 0 0 0 2.1 2.1H18v-13h-4.2v-5.1H18v-4.1C18 7.6 20.3 5 24.9 5a26.59 26.59 0 0 1 3.4.2v4.5h-3.1a1.9 1.9 0 0 0-2.1 2.1v3.7h4.8l-.7 5.1H23v13h8.4a2.05 2.05 0 0 0 2.1-2.1V2a1.94 1.94 0 0 0-2-2z" fill="#009fee"/></svg><svg id="ic_facebookHandle_white" width="34" height="34" x="72" y="237.73" xmlns="http://www.w3.org/2000/svg"><path d="M31.7.2H2.3C1.1.2.2 1.1.2 2.2v29.5c0 1.1 1 2.1 2.1 2.1h15.9v-13H14v-5.1h4.2v-4.1c0-3.8 2.3-6.4 6.9-6.4 2 0 3.4.2 3.4.2v4.5h-3.1c-1.4 0-2.1.8-2.1 2.1v3.7h4.8l-.7 5.1h-4.2v13h8.4c1.2 0 2.1-.9 2.1-2.1V2.2c.1-1.1-.9-2-2-2z" fill-rule="evenodd" clip-rule="evenodd" fill="#fff"/></svg><svg data-name="Layer 1" width="16" height="16" id="ic_focus" x="234.3" y="219.93" xmlns="http://www.w3.org/2000/svg"><path d="M15.94 7.66C14.46 3.55 11.42 1 8 1S1.54 3.55.06 7.66a1 1 0 0 0 0 .68C1.54 12.45 4.58 15 8 15s6.46-2.55 7.94-6.66a1 1 0 0 0 0-.68zM8 13c-2.46 0-4.71-1.91-5.93-5C3.29 4.91 5.54 3 8 3s4.71 1.91 5.93 5c-1.22 3.09-3.47 5-5.93 5z" fill="#009fee"/><path d="M8 4a4 4 0 1 0 4 4 4 4 0 0 0-4-4zm0 6a2 2 0 1 1 2-2 2 2 0 0 1-2 2z" fill="#009fee"/></svg><svg version="1.2" baseProfile="tiny" width="40.6" height="33.8" id="ic_githubHandle_white" y="203.93" xmlns="http://www.w3.org/2000/svg"><path fill-rule="evenodd" fill="#FFF" d="M26.6 19.5c-1.2 0-2.1.8-2.1 3.8s.9 3.8 2.1 3.8c1.2 0 2.1-.8 2.1-3.8.1-3-.9-3.8-2.1-3.8zm-12.6 0c-1.2 0-2.1.8-2.1 3.8s.9 3.8 2.1 3.8c1.2 0 2.1-.8 2.1-3.8s-1-3.8-2.1-3.8zm21.2 3.3c0-5.9-4.8-7.2-7.3-7.2s-2.5.4-7.6.4-5.1-.4-7.6-.4-7.3 1.3-7.3 7.2c0 5.1 3.9 8.5 14.9 8.5s14.9-3.4 14.9-8.5zm5.4-5.1c0 11.9-7.6 16.1-20.3 16.1C7.6 33.8 0 29.6 0 17.8c0-3.3 1.1-6.2 3-8.5-.5-2.3-.9-6.2.4-9.3 4 .3 7.1 2.2 8.8 3.6 2.4-.7 5.2-1 8.1-1 2.9 0 5.6.4 8 1C30.1 2.2 33.2.4 37.2 0c1.3 3.1.8 7 .4 9.2 1.9 2.4 3 5.2 3 8.5z"/></svg><svg width="39" height="24.77" id="ic_googlePlusHandle" x="216" y="46.4" xmlns="http://www.w3.org/2000/svg"><path d="M12.39 9.94v4.91h6.7c-1 3.18-2.68 4.91-6.7 4.91a7.25 7.25 0 0 1-7.24-7.37 7.25 7.25 0 0 1 7.24-7.36 7 7 0 0 1 4.81 1.81c1-1 .93-1.16 3.53-3.61a12.39 12.39 0 1 0-8.34 21.55c10.23 0 12.72-8.9 11.9-14.84zm22.32.25v-4.3h-3.07v4.29h-4.41v3.07h4.42v4.42h3.07v-4.42H39v-3.07z" fill="#009fee"/></svg><svg id="ic_googlePlusHandle_white" width="39" height="33.8" x="216" y="71.17" xmlns="http://www.w3.org/2000/svg"><path d="M12.4 14.4v4.9h6.7c-1 3.2-2.7 4.9-6.7 4.9-4.1 0-7.2-3.3-7.2-7.4 0-4.1 3.2-7.4 7.2-7.4 2.1 0 3.5.8 4.8 1.8 1-1 .9-1.2 3.5-3.6-2.2-2-5.1-3.2-8.3-3.2C5.5 4.5 0 10.1 0 16.9s5.5 12.4 12.4 12.4c10.2 0 12.7-8.9 11.9-14.8-2.4-.1-11.9-.1-11.9-.1zm22.3.3v-4.3h-3.1v4.3h-4.4v3.1h4.4v4.4h3.1v-4.4H39v-3.1h-4.3z" fill="#fff"/></svg><svg version="1.2" baseProfile="tiny" width="33.7" height="33.8" id="ic_instagramHandle_white" x="40.6" y="203.93" xmlns="http://www.w3.org/2000/svg"><path fill-rule="evenodd" fill="#FFF" d="M10.5 16.9c0-3.5 2.8-6.3 6.3-6.3s6.3 2.9 6.3 6.3c0 3.5-2.9 6.3-6.3 6.3s-6.3-2.8-6.3-6.3zm23.2-3.5v15.5c0 2.7-2.2 4.9-4.9 4.9H4.9c-2.7 0-4.9-2.2-4.9-4.9V13.4h8.4c-.5 1.1-.7 2.3-.7 3.5 0 5 4.1 9.1 9.1 9.1s9.1-4.1 9.1-9.1c0-1.2-.2-2.4-.7-3.5h8.5zm0-2.8H23.5c-1.7-1.7-4-2.8-6.6-2.8-2.6 0-4.9 1.1-6.6 2.8H0V4.9C0 2.2 2.2 0 4.9 0h23.9c2.7 0 4.9 2.2 4.9 4.9v5.7z"/></svg><svg width="36" height="36" id="ic_large_blue" x="216" y="138.97" xmlns="http://www.w3.org/2000/svg"><g fill="none" fill-rule="evenodd"><circle fill="#DBF6FF" cx="18" cy="18" r="18"/><g stroke="#009EF1" stroke-width="2"><path d="M14 7h8v5h-8zm-3 5h14v8H11zm14-5h5v5h-5zm0 8h5v5h-5zm0 8h5v5h-5zm-11 0h8v8h-8zm-8 0h5v5H6zm0-8h5v5H6zm0-8h5v5H6zM3 1h30v3H3z"/><path d="M3 4h30v27H3z"/><path stroke-linecap="round" stroke-linejoin="round" d="M14 17l2-2 2 2 2-2 2 2"/></g></g></svg><svg id="ic_large_dark" width="36" height="36" x="255.7" xmlns="http://www.w3.org/2000/svg"><style>.axst1{fill:none;stroke:#093f78;stroke-width:2}</style><g id="axPage-1"><g id="axic_large_blue"><circle id="axOval-Copy-2" cx="18" cy="18" r="18" opacity=".35" fill="#99e5ff"/><g id="axGroup-2" transform="translate(3 1)"><path id="axRectangle-9-Copy" class="axst1" d="M11 6h8v5h-8z"/><path id="axRectangle-20-Copy" class="axst1" d="M8 11h14v8H8z"/><path id="axRectangle-10-Copy" class="axst1" d="M22 6h5v5h-5z"/><path id="axRectangle-11-Copy" class="axst1" d="M22 14h5v5h-5z"/><path id="axRectangle-12-Copy" class="axst1" d="M22 22h5v5h-5z"/><path id="axRectangle-13-Copy" class="axst1" d="M11 22h8v8h-8z"/><path id="axRectangle-15-Copy" class="axst1" d="M3 22h5v5H3z"/><path id="axRectangle-16-Copy" class="axst1" d="M3 14h5v5H3z"/><path id="axRectangle-17-Copy" class="axst1" d="M3 6h5v5H3z"/><path id="axRectangle-18-Copy" class="axst1" d="M0 0h30v3H0z"/><path id="axRectangle-19-Copy" class="axst1" d="M0 3h30v27H0z"/><path id="axPath-5-Copy-4" d="M11 16l2-2 2 2 2-2 2 2" stroke-linecap="round" stroke-linejoin="round" fill="none" stroke="#093f78" stroke-width="2"/></g></g></g></svg><svg width="36" height="36" id="ic_large_grey" x="255.7" y="36" xmlns="http://www.w3.org/2000/svg"><g fill="none" fill-rule="evenodd"><circle fill-opacity=".05" fill="#FFF" cx="18" cy="18" r="18"/><g stroke="#E2E2E2" stroke-width="2"><path d="M14 7h8v5h-8zm-3 5h14v8H11zm14-5h5v5h-5zm0 8h5v5h-5zm0 8h5v5h-5zm-11 0h8v8h-8zm-8 0h5v5H6zm0-8h5v5H6zm0-8h5v5H6zM3 1h30v3H3z"/><path d="M3 4h30v27H3z"/><path stroke-linecap="round" stroke-linejoin="round" d="M14 17l2-2 2 2 2-2 2 2"/></g></g></svg><svg width="14" height="14" id="ic_lead" x="47" y="273.73" xmlns="http://www.w3.org/2000/svg"><path d="M6.3.3a1 1 0 0 0 0 1.4L10.6 6H1a1 1 0 0 0-1 1 .94.94 0 0 0 1 1h9.6l-4.3 4.3a1 1 0 0 0 1.4 1.4l6-6a1 1 0 0 0 0-1.4l-6-6a1 1 0 0 0-1.4 0z" fill="#fff"/></svg><svg data-name="Layer 1" width="32" height="32" id="ic_leadin_left" x="291.7" y="32" xmlns="http://www.w3.org/2000/svg"><path d="M16 0A16 16 0 1 1 0 16 16 16 0 0 1 16 0zm0 30A14 14 0 1 0 2 16a14 14 0 0 0 14 14z" fill="#009fee"/><path d="M7.29 15.29l-.7.71.71.71 6 6a1 1 0 0 0 1.41-1.41l-3.93-3.93a.22.22 0 0 1 0-.3.22.22 0 0 1 .15-.07H24a1 1 0 0 0 0-2H10.93a.21.21 0 0 1-.21-.2.2.2 0 0 1 .06-.15l3.93-3.93a1 1 0 1 0-1.3-1.52l-.11.11-6 6z" fill="#009fee"/></svg><svg id="ic_leadin_left_white" width="32" height="32" x="291.7" y="64" xmlns="http://www.w3.org/2000/svg"><style>.bbst0{fill:#fff}</style><path class="bbst0" d="M16 0c8.8 0 16 7.2 16 16s-7.2 16-16 16S0 24.8 0 16 7.2 0 16 0zm0 30c7.7 0 14-6.3 14-14S23.7 2 16 2 2 8.3 2 16s6.3 14 14 14z"/><path class="bbst0" d="M7.3 15.3l-.7.7.7.7 6 6c.4.4 1.1.3 1.4-.1.3-.4.3-.9 0-1.3l-3.9-3.9c-.1-.1-.1-.2 0-.3 0 0 .1-.1.2-.1h13c.6 0 1-.4 1-1s-.4-1-1-1H10.9c-.1 0-.2-.1-.2-.2s0-.1.1-.1l3.9-3.9c.4-.4.5-1 .1-1.4s-1-.5-1.4-.1l-.1.1-6 5.9z"/></svg><svg data-name="Layer 1" width="32" height="32" id="ic_leadin_right" x="162.97" y="157.83" xmlns="http://www.w3.org/2000/svg"><path d="M16 32a16 16 0 1 1 16-16 16 16 0 0 1-16 16zm0-30a14 14 0 1 0 14 14A14 14 0 0 0 16 2z" fill="#009fee"/><path d="M24.71 16.71l.7-.71-.71-.71-6-6a1 1 0 0 0-1.41 1.41l3.93 3.93a.22.22 0 0 1 0 .3.22.22 0 0 1-.15.07H8a1 1 0 0 0 0 2h13.07a.21.21 0 0 1 .21.2.2.2 0 0 1-.06.15l-3.93 3.93a1 1 0 1 0 1.3 1.52l.11-.11 6-6z" fill="#009fee"/></svg><svg id="ic_leadin_right_white" width="32" height="32" x="74.3" y="203.93" xmlns="http://www.w3.org/2000/svg"><style>.bdst0{fill:#fff}</style><path class="bdst0" d="M16 32C7.2 32 0 24.8 0 16S7.2 0 16 0s16 7.2 16 16-7.2 16-16 16zm0-30C8.3 2 2 8.3 2 16s6.3 14 14 14 14-6.3 14-14S23.7 2 16 2z"/><path class="bdst0" d="M24.7 16.7l.7-.7-.7-.7-6-6c-.4-.4-1.1-.3-1.4.1-.3.4-.3.9 0 1.3l3.9 3.9c.1.1.1.2 0 .3l-.1.1H8c-.6 0-1 .4-1 1s.4 1 1 1h13.1c.1 0 .2.1.2.2s0 .1-.1.1l-3.9 3.9c-.4.4-.5 1-.1 1.4s1 .5 1.4.1l.1-.1 6-5.9z"/></svg><svg data-name="Layer 1" width="34.5" height="33.8" id="ic_linkedInHandle" x="178.1" y="115.4" xmlns="http://www.w3.org/2000/svg"><path d="M19.4 20.8c0-2.9 1.8-4.3 4-4.3s3.9 1.4 3.9 5v12.2h7.2V20.8c0-6.5-3.6-10.1-8.6-10.1a7.74 7.74 0 0 0-6.5 3.8l-.2-3.1h-7.1c0 .8.1 5 .1 5v17.2h7.2zM7.9 11.5v22.3H.7V11.5zM4.2 7.9A4 4 0 0 1 0 4c0-2.2 1.7-4 4.4-4a4 4 0 0 1 4.3 4 4.2 4.2 0 0 1-4.5 3.9z" fill="#009fee"/></svg><svg version="1.2" baseProfile="tiny" width="34.5" height="33.8" id="ic_linkedInHandle_white" x="178.1" y="73" xmlns="http://www.w3.org/2000/svg"><path fill-rule="evenodd" fill="#FFF" d="M19.4 20.8c0-2.9 1.8-4.3 4-4.3s3.9 1.4 3.9 5v12.2h7.2V20.8c0-6.5-3.6-10.1-8.6-10.1-2.9 0-5 1.6-6.5 3.8l-.2-3.1h-7.1c0 .8.1 5 .1 5v17.2h7.2V20.8zM7.9 11.5v22.3H.7V11.5h7.2zM4.2 7.9C1.7 7.9 0 6.1 0 4c0-2.2 1.7-4 4.4-4C7 0 8.6 1.7 8.7 4c-.1 2.1-1.8 3.9-4.5 3.9z"/></svg><svg data-name="Layer 1" width="16" height="16" id="ic_login" x="216" y="174.97" xmlns="http://www.w3.org/2000/svg"><path d="M11.14 8.39A6.1 6.1 0 0 0 12 5c0-3.18-1.46-5-4-5S4 1.82 4 5a6.1 6.1 0 0 0 .86 3.4C1.53 9.3 0 11.66 0 14v2h16v-2c0-2.34-1.53-4.7-4.86-5.61zM8 2c.55 0 2 0 2 3S8.55 8 8 8 6 8 6 5s1.45-3 2-3zM2 14c0-2.43 2.36-4 6-4s6 1.57 6 4H2z" fill="#093f78"/></svg><svg data-name="Layer 1" width="130" height="42.43" id="ic_logo" y="115.4" xmlns="http://www.w3.org/2000/svg"><path d="M117.6 37.73c-.7 0-.8.9-.8 1.8s.2 1.8.8 1.8.8-.8.8-1.8-.1-1.8-.8-1.8zm-50.8 0c-.7 0-.8.9-.8 1.8s.2 1.8.8 1.8.8-.8.8-1.8-.1-1.8-.8-1.8zm38.8 2.9a.87.87 0 0 0 1 .9 1.27 1.27 0 0 0 .6-.1v-2c-.9.1-1.6.4-1.6 1.2z" fill="none"/><path d="M74.6 30.73a14.36 14.36 0 0 0 8.2-2.7l.2-.2v-5.3l-1 1a11 11 0 0 1-7.6 3.3 10.4 10.4 0 0 1-.1-20.8 11 11 0 0 1 7.7 3.3l1 1v-5.2l-.2-.1a13.24 13.24 0 0 0-8.2-2.7 14.3 14.3 0 0 0-14.3 14.3 13.7 13.7 0 0 0 4.3 10 13.9 13.9 0 0 0 10 4.1zm33.4-10.9V2.73h-4.1v16.7c0 1.9 0 3.9-1.2 5.3a6.49 6.49 0 0 1-4.8 2.1 6.22 6.22 0 0 1-4.9-2.3c-1.1-1.4-1.1-3.4-1-5.2V2.73h-4v17.1c0 2.8.2 5.6 2.8 8a10.39 10.39 0 0 0 14.7-.3c2.3-2.3 2.5-4.9 2.5-7.7zm22 2.2c0-4.6-3.3-6.5-6.7-7.9l-1.8-.8c-1.7-.8-3.8-1.7-3.8-3.6a3.62 3.62 0 0 1 3.8-3.5c1.8 0 3 .7 4.1 2.6l.3.5 3.3-2.1-.2-.5a8.12 8.12 0 0 0-7.3-4.4c-4.5 0-8 3.1-8 7.3s3 5.9 6.1 7.3l1.6.7.1.1c2.4 1.1 4.4 2 4.4 4.7a4.81 4.81 0 0 1-9.6.2l-.1-.6-4 1.1.1.5a8.81 8.81 0 0 0 8.8 7.3 9 9 0 0 0 8.9-8.9zm-118.5-.2L4.4 2.73H0l11.5 30.2 11.6-30.2h-4.4l-7.2 19.1zm31.7 7.5a1.92 1.92 0 0 0-1.5 2.4 2.13 2.13 0 0 0 2 1.6h.4a2.05 2.05 0 0 0-.9-4zm-5.8.1a1.904 1.904 0 1 0-.9 3.7c.1 0 .3.1.4.1a1.93 1.93 0 0 0 1.9-1.5 1.83 1.83 0 0 0-1.4-2.3zm11-2.7a2.2 2.2 0 0 0-.4 3 2.29 2.29 0 0 0 1.7.8 2.11 2.11 0 0 0 1.3-.5 2.1 2.1 0 1 0-2.6-3.3zm-18.8.4a1.76 1.76 0 0 0 .3 2.5 1.5 1.5 0 0 0 1.1.4 1.79 1.79 0 1 0-1.4-2.9zm25.3-6a2.24 2.24 0 1 0-2 4 1.8 1.8 0 0 0 1 .2 2.3 2.3 0 0 0 2-1.3 2.05 2.05 0 0 0-1-2.9zm-28.8.3a1.74 1.74 0 0 0 .7 3.3 1.85 1.85 0 0 0 .7-.2 1.77 1.77 0 0 0 .8-2.3 1.62 1.62 0 0 0-2.2-.8z" fill="#1a1f42"/><circle cx="55.5" cy="16.63" r="2.4" fill="#1a1f42"/><path d="M25.4 18.03a1.6 1.6 0 1 0-1.6-1.6 1.64 1.64 0 0 0 1.6 1.6zm26.7-6.6a2.33 2.33 0 0 0 2.1 1.3 2.92 2.92 0 0 0 .9-.2 2.26 2.26 0 0 0-1.9-4.1 2.31 2.31 0 0 0-1.1 3zm-24.3-3.1a1.722 1.722 0 0 0-1.5 3.1 1.88 1.88 0 0 0 .8.2 1.65 1.65 0 0 0 1.5-.9 1.92 1.92 0 0 0-.8-2.4zm22.3-1a2.09 2.09 0 0 0 1.6-.8 2.09 2.09 0 0 0-.3-3 2.09 2.09 0 0 0-3 .3 2.09 2.09 0 0 0 .3 3 2.39 2.39 0 0 0 1.4.5zm-19.9-4a1.76 1.76 0 0 0-.3 2.5 1.75 1.75 0 0 0 1.4.7 1.5 1.5 0 0 0 1.1-.4 1.76 1.76 0 0 0 .3-2.5 1.68 1.68 0 0 0-2.5-.3zM44.6.13a2.062 2.062 0 1 0-1 4c.2 0 .3.1.5.1a2.13 2.13 0 0 0 2-1.5 2.12 2.12 0 0 0-1.5-2.6zM37 .03a2 2 0 0 0-1.5 2.3 1.93 1.93 0 0 0 1.9 1.5h.4a2 2 0 0 0 1.5-2.3A2 2 0 0 0 37 .03zm61.8 34.5a.71.71 0 0 0-.8.7.81.81 0 0 0 1.6 0 .67.67 0 0 0-.8-.7zm14.9 0a.71.71 0 0 0-.8.7.77.77 0 0 0 .8.7.71.71 0 0 0 .8-.7.67.67 0 0 0-.8-.7zm-50.6 6.8c-.6 0-1-.6-1-1.8s.3-1.8 1-1.8a1.45 1.45 0 0 1 .7.2l.3-.9a2 2 0 0 0-1.3-.4c-1.2 0-2.3 1-2.3 2.8s1 2.9 2.3 2.9a1.8 1.8 0 0 0 1.3-.4l-.3-1a.75.75 0 0 1-.7.4zm3.7-4.6c-1.6 0-2.4 1.2-2.4 2.8s.8 2.9 2.4 2.9 2.4-1.2 2.4-2.9-.8-2.8-2.4-2.8zm0 4.6c-.7 0-.8-.8-.8-1.8s.1-1.8.8-1.8.8.9.8 1.8-.1 1.8-.8 1.8zm8.9-4.6a3.22 3.22 0 0 0-1.8.5 2.28 2.28 0 0 0-1.7-.5 4.56 4.56 0 0 0-2.2.4v5.2h1.6v-4.5a1.27 1.27 0 0 1 .6-.1.75.75 0 0 1 .9.7v3.9h1.6v-4.3a.91.91 0 0 1 .7-.3.67.67 0 0 1 .8.7v3.9h1.6v-3.9a2 2 0 0 0-2.1-1.7zm8.6 0a3.22 3.22 0 0 0-1.8.5 2.28 2.28 0 0 0-1.7-.5 4.56 4.56 0 0 0-2.2.4v5.2h1.6v-4.5a1.27 1.27 0 0 1 .6-.1.75.75 0 0 1 .9.7v3.9h1.6v-4.3a.91.91 0 0 1 .7-.3.67.67 0 0 1 .8.7v3.9h1.6v-3.9a2 2 0 0 0-2.1-1.7zm5.8 4.5a1.48 1.48 0 0 1-.7.1.71.71 0 0 1-.8-.7v-3.8H87v3.7c0 1.3.8 1.9 2.3 1.9a6.34 6.34 0 0 0 2.3-.4v-5.2H90l.1 4.4zm4.7-4.5a6.34 6.34 0 0 0-2.3.4v5.2h1.6v-4.5a1.48 1.48 0 0 1 .7-.1.73.73 0 0 1 .8.8v3.8h1.6v-3.9c0-.9-.6-1.7-2.4-1.7zm3.2.1h1.6v5.5H98zm4.9 4.5c-.6 0-1-.6-1-1.8s.3-1.8 1-1.8a1.45 1.45 0 0 1 .7.2l.3-.9a2 2 0 0 0-1.3-.4c-1.2 0-2.3 1-2.3 2.8s1 2.9 2.3 2.9a1.8 1.8 0 0 0 1.3-.4l-.3-1a.75.75 0 0 1-.7.4zm3.7-4.6a7 7 0 0 0-2.1.4l.3.9a3.19 3.19 0 0 1 1.4-.3c.6 0 1 .2 1 .7v.3c-1.7.2-3.1.6-3.1 2 0 1.1.8 1.7 2.4 1.7a6.17 6.17 0 0 0 2.2-.4v-3.3a1.82 1.82 0 0 0-2.1-2zm.6 4.7a.92.92 0 0 1-.6.1.87.87 0 0 1-1-.9c0-.9.6-1.1 1.6-1.2v2zm4.3-6.2l-1.6.4v1.2h-.6v1h.6v3a1.55 1.55 0 0 0 1.7 1.6 1.29 1.29 0 0 0 .8-.2v-1c-.1 0-.2.1-.3.1-.4 0-.5-.2-.5-.6v-2.8h.8v-1h-.8l-.1-1.7zm1.4 1.6h1.6v5.5h-1.6zm4.7-.1c-1.6 0-2.4 1.2-2.4 2.8s.8 2.9 2.4 2.9 2.4-1.2 2.4-2.9-.8-2.8-2.4-2.8zm0 4.6c-.7 0-.8-.8-.8-1.8s.1-1.8.8-1.8.8.9.8 1.8-.1 1.8-.8 1.8zm5.4-4.6a6.34 6.34 0 0 0-2.3.4v5.2h1.6v-4.5a1.48 1.48 0 0 1 .7-.1.73.73 0 0 1 .8.8v3.8h1.6v-3.9c-.1-.9-.7-1.7-2.4-1.7zm5.3 2.4a1 1 0 0 1-.7-.8.58.58 0 0 1 .6-.6 1.21 1.21 0 0 1 .8.3l.4-.9a2.54 2.54 0 0 0-1.6-.4 1.71 1.71 0 0 0-1.8 1.7 1.49 1.49 0 0 0 1.2 1.5.83.83 0 0 1 .7.8.67.67 0 0 1-.7.6 2.37 2.37 0 0 1-1-.3l-.4 1a3.1 3.1 0 0 0 1.6.4 1.87 1.87 0 0 0 2.1-1.7c.1-.7-.2-1.2-1.2-1.6z" fill="#1a1f42"/></svg><svg id="ic_logo_white" width="130" height="42.4" y="73" xmlns="http://www.w3.org/2000/svg"><style>.bist0{fill:#fff}</style><path class="bist0" d="M74.6 30.7c2.9 0 5.8-1 8.2-2.7l.2-.2v-5.3l-1 1c-2.1 2.1-4.9 3.3-7.6 3.3-5.5 0-10.2-4.7-10.2-10.4C64.2 10.8 68.8 6 74.3 6c2.8 0 5.6 1.2 7.7 3.3l1 1V5.1l-.2-.1c-2.4-1.8-5.1-2.7-8.2-2.7-7.9 0-14.3 6.4-14.3 14.3 0 3.8 1.5 7.3 4.3 10 2.7 2.7 6.2 4.1 10 4.1zm23.4 0c2.9 0 5.6-1.2 7.5-3.2 2.3-2.3 2.5-4.9 2.5-7.7V2.7h-4.1v16.7c0 1.9 0 3.9-1.2 5.3-1.1 1.3-3 2.1-4.8 2.1-1.9 0-3.9-.9-4.9-2.3-1.1-1.4-1.1-3.4-1-5.2V2.7h-4v17.1c0 2.8.2 5.6 2.8 8 1.8 1.8 4.5 2.9 7.2 2.9zm32-8.7c0-4.6-3.3-6.5-6.7-7.9l-1.8-.8c-1.7-.8-3.8-1.7-3.8-3.6 0-2 1.7-3.5 3.8-3.5 1.8 0 3 .7 4.1 2.6l.3.5 3.3-2.1-.2-.5c-1.5-2.8-4.2-4.4-7.3-4.4-4.5 0-8 3.1-8 7.3s3 5.9 6.1 7.3l1.6.7.1.1c2.4 1.1 4.4 2 4.4 4.7 0 2.5-2.2 4.6-4.9 4.6-2.4 0-4.4-1.8-4.7-4.4l-.1-.6-4 1.1.1.5c.9 4.4 4.4 7.3 8.8 7.3 5-.2 8.9-4 8.9-8.9zm-118.5-.2L4.4 2.7H0l11.5 30.2L23.1 2.7h-4.4zm31.7 7.5c-1.1.2-1.8 1.3-1.5 2.4.2.9 1.1 1.6 2 1.6h.4c1.1-.2 1.8-1.3 1.5-2.4-.2-1.2-1.3-1.9-2.4-1.6zm-5.8.1c-1-.2-2.1.4-2.3 1.4-.2 1 .4 2.1 1.4 2.3.1 0 .3.1.4.1.9 0 1.7-.6 1.9-1.5.3-1.1-.4-2.1-1.4-2.3zm11-2.7c-.9.7-1.1 2.1-.4 3 .4.5 1.1.8 1.7.8.5 0 .9-.2 1.3-.5.9-.7 1.1-2.1.4-3-.7-.9-2.1-1-3-.3zm-16.3.1c-.8-.6-1.9-.5-2.5.3-.6.8-.5 1.9.3 2.5.3.3.7.4 1.1.4.5 0 1-.2 1.4-.7.6-.8.5-1.9-.3-2.5zm22.8-5.7c-1.1-.5-2.5-.1-3 1s-.1 2.5 1 3c.3.2.7.2 1 .2.8 0 1.6-.5 2-1.3.6-1 .2-2.3-1-2.9zm-28.8.3c-.8.4-1.2 1.4-.8 2.3.3.6.9 1 1.5 1 .2 0 .5-.1.7-.2.8-.4 1.2-1.4.8-2.3-.3-.8-1.3-1.2-2.2-.8z"/><circle class="bist0" cx="55.5" cy="16.6" r="2.4"/><path class="bist0" d="M27 16.4c0-.9-.7-1.6-1.6-1.6-.9 0-1.6.7-1.6 1.6 0 .8.7 1.6 1.6 1.6.9 0 1.6-.7 1.6-1.6zm25.1-5c.4.8 1.2 1.3 2.1 1.3.3 0 .6-.1.9-.2 1.1-.5 1.6-1.8 1.1-3-.5-1.1-1.8-1.6-3-1.1-1.1.5-1.6 1.9-1.1 3zM27.8 8.3c-.8-.4-1.9-.1-2.3.8-.4.8-.1 1.9.8 2.3.2.1.5.2.8.2.6 0 1.2-.3 1.5-.9.4-.9 0-1.9-.8-2.4zm20.9-1.5c.4.3.9.5 1.4.5.6 0 1.2-.3 1.6-.8.8-.9.6-2.3-.3-3-.9-.8-2.3-.6-3 .3-.8.9-.6 2.3.3 3zM30.2 3.3c-.8.6-.9 1.7-.3 2.5.4.5.9.7 1.4.7.4 0 .8-.1 1.1-.4.8-.6.9-1.7.3-2.5-.6-.8-1.7-1-2.5-.3zM44.6.1c-1.1-.3-2.2.4-2.5 1.5-.3 1.1.4 2.2 1.5 2.5.2 0 .3.1.5.1.9 0 1.7-.6 2-1.5.3-1.2-.4-2.3-1.5-2.6zM37 0c-1 .2-1.7 1.2-1.5 2.3.2.9 1 1.5 1.9 1.5h.4c1-.2 1.7-1.2 1.5-2.3C39.1.5 38.1-.2 37 0zm61.8 34.5c-.5 0-.8.3-.8.7 0 .4.4.7.8.7s.8-.3.8-.7c.1-.4-.3-.7-.8-.7zm14.9 0c-.5 0-.8.3-.8.7 0 .4.4.7.8.7.5 0 .8-.3.8-.7.1-.4-.3-.7-.8-.7zm-50.6 3.2c.3 0 .5.1.7.2l.3-.9c-.2-.2-.7-.4-1.3-.4-1.2 0-2.3 1-2.3 2.8s1 2.9 2.3 2.9c.7 0 1.1-.2 1.3-.4l-.3-1c-.2.3-.4.4-.7.4-.6 0-1-.6-1-1.8 0-1.1.3-1.8 1-1.8zm3.7-1c-1.6 0-2.4 1.2-2.4 2.8 0 1.6.8 2.9 2.4 2.9 1.6 0 2.4-1.2 2.4-2.9 0-1.6-.8-2.8-2.4-2.8zm0 4.6c-.7 0-.8-.8-.8-1.8s.1-1.8.8-1.8.8.9.8 1.8c.1 1-.1 1.8-.8 1.8zm8.9-4.6c-.9 0-1.5.3-1.8.5-.3-.3-.8-.5-1.7-.5-1 0-1.6.1-2.2.4v5.2h1.6v-4.5c.2-.1.4-.1.6-.1.6 0 .9.3.9.7v3.9h1.6V38c.2-.2.4-.3.7-.3.6 0 .8.3.8.7v3.9h1.6v-3.9c-.2-.9-.8-1.7-2.1-1.7zm8.6 0c-.9 0-1.5.3-1.8.5-.3-.3-.8-.5-1.7-.5-1 0-1.6.1-2.2.4v5.2h1.6v-4.5c.2-.1.4-.1.6-.1.6 0 .9.3.9.7v3.9h1.6V38c.2-.2.4-.3.7-.3.6 0 .8.3.8.7v3.9h1.6v-3.9c-.2-.9-.8-1.7-2.1-1.7zm5.7 4.5c-.1.1-.3.1-.6.1-.5 0-.8-.3-.8-.7v-3.8H87v3.7c0 1.3.8 1.9 2.3 1.9 1 0 1.8-.2 2.3-.4v-5.2H90v4.4zm4.8-4.5c-1 0-1.8.2-2.3.4v5.2h1.6v-4.5c.2-.1.4-.1.7-.1.6 0 .8.4.8.8v3.8h1.6v-3.9c0-.9-.6-1.7-2.4-1.7zm3.2.1h1.6v5.5H98zm4.9.9c.3 0 .5.1.7.2l.3-.9c-.2-.2-.7-.4-1.3-.4-1.2 0-2.3 1-2.3 2.8s1 2.9 2.3 2.9c.7 0 1.1-.2 1.3-.4l-.3-1c-.2.3-.4.4-.7.4-.6 0-1-.6-1-1.8 0-1.1.3-1.8 1-1.8zm3.7-1c-1 0-1.7.3-2.1.4l.3.9c.4-.2.9-.3 1.4-.3.6 0 1 .2 1 .7v.3c-1.7.2-3.1.6-3.1 2 0 1.1.8 1.7 2.4 1.7.9 0 1.7-.2 2.2-.4v-3.3c0-1.5-.9-2-2.1-2zm.6 4.7c-.1.1-.3.1-.6.1-.6 0-1-.3-1-.9 0-.9.6-1.1 1.6-1.2v2zm4.4-6.2l-1.7.4v1.2h-.6v1h.6v3c0 .8.5 1.6 1.7 1.6.4 0 .7-.1.8-.2v-1c-.1 0-.2.1-.3.1-.4 0-.5-.2-.5-.6v-2.8h.8v-1h-.8v-1.7zm1.3 1.6h1.6v5.5h-1.6zm4.7-.1c-1.6 0-2.4 1.2-2.4 2.8 0 1.6.8 2.9 2.4 2.9 1.6 0 2.4-1.2 2.4-2.9 0-1.6-.8-2.8-2.4-2.8zm0 4.6c-.7 0-.8-.8-.8-1.8s.1-1.8.8-1.8c.7 0 .8.9.8 1.8.1 1-.1 1.8-.8 1.8zm5.4-4.6c-1 0-1.8.2-2.3.4v5.2h1.6v-4.5c.2-.1.4-.1.7-.1.6 0 .8.4.8.8v3.8h1.6v-3.9c-.1-.9-.7-1.7-2.4-1.7zm5.3 2.4c-.4-.2-.7-.4-.7-.8 0-.3.2-.6.6-.6s.7.2.8.3l.4-.9c-.4-.3-.9-.4-1.6-.4-1.1 0-1.8.8-1.8 1.7 0 .6.2 1.1 1.2 1.5.5.2.7.4.7.8 0 .3-.3.6-.7.6-.4 0-.8-.2-1-.3l-.4 1c.3.2.9.4 1.6.4 1.3 0 2.1-.8 2.1-1.7.1-.7-.2-1.2-1.2-1.6z"/></svg><svg width="36" height="36" id="ic_medium_blue" x="36" y="237.73" xmlns="http://www.w3.org/2000/svg"><g fill="none" fill-rule="evenodd"><circle fill="#DBF6FF" cx="18" cy="18" r="18"/><g stroke="#009EF1" stroke-width="2" stroke-linejoin="round"><path stroke-linecap="round" d="M14 14l2-2 2 2 2-2 2 2"/><path stroke-linecap="round" d="M11 9h14v8H11zm14 6h5v5h-5zm-3 2v3h-8v-3m-8-2h5v5H6zm0 8h5v5H6zm8 0h8v8h-8zm11 0h5v5h-5z"/><path d="M25 12h8v19H3V12h8"/></g></g></svg><svg id="ic_medium_dark" width="36" height="36" x="255.7" y="144" xmlns="http://www.w3.org/2000/svg"><style>.bkst1{stroke-linecap:round;fill:none;stroke:#093f78;stroke-width:2;stroke-linejoin:round}</style><g id="bkPage-1"><g id="bkic_medium_blue"><circle id="bkOval-Copy" cx="18" cy="18" r="18" opacity=".35" fill="#99e5ff"/><g id="bkGroup-3" transform="translate(3 9)"><path id="bkPath-5-Copy-3" class="bkst1" d="M11 5l2-2 2 2 2-2 2 2"/><path id="bkRectangle-Copy" class="bkst1" d="M8 0h14v8H8z"/><path id="bkRectangle-2-Copy" class="bkst1" d="M22 6h5v5h-5z"/><path id="bkRectangle-3-Copy" class="bkst1" d="M19 8v3h-8V8"/><path id="bkRectangle-4-Copy" class="bkst1" d="M3 6h5v5H3z"/><path id="bkRectangle-5-Copy" class="bkst1" d="M3 14h5v5H3z"/><path id="bkRectangle-6-Copy" class="bkst1" d="M11 14h8v8h-8z"/><path id="bkRectangle-7-Copy" class="bkst1" d="M22 14h5v5h-5z"/><path id="bkRectangle-8-Copy" d="M22 3h8v19H0V3h8" fill="none" stroke="#093f78" stroke-width="2" stroke-linejoin="round"/></g></g></g></svg><svg width="36" height="36" id="ic_medium_grey" x="255.7" y="108" xmlns="http://www.w3.org/2000/svg"><g fill="none" fill-rule="evenodd"><circle fill-opacity=".05" fill="#FFF" cx="18" cy="18" r="18"/><g stroke="#E2E2E2" stroke-width="2" stroke-linejoin="round"><path stroke-linecap="round" d="M14 14l2-2 2 2 2-2 2 2"/><path stroke-linecap="round" d="M11 9h14v8H11zm14 6h5v5h-5zm-3 2v3h-8v-3m-8-2h5v5H6zm0 8h5v5H6zm8 0h8v8h-8zm11 0h5v5h-5z"/><path d="M25 12h8v19H3V12h8"/></g></g></svg><svg width="16" height="16" id="ic_mini_cloud" x="232" y="174.97" xmlns="http://www.w3.org/2000/svg"><path d="M8.7 11.7a1 1 0 0 0-1.4 0l-2.6 2.6a.85.85 0 0 0 0 1.3.93.93 0 0 0 1.3.1l2-2 2 2a.92.92 0 0 0 1.3-1.3zm4.4-8.3A5 5 0 0 0 8.2 0h-.5a5.21 5.21 0 0 0-4.9 3.4A3.31 3.31 0 0 0 0 6.6 3.48 3.48 0 0 0 3.6 10h8.8A3.48 3.48 0 0 0 16 6.6a3.39 3.39 0 0 0-2.9-3.2zM12.4 8H3.6A1.48 1.48 0 0 1 2 6.6a1.48 1.48 0 0 1 1.6-1.3 1.06 1.06 0 0 0 1-.9A3 3 0 0 1 7.7 2h.6a3.07 3.07 0 0 1 3.1 2.3 1 1 0 0 0 1 .9A1.48 1.48 0 0 1 14 6.6 1.48 1.48 0 0 1 12.4 8z" fill="#093f78"/></svg><svg width="16" height="16" id="ic_mini_data_centres" y="273.73" xmlns="http://www.w3.org/2000/svg"><path fill="none" d="M9 6h2v8H9zM5 6h2v8H5z"/><path d="M2 14h1V5a1 1 0 0 1 1-1h8a1 1 0 0 1 1 1v9h1V2H2z" fill="none"/><path d="M14 0H2a2 2 0 0 0-2 2v12a2 2 0 0 0 2 2h12a2 2 0 0 0 2-2V2a2 2 0 0 0-2-2zM7 14H5V6h2zm4 0H9V6h2zm3 0h-1V5a1 1 0 0 0-1-1H4a1 1 0 0 0-1 1v9H2V2h12z" fill="#093f78"/></svg><svg width="16" height="16" id="ic_mini_data_networks" x="234.3" y="203.93" xmlns="http://www.w3.org/2000/svg"><path d="M8 2a6 6 0 1 0 6 6 6 6 0 0 0-6-6zm0 10a4 4 0 1 1 4-4 4 4 0 0 1-4 4z" fill="none"/><circle cx="8" cy="8" r="2" fill="none"/><path d="M8 0a8 8 0 1 0 8 8 8 8 0 0 0-8-8zm0 14a6 6 0 1 1 6-6 6 6 0 0 1-6 6z" fill="#093f78"/><path d="M8 4a4 4 0 1 0 4 4 4 4 0 0 0-4-4zm0 6a2 2 0 1 1 2-2 2 2 0 0 1-2 2z" fill="#093f78"/></svg><svg width="16" height="16" id="ic_mini_internet" x="194.97" y="173.83" xmlns="http://www.w3.org/2000/svg"><path d="M11 8h-1a1 1 0 0 1-1-1V6H7v1a1 1 0 0 1-1 1H5v3h6z" fill="none"/><path d="M2 14h12V2H2zm1-6a2 2 0 0 1 2-2V5a1 1 0 0 1 1-1h4a1 1 0 0 1 1 1v1a2 2 0 0 1 2 2v4a1 1 0 0 1-1 1H4a1 1 0 0 1-1-1z" fill="none"/><path d="M2 14h12V2H2zm1-6a2 2 0 0 1 2-2V5a1 1 0 0 1 1-1h4a1 1 0 0 1 1 1v1a2 2 0 0 1 2 2v4a1 1 0 0 1-1 1H4a1 1 0 0 1-1-1z" fill="none"/><path d="M11 8h-1a1 1 0 0 1-1-1V6H7v1a1 1 0 0 1-1 1H5v3h6z" fill="none"/><path d="M14 0H2a2 2 0 0 0-2 2v12a2 2 0 0 0 2 2h12a2 2 0 0 0 2-2V2a2 2 0 0 0-2-2zm0 14H2V2h12z" fill="#093f78"/><path d="M4 13h8a1 1 0 0 0 1-1V8a2 2 0 0 0-2-2V5a1 1 0 0 0-1-1H6a1 1 0 0 0-1 1v1a2 2 0 0 0-2 2v4a1 1 0 0 0 1 1zm1-5h1a1 1 0 0 0 1-1V6h2v1a1 1 0 0 0 1 1h1v3H5z" fill="#093f78"/></svg><svg data-name="Layer 1" width="10" height="10" id="ic_mini_plus" x="311.67" y="246.76" xmlns="http://www.w3.org/2000/svg"><path d="M9 4H6V1a1 1 0 0 0-2 0v3H1a1 1 0 0 0 0 2h3v3a1 1 0 0 0 2 0V6h3a1 1 0 0 0 0-2z" fill="#fff"/></svg><svg width="16" height="16" id="ic_mini_unified_comms" x="194.97" y="157.83" xmlns="http://www.w3.org/2000/svg"><path d="M10 2H2v5h1a1 1 0 0 1 1 1v.7l1.4-1.4a1 1 0 0 1 .71-.3H10z" fill="none"/><path d="M12 7V2a2 2 0 0 0-2-2H2a2 2 0 0 0-2 2v5a2 2 0 0 0 2 2v2.11a1 1 0 0 0 1.71.71L6.52 9H10a2 2 0 0 0 2-2zM6.11 7a1 1 0 0 0-.71.29L4 8.7V8a1 1 0 0 0-1-1H2V2h8v5z" fill="#093f78"/><path d="M14 7a1 1 0 0 0 0 2v3h-1a1 1 0 0 0-.94.65l-.36-.36A1 1 0 0 0 11 12H9v-1a1 1 0 0 0-2 0v1a2 2 0 0 0 2 2h1.59l1.71 1.71A1 1 0 0 0 14 15v-1a2 2 0 0 0 2-2V9a2 2 0 0 0-2-2z" fill="#093f78"/></svg><svg data-name="Layer 1" width="24" height="14" id="ic_nav_toggle" x="291.7" y="182.01" xmlns="http://www.w3.org/2000/svg"><path d="M1 2h22a1 1 0 0 0 0-2H1a1 1 0 0 0 0 2zm22 4H1a1 1 0 0 0 0 2h22a1 1 0 0 0 0-2zm0 6H1a1 1 0 0 0 0 2h22a1 1 0 0 0 0-2z" fill="#009fee"/></svg><svg data-name="Layer 1" width="18" height="21.05" id="ic_pin" x="291.7" y="196.01" xmlns="http://www.w3.org/2000/svg"><path d="M9 21a3.22 3.22 0 0 1-2.35-1C4 17.22 0 13.06 0 9a9.12 9.12 0 0 1 9-9 9.12 9.12 0 0 1 9 9c0 4.06-4 8.22-6.59 11A3.28 3.28 0 0 1 9 21zM9 2a7.09 7.09 0 0 0-7 7c0 3.26 3.78 7.22 6 9.58a1.22 1.22 0 0 0 1.86.07C12.22 16.22 16 12.26 16 9a7.09 7.09 0 0 0-7-7z" fill="#009fee"/><path d="M9 13a4 4 0 1 1 4-4 4 4 0 0 1-4 4zm0-6a2 2 0 1 0 2 2 2 2 0 0 0-2-2z" fill="#009fee"/></svg><svg version="1.2" baseProfile="tiny" width="26.2" height="33.9" id="ic_pinterestHandle_white" x="106" y="237.73" xmlns="http://www.w3.org/2000/svg"><path fill-rule="evenodd" fill="#FFF" d="M26.2 11.1c0 7.6-4.2 13.3-10.5 13.3-2.1 0-4.1-1.1-4.8-2.4 0 0-1.1 4.5-1.4 5.3-.8 3.1-3.3 6.1-3.5 6.4-.2.2-.4.1-.5-.1 0-.4-.7-4.3.1-7.4.4-1.5 2.6-10.5 2.6-10.5s-.6-1.3-.6-3.1c0-2.9 1.6-5 3.7-5 1.8 0 2.6 1.3 2.6 2.9 0 1.8-1.1 4.4-1.7 6.9-.5 2.1 1.1 3.8 3.1 3.8 3.7 0 6.2-4.7 6.2-10.4 0-4.3-2.9-7.5-8.1-7.5-5.9 0-9.6 4.4-9.6 9.3 0 1.7.5 2.9 1.3 3.8.4.4.4.6.3 1.1-.1.4-.3 1.3-.4 1.6-.1.5-.5.7-1 .5-2.7-1.1-4-4.1-4-7.5C0 6.6 4.6 0 13.9 0c7.4 0 12.3 5.4 12.3 11.1z"/></svg><svg width="38" height="34" id="ic_play" x="216" y="104.97" xmlns="http://www.w3.org/2000/svg"><path d="M3.36 34a3.27 3.27 0 0 1-1.8-.51A3.74 3.74 0 0 1 0 30.24V3.76A3.74 3.74 0 0 1 1.56.51 3.82 3.82 0 0 1 5.24.43L35.51 14c2.16 1 2.49 2.31 2.49 3s-.32 2-2.49 3L5.24 33.57a4.62 4.62 0 0 1-1.88.43zm0-32a1.3 1.3 0 0 0-.72.19A1.78 1.78 0 0 0 2 3.76v26.48a1.78 1.78 0 0 0 .65 1.57 1.87 1.87 0 0 0 1.77-.06l30.27-13.6c.9-.41 1.31-.87 1.31-1.15s-.4-.74-1.31-1.15L4.42 2.25A2.63 2.63 0 0 0 3.36 2z" fill="#fff"/></svg><svg width="216" height="73" id="ic_quote_marks" xmlns="http://www.w3.org/2000/svg"><path d="M0 67.87V40.561c0-3.124.476-6.094 1.428-8.913.952-2.818 2.19-5.255 3.714-7.312L20.109 4.685c.762-1.067 1.695-2.114 2.8-3.143C24.013.514 25.746 0 28.107 0h4.685c2.361 0 4.075.952 5.142 2.856 1.066 1.905.99 3.923-.229 6.056L25.022 32.106c-.457.762-.418 1.467.115 2.114.533.648 1.218.971 2.056.971h5.599c1.219 0 2.304.457 3.256 1.371.952.915 1.429 2.019 1.429 3.314v27.993c0 1.219-.477 2.304-1.429 3.256-.952.953-2.037 1.429-3.256 1.429H4.685c-1.22 0-2.305-.457-3.257-1.371C.476 70.269 0 69.164 0 67.869zm51.416 0V40.561c0-3.124.476-6.094 1.428-8.913.952-2.818 2.228-5.255 3.828-7.312L71.64 4.685c.761-1.067 1.694-2.114 2.799-3.143C75.543.514 77.239 0 79.523 0h4.685c2.361 0 4.094.952 5.199 2.856 1.104 1.905 1.009 3.923-.286 6.056L76.553 32.106c-.457.762-.42 1.467.114 2.114.533.648 1.18.971 1.942.971h5.599c1.219 0 2.304.457 3.256 1.371.953.915 1.429 2.019 1.429 3.314v27.993c0 1.219-.457 2.304-1.372 3.256-.914.953-2.018 1.429-3.313 1.429H56.101c-1.22 0-2.305-.457-3.257-1.371-.952-.914-1.428-2.019-1.428-3.314zM216.169 4.684v27.307c0 3.123-.476 6.094-1.428 8.912-.952 2.819-2.19 5.256-3.713 7.313L196.06 67.869c-.762 1.067-1.695 2.114-2.8 3.142-1.104 1.029-2.837 1.543-5.198 1.543h-4.685c-2.361 0-4.075-.952-5.141-2.857-1.067-1.904-.99-3.923.228-6.055l12.683-23.195c.457-.761.419-1.466-.114-2.114-.534-.647-1.22-.97-2.057-.97h-5.599c-1.218 0-2.304-.458-3.256-1.372-.952-.914-1.428-2.018-1.428-3.313V4.685c0-1.22.476-2.305 1.428-3.257S182.159 0 183.377 0h28.108c1.219 0 2.304.457 3.256 1.371.952.914 1.428 2.019 1.428 3.314zm-51.416 0v27.307c0 3.123-.476 6.094-1.428 8.912-.952 2.819-2.228 5.256-3.828 7.313L144.53 67.869c-.762 1.067-1.695 2.114-2.8 3.142-1.104 1.029-2.799 1.543-5.084 1.543h-4.685c-2.361 0-4.094-.952-5.198-2.857-1.105-1.904-1.01-3.923.285-6.055l12.569-23.195c.457-.761.419-1.466-.115-2.114-.533-.647-1.18-.97-1.942-.97h-5.599c-1.218 0-2.304-.458-3.256-1.372-.952-.914-1.428-2.018-1.428-3.313V4.685c0-1.22.457-2.305 1.37-3.257.915-.952 2.02-1.428 3.314-1.428h28.108c1.219 0 2.304.457 3.256 1.371.952.914 1.428 2.019 1.428 3.314z" fill="#009FEE" fill-rule="evenodd"/></svg><svg data-name="Layer 1" width="15" height="15" id="ic_search" x="32" y="273.73" xmlns="http://www.w3.org/2000/svg"><path d="M14.71 13.29l-3.82-3.82a6 6 0 1 0-1.41 1.41l3.82 3.82a1 1 0 0 0 1.41 0 1 1 0 0 0 0-1.41zM6 10a4 4 0 1 1 4-4 4 4 0 0 1-4 4z" fill="#fff"/></svg><svg width="36" height="36" id="ic_small_blue" y="237.73" xmlns="http://www.w3.org/2000/svg"><g fill="none" fill-rule="evenodd"><circle fill="#DBF6FF" cx="18" cy="18" r="18"/><g stroke="#009EF1" stroke-width="2"><path d="M8 9v3h20V9H8zm2 3v10m16 0V12M8 22h20v9H8z" stroke-linejoin="round"/><path stroke-linecap="round" stroke-linejoin="round" d="M13 28l2.5-3 2.5 3 2.5-3 2.5 3"/><path d="M16.41 15.306c.398.342.59.916.59 1.694 0 .778-.192 1.352-.59 1.694-.372.32-.791.306-.91.306s-.538.013-.91-.306c-.398-.342-.59-.916-.59-1.694 0-.778.192-1.352.59-1.694.372-.32.791-.306.91-.306s.538-.013.91.306z" fill-rule="nonzero"/><path d="M12 22v-.6c0-.709.354-1.33 1.014-1.766.647-.427 1.522-.634 2.486-.634.964 0 1.84.207 2.486.634.66.436 1.014 1.057 1.014 1.766v.6" stroke-linejoin="round"/></g></g></svg><svg id="ic_small_dark" width="36" height="36" x="255.7" y="180" xmlns="http://www.w3.org/2000/svg"><style>.bzst1{stroke-linejoin:round;fill:none;stroke:#093f78;stroke-width:2}</style><g id="bzPage-1"><g id="bzic_small_blue"><circle id="bzOval" cx="18" cy="18" r="18" opacity=".35" fill="#99e5ff"/><g id="bzGroup-6" transform="translate(8 9)"><path id="bzPath-Copy" class="bzst1" d="M0 0v3h20V0H0z"/><path id="bzPath-2-Copy" class="bzst1" d="M2 3v10"/><path id="bzPath-3-Copy" class="bzst1" d="M18 13V3"/><path id="bzPath-4-Copy" class="bzst1" d="M0 13h20v9H0z"/><path id="bzPath-5-Copy-2" d="M5 19l2.5-3 2.5 3 2.5-3 2.5 3" fill="none" stroke="#093f78" stroke-width="2" stroke-linecap="round" stroke-linejoin="round"/><path id="bzCombined-Shape" d="M8.4 6.3c.4.3.6.9.6 1.7 0 .8-.2 1.4-.6 1.7-.4.3-.8.3-.9.3s-.5 0-.9-.3S6 8.8 6 8c0-.8.2-1.4.6-1.7.4-.3.8-.3.9-.3s.5 0 .9.3z" fill="none" stroke="#093f78" stroke-width="2"/><path id="bzCombined-Shape_1_" class="bzst1" d="M4 13v-.6c0-.7.4-1.3 1-1.8.7-.4 1.5-.6 2.5-.6s1.8.2 2.5.6c.7.4 1 1.1 1 1.8v.6"/></g></g></g></svg><svg width="36" height="36" id="ic_small_grey" x="255.7" y="72" xmlns="http://www.w3.org/2000/svg"><g fill="none" fill-rule="evenodd"><circle fill-opacity=".05" fill="#FFF" cx="18" cy="18" r="18"/><g stroke="#E2E2E2" stroke-width="2"><path d="M8 9v3h20V9H8zm2 3v10m16 0V12M8 22h20v9H8z" stroke-linejoin="round"/><path stroke-linecap="round" stroke-linejoin="round" d="M13 28l2.5-3 2.5 3 2.5-3 2.5 3"/><path d="M16.41 15.306c.398.342.59.916.59 1.694 0 .778-.192 1.352-.59 1.694-.372.32-.791.306-.91.306s-.538.013-.91-.306c-.398-.342-.59-.916-.59-1.694 0-.778.192-1.352.59-1.694.372-.32.791-.306.91-.306s.538-.013.91.306z" fill-rule="nonzero"/><path d="M12 22v-.6c0-.709.354-1.33 1.014-1.766.647-.427 1.522-.634 2.486-.634.964 0 1.84.207 2.486.634.66.436 1.014 1.057 1.014 1.766v.6" stroke-linejoin="round"/></g></g></svg><svg width="46.56" height="46.1" id="ic_spark_big" y="157.83" xmlns="http://www.w3.org/2000/svg"><path d="M22.91 46.1c-.88 0-2.54-.46-3.76-3.29L17 37.88A19.79 19.79 0 0 0 8.17 29l-4.93-2.16C.43 25.6 0 24 0 23.09s.44-2.58 3.38-3.89L8.4 17a21.36 21.36 0 0 0 9.15-8.88l2.32-4.87C21.21.39 22.88 0 23.78 0s2.51.45 3.74 3.23l2.13 4.84a20 20 0 0 0 8.76 8.74L43.3 19c2.82 1.25 3.25 2.9 3.25 3.77s-.43 2.55-3.32 3.85l-5 2.24a21.39 21.39 0 0 0-9.12 9l-2.32 5c-1.29 2.8-2.97 3.24-3.88 3.24zM23.74 2c-.68 0-1.44.78-2.06 2.08L19.36 9a23.3 23.3 0 0 1-10.14 9.79L4.2 21c-1.35.6-2.2 1.39-2.2 2.06s.77 1.39 2.05 1.94L9 27.2a21.75 21.75 0 0 1 9.81 9.89L20.95 42c.56 1.3 1.29 2.08 2 2.09.69 0 1.48-.8 2.11-2.15l2.32-5A23.34 23.34 0 0 1 37.45 27l5-2.24c1.34-.6 2.14-1.36 2.14-2s-.77-1.37-2.06-1.94l-4.93-2.19a21.66 21.66 0 0 1-9.78-9.76L25.69 4c-.56-1.26-1.28-2-1.94-2z" fill="#00aef3"/></svg><svg width="25.38" height="24.86" id="ic_spark_mid" x="291.7" y="157.15" xmlns="http://www.w3.org/2000/svg"><path d="M2.81 24.86a2.61 2.61 0 0 1-1.9-.71c-.48-.47-1.16-1.59-.34-3.74l1.33-3.49a13.24 13.24 0 0 0-.08-8.33l-1.4-3.4C-.44 3.1.21 2 .67 1.46S2.29.21 4.57 1l3.6 1.19A15.13 15.13 0 0 0 17 1.86L20.54.44c2.27-.9 3.44-.22 3.93.27s1.16 1.59.34 3.74l-1.33 3.49a13.24 13.24 0 0 0 .07 8.33l1.4 3.4c.86 2.09.21 3.23-.25 3.73s-1.62 1.26-3.9.5l-3.6-1.19a15.23 15.23 0 0 0-8.79.29l-3.58 1.42a5.5 5.5 0 0 1-2.02.44zm0-22.22a.9.9 0 0 0-.65.18c-.17.18-.23.71.14 1.6l1.39 3.4a15.09 15.09 0 0 1 .1 9.81l-1.36 3.5c-.33.86-.3 1.44-.13 1.6s.7.27 1.79-.17l3.58-1.42a17 17 0 0 1 10.15-.33L21.43 22c1 .32 1.61.25 1.81 0s.23-.71-.14-1.6L21.7 17a15.09 15.09 0 0 1-.09-9.81l1.33-3.49c.33-.86.29-1.43.12-1.6s-.83-.21-1.79.17L17.7 3.72a16.94 16.94 0 0 1-10.15.33L3.94 2.86a3.81 3.81 0 0 0-1.16-.22z" fill="#00aef3"/></svg><svg width="16.49" height="9.8" id="ic_spark_pip" x="255.7" y="216" xmlns="http://www.w3.org/2000/svg"><path d="M10.24 9.81a10.27 10.27 0 0 1-7.68-3.48c-.42-.5-.85-1-1.29-1.49C.12 3.61-.25 2.5.16 1.56S1.74.08 3.6.07C4.29.07 5 .05 5.71 0a10.35 10.35 0 0 1 8.21 3.46c.42.52.87 1 1.3 1.49 1.14 1.23 1.51 2.33 1.1 3.28s-1.59 1.48-3.45 1.49c-.69 0-1.41 0-2.11.06zM2 2.37a2.94 2.94 0 0 0 .75 1.11c.46.51.93 1 1.37 1.57a8.33 8.33 0 0 0 6.56 2.74c.74 0 1.49-.06 2.21-.06 1.26 0 1.59-.27 1.63-.3a2.94 2.94 0 0 0-.75-1.11c-.47-.51-.94-1-1.38-1.58A8.33 8.33 0 0 0 5.82 2c-.75 0-1.5.06-2.22.06-1.25.02-1.6.28-1.6.31z" fill="#00aef3"/></svg><svg width="9" height="9" id="ic_spark_pop" x="314.19" y="127.95" xmlns="http://www.w3.org/2000/svg"><path d="M4.5 9A4.5 4.5 0 1 1 9 4.5 4.5 4.5 0 0 1 4.5 9zm0-7A2.5 2.5 0 1 0 7 4.5 2.5 2.5 0 0 0 4.5 2z" fill="#00adee"/></svg><svg width="22.49" height="29.2" id="ic_spark_stretch" x="291.7" y="127.95" xmlns="http://www.w3.org/2000/svg"><path d="M1.86 29.2a1.79 1.79 0 0 1-1.09-.35c-.92-.68-1-2-.3-4l1.64-4.49a12.59 12.59 0 0 0-.79-9c-1.25-2.27-.7-3.6-.27-4.2s1.54-1.53 4.05-1a12.74 12.74 0 0 0 8.89-2l3.8-2.9c1.68-1.29 3-1.6 3.92-.92s1 2 .3 4l-1.63 4.51a12.65 12.65 0 0 0 .79 9c1.25 2.22.7 3.55.27 4.15s-1.55 1.53-4.05 1a12.67 12.67 0 0 0-8.89 2.01l-3.8 2.9a5 5 0 0 1-2.84 1.29zM3.74 8.01a1.34 1.34 0 0 0-1.08.34c-.19.26-.2.94.4 2A14.45 14.45 0 0 1 4 21.01l-1.65 4.51A4.21 4.21 0 0 0 2 27.18a4.22 4.22 0 0 0 1.48-.83l3.8-2.9A14.53 14.53 0 0 1 17.8 21.1c1.19.25 1.84 0 2-.23s.2-.94-.4-2a14.5 14.5 0 0 1-.9-10.7l1.63-4.48a4.27 4.27 0 0 0 .35-1.68 4.28 4.28 0 0 0-1.48.85l-3.8 2.9A14.59 14.59 0 0 1 4.7 8.11a4.76 4.76 0 0 0-.96-.1z" fill="#00aef3"/></svg><svg width="10.54" height="9.6" id="ic_spark_triangle_mini" x="311.67" y="237.16" xmlns="http://www.w3.org/2000/svg"><path d="M8.29 9.6h-6a2.26 2.26 0 0 1-2-1.16 2.33 2.33 0 0 1 .15-2.39l3-5A2.2 2.2 0 0 1 5.35 0a2.1 2.1 0 0 1 1.79 1.1l3 5a2.42 2.42 0 0 1 .13 2.46A2.18 2.18 0 0 1 8.29 9.6zM5.3 2a.28.28 0 0 0-.19.14l-3 5C2 7.31 2 7.45 2 7.51s.14.09.27.09h6a.6.6 0 0 0 .25-.05.57.57 0 0 0-.11-.44l-3-5S5.35 2 5.3 2z" fill="#00adee"/></svg><svg width="12" height="6" id="ic_spark_wavy" x="311.67" y="217.06" xmlns="http://www.w3.org/2000/svg"><path d="M12 6a4.6 4.6 0 0 1-3.81-2.42C7.45 2.54 7 2 6 2s-1.45.54-2.18 1.58A4.6 4.6 0 0 1 0 6V4c1 0 1.45-.54 2.19-1.58S3.9 0 6 0s3.05 1.34 3.82 2.42S11 4 12 4z" fill="#009fee"/></svg><svg width="11" height="11" id="ic_spark_wonky" x="311.67" y="223.06" xmlns="http://www.w3.org/2000/svg"><path d="M6.29 11a3.31 3.31 0 0 1-2-.73 11.2 11.2 0 0 0-2.38-1.4 3.06 3.06 0 0 1-1.84-2 3 3 0 0 1 .64-2.6A10.49 10.49 0 0 0 2.1 1.92a3 3 0 0 1 2-1.83 3.06 3.06 0 0 1 2.59.64 11.23 11.23 0 0 0 2.38 1.4 3.06 3.06 0 0 1 1.84 2 3 3 0 0 1-.64 2.6A10.45 10.45 0 0 0 8.9 9.07a3 3 0 0 1-2 1.84 2.53 2.53 0 0 1-.61.09zM3.94 2.71a12.39 12.39 0 0 1-1.62 2.78 1.12 1.12 0 0 0-.3.89 1.16 1.16 0 0 0 .71.62 13.12 13.12 0 0 1 2.79 1.67 1.16 1.16 0 0 0 .91.33 1.13 1.13 0 0 0 .63-.7 12.34 12.34 0 0 1 1.63-2.8A1.11 1.11 0 0 0 9 4.61 1.15 1.15 0 0 0 8.27 4a13.12 13.12 0 0 1-2.79-1.68A1.14 1.14 0 0 0 4.57 2a1.12 1.12 0 0 0-.63.71z" fill="#00aef3"/></svg><svg width="18" height="11" id="ic_staff" x="291.7" y="257.26" xmlns="http://www.w3.org/2000/svg"><path d="M5.538 0c.67 0 2.437 0 2.437 3.227 0 2.155-.788 2.87-1.511 3.108 2.829.312 4.613 2.073 4.613 4.665H0c0-2.592 1.784-4.353 4.613-4.665-.723-.237-1.511-.953-1.511-3.108C3.102 0 4.868 0 5.538 0zm7.696 11c0-1.611-.533-3.073-1.56-4.209-.286-.336-1.135-.653-1.135-2.858C10.539 1 12.158 1 12.772 1c.615 0 2.234 0 2.234 2.933 0 1.96-.722 2.61-1.385 2.826 2.593.283 4.228 1.885 4.228 4.241h-4.615z" fill="#7C7C7D"/></svg><svg data-name="Layer 1" width="14" height="2" id="ic_steady" x="309.7" y="210.01" xmlns="http://www.w3.org/2000/svg"><path d="M13 2H1a1 1 0 0 1 0-2h12a1 1 0 0 1 0 2z" fill="#f8c44f"/></svg><svg data-name="Layer 1" width="41.5" height="33.7" id="ic_twitterHandle" x="46.56" y="157.83" xmlns="http://www.w3.org/2000/svg"><path d="M37.2 8.4v1.1c0 11.2-8.5 24.2-24.2 24.2a23.68 23.68 0 0 1-13-3.5 13.4 13.4 0 0 0 2 .1 17.32 17.32 0 0 0 10.6-4 8.28 8.28 0 0 1-7.9-5.9 8.6 8.6 0 0 0 1.6.1 9.08 9.08 0 0 0 2.3-.3 8.5 8.5 0 0 1-6.8-8.4v-.1a9.83 9.83 0 0 0 3.8 1.1 8.41 8.41 0 0 1-3.8-7.1 7.84 7.84 0 0 1 1.1-4.1 24.36 24.36 0 0 0 17.5 8.7 12.31 12.31 0 0 1-.2-2A8.45 8.45 0 0 1 28.7 0a8.69 8.69 0 0 1 6.2 2.7A17.83 17.83 0 0 0 40.3.6a8.66 8.66 0 0 1-3.7 4.7A19.64 19.64 0 0 0 41.5 4a18 18 0 0 1-4.3 4.4z" fill="#009fee"/></svg><svg version="1.2" baseProfile="tiny" width="41.4" height="33.7" id="ic_twitterHandle_white" x="88.06" y="157.83" xmlns="http://www.w3.org/2000/svg"><path fill-rule="evenodd" fill="#FFF" d="M37.2 8.4v1.1c0 11.2-8.5 24.2-24.2 24.2-4.8 0-9.3-1.1-13-3.5.7.1 1.3.1 2 .1 4 0 7.7-1.7 10.6-4-3.7 0-6.9-2.5-7.9-5.9.5.1 1.1.1 1.6.1.8 0 1.5-.1 2.3-.3-3.9-.8-6.8-4.2-6.8-8.4v-.1c1.2.6 2.4 1 3.8 1.1-2.3-1.5-3.8-4.1-3.8-7.1 0-1.6.4-2.9 1.1-4.1 4.2 5.1 10.5 8.3 17.5 8.7-.1-.6-.2-1.3-.2-2C20.2 3.8 24 0 28.7 0c2.4 0 4.7 1.1 6.2 2.7 1.9-.4 3.7-1.1 5.4-2.1-.6 2-2 3.6-3.7 4.7 1.7-.2 3.4-.7 4.9-1.3-1.2 1.7-2.6 3.2-4.3 4.4z"/></svg><svg data-name="Layer 1" width="14" height="14" id="ic_up" x="309.7" y="196.01" xmlns="http://www.w3.org/2000/svg"><path d="M13.7 6.3l-6-6a1 1 0 0 0-1.4 0l-6 6a1 1 0 0 0 0 1.4 1 1 0 0 0 1.4 0L6 3.4V13a.94.94 0 0 0 1 1 1 1 0 0 0 1-1V3.4l4.3 4.3a1 1 0 1 0 1.4-1.4z" fill="#009fee"/></svg><svg data-name="Layer 1" width="48.1" height="34.01" id="ic_youtubeChannelHandle" x="130" y="115.4" xmlns="http://www.w3.org/2000/svg"><path d="M33.1 17L18 8v18zm15 0c0 17 0 17-24 17S0 34.1 0 17 0 0 24.1 0s24 0 24 17z" fill="#009fee"/></svg><svg version="1.2" baseProfile="tiny" width="48.1" height="34.1" id="ic_youtubeChannelHandle_white" x="130" y="73" xmlns="http://www.w3.org/2000/svg"><path fill-rule="evenodd" fill="#FFF" d="M33.1 17L18 8v18l15.1-9zm15 0c0 17 0 17-24 17C0 34.1 0 34.1 0 17S0 0 24.1 0c24 0 24 0 24 17z"/></svg><svg data-name="Layer 1" width="32" height="31.95" id="ic_zoom" x="291.7" y="96" xmlns="http://www.w3.org/2000/svg"><path d="M31.71 30.24L21.14 19.67a12 12 0 1 0-1.41 1.42l10.56 10.57a1.004 1.004 0 0 0 1.42-1.42zM2 11.95a10 10 0 1 1 10 10 10 10 0 0 1-10-10z" fill="#093f78"/><path d="M18 10.95h-5v-5a1 1 0 0 0-2 0v5H6a1 1 0 0 0 0 2h5v5a1 1 0 0 0 2 0v-5h5a1 1 0 0 0 0-2z" fill="#093f78"/></svg></svg>