<?xml version="1.0" encoding="utf-8"?>
<!-- Generator: Adobe Illustrator 18.0.0, SVG Export Plug-In . SVG Version: 6.00 Build 0)  -->
<!DOCTYPE svg PUBLIC "-//W3C//DTD SVG 1.1//EN" "http://www.w3.org/Graphics/SVG/1.1/DTD/svg11.dtd">
<svg version="1.1" id="Layer_1" xmlns="http://www.w3.org/2000/svg" xmlns:xlink="http://www.w3.org/1999/xlink" x="0px" y="0px"
	 viewBox="0 0 142 35" enable-background="new 0 0 142 35" xml:space="preserve">
<g>
	<g>
		<path fill="#1E1E1E" d="M0,33.303L21.98,1.971H0.602V0.547h23.348v1.26l-21.98,31.33h22.253v1.371H0V33.303z"/>
		<path fill="#1E1E1E" d="M59.829,17.473C59.829,28.866,55.017,35,44.355,35c-10.717,0-15.583-6.134-15.583-17.527
			C28.772,6.19,33.639,0,44.355,0C55.017,0,59.829,6.19,59.829,17.473z M58.352,17.473c0-10.462-4.211-15.995-13.997-15.995
			c-9.896,0-14.053,5.533-14.053,15.995c0,10.572,4.156,16.103,14.053,16.103C54.142,33.576,58.352,28.044,58.352,17.473z"/>
		<path fill="#1E1E1E" d="M88.25,34.508l-9.404-14.571H67.911v14.571h-1.532V0.547h11.537c7.053,0,10.935,3.725,10.935,9.64
			c0,6.245-4.484,8.984-8.42,9.476L90,34.508H88.25z M67.911,1.971v16.542h9.896c6.342,0,9.514-3.341,9.514-8.215
			c0-4.546-2.625-8.327-9.514-8.327H67.911z"/>
	</g>
	<g>
		<path fill="#1E1E1E" d="M95.643,34.538V33.13h1.477v1.408H95.643z"/>
		<path fill="#1E1E1E" d="M101.14,28.674c0-3.998,2.107-6,6.337-6c1.456,0,2.841,0.227,4.155,0.681v1.212
			c-1.297-0.465-2.632-0.698-3.996-0.698c-1.736,0-3.006,0.384-3.811,1.153c-0.805,0.769-1.208,1.988-1.208,3.651
			c0,1.663,0.403,2.881,1.208,3.65c0.805,0.77,2.075,1.16,3.811,1.16c1.389,0,2.724-0.229,3.996-0.686v1.212
			c-1.302,0.44-2.676,0.664-4.107,0.664c-0.021,0-0.04,0-0.048,0C103.248,34.674,101.14,32.672,101.14,28.674z"/>
		<path fill="#1E1E1E" d="M113.397,28.674c0-3.998,2.114-6,6.341-6c4.225,0,6.34,2.002,6.34,6c0,3.998-2.116,6-6.34,6
			C115.511,34.674,113.397,32.672,113.397,28.674z M116.048,25.023c-0.78,0.769-1.166,1.988-1.166,3.651
			c0,1.663,0.386,2.881,1.166,3.65c0.779,0.77,2.007,1.16,3.69,1.16c1.685,0,2.923-0.391,3.693-1.16
			c0.778-0.769,1.171-1.988,1.171-3.65c0-1.663-0.393-2.882-1.171-3.651c-0.77-0.769-2.008-1.153-3.693-1.153
			C118.055,23.87,116.827,24.254,116.048,25.023z"/>
		<path fill="#1E1E1E" d="M129.402,34.538v-11.71h1.602l4.687,5.953l4.708-5.953h1.602v11.71h-1.477v-9.633l-4.833,5.964
			l-4.812-5.964v9.633H129.402z"/>
	</g>
</g>
</svg>
