<?xml version="1.0" encoding="utf-8"?>
<!-- Generator: Adobe Illustrator 17.1.0, SVG Export Plug-In . SVG Version: 6.00 Build 0)  -->
<!DOCTYPE svg PUBLIC "-//W3C//DTD SVG 1.1//EN" "http://www.w3.org/Graphics/SVG/1.1/DTD/svg11.dtd">
<svg version="1.1" id="Layer_1" xmlns="http://www.w3.org/2000/svg" xmlns:xlink="http://www.w3.org/1999/xlink" x="0px" y="0px"
	 viewBox="0 0 209.799 126.78" enable-background="new 0 0 209.799 126.78" xml:space="preserve">
<g>
	<path fill="#424242" d="M75.543,42.565L86.998,14.29l11.555,28.275H75.543z M135.594,28.797v0.612
		c2.371,0.098,7.584,1.745,7.584,7.34c0,1.276,0,2.651-3.698,11.682l-14.505,35.912L90.469,0l-0.907,2.124L71.355,47.268
		c-0.47,1.08-1.99,4.903-2.274,5.592c-3.031,8.246-4.454,13.523-11.09,14.6v0.617h18.673V67.46c-5.402,0-6.825-4.976-6.825-7.63
		c0-2.743,1.612-6.476,3.226-10.6c0.189-0.487,0.281-0.881,0.378-0.979l1.609-4.121h23.892l22.635,54.703l1.406-3.492l18.578-45.935
		c0.187-0.392,0.57-1.468,1.048-2.548c0.472-1.076,0.943-2.062,1.042-2.449c0.28-0.694,1.894-4.711,2.272-5.503
		c2.18-5.2,5.024-9.292,8.819-9.496v-0.612H135.594z"/>
	<path fill="#424242" d="M9.239,125.794l-0.082-0.423c0.182-0.073,0.295-0.157,0.335-0.253c0.036-0.086,0.023-0.202-0.041-0.358
		c-0.105-0.251-0.603-1.488-1.193-2.994H3.585c-0.603,1.48-1.096,2.729-1.182,2.982c-0.135,0.358-0.081,0.491,0.249,0.623
		l-0.082,0.423H0l0.533-0.396c0.457-0.339,0.559-0.476,0.7-0.807c0.269-0.697,4.827-11.97,4.827-11.97l0.206-0.511
		c0,0,4.636,11.784,4.909,12.488c0.155,0.354,0.239,0.546,0.782,0.774l-0.085,0.422H9.239z M7.851,120.692
		c-0.751-1.916-1.561-4.052-1.931-5.033c-0.369,0.981-1.176,3.117-1.927,5.033H7.851z"/>
	<path fill="#424242" d="M5.92,115.034c0,0-1.205,3.228-2.248,5.877h4.502C7.13,118.262,5.92,115.034,5.92,115.034 M9.239,125.575
		c0.466-0.187,0.593-0.466,0.415-0.898c-0.108-0.26-0.633-1.563-1.246-3.13h-4.97c-0.63,1.545-1.154,2.87-1.242,3.13
		c-0.162,0.432-0.093,0.711,0.375,0.898H0.664c0.485-0.36,0.613-0.526,0.771-0.898c0.272-0.705,4.828-11.974,4.828-11.974
		s4.434,11.27,4.707,11.974c0.163,0.372,0.269,0.632,0.901,0.898H9.239z"/>
	<path fill="#424242" d="M17.181,125.939c-2.198,0-4.416-1.312-4.416-4.247v-7.962c0-0.263-0.14-0.458-0.468-0.652l-0.694-0.408
		h3.927l-0.706,0.41c-0.329,0.189-0.469,0.384-0.469,0.65v7.962c0,1.179,0.382,3.157,2.935,3.157c2.091,0,3.151-1.025,3.151-3.045
		l-0.039-8.072c0-0.316-0.104-0.505-0.36-0.652l-0.711-0.41h3.291l-0.702,0.408c-0.256,0.15-0.361,0.339-0.361,0.652l-0.088,8.04
		C21.473,124.381,19.869,125.939,17.181,125.939z M13.002,113.109c0.118,0.16,0.201,0.363,0.201,0.621v7.962
		c0,2.811,2.143,3.809,3.978,3.809c1.158,0,3.853-0.364,3.853-3.733l0.088-8.04c0-0.239,0.05-0.444,0.152-0.618h-0.582
		c0.101,0.172,0.149,0.378,0.149,0.621l0.039,8.072c0,2.248-1.274,3.485-3.589,3.485c-3.044,0-3.373-2.514-3.373-3.595v-7.962
		c0-0.26,0.083-0.463,0.2-0.621H13.002z"/>
	<path fill="#424242" d="M21.341,113.731l-0.088,8.037c0,2.909-1.979,3.952-4.072,3.952c-1.854,0-4.197-1.043-4.197-4.028v-7.962
		c0-0.432-0.291-0.673-0.576-0.841h2.306c-0.29,0.168-0.578,0.408-0.578,0.841v7.962c0,1.252,0.415,3.376,3.154,3.376
		c2.684,0,3.37-1.655,3.37-3.264l-0.039-8.074c0-0.432-0.178-0.673-0.469-0.841h1.659C21.523,113.058,21.341,113.298,21.341,113.731
		"/>
	<path fill="#424242" d="M27.003,125.939c-1.579,0-2.672-0.76-3.326-1.216l-0.091-0.062l-0.029-0.13l-0.071-2.384l0.428-0.074
		c0.615,1.881,1.654,2.835,3.089,2.835c2.224,0,2.337-2.135,2.337-2.563c0-1.59-0.854-2.003-2.556-2.826l-0.187-0.089
		c-1.791-0.875-2.982-1.817-2.982-3.574c0-2.191,1.885-3.337,3.747-3.337c0.55,0,1.61,0.106,2.529,0.812l0.081,0.062l0.097,2.248
		l-0.436,0.048c-0.14-0.773-1.122-2.153-2.579-2.153c-1.767,0-1.905,1.46-1.905,1.908c0,1.049,0.522,1.492,2.318,2.467
		c0.194,0.106,0.385,0.206,0.572,0.302c1.583,0.824,2.95,1.536,2.95,3.813C30.989,124.58,28.674,125.939,27.003,125.939z
		 M23.993,124.409c0.673,0.466,1.632,1.092,3.01,1.092c1.487,0,3.548-1.207,3.548-3.473c0-2.011-1.197-2.634-2.714-3.423
		c-0.189-0.1-0.383-0.2-0.579-0.305c-1.771-0.963-2.547-1.524-2.547-2.854c0-1.082,0.614-2.346,2.344-2.346
		c1.165,0,2.028,0.709,2.528,1.439l-0.039-0.919c-0.798-0.573-1.703-0.661-2.181-0.661c-1.644,0-3.309,0.996-3.309,2.898
		c0,1.535,1.047,2.354,2.735,3.18l0.186,0.089c1.749,0.845,2.804,1.355,2.804,3.22c0,1.385-0.727,3.001-2.775,3.001
		c-1.3,0-2.337-0.697-3.043-2.029L23.993,124.409z"/>
	<path fill="#424242" d="M27.003,125.72c-1.531,0-2.581-0.745-3.226-1.194l-0.071-2.384c0.432,1.32,1.333,2.986,3.298,2.986
		c2.124,0,2.556-1.848,2.556-2.782c0-1.79-1.027-2.222-2.867-3.113c-1.835-0.897-2.858-1.773-2.858-3.376
		c0-1.964,1.689-3.118,3.528-3.118c0.685,0,1.62,0.171,2.396,0.767l0.092,2.145c-0.145-0.8-1.153-2.333-2.796-2.333
		c-1.728,0-2.124,1.305-2.124,2.127c0,1.173,0.63,1.681,2.432,2.661c1.802,0.974,3.408,1.518,3.408,3.922
		C30.77,124.381,28.622,125.72,27.003,125.72"/>
	<path fill="#424242" d="M37.247,125.794h-2.082l-0.104-0.413c0.239-0.129,0.35-0.336,0.35-0.652v-10.966
		c-1.284,0.008-2.764,0.089-2.78,0.091c-0.34,0.012-0.633,0.325-0.796,0.615l-0.411,0.732v-2.534h9.521v1.695l-0.412,0.106
		c-0.076-0.141-0.36-0.599-0.802-0.614c-0.02-0.001-1.482-0.082-2.732-0.091v10.966c0,0.317,0.111,0.525,0.349,0.652L37.247,125.794
		z M35.699,125.356h1.012c-0.099-0.175-0.15-0.386-0.15-0.626v-11.406h0.219c1.304,0,2.954,0.091,2.971,0.092
		c0.312,0.011,0.565,0.153,0.756,0.321v-0.631h-8.644v0.635c0.191-0.171,0.442-0.314,0.748-0.325
		c0.012-0.001,1.677-0.092,3.019-0.092h0.219v11.406C35.85,124.97,35.799,125.18,35.699,125.356z"/>
	<path fill="#424242" d="M39.74,113.635c0,0-1.646-0.092-2.959-0.092v11.187c0,0.432,0.181,0.694,0.466,0.845h-2.082
		c0.282-0.151,0.466-0.413,0.466-0.845v-11.187c-1.35,0-3.011,0.092-3.011,0.092c-0.466,0.017-0.81,0.432-0.975,0.727v-1.476h9.083
		v1.476C40.566,114.068,40.224,113.652,39.74,113.635"/>
	<path fill="#424242" d="M50.602,125.809c-0.832,0-1.274-0.668-1.462-0.954c-0.758-1.17-1.232-1.97-1.671-2.709l-0.656-1.101
		c-0.388-0.665-0.722-1.24-1.562-1.24c-0.296,0-0.783,0.008-1.063,0.012v4.917c0,0.308,0.12,0.518,0.367,0.646l-0.1,0.414h-2.107
		l-0.1-0.414c0.248-0.127,0.368-0.337,0.368-0.646v-11.005c0-0.305-0.113-0.501-0.378-0.653l-0.71-0.41h3.702
		c4.188,0,4.4,2.749,4.4,3.3c0,1.754-1.203,2.871-2.277,3.272c0.451,0.32,0.757,0.795,0.962,1.114
		c0.082,0.135,1.774,3.352,2.678,4.321c0.362,0.396,1.084,0.695,1.091,0.699l-0.081,0.422L50.602,125.809z M44.189,118.743
		c0.228,0.012,0.618,0.03,1.005,0.03c1.38,0,2.774-0.857,2.774-2.771c0-0.86-0.501-2.315-2.378-2.315
		c-0.692,0-1.16,0.032-1.401,0.053V118.743z"/>
	<path fill="#424242" d="M45.59,113.468c-1.08,0-1.621,0.076-1.621,0.076v5.407c0,0,0.613,0.042,1.225,0.042
		c1.531,0,2.993-0.992,2.993-2.991C48.187,115.07,47.63,113.468,45.59,113.468 M50.602,125.59c-0.687,0-1.061-0.525-1.279-0.856
		c-1.064-1.642-1.568-2.555-2.201-3.598c-0.448-0.75-0.81-1.55-1.87-1.55c-0.436,0-1.282,0.017-1.282,0.017v5.132
		c0,0.429,0.196,0.692,0.486,0.841h-2.107c0.291-0.148,0.488-0.411,0.488-0.841v-11.005c0-0.428-0.196-0.676-0.488-0.844h2.882
		c3.499,0,4.18,2.002,4.18,3.081c0,2.034-1.674,3.083-2.686,3.207c0.743,0.209,1.192,0.971,1.461,1.383c0,0,1.712,3.264,2.647,4.267
		c0.399,0.437,1.169,0.751,1.169,0.751L50.602,125.59z"/>
	<path fill="#424242" d="M60.748,125.794l-0.082-0.423c0.392-0.157,0.406-0.33,0.293-0.612c-0.108-0.246-0.603-1.485-1.196-2.992
		H55.09c-0.599,1.482-1.093,2.732-1.182,2.984c-0.131,0.351-0.074,0.488,0.252,0.62l-0.082,0.423h-2.574l0.534-0.396
		c0.452-0.334,0.557-0.473,0.708-0.81c0.263-0.688,4.636-11.507,4.822-11.967l0.206-0.511c0,0,4.634,11.784,4.907,12.488
		c0.153,0.351,0.238,0.544,0.777,0.776l-0.086,0.42H60.748z M59.361,120.692c-0.751-1.916-1.561-4.052-1.932-5.033
		c-0.369,0.981-1.176,3.117-1.928,5.033H59.361z"/>
	<path fill="#424242" d="M57.428,115.034c0,0-1.204,3.228-2.25,5.877h4.504C58.64,118.262,57.428,115.034,57.428,115.034
		 M60.748,125.575c0.466-0.187,0.588-0.466,0.415-0.898c-0.113-0.26-0.633-1.563-1.25-3.13h-4.971
		c-0.625,1.545-1.149,2.87-1.241,3.13c-0.161,0.432-0.088,0.711,0.377,0.898h-1.909c0.486-0.36,0.612-0.526,0.777-0.898
		c0.27-0.705,4.824-11.974,4.824-11.974s4.432,11.27,4.705,11.974c0.163,0.372,0.272,0.632,0.896,0.898H60.748z"/>
	<path fill="#424242" d="M64.439,125.794l-0.102-0.414c0.25-0.13,0.367-0.336,0.367-0.646v-11.005c0-0.307-0.109-0.496-0.375-0.649
		l-0.709-0.41h3.744l-0.709,0.41c-0.268,0.154-0.378,0.343-0.378,0.649v10.869c0.346,0.05,0.907,0.116,1.62,0.116h0.233
		c2.16,0,2.635-0.036,3.161-1.052l0.411,0.139l-0.342,1.993H64.439z"/>
	<path fill="#424242" d="M71.176,125.575h-6.736c0.288-0.151,0.484-0.413,0.484-0.841v-11.005c0-0.432-0.196-0.673-0.484-0.839
		h2.107c-0.288,0.166-0.488,0.407-0.488,0.839v11.058c0.397,0.06,1.008,0.147,1.839,0.147c2.322,0,2.973,0.021,3.589-1.17
		L71.176,125.575z"/>
	<path fill="#424242" d="M73.285,125.794l-0.102-0.414c0.24-0.126,0.352-0.331,0.352-0.646v-11.005c0-0.313-0.104-0.502-0.36-0.649
		l-0.709-0.41h3.73l-0.713,0.41c-0.252,0.145-0.356,0.333-0.356,0.649v11.005c0,0.318,0.11,0.522,0.348,0.646l-0.101,0.414H73.285z"
		/>
	<path fill="#424242" d="M73.285,125.575c0.288-0.151,0.469-0.413,0.469-0.841v-11.005c0-0.432-0.181-0.673-0.469-0.839h2.089
		c-0.29,0.166-0.466,0.407-0.466,0.839v11.005c0,0.428,0.176,0.689,0.466,0.841H73.285z"/>
	<path fill="#424242" d="M85.18,125.794l-0.082-0.423c0.182-0.073,0.294-0.157,0.333-0.251c0.035-0.085,0.019-0.204-0.046-0.357
		l-1.189-2.997h-4.67c-0.608,1.483-1.098,2.735-1.193,2.988c-0.127,0.352-0.072,0.485,0.259,0.617l-0.082,0.423h-2.569l0.528-0.395
		c0.456-0.342,0.559-0.479,0.703-0.81c0.265-0.689,4.645-11.509,4.831-11.968l0.206-0.511c0,0,4.629,11.784,4.902,12.488
		c0.156,0.357,0.24,0.547,0.776,0.774l-0.085,0.422H85.18z M83.788,120.692c-0.75-1.916-1.558-4.052-1.928-5.033
		c-0.37,0.981-1.178,3.117-1.932,5.033H83.788z"/>
	<path fill="#424242" d="M81.86,115.034c0,0-1.207,3.228-2.254,5.877h4.504C83.068,118.262,81.86,115.034,81.86,115.034
		 M85.18,125.575c0.466-0.187,0.593-0.466,0.408-0.898c-0.102-0.26-0.626-1.563-1.242-3.13h-4.967
		c-0.634,1.545-1.154,2.87-1.251,3.13c-0.156,0.432-0.088,0.711,0.382,0.898h-1.909c0.482-0.36,0.612-0.526,0.773-0.898
		c0.271-0.705,4.834-11.974,4.834-11.974s4.428,11.27,4.701,11.974c0.163,0.372,0.266,0.632,0.896,0.898H85.18z"/>
	<path fill="#424242" d="M98.714,126.382l-0.392-0.506c-5.391-6.956-7.392-9.604-8.136-10.636v9.495c0,0.32,0.113,0.518,0.366,0.644
		l-0.098,0.416h-1.624l-0.101-0.414c0.249-0.13,0.371-0.342,0.371-0.646v-10.614c0-0.33,0-0.33-0.064-0.435
		c-0.18-0.274-0.364-0.467-0.708-0.588l0.073-0.426h1.928l0.067,0.086l7.211,9.427v-8.453c0-0.319-0.105-0.501-0.375-0.649
		l0.105-0.411h2.462l-0.71,0.41c-0.266,0.153-0.375,0.342-0.375,0.65V126.382z M89.382,125.356h0.516
		c-0.1-0.172-0.15-0.379-0.15-0.621v-10.186h0.219l0.202-0.082c0.187,0.363,4.809,6.374,8.107,10.633v-11.37
		c0-0.24,0.052-0.446,0.158-0.621h-0.54c0.103,0.172,0.152,0.377,0.152,0.621v9.75l-7.932-10.372h-0.968
		c0.099,0.104,0.178,0.212,0.247,0.316c0.148,0.243,0.148,0.295,0.148,0.695v10.614C89.539,124.972,89.486,125.18,89.382,125.356z"
		/>
	<path fill="#424242" d="M98.495,113.731v12.011c0,0-8.528-11.005-8.528-11.193v10.186c0,0.426,0.181,0.689,0.488,0.841h-1.624
		c0.29-0.151,0.489-0.414,0.489-0.841v-10.614c0-0.411,0-0.39-0.111-0.575c-0.177-0.266-0.393-0.511-0.808-0.656h1.82l7.605,9.942
		v-9.102c0-0.432-0.181-0.673-0.489-0.841h1.643C98.689,113.058,98.495,113.298,98.495,113.731"/>
	<path fill="#424242" d="M111.305,126.78l-0.211-0.576c-0.042-0.116-4.254-11.64-4.518-12.345c-0.156-0.354-0.24-0.546-0.782-0.765
		l0.082-0.423h2.575l0.083,0.422c-0.429,0.177-0.19,0.803-0.163,0.874l3.216,8.955l3.239-9.212c0.141-0.44,0.094-0.51-0.166-0.617
		l0.083-0.422h2.216l-0.534,0.396c-0.333,0.246-0.355,0.301-0.46,0.562c-0.027,0.068-0.059,0.147-0.101,0.24
		c-0.283,0.676-4.316,12.215-4.357,12.331L111.305,126.78z M106.635,113.109c0.168,0.175,0.25,0.364,0.34,0.567
		c0.24,0.64,3.459,9.442,4.321,11.801c0.834-2.387,3.91-11.17,4.165-11.779c0.041-0.094,0.071-0.168,0.097-0.231
		c0.06-0.148,0.105-0.256,0.178-0.357h-0.438c0.087,0.23,0.024,0.493-0.056,0.739l-3.65,10.382l-3.63-10.109
		c-0.154-0.383-0.161-0.741-0.037-1.013H106.635z"/>
	<path fill="#424242" d="M115.664,113.782c-0.29,0.692-4.363,12.346-4.363,12.346s-4.252-11.633-4.519-12.346
		c-0.165-0.375-0.271-0.635-0.906-0.892h2.575c-0.449,0.184-0.464,0.708-0.283,1.158l3.421,9.528l3.444-9.794
		c0.142-0.444,0.159-0.708-0.29-0.892h1.551C115.822,113.241,115.876,113.301,115.664,113.782"/>
	<path fill="#424242" d="M117.161,125.794l-0.104-0.413c0.237-0.127,0.348-0.333,0.348-0.647v-11.005
		c0-0.313-0.104-0.502-0.356-0.65l-0.695-0.408h3.721l-0.72,0.41c-0.255,0.145-0.358,0.333-0.358,0.649v11.005
		c0,0.318,0.111,0.522,0.351,0.646l-0.101,0.414H117.161z"/>
	<path fill="#424242" d="M117.161,125.575c0.283-0.151,0.464-0.413,0.464-0.841v-11.005c0-0.432-0.181-0.673-0.464-0.839h2.086
		c-0.292,0.166-0.469,0.407-0.469,0.839v11.005c0,0.428,0.177,0.689,0.469,0.841H117.161z"/>
	<path fill="#424242" d="M131.719,126.382l-0.393-0.506c-5.388-6.956-7.389-9.604-8.133-10.636v9.495
		c0,0.322,0.113,0.52,0.366,0.643l-0.095,0.417h-1.627l-0.1-0.414c0.251-0.13,0.369-0.334,0.369-0.646v-10.614
		c0-0.331,0-0.331-0.063-0.437c-0.153-0.236-0.334-0.455-0.705-0.587l0.074-0.426h1.928l0.065,0.086l7.206,9.427v-8.453
		c0-0.315-0.107-0.502-0.37-0.649l-0.742-0.411h3.307l-0.708,0.41c-0.269,0.154-0.378,0.343-0.378,0.65V126.382z M122.389,125.356
		h0.516c-0.1-0.172-0.15-0.379-0.15-0.621v-10.186h0.219l0.203-0.082c0.186,0.363,4.806,6.373,8.104,10.633v-11.37
		c0-0.24,0.053-0.446,0.159-0.621h-0.541c0.103,0.172,0.151,0.378,0.151,0.621v9.75l-7.927-10.372h-0.969
		c0.103,0.107,0.181,0.216,0.246,0.318c0.145,0.242,0.145,0.293,0.145,0.694v10.614C122.545,124.972,122.492,125.18,122.389,125.356
		z"/>
	<path fill="#424242" d="M131.5,113.731v12.011c0,0-8.526-11.005-8.526-11.193v10.186c0,0.426,0.179,0.689,0.49,0.841h-1.627
		c0.295-0.151,0.488-0.414,0.488-0.841v-10.614c0-0.411,0-0.39-0.109-0.575c-0.174-0.266-0.398-0.511-0.804-0.656h1.819l7.599,9.942
		v-9.102c0-0.432-0.181-0.673-0.484-0.841h1.64C131.697,113.058,131.5,113.298,131.5,113.731"/>
	<path fill="#424242" d="M139.107,125.794h-2.091l-0.103-0.413c0.239-0.126,0.349-0.333,0.349-0.652v-10.966
		c-1.284,0.009-2.762,0.089-2.777,0.091c-0.342,0.012-0.635,0.325-0.797,0.615l-0.411,0.735v-2.537h9.522v1.695l-0.411,0.106
		c-0.077-0.141-0.363-0.599-0.809-0.614c-0.02-0.001-1.474-0.082-2.726-0.091v10.966c0,0.319,0.113,0.525,0.355,0.65
		L139.107,125.794z M137.554,125.356h1.008c-0.098-0.174-0.148-0.382-0.148-0.626v-11.406h0.219c1.306,0,2.948,0.091,2.965,0.092
		c0.316,0.011,0.57,0.154,0.762,0.324v-0.634h-8.645v0.634c0.191-0.169,0.443-0.313,0.75-0.324c0.012-0.001,1.675-0.092,3.016-0.092
		h0.219v11.406C137.701,124.973,137.652,125.182,137.554,125.356z"/>
	<path fill="#424242" d="M141.586,113.635c0,0-1.637-0.092-2.953-0.092v11.187c0,0.432,0.181,0.694,0.473,0.845h-2.091
		c0.287-0.151,0.466-0.413,0.466-0.845v-11.187c-1.35,0-3.009,0.092-3.009,0.092c-0.469,0.017-0.812,0.432-0.977,0.727v-1.476h9.084
		v1.476C142.418,114.068,142.075,113.652,141.586,113.635"/>
	<path fill="#424242" d="M149.571,125.794l-0.082-0.423c0.181-0.073,0.293-0.157,0.333-0.253c0.036-0.086,0.024-0.202-0.039-0.358
		c-0.104-0.253-0.603-1.488-1.191-2.994h-4.675c-0.671,1.649-1.11,2.758-1.179,2.975c-0.136,0.36-0.08,0.497,0.246,0.629
		l-0.082,0.423h-2.567l0.529-0.395c0.451-0.336,0.555-0.475,0.703-0.812c0.262-0.688,4.637-11.507,4.823-11.967l0.207-0.511
		l0.201,0.512c0,0,4.436,11.271,4.704,11.976c0.157,0.354,0.244,0.546,0.785,0.774l-0.085,0.422H149.571z M148.184,120.692
		c-0.756-1.914-1.563-4.051-1.932-5.032c-0.369,0.981-1.176,3.117-1.926,5.032H148.184z"/>
	<path fill="#424242" d="M146.252,115.034c0,0-1.205,3.228-2.248,5.877h4.504C147.455,118.262,146.252,115.034,146.252,115.034
		 M149.571,125.575c0.464-0.187,0.591-0.466,0.414-0.898c-0.107-0.26-0.633-1.563-1.244-3.13h-4.973
		c-0.629,1.545-1.158,2.87-1.24,3.13c-0.166,0.432-0.091,0.711,0.373,0.898h-1.906c0.482-0.36,0.608-0.526,0.773-0.898
		c0.268-0.705,4.826-11.974,4.826-11.974s4.434,11.27,4.702,11.974c0.166,0.372,0.275,0.632,0.906,0.898H149.571z"/>
	<path fill="#424242" d="M159.201,125.939c-3.878,0-6.917-2.923-6.917-6.654c0-4.395,3.669-6.766,7.121-6.766
		c1.459,0,2.797,0.479,4.36,1.198l0.12,0.056l0.007,0.132c0.023,0.426,0.141,2.561,0.141,2.641l-0.426,0.071
		c-1.042-3.065-4.091-3.099-4.221-3.099c-3.951,0-5.352,2.95-5.352,5.475c0,2.936,1.594,5.898,5.153,5.898
		c0.629,0,2.218-0.104,3.598-1.055v-2.646c0-0.423-0.195-0.567-0.342-0.639l0.097-0.416h2.091l0.097,0.416
		c-0.233,0.115-0.346,0.323-0.346,0.639v2.185c0,0.348,0.21,0.774,0.213,0.779l0.086,0.174l-0.162,0.107
		C162.957,125.472,160.468,125.939,159.201,125.939z M159.406,112.958c-4.388,0-6.683,3.183-6.683,6.327
		c0,3.485,2.845,6.215,6.479,6.215c1.172,0,3.429-0.414,4.92-1.333c-0.076-0.191-0.178-0.502-0.178-0.794v-2.185
		c0-0.26,0.057-0.461,0.145-0.617h-1.007c0.086,0.156,0.142,0.357,0.142,0.617v2.871l-0.091,0.067
		c-1.504,1.086-3.261,1.202-3.946,1.202c-3.863,0-5.591-3.183-5.591-6.336c0-2.727,1.516-5.913,5.791-5.913
		c0.126,0,2.75,0.03,4.15,2.343c-0.024-0.438-0.051-0.936-0.074-1.362C162.003,113.396,160.748,112.958,159.406,112.958z"/>
	<path fill="#424242" d="M164.162,121.189v2.185c0,0.407,0.236,0.877,0.236,0.877c-1.512,1.005-3.949,1.47-5.196,1.47
		c-3.559,0-6.698-2.613-6.698-6.435c0-3.11,2.304-6.547,6.902-6.547c1.473,0,2.842,0.522,4.268,1.178c0,0,0.141,2.551,0.141,2.629
		c-0.951-2.797-3.562-3.247-4.428-3.247c-3.799,0-5.571,2.706-5.571,5.694c0,2.865,1.551,6.117,5.372,6.117
		c0.636,0,2.345-0.098,3.818-1.161v-2.759c0-0.428-0.172-0.694-0.464-0.836h2.091C164.342,120.495,164.162,120.761,164.162,121.189"
		/>
	<path fill="#424242" d="M166.737,125.794l-0.103-0.413c0.251-0.132,0.372-0.343,0.372-0.647v-11.005
		c0-0.301-0.113-0.496-0.379-0.649l-0.706-0.41h7.342v2.079l-0.384-0.432c-0.317-0.358-0.636-0.552-1.417-0.552h-2.883v4.224h2.913
		c0.127,0,0.358-0.209,0.426-0.386l0.423,0.079v1.66l-0.426,0.074c-0.062-0.177-0.289-0.378-0.423-0.378h-2.913v5.559
		c0.357,0.05,0.907,0.116,1.615,0.116h0.233c2.163,0,2.638-0.036,3.16-1.051l0.411,0.136l-0.334,1.994H166.737z"/>
	<path fill="#424242" d="M173.477,125.575h-6.74c0.287-0.151,0.488-0.413,0.488-0.841v-11.005c0-0.432-0.201-0.673-0.488-0.839
		h6.306v1.282c-0.346-0.39-0.724-0.626-1.581-0.626h-3.102v4.663h3.133c0.253,0,0.544-0.302,0.631-0.526v1.66
		c-0.086-0.242-0.378-0.523-0.631-0.523h-3.133v5.968c0.401,0.06,1.007,0.147,1.834,0.147c2.322,0,2.977,0.021,3.588-1.17
		L173.477,125.575z"/>
	<path fill="#424242" d="M182.319,125.794l-0.1-0.414c0.253-0.13,0.37-0.336,0.37-0.646v-11.005c0-0.308-0.11-0.496-0.379-0.649
		l-0.723-0.41h3.765l-0.712,0.41c-0.266,0.153-0.375,0.342-0.375,0.649v10.869c0.429,0.061,0.951,0.116,1.612,0.116h0.234
		c2.162,0,2.638-0.036,3.16-1.051l0.411,0.136l-0.336,1.994H182.319z"/>
	<path fill="#424242" d="M189.06,125.575h-6.742c0.293-0.151,0.49-0.413,0.49-0.841v-11.005c0-0.432-0.196-0.673-0.49-0.839h2.112
		c-0.289,0.166-0.485,0.407-0.485,0.839v11.058c0.393,0.06,1.008,0.147,1.831,0.147c2.331,0,2.977,0.021,3.589-1.17L189.06,125.575z
		"/>
	<path fill="#424242" d="M193.532,125.794h-2.091l-0.103-0.413c0.24-0.127,0.352-0.334,0.352-0.652v-10.966
		c-1.288,0.008-2.765,0.089-2.78,0.091c-0.426,0.015-0.718,0.475-0.798,0.615l-0.41,0.729v-2.531h9.522v1.695l-0.413,0.103
		c-0.053-0.098-0.34-0.594-0.806-0.611c-0.02-0.001-1.476-0.082-2.726-0.091v10.966c0,0.317,0.113,0.523,0.355,0.652
		L193.532,125.794z M191.981,125.356h1.011c-0.1-0.175-0.151-0.386-0.151-0.626v-11.406h0.219c1.305,0,2.948,0.091,2.965,0.092
		c0.293,0.011,0.552,0.141,0.76,0.322v-0.632h-8.645v0.632c0.192-0.171,0.442-0.311,0.75-0.322c0.012-0.001,1.674-0.092,3.019-0.092
		h0.219v11.406C192.129,124.973,192.079,125.182,191.981,125.356z"/>
	<path fill="#424242" d="M196.013,113.635c0,0-1.639-0.092-2.953-0.092v11.187c0,0.432,0.184,0.694,0.472,0.845h-2.091
		c0.287-0.151,0.469-0.413,0.469-0.845v-11.187c-1.355,0-3.012,0.092-3.012,0.092c-0.473,0.017-0.81,0.432-0.977,0.727v-1.476h9.084
		v1.476C196.848,114.068,196.5,113.652,196.013,113.635"/>
	<path fill="#424242" d="M198.667,125.794l-0.103-0.413c0.237-0.127,0.348-0.333,0.348-0.647v-11.005
		c0-0.314-0.103-0.501-0.354-0.644l-0.717-0.41h4.967c5.518,0,6.991,3.978,6.991,6.329c0,2.348-1.563,6.79-7.48,6.79H198.667z
		 M200.508,124.657c0.443,0.023,0.915,0.027,1.355,0.027l1.031-0.003c4.496,0,5.168-3.565,5.168-5.689
		c0-1.941-1.024-5.227-4.859-5.227l-1.214-0.003c-0.466,0-1.089,0.003-1.48,0.033V124.657z"/>
	<path fill="#424242" d="M203.203,113.546c-0.883,0-2.36-0.024-2.914,0.051v11.267c0.877,0.057,1.905,0.036,2.605,0.036
		c4.167,0,5.387-3.043,5.387-5.909C208.281,116.618,206.949,113.546,203.203,113.546 M202.32,125.575h-3.653
		c0.283-0.151,0.464-0.413,0.464-0.841v-11.005c0-0.432-0.181-0.673-0.464-0.835h4.141c6.031,0,6.772,4.694,6.772,6.11
		C209.58,121.707,207.707,125.575,202.32,125.575"/>
</g>
</svg>
