<?xml version="1.0" encoding="utf-8"?>
<!-- Generator: Adobe Illustrator 16.0.0, SVG Export Plug-In . SVG Version: 6.00 Build 0)  -->
<!DOCTYPE svg PUBLIC "-//W3C//DTD SVG 1.1//EN" "http://www.w3.org/Graphics/SVG/1.1/DTD/svg11.dtd">
<svg version="1.1" id="Layer_1" xmlns="http://www.w3.org/2000/svg" xmlns:xlink="http://www.w3.org/1999/xlink" x="0px" y="0px"
	 width="213px" height="58px" viewBox="0 0 213 58" enable-background="new 0 0 213 58" xml:space="preserve">
<g>
	<path fill="#3E3935" d="M85.94,38.678c-1.704,1.902-4.794,4.042-9.986,4.042c-7.965,0-13.988-5.587-13.988-14.107
		c0-8.52,6.142-14.107,13.988-14.107c5.112,0,8.203,2.14,9.709,3.606l-1.625,3.09c-1.07-1.347-4.121-3.328-7.925-3.328
		c-5.904,0-10.184,4.239-10.184,10.659c0,6.419,4.319,10.66,10.184,10.66c3.606,0,6.38-1.387,8.163-3.329L85.94,38.678z"/>
	<path fill="#3E3935" d="M97.788,42.682c-5.627,0-9.986-3.923-9.986-9.788c0-5.825,4.359-9.827,9.986-9.827
		c5.588,0,9.947,4.002,9.947,9.827C107.735,38.758,103.376,42.682,97.788,42.682 M97.788,26.156c-3.804,0-6.142,2.933-6.142,6.618
		c0,3.725,2.338,6.657,6.142,6.657c3.765,0,6.103-2.932,6.103-6.657C103.891,29.089,101.553,26.156,97.788,26.156"/>
	<path fill="#3E3935" d="M129.926,38.283c0,4.161-0.673,6.458-2.061,8.124c-1.387,1.704-3.725,3.606-8.401,3.606
		c-4.637,0-7.847-2.418-8.401-2.813l1.784-2.656c0.99,0.873,3.923,2.379,6.736,2.379s4.398-1.11,5.151-2.062
		c0.753-0.911,1.426-2.695,1.426-5.271v-0.951h-0.079c-1.268,1.902-3.407,3.368-6.577,3.368c-4.834,0-9.075-3.487-9.075-9.471
		c0-5.983,4.241-9.47,9.075-9.47c3.289,0,5.469,1.584,6.577,3.328h0.119l-0.04-2.971h3.766V38.283z M120.296,26.117
		c-3.844,0-5.984,2.853-5.984,6.419c0,3.566,2.141,6.38,5.984,6.38c3.884,0,5.984-2.813,5.984-6.38
		C126.28,28.97,124.18,26.117,120.296,26.117"/>
	<path fill="#3E3935" d="M145.935,41.017c-1.308,1.07-3.052,1.665-5.231,1.665c-3.171,0-5.746-1.309-7.331-3.369l1.822-2.22
		c1.427,1.745,3.805,2.695,5.548,2.695c1.744,0,3.606-0.634,3.606-2.695c0-2.06-2.972-2.695-4.24-3.13s-1.704-0.515-2.576-0.99
		c-1.188-0.595-2.972-1.823-2.972-4.518c0-3.487,3.011-5.389,6.34-5.389c3.33,0,5.231,1.188,6.42,2.457l-1.584,2.337
		c-1.109-1.149-2.933-2.021-4.756-2.021s-3.013,0.792-3.013,2.338c0,1.546,1.823,2.219,3.686,2.813
		c1.031,0.357,1.744,0.595,2.537,0.912c0.753,0.317,1.624,0.792,2.18,1.347c0.713,0.674,1.506,1.784,1.506,3.488
		C147.876,38.56,147.162,39.987,145.935,41.017"/>
	<path fill="#3E3935" d="M160.754,42.047c0,0-1.467,0.635-3.447,0.635c-1.981,0-3.21-0.754-4.003-1.942s-0.951-2.655-0.951-5.626
		v-8.6h-2.773v-3.051h2.773v-5.627h3.805v5.627h4.518v3.051h-4.518v8.52c0,1.585,0.039,2.655,0.475,3.447
		c0.357,0.594,0.872,0.951,1.942,0.951c1.11,0,1.941-0.437,1.941-0.437L160.754,42.047z"/>
	<path fill="#3E3935" d="M178.545,42.245h-3.685l-0.04-2.378c-0.752,0.793-2.536,2.814-5.984,2.814c-3.486,0-6.497-2.18-6.497-5.827
		c0-3.684,3.011-5.547,7.37-5.745l5.032-0.198V30.16c0-2.854-1.941-4.28-4.676-4.28s-5.033,1.228-5.667,1.624l-1.148-2.536
		c1.387-0.793,3.923-1.902,7.053-1.902c3.131,0,4.952,0.871,6.222,2.14c1.269,1.307,2.021,2.892,2.021,6.102V42.245z M174.78,33.211
		l-4.398,0.276c-3.051,0.16-4.28,1.466-4.28,3.249c0,1.784,1.387,3.25,3.885,3.25c2.456,0,4.082-1.665,4.794-2.734V33.211z"/>
	<path fill="#3E3935" d="M192.572,42.047c0,0-1.466,0.635-3.447,0.635s-3.21-0.754-4.002-1.942
		c-0.794-1.188-0.951-2.655-0.951-5.626v-8.6h-2.774v-3.051h2.774v-5.627h3.804v5.627h4.518v3.051h-4.518v8.52
		c0,1.585,0.04,2.655,0.476,3.447c0.357,0.594,0.872,0.951,1.942,0.951c1.109,0,1.941-0.437,1.941-0.437L192.572,42.047z"/>
	<path fill="#3E3935" d="M212.426,33.725h-14.505c0.199,3.725,2.577,5.984,6.063,5.984c3.528,0,5.786-1.902,6.222-2.18l1.585,2.18
		c-0.237,0.198-2.654,2.973-8.282,2.973c-5.588,0-9.431-3.884-9.431-9.868c0-5.943,4.319-9.747,9.551-9.747
		c5.229,0,8.915,3.724,8.915,8.995C212.544,32.774,212.426,33.725,212.426,33.725 M208.938,31.189
		c-0.039-2.1-1.624-5.389-5.429-5.389c-3.764,0-5.429,3.13-5.547,5.389H208.938z"/>
	<path fill="#3E3935" d="M51.603,18.726c0.072-2.69-0.33-3.809-0.659-4.274c-0.263-0.535-1.052-1.435-3.34-2.675
		c-0.397-0.216-12.917-7.428-19.48-11.21C27.491,0.202,26.666,0,25.801,0c-0.864,0-1.688,0.202-2.318,0.566
		C22.639,1.052,2.802,12.467,2.117,12.891c-0.761,0.468-1.279,1.271-1.431,1.527c-0.129,0.173-0.272,0.451-0.395,0.89l-0.004,0.01
		l0.002,0.001c-0.188,0.678-0.325,1.739-0.28,3.406c0.011,0.454,0.004,14.9-0.001,22.476c0,0.721,0.243,1.536,0.682,2.295
		c0.435,0.749,1.021,1.361,1.65,1.724c0.842,0.487,20.647,11.957,21.357,12.339c0.395,0.212,0.83,0.321,1.208,0.38v0.014l0.15,0.008
		c0.265,0.032,0.492,0.04,0.638,0.04c0.054,0,0.092-0.001,0.123-0.001c0.03,0,0.067,0.001,0.118,0.001
		c0.141,0,0.356-0.007,0.608-0.038l0.185-0.009v-0.018c0.369-0.059,0.792-0.168,1.181-0.377
		c0.709-0.382,20.515-11.852,21.358-12.339c0.634-0.367,1.219-0.98,1.648-1.725c0.445-0.768,0.69-1.583,0.69-2.295
		C51.598,33.631,51.59,19.193,51.603,18.726 M25.416,13.938c0.012-0.003,0.023-0.007,0.036-0.01
		c0.035-0.007,0.072-0.011,0.108-0.015c0.024-0.003,0.047-0.008,0.072-0.01c0.03-0.003,0.062-0.003,0.092-0.004
		c0.032-0.001,0.064-0.004,0.096-0.004c0.037,0,0.072,0.003,0.109,0.005c0.026,0.001,0.053,0.001,0.079,0.003
		c0.062,0.005,0.122,0.014,0.179,0.025l0,0c0.115,0.023,0.218,0.057,0.297,0.102l11.718,6.767l-12.401,7.177l-12.397-7.178
		l11.752-6.766C25.226,13.99,25.316,13.96,25.416,13.938 M39.131,35.75c0.001,0.039,0,0.083-0.002,0.13
		c-0.021,0.328-0.153,0.86-0.56,1.17c-0.543,0.319-7.331,4.236-11.856,6.846l0-14.342l12.398-7.177
		C39.111,26.132,39.113,35.233,39.131,35.75L39.131,35.75z M12.471,35.689c0-0.006,0-0.012,0-0.019
		c0.001-0.029,0.001-0.064,0.001-0.105c0-0.008,0-0.017,0-0.024c0.001-0.037,0.001-0.079,0.001-0.124c0-0.012,0-0.022,0-0.034
		c0-0.052,0.001-0.109,0.002-0.169c0-0.021,0-0.042,0-0.064c0-0.062,0-0.125,0.001-0.194c0-0.02,0-0.041,0-0.061
		c0-0.07,0-0.143,0.001-0.22c0-0.017,0-0.033,0-0.05c0-0.083,0.001-0.17,0.001-0.261c0-0.034,0-0.07,0-0.106
		c0-0.184,0.001-0.38,0.002-0.59c0-0.325,0.001-0.677,0.002-1.052c0-0.377,0.001-0.776,0.002-1.191c0-0.047,0-0.095,0-0.143
		c0-0.098,0-0.195,0-0.295c0-0.116,0-0.233,0-0.352c0-0.253,0.001-0.51,0.001-0.77c0-0.075,0-0.149,0-0.225
		c0.001-1.207,0.002-2.461,0.002-3.635v-0.066v-0.012c0-1.37,0.001-2.625,0.001-3.553l5.642,3.267l6.755,3.911l0.002,14.392
		c-3.218-1.869-10.979-6.379-11.73-6.799c-0.574-0.321-0.703-1.053-0.691-1.391C12.47,35.739,12.471,35.716,12.471,35.689
		 M24.393,2.145c0.709-0.41,2.111-0.409,2.819,0c0.776,0.447,19.023,10.963,19.523,11.234c1.018,0.552,1.646,0.995,2.025,1.312
		l-7.826,4.525v0l-0.912,0.528l-12.627-7.292l0,0c-0.008-0.005-0.019-0.008-0.027-0.013c-0.431-0.242-0.979-0.376-1.547-0.376
		c-0.581,0-1.139,0.138-1.574,0.389l-12.665,7.29l-0.913-0.529v0.001l-7.873-4.551c0.088-0.085,0.182-0.161,0.279-0.221
		C3.604,14.114,17.25,6.255,24.393,2.145 M24.561,55.954c-0.548-0.296-14.177-8.183-21.309-12.312
		c-0.353-0.204-0.713-0.591-0.985-1.06c-0.277-0.479-0.436-0.982-0.436-1.38c0-0.896,0.015-21.954,0-22.524
		c-0.031-1.148,0.035-1.911,0.114-2.401l2.338,1.352l6.386,3.692v0.417v0.331c0,2.976-0.002,7.668-0.008,10.7
		c0,0.027,0,0.053,0,0.08c0,0.124,0,0.243-0.001,0.36c0,0.036,0,0.073,0,0.109c0,0.083,0,0.162,0,0.241c0,0.08,0,0.158,0,0.234
		c0,0.063-0.001,0.124-0.001,0.184c0,0.059,0,0.118,0,0.174c0,0.06,0,0.116,0,0.173c0,0.068,0,0.136,0,0.2
		c0,0.036,0,0.069-0.001,0.104c0,0.069,0,0.137,0,0.2c0,0.034,0,0.064,0,0.097c0,0.06-0.001,0.12-0.001,0.175
		c0,0.016,0,0.028,0,0.043c0,0.065-0.001,0.127-0.001,0.181c0,0.004,0,0.007,0,0.011c0,0.059-0.001,0.111-0.001,0.156
		c0,0.017,0,0.028,0,0.043c0,0.029-0.001,0.061-0.001,0.083c-0.001,0.032-0.001,0.058-0.002,0.073
		c-0.004,0.121-0.001,0.249,0.009,0.38c0,0.007,0.001,0.014,0.002,0.021c0.005,0.059,0.011,0.119,0.019,0.179
		c0.002,0.017,0.006,0.034,0.008,0.051c0.008,0.051,0.016,0.102,0.025,0.154c0.004,0.022,0.01,0.044,0.015,0.066
		c0.01,0.047,0.02,0.094,0.031,0.142c0.008,0.033,0.019,0.066,0.028,0.1c0.011,0.037,0.02,0.073,0.032,0.11
		c0.011,0.036,0.024,0.071,0.037,0.106c0.011,0.035,0.022,0.07,0.036,0.104c0.013,0.035,0.029,0.069,0.043,0.103
		c0.015,0.036,0.029,0.07,0.044,0.105c0.016,0.034,0.034,0.067,0.05,0.101c0.018,0.035,0.034,0.07,0.052,0.105
		c0.018,0.034,0.039,0.066,0.059,0.1c0.02,0.034,0.039,0.068,0.06,0.101c0.02,0.031,0.042,0.06,0.063,0.091
		c0.024,0.035,0.046,0.07,0.071,0.104c0.019,0.026,0.041,0.05,0.061,0.075c0.03,0.037,0.059,0.075,0.091,0.112
		c0.019,0.021,0.04,0.042,0.06,0.063c0.035,0.038,0.071,0.077,0.109,0.114c0.019,0.019,0.041,0.036,0.06,0.054
		c0.041,0.038,0.082,0.077,0.126,0.113c0.019,0.015,0.04,0.029,0.06,0.044c0.048,0.037,0.095,0.074,0.146,0.109
		c0.019,0.012,0.039,0.023,0.057,0.035c0.053,0.034,0.106,0.069,0.162,0.101l12.627,7.323l0,1.058h0.001l0.009,8.97
		C24.78,56.051,24.663,56.008,24.561,55.954 M49.78,18.676c-0.017,0.57,0,21.629,0,22.525c0,0.391-0.162,0.894-0.445,1.383
		c-0.269,0.466-0.627,0.852-0.983,1.059c-7.131,4.129-20.762,12.016-21.309,12.311c-0.095,0.052-0.204,0.092-0.316,0.122
		l-0.005-10.027c2.228-1.297,11.795-6.858,12.607-7.313c0.959-0.537,1.42-1.473,1.569-2.318c0.002-0.012,0.003-0.024,0.006-0.036
		c0.018-0.107,0.032-0.213,0.04-0.315c0.001-0.023,0.002-0.044,0.003-0.067c0.005-0.092,0.008-0.181,0.006-0.268
		c0-0.004,0-0.009,0-0.012l-0.019-14.396l0.534-0.31l8.195-4.738C49.745,16.763,49.812,17.525,49.78,18.676"/>
</g>
</svg>
