<svg data-name="Isolation Mode" xmlns="http://www.w3.org/2000/svg" viewBox="0 0 159.98 59.25"><defs><clipPath id="a" transform="translate(0 -.39)"><path fill="none" d="M0 0h159.99v59.64H0z"/></clipPath></defs><title>logo</title><g clip-path="url(#a)"><path d="M34.91 52.08a3.08 3.08 0 0 1 2.13.58 2 2 0 0 1 .68 1.55 2.15 2.15 0 0 1-.37 1.21 2.67 2.67 0 0 1-2.35.85h-3.34v2.79h-1v-7zm0 3.36a2.21 2.21 0 0 0 1.25-.25 1.18 1.18 0 0 0 .52-1 1.16 1.16 0 0 0-.33-.85 2.12 2.12 0 0 0-1.56-.41h-3.14v2.53zM38.91 52.07h6.46v.87H39.9v2.08h5.32v.82H39.9v2.36h5.72v.86h-6.71v-6.99zM46.05 52.07h6.7v.84h-2.87v6.15h-.98v-6.15h-2.85v-.84zM53.76 52.08h4.75a2.77 2.77 0 0 1 2 .57 1.89 1.89 0 0 1 .62 1.49 1.94 1.94 0 0 1-1.88 2l2.57 2.95h-1.3l-2.37-2.79h-3.4v2.79h-1zm1 .84v2.53h3.45a1.91 1.91 0 0 0 1.64-.53 1.19 1.19 0 0 0 .24-.74 1.23 1.23 0 0 0-1.49-1.26zM71 55.67c0 2.39-2 3.58-4.21 3.58a4.91 4.91 0 0 1-2.87-.77 3.28 3.28 0 0 1-1.41-2.82c0-2.59 2.12-3.75 4.22-3.75 2.44 0 4.28 1.45 4.28 3.76m-7.55-.06a2.69 2.69 0 0 0 .61 1.78 3.42 3.42 0 0 0 2.68 1c2.59 0 3.25-1.63 3.25-2.78 0-1.84-1.48-2.86-3.39-2.81-1.45 0-3.11.78-3.11 2.84M72.52 52.07h.99v6.14h4.63v.85h-5.62v-6.99zM79.13 52.07h6.45v.87h-5.47v2.08h5.33v.82h-5.33v2.36h5.72v.86h-6.7v-6.99zM88.37 52.08v4.15c0 .81.09 1.29.69 1.67a3.31 3.31 0 0 0 1.92.48 4.13 4.13 0 0 0 1.65-.31 1.57 1.57 0 0 0 .9-1.71v-4.28h1v4.2a2.44 2.44 0 0 1-1.06 2.33 4.53 4.53 0 0 1-2.5.6 4.43 4.43 0 0 1-2.58-.6 2.5 2.5 0 0 1-1-2.38v-4.15zM96.66 52.08H98l2.2 4.53c.35.75.41.9.67 1.57a16.4 16.4 0 0 1 .63-1.53l2.21-4.59h1.35v7h-.93v-4a13.57 13.57 0 0 1 .09-2.14 10.93 10.93 0 0 1-.53 1.23l-2.38 4.93h-.91l-2.19-4.54a14.3 14.3 0 0 1-.7-1.59 13.72 13.72 0 0 1 .08 1.77v4.36h-.93zM110.28 52.07h.98v6.14h4.64v.85h-5.62v-6.99zM114.32 52.07h6.71v.84h-2.86v6.15h-.99v-6.15h-2.86v-.84zM122 52.08h3.48a3.81 3.81 0 0 1 2.67.77 3.36 3.36 0 0 1 1.16 2.68 3.58 3.58 0 0 1-1 2.54 4.69 4.69 0 0 1-3.52 1H122zm1 .82v5.33h2a3.12 3.12 0 0 0 2.71-1 2.88 2.88 0 0 0 .54-1.75 2.62 2.62 0 0 0-.65-1.87 2.73 2.73 0 0 0-2.08-.66zM5.19 39.77a4 4 0 0 0 4.09 4.28 4.47 4.47 0 0 0 2.81-.92 3 3 0 0 0 1-1.39l4.73.49a6.27 6.27 0 0 1-.82 1.72c-1.63 2.52-4.81 3.22-7.86 3.22a13.41 13.41 0 0 1-4-.51A6.89 6.89 0 0 1 0 39.79c0-2.69 1.42-7.54 9.31-7.54 6.74 0 7.8 3.06 8.25 4.38l-4.6.82a3.08 3.08 0 0 0-1.16-1.39 4.56 4.56 0 0 0-2.38-.63 4 4 0 0 0-4.24 4.34M23.83 32.83h5.66l6 13.87H30.1l-.75-2.26H24l-.75 2.26h-5.39zm2.85 3.85l-1.59 4.69h3.22zM36.62 32.83h10.2a6.58 6.58 0 0 1 3.87.88 4.49 4.49 0 0 1 1.63 3.52 4.18 4.18 0 0 1-.88 2.63 4 4 0 0 1-2.32 1.3l3.48 5.54h-5.5l-2.85-5h-2.66v5h-5zm5 5.68h3.73c.77 0 2 0 2-1.26a1.19 1.19 0 0 0-.36-.88 1.85 1.85 0 0 0-1.28-.39h-4.12zM54.7 32.83h4.1l4.26 4.68a31.13 31.13 0 0 1 2.46 2.91c-.08-1.91-.1-2.57-.1-4.44v-3.15h4.89V46.7h-4.12l-5.09-5.73c-.71-.82-.94-1.12-1.57-1.91.06 2.4.06 2.93.08 4.7v2.94H54.7zM77.47 32.83h5.66l6 13.87h-5.4L83 44.44h-5.3l-.75 2.26h-5.46zm2.85 3.85l-1.59 4.69h3.22zM90.26 32.83h10.2a6.58 6.58 0 0 1 3.87.88 4.48 4.48 0 0 1 1.67 3.52 4.18 4.18 0 0 1-.88 2.63 4 4 0 0 1-2.32 1.3l3.48 5.54h-5.5l-2.85-5h-2.7v5h-5zm5 5.68H99c.77 0 2 0 2-1.26a1.19 1.19 0 0 0-.36-.88 1.85 1.85 0 0 0-1.28-.39h-4.13zM137.82 33.13a6.91 6.91 0 0 1 4.3 6.58 7.32 7.32 0 0 1-1 3.77 6.59 6.59 0 0 1-1.65 1.87c-1.89 1.49-4.12 1.85-6.64 1.85-4.83 0-6.82-1.71-7.84-3.1a6.57 6.57 0 0 1-1.32-4.18 7.46 7.46 0 0 1 1.33-4.31c1.94-2.75 5.24-3.2 7.7-3.24a13.56 13.56 0 0 1 5.17.81m-9 6.62c0 2.14 1.16 4.36 4.16 4.36a3.82 3.82 0 0 0 3.97-4.41c0-1.51-.67-4.3-4.07-4.34-3.12 0-4.16 2.44-4.16 4.34M144.37 32.83h4.11l4.27 4.68a31.4 31.4 0 0 1 2.45 2.91c-.08-1.91-.1-2.57-.1-4.44v-3.15h4.9V46.7h-4.12l-5.09-5.74c-.71-.82-.94-1.12-1.57-1.91.06 2.4.06 2.93.08 4.7v2.94h-4.91zM106.47 32.83h5.2l2.22 5.44c.57 1.4.69 1.71 1.16 3.12.43-1.2 2.65-6.68 3.44-8.56h5.21l-6.33 13.87h-4.61z" fill="#002d62"/><path d="M91.7 20.61a11.53 11.53 0 0 0-2.16-2.53c-1.35-1.31-1.45-2.83-4.19 0a7.11 7.11 0 1 1 .56-8.72c1.14 1.61 2.41 3.81 3.87-.08.17-.48 1-2.64 1.2-3.3s.18-1.34-.79-1.13a11.46 11.46 0 0 0-2.75 1.08 10.45 10.45 0 0 0-2.3-1.74s-.79-2.77-1-3.37-.63-1.21-1.28-.47a11.46 11.46 0 0 0-1.63 2.57 10.27 10.27 0 0 0-2.2 0C78.86 2.74 76.3.75 75.79.38s-1.23-.58-1.32.4a11.41 11.41 0 0 0 .31 3.52 10.72 10.72 0 0 0-1.43 1C73 5.19 69 5.07 69 5.07c-1-.25-1.33.25-.83 1.1a11.34 11.34 0 0 0 2.38 2.72 10.68 10.68 0 0 0-.5 1.25c-.06.18-.1.36-.14.54-.26.12-3 2-3.52 2.35s-.93 1 0 1.38a11.45 11.45 0 0 0 3.36.79 10.41 10.41 0 0 0 .55 1.94c-.13.23-1.24 3.34-1.44 3.93s-.18 1.34.79 1.12a11.33 11.33 0 0 0 3.15-1.31 10.06 10.06 0 0 0 1.53 1.22c0 .28.91 3.28 1.15 4.07s.64 1.19 1.3.45a11.38 11.38 0 0 0 1.78-2.92 10.14 10.14 0 0 0 2.12.09c.13.11 2.53 1.94 3.08 2.39s1.22.58 1.31-.4a11.59 11.59 0 0 0-.24-3.17 10.44 10.44 0 0 0 1.73-1.12c.31.07 3.64.15 4.32.19s1.33-.25.83-1.1" fill="#ee3525"/></g></svg>