<?xml version="1.0" encoding="UTF-8"?>
<svg width="101px" height="34px" viewBox="0 0 101 34" version="1.1" xmlns="http://www.w3.org/2000/svg" xmlns:xlink="http://www.w3.org/1999/xlink">
    <!-- Generator: sketchtool 41.2 (35397) - http://www.bohemiancoding.com/sketch -->
    <title>D975FAE6-343C-40D1-8CE0-14D51824126D</title>
    <desc>Created with sketchtool.</desc>
    <defs>
        <polygon id="path-1" points="0.105860417 17 89.4139438 17 89.4139438 0.02635 0.105860417 0.02635 0.105860417 17"></polygon>
    </defs>
    <g id="Symbols" stroke="none" stroke-width="1" fill="none" fill-rule="evenodd">
        <g id="Desktop-top-menu" transform="translate(-375.000000, -33.000000)">
            <g id="MENU-Copy">
                <g id="logo-full" transform="translate(375.000000, 33.000000)">
                    <polygon id="Fill-1" fill="#00C7FF" points="0 -0.00010625 0 33.4640396 3.76514583 33.4640396 3.76514583 3.76503958 100.393146 3.76503958 100.393146 -0.00010625"></polygon>
                    <polygon id="Fill-2" fill="#0078FF" points="0 -0.00010625 16.73225 3.76503958 100.393146 3.76503958 100.393146 -0.00010625"></polygon>
                    <g id="Group-5" transform="translate(10.979167, 16.715037)">
                        <mask id="mask-2" fill="white">
                            <use xlink:href="#path-1"></use>
                        </mask>
                        <g id="Clip-4"></g>
                        <path d="M66.9364021,16.7497458 L70.0874229,16.7497458 L70.0874229,0.02635 L66.9364021,0.441433333 L66.9364021,16.7497458 Z M62.0761729,14.0566625 C61.7421938,14.3906417 61.0119021,14.7667667 60.2610688,14.7667667 C59.2591312,14.7667667 58.9874854,14.2029333 58.9874854,13.577475 C58.9874854,12.4714125 60.0730063,12.1788708 61.5753813,12.1374333 L62.0761729,12.1374333 L62.0761729,14.0566625 Z M60.7827562,5.64662083 C57.8190896,5.64662083 56.5246104,6.85751667 56.1906312,8.902475 L56.2203812,8.9077875 L58.8971729,9.2626625 C59.1142771,8.315975 59.5229854,7.9217875 60.5111104,7.9217875 C61.8884646,7.9217875 62.0559854,8.67262083 62.0559854,9.90370417 L62.0559854,10.3000167 C59.2591312,10.2798292 55.8152146,10.7806208 55.8152146,14.0988083 C55.8152146,15.1836208 56.3369021,16.9997875 59.0501729,16.9997875 C60.4427562,16.9997875 61.4404438,16.569475 62.1278813,15.7934958 L62.2670687,16.7493917 L65.1453813,16.7493917 L65.1443188,9.48685 C65.1443188,6.77357917 63.6833813,5.64662083 60.7827562,5.64662083 L60.7827562,5.64662083 Z M75.1006521,13.0341833 L75.1006521,8.17182917 L77.9803812,8.17182917 L77.9803812,5.876475 L75.0659438,5.876475 L75.0659438,2.3691625 L71.9496312,2.78637083 L71.9496312,13.4729958 C71.9496312,15.9564125 73.1392771,16.9994333 75.4133813,16.9994333 C76.4011521,16.9994333 77.3336729,16.7848083 77.9828604,16.5329958 L77.9828604,14.0945583 C77.5514854,14.3074125 76.9157563,14.4951208 76.3738812,14.4951208 C75.3719437,14.4951208 75.1006521,13.9946833 75.1006521,13.0341833 L75.1006521,13.0341833 Z M86.0330688,5.64662083 C84.4881938,5.64662083 83.4448188,6.27243333 82.6730896,6.87770417 L82.6730896,0.02635 L79.5422563,0.441433333 L79.5422563,16.7493917 L82.6932771,16.7493917 L82.6932771,9.0692875 C83.1111938,8.69387083 83.9665063,8.21362083 84.8221729,8.21362083 C85.8039229,8.21362083 86.2622146,8.71405833 86.2622146,9.88351667 L86.2622146,16.7493917 L89.4139438,16.7493917 L89.4139438,9.31932917 C89.4139438,6.83626667 88.3705688,5.64662083 86.0330688,5.64662083 L86.0330688,5.64662083 Z M48.2643813,10.0917667 C48.2852771,8.50545417 49.1621938,7.92143333 50.0589438,7.92143333 C51.0821313,7.92143333 51.6452563,8.52670417 51.6452563,10.0917667 L48.2643813,10.0917667 Z M50.2264646,5.646975 C47.3045896,5.646975 44.9044021,7.42064167 44.9044021,11.3437458 C44.9044021,14.2868708 46.1978188,16.9994333 50.2264646,16.9994333 C52.8143604,16.9994333 54.4421104,15.685475 54.8387771,13.66035 L52.1109854,13.2994542 C51.8761729,14.0587875 51.4196521,14.5585167 50.4141729,14.5585167 C49.0368188,14.5585167 48.2852771,13.8905583 48.2229438,12.0956417 L54.8387771,12.0956417 C54.8802146,11.7191625 54.9014646,11.0310167 54.9014646,10.6757875 C54.9014646,7.6497875 53.5230479,5.646975 50.2264646,5.646975 L50.2264646,5.646975 Z M40.3158187,13.5533917 L38.4514854,5.876475 L35.3840479,5.876475 L33.5781521,13.5533917 C33.5391937,13.5533917 32.0832146,5.876475 32.0832146,5.876475 L29.4266104,5.876475 L29.4266104,5.87576667 L25.8445688,5.87576667 L25.8445688,2.3691625 L22.7279021,2.78637083 L22.7279021,13.4726417 C22.7279021,15.9564125 23.9182562,16.9997875 26.1927146,16.9997875 C27.1801312,16.9997875 28.1126521,16.7851625 28.7621937,16.5322875 L28.7621937,14.0931417 C28.3301104,14.3070583 27.6961521,14.495475 27.1525062,14.495475 C26.1512771,14.495475 25.8799854,13.9943292 25.8799854,13.0345375 L25.8799854,8.17218333 L29.5583604,8.17218333 L31.4999021,16.7493917 L35.3450896,16.7493917 C35.3450896,16.7493917 36.8676521,10.0666208 36.8789854,10.0666208 C36.8949229,10.0666208 38.4709646,16.7493917 38.4709646,16.7493917 L42.2938396,16.7493917 L44.6260271,5.876475 L41.6938813,5.876475 C41.6938813,5.876475 40.3352979,13.5533917 40.3158187,13.5533917 L40.3158187,13.5533917 Z M6.53327708,5.64626667 C5.05215208,5.64626667 3.86250625,6.23064167 3.06917292,6.9612875 L2.90200625,5.876475 L0.105860417,5.876475 L0.105860417,16.7493917 L3.25723542,16.7493917 L3.25723542,9.04874583 C3.67373542,8.67226667 4.53046458,8.19307917 5.38613125,8.19307917 C6.36681875,8.19307917 6.82581875,8.69351667 6.82581875,9.8619125 L6.82581875,16.7493917 L9.97719375,16.7493917 L9.97719375,9.3200375 C9.97719375,6.8359125 8.93381875,5.64626667 6.53327708,5.64626667 L6.53327708,5.64626667 Z M14.7166521,10.0914125 C14.7379021,8.50545417 15.6137562,7.92107917 16.5119229,7.92107917 C17.5340479,7.92107917 18.0978813,8.52670417 18.0978813,10.0914125 L14.7166521,10.0914125 Z M16.6790896,5.646975 C13.7572146,5.646975 11.3566729,7.42064167 11.3566729,11.3437458 C11.3566729,14.2868708 12.6504437,17.0001417 16.6790896,17.0001417 C19.2662771,17.0001417 20.8940271,15.6851208 21.2914021,13.66035 L21.2903396,13.66035 L18.5636104,13.2994542 C18.3284437,14.0584333 17.8722771,14.5581625 16.8667979,14.5581625 C15.4887354,14.5581625 14.7379021,13.8902042 14.6752146,12.0952875 L21.2914021,12.0952875 C21.3328396,11.7198708 21.3530271,11.0310167 21.3530271,10.6764958 C21.3530271,7.6497875 19.9756729,5.646975 16.6790896,5.646975 L16.6790896,5.646975 Z" id="Fill-3" fill="#002855" mask="url(#mask-2)"></path>
                    </g>
                </g>
            </g>
        </g>
    </g>
</svg>