<?xml version="1.0" encoding="UTF-8"?>
<svg width="187px" height="26px" viewBox="0 0 187 26" version="1.1" xmlns="http://www.w3.org/2000/svg" xmlns:xlink="http://www.w3.org/1999/xlink">
    <!-- Generator: Sketch 47.1 (45422) - http://www.bohemiancoding.com/sketch -->
    <title>Logo</title>
    <desc>Created with Sketch.</desc>
    <defs></defs>
    <g id="Page-1" stroke="none" stroke-width="1" fill="none" fill-rule="evenodd">
        <g id="Homepage" transform="translate(-1513.000000, -96.000000)" fill-rule="nonzero">
            <g id="Header" transform="translate(101.000000, 92.000000)">
                <g id="Logo" transform="translate(1412.000000, 4.000000)">
                    <g id="Shape" fill="#5F6467">
                        <path d="M1.94269663,5.71123596 C3.22808989,6.83595506 3.21348315,6.83595506 2.67303371,8.3258427 C1.4752809,11.641573 1.51910112,14.9573034 2.93595506,18.2 C3.21348315,18.8426966 3.14044944,19.2078652 2.64382022,19.6168539 C2.41011236,19.8067416 2.26404494,20.1134831 2.05955056,20.405618 C-0.55505618,16.2719101 -0.657303371,9.96179775 1.94269663,5.71123596 Z"></path>
                        <path d="M24.0426966,20.2303371 C22.7573034,19.1348315 22.7865169,19.1348315 23.341573,17.5719101 C24.4955056,14.3292135 24.4662921,11.0865169 23.1224719,7.90224719 C22.8157303,7.18651685 22.8157303,6.71910112 23.458427,6.25168539 C23.6629213,6.10561798 23.7797753,5.82808989 23.9550562,5.57977528 C26.6280899,9.81573034 26.5842697,16.2865169 24.0426966,20.2303371 Z"></path>
                        <path d="M20.3617978,23.9696629 C16.1404494,26.5842697 9.85955056,26.5842697 5.76966292,24.0573034 C5.78426966,24.0134831 5.78426966,23.9696629 5.7988764,23.9404494 C6.87977528,22.7719101 6.87977528,22.7865169 8.35505618,23.3123596 C11.6269663,24.4808989 14.8842697,24.4662921 18.0831461,23.0932584 C18.8134831,22.7865169 19.2808989,22.8157303 19.7337079,23.458427 C19.8797753,23.6483146 20.1134831,23.7651685 20.3617978,23.9696629 Z"></path>
                        <path d="M5.60898876,2.0011236 C10.0786517,-0.701123596 16.3595506,-0.525842697 20.2449438,1.94269663 C20.2011236,2.0011236 20.1865169,2.0741573 20.1280899,2.11797753 C19.0910112,3.22808989 19.105618,3.21348315 17.6741573,2.68764045 C14.3876404,1.48988764 11.1011236,1.50449438 7.87303371,2.89213483 C7.17191011,3.1988764 6.73370787,3.15505618 6.28089888,2.55617978 C6.13483146,2.33707865 5.87191011,2.20561798 5.60898876,2.0011236 Z"></path>
                        <path d="M4.6741573,8.23820225 C5.05393258,8.67640449 5.43370787,9.05617978 5.74044944,9.47977528 C5.85730337,9.64044944 5.88651685,9.93258427 5.82808989,10.1224719 C5.25842697,12.0359551 5.27303371,13.9494382 5.82808989,15.8629213 C5.88651685,16.0674157 5.7988764,16.3741573 5.66741573,16.5494382 C5.38988764,16.9438202 5.0247191,17.2797753 4.68876404,17.6595506 C3.28651685,15.5707865 3.25730337,10.8820225 4.6741573,8.23820225 Z"></path>
                        <path d="M8.20898876,4.6011236 C11.4516854,3.25730337 14.4898876,3.25730337 17.6741573,4.54269663 C17.2213483,5.01011236 16.8269663,5.41910112 16.4179775,5.7988764 C16.3303371,5.88651685 16.0966292,5.88651685 15.9651685,5.84269663 C14.0078652,5.24382022 12.0505618,5.24382022 10.0932584,5.81348315 C9.91797753,5.87191011 9.6258427,5.78426966 9.46516854,5.66741573 C9.05617978,5.3752809 8.69101124,5.0247191 8.20898876,4.6011236 Z"></path>
                        <path d="M8.3988764,21.3988764 C8.45730337,21.311236 8.47191011,21.2674157 8.5011236,21.2235955 C9.17303371,20.3325843 9.90337079,19.9382022 11.1303371,20.3617978 C12.5764045,20.8438202 14.1247191,20.6685393 15.5707865,20.2157303 C16.1258427,20.0404494 16.4617978,20.0988764 16.8269663,20.5370787 C17.0606742,20.8146067 17.3674157,21.0044944 17.6741573,21.252809 C15.7898876,22.6842697 10.9696629,22.7280899 8.3988764,21.3988764 Z"></path>
                        <path d="M21.3988764,8.20898876 C22.7134831,11.4662921 22.7134831,14.5044944 21.3696629,17.8202247 C20.9314607,17.3089888 20.5662921,16.9146067 20.2595506,16.4764045 C20.1426966,16.3157303 20.1134831,16.0235955 20.1719101,15.8337079 C20.741573,13.9202247 20.7269663,12.0067416 20.1719101,10.0932584 C20.1134831,9.88876404 20.2011236,9.58202247 20.3179775,9.40674157 C20.6101124,9.04157303 20.9606742,8.69101124 21.3988764,8.20898876 Z"></path>
                        <path d="M14.4168539,7.75617978 C13.8764045,8.26741573 13.4235955,8.69101124 13,9.08539326 C12.605618,8.69101124 12.1674157,8.25280899 11.6561798,7.75617978 C12.547191,7.75617978 13.4089888,7.75617978 14.4168539,7.75617978 Z"></path>
                        <path d="M9.01235955,13.1606742 C8.72022472,13.452809 8.29662921,13.8764045 7.77078652,14.4022472 C7.77078652,13.4382022 7.77078652,12.5764045 7.77078652,11.6269663 C8.20898876,12.1674157 8.60337079,12.6494382 9.01235955,13.1606742 Z"></path>
                        <path d="M18.2292135,14.3876404 C17.7033708,13.8617978 17.2797753,13.4382022 16.8123596,12.9853933 C17.2505618,12.5764045 17.7179775,12.1674157 18.2292135,11.7 C18.2292135,12.547191 18.2292135,13.4089888 18.2292135,14.3876404 Z"></path>
                        <path d="M14.1977528,18.2438202 C13.4089888,18.2438202 12.5617978,18.2438202 11.5101124,18.2438202 C12.1235955,17.7325843 12.5910112,17.3382022 13.1168539,16.9 C13.394382,17.2505618 13.8033708,17.747191 14.1977528,18.2438202 Z"></path>
                    </g>
                    <g id="logo" transform="translate(47.000000, 3.000000)" fill="#000000">
                        <path d="M74.5343915,12.3553801 C70.7037037,12.3553801 66.9153439,12.3553801 63.042328,12.3553801 C63.042328,13.9516288 63.042328,15.4442251 63.042328,17.0404738 C67,17.0404738 70.9365079,17.0404738 74.957672,17.0404738 C74.957672,18.3879566 74.957672,19.6525173 74.957672,21 C69.6878307,21 64.3968254,21 59,21 C59,14.0345508 59,7.04837117 59,0 C64.3333333,0 69.6455026,0 75,0 C75,1.26456071 75,2.46692991 75,3.79368213 C71.021164,3.79368213 67.042328,3.79368213 63.042328,3.79368213 C63.042328,5.45212241 63.042328,6.98617966 63.042328,8.62388944 C66.8730159,8.62388944 70.6825397,8.62388944 74.5555556,8.62388944 C74.5343915,9.90918065 74.5343915,11.0908193 74.5343915,12.3553801 Z" id="Shape"></path>
                        <path d="M108.999948,10.9802555 C108.999948,16.1164549 106.353995,20.1181523 102.104433,21.4382999 C97.4940601,22.8822114 92.6030555,21.4795545 90.0573276,17.9522851 C86.2487584,12.692322 87.5917802,2.6261964 95.2289637,0.501583831 C103.226959,-1.70553797 109.019993,3.65756173 108.999948,10.9802555 Z M105.151289,10.1551633 C105.111199,8.75250643 104.569981,6.68977578 102.826057,5.20460971 C100.601051,3.32752482 98.0352779,3.14187906 95.48955,4.37951745 C92.8035065,5.67903776 91.8613867,8.17494185 91.8814318,11.0833921 C91.921522,14.8375619 93.8258066,17.4778571 96.872662,18.0966763 C101.683486,19.0661597 105.151289,16.0958276 105.151289,10.1551633 Z" id="Shape"></path>
                        <path d="M139.359404,4.15755937 C138.246093,4.72398134 137.235867,5.22971523 136.22564,5.73544913 C134.308271,3.65182548 131.957948,3.10563287 129.277755,3.71251355 C128.7211,3.83388968 128.164444,4.11710066 127.73149,4.46099971 C126.41201,5.49269686 126.576945,7.27288018 128.12321,7.89999021 C129.215904,8.34503604 130.4323,8.48664153 131.586844,8.74962315 C133.174343,9.11375156 134.823693,9.35650383 136.369958,9.88246708 C138.617197,10.671412 139.812976,12.3706778 139.977911,14.7172831 C140.142845,17.1245765 139.400638,19.2284295 137.194633,20.4017321 C133.215577,22.5258145 129.11282,22.5055851 125.071914,20.5028789 C123.587499,19.7543927 122.65974,18.459714 122,16.8211361 C123.092694,16.2547142 124.164771,15.7085216 125.216232,15.162329 C127.339769,18.0551268 130.205514,19.0463653 133.52483,18.0753562 C133.937168,17.9539801 134.370122,17.7719159 134.741226,17.5493929 C136.514276,16.4367784 136.473043,14.0699437 134.555674,13.2405402 C133.236194,12.6741182 131.710546,12.5527421 130.287982,12.208843 C128.927268,11.8851733 127.525321,11.642421 126.226458,11.1366871 C124.061687,10.3072836 122.98961,8.62824702 122.907142,6.36255916 C122.824675,4.05641259 123.834901,2.27622928 125.937822,1.26476149 C129.339606,-0.394045693 132.844474,-0.414275049 136.266874,1.16361471 C137.21525,1.58843118 137.957457,2.49875219 138.740898,3.227009 C139.008918,3.40907321 139.112002,3.75297226 139.359404,4.15755937 Z" id="Shape"></path>
                        <path d="M4.02768166,12.158716 C4.02768166,15.0561501 4.02768166,17.9330351 4.02768166,20.912666 C2.6366782,20.912666 1.34948097,20.912666 0,20.912666 C0,14.0286912 0,7.12416726 0,0.137446598 C1.26643599,0.137446598 2.55363322,0.137446598 3.98615917,0.137446598 C3.98615917,2.93213487 3.98615917,5.68572477 3.98615917,8.78865072 C5.73010381,6.87757712 7.24567474,5.21309367 8.76124567,3.54861022 C9.15570934,3.11707747 9.63321799,2.72664308 9.92387543,2.2334628 C11.5640138,-0.705069717 14.3044983,0.11689742 17.0657439,0.0757990632 C13.8269896,3.52806104 10.7543253,6.79538041 7.59861592,10.1859949 C10.982699,13.7204535 14.3875433,17.2343631 18,20.9948627 C16.1107266,20.9948627 14.532872,21.0154119 12.9757785,20.9743135 C12.7266436,20.9743135 12.4567474,20.6660759 12.2491349,20.4400349 C9.84083045,17.9330351 7.4532872,15.4260354 5.06574394,12.8984864 C4.79584775,12.6107979 4.60899654,12.2409127 4.38062284,11.9121258 C4.25605536,11.9943226 4.15224913,12.0765193 4.02768166,12.158716 Z" id="Shape"></path>
                        <path d="M30,21 C30,13.9516288 30,7.02764067 30,0 C31.258427,0 32.4775281,0 33.7949438,0 C33.7949438,5.76307996 33.7949438,11.4639684 33.7949438,17.3099704 C37.2359551,17.3099704 40.5786517,17.3099704 44,17.3099704 C44,18.5952616 44,19.7561698 44,20.9792695 C39.3398876,21 34.7191011,21 30,21 Z" id="Shape"></path>
                    </g>
                </g>
            </g>
        </g>
    </g>
</svg>