<?xml version="1.0" encoding="utf-8"?>
<!-- Generator: Adobe Illustrator 15.1.0, SVG Export Plug-In  -->
<!DOCTYPE svg PUBLIC "-//W3C//DTD SVG 1.1//EN" "http://www.w3.org/Graphics/SVG/1.1/DTD/svg11.dtd" [
	<!ENTITY ns_flows "http://ns.adobe.com/Flows/1.0/">
]>
<svg version="1.1"
	 xmlns="http://www.w3.org/2000/svg" xmlns:xlink="http://www.w3.org/1999/xlink" xmlns:a="http://ns.adobe.com/AdobeSVGViewerExtensions/3.0/"
	 x="0px" y="0px" width="165px" height="75px" viewBox="-2.069 -3.706 165 75"
	 overflow="visible" enable-background="new -2.069 -3.706 165 75" xml:space="preserve">
<defs>
</defs>
<path fill="#006FB6" d="M53.546,20.552l-1.123-7.747c-0.216-1.527-0.334-2.501-0.413-3.295h-0.04
	c-0.138,0.635-0.354,1.468-0.651,2.424l-2.856,8.618h-1.929l-2.696-8.042c-0.337-1.014-0.69-2.128-0.848-3h-0.02
	c-0.079,1.091-0.216,2.167-0.375,3.477l-0.908,7.565H39.84l1.949-13.407h2.226l2.796,8.444c0.335,0.972,0.59,1.866,0.748,2.658
	h0.041c0.197-0.933,0.393-1.585,0.71-2.54l2.893-8.562h2.245l2.008,13.407H53.546z"/>
<path fill="#006FB6" d="M65.442,15.51h-6.401c-0.081,2.642,1.004,3.773,3.09,3.773c1.006,0,2.07-0.237,2.857-0.617l0.157,1.45
	c-0.945,0.399-2.086,0.617-3.308,0.617c-3.013,0-4.629-1.59-4.629-5.065c0-2.96,1.595-5.164,4.374-5.164
	c2.755,0,3.918,1.887,3.918,4.151C65.5,14.896,65.481,15.171,65.442,15.51 M61.502,11.814c-1.282,0-2.185,0.973-2.382,2.423h4.569
	C63.729,12.787,62.881,11.814,61.502,11.814"/>
<path fill="#006FB6" d="M73.987,20.554c0-0.556,0.04-1.43,0.158-2.007l-0.039-0.017c-0.55,1.328-1.753,2.204-3.289,2.204
	c-2.404,0-3.603-1.77-3.603-4.65c0-3.455,1.967-5.541,5.059-5.541c0.532,0,1.064,0.041,1.655,0.1v-4.59h1.773v14.501H73.987z
	 M73.929,12.173c-0.59-0.161-1.181-0.218-1.732-0.218c-1.871,0-3.113,1.131-3.113,3.972c0,2.127,0.689,3.336,2.167,3.336
	c1.774,0,2.678-2.086,2.678-3.812V12.173z"/>
<path fill="#006FB6" d="M79.933,9.055c-0.648,0-1.179-0.517-1.179-1.172c0-0.635,0.531-1.152,1.179-1.152
	c0.652,0,1.186,0.496,1.186,1.152C81.119,8.518,80.585,9.055,79.933,9.055 M79.05,10.682h1.773v9.872H79.05V10.682z"/>
<path fill="#006FB6" d="M87.598,20.695c-2.345,0-4.294-1.114-4.294-4.749c0-3.178,1.613-5.422,4.883-5.422
	c0.771,0,1.536,0.118,2.226,0.317l-0.198,1.57c-0.609-0.237-1.336-0.417-2.107-0.417c-1.969,0-2.932,1.469-2.932,3.713
	c0,1.926,0.627,3.457,2.796,3.457c0.827,0,1.692-0.202,2.325-0.538l0.136,1.549C89.783,20.436,88.741,20.695,87.598,20.695"/>
<path fill="#006FB6" d="M97.957,20.553c0-0.695,0-1.408,0.097-1.962h-0.04c-0.469,1.209-1.709,2.143-3.326,2.143
	s-2.717-0.876-2.717-2.443c0-2.163,2.185-3.534,5.89-3.534v-0.739c0-1.367-0.531-2.102-2.149-2.102
	c-0.925,0-2.106,0.298-2.956,0.814l-0.175-1.531c0.945-0.397,2.128-0.714,3.425-0.714c2.817,0,3.624,1.33,3.624,3.296v3.935
	c0,0.933,0.022,1.985,0.04,2.838H97.957z M97.86,16.005c-3.411,0-4.157,1.055-4.157,1.949c0,0.832,0.588,1.367,1.496,1.367
	c1.597,0,2.661-1.587,2.661-3.137V16.005z"/>
<rect x="102.999" y="6.054" fill="#006FB6" width="1.771" height="14.5"/>
<path fill="#006FB6" d="M43.935,40.495c-1.338,0-2.381-0.078-3.367-0.078V27.029c1.024-0.019,2.52-0.08,3.979-0.08
	c4.254,0,6.794,2.005,6.794,6.616C51.341,38.152,48.289,40.495,43.935,40.495 M44.369,28.438c-0.689,0-1.497,0.042-1.99,0.063
	v10.327c0.493,0.078,1.222,0.119,1.754,0.119c3.111,0,5.297-1.628,5.297-5.262C49.43,30.267,47.813,28.438,44.369,28.438"/>
<path fill="#006FB6" d="M61.285,35.373h-6.401c-0.079,2.638,1.005,3.774,3.094,3.774c1.003,0,2.068-0.242,2.854-0.615l0.158,1.448
	c-0.944,0.396-2.088,0.613-3.308,0.613c-3.015,0-4.627-1.587-4.627-5.062c0-2.96,1.595-5.165,4.371-5.165
	c2.757,0,3.92,1.886,3.92,4.15C61.346,34.756,61.325,35.035,61.285,35.373 M57.347,31.677c-1.281,0-2.186,0.976-2.383,2.423h4.569
	C59.573,32.653,58.725,31.677,57.347,31.677"/>
<path fill="#006FB6" d="M67.745,40.417h-1.831l-3.683-9.874h1.988l2.069,5.88c0.216,0.636,0.412,1.251,0.572,1.868h0.038
	c0.157-0.575,0.336-1.211,0.552-1.809l2.125-5.94h1.913L67.745,40.417z"/>
<path fill="#006FB6" d="M80.366,35.373h-6.399c-0.08,2.638,1.004,3.774,3.093,3.774c1.002,0,2.065-0.242,2.854-0.615l0.157,1.449
	c-0.946,0.396-2.089,0.612-3.309,0.612c-3.014,0-4.63-1.587-4.63-5.062c0-2.96,1.597-5.165,4.375-5.165
	c2.756,0,3.917,1.886,3.917,4.15C80.426,34.756,80.406,35.035,80.366,35.373 M76.427,31.677c-1.279,0-2.187,0.976-2.383,2.423h4.569
	C78.652,32.653,77.807,31.677,76.427,31.677"/>
<rect x="83.004" y="25.917" fill="#006FB6" width="1.771" height="14.5"/>
<path fill="#006FB6" d="M91.611,40.593c-2.658,0-4.391-1.546-4.391-5.023c0-2.896,1.811-5.202,4.764-5.202
	c2.504,0,4.412,1.39,4.412,4.945C96.396,38.291,94.508,40.593,91.611,40.593 M91.828,31.855c-1.42,0-2.754,1.093-2.754,3.537
	c0,2.381,0.963,3.691,2.754,3.691c1.458,0,2.719-1.149,2.719-3.672C94.546,33.167,93.638,31.855,91.828,31.855"/>
<path fill="#006FB6" d="M102.286,40.535c-0.608,0-1.083-0.019-1.655-0.117v4.904h-1.771v-14.78h1.713
	c0,0.559-0.04,1.454-0.156,2.007l0.038,0.021c0.552-1.369,1.733-2.205,3.287-2.205c2.285,0,3.587,1.629,3.587,4.649
	C107.328,38.534,105.457,40.535,102.286,40.535 M103.31,31.836c-1.773,0-2.68,2.086-2.68,3.813v3.256
	c0.515,0.163,1.062,0.242,1.734,0.242c1.869,0,3.108-1.137,3.108-3.972C105.473,33.048,104.787,31.836,103.31,31.836"/>
<path fill="#006FB6" d="M122.037,40.418v-6.337c0-1.372-0.312-2.247-1.594-2.247c-1.396,0-2.736,1.492-2.736,3.878v4.706h-1.754
	v-6.356c0-1.231-0.254-2.228-1.595-2.228c-1.494,0-2.737,1.612-2.737,3.878v4.706h-1.771v-9.875h1.711
	c0,0.578-0.036,1.47-0.158,2.066l0.042,0.022c0.571-1.391,1.831-2.283,3.405-2.283c2.068,0,2.617,1.448,2.698,2.242
	c0.417-0.933,1.46-2.242,3.349-2.242c1.853,0,2.916,1.012,2.916,3.238v6.832H122.037z"/>
<path fill="#006FB6" d="M134.525,35.373h-6.402c-0.078,2.638,1.009,3.774,3.094,3.774c1.004,0,2.068-0.242,2.855-0.615l0.156,1.449
	c-0.943,0.396-2.087,0.612-3.311,0.612c-3.011,0-4.625-1.587-4.625-5.062c0-2.96,1.592-5.165,4.37-5.165
	c2.761,0,3.919,1.887,3.919,4.151C134.582,34.756,134.564,35.035,134.525,35.373 M130.583,31.677c-1.279,0-2.186,0.976-2.381,2.423
	h4.567C132.81,32.653,131.966,31.677,130.583,31.677"/>
<path fill="#006FB6" d="M143.389,40.418v-6.375c0-1.391-0.376-2.208-1.679-2.208c-1.611,0-2.773,1.649-2.773,3.835v4.748h-1.773
	v-9.874h1.712c0,0.578-0.034,1.489-0.155,2.066l0.037,0.021c0.57-1.372,1.775-2.283,3.449-2.283c2.245,0,2.951,1.409,2.951,3.156
	v6.913H143.389z"/>
<path fill="#006FB6" d="M150.291,40.576c-2.008,0-2.62-0.834-2.62-2.959V27.347l1.775-0.495v3.691h2.737v1.395h-2.737v5.043
	c0,1.629,0.298,2.066,1.398,2.066c0.45,0,0.946-0.079,1.339-0.18v1.51C151.631,40.497,150.922,40.576,150.291,40.576"/>
<path fill="#006FB6" d="M156.121,40.594c-0.729,0-1.457-0.057-2.067-0.177l0.061-1.59c0.606,0.2,1.397,0.34,2.147,0.34
	c1.295,0,2.184-0.599,2.184-1.512c0-2.204-4.549-0.854-4.549-4.33c0-1.667,1.359-2.959,3.922-2.959c0.59,0,1.273,0.08,1.867,0.198
	l-0.035,1.491c-0.611-0.201-1.324-0.319-1.973-0.319c-1.299,0-1.951,0.557-1.951,1.41c0,2.166,4.572,0.993,4.572,4.312
	C160.298,39.243,158.722,40.594,156.121,40.594"/>
<rect x="40.566" y="46.873" fill="#006FB6" width="1.812" height="13.408"/>
<path fill="#006FB6" d="M51.949,60.281v-6.377c0-1.392-0.372-2.203-1.671-2.203c-1.617,0-2.777,1.646-2.777,3.83v4.75h-1.772v-9.874
	h1.711c0,0.576-0.038,1.493-0.156,2.065l0.039,0.021c0.571-1.371,1.772-2.286,3.448-2.286c2.245,0,2.952,1.414,2.952,3.158v6.916
	H51.949z"/>
<path fill="#006FB6" d="M58.855,60.438c-2.007,0-2.618-0.835-2.618-2.959V47.208l1.772-0.496v3.695h2.738v1.39h-2.738v5.047
	c0,1.626,0.295,2.065,1.399,2.065c0.451,0,0.946-0.081,1.339-0.18v1.51C60.195,60.357,59.487,60.438,58.855,60.438"/>
<path fill="#006FB6" d="M70.513,55.231h-6.399c-0.078,2.646,1.005,3.776,3.092,3.776c1.004,0,2.068-0.238,2.853-0.614l0.16,1.447
	c-0.945,0.399-2.088,0.618-3.309,0.618c-3.013,0-4.628-1.593-4.628-5.066c0-2.959,1.595-5.165,4.372-5.165
	c2.758,0,3.921,1.888,3.921,4.153C70.575,54.618,70.553,54.896,70.513,55.231 M66.577,51.541c-1.282,0-2.187,0.972-2.385,2.423h4.57
	C68.8,52.513,67.954,51.541,66.577,51.541"/>
<path fill="#006FB6" d="M77.979,51.979c-2.068-0.356-3.053,1.171-3.053,4.328v3.975h-1.771v-9.873h1.713
	c0,0.615-0.059,1.528-0.217,2.343h0.039c0.415-1.37,1.418-2.742,3.369-2.523L77.979,51.979z"/>
<path fill="#006FB6" d="M86.368,60.281v-6.377c0-1.391-0.374-2.203-1.674-2.203c-1.617,0-2.777,1.646-2.777,3.83v4.75h-1.77v-9.874
	h1.711c0,0.577-0.04,1.493-0.157,2.065l0.042,0.021c0.569-1.372,1.768-2.287,3.446-2.287c2.243,0,2.952,1.414,2.952,3.158v6.916
	H86.368z"/>
<path fill="#006FB6" d="M96.685,60.281c0-0.698,0-1.414,0.1-1.972h-0.037c-0.474,1.217-1.714,2.149-3.33,2.149
	c-1.613,0-2.717-0.876-2.717-2.441c0-2.168,2.188-3.538,5.887-3.538v-0.734c0-1.369-0.531-2.106-2.145-2.106
	c-0.928,0-2.107,0.297-2.954,0.812l-0.178-1.526c0.942-0.399,2.128-0.718,3.427-0.718c2.818,0,3.625,1.334,3.625,3.299v3.934
	c0,0.932,0.018,1.986,0.036,2.842H96.685z M96.587,55.73c-3.406,0-4.15,1.054-4.15,1.948c0,0.831,0.586,1.37,1.492,1.37
	c1.594,0,2.658-1.59,2.658-3.14V55.73z"/>
<path fill="#006FB6" d="M103.492,60.438c-2.012,0-2.624-0.835-2.624-2.959V47.208l1.775-0.496v3.695h2.739v1.39h-2.739v5.047
	c0,1.626,0.296,2.065,1.397,2.065c0.455,0,0.945-0.081,1.342-0.18v1.51C104.832,60.357,104.121,60.438,103.492,60.438"/>
<path fill="#006FB6" d="M108.671,48.778c-0.652,0-1.184-0.516-1.184-1.172c0-0.634,0.531-1.15,1.184-1.15
	c0.649,0,1.182,0.495,1.182,1.15C109.853,48.246,109.321,48.778,108.671,48.778 M107.784,50.407h1.771v9.874h-1.771V50.407z"/>
<path fill="#006FB6" d="M116.389,60.459c-2.659,0-4.392-1.55-4.392-5.027c0-2.899,1.814-5.202,4.764-5.202
	c2.506,0,4.414,1.392,4.414,4.945C121.175,58.154,119.283,60.459,116.389,60.459 M116.605,51.718c-1.416,0-2.756,1.093-2.756,3.536
	c0,2.384,0.965,3.695,2.756,3.695c1.46,0,2.719-1.152,2.719-3.676C119.324,53.028,118.419,51.718,116.605,51.718"/>
<path fill="#006FB6" d="M129.861,60.281v-6.377c0-1.391-0.375-2.203-1.675-2.203c-1.613,0-2.776,1.646-2.776,3.83v4.75h-1.773
	v-9.874h1.716c0,0.577-0.042,1.493-0.159,2.065l0.043,0.021c0.563-1.372,1.768-2.287,3.441-2.287c2.244,0,2.953,1.414,2.953,3.158
	v6.916H129.861z"/>
<path fill="#006FB6" d="M140.179,60.283c0-0.699,0-1.416,0.098-1.973h-0.041c-0.469,1.216-1.711,2.148-3.322,2.148
	c-1.617,0-2.72-0.875-2.72-2.441c0-2.168,2.187-3.538,5.89-3.538v-0.734c0-1.369-0.531-2.106-2.149-2.106
	c-0.922,0-2.108,0.297-2.955,0.812l-0.175-1.526c0.943-0.399,2.127-0.717,3.426-0.717c2.816,0,3.623,1.333,3.623,3.298v3.934
	c0,0.932,0.021,1.986,0.041,2.844H140.179z M140.083,55.73c-3.409,0-4.16,1.054-4.16,1.948c0,0.831,0.593,1.37,1.502,1.37
	c1.592,0,2.658-1.589,2.658-3.14V55.73z"/>
<rect x="145.224" y="45.778" fill="#006FB6" width="1.771" height="14.505"/>
<polygon fill="#DB006B" points="39.781,69.108 21.715,69.108 21.715,46.291 0,46.291 0,22.725 21.715,22.726 21.715,0 39.781,0 
	39.781,7.113 28.828,7.113 28.828,29.839 7.114,29.839 7.114,39.178 28.828,39.178 28.828,61.995 39.781,61.995 "/>
</svg>
