<?xml version="1.0" encoding="utf-8"?>
<!-- Generator: Adobe Illustrator 21.1.0, SVG Export Plug-In . SVG Version: 6.00 Build 0)  -->
<svg version="1.1" id="Layer_1" xmlns="http://www.w3.org/2000/svg" xmlns:xlink="http://www.w3.org/1999/xlink" x="0px" y="0px"
	 viewBox="0 0 200 78" style="enable-background:new 0 0 200 78;" xml:space="preserve">
<style type="text/css">
	.st0{fill:#FFE412;}
	.st1{clip-path:url(#SVGID_2_);fill:#231F20;}
	.st2{clip-path:url(#SVGID_4_);fill:#231F20;}
	.st3{clip-path:url(#SVGID_6_);fill:#231F20;}
	.st4{fill:#231F20;}
</style>
<rect x="9.1" y="10.7" class="st0" width="180.7" height="55.5"/>
<g>
	<g>
		<defs>
			<rect id="SVGID_1_" width="200" height="77.6"/>
		</defs>
		<clipPath id="SVGID_2_">
			<use xlink:href="#SVGID_1_"  style="overflow:visible;"/>
		</clipPath>
		<path class="st1" d="M187.2,58.1c0,3.3-3.4,6.7-6.3,6.7H19.3c-3.5,0-6.6-3.5-6.6-6.7V19.3c0-3.3,3.2-6.7,6.8-6.7h161.1
			c3.3,0,6.7,3.5,6.7,6.7L187.2,58.1z M181.6,0H18.5C9.1,0,0,9.1,0,19v39.5c0,8.9,9.1,19,18.1,19l163.5,0.1
			c8.8,0,18.4-10.3,18.4-19.2V18.9C200,9.1,190.5,0,181.6,0"/>
	</g>
	<g>
		<defs>
			<rect id="SVGID_3_" width="200" height="77.6"/>
		</defs>
		<clipPath id="SVGID_4_">
			<use xlink:href="#SVGID_3_"  style="overflow:visible;"/>
		</clipPath>
		<path class="st2" d="M176.5,40.6c0.7,4.1-2.1,8-5.6,9.7c-5.7,2.9-12.5-0.9-12.5-0.9s1.3-2.5,2-3.6c0.4-0.6,1.4-2.7,1.4-2.7
			s4.2,2.3,5.7,2c0.8-0.1,1.5-1.2,0.6-2.1c-0.7-0.8-2-1.1-2.9-1.3c-5.9-1.8-4.1-8.9-0.7-11.9c6.1-5.4,13.2-0.1,13.2-0.1l-2.7,6
			c0,0-2.9-1.4-4.6-1.5c-0.7,0-1.3,0.4-1.3,1.3c0.1,1.2,3.2,1.5,4,1.8C175.1,37.8,176.1,38.8,176.5,40.6"/>
	</g>
	<g>
		<defs>
			<rect id="SVGID_5_" width="200" height="77.6"/>
		</defs>
		<clipPath id="SVGID_6_">
			<use xlink:href="#SVGID_5_"  style="overflow:visible;"/>
		</clipPath>
		<path class="st3" d="M150.4,35.8c-0.2,1.8-2,2.3-3.5,2.3l0.8-4.1C147.7,34.1,150.7,33.7,150.4,35.8 M157.3,38.6
			c0.8-1.8,1.3-3.9,1.1-5.7c-0.6-4.9-5.9-5.3-9.8-5.4c-0.9,0-7.4,0-7.4,0s-0.8,4.3-1.2,6.6c-1.1,5.9-3.3,17.6-3.3,17.6h7.7l1.5-7.6
			l1.2,4.3l0.9,3.2h8.8l-4-9.4C152.8,42.3,156.3,40.6,157.3,38.6"/>
	</g>
</g>
<polygon class="st4" points="138.1,27.4 136.9,34 130.4,34 130,36.1 135.8,36.1 134.7,42.6 128.7,42.6 128.1,44.8 135,44.8 
	133.7,51.5 119,51.5 123.7,27.4 "/>
<polygon class="st4" points="112.6,27.4 120.1,27.4 115.6,51.5 108,51.5 103.4,39 101.3,51.5 93.8,51.5 98.4,27.4 105.9,27.4 
	110.5,40.9 "/>
<g>
	<path class="st4" d="M82.2,37.8h11.5c-0.9,7-5.2,14.2-12.9,13.8c-7.4-0.5-11.7-6.6-8.5-15.9c2-5.9,9.1-9.3,14.6-8
		c5.7,1.4,6.8,5.7,6.8,5.7l-7.6,3.3c0,0-1.1-1.9-2.9-1.9c-2.5,0.1-4.2,2.6-4.8,4.8c-0.5,1.9,0.1,4.9,2.7,5c1.5,0.1,2.7-0.2,3.4-1.5
		c-1.2,0-2.2-0.1-3.4-0.1C81.5,41.3,81.9,39.6,82.2,37.8"/>
	<path class="st4" d="M60.8,35.5c0,0-1.9,4.8-2.8,7.3h3 M69.8,51.5h-8.4v-2.9h-5.9l-1.3,2.9h-8.1l11.9-24.2h8.5L69.8,51.5z"/>
</g>
<polygon class="st4" points="46.8,27.4 55,27.4 42.9,51.5 35.8,51.5 35.8,38.4 30.6,51.5 23.8,51.5 20.8,27.4 29,27.4 29,41.8 
	34.9,27.4 40.9,27.4 41.2,41.8 "/>
</svg>
