<svg width="174" height="38" viewBox="0 0 174 38" fill="none" xmlns="http://www.w3.org/2000/svg">
<rect width="173.962" height="38" fill="black" fill-opacity="0" transform="translate(-0.000131607)"/>
<rect width="173.962" height="38" fill="black" fill-opacity="0" transform="translate(-0.000131607)"/>
<rect width="173.962" height="38" fill="black" fill-opacity="0" transform="translate(-0.000131607)"/>
<rect width="173.962" height="38" fill="black" fill-opacity="0" transform="translate(-0.000131607)"/>
<rect width="37.9252" height="37.9241" fill="black" fill-opacity="0" transform="translate(-0.000131607)"/>
<path d="M18.658 37.924C8.512 37.962 0.0380004 29.602 4.1051e-07 19.57C-0.0379996 8.968 8.132 0.608 18.62 0.57C28.69 0.532 37.164 8.854 37.316 18.734C37.468 28.956 29.488 37.81 18.658 37.924ZM12.464 16.074C16.644 16.074 20.71 16.074 24.776 16.074C24.776 15.048 24.776 14.06 24.776 13.072C20.634 13.072 16.568 13.072 12.464 13.072C12.464 14.098 12.464 15.048 12.464 16.074ZM17.1 28.576C17.974 28.576 18.734 28.538 19.494 28.576C20.026 28.614 20.254 28.424 20.216 27.854C20.178 26.068 20.216 24.282 20.216 22.496C20.216 22.002 20.216 21.508 20.216 20.824C19.114 21.926 18.164 22.876 17.252 23.826C17.176 23.902 17.138 24.054 17.138 24.168C17.1 25.574 17.1 27.018 17.1 28.576Z" fill="black"/>
<path d="M35.796 0C37.012 0 37.962 0.988 37.924 2.242C37.886 3.42 36.898 4.37 35.72 4.37C34.542 4.332 33.554 3.344 33.554 2.166C33.592 0.95 34.58 0 35.796 0Z" fill="black"/>
<rect width="128.887" height="22" fill="black" fill-opacity="0" transform="translate(45.0754 16)"/>
<path d="M45.0754 25.1088C45.0754 19.6281 47.4518 16.0386 52.4684 16.0386C56.0518 16.0386 58.6167 18.1614 58.843 21.5965H55.5991C55.4105 19.7825 54.2412 18.8561 52.2421 18.8561C50.0544 18.8561 48.5833 20.2456 48.5833 22.407V27.6947C48.5833 29.7789 50.2053 31.2842 52.2798 31.2842C54.4298 31.2842 55.8632 30.2035 55.8632 27.8105V27.0772H52.393V24.2982H59.107V33.7158H56.0895L56.014 32.1333C55.1842 33.407 53.7886 34.1018 51.9781 34.1018C47.3763 34.0632 45.0754 30.3193 45.0754 25.1088Z" fill="black"/>
<path d="M62.6149 20.7088H69.7061V23.2175H65.7456V33.6772H62.6526V20.7088H62.6149Z" fill="black"/>
<path d="M77.3254 33.986C73.5158 33.986 71.4035 31.2842 71.4035 27.193C71.4035 23.1404 73.5535 20.4 77.3254 20.4C81.1351 20.4 83.2474 23.1018 83.2474 27.193C83.2474 31.2842 81.1351 33.986 77.3254 33.986ZM80.0412 25.3018C80.0412 23.7193 78.8719 22.8702 77.3254 22.8702C75.779 22.8702 74.6097 23.7579 74.6097 25.3018V29.0456C74.6097 30.5895 75.779 31.4772 77.3254 31.4772C78.8719 31.4772 80.0412 30.6281 80.0412 29.0456V25.3018Z" fill="black"/>
<path d="M98.2219 30.1263L100.108 20.7088H103.54L100.032 33.6772H96.2982L94.3746 24.2596H94.2614L92.3377 33.6772H88.6035L85.0956 20.7088H88.5658L90.414 30.1263H90.5272L92.3754 20.7088H96.2605L98.1842 30.1263H98.2219Z" fill="black"/>
<path d="M110.518 31.207H113.687V33.6772H107.425V23.1789H104.936V20.7088H107.425V16.386H110.518V20.7088H113.687V23.1789H110.518V31.207Z" fill="black"/>
<path d="M119.722 22.6C120.476 21.2105 121.683 20.4 123.456 20.4C126.285 20.4 127.605 22.214 127.605 25.186V33.6772H124.512V25.4175C124.512 23.8737 123.946 22.986 122.438 22.986C120.74 22.986 119.722 24.2982 119.722 26.1509V33.6386H116.629V16.386H119.722V22.6Z" fill="black"/>
<path d="M138.355 34.0632C133.603 34.0632 130.849 30.9368 130.849 25.0316C130.849 19.1263 133.603 16 138.355 16C143.108 16 145.861 19.1263 145.861 25.0316C145.861 30.9368 143.108 34.0632 138.355 34.0632ZM142.391 27.6947V22.3684C142.391 20.0912 140.581 18.8175 138.355 18.8175C136.13 18.8175 134.319 20.0912 134.319 22.3684V27.6947C134.319 29.9719 136.13 31.2456 138.355 31.2456C140.581 31.2842 142.391 30.0105 142.391 27.6947Z" fill="black"/>
<path d="M149.143 38V20.7088H152.236V22.4456C153.028 21.1333 154.273 20.4 155.932 20.4C159.327 20.4 160.911 23.4105 160.911 27.193C160.911 30.9754 159.327 33.986 155.932 33.986C154.273 33.986 153.028 33.214 152.236 31.9403V38H149.143ZM152.236 28.1579C152.236 30.2035 153.104 31.5158 155.103 31.5158C156.725 31.5158 157.705 30.5509 157.705 29.007V25.3404C157.705 23.7965 156.725 22.8316 155.103 22.8316C153.104 22.8316 152.236 24.1439 152.236 26.1895V28.1579Z" fill="black"/>
<path d="M170.605 26.1509C172.491 26.5754 173.962 27.6561 173.962 29.9333C173.962 32.2105 172.076 33.986 168.682 33.986C165.325 33.986 163.401 32.4035 163.288 29.5474H166.381C166.494 30.8211 167.286 31.5158 168.682 31.5158C169.889 31.5158 170.832 31.0526 170.832 30.0877C170.832 29.1614 170.077 28.7754 168.946 28.5439L166.758 28.0421C164.608 27.5404 163.589 26.3825 163.589 24.3368C163.589 22.1368 165.4 20.3614 168.493 20.3614C171.36 20.3614 173.396 21.7895 173.51 24.6456H170.417C170.379 23.4105 169.587 22.8316 168.493 22.8316C167.437 22.8316 166.682 23.3333 166.682 24.1825C166.682 25.0316 167.248 25.3789 168.078 25.5719L170.605 26.1509Z" fill="black"/>
<rect width="67" height="7" fill="black" fill-opacity="0" transform="translate(46 5)"/>
<path d="M46 5H51.4535V6.82447H49.6111V12H47.8055V6.82447H46V5Z" fill="#9D9D9C"/>
<path d="M54.8514 8.57447H55.6023C56.1655 8.57447 56.616 8.12766 56.616 7.56915C56.616 7.01064 56.1655 6.56383 55.6023 6.56383H54.8514V8.57447ZM57.1041 12L56.0153 10.1383H54.8514V12H53.0116V5H55.9777C57.4045 5 58.5684 6.15426 58.5684 7.56915C58.5684 8.31383 58.2305 8.98404 57.7424 9.46809L59.2442 12H57.1041Z" fill="#9D9D9C"/>
<path d="M62.3605 5H60.8023V12H62.3605V5Z" fill="#9D9D9C"/>
<path d="M67.814 7.60638L70.8437 5H71.7093V12H69.7813V8.42553L67.814 10.1011L65.886 8.42553V12H63.9186V5H64.7842L67.814 7.60638Z" fill="#9D9D9C"/>
<path d="M75.6203 9.54255H77.108L76.3641 8.01596L75.6203 9.54255ZM72.4884 12L75.9335 5H76.7948L80.2791 12H78.3608L77.891 11.0691H74.8765L74.4458 12H72.4884Z" fill="#9D9D9C"/>
<path d="M86.5067 12L83.0181 8.68617V12H81.0581V5H81.8813L85.37 8.31383V5H87.2907V12H86.5067Z" fill="#9D9D9C"/>
<path d="M88.0698 5H93.5233V6.82447H91.6809V12H89.8753V6.82447H88.0698V5Z" fill="#9D9D9C"/>
<path d="M96.6395 5H95.0814V12H96.6395V5Z" fill="#9D9D9C"/>
<path d="M99.9664 9.20745C99.9664 9.72872 100.372 10.1383 100.888 10.1383C101.403 10.1383 101.809 9.72872 101.809 9.20745V5H103.651V9.24468C103.651 10.7713 102.435 12 100.924 12C99.4137 12 98.1977 10.7713 98.1977 9.24468V5H100.04V9.20745H99.9664Z" fill="#9D9D9C"/>
<path d="M112.095 5L109.105 7.60638L106.075 5H105.209V12H107.137V8.42553L109.105 10.1011L111.033 8.42553V12H113V5H112.095Z" fill="#9D9D9C"/>
</svg>
