<svg width="55" height="55" viewBox="0 0 55 55" fill="none" xmlns="http://www.w3.org/2000/svg">
<rect width="54.8918" height="54.8902" fill="black" fill-opacity="0" transform="translate(-0.000198364)"/>
<rect width="54.8918" height="54.8902" fill="black" fill-opacity="0" transform="translate(-0.000198364)"/>
<rect width="54.8918" height="54.8902" fill="black" fill-opacity="0" transform="translate(-0.000198364)"/>
<rect width="54.8918" height="54.8902" fill="black" fill-opacity="0" transform="translate(-0.000198364)"/>
<rect width="54.8918" height="54.8902" fill="black" fill-opacity="0" transform="translate(-0.000198364)"/>
<path d="M27.005 54.89C12.32 54.945 0.0549927 42.845 -7.28617e-06 28.325C-0.0550073 12.98 11.77 0.88 26.95 0.825C41.525 0.77 53.79 12.815 54.01 27.115C54.23 41.91 42.68 54.725 27.005 54.89ZM18.04 23.265C24.09 23.265 29.975 23.265 35.86 23.265C35.86 21.78 35.86 20.35 35.86 18.92C29.865 18.92 23.98 18.92 18.04 18.92C18.04 20.405 18.04 21.78 18.04 23.265ZM24.75 41.36C26.015 41.36 27.115 41.305 28.215 41.36C28.985 41.415 29.315 41.14 29.26 40.315C29.205 37.73 29.26 35.145 29.26 32.56C29.26 31.845 29.26 31.13 29.26 30.14C27.665 31.735 26.29 33.11 24.97 34.485C24.86 34.595 24.805 34.815 24.805 34.98C24.75 37.015 24.75 39.105 24.75 41.36Z" fill="white"/>
<path d="M51.81 0C53.57 0 54.945 1.43 54.89 3.245C54.835 4.95 53.405 6.325 51.7 6.325C49.995 6.27 48.565 4.84 48.565 3.135C48.62 1.375 50.05 0 51.81 0Z" fill="white"/>
</svg>
