<svg id="Layer_1" data-name="Layer 1" xmlns="http://www.w3.org/2000/svg" viewBox="0 0 112 21.45"><defs><style>.cls-1{fill:#004a6a;}</style></defs><title>Tabcorp</title><path class="cls-1" d="M16.81 3.09V.72c0-.34-.09-.44-.44-.44H.42c-.3 0-.41.06-.4.38v2.41c0 .32.08.39.39.39H5.7c.37 0 .49.07.48.47v12.53c0 .3.05.4.38.39h3.66c.36 0 .48-.07.48-.46V3.91c0-.34.07-.44.42-.44h5.37a.3.3 0 0 0 .37-.37m9.23 9.11a2.55 2.55 0 0 1-1.34 1.9 5.5 5.5 0 0 1-4.13.63 1.62 1.62 0 0 1-1.35-2.06 1.3 1.3 0 0 1 1-.94 15.17 15.17 0 0 1 2.59-.32 10.32 10.32 0 0 0 3.24-.59 10.94 10.94 0 0 1 0 1.38m.57 4.63h3.87a8.26 8.26 0 0 1-.45-3.46V8.47a5.42 5.42 0 0 0-.19-1.6 3.46 3.46 0 0 0-2.6-2.34 16.33 16.33 0 0 0-8.26-.13 4.17 4.17 0 0 0-3.36 3.5c-.05.28 0 .36.29.35h3.25a.45.45 0 0 0 .5-.35 2.08 2.08 0 0 1 1.81-1.44 5.13 5.13 0 0 1 .66 0 8.47 8.47 0 0 1 2.88.26 1.24 1.24 0 0 1 .89 1.56 1 1 0 0 1-1.15.86c-1.1.1-2.21.17-3.32.25a20.32 20.32 0 0 0-3.63.42 3.65 3.65 0 0 0-2.78 2.13 3.71 3.71 0 0 0 2.23 4.94 10.27 10.27 0 0 0 5.25.29 6.87 6.87 0 0 0 3.58-1.55l.23 1a.25.25 0 0 0 .29.22m17.19-5.08a3.26 3.26 0 0 1-2.6 2.41 5.31 5.31 0 0 1-2.54-.1 3.56 3.56 0 0 1 .82-6.9 4.15 4.15 0 0 1 3.34.9 3.48 3.48 0 0 1 1 3.69m2.28 3.87a6.83 6.83 0 0 0 .72-9 6.64 6.64 0 0 0-5.32-2.56 6.1 6.1 0 0 0-5.1 1.85v-.5V.34c0-.29-.07-.38-.37-.37h-3.29c-.38 0-.45.1-.45.46v15.94a1.23 1.23 0 0 1 0 .17c0 .2.06.26.26.26h3.45a.21.21 0 0 0 .26-.26v-1.22a2 2 0 0 1 .51.42 5.31 5.31 0 0 0 2.85 1.44 8.92 8.92 0 0 0 2.53 0 7.17 7.17 0 0 0 3.95-1.55m14.92-6.66h4a1.72 1.72 0 0 0 0-.19 5.62 5.62 0 0 0-4.14-4.38 13.25 13.25 0 0 0-5.69-.31 8.75 8.75 0 0 0-2.16.57 5.71 5.71 0 0 0-3.73 5.31c-.24 3.38 1.1 6.12 4.86 7a14 14 0 0 0 5.95.07 5.63 5.63 0 0 0 4.92-4.83c.06-.29 0-.32-.27-.32h-3.58a.31.31 0 0 0-.38.29 2.69 2.69 0 0 1-1.65 1.9 4.32 4.32 0 0 1-2.12.31 3.43 3.43 0 0 1-3.24-2.12 4.56 4.56 0 0 1-.28-2 3.32 3.32 0 0 1 2.49-3.25 5.5 5.5 0 0 1 1.9-.18 3 3 0 0 1 2.89 2 .22.22 0 0 0 .22.19m17.35 2.78a3.23 3.23 0 0 1-2.69 2.51 5.54 5.54 0 0 1-2.71-.1 3.36 3.36 0 0 1-2.42-3.59c0-2.78 1.93-4 4.5-3.75a5 5 0 0 1 .94.16 3.3 3.3 0 0 1 2.5 3.15 5.32 5.32 0 0 1-.11 1.61m3.06 3a6.61 6.61 0 0 0 1.28-4.62 5.82 5.82 0 0 0-4.32-5.66 13.83 13.83 0 0 0-4.38-.53 11.9 11.9 0 0 0-2.85.38 6 6 0 0 0-4.38 3.54 7.88 7.88 0 0 0-.46 3.27 5.73 5.73 0 0 0 4 5.5 13.32 13.32 0 0 0 7.1.36 6.5 6.5 0 0 0 4-2.24m13.3-7.08V4.89c0-.66 0-.66-.63-.73a5.46 5.46 0 0 0-5.1 1.81l-.75.87V4.7c0-.25-.05-.33-.32-.33h-3.29c-.27 0-.34.07-.34.34v11.73c0 .31.11.35.38.35h3.33c.3 0 .39-.06.39-.38v-5.2a3.33 3.33 0 0 1 3-3.5 6.75 6.75 0 0 1 3 .2c.28.08.35 0 .35-.27m9.09 6.58a3.58 3.58 0 1 1 3.46-5.25 3.57 3.57 0 0 1-3.46 5.29m8.13-2.86v-.32a2.36 2.36 0 0 1 0-1v-.25c-.14 0-.08-.16-.09-.25a5.79 5.79 0 0 0-3.24-4.61 8.86 8.86 0 0 0-4-.86 5.69 5.69 0 0 0-4.35 1.82.25.25 0 0 1-.22.14V4.75c0-.26-.07-.32-.33-.32h-3.29c-.26 0-.36.05-.36.34v16.35a.28.28 0 0 0 .36.35h3.37c.33 0 .39-.1.39-.4v-5.12-.46a4.84 4.84 0 0 0 3 1.66 9.23 9.23 0 0 0 2.89.11 6.47 6.47 0 0 0 5.68-5 2.73 2.73 0 0 1 .2-.86"/></svg>