<?xml version="1.0" encoding="UTF-8"?>
<svg width="140px" height="37px" viewBox="0 0 140 37" version="1.1" xmlns="http://www.w3.org/2000/svg" xmlns:xlink="http://www.w3.org/1999/xlink">
    <!-- Generator: Sketch 44.1 (41455) - http://www.bohemiancoding.com/sketch -->
    <title>Group</title>
    <desc>Created with Sketch.</desc>
    <defs>
        <radialGradient cx="57.1991917%" cy="66.3358153%" fx="57.1991917%" fy="66.3358153%" r="42.114208%" gradientTransform="translate(0.571992,0.663358),scale(1.000000,0.998432),translate(-0.571992,-0.663358)" id="radialGradient-1">
            <stop stop-color="#FFFFFF" offset="0%"></stop>
            <stop stop-color="#FFF7E3" offset="15%"></stop>
            <stop stop-color="#FFE49C" offset="48%"></stop>
            <stop stop-color="#FFC52C" offset="96%"></stop>
            <stop stop-color="#FFC222" offset="100%"></stop>
        </radialGradient>
    </defs>
    <g id="Page-1" stroke="none" stroke-width="1" fill="none" fill-rule="evenodd">
        <g id="Group">
            <g id="test">
                <g id="CpharmLogo150821" fill-rule="nonzero">
                    <path d="M28.0274548,18.0212885 C28.0274547,23.3026689 23.7529533,27.5841744 18.4798544,27.5845333 C13.2067554,27.5848923 8.93167301,23.303969 8.93095611,18.0225884 C8.9302392,12.741208 13.2041592,8.4591205 18.4772581,8.4580434 C21.0100542,8.457181 23.4393893,9.46439507 25.2305292,11.2579823 C27.0216692,13.0515696 28.0277993,15.4845145 28.0274548,18.0212885 Z" id="Shape" fill="url(#radialGradient-1)"></path>
                    <path d="M23.7661185,4.33629127 C23.7650678,4.85538305 24.0764969,5.32393492 24.5550471,5.52325161 C25.0335974,5.72256829 25.5849139,5.61335091 25.9516713,5.24657635 C26.3184287,4.8798018 26.4283141,4.32778632 26.2300388,3.8481816 C26.0317634,3.36857688 25.5644209,3.05594565 25.0461421,3.05620769 C24.3402599,3.05692172 23.767906,3.62930235 23.7661185,4.33629127 L23.7661185,4.33629127 Z" id="Shape" fill="#807F83"></path>
                    <path d="M14.4106515,1.20662019 C14.3684601,1.21312136 11.2170834,2.08102974 11.2170834,2.08102974 L11.1839794,2.08818104 L5.10711258,6.58440151 L3.22472487,9.35520712 L1.40724709,17.2378955 C1.40724709,17.2606496 1.12748533,20.4975903 1.12748533,20.4975903 L1.12294163,20.5372476 L3.71090018,27.1866609 L6.24757989,30.2461193 C6.27938575,30.2753746 12.1874868,34.5759093 12.1874868,34.5759093 L12.3861111,34.3009092 L6.4793083,29.9997242 C6.4793083,29.9912727 4.1049034,27.1301006 4.00883672,27.0124291 L1.47150791,20.4871885 C1.47864799,20.4091742 1.74542777,17.289905 1.74542777,17.289905 C1.74542777,17.289905 3.46813708,9.82654312 3.54797627,9.49563274 C3.58237854,9.44557361 5.33235,6.86980359 5.36091037,6.82234492 C5.40894372,6.79048911 11.2897825,2.43859499 11.3410613,2.40153822 C11.3994803,2.38463514 14.4625795,1.54013104 14.4625795,1.54013104 C14.4171426,1.54793246 22.5295844,1.46666763 22.5295844,1.46666763 L22.5295844,1.12860595 L14.4106515,1.20662019 Z" id="Shape" fill="#807F83"></path>
                    <path d="M13.1306279,1.37955174 C13.1324196,2.08761726 13.706719,2.66029803 14.4136753,2.65898283 C15.1206316,2.65766764 15.692803,2.08285403 15.6919684,1.37478673 C15.6911337,0.666719427 15.117609,0.0932604782 14.4106515,0.093617083 C14.0704923,0.093615506 13.7443217,0.229221876 13.5041584,0.47049419 C13.2639951,0.711766504 13.129593,1.03885985 13.1306279,1.37955174 L13.1306279,1.37955174 Z" id="Shape" fill="#807F83"></path>
                    <path d="M9.97925124,2.24485963 C9.97872605,2.76383406 10.290489,3.23198726 10.7690815,3.43089402 C11.2476741,3.62980078 11.798778,3.52026175 12.165266,3.15338431 C12.5317541,2.78650686 12.6414008,2.23459303 12.4430487,1.75514804 C12.2446966,1.27570304 11.7774357,0.963213041 11.2592748,0.963475813 C10.5530348,0.96454882 9.9806808,1.5375111 9.97925124,2.24485963 Z" id="Shape" fill="#807F83"></path>
                    <path d="M11.358587,4.69190616 C11.3596623,5.40014273 11.9336462,5.97347619 12.6407725,5.97263882 C13.3478988,5.97180145 13.9205275,5.39711018 13.9199306,4.68887306 C13.9193338,3.98063593 13.3457375,3.4069136 12.6386107,3.40727175 C11.9312534,3.4087059 11.3585856,3.98343648 11.358587,4.69190616 L11.358587,4.69190616 Z" id="Shape" fill="#807F83"></path>
                    <path d="M21.2456662,1.29698667 C21.2474579,2.0050522 21.8217574,2.57773295 22.5287136,2.57641777 C23.2356699,2.57510257 23.8078412,2.00028896 23.8070067,1.29222167 C23.8061721,0.58415436 23.2326473,0.0106954119 22.5256899,0.0110520168 C22.1856369,0.0113963903 21.8596673,0.147113605 21.6195789,0.388310697 C21.3794905,0.629507787 21.244977,0.956400127 21.2456662,1.29698667 L21.2456662,1.29698667 Z" id="Shape" fill="#807F83"></path>
                    <path d="M17.1479029,6.22943674 C17.1473777,6.74946295 17.4597733,7.21856438 17.939336,7.41787364 C18.4188988,7.61718291 18.9711195,7.50742139 19.33835,7.13980021 C19.7055805,6.77217904 19.8154495,6.2191467 19.6166955,5.73872998 C19.4179416,5.25831324 18.9497339,4.94518967 18.430523,4.94545244 C18.0904107,4.94527995 17.7641695,5.08048033 17.523613,5.3212928 C17.2830564,5.56210526 17.1479029,5.88879026 17.1479029,6.22943674 Z" id="Shape" fill="#807F83"></path>
                    <path d="M17.1083078,12.2664384 C17.1086675,12.9740626 17.6813857,13.5475812 18.3879003,13.5478195 C19.094415,13.5480578 19.6675185,12.9749256 19.6683541,12.2673018 C19.6691896,11.5596779 19.0974412,10.9851897 18.3909279,10.9837542 C17.6840537,10.9855355 17.1111602,11.5584575 17.1083078,12.2664384 L17.1083078,12.2664384 Z" id="Shape" fill="#807F83"></path>
                    <path d="M11.6052447,15.8167362 C11.6070361,16.4967111 12.1585357,17.0466538 12.8374458,17.0454585 C13.5163557,17.0442632 14.0659215,16.4923819 14.065326,15.812405 C14.0647304,15.132428 13.5141988,14.5815131 12.8352877,14.5815108 C12.1554291,14.5833027 11.6052424,15.1358074 11.6052447,15.8167362 Z" id="Shape" fill="#807F83"></path>
                    <path d="M5.64716312,14.670577 C5.64644777,15.3788139 6.21897984,15.9536011 6.92610581,15.9545576 C7.63323177,15.955514 8.20731169,15.3822775 8.20850612,14.6740412 C8.20970055,13.9658051 7.63755741,13.3906295 6.93043225,13.3891932 C6.22292526,13.3884742 5.64859568,13.96196 5.64716312,14.670577 Z" id="Shape" fill="#807F83"></path>
                    <path d="M5.64716312,8.83446209 C5.64716539,9.5424453 6.21988398,10.116545 6.92675677,10.1171416 C7.63362956,10.1177381 8.20731329,9.54460586 8.20850678,8.83662367 C8.20970026,8.12864147 7.63795213,7.55357222 6.93108136,7.55177803 C6.22311074,7.55141791 5.64859545,8.12538095 5.64716312,8.83446209 L5.64716312,8.83446209 Z" id="Shape" fill="#807F83"></path>
                    <path d="M3.95561058,6.7027231 C3.95704385,7.41007154 4.53047244,7.9824618 5.23671254,7.98150527 C5.94295264,7.98054875 6.51483352,7.40660731 6.51435674,6.69925756 C6.51387995,5.99190781 5.94122586,5.41874026 5.23498512,5.4187388 C4.89532954,5.41908346 4.56972209,5.55455367 4.32979279,5.79534748 C4.08986348,6.03614128 3.9552661,6.36253408 3.95561058,6.7027231 L3.95561058,6.7027231 Z" id="Shape" fill="#807F83"></path>
                    <path d="M2.10308144,9.42346958 C2.10176801,9.94282357 2.41311793,10.4117705 2.89180963,10.6114309 C3.37050131,10.8110912 3.92215217,10.7020984 4.28928089,10.3353245 C4.65640961,9.96855051 4.76663024,9.41631149 4.56849763,8.93636318 C4.37036502,8.45641487 3.90294457,8.14338765 3.38440327,8.14338598 C2.67771874,8.14266733 2.10415615,8.71567563 2.10308144,9.42346958 Z" id="Shape" fill="#807F83"></path>
                    <path d="M0.290796446,17.2762526 C0.291513811,17.9835175 0.864231148,18.5564547 1.57038746,18.5563346 C2.27654378,18.5562146 2.84906691,17.9830827 2.84954457,17.2758176 C2.85002225,16.5685524 2.27827379,15.9946453 1.57211828,15.9935684 C1.23229753,15.9932232 0.906286421,16.1282312 0.665935871,16.3688372 C0.42558532,16.6094433 0.290623948,16.935898 0.290796446,17.2762526 L0.290796446,17.2762526 Z" id="Shape" fill="#807F83"></path>
                    <path d="M0.0129819842,20.5099426 C0.0114055782,21.029677 0.322816588,21.4991013 0.801809168,21.6990294 C1.28080175,21.8989573 1.83288901,21.7899508 2.20028713,21.4229077 C2.56768525,21.0558646 2.67792067,20.5031886 2.47952161,20.0229382 C2.28112255,19.5426878 1.81322556,19.2295983 1.29430382,19.229859 C0.589089773,19.2326948 0.0176018587,19.8036305 0.0129819842,20.5099426 L0.0129819842,20.5099426 Z" id="Shape" fill="#807F83"></path>
                    <path d="M2.57562567,19.6849421 C2.57588885,20.2041204 2.88845043,20.6719939 3.36750736,20.8703099 C3.84656429,21.0686259 4.3977295,20.958311 4.76389666,20.5908245 C5.13006383,20.2233379 5.2390882,19.6710846 5.04011232,19.1916783 C4.84113644,18.7122721 4.3733639,18.4001688 3.85500021,18.4009577 C3.51534462,18.4013025 3.18973717,18.5367727 2.94980787,18.7775664 C2.70987856,19.0183602 2.57528118,19.3447531 2.57562567,19.6849421 L2.57562567,19.6849421 Z" id="Shape" fill="#807F83"></path>
                    <path d="M5.13567294,26.2719441 C5.13638975,26.9800965 5.70995167,27.5536864 6.41699401,27.5533276 C7.12403636,27.5529686 7.69701756,26.9787969 7.69701776,26.270644 C7.69701798,25.5624912 7.12403713,24.988319 6.41699479,24.9879597 C5.70923528,24.9883186 5.13567286,25.5630729 5.13567294,26.2719441 Z" id="Shape" fill="#807F83"></path>
                    <path d="M2.57108196,27.1008453 C2.57003185,27.6205484 2.88172502,28.0896875 3.36076365,28.2894198 C3.83980228,28.4891522 4.39180302,28.3801253 4.75927002,28.0131976 C5.12673702,27.6462699 5.23726948,27.093736 5.03930652,26.6133405 C4.84134356,26.1329449 4.37388916,25.8193384 3.85500021,25.8188113 C3.14772435,25.8195212 2.5739393,26.3924641 2.57108196,27.1008453 L2.57108196,27.1008453 Z" id="Shape" fill="#807F83"></path>
                    <path d="M5.09932339,30.1421003 C5.10147262,30.849467 5.67524345,31.4214258 6.38150323,31.420231 C7.08776303,31.4190361 7.65960137,30.8451391 7.65936467,30.1377692 C7.65912796,29.4303992 7.08690566,28.8568863 6.38064523,28.8561656 C6.04042022,28.8563378 5.71421729,28.9919581 5.47388546,29.2331551 C5.23355365,29.4743522 5.09880654,29.8013412 5.09932339,30.1421003 Z" id="Shape" fill="#807F83"></path>
                    <path d="M10.2577148,28.020113 C10.25879,28.7277366 10.8320877,29.3006741 11.5386024,29.3001957 C12.2451171,29.2997172 12.8176407,28.7260039 12.8177606,28.0183795 C12.8178805,27.3107551 12.2455511,26.7368472 11.5390367,26.7361288 C11.1990436,26.735956 10.8729358,26.8711978 10.6325852,27.1120478 C10.3922347,27.3528977 10.2573701,27.6795861 10.2577148,28.020113 Z" id="Shape" fill="#807F83"></path>
                    <path d="M13.7602542,22.6020243 C13.7594667,23.1211429 14.0710105,23.5896088 14.5495853,23.788935 C15.0281601,23.9882612 15.5794963,23.8791846 15.9464574,23.5125771 C16.3134184,23.1459698 16.4237206,22.5940458 16.22592,22.114216 C16.0281195,21.6343861 15.5611791,21.3211671 15.0428742,21.3206405 C14.3356206,21.3202804 13.7616864,21.8936613 13.7602542,22.6020243 Z" id="Shape" fill="#807F83"></path>
                    <path d="M20.8140153,22.6020243 C20.8140161,23.3094591 21.3864164,23.8830482 22.0927417,23.8834065 C22.799067,23.8837649 23.3720472,23.3107569 23.3727637,22.6033226 C23.3734801,21.8958883 22.8016616,21.3217173 22.0953371,21.3206405 C21.7557413,21.3202956 21.4299271,21.455125 21.1896139,21.6954498 C20.9493007,21.9357746 20.8141872,22.261895 20.8140153,22.6020243 L20.8140153,22.6020243 Z" id="Shape" fill="#807F83"></path>
                    <path d="M24.0127762,27.8478316 C24.0124181,28.5557945 24.5850818,29.1300363 25.2919345,29.1305147 C25.9987873,29.1309932 26.5722255,28.5575273 26.5728228,27.8495644 C26.5734201,27.1416017 26.0009506,26.5671658 25.294098,26.5664478 C24.5877936,26.5678739 24.0152743,27.1404209 24.0127762,27.8478316 Z" id="Shape" fill="#807F83"></path>
                    <path d="M20.4583089,35.4646215 C20.4586686,36.1722458 21.0313866,36.7457643 21.7379013,36.7460026 C22.4444161,36.7462409 23.0175196,36.1731087 23.0183551,35.4654849 C23.0191906,34.757861 22.4474422,34.1833729 21.7409289,34.1819375 C21.400725,34.1807253 21.0740777,34.315413 20.8333329,34.5561697 C20.5925883,34.7969265 20.4576156,35.1238819 20.4583089,35.4646215 Z" id="Shape" fill="#807F83"></path>
                    <path d="M20.4583089,32.66131 C20.4579519,33.3691034 21.0303525,33.9432738 21.7370359,33.9439907 C22.4437192,33.9447076 23.0172798,33.3716997 23.0183545,32.663907 C23.0194291,31.9561143 22.4476112,31.3813619 21.7409289,31.3799261 C21.4011083,31.3792357 21.0749604,31.5139126 20.8343662,31.7542748 C20.5937722,31.9946372 20.4584805,32.320955 20.4583089,32.66131 L20.4583089,32.66131 Z" id="Shape" fill="#807F83"></path>
                    <path d="M23.802468,34.2794552 C23.8013941,34.9884942 24.3743481,35.5641894 25.0822751,35.5653854 C25.790202,35.5665814 26.3650918,34.9928254 26.3664061,34.2837869 C26.3677206,33.5747483 25.7949619,32.9988581 25.0870353,32.9974213 C24.379359,32.9974169 23.8049712,33.570672 23.802468,34.2794552 Z" id="Shape" fill="#807F83"></path>
                    <path d="M14.1166096,32.66131 C14.1166119,33.3685751 14.6887493,33.9420927 15.394905,33.9426892 C16.1010608,33.9432857 16.6741634,33.3707356 16.6753569,32.6634715 C16.6765503,31.9562074 16.1053835,31.3817203 15.3992296,31.3799261 C14.6918281,31.3792075 14.1176843,31.9527979 14.1166096,32.66131 L14.1166096,32.66131 Z" id="Shape" fill="#807F83"></path>
                    <path d="M14.1185569,35.423664 C14.1185577,36.1318168 14.6915393,36.7059881 15.3985815,36.7063465 C16.1056238,36.7067048 16.6791852,36.1331147 16.6799017,35.4249623 C16.6806182,34.7168099 16.1082185,34.1420567 15.4011769,34.14098 C15.0611314,34.1402891 14.7347865,34.2751444 14.4941548,34.515788 C14.2535233,34.7564315 14.1183838,35.0830838 14.1185569,35.423664 L14.1185569,35.423664 Z" id="Shape" fill="#807F83"></path>
                    <path d="M11.0015825,34.4367839 C11.0019422,35.1451263 11.5752415,35.719227 12.2824731,35.7194653 C12.9897048,35.7197036 13.5633896,35.1459893 13.5642251,34.4376474 C13.5650607,33.7293054 12.992731,33.154235 12.2855007,33.1527997 C11.5774675,33.1535137 11.0033701,33.7276407 11.0015825,34.4367839 L11.0015825,34.4367839 Z" id="Shape" fill="#807F83"></path>
                    <path d="M3.6959709,19.7467033 C3.6959709,19.7467033 6.21772132,26.2394381 6.24368529,26.3044499 C6.24368529,26.3694618 6.18786276,30.0751381 6.18786276,30.0751381 L6.52993804,30.080339 L6.58381328,26.2361875 L4.01338041,19.61863 L3.6959709,19.7467033 Z" id="Shape" fill="#807F83"></path>
                    <path d="M12.6730129,15.8700459 C12.6730129,15.8700459 14.806602,22.4277926 14.8559336,22.5773199 C14.7747962,22.7073436 11.6487344,27.6378432 11.5137218,27.8510822 L6.47151912,26.1113647 L6.35987406,26.436424 L11.6578218,28.2639076 L15.2278675,22.6260787 L12.9949662,15.7640766 L12.6730129,15.8700459 Z" id="Shape" fill="#807F83"></path>
                    <path d="M12.5399476,4.55213067 C12.5399476,4.55213067 6.92718676,8.62707425 6.85773315,8.67258255 L3.35714111,9.25768933 L3.40971815,9.59315053 L6.99728947,8.99634163 L12.6723639,4.87588974 C12.8242531,4.91489685 18.0176959,6.29574884 18.2546171,6.36141082 C18.2546171,6.61040625 18.2202148,11.995989 18.2202148,12.171521 C18.0683256,12.2677386 12.908636,15.5651403 12.7982891,15.6340528 C12.6684692,15.607398 6.84345297,14.4820427 6.84345297,14.4820427 L3.71154928,19.6114787 L4.00494212,19.7896112 C4.00494212,19.7896112 6.89148631,15.0528468 7.00832417,14.8604117 C7.23291248,14.9020193 12.8664445,15.9968191 12.8664445,15.9968191 L18.5577464,12.3561547 L18.5986397,6.09421206 L12.6003139,4.50207152 L12.5399476,4.55213067 Z" id="Shape" fill="#807F83"></path>
                    <polygon id="Shape" fill="#807F83" points="12.4795814 4.60609051 12.8008855 4.77772183 14.5742245 1.46276693 14.250324 1.29048549"></polygon>
                    <path d="M22.3991155,1.40945719 C22.3991155,1.40945719 24.5086879,3.89291037 24.8066244,4.24592478 C24.3334311,4.37594851 18.3837879,6.06625696 18.3837879,6.06625696 L18.4759599,6.39521699 L25.4083394,4.42795801 L22.6561588,1.18776674 L22.3991155,1.40945719 Z" id="Shape" fill="#807F83"></path>
                    <polygon id="Shape" fill="#807F83" points="1.44684214 17.3926237 3.73946054 19.8214669 3.98806555 19.5867741 1.69349984 17.1592312"></polygon>
                    <path d="M22.0953371,22.4329935 L15.0428742,22.4329935 L15.0428742,22.7736557 L22.0005686,22.7736557 C22.0972844,22.9238331 25.0747025,27.6495454 25.1941367,27.8406803 C25.058475,28.0233637 21.4793419,32.7269719 21.4793419,32.7269719 C21.4793419,32.7269719 24.0601604,33.9751998 24.6469461,34.2567011 C24.0465293,34.4679897 21.7604019,35.2780375 21.7110704,35.2968909 L15.4005279,35.259184 L15.4005279,35.259184 C15.4005279,35.2507325 13.5181401,34.6519733 12.7080643,34.3984269 C13.2442202,34.0902707 15.4803671,32.8166883 15.4803671,32.8166883 L15.3148467,32.5169836 L11.8609898,34.4855428 L15.3479508,35.5907445 C15.3972824,35.6004962 21.7389816,35.6382032 21.7389816,35.6382032 L21.7688401,35.6382032 L25.529721,34.3100108 C25.529721,34.3100108 22.3342055,32.7627285 22.0005686,32.5995487 C22.2335953,32.2900923 25.6063147,27.8582335 25.6063147,27.8582335 L22.1836145,22.4323434 L22.0946879,22.4323434 L22.0953371,22.4329935 Z" id="Shape" fill="#807F83"></path>
                    <path d="M11.4559519,28.1650895 L15.3167941,32.8329412 L21.7409289,32.8329412 L21.7409289,32.4929292 L15.4771215,32.4929292 C15.3765111,32.3700568 11.7207844,27.9499002 11.7207844,27.9499002 L11.4559519,28.1650895 Z" id="Shape" fill="#807F83"></path>
                </g>
                <path d="M45.0711665,20.7418352 C44.5781365,20.9474034 43.9618489,21.1324149 43.0785033,21.1324149 C41.352898,21.1324149 40.0176082,19.9606759 40.0176082,17.9049935 C39.9970653,16.0754362 41.1474688,14.6570154 43.0785033,14.6570154 C43.9823918,14.6570154 44.5781365,14.8625836 44.9889949,15.047595 L45.4409391,13.1563672 C44.8657373,12.8891285 43.920763,12.6835603 42.9963316,12.6835603 C39.4834923,12.6835603 37.4292003,15.0270382 37.4292003,18.0283345 C37.4292003,21.1324149 39.4629494,23.1264268 42.5854732,23.1264268 C43.8385913,23.1264268 44.8862803,22.8591881 45.4203962,22.6125062 L45.0711665,20.7418352 Z M46.4269993,12.9096853 L50.083639,22.0985856 C50.2068966,22.3452675 50.2274395,22.4891652 50.2274395,22.5919493 C50.2274395,22.7152903 50.1658107,22.8591881 50.0630961,23.0441995 C49.7138665,23.7225747 49.1592076,24.3187225 48.6867205,24.6270749 C48.1731475,24.9970977 47.6390315,25.2232228 47.2076302,25.3260069 L47.782832,27.4639166 C48.4196625,27.3816893 49.4468085,27.0527801 50.4328687,26.1688367 C51.624358,25.1409955 52.5487894,23.4758928 53.9251651,19.7345508 L56.4314013,12.9096853 L53.7197359,12.9096853 L52.158474,18.2544595 C51.9735877,18.9122779 51.7887014,19.6523235 51.624358,20.2279146 L51.5627293,20.2279146 C51.4189288,19.6523235 51.2134996,18.8917211 51.0080704,18.2750163 L49.2002935,12.9096853 L46.4269993,12.9096853 Z M64.6280264,20.7418352 C64.1349963,20.9474034 63.5187087,21.1324149 62.6353632,21.1324149 C60.9097579,21.1324149 59.5744681,19.9606759 59.5744681,17.9049935 C59.5539252,16.0754362 60.7043287,14.6570154 62.6353632,14.6570154 C63.5392517,14.6570154 64.1349963,14.8625836 64.5458547,15.047595 L64.997799,13.1563672 C64.4225972,12.8891285 63.4776229,12.6835603 62.5531915,12.6835603 C59.0403522,12.6835603 56.9860602,15.0270382 56.9860602,18.0283345 C56.9860602,21.1324149 59.0198092,23.1264268 62.1423331,23.1264268 C63.3954512,23.1264268 64.4431401,22.8591881 64.9772561,22.6125062 L64.6280264,20.7418352 Z M66.8466618,22.9208585 L69.3939839,22.9208585 L69.3939839,8.32551363 L66.8466618,8.32551363 L66.8466618,22.9208585 Z M76.6661775,12.6835603 C79.644901,12.6835603 81.6375642,14.7803563 81.6375642,17.8227662 C81.6375642,21.5024377 79.0491563,23.1469836 76.5018342,23.1469836 C73.6669112,23.1469836 71.4893617,21.1940853 71.4893617,17.9872208 C71.4893617,14.698129 73.6463683,12.6835603 76.6661775,12.6835603 Z M76.6045488,14.5336744 C74.8173147,14.5336744 74.0983125,16.2604476 74.0983125,17.9255503 C74.0983125,19.8578918 75.0432869,21.3174263 76.5840059,21.3174263 C78.0220103,21.3174263 79.0286134,19.8990054 79.0286134,17.8844367 C79.0286134,16.3221181 78.3301541,14.5336744 76.6045488,14.5336744 Z M83.7123991,26.9911096 L83.7123991,16.2398908 C83.7123991,14.9242541 83.6713133,13.8552992 83.6302274,12.9096853 L85.8488628,12.9096853 L85.9721203,14.4514471 L86.0132062,14.4514471 C86.7527513,13.3208218 87.9236977,12.6835603 89.4438738,12.6835603 C91.7446809,12.6835603 93.6551724,14.6570154 93.6551724,17.7816526 C93.6551724,21.3996536 91.3749083,23.1469836 89.0946442,23.1469836 C87.841526,23.1469836 86.7938371,22.6125062 86.2802641,21.81079 L86.2391783,21.81079 L86.2391783,26.9911096 L83.7123991,26.9911096 Z M86.2391783,17.1855047 L86.2391783,18.7272665 C86.2391783,18.9739484 86.2597212,19.2000734 86.32135,19.4261985 C86.567865,20.4540397 87.4717535,21.1940853 88.5399853,21.1940853 C90.1423331,21.1940853 91.0873074,19.8578918 91.0873074,17.8844367 C91.0873074,16.1165498 90.2245048,14.6775722 88.6016141,14.6775722 C87.5539252,14.6775722 86.5884079,15.4381747 86.3418929,16.5482431 C86.2802641,16.7538114 86.2391783,16.9799364 86.2391783,17.1855047 Z M95.7300073,22.9208585 L98.2773294,22.9208585 L98.2773294,16.9388228 C98.2773294,16.6510273 98.2978723,16.3837886 98.380044,16.1782203 C98.647102,15.4176178 99.3455613,14.7597995 100.331621,14.7597995 C101.72854,14.7597995 102.262656,15.8493111 102.262656,17.3088456 L102.262656,22.9208585 L104.789435,22.9208585 L104.789435,17.0210501 C104.789435,13.8141856 103.002201,12.6835603 101.297139,12.6835603 C100.660308,12.6835603 100.064563,12.8480149 99.5715334,13.1358104 C99.0374175,13.4236059 98.6265591,13.8141856 98.3184153,14.2869925 L98.2773294,14.2869925 L98.2773294,8.32551363 L95.7300073,8.32551363 L95.7300073,22.9208585 Z M115.389582,22.9208585 L113.109318,22.9208585 L112.944974,21.81079 L112.883346,21.81079 C112.267058,22.5919493 111.219369,23.1469836 109.925165,23.1469836 C107.911959,23.1469836 106.782098,21.6874491 106.782098,20.1662441 C106.782098,17.6377548 109.021277,16.3632317 112.719002,16.3837886 L112.719002,16.219334 C112.719002,15.5615156 112.451944,14.4720039 110.685253,14.4720039 C109.699193,14.4720039 108.672047,14.7803563 107.994131,15.2120496 L107.501101,13.5675037 C108.240646,13.1152536 109.53485,12.6835603 111.116654,12.6835603 C114.32135,12.6835603 115.245781,14.7186858 115.245781,16.8977092 L115.245781,20.5157101 C115.245781,21.4202104 115.286867,22.3041538 115.389582,22.9208585 Z M112.780631,19.4056417 L112.780631,18.0283345 C110.993397,17.9872208 109.288335,18.3778005 109.288335,19.8990054 C109.288335,20.885733 109.925165,21.3379831 110.726339,21.3379831 C111.732942,21.3379831 112.472487,20.6801647 112.698459,19.9606759 C112.760088,19.7756645 112.780631,19.5700962 112.780631,19.4056417 Z M117.916361,22.9208585 L120.44314,22.9208585 L120.44314,17.7405389 C120.44314,17.4527434 120.484226,17.1855047 120.525312,16.9593796 C120.751284,15.8287543 121.573001,15.047595 122.785033,15.047595 C123.093177,15.047595 123.319149,15.0887087 123.524578,15.1298223 L123.524578,12.7452307 C123.319149,12.7041171 123.175348,12.6835603 122.928833,12.6835603 C121.860602,12.6835603 120.689655,13.4030491 120.196625,14.82147 L120.114453,14.82147 L120.032282,12.9096853 L117.834189,12.9096853 C117.895818,13.8141856 117.916361,14.7803563 117.916361,16.1371067 L117.916361,22.9208585 Z M125.22964,22.9208585 L127.694791,22.9208585 L127.694791,17.0004933 C127.694791,16.7126977 127.735877,16.4249022 127.838591,16.1782203 C128.064563,15.4792883 128.701394,14.7392427 129.646368,14.7392427 C130.817315,14.7392427 131.371974,15.7259702 131.371974,17.1238342 L131.371974,22.9208585 L133.837124,22.9208585 L133.837124,16.918266 C133.837124,16.6304704 133.898753,16.3221181 133.960382,16.0754362 C134.227439,15.3559474 134.86427,14.7392427 135.727073,14.7392427 C136.939105,14.7392427 137.514307,15.7259702 137.514307,17.3910729 L137.514307,22.9208585 L139.979457,22.9208585 L139.979457,17.0210501 C139.979457,13.8141856 138.294938,12.6835603 136.630961,12.6835603 C135.809244,12.6835603 135.172414,12.8891285 134.617755,13.2797082 C134.145268,13.5675037 133.734409,13.9786402 133.38518,14.5336744 L133.344094,14.5336744 C132.912693,13.4236059 131.885547,12.6835603 130.5708,12.6835603 C128.88628,12.6835603 127.982392,13.6086173 127.489362,14.3897767 L127.427733,14.3897767 L127.325018,12.9096853 L125.147469,12.9096853 C125.209098,13.7730719 125.22964,14.7392427 125.22964,15.8904248 L125.22964,22.9208585 Z" id="cyclopharm" fill="#807F83"></path>
            </g>
        </g>
    </g>
</svg>