<?xml version="1.0" encoding="UTF-8" standalone="no"?>
<svg width="193px" height="103px" viewBox="0 0 193 103" version="1.1" xmlns="http://www.w3.org/2000/svg" xmlns:xlink="http://www.w3.org/1999/xlink" xmlns:sketch="http://www.bohemiancoding.com/sketch/ns">
    <!-- Generator: Sketch 3.4.4 (17249) - http://www.bohemiancoding.com/sketch -->
    <title>AssetOwlLogoWhite</title>
    <desc>Created with Sketch.</desc>
    <defs></defs>
    <g id="Marketing---Homepage" stroke="none" stroke-width="1" fill="none" fill-rule="evenodd" sketch:type="MSPage">
        <g sketch:type="MSArtboardGroup" transform="translate(-544.000000, -130.000000)" id="AssetOwlLogoWhite">
            <g sketch:type="MSLayerGroup" transform="translate(544.000000, 130.000000)">
                <g id="AssetOwl-Wordmark" transform="translate(0.000000, 67.494103)" fill="#FFFFFF" sketch:type="MSShapeGroup">
                    <path d="M192.123399,34.5910315 C190.541595,34.5615589 189.22982,34.38614 188.190349,34.0653417 C187.150025,33.74426 186.322882,33.2843169 185.707499,32.6849455 C185.092401,32.0867076 184.659785,31.3419568 184.411074,30.4506929 C184.161794,29.5599959 184.03758,28.5448903 184.03758,27.4059429 L184.03758,1.03048415 L189.354887,0.154240006 L189.354887,26.3979221 C189.354887,27.0406523 189.405482,27.5810784 189.508661,28.0192005 C189.610988,28.4570391 189.794324,28.8296979 190.057816,29.1363267 C190.321592,29.4429555 190.680021,29.6770362 191.134523,29.8374354 C191.588457,29.9981179 192.167172,30.1219597 192.870386,30.2098108 L192.123399,34.5910315 Z" id="L"></path>
                    <path d="M163.581826,19.7384949 C162.908173,22.3091323 162.183642,24.8137396 161.407947,27.2526002 C160.631967,29.6914608 159.864515,31.99146 159.1036,34.1528811 L154.737935,34.1528811 C154.150692,32.809609 153.534172,31.2764652 152.888944,29.5525994 C152.243431,27.8295837 151.59735,25.9895277 150.951838,24.0321479 C150.306609,22.0756183 149.660244,20.0165013 149.015016,17.8545134 C148.369219,15.6933756 147.738487,13.4883124 147.122536,11.2387567 L152.749665,11.2387567 C153.014578,12.4655552 153.323549,13.787573 153.676293,15.2039599 C154.029605,16.6209135 154.397129,18.066773 154.780571,19.541255 C155.163729,21.0165871 155.561098,22.4547951 155.972964,23.8570124 C156.385399,25.258663 156.797833,26.5446901 157.209699,27.7125433 C157.649989,26.3692713 158.083173,24.9815069 158.508967,23.5503837 C158.934477,22.1195439 159.338384,20.6881373 159.72012,19.2564473 C160.101857,17.8258909 160.461706,16.4307583 160.79967,15.0724666 C161.137349,13.7141748 161.438076,12.4369327 161.702421,11.2387567 L165.789246,11.2387567 C166.052169,12.4369327 166.344938,13.7141748 166.666131,15.0724666 C166.987324,16.4307583 167.330687,17.8258909 167.696222,19.2564473 C168.061472,20.6881373 168.456,22.1195439 168.879804,23.5503837 C169.303608,24.9815069 169.734518,26.3692713 170.173387,27.7125433 C170.555692,26.5446901 170.95363,25.258663 171.365496,23.8570124 C171.777362,22.4547951 172.18269,21.0165871 172.58006,19.541255 C172.977714,18.066773 173.353197,16.6209135 173.705941,15.2039599 C174.058969,13.787573 174.368792,12.4655552 174.633705,11.2387567 L180.128094,11.2387567 C179.511574,13.4883124 178.880558,15.6933756 178.235329,17.8545134 C177.589533,20.0165013 176.943736,22.0756183 176.297939,24.0321479 C175.652142,25.9895277 175.005777,27.8295837 174.360549,29.5525994 C173.715036,31.2764652 173.08402,32.809609 172.468353,34.1528811 L168.145892,34.1528811 C167.384977,31.99146 166.602176,29.6914608 165.797489,27.2526002 C164.992801,24.8137396 164.254625,22.3091323 163.581826,19.7384949" id="W"></path>
                    <path d="M120.669967,18.9499036 C120.669967,20.6148241 120.874621,22.1261469 121.28535,23.4844387 C121.694942,24.842447 122.288154,25.9969809 123.064986,26.9454897 C123.840681,27.895132 124.7855,28.6325147 125.899158,29.1582045 C127.012248,29.6838943 128.272291,29.9468809 129.678434,29.9468809 C131.0553,29.9468809 132.300278,29.6838943 133.413936,29.1582045 C134.527026,28.6325147 135.471561,27.895132 136.248393,26.9454897 C137.024088,25.9969809 137.6173,24.842447 138.028029,23.4844387 C138.437905,22.1261469 138.643128,20.6148241 138.643128,18.9499036 C138.643128,17.284983 138.437905,15.7736602 138.028029,14.4153685 C137.6173,13.0570767 137.024088,11.9036764 136.248393,10.9540341 C135.471561,10.0052419 134.527026,9.26729244 133.413936,8.74160263 C132.300278,8.21591282 131.0553,7.95292622 129.678434,7.95292622 C128.272291,7.95292622 127.012248,8.21591282 125.899158,8.74160263 C124.7855,9.26729244 123.840681,10.0120433 123.064986,10.9758552 C122.288154,11.9399504 121.694942,13.0939175 121.28535,14.4371895 C120.874621,15.7810284 120.669967,17.284983 120.669967,18.9499036 M144.443929,18.9499036 C144.443929,21.5500135 144.055086,23.8426445 143.279391,25.8283634 C142.502843,27.8152158 141.448307,29.4724848 140.115214,30.8013039 C138.782122,32.1306899 137.22192,33.1310591 135.435178,33.8024118 C133.647867,34.4740478 131.744017,34.8098658 129.722776,34.8098658 C127.700966,34.8098658 125.789725,34.4740478 123.987918,33.8024118 C122.186111,33.1310591 120.618519,32.1306899 119.285711,30.8013039 C117.952334,29.4724848 116.890692,27.8152158 116.099932,25.8283634 C115.308887,23.8426445 114.913223,21.5500135 114.913223,18.9499036 C114.913223,16.3506438 115.308887,14.0648141 116.099932,12.0932648 C116.890692,10.1217155 117.967399,8.46444649 119.329768,7.12032425 C120.691854,5.77733558 122.266267,4.76959814 124.053578,4.09739532 C125.84032,3.42575929 127.729958,3.08965788 129.722776,3.08965788 C131.714456,3.08965788 133.604094,3.42575929 135.391404,4.09739532 C137.177862,4.76959814 138.73778,5.77733558 140.071441,7.12032425 C141.403966,8.46444649 142.46646,10.1217155 143.257505,12.0932648 C144.048265,14.0648141 144.443929,16.3506438 144.443929,18.9499036" id="O"></path>
                    <path d="M97.3796423,5.1927005 L102.696949,4.31645636 L102.696949,11.2388418 L110.870598,11.2388418 L110.870598,15.663988 L102.696949,15.663988 L102.696949,24.9957614 C102.696949,26.8363842 102.989433,28.150467 103.575823,28.9391434 C104.161361,29.7278199 105.157912,30.1220164 106.564339,30.1220164 C107.53076,30.1220164 108.388033,30.0199957 109.134735,29.8153876 C109.881722,29.6116297 110.474934,29.4211911 110.914371,29.2457722 L111.79353,33.4518575 C111.178147,33.7148441 110.372038,33.9851988 109.376625,34.2626383 C108.380074,34.5395111 107.208146,34.6786559 105.861125,34.6786559 C104.219915,34.6786559 102.850723,34.4595949 101.75213,34.0214728 C100.653536,33.5833508 99.7814832,32.9479887 99.1376761,32.1153868 C98.4927321,31.2830682 98.0387984,30.2753307 97.7753065,29.0924578 C97.5115303,27.9095849 97.3796423,26.5589447 97.3796423,25.0399704 L97.3796423,5.1927005 Z" id="T"></path>
                    <path d="M87.5361306,20.4394903 C87.5361306,19.7097591 87.4332352,19.0157352 87.2285813,18.3585521 C87.0230747,17.7010856 86.7231999,17.1317536 86.3275356,16.649706 C85.9318714,16.1676584 85.4486608,15.7884816 84.8773353,15.5104753 C84.3062941,15.2333191 83.6249672,15.0944577 82.833923,15.0944577 C82.0133177,15.0944577 81.295892,15.2477721 80.6807934,15.5544008 C80.0656947,15.8610296 79.5452485,16.2628777 79.1208758,16.7593782 C78.6956505,17.2564456 78.3659303,17.8257775 78.1319996,18.4679409 C77.8972161,19.1109545 77.7363353,19.7678542 77.6485047,20.4394903 L87.5361306,20.4394903 Z M72.1114797,22.8055195 C72.1114797,20.7900446 72.4116387,19.0231034 73.0122411,17.5041291 C73.6125592,15.9857215 74.4109937,14.7220823 75.4072602,13.7143448 C76.4029583,12.7066074 77.5456093,11.9474036 78.8352131,11.4358833 C80.1239642,10.9252132 81.4422764,10.6693114 82.7901498,10.6693114 C85.9540423,10.6693114 88.4218272,11.648143 90.1949259,13.6046726 C91.9668876,15.5620524 92.853437,18.4829606 92.853437,22.3673974 C92.853437,22.6595732 92.8457624,22.9883065 92.8312661,23.3530304 C92.8162013,23.7186044 92.7943147,24.0470543 92.7653221,24.3389467 L77.6047315,24.3389467 C77.7508317,26.1790027 78.4023133,27.6027578 79.560029,28.6104952 C80.7171763,29.6182327 82.3944856,30.1221014 84.5919568,30.1221014 C85.880708,30.1221014 87.0594576,30.0056278 88.1293427,29.771547 C89.1983751,29.5380331 90.0411513,29.2894994 90.6562499,29.0267962 L91.3591792,33.3640913 C91.0661262,33.5106044 90.6630717,33.6642021 90.1505842,33.8240345 C89.6380968,33.9852838 89.052275,34.1309467 88.3931189,34.26244 C87.7336785,34.3936499 87.0230747,34.5033221 86.2618758,34.5911732 C85.4995401,34.678741 84.7235607,34.7223831 83.9325165,34.7223831 C81.911275,34.7223831 80.1532411,34.4225557 78.6595518,33.8240345 C77.1652941,33.2257967 75.9348125,32.3937615 74.9678228,31.3270788 C74.0011174,30.2609628 73.282839,29.0049751 72.8146932,27.5591156 C72.3459789,26.1132561 72.1114797,24.5291019 72.1114797,22.8055195 L72.1114797,22.8055195 Z" id="E"></path>
                    <path d="M59.6321395,30.3412758 C61.0382823,30.3412758 62.0635415,30.1735085 62.7082013,29.8374071 C63.3522926,29.5018724 63.675191,28.9248889 63.675191,28.1067399 C63.675191,27.3475361 63.330406,26.7198256 62.6422573,26.2227583 C61.9535401,25.7265411 60.8185636,25.1863984 59.2364753,24.6017633 C58.2697698,24.251209 57.3835047,23.8788335 56.5779642,23.484637 C55.7718552,23.0901571 55.0763162,22.630214 54.4904944,22.1045242 C53.9043884,21.5788344 53.4430644,20.9434723 53.1065224,20.1984381 C52.7691277,19.4536873 52.6011409,18.5411691 52.6011409,17.4603169 C52.6011409,15.3572742 53.3768361,13.6997218 54.9302161,12.4876597 C56.4824591,11.2758809 58.5918155,10.6691414 61.2582853,10.6691414 C62.6053059,10.6691414 63.8946255,10.7938333 65.1251071,11.0415168 C66.3555887,11.2900505 67.2782367,11.531216 67.8936196,11.7647299 L66.9269141,16.0583829 C66.3405239,15.7953963 65.5935371,15.5545142 64.6856697,15.3351698 C63.7772337,15.1161087 62.7226976,15.0067199 61.5214929,15.0067199 C60.43768,15.0067199 59.5585209,15.1895069 58.8851527,15.5545142 C58.2109318,15.9198048 57.8743898,16.4820521 57.8743898,17.2412558 C57.8743898,17.6209994 57.9403339,17.9573842 58.0722219,18.2489933 C58.20411,18.5411691 58.4303663,18.8115239 58.7532647,19.0594908 C59.0753103,19.307741 59.5002514,19.5562747 60.0278037,19.8042416 C60.5550717,20.0527753 61.199163,20.3081103 61.9612146,20.5708135 C63.2204046,21.0384082 64.2902897,21.4986348 65.1688803,21.9512098 C66.0480393,22.4043516 66.7731395,22.9150217 67.3444649,23.484637 C67.9157904,24.053969 68.333057,24.7043507 68.5968331,25.4343653 C68.8606093,26.1646632 68.9924973,27.0409073 68.9924973,28.0628143 C68.9924973,30.2534246 68.1792823,31.9115438 66.5534208,33.0357548 C64.9275592,34.1596825 62.6053059,34.7224965 59.5883663,34.7224965 C57.5665563,34.7224965 55.9409789,34.553879 54.7104973,34.2186278 C53.4797315,33.8830931 52.615353,33.6127384 52.1176461,33.4078469 L53.0405784,28.982984 C53.8316225,29.3046325 54.7761571,29.6115446 55.8747507,29.9028703 C56.9733442,30.1953295 58.2259966,30.3412758 59.6321395,30.3412758" id="S"></path>
                    <path d="M39.5501057,30.3412758 C40.9562486,30.3412758 41.9815078,30.1735085 42.6261676,29.8374071 C43.2702589,29.5018724 43.5931573,28.9248889 43.5931573,28.1067399 C43.5931573,27.3475361 43.2483723,26.7198256 42.5602236,26.2227583 C41.8715063,25.7265411 40.7365299,25.1863984 39.1544415,24.6017633 C38.1877361,24.251209 37.301471,23.8788335 36.4959305,23.484637 C35.6898215,23.0901571 34.9942825,22.630214 34.4084607,22.1045242 C33.8223546,21.5788344 33.3610306,20.9434723 33.0244887,20.1984381 C32.687094,19.4536873 32.5191072,18.5411691 32.5191072,17.4603169 C32.5191072,15.3572742 33.2948024,13.6997218 34.8481823,12.4876597 C36.4004253,11.2758809 38.5097817,10.6691414 41.1762515,10.6691414 C42.5232722,10.6691414 43.8125918,10.7938333 45.0430733,11.0415168 C46.2735549,11.2900505 47.1962029,11.531216 47.8115859,11.7647299 L46.8448804,16.0583829 C46.2584901,15.7953963 45.5115034,15.5545142 44.6036359,15.3351698 C43.6952,15.1161087 42.6406639,15.0067199 41.4394592,15.0067199 C40.3556462,15.0067199 39.4764872,15.1895069 38.803119,15.5545142 C38.1288981,15.9198048 37.7923561,16.4820521 37.7923561,17.2412558 C37.7923561,17.6209994 37.8583001,17.9573842 37.9901882,18.2489933 C38.1220763,18.5411691 38.3483325,18.8115239 38.6712309,19.0594908 C38.9932766,19.307741 39.4182177,19.5562747 39.94577,19.8042416 C40.473038,20.0527753 41.1171293,20.3081103 41.8791809,20.5708135 C43.1383708,21.0384082 44.208256,21.4986348 45.0868465,21.9512098 C45.9660056,22.4043516 46.6911057,22.9150217 47.2624312,23.484637 C47.8337567,24.053969 48.2510233,24.7043507 48.5147994,25.4343653 C48.7785756,26.1646632 48.9104636,27.0409073 48.9104636,28.0628143 C48.9104636,30.2534246 48.0972486,31.9115438 46.471387,33.0357548 C44.8455255,34.1596825 42.5232722,34.7224965 39.5063325,34.7224965 C37.4845225,34.7224965 35.8589452,34.553879 34.6284636,34.2186278 C33.3976978,33.8830931 32.5333193,33.6127384 32.0356124,33.4078469 L32.9585446,28.982984 C33.7495888,29.3046325 34.6941234,29.6115446 35.7927169,29.9028703 C36.8913105,30.1953295 38.1439629,30.3412758 39.5501057,30.3412758" id="S"></path>
                    <path d="M14.7006309,9.66151728 C14.02641,11.2099642 13.2575367,13.0939458 12.3937267,15.313462 C11.5290639,17.533545 10.6283025,19.9432164 9.69087393,22.5424762 L19.7103879,22.5424762 C18.7723909,19.9432164 17.8648077,17.5190921 16.9856486,15.2698199 C16.1067738,13.020831 15.3447222,11.1513024 14.7006309,9.66151728 L14.7006309,9.66151728 Z M23.6872112,34.1529945 C23.2759137,32.9553852 22.8504041,31.7725123 22.4095455,30.6038089 C21.9686869,29.4359557 21.5428931,28.2383465 21.1324483,27.011548 L8.26909779,27.011548 C7.85780029,28.2383465 7.43882828,29.4430405 7.01303446,30.6261968 C6.58752489,31.8087863 6.16855287,32.9851413 5.7581081,34.1529945 L-5.68483062e-05,34.1529945 C1.1411729,30.9107211 2.22441738,27.9169814 3.2491081,25.1712086 C4.27351458,22.4260026 5.27603446,19.826176 6.25638351,17.3725791 C7.23701679,14.9192655 8.20997555,12.5827089 9.17582828,10.362626 C10.1422495,8.14310974 11.1376633,5.95249939 12.1620698,3.79079489 L17.4478253,3.79079489 C18.4728003,5.95249939 19.4693511,8.14310974 20.4360566,10.362626 C21.402762,12.5827089 22.3765735,14.9192655 23.3583437,17.3725791 C24.340114,19.826176 25.3511611,22.4260026 26.3912009,25.1712086 C27.4306722,27.9169814 28.5224439,30.9107211 29.6650948,34.1529945 L23.6872112,34.1529945 Z" id="A"></path>
                </g>
                <g id="OwlPin-Symbol" transform="translate(77.998621, 0.000000)" sketch:type="MSShapeGroup">
                    <path d="M18.4365722,0.126817352 C8.36191539,0.126817352 0.213563405,8.25077945 0.213563405,18.2952805 C0.213563405,29.6875879 12.9515634,45.6158474 17.1279242,50.5318264 C17.8135148,51.3389232 19.0596297,51.3389232 19.7452203,50.5318264 C23.9215811,45.6158474 36.6595811,29.6875879 36.6595811,18.2952805 C36.6595811,8.25077945 28.5112291,0.126817352 18.4365722,0.126817352" id="Body" fill="#FFFFFF"></path>
                    <path d="M32.2222865,15.075055 C32.2222865,21.536647 27.6241113,27.4510116 18.4365722,27.4510116 C9.24903321,27.4510116 4.65085796,21.536647 4.65085796,15.075055 C4.65085796,10.707437 8.51085796,6.58410188 14.3011422,6.58410188 C15.9551437,6.58410188 17.3337151,8.20481347 18.4365722,8.20481347 C19.5394294,8.20481347 20.9180008,6.58410188 22.5722865,6.58410188 C28.3622865,6.58410188 32.2222865,10.707437 32.2222865,15.075055" id="Face" fill="#EE4339"></path>
                    <path d="M27.1262338,13.7921168 C27.1262338,15.0889128 26.0716977,15.0835284 24.7710085,15.0835284 C23.4703192,15.0835284 22.4160674,15.0889128 22.4160674,13.7921168 C22.4160674,12.4953208 23.4703192,11.4439412 24.7710085,11.4439412 C26.0716977,11.4439412 27.1262338,12.4953208 27.1262338,13.7921168" id="Right-Eye" fill="#FFFFFF"></path>
                    <path d="M14.4571908,13.7921168 C14.4571908,15.0889128 13.4026547,15.0835284 12.1019655,15.0835284 C10.8012762,15.0835284 9.74702438,15.0889128 9.74702438,13.7921168 C9.74702438,12.4953208 10.8012762,11.4439412 12.1019655,11.4439412 C13.4026547,11.4439412 14.4571908,12.4953208 14.4571908,13.7921168" id="Left-Eye" fill="#FFFFFF"></path>
                </g>
            </g>
        </g>
    </g>
</svg>