<?xml version="1.0" encoding="UTF-8"?> <!-- Generator: Adobe Illustrator 19.2.1, SVG Export Plug-In . SVG Version: 6.00 Build 0) --> <svg xmlns="http://www.w3.org/2000/svg" xmlns:xlink="http://www.w3.org/1999/xlink" id="Layer_1" x="0px" y="0px" viewBox="0 0 250 70" style="enable-background:new 0 0 250 70;" xml:space="preserve"> <style type="text/css"> .st0{fill:#FFFFFF;} </style> <g> <path class="st0" d="M70.6,0.5h35.6c0.6,0,1,0.4,1,1v8.9H94.6v30.1H82.2V10.4H69.6V1.5C69.6,0.9,70.1,0.5,70.6,0.5z"></path> <path class="st0" d="M113.6,0.5H124c0.6,0,1,0.4,1,1v39h-12.4v-39C112.6,0.9,113.1,0.5,113.6,0.5z"></path> <path class="st0" d="M131.3,0.5h35.6c0.6,0,1,0.4,1,1v8.9h-12.6v30.1h-12.4V10.4h-12.6V1.5C130.3,0.9,130.8,0.5,131.3,0.5z"></path> <path class="st0" d="M192.8,33.9h-14l-2,6.6h-12.6l14.8-39.4c0.1-0.4,0.5-0.6,0.9-0.6H192c0.4,0,0.8,0.3,0.9,0.6l14.8,39.4h-13 L192.8,33.9z M190.2,25.2L186.7,14c-0.3-0.9-1.6-0.9-1.9,0l-3.4,11.2H190.2z"></path> <path class="st0" d="M211.9,0.5h10c0.3,0,0.6,0.2,0.8,0.4l13.9,20.5c0.3,0.4,0.9,0.2,0.9-0.3V1.5c0-0.6,0.4-1,1-1h9.7 c0.6,0,1,0.4,1,1v39h-11.7l-14.1-20.7c-0.3-0.4-0.9-0.2-0.9,0.3v20.5h-11.6v-39C210.9,0.9,211.4,0.5,211.9,0.5z"></path> <path class="st0" d="M82.8,46.1h4.6c0.2,0,0.4,0.1,0.5,0.3l1.8,7c0.1,0.2,0.4,0.2,0.5,0l1.8-7c0.1-0.2,0.2-0.4,0.5-0.4H97 c0.3,0,0.5,0.2,0.5,0.5v13H94v-8.4c0-0.3-0.4-0.3-0.5-0.1l-2.2,8.5h-3.1l-2.2-8.5c-0.1-0.3-0.5-0.2-0.5,0.1v8.4h-3.4v-13 C82.3,46.3,82.5,46.1,82.8,46.1z"></path> <path class="st0" d="M101,46.1h3.2c0.3,0,0.5,0.2,0.5,0.5v13h-4.2v-13C100.5,46.3,100.7,46.1,101,46.1z"></path> <path class="st0" d="M108,46.2h3.2c0.2,0,0.3,0.1,0.4,0.2l4.5,6.6c0.1,0.2,0.4,0.1,0.4-0.1v-6.2c0-0.3,0.2-0.5,0.5-0.5h3 c0.3,0,0.5,0.2,0.5,0.5v13h-3.9l-4.6-6.8c-0.1-0.2-0.4-0.1-0.4,0.1v6.6h-3.9v-13C107.6,46.4,107.8,46.2,108,46.2z"></path> <path class="st0" d="M124.3,46.1h10.2c0.3,0,0.5,0.2,0.5,0.5V49h-6.8c-0.1,0-0.2,0.1-0.2,0.2v1.7c0,0.1,0.1,0.2,0.2,0.2h6.2v2.7 h-6.2c-0.1,0-0.2,0.1-0.2,0.2v2.2c0,0.1,0.1,0.2,0.2,0.2h6.7v3.1h-11.1v-13C123.8,46.3,124,46.1,124.3,46.1z"></path> <g> <path class="st0" d="M138,59.6v-13c0-0.3,0.2-0.5,0.5-0.5h6.5c1.3,0,2.3,0.1,2.9,0.3c0.7,0.2,1.2,0.6,1.6,1.2 c0.4,0.6,0.6,1.3,0.6,2.2c0,0.7-0.2,1.4-0.5,1.9c-0.3,0.5-0.8,1-1.3,1.3c-0.4,0.2-0.8,0.4-1.5,0.5c0.5,0.2,0.9,0.3,1.1,0.5 c0.2,0.1,0.4,0.3,0.7,0.7c0.3,0.4,0.5,0.6,0.6,0.8l2,3.9h-4.7l-2.2-4.1c-0.3-0.5-0.5-0.9-0.8-1c-0.3-0.2-0.6-0.3-1-0.3h-0.4v5.5 H138z M142.1,51.6h1.8c0.2,0,0.6-0.1,1.1-0.2c0.3-0.1,0.5-0.2,0.7-0.4c0.2-0.2,0.3-0.5,0.3-0.8c0-0.4-0.1-0.8-0.4-1 c-0.3-0.2-0.8-0.3-1.6-0.3h-1.8V51.6z"></path> <path class="st0" d="M161.8,57.4h-4.7l-0.7,2.2h-4.3l5-13.2c0.1-0.2,0.2-0.3,0.4-0.3h3.9c0.2,0,0.4,0.1,0.4,0.3l4.9,13.2h-4.4 L161.8,57.4z M160.9,54.5l-1-3.4c-0.1-0.4-0.8-0.4-0.9,0l-1,3.4H160.9z"></path> </g> <path class="st0" d="M170.3,46.1h3.2c0.3,0,0.5,0.2,0.5,0.5v9.7h6.5v3.3h-10.7v-13C169.8,46.3,170.1,46.1,170.3,46.1z"></path> <path class="st0" d="M182.6,55.1l4-0.2c0.1,0.6,0.3,1.1,0.5,1.5c0.4,0.5,1,0.8,1.8,0.8c0.6,0,1.1-0.1,1.4-0.4 c0.3-0.3,0.5-0.6,0.5-1c0-0.3-0.2-0.7-0.5-0.9c-0.3-0.3-1-0.5-2.1-0.8c-1.8-0.4-3.1-1-3.9-1.6c-0.8-0.7-1.2-1.5-1.2-2.6 c0-0.7,0.2-1.3,0.6-2s1-1.1,1.8-1.5c0.8-0.4,1.9-0.5,3.3-0.5c1.7,0,3,0.3,3.9,1c0.9,0.6,1.4,1.7,1.6,3.1l-3.9,0.2 c-0.1-0.6-0.3-1-0.7-1.3c-0.3-0.3-0.8-0.4-1.4-0.4c-0.5,0-0.8,0.1-1.1,0.3c-0.2,0.2-0.4,0.5-0.4,0.7c0,0.2,0.1,0.4,0.3,0.6 c0.2,0.2,0.7,0.3,1.4,0.5c1.8,0.4,3.1,0.8,3.9,1.2c0.8,0.4,1.4,0.9,1.7,1.5c0.4,0.6,0.5,1.3,0.5,2c0,0.9-0.2,1.7-0.7,2.4 c-0.5,0.7-1.1,1.3-2,1.7c-0.9,0.4-1.9,0.6-3.2,0.6c-2.3,0-3.9-0.4-4.8-1.3C183.2,57.6,182.7,56.5,182.6,55.1z"></path> <path class="st0" d="M211.4,46.1h3.2c0.3,0,0.5,0.2,0.5,0.5v9.7h6.5v3.3h-10.7v-13C210.9,46.3,211.1,46.1,211.4,46.1z"></path> <path class="st0" d="M222.4,46.1h11.7c0.3,0,0.5,0.2,0.5,0.5v2.9h-4.2v10.1h-4.2V49.5h-4.2v-2.9C221.9,46.3,222.1,46.1,222.4,46.1z "></path> <path class="st0" d="M236.8,46.1h6.2c1.2,0,2.2,0.2,3,0.5c0.8,0.3,1.4,0.8,1.9,1.4c0.5,0.6,0.8,1.3,1.1,2.2 c0.2,0.8,0.3,1.7,0.3,2.6c0,1.4-0.2,2.6-0.5,3.3c-0.3,0.8-0.8,1.5-1.4,2c-0.6,0.5-1.2,0.9-1.9,1.1c-0.9,0.2-1.7,0.4-2.5,0.4h-6.2 V46.1z M241,49.2v7.4h1c0.9,0,1.5-0.1,1.9-0.3c0.4-0.2,0.7-0.5,0.9-1c0.2-0.5,0.3-1.3,0.3-2.3c0-1.4-0.2-2.4-0.7-2.9 c-0.5-0.5-1.2-0.8-2.3-0.8H241z"></path> <path class="st0" d="M55.7,0.5L32.5,9.4L9.3,0.5H0.8v45.6v3.6v3.4c0,0.3,0.2,0.7,0.5,0.9l26.9,16.2h4.3h3.3c0.6,0,1.1-0.5,1.1-1.1 v-8.1v-2.2v-4.4V34.8l11.4-4v-8.3c0-0.7-0.7-1.2-1.4-1l-14.4,4.2l-14.4-4.2c-0.7-0.2-1.4,0.3-1.4,1v8.3l11.4,4v23.9v2.2L9.5,49.3 v-36c0-0.7,0.7-1.2,1.4-1l21.6,7.2l21.6-7.2c0.7-0.2,1.4,0.3,1.4,1v36L43.1,57c-0.4,0.3-0.7,0.7-0.7,1.2v8.5l21.4-12.8 c0.3-0.2,0.5-0.5,0.5-0.9v-3.4v-3.6V0.5H55.7z"></path> </g> </svg> 