<?xml version="1.0" encoding="utf-8"?>
<!-- Generator: Adobe Illustrator 21.0.2, SVG Export Plug-In . SVG Version: 6.00 Build 0)  -->
<svg version="1.1" id="Layer_1" xmlns="http://www.w3.org/2000/svg" xmlns:xlink="http://www.w3.org/1999/xlink" x="0px" y="0px"
	 viewBox="0 0 160 57" style="enable-background:new 0 0 160 57;" xml:space="preserve">
<style type="text/css">
	.st0{fill:#FEB300;}
	.st1{fill:#53006A;}
</style>
<g id="_x23_ffffffff">
</g>
<g id="_x23_feb300ff">
	<path class="st0" d="M34.1,16.5c3.7-4.1,7.8-7.9,11.6-12c4.8,4.5,9.3,9.4,14,14c0,1,0,2,0,2.9c-4.6-4.6-9.2-9.4-13.9-14
		c0,3-0.1,6,0,9.1C41.9,16.5,38,16.5,34.1,16.5z"/>
	<path class="st0" d="M26.7,23.9c1,0,1.9,0,2.9,0c0,8.5,0,17,0,25.4c5.4,0,10.8,0,16.2,0c4.6,0,9.2,0,13.8,0c5.4,0,10.8,0,16.1,0
		c3.9,0,7.7,0,11.6,0c-3.9-3.9-7.7-7.8-11.7-11.7c0-1,0-1.9,0-2.9c4.9,4.8,9.6,9.8,14.5,14.6c3,0,6,0,8.9,0c11.6,0.1,23.1,0,34.7,0
		c0,0.5,0,1,0,1.4c-44.3,0-88.7,0-133,0c2.3-2.9,5.1-5.4,7.6-8.1C14.5,36.4,20.7,30.3,26.7,23.9z"/>
</g>
<g id="_x23_53006aff">
	<path class="st1" d="M15.6,16.5c6.2-0.1,12.3,0,18.5,0c3.9,0,7.8,0,11.6,0c2.2,0,4.5-0.1,6.7,0.1c2.3,2.2,4.5,4.6,6.8,6.8
		c0,0.2,0,0.5-0.2,0.6c-4.4-0.2-8.8,0-13.3-0.1c0,8.5,0,16.9,0,25.4c-5.4,0-10.8,0-16.2,0c-0.1-8.5,0-17,0-25.4c-1,0-1.9,0-2.9,0
		c-3.2,0-6.4,0-9.5,0c-0.5-0.5-1-1-1.5-1.5C15.7,20.4,15.7,18.5,15.6,16.5z"/>
	<path class="st1" d="M61.3,16.5c5.9-0.1,11.8,0,17.6,0c2.7,0,5.5-0.2,8.2,0.4c3.8,0.6,7.5,2,10.8,4c4.2-2.6,9-4.6,14-4.4
		c6.4,0,12.9,0,19.3,0c0.4,0.6,0.9,1.1,1.1,1.7c0.1,1.6,0,3.2,0,4.8c-6.7,0.2-13.6-0.7-20.1,1.3c-2.9,0.8-5.4,2.8-6.6,5.5
		c-1.2,3.1-0.4,6.9,2.1,9.1c2.7,2.4,6.4,2.8,9.8,2.9c1.5-0.2,3.1-0.1,4.4-0.8c0.3-0.7,0.3-1.6,0.1-2.3c-1.7-2-3.5-4-5.2-5.9
		c5.7-0.2,11.3,0,17-0.1c0.1,5.5,0.1,11,0,16.5c-11.6,0-23.1,0-34.7,0c-1.2-1.1-2.8-1.7-3.9-2.8c-2.5-2.6-4.6-5.6-5.5-9.2
		c-2.4,0.8-4.9,1.1-7.3,0.8c-0.6,0.1-1-0.5-1.4-0.9c-1.7-1.8-3.5-3.4-5.1-5.2c2.9-0.1,5.8,0,8.6,0c1.9-0.1,4.2-1.1,4.4-3.3
		c0.5-2.3-1.4-4.7-3.7-4.9c-3.2-0.1-6.3,0-9.5,0c0,3.6,0,7.3,0,10.9c0,1-0.1,1.9,0,2.9c0.1,3.9,0,7.8,0,11.7c-5.4,0-10.8,0-16.1,0
		c0-9.3,0-18.7,0-28c0-1,0-2,0-2.9C59.9,17.6,60.6,16.9,61.3,16.5z"/>
</g>
</svg>
