<?xml version="1.0" encoding="utf-8"?>
<!-- Generator: Adobe Illustrator 21.0.0, SVG Export Plug-In . SVG Version: 6.00 Build 0)  -->
<!DOCTYPE svg PUBLIC "-//W3C//DTD SVG 1.1//EN" "http://www.w3.org/Graphics/SVG/1.1/DTD/svg11.dtd">
<svg version="1.1" id="Layer_1" xmlns="http://www.w3.org/2000/svg" xmlns:xlink="http://www.w3.org/1999/xlink" x="0px" y="0px"
	 width="320px" height="82px" viewBox="0 0 320 82" style="enable-background:new 0 0 320 82;" xml:space="preserve">
<style type="text/css">
	.st0{fill:#ED1C24;}
	.st1{fill:#FFFFFF;}
</style>
<path class="st0" d="M51.688,41.63L28.394,1.174c-0.901-1.565-3.153-1.565-4.054,0L0.027,43.401c-0.1,0.173,0.094,0.367,0.266,0.267
	L34.37,23.829c1.156-0.673,2.631-0.389,3.455,0.668l13.54,17.351C51.515,42.039,51.809,41.841,51.688,41.63"/>
<path class="st1" d="M87.005,29.206h9.967l-4.985-12.028L87.005,29.206z M98.77,33.6H85.161l-3.37,8.328h-4.797L90.372,9.543h3.23
	l13.38,32.385h-4.799L98.77,33.6z"/>
<path class="st1" d="M114.464,22.266c1.152-1.109,3.367-2.544,6.506-2.544c3.181,0,6.043,1.48,7.889,3.839
	c1.384,1.758,2.121,3.98,2.121,7.726v10.641h-4.382V31.057c0-2.776-0.509-4.072-1.292-5.043c-1.014-1.295-2.675-2.128-4.476-2.128
	c-2.859,0-4.936,1.527-6.228,3.1v14.944h-4.382V20.185h4.245V22.266z"/>
<path class="st1" d="M153.132,26.985c-1.338-1.758-3.553-3.1-6.182-3.1c-4.199,0-6.966,3.378-6.966,7.172
	c0,3.886,2.999,7.171,7.198,7.171c2.213,0,4.474-1.11,5.951-3.1V26.985z M153.27,39.939c-1.752,1.572-4.105,2.452-6.689,2.452
	c-1.938,0-3.968-0.555-5.445-1.434c-3.275-1.944-5.537-5.552-5.537-9.9c0-4.35,2.307-8.004,5.583-9.947
	c1.478-0.879,3.276-1.387,5.308-1.387c2.352,0,4.705,0.74,6.643,2.359v-13h4.382v32.848h-4.245V39.939z"/>
<path class="st1" d="M176.39,24.07c-0.506-0.138-1.015-0.185-1.706-0.185c-2.261,0-4.659,1.573-5.86,3.656v14.388h-4.382V20.185
	h4.245v2.498c1.06-1.48,3.321-2.961,6.506-2.961c0.46,0,1.198,0.046,1.706,0.139L176.39,24.07z"/>
<path class="st1" d="M189.729,38.228c4.013,0,6.826-3.193,6.826-7.171c0-3.979-2.813-7.172-6.826-7.172
	c-4.015,0-6.829,3.193-6.829,7.172C182.901,35.035,185.714,38.228,189.729,38.228 M189.729,19.722
	c6.412,0,11.211,4.858,11.211,11.335s-4.799,11.334-11.211,11.334c-6.414,0-11.213-4.858-11.213-11.334
	S183.315,19.722,189.729,19.722"/>
<path class="st1" d="M210.266,20.185v2.081c0.877-0.97,3.413-2.543,6.366-2.543c3.184,0,5.86,1.434,7.66,3.608
	c1.984-1.989,4.337-3.608,8.258-3.608c3.09,0,5.906,1.387,7.704,3.654c1.338,1.665,1.984,3.793,1.984,7.448v11.104h-4.382V30.131
	c0-2.22-0.461-3.424-1.247-4.348c-0.969-1.157-2.444-1.897-4.059-1.897c-3.138,0-5.168,1.619-6.597,3.1
	c0.229,1.064,0.369,2.313,0.369,3.839v11.104h-4.385V30.131c0-2.22-0.46-3.424-1.243-4.348c-0.969-1.157-2.538-1.897-4.199-1.897
	c-2.675,0-4.845,1.619-6.091,3.1v14.943h-4.382V20.185H210.266z"/>
<path class="st1" d="M251.474,28.28h11.811c-0.646-2.776-3.136-4.719-5.72-4.719C254.75,23.561,252.215,25.459,251.474,28.28
	 M251.106,31.982c0.231,3.655,3.23,6.568,7.014,6.568c3.227,0,4.982-1.572,6.228-2.961l2.859,2.73
	c-1.615,2.082-4.705,4.071-9.133,4.071c-6.322,0-11.213-4.811-11.213-11.334c0-6.524,4.43-11.335,10.567-11.335
	c6.043,0,10.425,4.904,10.425,11.335c0,0.185,0,0.508-0.046,0.925H251.106z"/>
<path class="st1" d="M288.621,26.985c-1.338-1.758-3.553-3.1-6.182-3.1c-4.199,0-6.966,3.378-6.966,7.172
	c0,3.886,2.999,7.171,7.198,7.171c2.213,0,4.474-1.11,5.951-3.1V26.985z M288.759,39.939c-1.752,1.572-4.105,2.452-6.689,2.452
	c-1.938,0-3.967-0.555-5.445-1.434c-3.276-1.944-5.537-5.552-5.537-9.9c0-4.35,2.307-8.004,5.582-9.947
	c1.478-0.879,3.276-1.387,5.308-1.387c2.353,0,4.705,0.74,6.643,2.359v-13h4.382v32.848h-4.245V39.939z"/>
<path class="st1" d="M315.618,26.985c-1.338-1.758-3.553-3.1-6.182-3.1c-4.199,0-6.966,3.378-6.966,7.172
	c0,3.886,2.999,7.171,7.198,7.171c2.213,0,4.474-1.11,5.951-3.1V26.985z M315.755,39.939c-1.752,1.572-4.105,2.452-6.689,2.452
	c-1.938,0-3.967-0.555-5.445-1.434c-3.276-1.944-5.537-5.552-5.537-9.9c0-4.35,2.307-8.004,5.582-9.947
	c1.478-0.879,3.276-1.387,5.308-1.387c2.444,0,4.797,0.74,6.781,2.452v-1.989H320v21.744h-4.245V39.939z"/>
<path class="st0" d="M229.824,80.075c1.02,1.234,2.45,1.925,4.03,1.925c2.006,0,3.569-1.316,3.569-3.34
	c0-1.317-0.724-2.123-1.497-2.633c-1.481-0.988-3.931-1.3-3.931-2.765c0-1.004,0.954-1.547,1.908-1.547
	c0.723,0,1.431,0.263,2.056,0.79l0.97-1.201c-0.609-0.51-1.629-1.152-3.092-1.152c-2.006,0-3.487,1.382-3.487,3.061
	c0,1.201,0.642,1.991,1.464,2.535c1.53,1.004,3.964,1.201,3.964,2.962c0,1.037-0.938,1.728-2.007,1.728
	c-1.184,0-2.138-0.658-2.813-1.481L229.824,80.075z M220.614,70.316h-1.645v11.52h6.743v-1.563h-5.098V70.316z M208.772,73.031
	l1.776,4.279h-3.553L208.772,73.031z M212.407,81.836h1.71l-4.77-11.52h-1.151l-4.77,11.52h1.71l1.201-2.962h4.852L212.407,81.836z
	 M192.9,71.879h3.125v9.956h1.645v-9.956h3.125v-1.563H192.9V71.879z M183.607,74.842v-2.962h4.934v-1.563h-6.579v11.52h6.744
	v-1.563h-5.099v-3.868h3.783v-1.563H183.607z M174.068,74.084v7.751h1.645v-11.52h-1.151l-4.441,7.027l-4.441-7.027h-1.151v11.52
	h1.645v-7.751l3.372,5.283h1.151L174.068,74.084z"/>
</svg>
