<svg xmlns="http://www.w3.org/2000/svg" width="140" height="85" viewBox="0 0 140 85"><path fill="#e11383" d="M136.8 82.36a.8.8 0 0 0 .33-.65.78.78 0 0 0-.07-.33.8.8 0 0 0-.27-.28c-.17-.1-.34-.18-.53-.24-.29-.1-.58-.17-.87-.23a9.73 9.73 0 0 1-1.2-.35c-.35-.12-.67-.3-.96-.51-.26-.2-.47-.45-.63-.73a2.27 2.27 0 0 1 0-1.98c.16-.33.38-.61.66-.84.32-.26.68-.46 1.07-.58a5 5 0 0 1 2.91-.01c.4.12.78.31 1.12.57.29.23.53.53.7.87.17.34.25.71.25 1.1h-2.27c.01-.3-.1-.6-.31-.81a1.3 1.3 0 0 0-.98-.31 1.4 1.4 0 0 0-.89.25.82.82 0 0 0-.31.67c0 .11.02.23.08.33.07.11.16.2.26.26.16.1.33.17.51.23.24.08.49.14.74.18.43.09.86.2 1.28.34.36.11.71.28 1.02.5.27.2.5.46.67.76.33.66.33 1.44 0 2.11-.18.32-.42.6-.72.82a3.6 3.6 0 0 1-1.12.53c-.48.14-.98.21-1.48.2a4.42 4.42 0 0 1-1.57-.25 3.45 3.45 0 0 1-1.15-.65c-.3-.25-.54-.57-.71-.92a2.38 2.38 0 0 1-.23-1.02h2.15c0 .2.05.4.15.57.08.16.19.29.34.39.15.1.32.18.51.22.19.05.38.07.58.07.35.02.69-.06.98-.25zm-8.66-4.98a1.6 1.6 0 0 0-.68-.12c-.22 0-.44.04-.65.13-.18.09-.34.21-.47.36-.14.17-.25.35-.33.55-.09.23-.15.47-.18.72h3.15v-.18c0-.22-.03-.43-.09-.63a1.3 1.3 0 0 0-.75-.84zm.71 6.69a4.92 4.92 0 0 1-2.91-.19 3.82 3.82 0 0 1-2.15-2.19 4.36 4.36 0 0 1-.29-1.6v-.31c-.01-.6.09-1.19.28-1.76.17-.51.44-.98.79-1.39a3.9 3.9 0 0 1 2.9-1.23c.55-.01 1.1.09 1.61.3.45.19.85.48 1.17.85.33.38.57.83.71 1.31.17.55.25 1.13.24 1.71v.97h-5.4a2.25 2.25 0 0 0 .66 1.33c.18.16.39.28.61.37a2.8 2.8 0 0 0 1.94-.1c.36-.16.67-.41.9-.72l1.12 1.25a3.46 3.46 0 0 1-1.23 1.07c-.3.16-.61.27-.94.35zm-6.93.01h-2.28V72h2.28zm-6.15-4.32c0-.32-.02-.64-.07-.95a2.36 2.36 0 0 0-.25-.79c-.12-.22-.3-.41-.51-.54a1.5 1.5 0 0 0-.8-.19 1.6 1.6 0 0 0-.93.23 1.5 1.5 0 0 0-.56.66v3.31c.12.27.31.5.56.66.28.17.62.25.95.24.27.01.55-.06.79-.19.21-.12.39-.3.51-.51.13-.25.21-.51.25-.79.05-.34.08-.68.07-1.02zm2.32.16c.01.59-.06 1.17-.2 1.75a4 4 0 0 1-.62 1.36 2.79 2.79 0 0 1-2.46 1.21c-.45.01-.89-.09-1.28-.28a2.81 2.81 0 0 1-.93-.78l-.11.9h-2.03V72h2.23v4.32a2.66 2.66 0 0 1 2.06-.91 2.88 2.88 0 0 1 2.47 1.21c.3.41.51.88.62 1.37.14.56.21 1.14.21 1.73zm-14.1 2.33c.22.19.51.29.81.27a2 2 0 0 0 .98-.25c.12-.07.24-.16.34-.27.09-.09.17-.19.23-.3v-1.46h-.93a2.6 2.6 0 0 0-.78.09c-.19.06-.38.15-.54.28a1.1 1.1 0 0 0-.31.42c-.07.16-.1.33-.1.51-.02.24.07.48.24.66zm2.66 1.82a2.6 2.6 0 0 1-.22-.77 2.8 2.8 0 0 1-2.14.92 3.37 3.37 0 0 1-2.06-.7 2.37 2.37 0 0 1-.83-1.82c-.01-.41.08-.81.25-1.18.17-.36.43-.67.75-.9a3.5 3.5 0 0 1 1.23-.55c.55-.14 1.13-.2 1.7-.19h1.02v-.51c.02-.34-.09-.68-.3-.94-.25-.26-.6-.39-.95-.35a1.3 1.3 0 0 0-.9.27.95.95 0 0 0-.33.75h-2.27c.01-.35.09-.7.26-1.01.18-.34.42-.63.73-.86a3.7 3.7 0 0 1 1.13-.59 4.75 4.75 0 0 1 2.89.02c.39.11.76.3 1.08.56.31.25.55.57.71.93.18.41.26.86.26 1.31v3.58c0 .24-.02.47 0 .65a3.76 3.76 0 0 0 .16.93c.04.12.09.23.15.34v.14zm-9.71-2.76l1.58-5.72h2.37l-2.86 8.49h-2.17L93 75.61h2.37zm-7.42-7.45a1.27 1.27 0 0 1-.09-.47c0-.32.13-.63.36-.84.26-.23.59-.35.94-.33.17 0 .34.03.5.09a1.08 1.08 0 0 1 .75 1.08c.01.17-.02.35-.08.51a1.08 1.08 0 0 1-.66.61c-.34.12-.71.12-1.05 0a1.05 1.05 0 0 1-.65-.61zm2.32 10.22h-2.28v-8.5h2.28zm-6.83-6.69a1.53 1.53 0 0 0-.67-.12c-.23 0-.45.04-.65.13a1.55 1.55 0 0 0-.8.91c-.09.23-.16.47-.19.72h3.15v-.18c0-.21-.03-.43-.09-.63a1.3 1.3 0 0 0-.75-.84zm.72 6.71c-.38.08-.76.13-1.14.12-.61.01-1.21-.1-1.77-.32a3.7 3.7 0 0 1-2.16-2.18 4.4 4.4 0 0 1-.28-1.61v-.3c-.01-.6.08-1.2.28-1.77.17-.51.44-.98.79-1.38.34-.39.77-.7 1.25-.91a4.03 4.03 0 0 1 1.64-.32c.55-.02 1.1.08 1.61.28a3.3 3.3 0 0 1 1.89 2.16c.16.55.24 1.13.24 1.71v.97h-5.4a2.23 2.23 0 0 0 .65 1.33 2.04 2.04 0 0 0 1.41.5 2.42 2.42 0 0 0 2.05-.95l1.11 1.25a3.26 3.26 0 0 1-1.23 1.07c-.29.16-.61.27-.93.35zm-10.76-1.93a1.84 1.84 0 0 0 1.39.11 1.24 1.24 0 0 0 .74-.65c.07-.16.11-.34.11-.51h2.11a2.96 2.96 0 0 1-1.03 2.22c-.32.28-.7.5-1.11.64a4.3 4.3 0 0 1-1.38.23c-.59.01-1.18-.1-1.72-.33a3.43 3.43 0 0 1-1.22-.91c-.34-.4-.58-.86-.73-1.36a5.6 5.6 0 0 1-.25-1.68v-.22c0-.57.08-1.14.25-1.68.15-.5.39-.97.73-1.37.33-.39.74-.7 1.21-.91a4.06 4.06 0 0 1 1.72-.33c.49-.01.97.07 1.43.23a3.03 3.03 0 0 1 1.83 1.71c.18.44.27.91.27 1.38h-2.13a1.8 1.8 0 0 0-.11-.57 1.3 1.3 0 0 0-.73-.79c-.19-.08-.4-.12-.61-.12a1.41 1.41 0 0 0-1.31.75c-.12.25-.21.52-.24.79-.04.31-.06.62-.06.93v.22c0 .31.02.62.06.93.03.27.12.54.24.78.12.22.29.41.51.54zm-7.22-4.81a1.9 1.9 0 0 0-.67-.12c-.22 0-.45.05-.65.14-.18.08-.35.2-.48.36-.14.16-.25.35-.32.55-.09.23-.15.47-.19.71h3.15v-.18c0-.21-.03-.42-.09-.62a1.34 1.34 0 0 0-.28-.51 1.06 1.06 0 0 0-.47-.33zm.71 6.78a4.8 4.8 0 0 1-1.14.12c-.6.01-1.2-.1-1.76-.32-.5-.2-.95-.5-1.33-.88a4.4 4.4 0 0 1-1.11-2.99v-.3c-.01-.6.09-1.2.28-1.77.17-.51.44-.98.79-1.38a3.63 3.63 0 0 1 2.89-1.23c.56-.01 1.1.09 1.62.3.45.19.85.47 1.17.84.32.38.57.83.71 1.31.17.56.25 1.14.24 1.71v.97h-5.4c.03.26.11.52.22.76a1.86 1.86 0 0 0 1.05.94 2.8 2.8 0 0 0 1.94-.09c.36-.16.67-.41.9-.72l1.12 1.25a3.85 3.85 0 0 1-2.17 1.42zM55.73 78h1.9c.27.01.55-.03.81-.12a1.5 1.5 0 0 0 .93-.86 2 2 0 0 0 .12-.69c.02-.47-.14-.93-.46-1.27a1.9 1.9 0 0 0-1.41-.46h-1.88zm1.93 1.91h-1.87v4.17h-2.36V72.65h4.25c.6-.01 1.19.07 1.77.23.48.13.93.35 1.33.66.35.29.64.66.83 1.08a4.32 4.32 0 0 1 .15 2.61 2.96 2.96 0 0 1-1.05 1.56c-.26.2-.55.37-.85.51l2.47 4.67v.11h-2.55zm-14.98-4.33l.07.98c.29-.36.65-.65 1.06-.84a3.38 3.38 0 0 1 2.48-.13c.33.11.62.3.85.55.26.29.44.64.55 1.02.14.49.2 1.01.19 1.52v5.4h-2.27v-5.41c.01-.22-.02-.45-.09-.67a.92.92 0 0 0-.68-.64 2.3 2.3 0 0 0-.58-.07 1.62 1.62 0 0 0-1.44.81v5.98h-2.26V75.6zm-4.24 8.5h-2.36V72.67h2.37zM25.22 75.6l.07.98a2.86 2.86 0 0 1 2.41-1.16c.37 0 .74.05 1.1.17.32.11.61.3.84.55.26.29.45.64.55 1.02.14.49.2 1.01.19 1.52v5.4h-2.24v-5.41c.01-.22-.02-.45-.09-.67a.92.92 0 0 0-.69-.64 2.25 2.25 0 0 0-.58-.07c-.3-.01-.6.07-.86.22a1.7 1.7 0 0 0-.57.59v5.98h-2.27V75.6zm-6.35-1.7a.96.96 0 0 1-.09-.47c-.02-.32.11-.63.34-.84.25-.23.59-.35.93-.34.17 0 .34.03.51.09a1.12 1.12 0 0 1 .65.62c.07.15.1.3.1.47 0 .16-.03.32-.1.47a.96.96 0 0 1-.26.37c-.11.11-.25.19-.4.24-.34.12-.71.12-1.05 0a1.1 1.1 0 0 1-.4-.24.94.94 0 0 1-.25-.37zm2.29 10.18h-2.27v-8.46h2.29zm-6.8-6.66a1.99 1.99 0 0 0-.68-.12 1.51 1.51 0 0 0-1.45 1.05c-.09.23-.15.47-.18.71h3.15v-.18a2.59 2.59 0 0 0-.1-.62 1.28 1.28 0 0 0-.28-.51 1.09 1.09 0 0 0-.46-.33zm.69 6.72a4.8 4.8 0 0 1-1.14.12c-.6.01-1.2-.1-1.76-.32-.5-.2-.95-.5-1.33-.88a4.64 4.64 0 0 1-1.12-2.92v-.31c0-.6.09-1.2.28-1.77a3.9 3.9 0 0 1 2.04-2.29 4.05 4.05 0 0 1 1.65-.32c.55-.01 1.1.09 1.61.3a3.27 3.27 0 0 1 1.89 2.16c.16.55.24 1.13.24 1.71v.96h-5.4a2.03 2.03 0 0 0 1.27 1.7c.26.1.53.14.8.14.39 0 .78-.08 1.14-.23.36-.16.67-.41.9-.72l1.13 1.25a3.85 3.85 0 0 1-2.17 1.42zM2.38 74.58h1.86c.51-.04 1.02.12 1.41.46.31.34.48.8.45 1.27.01.24-.03.47-.11.69-.08.2-.2.37-.35.51-.17.16-.37.28-.58.35a2.3 2.3 0 0 1-.82.12H2.38zm3.99 9.5h2.54v-.11L6.45 79.3c.3-.14.58-.31.84-.51a2.92 2.92 0 0 0 1.05-1.56c.1-.37.15-.75.15-1.13a3.59 3.59 0 0 0-.29-1.48 3.04 3.04 0 0 0-.83-1.08c-.4-.31-.85-.54-1.33-.66a6.28 6.28 0 0 0-1.77-.23H0v11.43h2.38v-4.17h1.85zM0 57.77V18h9.55v39.77zM138.7 18v39.77h-9.38v-9.72c0-9.43.34-14.08.29-14.08h-.06c-.06 0-3.24 5.45-3.56 6.02l-4.66 7.95h-4.94l-4.66-7.95c-.34-.57-3.53-6.02-3.57-6.02h-.05c-.06 0 .28 4.65.28 14.08v9.72H99V18h8.98l7.43 12.05c2.9 4.71 3.35 5.73 3.41 5.73h.05c.06 0 .51-1.02 3.41-5.73L129.73 18zM75.38 18c11.36 0 20.56 8.15 20.56 20.05 0 11.91-9.2 19.72-20.56 19.72H58V18zm0 30.85c5.68 0 10.63-3.98 10.63-10.8 0-6.81-4.93-11.13-10.63-11.13h-7.84v21.93zM31.47 23.52c-.05 2.06-.62 4.07-.43 4.23.19.17.54.06.46.6l.69-.44h.37l1.5-1.18c-.1-.79-.89-1.6-.81-3.06.08-1.45 1.22-5.03 1.43-5.03 0 0-.59 3.95.06 5.09.65 1.13.92 1.35 1.49.94.56-.4 1.4-.38 1.76-.62.35-.25 4.42-1.21 6.08-3.71a20.69 20.69 0 0 0-11.62-2.25c-.21.42-.35.87-.41 1.34a21.66 21.66 0 0 0-.57 4.09z"/><path fill="#e11383" d="M45.7 20.9c-.4.57-.95 1.17-3.18 2.47-3.69 2.14-6.47 2.14-7.76 5.04 0 0 .16.16-.03.54a5.88 5.88 0 0 1 1.98 1.73s1.69-.05 2.31.4c0 0 2.87.11 3.06.29.18.18.09.34-.28.8-.38.47-1.08.04-1.31.51-.23.48-2.14.89-2.14.89 0 1.95 4.07 2.51 7.09 4.45 0 0-2.55 13.55-11.26 6.7-2.04-1.9-2.55-4.66-3.39-4.69-.84-.03-4.25.65-5.28.57-1.03-.08-1.2.7-3.12.68-1.91-.03-1.46-.51-1.46-.51s-1.27-.08-1.27-1.87.51-.54 4.69-4.36c.31-.44.65-.85 1.02-1.25 0 0 .02-1.22.57-1.57.54-.35 1.38-.7 1.57-.84.19-.14.81-.43.76-.87-.05-.43-.19-.02-.35-.27-.16-.24-.05-.65-.19-1.78-.14-1.14-3.44-3.57-3.96-5.37-.51-1.8 1.43 1.6 2.55 1.78 1.12.19 2.7.28 2.61-1.75-.06-1.67.31-3.23-.17-4.62C20.25 20.22 14 27.71 14 37.44c0 11.66 8.95 20.12 20.06 20.12s20.12-8.46 20.12-20.12A19.7 19.7 0 0 0 45.7 20.9z"/><path fill="#e11383" d="M34.13 14.13c.88-1.6.29-.84 1.11-3.2.82-2.36.96-1.73 1.61-2.88.61-1.3 1.34-2.53 2.18-3.7l-3.22 3.02s-.43-.03-.33-2.54c.08-1.63.31-3.25.7-4.83a28.58 28.58 0 0 0-2.42 9.44c-.39 5.27-3.51 6.66-3.51 6.66s-2.43.43-3.11-4.01c-.67-4.33.62-6.39.69-6.49a7.8 7.8 0 0 0-1.78 4.21c-.32 2.69 1.02 5.69 2.14 7.35.24.36.42.77.51 1.19 1.1-.27 2.21-.47 3.34-.58.48-1.24 1.41-2.4 2.09-3.64zM46.27 19.39a41.09 41.09 0 0 0 4.07-4.86 12.47 12.47 0 0 0 1.97-5.26v-.12c.83-2.74 1.6-5.84.64-6.61 0 0 .67 1.34-.94 2.91C51.86.11 51.3 0 51.3 0s-.85 7.05-.63 7.89c.22.85-.28 2.13-1.26 4.18s-3.47 6.15-4.84 5.3c-1.36-.86-1.82-1.6-1.85-3.41-.02-1.8-.51-2.3-.51-2.3s-.6 3.98.22 5.32c.47.72.77 1.53.88 2.38l-.18.25c.68.36 1.35.76 1.98 1.2.34-.51.73-.99 1.16-1.42z"/></svg>