<svg id="Layer_1" data-name="Layer 1" xmlns="http://www.w3.org/2000/svg" viewBox="0 0 523.01 180.5"><defs><style>.cls-1{fill:#83c8bc;}.cls-2{fill:#435363;}</style></defs><title>Artboard 1</title><path class="cls-1" d="M148.83,104.88H149a10.1,10.1,0,1,0,0-20.21h-.13a10.1,10.1,0,1,0,0,20.21Z"/><path class="cls-1" d="M141.65,55.3a10.1,10.1,0,0,0,7.18,17.21H149a10.1,10.1,0,0,0,7-17.38A32.53,32.53,0,0,1,156,17.29,10.1,10.1,0,0,0,148.94,0h-.13a10.1,10.1,0,0,0-7.36,17,32.5,32.5,0,0,1,.18,38.27Z"/><path class="cls-1" d="M162.42,145.14V125.75c-3.92,5.37-10.71,9.79-19,11.73a37.71,37.71,0,0,1-8,1V146h0a13.5,13.5,0,0,0,27,0A4.49,4.49,0,0,0,162.42,145.14Z"/><path class="cls-2" d="M15.83,120H0v-19.2H15.83V87a62.29,62.29,0,0,1,1.12-12.08,24.49,24.49,0,0,1,4.32-10,21.15,21.15,0,0,1,9.2-6.8q6-2.48,15.75-2.48,3.68,0,7.2.32a49,49,0,0,1,6.88,1.12L59.18,77.41a28.51,28.51,0,0,0-3.84-1.2,18.24,18.24,0,0,0-4-.4q-5.76,0-8.64,2.48T39.82,88.45v12.32H57.58V120H39.83V178.5h-24ZM71.12,178.5h24V57.58h-24Zm91.3-77.73V146a13.5,13.5,0,0,1-27,0h0V100.76H111.58v51.6a28,28,0,0,0,50.84,16.34v9.79h23.89V100.76ZM312.18,178.5V133.26a13.5,13.5,0,1,1,27,0h0v45.19h23.89v-51.6a28,28,0,0,0-50.89-16.29v-9.79H288.26V178.5Zm115.68-24.69a19.62,19.62,0,1,1,.25-28.11l14.62-15.3a40.78,40.78,0,1,0-.27,58.74ZM273.11,165.5c-7.47,10-21.23,14.93-34.7,14.93a40.87,40.87,0,0,1-40.87-40.87c0-22.57,16.42-40.17,39-40.87,26.36-.81,39.88,17.49,39.88,40.06,0,2.66.08,8.32.08,8.32H221.33a19,19,0,0,0,6.24,11,17.64,17.64,0,0,0,11.84,4.08,18,18,0,0,0,10-2.64,24,24,0,0,0,6.73-6.42Zm246.51,0c-7.47,10-21.23,14.93-34.7,14.93A40.87,40.87,0,0,1,444,139.56c0-22.57,16.42-40.17,39-40.87,26.36-.81,39.88,17.49,39.88,40.06,0,2.66.08,8.32.08,8.32H467.84a19,19,0,0,0,6.24,11,17.64,17.64,0,0,0,11.84,4.08,18,18,0,0,0,10-2.64,24,24,0,0,0,6.73-6.42Zm-266.35-35a13.9,13.9,0,0,0-4-10.4,14.22,14.22,0,0,0-10.72-4.32,18,18,0,0,0-7,1.28,17.7,17.7,0,0,0-5.2,3.28A14.39,14.39,0,0,0,223,125a15.22,15.22,0,0,0-1.36,5.52Zm246.51,0a13.9,13.9,0,0,0-4-10.4,14.22,14.22,0,0,0-10.72-4.32,18,18,0,0,0-7,1.28,17.7,17.7,0,0,0-5.2,3.28A14.39,14.39,0,0,0,469.5,125a15.22,15.22,0,0,0-1.36,5.52Z"/></svg>