<svg width="128" height="66" viewBox="0 0 128 66" xmlns="http://www.w3.org/2000/svg"><title>logo-kgl-resources-white</title><g fill="#FFF" fill-rule="evenodd"><path d="M8.008 52.814c0 1.95-1.247 2.318-2.215 2.318H3.564v-4.84h2.23c.967 0 2.214.366 2.214 2.317v.205zm3.608.118v-.44c0-4.562-3.168-5.295-5.97-5.295H0V64.4h3.564v-6.175h1.833l2.362 6.175h3.857l-2.713-6.687c1.54-.632 2.713-2.009 2.713-4.782zm13.288-2.64v-3.095H14.388v17.204h10.516v-3.094h-6.937V57.17h5.837v-3.095h-5.837v-3.784m15.986 3.96c-2.508-.323-3.006-.983-3.006-2.244v-.117c0-1.1.836-1.892 2.258-1.892h.206c1.804 0 2.493 1.041 2.493 3.285h3.564v-.47c0-4.033-1.848-5.895-6.087-5.895-3.916 0-6.057 2.01-6.057 5.102v.251c0 3.11 1.76 4.43 5.515 4.943 2.493.322 3.124 1.012 3.124 2.244v.102c0 1.16-.807 2.04-2.464 2.04h-.206c-1.642 0-2.522-.91-2.522-3.066h-3.579v.19c0 4.151 2.141 5.955 6.19 5.955 4.033 0 6.218-1.921 6.218-5.221v-.22c0-3.198-1.892-4.474-5.647-4.987m17.395 1.98c0 3.448-.616 5.368-2.816 5.368h-.205c-2.2 0-2.846-1.92-2.846-5.368v-.88c0-3.431.646-5.354 2.846-5.354h.205c2.2 0 2.816 1.923 2.816 5.354v.88zm-2.933-9.314c-4.444 0-6.542 2.495-6.542 8.434v.88c0 5.956 2.098 8.449 6.542 8.449 4.473 0 6.57-2.493 6.57-8.45v-.88c0-5.938-2.097-8.433-6.57-8.433zm18.01.279v11.645c0 1.833-.6 2.757-2.625 2.757s-2.596-.924-2.596-2.757V47.197h-3.578v11.75c0 3.752 1.496 5.734 6.174 5.734 4.679 0 6.19-1.982 6.19-5.735v-11.75h-3.564zm14.594 5.617c0 1.95-1.247 2.318-2.215 2.318h-2.23v-4.84h2.23c.968 0 2.215.366 2.215 2.317v.205zm3.608.118v-.44c0-4.562-3.168-5.295-5.97-5.295h-5.646V64.4h3.564v-6.175h1.833l2.361 6.175h3.858l-2.714-6.687c1.54-.632 2.714-2.009 2.714-4.782zm8.638-2.934h.191c1.877 0 2.39 1.366 2.39 3.726h3.565v-.792c0-4.298-2.068-6.014-6.146-6.014-4.473 0-6.453 2.495-6.453 8.434v.88c0 5.956 1.98 8.449 6.453 8.449 4.078 0 6.146-1.717 6.146-5.956v-.19h-3.564c0 1.847-.646 3.065-2.391 3.065h-.19c-2.289 0-2.846-1.92-2.846-5.368v-.88c0-3.431.557-5.354 2.845-5.354m19.42.294v-3.095h-10.517v17.204h10.516v-3.094h-6.952V57.17h5.852v-3.095h-5.852v-3.784m16.002 3.96c-2.508-.323-3.022-.983-3.022-2.244v-.117c0-1.1.836-1.892 2.274-1.892h.205c1.804 0 2.493 1.041 2.493 3.285h3.564v-.47c0-4.033-1.848-5.895-6.086-5.895-3.916 0-6.058 2.01-6.058 5.102v.251c0 3.11 1.76 4.43 5.515 4.943 2.479.322 3.124 1.012 3.124 2.244v.102c0 1.16-.821 2.04-2.464 2.04h-.205c-1.658 0-2.538-.91-2.538-3.066h-3.564v.19c0 4.151 2.142 5.955 6.19 5.955 4.033 0 6.218-1.921 6.218-5.221v-.22c0-3.198-1.892-4.474-5.646-4.987M87.164 40.215h40.216V0H87.164v40.215zM98.751 5.793h6.966v22.602h10.091v6.013H98.751V5.793zM74.727 16.808H67.76c0-3.315-.557-5.515-3.49-5.515h-.367c-3.667 0-4.18 3.124-4.18 8.081v1.467c0 4.943.513 8.067 4.37 8.067h.367c1.276 0 2.42-.25 3.256-.734V25.55h-3.447v-5.427h10.428v11.426c-2.317 1.833-5.294 3.375-10.428 3.375-8.066 0-11.63-4.182-11.63-14.082v-1.467c0-9.914 3.564-14.093 11.264-14.093 7.01 0 10.824 2.712 10.824 10.09v1.437zM43.575 40.216H83.79V0H43.575v40.216zM30.74 34.408h-7.7L18.377 23.51l-1.936 2.83v8.067H9.475V5.793h6.966v9.842l5.867-9.842h8.433l-7.846 11.264 7.846 17.35zM.001 40.216h40.215V0H0v40.216z"/></g></svg>