<svg id="Layer_1" data-name="Layer 1" xmlns="http://www.w3.org/2000/svg" xmlns:xlink="http://www.w3.org/1999/xlink" viewBox="0 0 397.5 212.65"><defs><style>.cls-1{fill:#939598;}.cls-2{fill:#1a6fb2;}.cls-3{fill:url(#New_Gradient_Swatch_4);}.cls-4{fill:url(#New_Gradient_Swatch_3);}.cls-5{fill:#231f20;}</style><radialGradient id="New_Gradient_Swatch_4" cx="299.92" cy="70.02" fx="281.6406329510764" fy="96.70746040664453" r="62.39" gradientUnits="userSpaceOnUse"><stop offset="0" stop-color="#c1db71"/><stop offset="0.22" stop-color="#b5d46a"/><stop offset="0.62" stop-color="#97c057"/><stop offset="1" stop-color="#74a942"/></radialGradient><radialGradient id="New_Gradient_Swatch_3" cx="338.45" cy="102.25" r="61.9" gradientUnits="userSpaceOnUse"><stop offset="0" stop-color="#27aae1"/><stop offset="0.3" stop-color="#2398d0"/><stop offset="0.9" stop-color="#1868a3"/><stop offset="1" stop-color="#16609b"/></radialGradient></defs><title>Cobalt Blue Logo</title><path class="cls-1" d="M45.27,168v9.74c-5.95,2.24-11.9,3.71-17.42,3.62C5.95,181.34,0,166.17,0,150.83,0,129.1,11.55,120,27.85,120a47,47,0,0,1,17.42,3.62v9.74a48,48,0,0,0-17.42-3.71c-12.67,0-18.28,6.9-18.28,21.12,0,13.88,5.52,20.86,18.28,20.86A49.86,49.86,0,0,0,45.27,168Z"/><path class="cls-1" d="M87.36,159.19c0,11.81-4.22,21.9-20,21.9-15.61,0-20.09-10.09-20.09-21.9,0-16.21,8.45-22,20.09-22S87.36,143,87.36,159.19Zm-9.31,0c0-7.76-2-12.67-10.69-12.67s-10.78,4.91-10.78,12.67c0,9.66,3.71,12.59,10.78,12.59S78.05,168.84,78.05,159.19Z"/><path class="cls-1" d="M91.89,177V122l9.31-1.55v17.93a35.93,35.93,0,0,1,7.33-1.21c11.72,0,20.35,5.78,20.35,22,0,11.81-4.66,21.9-20.35,21.9C101.55,181.09,94.4,178.76,91.89,177Zm27.85-17.85c0-8.79-2.93-12.84-11.21-12.84a21.31,21.31,0,0,0-7.33,1.2v23.71a35.21,35.21,0,0,0,7.33.69C116.72,171.95,119.74,167.38,119.74,159.19Z"/><path class="cls-1" d="M136.17,149.71v-9.31a53.68,53.68,0,0,1,15.17-3.19c11,0,16.55,5.78,16.55,16.64v23.8a47.72,47.72,0,0,1-17.84,3.62c-9,0-18-3.45-18-14.05,0-11.21,9.66-14.05,18.28-14.05a37.05,37.05,0,0,1,8.36.95c-.17-3.19-.43-8.19-7.76-7.84C145.91,146.43,139.1,148.67,136.17,149.71Zm22.42,13a53.31,53.31,0,0,0-7.07-.6c-4.66,0-10.09.43-10.09,5.09,0,4.31,5.6,5.09,10.17,5.09a42.28,42.28,0,0,0,7-.6Z"/><path class="cls-1" d="M184.75,180.74h-9.31v-58.8l9.31-1.55Z"/><path class="cls-1" d="M188.3,137.63h4.48V127.46l9.57-1.55v11.73h7.24v8.45h-7.24V166c0,6.12,3.19,6.12,5.43,6.12h3.53v8.62h-6c-5-.17-12.5-2.85-12.5-14.83V146.08H188.3Z"/><path class="cls-2" d="M260.14,165c0,13-11.3,16.21-21.12,16.21-5.52,0-17.16-.86-19.48-1.38V121.17A175.85,175.85,0,0,1,239,120c9.83.18,20.78,3.19,20.78,16.12,0,6.9-2.33,11.72-7.93,14.57C257.29,153.32,260.14,157.38,260.14,165ZM225,148.32h16.47c7.41-.17,13.19-3.36,13.19-12.5,0-9.83-9.48-10.95-17.59-10.95-1.9,0-10.78.34-12.07.6Zm12.07,28c8.1,0,17.76-1.21,17.76-11.38,0-9.05-5.95-12.07-13.36-12.16H225v22.67A92.69,92.69,0,0,0,237,176.34Z"/><path class="cls-2" d="M272.86,180.74h-5.09V121.51l5.09-1Z"/><path class="cls-2" d="M312,137.63h5.17v39.31a43.07,43.07,0,0,1-15.86,4c-11.38,0-19.23-4.48-19.23-20.52V137.63h5.09v22.76c0,9.57,3,15.17,14.14,15.17A33.24,33.24,0,0,0,312,173.41Z"/><path class="cls-2" d="M343.87,175.48a52.83,52.83,0,0,0,12.84-2.07v5.17a45.42,45.42,0,0,1-13.88,2.16c-15.35,0-20-10.17-20-21.55,0-15.26,8.28-21.72,19.66-21.72s19.57,6.21,19.57,21.72v1.55H328.35C328.7,172.72,335.77,175.48,343.87,175.48Zm-15.43-19h28.19c-.86-8.54-4.14-13.79-14.14-13.79C332.32,142.72,329.3,148.5,328.44,156.51Z"/><path class="cls-3" d="M316.5,0a59.81,59.81,0,0,0,0,119.63,58.24,58.24,0,0,0,8.16-.64,60.21,60.21,0,0,0,13.56-3.51A41.55,41.55,0,0,1,317.92,94c-.48,0-.94.07-1.43.07a34.29,34.29,0,1,1,18.77-62.93,52.21,52.21,0,0,1,5.22-2A51.27,51.27,0,0,1,367,27.86,59.72,59.72,0,0,0,316.5,0Z"/><path class="cls-4" d="M373.08,40.58A41.31,41.31,0,0,0,317.92,94a41.55,41.55,0,0,0,20.3,21.45,41.31,41.31,0,1,0,34.86-74.9ZM340.31,78.27a16.08,16.08,0,1,1,.95,5.19A15.64,15.64,0,0,1,340.31,78.27Z"/><path class="cls-5" d="M13.36,212.63a7.28,7.28,0,0,1-4.42-1.47l.55-.76a6.3,6.3,0,0,0,3.89,1.36A3.47,3.47,0,0,0,17.16,208v-1.4a4.79,4.79,0,0,1-4,2.23,4.56,4.56,0,0,1-4.63-4.54v0a4.58,4.58,0,0,1,4.63-4.57,4.79,4.79,0,0,1,4,2.15v-1.93h.93v8.15C18.08,211,16.1,212.63,13.36,212.63Zm3.86-8.37a3.83,3.83,0,0,0-4-3.67,3.56,3.56,0,0,0-3.72,3.65v0A3.66,3.66,0,0,0,13.23,208a3.85,3.85,0,0,0,4-3.67Z"/><path class="cls-5" d="M32,200.8c-2.23,0-4.18,1.68-4.18,4.82v3.95h-.93v-9.64h.93v2.74a4.56,4.56,0,0,1,4.27-2.89v1Z"/><path class="cls-5" d="M43.35,208.93a4.33,4.33,0,0,0,3.31-1.51l.64.57a5.07,5.07,0,0,1-4,1.82,4.79,4.79,0,0,1-4.73-5v0a4.75,4.75,0,0,1,4.57-5c2.7,0,4.42,2.19,4.42,5v0a2.21,2.21,0,0,1,0,.34h-8A3.82,3.82,0,0,0,43.35,208.93Zm3.23-4.63c-.13-1.95-1.25-3.74-3.46-3.74a3.75,3.75,0,0,0-3.55,3.74Z"/><path class="cls-5" d="M59.67,208.93A4.33,4.33,0,0,0,63,207.42l.64.57a5.07,5.07,0,0,1-4,1.82,4.79,4.79,0,0,1-4.73-5v0a4.75,4.75,0,0,1,4.57-5c2.7,0,4.42,2.19,4.42,5v0a2.21,2.21,0,0,1,0,.34h-8A3.82,3.82,0,0,0,59.67,208.93Zm3.23-4.63c-.13-1.95-1.25-3.74-3.46-3.74a3.75,3.75,0,0,0-3.55,3.74Z"/><path class="cls-5" d="M79.22,209.57v-5.73c0-2-1.11-3.29-3.06-3.29A3.3,3.3,0,0,0,72.82,204v5.58h-.93v-9.64h.93v1.8a3.77,3.77,0,0,1,3.48-2,3.67,3.67,0,0,1,3.86,4v5.9Z"/><path class="cls-5" d="M103.82,208.93a4.33,4.33,0,0,0,3.31-1.51l.64.57a5.07,5.07,0,0,1-4,1.82,4.79,4.79,0,0,1-4.73-5v0a4.75,4.75,0,0,1,4.57-5c2.7,0,4.42,2.19,4.42,5v0a2.21,2.21,0,0,1,0,.34h-8A3.82,3.82,0,0,0,103.82,208.93ZM107,204.3c-.13-1.95-1.25-3.74-3.46-3.74A3.75,3.75,0,0,0,100,204.3Z"/><path class="cls-5" d="M123.37,209.57v-5.73c0-2-1.11-3.29-3.06-3.29A3.3,3.3,0,0,0,117,204v5.58H116v-9.64H117v1.8a3.77,3.77,0,0,1,3.48-2,3.67,3.67,0,0,1,3.86,4v5.9Z"/><path class="cls-5" d="M137,208.93a4.33,4.33,0,0,0,3.31-1.51l.64.57a5.07,5.07,0,0,1-4,1.82,4.79,4.79,0,0,1-4.73-5v0a4.75,4.75,0,0,1,4.57-5c2.7,0,4.42,2.19,4.42,5v0a2.21,2.21,0,0,1,0,.34h-8A3.82,3.82,0,0,0,137,208.93Zm3.23-4.63c-.13-1.95-1.25-3.74-3.46-3.74a3.75,3.75,0,0,0-3.55,3.74Z"/><path class="cls-5" d="M154.32,200.8c-2.23,0-4.18,1.68-4.18,4.82v3.95h-.93v-9.64h.93v2.74a4.56,4.56,0,0,1,4.27-2.89v1Z"/><path class="cls-5" d="M165.83,212.63a7.28,7.28,0,0,1-4.42-1.47l.55-.76a6.29,6.29,0,0,0,3.89,1.36,3.47,3.47,0,0,0,3.78-3.74v-1.4a4.79,4.79,0,0,1-4,2.23,4.56,4.56,0,0,1-4.63-4.54v0a4.58,4.58,0,0,1,4.63-4.57,4.79,4.79,0,0,1,4,2.15v-1.93h.93v8.15C170.55,211,168.57,212.63,165.83,212.63Zm3.86-8.37a3.83,3.83,0,0,0-4-3.67,3.56,3.56,0,0,0-3.72,3.65v0a3.66,3.66,0,0,0,3.72,3.69,3.85,3.85,0,0,0,4-3.67Z"/><path class="cls-5" d="M183.73,209.91c-.85,2-1.83,2.74-3.21,2.74a4.34,4.34,0,0,1-1.91-.42l.32-.81a3.35,3.35,0,0,0,1.64.36c1,0,1.66-.59,2.38-2.27l-4.63-9.58h1.08l4,8.62,3.48-8.62h1Z"/><path class="cls-5" d="M209.91,209.74a2.47,2.47,0,0,1-2.7-2.65v-6.31h-1.4v-.85h1.4v-3.08h.93v3.08h3.38v.85h-3.38V207a1.69,1.69,0,0,0,1.93,1.87,3.24,3.24,0,0,0,1.42-.34v.87A3.53,3.53,0,0,1,209.91,209.74Z"/><path class="cls-5" d="M223.36,208.93a4.33,4.33,0,0,0,3.31-1.51l.64.57a5.07,5.07,0,0,1-4,1.82,4.79,4.79,0,0,1-4.72-5v0a4.75,4.75,0,0,1,4.57-5c2.7,0,4.42,2.19,4.42,5v0a2.1,2.1,0,0,1,0,.34h-8A3.82,3.82,0,0,0,223.36,208.93Zm3.23-4.63c-.13-1.95-1.25-3.74-3.46-3.74a3.75,3.75,0,0,0-3.55,3.74Z"/><path class="cls-5" d="M239.83,209.8a5,5,0,0,1-4.91-5v0a5,5,0,0,1,8.77-3.27l-.66.68a4.35,4.35,0,0,0-3.21-1.59,4,4,0,0,0-3.89,4.14v0a4.05,4.05,0,0,0,4,4.18,4.3,4.3,0,0,0,3.23-1.61l.64.57A5,5,0,0,1,239.83,209.8Z"/><path class="cls-5" d="M259,209.57v-5.73c0-2-1.11-3.29-3.06-3.29a3.31,3.31,0,0,0-3.35,3.44v5.58h-.93v-13.8h.93v6a3.77,3.77,0,0,1,3.48-2,3.67,3.67,0,0,1,3.86,4v5.9Z"/><path class="cls-5" d="M275.85,209.57v-5.73c0-2-1.11-3.29-3.06-3.29a3.31,3.31,0,0,0-3.35,3.44v5.58h-.93v-9.64h.93v1.8a3.77,3.77,0,0,1,3.48-2,3.67,3.67,0,0,1,3.86,4v5.9Z"/><path class="cls-5" d="M289.66,209.8a4.93,4.93,0,0,1-4.93-5v0a5,5,0,0,1,5-5,4.93,4.93,0,0,1,4.93,5v0A5,5,0,0,1,289.66,209.8Zm4-5a4,4,0,0,0-4-4.18,4,4,0,0,0-3.93,4.14v0a4,4,0,0,0,4,4.18,4,4,0,0,0,3.93-4.14Z"/><path class="cls-5" d="M302.9,209.57v-13.8h.93v13.8Z"/><path class="cls-5" d="M317,209.8a4.93,4.93,0,0,1-4.93-5v0a5,5,0,0,1,5-5,4.93,4.93,0,0,1,4.93,5v0A5,5,0,0,1,317,209.8Zm4-5a4,4,0,0,0-4-4.18,4,4,0,0,0-3.93,4.14v0a4,4,0,0,0,4,4.18,4,4,0,0,0,3.93-4.14Z"/><path class="cls-5" d="M334.37,212.63a7.28,7.28,0,0,1-4.42-1.47l.55-.76a6.29,6.29,0,0,0,3.9,1.36,3.46,3.46,0,0,0,3.78-3.74v-1.4a4.79,4.79,0,0,1-4,2.23,4.57,4.57,0,0,1-4.63-4.54v0a4.58,4.58,0,0,1,4.63-4.57,4.79,4.79,0,0,1,4,2.15v-1.93h.93v8.15C339.09,211,337.11,212.63,334.37,212.63Zm3.86-8.37a3.83,3.83,0,0,0-4-3.67,3.56,3.56,0,0,0-3.72,3.65v0a3.66,3.66,0,0,0,3.72,3.69,3.85,3.85,0,0,0,4-3.67Z"/><path class="cls-5" d="M352.27,209.91c-.85,2-1.84,2.74-3.21,2.74a4.33,4.33,0,0,1-1.91-.42l.32-.81a3.35,3.35,0,0,0,1.64.36c1,0,1.66-.59,2.38-2.27l-4.63-9.58h1.08l4,8.62,3.48-8.62h1Z"/></svg>