<?xml version="1.0" encoding="utf-8"?>
<!-- Generator: Adobe Illustrator 22.0.1, SVG Export Plug-In . SVG Version: 6.00 Build 0)  -->
<svg version="1.1" id="Layer_1" xmlns="http://www.w3.org/2000/svg" xmlns:xlink="http://www.w3.org/1999/xlink" x="0px" y="0px"
	 width="567px" height="141px" viewBox="0 0 567 141" enable-background="new 0 0 567 141" xml:space="preserve">
<g>
	<g>
		<path fill="#FF715A" d="M555.162,14.711c-4.359-3.782-12.157-0.012-26.915,13.01c-3.006,2.653-5.94,5.387-8.538,7.875c0,0,0,0,0,0
			c0,0-0.001,0.001-0.001,0.001c0,0,0,0,0.001-0.001c2.892,2.768,5.743,5.58,8.54,8.444c2.162,2.214,3.674,4.944,4.427,7.958
			c1.002,4.01,0.553,8.453-1.754,11.947c-0.365,0.552-1.852,2.586-4.602,4.074c0,0,0,0,0,0c0.012-0.006,0.025-0.011,0.037-0.017
			c0.494-0.243,0.981-0.511,1.458-0.804c0.021-0.016,0.043-0.031,0.065-0.046c1.806-1.122,3.474-2.596,4.878-4.418
			c0.602-0.741,7.828-9.691,14.323-19.548C557.505,27.358,559.921,18.842,555.162,14.711z"/>
		<path fill="#D8D7D6" d="M508.492,63.946c-2.307-3.493-2.756-7.936-1.754-11.947c0.753-3.015,2.265-5.744,4.427-7.958
			c2.797-2.864,5.648-5.676,8.54-8.444c0,0-0.001,0-0.001-0.001c0,0,0,0,0,0c-2.598-2.489-5.532-5.223-8.538-7.875
			c-14.758-13.021-22.556-16.792-26.915-13.01c-4.76,4.131-2.343,12.646,8.082,28.474c6.495,9.858,13.721,18.807,14.323,19.548
			c1.404,1.822,3.072,3.296,4.878,4.418c0.022,0.015,0.044,0.03,0.065,0.046c0.477,0.293,0.964,0.562,1.458,0.804
			c0.012,0.006,0.025,0.011,0.037,0.017c0,0,0,0,0,0C510.345,66.532,508.857,64.498,508.492,63.946z"/>
		<path fill="#D85F4B" d="M532.674,51.999c-0.753-3.015-2.265-5.744-4.427-7.958c-2.797-2.864-5.648-5.676-8.54-8.444
			c0,0,0,0-0.001,0.001c0,0,0,0-0.001-0.001c-2.892,2.768-5.743,5.58-8.54,8.444c-2.162,2.214-3.674,4.944-4.427,7.958
			c-1.002,4.01-0.553,8.453,1.754,11.947c0.365,0.552,1.853,2.586,4.602,4.074c0,0,0,0,0,0c0.624,0.338,3.155,1.643,6.573,1.653
			c0.012,0,0.025,0.001,0.037,0.001c0,0,0.001,0,0.001,0c0,0,0.001,0,0.001,0c0.012,0,0.025-0.001,0.037-0.001c0,0,0,0,0,0
			c3.418-0.01,5.949-1.315,6.573-1.653c0,0,0,0,0,0c2.75-1.488,4.238-3.522,4.602-4.074
			C533.228,60.453,533.676,56.01,532.674,51.999z"/>
	</g>
	<g>
		<path fill="#FF715A" d="M55.143,122.454c-4.516,3.685-9.865,5.23-15.689,5.23c-16.641,0-29.953-13.312-29.953-29.597
			c0-16.403,13.312-29.477,29.953-29.477c5.705,0,11.054,1.545,15.689,5.229v-4.16h14.62v56.459h-14.62V122.454z M39.453,82.635
			c-8.558,0-15.571,7.131-15.571,15.452c0,8.439,7.013,15.571,15.571,15.571c8.677,0,15.689-7.132,15.689-15.571
			C55.143,89.766,48.13,82.635,39.453,82.635z"/>
		<path fill="#FF715A" d="M120.675,122.454c-4.516,3.685-9.865,5.23-15.689,5.23c-16.641,0-29.953-13.312-29.953-29.597
			c0-16.403,13.312-29.477,29.953-29.477c5.705,0,11.054,1.545,15.689,5.229V43.1h14.62v83.039h-14.62V122.454z M104.986,82.635
			c-8.558,0-15.571,7.131-15.571,15.452c0,8.439,7.013,15.571,15.571,15.571c8.677,0,15.689-7.132,15.689-15.571
			C120.675,89.766,113.663,82.635,104.986,82.635z"/>
		<path fill="#FF715A" d="M181.644,95.948c0-10.935-5.824-13.312-11.649-13.312c-5.824,0-11.648,2.258-11.648,13.074v30.428h-14.62
			V43.1h14.62v30.739c3.209-2.377,7.132-5.229,14.857-5.229c12.362,0,23.059,7.25,23.059,24.96v32.568h-14.62V95.948z"/>
		<path fill="#FF715A" d="M232.579,114.49c5.111,0,10.578-1.902,13.907-6.3l9.985,7.964c-5.111,7.25-14.145,11.53-23.772,11.53
			c-16.997,0-30.072-12.718-30.072-29.24c0-16.046,11.292-29.834,29.24-29.834c16.641,0,28.408,13.55,28.408,29.477
			c0,1.545-0.119,3.209-0.357,4.636h-43.028C218.553,109.616,224.139,114.49,232.579,114.49z M231.746,81.922
			c-6.775,0-12.242,4.041-14.382,10.103h28.17C244.702,86.32,238.759,81.922,231.746,81.922z"/>
		<path fill="#FF715A" d="M266.635,69.679h14.62v4.16c5.467-4.041,10.816-5.229,21.752-5.229v14.026
			c-18.661,0-21.752,5.229-21.752,14.976v28.527h-14.62V69.679z"/>
		<path fill="#FF715A" d="M307.445,52.219c0-5.229,4.04-9.151,9.269-9.151s9.152,3.922,9.152,9.151c0,5.229-3.922,9.27-9.152,9.27
			S307.445,57.448,307.445,52.219z M309.345,69.679h14.62v56.459h-14.62V69.679z"/>
		<path fill="#FF715A" d="M385.404,69.679v33.162c0,17.71-10.578,24.842-26.506,24.842s-26.506-7.132-26.506-24.842V69.679h14.62
			v29.24c0,9.509,1.902,14.739,11.886,14.739s11.886-5.23,11.886-14.739v-29.24H385.404z"/>
		<path fill="#FF715A" d="M467.292,95.948c0-11.53-5.111-13.312-10.341-13.312c-5.824,0-11.767,2.258-11.767,13.074v30.428h-14.62
			v-30.19c0-11.53-5.111-13.312-10.341-13.312c-5.824,0-11.767,2.258-11.767,13.074v30.428h-14.62V69.679h14.62v4.16
			c3.566-2.614,7.132-5.229,14.62-5.229c7.369,0,13.907,2.615,17.829,8.439c5.348-6.418,12.956-8.439,18.899-8.439
			c12.48,0,22.108,7.25,22.108,24.96v32.568h-14.62V95.948z"/>
	</g>
</g>
</svg>
