<svg id="Layer_1" xmlns="http://www.w3.org/2000/svg" width="207.3" height="70.7" viewBox="0 0 207.3 70.7"><style>.st0{fill:#0099a8}</style><path class="st0" d="M27.5 50c-.9 0-2.2-.7-2.8-1.5L11.3 31.6l.5 14.9c0 2.1-1.3 3.5-3.4 3.5-2 0-3.4-1.3-3.4-3.5V22.8c0-2.1 1.3-3.5 3.4-3.5.8 0 2.2.6 2.8 1.5L24 37.9V22.8c0-2.1 1.3-3.5 3.4-3.5 2.1 0 3.4 1.4 3.4 3.5v23.7c.1 2.2-1.2 3.5-3.3 3.5zM199 50c-1.9 0-3.3-1.5-3.3-3.6V36c0-2.9-1.9-3.9-3.7-3.9-2.2 0-3.6 1.5-3.6 3.9v10.5c0 2.1-1.3 3.6-3.3 3.6-1.9 0-3.3-1.5-3.3-3.6V20.7c0-2.1 1.3-3.6 3.3-3.6 1.9 0 3.3 1.5 3.3 3.6v7.6c1.7-1.6 4.4-1.8 5.3-1.8 5.1 0 8.5 3.4 8.5 8.4v11.5c.1 2.2-1.3 3.6-3.2 3.6zM70.3 50.3c-6.4 0-10.1-3.4-10.1-9V30.4c0-2.1 1.3-3.6 3.3-3.6 1.9 0 3.3 1.5 3.3 3.6v10.7c0 2.5 1.9 3.6 3.6 3.6 1.7 0 3.6-1.1 3.6-3.6V30.4c0-2.1 1.3-3.6 3.3-3.6 1.9 0 3.3 1.5 3.3 3.6v10.8c-.1 5.7-3.9 9.1-10.3 9.1zM87.6 50c-1.9 0-3.3-1.5-3.3-3.6V30.1c0-2.1 1.7-3.3 3.4-3.3 1.8 0 2.9.7 3.1 2.1 1.1-1.5 2.4-2.1 4.1-2.1 1.5 0 3.2 1.1 3.2 3.5 0 1.7-1.3 2.2-2.6 2.7-.4.1-.8.3-1.1.5l-.1.1c-1.7.8-3.3 1.6-3.3 3.7v9.2c-.2 2.1-1.5 3.5-3.4 3.5zM108.7 26.6c-6.2 0-11 5.2-11 11.9s4.7 11.8 11 11.8 11-5.1 11-11.8c.1-6.7-4.8-11.9-11-11.9zm0 17.7c-3.1 0-4.5-3-4.5-5.8s1.4-5.9 4.5-5.9 4.5 3 4.5 5.9c0 2.8-1.4 5.8-4.5 5.8zM127.5 50c-1.9 0-3.3-1.5-3.3-3.6V32.9h-1.1c-1.8 0-2.9-1.1-2.9-2.9 0-1.7 1.2-2.9 2.9-2.9h1.1v-3.3c0-2.1 1.3-3.6 3.3-3.6 1.9 0 3.3 1.5 3.3 3.6v3.3h1.4c2 0 3.1 1.1 3.1 2.9 0 1.8-1.2 2.9-3.1 2.9h-1.4v13.6c0 2.1-1.3 3.5-3.3 3.5zM158 37.8c0-5.3-4.5-11.2-11.1-11.2-6.2 0-11 5.2-11 11.9 0 7 4.7 11.8 11.5 11.8 4.5 0 8.9-2.1 9.1-4.4.1-.8-.2-1.7-.8-2.3-.5-.5-1.1-.8-1.6-.8-.7 0-1.4.3-2.2.7-1 .5-2.2 1-4 1-2.3 0-4.8-1-5.4-3.8H155c2 0 3-1 3-2.9zm-15.5-1.6c.4-2.4 2.2-4.1 4.5-4.1 2.4 0 4.1 1.5 4.5 4.1h-9zM171.3 50.3c-6.3 0-11-5.1-11-11.8 0-6.7 4.8-11.9 11-11.9 2.9 0 7.6 1.1 7.6 4.1 0 1.3-.9 3.1-2.6 3.1-.8 0-1.4-.3-2.2-.5-.8-.3-1.6-.6-2.6-.6-3.3 0-4.8 2.9-4.8 5.9 0 2.8 1.7 5.8 4.8 5.8.8 0 2-.4 2.9-.8.7-.3 1.2-.5 1.6-.5 1.5 0 2.9 1.3 2.9 2.9 0 3.2-5.3 4.3-7.6 4.3zM45.9 26.6c-7 0-11.6 5.1-11.6 10.8v9.5c0 5.8 4.6 10.8 11.6 10.8 5.7 0 5.1-6.1 0-6.1-3 0-4.8-1.7-4.8-3.9v-1.2c0-.5.3-.7.7-.7l12.9-2.6c1.7-.4 2.8-1.1 2.8-2.8v-2.9c0-5.9-4.6-10.9-11.6-10.9zM50.3 37c0 .4-.2.5-.7.7l-8.3 1.9c-.5 0-.8-.2-.8-.7v-1.2c0-2.2 2.4-5.1 5.4-5.3 2.4-.2 4.4 1.2 4.4 3.5V37z"/></svg>