<?xml version="1.0" encoding="utf-8"?>
<!-- Generator: Adobe Illustrator 21.1.0, SVG Export Plug-In . SVG Version: 6.00 Build 0)  -->
<svg version="1.1" id="Layer_1" xmlns="http://www.w3.org/2000/svg" xmlns:xlink="http://www.w3.org/1999/xlink" x="0px" y="0px"
	 viewBox="0 0 110.3 28.1" width="163px" height="43px" style="enable-background:new 0 0 110.3 28.1;" xml:space="preserve">
<style type="text/css">
	.st0{fill:url(#SVGID_1_);}
	.st1{fill:url(#SVGID_2_);}
	.st2{fill:url(#SVGID_3_);}
	.st3{fill:url(#SVGID_4_);}
</style>
<linearGradient id="SVGID_1_" gradientUnits="userSpaceOnUse" x1="73.9606" y1="27.5402" x2="73.9606" y2="2.0196">
	<stop  offset="0" style="stop-color:#000000"/>
	<stop  offset="1" style="stop-color:#646464"/>
</linearGradient>
<path class="st0" d="M56.6,9.3h-0.1l-1.9,3.8l-5.2,9.5l-5.1-9.5l-2-4h-0.1v18h-4.5V2h5.3l6.4,12.3h0.1L55.8,2h5.3v25.1h-4.5V9.3z
	 M86,9.3h-0.1L84,13.1l-5.2,9.5l-5.1-9.5l-2-4h-0.1v18H67V2h5.3l6.4,12.3h0.1L85.2,2h5.3v25.1H86V9.3z M110.3,2v18.1
	c0,4.5-3.1,7.5-8,7.5c-4.6,0-7.2-2.7-7.9-6.7l4.4-0.9c0.4,2.1,1.5,3.4,3.5,3.4c1.9,0,3.2-1.2,3.2-3.6V5.9h-7.9V2H110.3z"/>
<linearGradient id="SVGID_2_" gradientUnits="userSpaceOnUse" x1="14.0725" y1="28.145" x2="14.0725" y2="6.330083e-10">
	<stop  offset="0" style="stop-color:#38C909"/>
	<stop  offset="1" style="stop-color:#DFF255"/>
</linearGradient>
<polygon class="st1" points="28.1,28.1 0,28.1 28.1,0 "/>
<linearGradient id="SVGID_3_" gradientUnits="userSpaceOnUse" x1="14.0725" y1="28.145" x2="14.0725" y2="0">
	<stop  offset="0" style="stop-color:#38C909"/>
	<stop  offset="1" style="stop-color:#DFF255"/>
</linearGradient>
<polygon class="st2" points="0,28.1 28.1,28.1 0,0 "/>
<linearGradient id="SVGID_4_" gradientUnits="userSpaceOnUse" x1="14.0725" y1="28.145" x2="14.0725" y2="14.0725">
	<stop  offset="0" style="stop-color:#6BE027"/>
	<stop  offset="1" style="stop-color:#F2F281"/>
</linearGradient>
<polygon class="st3" points="0,28.1 28.1,28.1 14.1,14.1 "/>
</svg>
