<?xml version="1.0" encoding="utf-8"?>
<!-- Generator: Adobe Illustrator 22.0.1, SVG Export Plug-In . SVG Version: 6.00 Build 0)  -->
<svg version="1.1" xmlns="http://www.w3.org/2000/svg" xmlns:xlink="http://www.w3.org/1999/xlink" x="0px" y="0px"
	 viewBox="0 0 379.5 113.2" style="enable-background:new 0 0 379.5 113.2;" xml:space="preserve">
<style type="text/css">
	.st0{fill:#221C35;}
	.st1{fill:#FFFFFF;}
	.st2{fill:url(#SVGID_1_);}
	.st3{fill:url(#SVGID_2_);}
	.st4{fill:url(#SVGID_3_);}
	.st5{fill:url(#SVGID_4_);}
	.st6{fill:url(#SVGID_5_);}
	.st7{fill:url(#SVGID_6_);}
	.st8{fill:url(#SVGID_7_);}
	.st9{fill:url(#SVGID_8_);}
	.st10{fill:url(#SVGID_9_);}
	.st11{fill:url(#SVGID_10_);}
	.st12{fill:url(#SVGID_11_);}
	.st13{fill:url(#SVGID_12_);}
	.st14{fill:url(#SVGID_13_);}
	.st15{fill:url(#SVGID_14_);}
	.st16{fill:url(#SVGID_15_);}
	.st17{fill:url(#SVGID_16_);}
	.st18{fill:url(#SVGID_17_);}
	.st19{fill:#F05A28;}
	.st20{fill:#6EEA81;}
	.st21{fill:#F9DF38;}
	.st22{fill:#3ED3AC;}
	.st23{fill:#2AAD88;}
	.st24{fill:url(#SVGID_18_);}
	.st25{fill:url(#SVGID_19_);}
	.st26{fill:url(#SVGID_20_);}
	.st27{fill:url(#SVGID_21_);}
	.st28{fill:url(#SVGID_22_);}
	.st29{fill:url(#SVGID_23_);}
	.st30{fill:url(#SVGID_24_);}
	.st31{fill:url(#SVGID_25_);}
	.st32{fill:url(#SVGID_26_);}
	.st33{fill:url(#SVGID_27_);}
	.st34{fill:url(#SVGID_28_);}
	.st35{fill:url(#SVGID_29_);}
	.st36{fill:url(#SVGID_30_);}
	.st37{fill:url(#SVGID_31_);}
	.st38{fill:url(#SVGID_32_);}
	.st39{fill:url(#SVGID_33_);}
	.st40{fill:url(#SVGID_34_);}
	.st41{fill:url(#SVGID_35_);}
	.st42{fill:url(#SVGID_36_);}
	.st43{fill:url(#SVGID_37_);}
	.st44{fill:url(#SVGID_38_);}
	.st45{fill:url(#SVGID_39_);}
	.st46{fill:url(#SVGID_40_);}
	.st47{fill:url(#SVGID_41_);}
	.st48{fill:url(#SVGID_42_);}
	.st49{fill:url(#SVGID_43_);}
	.st50{fill:url(#SVGID_44_);}
	.st51{fill:url(#SVGID_45_);}
	.st52{fill:url(#SVGID_46_);}
	.st53{fill:url(#SVGID_47_);}
	.st54{fill:url(#SVGID_48_);}
	.st55{fill:url(#SVGID_49_);}
	.st56{display:none;}
	.st57{display:inline;fill:none;stroke:#231F20;stroke-width:5.000000e-02;stroke-miterlimit:10;}
	.st58{display:inline;fill:none;stroke:#FFFFFF;stroke-width:5.000000e-02;stroke-miterlimit:10;}
</style>
<g id="BG">
</g>
<g id="Brand-Elements">
	<g>
		<path class="st1" d="M164.6,11.8c-3.7-1.3-7.9-2-12.8-2c-10.7,0-18.9,3.6-24.5,10.7v-8.3h-24.7v90.7h25.4V53.5
			c0-12.2,6.8-19.4,18.1-19.4c4.8,0,10.4,1.1,14.3,2.8l0.8,0.4l3.8-25.3L164.6,11.8z"/>
		<polygon class="st1" points="336.3,80 379.3,31 379.5,30.8 379.5,12.2 301,12.2 301,35 345.2,35 301,84.6 301,102.9 379.5,102.9 
			379.5,80 		"/>
		<path class="st1" d="M232.9,12.2v8.7c-6.6-7.4-15.3-11.1-26-11.1c-25,0-43.9,20.5-43.9,47.7c0,27.2,18.9,47.7,43.9,47.7
			c10.7,0,19.5-3.7,26-11v8.7h24.9V12.2H232.9z M209.7,82.1c-13.6,0-24.6-11-24.6-24.6s11-24.6,24.6-24.6c13.6,0,24.6,11,24.6,24.6
			S223.3,82.1,209.7,82.1z"/>
		<polygon class="st1" points="292.2,12.8 279.4,0 266.6,12.8 266.6,12.8 266.6,103.8 279.4,91.1 292.2,103.8 292.2,12.8 		"/>
		<g>
			<path class="st1" d="M372.1,107.7h-1.9v5.5h-0.8v-5.5h-1.9v-0.6h4.6V107.7z M379.5,113.2h-0.8v-5.5h0l-2.1,5.5h-0.5l-2.1-5.5h0
				v5.5h-0.8v-6.1h1.4l1.7,4.5h0l1.7-4.5h1.4V113.2z"/>
		</g>
		<g>
			
				<linearGradient id="SVGID_1_" gradientUnits="userSpaceOnUse" x1="597.136" y1="-1672.6201" x2="660.9576" y2="-1736.4418" gradientTransform="matrix(1 0 0 1 -554.009 1733.3009)">
				<stop  offset="0.2838" style="stop-color:#07C371"/>
				<stop  offset="0.3106" style="stop-color:#16CA75"/>
				<stop  offset="0.3771" style="stop-color:#35D87E"/>
				<stop  offset="0.4419" style="stop-color:#4BE385"/>
				<stop  offset="0.5035" style="stop-color:#58E989"/>
				<stop  offset="0.5588" style="stop-color:#5DEB8A"/>
				<stop  offset="0.6123" style="stop-color:#61EB88"/>
				<stop  offset="0.6702" style="stop-color:#6EED82"/>
				<stop  offset="0.73" style="stop-color:#84EF79"/>
				<stop  offset="0.7913" style="stop-color:#A2F36C"/>
				<stop  offset="0.8536" style="stop-color:#C9F75B"/>
				<stop  offset="0.916" style="stop-color:#F8FC47"/>
				<stop  offset="0.9244" style="stop-color:#FFFD44"/>
			</linearGradient>
			<polygon class="st2" points="86,17.8 86,84.4 91.5,78.9 91.5,12.3 24.9,12.3 19.4,17.8 			"/>
			
				<linearGradient id="SVGID_2_" gradientUnits="userSpaceOnUse" x1="583.0144" y1="-1658.4985" x2="655.0466" y2="-1730.5306" gradientTransform="matrix(1 0 0 1 -554.009 1733.3009)">
				<stop  offset="3.571443e-02" style="stop-color:#FFD400"/>
				<stop  offset="5.158050e-02" style="stop-color:#F7D204"/>
				<stop  offset="7.555185e-02" style="stop-color:#E3CE0E"/>
				<stop  offset="0.1047" style="stop-color:#C1C81F"/>
				<stop  offset="0.1378" style="stop-color:#91BE37"/>
				<stop  offset="0.1743" style="stop-color:#55B256"/>
				<stop  offset="0.2131" style="stop-color:#0CA37B"/>
				<stop  offset="0.2166" style="stop-color:#05A27E"/>
				<stop  offset="0.3289" style="stop-color:#06AF7B"/>
				<stop  offset="0.5356" style="stop-color:#07D172"/>
				<stop  offset="0.5585" style="stop-color:#07D571"/>
				<stop  offset="0.673" style="stop-color:#11DE66"/>
				<stop  offset="0.8753" style="stop-color:#2DF748"/>
				<stop  offset="0.9165" style="stop-color:#33FD41"/>
			</linearGradient>
			<polygon class="st3" points="77.7,92.7 86,84.4 86,17.8 19.4,17.8 11.1,26.1 77.7,26.1 			"/>
			
				<linearGradient id="SVGID_3_" gradientUnits="userSpaceOnUse" x1="666.3289" y1="-1741.8131" x2="583.1664" y2="-1658.6506" gradientTransform="matrix(1 0 0 1 -554.009 1733.3009)">
				<stop  offset="0.1958" style="stop-color:#3ED3AC"/>
				<stop  offset="0.3591" style="stop-color:#A3E16F"/>
				<stop  offset="0.4769" style="stop-color:#E5EA47"/>
				<stop  offset="0.532" style="stop-color:#FFEE37"/>
				<stop  offset="0.6123" style="stop-color:#FFDE27"/>
				<stop  offset="0.7589" style="stop-color:#FFB600"/>
			</linearGradient>
			<polygon class="st4" points="66.6,103.8 77.7,92.7 77.7,26.1 11.1,26.1 0,37.2 66.6,37.2 			"/>
			
				<linearGradient id="SVGID_4_" gradientUnits="userSpaceOnUse" x1="669.7823" y1="-1745.2664" x2="585.7898" y2="-1661.2739" gradientTransform="matrix(1 0 0 1 -554.009 1733.3009)">
				<stop  offset="0.1958" style="stop-color:#3ED3AC"/>
				<stop  offset="0.2205" style="stop-color:#4ED4A2"/>
				<stop  offset="0.3705" style="stop-color:#A9DA6A"/>
				<stop  offset="0.4757" style="stop-color:#E3DE46"/>
				<stop  offset="0.526" style="stop-color:#F9DF38"/>
				<stop  offset="0.6135" style="stop-color:#F6B833"/>
				<stop  offset="0.7192" style="stop-color:#F48F2E"/>
				<stop  offset="0.8157" style="stop-color:#F2722B"/>
				<stop  offset="0.8988" style="stop-color:#F06029"/>
				<stop  offset="0.9589" style="stop-color:#F05A28"/>
			</linearGradient>
			<polygon class="st5" points="66.6,37.2 0,37.2 16.6,53.9 49.9,53.9 49.9,87.2 66.6,103.8 			"/>
		</g>
	</g>
</g>
<g id="Grids" class="st56">
</g>
</svg>
