<?xml version="1.0" encoding="utf-8"?>
<!-- Generator: Adobe Illustrator 16.0.4, SVG Export Plug-In . SVG Version: 6.00 Build 0)  -->
<!DOCTYPE svg PUBLIC "-//W3C//DTD SVG 1.1//EN" "http://www.w3.org/Graphics/SVG/1.1/DTD/svg11.dtd">
<svg version="1.1" id="Layer_1" xmlns="http://www.w3.org/2000/svg" xmlns:xlink="http://www.w3.org/1999/xlink" x="0px" y="0px"
	 width="595.28px" height="195.946px" viewBox="0 0 595.28 195.946" enable-background="new 0 0 595.28 195.946"
	 xml:space="preserve">
<g>
	<path fill="#1E1E1E" d="M386.13,113.464c-0.22-1.71-0.31-3.49-0.31-5.36v-21.51c0-2.5-0.561-4.53-1.69-6.04
		c-1.11-1.52-2.57-2.71-4.31-3.56c-1.771-0.851-3.721-1.421-5.84-1.721c-2.141-0.29-4.24-0.439-6.32-0.439
		c-2.3,0-4.58,0.229-6.84,0.68c-2.28,0.45-4.311,1.22-6.11,2.28c-1.82,1.069-3.32,2.479-4.49,4.24c-1.18,1.76-1.84,3.979-1.989,6.64
		h11.35c0.21-2.24,0.96-3.84,2.24-4.8c1.279-0.96,3.04-1.44,5.279-1.44c1.011,0,1.96,0.07,2.841,0.2c0.88,0.13,1.659,0.4,2.319,0.8
		c0.67,0.4,1.2,0.96,1.59,1.68c0.41,0.721,0.601,1.69,0.601,2.921c0.06,1.17-0.29,2.069-1.04,2.67c-0.75,0.609-1.75,1.09-3.04,1.409
		c-1.28,0.32-2.74,0.561-4.39,0.721c-1.65,0.17-3.341,0.37-5.04,0.64c-1.71,0.271-3.4,0.62-5.07,1.08
		c-1.69,0.45-3.19,1.13-4.49,2.03c-1.31,0.92-2.37,2.13-3.2,3.64c-0.83,1.53-1.239,3.46-1.239,5.8c0,2.13,0.359,3.98,1.09,5.521
		c0.71,1.55,1.72,2.83,2.989,3.84c1.28,1.02,2.771,1.76,4.48,2.24c1.7,0.47,3.54,0.72,5.53,0.72c2.55,0,5.05-0.37,7.51-1.11
		c2.45-0.76,4.58-2.06,6.39-3.93c0.061,0.69,0.15,1.37,0.28,2.04c0.14,0.67,0.32,1.32,0.53,1.95h11.51
		C386.72,116.455,386.35,115.174,386.13,113.464z M374.45,101.314c0,0.641-0.061,1.49-0.19,2.55c-0.14,1.07-0.5,2.12-1.08,3.16
		c-0.6,1.04-1.489,1.94-2.72,2.681c-1.229,0.75-2.96,1.13-5.2,1.13c-0.91,0-1.79-0.09-2.649-0.25c-0.851-0.15-1.58-0.45-2.24-0.84
		c-0.62-0.4-1.14-0.94-1.51-1.641c-0.37-0.68-0.561-1.55-0.561-2.56c0-1.061,0.19-1.94,0.561-2.63c0.37-0.7,0.87-1.271,1.47-1.73
		c0.62-0.439,1.34-0.81,2.17-1.08c0.81-0.26,1.66-0.479,2.52-0.63c0.91-0.17,1.811-0.3,2.721-0.41c0.899-0.109,1.77-0.229,2.6-0.39
		c0.811-0.17,1.601-0.36,2.32-0.601c0.71-0.25,1.32-0.569,1.79-1.01V101.314z"/>
	<rect x="404.359" y="60.2" fill="#1E1E1E" width="11.359" height="57.105"/>
	<polygon fill="#1E1E1E" points="331.904,82.112 308.791,82.112 308.791,60.2 296.236,60.2 296.236,117.305 308.791,117.305 
		308.791,92.671 331.904,92.671 331.904,117.305 344.465,117.305 344.465,60.2 331.904,60.2 	"/>
	<rect x="389.324" y="60.2" fill="#1E1E1E" width="11.359" height="57.105"/>
	<path fill="#1E1E1E" d="M153.87,113.464c-0.23-1.71-0.33-3.49-0.33-5.36v-21.51c0-2.5-0.56-4.53-1.68-6.04
		c-1.12-1.52-2.57-2.7-4.32-3.57c-1.76-0.84-3.71-1.42-5.84-1.71c-2.141-0.29-4.23-0.439-6.311-0.439c-2.29,0-4.569,0.22-6.85,0.68
		c-2.25,0.45-4.3,1.22-6.11,2.28c-1.83,1.069-3.3,2.479-4.479,4.24c-1.17,1.76-1.84,3.979-1.99,6.63h11.34
		c0.21-2.23,0.96-3.83,2.25-4.79c1.28-0.96,3.04-1.44,5.28-1.44c1,0,1.96,0.061,2.84,0.2c0.88,0.13,1.64,0.4,2.32,0.8
		c0.66,0.4,1.189,0.97,1.6,1.67c0.391,0.73,0.59,1.7,0.59,2.92c0.061,1.181-0.29,2.08-1.04,2.681
		c-0.739,0.619-1.76,1.09-3.029,1.409c-1.29,0.32-2.75,0.561-4.4,0.71c-1.65,0.171-3.34,0.37-5.04,0.65
		c-1.71,0.26-3.4,0.62-5.08,1.08c-1.68,0.45-3.17,1.13-4.479,2.03c-1.311,0.92-2.37,2.13-3.2,3.64c-0.83,1.53-1.24,3.46-1.24,5.8
		c0,2.13,0.36,3.971,1.08,5.521c0.73,1.55,1.73,2.819,3,3.84c1.29,1.01,2.77,1.76,4.48,2.24c1.71,0.47,3.55,0.72,5.51,0.72
		c2.569,0,5.069-0.37,7.529-1.12c2.45-0.76,4.58-2.06,6.4-3.92c0.04,0.69,0.13,1.37,0.28,2.04c0.12,0.67,0.3,1.32,0.52,1.95h11.511
		C154.45,116.455,154.07,115.165,153.87,113.464z M142.18,101.314c0,0.63-0.06,1.48-0.199,2.55c-0.131,1.07-0.49,2.12-1.08,3.16
		c-0.58,1.04-1.49,1.94-2.71,2.681c-1.23,0.75-2.971,1.13-5.21,1.13c-0.891,0-1.78-0.09-2.631-0.25
		c-0.85-0.16-1.609-0.45-2.239-0.84c-0.641-0.4-1.15-0.94-1.53-1.641c-0.36-0.7-0.55-1.55-0.55-2.56c0-1.061,0.189-1.94,0.55-2.63
		c0.38-0.7,0.88-1.271,1.479-1.73c0.62-0.45,1.341-0.81,2.171-1.08c0.819-0.26,1.659-0.47,2.51-0.64c0.91-0.16,1.81-0.29,2.72-0.4
		c0.92-0.109,1.78-0.229,2.6-0.39c0.83-0.17,1.601-0.37,2.32-0.601c0.73-0.25,1.32-0.569,1.8-1.01V101.314z"/>
	<path fill="#1E1E1E" d="M55.107,104.587c-2.168,2.343-5.17,3.52-9,3.52c-2.824,0-5.236-0.546-7.203-1.639
		c-1.965-1.091-3.57-2.548-4.799-4.357c-1.225-1.814-2.119-3.855-2.678-6.119c-0.557-2.265-0.834-4.596-0.834-6.996
		c0-2.512,0.277-4.941,0.834-7.287c0.559-2.338,1.453-4.43,2.678-6.277c1.229-1.838,2.834-3.298,4.799-4.401
		c1.967-1.093,4.379-1.638,7.203-1.638c1.539,0,3.023,0.264,4.441,0.771c1.412,0.501,2.678,1.204,3.799,2.115
		c1.121,0.897,2.049,1.951,2.793,3.153c0.746,1.204,1.234,2.52,1.438,3.961h12.156c-0.381-3.303-1.27-6.239-2.711-8.796
		c-1.443-2.555-3.266-4.699-5.48-6.436c-2.217-1.739-4.715-3.057-7.521-3.967c-2.799-0.892-5.773-1.361-8.914-1.361
		c-4.369,0-8.312,0.776-11.793,2.323c-3.5,1.549-6.445,3.686-8.85,6.403c-2.395,2.718-4.232,5.899-5.52,9.558
		c-1.275,3.651-1.92,7.604-1.92,11.879c0,4.154,0.645,8.035,1.92,11.63c1.287,3.602,3.125,6.724,5.52,9.4
		c2.404,2.661,5.35,4.761,8.85,6.269c3.48,1.525,7.424,2.295,11.793,2.295c3.516,0,6.744-0.544,9.674-1.604
		c2.936-1.068,5.49-2.618,7.678-4.643c2.189-2.026,3.953-4.475,5.279-7.354c1.332-2.877,2.17-6.106,2.486-9.678h-12.17
		C58.578,99.154,57.262,102.248,55.107,104.587z"/>
	<path fill="#1E1E1E" d="M109.021,80.603c-1.125-1.467-2.66-2.608-4.611-3.438c-1.941-0.822-4.439-1.241-7.465-1.241
		c-2.137,0-4.326,0.544-6.564,1.636c-2.24,1.1-3.758,2.774-5.529,4.148h-0.229V63.81H73.27v53.488h11.354V96.713
		c0-4.205,0.693-7.231,2.084-9.071c1.381-1.845,3.621-2.764,6.713-2.764c2.717,0,4.609,0.844,5.678,2.524
		c1.061,1.681,1.6,4.231,1.6,7.637v22.259h11.359V92.963c0-2.562-0.232-4.895-0.68-7.001
		C110.922,83.855,110.137,82.076,109.021,80.603z"/>
	<path fill="#1E1E1E" d="M176.732,76.478c-1.344,0.432-2.588,1.031-3.76,1.799c-1.172,0.793-2.213,1.712-3.119,2.803
		c-0.91,1.094-1.633,2.281-2.164,3.561h-0.156v-8.686H156.73v41.342h11.361V98.845c0-1.874,0.195-3.61,0.566-5.215
		c0.363-1.595,0.99-2.992,1.885-4.194c0.867-1.202,2.035-2.146,3.469-2.842c1.445-0.685,3.199-1.03,5.285-1.03
		c0.686,0,1.365-0.097,2.145-0.073c0.566,0.015,1.402-0.039,1.928,0v-9.522h-2.475C179.451,75.968,178.061,76.051,176.732,76.478z"
		/>
	<path fill="#1E1E1E" d="M207.836,108.824c-1.912,0-3.199-0.324-3.826-0.956c-0.643-0.644-0.975-1.923-0.975-3.834V83.554h8.328
		v-7.6h-8.328V63.56H191.68v12.395h-6.867v7.6h6.867v24.394c0,2.078,0.342,3.759,1.047,5.038c0.695,1.277,1.645,2.265,2.84,2.96
		c1.195,0.688,2.592,1.157,4.154,1.396c1.576,0.234,3.242,0.369,5.006,0.369c1.115,0,2.258-0.032,3.439-0.084
		c1.172-0.06,2.242-0.164,3.197-0.321V108.5c-0.539,0.113-1.096,0.197-1.682,0.248C209.092,108.799,208.479,108.824,207.836,108.824
		z"/>
	<path fill="#1E1E1E" d="M250.4,90.194c-0.761-2.939-1.971-5.55-3.641-7.84c-1.68-2.29-3.84-4.109-6.45-5.479
		c-2.609-1.37-5.68-2.04-9.189-2.04c-3.15,0-6.021,0.56-8.601,1.67c-2.59,1.13-4.819,2.66-6.67,4.609
		c-1.89,1.95-3.319,4.25-4.33,6.921c-1.01,2.659-1.52,5.539-1.52,8.64c0,3.189,0.5,6.13,1.48,8.79c0.989,2.67,2.39,4.97,4.199,6.88
		c1.811,1.92,4.021,3.4,6.641,4.44c2.609,1.039,5.55,1.56,8.8,1.56c4.68,0,8.689-1.07,11.99-3.2c3.319-2.13,5.76-5.68,7.359-10.64
		h-10c-0.359,1.28-1.38,2.49-3.04,3.64c-1.649,1.141-3.63,1.72-5.92,1.72c-3.189,0-5.64-0.829-7.35-2.479
		c-1.71-1.66-2.641-4.32-2.79-8h29.83C251.4,96.184,251.14,93.125,250.4,90.194z M221.37,92.194c0.04-0.8,0.22-1.72,0.5-2.72
		c0.29-1.02,0.81-1.97,1.53-2.89c0.72-0.9,1.67-1.66,2.88-2.271c1.2-0.62,2.71-0.92,4.51-0.92c2.77,0,4.85,0.75,6.21,2.24
		s2.3,3.68,2.84,6.56H221.37z"/>
	<path fill="#1E1E1E" d="M273.508,75.478c-1.338,0.432-2.592,1.022-3.758,1.799c-1.186,0.771-2.223,1.702-3.133,2.804
		c-0.906,1.089-1.615,2.271-2.146,3.555h-0.164v-7.681h-10.805v41.342h11.375V98.673c0-1.874,0.178-3.602,0.549-5.201
		c0.361-1.6,1.004-3.004,1.883-4.199c0.877-1.204,2.043-2.145,3.471-2.834c1.443-0.701,3.215-1.047,5.283-1.047
		c0.693,0,1.412,0.038,2.16,0.122c0.74,0.081,1.381,0.17,1.914,0.285v-10.57c-0.906-0.26-1.738-0.396-2.477-0.396
		C276.219,74.833,274.836,75.049,273.508,75.478z"/>
	<polygon fill="#2F6EB6" points="514.967,64.535 454.061,119.351 514.967,174.18 575.889,119.351 	"/>
	<polygon fill="#5B85C4" points="452.236,116.318 513.16,61.493 513.16,22.735 452.236,77.554 	"/>
	<polygon fill="#8CA4D5" points="516.793,22.735 516.793,61.493 577.715,116.317 577.715,77.553 	"/>
</g>
</svg>
