<svg id="Layer_1" data-name="Layer 1" xmlns="http://www.w3.org/2000/svg" viewBox="0 0 754.27 447.03"><defs><style>.cls-1{fill:#ab2c29;}.cls-2{fill:#b46a1f;}.cls-3{fill:#d07a22;}.cls-4{fill:#8f292a;}</style></defs><title>8735_TRR Logo 2_RGB</title><path class="cls-1" d="M34.2,347.53V268.12H5.58v-7A9.74,9.74,0,0,1,8.53,254,9.74,9.74,0,0,1,15.68,251H82.46v17.12H54.12v79.41H34.2Z" transform="translate(-5.58 -4.44)"/><path class="cls-1" d="M87.3,299.27q0-23.57,12.35-37.32,13.19-13.74,34.51-13.75,21,0,34.51,13.75,12.63,14,12.63,37.32t-12.63,37q-12.91,13.47-34.51,13.47-21.89,0-34.51-13.47Q87.3,322.84,87.3,299.27Zm19.92,0q0,16.28,7,24.69,7,8.7,19.92,8.7,12.63,0,19.92-8.7,7.29-9,7.29-24.69t-7.29-25q-7.3-8.69-19.92-8.7-12.91,0-19.92,8.7T107.22,299.27Z" transform="translate(-5.58 -4.44)"/><path class="cls-1" d="M188.66,347.53V261.11a10.06,10.06,0,0,1,10.1-10.1h27.78q22.16,0,33.11,11.78,10.94,12.35,10.94,36.48a65.42,65.42,0,0,1-3.93,23.29q-4.49,10.67-11.79,16.27a38.33,38.33,0,0,1-13.19,6.73q-6.73,2-20.48,2H188.66ZM208,330.13h16q13.74,0,20.2-7.29,6.17-6.73,6.18-23.57,0-16.27-5.89-23.85-5.62-7.58-18-7.58H208v62.29Z" transform="translate(-5.58 -4.44)"/><path class="cls-1" d="M277.4,347.53V261.11A10.06,10.06,0,0,1,287.5,251h27.78q22.16,0,33.11,11.78,10.94,12.35,10.94,36.48a65.42,65.42,0,0,1-3.93,23.29q-4.49,10.67-11.79,16.27a38.32,38.32,0,0,1-13.19,6.73q-6.73,2-20.48,2H277.4Zm19.36-17.4h16q13.74,0,20.2-7.29,6.17-6.73,6.17-23.57,0-16.27-5.89-23.85-5.62-7.58-18-7.58H296.76v62.29Z" transform="translate(-5.58 -4.44)"/><path class="cls-1" d="M401.27,347.53V261.11a10.06,10.06,0,0,1,10.1-10.1h36.76q15.71,0,23.29,6.73,7.85,7,7.86,20.48,0,9-3.93,14.87-3.37,5.62-10.66,8.14,6.45,2.25,9,6.73,2.52,4.21,3.09,14.31l0.56,11.5v3.65a22.13,22.13,0,0,0,.28,3.65q0.84,5.05,3.37,6.45H459.07a16.23,16.23,0,0,1-1.68-5.89,58.92,58.92,0,0,1-.56-6.17l-0.28-10.38Q456,316.66,453.18,313q-3.09-3.08-10.94-3.09h-21v37.6H401.27Zm19.92-54.43h23.29q7.58,0,11.22-3.09t3.65-9.54q0-6.45-3.65-9.54-3.37-3.37-10.1-3.37H421.19v25.53Z" transform="translate(-5.58 -4.44)"/><path class="cls-1" d="M487.76,347.53V261.11a10.06,10.06,0,0,1,10.1-10.1h9.82v96.52H487.76Z" transform="translate(-5.58 -4.44)"/><path class="cls-1" d="M544.79,347.53L511.4,251h22.17L554,323.12l18.8-64.82q1.68-7.29,9.54-7.29H596.7l-32.83,96.52H544.79Z" transform="translate(-5.58 -4.44)"/><path class="cls-1" d="M603.78,347.53V261.11a10.06,10.06,0,0,1,10.1-10.1h60v16.55H623.42v20.76H661v6.45a10.06,10.06,0,0,1-10.1,10.1h-27.5v24.69h50.51v18H603.78Z" transform="translate(-5.58 -4.44)"/><path class="cls-1" d="M680.17,347.53V261.11a10.06,10.06,0,0,1,10.1-10.1H727q15.71,0,23.29,6.73,7.85,7,7.86,20.48,0,9-3.93,14.87-3.37,5.62-10.66,8.14,6.45,2.25,9,6.73,2.52,4.21,3.09,14.31l0.56,11.5v3.65a22.13,22.13,0,0,0,.28,3.65q0.84,5.05,3.37,6.45H738a16.23,16.23,0,0,1-1.68-5.89,58.92,58.92,0,0,1-.56-6.17l-0.28-10.38q-0.57-8.42-3.37-12.07-3.09-3.08-10.94-3.09h-21v37.6H680.17Zm19.92-54.43h23.29q7.58,0,11.22-3.09t3.65-9.54q0-6.45-3.65-9.54-3.37-3.37-10.1-3.37H700.09v25.53Z" transform="translate(-5.58 -4.44)"/><path class="cls-2" d="M106.15,449.85V387.49a7.26,7.26,0,0,1,7.29-7.29H140q11.34,0,16.81,4.86,5.67,5.06,5.67,14.78a19,19,0,0,1-2.83,10.73,13.82,13.82,0,0,1-7.69,5.87q4.66,1.62,6.48,4.86,1.82,3,2.23,10.33l0.41,8.3v2.63a15.94,15.94,0,0,0,.2,2.63q0.61,3.64,2.43,4.66H147.86a11.71,11.71,0,0,1-1.21-4.25,42.32,42.32,0,0,1-.41-4.45l-0.2-7.49q-0.41-6.07-2.43-8.71-2.23-2.22-7.9-2.23H120.53v27.13H106.15Zm14.38-39.28h16.81q5.47,0,8.1-2.23t2.63-6.88q0-4.65-2.63-6.88-2.43-2.43-7.29-2.43H120.53v18.42Z" transform="translate(-5.58 -4.44)"/><path class="cls-2" d="M168.56,449.85V387.49a7.26,7.26,0,0,1,7.29-7.29h43.33v11.95H182.74v15h27.13v4.66a7.26,7.26,0,0,1-7.29,7.29H182.74v17.82h36.44v13H168.56Z" transform="translate(-5.58 -4.44)"/><path class="cls-2" d="M223.68,428.19h14.17q0.81,6.07,4.66,8.5,4,2.84,11.14,2.83,6.27,0,9.52-2.23a7.37,7.37,0,0,0,3.24-6.48q0-6.48-18.22-10.53l-0.4-.2-1.62-.41q-10.33-2.22-13.77-4.66a12.1,12.1,0,0,1-5.67-6.48,19,19,0,0,1-2-9.31q0-9.92,6.88-15.59,6.88-5.47,20-5.47,12.35,0,19,5.67,6.88,6.28,7.29,16.4h-8.1a6.89,6.89,0,0,1-6.68-4.25,10,10,0,0,0-2.83-3.44q-3.64-2.63-9.92-2.63-6.07,0-8.71,2.23a7.33,7.33,0,0,0-3,6.28q0,5.47,11.74,8.1a35.27,35.27,0,0,0,5.06,1.21q3.65,1.22,6.38,1.92l4.35,1.11,5.67,2.43a17.53,17.53,0,0,1,6.28,6.28,19.78,19.78,0,0,1,2.23,9.31q0,10.93-7.29,17-7.29,5.67-20.65,5.67-13.77,0-20.65-5.87Q224.29,439.73,223.68,428.19Z" transform="translate(-5.58 -4.44)"/><path class="cls-2" d="M284.07,415q0-17,8.91-26.93,9.52-9.92,24.9-9.92,15.19,0,24.9,9.92,9.11,10.13,9.11,26.93t-9.11,26.73q-9.32,9.72-24.9,9.72-15.79,0-24.9-9.72Q284.06,432,284.07,415Zm14.38,0q0,11.74,5.06,17.82,5.06,6.28,14.38,6.28,9.11,0,14.38-6.28,5.26-6.48,5.26-17.82t-5.26-18q-5.27-6.27-14.38-6.28-9.32,0-14.38,6.28T298.44,415Z" transform="translate(-5.58 -4.44)"/><path class="cls-2" d="M371.79,380v43.53q0,8.1,3,11.95,3.24,3.64,10.33,3.64,6.88,0,10.33-3.64,3.24-3.64,3.24-11.95V380h14.38v45.15q0,13-7.29,19.64-6.68,6.68-20.65,6.68t-20.65-6.68q-7.29-6.68-7.29-19.64V387.69a7.73,7.73,0,0,1,2.13-5.37A6.74,6.74,0,0,1,364.5,380h7.29Z" transform="translate(-5.58 -4.44)"/><path class="cls-2" d="M417.79,449.85V387.49a7.26,7.26,0,0,1,7.29-7.29h26.52q11.34,0,16.8,4.86,5.67,5.06,5.67,14.78a19,19,0,0,1-2.83,10.73,13.82,13.82,0,0,1-7.69,5.87q4.65,1.62,6.48,4.86,1.82,3,2.23,10.33l0.4,8.3v2.63a15.94,15.94,0,0,0,.2,2.63q0.61,3.64,2.43,4.66H459.5a11.72,11.72,0,0,1-1.22-4.25,42.52,42.52,0,0,1-.41-4.45l-0.2-7.49q-0.41-6.07-2.43-8.71-2.23-2.22-7.9-2.23H432.17v27.13H417.79Zm14.38-39.28H449q5.47,0,8.1-2.23t2.63-6.88q0-4.65-2.63-6.88-2.43-2.43-7.29-2.43H432.17v18.42Z" transform="translate(-5.58 -4.44)"/><path class="cls-2" d="M542.36,425.76q-1,12.15-9.11,19-8.3,6.68-21.87,6.68-15.79,0-24.09-9.52Q479,432.85,479,415q0-18.22,8.5-27.33,8.7-9.52,25.11-9.52,13.36,0,21.26,6.68,7.49,6.48,8.5,18.22h-8.71a7,7,0,0,1-6.88-4.25,20,20,0,0,0-3.44-4.66q-4.05-3-10.73-3-9.32,0-14.38,6.07-4.86,6.07-4.86,17.82,0,11.34,4.86,17.41,4.66,6.28,14,6.28a17.2,17.2,0,0,0,10.73-3.24q3.84-3,5.47-9.72h14Z" transform="translate(-5.58 -4.44)"/><path class="cls-2" d="M547.47,449.85V387.49a7.26,7.26,0,0,1,7.29-7.29h43.33v11.95H561.65v15h27.13v4.66a7.26,7.26,0,0,1-7.29,7.29H561.65v17.82h36.44v13H547.47Z" transform="translate(-5.58 -4.44)"/><path class="cls-2" d="M602.59,428.19h14.17q0.81,6.07,4.66,8.5,4,2.84,11.14,2.83,6.27,0,9.52-2.23a7.37,7.37,0,0,0,3.24-6.48q0-6.48-18.22-10.53l-0.41-.2-1.62-.41q-10.32-2.22-13.77-4.66a12.1,12.1,0,0,1-5.67-6.48,19,19,0,0,1-2-9.31q0-9.92,6.88-15.59,6.88-5.47,20-5.47,12.35,0,19,5.67,6.88,6.28,7.29,16.4h-8.1a6.89,6.89,0,0,1-6.68-4.25,10,10,0,0,0-2.83-3.44q-3.65-2.63-9.92-2.63-6.07,0-8.71,2.23a7.33,7.33,0,0,0-3,6.28q0,5.47,11.74,8.1a35.25,35.25,0,0,0,5.06,1.21q3.64,1.22,6.38,1.92l4.35,1.11,5.67,2.43a17.53,17.53,0,0,1,6.28,6.28,19.79,19.79,0,0,1,2.23,9.31q0,10.93-7.29,17-7.29,5.67-20.65,5.67-13.77,0-20.65-5.87Q603.2,439.73,602.59,428.19Z" transform="translate(-5.58 -4.44)"/><path class="cls-3" d="M491.09,77.8a116.72,116.72,0,0,0-219.93,9s68.34,0.73,70.71,2.93l1-.07,1-.06Z" transform="translate(-5.58 -4.44)"/><path class="cls-4" d="M310.8,109.09c0-15.6,23.9-18.72,31.05-19.31h0c-2.37-2.2-14.18-11.13-29.8-10.44-27.64,1.21-40.79,7.45-40.9,7.51a116.79,116.79,0,0,0,29.34,117c22-5.68,77.63-22.39,77.63-46.32C378.13,129.63,310.8,131.82,310.8,109.09Z" transform="translate(-5.58 -4.44)"/><path class="cls-4" d="M491.08,77.8c-0.27-.06-42.48-9.67-102.54-7.4-32.16,1.22-44.69,19.25-44.69,19.25l-0.26.09h0c-2.06.68-14.73,5.15-15,11.68-0.35,7.94,15.63,10.36,38.68,14.51,19.48,3.51,40.37,7.28,60.17,17,30.31,14.9,43.14,33.23,53,51.78A116.58,116.58,0,0,0,491.08,77.8Z" transform="translate(-5.58 -4.44)"/></svg>