<?xml version="1.0" encoding="utf-8"?>
<!-- Generator: Adobe Illustrator 19.2.0, SVG Export Plug-In . SVG Version: 6.00 Build 0)  -->
<svg version="1.1" id="Layer_1" xmlns="http://www.w3.org/2000/svg" xmlns:xlink="http://www.w3.org/1999/xlink" x="0px" y="0px"
	 viewBox="0 0 245.1 127.119" style="enable-background:new 0 0 245.1 127.119;" xml:space="preserve">
<style type="text/css">
	.st0{fill:#F7901E;}
	.st1{fill:#012638;}
</style>
<g>
	<path class="st0" d="M92.95,126.159c-4,0-6.4-2.7-6.4-6.1v-11.1c0-3.5,2.4-6.1,6.4-6.1s6,2.5,6,5.8v2.7h-3.7v-2.7
		c0-1.3-0.7-2.2-2.2-2.2s-2.3,0.9-2.3,2.1v11.7c0,1.2,0.8,2.1,2.3,2.1s2.2-0.9,2.2-2.2v-2.7h3.7v2.7
		C98.95,123.659,96.85,126.159,92.95,126.159z"/>
	<path class="st0" d="M107.45,126.159c-3.9,0-6.3-2.5-6.3-6.1v-11.1c0-3.5,2.4-6.1,6.3-6.1s6.3,2.5,6.3,6.1v11.1
		C113.75,123.659,111.35,126.159,107.45,126.159z M109.55,108.659c0-1.3-0.8-2.2-2.1-2.2c-1.3,0-2.1,0.9-2.1,2.2v11.7
		c0,1.3,0.8,2.2,2.1,2.2c1.4,0,2.1-0.9,2.1-2.2V108.659z"/>
	<path class="st0" d="M129.65,125.659v-16.2l-0.9,4.9l-2.4,11.3h-3.2l-2.2-11.3l-0.9-4.9v16.2h-3.7v-22.3h5.6l2.3,11.3l0.7,4.1
		l0.7-4.1l2.3-11.3h5.6v22.3H129.65z"/>
	<path class="st0" d="M149.75,125.659v-16.2l-0.9,4.9l-2.4,11.3h-3.2l-2.2-11.3l-0.9-4.9v16.2h-3.7v-22.3h5.6l2.3,11.3l0.7,4.1
		l0.7-4.1l2.3-11.3h5.6v22.3H149.75z"/>
	<path class="st0" d="M162.75,126.159c-3.6,0-6.3-2.3-6.3-5.7v-17.2h4.2v17.2c0,1.3,0.7,2,2.1,2c1.4,0,2.1-0.7,2.1-2v-17.2h4.1v17.2
		C168.95,123.859,166.35,126.159,162.75,126.159z"/>
	<path class="st0" d="M181.45,125.659l-4.3-9.5l-1.6-3.6v13.1h-3.8v-22.3h3.6l4.1,9.7l1.5,3.6v-13.2h3.8v22.3L181.45,125.659
		L181.45,125.659z"/>
	<path class="st0" d="M187.55,125.659v-22.3h4.2v22.3H187.55z"/>
	<path class="st0" d="M201.85,107.059v18.6h-4.2v-18.6h-4.1v-3.7h12.4v3.7H201.85z"/>
	<path class="st0" d="M207.65,125.659v-22.3h4.2v22.3H207.65z"/>
	<path class="st0" d="M214.05,125.659v-22.3h10.7v3.6h-6.5v5.5h4.5v3.3h-4.5v6.2h6.5v3.7
		C224.75,125.659,214.05,125.659,214.05,125.659z"/>
	<path class="st0" d="M232.45,126.159c-3.8,0-6.2-2.3-6.2-5.8v-1.5h3.8v1.3c0,1.6,0.8,2.5,2.3,2.5s2.2-0.9,2.2-2.2
		c0-1.8-1.1-3-3.4-4.6c-2.3-1.6-4.8-3.9-4.8-7c0-3.2,2.1-6,6.1-6c3.5,0,5.9,2.4,5.9,5.7v1.4h-3.8v-1.3c0-1.4-0.7-2.4-2.1-2.4
		c-1.2,0-2,0.8-2,2c0,1.9,1.1,2.8,3.6,4.7c2.6,2,4.5,4,4.5,7C238.65,123.559,236.15,126.159,232.45,126.159z"/>
</g>
<g>
	<path class="st0" d="M5.85,104.959c10.9-3.1,21.9-7,48.4-12.6c0.2-1,0.5-2.4,1-4.1c0.1-0.6,0.3-1.4,0.6-2.4
		c-34.5,7.5-48.7,13.6-49.6,13.8C3.75,100.159,2.15,105.759,5.85,104.959z"/>
	<path class="st0" d="M72.65,83.259c-0.2,0.6-0.4,1.2-0.5,1.8c-0.1,0.4-0.2,0.7-0.3,1.1c-0.4,1.1-0.7,2.6-0.9,3.7
		c19.6-3.9,37.3-6.8,58.8-8.3c10.1-0.9,15.9-1,25.4-1.5c0.6-2.5,2.5-5,5.3-7.8c-15.7,1.1-28.4,2.2-45.2,4.3
		C98.85,78.159,87.15,80.359,72.65,83.259z"/>
	<path class="st0" d="M241.55,69.459c-3.7-0.7-24.4-1.1-57,0.8c-1.1,3.3-2.1,6-3.1,8.2c33.1-0.8,53.3,0.7,54.2,0.4
		C238.35,78.259,245.15,71.059,241.55,69.459z"/>
</g>
<path class="st1" d="M240.65,50.759c-0.3,0-1.2,0.7-1.4,0.9c-11.3,8.9-16.9,2.9-14.7-2.1c4.6,0,8.5-3.5,11-6.4s3.4-6.5,3-9.1
	c-0.2-1.5-2-6.2-6-6.9c-7-0.9-12.6,7.6-15.2,14.2c-1,2.4-1.4,4.8-1.5,7c-1.8,1.4-9.5,9.6-11.2,8.1c-1.9-1.6,14.4-48.6,14.9-50.3
	c0.5-1.6-1.3-2.9-1.3-2.9l-3.4-2.1c0,0-1.4-0.9-3,1.4c-2,5.3-7.9,24.2-12,37.9c-3.2,3.3-9,8.3-13.5,12.2c3.1-9.7,5.3-17.6,5.6-18.6
	c0.1-0.3,0.1-0.6,0.1-0.8l0.2-0.5c0.4-1.6-1.5-2.7-1.5-2.7l-3.6-1.8c0,0-1.5-0.7-2.9,1.6l-0.3,0.8c-0.1,0.1-0.1,0.3-0.2,0.5
	c-0.2,0.5-0.4,1.5-0.8,2.7l-0.6,1.8c0,0.1,0,0.2,0,0.2c-1.5,4.8-3.5,11.3-3.5,11.3s-9.5,11.9-10.3,11.3c-0.6-0.4,2.4-10.9,4.6-17.8
	l0,0l2.1-5.7c0.1-0.5,0.1-1-0.1-1.4c-0.1-0.2-0.2-0.4-0.3-0.6c-0.4-0.6-0.8-0.9-0.8-0.9l-3.1-2.1c0,0-1.3-0.9-2.7,1.3l-2.1,5.7v0.1
	c-1.4,3.5-3.1,8.4-4.4,12.7c-3.5,3.4-11.6,11.6-13.1,10.3c-1.2-1,4.8-19.9,9.7-34.5l9.1-1c0.8-0.1,2-1.9,2-1.9s3-4.4,2.5-5.5
	c-0.2-0.4-5.2-0.1-11,0.5c1.7-5,2.9-8.5,3-8.9c0.5-1.6-1.3-2.9-1.3-2.9l-3.4-2.1c0,0-1.4-0.9-3,1.4c-0.9,2.3-2.6,7.4-4.5,13.5
	c-5,0.6-9.1,1.3-9.7,1.7c-1.5,1.2-2.5,5.5-2.5,5.5s-0.5,1.8,0.3,1.7l9.4-1c-0.9,2.9-1.8,6-2.8,8.9c0,0.1,0,0.1-0.1,0.2
	c-1.5,3.8-10,21-12.3,23.5c0.1-0.8,0.1-1.7,0-2.5c-0.6-5.5-4.2-11.2-4.1-13.9c0.1-3.6,1.9-3.2,3-4.5c0.4-0.5,0.4-1.4-0.4-2
	c-1.4-1.1-2.5-2.3-6.3-1.9c-13,1.4-2.1,18.4-0.2,22.8c0.3,0.1-8.6-3.3-11.1-3.1c-2.5,0.3-3.9,3.5-3.3,6.4c0,0.1,0,0.2,0,0.2
	c-0.4,0.2-0.9,0.6-0.9,0.7c-1.2,1-2.4,1.8-3.5,2.4c-8.9,5.2-13.2,0-11.2-4.5c4.6,0,8.5-3.5,11-6.4s3.4-6.5,3-9.1
	c-0.2-1.5-2-6.2-6-6.9c-5.2-0.7-9.7,3.9-12.7,9c-3.3,0.2-7.6,0.7-11.6,1.1c0.5-1.6,1.4-4.7,1.7-5.8l0,0c2.8-9.6,6-17.1,7.1-17.3
	c2.7-0.7,0.9,8.4,1.4,8.5l0,0c0.5,0.9,1.8,0.5,1.8,0.5l3.1-0.9c0,0,0.9-0.3,0.9-1.9c0.2-0.9-1.9-10.8-2.4-11.4
	c-0.4-0.6-1.4-1.4-2.1-1.6s-0.7-0.2-4.2,0.3s-5.5,2.2-6.5,4.1c-1,1.8-4.1,10.6-7.4,20.4l0,0c-0.4,1.3-1.4,4.5-1.9,6
	c-2,0.3-3.3,0.6-3.6,0.9c-1.5,1.2-2.5,5.5-2.5,5.5s-0.5,1.8,0.3,1.7l3.4-0.4c-0.8,2.4-1.5,4.8-2.2,7.2c-3.8,3.6-13.5,13.2-15.1,11.8
	c-2-1.6,6.3-22,6.8-23.7s-1.2-2.9-1.2-2.9l-3.4-2.1c0,0-1.4-0.9-3,1.4c-3.1,8.1-7.3,21.8-8,25.9c-0.3,2.1,0.5,4.3,3.3,6.1
	c2.8,1.8,4,2.3,4.7,2.4s2.1-0.2,2.8-0.5c0.6-0.2,6.5-4.9,9.8-7.7c-2,6.8-3.6,12.3-4.1,14.4c-0.5,2-0.9,3.7-1.1,4.7
	c-0.4,4.1,4,8.6,6.5,8c2.4-1,1-5.4,1.5-8.4c0,0,0.7-3.4,1.4-5.7c0.1-0.4,0.2-0.7,0.3-1.1c1.4-4.6,3.3-10.6,4.4-14.1
	c1.9-6,3.5-10.9,5.3-16.6l10.8-1.2c-0.3,1.3-0.5,2.6-0.6,3.9c0,1.2,0.1,2.4,0.3,3.5c1,5.5,4.9,9.8,10,11.2c3.7,1.1,8.7-1,12.3-3.2
	c1.3-0.8,2.5-1.6,3.3-2.2c0.2,0.5,0.5,1,0.8,1.3c1.7,1.8,4.7,2.6,8.2,2.2c4.7-0.7,7.7-2.8,9.5-5.3c1.9-1,3.8-2.7,5.4-4.8
	c0.8-1,2.1-3.3,3.5-6.1c-0.6,2.3-1,3.9-1.1,4.5c-0.3,2.1,0.5,4.3,3.3,6.1c2.8,1.8,4,2.3,4.7,2.4s2.1-0.2,2.8-0.5
	c0.5-0.2,6.4-4.8,9.7-7.6c0,0.1,0.1,0.2,0.1,0.2c1.9,3.1,4.1,5.6,5.2,6.4c1.1,0.8,3.4,0.3,4.5-0.3c1.1-0.6,6.8-7.6,6.8-7.6
	s-0.2,1.2-0.8,3.5c-11.6,10.2-19.6,16.1-16.8,22.7c2.6,6.1,9,4.3,12,2.8c4.7-2.7,6.8-9.8,11.6-23.9c5.8-5.6,11.3-10.5,14.2-13.1
	c-0.8,2.7-1.3,4.7-1.4,5.4c-0.3,2.1,0.5,4.3,3.3,6.1s4,2.3,4.7,2.4s2.1-0.2,2.8-0.5c0.6-0.3,7.4-5.6,10.5-8.3
	c0.4,0.8,0.8,1.7,1.3,2.4c1.8,2.7,4.5,4.6,7.7,5.5c6.3,2,16.8-5.9,17-6.7C243.55,54.959,241.65,50.759,240.65,50.759z
	 M233.55,34.459c4.1,3.6-5.9,11.1-7.2,10.1C225.15,43.459,231.55,32.659,233.55,34.459z M105.35,44.059c4.1,3.6-5.9,11.1-7.2,10.1
	C96.95,53.059,103.35,42.159,105.35,44.059z M120.35,63.359c-1,0.1-1.7-0.5-2.2-1.1c-1-1.2-0.9-3.3-0.3-3.8l0.1-0.1
	c0.8-0.3,3.1,0.2,7.4,1.4C123.95,62.259,121.35,63.259,120.35,63.359z M165.25,82.459c-1.3-1.2,0.2-3.3,7.8-11.4
	C169.85,80.459,166.55,83.559,165.25,82.459z"/>
<path class="st1" d="M54.95,42.759l3.4,2.1c0,0,1.4,0.9,3-1.4l2.3-5.7c0.5-1.6-1.3-2.9-1.3-2.9l-3.4-2.1c0,0-1.4-0.9-3,1.4l-2.3,5.7
	C53.25,41.559,54.95,42.759,54.95,42.759z"/>
<path class="st1" d="M37.85,75.259c-0.5,0-7.2,1-18.7,4.5c0.3-16.2,14-52.3,18.6-58.2l0,0c0.6-2.1-1.6-3.7-1.6-3.7l-3.7-2.3
	c0,0-1.8-1.1-3.7,1.7l0,0c-6.6,8.6-20.5,62.2-20.9,65.3c-4,1.5-4.6,1.8-5.6,2.8c-1.4,1.6,0.4,7.4,4.7,7c11.3-2.3,18.8-5.5,28.9-7.7
	l0,0l0,0l0,0c1.6-0.2,2.3-2.3,2.3-2.3l1.4-4.4C39.75,77.959,40.75,74.959,37.85,75.259z"/>
</svg>
