<?xml version="1.0" encoding="utf-8"?>
<!-- Generator: Adobe Illustrator 17.1.0, SVG Export Plug-In . SVG Version: 6.00 Build 0)  -->
<!DOCTYPE svg PUBLIC "-//W3C//DTD SVG 1.1//EN" "http://www.w3.org/Graphics/SVG/1.1/DTD/svg11.dtd">
<svg version="1.1" id="Layer_1" xmlns="http://www.w3.org/2000/svg" xmlns:xlink="http://www.w3.org/1999/xlink" x="0px" y="0px"
	 viewBox="83.9 170 820.6 228.7" enable-background="new 83.9 170 820.6 228.7" xml:space="preserve">
<path fill="#E37221" d="M770,271.3c-1.6-16.2-17.3-26.1-41.2-35.6c-24.1-9.5-55.5-34.3-66.4-63.1c-1.1-3.3-2.4-3.8-3.6,0.5
	c-1.5,4.6-3.3,14.6-2.4,22.8c1.8,14.6,11.1,25.7,21.5,32.3c3.8,2.4,6.9,4.4,10,5.8c2.4,1.1,1.5,2.7-0.9,1.6
	c-11.9-5.8-28.1-15.1-35.2-27.4c0,0-1.3-2.7-1.3,1.6c0.2,4.4,1.5,35.6,28.8,42.7c1.1,0.4,1.1,0.7,0,1.1c-6,1.1-13.5,0-19.2-3.6
	c-1.6-1.1-1.3,0.9-0.7,2.6c5.7,17.2,18.1,23,45.6,21.2c1.6-0.2,1.8,1.1,0,1.6c-10.6,2.7-15.3,2.9-29.7,1.6c-1.1-0.2-2,0.5-1.1,2.4
	c4.6,8.2,23.2,13,36.7,10.2c2.9-0.5,10.6-2.2,11.9-2.9c1.3-0.7,1.8,0.2,0.7,0.9c-1.5,0.9-12,10.2-37,8.9c-0.7,0-2,0.2-0.7,1.6
	c6,6,15.9,14.4,28.5,9.5c0,0,1.6-0.2,0.7,0.9c-2.2,2.7-5.5,4.6-10,5.5c-1.3-0.2-1.5,0.9-0.4,1.8c1.1,0.7,9.1,6.4,17.9,4.7
	c0,0-24.8,25.5-53.6,43.1c0,0-4.6,2.9,1.1,1.5c0,0,4.2,0.2,24.5-10.4c6.4-3.5,2.4,5.5-8.4,13c0,0-5.1,3.1,0.5,3.1
	c0,0,24.5-0.9,31.8-9.5c8.9-10.4-9.1-11.5,13.3-38C753.8,296.9,771.7,287.8,770,271.3"/>
<path fill="#E37221" d="M811.1,224.3c-1.1-0.2-2.7-0.7-3.3-2.4c-0.9-2.4,0.4-4.7,2.7-5.7c2.4-0.9,5.1-0.4,6,2.2
	c0.5,1.5,0,3.1-0.2,3.6c-0.4,0.7-0.9,1.5-1.8,1.8C813.5,224.4,812.2,224.4,811.1,224.3"/>
<path fill="#E37221" d="M902.2,269.5c-6.6,6-31.4,15.3-55.3,7.8c-23.4-7.3-25.4,0.2-25.9,1.6c-0.4,0.9-1.3,1.1-1.3,0
	c-0.2-1.6-0.7-10.9-0.9-14.4c-0.2-3.6,2.7-7.3,4.7-12.6c2-5.3,6-19.2,8.4-21c3.6-2.9,15.5-13,18.2-16.4s4.7-6.6,7.1-11.9
	c-11.5-2.9-26.8,6-29.7,7.7c0,0-15.9-7.3-30.7-2.9c-14.8,4.4-19.7,16.8-20.6,21.5c-2.4,11.1-5.5,15.3-9.5,17.5
	c-3.8,2.2-5.1-0.2-3.8,1.6c1.3,2,7.7,8,13.9,2c12-11.1,9.5-19.5,16.6-28.6c7.1-9.1,12.6-8.8,19.9-9.7c7.3-0.7,10.4,1.3,10,2.7
	c-0.5,1.5-1.1,3.3-3.3,6.4c-0.7,0.9-2,2.2-3.1,2.9c-1.1,0.7-2.4,1.5-5.5,2.6s-6.4,1.5-9.1,2.7c-12.6,5.8-12.8,10.6-13.1,13.5
	c2.2-0.2,7.8,0.5,13-2.9c5.1-3.5,4.7-5.8,7.7-8.6s6-3.8,12.6-7.7c6.4-3.8,17-8.2,27.9-14.1c-3.5,6-23.4,18.6-26.5,20.3
	c-3.1,1.8-0.5,3.3,2.7,2.6c-1.1,1.3-2.9,3.1-2.9,3.1c-0.4,4-8.9,22.1-9.3,22.8c-0.4,0.7-0.9,0.7-0.5,8.9c0.2,3.5,0.2,8.4,0.2,8.4
	c0.5,20.1-9.9,30.8-26.5,42c-17.2,11.5-29.7,11.7-51.3,38.5c0,0-6,7.8,8.8-5.1c4.9-4.4,15.7-11.1,20.4-13.5
	c17-8.2,15.3-0.7,16.4,1.1c1.5,2.4,4.9-11.5,8-7.5c2.4,2.9,3.5,5.3,10.2,6.8c1.3,0.2,1.8,0.4,1.5-0.7c-0.5-1.5-0.5-4.2,0.2-6.6
	c0.7-2,1.5-2.9,2.6-0.7c2.4,5.3,5.7,7.3,12.6,8.8c1.3,0.2,1.5-0.4,0.7-1.3c-1.3-1.5-3.8-4.6-4.7-6.9c-0.9-2.6-0.2-3.1,1.3-1.3
	c3.3,4.4,12.6,6.8,20.8,6.8c1.5,0,1.8-0.7,0.7-1.5c-3.6-2.2-8.8-5.3-12.2-8.9c-1.1-1.1-0.7-2.4,0.4-1.5c7.5,6.2,19.2,7.7,29.9,3.3
	c2.4-0.9,1.8-1.8-0.4-2c-7.1-0.9-12.2-2.6-19-6.6c-1.6-1.1-0.7-1.8,0.7-1.3c20.6,8.2,30.1,1.6,40.1-9.7c2-2.4,1.3-2.9-1.1-2
	c-7.1,1.5-15.3,0.2-15.3,0.2c-2.2-0.2-1.8-1.3,0-1.5c23.7-1.6,43.6-30.3,45.6-34.3C904.9,268.6,903.3,268.6,902.2,269.5"/>
<path fill="#E37221" d="M770,271.3c-1.6-16.2-17.3-26.1-41.2-35.6c-24.1-9.5-55.5-34.3-66.4-63.1c-1.1-3.3-2.4-3.8-3.6,0.5
	c-1.5,4.6-3.3,14.6-2.4,22.8c1.8,14.6,11.1,25.7,21.5,32.3c3.8,2.4,6.9,4.4,10,5.8c2.4,1.1,1.5,2.7-0.9,1.6
	c-11.9-5.8-28.1-15.1-35.2-27.4c0,0-1.3-2.7-1.3,1.6c0.2,4.4,1.5,35.6,28.8,42.7c1.1,0.4,1.1,0.7,0,1.1c-6,1.1-13.5,0-19.2-3.6
	c-1.6-1.1-1.3,0.9-0.7,2.6c5.7,17.2,18.1,23,45.6,21.2c1.6-0.2,1.8,1.1,0,1.6c-10.6,2.7-15.3,2.9-29.7,1.6c-1.1-0.2-2,0.5-1.1,2.4
	c4.6,8.2,23.2,13,36.7,10.2c2.9-0.5,10.6-2.2,11.9-2.9c1.3-0.7,1.8,0.2,0.7,0.9c-1.5,0.9-12,10.2-37,8.9c-0.7,0-2,0.2-0.7,1.6
	c6,6,15.9,14.4,28.5,9.5c0,0,1.6-0.2,0.7,0.9c-2.2,2.7-5.5,4.6-10,5.5c-1.3-0.2-1.5,0.9-0.4,1.8c1.1,0.7,9.1,6.4,17.9,4.7
	c0,0-24.8,25.5-53.6,43.1c0,0-4.6,2.9,1.1,1.5c0,0,4.2,0.2,24.5-10.4c6.4-3.5,2.4,5.5-8.4,13c0,0-5.1,3.1,0.5,3.1
	c0,0,24.5-0.9,31.8-9.5c8.9-10.4-9.1-11.5,13.3-38C753.8,296.9,771.7,287.8,770,271.3"/>
<path fill="#E37221" d="M811.1,224.3c-1.1-0.2-2.7-0.7-3.3-2.4c-0.9-2.4,0.4-4.7,2.7-5.7c2.4-0.9,5.1-0.4,6,2.2
	c0.5,1.5,0,3.1-0.2,3.6c-0.4,0.7-0.9,1.5-1.8,1.8C813.5,224.4,812.2,224.4,811.1,224.3"/>
<path fill="#E37221" d="M902.2,269.5c-6.6,6-31.4,15.3-55.3,7.8c-23.4-7.3-25.4,0.2-25.9,1.6c-0.4,0.9-1.3,1.1-1.3,0
	c-0.2-1.6-0.7-10.9-0.9-14.4c-0.2-3.6,2.7-7.3,4.7-12.6c2-5.3,6-19.2,8.4-21c3.6-2.9,15.5-13,18.2-16.4s4.7-6.6,7.1-11.9
	c-11.5-2.9-26.8,6-29.7,7.7c0,0-15.9-7.3-30.7-2.9c-14.8,4.4-19.7,16.8-20.6,21.5c-2.4,11.1-5.5,15.3-9.5,17.5
	c-3.8,2.2-5.1-0.2-3.8,1.6c1.3,2,7.7,8,13.9,2c12-11.1,9.5-19.5,16.6-28.6c7.1-9.1,12.6-8.8,19.9-9.7c7.3-0.7,10.4,1.3,10,2.7
	c-0.5,1.5-1.1,3.3-3.3,6.4c-0.7,0.9-2,2.2-3.1,2.9c-1.1,0.7-2.4,1.5-5.5,2.6s-6.4,1.5-9.1,2.7c-12.6,5.8-12.8,10.6-13.1,13.5
	c2.2-0.2,7.8,0.5,13-2.9c5.1-3.5,4.7-5.8,7.7-8.6s6-3.8,12.6-7.7c6.4-3.8,17-8.2,27.9-14.1c-3.5,6-23.4,18.6-26.5,20.3
	c-3.1,1.8-0.5,3.3,2.7,2.6c-1.1,1.3-2.9,3.1-2.9,3.1c-0.4,4-8.9,22.1-9.3,22.8c-0.4,0.7-0.9,0.7-0.5,8.9c0.2,3.5,0.2,8.4,0.2,8.4
	c0.5,20.1-9.9,30.8-26.5,42c-17.2,11.5-29.7,11.7-51.3,38.5c0,0-6,7.8,8.8-5.1c4.9-4.4,15.7-11.1,20.4-13.5
	c17-8.2,15.3-0.7,16.4,1.1c1.5,2.4,4.9-11.5,8-7.5c2.4,2.9,3.5,5.3,10.2,6.8c1.3,0.2,1.8,0.4,1.5-0.7c-0.5-1.5-0.5-4.2,0.2-6.6
	c0.7-2,1.5-2.9,2.6-0.7c2.4,5.3,5.7,7.3,12.6,8.8c1.3,0.2,1.5-0.4,0.7-1.3c-1.3-1.5-3.8-4.6-4.7-6.9c-0.9-2.6-0.2-3.1,1.3-1.3
	c3.3,4.4,12.6,6.8,20.8,6.8c1.5,0,1.8-0.7,0.7-1.5c-3.6-2.2-8.8-5.3-12.2-8.9c-1.1-1.1-0.7-2.4,0.4-1.5c7.5,6.2,19.2,7.7,29.9,3.3
	c2.4-0.9,1.8-1.8-0.4-2c-7.1-0.9-12.2-2.6-19-6.6c-1.6-1.1-0.7-1.8,0.7-1.3c20.6,8.2,30.1,1.6,40.1-9.7c2-2.4,1.3-2.9-1.1-2
	c-7.1,1.5-15.3,0.2-15.3,0.2c-2.2-0.2-1.8-1.3,0-1.5c23.7-1.6,43.6-30.3,45.6-34.3C904.9,268.6,903.3,268.6,902.2,269.5"/>
<path fill="#454444" d="M226.3,274.4c0,0-2.9,0.9-7.8,0.9c-6.9,0-11.3-2.7-13-8.9v-0.7c-2,4.4-7.1,10-18.4,10
	c-13.9,0-18.4-8.9-18.4-20.8v-38h18.2v33c0,6.2,2.6,9.1,6.8,9.1c8.9,0,9.9-9.1,9.9-10.6V217h18.1v38.7c0,3.3,1.1,4.9,4.7,4.9V274.4z
	"/>
<path fill="#454444" d="M337,269.9c0,0-6.2,5.8-15.7,5.8c-17.9,0-24.6-9.7-24.6-26.8v-17.3h-8.6v-14.2h8.6v-18.1h18.1v18.1h19.2
	v14.2h-19.2v16.6c0,7.8,2.7,11.5,8.6,11.5c5.3,0,8.4-2.7,8.4-2.7L337,269.9z"/>
<path fill="#454444" d="M344.9,274.8v-38.9c0-2.9-1.1-4.7-4.7-4.7v-13.9c0,0,2.4-0.9,7.5-0.9c6.8,0,10.8,2.9,12.8,8.6v0.9
	c1.6-4.4,5.8-9.7,16.6-9.7c6.6,0,9.9,2.6,9.9,2.6l-7.5,15.9c0,0-2.4-2-7.8-2c-6.4,0-8.4,5.3-8.6,8.9v33.2H344.9z"/>
<path fill="#454444" d="M447.1,274.4c0,0-2.9,0.9-7.8,0.9c-6.8,0-11.1-2.6-12.8-8.8V266c-1.3,2.6-5.5,9.5-17,9.5
	c-11.1,0-23.4-9.1-23.4-29.6c0-21.5,11.7-29.7,24.3-29.7c8.6,0,13.9,4.4,15.9,6.2V217h15.9v38.7c0,3.3,1.1,4.9,4.7,4.9v13.9H447.1z
	 M424.1,241.2c-0.2-2.6-2.6-8.9-9.9-8.9c-6,0-10.4,4.4-10.4,13.5c0,9.9,5.5,13.7,10.4,13.7c8.6,0,9.7-8.9,9.7-8.4v-9.9H424.1z"/>
<path fill="#454444" d="M477.5,274.4c0,0-2.7,0.9-7.8,0.9c-9.9,0-15-5.1-15-16.2v-68.2H473v65c0,3.3,1.1,4.9,4.7,4.9v13.7H477.5z"/>
<path fill="#454444" d="M494.9,209.8c-5.5,0-9.9-3.8-9.9-9.5c0-5.5,4.4-9.5,9.9-9.5s10,4,10,9.5S500.3,209.8,494.9,209.8z"/>
<path fill="#454444" d="M508.9,274.4c0,0-2.7,0.9-7.8,0.9c-9.9,0-15-5.1-15-16.2V217h18.1v38.7c0,3.3,1.1,4.9,4.7,4.9V274.4z"/>
<path fill="#454444" d="M576.4,274.4c0,0-2.9,0.9-7.8,0.9c-6.8,0-11.1-2.6-12.8-8.8V266c-1.3,2.6-5.5,9.5-17,9.5
	c-11.1,0-23.4-9.1-23.4-29.6c0-21.5,11.7-29.7,24.3-29.7c8.6,0,13.9,4.4,15.9,6.2V217h15.9v38.7c0,3.3,1.1,4.9,4.7,4.9v13.9H576.4z
	 M553.6,241.2c-0.2-2.6-2.6-8.9-9.9-8.9c-6,0-10.4,4.4-10.4,13.5c0,9.9,5.5,13.7,10.4,13.7c8.6,0,9.7-8.9,9.7-8.4v-9.9H553.6z"/>
<path fill="#454444" d="M644.3,274.4c0,0-2.7,0.9-7.8,0.9c-9.9,0-15-5.1-15-16.2v-17.3c0-5.5-3.3-8.9-7.8-8.9
	c-6.6,0-8.6,5.3-8.8,8.9v33h-18.1v-38.9c0-2.9-1.1-4.7-4.7-4.7v-13.9c0,0,2.9-0.9,8-0.9c6.8,0,10.8,2.4,12.4,7.8v1.1
	c1.6-4.4,6-9.1,16.6-9.1c14.8,0,20.4,10.4,20.4,23v16.4c0,3.3,1.3,4.9,4.7,4.9L644.3,274.4L644.3,274.4z"/>
<path fill="#454444" d="M104.4,274.8l6.4-19.9h28.1l6.9,19.9h20.1L135,190.9H115l-31,83.9H104.4z M125,212.6l9.3,27.9h-18.6
	L125,212.6z"/>
<path fill="#454444" d="M254,276.8c1.3,0.2,2.6,0.2,4,0.2c18.1,0,26.6-7.5,26.6-19.9c0-19.9-32.7-13.3-32.7-23.5
	c0-1.8,1.6-3.5,7.1-3.5c6.8,0,11.7,3.8,13.7,5.8l10.2-9.9c-2.7-3.5-9.9-9.5-25.5-9.5c-17.7,0.5-24.1,9.5-24.1,17.5
	c0,22.1,30.7,16.2,30.7,24.1c0,2.4-1.6,5.1-6.9,5.1c-10.6,0-16.6-8.4-16.6-8.4l-10,9.5c0,0,1.8,4.4,7.8,7.8
	C243.6,275.3,249.6,276.3,254,276.8z"/>
<path fill="#454444" d="M517.5,304c-5.5,0-9.9-3.8-9.9-9.5c0-5.5,4.4-9.5,9.9-9.5c5.5,0,10,4,10,9.5C527.5,300.2,523,304,517.5,304z
	"/>
<path fill="#454444" d="M531.4,368.8c0,0-2.7,0.9-7.8,0.9c-9.9,0-15-5.1-15-16.2v-42.2h18.1V350c0,3.3,1.1,4.9,4.7,4.9V368.8z"/>
<path fill="#454444" d="M412.6,285.2h19.5v49.3c0,26.8-15,35.6-33,35.6c-18.1,0-33.6-8.8-33.4-35.6l0.2-49.3H385v50.7
	c0,9.1,3.3,16.6,13.9,16.6s13.5-7.5,13.5-16.6v-50.7H412.6z"/>
<path fill="#454444" d="M502,368.8c0,0-2.7,0.9-7.8,0.9c-9.9,0-15-5.1-15-16.2v-17.3c0-5.5-3.3-8.9-7.8-8.9c-6.4,0-8.6,5.3-8.8,8.9
	v33.2h-18.1v-38.9c0-2.9-1.1-4.7-4.7-4.7v-13.9c0,0,2.9-0.9,8-0.9c6.8,0,10.8,2.4,12.4,7.8v1.1c1.6-4.4,6-9.1,16.6-9.1
	c14.8,0,20.4,10.4,20.4,23v16.4c0,3.3,1.3,4.9,4.7,4.9L502,368.8L502,368.8z"/>
<path fill="#454444" d="M583.7,325.5h-23.5v16.6c0,7.8,2.7,11.5,8.6,11.5c5.3,0,8.4-2.7,8.4-2.7l5.3,13.1c0,0-6.2,5.8-15.7,5.8
	c-17.9,0-24.6-9.7-24.6-26.8v-17.3h-8.6v-14.4h8.6v-18.1h18.1v18.1h24.5h6.9c9.9,0,15,5.1,15,16.2v16.6c0,6.2,2.7,9.1,6.8,9.1
	c7.7,0,9.7-7.5,9.7-10.4v-31.6H641v59.1c0,17-11.1,28.3-28.3,28.3c-19.2,0-25.9-12.8-25.9-12.8l9.3-9.7c0,0,4.4,6.4,13.9,6.4
	c6.9,0,13.9-3.5,13.9-12.4v-8.6c-2.6,4.2-7.8,8-17.3,8c-13.9,0-18.4-8.9-18.4-20.8v-18.6C588.5,327.4,587.4,325.5,583.7,325.5z"/>
</svg>
