<svg xmlns="http://www.w3.org/2000/svg" width="626" height="138" viewBox="0 0 626 138">
  <g fill="none" fill-rule="evenodd">
    <polyline fill="#FFFFFF" points="140.036 137.545 140.036 124.491 142.237 124.491 142.237 135.453 148.19 135.453 148.19 137.545 140.036 137.545"/>
    <polygon fill="#FFFFFF" points="196.595 137.545 198.797 137.545 198.797 124.491 196.595 124.491"/>
    <polyline fill="#FFFFFF" points="250.617 137.545 248.415 137.545 248.415 124.491 251.849 124.491 255.786 132.689 259.724 124.491 263.139 124.491 263.139 137.545 260.936 137.545 260.936 127.347 256.383 136.406 255.152 136.406 250.617 127.347 250.617 137.545"/>
    <polygon fill="#FFFFFF" points="312.756 137.545 314.958 137.545 314.958 124.491 312.756 124.491"/>
    <polyline fill="#FFFFFF" points="369.503 126.507 369.503 137.545 367.301 137.545 367.301 126.507 363.345 126.507 363.345 124.491 373.459 124.491 373.459 126.507 369.503 126.507"/>
    <polyline fill="#FFFFFF" points="431.007 124.491 431.007 126.563 424.047 126.563 424.047 130.018 430.298 130.018 430.298 131.979 424.047 131.979 424.047 135.472 431.23 135.472 431.23 137.545 421.844 137.545 421.844 124.491 431.007 124.491"/>
    <path fill="#FFFFFF" d="M489.583477,131.008 C489.583477,128.02076 487.872778,126.52668 484.45138,126.52668 L482.24889,126.52668 L482.24889,135.47184 L484.694059,135.47184 C486.273307,135.47184 487.483941,135.09556 488.323204,134.34208 C489.163386,133.5886 489.583477,132.47724 489.583477,131.008 L489.583477,131.008 Z M489.918999,126.19916 C491.174675,127.33812 491.803433,128.92236 491.803433,130.95188 C491.803433,132.9814 491.193979,134.58772 489.975072,135.76992 C488.755245,136.95396 486.889195,137.5446 484.376922,137.5446 L480.047319,137.5446 L480.047319,124.49072 L484.525838,124.49072 C486.865295,124.49072 488.662402,125.0602 489.918999,126.19916 L489.918999,126.19916 Z"/>
    <polyline fill="#FFFFFF" points="66.602 59.282 75.33 59.282 75.33 98.422 66.602 98.422 66.602 83.023 51.049 83.023 51.049 98.422 42.322 98.422 42.322 59.282 51.049 59.282 51.049 75.632 66.602 75.632 66.602 59.282"/>
    <path fill="#FFFFFF" d="M126.073275 78.6278C126.073275 75.13732 124.953645 72.16112 122.716223 69.69736 120.477883 67.23268 117.726608 66.0008 114.464238 66.0008 111.200029 66.0008 108.449674 67.23268 106.212253 69.69736 103.973912 72.16112 102.855201 75.13732 102.855201 78.6278 102.855201 82.11828 103.973912 85.0862 106.212253 87.53064 108.449674 89.976 111.200029 91.19776 114.464238 91.19776 117.726608 91.19776 120.477883 89.976 122.716223 87.53064 124.953645 85.0862 126.073275 82.11828 126.073275 78.6278L126.073275 78.6278zM129.037812 93.01844C125.084176 96.88152 120.216819 98.81352 114.435742 98.81352 108.653744 98.81352 103.786388 96.88152 99.8336711 93.01844 95.8800352 89.15444 93.9036769 84.34928 93.9036769 78.6002 93.9036769 72.85204 95.8800352 68.04504 99.8336711 64.18104 103.786388 60.31796 108.653744 58.38596 114.435742 58.38596 120.216819 58.38596 125.084176 60.31796 129.037812 64.18104 132.990529 68.04504 134.968725 72.85204 134.968725 78.6002 134.968725 84.34928 132.990529 89.15444 129.037812 93.01844L129.037812 93.01844zM174.745924 76.92028C175.826946 75.94968 176.368376 74.4096 176.368376 72.30004 176.368376 70.19232 175.80948 68.74516 174.68985 67.96132 173.57114 67.17748 171.613166 66.78556 168.81593 66.78556L162.270047 66.78556 162.270047 78.37572 168.647709 78.37572C171.631551 78.37572 173.663982 77.89088 174.745924 76.92028L174.745924 76.92028zM185.263827 72.27244C185.263827 78.54316 182.782808 82.59484 177.822608 84.42288L187.725542 98.4216 176.983345 98.4216 168.312188 85.93444 162.270047 85.93444 162.270047 98.4216 153.541897 98.4216 153.541897 59.28204 168.368261 59.28204C174.447172 59.28204 178.782291 60.30876 181.375457 62.36128 183.967703 64.41472 185.263827 67.71844 185.263827 72.27244L185.263827 72.27244z"/>
    <polygon fill="#FFFFFF" points="205.404 98.422 214.132 98.422 214.132 59.282 205.404 59.282"/>
    <polyline fill="#FFFFFF" points="232.706 98.422 232.706 92.43 253.182 66.842 233.377 66.842 233.377 59.282 265.099 59.282 265.099 65.329 244.678 90.806 265.434 90.806 265.434 98.422 232.706 98.422"/>
    <path fill="#FFFFFF" d="M313.381483,78.6278 C313.381483,75.13732 312.261853,72.16112 310.024432,69.69736 C307.786091,67.23268 305.035736,66.0008 301.772446,66.0008 C298.508238,66.0008 295.757883,67.23268 293.520461,69.69736 C291.28212,72.16112 290.16341,75.13732 290.16341,78.6278 C290.16341,82.11828 291.28212,85.0862 293.520461,87.53064 C295.757883,89.976 298.508238,91.19776 301.772446,91.19776 C305.035736,91.19776 307.786091,89.976 310.024432,87.53064 C312.261853,85.0862 313.381483,82.11828 313.381483,78.6278 L313.381483,78.6278 Z M316.346021,93.01844 C312.392385,96.88152 307.525028,98.81352 301.744869,98.81352 C295.961953,98.81352 291.095515,96.88152 287.14188,93.01844 C283.188244,89.15444 281.211885,84.34928 281.211885,78.6002 C281.211885,72.85204 283.188244,68.04504 287.14188,64.18104 C291.095515,60.31796 295.961953,58.38596 301.744869,58.38596 C307.525028,58.38596 312.392385,60.31796 316.346021,64.18104 C320.298737,68.04504 322.276934,72.85204 322.276934,78.6002 C322.276934,84.34928 320.298737,89.15444 316.346021,93.01844 L316.346021,93.01844 Z"/>
    <polyline fill="#FFFFFF" points="368.208 59.282 376.936 59.282 376.936 98.422 368.208 98.422 349.578 73.897 349.578 98.422 340.851 98.422 340.851 59.282 349.018 59.282 368.208 84.479 368.208 59.282"/>
    <path fill="#ADAA7A" d="M426.560628 79.38312L433.161665 79.38312 433.161665 92.76544C429.469093 96.83552 424.191756 98.86964 417.328737 98.86964 411.547659 98.86964 406.70788 96.96616 402.811236 93.15828 398.912755 89.3504 396.963974 84.53512 396.963974 78.71152 396.963974 72.88884 398.950443 68.03584 402.922464 64.15344 406.894485 60.27104 411.696576 58.33076 417.328737 58.33076 422.959979 58.33076 427.641651 59.97296 431.370993 63.25828L427.84664 68.29712C426.317031 66.99072 424.778229 66.08544 423.231154 65.58128 421.68316 65.07712 419.883295 64.82596 417.832479 64.82596 413.878843 64.82596 410.55948 66.10476 407.874391 68.66144 405.188382 71.21812 403.845377 74.57796 403.845377 78.74004 403.845377 82.90304 405.150693 86.24264 407.762244 88.76252 410.371956 91.2824 413.53321 92.54188 417.245087 92.54188 420.956044 92.54188 424.060305 91.73964 426.560628 90.13424L426.560628 79.38312M482.031031 68.52068C479.363407 65.75884 476.090925 64.377 472.212667 64.377 468.33257 64.377 465.060088 65.75884 462.393383 68.52068 459.726678 71.28436 458.393786 74.63408 458.393786 78.5726 458.393786 82.51112 459.726678 85.85992 462.393383 88.62268 465.060088 91.38544 468.33257 92.76544 472.212667 92.76544 476.090925 92.76544 479.363407 91.38544 482.031031 88.62268 484.696816 85.85992 486.030628 82.51112 486.030628 78.5726 486.030628 74.63408 484.696816 71.28436 482.031031 68.52068L482.031031 68.52068zM486.869891 93.01844C482.916256 96.88152 478.030514 98.81352 472.212667 98.81352 466.3939 98.81352 461.507239 96.88152 457.554523 93.01844 453.600887 89.15444 451.623609 84.33916 451.623609 78.5726 451.623609 72.8042 453.600887 67.98892 457.554523 64.12584 461.507239 60.26184 466.3939 58.33076 472.212667 58.33076 478.030514 58.33076 482.916256 60.26184 486.869891 64.12584 490.823527 67.98892 492.799885 72.8042 492.799885 78.5726 492.799885 84.33916 490.823527 89.15444 486.869891 93.01844L486.869891 93.01844z"/>
    <polyline fill="#ADAA7A" points="512.325 98.422 512.325 59.282 518.926 59.282 518.926 92.15 536.773 92.15 536.773 98.422 512.325 98.422"/>
    <path fill="#ADAA7A" d="M582.64973 78.82376C582.64973 69.8648 577.520391 65.38532 567.26447 65.38532L560.662514 65.38532 560.662514 92.20608 567.991586 92.20608C572.728411 92.20608 576.355718 91.07724 578.872587 88.81864 581.390376 86.56004 582.64973 83.22872 582.64973 78.82376L582.64973 78.82376zM583.656294 64.40552C587.423325 67.82056 589.307759 72.57144 589.307759 78.6554 589.307759 84.7412 587.478479 89.55648 583.824514 93.10216 580.168711 96.64876 574.573319 98.4216 567.040176 98.4216L554.060558 98.4216 554.060558 59.28204 567.487844 59.28204C574.49978 59.28204 579.889263 60.98956 583.656294 64.40552L583.656294 64.40552zM312.724229 26.59628C429.246637 26.59628 537.153962 31.45756 625.408931 39.72652 543.962746 27.60552 433.884185 20.16732 312.724229 20.16732 191.563354 20.16732 81.484793 27.60552.0386079295 39.72652 88.2935771 31.45756 196.200902 26.59628 312.724229 26.59628"/>
    <polyline fill="#ADAA7A" points="102.127 31.452 120.47 36.615 102.785 29.479 110.725 .609 99.75 28.443 81.407 23.28 99.092 30.416 91.151 59.286 102.127 31.452"/>
  </g>
</svg>
