<svg height="110" viewBox="0 0 560 110" width="560" xmlns="http://www.w3.org/2000/svg"><g fill="none" fill-rule="evenodd" transform="translate(0 .129938)"><g fill="#d7182a"><path d="m417.137535 83.820361h9.478306v2.6043018h-6.067619v8.3072623h4.921012v2.4811825h-4.921012v9.2066914h6.127769v2.511257h-9.538456z"/><path d="m432.56316 95.7859578-5.011237-11.9651269h3.170087l3.712375 8.8655284 3.381551-8.8655284h3.168207l-5.131536 12.2451997 5.374015 12.8645554h-3.170086l-3.98493-9.4548091-3.441701 9.4548091h-3.169146z"/><path d="m448.047995 94.732301c1.00563 0 1.784759-.112781 2.339266-.3411626.552627-.2265019.95112-.6184159 1.193599-1.176682.2406-.5592059.361839-1.3646504.361839-2.4182131 0-1.2819443-.091164-2.2217862-.272554-2.8214053-.181389-.5996191-.538529-1.0234878-1.071419-1.2716061-.533831-.2471784-1.373109-.3712375-2.520656-.3712375h-1.600551v8.4003066zm-4.981162-10.9115641h6.067619c2.113704 0 3.647526.5892809 4.604285 1.7678426.95488 1.1757422 1.433259 2.9022317 1.433259 5.1757092 0 2.0460357-.513154 3.637188-1.539461 4.7743967-1.025367 1.1362688-2.515017 1.7048731-4.468008 1.7048731h-2.687008v11.6869335h-3.410686z"/><path d="m457.103371 83.820361h3.410686v22.599438h6.249009v2.511257h-9.659695z"/><path d="m477.239483 105.303642c.441726-.764091.662589-1.921976.662589-3.471775v-11.0046089c0-1.5300626-.220863-2.6606924-.662589-3.3956487-.444545-.7330767-1.298861-1.1005548-2.566708-1.1005548-1.288523 0-2.153178.3674781-2.595843 1.1005548-.442666.7349563-.664468 1.8655861-.664468 3.3956487v11.0046089c0 1.549799.221802 2.707684.664468 3.471775.442665.764092 1.30732 1.147547 2.595843 1.147547 1.267847 0 2.122163-.383455 2.566708-1.147547m-7.713282 1.813895c-1.036646-1.395665-1.554499-3.415385-1.554499-6.06104v-9.5177786c0-2.603362.522553-4.5770299 1.569536-5.920064 1.046044-1.3439738 2.756557-2.0150209 5.131537-2.0150209 2.374041 0 4.078914.6766861 5.117439 2.0300584 1.034766 1.3543121 1.553559 3.3214012 1.553559 5.9050265v9.5497336c0 2.603362-.522552 4.608044-1.569536 6.013108-1.046044 1.406003-2.747158 2.108065-5.101462 2.108065-2.394717 0-4.110868-.697362-5.146574-2.092088"/><path d="m488.949913 94.6395386c1.468973 0 2.520656-.2988697 3.154109-.8984888.634393-.5996191.95206-1.6851365.95206-3.2556122 0-1.0338261-.111841-1.8449096-.331764-2.4332506-.222743-.5902207-.614657-1.0234878-1.177622-1.3026209-.563905-.2781931-1.359011-.4182296-2.385319-.4182296h-1.509386v8.3082021zm-4.709548-10.8194596h4.921012c2.474604 0 4.291318.5225521 5.448264 1.5648368 1.157885 1.0451041 1.735888 2.7443382 1.735888 5.1005218 0 3.2236576-1.005631 5.1775888-3.018773 5.8589742l3.472716 12.5863622h-3.291326l-3.200162-11.7799779h-2.655993v11.7799779h-3.411626z"/><path d="m507.03247 100.095039-2.053554-11.3147565-2.0216 11.3147565zm-3.713315-16.2743021h3.291326l5.221762 25.1097551h-3.230237l-1.117472-6.323256h-4.980222l-1.177622 6.323256h-3.200161z"/><path d="m515.393304 86.4241929h-4.437934v-2.6043018h12.165314v2.6043018h-4.316694v22.5063931h-3.410686z"/><path d="m524.68928 108.931432h3.350536v-25.1106951h-3.350536z"/><path d="m540.357383 105.303642c.442666-.764091.663529-1.921976.663529-3.471775v-11.0046089c0-1.5300626-.220863-2.6606924-.663529-3.3956487-.443605-.7330767-1.297921-1.1005548-2.565768-1.1005548-1.289463 0-2.153178.3674781-2.595843 1.1005548-.443606.7349563-.664468 1.8655861-.664468 3.3956487v11.0046089c0 1.549799.220862 2.707684.664468 3.471775.442665.764092 1.30638 1.147547 2.595843 1.147547 1.267847 0 2.122163-.383455 2.565768-1.147547m-7.712342 1.813895c-1.037585-1.395665-1.554498-3.415385-1.554498-6.06104v-9.5177786c0-2.603362.521612-4.5770299 1.569535-5.920064 1.046044-1.3439738 2.756557-2.0150209 5.131537-2.0150209 2.374041 0 4.078914.6766861 5.116499 2.0300584 1.035706 1.3543121 1.554499 3.3214012 1.554499 5.9050265v9.5497336c0 2.603362-.523492 4.608044-1.569536 6.013108-1.046984 1.406003-2.748098 2.108065-5.101462 2.108065-2.395657 0-4.110868-.697362-5.146574-2.092088"/><path d="m547.359205 83.820361h2.325169l6.941672 16.678434v-16.678434h2.838323v25.110695h-2.173855l-7.033776-17.1436555v17.1436555h-2.897533z"/></g><path d="m247.585363 50.0920679h33.398221c-.624995-3.1870038-.95394-6.5770134-.95394-10.1662695 0-3.8787274.392854-7.5149756 1.120292-10.918143h-33.564573v-7.9068897h35.463053v-21.08478839h-59.026768v79.90667149h59.026768v-21.0853523h-35.463053z" fill="#fff"/><path d="m45.6114657 27.3306955c0-4.3129343-3.7330519-6.2302117-7.6991845-6.2302117h-14.3485659v12.5797834h14.3485659c3.9661326 0 7.6991845-1.9172774 7.6991845-6.3495717zm-2.7997889 52.5916713-10.7320543-25.1586269h-8.5159072v25.1586269h-23.5637153v-79.90638949h41.5287927c18.1981581 0 27.9960096 12.45854379 27.9960096 27.43407819 0 13.7771419-7.815725 21.0853523-13.9980048 24.1999882l14.115485 28.2723231z" fill="#fff"/><path d="m74.3771118 79.9224608v-79.90648349h59.0268622v21.08460049h-35.4630528v7.9068896h34.6463308v21.0844125h-34.6463308v8.7452286h35.4630528v21.0853523z" fill="#fff"/><path d="m193.798213 79.9224608-28.697132-40.4921471v40.4921471h-23.563715v-79.90648349h24.263897l27.062747 37.85701849v-37.85701849h23.564655v79.90648349z" fill="#fff"/><path d="m500.428202 79.945393v-79.90685948h59.026768v21.08403658h-35.463993v7.9078295h34.647271v21.0834726h-34.647271v8.7452286h35.463993v21.0862922z" fill="#fff"/><path d="m339.468064 29.0301176h-19.800589v21.0533977h20.720694v8.7762434h-11.199156c-11.781858 0-18.78086-8.8645885-18.78086-18.9284153 0-10.7818659 6.065739-18.8090553 18.66432-18.8090553h11.315696v.0018797h23.564655v-21.08657413h-34.763811c-24.496978 0-42.695136 14.37676103-42.695136 39.89374973 0 25.5176466 18.198158 40.0137676 42.578596 40.0137676h34.880351v-12.5779037z" fill="#fff"/><path d="m451.855294.01597731h-34.762871v28.96376479h23.563715v-7.8796343h11.315697c12.59858 0 18.664319 8.0271895 18.664319 18.8090554 0 10.0638267-6.999002 18.9284152-18.78086 18.9284152h-11.199156v-29.7535139l-23.563715 36.8963121v13.9416143h34.879412c24.380437 0 42.578596-14.4951811 42.578596-40.0128277 0-25.5173647-18.198159-39.89318589-42.695137-39.89318589" fill="#fff"/><path d="m380.434831 79.9233067h-8.85989l18.381428 29.0335953 18.379547-29.0335953h-8.858009z" fill="#fff"/><path d="m399.477907 79.9205811h-19.043076-8.85895l18.380488-29.0326551 18.380487 29.0326551zm-9.521538-79.9205811-50.598267 79.9224608h101.196533z" fill="#d71729"/></g></svg>