<?xml version="1.0" encoding="utf-8"?>
<!-- Generator: Adobe Illustrator 19.2.1, SVG Export Plug-In . SVG Version: 6.00 Build 0)  -->
<!DOCTYPE svg PUBLIC "-//W3C//DTD SVG 1.1//EN" "http://www.w3.org/Graphics/SVG/1.1/DTD/svg11.dtd">
<svg version="1.1" id="Layer_1" xmlns="http://www.w3.org/2000/svg" xmlns:xlink="http://www.w3.org/1999/xlink" x="0px" y="0px"
	 viewBox="0 0 418 239" style="enable-background:new 0 0 418 239;" xml:space="preserve">
<style type="text/css">
	.st0{fill:#DCAA00;}
	.st1{fill:#646569;}
	.st2{fill:#AC162C;}
	.st3{filter:url(#Adobe_OpacityMaskFilter);}
	.st4{clip-path:url(#SVGID_2_);fill:url(#SVGID_4_);}
	.st5{clip-path:url(#SVGID_2_);mask:url(#SVGID_3_);}
	.st6{clip-path:url(#SVGID_6_);fill:#646569;}
	.st7{clip-path:url(#SVGID_6_);}
	.st8{filter:url(#Adobe_OpacityMaskFilter_1_);}
	.st9{clip-path:url(#SVGID_8_);fill:url(#SVGID_9_);}
	.st10{clip-path:url(#SVGID_8_);}
	.st11{clip-path:url(#SVGID_11_);fill:#646569;}
</style>
<g>
	<g>
		<path class="st0" d="M116.775,176.263l-4.771-14.315H83.259l-4.886,14.315H61.898l29.427-80.896h12.384l29.541,80.896H116.775z
			 M97.915,119.227l-10.226,29.426h20.11L97.915,119.227z"/>
		<path class="st0" d="M176.194,176.263v-5.454c-3.863,4.091-9.316,6.136-14.77,6.136c-5.908,0-10.68-1.932-13.975-5.227
			c-4.771-4.771-6.021-10.339-6.021-16.815v-37.834h14.77v35.789c0,8.067,5.113,10.794,9.771,10.794
			c4.658,0,9.884-2.727,9.884-10.794v-35.789h14.771v59.194H176.194z"/>
		<path class="st1" d="M230.615,176.944c-12.27,0-21.587-2.613-29.54-10.68l10.226-10.226c5.113,5.112,12.043,6.816,19.542,6.816
			c9.316,0,14.315-3.521,14.315-9.998c0-2.84-0.795-5.227-2.499-6.816c-1.591-1.478-3.408-2.272-7.158-2.841l-9.771-1.363
			c-6.931-1.022-12.044-3.182-15.68-6.703c-3.863-3.863-5.794-9.09-5.794-15.907c0-14.429,10.68-24.542,28.177-24.542
			c11.135,0,19.201,2.727,26.132,9.43L248.567,114c-5.113-4.885-11.248-5.567-16.588-5.567c-8.408,0-12.499,4.658-12.499,10.225
			c0,2.045,0.682,4.204,2.386,5.794c1.591,1.477,4.204,2.727,7.499,3.182l9.544,1.363c7.385,1.022,12.043,3.067,15.451,6.249
			c4.317,4.09,6.249,9.998,6.249,17.156C260.61,168.082,247.545,176.944,230.615,176.944z"/>
		<path class="st1" d="M292.875,176.263c-12.043,0-17.156-8.521-17.156-16.929v-29.313h-6.249v-11.248h6.249v-17.497h14.771v17.497
			h10.453v11.248h-10.453v28.404c0,3.408,1.591,5.34,5.112,5.34h5.341v12.498H292.875z"/>
		<path class="st1" d="M344.343,176.263v-5.112c-3.977,3.977-7.726,5.681-14.543,5.681c-6.703,0-11.589-1.704-15.111-5.227
			c-3.181-3.295-4.886-8.067-4.886-13.293c0-9.431,6.477-17.156,20.225-17.156h13.975v-2.954c0-6.477-3.182-9.316-11.021-9.316
			c-5.681,0-8.294,1.363-11.361,4.885l-9.43-9.203c5.794-6.362,11.475-8.18,21.359-8.18c16.588,0,25.224,7.044,25.224,20.905v38.971
			H344.343z M344.002,151.267h-11.703c-5.34,0-8.294,2.5-8.294,6.704c0,4.09,2.728,6.816,8.521,6.816
			c4.091,0,6.703-0.341,9.316-2.84c1.591-1.478,2.159-3.863,2.159-7.499V151.267z"/>
		<path class="st1" d="M406.83,133.202c-2.271-2.272-4.203-3.522-7.839-3.522c-4.545,0-9.544,3.408-9.544,10.907v35.676h-14.771
			v-59.194h14.43v5.681c2.84-3.408,8.521-6.362,14.884-6.362c5.794,0,9.885,1.477,13.975,5.567L406.83,133.202z"/>
	</g>
</g>
<polygon class="st2" points="136.415,11.892 152.081,9.165 144.716,23.259 152.15,37.316 136.47,34.666 125.398,46.08 
	123.073,30.349 108.796,23.346 123.039,16.274 125.287,0.531 "/>
<polygon class="st2" points="143.687,67.367 153.632,68.742 146.491,75.799 148.257,85.683 139.338,81.072 130.484,85.806 
	132.113,75.899 124.875,68.941 134.8,67.428 139.181,58.394 "/>
<polygon class="st2" points="180.864,44.004 188.652,50.339 178.886,52.668 175.268,62.033 170.035,53.465 160.01,52.918 
	166.543,45.293 163.965,35.59 173.235,39.446 181.667,33.996 "/>
<g>
	<g>
		<path class="st0" d="M82.891,234.677c-2.457,2.501-5.404,3.617-8.978,3.617c-3.394,0-6.252-1.161-8.575-3.483
			c-1.384-1.385-2.233-2.992-2.59-4.778c-0.357-1.787-0.536-4.422-0.536-7.905c0-3.484,0.179-6.119,0.536-7.905
			c0.357-1.832,1.206-3.395,2.59-4.779c2.323-2.322,5.181-3.483,8.575-3.483c7.235,0,11.121,4.645,11.97,10.183H79.63
			c-0.759-3.082-2.635-4.645-5.717-4.645c-1.652,0-2.992,0.58-3.975,1.697c-1.161,1.474-1.519,2.635-1.519,8.933
			c0,6.252,0.268,7.503,1.519,8.977c0.938,1.117,2.278,1.652,3.975,1.652c1.832,0,3.305-0.58,4.422-1.786
			c0.938-1.072,1.429-2.501,1.429-4.243v-1.206h-5.851v-5.181h12.015v4.646C85.928,229.63,85.08,232.354,82.891,234.677z"/>
		<path class="st0" d="M119.019,234.811c-2.233,2.233-4.958,3.483-8.575,3.483s-6.387-1.25-8.62-3.483
			c-3.215-3.216-3.126-7.19-3.126-12.684c0-5.494-0.089-9.469,3.126-12.685c2.233-2.233,5.002-3.483,8.62-3.483
			s6.342,1.25,8.575,3.483c3.216,3.216,3.171,7.19,3.171,12.685C122.189,227.62,122.234,231.595,119.019,234.811z M114.418,213.194
			c-0.894-1.027-2.278-1.697-3.975-1.697s-3.126,0.67-4.02,1.697c-1.206,1.34-1.519,2.813-1.519,8.933
			c0,6.118,0.312,7.592,1.519,8.932c0.893,1.027,2.322,1.697,4.02,1.697s3.082-0.67,3.975-1.697c1.206-1.34,1.563-2.813,1.563-8.932
			C115.981,216.008,115.624,214.534,114.418,213.194z"/>
		<path class="st0" d="M136.567,238.026v-31.8h6.208v26.262h14.426v5.538H136.567z"/>
		<path class="st0" d="M190.158,234.989c-2.1,2.1-5.092,3.037-8.397,3.037h-11.478v-31.8h11.478c3.305,0,6.297,0.938,8.397,3.037
			c3.573,3.573,3.215,7.95,3.215,12.729C193.374,226.771,193.731,231.416,190.158,234.989z M185.826,213.73
			c-1.072-1.296-2.501-1.966-4.645-1.966h-4.689v20.724h4.689c2.144,0,3.573-0.67,4.645-1.965c1.161-1.43,1.34-3.707,1.34-8.531
			C187.166,217.169,186.987,215.159,185.826,213.73z"/>
		<path class="st1" d="M221.55,238.026v-31.8h3.395v28.763h16.257v3.037H221.55z"/>
		<path class="st1" d="M252.498,238.026v-31.8h3.394v31.8H252.498z"/>
		<path class="st1" d="M294.3,238.026v-24.162l-8.709,19.16h-2.903l-8.844-19.16v24.162h-3.394v-31.8h3.394l10.362,22.555
			l10.094-22.555h3.395v31.8H294.3z"/>
		<path class="st1" d="M312.249,238.026v-31.8h3.394v31.8H312.249z"/>
		<path class="st1" d="M339.536,209.264v28.763h-3.395v-28.763h-9.2v-3.037h21.795v3.037H339.536z"/>
		<path class="st1" d="M360.032,238.026v-31.8h19.74v3.037h-16.347v11.21h13.936v3.037h-13.936v11.479h16.347v3.037H360.032z"/>
		<path class="st1" d="M411.122,235.079c-1.921,1.92-4.734,2.947-8.039,2.947h-10.897v-31.8h10.897c3.305,0,6.118,1.027,8.039,2.948
			c3.305,3.305,3.126,8.173,3.126,12.595C414.248,226.19,414.427,231.773,411.122,235.079z M408.755,211.586
			c-1.652-1.697-3.796-2.322-6.253-2.322h-6.923v25.726h6.923c2.457,0,4.601-0.625,6.253-2.322c2.188-2.278,2.1-7.012,2.1-10.897
			S410.943,213.864,408.755,211.586z"/>
	</g>
</g>
<g>
	<defs>
		<rect id="SVGID_1_" y="55.255" width="128.328" height="175.025"/>
	</defs>
	<clipPath id="SVGID_2_">
		<use xlink:href="#SVGID_1_"  style="overflow:visible;"/>
	</clipPath>
	<defs>
		<filter id="Adobe_OpacityMaskFilter" filterUnits="userSpaceOnUse" x="-9.402" y="47.966" width="146.73" height="183.314">
			<feFlood  style="flood-color:white;flood-opacity:1" result="back"/>
			<feBlend  in="SourceGraphic" in2="back" mode="normal"/>
		</filter>
	</defs>
	<mask maskUnits="userSpaceOnUse" x="-9.402" y="47.966" width="146.73" height="183.314" id="SVGID_3_">
		<g class="st3">
			
				<linearGradient id="SVGID_4_" gradientUnits="userSpaceOnUse" x1="-198.8285" y1="425.1833" x2="-197.8285" y2="425.1833" gradientTransform="matrix(0 105.4005 105.4005 0 -44750.3672 21046.3301)">
				<stop  offset="0" style="stop-color:#FFFFFF"/>
				<stop  offset="1" style="stop-color:#000000"/>
			</linearGradient>
			<rect x="0" y="55.255" class="st4" width="128.328" height="175.025"/>
		</g>
	</mask>
	<g class="st5">
		<g>
			<defs>
				<rect id="SVGID_5_" x="-9" y="48.255" width="146.328" height="183.025"/>
			</defs>
			<clipPath id="SVGID_6_">
				<use xlink:href="#SVGID_5_"  style="overflow:visible;"/>
			</clipPath>
			<path class="st6" d="M57.985,222.521v-0.863c-0.002-5.762-0.005-12.294,5.37-17.67c1.267-1.266,2.645-2.304,4.111-3.152
				c-1.489-0.723-2.962-1.469-4.408-2.254c-5.258-2.897-10.286-6.082-14.773-9.757c-4.462-3.7-8.538-7.676-12.114-12.017
				c-3.521-4.372-6.488-9.112-8.853-14.256c-0.571-1.298-1.089-2.601-1.588-3.965l-1.131-4.351l-0.867-4.384l-0.59-4.404
				c-1.356-11.746,0.29-23.661,5.258-34.714c4.923-11.064,13.356-21.02,23.853-28.76c5.247-3.873,10.973-7.239,16.985-10.132
				c6.019-2.888,12.364-5.187,18.828-7.188c12.951-3.997,26.549-6.231,40.262-7.298l-0.047-2.043
				c-13.864-0.269-27.883,0.346-41.769,2.912c-13.87,2.52-27.634,6.885-40.521,13.824c-12.842,6.887-24.888,16.714-33.425,29.83
				c-8.622,13.016-12.98,29.194-12.535,44.994l0.371,5.903l0.733,5.844l1.072,5.765c0.404,1.964,0.776,4,1.275,5.981
				c1.99,7.952,5.307,15.66,9.708,22.592c8.872,13.915,21.606,24.447,35.086,32.11c3.331,1.883,6.715,3.616,10.143,5.211
				C57.985,227.654,57.984,225.016,57.985,222.521"/>
			<g class="st7">
				<defs>
					<path id="SVGID_7_" d="M86.512,58.225c-13.869,2.52-27.634,6.886-40.52,13.824c-12.843,6.888-24.888,16.714-33.426,29.831
						c-8.621,13.015-12.979,29.194-12.535,44.993l0.371,5.903l0.734,5.845l1.072,5.765c0.404,1.963,0.776,4,1.274,5.98
						c1.991,7.952,5.307,15.661,9.708,22.592c8.873,13.916,21.606,24.448,35.087,32.111c3.113,1.76,6.273,3.389,9.472,4.897h0.621
						c-0.385-2.522-0.386-5.05-0.385-7.445v-0.863c-0.002-5.762-0.005-12.294,5.37-17.669c1.267-1.266,2.646-2.305,4.112-3.153
						c-1.49-0.722-2.963-1.468-4.408-2.253c-5.258-2.898-10.287-6.083-14.774-9.758c-4.462-3.7-8.538-7.675-12.113-12.017
						c-3.522-4.372-6.488-9.111-8.854-14.256c-0.571-1.297-1.088-2.601-1.587-3.965l-1.131-4.351l-0.867-4.383l-0.591-4.404
						c-1.355-11.747,0.29-23.661,5.258-34.714c4.923-11.065,13.356-21.021,23.853-28.761c5.248-3.872,10.974-7.238,16.985-10.132
						c6.019-2.888,12.364-5.186,18.828-7.188c12.721-3.926,26.068-6.151,39.532-7.24V55.3c-1.716-0.029-3.437-0.045-5.158-0.045
						C110.488,55.255,98.452,56.019,86.512,58.225"/>
				</defs>
				<clipPath id="SVGID_8_">
					<use xlink:href="#SVGID_7_"  style="overflow:visible;"/>
				</clipPath>
				<defs>
					<filter id="Adobe_OpacityMaskFilter_1_" filterUnits="userSpaceOnUse" x="-9.402" y="47.966" width="146" height="183">
						<feFlood  style="flood-color:white;flood-opacity:1" result="back"/>
						<feBlend  in="SourceGraphic" in2="back" mode="normal"/>
					</filter>
				</defs>
				<mask maskUnits="userSpaceOnUse" x="-9.402" y="47.966" width="146" height="183" id="SVGID_3_">
					<g class="st8">
						
							<linearGradient id="SVGID_9_" gradientUnits="userSpaceOnUse" x1="-198.7012" y1="425.1284" x2="-197.7012" y2="425.1284" gradientTransform="matrix(0 113.2812 113.2812 0 -48095.4805 22629.4434)">
							<stop  offset="0" style="stop-color:#FFFFFF"/>
							<stop  offset="1" style="stop-color:#000000"/>
						</linearGradient>
						<rect x="-0.413" y="55.255" class="st9" width="128.011" height="174.711"/>
					</g>
				</mask>
				<g class="st10">
					<g>
						<defs>
							<rect id="SVGID_10_" x="-9.402" y="47.966" width="146" height="183"/>
						</defs>
						<clipPath id="SVGID_11_">
							<use xlink:href="#SVGID_10_"  style="overflow:visible;"/>
						</clipPath>
						<rect x="-0.402" y="54.966" class="st11" width="128" height="175"/>
					</g>
				</g>
			</g>
		</g>
	</g>
</g>
<g>
</g>
<g>
</g>
<g>
</g>
<g>
</g>
<g>
</g>
<g>
</g>
</svg>
