<?xml version="1.0" encoding="utf-8"?>
<!-- Generator: Adobe Illustrator 21.0.2, SVG Export Plug-In . SVG Version: 6.00 Build 0)  -->
<svg version="1.1" id="Layer_2" xmlns="http://www.w3.org/2000/svg" xmlns:xlink="http://www.w3.org/1999/xlink" x="0px" y="0px"
	 viewBox="0 0 160 80" style="enable-background:new 0 0 160 80;" xml:space="preserve">
<style type="text/css">
	.st0{fill:#FFFFFF;}
	.st1{fill:#B4BED2;}
</style>
<rect y="24.2" class="st0" width="9" height="31.6"/>
<polygon class="st0" points="30.8,44.6 24.8,24.2 12,24.2 12,55.8 20.7,55.8 20.7,33.9 27.1,55.8 34.2,55.8 40.7,33.7 40.7,55.8 
	49.4,55.8 49.4,24.2 36.7,24.2 "/>
<path class="st0" d="M65.9,24.2H52.4v31.6h13.5c10.9,0,16.6-6.9,16.6-15.8C82.5,31.1,76.8,24.2,65.9,24.2z M65.9,47.8h-4.5V32.2h4.5
	c4.8,0,7.3,3,7.3,7.8C73.3,44.9,70.8,47.8,65.9,47.8z"/>
<polygon class="st0" points="84.1,55.8 109.4,55.8 109.4,47.8 93,47.8 93,43.5 105.2,43.5 105.2,36.5 93,36.5 93,32.2 109.5,32.2 
	109.5,24.2 84.1,24.2 "/>
<path class="st0" d="M109.5,55.8l30.8-36.8h11.3l-30.8,36.8H109.5z"/>
<polygon class="st1" points="129.3,47.9 140.3,61.1 151.6,61.1 134.9,41.1 "/>
<polygon class="st1" points="120.8,24.2 109.5,24.2 121.7,38.9 127.4,32.1 "/>
<g>
	<path class="st0" d="M155.7,19.5h-1.1v3.2h-0.6v-3.2h-1.1v-0.5h2.9V19.5z"/>
	<path class="st0" d="M157,18.9l1.1,2.8l1.1-2.8h0.8v3.7h-0.6v-1.2l0.1-1.6l-1.1,2.8h-0.5l-1.1-2.8l0.1,1.6v1.2h-0.6v-3.7H157z"/>
</g>
</svg>
