<svg width="284" height="140" viewBox="0 0 284 140" fill="none" xmlns="http://www.w3.org/2000/svg">
<rect width="283.465" height="139.141" fill="black" fill-opacity="0" transform="translate(0 0.0007)"/>
<path d="M28.283 26.764V55.137H0V59.246H28.283V87.619H32.95V59.246H61.323V55.137H32.95V26.764H28.283Z" fill="#00B5E5"/>
<path d="M65.3594 37.5911C68.9994 39.3641 74.0394 41.6051 80.5724 41.6051C85.7984 41.6051 87.4794 38.9911 87.4794 36.3781C87.4794 34.6111 86.8834 32.9361 82.6254 31.2451L76.2784 28.7251C68.8124 25.6451 65.1724 22.1921 65.1724 14.7251C65.1724 6.1351 71.7054 1.0021 82.5324 1.0021C89.3454 1.0021 94.4794 3.1491 95.8814 3.8951V14.6321C92.1454 12.3921 87.2924 10.6181 82.5324 10.6181C78.3324 10.6181 75.9054 12.0181 75.9054 14.4451C75.9054 16.6851 77.1194 17.8051 80.1994 19.1121L87.7584 22.3781C95.8814 25.9251 98.5884 30.2181 98.5884 36.1911C98.5884 45.5251 91.6784 50.8441 80.1994 50.8441C74.4124 50.8441 68.3454 49.7241 65.3594 47.9511V37.5911ZM186.162 48.1619C184.575 49.1889 181.122 50.2149 177.109 50.2149C168.895 50.2149 166.096 45.9219 166.096 39.2019V26.4149H160.869V17.4529H166.096V9.2399L177.109 5.3189V17.4529H185.509V26.4149H177.109V38.3619C177.109 39.4819 177.762 40.6019 180.002 40.6019C181.589 40.6019 184.202 40.1349 186.162 38.9219V48.1619ZM236.377 19.0408C238.617 17.3608 241.604 16.5208 244.777 16.5208C246.644 16.5208 248.883 16.8938 250.564 17.7338V28.2808C248.79 27.4408 246.084 26.7878 243.844 26.7878C240.11 26.7878 237.963 28.2808 237.963 28.2808V49.7498H226.95V17.1738L236.377 19.0408ZM103.465 4.1067L114.478 0.0007V38.9227C114.478 40.5097 115.319 40.7897 116.812 40.7897C118.118 40.7897 119.238 40.6027 120.172 40.4167V49.5627C120.172 49.5627 117.185 50.2157 114.012 50.2157C106.265 50.2157 103.465 46.4827 103.465 39.8567V4.1067ZM145.373 39.9485V27.7215C144.04 26.7445 142.319 26.2285 140.706 26.2285C131.779 26.2285 130.979 41.1615 140.706 41.1615C142.063 41.1615 144.14 40.7415 145.373 39.9485ZM138.467 50.6815C127.981 50.6815 122.693 43.3085 122.693 33.9745C122.693 23.4285 129.037 16.4285 138.653 16.4285C142.188 16.4285 145.239 17.5895 146.96 18.9485L156.48 17.2685V50.2145L146.96 48.0685C145.14 49.7075 142.27 50.6815 138.467 50.6815ZM206.229 16.5207C214.349 16.5207 221.815 20.9077 221.815 32.2937V36.0267H201.002C201.189 39.3867 203.802 41.6267 208.562 41.6267C210.615 41.6267 215.842 41.2537 220.602 38.3607V47.5097C217.335 49.7497 211.082 50.6837 207.162 50.6837C195.402 50.6837 189.616 42.8407 189.616 33.5067C189.616 24.1737 195.496 16.5207 206.229 16.5207ZM211.735 29.7737C211.735 25.5737 208.562 24.1737 206.322 24.1737C203.616 24.1737 200.909 26.0407 200.722 29.7737H211.735ZM236.703 86.3127C236.703 82.0837 234.37 78.7527 229.703 78.7527C224.943 78.7527 222.61 82.0837 222.61 86.3127C222.61 90.5447 224.943 93.9657 229.703 93.9657C234.37 93.9657 236.703 90.6357 236.703 86.3127ZM211.69 86.3127C211.69 77.0727 218.41 69.2327 229.703 69.2327C240.903 69.2327 247.623 77.0727 247.623 86.3127C247.623 95.7397 240.903 103.487 229.703 103.487C218.41 103.487 211.69 95.7397 211.69 86.3127ZM157.274 71.8459C159.607 70.1659 162.594 69.2329 165.674 69.2329C167.634 69.2329 169.687 69.6059 171.554 70.4459V81.0859C169.687 80.2459 167.074 79.5929 164.74 79.5929C161.194 79.5929 158.954 81.0859 158.954 81.0859V102.552H147.941V69.9789L157.274 71.8459ZM86.6177 77.2595L84.3777 85.9395H93.3377V92.8455C92.2177 93.5925 89.8847 93.8735 87.9247 93.8735C79.2437 93.8735 74.6717 88.9265 74.6717 80.7135C74.7647 72.2195 79.4307 66.6195 88.0177 66.6195C92.8707 66.6195 97.8177 68.2065 101.551 70.5395V59.6195C100.058 58.8735 94.7377 56.9135 87.6437 56.9135C73.0847 56.9135 63.6577 67.0865 63.6577 80.1535C63.6577 92.8455 72.7107 103.392 87.3647 103.392C91.1357 103.392 94.5047 102.648 97.4267 101.287L103.604 102.645V96.8595V95.5525V77.2595H86.6177ZM272.544 102.554V83.1409C272.544 80.4339 270.679 78.5679 267.599 78.5679C265.639 78.5679 263.771 79.3139 262.371 79.9679V102.554H251.452V69.9779L260.319 71.8469C262.279 70.5379 265.544 69.2309 270.118 69.2309C279.639 69.2309 283.465 74.6479 283.465 81.6479V102.554H272.544ZM198.342 100.874C196.476 102.554 193.396 103.487 189.382 103.487C178.556 103.487 173.142 96.1133 173.142 86.6873C173.142 76.6073 179.302 69.2313 189.569 69.2313C192.369 69.2313 194.889 69.8843 196.756 70.7273V56.9113H207.862V103.02L198.342 100.874ZM196.756 92.7543V80.3403C195.356 79.3143 193.396 78.8473 191.622 78.8473C186.673 78.8473 184.249 81.9273 184.249 86.5003C184.249 90.8873 186.576 93.9673 191.622 93.9673C193.115 93.9673 195.449 93.5943 196.756 92.7543ZM132.819 86.3127C132.819 82.2067 130.486 78.8467 125.726 78.8467C121.059 78.8467 118.726 82.2067 118.726 86.3127C118.726 90.5127 121.059 93.9657 125.726 93.9657C130.486 93.9657 132.819 90.6067 132.819 86.3127ZM107.713 86.3127C107.713 77.0727 114.619 69.2327 125.726 69.2327C136.926 69.2327 143.832 77.0727 143.832 86.3127C143.832 95.7397 136.926 103.487 125.726 103.487C114.619 103.487 107.713 95.7397 107.713 86.3127Z" fill="black"/>
<path d="M90.3511 127.195H86.8971C85.6841 127.195 84.5641 127.662 84.5641 128.968C84.5641 130.275 85.6841 130.835 86.8971 130.835C88.3911 130.835 89.5111 130.182 90.3511 129.341V127.195ZM92.7771 132.608L90.5381 131.488C89.8841 131.862 88.5781 132.702 86.6181 132.702C84.0041 132.702 82.1381 131.488 82.1381 128.968C82.1381 127.008 83.5381 125.235 86.8041 125.235H90.3511V124.582C90.3511 123.275 89.8841 121.968 87.5511 121.968C85.7781 121.968 84.1911 122.622 82.9771 123.275V120.756C84.0981 120.289 85.9641 119.822 87.6441 119.822C91.3771 119.822 92.7771 121.876 92.7771 124.675V132.608ZM138.607 124.581V124.488C138.607 122.901 137.487 121.875 135.807 121.875C133.94 121.875 132.634 123.088 132.354 124.581H138.607ZM141.219 126.541H132.26C132.354 129.061 134.034 130.647 136.367 130.647C137.954 130.647 139.633 130.274 140.753 129.621V131.861C139.82 132.421 137.953 132.701 136.46 132.701C132.446 132.701 129.833 130.461 129.833 126.354C129.833 122.715 132.074 119.821 135.807 119.821C138.607 119.821 141.219 121.408 141.219 125.701V126.541ZM118.072 120.288V127.94C118.072 129.9 118.819 130.741 120.779 130.741C122.272 130.741 123.205 130.181 124.138 129.434V120.288H126.565V134.194C126.565 137.088 124.605 139.141 120.405 139.141C119.005 139.141 117.138 138.954 115.925 138.394V135.874C117.138 136.527 118.819 137.088 120.498 137.088C123.205 137.088 124.138 135.687 124.138 134.194V131.581C122.925 132.421 121.618 132.701 120.405 132.701C117.232 132.701 115.739 130.928 115.739 128.314V120.288H118.072ZM111.165 120.288H113.312L110.325 132.421H107.432L104.191 122.851L101.179 132.421H98.099L95.112 120.288H97.445L99.72 130.35L103.045 120.288H105.472L108.8 130.537L111.165 120.288ZM68.79 113.754H71.217V130.181H79.99L79.43 132.421H68.79V113.754ZM152.7 122.902C152.7 122.902 151.487 122.155 150.18 122.155C148.22 122.155 147.286 123.181 147.286 123.181V132.422H144.86V120.101L147.193 121.129C148.033 120.475 148.78 119.822 150.554 119.822C151.393 119.822 152.233 120.101 152.7 120.381V122.902ZM154.567 131.955V129.715C156.154 130.555 157.367 130.835 158.487 130.835C159.981 130.835 160.727 130.368 160.727 129.248C160.727 128.501 160.354 127.941 159.234 127.475L157.18 126.635C155.501 125.981 154.661 124.861 154.661 123.368C154.661 121.128 156.247 119.821 158.954 119.821C160.074 119.821 161.754 120.195 162.594 120.568V122.901C161.194 122.155 159.981 121.781 158.954 121.781C157.74 121.781 156.994 122.342 156.994 123.274C156.994 123.835 157.367 124.394 158.3 124.768L160.26 125.608C161.941 126.354 163.154 127.194 163.154 129.061C163.154 131.302 161.287 132.701 158.394 132.701C156.62 132.701 155.314 132.421 154.567 131.955Z" fill="#00B5E5"/>
</svg>
