<?xml version="1.0" encoding="utf-8"?>
<!-- Generator: Adobe Illustrator 19.2.0, SVG Export Plug-In . SVG Version: 6.00 Build 0)  -->
<!DOCTYPE svg PUBLIC "-//W3C//DTD SVG 1.1//EN" "http://www.w3.org/Graphics/SVG/1.1/DTD/svg11.dtd">
<svg version="1.1" id="Layer_1" xmlns="http://www.w3.org/2000/svg" xmlns:xlink="http://www.w3.org/1999/xlink" x="0px" y="0px"
	 viewBox="0 0 184 42" style="enable-background:new 0 0 184 42;" xml:space="preserve">
<style type="text/css">
	.st0{fill:#0098DA;}
</style>
<g>
	<path class="st0" d="M177.6,0c-3.5,0-6.4,2.9-6.4,6.6c0,6.4-2.4,7.8-11.6,8H144v26.6h25.9V26.5c0-10.6,1.7-13.4,7.7-13.4
		c3.5,0,6.4-2.9,6.4-6.5C184,2.9,181.2,0,177.6,0z"/>
	<path d="M7.6,28.9c0,4.9,3.7,6.8,7.9,6.8c2.8,0,7-0.8,7-4.6c0-4-5.4-4.6-10.6-6.1C6.6,23.6,1.2,21.5,1.2,14.6
		c0-7.5,6.9-11.1,13.4-11.1c7.5,0,14.3,3.3,14.3,11.8h-7.6C21,10.9,18,9.8,14.2,9.8c-2.5,0-5.4,1.1-5.4,4.2c0,2.8,1.7,3.2,10.7,5.6
		c2.6,0.7,10.6,2.4,10.6,10.7C30.1,37,24.9,42,15.2,42C7.3,42-0.1,38,0,28.9H7.6z"/>
	<path d="M38.8,29.6c0.2,4.6,2.4,6.7,6.4,6.7c2.9,0,5.2-1.8,5.6-3.4h6.3c-2,6.3-6.3,9-12.1,9c-8.2,0-13.2-5.8-13.2-14
		c0-8,5.4-14.1,13.2-14.1c8.8,0,13.1,7.6,12.6,15.8H38.8z M50.4,25c-0.7-3.7-2.2-5.7-5.7-5.7c-4.5,0-5.8,3.6-5.9,5.7H50.4z"/>
	<path d="M60.3,14.5H67v3.7h0.2c1.8-3,4.9-4.4,7.9-4.4c7.6,0,9.5,4.4,9.5,11v16.4h-7.1v-15c0-4.4-1.3-6.5-4.6-6.5
		c-3.9,0-5.5,2.2-5.5,7.6v13.9h-7.1V14.5z"/>
	<path d="M94,29.6c0.2,4.6,2.4,6.7,6.4,6.7c2.9,0,5.2-1.8,5.6-3.4h6.3c-2,6.3-6.3,9-12.1,9c-8.2,0-13.2-5.8-13.2-14
		c0-8,5.4-14.1,13.2-14.1c8.8,0,13.1,7.6,12.6,15.8H94z M105.6,25c-0.6-3.7-2.2-5.7-5.7-5.7c-4.5,0-5.8,3.6-5.9,5.7H105.6z"/>
	<path d="M120.5,27.1L112,14.5h8.1l4.6,6.9l4.5-6.9h7.9L128.5,27l9.6,14.2H130l-5.4-8.4l-5.4,8.4h-8L120.5,27.1z"/>
</g>
</svg>
