<svg xmlns="http://www.w3.org/2000/svg" viewBox="0 0 132 74"><polygon points="65.798 42.812 71.039 42.812 71.039 60.334 75.622 60.334 75.622 42.812 80.894 42.812 80.894 38.919 65.798 38.919 65.798 42.812" fill="#d9272e"/><polygon points="83.858 60.334 96.468 60.334 96.468 56.441 88.441 56.441 88.441 51.079 96.468 51.079 96.468 47.186 88.441 47.186 88.441 42.783 96.468 42.783 96.468 38.919 83.858 38.919 83.858 60.334" fill="#d9272e"/><path d="M119.9985,57.1611a11.1487,11.1487,0,0,0-.4388-15.4269,11.6093,11.6093,0,0,0-16.2041,0,11.1067,11.1067,0,0,0,.8385,16.5934,11.7288,11.7288,0,0,0,7.2785,2.5759,11.4629,11.4629,0,0,0,2.9791-.3967l5.8958,5.8958v-7.06l-1.2851-1.2851-3.0288-3.0289-.6061-.6061L112.82,51.816,111.6443,50.64l-.0009,6.1815c-.0575.0013-.1126.0086-.1707.0086-4.1035,0-6.7393-3.1749-6.7393-7.1584,0-3.9536,2.7558-7.1885,6.7393-7.1885,3.9237,0,6.7093,3.2349,6.7093,7.1885a7.6258,7.6258,0,0,1-1.3536,4.4339Z" fill="#d9272e"/><polygon points="123.603 62.359 123.608 62.636 131.049 70.076 131.185 69.94 123.603 62.359" fill="#d9272e"/><path d="M35.8314,32.2026H28.5175V15.15a.4846.4846,0,0,0-.4846-.4847H23.5253a.4846.4846,0,0,0-.4846.4847v21.345a.495.495,0,0,0,.495.495H35.8314Z" fill="#262626"/><polygon points="51.318 32.203 43.283 32.203 43.283 28.226 51.318 28.226 51.318 23.438 43.283 23.438 43.283 19.424 51.318 19.424 51.318 15.111 51.318 14.666 37.804 14.666 37.804 36.99 51.318 36.99 51.318 32.203" fill="#262626"/><path d="M66.5107,14.6655H60.65L52.1582,36.99h5.8854l1.499-4.5562H67.216l1.739,4.5562h6.1727Zm-5.3814,13.28,2.3131-7.0419,2.3752,7.0419Z" fill="#262626"/><polygon points="82.349 24.105 82.352 24.108 82.351 24.108 82.349 24.105" fill="#262626"/><polygon points="97.386 35.603 97.389 14.666 92.119 14.666 92.119 15.111 92.119 25.251 81.532 14.666 76.378 14.666 62.231 0.519 62.095 0.655 76.263 14.823 76.263 36.99 81.529 36.99 81.532 21.724 92.119 32.311 92.119 36.99 96.891 36.99 92.12 32.22 92.12 30.528 97.386 35.603" fill="#262626"/><path d="M12.7112,19.1242a5.98,5.98,0,0,1,4.6145,2.1173l3.7026-3.7027a12.0455,12.0455,0,0,0-16.7512.07,11.5626,11.5626,0,0,0,.8714,17.275,12.0047,12.0047,0,0,0,15.8772-.6759l-3.69-3.69a5.9885,5.9885,0,0,1-4.6241,2.0738c-3.8519-.0124-6.2771-2.9236-6.2989-6.7185C6.4267,22.1172,8.9879,19.1292,12.7112,19.1242Z" fill="#262626"/><path d="M36.9815,65.0286a2.7837,2.7837,0,0,0-1.8173-.3787h-.9656l-.89,6.7676h.5772l.4166-3.1614h.6152a3.1161,3.1161,0,0,0,1.9594-.407,1.8118,1.8118,0,0,0,.7-1.5238A1.5874,1.5874,0,0,0,36.9815,65.0286Zm-.71,2.5556a2.7164,2.7164,0,0,1-1.1927.17h-.71L34.71,65.18h.7193a2.0134,2.0134,0,0,1,1.0506.1893,1.0833,1.0833,0,0,1,.502.9844A1.3,1.3,0,0,1,36.2716,67.5842Z" fill="#262626"/><path d="M39.7193,67.1678a2.2914,2.2914,0,0,0-2.3283,2.3757,1.9577,1.9577,0,0,0,2.0918,2.054,2.2781,2.2781,0,0,0,2.3189-2.3947A1.9706,1.9706,0,0,0,39.7193,67.1678Zm-.2271,3.9279a1.4742,1.4742,0,0,1-1.5146-1.5806,1.7241,1.7241,0,0,1,1.7135-1.8457A1.4894,1.4894,0,0,1,41.2053,69.25,1.74,1.74,0,0,1,39.4922,71.0957Z" fill="#262626"/><polygon points="46.221 70.376 45.445 67.016 43.865 70.386 42.985 67.319 42.388 67.319 43.742 71.673 45.256 68.389 46.023 71.673 48.559 67.319 47.944 67.319 46.221 70.376" fill="#262626"/><path d="M50.9246,67.1678A2.2468,2.2468,0,0,0,48.7,69.6286a1.8732,1.8732,0,0,0,2.0064,1.9688,2.01,2.01,0,0,0,1.7417-.89l-.3786-.3691a1.5634,1.5634,0,0,1-1.3533.7761,1.3708,1.3708,0,0,1-1.439-1.5618v-.1042h3.436a3.7023,3.7023,0,0,0,.0282-.4164A1.677,1.677,0,0,0,50.9246,67.1678Zm-1.59,1.8173a1.6068,1.6068,0,0,1,1.647-1.3441c.7667,0,1.2115.4826,1.2115,1.3441Z" fill="#262626"/><path d="M54.5968,68.01l.1041-.6909h-.54l-.54,4.0984h.5588l.2647-2.0824c.1421-1.098.5588-1.6468,1.2969-1.6468a1.59,1.59,0,0,1,.4448.1136l.1323-.5586a1.3024,1.3024,0,0,0-.4824-.0852A1.6046,1.6046,0,0,0,54.5968,68.01Z" fill="#262626"/><circle cx="57.5588" cy="65.8047" r="0.4164" fill="#262626"/><polygon points="56.565 71.418 57.123 71.418 57.663 67.319 57.104 67.319 56.565 71.418" fill="#262626"/><path d="M61.1553,67.1678a1.8527,1.8527,0,0,0-1.524.8139l.0947-.6625h-.54l-.54,4.0984h.5588l.2647-2.0444c.1515-1.1547.6437-1.7227,1.4484-1.7227.6058,0,.937.2745.937.8045a2.6755,2.6755,0,0,1-.0286.3976l-.3407,2.565h.5584l.3407-2.603a3.2831,3.2831,0,0,0,.038-.4542A1.14,1.14,0,0,0,61.1553,67.1678Z" fill="#262626"/><path d="M66.9478,68.1332a1.411,1.411,0,0,0-1.4386-.9654,2.1307,2.1307,0,0,0-2.0448,2.3095,1.8236,1.8236,0,0,0,1.7229,2.0444,1.6024,1.6024,0,0,0,1.42-.7857l-.0666.4732c-.1609,1.1737-.4824,1.7795-1.4668,1.7795a1.0862,1.0862,0,0,1-1.2115-1.07V71.9H63.294a1.6346,1.6346,0,0,0,1.7417,1.5806c1.2871,0,1.8553-.7289,2.0538-2.2053l.5208-3.9565h-.549ZM65.329,71.0579c-.7667,0-1.2871-.5964-1.2871-1.5618,0-1.1168.6625-1.8741,1.5048-1.8741.7479,0,1.2683.6058,1.2683,1.5428C66.8151,70.2818,66.1525,71.0579,65.329,71.0579Z" fill="#262626"/><polygon points="71.282 71.418 71.841 71.418 72.38 67.319 71.821 67.319 71.282 71.418" fill="#262626"/><circle cx="72.2757" cy="65.8047" r="0.4164" fill="#262626"/><path d="M75.8718,67.1678a1.8527,1.8527,0,0,0-1.524.8139l.0947-.6625h-.54l-.54,4.0984h.5588l.2647-2.0444c.1515-1.1547.6437-1.7227,1.4484-1.7227.6058,0,.937.2745.937.8045a2.6755,2.6755,0,0,1-.0286.3976l-.3407,2.565h.5584l.3407-2.603a3.2831,3.2831,0,0,0,.038-.4542A1.14,1.14,0,0,0,75.8718,67.1678Z" fill="#262626"/><path d="M80.7461,67.1678a1.8527,1.8527,0,0,0-1.524.8139l.0947-.6625h-.54l-.5392,4.0984h.5584l.2647-2.0444c.1515-1.1547.6437-1.7227,1.4484-1.7227.6058,0,.937.2745.937.8045a2.6755,2.6755,0,0,1-.0286.3976l-.3407,2.565h.5584l.3407-2.603a3.2825,3.2825,0,0,0,.038-.4542A1.14,1.14,0,0,0,80.7461,67.1678Z" fill="#262626"/><path d="M85.3455,67.1678a2.2914,2.2914,0,0,0-2.3283,2.3757,1.9577,1.9577,0,0,0,2.0918,2.054,2.2781,2.2781,0,0,0,2.3189-2.3947A1.9706,1.9706,0,0,0,85.3455,67.1678Zm-.2271,3.9279a1.4742,1.4742,0,0,1-1.5146-1.5806,1.7241,1.7241,0,0,1,1.7135-1.8457A1.4894,1.4894,0,0,1,86.8315,69.25,1.74,1.74,0,0,1,85.1184,71.0957Z" fill="#262626"/><polygon points="89.566 70.528 88.573 67.319 87.986 67.319 89.415 71.673 92.027 67.319 91.402 67.319 89.566 70.528" fill="#262626"/><path d="M95.8225,68.1426a1.4188,1.4188,0,0,0-1.4386-.9748,2.1543,2.1543,0,0,0-2.0448,2.3473c0,1.2493.7291,2.0824,1.7135,2.0824a1.6068,1.6068,0,0,0,1.4292-.7951l-.0854.6152h.549l.54-4.0984h-.549ZM94.2037,71.124c-.7667,0-1.2871-.5962-1.2871-1.5806,0-1.1358.6625-1.9121,1.5048-1.9121.7479,0,1.2683.6154,1.2683,1.5714C95.69,70.348,95.0272,71.124,94.2037,71.124Z" fill="#262626"/><polygon points="98.841 65.634 98.292 65.634 98.074 67.319 97.383 67.319 97.327 67.802 98.008 67.802 97.535 71.418 98.084 71.418 98.557 67.802 99.39 67.802 99.456 67.319 98.623 67.319 98.841 65.634" fill="#262626"/><circle cx="100.7999" cy="65.8047" r="0.4164" fill="#262626"/><polygon points="99.806 71.418 100.364 71.418 100.904 67.319 100.346 67.319 99.806 71.418" fill="#262626"/><path d="M104.1219,67.1678a2.2914,2.2914,0,0,0-2.3283,2.3757,1.9577,1.9577,0,0,0,2.0918,2.054,2.2781,2.2781,0,0,0,2.3189-2.3947A1.9706,1.9706,0,0,0,104.1219,67.1678Zm-.2271,3.9279a1.4742,1.4742,0,0,1-1.5146-1.5806,1.7241,1.7241,0,0,1,1.7135-1.8457,1.4894,1.4894,0,0,1,1.5142,1.5806A1.74,1.74,0,0,1,103.8948,71.0957Z" fill="#262626"/><path d="M109.564,67.1678a1.8527,1.8527,0,0,0-1.524.8139l.0947-.6625h-.54l-.5392,4.0984h.5584l.2647-2.0444c.1515-1.1547.6437-1.7227,1.4484-1.7227.6058,0,.937.2745.937.8045a2.6778,2.6778,0,0,1-.0286.3976l-.3407,2.565h.5584l.3407-2.603a3.28,3.28,0,0,0,.038-.4542A1.14,1.14,0,0,0,109.564,67.1678Z" fill="#262626"/></svg>