<?xml version="1.0" encoding="iso-8859-1"?>
<!-- Generator: Adobe Illustrator 16.0.0, SVG Export Plug-In . SVG Version: 6.00 Build 0)  -->
<!DOCTYPE svg PUBLIC "-//W3C//DTD SVG 1.1//EN" "http://www.w3.org/Graphics/SVG/1.1/DTD/svg11.dtd">
<svg version="1.1" id="Layer_1" xmlns="http://www.w3.org/2000/svg" xmlns:xlink="http://www.w3.org/1999/xlink" x="0px" y="0px"
	 width="108px" height="160px" viewBox="0 0 108 160" style="enable-background:new 0 0 108 160;" xml:space="preserve">
<g>
	<defs>
		<rect id="SVGID_1_" x="13.486" y="-2.142" width="83.01" height="143"/>
	</defs>
	<clipPath id="SVGID_2_">
		<use xlink:href="#SVGID_1_"  style="overflow:visible;"/>
	</clipPath>
	<rect x="13.486" y="-2.142" style="clip-path:url(#SVGID_2_);fill:#FFFFFF;" width="81.496" height="143.177"/>
</g>
<g>
	<defs>
		<path id="SVGID_3_" d="M92.542,0H15.618v44.452c0.021-0.025,9.597-11.166,12.127-12.357c2.532-1.191,5.705,1.502,9.644,0.706
			c3.938-0.794,3.095-4.372,6.19-6.36c2.279-1.465,7.067-2.245,9.438-2.556c0.349-0.14,0.812-0.172,1.106-0.172
			c1.972,0,6.901,3.125,8.869,5.511c1.972,2.386,16.321,13.722,19.414,16.506c3.096,2.783,10.129,7.156,10.129,7.156"/>
	</defs>
	<clipPath id="SVGID_4_">
		<use xlink:href="#SVGID_3_"  style="overflow:visible;"/>
	</clipPath>
	
		<radialGradient id="SVGID_5_" cx="53.8394" cy="54.209" r="63.9495" gradientTransform="matrix(1 0 0 1.0437 0 -4.885)" gradientUnits="userSpaceOnUse">
		<stop  offset="0" style="stop-color:#0093D6"/>
		<stop  offset="0.2756" style="stop-color:#0071B8"/>
		<stop  offset="0.5605" style="stop-color:#00569F"/>
		<stop  offset="0.8115" style="stop-color:#00458F"/>
		<stop  offset="1" style="stop-color:#003F8A"/>
	</radialGradient>
	<ellipse style="clip-path:url(#SVGID_4_);fill:url(#SVGID_5_);" cx="53.839" cy="51.692" rx="63.95" ry="66.744"/>
</g>
<path style="fill:#A39161;" d="M54.415,23.721c0,0-9.933,5.619-11.68,9.876c-1.581,3.852-1.971,10.144-1.126,12.927
	c0.845,2.784,7.034-0.794,18.289,1.193c11.255,1.989,11.652,5.121,11.781,9.631c0.172,6.002-2.679,26.878-6.435,30.525
	c-4.429,4.3,6.405,21.77,6.405,21.77h-2.825l23.711,0.016V52.886c0,0-7.033-4.373-10.129-7.156
	c-3.093-2.784-17.442-14.12-19.414-16.506c-1.968-2.386-6.619-5.401-8.572-5.511"/>
<path style="fill:#D4C9B2;" d="M65.245,87.873c3.756-3.647,6.606-24.523,6.435-30.525c-0.129-4.51-0.526-7.642-11.781-9.631
	c-11.255-1.987-17.444,1.591-18.289-1.193c-0.845-2.783-0.455-9.075,1.126-12.927c1.747-4.257,11.68-9.876,11.68-9.876
	s-0.332-0.057-1.181,0.054c-2.372,0.312-7.376,1.201-9.655,2.666c-3.096,1.988-2.252,5.566-6.19,6.36
	c-3.938,0.796-7.111-1.897-9.644-0.706c-2.53,1.191-12.105,12.332-12.127,12.357l-0.001,0.001l0.001,65.198l53.207-0.009h2.825
	C71.65,109.643,60.816,92.173,65.245,87.873"/>
<path style="fill:#A39161;" d="M19.424,135.422c0.728,0.012,1.003,0.479,1.003,1.148v1.488h1.516v-1.488
	c0-1.128-0.263-1.712-1.337-1.807v-0.043c1.337-0.201,1.399-1.062,1.399-2.242c0-1.807-0.663-2.35-2.39-2.393h-4.032v7.973h1.516
	v-2.637H19.424 M17.099,134.115v-2.721h2.106c1.083,0,1.283,0.201,1.283,1.328c0,1.17-0.273,1.393-1.389,1.393H17.099z"/>
<polyline style="fill:#A39161;" points="26.228,133.381 29.926,133.381 29.926,134.637 26.228,134.637 26.228,136.75 30.153,136.75 
	30.153,138.059 24.711,138.059 24.711,130.086 30.123,130.086 30.123,131.395 26.228,131.395 26.228,133.381 "/>
<path style="fill:#A39161;" d="M34.081,135.518v0.373c0,0.914,0.39,0.977,1.791,0.977c1.38,0,1.568-0.254,1.568-1.18
	c0-1.137-0.601-0.988-1.779-1.051c-1.706-0.107-3.052-0.043-3.052-2.361c0-2.189,1.367-2.252,3.263-2.252
	c1.611,0,2.927,0.053,2.927,2.146v0.256h-1.517v-0.256c0-0.861-0.346-0.894-1.41-0.894c-1.506,0-1.747,0.149-1.747,0.999
	c0,0.979,0.2,1.01,1.737,1.105c2.432,0.15,3.096,0.277,3.096,2.307c0,2.244-1.054,2.436-3.086,2.436
	c-1.747,0-3.306,0.053-3.306-2.232v-0.373H34.081"/>
<path style="fill:#A39161;" d="M44.635,130.023c-2.508,0-3.341,0.436-3.341,2.912v2.146c0,2.615,0.897,3.041,3.341,3.041
	c2.388,0,3.368-0.49,3.368-3.041v-2.146C48.003,130.373,46.908,130.023,44.635,130.023 M44.635,131.33
	c1.346,0,1.883,0.105,1.852,1.605v2.146c0,1.541-0.474,1.732-1.852,1.732c-1.52,0-1.823-0.148-1.823-1.732v-2.146
	C42.844,131.67,43.001,131.33,44.635,131.33z"/>
<path style="fill:#A39161;" d="M57.247,130.086v5.666c0,2.221-1.379,2.371-3.297,2.371c-1.853,0-3.272-0.139-3.272-2.371v-5.666
	h1.516v5.666c0,0.818,0.294,1.062,1.757,1.062c1.401,0,1.782-0.201,1.782-1.062v-5.666H57.247"/>
<path style="fill:#A39161;" d="M63.995,135.422c0.728,0.012,1.002,0.479,1.002,1.148v1.488h1.517v-1.488
	c0-1.128-0.265-1.712-1.338-1.807v-0.043c1.338-0.201,1.399-1.062,1.399-2.242c0-1.807-0.664-2.35-2.388-2.393h-4.034v7.973h1.516
	v-2.637H63.995 M61.669,134.115v-2.721h2.106c1.084,0,1.285,0.201,1.285,1.328c0,1.17-0.274,1.393-1.392,1.393H61.669z"/>
<path style="fill:#A39161;" d="M74.073,132.754v-0.437c0-0.923-0.358-0.987-1.685-0.987c-1.526,0-1.789,0.256-1.789,1.818v1.764
	c0.01,1.594,0.199,1.902,1.789,1.902c1.221,0,1.767-0.043,1.767-1.18v-0.436h1.521v0.521c0.03,2.402-1.328,2.316-3.287,2.402
	c-2.777,0.105-3.274-0.82-3.308-3.146v-1.828c0-2.553,0.981-3.125,3.308-3.125c1.969,0,3.096,0.01,3.201,2.294v0.437H74.073"/>
<polyline style="fill:#A39161;" points="79.706,133.381 83.403,133.381 83.403,134.637 79.706,134.637 79.706,136.75 83.633,136.75 
	83.633,138.059 78.191,138.059 78.191,130.086 83.604,130.086 83.604,131.395 79.706,131.395 79.706,133.381 "/>
<path style="fill:#A39161;" d="M87.561,135.518v0.373c0,0.914,0.39,0.977,1.791,0.977c1.379,0,1.567-0.254,1.567-1.18
	c0-1.137-0.6-0.988-1.778-1.051c-1.707-0.107-3.054-0.043-3.054-2.361c0-2.189,1.369-2.252,3.265-2.252
	c1.61,0,2.927,0.053,2.927,2.146v0.256h-1.515v-0.256c0-0.861-0.349-0.894-1.412-0.894c-1.506,0-1.746,0.149-1.746,0.999
	c0,0.979,0.199,1.01,1.736,1.105c2.432,0.15,3.096,0.277,3.096,2.307c0,2.244-1.053,2.436-3.086,2.436
	c-1.746,0-3.306,0.053-3.306-2.232v-0.373H87.561"/>
<polyline style="fill:#FFFFFF;" points="30.11,105.572 30.164,105.572 31.674,94.633 36.258,94.633 32.826,110.23 27.394,110.23 
	25.91,99.25 25.854,99.25 24.264,110.23 18.912,110.23 15.453,94.633 20.119,94.633 21.574,105.592 21.629,105.551 23.577,94.633 
	28.243,94.633 30.11,105.572 "/>
<polyline style="fill:#FFFFFF;" points="43.215,110.23 43.215,94.633 54.171,94.633 54.171,97.752 47.999,97.752 47.999,100.623 
	53.982,100.623 53.982,103.742 47.999,103.742 47.999,107.111 54.497,107.111 54.497,110.23 43.215,110.23 "/>
<path style="fill:#FFFFFF;" d="M65.861,105.01v1.102c0,0.895,0.379,1.686,1.902,1.686c1.112,0,1.603-0.771,1.603-1.561
	c0-1.309-1.414-1.809-2.664-2.391c-1.466-0.645-2.718-1.248-3.615-2.039c-0.868-0.789-1.387-1.746-1.387-3.119
	c0-2.933,2.312-4.429,6.008-4.429c4.158,0,6.28,2.12,6.062,5.054h-4.403c-0.054-0.916,0-2.163-1.576-2.247
	c-0.978-0.062-1.55,0.354-1.657,1.04c-0.138,0.936,0.487,1.414,1.439,1.914c1.794,0.873,3.343,1.414,4.458,2.203
	c1.114,0.791,1.766,1.83,1.766,3.723c0,2.996-2.174,4.658-6.143,4.658c-4.376,0-6.224-1.871-6.224-3.93v-1.664H65.861"/>
<polyline style="fill:#FFFFFF;" points="80.62,94.633 93.016,94.633 93.016,97.752 89.155,97.752 89.155,110.23 84.37,110.23 
	84.37,97.752 80.62,97.752 80.62,94.633 "/>
<g>
	<path style="fill:#00519E;" d="M19.607,127.254l0.459-2.891h3.023l0.549,2.891h3.9l-3.57-14.848h-4.647l-3.592,14.848H19.607
		 M22.719,121.75h-2.235l1.118-6.652h0.043L22.719,121.75z"/>
	<polyline style="fill:#00519E;" points="28.788,127.254 28.788,112.406 37.858,112.406 37.858,115.375 32.645,115.375 
		32.645,118.008 37.441,118.008 37.441,120.979 32.645,120.979 32.645,127.254 28.788,127.254 	"/>
	<path style="fill:#00519E;" d="M43.446,121.395h1.272c0.896,0.059,1.203,0.652,1.312,1.562c0.11,0.91,0.023,2.139,0.087,3.444
		c0.023,0.298,0.111,0.575,0.221,0.853h4.206v-0.199c-0.174-0.139-0.284-0.316-0.373-0.514c-0.219-0.951-0.239-3.504-0.352-4.691
		c-0.066-1.029-0.831-1.703-1.905-1.922v-0.039c1.622-0.672,2.038-1.801,2.038-3.385c0-2.949-1.577-4.098-4.73-4.098h-5.633v14.848
		h3.857V121.395 M43.446,115.078c1.883-0.039,2.694,0.039,2.694,1.801c0,0.912-0.262,1.842-1.381,1.842h-1.313V115.078z"/>
	<rect x="51.971" y="112.406" style="fill:#00519E;" width="3.854" height="14.848"/>
	<path style="fill:#00519E;" d="M64.37,117.592v-0.949c0-1.268-0.504-1.92-1.228-1.92c-1.205-0.02-1.489,0.574-1.489,1.543
		l-0.023,7.346c0,0.83,0.373,1.326,1.382,1.326c1.313,0,1.426-1.229,1.426-2.139v-1.346h3.854v1.82c0,2.555-1.621,4.335-5.565,4.335
		c-3.551,0-4.931-1.702-4.931-4.729v-6.098c0-3.227,1.644-4.732,5.171-4.732c3.286,0,5.26,1.268,5.26,4.297v1.246H64.37"/>
	<path style="fill:#00519E;" d="M73.198,127.254l0.461-2.891h3.024l0.547,2.891h3.899l-3.569-14.848h-4.646l-3.593,14.848H73.198
		 M76.311,121.75h-2.233l1.116-6.652h0.043L76.311,121.75z"/>
	<polyline style="fill:#00519E;" points="85.602,118.939 85.559,118.979 85.907,127.254 82.249,127.254 82.249,112.406 
		86.215,112.406 89.194,120.701 89.26,120.701 88.887,112.406 92.546,112.406 92.546,127.254 88.604,127.254 85.602,118.939 	"/>
</g>
</svg>
