<svg xmlns="http://www.w3.org/2000/svg" width="202" height="175" viewBox="0 0 202 175" xmlns:xlink="http://www.w3.org/1999/xlink">
  <defs>
    <polygon id="a" points="0 .539 18.224 94.928 38.318 106.144 54.671 62.221 71.025 125.303 90.185 135.116 109.342 60.352 91.12 51.005 79.437 93.528 63.549 35.118 44.861 25.305 29.44 65.493 18.224 9.885 .002 .539"/>
    <linearGradient id="b" x1=".049%" x2="100.05%" y1="49.988%" y2="49.988%">
      <stop stop-color="#D78031" offset="0%"/>
      <stop stop-color="#DE922E" offset="10.69%"/>
      <stop stop-color="#EBB226" offset="30.96%"/>
      <stop stop-color="#F5CC18" offset="50.56%"/>
      <stop stop-color="#FEDF00" offset="69.06%"/>
      <stop stop-color="#FFEB00" offset="86.02%"/>
      <stop stop-color="#FFF200" offset="100%"/>
    </linearGradient>
    <polygon id="d" points="18.449 20.939 .224 28.885 11.44 84.493 26.861 44.305 72.65 22.811 24.055 .382"/>
    <linearGradient id="e" x1=".036%" x2="100.035%" y1="49.992%" y2="49.992%">
      <stop stop-color="#BE6923" offset="0%"/>
      <stop stop-color="#C27023" offset="4.6%"/>
      <stop stop-color="#D59121" offset="26.26%"/>
      <stop stop-color="#E5AE1B" offset="47.19%"/>
      <stop stop-color="#F3C410" offset="66.96%"/>
      <stop stop-color="#FED400" offset="85.07%"/>
      <stop stop-color="#FFDA00" offset="100%"/>
    </linearGradient>
    <polygon id="g" points=".318 44.144 24.789 31.528 16.671 .221"/>
    <linearGradient id="h" x1="100.066%" x2=".071%" y1="50.037%" y2="50.037%">
      <stop stop-color="#6C3E07" offset="0%"/>
      <stop stop-color="#844E10" offset="12.24%"/>
      <stop stop-color="#A96719" offset="32.16%"/>
      <stop stop-color="#C87B1D" offset="51.42%"/>
      <stop stop-color="#E08A1E" offset="69.6%"/>
      <stop stop-color="#F0941D" offset="86.27%"/>
      <stop stop-color="#F8991D" offset="100%"/>
    </linearGradient>
    <polygon id="j" points=".471 31.528 25.704 45.077 25.704 45.075 9.35 .689"/>
    <linearGradient id="k" x1=".089%" x2="100.092%" y1="50.023%" y2="50.023%">
      <stop stop-color="#6C3E07" offset="0%"/>
      <stop stop-color="#844D10" offset="12.24%"/>
      <stop stop-color="#A96419" offset="32.16%"/>
      <stop stop-color="#C8761D" offset="51.42%"/>
      <stop stop-color="#DF831F" offset="69.6%"/>
      <stop stop-color="#EF8C1E" offset="86.27%"/>
      <stop stop-color="#F7901E" offset="100%"/>
    </linearGradient>
    <polygon id="m" points=".84 23.811 46.162 44.837 61.118 85.023 71.398 29.885 53.172 21.939 48.5 .915"/>
    <linearGradient id="n" x1=".01%" x2="100.011%" y1="50.034%" y2="50.034%">
      <stop stop-color="#BE6923" offset="0%"/>
      <stop stop-color="#BF6A23" offset="1.22%"/>
      <stop stop-color="#D28B21" offset="23.65%"/>
      <stop stop-color="#E3A81C" offset="45.33%"/>
      <stop stop-color="#F1BE13" offset="65.79%"/>
      <stop stop-color="#FDCE03" offset="84.54%"/>
      <stop stop-color="#FFD400" offset="100%"/>
    </linearGradient>
    <polygon id="p" points=".549 22.118 16.437 80.528 28.12 38.005 47.276 27.91 47.276 .622"/>
    <linearGradient id="q" x1="50.054%" x2="50.054%" y1="99.989%" y2="-.013%">
      <stop stop-color="#BE6923" offset="0%"/>
      <stop stop-color="#C67523" offset="10.22%"/>
      <stop stop-color="#DB9120" offset="35.58%"/>
      <stop stop-color="#EBA71C" offset="59.68%"/>
      <stop stop-color="#F8B815" offset="81.78%"/>
      <stop stop-color="#FEBE10" offset="100%"/>
    </linearGradient>
    <polygon id="s" points=".276 27.91 2.149 26.793 19.903 35.668 30.651 79.593 46.071 21.65 .276 .622"/>
    <linearGradient id="t" x1="-.037%" x2="99.961%" y1="50.015%" y2="50.015%">
      <stop stop-color="#BE6923" offset="0%"/>
      <stop stop-color="#C57723" offset="8.65%"/>
      <stop stop-color="#D89820" offset="29.38%"/>
      <stop stop-color="#E7B518" offset="49.43%"/>
      <stop stop-color="#F5CB09" offset="68.36%"/>
      <stop stop-color="#FFDB00" offset="85.7%"/>
      <stop stop-color="#FFE100" offset="100%"/>
    </linearGradient>
    <polygon id="v" points=".342 64.836 20.903 75.116 .342 .352"/>
    <linearGradient id="w" x1="-.04%" x2="99.962%" y1="49.984%" y2="49.984%">
      <stop stop-color="#BE6923" offset="0%"/>
      <stop stop-color="#C67523" offset="10.22%"/>
      <stop stop-color="#DB9120" offset="35.58%"/>
      <stop stop-color="#EBA71C" offset="59.68%"/>
      <stop stop-color="#F8B815" offset="81.78%"/>
      <stop stop-color="#FEBE10" offset="100%"/>
    </linearGradient>
    <polygon id="y" points=".185 75.116 19.342 64.836 19.342 .352"/>
    <linearGradient id="z" x1="50.339%" x2="50.339%" y1="99.957%" y2="-.044%">
      <stop stop-color="#BE6923" offset="0%"/>
      <stop stop-color="#C67523" offset="10.22%"/>
      <stop stop-color="#DB9120" offset="35.58%"/>
      <stop stop-color="#EBA71C" offset="59.68%"/>
      <stop stop-color="#F8B815" offset="81.78%"/>
      <stop stop-color="#FEBE10" offset="100%"/>
    </linearGradient>
    <polygon id="B" points="1.276 9.631 .812 33.465 29.317 20.382 23.238 .756"/>
    <linearGradient id="C" x1="99.935%" x2="-.067%" y1="49.985%" y2="49.985%">
      <stop stop-color="#BE6923" offset="0%"/>
      <stop stop-color="#C16E23" offset="3.51%"/>
      <stop stop-color="#D48F21" offset="25.42%"/>
      <stop stop-color="#E5AC1B" offset="46.59%"/>
      <stop stop-color="#F2C211" offset="66.58%"/>
      <stop stop-color="#FED200" offset="84.9%"/>
      <stop stop-color="#FFD800" offset="100%"/>
    </linearGradient>
    <polygon id="E" points=".174 20.846 26.812 33.465 27.276 9.631 5.782 .756"/>
    <linearGradient id="F" x1="49.972%" x2="49.972%" y1="100.048%" y2=".048%">
      <stop stop-color="#BE6923" offset="0%"/>
      <stop stop-color="#C67523" offset="10.22%"/>
      <stop stop-color="#DB9120" offset="35.58%"/>
      <stop stop-color="#EBA71C" offset="59.68%"/>
      <stop stop-color="#F8B815" offset="81.78%"/>
      <stop stop-color="#FEBE10" offset="100%"/>
    </linearGradient>
  </defs>
  <g fill="none" fill-rule="evenodd">
    <g transform="translate(0 39)">
      <mask id="c" fill="white">
        <use xlink:href="#a"/>
      </mask>
      <rect width="109.342" height="134.577" y=".539" fill="url(#b)" fill-rule="nonzero" mask="url(#c)"/>
    </g>
    <g transform="translate(18 20)">
      <mask id="f" fill="white">
        <use xlink:href="#d"/>
      </mask>
      <rect width="72.426" height="84.111" x=".224" y=".382" fill="url(#e)" fill-rule="nonzero" mask="url(#f)"/>
    </g>
    <polygon fill="#C9CACC" fill-rule="nonzero" points="110.278 52.624 63.551 74.118 79.438 132.528 91.116 90.005 112.145 78.792 129.902 87.671 140.651 131.594 156.07 73.651"/>
    <g transform="translate(38 101)">
      <mask id="i" fill="white">
        <use xlink:href="#g"/>
      </mask>
      <rect width="24.471" height="43.923" x=".318" y=".221" fill="url(#h)" fill-rule="nonzero" mask="url(#i)"/>
    </g>
    <polygon fill="#C9CACC" fill-rule="nonzero" points="90.186 174.116 109.344 163.835 129.903 174.116 109.344 99.354"/>
    <g transform="translate(157 101)">
      <mask id="l" fill="white">
        <use xlink:href="#j"/>
      </mask>
      <rect width="25.233" height="44.388" x=".471" y=".689" fill="url(#k)" fill-rule="nonzero" mask="url(#l)"/>
    </g>
    <g transform="translate(130 19)">
      <mask id="o" fill="white">
        <use xlink:href="#m"/>
      </mask>
      <rect width="70.558" height="84.108" x=".84" y=".915" fill="url(#n)" fill-rule="nonzero" mask="url(#o)"/>
    </g>
    <polygon fill="#C9CACC" fill-rule="nonzero" points="132.238 .755 110.276 9.631 88.783 .755 83.174 20.847 109.812 33.462 138.316 20.379"/>
    <g transform="translate(63 52)">
      <mask id="r" fill="white">
        <use xlink:href="#p"/>
      </mask>
      <rect width="46.727" height="79.906" x=".549" y=".622" fill="url(#q)" fill-rule="nonzero" mask="url(#r)"/>
    </g>
    <g transform="translate(110 52)">
      <mask id="u" fill="white">
        <use xlink:href="#s"/>
      </mask>
      <rect width="45.795" height="78.971" x=".276" y=".622" fill="url(#t)" fill-rule="nonzero" mask="url(#u)"/>
    </g>
    <g transform="translate(109 99)">
      <mask id="x" fill="white">
        <use xlink:href="#v"/>
      </mask>
      <rect width="20.561" height="74.765" x=".342" y=".352" fill="url(#w)" fill-rule="nonzero" mask="url(#x)"/>
    </g>
    <g transform="translate(90 99)">
      <mask id="A" fill="white">
        <use xlink:href="#y"/>
      </mask>
      <rect width="19.157" height="74.765" x=".185" y=".352" fill="url(#z)" fill-rule="nonzero" mask="url(#A)"/>
    </g>
    <g transform="translate(109)">
      <mask id="D" fill="white">
        <use xlink:href="#B"/>
      </mask>
      <rect width="28.505" height="32.709" x=".812" y=".756" fill="url(#C)" fill-rule="nonzero" mask="url(#D)"/>
    </g>
    <g transform="translate(83)">
      <mask id="G" fill="white">
        <use xlink:href="#E"/>
      </mask>
      <rect width="27.102" height="32.709" x=".174" y=".756" fill="url(#F)" fill-rule="nonzero" mask="url(#G)"/>
    </g>
  </g>
</svg>
