<svg xmlns="http://www.w3.org/2000/svg" width="505" height="175" viewBox="0 0 505 175" xmlns:xlink="http://www.w3.org/1999/xlink">
  <defs>
    <polygon id="a" points="0 .539 18.224 94.928 38.318 106.144 54.671 62.221 71.025 125.303 90.185 135.116 109.342 60.352 91.12 51.005 79.437 93.528 63.549 35.118 44.861 25.305 29.44 65.493 18.224 9.885 .002 .539"/>
    <linearGradient id="b" x1=".049%" x2="100.05%" y1="49.988%" y2="49.988%">
      <stop stop-color="#D78031" offset="0%"/>
      <stop stop-color="#DE922E" offset="10.69%"/>
      <stop stop-color="#EBB226" offset="30.96%"/>
      <stop stop-color="#F5CC18" offset="50.56%"/>
      <stop stop-color="#FEDF00" offset="69.06%"/>
      <stop stop-color="#FFEB00" offset="86.02%"/>
      <stop stop-color="#FFF200" offset="100%"/>
    </linearGradient>
    <polygon id="d" points="18.449 20.939 .224 28.885 11.44 84.493 26.861 44.305 72.65 22.811 24.055 .382"/>
    <linearGradient id="e" x1=".036%" x2="100.035%" y1="49.992%" y2="49.992%">
      <stop stop-color="#BE6923" offset="0%"/>
      <stop stop-color="#C27023" offset="4.6%"/>
      <stop stop-color="#D59121" offset="26.26%"/>
      <stop stop-color="#E5AE1B" offset="47.19%"/>
      <stop stop-color="#F3C410" offset="66.96%"/>
      <stop stop-color="#FED400" offset="85.07%"/>
      <stop stop-color="#FFDA00" offset="100%"/>
    </linearGradient>
    <polygon id="g" points=".318 44.144 24.789 31.528 16.671 .221"/>
    <linearGradient id="h" x1="100.066%" x2=".071%" y1="50.037%" y2="50.037%">
      <stop stop-color="#6C3E07" offset="0%"/>
      <stop stop-color="#844E10" offset="12.24%"/>
      <stop stop-color="#A96719" offset="32.16%"/>
      <stop stop-color="#C87B1D" offset="51.42%"/>
      <stop stop-color="#E08A1E" offset="69.6%"/>
      <stop stop-color="#F0941D" offset="86.27%"/>
      <stop stop-color="#F8991D" offset="100%"/>
    </linearGradient>
    <polygon id="j" points=".471 31.528 25.704 45.077 25.704 45.075 9.35 .689"/>
    <linearGradient id="k" x1=".089%" x2="100.092%" y1="50.023%" y2="50.023%">
      <stop stop-color="#6C3E07" offset="0%"/>
      <stop stop-color="#844D10" offset="12.24%"/>
      <stop stop-color="#A96419" offset="32.16%"/>
      <stop stop-color="#C8761D" offset="51.42%"/>
      <stop stop-color="#DF831F" offset="69.6%"/>
      <stop stop-color="#EF8C1E" offset="86.27%"/>
      <stop stop-color="#F7901E" offset="100%"/>
    </linearGradient>
    <polygon id="m" points=".84 23.811 46.162 44.837 61.118 85.023 71.398 29.885 53.172 21.939 48.5 .915"/>
    <linearGradient id="n" x1=".01%" x2="100.011%" y1="50.034%" y2="50.034%">
      <stop stop-color="#BE6923" offset="0%"/>
      <stop stop-color="#BF6A23" offset="1.22%"/>
      <stop stop-color="#D28B21" offset="23.65%"/>
      <stop stop-color="#E3A81C" offset="45.33%"/>
      <stop stop-color="#F1BE13" offset="65.79%"/>
      <stop stop-color="#FDCE03" offset="84.54%"/>
      <stop stop-color="#FFD400" offset="100%"/>
    </linearGradient>
    <polygon id="p" points=".549 22.118 16.437 80.528 28.12 38.005 47.276 27.91 47.276 .622"/>
    <linearGradient id="q" x1="50.054%" x2="50.054%" y1="99.989%" y2="-.013%">
      <stop stop-color="#BE6923" offset="0%"/>
      <stop stop-color="#C67523" offset="10.22%"/>
      <stop stop-color="#DB9120" offset="35.58%"/>
      <stop stop-color="#EBA71C" offset="59.68%"/>
      <stop stop-color="#F8B815" offset="81.78%"/>
      <stop stop-color="#FEBE10" offset="100%"/>
    </linearGradient>
    <polygon id="s" points=".276 27.91 2.149 26.793 19.903 35.668 30.651 79.593 46.071 21.65 .276 .622"/>
    <linearGradient id="t" x1="-.037%" x2="99.961%" y1="50.015%" y2="50.015%">
      <stop stop-color="#BE6923" offset="0%"/>
      <stop stop-color="#C57723" offset="8.65%"/>
      <stop stop-color="#D89820" offset="29.38%"/>
      <stop stop-color="#E7B518" offset="49.43%"/>
      <stop stop-color="#F5CB09" offset="68.36%"/>
      <stop stop-color="#FFDB00" offset="85.7%"/>
      <stop stop-color="#FFE100" offset="100%"/>
    </linearGradient>
    <polygon id="v" points=".342 64.836 20.903 75.116 .342 .352"/>
    <linearGradient id="w" x1="-.04%" x2="99.962%" y1="49.984%" y2="49.984%">
      <stop stop-color="#BE6923" offset="0%"/>
      <stop stop-color="#C67523" offset="10.22%"/>
      <stop stop-color="#DB9120" offset="35.58%"/>
      <stop stop-color="#EBA71C" offset="59.68%"/>
      <stop stop-color="#F8B815" offset="81.78%"/>
      <stop stop-color="#FEBE10" offset="100%"/>
    </linearGradient>
    <polygon id="y" points=".185 75.116 19.342 64.836 19.342 .352"/>
    <linearGradient id="z" x1="50.339%" x2="50.339%" y1="99.957%" y2="-.044%">
      <stop stop-color="#BE6923" offset="0%"/>
      <stop stop-color="#C67523" offset="10.22%"/>
      <stop stop-color="#DB9120" offset="35.58%"/>
      <stop stop-color="#EBA71C" offset="59.68%"/>
      <stop stop-color="#F8B815" offset="81.78%"/>
      <stop stop-color="#FEBE10" offset="100%"/>
    </linearGradient>
    <polygon id="B" points="1.276 9.631 .812 33.465 29.317 20.382 23.238 .756"/>
    <linearGradient id="C" x1="99.935%" x2="-.067%" y1="49.985%" y2="49.985%">
      <stop stop-color="#BE6923" offset="0%"/>
      <stop stop-color="#C16E23" offset="3.51%"/>
      <stop stop-color="#D48F21" offset="25.42%"/>
      <stop stop-color="#E5AC1B" offset="46.59%"/>
      <stop stop-color="#F2C211" offset="66.58%"/>
      <stop stop-color="#FED200" offset="84.9%"/>
      <stop stop-color="#FFD800" offset="100%"/>
    </linearGradient>
    <polygon id="E" points=".174 20.846 26.812 33.465 27.276 9.631 5.782 .756"/>
    <linearGradient id="F" x1="49.972%" x2="49.972%" y1="100.048%" y2=".048%">
      <stop stop-color="#BE6923" offset="0%"/>
      <stop stop-color="#C67523" offset="10.22%"/>
      <stop stop-color="#DB9120" offset="35.58%"/>
      <stop stop-color="#EBA71C" offset="59.68%"/>
      <stop stop-color="#F8B815" offset="81.78%"/>
      <stop stop-color="#FEBE10" offset="100%"/>
    </linearGradient>
  </defs>
  <g fill="none" fill-rule="evenodd">
    <polygon fill="#FFFFFF" fill-rule="nonzero" points="259.104 91.006 253.531 91.006 247.233 70.241 240.942 91.006 235.369 91.006 226.237 56.793 233.202 56.793 238.492 78.366 244.738 56.793 249.729 56.793 255.98 78.366 261.315 56.793 268.287 56.793"/>
    <path fill="#FFFFFF" fill-rule="nonzero" d="M320.636,91.295 C315.443,91.295 311.504,90.192 308.143,86.78 L312.471,82.457 C314.633,84.618 317.565,85.337 320.733,85.337 C324.671,85.337 326.787,83.843 326.787,81.11 C326.787,79.906 326.453,78.904 325.728,78.231 C325.055,77.603 324.291,77.263 322.702,77.02 L318.572,76.454 C315.634,76.019 313.473,75.108 311.934,73.614 C310.304,71.979 309.485,69.766 309.485,66.886 C309.485,60.782 314.006,56.504 321.412,56.504 C326.114,56.504 329.532,57.658 332.456,60.493 L328.229,64.68 C326.069,62.609 323.471,62.32 321.213,62.32 C317.655,62.32 315.928,64.29 315.928,66.649 C315.928,67.509 316.217,68.425 316.936,69.099 C317.61,69.721 318.712,70.247 320.111,70.44 L324.144,71.017 C327.267,71.453 329.237,72.313 330.679,73.659 C332.506,75.396 333.322,77.885 333.322,80.918 C333.321,87.549 327.799,91.295 320.636,91.295"/>
    <polygon fill="#FFFFFF" fill-rule="nonzero" points="357.486 62.75 357.486 91.006 350.805 91.006 350.805 62.75 341.87 62.75 341.87 56.792 366.422 56.792 366.422 62.75"/>
    <path fill="#FFFFFF" fill-rule="nonzero" d="M396.776 87.408C394.039 90.243 390.773 91.301 387.119 91.301 383.367 91.301 380.296 89.954 377.89 87.55 374.427 84.093 374.529 79.815 374.529 73.903 374.529 67.99 374.427 63.718 377.89 60.256 380.295 57.857 383.276 56.51 387.119 56.51 395.046 56.51 399.086 61.704 400.003 67.47L393.269 67.47C392.5 64.244 390.531 62.468 387.12 62.468 385.299 62.468 383.804 63.186 382.848 64.289 381.547 65.732 381.208 67.317 381.208 73.903 381.208 80.483 381.547 82.124 382.848 83.56 383.804 84.664 385.299 85.337 387.12 85.337 389.134 85.337 390.774 84.624 391.879 83.413 392.982 82.175 393.418 80.63 393.418 78.853L393.418 77.557 387.12 77.557 387.12 71.979 400.043 71.979 400.043 76.981C400.042 81.931 399.176 84.908 396.776 87.408M432.323 87.544C429.929 89.954 426.993 91.295 423.095 91.295 419.213 91.295 416.227 89.954 413.826 87.544 410.364 84.092 410.466 79.809 410.466 73.902 410.466 67.99 410.364 63.718 413.826 60.255 416.226 57.851 419.213 56.509 423.095 56.509 426.992 56.509 429.929 57.851 432.323 60.255 435.786 63.718 435.735 67.99 435.735 73.902 435.735 79.809 435.786 84.092 432.323 87.544M427.378 64.289C426.416 63.186 424.93 62.462 423.096 62.462 421.275 62.462 419.735 63.186 418.779 64.289 417.483 65.738 417.144 67.316 417.144 73.902 417.144 80.482 417.483 82.067 418.779 83.515 419.735 84.618 421.275 85.337 423.096 85.337 424.93 85.337 426.416 84.618 427.378 83.515 428.674 82.067 429.06 80.482 429.06 73.902 429.06 67.316 428.674 65.738 427.378 64.289"/>
    <polygon fill="#FFFFFF" fill-rule="nonzero" points="447.352 91.006 447.352 56.793 454.034 56.793 454.034 85.048 469.548 85.048 469.548 91.006"/>
    <path fill="#FFFFFF" fill-rule="nonzero" d="M501.159 87.736C498.901 89.993 495.687 91.006 492.123 91.006L479.777 91.006 479.777 56.792 492.123 56.792C495.687 56.792 498.901 57.805 501.159 60.062 505.006 63.904 504.616 68.612 504.616 73.755 504.616 78.898 505.006 83.895 501.159 87.736M496.497 64.866C495.344 63.474 493.809 62.75 491.501 62.75L486.459 62.75 486.459 85.048 491.501 85.048C493.81 85.048 495.344 84.324 496.497 82.932 497.747 81.399 497.945 78.949 497.945 73.755 497.945 68.567 497.747 66.405 496.497 64.866M238.5 120.467L234.528 112.728 230.335 112.728 230.335 120.467 228.468 120.467 228.468 103.019 235.161 103.019C238.211 103.019 240.339 104.852 240.339 107.873 240.339 110.42 238.794 112.089 236.542 112.553L240.684 120.468 238.5 120.468 238.5 120.467zM234.993 104.682L230.336 104.682 230.336 111.08 234.993 111.08C237.03 111.08 238.472 110.022 238.472 107.895 238.472 105.762 237.029 104.682 234.993 104.682L234.993 104.682z"/>
    <polygon fill="#FFFFFF" fill-rule="nonzero" points="247.033 120.467 247.033 103.007 257.867 103.007 257.867 104.681 248.899 104.681 248.899 110.832 256.544 110.832 256.544 112.501 248.899 112.501 248.899 118.804 257.867 118.804 257.867 120.467"/>
    <path fill="#FFFFFF" fill-rule="nonzero" d="M268.705 120.614C266.085 120.614 264.371 119.952 262.726 118.305L263.997 117.037C265.452 118.486 266.792 118.949 268.75 118.949 271.303 118.949 272.875 117.744 272.875 115.713 272.875 114.809 272.604 114.022 272.043 113.53 271.483 113.037 271.036 112.896 269.758 112.697L267.722 112.375C266.358 112.16 265.271 111.713 264.514 111.052 263.637 110.271 263.195 109.191 263.195 107.792 263.195 104.827 265.323 102.864 268.78 102.864 271.015 102.864 272.48 103.425 273.974 104.777L272.78 105.976C271.699 104.997 270.545 104.488 268.706 104.488 266.375 104.488 265.034 105.783 265.034 107.718 265.034 108.577 265.271 109.263 265.815 109.733 266.358 110.197 267.258 110.536 268.168 110.683L270.075 110.978C271.722 111.226 272.531 111.571 273.267 112.205 274.217 113.015 274.737 114.22 274.737 115.662 274.736 118.725 272.332 120.614 268.705 120.614M291.019 118.799C289.842 119.975 288.298 120.615 286.56 120.615 284.812 120.615 283.267 119.974 282.096 118.799 280.45 117.158 280.45 115.443 280.45 111.743 280.45 108.043 280.45 106.323 282.096 104.681 283.267 103.498 284.812 102.866 286.56 102.866 288.298 102.866 289.842 103.499 291.019 104.681 292.66 106.323 292.66 108.042 292.66 111.743 292.659 115.442 292.659 117.158 291.019 118.799M289.57 105.785C288.805 104.999 287.709 104.535 286.559 104.535 285.4 104.535 284.302 104.999 283.538 105.785 282.434 106.911 282.315 108.094 282.315 111.743 282.315 115.391 282.434 116.568 283.538 117.701 284.302 118.481 285.399 118.945 286.559 118.945 287.708 118.945 288.805 118.481 289.57 117.701 290.674 116.568 290.793 115.391 290.793 111.743 290.793 108.094 290.674 106.911 289.57 105.785M305.363 120.614C301.833 120.614 299.28 118.192 299.28 114.713L299.28 103.013 301.147 103.013 301.147 114.561C301.147 117.203 302.811 118.951 305.363 118.951 307.916 118.951 309.6 117.203 309.6 114.561L309.6 103.013 311.467 103.013 311.467 114.713C311.468 118.192 308.894 120.614 305.363 120.614M328.778 120.467L324.804 112.728 320.613 112.728 320.613 120.467 318.746 120.467 318.746 103.019 325.438 103.019C328.489 103.019 330.617 104.852 330.617 107.873 330.617 110.42 329.072 112.089 326.82 112.553L330.961 120.468 328.778 120.468 328.778 120.467zM325.269 104.682L320.614 104.682 320.614 111.08 325.269 111.08C327.306 111.08 328.749 110.022 328.749 107.895 328.749 105.762 327.306 104.682 325.269 104.682L325.269 104.682zM342.756 120.614C341.036 120.614 339.469 119.98 338.292 118.798 336.646 117.162 336.646 115.444 336.646 111.742 336.646 108.042 336.646 106.322 338.292 104.681 339.469 103.503 341.036 102.865 342.756 102.865 345.898 102.865 348.216 104.778 348.811 108.059L346.893 108.059C346.428 105.931 344.936 104.534 342.756 104.534 341.596 104.534 340.498 104.975 339.74 105.762 338.636 106.889 338.513 108.087 338.513 111.742 338.513 115.387 338.636 116.597 339.74 117.722 340.498 118.503 341.595 118.95 342.756 118.95 344.936 118.95 346.48 117.554 346.948 115.414L348.81 115.414C348.244 118.702 345.868 120.614 342.756 120.614"/>
    <polygon fill="#FFFFFF" fill-rule="nonzero" points="355.401 120.467 355.401 103.007 366.236 103.007 366.236 104.681 357.269 104.681 357.269 110.832 364.913 110.832 364.913 112.501 357.269 112.501 357.269 118.804 366.236 118.804 366.236 120.467"/>
    <path fill="#FFFFFF" fill-rule="nonzero" d="M377.074,120.614 C374.454,120.614 372.74,119.952 371.095,118.305 L372.366,117.037 C373.82,118.486 375.161,118.949 377.125,118.949 C379.672,118.949 381.244,117.744 381.244,115.713 C381.244,114.809 380.973,114.022 380.412,113.53 C379.851,113.037 379.405,112.896 378.127,112.697 L376.091,112.375 C374.726,112.16 373.64,111.713 372.882,111.052 C372.005,110.271 371.563,109.191 371.563,107.792 C371.563,104.827 373.691,102.864 377.148,102.864 C379.383,102.864 380.848,103.425 382.343,104.777 L381.148,105.976 C380.068,104.997 378.914,104.488 377.075,104.488 C374.744,104.488 373.402,105.783 373.402,107.718 C373.402,108.577 373.64,109.263 374.183,109.733 C374.726,110.197 375.625,110.536 376.537,110.683 L378.444,110.978 C380.091,111.226 380.899,111.571 381.635,112.205 C382.586,113.015 383.106,114.22 383.106,115.662 C383.105,118.725 380.7,120.614 377.074,120.614"/>
    <polygon fill="#FFFFFF" fill-rule="nonzero" points="398.049 120.467 398.049 103.007 399.916 103.007 399.916 118.804 408.833 118.804 408.833 120.467"/>
    <rect width="1.867" height="17.46" x="414.57" y="103.012" fill="#FFFFFF" fill-rule="nonzero"/>
    <polygon fill="#FFFFFF" fill-rule="nonzero" points="437.042 120.467 437.042 107.211 432.262 117.717 430.671 117.717 425.812 107.211 425.812 120.467 423.949 120.467 423.949 103.007 425.812 103.007 431.502 115.392 437.042 103.007 438.903 103.007 438.903 120.467"/>
    <rect width="1.867" height="17.46" x="446.447" y="103.012" fill="#FFFFFF" fill-rule="nonzero"/>
    <polygon fill="#FFFFFF" fill-rule="nonzero" points="460.945 104.682 460.945 120.467 459.085 120.467 459.085 104.682 454.031 104.682 454.031 103.019 465.992 103.019 465.992 104.682"/>
    <polygon fill="#FFFFFF" fill-rule="nonzero" points="471.731 120.467 471.731 103.007 482.566 103.007 482.566 104.681 473.599 104.681 473.599 110.832 481.244 110.832 481.244 112.501 473.599 112.501 473.599 118.804 482.566 118.804 482.566 120.467"/>
    <path fill="#FFFFFF" fill-rule="nonzero" d="M499.309,118.85 C498.251,119.902 496.712,120.468 494.897,120.468 L488.916,120.468 L488.916,103.007 L494.897,103.007 C496.712,103.007 498.251,103.579 499.309,104.631 C501.125,106.446 501.025,109.111 501.025,111.545 C501.024,113.973 501.125,117.032 499.309,118.85 M498.008,105.955 C497.103,105.02 495.925,104.682 494.573,104.682 L490.782,104.682 L490.782,118.799 L494.573,118.799 C495.925,118.799 497.102,118.454 498.008,117.526 C499.213,116.275 499.161,113.672 499.161,111.546 C499.161,109.406 499.213,107.205 498.008,105.955"/>
    <polygon fill="#FFFFFF" fill-rule="nonzero" points="277.353 91.006 277.353 56.793 299.895 56.793 299.895 62.751 284.034 62.751 284.034 70.779 297.534 70.779 297.534 76.732 284.034 76.732 284.034 85.048 299.895 85.048 299.895 91.006"/>
    <g transform="translate(0 39)">
      <mask id="c" fill="white">
        <use xlink:href="#a"/>
      </mask>
      <rect width="109.342" height="134.577" y=".539" fill="url(#b)" fill-rule="nonzero" mask="url(#c)"/>
    </g>
    <g transform="translate(18 20)">
      <mask id="f" fill="white">
        <use xlink:href="#d"/>
      </mask>
      <rect width="72.426" height="84.111" x=".224" y=".382" fill="url(#e)" fill-rule="nonzero" mask="url(#f)"/>
    </g>
    <polygon fill="#C9CACC" fill-rule="nonzero" points="110.278 52.624 63.551 74.118 79.438 132.528 91.116 90.005 112.145 78.792 129.902 87.671 140.651 131.594 156.07 73.651"/>
    <g transform="translate(38 101)">
      <mask id="i" fill="white">
        <use xlink:href="#g"/>
      </mask>
      <rect width="24.471" height="43.923" x=".318" y=".221" fill="url(#h)" fill-rule="nonzero" mask="url(#i)"/>
    </g>
    <polygon fill="#C9CACC" fill-rule="nonzero" points="90.186 174.116 109.344 163.835 129.903 174.116 109.344 99.354"/>
    <g transform="translate(157 101)">
      <mask id="l" fill="white">
        <use xlink:href="#j"/>
      </mask>
      <rect width="25.233" height="44.388" x=".471" y=".689" fill="url(#k)" fill-rule="nonzero" mask="url(#l)"/>
    </g>
    <g transform="translate(130 19)">
      <mask id="o" fill="white">
        <use xlink:href="#m"/>
      </mask>
      <rect width="70.558" height="84.108" x=".84" y=".915" fill="url(#n)" fill-rule="nonzero" mask="url(#o)"/>
    </g>
    <polygon fill="#C9CACC" fill-rule="nonzero" points="132.238 .755 110.276 9.631 88.783 .755 83.174 20.847 109.812 33.462 138.316 20.379"/>
    <g transform="translate(63 52)">
      <mask id="r" fill="white">
        <use xlink:href="#p"/>
      </mask>
      <rect width="46.727" height="79.906" x=".549" y=".622" fill="url(#q)" fill-rule="nonzero" mask="url(#r)"/>
    </g>
    <g transform="translate(110 52)">
      <mask id="u" fill="white">
        <use xlink:href="#s"/>
      </mask>
      <rect width="45.795" height="78.971" x=".276" y=".622" fill="url(#t)" fill-rule="nonzero" mask="url(#u)"/>
    </g>
    <g transform="translate(109 99)">
      <mask id="x" fill="white">
        <use xlink:href="#v"/>
      </mask>
      <rect width="20.561" height="74.765" x=".342" y=".352" fill="url(#w)" fill-rule="nonzero" mask="url(#x)"/>
    </g>
    <g transform="translate(90 99)">
      <mask id="A" fill="white">
        <use xlink:href="#y"/>
      </mask>
      <rect width="19.157" height="74.765" x=".185" y=".352" fill="url(#z)" fill-rule="nonzero" mask="url(#A)"/>
    </g>
    <g transform="translate(109)">
      <mask id="D" fill="white">
        <use xlink:href="#B"/>
      </mask>
      <rect width="28.505" height="32.709" x=".812" y=".756" fill="url(#C)" fill-rule="nonzero" mask="url(#D)"/>
    </g>
    <g transform="translate(83)">
      <mask id="G" fill="white">
        <use xlink:href="#E"/>
      </mask>
      <rect width="27.102" height="32.709" x=".174" y=".756" fill="url(#F)" fill-rule="nonzero" mask="url(#G)"/>
    </g>
  </g>
</svg>
