<svg id="Layer_1" xmlns="http://www.w3.org/2000/svg" viewBox="0 0 1172 426"><style>.st0{fill:#929497;} .st1{fill:#D52A27;} .st2{fill:#FFFFFF;} .st3{fill:#00ADEE;} .st4{fill:#7053A2;} .st5{fill:#FDBD26;} .st6{fill:#70BE44;}</style><g id="XMLID_35_"><path id="XMLID_89_" class="st0" d="M142.3 56v215.5H76.7V56H0V0h219v56h-76.7z"/><path id="XMLID_87_" class="st0" d="M408.8 271.5V158H303v113.5h-65.6V0H303v102.8h105.8V0h65.6v271.5h-65.6z"/><path id="XMLID_85_" class="st1" d="M518.9 271.5V0h66v271.5h-66z"/><path id="XMLID_83_" class="st0" d="M801.9 271.5L692.6 94h-1.2l1.5 177.6h-63.7V0H704l109 177.2h1.2L812.6 0h63.7v271.5h-74.4z"/><path id="XMLID_81_" class="st0" d="M1086.4 271.5l-100.9-125h-.8v125h-64V0h64v110.4h1.2L1083 0h82.1l-117 125L1172 271.5h-85.6z"/><g id="XMLID_40_"><path id="XMLID_79_" class="st2" d="M105.4 403.3c-2 3.2-4.4 6.3-7.2 9.1s-6.1 5.4-9.8 7.6c-3.7 2.2-7.8 3.9-12.3 5.2-4.5 1.3-9.4 1.9-14.7 1.9-8.9 0-17.1-1.7-24.6-5s-14-8-19.5-13.9c-5.4-5.9-9.7-12.9-12.7-21-3.1-8.1-4.6-17-4.6-26.6 0-9.7 1.6-18.5 4.7-26.6 3.1-8.1 7.4-15.1 12.9-21 5.4-6 11.9-10.6 19.4-14 7.5-3.3 15.6-5 24.4-5 4.3 0 8.6.5 12.7 1.5 4.2 1 8.1 2.3 11.7 4.1 3.7 1.8 7 3.9 10 6.3 3 2.5 5.5 5.2 7.5 8.3l-10 7.9c-1.2-2-2.9-4.1-4.9-6.1-2.1-2-4.5-3.8-7.2-5.4-2.8-1.5-5.8-2.8-9.1-3.8s-6.8-1.4-10.6-1.4c-7.7 0-14.5 1.5-20.5 4.5s-11.2 7-15.4 12c-4.2 5.1-7.4 10.9-9.6 17.6-2.2 6.7-3.3 13.7-3.3 21 0 7.4 1.1 14.4 3.4 21 2.3 6.7 5.5 12.5 9.7 17.6 4.2 5.1 9.3 9.1 15.4 12 6 3 12.8 4.5 20.4 4.5 6.8 0 13.2-1.5 19.3-4.5 6.1-3 11.2-7.7 15.3-14.3l9.2 6.5z"/><path id="XMLID_77_" class="st2" d="M128.4 353.9c2.1-4.9 5.6-8.8 10.5-11.6 4.9-2.9 10.1-4.3 15.6-4.3 9.9 0 17.3 3.2 22.2 9.5 4.9 6.3 7.4 14.7 7.4 25v51.3h-11.3v-46.3c0-4.4-.3-8.4-1-12-.7-3.6-1.8-6.6-3.4-9.2-1.6-2.6-3.8-4.6-6.5-6-2.7-1.4-6.1-2.1-10.2-2.1-3 0-5.9.7-8.7 2-2.8 1.3-5.4 3.3-7.6 6-2.2 2.7-4 6.1-5.3 10.2-1.3 4.1-2 9-2 14.6v42.9h-11.3V288.6h11.3v65.3h.3z"/><path id="XMLID_74_" class="st2" d="M218.2 308c0 2.5-.8 4.6-2.5 6.2-1.7 1.6-3.5 2.4-5.5 2.4s-3.8-.8-5.5-2.4c-1.7-1.6-2.5-3.7-2.5-6.2s.8-4.6 2.5-6.2c1.7-1.6 3.5-2.4 5.5-2.4s3.8.8 5.5 2.4c1.7 1.6 2.5 3.7 2.5 6.2zm-2.3 115.8h-11.3v-83.7h11.3v83.7z"/><path id="XMLID_72_" class="st2" d="M248.6 423.8h-11.3V288.6h11.3v135.2z"/><path id="XMLID_69_" class="st2" d="M333.9 409.7c-3.3 5.4-7.7 9.4-13 12.2-5.3 2.7-10.8 4.1-16.5 4.1-6.1 0-11.6-1.1-16.5-3.4s-9.1-5.4-12.6-9.3c-3.5-3.9-6.2-8.6-8.1-13.9-1.9-5.4-2.9-11.1-2.9-17.3 0-6.2 1-12 2.9-17.3 1.9-5.4 4.7-10 8.1-14 3.5-3.9 7.7-7 12.6-9.3 4.9-2.3 10.4-3.4 16.5-3.4 5.7 0 11.1 1.4 16.5 4.2 5.3 2.8 9.6 6.9 13 12.4h.3v-66h11.3v135.2h-11.3v-14.1h-.3zM276.2 382c0 4.6.7 9 2 13.1s3.2 7.7 5.7 10.7c2.5 3 5.6 5.4 9.2 7.2 3.7 1.7 7.8 2.6 12.5 2.6 4.3 0 8.3-.9 12-2.6 3.7-1.7 6.8-4.1 9.5-7.1s4.7-6.5 6.2-10.6 2.2-8.6 2.2-13.3c0-4.8-.7-9.2-2.2-13.3-1.5-4.1-3.6-7.7-6.2-10.7-2.7-3-5.8-5.4-9.5-7.2-3.7-1.7-7.7-2.6-12-2.6-4.7 0-8.8.9-12.5 2.7-3.7 1.8-6.7 4.2-9.2 7.2-2.5 3-4.4 6.6-5.7 10.7-1.3 4.2-2 8.5-2 13.2z"/><path id="XMLID_67_" class="st2" d="M422.9 359.3c-1.9-3.2-4.6-5.9-8.2-8-3.6-2.1-7.5-3.1-11.7-3.1-4.5 0-8.6.9-12.3 2.6-3.7 1.7-6.8 4.1-9.4 7.2-2.6 3-4.6 6.6-6 10.7-1.4 4.1-2.1 8.6-2.1 13.3 0 4.8.7 9.2 2.1 13.2 1.4 4.1 3.4 7.6 5.9 10.6 2.5 3 5.7 5.4 9.3 7.2 3.7 1.7 7.8 2.6 12.3 2.6 5 0 9.2-1 12.6-3 3.4-2 6.3-4.6 8.5-7.9l8.5 6.8c-3.3 4.4-7.4 7.9-12.2 10.5-4.8 2.6-10.6 3.9-17.4 3.9-6.3 0-12-1.1-17.1-3.3-5.1-2.2-9.5-5.3-13.1-9.2-3.6-3.9-6.4-8.6-8.4-13.9-2-5.4-3-11.2-3-17.5 0-6.3 1-12.2 3-17.5 2-5.4 4.8-10 8.4-13.9 3.6-3.9 8-7 13.1-9.2 5.1-2.2 10.8-3.3 17.1-3.3 5.2 0 10.5 1.2 15.9 3.7 5.4 2.4 9.7 6.1 13.1 10.8l-8.9 6.7z"/><path id="XMLID_64_" class="st2" d="M490.1 369.7c0-7.2-1.8-12.6-5.3-16.2-3.5-3.5-8.7-5.3-15.5-5.3-4.7 0-9 .9-13 2.7-4 1.8-7.4 4.2-10.1 7.2l-6.3-8c3.2-3.5 7.5-6.3 12.7-8.6 5.3-2.3 11.2-3.4 17.9-3.4 4.2 0 8.1.6 11.8 1.9 3.7 1.3 6.9 3.1 9.6 5.6 2.8 2.5 4.9 5.7 6.5 9.5 1.6 3.8 2.3 8.3 2.3 13.4v36.7c0 3.2.1 6.6.3 10 .2 3.5.6 6.4 1 8.8h-10.1c-.3-2-.6-4.2-.8-6.6-.2-2.4-.3-4.7-.3-7h-.3c-3.5 5.6-7.6 9.6-12.1 12.1s-9.9 3.7-16.2 3.7c-3 0-6.1-.4-9.2-1.3-3.2-.9-6-2.4-8.6-4.4-2.6-2-4.8-4.7-6.5-7.9-1.7-3.2-2.6-7.2-2.6-11.8 0-6.5 1.5-11.6 4.6-15.3 3-3.8 7.1-6.6 12.2-8.4 5.1-1.9 10.9-3.1 17.5-3.6s13.4-.8 20.5-.8v-3zm-3.3 12.3c-4.7 0-9.3.2-14.1.6-4.7.4-9 1.2-12.8 2.5-3.8 1.2-7 3.1-9.4 5.5-2.4 2.4-3.7 5.5-3.7 9.5 0 3 .5 5.5 1.6 7.5s2.5 3.7 4.2 4.9c1.8 1.3 3.7 2.1 5.9 2.7 2.2.5 4.4.8 6.6.8 4 0 7.5-.7 10.6-2.2 3.1-1.5 5.7-3.5 7.8-6.1 2.1-2.6 3.7-5.5 4.8-8.9 1.1-3.3 1.7-6.9 1.7-10.5V382h-3.2z"/><path id="XMLID_62_" class="st2" d="M520.7 349.8c-.1-3.6-.3-6.8-.5-9.7H531c.2 2.3.4 4.8.5 7.5.1 2.7.2 5 .2 6.8h.3c2.2-4.9 5.5-8.9 10-11.9 4.4-3 9.4-4.6 15-4.6 1.4 0 2.7.1 3.9.2 1.2.1 2.4.4 3.6.7l-1.5 11.6c-.7-.2-1.8-.5-3.3-.7-1.6-.2-3.1-.4-4.7-.4-3 0-5.9.6-8.6 1.8-2.8 1.2-5.2 3.1-7.2 5.6-2.1 2.6-3.7 5.8-5 9.8-1.3 4-1.9 8.8-1.9 14.4v42.8H521v-65.3c-.1-2.1-.2-5-.3-8.6z"/><path id="XMLID_59_" class="st2" d="M639.6 379.5v2.7s-.1 2-.2 3h-64.5c.1 4.2.9 8.1 2.3 11.8 1.4 3.7 3.4 6.9 6 9.7 2.5 2.7 5.5 4.9 9 6.5 3.4 1.6 7.2 2.4 11.1 2.4 5.9 0 10.9-1.5 15.2-4.4 4.3-2.9 7.5-6.3 9.7-10.1l8.5 7.2c-4.7 6.3-9.8 10.8-15.4 13.6-5.6 2.7-11.6 4.1-18 4.1-5.8 0-11.1-1.1-16-3.3-4.9-2.2-9.2-5.3-12.7-9.2-3.5-3.9-6.3-8.6-8.4-13.9-2.1-5.4-3.1-11.2-3.1-17.5 0-6.3 1-12.2 3-17.5 2-5.4 4.8-10 8.3-13.9 3.5-3.9 7.7-7 12.5-9.2 4.8-2.2 9.9-3.3 15.5-3.3 6.1 0 11.5 1.1 16.1 3.3 4.7 2.2 8.5 5.2 11.6 8.9 3.1 3.8 5.5 8.1 7.1 13.1 1.6 4.9 2.4 10.3 2.4 16zm-11.5-3.9c-.3-7.9-2.7-14.4-7.1-19.6-4.4-5.2-10.6-7.8-18.7-7.8-3.8 0-7.3.7-10.5 2.2-3.2 1.5-6 3.5-8.5 6.1-2.4 2.6-4.4 5.5-5.8 8.8-1.4 3.3-2.3 6.7-2.5 10.3h53.1z"/><path id="XMLID_57_" class="st0" d="M700.2 412.4H755v11.4h-66.9V297.2h12v115.2z"/><path id="XMLID_54_" class="st0" d="M777.2 308c0 2.5-.8 4.6-2.5 6.2s-3.5 2.4-5.5 2.4-3.8-.8-5.5-2.4-2.5-3.7-2.5-6.2.8-4.6 2.5-6.2c1.7-1.6 3.5-2.4 5.5-2.4s3.8.8 5.5 2.4c1.6 1.6 2.5 3.7 2.5 6.2zm-2.4 115.8h-11.3v-83.7h11.3v83.7z"/><path id="XMLID_52_" class="st0" d="M817.3 342.6c4.6-3 9.7-4.6 15.4-4.6 2.1 0 4.3.2 6.6.7 2.3.5 4.5 1.4 6.7 2.8s4.2 3.2 6 5.5 3.4 5.2 4.7 8.8c2.7-5.7 6.3-10.1 10.9-13.1 4.6-3 10.1-4.6 16.4-4.6 9.9 0 17.3 3.2 22.2 9.5 4.9 6.3 7.4 14.7 7.4 25v51.3h-11.3v-46.3c0-8.8-1.5-15.9-4.6-21.3-3-5.4-8.2-8-15.5-8-4.1 0-7.6.9-10.4 2.7-2.8 1.8-5.1 4.1-6.8 7.1-1.7 2.9-3 6.2-3.7 9.9-.8 3.7-1.2 7.5-1.2 11.4v44.5h-11.3V375c0-4.1-.3-7.7-.8-11.1-.6-3.3-1.5-6.2-2.9-8.5s-3.3-4.1-5.7-5.4c-2.4-1.3-5.5-1.9-9.3-1.9-2.7 0-5.4.7-8.1 2-2.7 1.3-5.2 3.3-7.3 6-2.2 2.7-3.9 6.1-5.2 10.2s-2 9-2 14.6v42.9h-11.3v-65.3c0-2.3-.1-5.2-.2-8.8-.1-3.6-.3-6.8-.5-9.7h10.8c.2 2.3.4 4.8.5 7.5.1 2.7.2 5 .2 6.8h.3c2-4.7 5.4-8.7 10-11.7z"/><path id="XMLID_49_" class="st0" d="M947.6 308c0 2.5-.8 4.6-2.5 6.2s-3.5 2.4-5.5 2.4-3.8-.8-5.5-2.4-2.5-3.7-2.5-6.2.8-4.6 2.5-6.2c1.7-1.6 3.5-2.4 5.5-2.4s3.8.8 5.5 2.4c1.7 1.6 2.5 3.7 2.5 6.2zm-2.3 115.8H934v-83.7h11.3v83.7z"/><path id="XMLID_47_" class="st0" d="M1001.5 350.3h-22v48.8c0 3.1.3 5.7.8 7.7.6 2 1.4 3.6 2.4 4.7 1.1 1.1 2.3 1.9 3.7 2.3 1.4.4 3 .6 4.7.6 1.6 0 3.2-.2 4.9-.7 1.7-.5 3.3-1.1 4.9-2l.5 10.6c-2 .8-4.1 1.5-6.2 1.9-2.2.4-4.5.6-7.1.6-2.1 0-4.3-.3-6.7-.9-2.3-.6-4.5-1.7-6.5-3.4s-3.6-3.9-4.9-6.8c-1.3-2.9-1.9-6.6-1.9-11.3v-52.2H952V340h16.1v-23.6h11.3V340h22v10.3z"/><path id="XMLID_44_" class="st0" d="M1081 379.5v2.7s-.1 2-.2 3h-64.5c.1 4.2.9 8.1 2.3 11.8 1.4 3.7 3.4 6.9 6 9.7 2.5 2.7 5.5 4.9 9 6.5 3.4 1.6 7.1 2.4 11.1 2.4 5.9 0 10.9-1.5 15.2-4.4 4.3-2.9 7.5-6.3 9.7-10.1l8.5 7.2c-4.7 6.3-9.8 10.8-15.4 13.6-5.6 2.7-11.6 4.1-18 4.1-5.8 0-11.1-1.1-16-3.3-4.9-2.2-9.2-5.3-12.7-9.2-3.5-3.9-6.3-8.6-8.4-13.9-2.1-5.4-3.1-11.2-3.1-17.5 0-6.3 1-12.2 3-17.5 2-5.4 4.8-10 8.3-13.9 3.5-3.9 7.7-7 12.5-9.2 4.8-2.2 9.9-3.3 15.5-3.3 6.1 0 11.5 1.1 16.1 3.3 4.7 2.2 8.5 5.2 11.6 8.9 3.1 3.8 5.5 8.1 7.1 13.1 1.6 4.9 2.4 10.3 2.4 16zm-11.5-3.9c-.3-7.9-2.7-14.4-7.1-19.6-4.4-5.2-10.6-7.8-18.7-7.8-3.8 0-7.3.7-10.5 2.2-3.2 1.5-6 3.5-8.5 6.1-2.4 2.6-4.4 5.5-5.8 8.8-1.4 3.3-2.3 6.7-2.5 10.3h53.1z"/><path id="XMLID_41_" class="st0" d="M1160.3 409.7c-3.3 5.4-7.7 9.4-13 12.2-5.3 2.7-10.8 4.1-16.5 4.1-6.1 0-11.6-1.1-16.5-3.4s-9.1-5.4-12.6-9.3c-3.5-3.9-6.2-8.6-8.1-13.9-1.9-5.4-2.9-11.1-2.9-17.3 0-6.2 1-12 2.9-17.3 1.9-5.4 4.7-10 8.1-14 3.5-3.9 7.7-7 12.6-9.3 4.9-2.3 10.4-3.4 16.5-3.4 5.7 0 11.1 1.4 16.5 4.2 5.3 2.8 9.6 6.9 13 12.4h.3v-66h11.3v135.2h-11.3v-14.1h-.3zm-57.7-27.7c0 4.6.7 9 2 13.1s3.2 7.7 5.7 10.7c2.5 3 5.6 5.4 9.2 7.2 3.7 1.7 7.8 2.6 12.5 2.6 4.3 0 8.3-.9 12-2.6 3.7-1.7 6.8-4.1 9.5-7.1s4.7-6.5 6.2-10.6 2.2-8.6 2.2-13.3c0-4.8-.7-9.2-2.2-13.3-1.5-4.1-3.6-7.7-6.2-10.7-2.7-3-5.8-5.4-9.5-7.2-3.7-1.7-7.6-2.6-12-2.6-4.7 0-8.8.9-12.5 2.7-3.7 1.8-6.7 4.2-9.2 7.2-2.5 3-4.4 6.6-5.7 10.7-1.3 4.2-2 8.5-2 13.2z"/></g><path id="XMLID_4_" class="st3" d="M76.7 0h65.6v271.5H76.7z"/><path id="XMLID_3_" class="st4" d="M237.4 0H303v271.5h-65.6z"/><path id="XMLID_2_" class="st5" d="M876.3 271.5h-74.4L629.3 0h74.8z"/><path id="XMLID_1_" class="st6" d="M920.8 0h64v271.5h-64z"/></g></svg>