<?xml version="1.0" encoding="utf-8"?>
<!-- Generator: Adobe Illustrator 19.1.0, SVG Export Plug-In . SVG Version: 6.00 Build 0)  -->
<svg version="1.1" id="Layer_1" xmlns="http://www.w3.org/2000/svg" xmlns:xlink="http://www.w3.org/1999/xlink" x="0px" y="0px"
	 width="203px" height="113px" viewBox="0 0 203 113" style="enable-background:new 0 0 203 113;" xml:space="preserve">
<style type="text/css">
	.st0{clip-path:url(#SVGID_2_);fill:#FFFFFF;}
	.st1{clip-path:url(#SVGID_4_);}
	.st2{clip-path:url(#SVGID_6_);}
	.st3{clip-path:url(#SVGID_8_);}
	.st4{clip-path:url(#SVGID_10_);}
	.st5{clip-path:url(#SVGID_12_);}
	.st6{clip-path:url(#SVGID_14_);}
	.st7{clip-path:url(#SVGID_14_);fill:#4CA950;}
	.st8{clip-path:url(#SVGID_16_);}
</style>
<g>
	<defs>
		<rect id="SVGID_1_" width="201" height="112"/>
	</defs>
	<clipPath id="SVGID_2_">
		<use xlink:href="#SVGID_1_"  style="overflow:visible;"/>
	</clipPath>
	<path class="st0" d="M78.2,86.3c-2.5,0-3.7,0.7-5.1,1.5c-1.4,0.9-3,1.8-6.1,1.8c-3.1,0-4.7-1-6.1-1.8c-1.4-0.8-2.6-1.5-5.1-1.5
		c-2.5,0-3.7,0.7-5.1,1.5c-1.4,0.9-3,1.8-6.1,1.8c-3.1,0-4.7-1-6.1-1.8c-1.4-0.8-2.6-1.5-5.1-1.5s-3.7,0.7-5.1,1.5
		c-1.4,0.9-3,1.8-6.1,1.8c-3.1,0-4.7-1-6.1-1.8c-1.4-0.8-2.6-1.5-5.1-1.5s-3.7,0.7-5.1,1.5c-1.4,0.9-3,1.8-6.1,1.8L0,0h78.2V86.3z"
		/>
</g>
<rect x="92.6" y="10.2" width="3.9" height="18.3"/>
<g>
	<defs>
		<rect id="SVGID_3_" width="201" height="112"/>
	</defs>
	<clipPath id="SVGID_4_">
		<use xlink:href="#SVGID_3_"  style="overflow:visible;"/>
	</clipPath>
	<path class="st1" d="M102.4,17L102.4,17c0.4-0.6,0.8-1,1.3-1.2c0.5-0.2,1.1-0.4,1.8-0.4c0.4,0,0.8,0.1,1.2,0.2
		c0.4,0.1,0.7,0.3,1,0.5c0.3,0.2,0.5,0.5,0.7,0.9c0.2,0.3,0.3,0.7,0.3,1.2v10.2h-3.6v-8.8c0-0.6-0.1-1.1-0.2-1.4
		c-0.2-0.4-0.5-0.6-1.1-0.6s-0.9,0.2-1.1,0.6c-0.2,0.4-0.2,0.9-0.2,1.4v8.8h-3.6V15.7h3.6V17z"/>
</g>
<polygon points="109.1,15.7 112.7,15.7 114.5,25.3 114.6,25.3 116.5,15.7 120,15.7 116.4,28.5 112.5,28.5 "/>
<g>
	<defs>
		<rect id="SVGID_5_" width="201" height="112"/>
	</defs>
	<clipPath id="SVGID_6_">
		<use xlink:href="#SVGID_5_"  style="overflow:visible;"/>
	</clipPath>
	<path class="st2" d="M127.5,20.7c0-0.3,0-0.6,0-1c0-0.4-0.1-0.7-0.2-1c-0.1-0.3-0.3-0.6-0.5-0.7c-0.2-0.2-0.6-0.3-1-0.3
		c-0.4,0-0.7,0.1-1,0.3c-0.2,0.2-0.4,0.5-0.5,0.8c-0.1,0.3-0.2,0.6-0.2,1c0,0.3,0,0.7,0,0.9H127.5z M124.1,22.7c0,0.4,0,0.8,0,1.2
		c0,0.4,0.1,0.8,0.2,1.2c0.1,0.4,0.3,0.7,0.5,1c0.2,0.3,0.5,0.4,0.9,0.4c0.3,0,0.6-0.1,0.8-0.2c0.2-0.1,0.4-0.3,0.5-0.5
		c0.1-0.2,0.2-0.5,0.2-0.7c0-0.3,0.1-0.5,0.1-0.8h3.7c-0.1,1.4-0.5,2.5-1.4,3.3c-0.4,0.4-1,0.7-1.6,0.9c-0.6,0.2-1.4,0.3-2.2,0.3
		c-1.2,0-2.1-0.2-2.8-0.5c-0.7-0.3-1.2-0.8-1.6-1.4c-0.4-0.6-0.6-1.3-0.7-2.2c-0.1-0.8-0.2-1.7-0.2-2.7c0-0.9,0.1-1.7,0.2-2.5
		c0.1-0.8,0.3-1.5,0.7-2.1c0.4-0.6,0.9-1.1,1.6-1.4c0.7-0.3,1.6-0.5,2.8-0.5c1.2,0,2.2,0.2,2.9,0.6c0.7,0.4,1.3,0.9,1.6,1.5
		c0.4,0.6,0.6,1.4,0.7,2.3c0.1,0.9,0.1,1.8,0.1,2.9H124.1z"/>
	<path class="st2" d="M135.7,24.4c0,0.3,0,0.6,0,0.8c0,0.3,0.1,0.5,0.2,0.7c0.1,0.2,0.3,0.4,0.5,0.5c0.2,0.1,0.5,0.2,0.8,0.2
		c0.4,0,0.7-0.1,0.9-0.3c0.3-0.2,0.4-0.5,0.4-1c0-0.5-0.2-0.8-0.5-1.1c-0.3-0.3-0.7-0.5-1.2-0.8c-0.5-0.2-1-0.5-1.5-0.7
		c-0.5-0.2-1.1-0.5-1.5-0.8c-0.5-0.3-0.9-0.7-1.2-1.1c-0.3-0.4-0.5-1-0.5-1.7c0-0.7,0.2-1.3,0.5-1.7c0.3-0.5,0.7-0.8,1.2-1.1
		c0.5-0.3,1-0.5,1.6-0.6c0.6-0.1,1.2-0.2,1.8-0.2c0.6,0,1.2,0.1,1.8,0.2c0.6,0.2,1.1,0.4,1.5,0.7s0.7,0.7,1,1.2
		c0.2,0.5,0.3,1.1,0.3,1.8h-3.5c0-0.9-0.1-1.4-0.4-1.6c-0.1-0.1-0.3-0.2-0.4-0.2c-0.2,0-0.3-0.1-0.5-0.1c-0.4,0-0.7,0.1-0.9,0.4
		c-0.2,0.2-0.3,0.6-0.3,1c0,0.3,0.2,0.6,0.5,0.9c0.3,0.2,0.7,0.5,1.2,0.7c0.5,0.2,1,0.4,1.5,0.7c0.5,0.2,1.1,0.5,1.5,0.9
		c0.5,0.3,0.9,0.7,1.2,1.2c0.3,0.5,0.5,1,0.5,1.7c0,0.6-0.1,1.1-0.3,1.5c-0.2,0.5-0.5,0.9-1,1.2c-0.4,0.4-0.9,0.6-1.5,0.8
		c-0.6,0.2-1.3,0.3-2,0.3c-0.8,0-1.5-0.1-2.1-0.2c-0.6-0.1-1.2-0.3-1.6-0.7c-0.5-0.3-0.8-0.8-1-1.3c-0.2-0.6-0.3-1.3-0.3-2.2H135.7z
		"/>
	<path class="st2" d="M142.5,15.7h1.5v-2l3.6-1.6v3.6h1.9v2.2h-1.9v6.8c0,0.2,0,0.5,0,0.7c0,0.2,0,0.4,0.1,0.5
		c0.1,0.1,0.2,0.2,0.3,0.3c0.2,0.1,0.4,0.1,0.7,0.1h0.3c0.1,0,0.2,0,0.3-0.1v2.2c-0.2,0-0.5,0.1-0.8,0.1c-0.3,0-0.6,0-1.1,0
		c-0.8,0-1.4-0.1-1.9-0.3c-0.5-0.2-0.8-0.5-1.1-0.8c-0.2-0.3-0.4-0.6-0.5-0.9c-0.1-0.3-0.1-0.6-0.1-0.8v-7.9h-1.5V15.7z"/>
</g>
<path d="M154.2,28.5h-3.6V15.7h3.6V28.5z M154.2,13h-3.6v-2.8h3.6V13z"/>
<g>
	<defs>
		<rect id="SVGID_7_" width="201" height="112"/>
	</defs>
	<clipPath id="SVGID_8_">
		<use xlink:href="#SVGID_7_"  style="overflow:visible;"/>
	</clipPath>
	<path class="st3" d="M160.2,17L160.2,17c0.4-0.6,0.8-1,1.3-1.2c0.5-0.2,1.1-0.4,1.8-0.4c0.4,0,0.8,0.1,1.2,0.2
		c0.4,0.1,0.7,0.3,1,0.5c0.3,0.2,0.5,0.5,0.7,0.9c0.2,0.3,0.3,0.7,0.3,1.2v10.2h-3.6v-8.8c0-0.6-0.1-1.1-0.2-1.4
		c-0.2-0.4-0.5-0.6-1.1-0.6c-0.6,0-0.9,0.2-1.1,0.6c-0.2,0.4-0.2,0.9-0.2,1.4v8.8h-3.6V15.7h3.6V17z"/>
	<path class="st3" d="M171.8,22.5v1.1c0,0.4,0,0.8,0.1,1.2c0.1,0.4,0.2,0.7,0.4,1c0.2,0.3,0.5,0.4,1,0.4c0.6,0,1.1-0.3,1.2-1
		c0.2-0.7,0.3-1.7,0.3-3c0-0.7,0-1.3,0-1.9c0-0.5-0.1-1-0.2-1.4s-0.3-0.7-0.4-0.9c-0.2-0.2-0.5-0.3-0.8-0.3c-0.3,0-0.6,0.1-0.8,0.2
		c-0.2,0.1-0.4,0.4-0.5,0.7c-0.1,0.4-0.2,0.9-0.2,1.5C171.8,20.7,171.8,21.5,171.8,22.5 M178.4,15.7V29c0,0.2,0,0.6-0.1,1
		c0,0.5-0.2,1-0.5,1.5c-0.3,0.5-0.8,0.9-1.5,1.3c-0.7,0.4-1.6,0.6-2.9,0.6c-0.7,0-1.3-0.1-1.9-0.2c-0.6-0.1-1.1-0.3-1.6-0.6
		c-0.5-0.3-0.8-0.7-1.1-1.2c-0.3-0.5-0.4-1.1-0.4-1.9h3.5c0,0.3,0,0.5,0.1,0.7c0,0.2,0.1,0.4,0.2,0.6c0.2,0.3,0.6,0.5,1.2,0.5
		c0.4,0,0.8-0.2,1-0.6c0.2-0.4,0.3-0.9,0.3-1.5v-2.5h-0.1c-0.3,0.5-0.6,0.9-1.1,1.1c-0.5,0.3-1,0.4-1.6,0.4c-1,0-1.7-0.2-2.3-0.6
		c-0.5-0.4-0.9-0.9-1.1-1.6c-0.2-0.6-0.3-1.3-0.4-2.1c0-0.8,0-1.5,0-2.2c0-0.7,0-1.4,0.1-2.2c0-0.7,0.2-1.4,0.4-2
		c0.2-0.6,0.6-1.1,1.1-1.5c0.5-0.4,1.2-0.6,2.2-0.6c0.6,0,1.2,0.1,1.7,0.4c0.5,0.3,0.9,0.7,1.1,1.3h0.1v-1.5H178.4z"/>
</g>
<path d="M96.4,58.1h-3.6V45.4h3.6V58.1z M96.4,42.7h-3.6v-2.8h3.6V42.7z"/>
<g>
	<defs>
		<rect id="SVGID_9_" width="201" height="112"/>
	</defs>
	<clipPath id="SVGID_10_">
		<use xlink:href="#SVGID_9_"  style="overflow:visible;"/>
	</clipPath>
	<path class="st4" d="M102.4,46.6L102.4,46.6c0.4-0.6,0.8-1,1.3-1.2c0.5-0.2,1.1-0.4,1.8-0.4c0.4,0,0.8,0.1,1.2,0.2
		c0.4,0.1,0.7,0.3,1,0.5c0.3,0.2,0.5,0.5,0.7,0.9c0.2,0.3,0.3,0.7,0.3,1.2v10.3h-3.6v-8.8c0-0.6-0.1-1.1-0.2-1.4
		c-0.2-0.4-0.5-0.6-1.1-0.6s-0.9,0.2-1.1,0.6c-0.2,0.4-0.2,0.9-0.2,1.4v8.8h-3.6V45.4h3.6V46.6z"/>
</g>
<path d="M120.9,43.4L120.9,43.4l-1.8,7.9h3.7L120.9,43.4z M113.4,58.1l5.1-18.3h5.1l5,18.3h-4.1l-1-4h-5.3l-1,4H113.4z"/>
<g>
	<defs>
		<rect id="SVGID_11_" width="201" height="112"/>
	</defs>
	<clipPath id="SVGID_12_">
		<use xlink:href="#SVGID_11_"  style="overflow:visible;"/>
	</clipPath>
	<path class="st5" d="M135.4,56.8L135.4,56.8c-0.4,0.6-0.8,1-1.3,1.2s-1.1,0.3-1.8,0.3c-0.4,0-0.8-0.1-1.2-0.2
		c-0.4-0.1-0.7-0.3-1-0.5c-0.3-0.2-0.5-0.5-0.7-0.9c-0.2-0.3-0.3-0.7-0.3-1.2V45.4h3.6v8.9c0,0.6,0.1,1,0.2,1.4
		c0.2,0.4,0.5,0.6,1.1,0.6c0.6,0,0.9-0.2,1.1-0.6c0.2-0.4,0.2-0.8,0.2-1.4v-8.9h3.6v10.3c0,0.4,0,0.8,0,1.3c0,0.4,0.1,0.8,0.1,1.3
		h-3.7V56.8z"/>
	<path class="st5" d="M143.9,54c0,0.3,0,0.6,0,0.8c0,0.3,0.1,0.5,0.2,0.7c0.1,0.2,0.3,0.4,0.5,0.5c0.2,0.1,0.5,0.2,0.8,0.2
		s0.7-0.1,0.9-0.3c0.3-0.2,0.4-0.5,0.4-1c0-0.5-0.2-0.8-0.5-1.1c-0.3-0.3-0.7-0.5-1.2-0.8c-0.5-0.2-1-0.5-1.5-0.7
		c-0.5-0.2-1.1-0.5-1.5-0.8c-0.5-0.3-0.9-0.7-1.2-1.1c-0.3-0.4-0.5-1-0.5-1.7c0-0.7,0.2-1.3,0.5-1.7c0.3-0.5,0.7-0.8,1.2-1.1
		c0.5-0.3,1-0.5,1.6-0.6c0.6-0.1,1.2-0.2,1.8-0.2c0.6,0,1.2,0.1,1.8,0.2c0.6,0.2,1.1,0.4,1.5,0.7c0.4,0.3,0.7,0.7,1,1.2
		c0.2,0.5,0.3,1.1,0.3,1.8h-3.5c0-0.9-0.1-1.4-0.4-1.6c-0.1-0.1-0.3-0.2-0.4-0.2c-0.2,0-0.3-0.1-0.5-0.1c-0.4,0-0.7,0.1-0.9,0.4
		c-0.2,0.2-0.3,0.6-0.3,1c0,0.3,0.2,0.6,0.5,0.9c0.3,0.2,0.7,0.5,1.2,0.7c0.5,0.2,1,0.4,1.5,0.7c0.5,0.2,1.1,0.5,1.5,0.9
		c0.5,0.3,0.9,0.7,1.2,1.2c0.3,0.5,0.5,1,0.5,1.7c0,0.6-0.1,1.1-0.3,1.5c-0.2,0.5-0.5,0.9-1,1.2c-0.4,0.4-0.9,0.6-1.5,0.8
		c-0.6,0.2-1.3,0.3-2,0.3c-0.8,0-1.5-0.1-2.1-0.2c-0.6-0.1-1.2-0.3-1.6-0.7c-0.5-0.3-0.8-0.8-1-1.3c-0.2-0.6-0.3-1.3-0.3-2.2H143.9z
		"/>
	<path class="st5" d="M150.4,45.4h1.5v-2l3.6-1.6v3.6h1.9v2.2h-1.9v6.8c0,0.2,0,0.5,0,0.7c0,0.2,0,0.4,0.1,0.5
		c0.1,0.1,0.2,0.2,0.3,0.3c0.2,0.1,0.4,0.1,0.7,0.1h0.3c0.1,0,0.2,0,0.3-0.1v2.2c-0.2,0-0.5,0.1-0.8,0.1s-0.6,0-1.1,0
		c-0.8,0-1.4-0.1-1.9-0.3c-0.5-0.2-0.8-0.5-1.1-0.8c-0.2-0.3-0.4-0.6-0.5-0.9c-0.1-0.3-0.1-0.6-0.1-0.8v-7.9h-1.5V45.4z"/>
	<path class="st5" d="M162.1,45.4V47h0.1c0.3-0.7,0.8-1.2,1.4-1.5c0.6-0.3,1.2-0.4,2-0.4v3.2c-0.8-0.1-1.4,0-1.9,0.2
		c-0.4,0.2-0.8,0.4-1,0.7c-0.2,0.3-0.3,0.6-0.4,1c0,0.4-0.1,0.7-0.1,1v7h-3.6V45.4H162.1z"/>
	<path class="st5" d="M172.6,52c-0.4,0-0.9,0-1.2,0.1c-0.4,0-0.7,0.1-1,0.2c-0.3,0.1-0.5,0.3-0.7,0.6c-0.2,0.3-0.2,0.7-0.2,1.3
		c0,0.2,0,0.5,0,0.7c0,0.2,0.1,0.5,0.2,0.6c0.1,0.2,0.2,0.4,0.4,0.5c0.2,0.1,0.4,0.2,0.7,0.2c0.5,0,0.9-0.2,1.2-0.5
		c0.3-0.3,0.4-0.7,0.5-1.1c0.1-0.4,0.1-0.9,0.1-1.4C172.6,52.7,172.6,52.3,172.6,52 M176.2,55.8c0,0.4,0,0.8,0.1,1.2
		c0,0.4,0.1,0.8,0.1,1.2H173l-0.2-1.7h-0.1c-0.4,0.7-0.9,1.1-1.4,1.5c-0.5,0.3-1.2,0.5-2,0.5c-0.6,0-1.2-0.1-1.6-0.3
		c-0.4-0.2-0.8-0.5-1.1-0.9c-0.3-0.4-0.5-0.8-0.6-1.3c-0.1-0.5-0.2-1-0.2-1.6c0-1.1,0.2-1.9,0.6-2.5c0.4-0.6,0.9-1,1.5-1.3
		c0.6-0.3,1.3-0.4,2.1-0.5c0.8-0.1,1.6-0.1,2.4-0.1v-1c0-0.3,0-0.5,0-0.7c0-0.2-0.1-0.4-0.2-0.6c-0.1-0.2-0.3-0.3-0.4-0.4
		c-0.2-0.1-0.5-0.1-0.8-0.1c-0.3,0-0.6,0.1-0.7,0.2c-0.2,0.1-0.3,0.3-0.4,0.4c-0.1,0.2-0.1,0.4-0.2,0.6c0,0.2,0,0.5,0,0.7h-3.5
		c0-0.8,0.1-1.4,0.3-1.9c0.2-0.5,0.6-0.9,1-1.2c0.4-0.3,0.9-0.5,1.5-0.6c0.6-0.1,1.2-0.2,1.9-0.2c1.1,0,2.1,0.1,2.7,0.3
		c0.7,0.2,1.2,0.5,1.6,0.9s0.6,0.8,0.7,1.4c0.1,0.5,0.2,1.1,0.2,1.6V55.8z"/>
</g>
<rect x="178.7" y="39.9" width="3.6" height="18.3"/>
<path d="M188.6,58.1H185V45.4h3.6V58.1z M188.6,42.7H185v-2.8h3.6V42.7z"/>
<g>
	<defs>
		<rect id="SVGID_13_" width="201" height="112"/>
	</defs>
	<clipPath id="SVGID_14_">
		<use xlink:href="#SVGID_13_"  style="overflow:visible;"/>
	</clipPath>
	<path class="st6" d="M197.3,52c-0.4,0-0.9,0-1.2,0.1c-0.4,0-0.7,0.1-1,0.2c-0.3,0.1-0.5,0.3-0.7,0.6c-0.2,0.3-0.2,0.7-0.2,1.3
		c0,0.2,0,0.5,0,0.7c0,0.2,0.1,0.5,0.2,0.6c0.1,0.2,0.2,0.4,0.4,0.5c0.2,0.1,0.4,0.2,0.7,0.2c0.5,0,0.9-0.2,1.2-0.5
		c0.3-0.3,0.4-0.7,0.5-1.1c0.1-0.4,0.1-0.9,0.1-1.4C197.3,52.7,197.3,52.3,197.3,52 M200.8,55.8c0,0.4,0,0.8,0.1,1.2
		c0,0.4,0.1,0.8,0.1,1.2h-3.3l-0.2-1.7h-0.1c-0.4,0.7-0.9,1.1-1.4,1.5c-0.5,0.3-1.2,0.5-2,0.5c-0.6,0-1.2-0.1-1.6-0.3
		c-0.4-0.2-0.8-0.5-1.1-0.9c-0.3-0.4-0.5-0.8-0.6-1.3c-0.1-0.5-0.2-1-0.2-1.6c0-1.1,0.2-1.9,0.6-2.5c0.4-0.6,0.9-1,1.5-1.3
		c0.6-0.3,1.3-0.4,2.1-0.5c0.8-0.1,1.6-0.1,2.4-0.1v-1c0-0.3,0-0.5,0-0.7c0-0.2-0.1-0.4-0.2-0.6c-0.1-0.2-0.3-0.3-0.4-0.4
		c-0.2-0.1-0.5-0.1-0.8-0.1c-0.3,0-0.6,0.1-0.7,0.2c-0.2,0.1-0.3,0.3-0.4,0.4c-0.1,0.2-0.1,0.4-0.2,0.6c0,0.2,0,0.5,0,0.7H191
		c0-0.8,0.1-1.4,0.3-1.9c0.2-0.5,0.6-0.9,1-1.2c0.4-0.3,0.9-0.5,1.5-0.6c0.6-0.1,1.2-0.2,1.9-0.2c1.1,0,2.1,0.1,2.7,0.3
		c0.7,0.2,1.2,0.5,1.6,0.9s0.6,0.8,0.7,1.4c0.1,0.5,0.2,1.1,0.2,1.6V55.8z"/>
	<path class="st7" d="M201,94.2c-3.1,0-4.7-1-6.1-1.8c-1.4-0.8-2.6-1.5-5.1-1.5c-2.5,0-3.7,0.7-5.1,1.5c-1.4,0.9-3,1.8-6.1,1.8
		s-4.7-1-6.1-1.8c-1.4-0.8-2.6-1.5-5.1-1.5c-2.5,0-3.7,0.7-5.1,1.5c-1.4,0.9-3,1.8-6.1,1.8s-4.7-1-6.1-1.8c-1.4-0.8-2.6-1.5-5.1-1.5
		c-2.5,0-3.7,0.7-5.1,1.5c-1.4,0.9-3,1.8-6.1,1.8s-4.7-1-6.1-1.8c-1.4-0.8-2.6-1.5-5.1-1.5s-3.7,0.7-5.1,1.5c-1.4,0.9-3,1.8-6.1,1.8
		c-3.1,0-4.7-1-6.1-1.8c-1.4-0.8-2.6-1.5-5.1-1.5c-2.5,0-3.7,0.7-5.1,1.5c-1.4,0.9-3,1.8-6.1,1.8c-3.1,0-4.7-1-6.1-1.8
		c-1.4-0.8-2.6-1.5-5.1-1.5s-3.7,0.7-5.1,1.5c-1.4,0.9-3,1.8-6.1,1.8c-3.1,0-4.7-1-6.1-1.8c-1.4-0.8-2.6-1.5-5.1-1.5
		c-2.5,0-3.7,0.7-5.1,1.5c-1.4,0.9-3,1.8-6.1,1.8c-3.1,0-4.7-1-6.1-1.8c-1.4-0.8-2.6-1.5-5.1-1.5c-2.5,0-3.7,0.7-5.1,1.5
		c-1.4,0.9-3,1.8-6.1,1.8c-3.1,0-4.7-1-6.1-1.8c-1.4-0.8-2.6-1.5-5.1-1.5c-2.5,0-3.7,0.7-5.1,1.5c-1.4,0.9-3,1.8-6.1,1.8v-1.9
		c2.5,0,3.7-0.7,5.1-1.5c1.4-0.9,3-1.8,6.1-1.8c3.1,0,4.7,1,6.1,1.8c1.4,0.8,2.6,1.5,5.1,1.5c2.5,0,3.7-0.7,5.1-1.5
		c1.4-0.9,3-1.8,6.1-1.8c3.1,0,4.7,1,6.1,1.8c1.4,0.8,2.6,1.5,5.1,1.5c2.5,0,3.7-0.7,5.1-1.5c1.4-0.9,3-1.8,6.1-1.8
		c3.1,0,4.7,1,6.1,1.8c1.4,0.8,2.6,1.5,5.1,1.5s3.7-0.7,5.1-1.5c1.4-0.9,3-1.8,6.1-1.8c3.1,0,4.7,1,6.1,1.8c1.4,0.8,2.6,1.5,5.1,1.5
		c2.5,0,3.7-0.7,5.1-1.5c1.4-0.9,3-1.8,6.1-1.8c3.1,0,4.7,1,6.1,1.8c1.4,0.8,2.6,1.5,5.1,1.5c2.5,0,3.7-0.7,5.1-1.5
		c1.4-0.9,3-1.8,6.1-1.8c3.1,0,4.7,1,6.1,1.8c1.4,0.8,2.6,1.5,5.1,1.5s3.7-0.7,5.1-1.5c1.4-0.9,3-1.8,6.1-1.8c3.1,0,4.7,1,6.1,1.8
		c1.4,0.8,2.6,1.5,5.1,1.5s3.7-0.7,5.1-1.5c1.4-0.9,3-1.8,6.1-1.8c3.1,0,4.7,1,6.1,1.8c1.4,0.8,2.6,1.5,5.1,1.5
		c2.5,0,3.7-0.7,5.1-1.5c1.4-0.9,3-1.8,6.1-1.8c3.1,0,4.7,1,6.1,1.8c1.4,0.8,2.6,1.5,5.1,1.5V94.2z"/>
	<path class="st7" d="M78.2,95.3c-2.5,0-3.7,0.7-5.1,1.5c-1.4,0.9-3,1.8-6.1,1.8c-3.1,0-4.7-1-6.1-1.8c-1.4-0.8-2.6-1.5-5.1-1.5
		c-2.5,0-3.7,0.7-5.1,1.5c-1.4,0.9-3,1.8-6.1,1.8c-3.1,0-4.7-1-6.1-1.8c-1.4-0.8-2.6-1.5-5.1-1.5s-3.7,0.7-5.1,1.5
		c-1.4,0.9-3,1.8-6.1,1.8c-3.1,0-4.7-1-6.1-1.8c-1.4-0.8-2.6-1.5-5.1-1.5S7.5,96,6.1,96.8c-1.4,0.9-3,1.8-6.1,1.8v-1.9
		c2.5,0,3.7-0.7,5.1-1.5c1.4-0.9,3-1.8,6.1-1.8c3.1,0,4.7,1,6.1,1.8c1.4,0.8,2.6,1.5,5.1,1.5c2.5,0,3.7-0.7,5.1-1.5
		c1.4-0.9,3-1.8,6.1-1.8s4.7,1,6.1,1.8c1.4,0.8,2.6,1.5,5.1,1.5c2.5,0,3.7-0.7,5.1-1.5c1.4-0.9,3-1.8,6.1-1.8c3.1,0,4.7,1,6.1,1.8
		c1.4,0.8,2.6,1.5,5.1,1.5s3.7-0.7,5.1-1.5c1.4-0.9,3-1.8,6.1-1.8V95.3z"/>
	<path class="st7" d="M78.2,99.7c-2.5,0-3.7,0.7-5.1,1.5c-1.4,0.9-3,1.8-6.1,1.8c-3.1,0-4.7-1-6.1-1.8c-1.4-0.8-2.6-1.5-5.1-1.5
		c-2.5,0-3.7,0.7-5.1,1.5c-1.4,0.9-3,1.8-6.1,1.8c-3.1,0-4.7-1-6.1-1.8c-1.4-0.8-2.6-1.5-5.1-1.5s-3.7,0.7-5.1,1.5
		c-1.4,0.9-3,1.8-6.1,1.8c-3.1,0-4.7-1-6.1-1.8c-1.4-0.8-2.6-1.5-5.1-1.5s-3.7,0.7-5.1,1.5c-1.4,0.9-3,1.8-6.1,1.8v-1.9
		c2.5,0,3.7-0.7,5.1-1.5c1.4-0.9,3-1.8,6.1-1.8c3.1,0,4.7,1,6.1,1.8c1.4,0.8,2.6,1.5,5.1,1.5c2.5,0,3.7-0.7,5.1-1.5
		c1.4-0.9,3-1.8,6.1-1.8s4.7,1,6.1,1.8c1.4,0.8,2.6,1.5,5.1,1.5c2.5,0,3.7-0.7,5.1-1.5c1.4-0.9,3-1.8,6.1-1.8c3.1,0,4.7,1,6.1,1.8
		c1.4,0.8,2.6,1.5,5.1,1.5s3.7-0.7,5.1-1.5c1.4-0.9,3-1.8,6.1-1.8V99.7z"/>
	<path class="st7" d="M78.2,104.2c-2.5,0-3.7,0.7-5.1,1.5c-1.4,0.9-3,1.8-6.1,1.8c-3.1,0-4.7-1-6.1-1.8c-1.4-0.8-2.6-1.5-5.1-1.5
		c-2.5,0-3.7,0.7-5.1,1.5c-1.4,0.9-3,1.8-6.1,1.8c-3.1,0-4.7-1-6.1-1.8c-1.4-0.8-2.6-1.5-5.1-1.5s-3.7,0.7-5.1,1.5
		c-1.4,0.9-3,1.8-6.1,1.8c-3.1,0-4.7-1-6.1-1.8c-1.4-0.8-2.6-1.5-5.1-1.5s-3.7,0.7-5.1,1.5c-1.4,0.9-3,1.8-6.1,1.8v-1.9
		c2.5,0,3.7-0.7,5.1-1.5c1.4-0.9,3-1.8,6.1-1.8c3.1,0,4.7,1,6.1,1.8c1.4,0.8,2.6,1.5,5.1,1.5c2.5,0,3.7-0.7,5.1-1.5
		c1.4-0.9,3-1.8,6.1-1.8s4.7,1,6.1,1.8c1.4,0.8,2.6,1.5,5.1,1.5c2.5,0,3.7-0.7,5.1-1.5c1.4-0.9,3-1.8,6.1-1.8c3.1,0,4.7,1,6.1,1.8
		c1.4,0.8,2.6,1.5,5.1,1.5s3.7-0.7,5.1-1.5c1.4-0.9,3-1.8,6.1-1.8V104.2z"/>
	<path class="st7" d="M78.2,108.6c-2.5,0-3.7,0.7-5.1,1.5c-1.4,0.9-3,1.8-6.1,1.8c-3.1,0-4.7-1-6.1-1.8c-1.4-0.8-2.6-1.5-5.1-1.5
		c-2.5,0-3.7,0.7-5.1,1.5c-1.4,0.9-3,1.8-6.1,1.8c-3.1,0-4.7-1-6.1-1.8c-1.4-0.8-2.6-1.5-5.1-1.5s-3.7,0.7-5.1,1.5
		c-1.4,0.9-3,1.8-6.1,1.8c-3.1,0-4.7-1-6.1-1.8c-1.4-0.8-2.6-1.5-5.1-1.5s-3.7,0.7-5.1,1.5C4.7,111,3.1,112,0,112v-1.9
		c2.5,0,3.7-0.7,5.1-1.5c1.4-0.9,3-1.8,6.1-1.8c3.1,0,4.7,1,6.1,1.8c1.4,0.8,2.6,1.5,5.1,1.5c2.5,0,3.7-0.7,5.1-1.5
		c1.4-0.9,3-1.8,6.1-1.8s4.7,1,6.1,1.8c1.4,0.8,2.6,1.5,5.1,1.5c2.5,0,3.7-0.7,5.1-1.5c1.4-0.9,3-1.8,6.1-1.8c3.1,0,4.7,1,6.1,1.8
		c1.4,0.8,2.6,1.5,5.1,1.5s3.7-0.7,5.1-1.5c1.4-0.9,3-1.8,6.1-1.8V108.6z"/>
	<path class="st6" d="M48,70.4c0.2,0.6,0.4,1.2,0.4,1.2l1.2-0.9c-0.6-0.6-1.4-1.3-2.2-1.8C47.6,69.3,47.8,69.9,48,70.4"/>
	<path class="st6" d="M46.2,68.3c-0.6-0.3-1.3-0.6-2-0.8c0.5,1.9,1,4.1,1.2,6.2c0.8-0.5,1.4-0.9,2.2-1.5c-0.1-0.5-0.2-1-0.5-1.6
		C46.9,69.6,46.6,68.9,46.2,68.3"/>
	<path class="st6" d="M16.5,88c0.8,0.5,1.7,1,2.8,1.3c1.4-1.2,3.1-2.6,4-3.3c-0.7-0.6-1.5-0.9-2.1-1.5C20.7,84.8,18.4,86.5,16.5,88"
		/>
	<path class="st6" d="M24.4,86.7c-0.9,0.7-2.3,1.8-3.6,2.9c0.5,0.1,1,0.1,1.5,0.1c0.7,0,1.4-0.1,2-0.2l2-1.7
		C26.4,87.8,25.1,87.1,24.4,86.7"/>
	<path class="st6" d="M41.5,79.9c1.2-0.1,2.4-0.2,3.6-0.5c0-1.4-0.1-2.8-0.2-4.3c-1.2,0.5-2.3,1.2-3.4,1.8
		C41.4,78,41.5,78.9,41.5,79.9"/>
	<path class="st6" d="M48.6,72.5c0.3,2,0.7,3.9,0.7,5.8c0.8-0.2,1.6-0.6,2.4-0.8c0.8-0.4,1.7-0.6,2.4-1.1c-1.1-1.7-2.3-3.7-3.9-5.2
		C49.6,71.6,49.1,72,48.6,72.5"/>
</g>
<polygon points="14,18.7 10.5,8.5 10.4,8.5 6.8,18.7 "/>
<g>
	<defs>
		<rect id="SVGID_15_" width="201" height="112"/>
	</defs>
	<clipPath id="SVGID_16_">
		<use xlink:href="#SVGID_15_"  style="overflow:visible;"/>
	</clipPath>
	<path class="st8" d="M45.8,79.2c0.4,0.1,0.6-0.1,1.1-0.2c0.5-0.1,1.7-0.6,1.7-0.6c0-1.1,0-1.7-0.1-2.7c-0.1-1.1-0.5-2.7-0.5-2.7
		c-0.7,0.4-1.6,1.1-2.3,1.5c-0.1,0.6,0.1,1.3,0,1.9c0.1,0.2,0,0.5,0.1,0.7c-0.1,0.2,0.1,0.5,0,0.7C45.9,78.4,45.7,78.8,45.8,79.2"/>
	<path class="st8" d="M0.5,27.8c1.5-0.1,2.3-1.1,2.8-2.4L12.5,0H0v27.8H0.5z"/>
	<path class="st8" d="M19,65.5c-0.4-0.1-0.9,0.1-1.2,0.4c0.2,1.7,0.3,3.7,0.6,5.4c1.2-1.3,2.4-2.7,3.4-4.2c0.2-0.4,0.4-0.9,0.7-1.4
		c0.1-0.2,0.1-0.5,0.3-0.7c1.5-3.4,0.8-7.2-0.1-10.6c-0.8-3.2-2.9-5.9-5-8.4c-0.6-0.7-1.4-1.4-2.2-2.1c0,0.4,0,0.7,0.1,1
		c0.4,4.1,0.8,8.5,1.3,12.7c-0.1,0.1,0.3,2.9,0.3,3.4c0.1,0.5,0.2,1.4,0.3,2c0.4-0.1,1.2-0.5,1.7-1.1c0.5-0.6,0.7-1.4,0.8-1.8
		c0.2-0.1,0.3-0.2,0.5-0.1c0.1,0.2,0.3,0.3,0.2,0.6c0,0.3-0.3,0.5-0.3,0.8c-0.6,1.2-0.4,2.7,0.1,3.8c0.1,0.2,0,0.5-0.2,0.7
		C19.9,66.3,19.4,65.8,19,65.5"/>
	<path class="st8" d="M16.3,69.3c0.1,1.9,1.1,2.1,1.3,2.2c-0.2-1.6-0.3-3.1-0.5-4.6C16.7,67.5,16.2,68.1,16.3,69.3"/>
	<path class="st8" d="M42.2,67l-0.8-0.1c-0.1,3.1,0.1,6.1,0,9.2c1.1-0.5,2.2-1.2,3.3-1.9c-0.1-2.4-0.7-4.8-1.4-7L42.2,67z"/>
	<path class="st8" d="M49.2,11.1c-2.1,0-2.5,1.8-2.5,5c0,4.8,0.9,5.3,2.5,5.3c1.5,0,2.5-0.3,2.6-5.2C51.7,11.6,51.1,11.1,49.2,11.1"
		/>
	<path class="st8" d="M35.8,79.2l-1.4,0.5c0.2,0,0.9,0.2,1.2,0.1L35.8,79.2z"/>
	<path class="st8" d="M58.1,14.2c-1.2,0-1.9-0.9-1.9-1.8c0-0.8,0.2-1.3,1.1-1.8v-0.1c-1.6,0.2-1.9,1.1-2.7,1.8
		c1.1,1,1.7,2.8,1.7,4.1c0,3.8-3.7,5.8-7.2,5.8c-0.6,0-1.2-0.1-1.7-0.2c-0.4-0.1-0.9-0.2-1.3-0.2c-1.5,0-3.3,1.1-3.3,2.1
		c0,1.1,1.4,1.1,2.4,1.1H52c4-0.1,5.9,1.7,5.9,5.6c0,4.9-3.7,8.7-9.3,8.7c-4.5,0-8-2.3-8-5.3c0-1.9,1.9-3.5,3.5-4v-0.1
		c-1.7-0.5-2.6-2-2.6-4c0-3.3,2.5-4.4,4.1-4.6v-0.1c-2.2-1-3.4-2.7-3.4-4.9c0-3.7,3.7-5.9,7.1-5.9c2.3,0,3.9,0.6,5.1,1.4
		C55,10.9,56,10,57.3,10c1.2,0,2.8,0.7,2.8,2.1C60.1,13.2,59.4,14.2,58.1,14.2 M68.8,29c-5.4,0-9.6-3.8-9.6-9.3
		c0-5.5,4.3-9.3,9.6-9.3c4.6,0,8.4,2.8,9.4,7.1V0H13.4l10.7,27.8h3.5V11.6h-2.8v-0.7h2.8c1.7,0,4.7,0,5.5-1v4.1h0.1
		c0.8-2,2.8-3.8,5.4-3.8c1.9,0,3.2,1.2,3.2,3.1c0,1.5-1.1,2.9-3.1,2.9c-1.6,0-2.8-1-2.8-2.6c0-1,0.3-1.6,1-2.4h-0.2
		c-2.6,1.1-3.5,3.3-3.5,6.4v10.2h3.7v0.7H14v-0.7h3.2l-3-8.4H6.5l-1.9,5.7c-0.1,0.3-0.3,0.8-0.3,1.2c0,1.3,1.1,1.5,1.9,1.5h1.1v0.7
		H0l0,61.2c3.1,0,4.7-1,6.1-1.8c1.3-0.8,2.4-1.4,4.5-1.5c1.9-1.2,4-2.6,5.5-3.5c0.9-0.5,1.5-1,1.7-1.1c-1.3-1.5-2.9-3-3.9-4.7
		c-1.1-1.5-1.3-3.4-1.8-5.1c-0.2-1-0.2-2,0-3.3c0.2-1.2,0.4-1.9,1.1-2.8c1.4-1.9,2.9-2.1,3.6-2.4l0-0.3c-0.3-2.2-0.5-4.3-0.7-6.5
		c0-0.3-0.5-4.3-0.5-5.6c-0.2-1.6-0.4-3.2-0.5-4.7c-0.2-0.9-0.1-1.9-0.4-2.9c-0.3-0.4-0.8-0.2-1.1-0.5c-0.2-0.2,0-0.5,0.3-0.6
		l0.3,0.1c0.2-0.1,0.4,0.1,0.5,0.1c0.8,0.3,6.8,2,13.7,4.5c7.4,2.6,10.4,4.2,11.7,4.8l0-0.6c-0.5-0.1-0.8-0.4-0.8-0.7
		c0-0.4,0.7-0.8,1.5-0.8c0.8,0,1.5,0.3,1.5,0.8c0,0.3-0.4,0.6-0.9,0.7l0,1.1c0.5,0.3,5.2,2.7,8.2,4.8c3.4,2.4,7.1,5.8,8.2,7.1
		c0.1,0.2,0.1,0.4,0.1,0.5c-0.1,0.1-0.1,0.2-0.1,0.3c-0.6,0.2-1.1,0.6-1.4,1.1c-0.8,0.8-1.4,2.1-1.6,3.4c-0.2,0.1,0,0.3-0.1,0.4
		c-0.2,1.2-0.2,2.9,0,4.2c0.1,0.2,0,0.4,0.1,0.6c0.1,0.4,0.2,0.9,0.4,1.2c2.2-1.2,3.8-3.1,4.7-5.3c0.4-1.1-0.4-2.2-0.8-3.2
		c0.1-0.3,0-0.3,0.3-0.4c0.3-0.1,0.8-0.1,1.2-0.3c0.6-0.3,1.1-0.6,1.3-1.1c0.6-0.8,0.4-1.8,0.2-2.6c0,0,0.2-0.2,0.3-0.2
		c0.1,0,0.3,0,0.3,0.1c1.2,1.6,1.5,3.6,1.2,5.6c-0.4,2.1-1.5,3.8-2,5.7c-0.4,2,0.2,4.2,1.9,5.4c0.9,1,1.6,2.2,1.6,3.5v0
		c0,0.4-0.1,0.8-0.3,1.2c-0.1,0.5-0.2,0.9-0.5,1.2c-0.5,1.1-1.5,2.2-2.7,3.3c1.2,0.6,2.7,1.2,5,1.2c3.1,0,4.7-1,6.1-1.8
		c1.4-0.8,2.6-1.5,5.1-1.5V21.9C77.2,26.2,73.4,29,68.8,29"/>
	<path class="st8" d="M65.5,15.3V24c0,3,1.3,4.3,3.3,4.3c2.1,0,3.3-1.2,3.3-4.3v-8.7c0-3-1.3-4.3-3.3-4.3
		C66.7,11.1,65.5,12.3,65.5,15.3"/>
	<path class="st8" d="M15.4,87.4c1.9-1.4,4.1-3,4.8-3.5c-0.4-0.3-0.9-0.7-1.3-1h0c-0.1-0.1-0.2-0.2-0.4-0.3
		c-0.1,0.1-0.2,0.1-0.4,0.3h0c-1,0.6-3.3,2.1-5.5,3.6C13.8,86.6,14.6,87,15.4,87.4"/>
	<path class="st8" d="M48.7,38.4c4.1,0,7.7-2.7,7.7-5.7c0-2.5-1.3-2.8-5.4-2.8h-6.4c-1.1,1.2-1.7,2.3-1.7,4.1
		C43.1,36,45,38.4,48.7,38.4"/>
	<path class="st8" d="M40.1,77.6c-1,0.5-2.2,0.9-3.4,1.3c0,0.3-0.2,0.7-0.3,1c1.3,0.3,2.4,0,3.7,0.1C40.1,79.3,40.2,78.4,40.1,77.6"
		/>
	<path class="st8" d="M19.1,72.9c1.9,1.6,5.1,3.2,7.3,4.3c1.1-0.8,2.7-2.9,4-4.9c1.3-2,2-3.6,2.7-5.3c-3.4,0.8-6.9,1.7-10.2,3.5
		C23,70.4,19.8,72.3,19.1,72.9"/>
	<path class="st8" d="M38.8,66.6c-0.2,3.8-1.1,7.7-1.9,11.4c1.1-0.3,2.1-0.8,3.1-1.3c0-1.1,0-2,0.1-3.2c0-2.4,0-4.6,0-6.8L38.8,66.6
		z"/>
	<path class="st8" d="M30.8,72.9c-1.2,1.9-3,3.8-3.7,4.6c1,0.4,1,0.4,2.1,0.8c2.1-2.1,3.3-3.1,4.7-5.5c1.2-2.2,2.1-6.2,2.1-6.2
		c-0.7,0-1.7,0.2-2.4,0.3C32.9,69.5,32.2,70.7,30.8,72.9"/>
	<path class="st8" d="M36.6,66.6c-0.3,1.7-0.7,4.5-2.1,6.9c-1.6,2.8-4.7,5-4.8,5c0.7,0.3,2.1,0.7,2.8,0.9c1.2-0.2,2.4-0.7,3.5-1
		c0.4-1.3,0.9-3.8,1.4-6.3c0.5-2.9,0.7-5.5,0.7-5.5C37.6,66.4,37,66.7,36.6,66.6"/>
</g>
</svg>
