<?xml version="1.0" encoding="utf-8"?>
<!-- Generator: Adobe Illustrator 18.1.1, SVG Export Plug-In . SVG Version: 6.00 Build 0)  -->
<svg version="1.1" id="Layer_1" xmlns="http://www.w3.org/2000/svg" xmlns:xlink="http://www.w3.org/1999/xlink" x="0px" y="0px"
	 width="223px" height="113px" viewBox="0 0 223 113" enable-background="new 0 0 223 113" xml:space="preserve">
<path fill="#0069A6" d="M77,95.3c-2.5,0-3.6,0.7-5,1.5c-1.4,0.9-3,1.8-6,1.8c-3,0-4.6-1-6-1.8c-1.4-0.8-2.5-1.5-5-1.5
	c-2.5,0-3.6,0.7-5,1.5c-1.4,0.9-3,1.8-6,1.8c-3,0-4.6-1-6-1.8c-1.4-0.8-2.5-1.5-5-1.5c-2.5,0-3.6,0.7-5,1.5c-1.4,0.9-3,1.8-6,1.8
	c-3,0-4.6-1-6-1.8c-1.4-0.8-2.5-1.5-5-1.5c-2.5,0-3.7,0.7-5,1.5c-1.4,0.9-3,1.8-6,1.8v-1.9c2.5,0,3.7-0.7,5-1.5c1.4-0.9,3-1.8,6-1.8
	s4.6,1,6,1.8c1.4,0.8,2.5,1.5,5,1.5c2.5,0,3.6-0.7,5-1.5c1.4-0.9,3-1.8,6-1.8c3,0,4.6,1,6,1.8c1.4,0.8,2.5,1.5,5,1.5
	c2.5,0,3.6-0.7,5-1.5c1.4-0.9,3-1.8,6-1.8c3,0,4.6,1,6,1.8c1.4,0.8,2.5,1.5,5,1.5s3.6-0.7,5-1.5c1.4-0.9,3-1.8,6-1.8V95.3z"/>
<path fill="#0069A6" d="M77,99.7c-2.5,0-3.6,0.7-5,1.5c-1.4,0.9-3,1.8-6,1.8c-3,0-4.6-1-6-1.8c-1.4-0.8-2.5-1.5-5-1.5
	c-2.5,0-3.6,0.7-5,1.5c-1.4,0.9-3,1.8-6,1.8c-3,0-4.6-1-6-1.8c-1.4-0.8-2.5-1.5-5-1.5c-2.5,0-3.6,0.7-5,1.5c-1.4,0.9-3,1.8-6,1.8
	c-3,0-4.6-1-6-1.8c-1.4-0.8-2.5-1.5-5-1.5c-2.5,0-3.7,0.7-5,1.5c-1.4,0.9-3,1.8-6,1.8v-1.9c2.5,0,3.7-0.7,5-1.5c1.4-0.9,3-1.8,6-1.8
	s4.6,1,6,1.8c1.4,0.8,2.5,1.5,5,1.5c2.5,0,3.6-0.7,5-1.5c1.4-0.9,3-1.8,6-1.8c3,0,4.6,1,6,1.8c1.4,0.8,2.5,1.5,5,1.5
	c2.5,0,3.6-0.7,5-1.5c1.4-0.9,3-1.8,6-1.8c3,0,4.6,1,6,1.8c1.4,0.8,2.5,1.5,5,1.5s3.6-0.7,5-1.5c1.4-0.9,3-1.8,6-1.8V99.7z"/>
<path fill="#0069A6" d="M77,104.2c-2.5,0-3.6,0.7-5,1.5c-1.4,0.9-3,1.8-6,1.8c-3,0-4.6-1-6-1.8c-1.4-0.8-2.5-1.5-5-1.5
	c-2.5,0-3.6,0.7-5,1.5c-1.4,0.9-3,1.8-6,1.8c-3,0-4.6-1-6-1.8c-1.4-0.8-2.5-1.5-5-1.5c-2.5,0-3.6,0.7-5,1.5c-1.4,0.9-3,1.8-6,1.8
	c-3,0-4.6-1-6-1.8c-1.4-0.8-2.5-1.5-5-1.5c-2.5,0-3.7,0.7-5,1.5c-1.4,0.9-3,1.8-6,1.8v-1.9c2.5,0,3.7-0.7,5-1.5c1.4-0.9,3-1.8,6-1.8
	s4.6,1,6,1.8c1.4,0.8,2.5,1.5,5,1.5c2.5,0,3.6-0.7,5-1.5c1.4-0.9,3-1.8,6-1.8c3,0,4.6,1,6,1.8c1.4,0.8,2.5,1.5,5,1.5
	c2.5,0,3.6-0.7,5-1.5c1.4-0.9,3-1.8,6-1.8c3,0,4.6,1,6,1.8c1.4,0.8,2.5,1.5,5,1.5s3.6-0.7,5-1.5c1.4-0.9,3-1.8,6-1.8V104.2z"/>
<path fill="#0069A6" d="M77,108.6c-2.5,0-3.6,0.7-5,1.5c-1.4,0.9-3,1.8-6,1.8c-3,0-4.6-1-6-1.8c-1.4-0.8-2.5-1.5-5-1.5
	c-2.5,0-3.6,0.7-5,1.5c-1.4,0.9-3,1.8-6,1.8c-3,0-4.6-1-6-1.8c-1.4-0.8-2.5-1.5-5-1.5c-2.5,0-3.6,0.7-5,1.5c-1.4,0.9-3,1.8-6,1.8
	c-3,0-4.6-1-6-1.8c-1.4-0.8-2.5-1.5-5-1.5c-2.5,0-3.7,0.7-5,1.5C4.6,111,3,112,0,112v-1.9c2.5,0,3.7-0.7,5-1.5c1.4-0.9,3-1.8,6-1.8
	s4.6,1,6,1.8c1.4,0.8,2.5,1.5,5,1.5c2.5,0,3.6-0.7,5-1.5c1.4-0.9,3-1.8,6-1.8c3,0,4.6,1,6,1.8c1.4,0.8,2.5,1.5,5,1.5
	c2.5,0,3.6-0.7,5-1.5c1.4-0.9,3-1.8,6-1.8c3,0,4.6,1,6,1.8c1.4,0.8,2.5,1.5,5,1.5s3.6-0.7,5-1.5c1.4-0.9,3-1.8,6-1.8V108.6z"/>
<path fill="#FFFFFF" d="M77,86.3c-2.5,0-3.6,0.7-5,1.5c-1.4,0.9-3,1.8-6,1.8c-3,0-4.6-1-6-1.8c-1.4-0.8-2.5-1.5-5-1.5
	c-2.5,0-3.6,0.7-5,1.5c-1.4,0.9-3,1.8-6,1.8c-3,0-4.6-1-6-1.8c-1.4-0.8-2.5-1.5-5-1.5c-2.5,0-3.6,0.7-5,1.5c-1.4,0.9-3,1.8-6,1.8
	c-3,0-4.6-1-6-1.8c-1.4-0.8-2.5-1.5-5-1.5c-2.5,0-3.7,0.7-5,1.5c-1.4,0.9-3,1.8-6,1.8L0,0h77V86.3z"/>
<g>
	<path d="M99.6,15.9c0-0.4,0-0.8-0.1-1.2c0-0.4-0.1-0.7-0.3-1c-0.2-0.3-0.4-0.5-0.7-0.7s-0.7-0.3-1.2-0.3c-0.6,0-1,0.2-1.4,0.6
		c-0.3,0.4-0.6,0.9-0.7,1.5S95,16.1,95,16.9c0,0.8,0,1.7,0,2.5c0,1.4,0,2.6,0.1,3.5c0.1,0.9,0.2,1.6,0.4,2c0.2,0.5,0.5,0.8,0.8,1
		c0.4,0.2,0.8,0.3,1.3,0.3c0.3,0,0.6,0,1-0.1c0.3-0.1,0.6-0.2,0.9-0.3v-4h-2.1v-2.8h5.9v9.3c-0.3,0.1-0.6,0.1-1,0.2
		c-0.4,0.1-0.9,0.1-1.4,0.2c-0.5,0.1-1,0.1-1.5,0.2c-0.5,0-0.9,0.1-1.3,0.1c-1.6,0-2.9-0.2-3.8-0.5c-0.9-0.3-1.7-0.9-2.2-1.7
		c-0.5-0.8-0.8-1.8-0.9-3c-0.1-1.2-0.2-2.7-0.2-4.4c0-1.1,0-2.3,0.1-3.4c0.1-1.1,0.3-2.1,0.8-3c0.4-0.9,1-1.6,1.9-2.1
		c0.9-0.5,2.1-0.8,3.6-0.8c0.9,0,1.8,0.1,2.5,0.4c0.7,0.3,1.4,0.6,1.9,1.1c0.5,0.5,0.9,1.1,1.1,1.8c0.2,0.7,0.3,1.6,0.3,2.5H99.6z"
		/>
	<path d="M109.1,10.2v18.3h-3.5V10.2H109.1z"/>
	<path d="M116,28.8c-1.1,0-2.1-0.2-2.7-0.5c-0.7-0.3-1.2-0.8-1.6-1.4c-0.4-0.6-0.6-1.3-0.7-2.2c-0.1-0.8-0.2-1.7-0.2-2.7
		c0-0.9,0-1.7,0.2-2.5c0.1-0.8,0.3-1.5,0.7-2.1c0.4-0.6,0.9-1.1,1.6-1.4c0.7-0.3,1.6-0.5,2.8-0.5c1.2,0,2.1,0.2,2.8,0.5
		c0.7,0.3,1.2,0.8,1.6,1.4c0.4,0.6,0.6,1.3,0.7,2.1c0.1,0.8,0.2,1.6,0.2,2.5c0,1-0.1,1.9-0.2,2.7c-0.1,0.8-0.3,1.6-0.7,2.2
		s-0.9,1.1-1.6,1.4C118,28.6,117.1,28.8,116,28.8z M116,26.5c0.3,0,0.6-0.1,0.8-0.2c0.2-0.1,0.4-0.4,0.5-0.7
		c0.1-0.3,0.2-0.8,0.3-1.4c0.1-0.6,0.1-1.4,0.1-2.4c0-0.7,0-1.2,0-1.7c0-0.5-0.1-0.9-0.2-1.3c-0.1-0.3-0.3-0.6-0.5-0.7
		c-0.2-0.2-0.5-0.3-0.9-0.3c-0.4,0-0.7,0.1-0.9,0.3c-0.2,0.2-0.4,0.4-0.5,0.7c-0.1,0.3-0.2,0.7-0.2,1.3c0,0.5,0,1.1,0,1.7
		c0,1,0,1.8,0.1,2.4c0.1,0.6,0.1,1.1,0.3,1.4c0.1,0.3,0.3,0.6,0.5,0.7C115.3,26.4,115.6,26.5,116,26.5z"/>
	<path d="M122.5,10.2h3.5v6.7h0.1c0.4-0.5,0.8-0.9,1.2-1.1c0.5-0.2,1-0.3,1.6-0.3c0.9,0,1.6,0.2,2,0.7c0.5,0.4,0.8,1,1,1.6
		c0.2,0.7,0.3,1.4,0.4,2.1c0,0.8,0,1.5,0,2.1c0,0.7,0,1.4,0,2.2s-0.1,1.5-0.4,2.2c-0.2,0.7-0.6,1.2-1,1.7c-0.5,0.5-1.2,0.7-2.1,0.7
		c-0.7,0-1.3-0.1-1.8-0.4c-0.5-0.2-0.9-0.7-1.2-1.3h0v1.4h-3.4V10.2z M127.5,26.6c0.6,0,1-0.4,1.2-1.1c0.2-0.7,0.3-1.9,0.3-3.5
		c0-0.6,0-1.2,0-1.8c0-0.5-0.1-1-0.2-1.4c-0.1-0.4-0.2-0.7-0.4-0.9c-0.2-0.2-0.5-0.3-0.9-0.3c-0.4,0-0.6,0.1-0.8,0.3
		c-0.2,0.2-0.3,0.5-0.4,0.9c-0.1,0.4-0.1,0.8-0.2,1.4c0,0.5,0,1.1,0,1.8c0,1.6,0.1,2.8,0.3,3.5C126.5,26.2,126.9,26.6,127.5,26.6z"
		/>
	<path d="M144,26.1c0,0.4,0,0.8,0.1,1.2c0,0.4,0.1,0.8,0.1,1.2h-3.3l-0.2-1.7h-0.1c-0.4,0.7-0.8,1.1-1.4,1.5
		c-0.5,0.3-1.2,0.5-1.9,0.5c-0.6,0-1.1-0.1-1.6-0.3c-0.4-0.2-0.8-0.5-1-0.9c-0.3-0.4-0.5-0.8-0.6-1.3s-0.2-1-0.2-1.6
		c0-1.1,0.2-1.9,0.6-2.5c0.4-0.6,0.9-1,1.5-1.3c0.6-0.3,1.3-0.4,2.1-0.5c0.8-0.1,1.6-0.1,2.4-0.1v-1c0-0.3,0-0.5,0-0.7
		c0-0.2-0.1-0.4-0.2-0.6c-0.1-0.2-0.2-0.3-0.4-0.4c-0.2-0.1-0.4-0.1-0.8-0.1c-0.3,0-0.5,0.1-0.7,0.2c-0.2,0.1-0.3,0.3-0.4,0.4
		c-0.1,0.2-0.1,0.4-0.2,0.6c0,0.2,0,0.5,0,0.7h-3.5c0-0.8,0.1-1.4,0.3-1.9c0.2-0.5,0.5-0.9,1-1.2c0.4-0.3,0.9-0.5,1.4-0.6
		c0.6-0.1,1.2-0.2,1.9-0.2c1.1,0,2,0.1,2.7,0.3c0.7,0.2,1.2,0.5,1.5,0.9c0.4,0.4,0.6,0.8,0.7,1.4c0.1,0.5,0.2,1.1,0.2,1.6V26.1z
		 M140.5,22.3c-0.4,0-0.8,0-1.2,0.1c-0.4,0-0.7,0.1-1,0.2c-0.3,0.1-0.5,0.3-0.6,0.6c-0.2,0.3-0.2,0.7-0.2,1.3c0,0.2,0,0.5,0,0.7
		c0,0.2,0.1,0.5,0.2,0.6c0.1,0.2,0.2,0.4,0.4,0.5c0.2,0.1,0.4,0.2,0.7,0.2c0.5,0,0.9-0.2,1.2-0.5s0.4-0.7,0.5-1.1
		c0.1-0.4,0.1-0.9,0.1-1.4C140.5,23.1,140.5,22.7,140.5,22.3z"/>
	<path d="M149.5,10.2v18.3H146V10.2H149.5z"/>
	<path d="M156.9,28.5V10.2h3.8v15.2h5.7v3H156.9z"/>
	<path d="M171,10.2V13h-3.5v-2.8H171z M171,28.5h-3.5V15.7h3.5V28.5z"/>
	<path d="M176.2,24.4c0,0.3,0,0.6,0,0.8c0,0.3,0.1,0.5,0.2,0.7c0.1,0.2,0.3,0.4,0.5,0.5c0.2,0.1,0.5,0.2,0.8,0.2
		c0.4,0,0.7-0.1,0.9-0.3c0.3-0.2,0.4-0.5,0.4-1c0-0.5-0.2-0.8-0.5-1.1c-0.3-0.3-0.7-0.5-1.2-0.8c-0.5-0.2-1-0.5-1.5-0.7
		s-1-0.5-1.5-0.8c-0.5-0.3-0.8-0.7-1.2-1.1c-0.3-0.4-0.5-1-0.5-1.7c0-0.7,0.2-1.3,0.5-1.7c0.3-0.5,0.7-0.8,1.2-1.1
		c0.5-0.3,1-0.5,1.6-0.6c0.6-0.1,1.2-0.2,1.7-0.2c0.6,0,1.2,0.1,1.7,0.2c0.6,0.2,1,0.4,1.4,0.7c0.4,0.3,0.7,0.7,1,1.2
		c0.2,0.5,0.3,1.1,0.3,1.8h-3.5c0-0.9-0.1-1.4-0.4-1.6c-0.1-0.1-0.3-0.2-0.4-0.2c-0.2,0-0.3-0.1-0.5-0.1c-0.4,0-0.7,0.1-0.9,0.4
		c-0.2,0.2-0.3,0.6-0.3,1c0,0.3,0.2,0.6,0.5,0.9c0.3,0.2,0.7,0.5,1.2,0.7c0.5,0.2,1,0.4,1.5,0.7c0.5,0.2,1,0.5,1.5,0.9
		c0.5,0.3,0.8,0.7,1.2,1.2c0.3,0.5,0.5,1,0.5,1.7c0,0.6-0.1,1.1-0.3,1.5c-0.2,0.5-0.5,0.9-0.9,1.2c-0.4,0.4-0.9,0.6-1.5,0.8
		c-0.6,0.2-1.2,0.3-2,0.3c-0.8,0-1.5-0.1-2.1-0.2c-0.6-0.1-1.2-0.3-1.6-0.7s-0.8-0.8-1-1.3c-0.2-0.6-0.3-1.3-0.3-2.2H176.2z"/>
	<path d="M182.3,15.7h1.4v-2l3.5-1.6v3.6h1.8v2.2h-1.8v6.8c0,0.2,0,0.5,0,0.7c0,0.2,0,0.4,0.1,0.5c0.1,0.1,0.2,0.2,0.3,0.3
		c0.2,0.1,0.4,0.1,0.7,0.1c0.1,0,0.2,0,0.3,0c0.1,0,0.2,0,0.3-0.1v2.2c-0.2,0-0.5,0.1-0.8,0.1c-0.3,0-0.6,0-1.1,0
		c-0.8,0-1.4-0.1-1.8-0.3s-0.8-0.5-1-0.8c-0.2-0.3-0.4-0.6-0.5-0.9c-0.1-0.3-0.1-0.6-0.1-0.8v-7.9h-1.4V15.7z"/>
	<path d="M193.3,22.7c0,0.4,0,0.8,0,1.2c0,0.4,0.1,0.8,0.2,1.2c0.1,0.4,0.3,0.7,0.5,0.9c0.2,0.3,0.5,0.4,0.9,0.4
		c0.3,0,0.6-0.1,0.8-0.2c0.2-0.1,0.3-0.3,0.5-0.5c0.1-0.2,0.2-0.5,0.2-0.7c0-0.3,0.1-0.5,0.1-0.8h3.6c0,1.4-0.5,2.5-1.4,3.3
		c-0.4,0.4-0.9,0.7-1.6,0.9c-0.6,0.2-1.3,0.3-2.2,0.3c-1.1,0-2.1-0.2-2.7-0.5c-0.7-0.3-1.2-0.8-1.6-1.4s-0.6-1.3-0.7-2.2
		c-0.1-0.8-0.2-1.7-0.2-2.7c0-0.9,0-1.7,0.2-2.5c0.1-0.8,0.3-1.5,0.7-2.1c0.4-0.6,0.9-1.1,1.6-1.4c0.7-0.3,1.6-0.5,2.8-0.5
		c1.2,0,2.1,0.2,2.8,0.6c0.7,0.4,1.2,0.9,1.6,1.5c0.4,0.6,0.6,1.4,0.7,2.3c0.1,0.9,0.1,1.8,0.1,2.9H193.3z M196.5,20.7
		c0-0.3,0-0.6,0-1c0-0.4-0.1-0.7-0.2-1c-0.1-0.3-0.3-0.6-0.5-0.7c-0.2-0.2-0.6-0.3-1-0.3c-0.4,0-0.7,0.1-0.9,0.3
		c-0.2,0.2-0.4,0.5-0.5,0.8c-0.1,0.3-0.2,0.6-0.2,1c0,0.3,0,0.7,0,0.9H196.5z"/>
	<path d="M208.2,28.5v-1.4h-0.1c-0.3,0.6-0.7,1.1-1.2,1.3c-0.5,0.2-1.1,0.4-1.8,0.4c-0.9,0-1.6-0.2-2.1-0.7c-0.5-0.5-0.8-1-1-1.7
		c-0.2-0.7-0.3-1.4-0.4-2.2s0-1.5,0-2.2c0-0.6,0-1.3,0-2.1c0-0.8,0.1-1.5,0.4-2.1c0.2-0.7,0.6-1.2,1-1.6c0.5-0.4,1.2-0.7,2-0.7
		c0.6,0,1.2,0.1,1.6,0.3c0.5,0.2,0.9,0.6,1.2,1.1h0.1v-6.7h3.5v18.3H208.2z M206.6,26.6c0.6,0,1-0.4,1.2-1.1
		c0.2-0.7,0.3-1.9,0.3-3.5c0-0.6,0-1.2,0-1.8c0-0.5-0.1-1-0.2-1.4c-0.1-0.4-0.2-0.7-0.4-0.9c-0.2-0.2-0.5-0.3-0.8-0.3
		c-0.4,0-0.7,0.1-0.9,0.3c-0.2,0.2-0.3,0.5-0.4,0.9c-0.1,0.4-0.1,0.8-0.2,1.4c0,0.5,0,1.1,0,1.8c0,1.6,0.1,2.8,0.3,3.5
		C205.5,26.2,205.9,26.6,206.6,26.6z"/>
	<path d="M91.3,58.1V39.9h3.8v18.3H91.3z"/>
	<path d="M100.9,46.6L100.9,46.6c0.4-0.6,0.8-1,1.3-1.2c0.5-0.2,1-0.4,1.7-0.4c0.4,0,0.8,0.1,1.2,0.2c0.4,0.1,0.7,0.3,1,0.5
		c0.3,0.2,0.5,0.5,0.7,0.9c0.2,0.3,0.3,0.7,0.3,1.2v10.2h-3.5v-8.8c0-0.6-0.1-1.1-0.2-1.4c-0.2-0.4-0.5-0.6-1.1-0.6
		c-0.6,0-0.9,0.2-1.1,0.6c-0.2,0.4-0.2,0.9-0.2,1.4v8.8h-3.5V45.4h3.5V46.6z"/>
	<path d="M114.6,42.1c-0.7-0.1-1.2,0.1-1.4,0.4c-0.2,0.3-0.3,0.8-0.3,1.4v1.5h1.7v2.2h-1.7v10.6h-3.5V47.6h-1.6v-2.2h1.6
		c0-0.9,0-1.7,0-2.4c0-0.7,0.1-1.3,0.4-1.8c0.2-0.5,0.6-0.8,1.2-1.1c0.6-0.2,1.4-0.4,2.5-0.4c0.2,0,0.4,0,0.6,0c0.2,0,0.4,0,0.6,0
		V42.1z"/>
	<path d="M118.8,45.4V47h0c0.3-0.7,0.8-1.2,1.4-1.5c0.6-0.3,1.2-0.4,1.9-0.4v3.2c-0.8-0.1-1.4,0-1.8,0.2c-0.4,0.2-0.7,0.4-0.9,0.7
		c-0.2,0.3-0.3,0.6-0.4,1c0,0.4-0.1,0.7-0.1,1v7h-3.5V45.4H118.8z"/>
	<path d="M132.7,55.8c0,0.4,0,0.8,0.1,1.2c0,0.4,0.1,0.8,0.1,1.2h-3.3l-0.2-1.7h-0.1c-0.4,0.7-0.8,1.1-1.4,1.5
		c-0.5,0.3-1.2,0.5-1.9,0.5c-0.6,0-1.1-0.1-1.6-0.3c-0.4-0.2-0.8-0.5-1-0.9c-0.3-0.4-0.5-0.8-0.6-1.3c-0.1-0.5-0.2-1-0.2-1.6
		c0-1.1,0.2-1.9,0.6-2.5c0.4-0.6,0.9-1,1.5-1.3c0.6-0.3,1.3-0.4,2.1-0.5c0.8-0.1,1.6-0.1,2.4-0.1v-1c0-0.3,0-0.5,0-0.7
		c0-0.2-0.1-0.4-0.2-0.6c-0.1-0.2-0.2-0.3-0.4-0.4c-0.2-0.1-0.4-0.1-0.8-0.1c-0.3,0-0.5,0.1-0.7,0.2c-0.2,0.1-0.3,0.3-0.4,0.4
		c-0.1,0.2-0.1,0.4-0.2,0.6c0,0.2,0,0.5,0,0.7h-3.5c0-0.8,0.1-1.4,0.3-1.9s0.5-0.9,1-1.2c0.4-0.3,0.9-0.5,1.4-0.6
		c0.6-0.1,1.2-0.2,1.9-0.2c1.1,0,2,0.1,2.7,0.3s1.2,0.5,1.5,0.9c0.4,0.4,0.6,0.8,0.7,1.4c0.1,0.5,0.2,1.1,0.2,1.6V55.8z M129.2,52
		c-0.4,0-0.8,0-1.2,0.1c-0.4,0-0.7,0.1-1,0.2c-0.3,0.1-0.5,0.3-0.6,0.6c-0.2,0.3-0.2,0.7-0.2,1.3c0,0.2,0,0.5,0,0.7
		c0,0.2,0.1,0.5,0.2,0.6c0.1,0.2,0.2,0.4,0.4,0.5c0.2,0.1,0.4,0.2,0.7,0.2c0.5,0,0.9-0.2,1.2-0.5c0.3-0.3,0.4-0.7,0.5-1.1
		c0.1-0.4,0.1-0.9,0.1-1.4C129.2,52.7,129.2,52.3,129.2,52z"/>
	<path d="M137.6,54c0,0.3,0,0.6,0,0.8s0.1,0.5,0.2,0.7c0.1,0.2,0.3,0.4,0.5,0.5c0.2,0.1,0.5,0.2,0.8,0.2c0.4,0,0.7-0.1,0.9-0.3
		c0.3-0.2,0.4-0.5,0.4-1c0-0.5-0.2-0.8-0.5-1.1c-0.3-0.3-0.7-0.5-1.2-0.8c-0.5-0.2-1-0.5-1.5-0.7c-0.5-0.2-1-0.5-1.5-0.8
		c-0.5-0.3-0.8-0.7-1.2-1.1c-0.3-0.4-0.5-1-0.5-1.7c0-0.7,0.2-1.3,0.5-1.7c0.3-0.5,0.7-0.8,1.2-1.1s1-0.5,1.6-0.6
		c0.6-0.1,1.2-0.2,1.7-0.2c0.6,0,1.2,0.1,1.7,0.2c0.6,0.2,1,0.4,1.4,0.7c0.4,0.3,0.7,0.7,1,1.2c0.2,0.5,0.3,1.1,0.3,1.8h-3.5
		c0-0.9-0.1-1.4-0.4-1.6c-0.1-0.1-0.3-0.2-0.4-0.2c-0.2,0-0.3-0.1-0.5-0.1c-0.4,0-0.7,0.1-0.9,0.4c-0.2,0.2-0.3,0.6-0.3,1
		c0,0.3,0.2,0.6,0.5,0.9c0.3,0.2,0.7,0.5,1.2,0.7c0.5,0.2,1,0.4,1.5,0.7c0.5,0.2,1,0.5,1.5,0.9c0.5,0.3,0.8,0.7,1.2,1.2
		c0.3,0.5,0.5,1,0.5,1.7c0,0.6-0.1,1.1-0.3,1.5c-0.2,0.5-0.5,0.9-0.9,1.2c-0.4,0.4-0.9,0.6-1.5,0.8c-0.6,0.2-1.2,0.3-2,0.3
		c-0.8,0-1.5-0.1-2.1-0.2c-0.6-0.1-1.2-0.3-1.6-0.7c-0.4-0.3-0.8-0.8-1-1.3c-0.2-0.6-0.3-1.3-0.3-2.2H137.6z"/>
	<path d="M144.3,45.4h1.4v-2l3.5-1.6v3.6h1.8v2.2h-1.8v6.8c0,0.2,0,0.5,0,0.7c0,0.2,0,0.4,0.1,0.5c0.1,0.1,0.2,0.2,0.3,0.3
		c0.2,0.1,0.4,0.1,0.7,0.1c0.1,0,0.2,0,0.3,0c0.1,0,0.2,0,0.3,0v2.2c-0.2,0-0.5,0.1-0.8,0.1c-0.3,0-0.6,0-1.1,0
		c-0.8,0-1.4-0.1-1.8-0.3c-0.5-0.2-0.8-0.5-1-0.8c-0.2-0.3-0.4-0.6-0.5-0.9c-0.1-0.3-0.1-0.6-0.1-0.8v-7.9h-1.4V45.4z"/>
	<path d="M155.9,45.4V47h0c0.3-0.7,0.8-1.2,1.4-1.5c0.6-0.3,1.2-0.4,1.9-0.4v3.2c-0.8-0.1-1.4,0-1.8,0.2c-0.4,0.2-0.7,0.4-0.9,0.7
		c-0.2,0.3-0.3,0.6-0.4,1c0,0.4-0.1,0.7-0.1,1v7h-3.5V45.4H155.9z"/>
	<path d="M166.3,56.8L166.3,56.8c-0.4,0.6-0.8,1-1.3,1.2c-0.5,0.2-1.1,0.3-1.7,0.3c-0.4,0-0.8-0.1-1.2-0.2c-0.4-0.1-0.7-0.3-1-0.5
		c-0.3-0.2-0.5-0.5-0.7-0.9c-0.2-0.3-0.3-0.7-0.3-1.2V45.4h3.5v8.9c0,0.6,0.1,1,0.2,1.4c0.2,0.4,0.5,0.6,1.1,0.6
		c0.6,0,0.9-0.2,1.1-0.6c0.2-0.4,0.2-0.8,0.2-1.4v-8.9h3.5v10.2c0,0.4,0,0.8,0,1.3s0.1,0.8,0.1,1.3h-3.7V56.8z"/>
	<path d="M178.4,49.9c0-1-0.1-1.6-0.4-2c-0.3-0.4-0.7-0.5-1.2-0.5c-0.4,0-0.7,0.1-0.9,0.3c-0.2,0.2-0.4,0.4-0.5,0.7
		c-0.1,0.3-0.2,0.7-0.2,1.3c0,0.5,0,1.1,0,1.7c0,1,0,1.8,0.1,2.4c0.1,0.6,0.1,1.1,0.3,1.4c0.1,0.3,0.3,0.6,0.5,0.7
		c0.2,0.1,0.5,0.2,0.8,0.2c0.6,0,1-0.2,1.2-0.7c0.3-0.5,0.4-1.1,0.4-2h3.5c0,1.7-0.4,3-1.3,3.8c-0.9,0.8-2.2,1.2-3.8,1.2
		c-1.1,0-2.1-0.2-2.7-0.5c-0.7-0.3-1.2-0.8-1.6-1.4c-0.4-0.6-0.6-1.3-0.7-2.2c-0.1-0.8-0.2-1.7-0.2-2.7c0-0.9,0-1.7,0.2-2.5
		c0.1-0.8,0.3-1.5,0.7-2.1c0.4-0.6,0.9-1.1,1.6-1.4c0.7-0.3,1.6-0.5,2.8-0.5c1.6,0,2.9,0.4,3.8,1.2c0.9,0.8,1.3,2,1.3,3.7H178.4z"/>
	<path d="M182.3,45.4h1.4v-2l3.5-1.6v3.6h1.8v2.2h-1.8v6.8c0,0.2,0,0.5,0,0.7c0,0.2,0,0.4,0.1,0.5c0.1,0.1,0.2,0.2,0.3,0.3
		c0.2,0.1,0.4,0.1,0.7,0.1c0.1,0,0.2,0,0.3,0c0.1,0,0.2,0,0.3,0v2.2c-0.2,0-0.5,0.1-0.8,0.1c-0.3,0-0.6,0-1.1,0
		c-0.8,0-1.4-0.1-1.8-0.3c-0.5-0.2-0.8-0.5-1-0.8c-0.2-0.3-0.4-0.6-0.5-0.9c-0.1-0.3-0.1-0.6-0.1-0.8v-7.9h-1.4V45.4z"/>
	<path d="M196.7,56.8L196.7,56.8c-0.4,0.6-0.8,1-1.3,1.2c-0.5,0.2-1.1,0.3-1.7,0.3c-0.4,0-0.8-0.1-1.2-0.2c-0.4-0.1-0.7-0.3-1-0.5
		c-0.3-0.2-0.5-0.5-0.7-0.9c-0.2-0.3-0.3-0.7-0.3-1.2V45.4h3.5v8.9c0,0.6,0.1,1,0.2,1.4c0.2,0.4,0.5,0.6,1.1,0.6
		c0.6,0,0.9-0.2,1.1-0.6c0.2-0.4,0.2-0.8,0.2-1.4v-8.9h3.5v10.2c0,0.4,0,0.8,0,1.3s0.1,0.8,0.1,1.3h-3.7V56.8z"/>
	<path d="M205.7,45.4V47h0c0.3-0.7,0.8-1.2,1.4-1.5c0.6-0.3,1.2-0.4,1.9-0.4v3.2c-0.8-0.1-1.4,0-1.8,0.2c-0.4,0.2-0.7,0.4-0.9,0.7
		c-0.2,0.3-0.3,0.6-0.4,1c0,0.4-0.1,0.7-0.1,1v7h-3.5V45.4H205.7z"/>
	<path d="M213.2,52.3c0,0.4,0,0.8,0,1.2c0,0.4,0.1,0.8,0.2,1.2c0.1,0.4,0.3,0.7,0.5,0.9c0.2,0.3,0.5,0.4,0.9,0.4
		c0.3,0,0.6-0.1,0.8-0.2c0.2-0.1,0.3-0.3,0.5-0.5c0.1-0.2,0.2-0.5,0.2-0.7c0-0.3,0.1-0.5,0.1-0.8h3.6c0,1.4-0.5,2.5-1.4,3.3
		c-0.4,0.4-0.9,0.7-1.6,0.9c-0.6,0.2-1.3,0.3-2.2,0.3c-1.1,0-2.1-0.2-2.7-0.5c-0.7-0.3-1.2-0.8-1.6-1.4c-0.4-0.6-0.6-1.3-0.7-2.2
		c-0.1-0.8-0.2-1.7-0.2-2.7c0-0.9,0-1.7,0.2-2.5c0.1-0.8,0.3-1.5,0.7-2.1c0.4-0.6,0.9-1.1,1.6-1.4c0.7-0.3,1.6-0.5,2.8-0.5
		c1.2,0,2.1,0.2,2.8,0.6c0.7,0.4,1.2,0.9,1.6,1.5c0.4,0.6,0.6,1.4,0.7,2.3c0.1,0.9,0.1,1.8,0.1,2.9H213.2z M216.4,50.3
		c0-0.3,0-0.6,0-1c0-0.4-0.1-0.7-0.2-1c-0.1-0.3-0.3-0.6-0.5-0.7c-0.2-0.2-0.6-0.3-1-0.3c-0.4,0-0.7,0.1-0.9,0.3
		c-0.2,0.2-0.4,0.5-0.5,0.8c-0.1,0.3-0.2,0.6-0.2,1c0,0.3,0,0.7,0,0.9H216.4z"/>
</g>
<path fill="#0069A6" d="M220,94.2c-3,0-4.6-1-6-1.8c-1.4-0.8-2.5-1.5-5-1.5s-3.6,0.7-5,1.5c-1.4,0.9-3,1.8-6,1.8c-3,0-4.6-1-6-1.8
	c-1.4-0.8-2.5-1.5-5-1.5c-2.5,0-3.6,0.7-5,1.5c-1.4,0.9-3,1.8-6,1.8s-4.6-1-6-1.8c-1.4-0.8-2.5-1.5-5-1.5c-2.5,0-3.6,0.7-5,1.5
	c-1.4,0.9-3,1.8-6,1.8c-3,0-4.6-1-6-1.8c-1.4-0.8-2.5-1.5-5-1.5c-2.5,0-3.6,0.7-5,1.5c-1.4,0.9-3,1.8-6,1.8c-3,0-4.6-1-6-1.8
	c-1.4-0.8-2.5-1.5-5-1.5s-3.6,0.7-5,1.5c-1.4,0.9-3,1.8-6,1.8c-3,0-4.6-1-6-1.8c-1.4-0.8-2.5-1.5-5-1.5c-2.5,0-3.6,0.7-5,1.5
	c-1.4,0.9-3,1.8-6,1.8c-3,0-4.6-1-6-1.8c-1.4-0.8-2.5-1.5-5-1.5c-2.5,0-3.6,0.7-5,1.5c-1.4,0.9-3,1.8-6,1.8c-3,0-4.6-1-6-1.8
	c-1.4-0.8-2.5-1.5-5-1.5c-2.5,0-3.6,0.7-5,1.5c-1.4,0.9-3,1.8-6,1.8c-3,0-4.6-1-6-1.8c-1.4-0.8-2.5-1.5-5-1.5c-2.5,0-3.6,0.7-5,1.5
	c-1.4,0.9-3,1.8-6,1.8c-3,0-4.6-1-6-1.8c-1.4-0.8-2.5-1.5-5-1.5c-2.5,0-3.7,0.7-5,1.5c-1.4,0.9-3,1.8-6,1.8v-1.9
	c2.5,0,3.7-0.7,5-1.5c1.4-0.9,3-1.8,6-1.8s4.6,1,6,1.8c1.4,0.8,2.5,1.5,5,1.5c2.5,0,3.6-0.7,5-1.5c1.4-0.9,3-1.8,6-1.8
	c3,0,4.6,1,6,1.8c1.4,0.8,2.5,1.5,5,1.5c2.5,0,3.6-0.7,5-1.5c1.4-0.9,3-1.8,6-1.8c3,0,4.6,1,6,1.8c1.4,0.8,2.5,1.5,5,1.5
	s3.6-0.7,5-1.5c1.4-0.9,3-1.8,6-1.8c3,0,4.6,1,6,1.8c1.4,0.8,2.5,1.5,5,1.5c2.5,0,3.6-0.7,5-1.5c1.4-0.9,3-1.8,6-1.8
	c3,0,4.6,1,6,1.8c1.4,0.8,2.5,1.5,5,1.5c2.5,0,3.6-0.7,5-1.5c1.4-0.9,3-1.8,6-1.8c3,0,4.6,1,6,1.8c1.4,0.8,2.5,1.5,5,1.5
	c2.5,0,3.6-0.7,5-1.5c1.4-0.9,3-1.8,6-1.8c3,0,4.6,1,6,1.8c1.4,0.8,2.5,1.5,5,1.5c2.5,0,3.6-0.7,5-1.5c1.4-0.9,3-1.8,6-1.8
	c3,0,4.6,1,6,1.8c1.4,0.8,2.5,1.5,5,1.5s3.6-0.7,5-1.5c1.4-0.9,3-1.8,6-1.8c3,0,4.6,1,6,1.8c1.4,0.8,2.5,1.5,5,1.5
	c2.5,0,3.6-0.7,5-1.5c1.4-0.9,3-1.8,6-1.8s4.6,1,6,1.8c1.4,0.8,2.5,1.5,5,1.5V94.2z"/>
<g>
	<path d="M47.3,70.4c0.2,0.6,0.4,1.2,0.4,1.2l1.2-0.9c-0.6-0.7-1.4-1.3-2.2-1.8C46.9,69.3,47.1,69.9,47.3,70.4z"/>
	<path d="M45.5,68.3c-0.6-0.3-1.2-0.6-1.9-0.8c0.5,1.9,1,4.1,1.2,6.2c0.8-0.5,1.4-0.9,2.2-1.5c-0.1-0.5-0.2-1-0.5-1.6
		C46.2,69.6,45.9,68.9,45.5,68.3z"/>
	<path d="M16.3,88c0.8,0.5,1.6,1,2.8,1.3c1.4-1.2,3.1-2.6,4-3.3c-0.6-0.6-1.5-0.9-2.1-1.5C20.4,84.8,18.2,86.5,16.3,88z"/>
	<path d="M24,86.7c-0.9,0.7-2.3,1.8-3.5,2.9c0.5,0.1,0.9,0.1,1.5,0.1c0.7,0,1.4-0.1,2-0.2l2-1.7C26,87.8,24.7,87.1,24,86.7z"/>
	<path d="M40.9,79.9c1.2-0.1,2.4-0.2,3.6-0.5c0-1.4-0.1-2.8-0.2-4.3c-1.2,0.5-2.3,1.2-3.4,1.8C40.8,78,40.9,78.9,40.9,79.9z"/>
	<path d="M47.9,72.5c0.3,2,0.7,3.9,0.7,5.8c0.8-0.2,1.5-0.6,2.4-0.8c0.8-0.4,1.7-0.6,2.4-1.1c-1.1-1.7-2.3-3.7-3.8-5.2
		C48.9,71.6,48.4,72,47.9,72.5z"/>
	<polygon points="13.8,18.7 10.3,8.5 10.2,8.5 6.7,18.7 	"/>
	<path d="M45.1,79.2c0.4,0.1,0.6-0.1,1.1-0.2c0.5-0.1,1.7-0.6,1.7-0.6c0-1.1,0-1.7-0.1-2.7c-0.1-1.1-0.5-2.7-0.5-2.7
		c-0.7,0.4-1.5,1.1-2.2,1.5c-0.1,0.6,0.1,1.3,0,1.9c0.1,0.2,0,0.5,0.1,0.7c-0.1,0.2,0.1,0.5,0,0.7C45.2,78.4,45,78.8,45.1,79.2z"/>
	<path d="M0.5,27.8c1.5-0.1,2.2-1.1,2.7-2.4L12.3,0H0l0,27.8H0.5z"/>
	<path d="M18.8,65.5c-0.4-0.1-0.9,0.1-1.2,0.4c0.2,1.7,0.3,3.7,0.6,5.4c1.2-1.3,2.3-2.7,3.3-4.2c0.2-0.4,0.4-0.9,0.7-1.4
		c0.1-0.2,0.1-0.5,0.3-0.7c1.5-3.4,0.8-7.2-0.1-10.6c-0.8-3.2-2.8-5.9-4.9-8.4c-0.6-0.8-1.4-1.4-2.2-2.1c0,0.4,0,0.7,0.1,1
		c0.4,4.1,0.8,8.6,1.3,12.7c-0.1,0.1,0.3,2.9,0.3,3.4c0.1,0.5,0.2,1.4,0.3,2c0.4-0.1,1.2-0.5,1.7-1.1c0.5-0.6,0.7-1.4,0.8-1.9
		c0.2-0.1,0.3-0.2,0.5-0.1c0.1,0.2,0.3,0.3,0.2,0.6c0,0.3-0.3,0.5-0.3,0.8c-0.6,1.2-0.4,2.7,0.1,3.8c0.1,0.2,0,0.5-0.2,0.7
		C19.6,66.3,19.1,65.8,18.8,65.5z"/>
	<path d="M16,69.3c0.1,1.9,1.1,2.1,1.3,2.2c-0.2-1.6-0.3-3.1-0.5-4.6C16.5,67.5,16,68.1,16,69.3z"/>
	<path d="M41.6,67l-0.8-0.1c-0.1,3.1,0.1,6.1,0,9.2c1.1-0.5,2.2-1.2,3.2-1.9c-0.1-2.4-0.7-4.8-1.4-7L41.6,67z"/>
	<path d="M48.5,11.1c-2.1,0-2.4,1.8-2.4,5c0,4.8,0.8,5.3,2.4,5.3c1.4,0,2.5-0.3,2.5-5.2C50.9,11.6,50.3,11.1,48.5,11.1z"/>
	<path d="M35.3,79.2L34,79.7c0.2,0,0.9,0.2,1.2,0.1L35.3,79.2z"/>
	<path d="M67.8,29c-5.3,0-9.5-3.8-9.5-9.3c0-5.5,4.2-9.3,9.5-9.3c4.5,0,8.3,2.8,9.2,7.1V0H13.2l10.5,27.8h3.4V11.6h-2.8v-0.7h2.8
		c1.6,0,4.6,0,5.4-1v4.1h0.1c0.8-2,2.7-3.8,5.3-3.8c1.9,0,3.2,1.2,3.2,3.1c0,1.5-1.1,2.9-3,2.9c-1.6,0-2.7-1-2.7-2.6
		c0-1,0.3-1.6,1-2.4h-0.2c-2.5,1.1-3.5,3.3-3.5,6.4v10.2h3.7v0.7H13.8v-0.7H17l-2.9-8.4H6.4l-1.9,5.7c-0.1,0.3-0.3,0.8-0.3,1.2
		c0,1.3,1.1,1.5,1.9,1.5h1.1v0.7H0l0,61.2c3,0,4.6-1,6-1.8c1.2-0.8,2.3-1.4,4.4-1.5c1.9-1.2,3.9-2.6,5.4-3.5c0.8-0.5,1.5-1,1.7-1.1
		c-1.2-1.5-2.9-3-3.8-4.7c-1.1-1.5-1.3-3.4-1.8-5.1c-0.2-1-0.2-2,0-3.3c0.2-1.2,0.4-1.9,1.1-2.8c1.3-1.9,2.9-2.1,3.6-2.4l0-0.3
		c-0.3-2.2-0.5-4.3-0.7-6.5c0-0.3-0.5-4.3-0.5-5.7c-0.2-1.6-0.4-3.2-0.5-4.7c-0.2-0.9-0.1-1.9-0.4-2.9c-0.3-0.4-0.8-0.2-1.1-0.5
		c-0.2-0.2,0-0.5,0.2-0.6l0.3,0.1c0.2-0.1,0.4,0.1,0.5,0.1c0.8,0.3,6.7,2,13.5,4.5c7.3,2.6,10.2,4.2,11.6,4.8l0-0.6
		c-0.5-0.1-0.8-0.4-0.8-0.7c0-0.4,0.7-0.8,1.5-0.8c0.8,0,1.5,0.3,1.5,0.8c0,0.3-0.4,0.6-0.9,0.7l0,1.1c0.5,0.3,5.1,2.7,8.1,4.8
		c3.4,2.4,7,5.8,8,7.1c0.1,0.2,0.1,0.4,0.1,0.5C57,64.8,57,64.9,56.9,65c-0.5,0.2-1.1,0.6-1.4,1.1c-0.8,0.8-1.3,2.1-1.6,3.4
		c-0.2,0.1,0,0.3-0.1,0.4c-0.2,1.2-0.2,2.9,0,4.2c0.1,0.2,0,0.4,0.1,0.6c0.1,0.4,0.2,0.9,0.4,1.2c2.2-1.2,3.7-3.1,4.7-5.3
		c0.4-1.1-0.4-2.2-0.8-3.2c0-0.3,0-0.3,0.2-0.4c0.3-0.1,0.8-0.1,1.2-0.4c0.6-0.3,1.1-0.6,1.3-1.1c0.5-0.8,0.4-1.8,0.2-2.6
		c0,0,0.2-0.2,0.3-0.2c0.1,0,0.3,0,0.3,0.1c1.1,1.6,1.5,3.6,1.2,5.6c-0.4,2.1-1.5,3.8-2,5.7c-0.4,2,0.2,4.2,1.9,5.4
		c0.9,1,1.6,2.2,1.6,3.5v0c0,0.4-0.1,0.8-0.3,1.2c-0.1,0.5-0.2,0.9-0.5,1.2c-0.5,1.1-1.5,2.2-2.6,3.3c1.2,0.6,2.6,1.2,4.9,1.2
		c3,0,4.6-1,6-1.8c1.4-0.8,2.5-1.5,5-1.5V21.9C76.1,26.2,72.3,29,67.8,29z M57.2,14.2c-1.2,0-1.8-0.9-1.8-1.8c0-0.8,0.2-1.3,1.1-1.8
		v-0.1c-1.6,0.2-1.9,1.1-2.6,1.8c1.1,1,1.7,2.8,1.7,4.1c0,3.8-3.7,5.8-7.1,5.8c-0.6,0-1.2-0.1-1.6-0.2c-0.4-0.1-0.9-0.2-1.3-0.2
		c-1.5,0-3.2,1.1-3.2,2.1c0,1.1,1.4,1.1,2.4,1.1h6.6c3.9-0.1,5.8,1.7,5.8,5.6c0,4.9-3.6,8.7-9.2,8.7c-4.4,0-7.9-2.3-7.9-5.3
		c0-1.9,1.8-3.5,3.4-4v-0.1c-1.7-0.5-2.6-2-2.6-4c0-3.3,2.4-4.4,4-4.6v-0.1c-2.1-1-3.3-2.7-3.3-4.9c0-3.7,3.6-5.9,6.9-5.9
		c2.2,0,3.8,0.6,5,1.4c0.8-0.9,1.8-1.8,3.1-1.8c1.2,0,2.7,0.7,2.7,2.1C59.2,13.2,58.5,14.2,57.2,14.2z"/>
	<path d="M64.5,15.3V24c0,3,1.2,4.3,3.3,4.3c2,0,3.3-1.2,3.3-4.3v-8.7c0-3-1.2-4.3-3.3-4.3C65.7,11.1,64.5,12.3,64.5,15.3z"/>
	<path d="M15.2,87.4c1.8-1.4,4-3,4.8-3.5c-0.4-0.3-0.8-0.7-1.3-1h0c-0.1-0.1-0.2-0.2-0.4-0.3c-0.1,0.1-0.2,0.1-0.4,0.3h0
		c-1,0.6-3.3,2.1-5.5,3.6C13.6,86.6,14.4,87,15.2,87.4z"/>
	<path d="M48,38.4c4,0,7.6-2.7,7.6-5.7c0-2.5-1.3-2.8-5.3-2.8H44c-1.1,1.2-1.7,2.3-1.7,4.1C42.4,36,44.4,38.4,48,38.4z"/>
	<path d="M39.5,77.6c-1,0.5-2.2,0.9-3.3,1.3c0,0.3-0.2,0.7-0.3,1c1.3,0.3,2.4,0,3.6,0.1C39.5,79.3,39.6,78.4,39.5,77.6z"/>
	<path d="M18.8,72.9c1.9,1.6,5,3.2,7.2,4.3c1.1-0.8,2.7-2.9,4-4.9c1.2-2,2-3.6,2.7-5.3c-3.4,0.8-6.8,1.7-10,3.5
		C22.6,70.4,19.5,72.3,18.8,72.9z"/>
	<path d="M38.3,66.6c-0.2,3.8-1.1,7.7-1.8,11.4c1.1-0.3,2-0.8,3.1-1.3c0-1.1,0-2,0.1-3.2c0-2.4,0-4.6,0-6.8L38.3,66.6z"/>
	<path d="M30.4,72.9c-1.2,1.9-2.9,3.8-3.7,4.6c1,0.4,1,0.4,2.1,0.8c2.1-2.1,3.3-3.1,4.6-5.5c1.2-2.2,2.1-6.2,2.1-6.2
		c-0.6,0-1.7,0.2-2.3,0.4C32.4,69.5,31.8,70.7,30.4,72.9z"/>
	<path d="M36,66.6c-0.3,1.7-0.7,4.5-2.1,6.9c-1.6,2.8-4.6,5-4.7,5c0.7,0.3,2.1,0.7,2.8,0.9c1.2-0.2,2.3-0.7,3.5-1
		c0.4-1.3,0.9-3.8,1.4-6.3c0.5-2.9,0.7-5.5,0.7-5.5C37,66.4,36.5,66.7,36,66.6z"/>
</g>
</svg>
