<?xml version="1.0" encoding="utf-8"?>
<svg version="1.0" id="Layer_3" xmlns="http://www.w3.org/2000/svg" xmlns:xlink="http://www.w3.org/1999/xlink" x="0px" y="0px"
	 viewBox="0 0 230 82" style="enable-background:new 0 0 230 82;" xml:space="preserve">
<style type="text/css">
	.st0{fill:#FFFFFF;}
</style>
<g>
	<path class="st0" d="M0.7,9.1h6.3c3.7,0,5.9,2.2,5.9,5.4v0c0,3.6-2.8,5.5-6.3,5.5H4.2v4.7H0.7V9.1z M6.9,16.9c1.7,0,2.7-1,2.7-2.4
		v0c0-1.5-1.1-2.4-2.8-2.4H4.2v4.8H6.9z"/>
	<path class="st0" d="M14.9,9.1h11.7v3h-8.3v3.2h7.3v3h-7.3v3.3h8.4v3H14.9V9.1z"/>
	<path class="st0" d="M29.4,9.1h7.1c2,0,3.5,0.6,4.5,1.6c0.9,0.9,1.3,2.1,1.3,3.6v0c0,2.5-1.4,4.1-3.3,4.8l3.8,5.5h-4l-3.3-5h-2.7v5
		h-3.4V9.1z M36.3,16.7c1.7,0,2.6-0.9,2.6-2.2v0c0-1.5-1-2.2-2.7-2.2h-3.4v4.5H36.3z"/>
	<path class="st0" d="M45,9.1h6.3c3.7,0,5.9,2.2,5.9,5.4v0c0,3.6-2.8,5.5-6.3,5.5h-2.6v4.7H45V9.1z M51.1,16.9c1.7,0,2.7-1,2.7-2.4
		v0c0-1.5-1.1-2.4-2.8-2.4h-2.6v4.8H51.1z"/>
	<path class="st0" d="M59.2,9.1h11.7v3h-8.3v3.2h7.3v3h-7.3v3.3H71v3H59.2V9.1z"/>
	<path class="st0" d="M77.1,12.3h-4.7V9.1h12.9v3.2h-4.7v12.4h-3.4V12.3z"/>
	<path class="st0" d="M86.9,18V9.1h3.4v8.8c0,2.5,1.3,3.8,3.4,3.8c2.1,0,3.4-1.3,3.4-3.7V9.1h3.4v8.8c0,4.7-2.6,7-6.8,7
		C89.4,24.9,86.9,22.6,86.9,18z"/>
	<path class="st0" d="M107.8,9h3.2l6.7,15.7h-3.6l-1.4-3.5h-6.6l-1.4,3.5h-3.5L107.8,9z M111.4,18.1l-2.1-5l-2.1,5H111.4z"/>
	<path class="st0" d="M119.3,9.1h3.4v12.4h7.7v3.1h-11.2V9.1z"/>
	<path class="st0" d="M1.2,30.1h11.1v1.1H2.3v6.1h8.9v1.1H2.3v6.2h10v1.1H1.2V30.1z"/>
	<path class="st0" d="M29.2,46.1l-2.2-2c-1.3,1.1-3,1.8-5,1.8c-4.7,0-7.8-3.8-7.8-8v0c0-4.2,3.1-8,7.8-8c4.7,0,7.8,3.8,7.8,8v0
		c0,2.1-0.7,4-2,5.5l2.2,1.9L29.2,46.1z M26.1,43.4l-3-2.6l0.8-0.9l3,2.7c1.1-1.2,1.7-2.9,1.7-4.7v0c0-3.8-2.8-7-6.6-7
		c-3.8,0-6.6,3.1-6.6,6.9v0c0,3.8,2.8,7,6.6,7C23.6,44.8,25,44.3,26.1,43.4z"/>
	<path class="st0" d="M33,39.2v-9.1h1.2v9c0,3.7,2,5.8,5.3,5.8c3.2,0,5.2-1.9,5.2-5.7v-9.1h1.2V39c0,4.5-2.6,6.8-6.4,6.8
		C35.6,45.9,33,43.5,33,39.2z"/>
	<path class="st0" d="M49.8,30.1h1.2v15.5h-1.2V30.1z"/>
	<path class="st0" d="M59,31.1h-5.4v-1.1h12v1.1h-5.4v14.5H59V31.1z"/>
	<path class="st0" d="M74.1,39.5l-6.7-9.4h1.4l5.8,8.3l5.8-8.3h1.4l-6.7,9.4v6.2h-1.2V39.5z"/>
	<path class="st0" d="M90.4,30.1h1.2v15.5h-1.2V30.1z"/>
	<path class="st0" d="M95.7,30.1h1.1l10.7,13.5V30.1h1.1v15.5h-0.9L96.8,31.8v13.8h-1.1V30.1z"/>
	<path class="st0" d="M111.2,30.1h1.3l6.1,14.3l6.1-14.3h1.2L119,45.7h-1L111.2,30.1z"/>
	<path class="st0" d="M128.4,30.1h11.1v1.1h-9.9v6.1h8.9v1.1h-8.9v6.2h10v1.1h-11.2V30.1z"/>
	<path class="st0" d="M141.4,43.3l0.8-0.9c1.7,1.6,3.3,2.3,5.6,2.3c2.3,0,3.9-1.3,3.9-3.1v0c0-1.6-0.9-2.6-4.4-3.3
		c-3.7-0.8-5.2-2-5.2-4.4v0c0-2.3,2.1-4.1,5-4.1c2.3,0,3.8,0.6,5.3,1.9l-0.7,0.9c-1.5-1.3-2.9-1.8-4.6-1.8c-2.3,0-3.8,1.3-3.8,2.9v0
		c0,1.6,0.8,2.6,4.5,3.4c3.6,0.7,5.1,2,5.1,4.3v0c0,2.5-2.2,4.2-5.2,4.2C145.1,45.8,143.2,45,141.4,43.3z"/>
	<path class="st0" d="M160.1,31.1h-5.4v-1.1h12v1.1h-5.4v14.5h-1.2V31.1z"/>
	<path class="st0" d="M169.3,30.1h1.1l6.2,9.2l6.2-9.2h1.1v15.5h-1.2V32.1l-6.2,8.9h-0.1l-6.2-8.9v13.5h-1.1V30.1z"/>
	<path class="st0" d="M188.1,30.1h11.1v1.1h-9.9v6.1h8.9v1.1h-8.9v6.2h10v1.1h-11.2V30.1z"/>
	<path class="st0" d="M202,30.1h1.1l10.7,13.5V30.1h1.1v15.5H214l-10.9-13.8v13.8H202V30.1z"/>
	<path class="st0" d="M222.9,31.1h-5.4v-1.1h12v1.1h-5.4v14.5h-1.2V31.1z"/>
	<path class="st0" d="M0.5,58.8L0.5,58.8c0-4.4,3.3-8.1,7.8-8.1c2.8,0,4.4,1,6,2.5l-0.8,0.8c-1.4-1.3-2.9-2.3-5.2-2.3
		c-3.7,0-6.5,3-6.5,6.9v0c0,3.9,2.9,7,6.6,7c2.2,0,3.8-0.9,5.4-2.4l0.8,0.8c-1.6,1.6-3.4,2.7-6.2,2.7C3.8,66.8,0.5,63.3,0.5,58.8z"
		/>
	<path class="st0" d="M15.8,58.8L15.8,58.8c0-4.3,3.1-8.1,7.8-8.1c4.7,0,7.8,3.8,7.8,8v0c0,4.2-3.1,8-7.8,8
		C18.9,66.8,15.8,63.1,15.8,58.8z M30.3,58.8L30.3,58.8c0-3.9-2.8-7-6.6-7c-3.8,0-6.6,3.1-6.6,6.9v0c0,3.8,2.8,7,6.6,7
		C27.5,65.8,30.3,62.7,30.3,58.8z"/>
	<path class="st0" d="M34.8,51h1.1l6.2,9.2l6.2-9.2h1.1v15.5h-1.2V53.1L42.2,62h-0.1l-6.1-8.9v13.5h-1.1V51z"/>
	<path class="st0" d="M53.6,51h5.6c3.4,0,5.8,1.8,5.8,4.8v0c0,3.3-2.8,5-6.1,5h-4.2v5.8h-1.2V51z M59,59.7c2.9,0,4.8-1.5,4.8-3.8v0
		c0-2.5-1.9-3.8-4.7-3.8h-4.4v7.6H59z"/>
	<path class="st0" d="M72.1,50.9h1.1l7.2,15.7h-1.3l-2-4.4H68l-2,4.4h-1.2L72.1,50.9z M76.7,61.2l-4.1-9l-4.1,9H76.7z"/>
	<path class="st0" d="M83,51h1.1l10.7,13.5V51h1.1v15.5H95L84.1,52.8v13.8H83V51z"/>
	<path class="st0" d="M105,60.4L98.3,51h1.4l5.8,8.3l5.8-8.3h1.4l-6.7,9.4v6.2H105V60.4z"/>
	<path class="st0" d="M121.1,51h1.2v14.5h9.1v1.1h-10.3V51z"/>
	<path class="st0" d="M134.1,51h1.2v15.5h-1.2V51z"/>
	<path class="st0" d="M139.4,51h1.1l6.2,9.2L153,51h1.1v15.5h-1.2V53.1l-6.1,8.9h-0.1l-6.2-8.9v13.5h-1.1V51z"/>
	<path class="st0" d="M158.3,51h1.2v15.5h-1.2V51z"/>
	<path class="st0" d="M167.5,52.1h-5.4V51h12v1.1h-5.4v14.5h-1.2V52.1z"/>
	<path class="st0" d="M176.7,51h11.1v1.1h-9.9v6.1h8.9v1.1h-8.9v6.2h10v1.1h-11.2V51z"/>
	<path class="st0" d="M190.6,51h5.2c4.9,0,8.3,3.4,8.3,7.7v0c0,4.4-3.4,7.8-8.3,7.8h-5.2V51z M191.8,52.1v13.4h4
		c4.3,0,7.1-3,7.1-6.7v0c0-3.7-2.7-6.7-7.1-6.7H191.8z"/>
</g>
</svg>
