<svg width="155" height="82" xmlns="http://www.w3.org/2000/svg" xmlns:xlink="http://www.w3.org/1999/xlink"><defs><path id="a" d="M9.114 20.416V.043H.416v20.373h8.698z"/></defs><g fill="none" fill-rule="evenodd"><path fill="#000" d="M11.095 14.838V33.52h-.087L4.301 14.838H.033v31.008h4.442v-18.64h.087l6.794 18.64h4.181V14.838zm6.807 7.316c0-1.248.217-2.351.653-3.31.436-.958 1.009-1.749 1.72-2.373a7.414 7.414 0 0 1 2.396-1.415 7.858 7.858 0 0 1 2.678-.48c.9 0 1.792.16 2.678.48a7.43 7.43 0 0 1 2.396 1.415c.71.624 1.284 1.415 1.72 2.373.435.959.653 2.062.653 3.31V38.53c0 1.278-.218 2.39-.653 3.332-.436.943-1.01 1.729-1.72 2.353a7.435 7.435 0 0 1-2.396 1.414 7.83 7.83 0 0 1-2.678.48c-.9 0-1.793-.16-2.678-.48a7.42 7.42 0 0 1-2.396-1.414c-.711-.624-1.284-1.41-1.72-2.353-.436-.942-.653-2.054-.653-3.332V22.154zm4.442 16.375c0 1.075.297 1.866.893 2.374.594.508 1.299.762 2.112.762.812 0 1.517-.254 2.112-.762.595-.508.893-1.3.893-2.374V22.154c0-1.074-.298-1.865-.893-2.373-.595-.508-1.3-.763-2.112-.763-.813 0-1.518.255-2.112.763-.596.508-.893 1.299-.893 2.373V38.53zM35.22 14.838h7.143c5.226 0 7.839 3.034 7.839 9.102 0 1.8-.283 3.347-.85 4.638-.565 1.292-1.56 2.33-2.983 3.114l4.791 14.154h-4.703l-4.138-13.24h-2.656v13.24H35.22V14.838zm4.443 13.85h2.525c.784 0 1.408-.11 1.873-.328.464-.217.82-.529 1.067-.936.246-.407.414-.907.501-1.502.087-.595.13-1.285.13-2.069s-.043-1.473-.13-2.069c-.087-.595-.269-1.103-.544-1.524a2.473 2.473 0 0 0-1.155-.936c-.493-.203-1.147-.306-1.96-.306h-2.307v9.67zm16.359-9.67h-5.139v-4.18h14.72v4.18h-5.139v26.828h-4.442zm11.988-4.18h4.442V28.12h5.487V14.838h4.442v31.008H77.94V32.04h-5.487v13.806H68.01zm16.744 0h13.24v4.18h-8.798v9.103h7.665v4.18h-7.665v9.103h8.797v4.442h-13.24zm15.611 0h7.143c5.226 0 7.838 3.034 7.838 9.102 0 1.8-.283 3.347-.849 4.638-.565 1.292-1.56 2.33-2.983 3.114l4.791 14.154h-4.704l-4.137-13.24h-2.656v13.24h-4.443V14.838zm4.443 13.85h2.525c.784 0 1.408-.11 1.873-.328.464-.217.82-.529 1.067-.936.246-.407.414-.907.501-1.502.087-.595.13-1.285.13-2.069s-.043-1.473-.13-2.069c-.087-.595-.27-1.103-.545-1.524a2.47 2.47 0 0 0-1.154-.936c-.494-.203-1.147-.306-1.96-.306h-2.307v9.67zM14.686 74.517c0 .956-.182 1.87-.544 2.74a7.203 7.203 0 0 1-1.5 2.283 7.426 7.426 0 0 1-2.24 1.565 6.553 6.553 0 0 1-2.761.587 9.94 9.94 0 0 1-2.566-.348 6.228 6.228 0 0 1-2.348-1.196c-.696-.565-1.27-1.311-1.718-2.24-.45-.927-.674-2.101-.674-3.522V57.339c0-1.014.174-1.957.522-2.826.348-.87.84-1.624 1.478-2.26A6.87 6.87 0 0 1 4.62 50.75c.883-.362 1.862-.544 2.935-.544a7.28 7.28 0 0 1 2.826.544c.87.363 1.624.87 2.262 1.522a7.037 7.037 0 0 1 1.5 2.349c.362.912.544 1.906.544 2.978v1.74H10.25V57.86c0-.87-.247-1.624-.74-2.26-.492-.639-1.16-.958-2-.958-1.102 0-1.834.341-2.196 1.022-.363.681-.543 1.544-.543 2.587v15.83c0 .899.195 1.652.587 2.261.391.61 1.093.913 2.109.913.29 0 .601-.05.935-.151a2.59 2.59 0 0 0 .913-.5c.275-.233.5-.551.674-.957.174-.406.261-.914.261-1.523v-1.522h4.436v1.914zm2.434-7.741c0-.898.058-1.725.175-2.478.115-.754.332-1.421.652-2.001.521-.957 1.275-1.725 2.26-2.305.986-.58 2.16-.87 3.523-.87s2.537.29 3.523.87c.985.58 1.74 1.348 2.261 2.305.319.58.537 1.247.653 2 .115.754.173 1.58.173 2.48v7.261c0 .9-.058 1.726-.173 2.479-.116.754-.334 1.421-.653 2-.521.957-1.276 1.726-2.261 2.305-.986.58-2.16.87-3.523.87s-2.537-.29-3.522-.87c-.986-.58-1.74-1.348-2.261-2.305-.32-.579-.537-1.246-.652-2a16.305 16.305 0 0 1-.175-2.479v-7.262zm4.436 7.958c0 .84.196 1.472.587 1.891.392.421.92.632 1.587.632.667 0 1.196-.21 1.588-.632.391-.42.587-1.05.587-1.89V66.08c0-.84-.196-1.47-.587-1.892-.392-.42-.921-.63-1.588-.63s-1.195.21-1.587.63c-.391.421-.587 1.051-.587 1.892v8.654zm11.219-24.266h6.48c1.42 0 2.63.218 3.63.653 1 .435 1.82 1.015 2.457 1.74a6.517 6.517 0 0 1 1.37 2.499c.275.943.413 1.922.413 2.936v1.13c0 .842-.065 1.552-.195 2.132a5.113 5.113 0 0 1-.588 1.521c-.26.436-.58.82-.956 1.153a8.344 8.344 0 0 1-1.305.935c1.044.493 1.812 1.225 2.305 2.196.493.972.74 2.27.74 3.892v1.74c0 2.724-.66 4.813-1.98 6.261-1.319 1.451-3.428 2.175-6.327 2.175h-6.044V50.468zm4.435 12.699h2c1.479 0 2.472-.37 2.98-1.11.507-.739.76-1.818.76-3.239 0-1.392-.282-2.435-.847-3.131-.566-.696-1.587-1.045-3.066-1.045H37.21v8.525zm0 13.829h1.914c.898 0 1.601-.13 2.109-.393.507-.26.892-.622 1.152-1.087.261-.463.42-1.014.478-1.652.058-.637.088-1.333.088-2.087 0-.783-.044-1.464-.13-2.044-.088-.58-.27-1.065-.544-1.457-.277-.391-.66-.688-1.153-.891-.493-.203-1.146-.304-1.957-.304H37.21v9.915zm17.332-26.528h3.697l6.914 30.963h-4.435l-1.305-6.653h-6.045l-1.305 6.653h-4.436l6.915-30.963zm1.87 8.916h-.087l-2.174 11.22h4.435l-2.174-11.22zm11.113-8.916h4.436v26.528h8.784v4.435h-13.22zm15.556 4.175H77.95v-4.174h14.698v4.174h-5.131V81.43H83.08z"/><g transform="translate(145.06 .778)"><mask id="b" fill="#fff"><use xlink:href="#a"/></mask><path fill="#009BBB" mask="url(#b)" d="M6.196 2.79H2.99v2.346H.416V.043h8.698v2.919l-4.95 17.454h-3.09z"/></g><path fill="#009BBB" d="M133.89 3.204l-8.2 8.178 3.778-.015-.004 22.272h-.087l-6.679-18.607h-4.25v30.881h4.423V27.35h.087l6.766 18.563h4.164zm8.669 6.802c.23-.439.41-.81.543-1.116.133-.305.228-.61.286-.916a7.52 7.52 0 0 0 .114-.958c.019-.334.028-.749.028-1.245 0-.686-.08-1.335-.243-1.946a4.781 4.781 0 0 0-.771-1.63 3.787 3.787 0 0 0-1.346-1.13c-.544-.277-1.196-.416-1.96-.416-.61 0-1.183.12-1.717.358a4.464 4.464 0 0 0-1.388.959c-.176.18-.334.375-.477.582v4.139h2.122v-1.66c0-.476.13-.839.387-1.087.258-.248.606-.372 1.045-.372.362 0 .638.072.83.215.19.142.328.32.414.529.086.21.139.453.158.73a13.864 13.864 0 0 1-.029 2.174c-.039.372-.19.806-.457 1.302l-4.47 8.428v4.248h7.902v-2.919h-5.264l4.293-8.27z"/></g></svg>