<?xml version="1.0" encoding="UTF-8"?>
<svg width="71px" height="86px" viewBox="0 0 71 86" version="1.1" xmlns="http://www.w3.org/2000/svg" xmlns:xlink="http://www.w3.org/1999/xlink">
    <!-- Generator: Sketch 42 (36781) - http://www.bohemiancoding.com/sketch -->
    <title>Uscom-logo-OL</title>
    <desc>Created with Sketch.</desc>
    <defs>
        <polygon id="path-1" points="14.1765721 17.4997148 0.0300510272 17.4997148 0.0300510272 0.322547692 14.1765721 0.322547692"></polygon>
        <polygon id="path-3" points="67.2016096 0.115195604 0.477811332 0.115195604 0.477811332 84.217002 67.2016096 84.217002 67.2016096 0.115195604"></polygon>
        <polygon id="path-5" points="0.0300510272 0.112691352 0.0300510272 17.7962183 70.2325475 17.7962183 70.2325475 0.112691352 0.0300510272 0.112691352"></polygon>
    </defs>
    <g id="Symbols" stroke="none" stroke-width="1" fill="none" fill-rule="evenodd">
        <g id="header" transform="translate(-243.000000, -7.000000)">
            <g id="Uscom-logo-OL">
                <g transform="translate(243.148287, 7.423828)">
                    <g id="Group-3" transform="translate(0.000000, 67.113961)">
                        <mask id="mask-2" fill="white">
                            <use xlink:href="#path-1"></use>
                        </mask>
                        <g id="Clip-2"></g>
                        <path d="M14.1765721,10.6330551 C14.1765721,14.5907754 11.7584661,17.5297659 7.11357899,17.5297659 C2.44415021,17.5297659 0.026545074,14.5907754 0.026545074,10.6330551 L0.026545074,0.322547692 L3.72382312,0.322547692 L3.72382312,10.4903127 C3.72382312,12.5528149 5.14573756,14.1169709 7.11357899,14.1169709 C9.05687874,14.1169709 10.4787932,12.5528149 10.4787932,10.4903127 L10.4787932,0.322547692 L14.1765721,0.322547692 L14.1765721,10.6330551" id="Fill-1" fill="#1A1918" mask="url(#mask-2)"></path>
                    </g>
                    <path d="M23.1833658,76.0876983 C22.6619805,75.4476114 21.9743128,75.1160484 21.1208636,75.1160484 C20.5283575,75.1160484 19.8176507,75.3764907 19.8176507,76.0636575 C19.8176507,77.770055 25.8138324,76.3246006 25.8138324,80.7095463 C25.8138324,83.6485367 22.9700035,84.5014851 20.5048176,84.5014851 C18.8930808,84.5014851 17.1155625,84.0988013 15.9776303,82.9373291 L18.1347932,80.5432639 C18.7984201,81.3491323 19.5807485,81.7993969 20.6470591,81.7993969 C21.4529275,81.7993969 22.2587958,81.5865354 22.2587958,80.9699885 C22.2587958,79.1213495 16.2621134,80.6860063 16.2621134,76.3010606 C16.2621134,73.5984715 18.6797185,72.4134594 21.0973236,72.4134594 C22.6143997,72.4134594 24.2972572,72.793104 25.3640687,73.9305354 L23.1833658,76.0876983" id="Fill-4" fill="#1A1918"></path>
                    <path d="M34.9628676,76.4192613 C34.6072638,75.9214159 33.9436369,75.5422722 33.2088893,75.5422722 C31.431371,75.5422722 30.3645596,76.7272843 30.3645596,78.4572218 C30.3645596,80.188161 31.431371,81.3731731 33.2088893,81.3731731 C33.9912177,81.3731731 34.559683,80.9699885 34.9628676,80.496184 L37.309352,82.9613699 C36.1954606,84.0988013 34.559683,84.5014851 33.2088893,84.5014851 C29.6533519,84.5014851 26.8095231,82.1314607 26.8095231,78.4572218 C26.8095231,74.7834837 29.6533519,72.4134594 33.2088893,72.4134594 C34.559683,72.4134594 36.1954606,72.816644 37.309352,73.9540754 L34.9628676,76.4192613" id="Fill-5" fill="#1A1918"></path>
                    <path d="M44.087862,81.3731731 C45.8653803,81.3731731 46.9321917,80.188161 46.9321917,78.4572218 C46.9321917,76.7272843 45.8653803,75.5422722 44.087862,75.5422722 C42.3103437,75.5422722 41.2435323,76.7272843 41.2435323,78.4572218 C41.2435323,80.188161 42.3103437,81.3731731 44.087862,81.3731731 L44.087862,81.3731731 Z M44.087862,72.4134594 C47.6428985,72.4134594 50.4872282,74.7834837 50.4872282,78.4572218 C50.4872282,82.1314607 47.6428985,84.5014851 44.087862,84.5014851 C40.5323246,84.5014851 37.6879949,82.1314607 37.6879949,78.4572218 C37.6879949,74.7834837 40.5323246,72.4134594 44.087862,72.4134594 L44.087862,72.4134594 Z" id="Fill-6" fill="#1A1918"></path>
                    <g id="Group-11" transform="translate(3.005103, 0.000000)">
                        <mask id="mask-4" fill="white">
                            <use xlink:href="#path-3"></use>
                        </mask>
                        <g id="Clip-8"></g>
                        <path d="M49.0933614,72.6979424 L52.5061564,72.6979424 L52.5061564,74.2620984 L52.5537372,74.2620984 C53.0280426,73.3620701 54.1895148,72.4134594 55.9194522,72.4134594 C57.5316899,72.4134594 58.8584427,73.0770862 59.4749896,74.4754607 C60.304398,73.0064663 61.4182894,72.4134594 63.1251877,72.4134594 C66.2540005,72.4134594 67.2016096,74.6177022 67.2016096,77.4144511 L67.2016096,84.217002 L63.646573,84.217002 L63.646573,77.5096127 C63.646573,76.4428013 63.2433884,75.5422722 62.0824171,75.5422722 C60.4466395,75.5422722 59.9252542,76.7037444 59.9252542,78.1256588 L59.9252542,84.217002 L56.3697168,84.217002 L56.3697168,78.1256588 C56.3697168,77.2727105 56.4172976,75.5422722 54.78152,75.5422722 C52.9333818,75.5422722 52.6488988,76.9882274 52.6488988,78.4812626 L52.6488988,84.217002 L49.0933614,84.217002 L49.0933614,72.6979424" id="Fill-7" fill="#1A1918" mask="url(#mask-4)"></path>
                        <path d="M49.5476328,0.116698156 C49.5476328,0.116698156 49.1194056,0.103175193 48.3896665,0.151757687 C53.7998531,1.51757687 58.9505992,3.54552036 63.7467431,6.14643676 C60.6595009,2.24230748 55.6930678,0.16628235 49.5476328,0.116698156" id="Fill-9" fill="#0089BC" mask="url(#mask-4)"></path>
                        <path d="M14.6744174,0.116698156 C8.53048492,0.16628235 3.56605523,2.24230748 0.477811332,6.14543506 C5.27295357,3.54401781 10.4221971,1.51757687 15.8318828,0.151757687 C15.1031454,0.103175193 14.6744174,0.116698156 14.6744174,0.116698156" id="Fill-10" fill="#0089BC" mask="url(#mask-4)"></path>
                    </g>
                    <path d="M42.440064,2.71661286 C52.4675909,3.89411227 61.7763974,7.45666155 69.7794868,12.8252776 C69.631736,12.1150716 69.4459204,11.4349167 69.2275496,10.7823086 C61.9557019,6.16446738 53.6936728,2.97455084 44.83463,1.61524271 C44.0523016,1.91725553 43.2469341,2.27987126 42.440064,2.71661286" id="Fill-12" fill="#0089BC"></path>
                    <g id="Group-17" transform="translate(0.000000, 1.502551)">
                        <mask id="mask-6" fill="white">
                            <use xlink:href="#path-5"></use>
                        </mask>
                        <g id="Clip-14"></g>
                        <path d="M27.7926925,1.2140615 C26.9843199,0.777319903 26.1804549,0.414704175 25.3976256,0.112691352 C16.5390837,1.47199948 8.27705459,4.66191602 1.00570771,9.27825465 C0.787837763,9.93086279 0.603023946,10.6125203 0.45326966,11.3212236 C8.4568599,5.95411019 17.7646647,2.39156091 27.7926925,1.2140615" id="Fill-13" fill="#0089BC" mask="url(#mask-6)"></path>
                        <path d="M36.8085015,5.83641033 C49.3452892,6.20153031 60.8833811,10.610016 70.1676459,17.7962183 C70.2167293,17.0554605 70.2382659,16.3347367 70.2312539,15.6345477 C61.2259628,8.96672566 50.2688574,4.79213714 38.3896864,4.1405307 C37.8447611,4.65640666 37.3153622,5.22036427 36.8085015,5.83641033" id="Fill-15" fill="#0089BC" mask="url(#mask-6)"></path>
                        <path d="M0.0656114094,17.7947158 C9.34937541,10.6085134 20.888469,6.20153031 33.4232533,5.83641033 C32.9173943,5.22036427 32.3879954,4.65640666 31.843571,4.1405307 C19.9628974,4.79113544 9.0067937,8.96572396 0.00100170091,15.633546 C-0.00550935498,16.3347367 0.0150255136,17.0554605 0.0656114094,17.7947158" id="Fill-16" fill="#0089BC" mask="url(#mask-6)"></path>
                    </g>
                    <path d="M0.506860659,22.9359457 C0.63006987,23.5960666 0.808372631,24.4274783 1.06180296,25.4021333 C10.1933084,17.4766757 22.1040331,12.6725182 35.115627,12.6725182 C48.1272209,12.6725182 60.0394481,17.4766757 69.1699518,25.4036358 C69.4243839,24.4289809 69.6021858,23.5975691 69.7243933,22.9374482 C60.3269362,15.1306922 48.2594454,10.4307115 35.115627,10.4307115 C21.9713077,10.4307115 9.90582026,15.1306922 0.506860659,22.9359457" id="Fill-18" fill="#0089BC"></path>
                    <path d="M1.95582102,28.3887045 C2.23178962,29.2050908 2.54932881,30.0755689 2.91845559,30.9921252 C11.2946786,22.9855298 22.6404439,18.0596656 35.1146253,18.0596656 C47.5913109,18.0596656 58.9375771,22.9855298 67.3132992,30.9936277 C67.6819251,30.0780731 68.0009669,29.207595 68.2759338,28.3897062 C59.5245738,20.3866168 47.8798008,15.4983164 35.1146253,15.4983164 C22.3504515,15.4983164 10.7076818,20.3866168 1.95582102,28.3887045" id="Fill-19" fill="#0089BC"></path>
                    <path d="M35.115627,20.8494027 C23.018586,20.8494027 12.0519645,25.7762686 4.11248307,33.7272695 C4.56975953,34.6959143 5.08012615,35.7026237 5.64959311,36.7378816 C13.0586739,28.929623 23.52745,24.0518405 35.115627,24.0518405 C46.7038039,24.0518405 57.1740826,28.929623 64.5821617,36.7388833 C65.1521295,35.7026237 65.662997,34.6974168 66.1197726,33.7272695 C58.180792,25.7762686 47.212668,20.8494027 35.115627,20.8494027" id="Fill-20" fill="#0089BC"></path>
                    <path d="M35.1146253,27.3644654 C24.1319765,27.3644654 14.2421835,32.1365685 7.4075782,39.7144358 C8.08723227,40.7872575 8.83049434,41.8811149 9.64337463,42.9904986 C15.787808,35.7857649 24.9253237,31.2074909 35.1146253,31.2074909 C45.3044277,31.2074909 54.4439468,35.7857649 60.5878793,42.9904986 C61.402763,41.8826174 62.1455242,40.7892609 62.8241766,39.7144358 C55.990573,32.1365685 46.0992774,27.3644654 35.1146253,27.3644654" id="Fill-21" fill="#0089BC"></path>
                    <path d="M35.115627,35.2403387 C25.8644183,35.2403387 17.5973807,39.5316254 12.1957085,46.2254917 C13.2044213,47.4195192 14.2967762,48.6210594 15.4807867,49.821598 C19.9834322,43.8860193 27.1085308,40.0444963 35.115627,40.0444963 C43.1237249,40.0444963 50.2493243,43.8860193 54.7509681,49.821598 C55.9354795,48.6210594 57.0283352,47.4205209 58.0365471,46.2269943 C52.634875,39.5316254 44.3673365,35.2403387 35.115627,35.2403387" id="Fill-22" fill="#0089BC"></path>
                    <path d="M35.1146253,44.1790168 C28.2835259,44.1790168 22.2262406,47.5397233 18.4984106,52.6924728 C19.8787545,53.92757 21.3617727,55.1521494 22.9589848,56.3602006 C25.6179998,52.4881258 30.0735655,49.9428038 35.1146253,49.9428038 C40.1576885,49.9428038 44.6147567,52.4896283 47.2732709,56.3602006 C48.8689804,55.1536519 50.3519986,53.92757 51.733845,52.6939753 C48.0060151,47.540725 41.9457246,44.1790168 35.1146253,44.1790168" id="Fill-23" fill="#0089BC"></path>
                    <path d="M35.115627,54.687861 C31.6642665,54.687861 28.6221008,56.4383333 26.8270528,59.0978492 C29.3458298,60.7646795 32.0995055,62.3824265 35.115627,63.9195365 L35.1166287,63.9195365 C38.1322493,62.3824265 40.8864259,60.7661821 43.404702,59.0978492 C41.6096539,56.4383333 38.5674883,54.687861 35.115627,54.687861" id="Fill-24" fill="#DB322A"></path>
                </g>
            </g>
        </g>
    </g>
</svg>