<?xml version="1.0" encoding="utf-8"?>
<!-- Generator: Adobe Illustrator 21.1.0, SVG Export Plug-In . SVG Version: 6.00 Build 0)  -->
<svg version="1.1" id="Layer_1" xmlns="http://www.w3.org/2000/svg" xmlns:xlink="http://www.w3.org/1999/xlink" x="0px" y="0px"
	 viewBox="0 0 360 40" style="enable-background:new 0 0 360 40;" xml:space="preserve">
<style type="text/css">
	.st0{fill:#00549F;}
	.st1{fill:url(#SVGID_1_);}
</style>
<g>
	<g>
		<polygon class="st0" points="203.9,15.6 203.9,6.7 210,6.7 210,8.5 205.8,8.5 205.8,10.2 209.8,10.2 209.8,12 205.8,12 
			205.8,13.8 210.2,13.8 210.2,15.6 		"/>
		<path class="st0" d="M213.2,6.7h2.9c0.7,0,1.4,0.1,2.1,0.2c0.6,0.2,1.2,0.4,1.7,0.7c0.5,0.4,0.9,0.8,1.1,1.4
			c0.2,0.6,0.4,1.2,0.4,2.1c0,0.7-0.1,1.4-0.4,1.9c-0.2,0.6-0.6,1-1.1,1.4c-0.4,0.4-1,0.7-1.6,0.9c-0.6,0.2-1.2,0.3-1.9,0.3h-3.2
			V6.7H213.2z M215.2,13.8h1c0.4,0,0.9-0.1,1.2-0.1c0.4-0.1,0.7-0.2,1-0.4c0.3-0.2,0.5-0.5,0.7-0.9c0.2-0.4,0.2-0.7,0.2-1.2
			c0-0.4-0.1-0.8-0.2-1.1c-0.2-0.3-0.4-0.6-0.7-0.8c-0.2-0.2-0.6-0.4-1-0.5c-0.4-0.1-0.7-0.2-1.2-0.2h-1.2v5.3H215.2z"/>
		<path class="st0" d="M231.3,12.2c0,0.5-0.1,1-0.2,1.4s-0.4,0.8-0.7,1.2c-0.3,0.3-0.7,0.6-1.2,0.7c-0.4,0.2-1,0.2-1.6,0.2
			c-0.6,0-1.2-0.1-1.6-0.2c-0.5-0.2-0.9-0.4-1.2-0.7c-0.3-0.3-0.6-0.7-0.7-1.2c-0.2-0.4-0.2-0.9-0.2-1.4V6.7h2v5.4
			c0,0.2,0.1,0.6,0.1,0.7c0.1,0.2,0.2,0.4,0.4,0.6c0.2,0.2,0.4,0.3,0.6,0.4c0.2,0.1,0.4,0.1,0.7,0.1c0.2,0,0.5-0.1,0.7-0.1
			c0.2-0.1,0.4-0.2,0.6-0.4c0.2-0.2,0.3-0.4,0.4-0.6c0.1-0.2,0.1-0.5,0.1-0.7V6.7h2v5.5H231.3z"/>
		<path class="st0" d="M239.8,9c-0.2-0.2-0.4-0.4-0.7-0.6c-0.3-0.1-0.6-0.2-1-0.2c-0.4,0-0.7,0.1-1.1,0.2c-0.3,0.1-0.6,0.4-0.8,0.6
			s-0.4,0.6-0.6,0.9c-0.1,0.4-0.2,0.7-0.2,1.1c0,0.4,0.1,0.8,0.2,1.1c0.1,0.4,0.3,0.7,0.6,0.9s0.5,0.4,0.8,0.6
			c0.3,0.1,0.6,0.2,1,0.2c0.4,0,0.7-0.1,1.1-0.2c0.3-0.2,0.6-0.4,0.7-0.7l1.6,1.2c-0.4,0.5-0.9,0.9-1.4,1.2
			c-0.6,0.2-1.2,0.4-1.8,0.4c-0.7,0-1.4-0.1-1.9-0.3c-0.6-0.2-1.1-0.6-1.5-0.9c-0.4-0.4-0.7-0.9-1-1.5c-0.2-0.6-0.4-1.2-0.4-1.9
			c0-0.7,0.1-1.4,0.4-1.9c0.2-0.6,0.6-1.1,1-1.5c0.4-0.4,0.9-0.7,1.5-0.9c0.6-0.2,1.2-0.3,1.9-0.3c0.2,0,0.5,0,0.8,0.1
			c0.2,0.1,0.6,0.1,0.8,0.2c0.2,0.1,0.5,0.2,0.7,0.4c0.2,0.2,0.4,0.4,0.6,0.6L239.8,9z"/>
		<path class="st0" d="M247,6.7h1.6l3.9,8.9h-2.2l-0.7-1.9H246l-0.7,1.9h-2.1L247,6.7z M247.8,9.4l-1.1,2.7h2.2L247.8,9.4z"/>
		<polygon class="st0" points="256.5,8.5 254,8.5 254,6.7 261.1,6.7 261.1,8.5 258.5,8.5 258.5,15.6 256.5,15.6 		"/>
		<rect x="263.5" y="6.7" class="st0" width="2" height="8.9"/>
		<path class="st0" d="M267.9,11.2c0-0.7,0.1-1.4,0.4-1.9c0.2-0.6,0.6-1.1,1-1.5c0.4-0.4,0.9-0.7,1.6-0.9c0.6-0.2,1.2-0.3,1.9-0.3
			c0.7,0,1.4,0.1,1.9,0.3c0.6,0.2,1.1,0.6,1.6,0.9s0.7,0.9,1,1.5c0.2,0.6,0.4,1.2,0.4,1.9c0,0.7-0.1,1.4-0.4,1.9
			c-0.2,0.6-0.6,1.1-1,1.5c-0.4,0.4-0.9,0.7-1.6,0.9c-0.6,0.2-1.2,0.3-1.9,0.3c-0.7,0-1.3-0.1-1.9-0.3c-0.6-0.2-1.1-0.6-1.6-0.9
			c-0.4-0.4-0.7-0.9-1-1.5C268.1,12.5,267.9,11.9,267.9,11.2 M270,11.2c0,0.4,0.1,0.8,0.2,1.1c0.1,0.4,0.3,0.7,0.6,0.9
			s0.6,0.4,0.9,0.6c0.3,0.1,0.7,0.2,1.1,0.2c0.4,0,0.8-0.1,1.1-0.2s0.6-0.4,0.9-0.6s0.4-0.6,0.6-0.9c0.1-0.4,0.2-0.7,0.2-1.1
			c0-0.4-0.1-0.8-0.2-1.1c-0.1-0.4-0.3-0.6-0.6-0.9c-0.2-0.2-0.6-0.4-0.9-0.6c-0.3-0.1-0.7-0.2-1.1-0.2c-0.4,0-0.8,0.1-1.1,0.2
			c-0.3,0.1-0.6,0.4-0.9,0.6s-0.4,0.6-0.6,0.9C270.1,10.4,270,10.8,270,11.2"/>
		<polygon class="st0" points="280.1,6.7 282.8,6.7 286.6,13 286.6,13 286.6,6.7 288.6,6.7 288.6,15.6 286,15.6 282.1,9.3 
			282.1,9.3 282.1,15.6 280.1,15.6 		"/>
		<path class="st0" d="M298.5,8.7c-0.2-0.3-0.6-0.6-0.9-0.7c-0.4-0.2-0.8-0.2-1.2-0.2c-0.5,0-0.9,0.1-1.4,0.3
			c-0.4,0.2-0.7,0.4-1.1,0.7s-0.5,0.7-0.7,1.1c-0.2,0.4-0.2,0.9-0.2,1.4c0,0.5,0.1,0.9,0.2,1.3c0.1,0.4,0.4,0.8,0.6,1.1
			c0.3,0.3,0.6,0.6,1.1,0.7c0.4,0.2,0.9,0.2,1.4,0.2c0.5,0,0.9-0.1,1.4-0.3c0.4-0.2,0.7-0.5,1-0.9l1,0.7c-0.1,0.1-0.2,0.2-0.4,0.4
			c-0.2,0.2-0.4,0.4-0.7,0.5c-0.2,0.2-0.6,0.3-1,0.4s-0.9,0.2-1.4,0.2c-0.7,0-1.4-0.1-1.9-0.4c-0.6-0.2-1.1-0.6-1.4-1.1
			c-0.4-0.4-0.7-0.9-0.9-1.5c-0.2-0.6-0.3-1.1-0.3-1.7c0-0.7,0.1-1.3,0.3-1.9c0.2-0.6,0.6-1.1,0.9-1.5c0.4-0.4,0.9-0.7,1.5-1
			c0.6-0.2,1.2-0.4,1.9-0.4c0.6,0,1.2,0.1,1.7,0.3c0.6,0.2,1.1,0.6,1.4,1.1L298.5,8.7z"/>
		<polygon class="st0" points="302.9,6.7 308.6,6.7 308.6,7.9 304.1,7.9 304.1,10.5 308.3,10.5 308.3,11.7 304.1,11.7 304.1,14.5 
			308.9,14.5 308.9,15.6 302.9,15.6 		"/>
		<polygon class="st0" points="311.7,6.7 313.3,6.7 318.3,14.1 318.3,14.1 318.3,6.7 319.5,6.7 319.5,15.6 317.9,15.6 313,8.4 
			313,8.4 313,15.6 311.7,15.6 		"/>
		<polygon class="st0" points="325.1,7.9 322.2,7.9 322.2,6.7 329.2,6.7 329.2,7.9 326.3,7.9 326.3,15.6 325.1,15.6 		"/>
		<path class="st0" d="M332.1,6.7h3.2c0.6,0,1.1,0.1,1.4,0.2c0.4,0.2,0.7,0.4,0.9,0.6c0.2,0.2,0.4,0.5,0.4,0.8
			c0.1,0.3,0.1,0.6,0.1,0.9c0,0.3-0.1,0.6-0.1,0.8c-0.1,0.2-0.2,0.5-0.4,0.7c-0.2,0.2-0.4,0.4-0.7,0.6c-0.2,0.1-0.6,0.2-0.9,0.2
			l2.6,4h-1.5l-2.3-3.9h-1.4v3.9h-1.2L332.1,6.7L332.1,6.7z M333.3,10.7h1.6c0.2,0,0.5,0,0.7-0.1c0.2-0.1,0.4-0.1,0.6-0.2
			c0.2-0.1,0.3-0.2,0.4-0.4c0.1-0.2,0.2-0.4,0.2-0.7c0-0.3-0.1-0.6-0.2-0.7c-0.1-0.2-0.2-0.3-0.4-0.4c-0.2-0.1-0.4-0.2-0.6-0.2
			c-0.2-0.1-0.4-0.1-0.7-0.1h-1.6V10.7z"/>
		<polygon class="st0" points="341.6,6.7 347.3,6.7 347.3,7.9 342.7,7.9 342.7,10.5 347,10.5 347,11.7 342.7,11.7 342.7,14.5 
			347.5,14.5 347.5,15.6 341.6,15.6 		"/>
		<path class="st0" d="M351,13.8c0.2,0.3,0.5,0.6,0.8,0.7c0.4,0.1,0.7,0.2,1.1,0.2c0.2,0,0.4-0.1,0.6-0.1c0.2-0.1,0.4-0.2,0.6-0.3
			c0.2-0.1,0.3-0.2,0.4-0.4s0.2-0.4,0.2-0.6c0-0.4-0.1-0.6-0.3-0.8c-0.2-0.2-0.5-0.3-0.8-0.4s-0.7-0.2-1.1-0.4
			c-0.4-0.1-0.7-0.2-1.1-0.5c-0.3-0.2-0.6-0.5-0.8-0.8c-0.2-0.3-0.3-0.8-0.3-1.4c0-0.2,0.1-0.6,0.2-0.8c0.1-0.3,0.3-0.6,0.6-0.8
			c0.2-0.2,0.6-0.4,0.9-0.6c0.4-0.2,0.9-0.2,1.4-0.2s0.9,0.1,1.4,0.2c0.4,0.1,0.9,0.4,1.2,0.8l-1,0.9c-0.1-0.2-0.4-0.4-0.6-0.6
			c-0.2-0.1-0.6-0.2-0.9-0.2s-0.6,0.1-0.8,0.1c-0.2,0.1-0.4,0.2-0.6,0.3s-0.2,0.3-0.3,0.4c-0.1,0.2-0.1,0.3-0.1,0.4
			c0,0.4,0.1,0.7,0.3,0.9c0.2,0.2,0.5,0.4,0.8,0.5c0.3,0.1,0.7,0.2,1.1,0.3c0.4,0.1,0.7,0.2,1.1,0.4c0.3,0.2,0.6,0.4,0.8,0.7
			c0.2,0.3,0.3,0.7,0.3,1.2c0,0.4-0.1,0.8-0.2,1.2c-0.2,0.4-0.4,0.6-0.7,0.9c-0.3,0.2-0.6,0.4-1,0.6c-0.4,0.1-0.8,0.2-1.2,0.2
			c-0.6,0-1.1-0.1-1.6-0.3c-0.5-0.2-0.9-0.5-1.2-0.9L351,13.8z"/>
		<polygon class="st0" points="3.5,2.7 9.2,2.7 9.2,13.4 19.3,2.7 26.7,2.7 15.2,14.6 27.7,28.5 19.8,28.5 9.2,16.3 9.2,28.5 
			3.5,28.5 		"/>
		<path class="st0" d="M32.7,2c1.7,0,3.2,1.4,3.2,3.2s-1.4,3.2-3.2,3.2c-1.7,0-3.2-1.4-3.2-3.2C29.5,3.4,30.9,2,32.7,2 M30,10.8h5.5
			v17.7H30V10.8z"/>
		<path class="st0" d="M38.4,10.8h5v2.3h0.1c0.9-1.2,3-2.7,5.5-2.7c5.3,0,8.7,3.8,8.7,9.2c0,4.9-3.1,9.5-8.1,9.5
			c-2.2,0-4.4-0.6-5.6-2.3H44v12.7h-5.5L38.4,10.8L38.4,10.8z M47.8,24.1c2.7,0,4.4-1.8,4.4-4.5s-1.6-4.5-4.4-4.5
			c-2.7,0-4.4,1.8-4.4,4.5S45.1,24.1,47.8,24.1"/>
		<polygon class="st0" points="61.7,2.4 70.4,2.4 76.3,19.2 76.4,19.2 82.4,2.4 91,2.4 91,28.2 85.3,28.2 85.3,8.4 85.2,8.4 
			78.4,28.2 74.1,28.2 67.5,8.4 67.5,8.4 67.5,28.2 61.7,28.2 		"/>
		<path class="st0" d="M103,17.5c-0.4-0.6-1.3-1.1-2.2-1.1c-2.3,0-3.7,1.5-3.7,3.7s1.4,3.7,3.7,3.7c1,0,1.7-0.5,2.2-1.1l3.1,3.2
			c-1.4,1.4-3.5,2-5.3,2c-4.6,0-8.2-3.1-8.2-7.8s3.7-7.8,8.2-7.8c1.7,0,3.9,0.5,5.3,2L103,17.5z"/>
		<path class="st0" d="M131.7,26.4c-3.4,1.7-7,2.5-10.8,2.5c-8.1,0-14-5.3-14-13.6s5.9-13.6,14-13.6c4.1,0,7.7,0.9,10.3,3.3l-4,4.4
			c-1.6-1.6-3.4-2.4-6.3-2.4c-4.9,0-8,3.5-8,8.3s3.2,8.3,8,8.3c2.5,0,4.3-0.7,5.4-1.2v-4.2h-4.7v-5.2h10.2L131.7,26.4L131.7,26.4z"
			/>
		<path class="st0" d="M134.6,10.5h5.5v2.9h0.1c1.2-2.2,2.7-3.3,5.1-3.3c0.6,0,1.3,0.1,1.8,0.2v5c-0.7-0.2-1.6-0.4-2.4-0.4
			c-4.2,0-4.7,2.4-4.7,5.9v7.4h-5.5L134.6,10.5L134.6,10.5z"/>
		<path class="st0" d="M159.2,26L159.2,26c-1.2,1.9-3.5,2.7-5.7,2.7c-3.3,0-6.4-1.9-6.4-5.5c0-6.1,7.5-6.2,12-6.2
			c0-1.9-1.6-3.2-3.5-3.2c-1.8,0-3.3,0.8-4.5,2.1l-2.9-3c2-1.9,4.9-2.9,7.8-2.9c6.4,0,8.1,3.2,8.1,9.2v9h-5V26z M157.8,20.4
			c-1.7,0-5.4,0.1-5.4,2.6c0,1.3,1.4,1.9,2.6,1.9c2.2,0,4.2-1.1,4.2-3.3v-1.2C159.2,20.4,157.8,20.4,157.8,20.4z"/>
		<path class="st0" d="M178.3,14.8h-4.9v5.9c0,1.9,0.2,3.3,2.6,3.3c0.6,0,1.7-0.1,2.2-0.5v4.5c-1.2,0.4-2.6,0.6-3.9,0.6
			c-3.7,0-6.5-1.5-6.5-5.4v-8.5h-3.5v-4.4h3.5V5.2h5.5v5.2h4.9V14.8z"/>
		<path class="st0" d="M185.9,0.6v12.3h0.1c0.5-1.4,2.3-2.9,5-2.9c5.5,0,6.6,3.6,6.6,8.4v9.8H192v-8.7c0-2.1-0.1-4.7-2.9-4.7
			c-2.9,0-3.3,2.2-3.3,4.5v8.8h-5.5V0.6H185.9z"/>
		<polygon class="st0" points="192.5,1.3 191.6,1.3 191.6,0.7 194,0.7 194,1.3 193.1,1.3 193.1,3.6 192.5,3.6 		"/>
		<polygon class="st0" points="194.3,0.7 195.3,0.7 195.9,2.6 195.9,2.6 196.6,0.7 197.6,0.7 197.6,3.6 196.9,3.6 196.9,1.4 
			196.9,1.4 196.2,3.6 195.7,3.6 194.9,1.4 194.9,1.4 194.9,3.6 194.3,3.6 		"/>
	</g>
	
		<linearGradient id="SVGID_1_" gradientUnits="userSpaceOnUse" x1="269.414" y1="-200.427" x2="422.3724" y2="-200.427" gradientTransform="matrix(1 0 0 -1 -65.8724 -175.974)">
		<stop  offset="0" style="stop-color:#00AEEF"/>
		<stop  offset="4.732634e-02" style="stop-color:#0090D6"/>
		<stop  offset="8.922552e-02" style="stop-color:#007AC3"/>
		<stop  offset="0.11" style="stop-color:#0072BC"/>
		<stop  offset="0.1165" style="stop-color:#006DB8"/>
		<stop  offset="0.1506" style="stop-color:#3657A7"/>
		<stop  offset="0.1805" style="stop-color:#55439A"/>
		<stop  offset="0.2046" style="stop-color:#623393"/>
		<stop  offset="0.22" style="stop-color:#662D91"/>
		<stop  offset="0.4" style="stop-color:#EC008C"/>
		<stop  offset="0.5169" style="stop-color:#ED1C24"/>
		<stop  offset="0.6517" style="stop-color:#F7941D"/>
		<stop  offset="0.7303" style="stop-color:#FFC20E"/>
		<stop  offset="0.7504" style="stop-color:#FFCD03"/>
		<stop  offset="0.7889" style="stop-color:#FFE800"/>
		<stop  offset="0.7978" style="stop-color:#FFF200"/>
		<stop  offset="0.88" style="stop-color:#8DC63F"/>
		<stop  offset="1" style="stop-color:#6D9D31"/>
	</linearGradient>
	<rect x="203.5" y="20.4" class="st1" width="153" height="8"/>
</g>
</svg>
