<?xml version="1.0" encoding="utf-8"?>
<!-- Generator: Adobe Illustrator 22.1.0, SVG Export Plug-In . SVG Version: 6.00 Build 0)  -->
<svg version="1.0" id="Ebene_1" xmlns="http://www.w3.org/2000/svg" xmlns:xlink="http://www.w3.org/1999/xlink" x="0px" y="0px"
	 viewBox="0 0 1845.5 500" style="enable-background:new 0 0 1845.5 500;" xml:space="preserve">
<style type="text/css">
	.st0{fill:#D8D8D8;}
	.st1{opacity:0.5;}
	.st2{fill:#FFFFFF;}
	.st3{fill:#767676;}
	.st4{fill-rule:evenodd;clip-rule:evenodd;fill:none;stroke:#BCCF00;stroke-width:20;stroke-miterlimit:10;}
	.st5{fill:none;stroke:#BCCF00;stroke-width:20;stroke-miterlimit:10;}
	.st6{fill:none;stroke:#BCCF00;stroke-width:40;stroke-miterlimit:10;}
	.st7{fill:#BCCF00;}
	.st8{fill:#778085;}
	.st9{fill:#1D1D1B;}
	.st10{fill:#BBCE00;}
	.st11{fill:none;stroke:#767676;stroke-width:20;stroke-miterlimit:10;}
	.st12{fill:none;stroke:#D15959;stroke-width:40;stroke-miterlimit:10;}
	.st13{fill:none;stroke:#BCCF00;stroke-width:40;stroke-linejoin:round;stroke-miterlimit:10;}
	.st14{fill:none;stroke:#BCCF00;stroke-width:20;stroke-linejoin:round;stroke-miterlimit:10;}
	.st15{fill:none;stroke:#BCCF00;stroke-width:20;stroke-linecap:round;stroke-linejoin:round;stroke-miterlimit:10;}
	.st16{fill:none;stroke:#BCCF00;stroke-width:40;stroke-linecap:round;stroke-linejoin:round;stroke-miterlimit:10;}
	.st17{fill:#A8A8A8;}
	.st18{fill:none;stroke:#FFFFFF;stroke-width:10;stroke-miterlimit:10;}
	.st19{fill-rule:evenodd;clip-rule:evenodd;fill:#FFFFFF;}
	.st20{clip-path:url(#SVGID_2_);}
	.st21{clip-path:url(#SVGID_2_);fill:#BBCE00;}
	.st22{clip-path:url(#SVGID_2_);fill:#778085;}
</style>
<g>
	<defs>
		<rect id="SVGID_1_" x="-24.5" y="-14.3" width="2199.4" height="561.3"/>
	</defs>
	<clipPath id="SVGID_2_">
		<use xlink:href="#SVGID_1_"  style="overflow:visible;"/>
	</clipPath>
	<g class="st20">
		<path class="st8" d="M303.1,481.2c-5.5,0-10.3-1.4-13-3.5l2.3-5.5c1.8,1.5,5.4,3,9.9,3c5.6,0,9.4-3.9,9.4-8.7
			c0-5.3-2.8-7.6-8.4-9.7c-9.9-3.7-11.8-8.9-11.8-14.2c0-7.5,5.9-13.9,15.1-13.9c5.2,0,9.2,1.7,11.8,3.5l-2.2,5
			c-1.5-1.1-4.5-2.8-8.5-2.8c-5.6,0-8.5,3.7-8.5,8c0,4.9,3.6,7.2,8.5,9.1c9.9,3.8,12.3,9,12.3,14.9
			C320.1,474.1,313.4,481.2,303.1,481.2z"/>
		<path class="st8" d="M349.1,481.5c-12.7,0-18-6.4-18-16.6v-35.2h8.3v35.5c0,5.9,3.2,10.4,10.2,10.4c4,0,6.8-0.7,9.1-2.1v-43.8h8.3
			v47.7C363.3,479.6,357.3,481.5,349.1,481.5z"/>
		<path class="st8" d="M390.2,481.2c-5.5,0-10.2-1.4-13-3.5l2.3-5.5c1.8,1.5,5.4,3,9.9,3c5.6,0,9.4-3.9,9.4-8.7
			c0-5.3-2.8-7.6-8.4-9.7c-9.9-3.7-11.9-8.9-11.9-14.2c0-7.5,5.9-13.9,15.1-13.9c5.2,0,9.2,1.7,11.8,3.5l-2.2,5
			c-1.5-1.1-4.5-2.8-8.5-2.8c-5.6,0-8.5,3.7-8.5,8c0,4.9,3.6,7.2,8.5,9.1c9.9,3.8,12.3,9,12.3,14.9
			C407.3,474.1,400.6,481.2,390.2,481.2z"/>
		<path class="st8" d="M433.8,480.9c-9.2,0-12.6-6.6-12.6-12.8v-33.2h-5.8v-5.2h5.8v-11.7l8.3-2.5v14.2h8.8v5.2h-8.8v33
			c0,4,1.8,7.3,6.4,7.3c0.8,0,1.6-0.2,2.4-0.4v5.3C437.4,480.5,435.9,480.9,433.8,480.9z"/>
		<path class="st8" d="M465.3,481.4c-13.2,0-19.3-5.7-19.3-15c0-13.5,12.6-17.4,28.3-19v-3.1c0-7.8-4.7-10.1-11.2-10.1
			c-4.9,0-9.4,1.8-12.2,3.2l-2-4.9c2.9-1.6,8.6-3.8,15.5-3.8c9.4,0,17.7,4,17.7,16.5v32.5C478.3,480,472.3,481.4,465.3,481.4z
			 M474.3,451.7c-12.8,1.6-20.4,4.3-20.4,14.6c0,7.3,4.5,10.3,12,10.3c3.2,0,6.3-0.6,8.4-1.7V451.7z"/>
		<path class="st8" d="M500.2,420c-2.7,0-4.9-2.1-4.9-4.5c0-2.5,2.2-4.6,4.9-4.6c2.6,0,4.8,2.1,4.8,4.6
			C505,417.9,502.8,420,500.2,420z M496,480.5v-50.7h8.3v50.7H496z"/>
		<path class="st8" d="M546.6,480.5v-36.4c0-4.7-2-9.9-10.6-9.9c-4.7,0-7,0.7-9.6,1.8v44.5h-8.3v-48.1c4.5-2.2,10.4-3.6,18.5-3.6
			c14.1,0,18.2,7.8,18.2,15v36.6H546.6z"/>
		<path class="st8" d="M585,481.4c-13.2,0-19.3-5.7-19.3-15c0-13.5,12.6-17.4,28.3-19v-3.1c0-7.8-4.7-10.1-11.2-10.1
			c-4.9,0-9.4,1.8-12.2,3.2l-2-4.9c2.9-1.6,8.6-3.8,15.5-3.8c9.4,0,17.7,4,17.7,16.5v32.5C598,480,592.1,481.4,585,481.4z
			 M594,451.7c-12.8,1.6-20.4,4.3-20.4,14.6c0,7.3,4.5,10.3,12,10.3c3.2,0,6.3-0.6,8.4-1.7V451.7z"/>
		<path class="st8" d="M630.3,481.4c-6.9,0-12.1-1.6-15.1-3.6v-71.2h8.2v24.8c2.5-1.3,5.4-2.4,10.3-2.4c11.7,0,19.7,9.8,19.7,25.1
			C653.4,470.5,645.4,481.4,630.3,481.4z M631.7,434c-3.8,0-5.9,0.7-8.3,2v38.8c1.9,0.9,4.5,1.2,7.1,1.2c10.4,0,14.6-8.7,14.6-21.5
			C645.1,443.4,641.2,434,631.7,434z"/>
		<path class="st8" d="M665.3,480.5v-73.8h8.3v73.8H665.3z"/>
		<path class="st8" d="M693.4,458.3c0.9,11.5,6.3,17.1,15.4,17.1c5.7,0,9.9-1.4,12.5-2.9l2.2,5.4c-3.1,1.9-8.5,3.5-15.3,3.5
			c-13.3,0-22.6-8.4-22.6-26.4c0-17.2,8.5-26.1,20.4-26.1c12.1,0,19.5,7.9,19.3,24.8L693.4,458.3z M705.8,434.2
			c-7.3,0-12.8,5.9-12.6,19.7l24.3-3.7C717.4,438.7,713,434.2,705.8,434.2z"/>
		<path class="st8" d="M741.8,480.8c-3,0-5.5-2.4-5.5-5.5c0-3,2.4-5.4,5.5-5.4s5.4,2.4,5.4,5.4C747.1,478.4,744.8,480.8,741.8,480.8
			z"/>
		<path class="st8" d="M792,458.3c0.9,11.5,6.3,17.1,15.4,17.1c5.7,0,9.9-1.4,12.5-2.9l2.2,5.4c-3.1,1.9-8.5,3.5-15.3,3.5
			c-13.3,0-22.6-8.4-22.6-26.4c0-17.2,8.5-26.1,20.4-26.1c12.1,0,19.5,7.9,19.3,24.8L792,458.3z M804.3,434.2
			c-7.3,0-12.8,5.9-12.6,19.7l24.3-3.7C816,438.7,811.6,434.2,804.3,434.2z"/>
		<path class="st8" d="M846.4,434.9v45.5h-8.3v-45.5h-5.8v-5.2h5.8v-7.1c0-10,6-16.5,17.1-16v5.3c-5,0.3-8.8,2.6-8.8,9.8v8.1h8.8
			v5.2H846.4z"/>
		<path class="st8" d="M875.5,434.9v45.5h-8.3v-45.5h-5.8v-5.2h5.8v-7.1c0-10,6-16.5,17.1-16v5.3c-5,0.3-8.8,2.6-8.8,9.8v8.1h8.8
			v5.2H875.5z"/>
		<path class="st8" d="M898.3,420c-2.7,0-4.9-2.1-4.9-4.5c0-2.5,2.2-4.6,4.9-4.6c2.6,0,4.8,2.1,4.8,4.6
			C903.1,417.9,900.9,420,898.3,420z M894.1,480.5v-50.7h8.3v50.7H894.1z"/>
		<path class="st8" d="M933.5,481.4c-11.1,0-19.3-10-19.3-26.3c0-16.6,8.2-26.2,19.5-26.2c6.2,0,9.6,2,11.2,3.4l-2,4.8
			c-1.5-1.1-3.8-2.4-7.5-2.4c-9.2,0-12.8,8.4-12.8,20.2c0,12.1,4.3,20.5,12.5,20.5c3.5,0,5.8-1.1,7.7-2.4l2.1,5.2
			C942.9,479.8,939.2,481.4,933.5,481.4z"/>
		<path class="st8" d="M959.6,420c-2.7,0-4.9-2.1-4.9-4.5c0-2.5,2.2-4.6,4.9-4.6c2.6,0,4.8,2.1,4.8,4.6
			C964.4,417.9,962.2,420,959.6,420z M955.5,480.5v-50.7h8.3v50.7H955.5z"/>
		<path class="st8" d="M983.4,458.3c0.9,11.5,6.3,17.1,15.4,17.1c5.7,0,9.9-1.4,12.5-2.9l2.2,5.4c-3.1,1.9-8.5,3.5-15.3,3.5
			c-13.3,0-22.6-8.4-22.6-26.4c0-17.2,8.5-26.1,20.4-26.1c12.1,0,19.5,7.9,19.3,24.8L983.4,458.3z M995.7,434.2
			c-7.3,0-12.8,5.9-12.6,19.7l24.3-3.7C1007.4,438.7,1002.9,434.2,995.7,434.2z"/>
		<path class="st8" d="M1055.1,480.5v-36.4c0-4.7-2-9.9-10.6-9.9c-4.7,0-7,0.7-9.6,1.8v44.5h-8.3v-48.1c4.5-2.2,10.4-3.6,18.5-3.6
			c14.1,0,18.2,7.8,18.2,15v36.6H1055.1z"/>
		<path class="st8" d="M1092.2,480.9c-9.2,0-12.6-6.6-12.6-12.8v-33.2h-5.8v-5.2h5.8v-11.7l8.3-2.5v14.2h8.8v5.2h-8.8v33
			c0,4,1.8,7.3,6.4,7.3c0.8,0,1.6-0.2,2.4-0.4v5.3C1095.8,480.5,1094.3,480.9,1092.2,480.9z"/>
		<path class="st8" d="M1112,480.8c-3,0-5.5-2.4-5.5-5.5c0-3,2.4-5.4,5.5-5.4c3,0,5.4,2.4,5.4,5.4
			C1117.4,478.4,1115.1,480.8,1112,480.8z"/>
		<path class="st8" d="M1172.5,481.2c-2.9,0-6-0.6-7.9-1.2v20.7h-8.2v-68.3c3.4-2,8.6-3.6,15.8-3.6c14.3,0,22.4,10,22.4,25.5
			C1194.6,471.1,1185.9,481.2,1172.5,481.2z M1171.9,433.8c-3.1,0-5.3,0.6-7.2,1.4V475c1.6,0.7,3.7,1.1,6.2,1.1
			c10.2,0,15.5-8,15.5-21.4C1186.3,441.8,1182.6,433.8,1171.9,433.8z"/>
		<path class="st8" d="M1225.8,435.2c-4.1-1.2-8.8-0.8-11.6,0.9v44.3h-8.3v-48c5-2.5,9.8-3.9,21.8-3.6L1225.8,435.2z"/>
		<path class="st8" d="M1254.1,481.4c-13.8,0-19.8-11.4-19.8-26.2c0-15.1,6.1-26.3,19.7-26.3c13.9,0,19.8,11.2,19.8,26.3
			C1273.9,470,1267.9,481.4,1254.1,481.4z M1254.1,434.1c-9.7,0-11.6,10.8-11.6,21.1c0,10.2,2.1,20.5,11.6,20.5
			c9.7,0,11.5-10.3,11.5-20.5S1263.8,434.1,1254.1,434.1z"/>
		<path class="st8" d="M1301.9,501.7c-6.7,0-12.3-1.4-15.7-3.5l2.5-5.5c2.8,1.6,7.2,3,11.8,3c9.3,0,12.9-5.6,12.9-13.3v-3.6
			c-2.3,1.3-5.7,2.2-10.2,2.2c-12.1,0-19.9-9.6-19.9-25c0-16.1,7.8-27.2,23-27.2c7.1,0,12.1,1.7,15,3.6v49.1
			C1321.4,494.3,1314.1,501.7,1301.9,501.7z M1313.4,435.2c-1.9-1-4.3-1.4-7.2-1.4c-10.2,0-14.7,8.6-14.7,21.9
			c0,13.1,4.2,20.4,13.9,20.4c3.2,0,6-0.8,8-2.1V435.2z"/>
		<path class="st8" d="M1354.6,435.2c-4.1-1.2-8.8-0.8-11.6,0.9v44.3h-8.3v-48c5-2.5,9.8-3.9,21.8-3.6L1354.6,435.2z"/>
		<path class="st8" d="M1370.9,458.3c0.9,11.5,6.3,17.1,15.4,17.1c5.7,0,9.9-1.4,12.5-2.9l2.2,5.4c-3.1,1.9-8.5,3.5-15.3,3.5
			c-13.3,0-22.6-8.4-22.6-26.4c0-17.2,8.5-26.1,20.4-26.1c12.1,0,19.5,7.9,19.3,24.8L1370.9,458.3z M1383.2,434.2
			c-7.3,0-12.8,5.9-12.6,19.7l24.3-3.7C1394.8,438.7,1390.4,434.2,1383.2,434.2z"/>
		<path class="st8" d="M1424,481.2c-5.5,0-10.2-1.4-13-3.5l2.3-5.5c1.8,1.5,5.4,3,9.9,3c5.6,0,9.4-3.9,9.4-8.7
			c0-5.3-2.8-7.6-8.4-9.7c-9.9-3.7-11.8-8.9-11.8-14.2c0-7.5,5.9-13.9,15.1-13.9c5.2,0,9.2,1.7,11.9,3.5l-2.2,5
			c-1.5-1.1-4.5-2.8-8.5-2.8c-5.5,0-8.5,3.7-8.5,8c0,4.9,3.6,7.2,8.5,9.1c9.9,3.8,12.3,9,12.3,14.9
			C1441,474.1,1434.3,481.2,1424,481.2z"/>
		<path class="st8" d="M1462,481.2c-5.5,0-10.2-1.4-13-3.5l2.3-5.5c1.8,1.5,5.4,3,9.9,3c5.6,0,9.4-3.9,9.4-8.7
			c0-5.3-2.8-7.6-8.4-9.7c-9.9-3.7-11.8-8.9-11.8-14.2c0-7.5,5.9-13.9,15.1-13.9c5.2,0,9.2,1.7,11.9,3.5l-2.2,5
			c-1.5-1.1-4.5-2.8-8.5-2.8c-5.5,0-8.5,3.7-8.5,8c0,4.9,3.6,7.2,8.5,9.1c9.9,3.8,12.3,9,12.3,14.9
			C1479,474.1,1472.3,481.2,1462,481.2z"/>
		<path class="st8" d="M1494.8,420c-2.7,0-4.9-2.1-4.9-4.5c0-2.5,2.2-4.6,4.9-4.6c2.6,0,4.8,2.1,4.8,4.6
			C1499.6,417.9,1497.4,420,1494.8,420z M1490.7,480.5v-50.7h8.3v50.7H1490.7z"/>
		<path class="st8" d="M1533.1,480.5h-7.4l-16.8-50.7h8.8l10.6,36.3c1,3.4,1.3,6.2,1.3,6.2h0.2c0,0,0.2-2.7,1.2-6.2l10.8-36.3h7.7
			L1533.1,480.5z"/>
		<path class="st8" d="M1564.5,458.3c0.9,11.5,6.3,17.1,15.4,17.1c5.7,0,9.9-1.4,12.5-2.9l2.2,5.4c-3.1,1.9-8.5,3.5-15.3,3.5
			c-13.3,0-22.6-8.4-22.6-26.4c0-17.2,8.5-26.1,20.4-26.1c12.1,0,19.5,7.9,19.3,24.8L1564.5,458.3z M1576.8,434.2
			c-7.3,0-12.8,5.9-12.6,19.7l24.3-3.7C1588.5,438.7,1584.1,434.2,1576.8,434.2z"/>
		<path class="st8" d="M1612.8,480.8c-3,0-5.4-2.4-5.4-5.5c0-3,2.4-5.4,5.4-5.4c3,0,5.4,2.4,5.4,5.4
			C1618.2,478.4,1615.8,480.8,1612.8,480.8z"/>
	</g>
	<g class="st20">
		<path class="st9" d="M149.1,261.5C138,273,120.5,279.5,101,279.5c-20.2,0-35.5-5.3-48.1-19.8V350H3.3V78.4h48.1v18.7
			c13.7-15.3,28.2-21,49.6-21c19.5,0,37,6.5,48.1,17.9c19.1,19.5,20.6,50.4,20.6,83.6S168.2,242.1,149.1,261.5z M86.5,120.7
			c-29.8,0-33.6,24.8-33.6,56.8c0,32.1,3.8,57.2,33.6,57.2c29.8,0,33.6-25.2,33.6-57.2C120.1,145.5,116.3,120.7,86.5,120.7z"/>
		<path class="st9" d="M283.8,309.2c-4.2,11.1-8.8,19.5-14.9,25.6c-11.4,11.4-26.3,15.3-42.7,15.3h-19.5v-44.6h11.4
			c14.1,0,19.8-3.4,24.8-17.9l8.4-24.4L183.4,78.4h52.3l41.2,122.9l39.7-122.9h52.3L283.8,309.2z"/>
		<path class="st9" d="M504.3,132.6c-7.6-7.6-14.1-11.8-26.3-11.8c-15.3,0-32.1,11.4-32.1,36.6v119.8h-49.6V78.4h48.5v19.1
			c9.5-11.4,28.6-21.4,50-21.4c19.5,0,33.2,5,46.9,18.7L504.3,132.6z"/>
	</g>
	<g class="st20">
		<path class="st9" d="M851.9,277.2c-40.8,0-58-28.6-58-56.9V5.5h49.6v211.8c0,11.8,5,17.9,17.6,17.9h19.1v42H851.9z"/>
		<path class="st9" d="M980.1,309.2c-4.2,11.1-8.8,19.5-14.9,25.6c-11.4,11.4-26.3,15.3-42.7,15.3h-19.5v-44.6h11.4
			c14.1,0,19.8-3.4,24.8-17.9l8.4-24.4L879.8,78.4h52.3l41.2,122.9L1013,78.4h52.3L980.1,309.2z"/>
		<path class="st9" d="M1212.5,277.2l-36.6-59.5l-36.3,59.5h-59.5l68.7-101.5l-66-97.3h59.5l33.6,56.9l34-56.9h59.5l-66,97.3
			l68.7,101.5H1212.5z"/>
	</g>
	<path class="st21" d="M717.1,87.5c-18.8-15.8-43-25.3-69.5-25.3c-59.7,0-108.2,48.4-108.2,108.2c0,26.5,9.5,50.7,25.3,69.5
		l34.4-34.4c-7.2-9.9-11.4-22-11.4-35.1c0-33.1,26.8-59.9,59.9-59.9c13.1,0,25.2,4.3,35.1,11.4L717.1,87.5z"/>
	<path class="st22" d="M578.1,253.2c18.8,15.8,43,25.3,69.5,25.3c59.7,0,108.2-48.4,108.2-108.2c0-26.5-9.5-50.7-25.3-69.5
		l-34.4,34.4c7.2,9.9,11.4,22,11.4,35.1c0,33.1-26.8,59.9-59.9,59.9c-13.1,0-25.2-4.3-35.1-11.4L578.1,253.2z"/>
</g>
</svg>
