<svg version="1.1" id="Layer_1" xmlns="http://www.w3.org/2000/svg" xmlns:xlink="http://www.w3.org/1999/xlink" x="0px" y="0px"
	 viewBox="0 0 230 68" style="enable-background:new 0 0 230 68;" xml:space="preserve">
<style type="text/css">
	.st0{clip-path:url(#SVGID_2_);}
	.st1{clip-path:url(#SVGID_4_);fill:#002B54;}
</style>
<g>
	<g>
		<defs>
			<rect id="SVGID_1_" y="1" width="230" height="65.9"/>
		</defs>
		<clipPath id="SVGID_2_">
			<use xlink:href="#SVGID_1_"  style="overflow:visible;"/>
		</clipPath>
		<g class="st0">
			<defs>
				<rect id="SVGID_3_" y="1" width="230" height="65.9"/>
			</defs>
			<clipPath id="SVGID_4_">
				<use xlink:href="#SVGID_3_"  style="overflow:visible;"/>
			</clipPath>
			<path class="st1" d="M73.6,54.7c-0.6-0.9-1.7-1.3-2.7-1.3c-2.4,0-4.2,2.1-4.2,4.5c0,2.5,1.7,4.5,4.2,4.5c1.3,0,2.4-0.5,3.2-1.5
				l1,0.8c-1,1.3-2.4,1.9-4.1,1.9c-3.1,0-5.6-2.4-5.6-5.8c0-3.2,2.3-5.8,5.6-5.8c1.5,0,2.9,0.5,3.9,1.7L73.6,54.7z"/>
			<path class="st1" d="M81.4,52.5h1.2l4.7,10.9h-1.5l-1.1-2.7h-5.5l-1.1,2.7h-1.5L81.4,52.5z M82,54.1L82,54.1l-2.3,5.4h4.5
				L82,54.1z"/>
			<path class="st1" d="M89.8,52.5h3.2c2,0,3.8,0.7,3.8,3c0,2.4-2,3-3.6,3h-2.2v4.9h-1.3V52.5z M91.1,57.3h2.2
				c1.3,0,2.2-0.6,2.2-1.8c0-1.2-0.9-1.8-2.2-1.8h-2.2V57.3z"/>
			<rect x="100.1" y="52.5" class="st1" width="1.3" height="11"/>
			<polygon class="st1" points="112.5,53.7 108.9,53.7 108.9,63.4 107.6,63.4 107.6,53.7 104,53.7 104,52.5 112.5,52.5 			"/>
			<path class="st1" d="M117.2,52.5h1.2l4.7,10.9h-1.5l-1.1-2.7H115l-1.1,2.7h-1.5L117.2,52.5z M117.8,54.1L117.8,54.1l-2.3,5.4h4.5
				L117.8,54.1z"/>
			<polygon class="st1" points="125.6,52.5 126.9,52.5 126.9,62.2 131.9,62.2 131.9,63.4 125.6,63.4 			"/>
			<path class="st1" d="M65.3,23.1H73c5.6,0,7,3.4,7,6.2c0,2.8-1.4,6.1-7,6.1h-4.8v9.7h-3V23.1z M68.3,32.8h3.9
				c2.4,0,4.7-0.6,4.7-3.5c0-3-2.4-3.5-4.7-3.5h-3.9V32.8z"/>
			<polygon class="st1" points="85.8,23.1 100,23.1 100,25.9 88.8,25.9 88.8,32.4 99.3,32.4 99.3,35.2 88.8,35.2 88.8,42.3 
				100.6,42.3 100.6,45.1 85.8,45.1 			"/>
			<polygon class="st1" points="107,23.1 110.9,23.1 123,41.2 123,41.2 123,23.1 126,23.1 126,45.1 122.2,45.1 110,27 109.9,27 
				109.9,45.1 107,45.1 			"/>
			<path class="st1" d="M152.5,32.8v10.8c-2.1,1.3-5.7,2-8.3,2c-7.5,0-11.8-5.3-11.8-11.6c0-6.5,4.8-11.6,11.5-11.6
				c4,0,6.5,1.1,8.2,2.9l-2.1,2.3c-1.8-1.7-3.9-2.3-6.1-2.3c-5,0-8.3,3.9-8.3,8.8c0,5,3.7,8.8,8.5,8.8c2.1,0,4.1-0.4,5.4-1.1v-6.1
				h-4.9v-2.8H152.5z"/>
			<path class="st1" d="M167,23.1h2.7l9.4,22h-3.5l-2.2-5.4H163l-2.2,5.4h-3.5L167,23.1z M172.4,37L168.3,27h-0.1L164,37H172.4z"/>
			<polygon class="st1" points="184.1,23.1 188,23.1 200.2,41.2 200.2,41.2 200.2,23.1 203.2,23.1 203.2,45.1 199.4,45.1 187.2,27 
				187.1,27 187.1,45.1 184.1,45.1 			"/>
			<path class="st1" d="M217.9,23.1h2.7l9.4,22h-3.5l-2.2-5.4h-10.5l-2.2,5.4h-3.5L217.9,23.1z M223.2,37L219.1,27h-0.1L214.9,37
				H223.2z"/>
			<path class="st1" d="M54.3,45.4c-0.2-0.1-10-9.2-20.5-9.2c-0.9,0-4.7-0.2-11.6,4c7.7-2.4,11.5,2.1,11.5,2.1c4.2,5,2,10.1,2,10.1
				c-1.5,3.5-3.6,4.2-3.6,4.2c-0.7,0.7-1.6,0.1-1.6,0.1c-2.8-2.3-5.4-1.4-5.4-1.4c0.5,0.4,1.1,0.4,1.1,0.4c2.6-0.2,3.5,1.2,3.5,1.2
				c-2.8,0-3.8,1.2-3.8,1.2c1-0.1,0.9-0.3,0.9-0.3c3.1-0.9,4.4,0.7,4.4,0.7c1.3,1,0.9,2.9,0.9,2.9c0,0.8,0.6,0.6,0.6,0.6
				c0.3-0.4,0.2-2.3,0.2-2.3c0,0.6,0.6,2.1,0,4.3c0.2-0.8-0.3-1.6-0.3-1.6C32,62.1,32,61.6,32,61.6c-0.1-0.6,0-1.1,0-1.1
				c-0.1-1.7-1.6-2.4-1.6-2.4c-1-0.8-3.5-0.1-3.5-0.1c-1.3,0.7-1.7-0.1-1.7-0.1c-0.5,0.2-1.4,0.7-1.4,0.7c2.7-2.9,5.3-2,5.3-2
				c-0.7-0.8-2.7-0.7-2.7-0.7c-0.7,0.1-1.4-0.5-1.4-0.5c-1.1,0.1-1.7,0.4-1.7,0.4c1.4-1.6,3.7-1.5,3.7-1.5c1.6,0.1,3,1.2,3,1.2
				c1.6,0.9,3.4-1.2,3.4-1.2c1.7-2,1.6-5.8,1.6-5.8c-0.3-2.8-0.8-3.8-2.3-5.3c-4.7-4.6-11.9-1.5-16.4,1.3c-2.8,2.2-6,5.1-9.6,8.7
				c0,0,0,0,0,0c-4,3.4-3.8,6.4-3.8,6.4c-2.5,3.3-0.5,5.9-0.5,5.9c0.5-3.3,4.7-5,4.7-5l0.3,0.5c-2.7,1.6-4.3,4.4-4.3,4.4
				c-0.5,0.9,0.7,1.5,0.7,1.5c-4-1-2.8-5.9-2.8-5.9c-1.5-1.9-0.3-4.5-0.3-4.5C1.2,54.2,4.4,51,4.4,51c1.3-1.3,2.7-4.9,3.4-6.8
				C10.9,30.6,18.8,1.2,29.1,1c1.6,0.3,2.9,1.3,4.8,2.5c0.6,0.4,11.6,11,8.6,13.6c-0.2,0-15.3-2-21.8,5.1
				C20.3,22.8,8.8,32.4,7.6,49.4c6.4-5.9,35.6-31.8,45.4-25c1.2,1.2,1.6,2.7,2.4,4.8C55.6,29.9,58.3,45,54.3,45.4"/>
		</g>
	</g>
</g>
</svg>
