<svg id="Layer_1" data-name="Layer 1" xmlns="http://www.w3.org/2000/svg" viewBox="0 0 180 67.89"><defs><style>.cls-1{fill:#231f20;}.cls-2{fill:#00953a;}</style></defs><title>nanollose_logo_masthead</title><path class="cls-1" d="M17.48,47.77c5,0,7.24,2.69,7.24,7.21V67c0,.34-.11.45-.45.45h-.75c-.3,0-.41-.11-.41-.45V55.05c0-3.77-1.79-5.79-5.83-5.79a16.1,16.1,0,0,0-5.6,1,1.12,1.12,0,0,0-.78,1.23V67c0,.34-.11.45-.41.45H9.75c-.3,0-.45-.11-.45-.45V51.06c0-1.16.3-1.57,1.42-2.05A17.3,17.3,0,0,1,17.48,47.77Z" transform="translate(-0.13 -0.08)"/><path class="cls-1" d="M39.68,47.77c5.86,0,7.24,3.4,7.24,7.28v9.82c0,1.31-.3,1.68-1.34,2.13a14.89,14.89,0,0,1-5.94,1c-6.42,0-8-2-8-5.68,0-4.18,2.32-5.64,8.1-5.64a45.07,45.07,0,0,1,5.53.41V55c0-3.17-1-5.79-5.71-5.79-2.95,0-4.82,1.19-5.86,3.17-.19.26-.3.3-.6.19l-.6-.22c-.3-.15-.41-.3-.22-.63C33.63,49.23,36,47.77,39.68,47.77Zm0,10.23c-4.67,0-6.31,1.2-6.31,4.26,0,2.76,1.08,4.37,6.2,4.37a13.13,13.13,0,0,0,4.93-.75c.71-.3.86-.49.86-1.38V58.41A50,50,0,0,0,39.64,58Z" transform="translate(-0.13 -0.08)"/><path class="cls-1" d="M62.65,47.77c5,0,7.24,2.69,7.24,7.21V67c0,.34-.11.45-.45.45H68.7c-.3,0-.41-.11-.41-.45V55.05c0-3.77-1.79-5.79-5.83-5.79a16.1,16.1,0,0,0-5.6,1,1.12,1.12,0,0,0-.78,1.23V67c0,.34-.11.45-.41.45h-.75c-.3,0-.45-.11-.45-.45V51.06c0-1.16.3-1.57,1.42-2.05A17.3,17.3,0,0,1,62.65,47.77Z" transform="translate(-0.13 -0.08)"/><path class="cls-1" d="M85.13,47.77c4.93,0,8,2.5,8,6.57v7.1c0,4.07-3.1,6.53-8,6.53s-8-2.46-8-6.53v-7.1C77.14,50.27,80.27,47.77,85.13,47.77Zm0,1.46c-3.81,0-6.39,1.94-6.39,5.08v7.13c0,3.14,2.58,5.08,6.39,5.08s6.42-1.94,6.42-5.08V54.31C91.55,51.17,89,49.23,85.13,49.23Z" transform="translate(-0.13 -0.08)"/><path class="cls-1" d="M101.82,67.45h-.75c-.34,0-.41-.11-.41-.45V40.27c0-.34.07-.45.41-.45h.75c.34,0,.41.11.41.45V67C102.23,67.34,102.15,67.45,101.82,67.45Z" transform="translate(-0.13 -0.08)"/><path class="cls-1" d="M111.27,67.45h-.75c-.34,0-.41-.11-.41-.45V40.27c0-.34.07-.45.41-.45h.75c.34,0,.41.11.41.45V67C111.68,67.34,111.6,67.45,111.27,67.45Z" transform="translate(-0.13 -0.08)"/><path class="cls-1" d="M127.11,47.77c4.93,0,8,2.5,8,6.57v7.1c0,4.07-3.1,6.53-8,6.53s-8-2.46-8-6.53v-7.1C119.12,50.27,122.26,47.77,127.11,47.77Zm0,1.46c-3.81,0-6.39,1.94-6.39,5.08v7.13c0,3.14,2.58,5.08,6.39,5.08s6.42-1.94,6.42-5.08V54.31C133.54,51.17,131,49.23,127.11,49.23Z" transform="translate(-0.13 -0.08)"/><path class="cls-1" d="M149.49,47.77c4.29,0,6.42,1.61,7.47,4.11a.41.41,0,0,1-.22.63l-.56.22c-.34.15-.45.07-.63-.19-.82-2-2.35-3.32-6-3.32s-5.6,1.34-5.6,3.88c0,3.55,2.76,3.77,6.27,4.11,3.88.37,7.09,1.12,7.09,5.3,0,3.36-2.35,5.45-7.43,5.45-4,0-6.65-1.34-8-4.71a.4.4,0,0,1,.26-.6l.63-.19c.3-.11.41-.07.56.26,1,2.76,3.21,3.81,6.46,3.81,4.07,0,5.9-1.46,5.9-4,0-3.14-2.5-3.62-5.86-4-3.85-.37-7.51-.75-7.51-5.49C142.36,49.79,144.75,47.77,149.49,47.77Z" transform="translate(-0.13 -0.08)"/><path class="cls-1" d="M172.07,47.77c5.41,0,8.07,3.14,8.07,7.73v1.9c0,.52-.26.82-.86.82H165.61v2.54c0,3.55,2.05,5.83,6.24,5.83,3.51,0,5.41-1.49,6.61-3.66a.44.44,0,0,1,.67-.19l.52.3c.3.15.34.37.15.67-1.31,2.43-3.62,4.26-8,4.26-5.34,0-7.84-2.91-7.84-7.36v-5C164,50.76,166.76,47.77,172.07,47.77Zm0,1.42c-4.33,0-6.46,2.43-6.46,6.24v1.49h12.92V55.43C178.53,51.62,176.4,49.19,172.07,49.19Z" transform="translate(-0.13 -0.08)"/><path class="cls-2" d="M48.87,11c.24.46.48.92.73,1.45a112.31,112.31,0,0,0,6.33,12.42,30.85,30.85,0,0,0,9.54,10,20.83,20.83,0,0,0,12.82,2.9,34.25,34.25,0,0,0,10.46-2.91A59.43,59.43,0,0,0,95.83,31c.92-.61,1.77-1.13,2.47-1.62l1.76-1.27,1.46-1.06a.67.67,0,0,0,.14-1,.85.85,0,0,0-1.11-.16l0,0-1.48,1-1.78,1.18c-.71.45-1.55.93-2.48,1.48a58,58,0,0,1-7,3.48,31.88,31.88,0,0,1-9.71,2.32,17.53,17.53,0,0,1-10.78-2.85,27.33,27.33,0,0,1-8.06-9.28,108.72,108.72,0,0,1-5.58-12.3c-.22-.54-.49-1.13-.78-1.72A25,25,0,0,0,51.34,6c-.11-.18-.23-.34-.32-.46a19.31,19.31,0,0,0-1.29-1.74,11.65,11.65,0,0,0-3.19-2.46A10.76,10.76,0,0,0,41.47.08a10.46,10.46,0,0,0-4.94,1.19,13.4,13.4,0,0,0-2.06,1.25,7.83,7.83,0,0,0-.81.62L33,3.73a26.37,26.37,0,0,0-2.83,3c-.82,1-1.57,2-2.28,3a118.36,118.36,0,0,0-7.27,12.14c-1.06,2-3.3,5.77-3.55,6.28-2.64-11-5.94-15.15-6.53-16.1A10.64,10.64,0,0,0,8.83,10c-2.26-2.18-4.9-2-7.35.31-1.87,1.77-1.79,4.1.26,6.45,1.35,1.54,5.9,5.21,8.83,15.67l.34.81a7.6,7.6,0,0,0,1.58,2.58,6.43,6.43,0,0,0,3.2,1.7A4.89,4.89,0,0,0,19,37.1,5.46,5.46,0,0,0,21.42,35a4.11,4.11,0,0,0,.4-.64L22,34l.08-.16,0-.09.31-.72,1.24-2.88c.85-1.93,1.75-3.9,2.68-5.88a112.24,112.24,0,0,1,6.38-11.83c.61-1,1.24-1.88,1.91-2.77.32-.46.69-.86,1-1.29.17-.21.36-.39.54-.59l.27-.29.07-.07,0,0-.07.06.17-.15.68-.62A4.79,4.79,0,0,1,38,6.12,8.15,8.15,0,0,1,39.1,5.4a4.93,4.93,0,0,1,2.38-.73,6.66,6.66,0,0,1,4.83,2.24,14.12,14.12,0,0,1,1,1.28l.2.27.12.2A18.54,18.54,0,0,1,48.87,11Z" transform="translate(-0.13 -0.08)"/></svg>