<?xml version="1.0" encoding="utf-8"?>
<!-- Generator: Adobe Illustrator 21.0.2, SVG Export Plug-In . SVG Version: 6.00 Build 0)  -->
<svg version="1.1" id="Layer_1" xmlns="http://www.w3.org/2000/svg" xmlns:xlink="http://www.w3.org/1999/xlink" x="0px" y="0px"
	 viewBox="0 0 49.7 49.7" style="enable-background:new 0 0 49.7 49.7;" xml:space="preserve">
<style type="text/css">
	.st0{fill:#313B45;}
</style>
<g>
	<path class="st0" d="M28,31.7c-0.7,0-1.3,0.2-1.8,0.7s-0.7,1.1-0.7,1.9c0,0.8,0.2,1.5,0.7,2S27.3,37,28,37s1.3-0.3,1.8-0.8
		s0.7-1.1,0.7-1.9c0-0.8-0.2-1.4-0.7-1.9C29.3,31.9,28.7,31.7,28,31.7z"/>
	<path class="st0" d="M17.3,31.7c-0.7,0-1.3,0.2-1.8,0.7s-0.7,1.1-0.7,1.9c0,0.8,0.2,1.4,0.7,1.9s1.1,0.8,1.7,0.8
		c0.7,0,1.3-0.2,1.8-0.7s0.7-1.1,0.7-2c0-0.8-0.2-1.4-0.7-1.9C18.6,31.9,18,31.7,17.3,31.7z"/>
	<path class="st0" d="M38.1,31.7c-0.7,0-1.3,0.2-1.8,0.7s-0.7,1.1-0.7,1.9c0,0.8,0.2,1.4,0.7,1.9S37.4,37,38,37
		c0.7,0,1.3-0.2,1.8-0.7s0.7-1.1,0.7-2c0-0.8-0.2-1.4-0.7-1.9C39.4,31.9,38.8,31.7,38.1,31.7z"/>
	<path class="st0" d="M24.8,0C11.1,0,0,11.1,0,24.8C0,38.1,10.5,49,23.7,49.6l0,0h25.9V24.8C49.6,11.1,38.5,0,24.8,0z M21.9,38.9
		h-2.3v-1c-0.4,0.4-0.9,0.7-1.3,0.9s-0.9,0.3-1.5,0.3c-1.2,0-2.2-0.5-3-1.4c-0.9-0.9-1.3-2-1.3-3.4s0.4-2.5,1.2-3.4s1.8-1.3,3-1.3
		c0.5,0,1.1,0.1,1.5,0.3c0.5,0.2,0.9,0.5,1.3,0.9v-1h2.3v9.1H21.9z M31.5,37.8c-0.9,0.9-1.9,1.4-3,1.4c-0.5,0-1-0.1-1.5-0.3
		s-0.9-0.5-1.3-0.9v4.3h-2.3V29.8h2.3v1c0.4-0.4,0.9-0.7,1.3-0.9c0.5-0.2,1-0.3,1.5-0.3c1.2,0,2.2,0.4,3,1.3s1.2,2,1.2,3.4
		C32.7,35.7,32.3,36.8,31.5,37.8z M42.7,38.9h-2.3v-1c-0.4,0.4-0.9,0.7-1.3,0.9c-0.4,0.2-0.9,0.3-1.5,0.3c-1.2,0-2.2-0.5-3-1.4
		c-0.9-0.9-1.3-2-1.3-3.4s0.4-2.5,1.2-3.4s1.8-1.3,3-1.3c0.5,0,1.1,0.1,1.5,0.3c0.5,0.2,0.9,0.5,1.3,0.9v-4.5h2.3L42.7,38.9
		L42.7,38.9z"/>
</g>
</svg>
