<svg width="140" height="20" xmlns="http://www.w3.org/2000/svg"><path d="M14.394 12.706L12.483.45h-1.412L7.25 9.234 3.323.449H1.928L0 12.706h2.083l1.05-7.344 3.272 7.344h1.309l3.202-7.413 1.016 7.413h2.462zm14.102 0L22.917.45h-.844l-5.785 12.257h2.152l1.206-2.708h5.027l1.206 2.708h2.617zm-4.563-4.323h-3.564l1.756-3.976 1.808 3.976zM30.975.45v12.257h2.462V7.29c.482.087.93.14 1.43.14l3.099 5.277h2.754L37.328 6.89c1.275-.59 2.101-1.684 2.101-3.177 0-.573-.155-1.25-.448-1.736C38.172.64 36.846.449 35.417.449h-4.442zm2.462 1.684h1.016c1.309 0 2.462.451 2.462 1.962 0 1.198-.912 2.344-3.254 2.344h-.224V2.133zm17.631 10.573v-1.718h-5.475V.448h-2.48v12.258h7.955zm10.9 0V11.04h-5.855V7.203h4.511V5.518h-4.51V2.115h5.147V.45h-7.61v12.257h8.316zM89.976 3.21C89.719.71 87.704.05 85.879.05c-4.046 0-4.683 2.622-4.683 3.855 0 2.135 1.6 3.194 3.925 3.576 1.137.191 2.549.539 2.549 2.014 0 .955-.775 2.084-2.583 2.084-.603 0-2.703-.104-3.668-2.413l-.671.243c.155 1.823 1.377 3.663 4.546 3.663 3.546 0 4.907-2.153 4.907-4.063 0-1.77-1.05-3.125-4.236-3.733-1.618-.312-2.324-.833-2.324-1.84 0-1.563 1.687-1.91 2.651-1.91.43 0 2.359.07 2.979 1.858l.706-.174zM92.61.45v12.257h2.462V7.272c.465.052.913.122 1.395.122 2.204 0 4.718-1.164 4.718-3.716 0-1.684-1.137-3.23-3.96-3.23H92.61zm2.462 1.666h1.12c1.101 0 2.427.521 2.427 2.067 0 1.805-1.98 2.274-3.168 2.274h-.379v-4.34zm18.728 4.424c0-3.753-2.178-6.113-5.672-6.113-3.705 0-5.623 2.639-5.623 6.178 0 3.524 1.918 6.097 5.59 6.097 4.6 0 5.705-3.77 5.705-6.162zm-2.487 0c0 2.114-.584 4.621-3.152 4.621-2.6 0-3.137-2.655-3.137-4.769 0-1.983.73-4.424 3.104-4.424 2.503 0 3.185 2.474 3.185 4.572zm15.763 0c0-3.753-2.178-6.113-5.672-6.113-3.705 0-5.624 2.639-5.624 6.178 0 3.524 1.919 6.097 5.591 6.097 4.6 0 5.705-3.77 5.705-6.162zm-2.487 0c0 2.114-.585 4.621-3.153 4.621-2.6 0-3.136-2.655-3.136-4.769 0-1.983.73-4.424 3.104-4.424 2.503 0 3.185 2.474 3.185 4.572zm15.39 6.324V.449h-2.021v7.438L131.394.45h-2.217v12.257h2.037V3.725l8.117 9.138h.65zM74.288.45l-4.252 8.975L66.56.451h-2.653l4.758 11.955s.003.157-1.26 2.07c-1.194 1.812-2.82 3.382-5.092 3.603-2.131.208-4.405-.468-6.055-1.684l-.406.515.221.226c1.266 1.223 3.808 2.321 6.003 2.321a8.33 8.33 0 0 0 4.63-1.427c1.374-.926 2.342-2.252 3.196-3.656.258-.425.5-.858.743-1.292C71.97 10.714 76.708.56 76.758.45h-2.47z" fill="#2D2926" fill-rule="evenodd"/></svg>