<?xml version="1.0" encoding="utf-8"?>
<!-- Generator: Adobe Illustrator 19.2.1, SVG Export Plug-In . SVG Version: 6.00 Build 0)  -->
<svg version="1.1" id="Layer_1" xmlns="http://www.w3.org/2000/svg" xmlns:xlink="http://www.w3.org/1999/xlink" x="0px" y="0px"
	 viewBox="0 0 391.7 77" style="enable-background:new 0 0 391.7 77;" xml:space="preserve">
<style type="text/css">
	.st0{fill:#1072BA;}
	.st1{fill:#4E4E4E;}
	.st2{fill:#FFFFFF;}
</style>
<path class="st0" d="M76.7,55.4c-4.2-11.7-6.3-23.5-6.3-35.6c0-6-4.3-10.4-10.3-10.3C46.5,9.9,32.9,8,19.4,4
	c-6-1.9-9.8,2.6-9.4,10.6c0.7,15.9-1.4,31.9-6.3,48.1c-2.6,8.3,1,12.4,9.1,9.8c18-5.3,36-7.8,54-7.5C74.8,65.2,78.9,61.3,76.7,55.4z
	"/>
<path class="st1" d="M122.7,26.4c0,5.7-1.8,10.1-5.4,13.2c-3.6,3-8.7,4.6-15.3,4.6h-4.9v19H85.8V9.7h17c6.5,0,11.4,1.4,14.8,4.2
	S122.7,20.9,122.7,26.4z M97.1,34.9h3.7c3.5,0,6.1-0.7,7.8-2.1c1.7-1.4,2.6-3.4,2.6-6c0-2.7-0.7-4.6-2.2-5.9
	c-1.4-1.3-3.7-1.9-6.8-1.9h-5.1V34.9z"/>
<path class="st1" d="M163.2,42.6c0,6.6-1.8,11.8-5.3,15.6c-3.5,3.7-8.4,5.6-14.6,5.6c-3.9,0-7.4-0.9-10.4-2.6s-5.3-4.2-6.9-7.4
	c-1.6-3.2-2.4-7-2.4-11.2c0-6.7,1.7-11.9,5.2-15.6c3.5-3.7,8.4-5.5,14.7-5.5c3.9,0,7.4,0.9,10.4,2.6c3,1.7,5.3,4.1,6.9,7.3
	C162.4,34.6,163.2,38.4,163.2,42.6z M135,42.6c0,4,0.7,7.1,2,9.2c1.3,2.1,3.5,3.1,6.5,3.1c3,0,5.1-1,6.4-3.1c1.3-2.1,2-5.1,2-9.2
	c0-4-0.7-7.1-2-9.1c-1.3-2-3.5-3-6.5-3c-3,0-5.1,1-6.4,3C135.7,35.5,135,38.6,135,42.6z"/>
<rect x="166.6" y="22.7" class="st1" width="11" height="40.4"/>
<path class="st1" d="M221.7,63.1h-11.1V39.3c0-2.9-0.5-5.2-1.6-6.6c-1-1.5-2.7-2.2-5-2.2c-3.1,0-5.4,1-6.8,3.1s-2.1,5.5-2.1,10.4
	v19.2H184V22.3h8.5l1.5,5.2h0.6c1.2-2,3-3.5,5.1-4.5c2.2-1,4.7-1.5,7.4-1.5c4.7,0,8.3,1.3,10.8,3.9c2.5,2.6,3.7,6.3,3.7,11.1V63.1z"
	/>
<path class="st1" d="M244.6,55c1.9,0,4.3-0.4,7-1.3V62c-2.8,1.2-6.2,1.9-10.2,1.9c-4.5,0-7.7-1.1-9.7-3.4s-3-5.6-3-10.1V30.7h-5.3
	v-4.7l6.1-3.7l3.2-8.6h7.1v8.7h11.4v8.4h-11.4v19.7c0,1.6,0.4,2.8,1.3,3.5C241.9,54.6,243.1,55,244.6,55z"/>
<path class="st1" d="M273.8,63.8c-6.6,0-11.7-1.8-15.4-5.4c-3.7-3.6-5.5-8.8-5.5-15.4c0-6.8,1.7-12.1,5.1-15.9
	c3.4-3.7,8.1-5.6,14.2-5.6c5.8,0,10.3,1.6,13.5,4.9c3.2,3.3,4.8,7.8,4.8,13.6v5.4h-26.3c0.1,3.2,1.1,5.6,2.8,7.4
	c1.8,1.8,4.2,2.7,7.4,2.7c2.5,0,4.8-0.3,7-0.8c2.2-0.5,4.5-1.3,6.9-2.4V61c-1.9,1-4,1.7-6.2,2.2C279.7,63.6,277,63.8,273.8,63.8z
	 M272.2,29.5c-2.4,0-4.2,0.7-5.5,2.2c-1.3,1.5-2.1,3.6-2.3,6.4H280c0-2.8-0.8-4.9-2.2-6.4C276.5,30.2,274.6,29.5,272.2,29.5z"/>
<path class="st1" d="M318.2,21.5c1.5,0,2.8,0.1,3.8,0.3l-0.8,10.4c-0.9-0.2-2-0.4-3.3-0.4c-3.6,0-6.3,0.9-8.3,2.7
	c-2,1.8-3,4.4-3,7.7v20.8h-11.1V22.3h8.4l1.6,6.9h0.5c1.3-2.3,3-4.1,5.1-5.5S315.7,21.5,318.2,21.5z"/>
<path class="st1" d="M347.9,21.5c1.5,0,2.8,0.1,3.8,0.3l-0.8,10.4c-0.9-0.2-2-0.4-3.3-0.4c-3.6,0-6.3,0.9-8.3,2.7
	c-2,1.8-3,4.4-3,7.7v20.8h-11.1V22.3h8.4l1.6,6.9h0.5c1.3-2.3,3-4.1,5.1-5.5S345.4,21.5,347.9,21.5z"/>
<path class="st1" d="M379.3,63.1l-2.2-5.5h-0.3c-1.9,2.4-3.8,4-5.8,4.9c-2,0.9-4.6,1.4-7.8,1.4c-3.9,0-7-1.1-9.3-3.4
	c-2.3-2.2-3.4-5.4-3.4-9.6c0-4.3,1.5-7.5,4.5-9.6c3-2.1,7.6-3.2,13.7-3.4l7.1-0.2v-1.8c0-4.1-2.1-6.2-6.4-6.2c-3.3,0-7.1,1-11.5,3
	l-3.7-7.5c4.7-2.5,9.9-3.7,15.6-3.7c5.5,0,9.7,1.2,12.6,3.6c2.9,2.4,4.4,6,4.4,10.9v27.2H379.3z M376,44.2l-4.3,0.1
	c-3.2,0.1-5.6,0.7-7.2,1.8c-1.6,1.1-2.4,2.7-2.4,4.9c0,3.1,1.8,4.7,5.4,4.7c2.6,0,4.6-0.7,6.2-2.2c1.5-1.5,2.3-3.5,2.3-5.9V44.2z"/>
<circle class="st1" cx="172.1" cy="10.1" r="6.3"/>
<circle class="st2" cx="51" cy="23.4" r="2.1"/>
<ellipse class="st2" cx="44.7" cy="20.4" rx="3" ry="3.1"/>
<ellipse class="st2" cx="28.3" cy="22.6" rx="2.9" ry="3.4"/>
<ellipse transform="matrix(0.135 -0.9908 0.9908 0.135 -6.5359 56.4151)" class="st2" cx="29" cy="32" rx="3.4" ry="3"/>
<ellipse transform="matrix(0.6783 -0.7348 0.7348 0.6783 -33.612 37.4826)" class="st2" cx="26" cy="57.1" rx="3.7" ry="3"/>
<ellipse transform="matrix(0.4174 -0.9087 0.9087 0.4174 -28.922 54.2318)" class="st2" cx="27.8" cy="49.7" rx="2.5" ry="2.2"/>
<ellipse transform="matrix(0.4174 -0.9087 0.9087 0.4174 -20.5523 51.1733)" class="st2" cx="29.6" cy="41.6" rx="3.4" ry="3"/>
<ellipse transform="matrix(0.1937 -0.9811 0.9811 0.1937 -10.5489 69.4071)" class="st2" cx="37" cy="41.1" rx="1.9" ry="1.9"/>
<ellipse class="st2" cx="36.4" cy="18.7" rx="3.6" ry="4.1"/>
<ellipse transform="matrix(0.6451 -0.7641 0.7641 0.6451 -15.9026 47.3521)" class="st2" cx="43" cy="40.8" rx="2.1" ry="2.4"/>
<ellipse transform="matrix(0.2517 -0.9678 0.9678 0.2517 -7.587506e-03 76.6904)" class="st2" cx="49.6" cy="38.4" rx="2.9" ry="3.2"/>
<ellipse class="st2" cx="53.1" cy="30.8" rx="3.9" ry="3.7"/>
</svg>
