<svg id="Layer_1" data-name="Layer 1" xmlns="http://www.w3.org/2000/svg" viewBox="0 0 683.02 142.18"><title>Artboard 1 copy</title><polygon points="683.02 15.83 683.02 0 585.85 0 585.85 142.18 601.67 142.18 601.67 79 676.27 79 676.27 63.18 601.67 63.18 601.67 15.83 683.02 15.83"/><polygon points="506.4 15.83 506.4 0 409.22 0 409.22 142.18 506.4 142.18 506.4 126.35 425.05 126.35 425.05 79 499.64 79 499.64 63.18 425.05 63.18 425.05 15.83 506.4 15.83"/><path d="M319.93,142.17h20.53L288.26,79h2.15a39.5,39.5,0,0,0,0-79H224.68V142.18h15.83V79h27.22ZM240.51,15.83h49.9a23.67,23.67,0,0,1,0,47.34h-49.9Z"/><polygon points="0 10.94 13.16 0 71.91 71.09 13.16 142.18 0 131.24 49.71 71.09 0 10.94" style="fill:#95d600"/><polygon points="145.23 10.94 132.08 0 73.33 71.09 132.08 142.18 145.23 131.24 95.53 71.09 145.23 10.94" style="fill:#95d600"/></svg>