<?xml version="1.0" encoding="utf-8"?>
<!-- Generator: Adobe Illustrator 13.0.0, SVG Export Plug-In  -->
<!DOCTYPE svg PUBLIC "-//W3C//DTD SVG 1.1//EN" "http://www.w3.org/Graphics/SVG/1.1/DTD/svg11.dtd" [
	<!ENTITY ns_flows "http://ns.adobe.com/Flows/1.0/">
]>
<svg version="1.1"
	 xmlns="http://www.w3.org/2000/svg" xmlns:xlink="http://www.w3.org/1999/xlink" xmlns:a="http://ns.adobe.com/AdobeSVGViewerExtensions/3.0/"
	 x="0px" y="0px" width="235px" height="68px" viewBox="0 0 235 68" enable-background="new 0 0 235 68" xml:space="preserve">
<defs>
</defs>
<path fill="#008D5C" d="M72.596,53.2c-0.496-0.134-0.994-0.277-1.49-0.424l-0.708,3.847c0.733,0.219,1.465,0.431,2.197,0.634
	c0,0,20.43,5.651,35.514-10.206C98.867,53.658,85.513,56.748,72.596,53.2"/>
<path fill="#008D5C" d="M0,51.793c19.11-8.905,32.295-6.125,32.295-6.125c9.667,0.697,18.629,4.098,27.567,7.359l0.698-3.8
	c-9.167-3.336-18.347-6.899-28.265-7.614C18.106,40.596,8.69,45.113,0,51.793"/>
<polygon fill="#008D5C" points="69.623,55.241 61.164,52.168 61.722,49.122 70.181,52.193 "/>
<polygon fill="#008D5C" points="68.854,59.416 60.396,56.341 60.956,53.297 69.417,56.37 "/>
<polygon fill="#008D5C" points="68.09,63.59 59.627,60.518 60.188,57.473 68.647,60.544 "/>
<polygon fill="#008D5C" points="67.195,68 58.736,64.93 59.294,61.882 67.756,64.952 "/>
<polygon fill="#004D6D" points="78.283,7.09 69.823,4.018 70.542,0.165 79.598,0.226 "/>
<polygon fill="#004D6D" points="69.578,5.387 78.04,8.459 70.389,50.489 61.929,47.416 "/>
<path fill="#004D6D" d="M42.295,12.237c0.591-2.984,0.827-3.805,1.479-6.264c1.303-0.119,2.603-0.237,3.848-0.237
	c4.023,0,6.686,1.115,6.686,5.389c0,1.112-0.06,3.454-1.064,5.739c-1.954,4.332-5.681,5.034-8.876,5.034
	c-1.362,0-2.664-0.118-3.967-0.232C40.993,18.503,41.643,15.398,42.295,12.237 M44.249,27.989c8.935,0,12.25-2.226,14.736-4.742
	c4.969-5.037,5.267-11.243,5.267-12.824c0-2.635-0.771-5.329-2.664-7.202c-1.479-1.466-3.848-2.929-9.173-2.929
	c-3.669,0-5.739,0.119-8.524,0.119c-3.843,0-6.27-0.119-11.123-0.41c0.591,0.937,1.42,1.642,0.649,6.323
	c-1.121,7.203-4.438,24.769-5.207,27.99c-0.306,1.321-0.607,2.113-0.914,2.639C15.434,37.938,6.829,42.394,0.038,49.898
	c8.69-6.678,18.068-10.953,32.257-9.932c10.022,0.718,19.287,4.349,28.55,7.713l0.68-3.68c-7.14-2.682-14.314-5.553-22.172-6.667
	c-0.783-0.112-1.558-0.198-2.331-0.278c0.225-2.076,0.63-2.903,1.958-9.243C41.052,27.931,42.532,27.989,44.249,27.989
	 M82.157,49.446c-3.461-0.27-6.806-0.956-10.093-1.875l-0.67,3.642c0.402,0.116,0.8,0.229,1.202,0.339
	c14.859,4.081,29.398-0.948,38.778-9.637C102.806,46.162,94.177,50.376,82.157,49.446"/>
<path fill="#004D6D" d="M92.187,18.445c-1.301,2.634-3.198,9.31-2.961,13.701c0.121,2.988,1.481,4.687,4.498,4.687
	c2.843,0,4.262-2.112,5.035-3.634c2.071-4.099,3.31-11.242,3.31-14.052c0-2.752-1.299-4.8-4.319-4.8
	C95.028,14.347,93.372,16.102,92.187,18.445 M108.524,12.237c2.718,2.637,2.958,6.383,2.958,8.375c0,3.396-0.95,8.314-2.958,12.236
	c-1.777,3.455-4.381,6.091-6.926,7.439c-2.604,1.463-6.155,2.05-8.878,2.05c-2.604,0-5.207-0.528-7.101-1.408
	c-5.505-2.46-5.918-7.552-5.918-10.422c0-4.333,1.123-9.016,3.079-12.646c1.299-2.401,3.255-5.094,7.043-6.911
	c3.252-1.522,7.218-1.932,9.292-1.932C103.962,9.018,106.984,10.657,108.524,12.237"/>
<path fill="#004D6D" d="M127.164,15.281c1.598-2.224,4.618-6.32,10.95-6.32c8.64,0,8.521,6.378,7.752,10.068
	c-3.848,18.68-4.318,21.724-3.431,22.896c-1.953-0.175-3.73-0.351-5.625-0.351c-2.009,0-3.965,0.176-5.919,0.351
	c0.891-1.522,1.657-3.514,2.249-6.03c1.125-4.744,2.131-9.426,2.962-15.4c0.41-2.928-0.178-5.035-3.554-5.035
	c-0.885,0-1.773,0.233-2.603,0.643c-3.255,1.64-3.966,4.745-4.44,6.792c-0.592,2.575-1.065,5.152-1.599,7.729
	c-1.241,6.268-1.537,7.788-1.537,9.779c0,0.526,0.059,1.054,0.059,1.522c-1.952-0.234-3.668-0.408-5.442-0.408
	c-1.775,0-3.61,0.174-5.385,0.408c0.533-1.053,1.775-3.921,2.428-7.729c1.122-6.324,2.308-12.53,2.897-16.043
	c1.064-6.268-0.295-6.969-1.3-7.554c5.325,0,7.513-0.292,12.838-1.525L127.164,15.281z"/>
<path fill="#004D6D" d="M167.883,20.728c1.422-1.346,1.954-2.867,1.954-4.098c0-2.167-1.537-2.752-3.433-2.752
	c-5.563,0-6.807,6.439-7.457,9.954C162.26,23.481,165.398,23.129,167.883,20.728 M170.665,26.7
	c-4.911,2.459-9.824,2.517-12.368,2.577c-0.06,1.404-0.117,3.573,1.656,5.329c0.949,0.996,2.842,2.049,6.273,2.049
	c4.261,0,6.745-1.403,9.114-2.752c-0.946,3.161-1.185,4.101-1.776,7.086c-2.131,0.527-5.619,1.463-10.77,1.463
	c-1.715,0-4.854-0.062-7.577-1.347c-6.33-2.929-6.33-9.719-6.33-11.359c0-8.785,4.675-20.847,18.936-20.847
	c2.072,0,4.204,0.293,6.155,1.172c3.493,1.64,3.848,4.391,3.848,6.147C177.826,20.961,174.985,24.534,170.665,26.7"/>
<path fill="#004D6D" d="M197.477,20.728c1.42-1.346,1.953-2.867,1.953-4.098c0-2.167-1.54-2.752-3.431-2.752
	c-5.564,0-6.807,6.439-7.461,9.954C191.854,23.481,194.992,23.129,197.477,20.728 M200.258,26.7
	c-4.911,2.459-9.823,2.517-12.369,2.577c-0.059,1.404-0.118,3.573,1.657,5.329c0.946,0.996,2.84,2.049,6.274,2.049
	c4.26,0,6.746-1.403,9.113-2.752c-0.947,3.161-1.182,4.101-1.775,7.086c-2.132,0.527-5.622,1.463-10.772,1.463
	c-1.717,0-4.852-0.062-7.573-1.347c-6.335-2.929-6.335-9.719-6.335-11.359c0-8.785,4.679-20.847,18.939-20.847
	c2.073,0,4.2,0.293,6.155,1.172c3.492,1.64,3.846,4.391,3.846,6.147C207.418,20.961,204.579,24.534,200.258,26.7"/>
<path fill="#004D6D" d="M219.732,25.999c-0.595,2.518-2.37,11.652-2.37,14.521c0,0.47,0,0.762,0.06,1.522
	c-1.834-0.233-3.55-0.468-5.324-0.468c-1.835,0-3.613,0.234-5.387,0.468c0.828-2.107,1.773-3.631,4.618-21.841
	c1.183-7.553,0-8.315-0.947-9.194c3.845,0.118,7.394-0.058,12.902-1.99c-0.832,3.279-1.127,4.39-1.838,7.845
	c1.064-1.639,2.9-4.505,6.984-6.44c3.077-1.462,5.324-1.348,6.569-1.289c-1.717,3.806-2.131,4.802-3.373,9.253
	c-1.065-0.294-2.19-0.645-3.669-0.645C221.509,17.742,220.321,23.187,219.732,25.999"/>
<path fill="#008D5C" d="M112.826,50.748h0.654c0.835,0,1.488-0.205,1.488-0.881c0-0.51-0.312-0.725-0.89-0.735h-0.918
	L112.826,50.748z M111.557,47.781h2.304c1.375,0.012,3.025,0.051,3.025,1.82c0,1.257-0.992,1.695-2.097,1.829v0.021
	c0.568,0.052,0.753,0.808,0.858,1.267l0.517,2.196h-1.919l-0.374-1.817c-0.185-0.93-0.248-1.002-1.116-1.002h-0.207l-0.578,2.819
	h-1.931L111.557,47.781z"/>
<polygon fill="#008D5C" points="118.479,47.781 123.549,47.781 123.271,49.132 120.1,49.132 119.772,50.604 122.774,50.604 
	122.474,51.952 119.48,51.952 119.128,53.567 122.425,53.567 122.145,54.914 116.93,54.914 "/>
<path fill="#008D5C" d="M129.108,49.398c-0.376-0.175-0.88-0.327-1.594-0.327c-0.763,0-1.384,0.111-1.384,0.686
	c0,1.01,2.799,0.633,2.799,2.799c0,1.97-1.847,2.48-3.519,2.48c-0.745,0-1.603-0.174-2.231-0.365l0.454-1.452
	c0.381,0.245,1.146,0.41,1.777,0.41c0.595,0,1.537-0.112,1.537-0.849c0-1.144-2.799-0.716-2.799-2.729
	c0-1.84,1.633-2.391,3.213-2.391c0.888,0,1.722,0.091,2.209,0.315L129.108,49.398z"/>
<path fill="#008D5C" d="M134.056,49.071c-1.485,0-2.106,1.706-2.106,2.91c0,0.902,0.341,1.646,1.342,1.646
	c1.487,0,2.105-1.708,2.105-2.901C135.396,49.826,135.058,49.071,134.056,49.071 M133.167,55.036c-2.343,0-3.202-1.44-3.202-2.901
	c0-2.708,1.436-4.474,4.215-4.474c2.344,0,3.201,1.44,3.201,2.911C137.381,53.27,135.944,55.036,133.167,55.036"/>
<path fill="#008D5C" d="M144.632,51.104c-0.477,2.269-1.032,3.933-3.658,3.933c-1.619,0-2.889-0.571-2.889-2.247
	c0-0.559,0.083-1.021,0.151-1.347l0.819-3.661h1.953l-0.872,4.039c-0.069,0.337-0.133,0.61-0.133,0.775
	c0,0.583,0.343,1.031,1.022,1.031c1.239,0,1.438-1.47,1.685-2.616l0.713-3.229h1.909L144.632,51.104z"/>
<path fill="#008D5C" d="M147.835,50.748h0.65c0.835,0,1.485-0.205,1.485-0.881c0-0.51-0.307-0.725-0.885-0.735h-0.923
	L147.835,50.748z M146.566,47.781h2.302c1.371,0.012,3.027,0.051,3.027,1.82c0,1.257-0.992,1.695-2.099,1.829v0.021
	c0.568,0.052,0.754,0.808,0.857,1.267l0.515,2.196h-1.921l-0.37-1.817c-0.184-0.93-0.25-1.002-1.118-1.002h-0.205l-0.576,2.819
	h-1.933L146.566,47.781z"/>
<path fill="#008D5C" d="M158.938,49.498c-0.611-0.346-1.188-0.427-1.798-0.427c-1.933,0-2.706,1.35-2.706,2.697
	c0,1.267,0.815,1.858,1.971,1.858c0.694,0,1.324-0.143,1.832-0.396l-0.206,1.532c-0.468,0.151-1.272,0.273-1.925,0.273
	c-2.322,0-3.655-1.356-3.655-3.319c0-2.37,1.685-4.056,4.391-4.056c1.384,0,2.156,0.235,2.552,0.377L158.938,49.498z"/>
<polygon fill="#008D5C" points="160.373,47.781 165.444,47.781 165.165,49.132 161.997,49.132 161.666,50.604 164.669,50.604 
	164.371,51.952 161.376,51.952 161.025,53.567 164.321,53.567 164.042,54.914 158.824,54.914 "/>
<path fill="#008D5C" d="M171.004,49.398c-0.372-0.175-0.878-0.327-1.593-0.327c-0.762,0-1.384,0.111-1.384,0.686
	c0,1.01,2.798,0.633,2.798,2.799c0,1.97-1.848,2.48-3.52,2.48c-0.744,0-1.601-0.174-2.23-0.365l0.452-1.452
	c0.384,0.245,1.146,0.41,1.778,0.41c0.6,0,1.537-0.112,1.537-0.849c0-1.144-2.799-0.716-2.799-2.729c0-1.84,1.634-2.391,3.214-2.391
	c0.889,0,1.722,0.091,2.209,0.315L171.004,49.398z"/>
<polygon fill="#008D5C" points="176.105,47.781 178.06,47.781 176.86,53.505 179.878,53.505 179.576,54.914 174.61,54.914 "/>
<polygon fill="#008D5C" points="181.933,47.781 183.873,47.781 182.376,54.914 180.435,54.914 "/>
<polygon fill="#008D5C" points="185.266,47.781 188.285,47.781 188.397,52.575 188.419,52.575 190.679,47.781 193.758,47.781 
	192.229,54.914 190.35,54.914 191.662,49.071 191.642,49.071 188.811,54.914 186.995,54.914 186.725,49.071 186.705,49.071 
	185.455,54.914 183.697,54.914 "/>
<polygon fill="#008D5C" points="195.123,47.781 197.062,47.781 195.567,54.914 193.626,54.914 "/>
<polygon fill="#008D5C" points="199.44,49.192 197.644,49.192 197.951,47.781 203.497,47.781 203.19,49.192 201.395,49.192 
	200.162,54.914 198.211,54.914 "/>
<polygon fill="#008D5C" points="204.274,47.781 209.346,47.781 209.066,49.132 205.895,49.132 205.563,50.604 208.571,50.604 
	208.272,51.952 205.278,51.952 204.924,53.567 208.221,53.567 207.94,54.914 202.726,54.914 "/>
<path fill="#008D5C" d="M211.289,53.505h0.846c1.891,0,2.623-1.4,2.623-2.728c0-1.309-0.908-1.585-2.086-1.585h-0.474
	L211.289,53.505z M210.565,47.781h2.499c2.292,0,3.677,0.963,3.677,2.862c0,2.985-1.891,4.271-4.598,4.271h-3.106L210.565,47.781z"
	/>
</svg>
