<svg xmlns="http://www.w3.org/2000/svg" width="107" height="167" viewBox="0 0 107 167"><path fill="#1D1D1B" d="M66.924 167h-.881l-.125-.125v-7.708l.125-.125h.881l.124.125v7.708l-.124.125zM71.329 167h-.882l-.125-.125v-5.506l.125-.125h.882l.125.125v5.506l-.125.125zm0-6.606h-.882l-.125-.125v-1.102l.125-.125h.882l.125.125v1.102l-.125.125zM82.12 167h-.88l-.125-.125v-4.118c0-.271-.216-.492-.481-.492h-.463c-.616 0-1.119.503-1.119 1.119v3.491l-.125.125h-.881l-.125-.125v-4.118c0-.271-.216-.492-.48-.492h-.495c-.609 0-1.086.492-1.086 1.119v3.491l-.126.125h-.882l-.124-.125v-5.506l.124-.125h.552l.104.056.249.374c.328-.278.744-.43 1.188-.43h.495c.479 0 .944.221 1.273.596.382-.38.906-.596 1.457-.596h.463c.888 0 1.611.724 1.611 1.612v4.019l-.124.125zM86.527 167h-.882l-.125-.125v-5.506l.125-.125h.882l.124.125v5.506l-.124.125zm0-6.606h-.882l-.125-.125v-1.102l.125-.125h.882l.124.125v1.102l-.124.125zM92.252 167h-.659c-.936 0-1.667-.703-1.667-1.601v-6.232l.125-.125h.881l.125.125v2.077h1.195l.125.125v.771l-.125.125h-1.195v3.135c0 .32.24.579.536.579h.659l.125.125v.771l-.125.125zM98.97 167h-1.74c-1.234 0-2.238-1.01-2.238-2.251v-1.893c0-.903.731-1.612 1.667-1.612h.99c.935 0 1.667.709 1.667 1.612 0 .73-.558 1.413-1.297 1.586l-1.896.46c.022.598.511 1.076 1.106 1.076h1.74l.125.125v.771l-.124.126zm-2.312-4.735c-.291 0-.536.271-.536.592v.974l1.641-.402c.262-.058.423-.275.423-.571 0-.315-.251-.592-.537-.592h-.991zM106.459 167h-1.949c-1.24 0-2.25-1.01-2.25-2.251v-1.893c0-.903.713-1.612 1.622-1.612h1.571v-2.077l.125-.125h.881l.125.125v7.708l-.125.125zm-2.577-4.735c-.271 0-.491.221-.491.492v2.103c0 .617.502 1.119 1.119 1.119h.943v-3.714h-1.571z"/><path d="M75.531 101.804c-3.803 0-6.811-3.479-6.811-7.817v-12.26c0-3.78 2.655-6.808 5.971-6.808h4.864c3.313 0 5.969 3.027 5.969 6.808v12.259c0 4.338-3.008 7.817-6.81 7.817h-3.183zm3.184-3.534c1.812 0 3.271-1.71 3.271-3.779v-13.216c0-1.564-1.063-2.825-2.431-2.825h-4.864c-1.327 0-2.433 1.26-2.433 2.825v13.215c0 2.069 1.462 3.779 3.272 3.779h3.185zM99.226 98.27v3.534h-2.653c-3.493 0-6.186-2.978-6.186-6.76v-35.21h3.535v15.085h5.304v3.531h-5.304v16.593c0 1.766 1.191 3.226 2.65 3.226h2.654z"/><g fill="#EE3124"><path d="M55.627 152.778c-4.576 0-8.292-3.843-8.292-8.581v-12.645c0-3.518 2.72-6.329 6.163-6.329h9.245v3.279h-9.245c-1.404 0-2.537 1.171-2.537 2.625v13.493c0 2.673 2.128 4.874 4.666 4.874h7.116v3.283h-7.116zM76.767 125.224c3.442 0 6.163 2.812 6.163 6.329v21.226h-3.626v-21.65c0-1.454-1.133-2.625-2.537-2.625h-6.979v24.275h-3.625v-46.014h3.625v18.459h6.979zM87.232 125.224h3.623v27.555h-3.623v-27.555zM95.162 152.778v-42.593h3.626v42.593h-3.626zM103.093 125.224h3.625v27.555h-3.625v-27.555z"/></g><path d="M87.232 117.038h3.623v3.61h-3.623zM103.093 116.879h3.625v3.77h-3.625zM57.864 74.327c3.442 0 6.162 2.815 6.162 6.331v21.226h-3.624v-21.648c0-1.454-1.134-2.626-2.538-2.626h-6.979v24.274h-3.627v-46.012h3.627v18.456h6.979z"/><path d="M21.024 10.96l-.041-.251h-.678l.005.277h.719l-.005-.026z" fill="none"/><path d="M19.302 39.736c.085 7.084-2.93 13.286-1.833 19.305.318 3.283 1.13 5.981 1.501 9.895-.298 3.742-1.325 6.76-2.39 10.02-.476 1.361-1.321 3.676-2.248 4.61-.42.773-.326 2.426-.072 3.957.561 3.578.119 7.152-.531 10.532-.48 3.229-1.875 7.089-1.407 9.609.67 2.58 3.781 6.236 2.63 10.311-.474 3.723-3.699 7.018-4.715 9.382-.072 1.376.032 3.469-.071 5.216-.085 2.046-.699 3.462-.24 5.19 1.026 5.347 3.133 10.491 5.747 15.148h2.645c-2.208-3.982-3.42-7.323-3.42-7.323-.215-.6-.574-1.581-.795-2.182 0 0-2.304-6.262-1.49-8.929.371-1.225.182-6.711.182-6.711-.023-.642.276-1.574.664-2.081 1.982-2.702 3.583-4.974 4.087-8.297.789-5.212-3.624-7.358-2.993-11.89.83-5.959 2.835-11.85 1.757-17.913-.323-1.819-.518-4.282.694-5.431 1.011-.938 4.365-11.382 3.881-14.118-.644-3.652-1.872-9.251-1.734-13.036.127-3.621 1.757-9.185 1.882-13.698.057-2.037.155-16.195.155-16.195.002-.639.033-1.687.063-2.325 0 0 .261-5.362.202-10.132-.164-.513-.31-1.061-.423-1.665h-.719c.068 3.246-.056 6.154-.199 8.596l-.81 20.155zM6.544 134.49c.375-1.467.25-3.25.259-5.067l-.033-1.351c-.048-.451.087-1.673.31-2.218.65-1.71 1.351-2.265 1.774-2.975 1.031-1.441 1.79-2.809 2.276-4.232 1.189-3.173.081-4.575-1.969-8.945-1.028-2.298-.483-5.207-.145-6.802.364-1.889.781-3.751 1.123-5.555.506-2.8.752-5.367.562-7.722.083-1.994-1.731-5.504 1.181-9.066 1.216-2.588 3.566-9.25 3.234-12.571-.841-4.952-2.398-10.231-1.529-15.914.862-5.367 1.82-9.464 1.713-14.222.153-4.66.388-9.047.793-13.026.483-4.068.919-9.44.793-13.839h-16.886v141.925h12.076c-2.038-3.809-3.592-7.814-4.806-11.896-.457-1.982-1.056-3.753-.726-6.524zM27.075 10.986c.488 2.158 1.767 4.252 1.767 4.252.333.544.7 1.505.815 2.134l.642 1.855c.299.567 1.056.97 1.681.897 0 0 .425-.05 1.078.51 1.55 4.591-5.424 6.249-4.518 11.387.942 5.251 1.023 6.521-1.447 11.282-1.751 3.362-1.59 5.24-1.768 8.923-.083 1.716-2.279 4.139-1.926 5.903.782 3.909 3.818 7.7 3.326 11.04-1.425 9.681-3.867 17.996-4.785 27.94-.28 3.08-1.045 8.752-.663 10.784.764 4.094 1.568 9.221 1.568 9.221.1.63.195 1.671.209 2.31l.091 5.031c.008.638-.109 1.67-.267 2.288l-2.071 8.859c-.236.59-.595 1.575-.798 2.181 0 0-1.102 3.323-.433 5.062.859 2.229 2.382.046 2.862 3.166.071.465.167.854.279 1.193.974-.027 2.311.008 3.667.455 1.075.369 2.033 1.05 2.805 1.91.73.28 1.462.763 2.164 1.604.455.543.732 1.129.91 1.737h7.099v-141.924h-12.287z"/><g fill="#EE3124"><path d="M33.258 160.018c-1.137-2.212-.33-4.832-.996-7.107-.178-.608-.455-1.194-.91-1.737-.701-.841-1.433-1.323-2.164-1.604.852.949 1.472 2.118 1.761 3.341.069.292.123.586.153.882.215 2.396.178 4.47.529 5.034-.02-.048 1.184 1.019 1.847 1.594.792.753 1.596 1.361 2.471 2.837.211.421.484 1.036.41 2.02-.042.547-.306 1.035-.605 1.417.703-.104 1.271-.449 1.596-1.182 1.671-3.781-3.695-4.716-4.092-5.495zM29.677 160.988c-2.091-2.793-.875-5.837-1.635-8.078-.119-.35-.281-.682-.516-.988-.753-1.195-2.003-1.974-3.438-2.09-1.308-.272-3.378.494-4.847-1.235-1.155-1.5-.691-3.789-1.678-3.964-2.227-.118-2.48-3.01-2.164-4.373.197-2.073 1.253-3.979 1.656-5.753l1.382-5.691.239-.88c.248-.919.479-1.843.65-2.777.082-.453.19-.898.224-1.356.024-.316.03-.631-.107-.922-.114-.245-.295-.438-.345-.714-.068-.378-.046-.766-.055-1.148-.011-.53-.001-1.059-.049-1.589-.373-4.11-.956-8.223-1.565-12.304l.078.487c-.426-3.492.357-7.336.516-10.864.142-3.188.875-6.257 1.716-9.301l.316-1.131c1.093-3.859 1.628-7.424 2.447-10.327.149-1.031.316-2.059.454-3.079.069-1.367.993-3.055.876-4.709-.123-1.751-.748-3.368-1.513-4.929-.672-1.372-1.879-3.099-1.897-4.674-.002-.247.025-.861.415-.64.349.198.212 1.088.327 1.438.256.783.858 1.54 1.185 2.293 1.136 2.62 2.64 5.363 1.925 8.528-.538 3.846-1.189 6.615-1.629 8.89l-.087.214c-.111.933-.289 1.87-.491 2.778-1.094 4.905-2.02 9.681-2.623 14.678-.502 4.164-.754 8.383-.151 12.553.537 3.699.857 4.993.857 4.993.841 4.197 1.586 7.414 1.121 11.702-.302 1.888-.685 3.19-1.056 4.893-.605 2.107-.806 4.326-1.986 7.036-.809 2.019-1.104 5.261-.016 4.541 2.371.838 2.255 3.021 2.485 3.508.127.759.478 1.189.536 1.167.022.132.605.058 1.484.032-.113-.339-.208-.729-.279-1.193-.479-3.12-2.003-.938-2.862-3.166-.669-1.738.433-5.062.433-5.062.203-.605.562-1.591.798-2.181l2.071-8.859c.158-.618.275-1.65.267-2.288l-.091-5.031c-.014-.639-.109-1.68-.209-2.31 0 0-.805-5.127-1.568-9.221-.383-2.032.382-7.704.663-10.784.918-9.944 3.359-18.259 4.786-27.938.492-3.34-2.544-7.131-3.326-11.04-.354-1.764 1.843-4.187 1.926-5.903.178-3.683.016-5.561 1.768-8.923 2.47-4.761 2.389-6.031 1.447-11.282-.906-5.139 6.067-6.796 4.518-11.387-.653-.561-1.078-.51-1.078-.51-.625.073-1.382-.33-1.681-.897l-.642-1.855c-.115-.629-.483-1.59-.815-2.134 0 0-1.279-2.094-1.767-4.252-.215-.953-.277-1.918-.004-2.722.888-2.591-1.202-5.821-2.98-8.045-.354-.443-.93-.173-1.511.446 1.276 2.505 2.338 4.781 1.905 7.542-.271.93-.236 1.862-.052 2.779.206 1.026.598 2.034.983 3.001.793 1.197.91 2.669 1.226 4.032.125.544.272 1.395.686 1.81l.068.051c.161.094.333.166.509.208.376.04.781-.06 1.154.136.514.27.86.879.924 1.414.074.614.03 1.232-.162 1.831-.162.509-.36 1.117-.664 1.557-.751 1.084-1.926 1.853-2.73 2.892-.855 1.104-1.545 2.509-1.472 3.925l.024.182.124.704.025.105.005.067c.003.122-.05.316-.174.325-.188.013-.282-.451-.318-.581-.118-.416-.189-.888-.189-1.32 0-.603.109-1.202.292-1.775.326-1.016.893-1.946 1.562-2.771.727-.896 1.652-1.552 2.248-2.56.332-.599.534-1.31.015-1.85-.701-.729-1.953-.65-2.769-1.232-.363-.338-.699-.567-1.039-1.351l-.336-.712-.363-.809c-.32-.971-.177-.515-.353-.946-.228-.539-.389-.691-.983-1.691-.445-.886-.908-1.834-1.273-2.975.059 4.77-.202 10.132-.202 10.132-.03.638-.061 1.686-.063 2.325 0 0-.099 14.158-.155 16.195-.127 4.51-1.757 10.074-1.884 13.694-.138 3.784 1.09 9.384 1.734 13.036.484 2.736-2.87 13.18-3.881 14.118-1.212 1.149-1.018 3.612-.694 5.431 1.078 6.063-.928 11.954-1.757 17.913-.631 4.531 3.782 6.678 2.993 11.89-.503 3.323-2.105 5.595-4.087 8.297-.388.507-.688 1.439-.664 2.081 0 0 .188 5.486-.182 6.711-.813 2.667 1.49 8.929 1.49 8.929.221.601.58 1.582.795 2.182 0 0 1.212 3.341 3.42 7.323 2.708 4.885 6.914 10.736 12.24 12.596l.278.098.464.03c.672-.084 1.334-.229 1.915-.601.517-.108.164-.185-.211-.912-.894-1.108-2.134-2.047-3.327-3.134zm-7.117-109.171c.552-1.948-.139-3.529.124-4.869.12-1.583 1.355-3.617 1.304-3.867.106.512-.559 1.868-.688 2.878-.31 2.22.583 5.316-1.118 7.716-.422.778-.828 1.289-.886 1.906.081-1.152.892-2.467 1.264-3.764z"/></g><path fill="#fff" d="M21.418 10.986h-.388c.113.604.259 1.152.423 1.665-.006-.568-.017-1.125-.035-1.665z"/></svg>