<svg xmlns="http://www.w3.org/2000/svg" xmlns:xlink="http://www.w3.org/1999/xlink" id="Layer_1" x="0px" y="0px" viewBox="0 0 300 60" style="enable-background:new 0 0 300 60;" xml:space="preserve"> <style type="text/css"> .st0{fill:#DD2C27;} .st1{fill:#F16231;} .st2{fill:#FBD812;} .st3{fill:none;} .st4{fill:#FFFFFF;} </style> <g> <path class="st0" d="M44.8,8.6c0,4.1-3.3,7.4-7.4,7.4c-4.1,0-7.4-3.3-7.4-7.4c0-4.1,3.3-7.4,7.4-7.4C41.5,1.3,44.8,4.5,44.8,8.6 L44.8,8.6z"></path> <path class="st1" d="M31,22.7c0,4.1-3.3,7.4-7.4,7.4s-7.4-3.3-7.4-7.4c0-4.1,3.3-7.4,7.4-7.4S31,18.6,31,22.7L31,22.7z"></path> <path class="st2" d="M17.2,36.8c0,4.1-3.3,7.4-7.4,7.4c-4.1,0-7.4-3.3-7.4-7.4c0-4.1,3.3-7.4,7.4-7.4 C13.9,29.4,17.2,32.7,17.2,36.8L17.2,36.8z"></path> <rect x="2.5" y="0.7" class="st3" width="295.3" height="59"></rect> <path class="st4" d="M138.2,53.6c0.4,0,0.8-0.1,1.1-0.2c0.3-0.1,0.6-0.3,0.8-0.5c0.2-0.2,0.4-0.4,0.5-0.7c0.1-0.3,0.2-0.6,0.2-0.9 c0-0.7-0.2-1.2-0.6-1.5c-0.4-0.3-1.1-0.5-1.9-0.5h-1.6v4.3H138.2L138.2,53.6z M143.2,59.6h-1.3c-0.3,0-0.5-0.1-0.6-0.3l-2.8-4.1 c-0.1-0.1-0.2-0.2-0.3-0.3c-0.1-0.1-0.3-0.1-0.5-0.1h-1.1v4.8h-1.5V48.1h3.1c0.7,0,1.3,0.1,1.8,0.2c0.5,0.1,0.9,0.4,1.2,0.6 c0.3,0.3,0.6,0.6,0.7,1c0.2,0.4,0.2,0.8,0.2,1.3c0,0.4-0.1,0.8-0.2,1.1c-0.1,0.4-0.3,0.7-0.5,1c-0.2,0.3-0.5,0.5-0.8,0.7 c-0.3,0.2-0.7,0.3-1.1,0.4c0.2,0.1,0.3,0.3,0.5,0.5L143.2,59.6L143.2,59.6z"></path> <polygon class="st4" points="152.3,58.3 152.3,59.6 145.6,59.6 145.6,48.1 152.3,48.1 152.3,49.3 147,49.3 147,53.2 151.3,53.2 151.3,54.4 147,54.4 147,58.3 152.3,58.3 "></polygon> <path class="st4" d="M160.8,49.9c0,0.1-0.1,0.1-0.1,0.2c-0.1,0-0.1,0.1-0.2,0.1c-0.1,0-0.2,0-0.3-0.1c-0.1-0.1-0.3-0.2-0.4-0.3 c-0.2-0.1-0.4-0.2-0.6-0.3c-0.2-0.1-0.5-0.1-0.9-0.1c-0.3,0-0.6,0-0.9,0.1c-0.3,0.1-0.5,0.2-0.6,0.4c-0.2,0.2-0.3,0.3-0.4,0.6 c-0.1,0.2-0.1,0.5-0.1,0.7c0,0.3,0.1,0.6,0.2,0.8c0.1,0.2,0.3,0.4,0.6,0.5c0.2,0.1,0.5,0.3,0.8,0.4c0.3,0.1,0.6,0.2,1,0.3 c0.3,0.1,0.6,0.3,1,0.4c0.3,0.1,0.6,0.3,0.8,0.6c0.2,0.2,0.4,0.5,0.6,0.8c0.1,0.3,0.2,0.7,0.2,1.2c0,0.5-0.1,1-0.2,1.4 c-0.2,0.4-0.4,0.8-0.7,1.2c-0.3,0.3-0.7,0.6-1.1,0.8c-0.5,0.2-1,0.3-1.5,0.3c-0.7,0-1.4-0.1-1.9-0.4c-0.6-0.3-1.1-0.6-1.5-1.1 l0.4-0.7c0-0.1,0.1-0.1,0.1-0.1c0.1,0,0.1-0.1,0.2-0.1c0.1,0,0.1,0,0.2,0.1c0.1,0.1,0.2,0.1,0.3,0.2c0.1,0.1,0.2,0.2,0.4,0.3 c0.1,0.1,0.3,0.2,0.5,0.3c0.2,0.1,0.4,0.2,0.6,0.2c0.2,0.1,0.5,0.1,0.8,0.1c0.3,0,0.7-0.1,0.9-0.2c0.3-0.1,0.5-0.2,0.7-0.4 c0.2-0.2,0.3-0.4,0.4-0.7c0.1-0.3,0.2-0.5,0.2-0.9c0-0.3-0.1-0.6-0.2-0.9c-0.1-0.2-0.3-0.4-0.6-0.6c-0.2-0.1-0.5-0.3-0.8-0.4 c-0.3-0.1-0.6-0.2-1-0.3c-0.3-0.1-0.6-0.2-1-0.4c-0.3-0.1-0.6-0.3-0.8-0.6c-0.2-0.2-0.4-0.5-0.6-0.9c-0.1-0.3-0.2-0.8-0.2-1.3 c0-0.4,0.1-0.8,0.2-1.2c0.1-0.4,0.4-0.7,0.7-1c0.3-0.3,0.6-0.5,1.1-0.7c0.4-0.2,0.9-0.3,1.4-0.3c0.6,0,1.2,0.1,1.7,0.3 s0.9,0.5,1.3,0.9L160.8,49.9L160.8,49.9z"></path> <path class="st4" d="M172.9,53.8c0-0.7-0.1-1.3-0.3-1.9c-0.2-0.6-0.4-1-0.8-1.4c-0.3-0.4-0.7-0.7-1.2-0.9c-0.5-0.2-1-0.3-1.6-0.3 c-0.6,0-1.1,0.1-1.6,0.3c-0.5,0.2-0.9,0.5-1.2,0.9c-0.3,0.4-0.6,0.9-0.8,1.4c-0.2,0.6-0.3,1.2-0.3,1.9c0,0.7,0.1,1.3,0.3,1.9 c0.2,0.6,0.4,1,0.8,1.4c0.3,0.4,0.7,0.7,1.2,0.9c0.5,0.2,1,0.3,1.6,0.3c0.6,0,1.1-0.1,1.6-0.3c0.5-0.2,0.9-0.5,1.2-0.9 c0.3-0.4,0.6-0.9,0.8-1.4C172.8,55.2,172.9,54.5,172.9,53.8L172.9,53.8z M174.4,53.8c0,0.9-0.1,1.7-0.4,2.4 c-0.3,0.7-0.6,1.3-1.1,1.9c-0.5,0.5-1,0.9-1.7,1.2c-0.7,0.3-1.4,0.4-2.2,0.4c-0.8,0-1.5-0.1-2.2-0.4c-0.7-0.3-1.2-0.7-1.7-1.2 c-0.5-0.5-0.8-1.1-1.1-1.9c-0.3-0.7-0.4-1.5-0.4-2.4c0-0.9,0.1-1.7,0.4-2.4c0.3-0.7,0.6-1.3,1.1-1.9c0.5-0.5,1-0.9,1.7-1.2 c0.7-0.3,1.4-0.4,2.2-0.4c0.8,0,1.5,0.1,2.2,0.4c0.7,0.3,1.2,0.7,1.7,1.2c0.5,0.5,0.8,1.1,1.1,1.9C174.3,52.2,174.4,53,174.4,53.8 L174.4,53.8z"></path> <path class="st4" d="M181.7,58.3c0.5,0,0.9-0.1,1.2-0.2c0.4-0.2,0.7-0.4,0.9-0.7c0.2-0.3,0.4-0.6,0.6-1c0.1-0.4,0.2-0.8,0.2-1.3v-7 h1.5v7c0,0.7-0.1,1.3-0.3,1.8c-0.2,0.6-0.5,1.1-0.9,1.5c-0.4,0.4-0.8,0.7-1.4,1c-0.5,0.2-1.1,0.4-1.8,0.4c-0.7,0-1.3-0.1-1.8-0.4 c-0.5-0.2-1-0.6-1.4-1c-0.4-0.4-0.7-0.9-0.9-1.5c-0.2-0.6-0.3-1.2-0.3-1.8v-7h1.5v7c0,0.5,0.1,0.9,0.2,1.3c0.1,0.4,0.3,0.7,0.6,1 c0.2,0.3,0.5,0.5,0.9,0.7C180.8,58.3,181.2,58.3,181.7,58.3L181.7,58.3z"></path> <path class="st4" d="M192.5,53.6c0.4,0,0.8-0.1,1.1-0.2c0.3-0.1,0.6-0.3,0.8-0.5c0.2-0.2,0.4-0.4,0.5-0.7c0.1-0.3,0.2-0.6,0.2-0.9 c0-0.7-0.2-1.2-0.6-1.5c-0.4-0.3-1.1-0.5-1.9-0.5H191v4.3H192.5L192.5,53.6z M197.6,59.6h-1.3c-0.3,0-0.5-0.1-0.6-0.3l-2.8-4.1 c-0.1-0.1-0.2-0.2-0.3-0.3c-0.1-0.1-0.3-0.1-0.5-0.1H191v4.8h-1.5V48.1h3.1c0.7,0,1.3,0.1,1.8,0.2c0.5,0.1,0.9,0.4,1.2,0.6 c0.3,0.3,0.6,0.6,0.7,1c0.2,0.4,0.2,0.8,0.2,1.3c0,0.4-0.1,0.8-0.2,1.1c-0.1,0.4-0.3,0.7-0.5,1c-0.2,0.3-0.5,0.5-0.8,0.7 c-0.3,0.2-0.7,0.3-1.1,0.4c0.2,0.1,0.3,0.3,0.5,0.5L197.6,59.6L197.6,59.6z"></path> <path class="st4" d="M207.3,57.2c0.1,0,0.2,0,0.2,0.1l0.6,0.7c-0.4,0.5-1,1-1.6,1.3c-0.6,0.3-1.4,0.5-2.3,0.5 c-0.8,0-1.5-0.1-2.1-0.4c-0.6-0.3-1.2-0.7-1.6-1.2c-0.5-0.5-0.8-1.1-1-1.9c-0.2-0.7-0.4-1.5-0.4-2.4c0-0.9,0.1-1.7,0.4-2.4 c0.3-0.7,0.6-1.3,1.1-1.9c0.5-0.5,1-0.9,1.7-1.2c0.7-0.3,1.4-0.4,2.2-0.4c0.8,0,1.5,0.1,2.1,0.4c0.6,0.3,1.1,0.6,1.6,1.1l-0.5,0.7 c0,0.1-0.1,0.1-0.1,0.1c0,0-0.1,0.1-0.2,0.1c-0.1,0-0.2-0.1-0.3-0.2c-0.1-0.1-0.3-0.2-0.5-0.3c-0.2-0.1-0.5-0.2-0.8-0.3 c-0.3-0.1-0.7-0.2-1.2-0.2c-0.6,0-1.1,0.1-1.5,0.3c-0.5,0.2-0.9,0.5-1.2,0.9c-0.3,0.4-0.6,0.9-0.8,1.4c-0.2,0.6-0.3,1.2-0.3,1.9 c0,0.7,0.1,1.4,0.3,1.9c0.2,0.6,0.5,1,0.8,1.4c0.3,0.4,0.7,0.7,1.2,0.9c0.5,0.2,1,0.3,1.5,0.3c0.3,0,0.6,0,0.9-0.1 c0.3,0,0.5-0.1,0.7-0.2c0.2-0.1,0.4-0.2,0.6-0.3c0.2-0.1,0.4-0.3,0.6-0.5C207.1,57.2,207.2,57.2,207.3,57.2L207.3,57.2z"></path> <polygon class="st4" points="217.4,58.3 217.4,59.6 210.7,59.6 210.7,48.1 217.4,48.1 217.4,49.3 212.1,49.3 212.1,53.2 216.4,53.2 216.4,54.4 212.1,54.4 212.1,58.3 217.4,58.3 "></polygon> <path class="st4" d="M225.9,49.9c0,0.1-0.1,0.1-0.1,0.2c-0.1,0-0.1,0.1-0.2,0.1c-0.1,0-0.2,0-0.3-0.1c-0.1-0.1-0.3-0.2-0.4-0.3 c-0.2-0.1-0.4-0.2-0.6-0.3c-0.2-0.1-0.5-0.1-0.9-0.1c-0.3,0-0.6,0-0.9,0.1c-0.3,0.1-0.5,0.2-0.6,0.4c-0.2,0.2-0.3,0.3-0.4,0.6 c-0.1,0.2-0.1,0.5-0.1,0.7c0,0.3,0.1,0.6,0.2,0.8c0.1,0.2,0.3,0.4,0.6,0.5c0.2,0.1,0.5,0.3,0.8,0.4c0.3,0.1,0.6,0.2,1,0.3 c0.3,0.1,0.6,0.3,1,0.4c0.3,0.1,0.6,0.3,0.8,0.6c0.2,0.2,0.4,0.5,0.6,0.8c0.1,0.3,0.2,0.7,0.2,1.2c0,0.5-0.1,1-0.2,1.4 c-0.2,0.4-0.4,0.8-0.7,1.2c-0.3,0.3-0.7,0.6-1.1,0.8c-0.5,0.2-1,0.3-1.5,0.3c-0.7,0-1.4-0.1-1.9-0.4c-0.6-0.3-1.1-0.6-1.5-1.1 l0.4-0.7c0-0.1,0.1-0.1,0.1-0.1c0.1,0,0.1-0.1,0.2-0.1c0.1,0,0.1,0,0.2,0.1c0.1,0.1,0.2,0.1,0.3,0.2c0.1,0.1,0.2,0.2,0.4,0.3 c0.1,0.1,0.3,0.2,0.5,0.3c0.2,0.1,0.4,0.2,0.6,0.2c0.2,0.1,0.5,0.1,0.8,0.1c0.3,0,0.7-0.1,0.9-0.2c0.3-0.1,0.5-0.2,0.7-0.4 c0.2-0.2,0.3-0.4,0.4-0.7c0.1-0.3,0.2-0.5,0.2-0.9c0-0.3-0.1-0.6-0.2-0.9c-0.1-0.2-0.3-0.4-0.6-0.6c-0.2-0.1-0.5-0.3-0.8-0.4 c-0.3-0.1-0.6-0.2-1-0.3c-0.3-0.1-0.6-0.2-1-0.4c-0.3-0.1-0.6-0.3-0.8-0.6c-0.2-0.2-0.4-0.5-0.6-0.9c-0.1-0.3-0.2-0.8-0.2-1.3 c0-0.4,0.1-0.8,0.2-1.2c0.1-0.4,0.4-0.7,0.7-1c0.3-0.3,0.6-0.5,1.1-0.7c0.4-0.2,0.9-0.3,1.4-0.3c0.6,0,1.2,0.1,1.7,0.3 c0.5,0.2,0.9,0.5,1.3,0.9L225.9,49.9L225.9,49.9z"></path> <polygon class="st4" points="240.5,58.3 240.5,59.6 234.3,59.6 234.3,48.1 235.8,48.1 235.8,58.3 240.5,58.3 "></polygon> <polygon class="st4" points="244.5,59.6 243,59.6 243,48.1 244.5,48.1 244.5,59.6 "></polygon> <path class="st4" d="M259.5,48.1v11.5h-1.3v-8.5c0-0.1,0-0.2,0-0.4c0-0.1,0-0.3,0-0.4l-3.7,7.2c-0.1,0.2-0.3,0.4-0.5,0.4h-0.2 c-0.2,0-0.4-0.1-0.5-0.4l-3.8-7.2c0,0.3,0,0.5,0,0.8v8.5h-1.3V48.1h1.1c0.1,0,0.2,0,0.3,0c0.1,0,0.1,0.1,0.2,0.2l3.8,7.1 c0.1,0.1,0.1,0.3,0.2,0.4c0.1,0.1,0.1,0.3,0.2,0.4c0.1-0.1,0.1-0.3,0.2-0.4c0.1-0.1,0.1-0.3,0.2-0.4l3.7-7.1 c0.1-0.1,0.1-0.2,0.2-0.2c0.1,0,0.2,0,0.3,0H259.5L259.5,48.1z"></path> <polygon class="st4" points="264.7,59.6 263.2,59.6 263.2,48.1 264.7,48.1 264.7,59.6 "></polygon> <polygon class="st4" points="275.7,49.4 272.2,49.4 272.2,59.6 270.7,59.6 270.7,49.4 267.2,49.4 267.2,48.1 275.7,48.1 275.7,49.4 "></polygon> <polygon class="st4" points="284.9,58.3 284.9,59.6 278.2,59.6 278.2,48.1 284.9,48.1 284.9,49.3 279.7,49.3 279.7,53.2 283.9,53.2 283.9,54.4 279.7,54.4 279.7,58.3 284.9,58.3 "></polygon> <path class="st4" d="M295.8,53.8c0-0.7-0.1-1.3-0.3-1.9c-0.2-0.6-0.4-1-0.8-1.4c-0.3-0.4-0.7-0.7-1.2-0.9c-0.5-0.2-1-0.3-1.6-0.3 h-2.6v9h2.6c0.6,0,1.1-0.1,1.6-0.3c0.5-0.2,0.9-0.5,1.2-0.9c0.3-0.4,0.6-0.9,0.8-1.4C295.7,55.2,295.8,54.5,295.8,53.8L295.8,53.8z M297.3,53.8c0,0.9-0.1,1.6-0.4,2.4c-0.3,0.7-0.6,1.3-1.1,1.8c-0.5,0.5-1,0.9-1.7,1.2c-0.7,0.3-1.4,0.4-2.2,0.4h-4.1V48.1h4.1 c0.8,0,1.5,0.1,2.2,0.4c0.7,0.3,1.2,0.7,1.7,1.2c0.5,0.5,0.8,1.1,1.1,1.8C297.2,52.2,297.3,53,297.3,53.8L297.3,53.8z"></path> <path class="st4" d="M84.3,32.5c0.2,0,0.5,0,0.7,0.1c0.2,0.1,0.5,0.2,0.7,0.4l3.9,4.1c-1.7,2.2-3.8,3.9-6.4,5 c-2.6,1.1-5.6,1.7-9.1,1.7c-3.2,0-6.1-0.5-8.6-1.6c-2.5-1.1-4.7-2.6-6.5-4.5c-1.8-1.9-3.1-4.2-4.1-6.9c-0.9-2.6-1.4-5.5-1.4-8.6 c0-3.2,0.5-6.1,1.5-8.7c1-2.6,2.5-4.9,4.3-6.8c1.9-1.9,4.1-3.4,6.7-4.5c2.6-1.1,5.4-1.6,8.6-1.6c1.6,0,3.1,0.1,4.5,0.4 c1.4,0.3,2.7,0.7,3.9,1.2c1.2,0.5,2.3,1.1,3.4,1.8c1,0.7,1.9,1.5,2.7,2.3l-3.3,4.4c-0.2,0.3-0.5,0.5-0.8,0.7 c-0.3,0.2-0.7,0.3-1.2,0.3c-0.3,0-0.7-0.1-1-0.2c-0.3-0.2-0.6-0.3-1-0.6c-0.3-0.2-0.7-0.5-1.1-0.7c-0.4-0.3-0.9-0.5-1.5-0.7 c-0.6-0.2-1.2-0.4-2-0.6c-0.8-0.2-1.7-0.2-2.7-0.2c-1.6,0-3.1,0.3-4.5,0.9c-1.3,0.6-2.5,1.5-3.5,2.6c-1,1.2-1.7,2.6-2.3,4.2 c-0.5,1.7-0.8,3.6-0.8,5.7c0,2.2,0.3,4.1,0.9,5.8c0.6,1.7,1.4,3.1,2.4,4.3c1,1.2,2.2,2,3.6,2.6c1.4,0.6,2.8,0.9,4.4,0.9 c0.9,0,1.7,0,2.4-0.1c0.7-0.1,1.4-0.2,2.1-0.4c0.6-0.2,1.2-0.5,1.8-0.8c0.6-0.3,1.1-0.8,1.7-1.3c0.2-0.2,0.5-0.4,0.8-0.5 C83.7,32.6,84,32.5,84.3,32.5L84.3,32.5z"></path> <polygon class="st4" points="175.5,43.5 165.6,43.5 165.6,1.2 175.5,1.2 175.5,43.5 "></polygon> <path class="st4" d="M212,22.3c0-2.1-0.3-4-0.8-5.7c-0.5-1.7-1.3-3.1-2.3-4.3c-1-1.2-2.3-2.1-3.7-2.7c-1.5-0.6-3.1-0.9-5-0.9h-6.6 v27.2h6.6c1.9,0,3.6-0.3,5-0.9c1.5-0.6,2.7-1.5,3.7-2.7c1-1.2,1.8-2.6,2.3-4.3C211.7,26.3,212,24.4,212,22.3L212,22.3z M222.1,22.3 c0,3.1-0.5,5.9-1.6,8.5c-1.1,2.6-2.5,4.8-4.5,6.7c-1.9,1.9-4.2,3.4-6.9,4.4c-2.7,1.1-5.7,1.6-9,1.6h-16.4V1.2h16.4 c3.3,0,6.3,0.5,9,1.6c2.7,1.1,5,2.5,6.9,4.4c1.9,1.9,3.4,4.1,4.5,6.7C221.5,16.5,222.1,19.3,222.1,22.3L222.1,22.3z"></path> <path class="st4" d="M245.5,35.7c1.3,0,2.5-0.2,3.5-0.7c1-0.4,1.9-1.1,2.6-1.9c0.7-0.8,1.3-1.8,1.6-3c0.4-1.2,0.6-2.5,0.6-4V1.2 h9.8v25.1c0,2.6-0.4,5-1.3,7.1c-0.8,2.2-2,4-3.6,5.6c-1.6,1.6-3.5,2.8-5.7,3.7c-2.2,0.9-4.8,1.3-7.6,1.3c-2.8,0-5.4-0.4-7.6-1.3 c-2.2-0.9-4.2-2.1-5.7-3.7c-1.6-1.6-2.8-3.4-3.6-5.6c-0.8-2.2-1.2-4.5-1.2-7.1V1.2h9.8v25c0,1.5,0.2,2.8,0.6,4 c0.4,1.2,0.9,2.2,1.6,3c0.7,0.8,1.6,1.5,2.6,1.9C243,35.5,244.2,35.7,245.5,35.7L245.5,35.7z"></path> <path class="st4" d="M294.7,9.8c-0.3,0.5-0.6,0.8-0.9,1c-0.3,0.2-0.7,0.3-1.2,0.3c-0.4,0-0.9-0.1-1.4-0.4c-0.5-0.3-1.1-0.6-1.7-0.9 c-0.6-0.3-1.4-0.7-2.2-0.9c-0.8-0.3-1.8-0.4-2.8-0.4c-1.8,0-3.2,0.4-4.1,1.2c-0.9,0.8-1.4,1.8-1.4,3.2c0,0.9,0.3,1.6,0.8,2.1 c0.5,0.6,1.3,1,2.1,1.5c0.9,0.4,1.9,0.8,3,1.1c1.1,0.3,2.3,0.7,3.5,1.1c1.2,0.4,2.3,0.9,3.5,1.5c1.1,0.6,2.1,1.3,3,2.1 c0.9,0.9,1.6,1.9,2.1,3.2c0.5,1.2,0.8,2.8,0.8,4.5c0,2-0.3,3.8-1,5.5c-0.7,1.7-1.7,3.2-2.9,4.5c-1.3,1.3-2.9,2.3-4.8,3 c-1.9,0.7-4,1.1-6.4,1.1c-1.3,0-2.7-0.1-4-0.4c-1.4-0.3-2.7-0.7-4-1.1c-1.3-0.5-2.5-1.1-3.6-1.8c-1.1-0.7-2.1-1.4-2.9-2.3l2.9-4.6 c0.2-0.3,0.5-0.6,0.9-0.8c0.4-0.2,0.8-0.3,1.2-0.3c0.6,0,1.2,0.2,1.8,0.6c0.6,0.4,1.3,0.8,2,1.2c0.7,0.4,1.6,0.9,2.6,1.2 c1,0.4,2.1,0.6,3.4,0.6c1.8,0,3.2-0.4,4.2-1.2c1-0.8,1.5-2,1.5-3.7c0-1-0.3-1.8-0.8-2.4c-0.5-0.6-1.3-1.1-2.1-1.5 c-0.9-0.4-1.9-0.8-3-1.1c-1.1-0.3-2.3-0.7-3.5-1c-1.2-0.4-2.3-0.8-3.5-1.4c-1.1-0.6-2.1-1.3-3-2.2c-0.9-0.9-1.6-2-2.1-3.4 c-0.5-1.3-0.8-3-0.8-5c0-1.6,0.3-3.1,1-4.6c0.6-1.5,1.6-2.9,2.8-4c1.2-1.2,2.8-2.1,4.6-2.8c1.8-0.7,3.9-1.1,6.2-1.1 c1.3,0,2.6,0.1,3.8,0.3c1.2,0.2,2.4,0.5,3.5,0.9c1.1,0.4,2.1,0.9,3.1,1.4c1,0.6,1.8,1.2,2.6,1.9L294.7,9.8L294.7,9.8z"></path> <path class="st4" d="M156.1,35.7L156.1,35.7l-11.1,0V1.2h-9.8v42.3l23.1,0.1c0.7,0,1.2-0.2,1.8-0.5c0.5-0.3,0.9-0.8,1.1-1.4l1.9-6 L156.1,35.7L156.1,35.7z"></path> <path class="st4" d="M115.4,1.2h-10L89,43.5h7.7c0.8,0,1.5-0.2,2-0.7c0.6-0.4,0.9-0.9,1.1-1.5l2.5-7.4l7.4,0.2c0.6,0,1-0.2,1.5-0.4 c0.4-0.3,0.8-0.7,1-1.3l1.8-5.2l-2.4,0l-6.9,0l3.9-11.5c0.3-0.7,0.6-1.6,0.9-2.6c0.3-1,0.6-2.1,0.9-3.3c0.3,1.2,0.7,2.2,1,3.2 c0.3,1,0.6,1.9,0.9,2.6l3.9,11.6l2.2,6.7l2.5,7.4c0.3,0.6,0.7,1.1,1.2,1.5c0.5,0.4,1.2,0.6,2.1,0.6h7.6L115.4,1.2L115.4,1.2z"></path> </g> </svg>