<svg width="230" height="54" viewBox="0 0 230 54" xmlns="http://www.w3.org/2000/svg" xmlns:xlink="http://www.w3.org/1999/xlink"><title>logo</title><defs><path id="a" d="M0 53.742h229.718V0H0z"/><path id="c" d="M0 53.742h229.718V0H0z"/><path id="e" d="M0 53.742h229.718V0H0z"/><path id="g" d="M0 53.742h229.718V0H0z"/><path id="i" d="M0 53.742h229.718V0H0z"/><path id="k" d="M0 53.742h229.718V0H0z"/><path id="m" d="M0 53.742h229.718V0H0z"/><path id="o" d="M0 53.742h229.718V0H0z"/><path id="q" d="M0 53.742h229.718V0H0z"/><path id="s" d="M0 53.742h229.718V0H0z"/><path id="u" d="M0 53.742h229.718V0H0z"/><path id="w" d="M0 53.742h229.718V0H0z"/><path id="y" d="M0 53.742h229.718V0H0z"/><path id="A" d="M0 53.742h229.718V0H0z"/><path id="C" d="M0 53.742h229.718V0H0z"/><path id="E" d="M0 53.742h229.718V0H0z"/><path id="G" d="M0 53.742h229.718V0H0z"/><path id="I" d="M0 53.742h229.718V0H0z"/><path id="K" d="M0 53.742h229.718V0H0z"/><path id="M" d="M0 53.742h229.718V0H0z"/><path id="O" d="M0 53.742h229.718V0H0z"/><path id="Q" d="M0 53.742h229.718V0H0z"/><path id="S" d="M0 53.742h229.718V0H0z"/><path id="U" d="M0 53.742h229.718V0H0z"/><path id="W" d="M0 53.742h229.718V0H0z"/><path id="Y" d="M0 53.742h229.718V0H0z"/><path id="aa" d="M0 53.742h229.718V0H0z"/><path id="ac" d="M0 53.742h229.718V0H0z"/><path id="ae" d="M0 53.742h229.718V0H0z"/><path id="ag" d="M0 53.742h229.718V0H0z"/><path id="ai" d="M0 53.742h229.718V0H0z"/></defs><g fill="none" fill-rule="evenodd"><path d="M66.465 23.75v8.724h5.345c1.499 0 2.658-.395 3.474-1.188.819-.79 1.227-1.842 1.227-3.155 0-1.313-.408-2.37-1.227-3.177-.816-.804-1.975-1.204-3.474-1.204h-5.345zM78.4 22.22c1.661 1.5 2.49 3.458 2.49 5.869 0 2.414-.829 4.377-2.49 5.892-1.662 1.513-3.833 2.27-6.511 2.27h-5.424v10.253h-4.26V19.97h9.684c2.678 0 4.85.751 6.511 2.251zM107.016 19.527v26.977h-4.057V29.86l-7.234 9.97h-1.378l-7.27-9.97v16.645H83.02V19.527h1.415l10.603 14.834 10.6-14.834zM136.503 21.075c1.929 1.031 3.456 2.418 4.581 4.162l-2.33 1.847c-2.117-3.106-4.998-4.66-8.64-4.66-3 0-5.512 1.03-7.534 3.093-2.022 2.065-3.035 4.638-3.035 7.72s1.013 5.655 3.035 7.718c2.022 2.066 4.534 3.097 7.534 3.097 3.642 0 6.523-1.555 8.64-4.665l2.33 1.85c-1.099 1.744-2.619 3.128-4.56 4.163-1.943 1.031-4.092 1.547-6.449 1.547-3.859 0-7.12-1.319-9.784-3.96-2.666-2.642-4.001-5.89-4.001-9.75 0-3.859 1.335-7.11 4-9.749 2.664-2.641 5.926-3.96 9.785-3.96 2.357 0 4.5.516 6.428 1.547M154.22 42.806c1.18-1.045 1.769-2.32 1.769-3.82v-.484h-5.826c-2.813 0-4.22.928-4.22 2.776 0 .991.39 1.755 1.167 2.292.777.537 1.74.804 2.893.804 1.633 0 3.04-.523 4.218-1.568m2.773-14.274c1.391 1.369 2.09 3.338 2.09 5.91v12.062h-2.893V43.97c-1.473 1.985-3.67 2.976-6.59 2.976-2.01 0-3.65-.494-4.924-1.486-1.272-.993-1.907-2.332-1.907-4.02 0-1.663.643-2.99 1.927-3.981 1.288-.993 2.988-1.488 5.105-1.488h6.187v-1.688c0-1.61-.421-2.835-1.266-3.68-.842-.843-2.001-1.265-3.475-1.265-2.197 0-4.1 1.046-5.705 3.136l-2.052-1.69c1.796-2.867 4.448-4.301 7.957-4.301 2.305 0 4.154.683 5.546 2.05M177.81 42.002c1.327-1.395 1.992-3.149 1.992-5.266 0-2.147-.658-3.914-1.971-5.308-1.314-1.393-2.972-2.09-4.981-2.09-1.876 0-3.477.624-4.803 1.87-1.327 1.245-1.989 3.075-1.989 5.485 0 2.414.662 4.25 1.989 5.51 1.326 1.26 2.927 1.888 4.803 1.888 1.98 0 3.637-.697 4.96-2.089m2.412-12.585c1.834 1.958 2.753 4.381 2.753 7.276 0 2.922-.919 5.361-2.753 7.32-1.834 1.955-4.146 2.933-6.93 2.933a9.904 9.904 0 0 1-4.1-.863c-1.287-.576-2.317-1.388-3.094-2.434v10.093h-3.093V26.925h2.89v3.135c.752-1.124 1.782-2.002 3.096-2.633 1.313-.63 2.747-.945 4.302-.945 2.783 0 5.095.98 6.93 2.935" fill="#2A465A"/><mask id="b" fill="#fff"><use xlink:href="#a"/></mask><path d="M185.988 46.505h3.093v-19.58h-3.093v19.58zm3.174-28.648c.455.443.683.974.683 1.59 0 .643-.22 1.18-.662 1.61-.442.426-.987.64-1.627.64-.67 0-1.228-.214-1.67-.64-.442-.43-.661-.967-.661-1.61 0-.616.22-1.147.661-1.59.442-.441 1-.662 1.67-.662.614 0 1.151.22 1.606.662z" fill="#2A465A" mask="url(#b)"/><mask id="d" fill="#fff"><use xlink:href="#c"/></mask><path d="M204.752 43.892v2.613c-1.233.295-2.318.442-3.255.442-2.035 0-3.644-.524-4.822-1.568-1.179-1.044-1.768-2.64-1.768-4.784V29.7h-3.294v-2.775h3.294v-5.348h3.095v5.348h6.106V29.7h-6.106v10.692c0 1.395.353 2.367 1.066 2.916.708.55 1.733.825 3.073.825.748 0 1.62-.081 2.61-.241" fill="#2A465A" mask="url(#d)"/><mask id="f" fill="#fff"><use xlink:href="#e"/></mask><path d="M217.624 42.806c1.179-1.045 1.768-2.32 1.768-3.82v-.484h-5.826c-2.814 0-4.22.928-4.22 2.776 0 .991.389 1.755 1.167 2.292.776.537 1.739.804 2.892.804 1.633 0 3.041-.523 4.219-1.568m2.772-14.274c1.392 1.369 2.09 3.338 2.09 5.91v12.062h-2.892V43.97c-1.474 1.985-3.672 2.976-6.59 2.976-2.01 0-3.65-.494-4.925-1.486-1.272-.993-1.908-2.332-1.908-4.02 0-1.663.644-2.99 1.929-3.981 1.287-.993 2.988-1.488 5.104-1.488h6.188v-1.688c0-1.61-.422-2.835-1.266-3.68-.843-.843-2.002-1.265-3.475-1.265-2.198 0-4.1 1.046-5.706 3.136l-2.052-1.69c1.796-2.867 4.449-4.301 7.957-4.301 2.305 0 4.154.683 5.546 2.05" fill="#2A465A" mask="url(#f)"/><mask id="h" fill="#fff"><use xlink:href="#g"/></mask><path fill="#2A465A" mask="url(#h)" d="M226.625 46.505h3.093V16.35h-3.093z"/><mask id="j" fill="#fff"><use xlink:href="#i"/></mask><path d="M41.297 46.063c3.414.41 5.823.578 5.823.578l.263-.007-12.1-26.289c-.584.1-1.19.171-1.82.208l7.834 25.51z" fill="#EE464C" mask="url(#j)"/><mask id="l" fill="#fff"><use xlink:href="#k"/></mask><path d="M19.428 12.522c.008-.12.037-.233.056-.35L3.014 9.904a15.292 15.292 0 0 0-1.711 2.736l18.132.472a4.097 4.097 0 0 1-.007-.59" fill="#2A465A" mask="url(#l)"/><mask id="n" fill="#fff"><use xlink:href="#m"/></mask><path d="M20.234 10.379L7.014 6.082a21.043 21.043 0 0 0-2.8 2.425l15.418 3.055c.137-.415.338-.811.602-1.183" fill="#2A465A" mask="url(#n)"/><mask id="p" fill="#fff"><use xlink:href="#o"/></mask><path d="M21.62 8.996l-9.92-5.63a28.496 28.496 0 0 0-3.055 1.618l12.067 4.815c.269-.284.566-.555.907-.803" fill="#2A465A" mask="url(#p)"/><mask id="r" fill="#fff"><use xlink:href="#q"/></mask><path d="M23.691 7.887l-7.12-6.301a35.645 35.645 0 0 0-3.024 1.004l8.633 6.04a9.944 9.944 0 0 1 1.511-.743" fill="#2A465A" mask="url(#r)"/><mask id="t" fill="#fff"><use xlink:href="#s"/></mask><path d="M26.078 7.204a.785.785 0 0 0-.153-.262L21.08.58c-.92.152-1.818.328-2.693.532l6.087 6.497a13.941 13.941 0 0 1 1.604-.405" fill="#2A465A" mask="url(#t)"/><mask id="v" fill="#fff"><use xlink:href="#u"/></mask><path d="M28.35 6.938L25.687.065C24.73.123 23.79.208 22.87.32l3.909 6.762a17.162 17.162 0 0 1 1.572-.145" fill="#2A465A" mask="url(#v)"/><g><mask id="x" fill="#fff"><use xlink:href="#w"/></mask><path d="M30.844 6.982c0-.037.011-.072.005-.11L29.807.042a36.836 36.836 0 0 0-2.875-.025l2.27 6.895c.536-.001 1.085.024 1.642.07" fill="#2A465A" mask="url(#x)"/></g><g><mask id="z" fill="#fff"><use xlink:href="#y"/></mask><path d="M33.163 7.314L34.59.579c-1.14-.205-2.3-.37-3.483-.468l.485 6.945c.536.065 1.06.153 1.572.258" fill="#2A465A" mask="url(#z)"/></g><g><mask id="B" fill="#fff"><use xlink:href="#A"/></mask><path d="M35.456 7.937l3.77-6.206a34.888 34.888 0 0 0-3.403-.92l-1.954 6.66c.547.134 1.077.29 1.587.466" fill="#2A465A" mask="url(#B)"/></g><g><mask id="D" fill="#fff"><use xlink:href="#C"/></mask><path d="M36.012 8.141c.572.22 1.12.462 1.63.729l6.291-5.204a30.74 30.74 0 0 0-3.586-1.553L36.014 8.14l-.002.001z" fill="#2A465A" mask="url(#D)"/></g><g><mask id="F" fill="#fff"><use xlink:href="#E"/></mask><path d="M38.156 9.161c.53.309 1.018.64 1.46.994L47.5 6.13c.06-.03.103-.078.151-.12a24.37 24.37 0 0 0-2.698-1.776l-6.713 4.86c-.034.017-.055.047-.085.067" fill="#2A465A" mask="url(#F)"/></g><g><mask id="H" fill="#fff"><use xlink:href="#G"/></mask><path d="M41.063 11.587c.102-.03.217-.061.36-.097l9.398-2.458c-.63-.769-1.333-1.51-2.135-2.204l-8.684 3.643c.402.356.759.729 1.06 1.116" fill="#2A465A" mask="url(#H)"/></g><g><mask id="J" fill="#fff"><use xlink:href="#I"/></mask><path d="M41.94 13.132l10.74-1.182c-.331-.71-.736-1.398-1.208-2.064l-10.076 2.18c.225.347.407.703.544 1.066" fill="#2A465A" mask="url(#J)"/></g><g><mask id="L" fill="#fff"><use xlink:href="#K"/></mask><path d="M42.228 14.642c.041.01-.008.023.037.023l11.316.295.017-.001a7.696 7.696 0 0 0-.2-1.09c-.071-.272-.182-.536-.274-.803l-11.04.483c.099.36.14.726.144 1.093" fill="#2A465A" mask="url(#L)"/></g><g><mask id="N" fill="#fff"><use xlink:href="#M"/></mask><path d="M42.093 15.735c-.028.091-.058.18-.09.27l11.266 2.012c.19-.572.317-1.159.358-1.762L42.22 15.041c-.01.106-.027.208-.047.31a9.058 9.058 0 0 1-.081.384" fill="#2A465A" mask="url(#N)"/></g><g><mask id="P" fill="#fff"><use xlink:href="#O"/></mask><path d="M41.388 17.168l10.345 3.554c.344-.413.657-.839.911-1.284l-10.822-2.986c-.12.248-.266.486-.434.716" fill="#2A465A" mask="url(#P)"/></g><g><mask id="R" fill="#fff"><use xlink:href="#Q"/></mask><path d="M40.506 18.126l8.766 4.8c.408-.274.79-.562 1.146-.864l-9.342-4.495c-.173.195-.364.38-.57.56" fill="#2A465A" mask="url(#R)"/></g><g><mask id="T" fill="#fff"><use xlink:href="#S"/></mask><path d="M39.032 19.121c.946.782 2.58 2.35 6.479 5.54.357-.132.995-.258 1.332-.406l-7.168-5.513a8.809 8.809 0 0 1-.643.379" fill="#2A465A" mask="url(#T)"/></g><g><mask id="V" fill="#fff"><use xlink:href="#U"/></mask><path d="M37.043 19.934l4.523 5.81c.31-.048.82-.105 1.122-.164l-4.727-5.93c-.229.085-.676.211-.918.284" fill="#2A465A" mask="url(#V)"/></g><g><mask id="X" fill="#fff"><use xlink:href="#W"/></mask><path d="M20.413 15.651L0 18.665c.031.98.173 1.977.437 2.985.019.073.05.143.07.215l20.592-5.37a7.435 7.435 0 0 1-.686-.844" fill="#2A465A" mask="url(#X)"/></g><g><mask id="Z" fill="#fff"><use xlink:href="#Y"/></mask><path d="M21.665 17.034L1.279 24.037a20.38 20.38 0 0 0 1.584 3.012l20.031-9.089c-.445-.292-.86-.6-1.23-.926" fill="#2A465A" mask="url(#Z)"/></g><g><mask id="ab" fill="#fff"><use xlink:href="#aa"/></mask><path d="M24.907 19.057a14.35 14.35 0 0 1-1.378-.706L4.688 29.516a30.247 30.247 0 0 0 2.48 2.661L24.92 19.075l-.013-.018z" fill="#2A465A" mask="url(#ab)"/></g><g><mask id="ad" fill="#fff"><use xlink:href="#ac"/></mask><path d="M25.643 19.355l-14.662 15.98c.902.656 1.86 1.28 2.843 1.89l13.499-17.32a17.59 17.59 0 0 1-1.68-.55" fill="#2A465A" mask="url(#ad)"/></g><g><mask id="af" fill="#fff"><use xlink:href="#ae"/></mask><path d="M28.008 20.084l-8.772 20.077c1.203.57 2.435 1.11 3.703 1.613L29.754 20.4a19.402 19.402 0 0 1-1.746-.315" fill="#2A465A" mask="url(#af)"/></g><g><mask id="ah" fill="#fff"><use xlink:href="#ag"/></mask><path d="M30.4 20.483L29.34 43.931c.433.124.861.257 1.299.371.882.197 1.775.377 2.664.545l-.83-24.26a19.226 19.226 0 0 1-2.071-.104" fill="#2A465A" mask="url(#ah)"/></g><g><mask id="aj" fill="#fff"><use xlink:href="#ai"/></mask><path d="M19.566 13.92l-18.883.241a12.703 12.703 0 0 0-.61 2.727l19.903-1.953a5.06 5.06 0 0 1-.41-1.015" fill="#2A465A" mask="url(#aj)"/></g></g></svg>