<?xml version="1.0" encoding="utf-8"?>
<!-- Generator: Adobe Illustrator 20.1.0, SVG Export Plug-In . SVG Version: 6.00 Build 0)  -->
<svg version="1.1" id="Layer_1" xmlns="http://www.w3.org/2000/svg" xmlns:xlink="http://www.w3.org/1999/xlink" x="0px" y="0px"
	 viewBox="0 0 255.2 131.9" style="enable-background:new 0 0 255.2 131.9;" xml:space="preserve">
<style type="text/css">
	.st0{fill:#000033;}
	.st1{fill:#ED5338;}
</style>
<g>
	<path class="st0" d="M255.2,102.3h-2.3l-6,17.4l-6-17.4h-2.3l7.3,19.9l-1.6,4.4c-0.7,2-1.4,2.7-3.6,2.7h-0.8v1.9h1
		c1.3,0,2.8-0.3,3.8-1.3c0.6-0.5,1-1.2,1.4-2.3L255.2,102.3z M233.6,112.2c0,4.1-0.7,8.3-5.6,8.3c-4.9,0-5.6-4.2-5.6-8.3
		c0-4.1,0.7-8.3,5.6-8.3C232.9,103.9,233.6,108.1,233.6,112.2 M235.7,123.2v-21h-2.1v2.6c-1.7-2.3-3.7-2.8-5.9-2.8
		c-2.1,0-3.8,0.7-4.9,1.7c-2,2-2.6,5.3-2.6,8.5c0,3.1,0.5,6.4,2.6,8.5c1,1,2.8,1.7,4.9,1.7c2.2,0,4.2-0.5,5.9-2.8v3.5
		c0,3.9-1.9,6.9-6,6.9c-2.5,0-3.6-0.8-5.2-2.2l-1.4,1.4c2.1,1.9,3.6,2.6,6.6,2.6C232.8,131.9,235.7,128.2,235.7,123.2 M218.8,103.9
		c-1.4-1.4-2.9-1.9-4.8-1.9c-2.3,0-4.7,1-5.8,2.9v-2.6h-2.1v19.9h2.1v-12.2c0-3.2,1.9-6,5.3-6c1.6,0,2.6,0.4,3.8,1.6L218.8,103.9z
		 M199.6,111h-11.7c0.1-1.9,0.2-2.5,0.7-3.8c0.9-2.1,2.9-3.3,5.2-3.3c2.3,0,4.3,1.3,5.2,3.3C199.4,108.4,199.5,109.1,199.6,111
		 M201.7,112.6v-0.9c0-6.1-3-9.7-8-9.7c-5,0-8,3.8-8,10.2c0,6.6,3,10.2,8.5,10.2c3.3,0,5.2-1,7.2-3.1l-1.6-1.2
		c-1.7,1.7-3.1,2.4-5.5,2.4c-4.2,0-6.5-2.8-6.5-7.8H201.7z M181.7,122.1v-12.7c0-2.3-0.7-4.2-2.1-5.5c-1.3-1.2-3-1.9-5.3-1.9
		c-2.4,0-4.4,0.9-5.9,2.6v-2.3h-2.1v19.9h2.1v-12.3c0-3.8,2.1-5.9,5.6-5.9c3.5,0,5.5,2.1,5.5,5.9v12.3H181.7z M163.4,122.1v-2h-15.6
		v-11.8h13.3v-2h-13.3V94.8h15.6v-2h-17.8v29.3H163.4z M134.7,109.4h-8.2c0-0.9,0.2-1.5,0.5-2.3c0.6-1.3,1.8-2.2,3.6-2.2
		c1.8,0,3,0.9,3.6,2.2C134.5,107.9,134.6,108.4,134.7,109.4 M139.9,113.1v-2.4c0-5.9-3.4-10.3-9.4-10.3c-5.6,0-9.4,4-9.4,11
		c0,8.7,4.9,11,9.9,11c3.9,0,6-1.2,8.2-3.4l-3.3-3.2c-1.4,1.4-2.5,2-4.9,2c-3,0-4.7-2-4.7-4.8H139.9z M120.7,122.1v-4.5h-2.1
		c-1.4,0-1.9-0.7-1.9-1.9V92.8h-5.4V116c0,3,1.9,6.1,6.3,6.1H120.7z M102.7,110.8c0,2.8-0.4,5.6-3.5,5.6c-3.2,0-3.5-2.8-3.5-5.6
		c0-2.8,0.3-5.6,3.5-5.6C102.3,105.2,102.7,107.9,102.7,110.8 M108,121.3v-20.7h-5.2v2c-1.5-1.6-3-2.3-5.2-2.3c-2.1,0-4,0.7-5.2,1.9
		c-2,2-2.2,4.7-2.2,8.5c0,3.8,0.2,6.5,2.2,8.5c1.2,1.2,3,1.9,5.1,1.9s3.7-0.6,5.1-2.1v2.2c0,2.2-1.1,4.5-4.3,4.5
		c-1.8,0-3-0.5-4.2-1.6l-3.3,3.4c2.2,2.1,4.5,2.8,7.8,2.8C104.4,130.2,108,126.5,108,121.3 M87.1,122.1v-13.7c0-2.3-0.5-4.4-2.2-6.1
		c-1.2-1.2-2.9-1.9-5.1-1.9c-2,0-4,0.7-5.4,2.2v-2h-5.2v21.5h5.4v-13c0-2.9,1.9-3.9,3.6-3.9c1.7,0,3.5,1,3.5,3.9v13H87.1z
		 M60.6,114.2c0,1.3-0.2,2.2-0.8,2.7c-0.9,0.9-1.9,1-3.4,1c-2.1,0-3.1-1-3.1-2.5c0-1.5,1.1-2.4,3-2.4h4.2V114.2z M65.9,122.1V108
		c0-5-3.1-7.6-9.2-7.6c-3.6,0-5.6,0.7-7.8,3l3.4,3.3c1.1-1.3,2.1-1.8,4.1-1.8c2.8,0,4,1,4,3.4v1.1h-5.1c-5,0-7.3,2.8-7.3,6.2
		c0,1.9,0.6,3.6,1.8,4.8c1.3,1.3,3,1.9,5.5,1.9c2.5,0,3.8-0.6,5.3-2.1v1.9H65.9z M44.5,100.6h-5.4v21.5h5.4V100.6z M44.6,92.6h-5.5
		V97h5.5V92.6z M36.9,102.4c-1.5-1.5-3-2-5.1-2c-2.3,0-4.4,1.1-5.4,2.3v-2.1h-5.2v21.5h5.4v-12.9c0-2.7,1.8-4,3.5-4
		c1.3,0,2,0.5,2.8,1.3L36.9,102.4z M21.1,97.9v-5.1H0v5.1h7.7v24.2h5.7V97.9H21.1z"/>
	<g>
		<path class="st1" d="M3.2,74.6h7c2.9-4.4,6.3-8.5,10-12.2c5.7-5.7,12.5-10.7,20.4-14.5c10.1-4.9,21.5-7.7,33.5-7.7
			c2,0,4.1,0.1,6.1,0.2c0.9,0.1,1.4,0.1,1.4,0.1c0.3,0,0.6-0.2,0.7-0.5c0-0.3-0.2-0.6-0.5-0.7c0,0-2.2-0.6-5.6-1.1
			c-1.7-0.3-3.7-0.5-5.8-0.7c-1.1-0.1-2.1-0.2-3.3-0.2l-21-35.5c-1.5-2.5-3.9-2.5-5.3,0L0.6,70C-0.8,72.5,0.3,74.6,3.2,74.6z"/>
		<path class="st0" d="M13.9,73.5c-0.4,0.4-0.7,0.6-1.1,1h71.4c2.9,0,4-2,2.6-4.5L79,56.9c-5.3-1.3-10.9-1.9-16.6-1.9
			C43.7,54.9,26.7,62,13.9,73.5z"/>
	</g>
</g>
</svg>
