<?xml version="1.0" encoding="UTF-8"?> <!-- Generator: Adobe Illustrator 22.0.1, SVG Export Plug-In . SVG Version: 6.00 Build 0) --> <svg xmlns="http://www.w3.org/2000/svg" xmlns:xlink="http://www.w3.org/1999/xlink" id="Layer_1" x="0px" y="0px" viewBox="0 0 314 90" style="enable-background:new 0 0 314 90;" xml:space="preserve"> <style type="text/css"> .st0{clip-path:url(#SVGID_2_);fill:#F79225;} .st1{fill:#056A38;} </style> <g> <g> <defs> <rect id="SVGID_1_" y="0" width="314" height="89.7"></rect> </defs> <clipPath id="SVGID_2_"> <use xlink:href="#SVGID_1_" style="overflow:visible;"></use> </clipPath> <path class="st0" d="M46.2,18.1c1.8,1.1-7.1,10.6-8.5,7.9c-6.2,9.4-7.6,7.1-19.5,12.2c-18,7.7-0.9,18.5,0.6,34.9 c0.5,5.9-4.7,5.9,1.5,8.7c4.2,1.9,12.6-3.1,15.6-4.1c9.5-3.2,20.5-7.2,29.6-3.4c4.7,2,11.8,14,18.9,9.2c-1.2,0.8-7,1.1-5.2,1.4 c-6.7-0.7-8.8-7.1-14.9-8.5c-9.2-2.2-24.9,8.8-34.1,11.3c-9,2.4-20.4,4.4-22.5-6.4C7.1,77.9,10.2,75,9.8,72 c-0.9-6.5-5-11.1-7.4-17.3c-5.4-14-2.3-20.9,12.3-26c3.9-1.4,8.6-1.5,12.1-3.8c3.5-2.3,2.3-7.3,7.3-9.6c3.8-1.7,3.8,2.8,3.5,5.2 c-0.2-0.1-0.5-2-0.9-1.9c-0.6,0.1-3-1.7,0.4-6.3c7.6-10.4,10.4-2.1,19.2-4.2c3.5-0.8,5.5-6.8,11-8.1c-1.9,0.8-3.5,1.9-4.7,3.5 c7.3-7.4,9.2,0.3,14.1-2.1c-0.7,0.3-5,1.7-6.3,2.1c2-0.4,3.5,0,5.6,0.2c-0.6-1.1-4.6,0.2-5.3,0.1c2.2-0.5,4.5,0.3,6.7,0.6 C78.2,4,70,4.4,70.2,4.5c1.4-0.1,5.5-1.1,6.4,0.3c-1.1,0-2.3-0.1-3.4-0.3c-1.3-0.2,14.5,2.3,4.4,2c2.4,0.3,5.7,1.1,8.2,0.9 c2.1-0.2,4.9-4.7,2.6-5c5.1,5.6-5.4,4.8-7.3,4.6c1,0.1,3,0.6,4.2,0.5c-1.3,0.3-2.6,0.3-3.9-0.1c7.4,0.9-7.8-0.8-9.9,0.4 c-5,2.8-3.4,9.9-7.3,11.9C57,23.3,51.8,13,46.2,18.1L46.2,18.1z"></path> </g> <path class="st1" d="M42.9,62.5c0.1-1.3,0.6-2.7,1.3-4c0.7-1.3,1.6-2.4,2.6-3.2c4.8,2.8,9.2,4.1,13.3,4.1c1.9,0,3.3-0.4,4.3-1.3 c1-0.9,1.5-1.9,1.5-3.1c0-2.1-1.5-3.8-4.4-5l-7.7-3.1c-6.2-2.6-9.3-6.4-9.3-11.5c0-3.8,1.5-6.9,4.5-9.4c3-2.4,7-3.6,11.9-3.6 c4.9,0,9.8,1.2,14.6,3.6c-0.2,2.9-1.4,5.3-3.4,7.2c-4.5-2.1-8.4-3.1-11.8-3.1c-1.8,0-3.2,0.4-4.1,1.2c-1,0.8-1.4,1.8-1.4,2.8 c0,1.7,1.4,3.1,4.1,4.2l7.9,3.1c3.1,1.3,5.6,3,7.3,5.1c1.7,2.1,2.6,4.5,2.6,7.2c0,4-1.5,7.2-4.4,9.7c-3,2.5-7.2,3.7-12.7,3.7 c-2.7,0-5.5-0.4-8.5-1.3C47.9,65.1,45.2,64,42.9,62.5L42.9,62.5z"></path> <path class="st1" d="M89.6,49.6l2.8-0.1h5.1c0.2,0,0.6,0,1.2,0c0.6,0,1,0,1.3,0l-5-17.3h-0.3c-0.4,2.1-1.4,5.9-3.1,11.6L89.6,49.6 L89.6,49.6z M90.1,57.1c-1.2,0-2.1,0-2.8-0.1l-2.9,9.3c-1,0.3-2.5,0.4-4.4,0.4c-1.9,0-3.5-0.2-4.7-0.7L75,65.5l14.6-42.2 c1.6-0.3,3.5-0.4,5.8-0.4c2.3,0,4.2,0.1,5.7,0.4l14.2,42.2c-1.4,0.8-3.2,1.2-5.2,1.2c-2,0-3.5-0.4-4.3-1.1 c-0.9-0.7-1.6-2.1-2.2-4.1l-1.4-4.6c-0.6,0-1.6,0.1-2.8,0.1H90.1L90.1,57.1z"></path> <path class="st1" d="M131.9,58.2h11.6c0,1.4-0.1,2.6-0.3,3.6c-0.5,3.1-2.7,4.7-6.6,4.7h-15.1c-1.8,0-3.2-0.5-4.3-1.5 c-1-1-1.6-2.4-1.6-4.1V23.4l0.5-0.4h3.7c3.9,0,5.9,2,5.9,6v29.4C128,58.2,130,58.2,131.9,58.2L131.9,58.2z"></path> <path class="st1" d="M156,31.3l0.1,4.7v30.4c-1.4,0.3-3,0.4-5,0.4c-2,0-3.7-0.1-5-0.4V35.9l0.1-4.7H146l-4.1,0.1h-7 c-0.2-1.2-0.3-2.5-0.3-4c0-1.4,0.1-2.8,0.3-4h32.1c0.3,1.1,0.5,2.4,0.5,3.8c0,1.5-0.4,2.5-1.2,3.2c-0.8,0.7-2.2,1-4,1h-2.3 L156,31.3L156,31.3L156,31.3z"></path> <path class="st1" d="M194.3,58.2h11.6c0,1.4-0.1,2.6-0.3,3.6c-0.5,3.1-2.7,4.7-6.6,4.7H184c-1.8,0-3.2-0.5-4.3-1.5 c-1-1-1.6-2.4-1.6-4.1V23.4l0.5-0.4h3.7c3.9,0,5.9,2,5.9,6v29.4C190.4,58.2,192.4,58.2,194.3,58.2L194.3,58.2z"></path> <path class="st1" d="M219.9,49.6l2.8-0.1h5.1c0.2,0,0.6,0,1.2,0c0.6,0,1,0,1.3,0l-5-17.3h-0.3c-0.4,2.1-1.4,5.9-3.1,11.6 L219.9,49.6L219.9,49.6z M220.4,57.1c-1.2,0-2.1,0-2.8-0.1l-2.9,9.3c-1,0.3-2.5,0.4-4.4,0.4c-1.9,0-3.5-0.2-4.7-0.7l-0.4-0.5 l14.6-42.2c1.6-0.3,3.5-0.4,5.8-0.4c2.3,0,4.2,0.1,5.7,0.4l14.2,42.2c-1.4,0.8-3.2,1.2-5.2,1.2c-2,0-3.5-0.4-4.3-1.1 c-0.9-0.7-1.6-2.1-2.2-4.1l-1.4-4.6c-0.6,0-1.6,0.1-2.8,0.1H220.4L220.4,57.1z"></path> <path class="st1" d="M282.3,63.9c-1.4,1.9-3.6,2.9-6.6,2.9c-1.8,0-3.1-0.4-3.9-1.3c-0.9-0.8-1.6-2.2-2.2-4.2l-2.6-7.6 c-0.7-2.1-1.5-3.5-2.5-4.4c-1-0.9-2.3-1.3-3.9-1.3c-0.5,0-1.5,0-3.1,0.1v18.1c-1.3,0.3-3,0.4-5.1,0.4c-2.1,0-3.7-0.1-5-0.4V23.4 c1.3-0.3,2.9-0.4,5-0.4c2.1,0,3.7,0.1,5.1,0.4v16.8l1.9-0.1c0.8,0,1.4-0.1,1.7-0.4c0.3-0.3,0.8-0.8,1.2-1.7l6.5-11.6 c0.7-1.2,1.3-2.1,2.1-2.6c0.7-0.5,2-0.8,3.8-0.8c1.8,0,3.6,0.1,5.3,0.3l0.5,0.7l-8.2,14.6c-1,1.8-2.2,3.3-3.5,4.4 c2,0.4,3.6,1.2,4.6,2.4c1.1,1.2,2,2.8,2.7,4.8l2.8,8c0,0.1,0.2,0.4,0.3,0.9c0.2,0.5,0.3,0.8,0.4,0.9c0.1,0.1,0.2,0.4,0.3,0.8 c0.2,0.4,0.3,0.7,0.4,0.8c0.1,0.2,0.3,0.4,0.5,0.7c0.2,0.3,0.4,0.6,0.7,0.8L282.3,63.9L282.3,63.9z"></path> <path class="st1" d="M293.8,54.2l-0.1,4.3v0.1c1.9-0.1,3.5-0.1,4.8-0.1H314c0,1.5-0.1,2.6-0.2,3.4c-0.6,3.1-2.8,4.7-6.4,4.7h-17.7 c-1.8,0-3.2-0.5-4.2-1.5c-1-1-1.5-2.4-1.5-4.1v-37l0.5-0.4h28c0.2,1,0.3,2.2,0.3,3.6c0,1.5-0.3,2.9-0.8,4.4h-18.2l0.1,4.5v5 c1.1,0,2.6-0.1,4.4-0.1h10.3c0.4,1,0.6,2.3,0.6,3.9c0,1.6-0.2,2.9-0.6,4h-14.7V54.2L293.8,54.2z"></path> <path class="st1" d="M86.2,78.3v4.9c0.8,0,1.4,0,1.6,0c0.8,0,1.3-0.2,1.6-0.7c0.3-0.5,0.5-1.1,0.5-1.7c0-0.7-0.2-1.2-0.5-1.7 c-0.3-0.5-0.8-0.7-1.6-0.7C87.1,78.3,86.6,78.3,86.2,78.3L86.2,78.3z M91.1,77.5c0.8,0.7,1.2,1.8,1.2,3.2c0,1.4-0.4,2.5-1.2,3.2 c-0.8,0.8-1.9,1.1-3.2,1.1h-1.8v4.4c-0.3,0.1-0.7,0.1-1.2,0.1c-0.5,0-0.9,0-1.2-0.1V76.6l0.1-0.1c2-0.1,3.3-0.1,4-0.1 C89.3,76.4,90.3,76.8,91.1,77.5L91.1,77.5z"></path> <path class="st1" d="M108.3,78.1c-1.9,0-2.8,1.6-2.8,4.8c0,3.2,0.9,4.8,2.8,4.8c1.9,0,2.8-1.6,2.8-4.8 C111.2,79.7,110.2,78.1,108.3,78.1L108.3,78.1z M105,88.5c-1.3-1.1-2-3-2-5.6c0-2.6,0.7-4.4,2-5.6c0.9-0.8,2-1.2,3.3-1.2 c1.3,0,2.4,0.4,3.4,1.2c1.3,1.1,2,3,2,5.6c0,2.6-0.7,4.4-2,5.6c-0.9,0.8-2,1.2-3.4,1.2C107,89.7,105.9,89.3,105,88.5L105,88.5z"></path> <path class="st1" d="M129.1,78.5l0,1.4v9.5c-0.3,0.1-0.7,0.1-1.2,0.1c-0.5,0-0.9,0-1.2-0.1V78.5l-1.1,0h-2.1 c-0.1-0.3-0.1-0.6-0.1-1c0-0.4,0-0.7,0.1-1h8.8c0.1,0.3,0.1,0.6,0.1,1c0,0.3-0.1,0.6-0.3,0.8c-0.2,0.2-0.5,0.2-1,0.2h-0.9 L129.1,78.5L129.1,78.5L129.1,78.5z"></path> <path class="st1" d="M144.7,84.5l0.9,0h1.6c0,0,0.2,0,0.4,0c0.2,0,0.4,0,0.5,0l-0.6-2.1c-0.3-1.1-0.7-2.3-1-3.6h-0.1 c-0.1,0.8-0.4,1.8-0.8,3.1L144.7,84.5L144.7,84.5z M148.6,86.5l-1,0h-2.6l-0.9,0l-0.9,3c-0.2,0.1-0.6,0.1-1.1,0.1 c-0.5,0-0.8-0.1-1.1-0.2l-0.1-0.1l4.2-12.7c0.4-0.1,0.9-0.1,1.4-0.1c0.5,0,1,0,1.3,0.1l4.1,12.7c-0.4,0.2-0.8,0.3-1.2,0.3 c-0.5,0-0.8-0.1-1-0.3c-0.2-0.2-0.4-0.5-0.5-1L148.6,86.5L148.6,86.5z"></path> <path class="st1" d="M162,88.3c0.1-0.7,0.4-1.3,1-1.8c1.3,0.8,2.5,1.2,3.7,1.2c0.6,0,1.1-0.1,1.5-0.4c0.4-0.3,0.5-0.7,0.5-1.1 c0-0.7-0.5-1.3-1.5-1.8l-2.2-0.9c-1.7-0.8-2.6-1.9-2.6-3.4c0-1.1,0.4-2,1.2-2.7c0.8-0.7,1.9-1.1,3.2-1.1s2.6,0.3,4,1 c0,0.7-0.3,1.4-0.8,1.9c-1.2-0.6-2.3-0.9-3.2-0.9c-0.6,0-1.1,0.1-1.4,0.4c-0.3,0.3-0.5,0.7-0.5,1.1c0,0.6,0.5,1.1,1.4,1.5l2.2,0.9 c1.9,0.8,2.8,2,2.8,3.6c0,1.2-0.4,2.1-1.2,2.8c-0.8,0.7-2,1.1-3.6,1.1C164.8,89.7,163.4,89.2,162,88.3L162,88.3z"></path> <path class="st1" d="M189.8,81.8l0-1.4v-3.9c0.3-0.1,0.7-0.1,1.2-0.1c0.5,0,0.9,0,1.2,0.1v12.9c-0.3,0.1-0.7,0.1-1.2,0.1 c-0.5,0-0.9,0-1.2-0.1v-4.3l0-1.4l-1,0H186l-1,0l0,1.4v4.3c-0.3,0.1-0.7,0.1-1.2,0.1c-0.5,0-0.9,0-1.2-0.1V76.5 c0.3-0.1,0.7-0.1,1.2-0.1c0.5,0,0.9,0,1.2,0.1v3.9l0,1.4l1,0h2.8L189.8,81.8L189.8,81.8z"></path> <path class="st1" d="M221.9,87.4h3.5c0,0.4,0,0.7-0.1,0.9c-0.1,0.8-0.6,1.2-1.5,1.2h-4.6c-0.4,0-0.8-0.1-1-0.4 c-0.2-0.3-0.4-0.6-0.4-1.1V76.5l0.1-0.1h0.9c0.5,0,0.8,0.1,1,0.4c0.2,0.2,0.3,0.6,0.3,1.2v9.5C220.8,87.4,221.4,87.4,221.9,87.4 L221.9,87.4z"></path> <path class="st1" d="M239.1,78.5l0,1.4v9.5c-0.3,0.1-0.7,0.1-1.2,0.1c-0.5,0-0.9,0-1.2-0.1V78.5l-1.1,0h-2.1 c-0.1-0.3-0.1-0.6-0.1-1c0-0.4,0-0.7,0.1-1h8.8c0.1,0.3,0.1,0.6,0.1,1c0,0.3-0.1,0.6-0.3,0.8c-0.2,0.2-0.5,0.2-1,0.2h-0.9 L239.1,78.5L239.1,78.5L239.1,78.5z"></path> <path class="st1" d="M260.2,86.1c0.2-0.5,0.3-1,0.4-1.5c0.1-0.5,0.1-1,0.1-1.6c0-0.6,0-1.2-0.1-1.6c-0.1-0.5-0.2-1-0.4-1.5 c-0.2-0.5-0.5-0.9-0.9-1.1c-0.4-0.3-1-0.4-1.7-0.4c-0.7,0-1.3,0-1.9,0v9.3h2.1c0.6,0,1.1-0.1,1.5-0.4 C259.7,86.9,260,86.6,260.2,86.1L260.2,86.1z M262.7,79.7c0.3,0.9,0.4,2,0.4,3.3c0,1.3-0.1,2.4-0.4,3.3c-0.3,0.9-0.8,1.7-1.6,2.3 c-0.4,0.3-0.9,0.6-1.5,0.7c-0.6,0.2-1.3,0.2-1.9,0.2c-0.6,0-2,0-4.2-0.1l-0.1-0.1V76.6l0.1-0.1c1.4-0.1,2.9-0.1,4.3-0.1 c0.6,0,1.2,0.1,1.8,0.2c0.6,0.2,1.1,0.4,1.5,0.7C261.9,78,262.4,78.8,262.7,79.7L262.7,79.7z"></path> </g> </svg> 