<svg id="Layer_1" data-name="Layer 1" xmlns="http://www.w3.org/2000/svg" xmlns:xlink="http://www.w3.org/1999/xlink" viewBox="0 0 90.65 33.27"><defs><style>.cls-1{fill:none;}.cls-2{clip-path:url(#clip-path);}.cls-3{fill:#003767;}.cls-4{fill:#fff;}</style><clipPath id="clip-path" transform="translate(-1.07 -1.24)"><rect class="cls-1" x="1.07" y="1.25" width="90.65" height="33.27"/></clipPath></defs><title>Vector Smart Object</title><g class="cls-2"><path class="cls-3" d="M46.39,1.24A234.58,234.58,0,0,0,4.1,5s-3,.47-3,3.26V27.34c0,2.64,3,3.15,3,3.15a219.92,219.92,0,0,0,42.29,4,219.9,219.9,0,0,0,42.29-4s3-.51,3-3.15V8.21c0-2.79-3-3.26-3-3.26A234.54,234.54,0,0,0,46.39,1.24" transform="translate(-1.07 -1.24)"/><path class="cls-4" d="M16.4,14.08h.05a4.55,4.55,0,0,1,4.23-2.32h.89v4.46a3.76,3.76,0,0,0-2-.43c-2.58,0-3.21,1.71-3.21,4V25H11.76V11.93H16.4Z" transform="translate(-1.07 -1.24)"/><path class="cls-4" d="M37.12,19.25H27.35a2.6,2.6,0,0,0,2.91,2.91A2.32,2.32,0,0,0,32.48,21h4.46c-.74,3.09-3.67,4.49-6.65,4.49-4.33,0-7.57-2.45-7.57-7,0-4.36,3-7,7.24-7,4.54,0,7.16,2.81,7.16,7.27Zm-4.31-2.68a2.78,2.78,0,0,0-5.38,0Z" transform="translate(-1.07 -1.24)"/><path class="cls-4" d="M53.08,19.25H43.31a2.6,2.6,0,0,0,2.91,2.91A2.32,2.32,0,0,0,48.43,21H52.9c-.74,3.09-3.67,4.49-6.65,4.49-4.33,0-7.57-2.45-7.57-7,0-4.36,3-7,7.24-7,4.54,0,7.16,2.81,7.16,7.27Zm-4.31-2.68a2.78,2.78,0,0,0-5.38,0Z" transform="translate(-1.07 -1.24)"/><path class="cls-4" d="M81.33,19.25H71.57a2.6,2.6,0,0,0,2.91,2.91A2.32,2.32,0,0,0,76.69,21h4.46c-.74,3.09-3.67,4.49-6.65,4.49-4.33,0-7.57-2.45-7.57-7,0-4.36,3-7,7.24-7,4.54,0,7.16,2.81,7.16,7.27ZM77,16.57a2.78,2.78,0,0,0-5.38,0Z" transform="translate(-1.07 -1.24)"/><path class="cls-4" d="M64.95,16.19a4.1,4.1,0,0,0-2.4-.92,3.14,3.14,0,0,0-3.19,3.19,3.11,3.11,0,0,0,3.27,3.21,3.56,3.56,0,0,0,2.32-.89l1.18,3.27a7.62,7.62,0,0,1-4.45,1.4,6.9,6.9,0,0,1-7.12-6.84,7,7,0,0,1,7.32-7.12A7.6,7.6,0,0,1,66.16,13Z" transform="translate(-1.07 -1.24)"/></g></svg>