<?xml version="1.0" encoding="utf-8"?>
<!-- Generator: Adobe Illustrator 19.1.0, SVG Export Plug-In . SVG Version: 6.00 Build 0)  -->
<svg version="1.1" id="Layer_1" xmlns="http://www.w3.org/2000/svg" xmlns:xlink="http://www.w3.org/1999/xlink" x="0px" y="0px"
	 viewBox="0 0 436.1 240" style="enable-background:new 0 0 436.1 240;" xml:space="preserve">
<style type="text/css">
	.st0{fill:#231F20;}
	.st1{fill:#8DC63F;}
	.st2{fill:#0073AE;}
	.st3{fill:none;}
</style>
<g>
	<g>
		<g>
			<g>
				<g>
					<path class="st0" d="M327.8,184.4c-2,0-5.8-0.1-9.2,0.3c-9,1.3-10.5,7-10.5,14.6v39.2c0,0.7-0.6,1.4-1.4,1.4h-14.6
						c-0.8,0-1.4-0.6-1.4-1.3v-68.7c0-0.9,0.7-1.4,1.4-1.4h13.2c0.5,0,1.4,0.4,1.4,1.4v4.4c0.5-0.4,6.5-5.1,13.9-5.8
						c2.9-0.3,4.7-0.3,7.1,0c1.3,0.2,1.4,1,1.4,1.4c0,0,0,12.8,0,13.1C329.2,183.5,328.8,184.4,327.8,184.4z"/>
					<path class="st0" d="M97.3,146.9c-4.2,0-14.9,0-15.3,0c-0.7,0-1.3,0.5-1.4,1.2c-0.1,0.7-10.5,58.6-10.5,58.6
						s-13.2-58-13.3-58.4c-0.1-0.5-0.6-1.1-1.4-1.1c-2.6,0-9.1,0-9.7,0c-0.8,0-1.3,0.6-1.4,1.1c-0.1,0.5-13.3,58.4-13.3,58.4
						s-10.4-58-10.5-58.6c-0.1-0.6-0.6-1.1-1.4-1.1c-3.6,0-14.2,0-15.3,0c-1.1,0-1.5,1-1.4,1.7c0.1,0.5,16.2,79.8,18.3,90.3
						c0.2,0.7,0.8,1.1,1.4,1.1c0.5,0,11.2,0,14.7,0c0.7,0,1.2-0.5,1.4-1.1c0.1-0.6,12.3-50.9,12.3-50.9s12.1,50.3,12.3,50.9
						c0.2,0.7,0.8,1.1,1.4,1.1c0.5,0,11.2,0,14.8,0c0.7,0,1.2-0.5,1.4-1.1c2.1-10.4,18.1-89.5,18.3-90.3
						C98.9,147.8,98.3,146.9,97.3,146.9z"/>
				</g>
			</g>
			<path class="st0" d="M151.8,210.6c-0.7,0-37.1,0-37.1,0l0,4.3c0,5,5.3,9.1,10.9,9.1c2.6,0,6.1-1.2,8.5-3.7c1.1-1.2,1.7-2,2.5-3.2
				c0.4-0.6,1.1-0.9,1.9-0.5c2.6,1.5,8.7,5,11.2,6.5c0.9,0.5,0.8,1.4,0.6,1.9c-1.2,2.2-3.1,5.1-6.6,8.2c-5.8,5.2-12.7,6.8-17.9,6.8
				c-16.7,0-28.4-12.9-28.4-27v-16.3c0-0.1,0-1.7,0-1.8c0.1-4.6,1.5-9.6,4.1-13.6c5.5-8.2,13.9-13,23.9-13c9.8,0,18.4,4.7,23.8,13
				c2.7,4.1,4.2,8.7,4.2,15.4c0,0,0,11.8,0,12.5C153.1,210.1,152.5,210.6,151.8,210.6z M135.8,193.1c0-4.1-5-8.7-10.5-8.7
				c-5.8,0-10.7,4.6-10.7,8.8c0,0,0,2.7,0,2.7h21.2C135.8,196,135.8,193.1,135.8,193.1z"/>
		</g>
		<g>
			<g>
				<g>
					<path class="st0" d="M282.3,226l-3.1,0l0,0l0-27.2c0-0.4,0-6.3,0-6.7c-0.5-15.6-11-23.5-27.8-23.5c-0.2,0-23.5,0-23.5,0
						c-0.8,0-1.4,0.6-1.4,1.4V183c0,0.8,0.6,1.4,1.4,1.4c0,0,23.9,0,24.5,0c6.3,0,8.4,1.1,9.3,4.5l0.2,1.8v5.2h-16.2
						c-12.7,0-21.5,8.4-21.5,20.4v3.1c0,11.8,8.9,20.5,21.5,20.5c0,0,5.4,0.2,9-0.6c5.1-1.2,7.6-2.8,8.8-3.6c0,0.4,0,2.4,0,2.8
						c0,0.7,0.5,1.4,1.4,1.4c0.7,0,10.6,0,10.6,0v0h7c0.8,0,1.4-0.6,1.4-1.4v-11.2C283.7,226.6,283.1,226,282.3,226z M261.6,216.5
						c-1.4,6.4-9.1,8.4-16,7.5c-2.2-0.3-4.1-1.8-4.1-4.4v-4.6c0-2.3,1.8-4.3,4.1-4.3h16.2c0,0,0,3.9,0,4.2
						C261.8,215.2,261.7,216,261.6,216.5z"/>
					<path class="st0" d="M392.9,226l-3.1,0l0-77.4c0-0.8-0.5-1.4-1.4-1.4h-14.8c-0.6,0-1.4,0.5-1.4,1.4V172
						c-1.1-0.8-7-3.7-13.3-3.7c-14.6,0-26.1,11.4-26.1,26.9V213c0,16,11.6,27,27.5,27c3.3,0,7.7-1.6,11.9-4.2v2.8
						c0,0.7,0.6,1.4,1.4,1.4h19.2c0.8,0,1.4-0.6,1.4-1.4v-11.2C394.3,226.6,393.7,226,392.9,226z M372.3,213c0,6.3-4.6,11-10.8,11
						c-6.4,0-11-4.7-11-11v-17.7c0-6.1,4.6-10.8,11-10.8c6.3,0,10.8,4.7,10.8,10.8V213z"/>
				</g>
			</g>
		</g>
		<path class="st0" d="M183.4,226l-4.8,0c0,0,0-77.3,0-77.5c0-0.9-0.7-1.4-1.4-1.4c-0.4,0-14,0-14.6,0c-0.8,0-1.4,0.7-1.4,1.4
			c0,11.3,0,89.4,0,90.1c0,0.7,0.6,1.4,1.4,1.4c0.8,0,17.6,0,17.6,0h3.2c0.8,0,1.4-0.6,1.4-1.4v-11.2
			C184.8,226.6,184.2,226,183.4,226z"/>
		<path class="st0" d="M216.4,226l-4.8,0c0,0,0-77.3,0-77.5c0-0.9-0.7-1.4-1.4-1.4c-0.4,0-14,0-14.6,0c-0.8,0-1.4,0.7-1.4,1.4
			c0,11.3,0,89.4,0,90.1c0,0.7,0.6,1.4,1.4,1.4c0.8,0,17.6,0,17.6,0h3.2c0.8,0,1.4-0.6,1.4-1.4v-11.2
			C217.8,226.6,217.2,226,216.4,226z"/>
	</g>
</g>
<g>
	<g>
		<g>
			<path class="st1" d="M3.7,52.8c68.9-0.4,126.6,4.1,179.3,21c5.1-2.8,10.2-5.9,15.4-9.1C153.7,44.9,94.6,23.3,3.5,31.5
				c-0.9,0.1-1.4,0.8-1.4,1.6c0,5.8,0,11.7,0,18.1C2.1,52.2,2.8,52.8,3.7,52.8z"/>
			<path class="st1" d="M3.6,28.3c80.1-6.8,136.8,5.9,196.6,35.3c4.8-3,9.6-6.3,14.5-9.7C145.9,5.9,80.4-8.7,3.3,7
				C2.7,7.1,2.1,7.6,2.1,8.4c0,0.3,0,7.7,0,18.2C2.1,27.7,2.9,28.3,3.6,28.3z"/>
			<path class="st1" d="M3.7,80.9c-1-0.1-1.6,0.7-1.6,1.5c0,7.6,0,14.2,0,18c0,1.1,0.9,1.5,1.3,1.6c10.1,2.1,20.9,3.8,32.4,4.9
				c20.5,1,39.3,0.5,56.6-1.3c27.1-3.9,56-12.9,88.4-30.8C144.1,64,97.6,56.4,3.7,56.1c-1.1,0-1.6,0.8-1.6,1.6c0,5.7,0,12.8,0,18.1
				c0,1,0.8,1.5,1.5,1.6c57,3.7,101.2,5.1,115.4,4.6c16-0.6,32.3-0.6,41-0.9c-20.5,2.9-44.1,4.1-63.3,4.8
				C80.6,86.3,43.3,83.6,3.7,80.9z"/>
		</g>
	</g>
	<path class="st2" d="M237.1,63.3c57-28,111.1-40.7,185.7-35.8c5,0.2,11.9-3.6,11.9-11c0-7.8-6.4-10.6-9.7-11.2
		c-21.4-3.7-41.9-5.1-61.9-4c-46,2.2-88.8,17.8-133.5,47.7c-0.5,0.4-9.2,6.3-10.3,7.1c-23.8,16.9-46.3,29.2-67.6,37.9
		c19.7-4,42.3-6.3,66.3-6.3c29.1,0,57.8,3.3,78.3,9c16,4.4,47.8,8.9,48.1,8.9c3.6,0.4,7.2,0.7,11,0.9c9,0,12.4-5.1,12.4-10.3
		c0-5.2-3.3-11.5-11.8-11c-8.5,0.5-31.9,0.8-53.8-1.5c-7-0.7-17.8-1.7-24.9-2.7c5.9,0.2,19,0.4,31.8,0.6c2.9,0.1,5.9,0.2,8.8,0.3
		c9.3,0.4,31.4,0.1,61.3-1.3c6.5-0.3,11-6.4,11-11.9c0-5.5-4.6-10.5-11.4-10.5c-5.9,0-11.5-0.4-17-0.1c-62.4,3.4-97,14-123.1,21.7
		c5.6-2.4,11.4-4.7,17.4-6.8c43.7-13.7,90.4-19.9,145.1-19.1c8,0.1,11.1-7.1,11.1-10.6c0-3.3-1.6-11.1-11.1-11.7
		c-47.6-2.7-81.5,4.2-111.9,13.6c-33.5,10.3-59.3,23.7-80.4,33C218.4,73.1,227.8,68,237.1,63.3z"/>
</g>
<rect x="61.9" y="25.9" class="st3" width="314.4" height="192.7"/>
</svg>
