<svg id="Layer_1" data-name="Layer 1" xmlns="http://www.w3.org/2000/svg" viewBox="0 0 322.096 105.336">
  <defs>
    <style>
      .cls-1 {
        fill: #256788;
        fill-rule: evenodd;
      }
    </style>
  </defs>
  <title>365b194d-d21d-4a5f-afe4-bacc59da92c6</title>
  <path class="cls-1" d="M30.374,54.5l0.16-1.586c0.1-1.006.205-2.017,0.295-2.991H3.907a20.676,20.676,0,0,1,2.131-6.037A15.821,15.821,0,0,1,7.6,41.663,16.317,16.317,0,0,1,9.55,39.715a15.513,15.513,0,0,1,4.728-2.748,16.252,16.252,0,0,1,2.69-.715,18.093,18.093,0,0,1,5.8-.086,15.546,15.546,0,0,1,3.993,1.177,16.58,16.58,0,0,1,3.625,2.221A15.275,15.275,0,0,1,33,42.245l0.219,0.3A26.164,26.164,0,0,1,35.178,38.9l-1.1-1.164a21.988,21.988,0,0,0-6.96-4.64,17.457,17.457,0,0,0-1.9-.62,18.763,18.763,0,0,0-4.023-.6,20.655,20.655,0,0,0-4.034.229,19.4,19.4,0,0,0-5.323,1.653A20.475,20.475,0,0,0,7.077,36.88a22.527,22.527,0,0,0-3.884,4.4,18.885,18.885,0,0,0-1.718,3.167A17.615,17.615,0,0,0,.106,51.3L0,91.252H77.166V69.037A25.916,25.916,0,0,1,73.1,72.965V87.182H4.069V64.9l0.626,0.686a25.785,25.785,0,0,0,2.027,2.045,19.906,19.906,0,0,0,1.667,1.307c0.431,0.3.871,0.594,1.312,0.859s0.9,0.521,1.346.746a20.46,20.46,0,0,0,5.741,1.865c0.49,0.078,1,.143,1.535.19a21.074,21.074,0,0,0,3.511.012,18.717,18.717,0,0,0,5.16-1.182,19,19,0,0,0,3.092-1.518c0.477-.293.955-0.617,1.421-0.959a19.968,19.968,0,0,0,7.35-9.637,28.734,28.734,0,0,0,1.053-6,38.8,38.8,0,0,1,.667-4.624A14.986,14.986,0,0,1,41.59,45.76a15.718,15.718,0,0,1,1.6-2.713,18.68,18.68,0,0,1,7.779-6.127,15.1,15.1,0,0,1,2.956-.866,15.416,15.416,0,0,1,1.548-.2,18.614,18.614,0,0,1,6.075.55,15.95,15.95,0,0,1,2.023.666,15.055,15.055,0,0,1,1.872.916,14.755,14.755,0,0,1,1.714,1.157,17.219,17.219,0,0,1,4.024,4.592h5.988V14.084H0V36.447a27.989,27.989,0,0,1,4.069-4.142V18.154H73.1V39.04a34.921,34.921,0,0,0-2.847-2.6,22.222,22.222,0,0,0-2.267-1.56,20.962,20.962,0,0,0-5.234-2.264,19.818,19.818,0,0,0-4.385-.725,25.379,25.379,0,0,0-3.62.087c-0.7.072-1.377,0.177-2.037,0.31a20.433,20.433,0,0,0-7.363,3.107A22.434,22.434,0,0,0,39.4,41.212a16.347,16.347,0,0,0-2.329,4.977,29.424,29.424,0,0,0-.882,5.535,25.564,25.564,0,0,1-1.41,7.009,14.279,14.279,0,0,1-4.1,5.91,17.587,17.587,0,0,1-2,1.476,15.379,15.379,0,0,1-3.519,1.6,15.714,15.714,0,0,1-2.313.537c-0.464.07-.944,0.123-1.432,0.152a18.608,18.608,0,0,1-4.37-.24A15.856,15.856,0,0,1,6.124,60.537,19.592,19.592,0,0,1,3.994,54.5H30.374ZM95.133,0V105.336H93.86V0h1.273Zm28.32,65.648a12.59,12.59,0,0,0-3.81.58,12.025,12.025,0,0,0-3.29,1.625,11.558,11.558,0,0,0-2.588,2.484,11.235,11.235,0,0,0-2.3,6.838,11.721,11.721,0,0,0,.6,3.709,11.529,11.529,0,0,0,4.237,5.715,11.65,11.65,0,0,0,3.266,1.643,12.23,12.23,0,0,0,3.783.59,11.451,11.451,0,0,0,3.125-.443,12.862,12.862,0,0,0,2.9-1.236,13.33,13.33,0,0,0,2.513-1.867l-1.609-1.8a10.323,10.323,0,0,1-4.313,2.424,9.5,9.5,0,0,1-2.485.334,9.6,9.6,0,0,1-3.651-.711,9.387,9.387,0,0,1-2.978-1.937,9.029,9.029,0,0,1-2-2.881,8.939,8.939,0,0,1,0-7.088,9.034,9.034,0,0,1,2-2.877,9.361,9.361,0,0,1,2.978-1.928,9.592,9.592,0,0,1,3.651-.705,9.068,9.068,0,0,1,2.49.344,10.07,10.07,0,0,1,2.321.99A9.75,9.75,0,0,1,130.284,71l1.576-2a12.249,12.249,0,0,0-2.458-1.791,12.451,12.451,0,0,0-2.857-1.148,11.733,11.733,0,0,0-3.092-.41h0Zm40.611,17.24,2.562,5.812h2.857L159.2,65.713h-2.726L146.166,88.7h2.792l2.561-5.812h12.545Zm-1.116-2.527H152.635l5.124-11.66,5.189,11.66h0Zm23.14-14.648V88.7h2.626V81.443h6.012a11.487,11.487,0,0,0,4.85-.945,6.77,6.77,0,0,0,3.054-2.726,8.463,8.463,0,0,0,1.06-4.34,7.9,7.9,0,0,0-1.06-4.176,6.673,6.673,0,0,0-3.054-2.627,11.717,11.717,0,0,0-4.85-.916h-8.638Zm2.626,2.529h5.912a9.584,9.584,0,0,1,3.537.584,4.724,4.724,0,0,1,2.226,1.76,5.281,5.281,0,0,1,.773,2.91,5.541,5.541,0,0,1-.773,2.994,4.722,4.722,0,0,1-2.226,1.816,9.175,9.175,0,0,1-3.537.607h-5.912V68.242h0ZM223.678,88.7V65.713h-2.627V88.7h2.627Zm34.472-20.459V65.713H240.513v2.529H248V88.7h2.627V68.242h7.521Zm29.214,14.646,2.56,5.812h2.857L282.5,65.713h-2.727L269.465,88.7h2.792l2.562-5.812h12.545Zm-1.116-2.527H275.935l5.123-11.66,5.189,11.66h0Zm25.767,5.846V65.713h-2.627V88.7H322.1V86.207H312.014ZM136.475,20.663V16.608H111.466V53.463h25.692v-4h-21.48V36.825h18.585V32.771H115.679V20.663h20.8Zm17.413,32.8V16.608h-4.212V53.463h4.212Zm19.307-4V16.608h-4.21V53.463h20.375v-4H173.194Zm26.943-32.852V53.463h14.741a20.671,20.671,0,0,0,6.151-.913A18.964,18.964,0,0,0,226.294,50a17.911,17.911,0,0,0,6.749-9.021,19.156,19.156,0,0,0,.008-11.881,17.875,17.875,0,0,0-6.7-9.019,18.663,18.663,0,0,0-5.212-2.554,20.4,20.4,0,0,0-6.1-.914h-14.9Zm4.211,4.055h10.583a15.573,15.573,0,0,1,5.8,1.087,14.409,14.409,0,0,1,4.694,3.027,13.746,13.746,0,0,1,3.149,4.572,14.945,14.945,0,0,1,.018,11.451,13.747,13.747,0,0,1-3.107,4.553,14.4,14.4,0,0,1-4.642,3.02,15.544,15.544,0,0,1-5.756,1.086H204.349v-28.8h0Zm56.214-4.16a20.464,20.464,0,0,0-6.149.93,19.252,19.252,0,0,0-5.309,2.59,18.7,18.7,0,0,0-4.169,3.983,17.912,17.912,0,0,0-2.719,5.1,18.495,18.495,0,0,0,0,11.855,18.139,18.139,0,0,0,2.719,5.115A18.743,18.743,0,0,0,249.1,50.1a19.384,19.384,0,0,0,5.309,2.632,20.51,20.51,0,0,0,12.275,0,19.592,19.592,0,0,0,5.3-2.632,18.891,18.891,0,0,0,4.16-4.028,18.252,18.252,0,0,0,0-22.041,18.937,18.937,0,0,0-4.16-3.993,19.5,19.5,0,0,0-5.3-2.606,20.306,20.306,0,0,0-6.126-.93h0Zm0,4a15.192,15.192,0,0,1,10.557,4.221,14.648,14.648,0,0,1,3.222,4.615,14.39,14.39,0,0,1,0,11.39,14.776,14.776,0,0,1-3.222,4.642,15.167,15.167,0,0,1-10.557,4.246,15.339,15.339,0,0,1-10.606-4.246A14.686,14.686,0,0,1,246.7,40.73a14.184,14.184,0,0,1,0-11.39,14.56,14.56,0,0,1,3.256-4.615A15.364,15.364,0,0,1,260.562,20.5h0ZM322.1,53.463V16.608h-4.159V46.249L295.824,16.608h-4.369V53.463h4.212V23.874l22.111,29.588H322.1ZM75.767,61.422l0.111-.234H71.235a19.141,19.141,0,0,1-1.128,1.549,15.7,15.7,0,0,1-4.718,3.939,18.486,18.486,0,0,1-1.89.865,16.493,16.493,0,0,1-2.041.625,18.831,18.831,0,0,1-2.193.383,21.076,21.076,0,0,1-4.017.1,16.159,16.159,0,0,1-7.51-2.6c-0.449-.3-0.89-0.623-1.316-0.973a18.121,18.121,0,0,1-2.717-2.75c-0.163-.207-0.324-0.416-0.479-0.631A24.256,24.256,0,0,1,41.2,65.549a22.861,22.861,0,0,0,2.655,2.471c0.539,0.43,1.087.828,1.64,1.187a20.169,20.169,0,0,0,5.35,2.475,21.945,21.945,0,0,0,6.008.893,26.9,26.9,0,0,0,3.111-.152,22.677,22.677,0,0,0,2.887-.5,19.642,19.642,0,0,0,2.668-.855,18.325,18.325,0,0,0,4.717-2.768,19.442,19.442,0,0,0,2.048-1.92,21.929,21.929,0,0,0,1.844-2.293,26.321,26.321,0,0,0,1.641-2.66h0Z"/>
</svg>
