<svg width="1272" height="165" viewBox="0 0 1272 165" fill="none" xmlns="http://www.w3.org/2000/svg">
<rect width="1272" height="165" fill="#E5E5E5"/>
<rect width="1271.65" height="164.8" fill="black" fill-opacity="0"/>
<rect width="1271.65" height="164.8" fill="black" fill-opacity="0"/>
<rect width="182.56" height="164.8" fill="black" fill-opacity="0"/>
<path d="M93.57 116.71L123.33 154.8C125.79 157.8 132.4 164.8 140.28 164.8H180.19L118.1 85.32L93.57 116.71Z" fill="black"/>
<path d="M89 48.09L59.24 10C56.78 7 50.17 0 42.29 0H2.38001L64.47 79.48L89 48.09Z" fill="black"/>
<path d="M42.29 107.87V56.93L0 2.79998V162L42.29 107.87Z" fill="black"/>
<path d="M140.27 56.93V107.87L182.56 162V2.79998L140.27 56.93Z" fill="black"/>
<rect width="1269.27" height="164.8" fill="black" fill-opacity="0" transform="translate(2.38)"/>
<path d="M42.29 164.8C50.17 164.8 56.78 157.8 59.29 154.8L180.18 0H140.27C132.39 0 125.78 7 123.27 10L122.41 11.1L2.38 164.8H42.29Z" fill="black"/>
<path d="M261.08 11.03V56.96L226.2 11.03H217.71V74.56H227.58V28.83L262.37 74.56H270.95V11.03H261.08Z" fill="black"/>
<path d="M305.65 24.2C300.03 24.2 294.78 25.05 286.91 27.2L285.5 27.59L287.21 35.97L288.8 35.58C293.976 34.1799 299.3 33.3978 304.66 33.25C311.31 33.25 313.66 34.72 313.87 43.55C310.06 43.48 307.12 43.48 301.87 43.48C288.02 43.48 280.99 48.94 280.99 59.7C280.99 70.14 286.85 75.43 298.4 75.43C304.134 75.499 309.674 73.3493 313.86 69.43V74.49H323.63V45.27C323.66 32.26 320.65 24.2 305.65 24.2ZM313.89 51.5V59.68C310.99 63.24 306.35 67.28 300.21 67.28C293.54 67.28 290.29 64.62 290.29 59.14C290.29 54.36 292.29 51.6 302.59 51.6C305.03 51.6 307.2 51.6 309.33 51.55L313.89 51.5Z" fill="black"/>
<path d="M362.43 64.77L360.88 65.01C358.606 65.416 356.299 65.6069 353.99 65.58C348.99 65.58 346.84 64.58 346.84 58.33V33.9H361.4V25.12H346.82V13.01H337.15V25.09H329.92V33.9H337.15V58.57C337.15 69.86 341.73 74.89 351.99 74.89C355.516 74.7907 359.008 74.1672 362.35 73.04L363.66 72.64L362.43 64.77Z" fill="black"/>
<path d="M375.41 18.62C376.48 18.5711 377.512 18.2099 378.378 17.5809C379.245 16.952 379.908 16.083 380.287 15.0812C380.665 14.0794 380.741 12.9887 380.506 11.944C380.272 10.8992 379.736 9.94617 378.965 9.20256C378.195 8.45895 377.223 7.95737 376.171 7.75979C375.118 7.56222 374.031 7.67731 373.043 8.09085C372.056 8.50438 371.211 9.19823 370.613 10.0867C370.015 10.9751 369.691 12.0192 369.68 13.09C369.659 13.839 369.795 14.5842 370.078 15.278C370.361 15.9718 370.786 16.5989 371.325 17.1192C371.864 17.6396 372.506 18.0419 373.209 18.3003C373.913 18.5587 374.662 18.6676 375.41 18.62Z" fill="black"/>
<path d="M380.25 25.09H370.48V74.57H380.25V25.09Z" fill="black"/>
<path d="M413.88 24.2C398.97 24.2 389.34 34.42 389.34 50.2C389.34 65.53 398.93 75.43 413.78 75.43C428.63 75.43 438.42 65.52 438.42 50.2C438.42 34.41 428.82 24.2 413.88 24.2ZM413.78 66.58C404.53 66.58 399.01 60.43 399.01 50.12C399.01 39.44 404.57 33.12 413.88 33.12C423.19 33.12 428.88 39.49 428.88 50.12C428.82 60.43 423.21 66.58 413.82 66.58H413.78Z" fill="black"/>
<path d="M473.73 24.3C467.641 24.2819 461.769 26.556 457.28 30.67V25.09H447.51V74.57H457.28V41.96C461.72 36.47 466.99 33.57 472.55 33.57C479.02 33.57 480.88 36.26 480.88 45.57V74.57H490.65V44.08C490.65 30.58 485.27 24.3 473.73 24.3Z" fill="black"/>
<path d="M523.82 24.2C518.2 24.2 512.95 25.05 505.08 27.2L503.67 27.59L505.38 35.97L506.97 35.58C512.144 34.1874 517.464 33.412 522.82 33.27C529.47 33.27 531.82 34.74 532.03 43.57C528.22 43.5 525.28 43.5 520.03 43.5C506.18 43.5 499.15 48.96 499.15 59.72C499.15 70.16 505.01 75.45 516.56 75.45C522.294 75.519 527.834 73.3693 532.02 69.45V74.51H541.82V45.27C541.82 32.26 538.82 24.2 523.82 24.2ZM532.06 51.5V59.68C529.16 63.24 524.52 67.28 518.38 67.28C511.71 67.28 508.46 64.62 508.46 59.14C508.46 54.36 510.46 51.6 520.76 51.6C523.2 51.6 525.37 51.6 527.5 51.55L532.06 51.5Z" fill="black"/>
<path d="M563.62 6.56999H553.85V74.56H563.62V6.56999Z" fill="black"/>
<path d="M623.5 37.74L623.23 37.65C610.62 33.48 607.64 32.27 607.64 26.45C607.64 22.94 611.19 19.2 617.76 19.2C624.337 19.1955 630.838 20.6075 636.82 23.34L638.3 24L641.63 15.66L640.27 15.04C633.225 11.8134 625.579 10.1097 617.83 10.04C605.7 10.04 597.55 16.88 597.55 27.04C597.55 39.8 606.55 42.65 617.06 45.96C630.99 50.33 633.06 52.6 633.06 58.13C633.06 64.69 626.96 66.07 621.85 66.07C614.99 66.07 606.75 63.39 599.85 58.89L598.42 57.96L594.2 65.8L595.28 66.61C603.124 72.2368 612.507 75.319 622.16 75.44C635.1 75.44 643.16 68.44 643.16 57.24C643.19 46.42 636.28 42.04 623.5 37.74Z" fill="black"/>
<path d="M678.6 64.77L677.06 65.01C674.79 65.4154 672.486 65.6062 670.18 65.58C665.18 65.58 663.03 64.58 663.03 58.33V33.9H677.59V25.12H663.02V13.01H653.35V25.09H646.12V33.9H653.35V58.57C653.35 69.86 657.93 74.89 668.19 74.89C671.716 74.7903 675.207 74.1668 678.55 73.04L679.86 72.64L678.6 64.77Z" fill="black"/>
<path d="M707.32 24.2C692.41 24.2 682.78 34.42 682.78 50.2C682.78 65.53 692.37 75.43 707.22 75.43C722.07 75.43 731.82 65.55 731.82 50.22C731.82 34.41 722.23 24.2 707.32 24.2ZM707.22 66.58C697.97 66.58 692.45 60.43 692.45 50.12C692.45 39.44 698.01 33.12 707.32 33.12C716.63 33.12 722.32 39.49 722.32 50.12C722.29 60.43 716.66 66.58 707.22 66.58Z" fill="black"/>
<path d="M778.48 60.07L777.07 61.18C772.07 65.12 767.91 66.59 761.8 66.59C753.05 66.59 747.8 60.48 747.8 50.23C747.8 39.59 753.31 32.98 762.18 32.98C766.854 33.0005 771.449 34.1863 775.55 36.43L776.97 37.26L780.76 29.99L779.57 29.21C774.33 25.9237 768.265 24.19 762.08 24.21C747.53 24.21 738.13 34.43 738.13 50.21C738.13 65.54 747.13 75.44 760.99 75.44C769.74 75.44 775.34 73.44 781.63 67.93L782.63 67.07L778.48 60.07Z" fill="black"/>
<path d="M826.24 74.56L808.04 52.34L800.23 59.9V74.56H790.46V6.56999H800.23V46.84L822.89 25.09H836.03L815.14 45.31L838.51 74.56H826.24Z" fill="black"/>
<path d="M872.22 65.09V47.24H900.94V37.76H872.22V20.5H905V11.03H862.36V74.56H905.89V65.09H872.22Z" fill="black"/>
<path d="M941.64 49.63L959.64 25.09H948.22L937.02 40.2C936.4 40.93 935.73 41.75 935.02 42.7C934.35 41.76 933.69 40.95 933.11 40.28L921.85 25.09H910.44L928.44 49.63L910.05 74.57H921.26L933.07 59.06C933.69 58.33 934.36 57.51 935.07 56.56C935.75 57.5 936.41 58.31 936.99 59L948.82 74.57H960.03L941.64 49.63Z" fill="black"/>
<path d="M1002.36 60.07L1000.95 61.18C995.95 65.12 991.79 66.59 985.68 66.59C976.93 66.59 971.68 60.48 971.68 50.23C971.68 39.59 977.19 32.98 986.06 32.98C990.734 33.0005 995.329 34.1863 999.43 36.43L1000.85 37.26L1004.64 29.99L1003.45 29.21C998.21 25.9237 992.145 24.19 985.96 24.21C971.41 24.21 962.01 34.43 962.01 50.21C962.01 65.54 971.01 75.44 984.87 75.44C993.62 75.44 999.22 73.44 1005.51 67.93L1006.51 67.07L1002.36 60.07Z" fill="black"/>
<path d="M1040.65 24.2C1034.33 24.2326 1028.25 26.6588 1023.65 30.99V6.56999H1013.98V74.57H1023.65V42.45C1028.27 36.75 1033.4 33.86 1038.92 33.86C1045.39 33.86 1047.26 36.57 1047.26 45.96V74.56H1057.03V44.08C1056.97 30.33 1051.93 24.2 1040.65 24.2Z" fill="black"/>
<path d="M1089.69 24.2C1084.07 24.2 1078.82 25.05 1070.95 27.2L1069.54 27.59L1071.25 35.97L1072.83 35.58C1078.01 34.1799 1083.33 33.3978 1088.69 33.25C1095.34 33.25 1097.69 34.72 1097.9 43.55C1094.09 43.48 1091.15 43.48 1085.9 43.48C1072.05 43.48 1065.02 48.94 1065.02 59.7C1065.02 70.14 1070.88 75.43 1082.43 75.43C1088.17 75.5016 1093.71 73.3517 1097.9 69.43V74.49H1107.67V45.27C1107.69 32.26 1104.68 24.2 1089.69 24.2ZM1097.93 51.5V59.68C1095.03 63.24 1090.39 67.28 1084.25 67.28C1077.57 67.28 1074.33 64.62 1074.33 59.14C1074.33 54.36 1076.33 51.6 1086.63 51.6C1089.07 51.6 1091.24 51.6 1093.37 51.55L1097.93 51.5Z" fill="black"/>
<path d="M1145.45 24.3C1139.36 24.2819 1133.49 26.556 1129 30.67V25.09H1119.23V74.57H1129V41.96C1133.44 36.47 1138.71 33.57 1144.27 33.57C1150.74 33.57 1152.61 36.26 1152.61 45.57V74.57H1162.38V44.08C1162.37 30.58 1157 24.3 1145.45 24.3Z" fill="black"/>
<path d="M1208.18 25.09V30C1203.44 26.3285 1197.63 24.2935 1191.63 24.2C1174.87 24.2 1171.35 37.98 1171.35 49.53C1171.35 70.83 1187.56 72.53 1192.52 72.53C1199.7 72.53 1204.18 70.4 1208.18 66.81C1208.04 76.4 1203.94 80.88 1195.29 80.88C1189.34 80.9188 1183.47 79.5154 1178.18 76.79L1176.65 76.01L1173.53 83.8L1174.69 84.48C1181.16 88.1917 1188.52 90.0819 1195.98 89.95C1210.14 89.95 1217.98 81.55 1217.98 66.3V25.09H1208.18ZM1194.5 64.01C1189.5 64.01 1181.01 62.13 1181.01 49.53C1181.01 34.69 1188.14 32.98 1193.51 32.98C1198.7 32.98 1203.51 35.51 1208.18 40.72V56.19C1204.04 61.02 1200.25 64 1194.49 64L1194.5 64.01Z" fill="black"/>
<path d="M1249.67 24.2C1234.86 24.2 1226.02 33.93 1226.02 50.2C1226.02 66.2 1234.49 75.43 1249.27 75.43C1257.74 75.43 1264.17 73.05 1270.12 67.7L1271.12 66.82L1266.8 59.94L1265.43 61.06C1261.02 64.9193 1255.35 67.0135 1249.49 66.94C1243.66 66.94 1236.67 64.49 1235.62 53.14H1271.26L1271.44 51.78C1271.6 50.6139 1271.67 49.437 1271.65 48.26C1271.23 32.76 1263.43 24.2 1249.67 24.2ZM1235.91 44.8C1237.56 34.92 1244.27 32.8 1249.77 32.8C1257.24 32.8 1261.49 36.8 1262.42 44.8H1235.91Z" fill="black"/>
<path d="M237.6 106.97C222.69 106.97 213.06 117.19 213.06 132.97C213.06 148.3 222.65 158.2 237.5 158.2C252.35 158.2 262.14 148.3 262.14 132.97C262.14 117.19 252.51 106.97 237.6 106.97ZM237.5 149.35C228.25 149.35 222.73 143.2 222.73 132.89C222.73 122.21 228.29 115.89 237.6 115.89C246.91 115.89 252.6 122.26 252.6 132.89C252.57 143.2 246.93 149.35 237.5 149.35Z" fill="black"/>
<path d="M290.2 96.74C292.9 96.74 295.2 96.84 297.2 97.03L298.73 97.18L299.67 89.18L298.3 88.87C295.318 88.2701 292.281 87.9919 289.24 88.04C278.31 88.04 273.24 93.41 273.24 104.95V107.9H266.61V116.68H273.24V157.38H283.01V116.68H298.06V107.9H282.96V105.01C282.96 98.9 284.82 96.74 290.2 96.74Z" fill="black"/>
<path d="M356.2 93.8H345.12L317.73 157.34H328.47L335.3 141.4H365.92L372.82 157.34H383.45L356.2 93.8ZM339.2 132.02L349.6 107.9C349.97 106.9 350.31 106.04 350.6 105.21C350.91 106.05 351.26 106.97 351.6 107.97L361.95 132.03L339.2 132.02Z" fill="black"/>
<path d="M421.05 107.9V140.3C416.94 145.71 411.31 149.06 406.28 149.06C399.69 149.06 397.35 145.84 397.35 136.76V107.9H387.68V138.18C387.68 151.88 392.96 158.26 404.3 158.26C410.15 158.26 415.89 155.99 421.05 151.66V157.36H430.82V107.9H421.05Z" fill="black"/>
<path d="M461.13 127.45L460.27 127.17C453.41 124.95 450.63 123.93 450.63 120.82C450.63 116.39 454.73 115.46 458.17 115.46C462.07 115.46 467.45 116.75 472.92 119.01L474.44 119.63L477.26 111.79L475.96 111.19C470.432 108.526 464.404 107.06 458.27 106.89C447.68 106.89 441.35 112.18 441.35 121.03C441.35 129.88 447.75 132.6 456.81 135.5L457.1 135.59C466.87 138.65 469.18 139.59 469.18 144.01C469.18 147.7 466.34 149.57 460.75 149.57C454.786 149.618 449.01 147.484 444.51 143.57L443.12 142.43L438.6 149.76L439.6 150.63C445.604 155.502 453.088 158.183 460.82 158.23C471.74 158.23 478.53 152.74 478.53 143.89C478.55 134.21 472.97 131.33 461.13 127.45Z" fill="black"/>
<path d="M515.29 147.54L513.74 147.78C511.467 148.19 509.16 148.384 506.85 148.36C501.85 148.36 499.7 147.36 499.7 141.11V116.64H514.26V107.9H499.72V95.78H490.05V107.9H482.82V116.68H490.05V141.35C490.05 152.64 494.63 157.67 504.89 157.67C508.416 157.57 511.907 156.947 515.25 155.82L516.56 155.42L515.29 147.54Z" fill="black"/>
<path d="M553.5 107.28C551.472 107.048 549.431 106.944 547.39 106.97C544.91 107 542.468 107.58 540.239 108.667C538.01 109.755 536.05 111.324 534.5 113.26V107.9H524.73V157.38H534.5V127.99C536.84 120.73 541.34 116.74 547.19 116.74C548.84 116.74 550.39 116.74 552.7 116.93L554.27 117.06L555 107.44L553.5 107.28Z" fill="black"/>
<path d="M581.65 106.97C576.03 106.97 570.78 107.82 562.91 109.97L561.5 110.36L563.21 118.74L564.8 118.35C569.976 116.95 575.3 116.168 580.66 116.02C587.31 116.02 589.66 117.49 589.87 126.32C586.06 126.25 583.12 126.25 577.87 126.25C564.02 126.25 556.99 131.71 556.99 142.47C556.99 152.91 562.85 158.2 574.4 158.2C580.134 158.269 585.673 156.119 589.86 152.2V157.26H599.63V128.04C599.65 115.03 596.64 106.97 581.65 106.97ZM589.89 134.27V142.45C586.99 146.01 582.35 150.05 576.21 150.05C569.54 150.05 566.29 147.39 566.29 141.91C566.29 137.13 568.29 134.37 578.59 134.37C581.03 134.37 583.2 134.37 585.33 134.32L589.89 134.27Z" fill="black"/>
<path d="M621.07 89.34H611.3V157.33H621.07V89.34Z" fill="black"/>
<path d="M638.1 101.39C639.17 101.343 640.203 100.983 641.071 100.356C641.939 99.7278 642.604 98.8593 642.984 97.8576C643.364 96.8559 643.441 95.7649 643.208 94.7195C642.974 93.674 642.439 92.72 641.669 91.9754C640.899 91.2308 639.927 90.7283 638.874 90.53C637.822 90.3317 636.734 90.4463 635.745 90.8596C634.757 91.2729 633.912 91.9668 633.314 92.8555C632.715 93.7443 632.391 94.7888 632.38 95.86C632.359 96.6082 632.494 97.3525 632.777 98.0455C633.06 98.7386 633.483 99.3651 634.022 99.8854C634.56 100.406 635.2 100.808 635.902 101.067C636.605 101.326 637.353 101.436 638.1 101.39Z" fill="black"/>
<path d="M642.94 107.86H633.17V157.34H642.94V107.86Z" fill="black"/>
<path d="M676.99 106.97C671.37 106.97 666.12 107.82 658.25 109.97L656.84 110.36L658.55 118.74L660.13 118.35C665.306 116.95 670.63 116.168 675.99 116.02C682.64 116.02 684.99 117.49 685.2 126.32C681.39 126.25 678.45 126.25 673.2 126.25C659.35 126.25 652.32 131.71 652.32 142.47C652.32 152.91 658.18 158.2 669.73 158.2C675.468 158.272 681.011 156.122 685.2 152.2V157.26H694.97V128.04C695 115.03 691.98 106.97 676.99 106.97ZM685.23 134.27V142.45C682.33 146.01 677.69 150.05 671.55 150.05C664.87 150.05 661.63 147.39 661.63 141.91C661.63 137.13 663.63 134.37 673.93 134.37C676.37 134.37 678.54 134.37 680.67 134.32L685.23 134.27Z" fill="black"/>
</svg>
