<?xml version="1.0" encoding="utf-8"?>
<!-- Generator: Adobe Illustrator 19.0.0, SVG Export Plug-In . SVG Version: 6.00 Build 0)  -->
<svg version="1.1" id="Layer_1" xmlns="http://www.w3.org/2000/svg" xmlns:xlink="http://www.w3.org/1999/xlink" x="0px" y="0px"
	 viewBox="0 0 201 44" enable-background="new 0 0 201 44" xml:space="preserve">
<g id="XMLID_2_">
	<g id="XMLID_150_">
		<path id="XMLID_151_" fill="#FFFFFF" d="M68.7,1.2c0-0.8-0.1-1-0.9-1.1c-1.2-0.2-2.4-0.2-3.6,0.2c-1.5,0.5-2.8,1.3-4,2.3
			c-0.5,0.4-0.6,0.8-0.6,1.4c0,4,0,8,0,12c0,0.5,0.2,1,0.3,1.4c0.4,1.1,0.8,2.1,1.1,3.2c0.2,0.5,0.2,1.1,0.2,1.6
			c0,0.1-0.1,0.3-0.2,0.3c-0.1,0-0.3,0-0.3-0.1c-0.2-0.2-0.3-0.4-0.4-0.6c-0.7-1.3-1.5-2.5-2.6-3.5c-0.8-0.7-1.6-1.1-2.7-0.9
			c-0.3,0-0.5,0.1-0.8,0.1c-3.8,0.5-7,2.1-9.4,5.1c-2.3,2.9-3.1,6.3-2.6,9.9c0.5,3.3,2,6.1,4.6,8.2c4.1,3.4,8.6,4.2,13.5,2.2
			c4.6-2,7.4-5.5,8-10.6c0.2-1.7,0.2-3.5,0.3-5.2c0-4,0-8,0-12C68.7,10.5,68.7,5.8,68.7,1.2z M59.6,30.1c0,0.4,0,0.8-0.1,1.3
			c-0.2,1.5-1,2.7-2.5,3.2c-1.5,0.5-3,0.4-4.2-0.6c-1.1-0.9-1.5-2.2-1.5-3.6c0-0.4,0.1-0.8,0.2-1.2c0.4-1.6,1.6-2.7,3.3-2.8
			c1.5-0.1,3,0,4.5,0c0.1,0,0.2,0.1,0.3,0.1C59.6,27.7,59.6,28.9,59.6,30.1z M175.3,26.6c0-3.8,0-7.7,0-11.5c0-4.6,0-9.3,0-13.9
			c0-0.8-0.1-1-0.9-1.1c-1.3-0.2-2.6-0.2-3.9,0.3c-1.3,0.5-2.5,1.2-3.6,2.2c-0.5,0.4-0.7,0.9-0.7,1.6c0,3.9,0,7.9,0,11.8
			c0,0.5,0.1,1,0.3,1.5c0.6,1.4,1.1,2.7,1.3,4.2c0,0.2,0.1,0.4,0,0.7c0,0.3-0.3,0.4-0.5,0.1c-0.2-0.2-0.3-0.4-0.4-0.6
			c-0.7-1.3-1.5-2.6-2.7-3.6c-0.8-0.7-1.6-1.2-2.7-1c-0.3,0-0.5,0.1-0.8,0.1c-3.8,0.5-7,2.1-9.4,5.1c-2.3,2.9-3.1,6.3-2.6,10
			c0.5,3.3,2,6,4.6,8.1c3.8,3.2,8,4.2,12.7,2.5c5.1-1.8,8.2-5.5,8.8-11C175.2,30.3,175.3,28.4,175.3,26.6z M166.1,31.1
			c-0.1,1.5-0.8,2.8-2.2,3.4c-1.5,0.7-3,0.6-4.3-0.3c-1.3-0.9-1.7-2.3-1.7-3.8c0-0.4,0.1-0.9,0.2-1.3c0.5-1.6,1.8-2.6,3.6-2.7
			c0.6,0,1.2,0,1.8,0v0c0.6,0,1.3,0,1.9,0c0.6,0,0.7,0.1,0.7,0.7C166.2,28.4,166.2,29.7,166.1,31.1z M90.3,0.9
			c-3.3-1.3-6.6-1.2-9.9,0.2c-4.4,2-7.1,5.4-7.8,10.2c-0.2,1.2-0.2,2.5-0.3,3.7c0,5.7,0,11.5,0,17.2c0,3.6,0,7.2,0,10.8
			c0,0.8,0,0.9,0.9,0.9c2.4,0,4.8,0,7.1,0c1,0,1,0,1-1c0-5.2,0-10.3,0-15.5c0-0.3,0-0.6,0.1-1h0.8c1.4,0,2.7,0,4.1,0
			c0.8,0,1.4-0.3,1.8-1c0.8-1.3,1.3-2.6,1.5-4.1c0.2-1,0.1-1.9-0.2-2.9c-0.4-1-0.5-1.1-1.6-1.1c-1.9,0-3.8,0-5.7,0
			c-0.7,0-0.7-0.1-0.7-0.7c0-0.9,0-1.8,0-2.7c0-0.5,0.1-1.1,0.1-1.6c0.3-1.7,1.5-3,3.2-3.3C85.7,9,86.6,9,87.5,9.4
			c0.5,0.2,0.9,0.1,1.3-0.2c0.4-0.4,0.9-0.8,1.2-1.3c1-1.2,1.8-2.6,1.9-4.3C92,2.2,91.6,1.4,90.3,0.9z M13.5,17.3
			C6.3,17.2,0.4,23.1,0,30c-0.4,7.4,5.7,13.9,13.1,14c7,0.1,13.2-6,13.3-13.2C26.5,23.5,20.6,17.5,13.5,17.3z M15.1,34.5
			c-1.6,0.8-3.1,0.6-4.5-0.5c-1.8-1.4-2-4.4-0.5-6.2c1.4-1.7,4.2-1.9,5.9-0.4c1,0.9,1.4,2,1.4,3.3C17.3,32.4,16.6,33.7,15.1,34.5z
			 M127.6,20.3c-3.5-2.8-7.5-3.6-11.9-2.3c-2.3,0.7-4.3,2-5.9,3.8c-3,3.3-4.2,7.1-3.3,11.5c0.6,3.2,2.3,5.8,4.9,7.8
			c2.8,2.1,5.9,3.2,9.4,2.8c4.1-0.4,7.3-2.5,9.6-5.9c0.4-0.6,0.4-0.8-0.1-1.4c-0.1-0.1-0.2-0.3-0.3-0.4c-1.7-1.7-3.8-2.2-6.2-2.2
			c-0.5,0-0.7,0.3-0.9,0.7c-0.4,0.7-1,1.1-1.7,1.3c-0.7,0.2-1.5,0.3-2.2,0.3c-2-0.2-3.5-1.5-3.9-3.3c-0.1-0.4-0.1-0.7-0.1-1.2
			c0.4,0,0.7,0,0.9,0c1.8,0,3.6,0.1,5.4,0.1c3.5,0,6.9,0,10.4,0c0.2,0,0.3,0,0.5,0c0.3,0,0.5-0.1,0.5-0.5c0-0.8,0-1.7-0.1-2.5
			C132,25.4,130.3,22.5,127.6,20.3z M123.4,29.6h-8.3c-0.3-1.1,0.4-2.7,1.5-3.5c1.5-1.1,3.8-1.2,5.3-0.1
			C123.1,26.8,123.8,28.4,123.4,29.6z M38.9,22.1c0-7,0-13.9,0-20.9c0-0.9-0.1-1-1-1.1C36.9,0,35.8,0,34.7,0.2
			C33.3,0.6,32,1,30.8,2.1c-0.7,0.6-1,1.3-1,2.3c0,11.7,0,23.5,0,35.2c0,1.2,0,2.4,0,3.6c0,0.7,0.1,0.8,0.8,0.8c2.5,0,4.9,0,7.4,0
			c0.1,0,0.2,0,0.3,0c0.4,0,0.6-0.2,0.5-0.6c0-0.2,0-0.4,0-0.6C38.9,35.9,38.9,29,38.9,22.1z M144.3,0.1c-0.5-0.1-1.1-0.1-1.6,0
			c-1.7,0.1-3.4,0.5-4.8,1.4c-1.2,0.7-1.8,1.6-1.8,3.2c0.1,10.9,0,21.9,0,32.8c0,1.9,0,3.8,0,5.6c0,0.8,0,0.9,0.9,0.9
			c2.4,0,4.8,0,7.2,0c1,0,1,0,1-1.1c0-7,0-13.9,0-20.9v-8.2c0-4.3,0-8.5,0-12.8C145.2,0.3,145.2,0.2,144.3,0.1z M200.9,23.7
			c-0.4-2.1-1.2-3.9-2.8-5.4c-0.6-0.6-1.3-0.9-2.1-0.8c-0.4,0.1-0.8,0-1.2,0.1c-3.2,0.4-5.8,1.7-7.8,4.3c-1.3,1.7-2.1,3.7-2.4,5.8
			c-0.2,1-0.2,1.9-0.3,2.9c-0.1,0.7-0.2,1.4-0.4,2c-0.3,0.9-0.9,1.5-1.9,1.7c-0.6,0.1-1.3,0.2-2,0.2c-0.7,0-0.7,0-0.9,0.7
			c-0.3,1.4-0.9,2.6-1.8,3.7c-0.8,1.1-1.9,1.8-3,2.5c-0.3,0.2-0.6,0.4-1,0.6c0.1,0.1,0.2,0.2,0.2,0.2c0.1,0.1,0.2,0.1,0.4,0.2
			c2.7,1,5.4,1.5,8.3,1.4c4.7-0.2,8.9-3.4,10.5-7.9c0.5-1.4,0.6-2.9,0.8-4.4c0.1-0.9,0.2-1.8,0.4-2.6c0.2-1.1,0.9-1.8,2-2.1
			c1.4-0.3,2.8-0.2,4,0.5c0.1,0.1,0.2,0.1,0.3,0.2c0.4,0.2,0.6,0.2,0.8-0.3c0.1-0.4,0.3-0.9,0.3-1.3C201,25.2,201,24.4,200.9,23.7z
			 M102,17.4c-1.3-0.1-2.5-0.1-3.7,0.2c-1.2,0.3-2.4,0.8-3.4,1.6c-0.7,0.6-1.1,1.3-1.1,2.3c0,7.1,0,14.3,0,21.4c0,0.2,0,0.4,0,0.7
			c0,0.2,0.1,0.4,0.4,0.4c0.2,0,0.3,0,0.5,0c2.4,0,4.9,0,7.3,0h0.8c0-0.3,0-0.5,0-0.8c0-8.3,0-16.6,0-24.9
			C102.8,17.5,102.7,17.4,102,17.4z M98.3,5.4c-2.1-0.1-4.6,2.1-4.5,4.5c0,2.4,2.1,4.6,4.5,4.7c2.4,0,4.7-2.3,4.6-4.6
			C102.8,7.2,100.3,5.3,98.3,5.4z"/>
	</g>
</g>
</svg>
