<?xml version="1.0" encoding="utf-8"?>
<!-- Generator: Adobe Illustrator 22.1.0, SVG Export Plug-In . SVG Version: 6.00 Build 0)  -->
<svg version="1.1" id="Layer_1" xmlns="http://www.w3.org/2000/svg" xmlns:xlink="http://www.w3.org/1999/xlink" x="0px" y="0px"
	 viewBox="0 0 234 28" style="enable-background:new 0 0 234 28;" xml:space="preserve">
<style type="text/css">
	.st0{fill:#FFFFFF;}
	.st1{fill:#337BB7;}
	.st2{fill:#751B63;}
	.st3{fill:url(#SVGID_1_);}
	.st4{fill:url(#SVGID_2_);}
	.st5{fill:#FFF4CD;}
	.st6{fill:#FFEB96;}
</style>
<title>T1_logo_WhiteArtboard 1</title>
<path class="st0" d="M28.7,10.1h-2.5V8.5h2.5V5.8h1.9v2.7h7.6v1.6h-7.6v5.6c0,2.1,0.7,2.7,2.8,2.7H34c2.5,0,2.9-0.5,2.9-2.9v-0.8
	h1.5V16c0,2.3-0.2,4.1-4.3,4.1h-1c-3.6,0-4.4-1.7-4.4-3.6L28.7,10.1z"/>
<path class="st0" d="M40.3,12.9c0-4.1,2.8-4.6,5.5-4.6H49c3.4,0,5.9,0.9,5.9,4.9v1.3H42.3v0.7c0,2.6,1.2,3.2,4.6,3.2h2.6
	c2.4,0,3.4-0.3,3.5-2h1.9v0.2c0,2.6-2.2,3.4-5.7,3.4h-3.5c-2.5,0-5.3-0.5-5.3-4.6V12.9z M52.9,12.2c0-1.2-0.8-2.3-4-2.3h-2.8
	c-3,0-3.7,0.5-3.9,3h10.7L52.9,12.2z"/>
<path class="st0" d="M57.3,12.9c0-4.1,2.9-4.6,5.7-4.6h3.2c3.6,0,5,1.4,5,3.8v0.3h-1.8v-0.3c0-1.9-1.2-2.3-3.1-2.3h-3.5
	c-1.8,0-3.5,0.3-3.5,3.1v2.4c0,2.5,1.6,3.1,3.9,3.1h3.2c1.8,0,3.3-0.5,3.3-2.4v-0.4h1.8V16c0,2.9-1.4,4-5,4h-4.3
	c-1.7,0-4.8-0.5-4.8-4.6V12.9z"/>
<path class="st0" d="M74.3,3.8h1.9v6.7h0.1c0.7-1.8,2.2-2.1,4.6-2.1h2.7c3.6,0,4.7,1.8,4.7,3.8v7.7h-1.9v-7.2c0-1.7-0.5-2.7-4.2-2.7
	h-0.5c-4.5,0-5.5,0.8-5.5,3.5v6.4h-1.9L74.3,3.8z"/>
<path class="st0" d="M91.9,8.5h1.8v2l0,0c0.7-1.8,2.2-2.1,4.6-2.1h2.9c3.6,0,4.7,1.8,4.7,3.8v7.7h-1.9v-7.2c0-1.7-0.5-2.7-4.2-2.7
	h-0.5c-4.5,0-5.5,0.8-5.5,3.5v6.4h-1.9L91.9,8.5z"/>
<path class="st0" d="M109.1,12.9c0-3.7,2.6-4.6,6.3-4.6h2.7c3.6,0,6.3,0.9,6.3,4.6v2.5c0,3.7-2.6,4.6-6.3,4.6h-2.7
	c-3.6,0-6.3-0.9-6.3-4.6V12.9z M122.4,13.1c0-2.6-1.6-3.1-3.8-3.1h-3.9c-2.2,0-3.8,0.5-3.8,3.1v2.3c0,2.6,1.6,3.1,3.8,3.1h3.9
	c2.2,0,3.8-0.5,3.8-3.1V13.1z"/>
<path class="st0" d="M127.8,3.8h1.9v16.1h-1.9L127.8,3.8z"/>
<path class="st0" d="M133.2,12.9c0-3.7,2.6-4.6,6.3-4.6h2.7c3.6,0,6.3,0.9,6.3,4.6v2.5c0,3.7-2.6,4.6-6.3,4.6h-2.7
	c-3.6,0-6.3-0.9-6.3-4.6V12.9z M146.5,13.1c0-2.6-1.6-3.1-3.8-3.1h-3.9c-2.2,0-3.8,0.5-3.8,3.1v2.3c0,2.6,1.6,3.1,3.8,3.1h3.9
	c2.2,0,3.8-0.5,3.8-3.1V13.1z"/>
<path class="st0" d="M165.6,19.8c0,3.4-3,4.1-5.4,4.1H156c-3.5,0-4.4-1.9-4.4-3.4v-0.4h1.8v0.3c0,1.5,1.5,1.9,3.3,1.9h1.9
	c3.8,0,5.3,0,5.3-3.1v-1.7l0,0c-0.4,1.1-1.2,1.8-3.9,1.8H156c-3.2,0-4.8-1.6-4.8-4.5v-1.9c0-4.1,3-4.6,5.1-4.6h4.1
	c1.4,0,2.9,0.4,3.5,2.2h0.1v-2h1.8L165.6,19.8z M163.7,13.4c0-2.1-0.7-3.5-3.4-3.5h-3.9c-2,0-3.4,0.5-3.4,2.4v2.1
	c0,2.6,0.9,3.4,3.2,3.4h3.7c2.7,0,3.7-1.1,3.7-3V13.4z"/>
<path class="st0" d="M169.9,22.5c2.9,0,3.6-0.2,4.6-2.5H174l-6.4-11.5h2.1l5.5,10l4.9-10h2.1l-6.4,12.7c-1.2,2.3-2,2.8-5.9,2.8
	L169.9,22.5z"/>
<path class="st0" d="M183.4,12.8c0-3.7,2.5-4.5,4.7-4.5h6.4c2.2,0,4.7,0.8,4.7,4.5v2.7c0,3.7-2.5,4.5-4.7,4.5h-6.4
	c-2.2,0-4.7-0.8-4.7-4.5V12.8z M187.7,14.7c0,1.6,1,2.1,2.9,2.1h1c2.8,0,3.3-0.4,3.3-1.9v-1.6c0-1.5-0.5-1.9-3.3-1.9h-1
	c-1.9,0-2.9,0.5-2.9,2.1V14.7z"/>
<path class="st0" d="M201.8,8.5h4.3v1.8l0,0c0.8-1.6,2.2-2,4.5-2c2.6,0,6.3,0.1,6.3,5v6.5h-4.3v-6.5c0-1.1-0.9-1.7-2.7-1.7h-1
	c-1.8,0-2.9,0.8-2.9,2.5v5.7h-4.3L201.8,8.5z"/>
<path class="st0" d="M219.4,13.6c0-4.3,2.1-5.2,5.2-5.2h3c4.5,0,6.4,0.9,6.4,4.9v1.9h-10.4v0.7c0,1.2,0.9,1.5,2.6,1.5h1.3
	c2.3,0,2.4-0.6,2.4-1.3h4v0.5c0,2.8-2.5,3.5-5.6,3.5h-3.2c-2.8,0-5.8-0.5-5.8-5.4L219.4,13.6z M229.9,12.6c0-1.4-0.6-1.6-3.1-1.6
	c-2.8,0-3.1,0.2-3.1,1.6H229.9z"/>
<polygon class="st1" points="13.7,26.8 2.8,23.8 0,2.5 15.1,4.5 13.7,26.8 "/>
<polygon class="st2" points="19.7,1.2 1.7,4.9 9.5,24.5 17.8,24.1 19.7,1.2 "/>
<linearGradient id="SVGID_1_" gradientUnits="userSpaceOnUse" x1="11.4678" y1="587.8236" x2="7.7178" y2="572.9936" gradientTransform="matrix(1 0 0 1 0 -565.2756)">
	<stop  offset="0.1" style="stop-color:#FEDD00"/>
	<stop  offset="0.51" style="stop-color:#FFF1BD"/>
	<stop  offset="0.97" style="stop-color:#FEDF17"/>
	<stop  offset="1" style="stop-color:#FEDD00"/>
</linearGradient>
<path class="st3" d="M6.6,10.4l-2.2-0.3V9.4l6.7-3.9l1.7-0.4l1.1,0.1v13.3c0,0-0.1,2.7,2.3,3v0.6L16,22.5L14.2,23l-10-2v-0.6
	c0,0,2.4,0,2.4-2.1L6.6,10.4z"/>
<linearGradient id="SVGID_2_" gradientUnits="userSpaceOnUse" x1="19.0219" y1="584.101" x2="9.0319" y2="574.121" gradientTransform="matrix(1 0 0 1 0 -565.2756)">
	<stop  offset="1.000000e-02" style="stop-color:#D3B03D"/>
	<stop  offset="3.000000e-02" style="stop-color:#D7B74D"/>
	<stop  offset="7.000000e-02" style="stop-color:#E3C976"/>
	<stop  offset="0.12" style="stop-color:#F5E6B7"/>
	<stop  offset="0.15" style="stop-color:#FFF7DD"/>
	<stop  offset="0.17" style="stop-color:#FCF2D1"/>
	<stop  offset="0.23" style="stop-color:#F1E0AA"/>
	<stop  offset="0.29" style="stop-color:#E8D188"/>
	<stop  offset="0.36" style="stop-color:#E0C56D"/>
	<stop  offset="0.43" style="stop-color:#DABC58"/>
	<stop  offset="0.51" style="stop-color:#D6B549"/>
	<stop  offset="0.61" style="stop-color:#D4B140"/>
	<stop  offset="0.75" style="stop-color:#D3B03D"/>
	<stop  offset="0.99" style="stop-color:#FFE56C"/>
</linearGradient>
<path class="st4" d="M16.3,21.5c0,0-2.3-0.1-2.3-3.1V5.2l-1.8,0.5v13.6c0,0-0.1,2.5,2,3L16.3,21.5z"/>
<polygon class="st5" points="14,5.2 12.3,5.6 11.1,5.5 12.8,5.1 "/>
<polygon class="st6" points="14.2,23 16.3,22.4 16.3,21.5 14.2,22.2 "/>
</svg>
