<svg xmlns="http://www.w3.org/2000/svg" width="196" height="38" viewBox="0 0 196 38"><path fill="#203565" d="M43.092 9.54h6.298l7.334 13.85 7.335-13.85h6.298l-10.083 18.638h-7.101zm31.227 11.327h7.361l-3.732-7.003-3.629 7.003zm-.103-11.327h7.49l10.315 18.639h-6.403l-1.787-3.295h-11.663l-1.685 3.295h-6.428l10.161-18.639zm18.814 0h5.753v13.85h12.932v4.788h-18.685zm20.874 0h8.838l6.506 11.995 6.503-11.995h8.837v18.638h-5.595v-13.387h-.053l-7.543 13.387h-4.301l-7.542-13.387h-.052v13.387h-5.598zm34.035 0h20.527v4.324h-14.772v2.987h13.996v3.861h-13.996v2.986h15.108v4.48h-20.863zm23.596 6.538c0-5.457 3.085-6.744 8.268-6.744h6.765c8.189 0 9.252 1.75 9.199 7.027h-5.754v-.515c0-1.339-.984-1.725-2.693-1.725h-6.272c-3.031 0-3.603 1.415-3.603 3.732v2.009c0 2.703.571 3.732 3.291 3.732h6.144c2.59 0 3.368-.257 3.368-2.575h5.752v1.751c0 3.141-1.141 5.613-6.921 5.613h-9.277c-5.183 0-8.268-1.288-8.268-6.746v-5.559z"/><path fill="#9CBED9" d="M38.127 19c0 10.494-8.535 19-19.064 19s-19.063-8.506-19.063-19c0-10.493 8.535-19 19.063-19s19.064 8.507 19.064 19"/><path fill="#203565" d="M35.414 19c0 8.999-7.32 16.296-16.351 16.296-9.03 0-16.351-7.296-16.351-16.296 0-9.001 7.321-16.297 16.351-16.297 9.031 0 16.351 7.296 16.351 16.297"/><path fill="#fff" d="M13.096 34.171c1.85.725 3.86 1.125 5.967 1.125 2.064 0 4.039-.385 5.857-1.081l6.845-24.734h-7.591l-5.16 18.643-5.159-18.643h-7.591l6.832 24.69z"/></svg>