<?xml version="1.0" encoding="UTF-8"?>
<svg viewBox="0 0 308 70" version="1.1" xmlns="http://www.w3.org/2000/svg" xmlns:xlink="http://www.w3.org/1999/xlink" class="logo-img">
    <!-- Generator: Sketch 45.1 (43504) - http://www.bohemiancoding.com/sketch -->
    <title>livetiles-logo-title-white</title>
    <desc>Created with Sketch.</desc>
    <defs></defs>
    <g id="Page-1" stroke="none" stroke-width="1" fill="none" fill-rule="evenodd">
        <g id="livetiles-logo-title-white" fill-rule="nonzero" fill="#FFFFFF">
            <g id="Group" transform="translate(94.000000, 18.000000)">
                <polygon id="Shape" points="8.2 35.6 24.4 35.6 24.4 41.8 0.7 41.8 0.7 1.3 8.2 1.3"></polygon>
                <path d="M36.8,4.8 C36.8,5.4 36.7,6 36.4,6.5 C36.1,7 35.8,7.5 35.4,7.9 C35,8.3 34.5,8.6 34,8.8 C33.5,9 32.9,9.2 32.3,9.2 C31.7,9.2 31.1,9.1 30.6,8.8 C30.1,8.6 29.6,8.3 29.2,7.9 C28.8,7.5 28.5,7.1 28.3,6.5 C28.1,6 27.9,5.4 27.9,4.8 C27.9,4.2 28,3.6 28.3,3.1 C28.5,2.6 28.8,2.1 29.2,1.7 C29.6,1.3 30.1,1 30.6,0.8 C31.1,0.6 31.7,0.4 32.3,0.4 C32.9,0.4 33.5,0.5 34,0.8 C34.5,1 35,1.3 35.4,1.7 C35.8,2.1 36.1,2.6 36.4,3.1 C36.7,3.6 36.8,4.1 36.8,4.8 Z M35.9,13.1 L35.9,41.8 L29,41.8 L29,13.1 L35.9,13.1 Z" id="Shape"></path>
                <path d="M39.8,13.1 L45.5,13.1 C46,13.1 46.5,13.2 46.8,13.5 C47.1,13.7 47.4,14.1 47.5,14.4 L53,29.7 C53.3,30.6 53.6,31.5 53.8,32.3 C54,33.2 54.2,34 54.4,34.9 C54.6,34 54.8,33.2 55,32.3 C55.2,31.4 55.5,30.6 55.8,29.7 L61.5,14.4 C61.6,14 61.9,13.7 62.2,13.5 C62.5,13.3 62.9,13.1 63.4,13.1 L68.9,13.1 L57.5,41.8 L51.2,41.8 L39.8,13.1 Z" id="Shape"></path>
                <path d="M83.7,12.7 C85.5,12.7 87.2,13 88.7,13.6 C90.2,14.2 91.5,15 92.6,16.1 C93.7,17.2 94.6,18.6 95.2,20.2 C95.8,21.8 96.1,23.7 96.1,25.7 C96.1,26.7 96,27.5 95.8,27.8 C95.6,28.2 95.1,28.3 94.5,28.3 L76.7,28.3 C76.8,29.8 77.1,31 77.5,32.1 C77.9,33.2 78.5,34.1 79.1,34.8 C79.8,35.5 80.6,36 81.5,36.4 C82.4,36.7 83.4,36.9 84.6,36.9 C85.8,36.9 86.7,36.8 87.5,36.5 C88.3,36.2 89,36 89.6,35.6 C90.2,35.3 90.7,35 91.2,34.7 C91.7,34.4 92.1,34.3 92.5,34.3 C93.1,34.3 93.5,34.5 93.8,34.9 L95.8,37.4 C95,38.3 94.2,39 93.2,39.7 C92.2,40.3 91.3,40.8 90.2,41.2 C89.1,41.6 88.1,41.8 87,42 C85.9,42.1 84.9,42.2 83.9,42.2 C81.9,42.2 80,41.9 78.3,41.2 C76.6,40.5 75.1,39.6 73.8,38.3 C72.5,37 71.5,35.4 70.8,33.5 C70.1,31.6 69.7,29.4 69.7,26.8 C69.7,24.8 70,23 70.7,21.3 C71.4,19.6 72.2,18.1 73.4,16.8 C74.6,15.5 76,14.5 77.7,13.8 C79.6,13.1 81.6,12.7 83.7,12.7 Z M83.9,17.6 C81.9,17.6 80.3,18.2 79.2,19.3 C78.1,20.4 77.3,22.1 77,24.1 L90,24.1 C90,23.2 89.9,22.4 89.6,21.6 C89.3,20.8 89,20.1 88.5,19.5 C88,18.9 87.4,18.4 86.6,18.1 C85.8,17.8 84.9,17.6 83.9,17.6 Z" id="Shape"></path>
                <polygon id="Shape" points="131.8 1.4 131.8 7.6 119.6 7.6 119.6 41.9 112 41.9 112 7.6 99.8 7.6 99.8 1.4"></polygon>
                <path d="M144.1,4.8 C144.1,5.4 144,6 143.7,6.5 C143.4,7 143.1,7.5 142.7,7.9 C142.3,8.3 141.8,8.6 141.3,8.8 C140.8,9 140.2,9.2 139.6,9.2 C139,9.2 138.4,9.1 137.9,8.8 C137.4,8.6 136.9,8.3 136.5,7.9 C136.1,7.5 135.8,7.1 135.6,6.5 C135.4,6 135.2,5.4 135.2,4.8 C135.2,4.2 135.3,3.6 135.6,3.1 C135.8,2.6 136.1,2.1 136.5,1.7 C136.9,1.3 137.4,1 137.9,0.8 C138.4,0.6 139,0.4 139.6,0.4 C140.2,0.4 140.8,0.5 141.3,0.8 C141.8,1 142.3,1.3 142.7,1.7 C143.1,2.1 143.4,2.6 143.7,3.1 C144,3.6 144.1,4.1 144.1,4.8 Z M143.2,13.1 L143.2,41.8 L136.3,41.8 L136.3,13.1 L143.2,13.1 Z" id="Shape"></path>
                <polygon id="Shape" points="157.2 0.2 157.2 41.8 150.3 41.8 150.3 0.2"></polygon>
                <path d="M176.4,12.7 C178.2,12.7 179.9,13 181.4,13.6 C182.9,14.2 184.2,15 185.3,16.1 C186.4,17.2 187.3,18.6 187.9,20.2 C188.5,21.8 188.8,23.7 188.8,25.7 C188.8,26.7 188.7,27.5 188.5,27.8 C188.3,28.2 187.8,28.3 187.2,28.3 L169.4,28.3 C169.5,29.8 169.8,31 170.2,32.1 C170.6,33.2 171.2,34.1 171.8,34.8 C172.5,35.5 173.3,36 174.2,36.4 C175.1,36.7 176.1,36.9 177.3,36.9 C178.5,36.9 179.4,36.8 180.2,36.5 C181,36.2 181.7,36 182.3,35.6 C182.9,35.3 183.4,35 183.9,34.7 C184.4,34.4 184.8,34.3 185.2,34.3 C185.8,34.3 186.2,34.5 186.5,34.9 L188.5,37.4 C187.7,38.3 186.9,39 185.9,39.7 C184.9,40.3 184,40.8 182.9,41.2 C181.8,41.6 180.8,41.8 179.7,42 C178.6,42.1 177.6,42.2 176.6,42.2 C174.6,42.2 172.7,41.9 171,41.2 C169.3,40.5 167.8,39.6 166.5,38.3 C165.2,37 164.2,35.4 163.5,33.5 C162.8,31.6 162.4,29.4 162.4,26.8 C162.4,24.8 162.7,23 163.4,21.3 C164.1,19.6 164.9,18.1 166.1,16.8 C167.3,15.5 168.7,14.5 170.4,13.8 C172.3,13.1 174.2,12.7 176.4,12.7 Z M176.5,17.6 C174.5,17.6 172.9,18.2 171.8,19.3 C170.7,20.4 169.9,22.1 169.6,24.1 L182.6,24.1 C182.6,23.2 182.5,22.4 182.2,21.6 C181.9,20.8 181.6,20.1 181.1,19.5 C180.6,18.9 180,18.4 179.2,18.1 C178.4,17.8 177.5,17.6 176.5,17.6 Z" id="Shape"></path>
                <path d="M211.6,18.7 C211.4,19 211.2,19.2 211,19.3 C210.8,19.4 210.5,19.5 210.2,19.5 C209.9,19.5 209.5,19.4 209.1,19.2 C208.7,19 208.3,18.8 207.8,18.6 C207.3,18.4 206.7,18.2 206.1,18 C205.5,17.8 204.7,17.7 203.8,17.7 C202.4,17.7 201.4,18 200.6,18.6 C199.8,19.2 199.4,19.9 199.4,20.9 C199.4,21.5 199.6,22 200,22.5 C200.4,22.9 200.9,23.3 201.6,23.6 C202.3,23.9 203,24.2 203.9,24.5 C204.8,24.8 205.6,25 206.5,25.3 C207.4,25.6 208.2,25.9 209.1,26.3 C210,26.7 210.7,27.2 211.4,27.8 C212.1,28.4 212.6,29.1 213,29.9 C213.4,30.7 213.6,31.7 213.6,32.9 C213.6,34.3 213.4,35.6 212.9,36.7 C212.4,37.9 211.7,38.9 210.7,39.7 C209.7,40.5 208.5,41.2 207.1,41.7 C205.7,42.2 204,42.4 202.2,42.4 C201.2,42.4 200.2,42.3 199.3,42.1 C198.4,41.9 197.5,41.7 196.6,41.4 C195.7,41.1 194.9,40.7 194.2,40.3 C193.5,39.9 192.8,39.4 192.3,38.9 L193.9,36.3 C194.1,36 194.3,35.7 194.6,35.6 C194.9,35.5 195.2,35.3 195.7,35.3 C196.1,35.3 196.5,35.4 196.9,35.7 C197.3,35.9 197.7,36.2 198.2,36.5 C198.7,36.8 199.3,37 200,37.3 C200.7,37.6 201.5,37.7 202.6,37.7 C203.4,37.7 204.1,37.6 204.7,37.4 C205.3,37.2 205.8,36.9 206.2,36.6 C206.6,36.3 206.9,35.9 207,35.5 C207.1,35.1 207.3,34.6 207.3,34.2 C207.3,33.5 207.1,33 206.7,32.5 C206.3,32.1 205.8,31.7 205.1,31.4 C204.4,31.1 203.7,30.8 202.8,30.5 C201.9,30.2 201.1,30 200.2,29.7 C199.3,29.4 198.4,29.1 197.6,28.7 C196.8,28.3 196,27.8 195.3,27.2 C194.6,26.6 194.1,25.8 193.7,24.9 C193.3,24 193.1,22.9 193.1,21.7 C193.1,20.5 193.3,19.4 193.8,18.3 C194.3,17.2 195,16.3 195.9,15.5 C196.8,14.7 197.9,14.1 199.3,13.6 C200.7,13.1 202.2,12.9 204,12.9 C206,12.9 207.8,13.2 209.4,13.9 C211,14.6 212.4,15.4 213.5,16.5 L211.6,18.7 Z" id="Shape"></path>
            </g>
            <g id="Group">
                <polygon id="Shape" points="48.8 31 74.3 16.9 65.6 0.1 10.1 7.8"></polygon>
                <polygon id="Shape" points="12.9 52.2 28.4 44.7 40.7 29.6 7.4 9.7 0.3 58.4"></polygon>
                <polygon id="Shape" points="47.3 49.3 28.8 47.8 2.9 60.4 47.3 69.6"></polygon>
                <polygon id="Shape" points="50.3 33.6 50.3 69.3 67.8 50 74.6 20.2"></polygon>
            </g>
        </g>
    </g>
</svg>