<svg xmlns="http://www.w3.org/2000/svg" width="234" height="46" viewBox="0 0 234 46">
    <g fill="#1B3E93" fill-rule="evenodd">
        <path d="M36.83 12.652c-3.186-2.155-6.94-3.232-11.262-3.232-5.356 0-9.679 1.789-12.966 5.366-3.003 3.13-4.505 6.982-4.505 11.555 0 4.146 1.106 7.328 3.318 9.543 1.035 1.036 2.273 1.804 3.713 2.302 1.441.498 3.084.747 4.931.747 1.157 0 2.232-.077 3.227-.23.993-.151 1.896-.4 2.708-.746L29.1 23.963h7.61L32.842 41.83c-4.404 2.358-9.203 3.536-14.397 3.536-5.722 0-10.227-1.616-13.514-4.847-3.226-3.293-4.87-7.642-4.93-13.05-.062-6.422 2.16-11.98 6.665-16.676C9.102 8.23 11.872 6.33 14.976 5.09c3.105-1.24 6.585-1.86 10.44-1.86 5.154 0 9.456.935 12.906 2.805l-1.492 6.616zM60.1 24.328c0-2.744-1.482-4.115-4.444-4.115-.852 0-1.664.167-2.435.502a7.337 7.337 0 0 0-2.1 1.388 8.818 8.818 0 0 0-1.629 2.088 9.225 9.225 0 0 0-.989 2.576l11.11-.121c.324-.793.487-1.566.487-2.318m7.03.123c0 2.073-.477 4.573-1.43 7.5l-18.263.244c-.223 2.48.386 4.359 1.827 5.64 1.177 1.117 2.689 1.676 4.536 1.676 2.393 0 5.173-.751 8.339-2.255l1.765 4.878c-2.03 1.097-4.028 1.91-5.996 2.439a22.697 22.697 0 0 1-5.904.793c-3.735 0-6.687-1.18-8.858-3.537-2.05-2.297-3.074-5.275-3.074-8.933 0-2.622.385-4.995 1.157-7.12.77-2.123 1.948-4.079 3.53-5.868 3.105-3.537 7.011-5.305 11.719-5.305 1.724 0 3.251.234 4.58.701 1.33.468 2.44 1.128 3.333 1.981.893.855 1.572 1.89 2.04 3.11.466 1.22.7 2.572.7 4.056M98.923 21.828c0 .713-.066 1.56-.198 2.546-.132.986-.34 2.12-.624 3.4l-3.744 17.043H86.84l3.773-17.348c.163-.712.29-1.377.38-1.997.092-.62.118-1.184.077-1.692-.061-1.788-.934-2.683-2.618-2.683-1.765 0-3.47.834-5.113 2.5-2.313 2.216-3.937 5.61-4.87 10.183l-2.374 11.037H68.7l6.422-29.543h5.722l-.426 5.823h.061c3.105-4.33 6.838-6.494 11.201-6.494 4.768 0 7.183 2.408 7.244 7.225M122.435 20.914h-6.97l-3.135 14.36a7.45 7.45 0 0 0-.182 1.615c0 1.505.77 2.257 2.313 2.257 1.34 0 3.002-.569 4.992-1.708l1.674 5c-3.39 1.952-6.818 2.928-10.288 2.928-.994 0-1.892-.143-2.694-.427-.801-.285-1.481-.69-2.04-1.22a5.367 5.367 0 0 1-1.292-1.936c-.305-.763-.457-1.62-.457-2.576 0-.955.122-2.002.365-3.14l3.379-15.153h-5.175l1.249-5.64h5.113l1.43-6.616 7.67-1.86-1.947 8.476h8.308l-2.313 5.64zM144.519 22.53a5.747 5.747 0 0 0-3.075-.884c-3.632 0-6.35 4.228-8.157 12.683l-2.252 10.488h-7.396l6.422-29.543h5.722l-.426 5.823h.06c1.116-2.155 2.172-3.699 3.167-4.634 1.298-1.24 2.86-1.86 4.687-1.86 1.806 0 3.357.498 4.656 1.494l-3.408 6.433zM161.396 31.066c-3.186 0-5.605.463-7.259 1.388-1.654.924-2.48 2.15-2.48 3.674 0 1.036.314 1.86.943 2.47.629.61 1.46.913 2.496.913 1.46 0 2.972-.629 4.535-1.89 1.602-1.28 2.667-2.855 3.196-4.725.06-.081.182-.691.365-1.83h-1.796zm10.41-7.347c0 .712-.082 1.575-.244 2.591a47.819 47.819 0 0 1-.7 3.445l-.883 3.629a34.9 34.9 0 0 0-.745 3.887 27.045 27.045 0 0 0-.229 3.43c0 .528.016 1.067.046 1.615.03.55.096 1.088.198 1.617l-6.118 1.31c-.609-1.686-.943-3.282-1.004-4.786-.914 1.26-2.161 2.358-3.744 3.293-1.867 1.076-3.714 1.616-5.54 1.616-1.258 0-2.394-.189-3.409-.565-1.015-.376-1.871-.91-2.572-1.6a6.988 6.988 0 0 1-1.613-2.5c-.375-.976-.563-2.063-.563-3.263 0-7.459 5.459-11.28 16.376-11.463l3.135-.091c.121-.489.182-.986.182-1.494 0-2.785-1.704-4.177-5.114-4.177-2.455 0-5.346.712-8.674 2.134l-.913-5.366c3.733-1.586 7.446-2.378 11.14-2.378 7.325 0 10.988 3.038 10.988 9.116zM200.159 22.347a14.878 14.878 0 0 0-3.287-1.357 13.51 13.51 0 0 0-3.623-.473c-2.82 0-5.185 1.007-7.092 3.019-2.049 2.093-3.074 4.777-3.074 8.05 0 1.198.157 2.281.472 3.245.314.967.766 1.784 1.355 2.455a5.991 5.991 0 0 0 2.145 1.555c.842.366 1.8.549 2.877.549 2.597 0 5.032-.712 7.304-2.134l1.674 4.939c-3.145 2.114-6.817 3.17-11.017 3.17-1.908 0-3.607-.294-5.099-.884a10.193 10.193 0 0 1-3.88-2.713c-2.172-2.419-3.257-5.61-3.257-9.573 0-2.399.395-4.624 1.186-6.677.792-2.054 1.979-3.903 3.562-5.55 3.45-3.576 7.872-5.365 13.27-5.365 2.882 0 5.52.538 7.914 1.616l-1.43 6.128zM218.467 28.841l9.922 15.976h-8.4l-7.944-13.69h-.061l-2.86 13.69h-7.275L211.315.609h7.426l-5.448 24.97h.06l11.354-10.306h8.796z"/>
    </g>
</svg>
