<?xml version="1.0" encoding="utf-8"?>
<!-- Generator: Adobe Illustrator 19.2.0, SVG Export Plug-In . SVG Version: 6.00 Build 0)  -->
<svg version="1.1" id="Layer_1" xmlns="http://www.w3.org/2000/svg" xmlns:xlink="http://www.w3.org/1999/xlink" x="0px" y="0px"
	 viewBox="0 0 301.4 132.5" style="enable-background:new 0 0 301.4 132.5;" xml:space="preserve">
<style type="text/css">
	.st0{fill:#00A8E1;}
	.st1{fill:#FF8300;}
</style>
<g>
	<path class="st0" d="M164.8,82.6c-8.8,0-16-7.1-16-16c0-8.8,7.1-16,16-16c4.4,0,8.4,1.8,11.3,4.7l7.5-7.5
		c-4.8-4.8-11.4-7.8-18.8-7.8c-14.6,0-26.5,11.9-26.5,26.5s11.9,26.5,26.5,26.5c7.3,0,13.9-3,18.7-7.8l-7.5-7.5
		C173.2,80.8,169.2,82.6,164.8,82.6"/>
	<polyline class="st0" points="224.8,92.3 224.8,43.9 234.9,38.8 234.9,92.3 224.8,92.3 	"/>
	<path class="st1" d="M245.9,50.6c-3.2,0-5.8-2.6-5.8-5.8c0-3.2,2.6-5.8,5.8-5.8c3.2,0,5.8,2.6,5.8,5.8
		C251.7,48,249.1,50.6,245.9,50.6"/>
	<rect x="240.9" y="53.8" class="st0" width="10.1" height="38.6"/>
	<polyline class="st0" points="293.6,53.8 281.6,53.8 274.2,64.4 266.8,53.8 254.7,53.8 268.2,73.1 254.7,92.3 266.8,92.3 
		274.2,81.7 281.6,92.3 293.6,92.3 280.2,73.1 293.6,53.8 	"/>
	<path class="st0" d="M208.7,92.3v-2.6c-1.8,1.9-5.1,3.4-8.7,3.4c-7.2,0-14.4-4.4-14.4-13.7c0-8.5,6.9-12.8,15.6-12.8
		c3.5,0,5.8,0.7,7.4,1.5v-1.9c0-2.7-1.8-4.9-5.5-4.9c-4.6,0-7.1,0.7-10.6,2.6l-3.9-7.1c4.5-2.6,8.2-3.9,14.5-3.9
		c9.3,0,15.6,4.8,15.6,13.5v25.9H208.7 M208.7,76.2c-1.8-1.1-3.5-1.6-7.1-1.6c-3.8,0-5.9,1.8-5.9,4.8c0,2.7,1.5,5.1,5.9,5.1
		c3.3,0,5.9-1.7,7.1-3.5V76.2z"/>
	<path class="st1" d="M90.9,21.5c0,1.5-1.2,2.7-2.7,2.7c-1.5,0-2.7-1.2-2.7-2.7c0-1.5,1.2-2.7,2.7-2.7C89.7,18.8,90.9,20,90.9,21.5"
		/>
	<path class="st1" d="M59.1,44.1c0,2.6-2.1,4.8-4.8,4.8s-4.8-2.1-4.8-4.8c0-2.6,2.1-4.8,4.8-4.8S59.1,41.4,59.1,44.1"/>
	<path class="st1" d="M36.4,66.6c0,2.6-2.1,4.7-4.7,4.7c-2.6,0-4.7-2.1-4.7-4.7c0-2.6,2.1-4.7,4.7-4.7C34.3,61.9,36.4,64,36.4,66.6"
		/>
	<path class="st1" d="M78.8,66.6c0,1-0.8,1.9-1.9,1.9c-1,0-1.9-0.8-1.9-1.9c0-1,0.8-1.9,1.9-1.9C77.9,64.7,78.8,65.6,78.8,66.6"/>
	<path class="st1" d="M70.3,100.5c0,2.6-2.1,4.7-4.7,4.7s-4.7-2.1-4.7-4.7c0-2.6,2.1-4.7,4.7-4.7S70.3,97.9,70.3,100.5"/>
	<path class="st0" d="M56.2,10.2c0,1-0.8,1.9-1.9,1.9c-1,0-1.9-0.8-1.9-1.9c0-1,0.8-1.9,1.9-1.9C55.4,8.3,56.2,9.2,56.2,10.2"/>
	<path class="st0" d="M67.5,10.2c0,1-0.8,1.9-1.9,1.9c-1,0-1.9-0.8-1.9-1.9c0-1,0.8-1.9,1.9-1.9C66.6,8.3,67.5,9.2,67.5,10.2"/>
	<path class="st0" d="M78.8,10.2c0,1-0.8,1.9-1.9,1.9c-1,0-1.9-0.8-1.9-1.9c0-1,0.8-1.9,1.9-1.9C77.9,8.3,78.8,9.2,78.8,10.2"/>
	<path class="st0" d="M33.6,21.5c0,1-0.8,1.9-1.9,1.9c-1,0-1.9-0.8-1.9-1.9c0-1,0.8-1.9,1.9-1.9C32.8,19.6,33.6,20.4,33.6,21.5"/>
	<path class="st0" d="M45.8,21.5c0,1.5-1.2,2.7-2.7,2.7c-1.5,0-2.7-1.2-2.7-2.7c0-1.5,1.2-2.7,2.7-2.7C44.5,18.8,45.8,20,45.8,21.5"
		/>
	<path class="st0" d="M58,21.5c0,2.1-1.7,3.7-3.7,3.7s-3.7-1.7-3.7-3.7c0-2.1,1.7-3.7,3.7-3.7S58,19.4,58,21.5"/>
	<path class="st0" d="M69.8,21.5c0,2.3-1.9,4.2-4.2,4.2s-4.2-1.9-4.2-4.2c0-2.3,1.9-4.2,4.2-4.2S69.8,19.2,69.8,21.5"/>
	<path class="st0" d="M80.6,21.5c0,2.1-1.7,3.7-3.7,3.7c-2,0-3.7-1.7-3.7-3.7c0-2.1,1.7-3.7,3.7-3.7C78.9,17.8,80.6,19.4,80.6,21.5"
		/>
	<path class="st0" d="M101.9,21.5c0,1.3-1.1,2.4-2.4,2.4c-1.3,0-2.4-1.1-2.4-2.4c0-1.3,1.1-2.4,2.4-2.4
		C100.8,19.1,101.9,20.1,101.9,21.5"/>
	<path class="st0" d="M22.4,32.8c0,1-0.8,1.9-1.9,1.9c-1,0-1.9-0.8-1.9-1.9c0-1,0.8-1.9,1.9-1.9C21.5,30.9,22.4,31.7,22.4,32.8"/>
	<path class="st0" d="M34.4,32.8c0,1.5-1.2,2.7-2.7,2.7c-1.5,0-2.7-1.2-2.7-2.7c0-1.5,1.2-2.7,2.7-2.7
		C33.2,30.1,34.4,31.3,34.4,32.8"/>
	<path class="st0" d="M47.2,32.8c0,2.3-1.9,4.1-4.1,4.1c-2.3,0-4.1-1.8-4.1-4.1c0-2.3,1.8-4.1,4.1-4.1
		C45.3,28.6,47.2,30.5,47.2,32.8"/>
	<path class="st0" d="M59,32.8c0,2.6-2.1,4.7-4.7,4.7s-4.7-2.1-4.7-4.7c0-2.6,2.1-4.7,4.7-4.7S59,30.2,59,32.8"/>
	<path class="st0" d="M70.3,32.8c0,2.6-2.1,4.7-4.7,4.7s-4.7-2.1-4.7-4.7c0-2.6,2.1-4.7,4.7-4.7S70.3,30.2,70.3,32.8"/>
	<path class="st0" d="M81.6,32.8c0,2.6-2.1,4.7-4.7,4.7s-4.7-2.1-4.7-4.7c0-2.6,2.1-4.7,4.7-4.7S81.6,30.2,81.6,32.8"/>
	<path class="st0" d="M92.7,32.8c0,2.5-2,4.6-4.6,4.6c-2.5,0-4.6-2-4.6-4.6c0-2.5,2.1-4.6,4.6-4.6C90.7,28.2,92.7,30.2,92.7,32.8"/>
	<path class="st0" d="M103.3,32.8c0,2.1-1.7,3.8-3.8,3.8c-2.1,0-3.8-1.7-3.8-3.8c0-2.1,1.7-3.8,3.8-3.8
		C101.6,28.9,103.3,30.7,103.3,32.8"/>
	<path class="st0" d="M113.4,32.8c0,1.5-1.2,2.7-2.7,2.7c-1.5,0-2.7-1.2-2.7-2.7c0-1.5,1.2-2.7,2.7-2.7
		C112.2,30.1,113.4,31.3,113.4,32.8"/>
	<path class="st0" d="M23.8,44.1c0,1.8-1.5,3.3-3.3,3.3c-1.8,0-3.3-1.5-3.3-3.3c0-1.8,1.5-3.3,3.3-3.3
		C22.3,40.7,23.8,42.2,23.8,44.1"/>
	<path class="st0" d="M35.9,44.1c0,2.3-1.8,4.1-4.1,4.1c-2.3,0-4.1-1.8-4.1-4.1c0-2.3,1.8-4.1,4.1-4.1C34,40,35.9,41.8,35.9,44.1"/>
	<path class="st0" d="M47.5,44.1c0,2.5-2,4.5-4.5,4.5c-2.5,0-4.5-2-4.5-4.5c0-2.5,2-4.5,4.5-4.5C45.5,39.6,47.5,41.6,47.5,44.1"/>
	<path class="st0" d="M68.9,44.1c0,1.8-1.5,3.3-3.3,3.3c-1.8,0-3.3-1.5-3.3-3.3c0-1.8,1.5-3.3,3.3-3.3
		C67.4,40.7,68.9,42.2,68.9,44.1"/>
	<path class="st0" d="M81,44.1c0,2.3-1.8,4.1-4.1,4.1c-2.3,0-4.1-1.8-4.1-4.1c0-2.3,1.8-4.1,4.1-4.1C79.2,39.9,81,41.8,81,44.1"/>
	<path class="st0" d="M91.5,44.1c0,1.8-1.5,3.3-3.3,3.3c-1.8,0-3.3-1.5-3.3-3.3c0-1.8,1.5-3.3,3.3-3.3C90,40.7,91.5,42.2,91.5,44.1"
		/>
	<path class="st0" d="M103.3,44.1c0,2.1-1.7,3.8-3.8,3.8c-2.1,0-3.8-1.7-3.8-3.8s1.7-3.8,3.8-3.8C101.6,40.2,103.3,41.9,103.3,44.1"
		/>
	<path class="st0" d="M113.7,44.1c0,1.7-1.3,3-3,3c-1.7,0-3-1.3-3-3c0-1.7,1.3-3,3-3C112.4,41.1,113.7,42.4,113.7,44.1"/>
	<path class="st0" d="M11.1,55.3c0,1-0.8,1.9-1.9,1.9c-1,0-1.9-0.8-1.9-1.9c0-1,0.8-1.9,1.9-1.9C10.2,53.5,11.1,54.3,11.1,55.3"/>
	<path class="st0" d="M24.2,55.3c0,2.1-1.7,3.7-3.7,3.7c-2.1,0-3.7-1.7-3.7-3.7c0-2,1.7-3.7,3.7-3.7C22.5,51.6,24.2,53.3,24.2,55.3"
		/>
	<path class="st0" d="M36.3,55.3c0,2.5-2,4.6-4.6,4.6c-2.5,0-4.6-2-4.6-4.6c0-2.5,2-4.6,4.6-4.6C34.3,50.8,36.3,52.8,36.3,55.3"/>
	<path class="st0" d="M48.5,55.3c0,3-2.4,5.4-5.4,5.4c-3,0-5.4-2.4-5.4-5.4c0-3,2.4-5.4,5.4-5.4C46,49.9,48.5,52.3,48.5,55.3"/>
	<path class="st0" d="M58.1,55.3c0,2.1-1.7,3.8-3.8,3.8c-2.1,0-3.8-1.7-3.8-3.8c0-2.1,1.7-3.8,3.8-3.8
		C56.4,51.5,58.1,53.2,58.1,55.3"/>
	<path class="st0" d="M68,55.3c0,1.4-1.1,2.4-2.4,2.4c-1.4,0-2.4-1.1-2.4-2.4c0-1.3,1.1-2.4,2.4-2.4C67,52.9,68,54,68,55.3"/>
	<path class="st0" d="M79,55.3c0,1.2-0.9,2.1-2.1,2.1c-1.2,0-2.1-0.9-2.1-2.1c0-1.2,0.9-2.1,2.1-2.1C78,53.2,79,54.2,79,55.3"/>
	<path class="st0" d="M90.3,55.3c0,1.2-0.9,2.1-2.1,2.1c-1.2,0-2.1-0.9-2.1-2.1c0-1.2,0.9-2.1,2.1-2.1
		C89.3,53.2,90.3,54.2,90.3,55.3"/>
	<path class="st0" d="M101.2,55.3c0,0.9-0.8,1.7-1.7,1.7c-0.9,0-1.7-0.8-1.7-1.7c0-0.9,0.8-1.7,1.7-1.7
		C100.4,53.6,101.2,54.4,101.2,55.3"/>
	<path class="st0" d="M112.4,55.3c0,0.9-0.8,1.7-1.7,1.7c-0.9,0-1.7-0.8-1.7-1.7c0-0.9,0.8-1.7,1.7-1.7
		C111.7,53.6,112.4,54.4,112.4,55.3"/>
	<path class="st0" d="M123.3,55.3c0,0.7-0.6,1.3-1.3,1.3c-0.7,0-1.3-0.6-1.3-1.3c0-0.7,0.6-1.3,1.3-1.3
		C122.7,54,123.3,54.6,123.3,55.3"/>
	<path class="st0" d="M11.1,66.6c0,1-0.8,1.9-1.9,1.9c-1,0-1.9-0.8-1.9-1.9c0-1,0.8-1.9,1.9-1.9C10.2,64.7,11.1,65.6,11.1,66.6"/>
	<path class="st0" d="M23.5,66.6c0,1.7-1.3,3-3,3c-1.7,0-3-1.3-3-3c0-1.7,1.3-3,3-3C22.1,63.6,23.5,65,23.5,66.6"/>
	<path class="st0" d="M46.9,66.6c0,2.1-1.7,3.9-3.9,3.9c-2.1,0-3.9-1.7-3.9-3.9c0-2.1,1.7-3.9,3.9-3.9
		C45.2,62.8,46.9,64.5,46.9,66.6"/>
	<path class="st0" d="M56.8,66.6c0,1.3-1.1,2.4-2.4,2.4c-1.4,0-2.4-1.1-2.4-2.4c0-1.4,1.1-2.4,2.4-2.4
		C55.7,64.2,56.8,65.3,56.8,66.6"/>
	<path class="st0" d="M67.8,66.6c0,1.2-1,2.2-2.2,2.2c-1.2,0-2.2-1-2.2-2.2c0-1.2,1-2.2,2.2-2.2C66.8,64.4,67.8,65.4,67.8,66.6"/>
	<path class="st0" d="M90.3,66.6c0,1.2-0.9,2.1-2.1,2.1c-1.2,0-2.1-0.9-2.1-2.1c0-1.2,0.9-2.1,2.1-2.1
		C89.3,64.5,90.3,65.5,90.3,66.6"/>
	<path class="st0" d="M101.2,66.6c0,0.9-0.8,1.7-1.7,1.7c-0.9,0-1.7-0.8-1.7-1.7c0-0.9,0.8-1.7,1.7-1.7
		C100.4,64.9,101.2,65.7,101.2,66.6"/>
	<path class="st0" d="M112.4,66.6c0,0.9-0.8,1.7-1.7,1.7c-0.9,0-1.7-0.8-1.7-1.7c0-0.9,0.8-1.7,1.7-1.7
		C111.7,64.9,112.4,65.7,112.4,66.6"/>
	<path class="st0" d="M123.3,66.6c0,0.7-0.6,1.3-1.3,1.3c-0.7,0-1.3-0.6-1.3-1.3c0-0.7,0.6-1.3,1.3-1.3
		C122.7,65.3,123.3,65.9,123.3,66.6"/>
	<path class="st0" d="M11.1,77.9c0,1-0.8,1.9-1.9,1.9c-1,0-1.9-0.8-1.9-1.9c0-1,0.8-1.9,1.9-1.9C10.2,76,11.1,76.9,11.1,77.9"/>
	<path class="st0" d="M24.2,77.9c0,2.1-1.7,3.7-3.7,3.7c-2.1,0-3.7-1.7-3.7-3.7c0-2,1.7-3.7,3.7-3.7C22.5,74.2,24.2,75.8,24.2,77.9"
		/>
	<path class="st0" d="M36.8,77.9c0,2.8-2.3,5-5,5c-2.8,0-5-2.3-5-5c0-2.8,2.3-5,5-5C34.5,72.9,36.8,75.1,36.8,77.9"/>
	<path class="st0" d="M48.5,77.9c0,3-2.4,5.4-5.4,5.4c-3,0-5.4-2.4-5.4-5.4c0-3,2.4-5.4,5.4-5.4C46,72.5,48.5,74.9,48.5,77.9"/>
	<path class="st0" d="M58.1,77.9c0,2.1-1.7,3.8-3.8,3.8c-2.1,0-3.8-1.7-3.8-3.8c0-2.1,1.7-3.8,3.8-3.8
		C56.4,74.1,58.1,75.8,58.1,77.9"/>
	<path class="st0" d="M68,77.9c0,1.4-1.1,2.4-2.4,2.4c-1.4,0-2.4-1.1-2.4-2.4c0-1.3,1.1-2.4,2.4-2.4C67,75.5,68,76.6,68,77.9"/>
	<path class="st0" d="M79,77.9c0,1.2-0.9,2.1-2.1,2.1c-1.2,0-2.1-0.9-2.1-2.1c0-1.2,0.9-2.1,2.1-2.1C78,75.8,79,76.7,79,77.9"/>
	<path class="st0" d="M90.3,77.9c0,1.2-0.9,2.1-2.1,2.1c-1.2,0-2.1-0.9-2.1-2.1c0-1.2,0.9-2.1,2.1-2.1
		C89.3,75.8,90.3,76.7,90.3,77.9"/>
	<path class="st0" d="M101.2,77.9c0,0.9-0.8,1.7-1.7,1.7c-0.9,0-1.7-0.8-1.7-1.7c0-0.9,0.8-1.7,1.7-1.7
		C100.4,76.2,101.2,77,101.2,77.9"/>
	<path class="st0" d="M112.4,77.9c0,0.9-0.8,1.7-1.7,1.7c-0.9,0-1.7-0.8-1.7-1.7c0-0.9,0.8-1.7,1.7-1.7
		C111.7,76.2,112.4,77,112.4,77.9"/>
	<path class="st0" d="M123.3,77.9c0,0.7-0.6,1.3-1.3,1.3c-0.7,0-1.3-0.6-1.3-1.3c0-0.7,0.6-1.3,1.3-1.3
		C122.7,76.6,123.3,77.2,123.3,77.9"/>
	<path class="st0" d="M23.8,89.2c0,1.9-1.5,3.3-3.3,3.3c-1.8,0-3.3-1.5-3.3-3.3c0-1.8,1.5-3.3,3.3-3.3
		C22.3,85.8,23.8,87.3,23.8,89.2"/>
	<path class="st0" d="M35.9,89.2c0,2.3-1.8,4.1-4.1,4.1c-2.3,0-4.1-1.8-4.1-4.1c0-2.3,1.8-4.1,4.1-4.1C34,85.1,35.9,86.9,35.9,89.2"
		/>
	<path class="st0" d="M47.5,89.2c0,2.5-2,4.5-4.5,4.5c-2.5,0-4.5-2-4.5-4.5c0-2.5,2-4.5,4.5-4.5C45.5,84.7,47.5,86.7,47.5,89.2"/>
	<path class="st0" d="M59.1,89.2c0,2.6-2.1,4.8-4.8,4.8s-4.8-2.1-4.8-4.8c0-2.6,2.1-4.8,4.8-4.8S59.1,86.6,59.1,89.2"/>
	<path class="st0" d="M68.9,89.2c0,1.8-1.5,3.3-3.3,3.3c-1.8,0-3.3-1.5-3.3-3.3c0-1.8,1.5-3.3,3.3-3.3
		C67.4,85.8,68.9,87.3,68.9,89.2"/>
	<path class="st0" d="M81,89.2c0,2.3-1.8,4.1-4.1,4.1c-2.3,0-4.1-1.8-4.1-4.1c0-2.3,1.8-4.1,4.1-4.1C79.2,85.1,81,86.9,81,89.2"/>
	<path class="st0" d="M91.5,89.2c0,1.8-1.5,3.3-3.3,3.3c-1.8,0-3.3-1.5-3.3-3.3c0-1.8,1.5-3.3,3.3-3.3C90,85.8,91.5,87.3,91.5,89.2"
		/>
	<path class="st0" d="M103.3,89.2c0,2.1-1.7,3.8-3.8,3.8c-2.1,0-3.8-1.7-3.8-3.8c0-2.1,1.7-3.8,3.8-3.8
		C101.6,85.4,103.3,87.1,103.3,89.2"/>
	<path class="st0" d="M113.7,89.2c0,1.7-1.3,3-3,3c-1.7,0-3-1.3-3-3c0-1.6,1.3-3,3-3C112.4,86.2,113.7,87.5,113.7,89.2"/>
	<path class="st0" d="M22.4,100.5c0,1-0.8,1.9-1.9,1.9c-1,0-1.9-0.8-1.9-1.9c0-1,0.8-1.9,1.9-1.9C21.5,98.6,22.4,99.4,22.4,100.5"/>
	<path class="st0" d="M34.2,100.5c0,1.3-1.1,2.4-2.4,2.4c-1.3,0-2.4-1.1-2.4-2.4c0-1.3,1.1-2.4,2.4-2.4
		C33.1,98,34.2,99.1,34.2,100.5"/>
	<path class="st0" d="M47.2,100.5c0,2.3-1.9,4.1-4.1,4.1c-2.3,0-4.1-1.8-4.1-4.1c0-2.3,1.8-4.1,4.1-4.1
		C45.3,96.3,47.2,98.2,47.2,100.5"/>
	<path class="st0" d="M59,100.5c0,2.6-2.1,4.7-4.7,4.7s-4.7-2.1-4.7-4.7c0-2.6,2.1-4.7,4.7-4.7S59,97.9,59,100.5"/>
	<path class="st0" d="M81.6,100.5c0,2.6-2.1,4.7-4.7,4.7s-4.7-2.1-4.7-4.7c0-2.6,2.1-4.7,4.7-4.7S81.6,97.9,81.6,100.5"/>
	<path class="st0" d="M92.7,100.5c0,2.5-2,4.6-4.6,4.6c-2.5,0-4.6-2-4.6-4.6c0-2.5,2.1-4.6,4.6-4.6C90.7,95.9,92.7,97.9,92.7,100.5"
		/>
	<path class="st0" d="M103.3,100.5c0,2.1-1.7,3.8-3.8,3.8c-2.1,0-3.8-1.7-3.8-3.8c0-2.1,1.7-3.8,3.8-3.8
		C101.6,96.6,103.3,98.3,103.3,100.5"/>
	<path class="st0" d="M113.4,100.5c0,1.5-1.2,2.7-2.7,2.7c-1.5,0-2.7-1.2-2.7-2.7c0-1.5,1.2-2.7,2.7-2.7
		C112.2,97.8,113.4,99,113.4,100.5"/>
	<path class="st0" d="M33.6,111.7c0,1-0.8,1.9-1.9,1.9c-1,0-1.9-0.8-1.9-1.9c0-1,0.8-1.9,1.9-1.9C32.8,109.9,33.6,110.7,33.6,111.7"
		/>
	<path class="st0" d="M45.8,111.7c0,1.5-1.2,2.7-2.7,2.7c-1.5,0-2.7-1.2-2.7-2.7c0-1.5,1.2-2.7,2.7-2.7
		C44.5,109,45.8,110.2,45.8,111.7"/>
	<path class="st0" d="M58,111.7c0,2.1-1.7,3.7-3.7,3.7s-3.7-1.7-3.7-3.7c0-2.1,1.7-3.7,3.7-3.7S58,109.7,58,111.7"/>
	<path class="st0" d="M69.8,111.7c0,2.3-1.9,4.2-4.2,4.2s-4.2-1.9-4.2-4.2c0-2.3,1.9-4.2,4.2-4.2S69.8,109.4,69.8,111.7"/>
	<path class="st0" d="M80.6,111.7c0,2.1-1.7,3.7-3.7,3.7c-2,0-3.7-1.7-3.7-3.7c0-2.1,1.7-3.7,3.7-3.7
		C78.9,108,80.6,109.7,80.6,111.7"/>
	<path class="st0" d="M90.9,111.7c0,1.5-1.2,2.7-2.7,2.7c-1.5,0-2.7-1.2-2.7-2.7c0-1.5,1.2-2.7,2.7-2.7
		C89.7,109,90.9,110.2,90.9,111.7"/>
	<path class="st0" d="M101.9,111.7c0,1.3-1.1,2.4-2.4,2.4c-1.3,0-2.4-1.1-2.4-2.4c0-1.3,1.1-2.4,2.4-2.4
		C100.8,109.3,101.9,110.4,101.9,111.7"/>
	<path class="st0" d="M56.2,123c0,1-0.8,1.9-1.9,1.9c-1,0-1.9-0.8-1.9-1.9c0-1,0.8-1.9,1.9-1.9C55.4,121.1,56.2,122,56.2,123"/>
	<path class="st0" d="M67.5,123c0,1-0.8,1.9-1.9,1.9c-1,0-1.9-0.8-1.9-1.9c0-1,0.8-1.9,1.9-1.9C66.6,121.1,67.5,122,67.5,123"/>
	<path class="st0" d="M78.8,123c0,1-0.8,1.9-1.9,1.9c-1,0-1.9-0.8-1.9-1.9c0-1,0.8-1.9,1.9-1.9C77.9,121.1,78.8,122,78.8,123"/>
</g>
</svg>
