<?xml version="1.0" encoding="UTF-8"?>
<svg width="477px" height="64px" viewBox="0 0 477 64" version="1.1" xmlns="http://www.w3.org/2000/svg" xmlns:xlink="http://www.w3.org/1999/xlink">
    <!-- Generator: Sketch 44.1 (41455) - http://www.bohemiancoding.com/sketch -->
    <title>OTHERLEVELS</title>
    <desc>Created with Sketch.</desc>
    <defs>
        <path d="M261.655692,52.315806 L261.655692,45.762152 C261.655692,44.9869887 261.021268,44.3527641 260.24586,44.3527641 L248.12131,44.3527641 C244.808206,44.3527641 243.609849,43.2252537 243.609849,39.560845 L243.609849,3.12816623 C243.609849,2.35300285 242.975425,1.71877827 242.200017,1.71877827 L232.965621,1.71877827 C232.190214,1.71877827 231.55579,2.35300285 231.55579,3.12816623 L231.55579,39.560845 C231.55579,52.3862754 239.662321,54.7117656 248.755734,54.7117656 C252.491787,54.7117656 257.919638,54.2889492 260.24586,53.7956634 C261.232742,53.5842552 261.655692,53.2319082 261.655692,52.315806 L261.655692,52.315806 Z M300.144091,52.315806 L300.144091,45.762152 C300.144091,44.9869887 299.509667,44.3527641 298.73426,44.3527641 L284.42447,44.3527641 C281.111366,44.3527641 279.913009,43.2252537 279.913009,39.560845 L279.913009,32.0910888 L298.170327,32.0910888 C298.945734,32.0910888 299.580158,31.4568642 299.580158,30.6817009 L299.580158,23.987108 C299.580158,23.2119447 298.945734,22.5777201 298.170327,22.5777201 L279.913009,22.5777201 L279.913009,16.1650049 C279.913009,12.5005962 281.111366,11.3730858 284.42447,11.3730858 L298.73426,11.3730858 C299.509667,11.3730858 300.144091,10.7388612 300.144091,9.96369784 L300.144091,3.41004382 C300.144091,2.49394165 299.721142,2.14159466 298.73426,2.00065586 C296.267054,1.64830887 292.742476,1.08455369 285.129386,1.08455369 C276.035973,1.08455369 267.929442,3.33957443 267.929442,16.1650049 L267.929442,39.560845 C267.929442,52.3862754 275.965481,54.7117656 285.058894,54.7117656 C292.671984,54.7117656 296.267054,54.1480104 298.73426,53.7956634 C299.721142,53.6547246 300.144091,53.2319082 300.144091,52.315806 L300.144091,52.315806 Z M350.475075,2.84628864 C350.475075,2.14159466 349.981634,1.71877827 349.276718,1.71877827 L339.407898,1.71877827 C338.702982,1.71877827 338.209541,2.28253346 338.068558,2.98722744 L329.257111,43.6480701 C329.116128,44.4232335 328.904653,44.7051111 328.270229,44.7051111 C327.635805,44.7051111 327.42433,44.4232335 327.283347,43.6480701 L318.4719,2.98722744 C318.330917,2.28253346 317.766984,1.71877827 317.062069,1.71877827 L307.26374,1.71877827 C306.558824,1.71877827 305.994892,2.21206406 305.994892,2.84628864 C305.994892,2.98722744 306.065383,3.05769683 306.065383,3.19863563 L316.568628,46.8896624 C318.189934,53.6547246 323.40631,54.7117656 328.270229,54.7117656 C333.134148,54.7117656 338.280032,53.6547246 339.901339,46.8896624 L350.404583,3.19863563 C350.404583,3.05769683 350.475075,2.91675804 350.475075,2.84628864 L350.475075,2.84628864 Z M389.386423,52.315806 L389.386423,45.762152 C389.386423,44.9869887 388.751999,44.3527641 387.976592,44.3527641 L373.666802,44.3527641 C370.353698,44.3527641 369.155342,43.2252537 369.155342,39.560845 L369.155342,32.0910888 L387.412659,32.0910888 C388.188067,32.0910888 388.822491,31.4568642 388.822491,30.6817009 L388.822491,23.987108 C388.822491,23.2119447 388.188067,22.5777201 387.412659,22.5777201 L369.155342,22.5777201 L369.155342,16.1650049 C369.155342,12.5005962 370.353698,11.3730858 373.666802,11.3730858 L387.976592,11.3730858 C388.751999,11.3730858 389.386423,10.7388612 389.386423,9.96369784 L389.386423,3.41004382 C389.386423,2.49394165 388.963474,2.14159466 387.976592,2.00065586 C385.509387,1.64830887 381.984808,1.08455369 374.371718,1.08455369 C365.278305,1.08455369 357.171774,3.33957443 357.171774,16.1650049 L357.171774,39.560845 C357.171774,52.3862754 365.207814,54.7117656 374.301227,54.7117656 C381.914317,54.7117656 385.509387,54.1480104 387.976592,53.7956634 C388.963474,53.6547246 389.386423,53.2319082 389.386423,52.315806 L389.386423,52.315806 Z M428.368264,52.315806 L428.368264,45.762152 C428.368264,44.9869887 427.733839,44.3527641 426.958432,44.3527641 L414.833881,44.3527641 C411.520777,44.3527641 410.322421,43.2252537 410.322421,39.560845 L410.322421,3.12816623 C410.322421,2.35300285 409.687997,1.71877827 408.912589,1.71877827 L399.678193,1.71877827 C398.902786,1.71877827 398.268362,2.35300285 398.268362,3.12816623 L398.268362,39.560845 C398.268362,52.3862754 406.374893,54.7117656 415.468306,54.7117656 C419.204359,54.7117656 424.63221,54.2889492 426.958432,53.7956634 C427.945314,53.5842552 428.368264,53.2319082 428.368264,52.315806 L428.368264,52.315806 Z M468.407477,39.2789674 C468.407477,33.5709462 466.222239,28.9199659 458.891115,24.9736796 L449.868194,20.1112912 C446.061649,18.0676786 445.145258,17.1515764 445.145258,15.1784333 C445.145258,12.641535 446.625581,11.4435552 450.643601,11.4435552 C455.437028,11.4435552 463.61405,12.0777798 465.587815,12.2187186 L465.728798,12.2187186 C466.645188,12.2187186 466.927154,11.6549634 466.927154,11.0207388 L466.927154,3.90332961 C466.927154,3.12816623 466.433713,2.77581924 465.869781,2.63488045 C463.191101,1.93018647 456.071452,1.08455369 450.925567,1.08455369 C437.250202,1.08455369 432.879724,7.07445252 432.879724,14.8260863 C432.879724,19.9703524 434.642014,24.4099244 441.19773,28.2857413 L450.925567,34.064232 C454.591129,36.2487833 455.578011,37.3762937 455.578011,39.4199062 C455.578011,42.8024373 454.16818,44.3527641 449.304261,44.3527641 C446.55509,44.3527641 438.801016,43.7890089 435.910862,43.5071313 L435.699387,43.5071313 C434.994472,43.5071313 434.430539,43.8594783 434.430539,44.8460499 L434.430539,51.7520509 C434.430539,52.5272142 435.135455,52.9500306 435.84037,53.1614388 C439.435441,54.077541 443.594444,54.7117656 449.163278,54.7117656 C463.473067,54.7117656 468.407477,46.7487236 468.407477,39.2789674 L468.407477,39.2789674 Z" id="path-1"></path>
        <filter x="-3.0%" y="-9.3%" width="105.9%" height="126.1%" filterUnits="objectBoundingBox" id="filter-2">
            <feOffset dx="0" dy="2" in="SourceAlpha" result="shadowOffsetOuter1"></feOffset>
            <feGaussianBlur stdDeviation="2" in="shadowOffsetOuter1" result="shadowBlurOuter1"></feGaussianBlur>
            <feColorMatrix values="0 0 0 0 0   0 0 0 0 0   0 0 0 0 0  0 0 0 0.14 0" type="matrix" in="shadowBlurOuter1"></feColorMatrix>
        </filter>
        <path d="M39.7227949,32.0708481 L39.7227949,22.7693247 C39.7227949,6.76205182 31.5723847,0.128407211 20.2483636,0.128407211 C8.92434251,0.128407211 0.70180488,6.76205182 0.70180488,22.7693247 L0.70180488,32.0708481 C0.70180488,48.078121 8.92434251,54.7117656 20.2483636,54.7117656 C31.5723847,54.7117656 39.7227949,48.078121 39.7227949,32.0708481 L39.7227949,32.0708481 Z M33.0870627,32.0708481 C33.0870627,44.18446 28.1102636,48.7991693 20.2483636,48.7991693 C12.3143361,48.7991693 7.337537,44.18446 7.337537,32.0708481 L7.337537,22.7693247 C7.337537,10.6557128 12.3864636,6.04100349 20.2483636,6.04100349 C28.1823912,6.04100349 33.0870627,10.6557128 33.0870627,22.7693247 L33.0870627,32.0708481 Z M84.0812215,5.10364067 L84.0812215,1.93102803 C84.0812215,1.13787487 83.5042013,0.63314104 82.7107986,0.63314104 L48.01746,0.63314104 C47.2240572,0.63314104 46.5749095,1.2099797 46.5749095,1.93102803 L46.5749095,5.10364067 C46.5749095,5.89679383 47.2240572,6.25731799 48.01746,6.25731799 L62.082327,6.25731799 L62.082327,52.7649351 C62.082327,53.5580883 62.6593472,54.2070318 63.3806224,54.2070318 L67.3476362,54.2070318 C68.1410389,54.2070318 68.6459316,53.4859834 68.6459316,52.7649351 L68.6459316,6.25731799 L82.7107986,6.25731799 C83.5042013,6.25731799 84.0812215,5.824689 84.0812215,5.10364067 L84.0812215,5.10364067 Z M130.026454,52.7649351 L130.026454,2.07523769 C130.026454,1.28208453 129.377306,0.63314104 128.583903,0.63314104 L124.9054,0.63314104 C124.111997,0.63314104 123.462849,1.28208453 123.462849,2.07523769 L123.462849,22.9856392 L98.7952362,22.9856392 L98.7952362,2.07523769 C98.7952362,1.28208453 98.1460885,0.63314104 97.3526858,0.63314104 L93.6741821,0.63314104 C92.8807793,0.63314104 92.2316316,1.28208453 92.2316316,2.07523769 L92.2316316,52.7649351 C92.2316316,53.5580883 92.8807793,54.2070318 93.6741821,54.2070318 L97.3526858,54.2070318 C98.1460885,54.2070318 98.7952362,53.5580883 98.7952362,52.7649351 L98.7952362,28.8261306 L123.462849,28.8261306 L123.462849,52.7649351 C123.462849,53.5580883 124.111997,54.2070318 124.9054,54.2070318 L128.583903,54.2070318 C129.377306,54.2070318 130.026454,53.5580883 130.026454,52.7649351 L130.026454,52.7649351 Z M171.427652,53.3417738 L171.427652,49.6644273 C171.427652,49.1596935 171.139142,48.7991693 170.634249,48.7991693 L156.713637,48.7991693 C149.06812,48.7991693 147.841952,46.780234 147.841952,41.3002667 L147.841952,29.1866548 L169.985101,29.1866548 C170.778504,29.1866548 171.427652,28.5377113 171.427652,27.7445581 L171.427652,25.0045745 C171.427652,24.2114213 170.778504,23.5624778 169.985101,23.5624778 L147.841952,23.5624778 L147.841952,13.5399061 C147.841952,8.05993881 149.06812,6.04100349 156.713637,6.04100349 L170.634249,6.04100349 C171.139142,6.04100349 171.427652,5.68047933 171.427652,5.1757455 L171.427652,1.57050387 C171.427652,1.13787487 171.139142,0.63314104 170.706377,0.561036207 C167.677021,0.272616877 160.897034,0.128407211 156.64151,0.128407211 C146.543656,0.128407211 141.278347,3.94996335 141.278347,13.5399061 L141.278347,41.3002667 C141.278347,50.8902094 146.543656,54.7117656 156.64151,54.7117656 C160.897034,54.7117656 167.965531,54.6396607 170.706377,54.3512414 C171.139142,54.2791366 171.427652,53.7744028 171.427652,53.3417738 L171.427652,53.3417738 Z M217.661394,53.2696689 C217.661394,53.0533544 217.589267,52.8370399 217.445012,52.6207254 L204.317802,30.7008563 C210.881407,28.9703403 215.641824,24.2114213 215.641824,16.1356801 L215.641824,15.6309462 C215.641824,3.94996335 206.842266,0.128407211 195.446117,0.128407211 C191.262721,0.128407211 185.853157,0.344721709 182.751673,0.705245873 C181.453378,0.849455538 181.020613,1.28208453 181.020613,2.29155219 L181.020613,52.7649351 C181.020613,53.5580883 181.597633,54.2070318 182.318908,54.2070318 L186.213794,54.2070318 C187.007197,54.2070318 187.51209,53.4859834 187.51209,52.7649351 L187.51209,31.5661143 C191.334848,31.7103239 193.065909,31.7824288 195.446117,31.7824288 L196.672285,31.7824288 L197.321433,31.7824288 L210.232259,53.2696689 C210.80928,54.2070318 211.242045,54.2070318 212.107575,54.2070318 L216.723736,54.2070318 C217.300757,54.2070318 217.661394,53.7744028 217.661394,53.2696689 L217.661394,53.2696689 Z M209.150347,16.1356801 C209.150347,23.923002 204.317802,26.1582518 195.446117,26.1582518 C193.787184,26.1582518 190.685701,26.086147 187.51209,26.0140422 L187.51209,6.25731799 C189.24315,6.04100349 193.210164,6.04100349 195.446117,6.04100349 C204.462058,6.04100349 209.150347,8.42046297 209.150347,15.6309462 L209.150347,16.1356801 Z" id="path-3"></path>
        <filter x="-3.7%" y="-7.3%" width="107.4%" height="129.3%" filterUnits="objectBoundingBox" id="filter-4">
            <feOffset dx="0" dy="4" in="SourceAlpha" result="shadowOffsetOuter1"></feOffset>
            <feGaussianBlur stdDeviation="2" in="shadowOffsetOuter1" result="shadowBlurOuter1"></feGaussianBlur>
            <feColorMatrix values="0 0 0 0 0   0 0 0 0 0   0 0 0 0 0  0 0 0 0.14 0" type="matrix" in="shadowBlurOuter1"></feColorMatrix>
        </filter>
    </defs>
    <g id="Symbols" stroke="none" stroke-width="1" fill="none" fill-rule="evenodd">
        <g id="Header" transform="translate(4.000000, 1.000000)">
            <g id="Logo---No-Background">
                <g>
                    <g id="OTHERLEVELS">
                        <g id="Text">
                            <g id="LEVELS">
                                <use fill="black" fill-opacity="1" filter="url(#filter-2)" xlink:href="#path-1"></use>
                                <use fill="#FFC400" fill-rule="evenodd" xlink:href="#path-1"></use>
                            </g>
                            <g id="OTHER">
                                <use fill="black" fill-opacity="1" filter="url(#filter-4)" xlink:href="#path-3"></use>
                                <use fill="#FAFAFA" fill-rule="evenodd" xlink:href="#path-3"></use>
                            </g>
                        </g>
                    </g>
                </g>
            </g>
        </g>
    </g>
</svg>