<svg width="730" height="174" viewBox="0 0 730 174" fill="none" xmlns="http://www.w3.org/2000/svg">
<rect width="728.7" height="173" fill="black" fill-opacity="0" transform="translate(0.6 0.1)"/>
<rect width="684.1" height="141.8" fill="black" fill-opacity="0" transform="translate(45.2 31.3)"/>
<rect width="89" height="141.8" fill="black" fill-opacity="0" transform="translate(45.2 31.3)"/>
<path d="M71.9 140.4L69.8 166.1H46.4L45.2 173.1H78.3L80.1 148.5H92.4L92.1 140.3L71.9 140.4Z" fill="white"/>
<path d="M104.8 31.3L125.6 166.1L101 166L102 173.1H134.2L111.9 32.2L104.8 31.3Z" fill="white"/>
<rect width="570.1" height="35.5" fill="black" fill-opacity="0" transform="translate(159.2 63.8)"/>
<path d="M166.1 87.9V88.9C166.1 92.1 167 94.1 170.6 94.1C172.7 94.1 174.7 92.8 174.7 89.9C174.7 86.8 173.1 85.7 168.6 84.1C162.5 82 159.7 79.5 159.7 73.8C159.7 67.2 163.7 63.8 170.2 63.8C176.3 63.8 180.7 66.4 180.7 72.9V73.9H174.1C174.1 70.7 173 68.9 170.4 68.9C167.3 68.9 166.5 70.8 166.5 72.8C166.5 74.9 167.1 76.2 170 77.4L175.3 79.7C180.4 81.9 181.8 84.6 181.8 88.7C181.8 95.9 177.4 99.1 170 99.1C162.2 99.1 159.2 95.5 159.2 89.2V87.8H166.1V87.9Z" fill="white"/>
<path d="M197.1 63.9C207.4 63.9 208.7 71.2 208.7 81.6C208.7 91.9 207.4 99.3 197.1 99.3C186.8 99.3 185.5 92 185.5 81.6C185.5 71.2 186.8 63.9 197.1 63.9ZM197.1 94.1C201.1 94.1 201.8 90.6 201.8 81.5C201.8 72.4 201.1 68.9 197.1 68.9C193.1 68.9 192.4 72.4 192.4 81.5C192.4 90.7 193.1 94.1 197.1 94.1Z" fill="white"/>
<path d="M220.1 64.5V88.2C220.1 91.6 220.9 94.1 224.1 94.1C227.3 94.1 228.1 91.6 228.1 88.2V64.5H235V88.2C235 96.9 229.7 99.1 224.1 99.1C218.5 99.1 213.2 97.2 213.2 88.2V64.5H220.1Z" fill="white"/>
<path d="M260.1 64.5V70.1H252.7V98.5H245.8V70.2H238.4V64.6H260.1V64.5Z" fill="white"/>
<path d="M264 64.5H270.9V77.5H278.9V64.5H285.8V98.5H278.9V83.4H270.9V98.5H264V64.5Z" fill="white"/>
<path d="M310.4 64.5V70.1H298.3V78.1H309.7V83.7H298.3V92.8H310.9V98.4H291.4V64.4H310.4V64.5Z" fill="white"/>
<path d="M315.3 64.5H328C333.6 64.5 337 67.5 337 73.3C337 77.8 335.2 80.9 331.3 81.7V81.8C336 82.4 336.7 85 336.8 92.2C336.8 95.8 337 97.6 338.3 98.3V98.6H330.9C330.2 97.6 330.1 96.4 330 95L329.8 88.5C329.7 85.8 328.5 84.2 325.8 84.2H322.1V98.6H315.2V64.5H315.3ZM322.1 79.4H325C328.3 79.4 330.1 78 330.1 74.3C330.1 71.2 328.4 69.6 325.3 69.6H322.1V79.4Z" fill="white"/>
<path d="M350.6 64.5L358.9 87.8H359V64.5H365.3V98.5H357.5L349.1 74.7H349V98.5H342.7V64.5H350.6Z" fill="white"/>
<path d="M397.8 76C397.8 71.1 396.8 68.9 393.7 68.9C390.2 68.9 389.4 72.4 389.4 82C389.4 92.3 390.8 94.1 393.8 94.1C396.3 94.1 398.1 92.8 398.1 85.5H405C405 92.8 403.2 99.2 394.2 99.2C383.9 99.2 382.6 91.9 382.6 81.5C382.6 71.2 383.9 63.8 394.2 63.8C404 63.8 404.7 71 404.7 75.9H397.8V76Z" fill="white"/>
<path d="M409.8 64.5H422.5C428.1 64.5 431.5 67.5 431.5 73.3C431.5 77.8 429.7 80.9 425.8 81.7V81.8C430.5 82.4 431.2 85 431.3 92.2C431.3 95.8 431.5 97.6 432.8 98.3V98.6H425.4C424.7 97.6 424.6 96.4 424.5 95L424.3 88.5C424.2 85.8 423 84.2 420.3 84.2H416.6V98.6H409.7V64.5H409.8ZM416.7 79.4H419.6C422.9 79.4 424.7 78 424.7 74.3C424.7 71.2 423 69.6 419.9 69.6H416.7V79.4Z" fill="white"/>
<path d="M448.1 63.9C458.4 63.9 459.7 71.2 459.7 81.6C459.7 91.9 458.4 99.3 448.1 99.3C437.8 99.3 436.5 92 436.5 81.6C436.5 71.2 437.8 63.9 448.1 63.9ZM448.1 94.1C452.1 94.1 452.8 90.6 452.8 81.5C452.8 72.4 452.1 68.9 448.1 68.9C444.1 68.9 443.4 72.4 443.4 81.5C443.4 90.7 444.1 94.1 448.1 94.1Z" fill="white"/>
<path d="M470.2 87.9V88.9C470.2 92.1 471.1 94.1 474.7 94.1C476.8 94.1 478.8 92.8 478.8 89.9C478.8 86.8 477.2 85.7 472.7 84.1C466.6 82 463.8 79.5 463.8 73.8C463.8 67.2 467.8 63.8 474.3 63.8C480.4 63.8 484.8 66.4 484.8 72.9V73.9H478.2C478.2 70.7 477.1 68.9 474.5 68.9C471.4 68.9 470.6 70.8 470.6 72.8C470.6 74.9 471.2 76.2 474.1 77.4L479.4 79.7C484.5 81.9 485.9 84.6 485.9 88.7C485.9 95.9 481.5 99.1 474.1 99.1C466.3 99.1 463.3 95.5 463.3 89.2V87.8H470.2V87.9Z" fill="white"/>
<path d="M495.8 87.9V88.9C495.8 92.1 496.7 94.1 500.3 94.1C502.4 94.1 504.4 92.8 504.4 89.9C504.4 86.8 502.8 85.7 498.3 84.1C492.2 82 489.4 79.5 489.4 73.8C489.4 67.2 493.4 63.8 499.9 63.8C506 63.8 510.4 66.4 510.4 72.9V73.9H503.8C503.8 70.7 502.7 68.9 500.1 68.9C497 68.9 496.2 70.8 496.2 72.8C496.2 74.9 496.8 76.2 499.7 77.4L505 79.7C510.1 81.9 511.5 84.6 511.5 88.7C511.5 95.9 507.1 99.1 499.7 99.1C491.9 99.1 488.9 95.5 488.9 89.2V87.8H495.8V87.9Z" fill="white"/>
<path d="M535 64.5H543.5L552.5 98.5H545.4L543.8 91.3H534.8L533.2 98.5H526L535 64.5ZM535.9 85.7H542.6L539.3 70.4H539.2L535.9 85.7Z" fill="white"/>
<path d="M562.2 64.5V88.2C562.2 91.6 563 94.1 566.2 94.1C569.4 94.1 570.2 91.6 570.2 88.2V64.5H577.1V88.2C577.1 96.9 571.8 99.1 566.2 99.1C560.6 99.1 555.3 97.2 555.3 88.2V64.5H562.2Z" fill="white"/>
<path d="M587.8 87.9V88.9C587.8 92.1 588.7 94.1 592.3 94.1C594.4 94.1 596.4 92.8 596.4 89.9C596.4 86.8 594.8 85.7 590.3 84.1C584.2 82 581.4 79.5 581.4 73.8C581.4 67.2 585.4 63.8 591.9 63.8C598 63.8 602.4 66.4 602.4 72.9V73.9H595.8C595.8 70.7 594.7 68.9 592.1 68.9C589 68.9 588.2 70.8 588.2 72.8C588.2 74.9 588.8 76.2 591.7 77.4L597 79.7C602.1 81.9 603.5 84.6 603.5 88.7C603.5 95.9 599.1 99.1 591.7 99.1C583.9 99.1 580.9 95.5 580.9 89.2V87.8H587.8V87.9Z" fill="white"/>
<path d="M627.9 64.5V70.1H620.5V98.5H613.6V70.2H606.2V64.6H627.9V64.5Z" fill="white"/>
<path d="M650.8 64.5V70.1H638.7V78.1H650V83.7H638.6V92.8H651.2V98.4H631.7V64.4H650.8V64.5Z" fill="white"/>
<path d="M655.6 64.5H668.3C673.9 64.5 677.3 67.5 677.3 73.3C677.3 77.8 675.5 80.9 671.6 81.7V81.8C676.3 82.4 677 85 677.1 92.2C677.1 95.8 677.3 97.6 678.6 98.3V98.6H671.2C670.5 97.6 670.4 96.4 670.3 95L670.1 88.5C670 85.8 668.8 84.2 666.1 84.2H662.4V98.6H655.5V64.5H655.6ZM662.5 79.4H665.4C668.7 79.4 670.5 78 670.5 74.3C670.5 71.2 668.8 69.6 665.7 69.6H662.5V79.4Z" fill="white"/>
<path d="M702 64.5V70.1H689.9V78.1H701.3V83.7H689.9V92.8H702.5V98.4H683V64.4H702V64.5Z" fill="white"/>
<path d="M717.7 63.9C728 63.9 729.3 71.2 729.3 81.6C729.3 91.9 728 99.3 717.7 99.3C707.4 99.3 706.1 92 706.1 81.6C706.1 71.2 707.4 63.9 717.7 63.9ZM717.7 94.1C721.7 94.1 722.4 90.6 722.4 81.5C722.4 72.4 721.7 68.9 717.7 68.9C713.7 68.9 713 72.4 713 81.5C713 90.7 713.7 94.1 717.7 94.1Z" fill="white"/>
<rect width="278.4" height="48.6" fill="black" fill-opacity="0" transform="translate(287.1 108.6)"/>
<rect width="160.1" height="48.6" fill="black" fill-opacity="0" transform="translate(287.1 108.6)"/>
<path d="M288.2 134.7L290.4 133.3C290.5 133.2 290.6 133.1 290.7 133C290.8 132.9 290.9 132.7 291.1 132.4C291.2 132.2 291.4 132 291.5 131.9C291.7 131.8 291.9 131.6 292.1 131.5C292.2 131.3 292.4 131.1 292.7 130.9C293 130.7 293.2 130.4 293.6 130.1C293.8 130 294 129.9 294.3 129.7C294.6 129.5 294.9 129.3 295.2 129C296.7 127.6 297.9 126.6 299 125.9C300.1 125.2 301 124.9 301.8 124.9C302.2 124.9 302.5 125 302.7 125.2C302.9 125.4 303 125.6 303 125.9C303 126.2 302.9 126.5 302.8 126.8C302.7 127.1 302.5 127.3 302.2 127.5C301.8 127.8 301.4 128.1 300.9 128.5C300.6 128.8 300.3 129.2 300 129.6C299.6 130 299.2 130.4 298.7 130.7C298.5 130.9 298.4 131.1 298.3 131.3C298.2 131.4 298.1 131.5 297.8 131.7C297.5 131.9 297.3 132.2 296.9 132.4C296.7 132.8 296.4 133.2 295.9 133.8C295.4 134.4 294.6 135 293.7 135.8C293.6 135.9 293.4 136.2 293.1 136.6C292.8 137 292.4 137.5 292 138.2L292.2 138.4C292.6 138.3 292.9 138.1 293.3 137.8C293.7 137.5 294.1 137.2 294.6 136.7C295.1 136.2 295.6 135.8 295.9 135.5C296.2 135.2 296.5 135 296.6 134.9C296.7 134.8 296.8 134.8 296.9 134.7C297 134.6 297.1 134.6 297.3 134.5C298 133.6 298.7 133 299.4 132.5C300 132.1 300.6 131.9 301.2 131.9C301.5 131.9 301.8 132 302 132.3C302.2 132.6 302.3 133 302.3 133.5C302.3 134.3 302.3 135.1 302.3 135.8C302.3 136.3 302.4 136.8 302.7 137.2C303 137.6 303.4 137.8 303.9 137.8C304 137.8 304.2 137.8 304.3 137.7C304.4 137.6 304.6 137.5 304.7 137.4C304.8 137.3 304.9 137.1 305 137C305.1 136.9 305.2 136.7 305.3 136.6C305.4 136.6 305.5 136.5 305.6 136.4C305.7 136.3 305.8 136.2 305.9 136.1C306.1 136.6 306.3 137 306.5 137.4C306.7 137.8 306.8 138.1 306.8 138.4C306.4 138.7 306.1 139.1 305.7 139.4C305.3 139.8 305 140.1 304.6 140.4C304.1 140.8 303.7 141 303.2 141.2C302.7 141.4 302.3 141.5 301.8 141.5C300.8 141.5 300 141.2 299.4 140.6C298.8 140 298.5 139.1 298.4 137.9C298.4 137.8 298.4 137.6 298.3 137.5C298.3 137.3 298.2 137.2 298 137C297.9 137.1 297.8 137.2 297.7 137.3C297.6 137.4 297.5 137.5 297.4 137.6C297.2 137.8 296.9 138 296.6 138.2C296.3 138.4 295.9 138.7 295.5 139.1C294.9 139.7 294.5 140.2 294.1 140.5C293.7 140.8 293.4 141.1 293.3 141.3C293 141.6 292.6 141.8 292.2 142.1C291.8 142.4 291.3 142.7 290.8 142.9C290.5 143.1 290.2 143.2 289.9 143.3C289.7 143.4 289.5 143.5 289.4 143.5C288.6 143.5 288.1 143.3 287.7 142.9C287.3 142.5 287.1 141.9 287.1 141.2C287.1 140.8 287.2 140.4 287.4 140C287.6 139.6 287.9 139.2 288.2 138.9C288.2 138.7 288.2 138.5 288.2 138.4C288.2 138.3 288.2 138.2 288.1 138.1C288.1 138 288 137.9 287.9 137.8C287.8 137.6 287.7 137.3 287.6 137C287.5 136.7 287.3 136.4 287.2 136.1C287.3 136 287.4 135.9 287.5 135.7C287.9 135.2 288.1 134.9 288.2 134.7Z" fill="white"/>
<path d="M306 135.7C306.2 135.5 306.4 135.2 306.7 134.9C307 134.6 307.3 134.2 307.7 133.7C307.9 133.2 308 132.7 308.1 132C308.2 131.3 308.4 130.5 308.5 129.6C308.6 128.7 308.7 127.9 308.9 127.2C309 126.5 309.2 126 309.3 125.5C310 123.2 310.6 121.5 311 120.2C311.4 119 311.6 118.2 311.7 118C312.2 116.5 312.8 115.2 313.4 114.1C314 113 314.6 111.9 315.2 111.1C315.3 110.9 315.5 110.8 315.7 110.6C315.9 110.4 316 110.2 316.3 110C316.9 109.7 317.4 109.5 318 109.2C318.3 109.1 318.6 109 318.9 108.9C319.2 108.8 319.5 108.8 319.8 108.8C320.3 108.8 320.6 109 320.8 109.4C321 109.8 321.2 110.5 321.2 111.3C321.2 111.8 321.1 112.4 321 113.1C320.9 113.8 320.7 114.5 320.4 115.2C320 116.3 319.7 117.2 319.5 117.8C319.3 118.4 319.2 118.9 319.1 119C319 119.3 318.9 119.8 318.6 120.3C318.3 120.8 318 121.4 317.6 122.2C317.1 123.1 316.7 123.9 316.4 124.4C316.1 124.9 316 125.2 315.9 125.3C315.8 125.4 315.7 125.5 315.5 125.6C315.4 125.7 315.3 125.8 315.1 126V126.6C315 126.8 314.9 126.9 314.9 127C314.6 127.5 314.3 128.2 313.8 129C313.3 129.8 312.8 130.7 312.1 131.7C311.7 132.2 311.4 132.7 311.2 133.1C311 133.5 310.9 133.8 310.9 134.1V136.2C311 136.6 311.1 137 311.2 137.4C311.3 137.8 311.4 138.2 311.5 138.6C311.6 139.1 311.7 139.5 312 139.8C312.2 140.1 312.5 140.2 312.8 140.2C313.4 140.2 314 140 314.4 139.7C314.8 139.4 315.1 138.9 315.4 138.3C315 138.1 314.6 137.9 314.4 137.7C314.2 137.5 314.1 137.2 314.1 137C314.2 136.8 314.2 136.7 314.3 136.5C314.4 136.3 314.4 136.1 314.5 135.9C314.5 135.8 314.5 135.7 314.6 135.6C314.6 135.5 314.7 135.3 314.7 135.2C315.4 133.8 316.1 132.8 316.7 132.1C317.3 131.4 317.9 131.1 318.3 131.1C318.4 131.1 318.6 131.1 318.9 131.2C319.2 131.2 319.3 131.3 319.5 131.3C319.6 131.3 319.7 131.3 320 131.2C320.3 131.1 320.4 131.1 320.5 131.1C320.8 131.1 321 131.2 321.1 131.4C321.2 131.6 321.3 131.8 321.3 132.2C321.3 132.9 321.1 133.6 320.7 134.4C320.3 135.2 320.1 135.7 320.1 135.8C320.1 135.9 320.2 136 320.3 136.1C320.4 136.1 320.5 136 320.6 136C320.7 135.9 320.8 135.9 320.9 135.8C321 136 321.1 136.3 321.2 136.5C321.3 136.8 321.5 137.1 321.6 137.4C321.7 137.5 321.7 137.6 321.8 137.7C321.8 137.8 321.8 137.9 321.8 138C321.1 138.7 320.5 139.2 320 139.6C319.5 140 319.1 140.2 318.7 140.2C318.6 140.2 318.5 140.2 318.3 140.2C318.1 140.2 317.9 140.2 317.7 140.2C317.5 140.5 317.2 140.8 316.9 141.1C316.6 141.5 316.2 141.9 315.9 142.4C315.7 142.5 315.5 142.7 315.3 142.8C315.1 142.9 314.8 143.2 314.5 143.5C314 144 313.6 144.3 313.1 144.5C312.6 144.7 312.2 144.8 311.7 144.8C311.5 144.8 311.3 144.8 311.1 144.7C310.9 144.6 310.7 144.5 310.4 144.4C310.2 144.3 310 144.2 309.8 144C309.6 143.8 309.3 143.6 309.1 143.4C308.8 142.4 308.5 141.5 308.4 140.7C308.3 139.9 308.2 139.1 308.2 138.3C308.2 138.2 308.2 138.1 308.2 138C308.2 137.9 308.1 137.8 308.1 137.8L307.9 137.7L307.7 137.8L307.5 138C307.4 137.6 307.2 137.3 307.1 136.9C306.3 136.5 306.2 136.1 306 135.7ZM317.1 116.1C317.1 116 317.1 116 317.1 115.9C317.1 115.8 317 115.8 317 115.7C316.9 115.7 316.8 115.8 316.7 116C316.6 116.2 316.5 116.6 316.3 117C316.2 117.3 316.1 117.7 315.9 118.1C315.7 118.5 315.4 119 315 119.6C314.7 120.1 314.4 120.7 314.1 121.3C313.8 121.9 313.5 122.6 313.2 123.4C312.8 124.3 312.6 125 312.4 125.7C312.2 126.4 312.1 126.9 312.1 127.3V127.5C312.2 127.4 312.4 127.1 312.7 126.6C313 126 313.4 125.2 313.9 124.2C314.4 123.3 314.7 122.5 314.9 122C315.1 121.5 315.3 121.1 315.3 120.9C315.4 120.5 315.6 120 315.8 119.4C316 118.8 316.2 118.2 316.4 117.5C316.6 117.2 316.7 117 316.8 116.8C316.9 116.7 317 116.5 317 116.4C317.1 116.3 317.1 116.2 317.1 116.1Z" fill="white"/>
<path d="M320.3 135.7L320.4 135.5C320.5 135.3 320.6 135 320.8 134.8C321 134.5 321.3 134.3 321.7 134C322.2 133.7 322.6 133.4 322.9 133.2C323.2 133 323.4 132.8 323.4 132.7C323.5 132.5 323.6 132.4 323.7 132.3C323.9 132.2 324.1 132 324.4 131.8C324.7 131.6 324.9 131.3 325.3 131C325.4 130.9 325.5 130.8 325.7 130.6C325.8 130.4 326 130.2 326.1 130C326.3 129.9 326.5 129.7 326.8 129.4C327.1 129.2 327.4 128.9 327.7 128.5C328.1 128.1 328.6 127.6 329.1 127.1C329.6 126.6 330.2 126 330.8 125.5C331 125.4 331.2 125.3 331.4 125.3C331.6 125.2 331.8 125.2 331.9 125.2C332.6 125.2 333.2 125.4 333.5 125.7C333.8 126 334 126.5 334 127.2C334 127.4 334 127.6 333.9 128C333.8 128.4 333.8 128.8 333.7 129.4C333.5 131 333.3 132 333.2 132.4C333.1 132.8 332.8 133.9 332.2 135.7C332.1 136 331.9 136.4 331.8 136.8C331.7 137.3 331.5 137.8 331.3 138.4C331.3 138.5 331.4 138.5 331.5 138.6C331.6 138.6 331.8 138.5 332.1 138.3C332.4 138.1 332.8 137.8 333.3 137.3C333.9 136.8 334.3 136.4 334.6 136.1C334.9 135.8 335.1 135.7 335.2 135.6C335.4 136 335.6 136.4 335.7 136.8C335.9 137.2 336 137.5 336.1 137.8C335.9 137.9 335.7 138.1 335.5 138.2C335.3 138.4 335.2 138.5 335 138.7C334.7 138.9 334.3 139.2 333.8 139.5C333.4 139.8 332.9 140.1 332.3 140.4C332.1 140.6 331.7 140.9 331.3 141.3C330.9 141.6 330.4 142 329.9 142.5L329.4 142.6C329.2 142.9 329 143.1 328.8 143.3C328.6 143.5 328.4 143.6 328.3 143.6C328 143.7 327.8 143.8 327.5 143.9C327.2 144 327 144.1 326.7 144.2C326.5 144.2 326.4 144 326.3 143.9C326.2 143.7 326.2 143.5 326.2 143.3C326 142.9 325.8 142.4 325.6 141.8C325.5 141.2 325.4 140.6 325.4 139.9C325.4 139.8 325.4 139.6 325.4 139.5C325.4 139.4 325.4 139.2 325.4 139.1C325.3 138.7 325.2 138.4 325.2 138.4C325.2 137.9 325.4 137.5 325.8 137.2C326.2 136.9 326.6 136.7 327.1 136.7C327.3 136.7 327.5 136.8 327.6 137.1C327.7 137.3 327.8 137.5 327.9 137.5C328 137.5 328.1 137.3 328.2 136.8C328.3 136.3 328.4 135.7 328.5 134.9C328.6 134.2 328.7 133.5 328.7 133C328.7 132.5 328.7 132 328.7 131.7C328.7 131.5 328.7 131.3 328.6 131.2C328.5 131.1 328.4 131 328.2 131C328 131 327.3 131.5 326.2 132.4C325.1 133.3 323.5 134.8 321.4 136.7C321.3 136.8 321.2 136.9 321.1 137.1C321 137.3 320.8 137.5 320.7 137.7C320.6 137.5 320.5 137.2 320.4 136.8C320.8 136.7 320.6 136.2 320.3 135.7Z" fill="white"/>
<path d="M335.4 135.7C335.5 135.6 335.6 135.4 335.7 135.3C335.8 135.1 336 134.9 336.1 134.7L338 133.4C338.2 133.1 338.6 132.8 339 132.4C339.5 132 340 131.5 340.7 130.8C340.8 130.6 340.9 130.4 341.1 130.2C341.3 130 341.5 129.7 341.8 129.5C342 129.3 342.2 129.1 342.5 128.9C342.7 128.7 342.9 128.5 343.1 128.4C343.3 128.2 343.6 127.9 343.8 127.7C344 127.5 344.2 127.2 344.5 127C344.8 126.8 345 126.6 345.3 126.5C345.6 126.4 345.9 126.3 346.2 126.3C346.6 126.3 346.8 126.3 347 126.4C347.2 126.5 347.3 126.6 347.3 126.8C347.1 127.2 347 127.5 346.8 127.9L346.9 128.1C347.6 127.8 348.2 127.6 348.6 127.5C349 127.4 349.3 127.3 349.4 127.3C350.6 127.3 351.5 127.7 352 128.4C352.6 129.1 352.9 130.2 352.9 131.6C352.9 131.9 352.9 132.2 352.8 132.6C352.7 133 352.6 133.4 352.5 133.8C352.3 134.3 352.2 134.7 352 135C351.8 135.3 351.6 135.6 351.5 135.7C351.6 135.9 351.6 136.1 351.7 136.1C351.8 136.2 351.9 136.2 352 136.2C352.1 136.2 352.3 136.2 352.4 136.1C352.5 136 352.7 135.9 352.9 135.7C353.1 136.1 353.2 136.4 353.4 136.8C353.6 137.2 353.7 137.6 353.9 137.9C353.6 138.2 353.3 138.4 353.1 138.6C352.8 138.8 352.5 139.1 352.2 139.3C351.8 139.6 351.5 139.8 351.2 140C350.9 140.2 350.5 140.2 350.2 140.2C349.8 140.2 349.5 140.1 349.3 139.9C349.1 139.7 348.9 139.5 348.7 139.2C348.3 139.7 347.8 140.2 347.2 140.7C346.6 141.1 346 141.5 345.3 141.8C344.9 142 344.5 142.1 344.2 142.2C343.9 142.3 343.6 142.4 343.3 142.4C343.2 142.4 343.1 142.4 342.8 142.5C342.5 142.6 342.4 142.6 342.2 142.6C341.3 142.6 340.5 142.2 339.7 141.4C339 140.6 338.6 139.8 338.6 138.8C338.6 138.4 338.7 137.9 338.9 137.3C339.1 136.7 339.2 136.3 339.2 136.2C339.2 136.1 339.2 136 339.1 135.9C339 135.8 338.9 135.8 338.8 135.8C338.7 135.8 338.5 135.9 338.2 136.2C337.9 136.4 337.5 136.8 336.9 137.2C336.9 137.3 336.8 137.4 336.7 137.5C336.6 137.6 336.5 137.8 336.4 137.9C336.3 137.5 336.1 137.2 336 136.8C335.8 136.4 335.6 136.1 335.4 135.7ZM347 131.3C346.9 131.3 346.8 131.4 346.7 131.6C346.5 131.8 346.4 131.9 346.3 132.2C346.1 132.6 345.8 133 345.5 133.4C345.3 133.6 345.1 133.7 344.9 133.8C344.7 133.9 344.5 134 344.2 134C344 134 343.9 134.2 343.7 134.5C343.5 134.8 343.3 135.2 343.2 135.8C343 136.3 342.9 136.7 342.8 137.1C342.7 137.5 342.7 137.8 342.7 138C342.7 138.5 342.8 138.8 343 139C343.2 139.2 343.6 139.3 344 139.3C344.7 139.3 345.4 139.1 346 138.7C346.6 138.3 347.2 137.7 347.7 136.9C348 136.6 348.2 136.3 348.4 136C348.5 135.9 348.6 135.7 348.7 135.5C348.8 135.3 348.9 135 348.9 134.7L349.3 133.3C349.2 132.8 349 132.4 348.9 132.2C348.8 131.9 348.6 131.7 348.5 131.7C348.4 131.7 348.2 131.6 348 131.5C347.9 131.4 347.5 131.4 347 131.3Z" fill="white"/>
<path d="M352.8 135.7C352.9 135.5 353.1 135.3 353.2 135.1C353.3 134.9 353.5 134.6 353.8 134.3L355.4 132.9C355.5 132.9 355.5 132.8 355.5 132.7C355.5 132.6 355.5 132.5 355.5 132.4C355.5 132.2 355.5 132 355.4 131.9C355.4 131.5 355.5 130.9 355.6 130C355.7 129.1 355.9 128.6 356 128.4L355.9 127.9C356.1 126.8 356.4 125.6 356.8 124.4C357.2 123.2 357.6 121.7 358.1 120.2C358.3 119.9 358.4 119.6 358.6 119.2C358.8 118.8 359 118.4 359.2 117.9C359.5 117.1 359.8 116.2 360.3 115.3C360.7 114.4 361.3 113.4 361.8 112.5C362.6 111.2 363.2 110.3 363.8 109.6C364.4 109 364.9 108.6 365.4 108.6C366.3 108.6 367 108.8 367.3 109.1C367.6 109.5 367.8 110.1 367.8 111.1C367.8 111.4 367.8 111.8 367.7 112.3C367.6 112.8 367.6 113.2 367.6 113.5C367.6 113.8 367.5 114.2 367.3 114.7C367.1 115.2 367 115.7 367 116.1C367 116.2 366.9 116.4 366.9 116.5V116.8C366.8 117 366.7 117.3 366.6 117.6C366.5 117.9 366.3 118.3 366.1 118.8C366 119.2 365.8 119.7 365.7 120.2C365.5 120.7 365.3 121.3 365.1 121.9C365 122.1 364.9 122.3 364.7 122.5C364.5 122.7 364.4 123 364.2 123.3C364.2 123.5 364.1 123.8 364 124C363.9 124.3 363.7 124.6 363.5 125C363.4 125.2 363.3 125.4 363.1 125.6C362.9 125.8 362.7 126.1 362.5 126.5C362.4 126.7 362.3 126.9 362.2 127.1C362.1 127.3 362 127.6 361.8 127.9C361.6 128.2 361.4 128.5 361.1 128.9C360.8 129.3 360.5 129.8 360.1 130.3C359.6 131.2 359.1 132 358.6 132.8C358.6 134.4 358.9 135.5 359.5 136.3C360.1 137.1 361 137.5 362.3 137.5C362.4 137.5 362.6 137.4 363 137.3C363.4 137.2 364 137 364.7 136.8C364.9 136.7 365.2 136.5 365.4 136.3C365.7 136.1 366 135.8 366.4 135.5L367.3 137.7C366.9 138.1 366.5 138.4 366 138.8C365.6 139.2 365.2 139.6 364.7 139.9C364.2 140.3 363.7 140.6 363.2 140.9C362.7 141.1 362.2 141.2 361.7 141.2C361.4 141.2 361 141.2 360.5 141.1C360 141 359.6 141 359.3 141C358.4 141 357.7 140.6 357.1 139.9C356.5 139.2 356.1 138.1 355.9 136.6C355.9 136.5 355.8 136.3 355.8 136.2C355.8 136.1 355.6 136 355.5 135.8C355.3 136 355 136.3 354.8 136.5C354.5 136.8 354.2 137.1 353.8 137.5L352.8 135.7ZM364.3 116.8L364.1 116.7C363.2 117.6 362.5 118.4 362.1 119.2C361.6 120 361.4 120.7 361.4 121.4C361.4 121.5 361.3 121.7 361.2 122C361.1 122.3 360.9 122.6 360.7 123C360.4 123.5 360.2 124 359.9 124.6C359.6 125.5 359.4 126.2 359.2 126.8C359 127.4 359 127.8 359 128L359.1 128.2C359.2 128.2 359.4 128 359.6 127.8C359.8 127.6 360.1 127.1 360.3 126.6C360.4 126.3 360.6 126 360.9 125.6C361.2 125.2 361.4 124.8 361.7 124.2C362 123.8 362.4 122.9 362.9 121.5C363.5 120 363.8 119.1 363.8 118.7C363.8 118.4 363.9 118.1 363.9 117.7C364.1 117.4 364.2 117.1 364.3 116.8Z" fill="white"/>
<path d="M366.3 135.7C366.4 135.7 366.4 135.6 366.5 135.5C366.5 135.4 366.6 135.4 366.6 135.3C366.9 135.1 367.2 134.8 367.5 134.4C367.8 134 368.2 133.5 368.7 133C369.1 132.5 369.4 132 369.8 131.6C370.2 131.1 370.6 130.6 371 130.2C371.4 129.7 371.7 129.2 372 128.7C372.3 128.2 372.7 127.7 373.1 127.2C373.7 126.9 374.2 126.7 374.6 126.5C375 126.4 375.2 126.3 375.3 126.3C375.5 126.3 375.7 126.4 375.9 126.5C376 126.7 376.1 126.9 376.1 127.2C376.1 127.3 376.1 127.4 376 127.6C376 127.8 375.9 128 375.8 128.2C375.7 128.5 375.6 128.9 375.4 129.2C375.3 129.8 375.1 130.3 374.9 130.9C374.7 131.5 374.6 132 374.4 132.6C374.2 133.3 374.1 133.9 374 134.5C373.9 135.1 373.9 135.6 373.9 136.1C373.9 137 373.9 137.7 374 138.1C374.1 138.5 374.2 138.7 374.4 138.7C374.6 138.6 374.8 138.5 375 138.3C375.2 138.2 375.5 138 375.8 137.8C376.1 137.5 376.4 137.1 376.8 136.7C377.2 136.3 377.6 135.7 378.1 135.1C378.4 134.6 378.7 134.2 379 133.8C379.1 133.7 379.2 133.5 379.4 133.3C379.6 133.1 379.7 132.9 379.8 132.8C380.1 132 380.4 131.5 380.8 131.1C381.2 130.7 381.6 130.5 382.1 130.5C382.5 130.5 382.9 130.6 383.1 130.7C383.3 130.8 383.5 131 383.6 131.2C383.6 131.3 383.7 131.5 383.7 131.8C383.7 132.1 383.7 132.4 383.7 132.9C383.7 133.1 383.7 133.3 383.8 133.7C383.9 134.1 383.9 134.3 383.9 134.4C383.9 135 384 135.4 384.2 135.7C384.4 136 384.7 136.1 385.2 136.1C385.3 136.1 385.5 136.1 385.7 136C385.9 136 386.1 135.9 386.2 135.8L387.2 138C386.2 138.6 385.4 139 384.8 139.3C384.2 139.6 383.7 139.7 383.4 139.7C382.6 139.7 381.9 139.5 381.4 139.1C380.9 138.7 380.5 138.1 380.3 137.2C380.3 137 380.2 136.8 380.1 136.6C380 136.4 379.9 136.2 379.7 136C379.6 136.2 379.4 136.4 379.2 136.6C379 136.8 378.8 137.1 378.6 137.3C378.2 137.8 377.7 138.3 377.3 138.9C376.9 139.4 376.4 139.9 376 140.4C375.4 141.1 374.9 141.5 374.3 141.8C373.7 142.1 373.2 142.2 372.7 142.2C372 142.2 371.4 142 370.9 141.5C370.4 141 370.2 140.4 370 139.5C369.9 138.7 369.8 138 369.7 137.5C369.7 137 369.6 136.8 369.7 136.7C369.7 136.2 369.6 135.9 369.6 135.6C369.5 135.4 369.5 135.2 369.3 135.2L369.2 135.3L367.8 136.7C367.8 136.8 367.7 137 367.6 137.1C367.5 137.3 367.3 137.5 367.1 137.7C367 137.5 366.9 137.2 366.8 136.8C366.8 136.7 366.6 136.2 366.3 135.7Z" fill="white"/>
<path d="M386.3 135.7L386.4 135.5C386.5 135.4 386.6 135.2 386.8 135C387 134.8 387.1 134.6 387.3 134.3C388.4 133.2 389.6 132 390.6 130.5C391.7 129 392.8 127.3 393.8 125.4C393.9 125.2 394.1 125 394.2 124.7C394.4 124.4 394.5 124 394.7 123.6C394.7 123.5 394.7 123.4 394.6 123.4C394.6 123.4 394.5 123.3 394.4 123.3C394.3 123.3 394.1 123.3 393.9 123.4C393.7 123.5 393.5 123.5 393.4 123.5H390.4C390.3 123.5 390.1 123.5 389.8 123.5C389.5 123.5 389.3 123.5 389.2 123.5C389 123.4 388.9 123.4 388.8 123.3C388.7 123.2 388.5 123.2 388.4 123.1C388.2 123 388.1 123 388 122.8C387.9 122.7 387.8 122.6 387.8 122.4C387.8 121.4 387.9 120.6 388.1 120C388.3 119.5 388.7 119.2 389.1 119.2C389.6 119.2 390 119.2 390.4 119.3C390.8 119.4 391.1 119.4 391.5 119.5C391.7 119.5 392 119.4 392.2 119.4C392.6 119.4 393 119.4 393.3 119.4C393.6 119.4 393.8 119.5 394 119.5C394.2 119.5 394.4 119.4 394.6 119.4C394.8 119.4 395 119.3 395.3 119.3L396.1 119.5C396.7 119.4 397.3 118.6 397.9 117.1C398.5 115.6 399.2 114.8 399.9 114.8C400.3 114.8 400.6 114.9 400.8 115.2C401 115.4 401.1 115.8 401.1 116.3C401.1 116.7 401 117.2 400.8 117.8C400.6 118.4 400.5 118.9 400.4 119.2C400.4 119.3 400.5 119.3 400.5 119.4C400.6 119.5 400.6 119.6 400.7 119.7C400.8 119.8 400.9 119.9 400.9 120C400.9 120.2 401 120.3 401 120.6C401 121.6 401 122.3 400.9 122.8C400.8 123.3 400.7 123.6 400.5 123.6L398.9 123.9C398.9 124.1 398.8 124.3 398.8 124.5C398.8 124.7 398.7 125 398.6 125.3C398.3 126.1 398 127.1 397.7 128.4C397.4 129.7 397 131.1 396.6 132.8C396.3 134.2 396.1 135.2 396 136.1C395.9 136.9 395.8 137.5 395.8 137.8C395.8 138.1 395.8 138.3 395.9 138.4C396 138.5 396.1 138.6 396.3 138.6C396.4 138.6 396.7 138.4 397.3 137.9C397.9 137.4 398.7 136.7 399.8 135.8L400.7 138C400.5 138.2 400.3 138.4 400 138.6C399.7 138.8 399.4 139.1 399 139.4C398.8 139.6 398.6 139.8 398.4 140C398.2 140.2 397.9 140.5 397.6 140.8C397.3 141.1 397 141.4 396.7 141.8C396.4 142.1 396.1 142.4 395.8 142.7C395.4 143.1 395 143.4 394.7 143.6C394.4 143.8 394 143.9 393.7 143.9C393 143.9 392.5 143.7 392.1 143.3C391.7 142.9 391.6 142.2 391.6 141.4C391.6 140.5 391.6 139.7 391.7 139C391.8 138.3 391.9 137.8 392 137.3C392.1 137.2 392.1 137.1 392.1 137C392.1 136.8 392.1 136.6 392.2 136.3C392.2 136 392.3 135.7 392.4 135.3C392.5 134.7 392.6 134 392.7 133.4C392.9 133 393.1 132.6 393.3 132.2C393.3 132.1 393.2 132 393.1 132L392.9 132.1C392.7 132.5 392.3 132.9 392 133.3C391.7 133.7 391.2 134.2 390.6 134.6C389.8 135.4 388.9 136.2 388.1 137C388.1 137.1 388 137.2 387.8 137.4C387.7 137.6 387.5 137.8 387.4 138C387.3 137.8 387.2 137.6 387.1 137.3C387 137 386.9 136.7 386.7 136.3C386.7 136.2 386.6 136.1 386.6 136C386.5 135.8 386.4 135.8 386.3 135.7Z" fill="white"/>
<path d="M399.7 135.7C399.9 135.4 400.1 135 400.4 134.7C400.7 134.4 401.1 134 401.6 133.6C401.6 133.3 401.7 133 401.7 132.6C401.7 132.3 401.8 132 401.8 131.6C401.8 131.4 401.9 131.1 402 130.8C402.1 130.5 402.2 130.2 402.3 129.8C402.4 129.4 402.6 129 402.9 128.5C403.2 128 403.5 127.4 403.9 126.7C404.2 126.3 404.6 125.9 405 125.5C405.4 125.1 405.7 124.6 406.1 124.2C406.3 124.1 406.5 123.9 406.7 123.8C406.9 123.7 407.1 123.5 407.3 123.4C407.5 123.3 407.7 123.3 408 123.2C408.2 123.2 408.5 123.1 408.8 123.1C409.2 123.1 409.5 123.1 409.8 123.2C410 123.3 410.3 123.4 410.4 123.6C410.5 123.7 410.6 123.9 410.7 124.2C410.8 124.5 410.9 124.8 411 125.1C411 125.4 411.1 125.8 411.2 126.2C411.2 126.1 411.2 126.1 411.1 126.3C411 126.5 411 126.8 410.8 127.1L410.6 127.9C410.4 128.7 409.9 129.6 409.1 130.6C408.3 131.6 407.3 132.8 405.9 134.1C405.8 134.2 405.7 134.4 405.6 134.5C405.5 134.7 405.5 134.8 405.5 135C405.5 135.3 405.6 135.6 405.7 135.9C405.8 136.2 406 136.4 406.2 136.5C406.3 136.6 406.5 136.7 406.8 136.8C407.1 136.9 407.4 137 407.8 137.1C408.4 137.1 409 136.9 409.5 136.8C410 136.6 410.5 136.4 410.9 136.2C411 136.2 411.1 136.1 411.3 136C411.5 135.9 411.7 135.8 411.8 135.6C412 136.1 412.2 136.5 412.4 136.9C412.6 137.3 412.7 137.6 412.8 137.9C411.9 138.8 411.1 139.5 410.3 139.9C409.6 140.4 408.9 140.6 408.2 140.6C407.9 140.8 407.6 140.9 407.3 140.9C407 141 406.6 141 406.1 141C405.5 141 405 140.9 404.5 140.7C404 140.5 403.7 140.3 403.4 139.9C403.2 139.7 403.1 139.5 402.9 139.2C402.7 138.9 402.6 138.5 402.4 138.1C402.3 137.7 402.1 137.5 402 137.3C401.9 137.1 401.7 137 401.6 137C401.5 137 401.3 137.1 401.2 137.2C401 137.3 400.9 137.5 400.7 137.7C400.6 137.5 400.5 137.2 400.4 136.8C400.1 136.7 399.9 136.2 399.7 135.7ZM407.4 127.9C407 127.9 406.6 128.4 406 129.3C405.4 130.2 405.1 130.9 405.1 131.3C405.1 131.4 405.1 131.5 405.2 131.5C405.2 131.5 405.3 131.6 405.5 131.6C405.7 131.6 405.8 131.5 405.9 131.3C406 131.1 406.1 130.9 406.2 130.8C406.4 130.6 406.6 130.5 406.7 130.3C406.9 130.1 407 129.9 407.2 129.8C407.4 129.6 407.5 129.3 407.6 129.1C407.7 128.9 407.7 128.6 407.7 128.4C407.7 128.3 407.7 128.1 407.6 128.1C407.6 127.9 407.5 127.9 407.4 127.9Z" fill="white"/>
<path d="M411.7 135.7C411.8 135.5 412 135.3 412.1 135.1C412.2 134.9 412.4 134.6 412.7 134.3L414.3 132.9C414.4 132.9 414.4 132.8 414.4 132.7C414.4 132.6 414.4 132.5 414.4 132.4C414.4 132.2 414.4 132 414.3 131.9C414.3 131.5 414.4 130.9 414.5 130C414.6 129.1 414.8 128.6 414.9 128.4L414.8 127.9C415 126.8 415.3 125.6 415.7 124.4C416.1 123.1 416.5 121.7 417 120.2C417.2 119.9 417.3 119.6 417.5 119.2C417.7 118.8 417.9 118.4 418.1 117.9C418.4 117.1 418.7 116.2 419.2 115.3C419.7 114.4 420.2 113.4 420.7 112.5C421.5 111.2 422.1 110.3 422.7 109.6C423.3 108.9 423.8 108.6 424.3 108.6C425.2 108.6 425.9 108.8 426.2 109.1C426.5 109.5 426.7 110.1 426.7 111.1C426.7 111.4 426.7 111.8 426.6 112.3C426.5 112.8 426.5 113.2 426.5 113.5C426.5 113.8 426.4 114.2 426.2 114.7C426 115.2 425.9 115.7 425.9 116.1C425.9 116.2 425.8 116.4 425.8 116.5V116.8C425.7 117 425.6 117.3 425.5 117.6C425.4 117.9 425.2 118.3 425 118.8C424.9 119.2 424.7 119.7 424.6 120.2C424.4 120.7 424.2 121.3 424 121.9C423.9 122.1 423.8 122.3 423.6 122.5C423.4 122.7 423.3 123 423.1 123.3C423.1 123.5 423 123.8 422.9 124C422.8 124.2 422.6 124.6 422.4 125C422.3 125.2 422.2 125.4 422 125.6C421.8 125.8 421.6 126.1 421.4 126.5C421.3 126.7 421.2 126.9 421.1 127.1C421 127.3 420.9 127.6 420.7 127.9C420.5 128.2 420.3 128.5 420 128.9C419.7 129.3 419.4 129.8 419 130.3C418.5 131.2 418 132 417.5 132.8C417.5 134.4 417.8 135.5 418.4 136.3C419 137.1 419.9 137.5 421.2 137.5C421.3 137.5 421.5 137.4 421.9 137.3C422.3 137.2 422.9 137 423.6 136.8C423.8 136.7 424.1 136.5 424.3 136.3C424.6 136.1 424.9 135.8 425.3 135.5L426.2 137.7C425.8 138.1 425.4 138.4 424.9 138.8C424.4 139.2 424.1 139.6 423.6 139.9C423.1 140.3 422.6 140.6 422.1 140.9C421.6 141.1 421.1 141.2 420.6 141.2C420.3 141.2 419.9 141.2 419.4 141.1C418.9 141 418.5 141 418.2 141C417.3 141 416.6 140.6 416 139.9C415.4 139.2 415 138.1 414.8 136.6C414.8 136.5 414.7 136.3 414.7 136.2C414.6 136.1 414.5 136 414.4 135.8C414.2 136 413.9 136.3 413.7 136.5C413.4 136.8 413.1 137.1 412.7 137.5L411.7 135.7ZM423.2 116.8L423 116.7C422.1 117.6 421.4 118.4 421 119.2C420.5 120 420.3 120.7 420.3 121.4C420.3 121.5 420.2 121.7 420.1 122C420 122.3 419.8 122.6 419.6 123C419.3 123.5 419.1 124 418.8 124.6C418.5 125.5 418.3 126.2 418.1 126.8C417.9 127.4 417.9 127.8 417.9 128L418 128.2C418.1 128.2 418.3 128 418.5 127.8C418.7 127.6 419 127.1 419.2 126.6C419.3 126.3 419.5 126 419.8 125.6C420.1 125.2 420.3 124.8 420.6 124.2C420.9 123.8 421.3 122.9 421.8 121.5C422.4 120 422.7 119.1 422.7 118.7C422.7 118.4 422.8 118.1 422.8 117.7C422.8 117.3 423.2 117.1 423.2 116.8Z" fill="white"/>
<path d="M425.3 135.7C425.7 135.3 426.2 134.8 427 134.3C427.8 133.8 428.3 133.3 428.7 132.9C428.9 132.6 429.3 132.3 429.6 131.9C430 131.5 430.4 131 431 130.4C431.3 130.1 431.6 129.9 431.9 129.7C432.2 129.5 432.5 129.5 432.8 129.5C433.2 129.5 433.5 129.6 433.7 129.8C433.9 130 434 130.3 434 130.7C434 131.3 433.8 132.3 433.3 133.7C432.8 135.1 432.6 136.2 432.6 136.9C432.6 137.1 432.6 137.2 432.7 137.2C432.8 137.2 432.9 137.3 433 137.3H433.1C433.4 137.1 433.8 136.9 434.2 136.6C434.6 136.3 435.1 135.9 435.6 135.5C436 135.1 436.5 134.6 437.2 134C437.8 133.4 438.5 132.6 439.4 131.8C439.7 131.5 440.1 131.2 440.5 130.8C440.9 130.4 441.4 129.9 441.9 129.4C442.1 129.1 442.4 128.9 442.8 128.7C443.2 128.5 443.6 128.5 444.2 128.5C444.6 128.5 444.8 128.6 445 128.7C445.2 128.8 445.3 129 445.3 129.3C445.3 129.4 445.3 129.5 445.3 129.6C445.3 129.7 445.3 129.8 445.2 129.9C445.1 130.4 444.9 131 444.7 131.7C444.5 132.4 444.2 133.2 443.9 134.2C443.6 134.8 443.3 135.5 443 136.3C442.7 137.1 442.4 138 442 139L442.2 139.2C442.5 139 443 138.7 443.7 138.1C444.4 137.5 445.2 136.7 446.2 135.7L447.2 137.9C447.1 138 446.9 138.2 446.7 138.4C446.5 138.6 446.3 138.8 446 139C444.3 140.2 442.8 141.4 441.6 142.6C440.4 143.8 439.4 145 438.7 146.2C437.6 148 436.7 149.4 436 150.5C435.3 151.6 434.8 152.4 434.4 152.8C433.3 154.3 432.2 155.3 431.2 156.1C430.2 156.8 429.2 157.2 428.3 157.2C427.9 157.2 427.7 157.1 427.5 157C427.3 156.9 427.3 156.6 427.3 156.3C427.3 156.1 427.3 155.9 427.4 155.7C427.5 155.5 427.6 155.2 427.8 154.9C428.1 154.5 428.4 154 428.6 153.5L429.3 152.9C429.4 152.7 429.4 152.5 429.4 152.5C429.5 152.4 429.6 152.3 429.7 152.2C429.8 152.1 430 152 430.1 151.8C430.2 151.5 430.5 151 431 150.4C431.5 149.7 432.2 148.9 433.1 147.8C433.8 147 434.4 146.3 434.9 145.7C435.4 145.1 435.9 144.6 436.3 144.2C436.4 144.1 436.4 143.9 436.5 143.7C436.6 143.5 436.6 143.3 436.7 143.2C436.9 142.8 437.1 142.3 437.4 141.7C437.6 141.1 438 140.4 438.3 139.6C438.5 139.1 438.6 138.6 438.7 138C438.8 137.4 438.9 136.7 439 136C439 135.9 438.9 135.9 438.9 135.7C438.9 135.5 438.9 135.4 438.8 135.3C438.5 135.4 438.2 135.7 437.8 136C437.5 136.3 437.1 136.6 436.7 137C436.2 137.7 435.6 138.3 435.1 138.7C434.6 139.2 434 139.5 433.5 139.7C433.1 140.4 432.7 140.9 432.1 141.2C431.5 141.5 430.9 141.7 430.2 141.7C429.7 141.7 429.3 141.6 429 141.3C428.7 141 428.6 140.7 428.6 140.2C428.6 140.1 428.6 140 428.6 139.8C428.6 139.6 428.7 139.5 428.7 139.3C428.6 139.1 428.6 138.9 428.5 138.6C428.6 138.3 428.6 138 428.7 137.7C428.7 137.2 428.7 136.9 428.6 136.6C428.5 136.3 428.4 136.2 428.3 136.2H428.2C428 136.3 427.8 136.5 427.5 136.8C427.2 137.1 426.8 137.4 426.3 137.7C426.2 137.5 426.1 137.2 426 137C425.9 136.7 425.8 136.4 425.6 136C425.6 135.9 425.5 135.8 425.5 135.7C425.4 135.8 425.4 135.8 425.3 135.7Z" fill="white"/>
<rect width="112.4" height="28.7" fill="black" fill-opacity="0" transform="translate(453.1 120.2)"/>
<path d="M466.3 139.5C466 140 465.7 140.5 465.3 140.9C465 141.3 464.6 141.7 464.1 142.1C463.6 142.5 463.1 142.7 462.4 142.9C461.7 143.1 461 143.2 460.1 143.2C459.2 143.2 458.3 143 457.4 142.7C456.6 142.4 455.8 141.9 455.2 141.2C454.6 140.5 454 139.6 453.7 138.6C453.3 137.5 453.1 136.3 453.1 134.9C453.1 132.3 453.7 130.3 454.9 128.8C456.1 127.3 457.7 126.6 459.7 126.6C461.5 126.6 463 127.2 464.1 128.4C465.2 129.6 465.8 131.4 465.8 133.9V135.4H455.3C455.3 137.2 455.8 138.6 456.7 139.7C457.6 140.8 458.8 141.4 460.1 141.4C461.1 141.4 461.9 141.2 462.7 140.7C463.5 140.2 464.1 139.5 464.6 138.7L466.3 139.5ZM463.6 133.3C463.6 131.8 463.3 130.6 462.6 129.7C461.9 128.8 461 128.4 459.8 128.4C458.5 128.4 457.4 128.8 456.7 129.7C456 130.6 455.5 131.8 455.4 133.3H463.6Z" fill="white"/>
<path d="M471.4 126.8V129H471.5C472.2 128.2 472.9 127.6 473.7 127.2C474.5 126.8 475.4 126.5 476.2 126.5C477.5 126.5 478.6 126.9 479.5 127.6C480.4 128.4 480.8 129.6 480.8 131.2V142.9H478.6V131.2C478.6 130.2 478.4 129.4 477.9 129C477.4 128.6 476.8 128.3 475.9 128.3C475.1 128.3 474.3 128.5 473.5 129C472.7 129.5 471.9 130.1 471.3 130.7V142.8H469.1V126.7H471.4V126.8Z" fill="white"/>
<path d="M497.7 128.4C497.2 128.4 496.8 128.4 496.3 128.5C495.8 128.6 495.5 128.7 495.2 128.8C495.5 129.1 495.7 129.6 496 130.2C496.3 130.8 496.3 131.4 496.3 132.1C496.3 132.9 496.1 133.6 495.8 134.3C495.5 135 495.1 135.6 494.5 136.1C494 136.6 493.3 137 492.6 137.3C491.9 137.6 491.1 137.7 490.3 137.7C489.7 137.7 489.2 137.7 488.8 137.6C488.4 137.5 487.9 137.4 487.4 137.3C486.6 137.5 486.1 138 486.1 138.8C486.1 139.6 486.5 140 487.4 140C491.1 140 493.8 140.4 495.3 141.1C496.1 141.5 496.6 141.9 497 142.5C497.3 143.1 497.5 143.8 497.5 144.6C497.5 145.9 496.9 146.9 495.6 147.7C494.3 148.5 492.5 148.9 490.1 148.9C487.8 148.9 486.1 148.6 484.9 147.9C483.7 147.3 483.1 146.3 483.1 145C483.1 144.3 483.3 143.6 483.8 143.2C484.2 142.7 484.9 142.2 485.9 141.7C485.3 141.5 484.8 141.2 484.4 140.8C484 140.4 483.8 139.9 483.8 139.4C483.8 138.8 484 138.3 484.3 137.9C484.6 137.5 485.2 137.1 486 136.6C485.3 136 484.7 135.4 484.3 134.6C483.9 133.8 483.8 133 483.8 132.1C483.8 130.4 484.4 129.1 485.5 128C486.6 126.9 488.1 126.4 489.9 126.4C491.5 126.4 492.8 126.8 493.9 127.5C494.4 127.1 495 126.8 495.6 126.6C496.2 126.3 496.8 126.2 497.4 126.1V128.4H497.7ZM494.2 142.8C493.3 142.4 491.9 142.2 490 142.2C489.2 142.2 488.5 142.3 487.9 142.4C487.3 142.6 486.8 142.8 486.5 143.1C486.2 143.4 485.9 143.7 485.8 144C485.7 144.3 485.6 144.6 485.6 144.9C485.6 145.2 485.7 145.5 485.8 145.8C485.9 146 486.2 146.2 486.5 146.4C486.9 146.6 487.4 146.7 488.1 146.8C488.8 146.9 489.7 146.9 490.8 146.9C492.2 146.9 493.4 146.7 494.3 146.3C495.2 145.9 495.7 145.3 495.7 144.6C495.6 143.8 495.1 143.2 494.2 142.8ZM493.2 129.4C492.5 128.7 491.5 128.4 490.1 128.4C488.9 128.4 487.9 128.7 487.2 129.4C486.5 130.1 486.2 131 486.2 132.1C486.2 133.2 486.6 134.1 487.3 134.8C488.1 135.5 489.1 135.9 490.3 135.9C491.5 135.9 492.5 135.6 493.1 134.9C493.7 134.2 494.1 133.4 494.1 132.3C494.2 131 493.9 130.1 493.2 129.4Z" fill="white"/>
<path d="M499.2 129.9C499.8 128.9 500.5 128.1 501.6 127.4C502.6 126.8 503.8 126.5 505.3 126.5C506 126.5 506.7 126.6 507.4 126.8C508.1 127 508.7 127.3 509.2 127.7C509.7 128.1 510.1 128.6 510.5 129.2C510.9 129.8 511 130.6 511 131.4V139.5C511 140.3 511 141 511.1 141.5C511.2 142 511.3 142.5 511.4 143H509.1L508.9 140.8C508.2 141.5 507.5 142.1 506.6 142.6C505.7 143.1 504.7 143.3 503.6 143.3C502.3 143.3 501.2 142.9 500.3 142.1C499.4 141.3 499 140.2 499 138.8C499 137 499.7 135.7 501.2 134.7C502.7 133.7 505.2 132.9 508.8 132.3V131.4C508.8 130.4 508.5 129.6 507.9 129.2C507.3 128.8 506.5 128.5 505.5 128.5C504.4 128.5 503.5 128.8 502.8 129.3C502.1 129.8 501.6 130.4 501.4 131.1L499.2 129.9ZM508.6 134.2C503.5 135.1 501 136.6 501 138.8C501 139.5 501.3 140.1 501.8 140.6C502.4 141.1 503 141.3 503.6 141.3C504.4 141.3 505.2 141 506.2 140.5C507.1 140 507.9 139.4 508.6 138.6V134.2V134.2Z" fill="white"/>
<path d="M526.9 128.4C526.4 128.4 526 128.4 525.5 128.5C525 128.6 524.7 128.7 524.4 128.8C524.7 129.1 524.9 129.6 525.2 130.2C525.4 130.8 525.5 131.4 525.5 132.1C525.5 132.9 525.3 133.6 525.1 134.3C524.8 135 524.4 135.6 523.8 136.1C523.3 136.6 522.6 137 521.9 137.3C521.2 137.6 520.4 137.7 519.6 137.7C519 137.7 518.5 137.7 518.1 137.6C517.7 137.5 517.2 137.4 516.7 137.3C515.9 137.5 515.4 138 515.4 138.8C515.4 139.6 515.8 140 516.7 140C520.4 140 523.1 140.4 524.6 141.1C525.4 141.5 525.9 141.9 526.3 142.5C526.6 143.1 526.8 143.8 526.8 144.6C526.8 145.9 526.2 146.9 524.9 147.7C523.6 148.5 521.8 148.9 519.4 148.9C517.1 148.9 515.4 148.6 514.2 147.9C513 147.3 512.4 146.3 512.4 145C512.4 144.3 512.6 143.6 513.1 143.2C513.5 142.7 514.2 142.2 515.2 141.7C514.6 141.5 514.1 141.2 513.7 140.8C513.3 140.4 513.1 139.9 513.1 139.4C513.1 138.8 513.3 138.3 513.6 137.9C513.9 137.5 514.5 137.1 515.3 136.6C514.6 136 514 135.4 513.6 134.6C513.2 133.8 513.1 133 513.1 132.1C513.1 130.4 513.7 129.1 514.8 128C516 127 517.4 126.4 519.2 126.4C520.8 126.4 522.1 126.8 523.2 127.5C523.7 127.1 524.3 126.8 524.9 126.6C525.5 126.3 526.1 126.2 526.7 126.1V128.4H526.9ZM523.4 142.8C522.5 142.4 521.1 142.2 519.2 142.2C518.4 142.2 517.7 142.3 517.1 142.4C516.5 142.6 516 142.8 515.7 143.1C515.4 143.4 515.1 143.7 515 144C514.8 144.3 514.8 144.6 514.8 144.9C514.8 145.2 514.9 145.5 515 145.8C515.1 146 515.4 146.2 515.7 146.4C516 146.6 516.6 146.7 517.3 146.8C518 146.9 518.9 146.9 520 146.9C521.4 146.9 522.6 146.7 523.5 146.3C524.4 145.9 524.9 145.3 524.9 144.6C524.8 143.8 524.3 143.2 523.4 142.8ZM522.4 129.4C521.7 128.7 520.7 128.4 519.3 128.4C518.1 128.4 517.1 128.7 516.4 129.4C515.7 130.1 515.4 131 515.4 132.1C515.4 133.2 515.8 134.1 516.5 134.8C517.3 135.5 518.3 135.9 519.5 135.9C520.7 135.9 521.7 135.6 522.3 134.9C523 134.2 523.3 133.4 523.3 132.3C523.4 131 523.1 130.1 522.4 129.4Z" fill="white"/>
<path d="M532 120.2V122.9H529.8V120.2H532ZM529.8 126.8H532V142.9H529.8V126.8Z" fill="white"/>
<path d="M539.3 126.8V129H539.4C540.1 128.2 540.8 127.6 541.6 127.2C542.4 126.8 543.3 126.5 544.1 126.5C545.4 126.5 546.5 126.9 547.4 127.6C548.3 128.4 548.7 129.6 548.7 131.2V142.9H546.5V131.2C546.5 130.2 546.3 129.4 545.8 129C545.3 128.6 544.7 128.3 543.8 128.3C543 128.3 542.2 128.5 541.4 129C540.5 129.5 539.8 130.1 539.2 130.7V142.8H537V126.7H539.3V126.8Z" fill="white"/>
<path d="M565.5 128.4C565 128.4 564.6 128.4 564.1 128.5C563.6 128.6 563.3 128.7 563 128.8C563.3 129.1 563.5 129.6 563.8 130.2C564.1 130.8 564.1 131.4 564.1 132.1C564.1 132.9 564 133.6 563.7 134.3C563.4 135 563 135.6 562.4 136.1C561.9 136.6 561.2 137 560.5 137.3C559.8 137.6 559 137.7 558.2 137.7C557.6 137.7 557.1 137.7 556.7 137.6C556.3 137.5 555.8 137.4 555.3 137.3C554.5 137.5 554 138 554 138.8C554 139.6 554.4 140 555.3 140C559 140 561.7 140.4 563.2 141.1C564 141.5 564.5 141.9 564.9 142.5C565.3 143.1 565.4 143.8 565.4 144.6C565.4 145.9 564.8 146.9 563.5 147.7C562.3 148.5 560.4 148.9 558 148.9C555.7 148.9 554 148.6 552.8 147.9C551.6 147.3 551 146.3 551 145C551 144.3 551.2 143.6 551.7 143.2C552.1 142.7 552.8 142.2 553.8 141.7C553.2 141.5 552.7 141.2 552.3 140.8C551.9 140.4 551.7 139.9 551.7 139.4C551.7 138.8 551.9 138.3 552.2 137.9C552.5 137.5 553.1 137.1 553.9 136.6C553.2 136 552.6 135.4 552.2 134.6C551.8 133.8 551.7 133 551.7 132.1C551.7 130.4 552.3 129.1 553.4 128C554.6 127 556 126.4 557.8 126.4C559.4 126.4 560.7 126.8 561.8 127.5C562.3 127.1 562.9 126.8 563.5 126.6C564.1 126.3 564.7 126.2 565.3 126.1V128.4H565.5ZM562.1 142.8C561.2 142.4 559.8 142.2 557.9 142.2C557.1 142.2 556.4 142.3 555.8 142.4C555.2 142.6 554.7 142.8 554.4 143.1C554.1 143.4 553.8 143.7 553.7 144C553.5 144.3 553.5 144.6 553.5 144.9C553.5 145.2 553.6 145.5 553.7 145.8C553.8 146 554.1 146.2 554.4 146.4C554.8 146.6 555.3 146.7 556 146.8C556.7 146.9 557.6 146.9 558.7 146.9C560.1 146.9 561.3 146.7 562.2 146.3C563.1 145.9 563.6 145.3 563.6 144.6C563.4 143.8 563 143.2 562.1 142.8ZM561 129.4C560.3 128.7 559.3 128.4 557.9 128.4C556.7 128.4 555.7 128.7 555 129.4C554.3 130.1 554 131 554 132.1C554 133.2 554.4 134.1 555.1 134.8C555.9 135.5 556.9 135.9 558.1 135.9C559.3 135.9 560.3 135.6 560.9 134.9C561.5 134.2 561.9 133.4 561.9 132.3C562.1 131 561.7 130.1 561 129.4Z" fill="white"/>
<rect width="101.3" height="129.7" fill="black" fill-opacity="0" transform="translate(0.6 0.1)"/>
<rect width="72.7" height="58.5" fill="black" fill-opacity="0" transform="translate(18.5 71.3)"/>
<path d="M87.2 84.8C85.8 82.3 84.5 79.8 83.3 77.3L82.1 76.8C82.2 77 82.2 77.1 82.3 77.3C83.7 80.1 85.1 82.8 86.6 85.5L87.2 84.8Z" fill="white"/>
<path d="M27.2 115.8L25.8 118.7L28.2 117.8L27.2 115.8Z" fill="white"/>
<path d="M36.6 95.8C42.1 107.6 48.7 118.9 56.2 129.8L56.6 128.8C49.3 118.2 42.9 107.1 37.4 95.5L36.6 95.8Z" fill="white"/>
<path d="M21 98.2L18.5 103L22.4 101.4C21.9 100.4 21.4 99.3 21 98.2Z" fill="white"/>
<path d="M39.7 113.5C37.6 109.8 35.6 106.1 33.8 102.3L33.3 103.3C35.1 106.9 36.9 110.4 38.9 113.8L39.7 113.5Z" fill="white"/>
<path d="M39 94.8C36.2 88.4 33.7 81.8 31.6 75.1L28.5 76.3C30.9 82.9 33.6 89.4 36.6 95.7L39 94.8Z" fill="white"/>
<path d="M33.2 97.1C31.4 92.9 29.7 88.6 28.1 84.3L26.3 87.9C27.7 91.3 29.2 94.7 30.8 98.1L33.2 97.1Z" fill="white"/>
<path d="M30.5 109.1L30 110.1C31 112.1 32.1 114 33.2 115.9L34.1 115.6C32.8 113.4 31.6 111.3 30.5 109.1Z" fill="white"/>
<path d="M27.6 99.4C26.5 96.8 25.4 94.2 24.4 91.6L22.7 94.9C23.5 96.7 24.3 98.5 25.2 100.3L27.6 99.4Z" fill="white"/>
<path d="M91.2 101.6C86.1 93.2 81.2 84.3 77.4 75.3L74 74.1C74.1 74.3 74.1 74.5 74.2 74.7C76.7 80.3 80.5 89.1 88 100.6L91.2 101.6Z" fill="white"/>
<path d="M73.5 95.4C69.6 87.8 65.8 79.8 62.9 71.8L61.3 75.8C63.9 82 66.9 88.1 70.2 94.1C74 101 78.2 107.7 82.8 114.2C83.5 115.2 84.3 116.3 85 117.3L86.1 117.7L85.5 116.4C84.8 115.5 84.2 114.6 83.6 113.7C79.2 107.5 75.2 101.1 71.6 94.6L73.5 95.4Z" fill="white"/>
<path d="M37.3 72.9L34.3 74.1C34.3 74.2 34.3 74.3 34.4 74.4C37.7 83.5 43.6 98.3 55.1 116.8C55.1 116.8 57.7 120.8 59 122.8L59.4 121.8C58.1 119.8 56.8 117.8 55.5 115.7L56 114.3C48.3 100.9 42 87.3 37.3 72.9Z" fill="white"/>
<path d="M79.2 97.4L82.2 98.5C77.5 90.2 73.1 81.4 69.7 72.6L66.1 71.3C69.8 80.3 74.1 89 79.2 97.4Z" fill="white"/>
<path d="M59.4 80.2L58 83.8C59.7 87.5 61.6 91.1 63.5 94.8C66.9 101.2 70.7 107.4 74.8 113.5L76.3 114C71.8 107.4 67.7 100.6 64 93.6L64.6 91.9C62.7 88.1 61 84.2 59.4 80.2Z" fill="white"/>
<path d="M56.2 88.8L54.9 92.1C56.7 95.7 58.6 99.3 60.5 102.8C62 105.4 63.5 108 65.1 110.6L66.5 111.1C64.5 108 62.7 104.8 60.9 101.7L61.6 100C59.7 96.2 57.9 92.7 56.2 88.8Z" fill="white"/>
<path d="M58.7 107.4C56.7 103.8 54.8 100.5 53 96.8L51.9 99.7C53.7 103.2 55.6 106.6 57.7 110C58.9 112.1 60.2 114.2 61.5 116.2L61.9 115.1C60.6 113 59.3 110.9 58.1 108.9L58.7 107.4Z" fill="white"/>
<rect width="101.3" height="99.8" fill="black" fill-opacity="0" transform="translate(0.6 0.1)"/>
<path d="M82.2 42.8L83 43.1C82.8 42.5 82.7 41.8 82.5 41.2L82.2 42.8Z" fill="white"/>
<path d="M10.5 36.7L6.1 37.6C6.4 39.3 6.6 40.9 6.9 42.6L11.8 45.7C11.3 42.6 10.9 39.6 10.5 36.7Z" fill="white"/>
<path d="M0.6 38.6L4.9 41.2C4.7 40.1 4.6 38.9 4.4 37.8L0.6 38.6Z" fill="white"/>
<path d="M21.3 51.5L26 54.4C24.6 47.7 23.4 41 22.6 34.2L18.2 35.1C19 40.2 19.9 45.3 21.1 50.4C21.2 50.8 21.3 51.2 21.3 51.5Z" fill="white"/>
<path d="M23.5 60.4C25 65.9 26.6 71.3 28.5 76.6L31.6 75.4C29.5 68.8 27.8 62.1 26.3 55.3L23.5 60.4Z" fill="white"/>
<path d="M18.8 49.9C17.9 45.1 17.1 40.3 16.5 35.4L12.1 36.3C12.6 39.8 13.3 43.4 14 46.9L18.8 49.9Z" fill="white"/>
<path d="M19.3 68.3C20.3 71.8 21.5 75.3 22.7 78.8L25.8 77.6C24.3 73 23 68.3 21.9 63.6L19.3 68.3Z" fill="white"/>
<path d="M47.8 36C47.3 32.5 46.9 29 46.5 25.5L43.2 31.2L47.8 36Z" fill="white"/>
<path d="M34.6 30.1C33.8 23 33.4 15.9 33.3 8.7L28 4.6C28.2 14 29 23.3 30.3 32.5L34.6 30.1Z" fill="white"/>
<path d="M39.5 27.7L40.5 27.3C40 22.7 39.7 18.2 39.5 13.6L34.3 9.5C34.5 13.7 34.8 18 35.2 22.2L39.5 27.7Z" fill="white"/>
<path d="M46.5 24.8C46.3 22.8 46.1 20.7 46 18.7L40.8 14.6C41.1 18.6 41.5 22.7 42 26.7L46.5 24.8Z" fill="white"/>
<path d="M65.5 28.3C64.6 21.2 64.2 14.1 64.1 6.9L59.3 12.2C59.9 21.6 61.2 31 63.2 40.1H64.1L65.5 28.3Z" fill="white"/>
<path d="M74.2 74.6L77.6 75.9C76 71.9 74.5 67.8 73.2 63.6L71.1 66.9C72.1 69.5 73.1 72.1 74.2 74.6Z" fill="white"/>
<path d="M58.1 13.6L53.6 18.6C54.3 26 55.4 33.3 57 40.6L61.1 40.4C59.4 31.5 58.4 22.6 58.1 13.6Z" fill="white"/>
<path d="M66.3 71.7L69.9 73.1C68.1 68.3 66.6 63.5 65.2 58.6L61.7 59C63.1 63.2 64.6 67.4 66.3 71.7Z" fill="white"/>
<path d="M60.4 49.6L58.6 47.8C58.9 48.9 59.1 49.9 59.4 51L60.4 49.6Z" fill="white"/>
<path d="M24.2 33.9C26.3 47.6 29.6 61.1 34.2 74.3L37.3 73.1C33.2 60 30.3 46.6 28.6 33L24.2 33.9Z" fill="white"/>
<path d="M92.9 31C93.4 33.5 94 36 94.6 38.4L97.8 35.1C97.5 33.7 97.3 32.3 97.1 31H92.9Z" fill="white"/>
<path d="M92.6 40.5C91.9 37.4 91.3 34.2 90.8 31H86.6C87.4 35.2 88.4 39.4 89.5 43.6L92.6 40.5Z" fill="white"/>
<path d="M83 43.1L87.2 44.6C86.1 40.1 85.3 35.6 84.6 31H84.3L82.6 41.2C82.7 41.8 82.8 42.4 83 43.1Z" fill="white"/>
<path d="M80.3 31C80.4 31.6 80.5 32.3 80.7 32.9L83.7 31H80.3Z" fill="white"/>
<path d="M99.2 31C99.4 31.7 99.5 32.5 99.7 33.2L101.9 31H99.2Z" fill="white"/>
<path d="M75.3 60.3C77.4 66.2 79.7 72 82.4 77.7L85.6 78.9C83.1 73.1 80.9 67.3 79 61.3L75.6 59.9L75.3 60.3Z" fill="white"/>
<path d="M70.4 1.3L70.3 0.1L65.2 5.7C65.5 13.9 66.3 22.1 67.6 30.2L72.9 36.1C71 24.7 70.1 13 70.4 1.3Z" fill="white"/>
<path d="M78.3 31H74C74.3 32.8 74.7 34.6 75 36.4L78.7 34.1C78.6 33 78.5 32 78.3 31Z" fill="white"/>
<path d="M90.9 80.9L93.8 82C91.1 76.3 88.7 70.4 86.6 64.5L82.9 63C85.2 69 87.8 75 90.9 80.9Z" fill="white"/>
<path d="M40.4 35.5L38.1 41.3C41.5 58.8 47.2 75.9 55 92.2L56.3 89C49 71.9 44.1 54 41.5 35.7L40.4 35.5Z" fill="white"/>
<path d="M30.4 33.3C33.9 56.4 41.1 78.8 51.9 99.9L53.1 97C44 77.1 38 56 35.1 34.5L30.4 33.3Z" fill="white"/>
<path d="M11.3 83.1L14.3 81.9C14 81 13.7 80 13.4 79.1L11.3 83.1Z" fill="white"/>
<path d="M43.4 36C46.3 52.6 51.3 68.8 58.2 84.3L59.6 80.7C54.1 66.5 50.2 51.7 47.9 36.7L43.4 36Z" fill="white"/>
<path d="M15.2 75.8C15.8 77.5 16.3 79.2 16.9 80.9L20 79.7C19.1 76.9 18.3 74.2 17.5 71.4L15.2 75.8Z" fill="white"/>
<path d="M55.6 44.8L51.7 40.8L54.8 40.6C53.6 33.8 52.7 26.9 52.2 19.9L50.3 22L47.4 19.7C48.7 32.5 51.1 45.1 54.8 57.4L57.5 53.6C56.8 50.7 56.2 47.8 55.6 44.8Z" fill="white"/>
<path d="M61.5 76.2L63.1 72.2C61.6 67.9 60.2 63.5 59 59.1L55.5 59.5C57.2 65.2 59.2 70.7 61.5 76.2Z" fill="white"/>
</svg>
