<svg id="Layer_1" xmlns="http://www.w3.org/2000/svg" viewBox="0 0 352.2 352.3"><style>.st0{fill:#fff}.st1{fill:#000}</style><g id="Group_59" transform="translate(4479.992 -3492.008)"><path id="Path_12" class="st0" d="M-4209.2 3685.2c0-21-17-38-38-38s-38 17-38 38 17 38 38 38 38-17 38-38"/></g><path class="st0" d="M337.4 210.1c0-.7-.7-.8-1.3-.8H335v1.7h1.1c.7 0 1.3 0 1.3-.9z"/><circle class="st0" cx="176.1" cy="176.1" r="176.1"/><path class="st1" d="M103.3 183.9H45.4s-1.4-2.1-1.4-6.4c0-4.3 1.4-6.5 1.4-6.5h44.3C87 158.7 76 149.5 62.9 149.5c-15.2 0-27.6 12.4-27.6 27.6 0 15.2 12.4 27.6 27.6 27.6 7.8 0 14.8-3.2 19.8-8.4h16.5c-6.9 13-20.5 21.9-36.3 21.9-22.7 0-41-18.4-41-41 0-22.7 18.4-41 41-41 22.7 0 41 18.4 41 41 0 2.2-.2 4.5-.6 6.7zm26.6 32.8h-15.2v-91.2s2.5-1.7 7.5-1.7c5.1 0 7.6 1.7 7.6 1.7v91.2zm31.8 0h-15.2v-91.2s2.5-1.7 7.5-1.7c5.1 0 7.6 1.7 7.6 1.7v91.2zm51.7 1.4c-22.7 0-41-18.4-41-41 0-22.7 18.4-41 41-41 22.7 0 41 18.4 41 41 0 2.3-.2 4.6-.6 6.8h-57.9s-1.4-2.1-1.4-6.4c0-4.3 1.4-6.5 1.4-6.5h44.3c-2.8-12.3-13.8-21.5-26.9-21.5-15.2 0-27.6 12.4-27.6 27.6 0 15.2 12.4 27.6 27.6 27.6 7.8 0 14.8-3.2 19.8-8.4h16.5c-6.8 13-20.5 21.8-36.2 21.8z"/><path class="st1" d="M308.6 216.7l-20.4-27.3-20.4 27.3H249l29.8-39.9-29.8-39.9h18.8l20.4 27.3 20.4-27.3h18.7l-29.8 39.9 29.8 39.9zm27.4.3c-2.9 0-5.4-2.3-5.4-5.6s2.6-5.6 5.4-5.6c2.9 0 5.4 2.2 5.4 5.6 0 3.3-2.5 5.6-5.4 5.6z"/><path class="st0" d="M336 207c-2.3 0-4.1 1.8-4.1 4.4 0 2.6 1.8 4.4 4.1 4.4s4.1-1.8 4.1-4.4c0-2.6-1.8-4.4-4.1-4.4zm1.4 7.5l-1.5-2.6h-.9v2.6h-1.1v-6.1h2.3c1.5 0 2.3.5 2.3 1.8 0 1.1-.7 1.5-1.5 1.6l1.6 2.7h-1.2z"/><path class="st0" d="M337.4 210.1c0-.7-.7-.8-1.3-.8H335v1.7h1.1c.7 0 1.3 0 1.3-.9z"/></svg>