<svg width="152" height="35" viewBox="0 0 152 35" fill="none" xmlns="http://www.w3.org/2000/svg">
<rect width="151.999" height="35.0005" fill="black" fill-opacity="0" transform="translate(0.00106832 -0.000495788)"/>
<rect width="151.999" height="35.0005" fill="black" fill-opacity="0" transform="translate(0.00106832 -0.000495788)"/>
<path fill-rule="evenodd" clip-rule="evenodd" d="M15.91 12.252L16.21 12.147C16.326 12.107 16.44 12.083 16.599 12.049L16.673 12.032C16.728 12.02 16.785 12.006 16.837 12C16.8892 11.9952 16.9408 11.9851 16.991 11.97C17.143 11.95 17.296 11.94 17.433 11.932L17.967 11.934L18.058 11.939C18.2 11.946 18.342 11.952 18.5 11.977L18.564 11.989C18.6224 11.9924 18.6803 12.0015 18.737 12.016C18.953 12.06 19.1666 12.1151 19.377 12.181L19.657 12.281C19.9713 12.4024 20.2728 12.5549 20.557 12.736C20.626 12.78 20.696 12.824 20.762 12.874L20.847 12.934C20.892 12.966 20.937 12.998 20.976 13.028L21.239 13.245C21.568 13.535 21.848 13.843 22.089 14.185L22.199 14.344C22.254 14.43 22.31 14.516 22.369 14.616C22.4649 14.7916 22.5543 14.9708 22.637 15.153C22.672 15.24 22.707 15.323 22.737 15.405C22.751 15.453 22.767 15.503 22.799 15.588C22.809 15.621 22.82 15.655 22.823 15.658C22.839 15.72 22.855 15.776 22.873 15.835L22.891 15.905C22.8948 15.9281 22.9015 15.9506 22.911 15.972L23.031 16.643C23.031 16.66 23.033 16.723 23.041 16.746L23.049 16.846C23.053 16.902 23.057 16.96 23.061 16.991C23.061 17.016 23.061 17.047 23.063 17.086C23.067 17.154 23.068 17.22 23.064 17.295C23.064 17.369 23.064 17.435 23.061 17.526L23.053 17.576C23.0467 17.6634 23.039 17.7508 23.03 17.838L23.02 17.923L23.015 17.97C23.0097 17.9981 23.0064 18.0265 23.005 18.055L22.993 18.101C22.9776 18.2019 22.9593 18.3022 22.938 18.402L22.923 18.452C22.9182 18.4801 22.9116 18.5078 22.903 18.535L22.881 18.625C22.8587 18.7111 22.8347 18.7968 22.809 18.882L22.752 19.034C22.6892 19.2124 22.6161 19.3871 22.533 19.557L15.009 32.651C14.8048 33.0118 14.7509 33.4385 14.8591 33.8386C14.9673 34.2388 15.2288 34.5803 15.587 34.789C15.833 34.93 16.097 35.001 16.375 35C16.6496 34.9978 16.9189 34.9241 17.1564 34.7861C17.3938 34.6481 17.5912 34.4505 17.729 34.213L24.162 23.023L25.544 30.804C25.682 31.557 26.334 32.104 27.094 32.098C27.187 32.098 27.281 32.088 27.362 32.07C27.5652 32.0348 27.7594 31.9595 27.9331 31.8484C28.1069 31.7373 28.2568 31.5927 28.374 31.423C28.614 31.081 28.704 30.664 28.631 30.254L26.37 17.542L32.428 22.616C33.07 23.144 34.106 23.054 34.636 22.412C34.7687 22.2548 34.8688 22.0728 34.9304 21.8766C34.992 21.6804 35.014 21.4738 34.995 21.269C34.9772 21.0643 34.9188 20.8652 34.8234 20.6832C34.7279 20.5012 34.5973 20.34 34.439 20.209L24.539 11.924L32.445 11.914C32.8597 11.9103 33.2561 11.7431 33.5482 11.4488C33.8403 11.1544 34.0045 10.7567 34.005 10.342C34.0026 9.9261 33.8359 9.528 33.5413 9.23447C33.2466 8.94094 32.8479 8.77578 32.432 8.775L19.53 8.795L25.576 3.705C25.892 3.436 26.0886 3.05283 26.1229 2.63926C26.1572 2.2257 26.0264 1.81537 25.759 1.498C25.4909 1.18189 25.1088 0.984464 24.6958 0.948693C24.2829 0.912922 23.8725 1.0417 23.554 1.307L13.684 9.621L15.042 1.836C15.0776 1.6336 15.0727 1.42613 15.0276 1.22564C14.9824 1.02514 14.8979 0.8356 14.779 0.668C14.601 0.413798 14.3515 0.218144 14.0622 0.105816C13.7729 -0.00651264 13.4568 -0.0304635 13.1538 0.0369963C12.8509 0.104456 12.5748 0.260292 12.3605 0.48477C12.1462 0.709248 12.0033 0.992272 11.95 1.298L9.736 14.018L5.773 7.181C5.56403 6.82109 5.2207 6.55889 4.81849 6.452C4.41627 6.34512 3.98807 6.40231 3.628 6.611C3.27042 6.82086 3.01009 7.16333 2.90355 7.56402C2.79701 7.96471 2.85287 8.39126 3.059 8.751L9.531 19.921L2.104 17.231C1.93092 17.1681 1.74816 17.1359 1.564 17.136C1.24229 17.1388 0.929137 17.24 0.666559 17.4258C0.40398 17.6117 0.20454 17.8735 0.095 18.176C-0.047 18.572 -0.028 18.999 0.152 19.377C0.329 19.754 0.644 20.039 1.035 20.177L13.175 24.579L5.754 27.293C5.361 27.433 5.047 27.723 4.871 28.1C4.694 28.48 4.676 28.907 4.819 29.298C4.96197 29.6888 5.25391 30.0072 5.63096 30.1833C6.00802 30.3595 6.43949 30.3791 6.831 30.238L17.668 26.268L20.099 22.042L19.222 22.359C19.132 22.392 19.034 22.413 18.937 22.436L18.815 22.454L18.797 22.463C18.779 22.468 18.759 22.471 18.74 22.475L18.65 22.493L18.56 22.511C18.538 22.516 18.523 22.517 18.486 22.521C18.273 22.5504 18.0588 22.5694 17.844 22.578H17.729C17.4755 22.5778 17.2224 22.5578 16.972 22.518L16.848 22.496L16.756 22.479C16.5825 22.4432 16.4107 22.3998 16.241 22.349L15.702 22.159L15.65 22.137C15.5383 22.0932 15.4291 22.0431 15.323 21.987L15.189 21.92C15.153 21.9048 15.1188 21.8856 15.087 21.863C14.8785 21.7424 14.6777 21.6088 14.486 21.463L14.298 21.309L14.294 21.311C14.2768 21.2889 14.2566 21.2694 14.234 21.253C14.192 21.215 14.147 21.173 14.134 21.169C14.1146 21.1468 14.0939 21.1257 14.072 21.106L14.035 21.07C14.005 21.04 13.975 21.013 13.944 20.98C13.8751 20.9117 13.8093 20.8403 13.747 20.766L13.702 20.714C13.6424 20.6465 13.5857 20.5764 13.532 20.504L13.501 20.466C13.489 20.45 13.476 20.431 13.481 20.445C13.4227 20.3611 13.366 20.2761 13.311 20.19L13.009 19.671C12.9517 19.5665 12.8993 19.4594 12.852 19.35L12.792 19.214C12.7803 19.1915 12.7702 19.1681 12.762 19.144L12.747 19.089C12.71 18.9954 12.678 18.8999 12.651 18.803L12.614 18.685L12.612 18.683C12.605 18.658 12.598 18.633 12.592 18.605L12.58 18.558L12.554 18.448C12.544 18.41 12.534 18.372 12.522 18.306C12.5084 18.2429 12.4957 18.1795 12.484 18.116C12.483 18.0857 12.4793 18.0556 12.473 18.026C12.4643 17.9695 12.457 17.9128 12.451 17.856L12.444 17.769C12.4367 17.6891 12.4307 17.6091 12.426 17.529L12.416 17.366C12.415 17.246 12.414 17.122 12.424 16.998L12.435 16.818C12.441 16.769 12.446 16.719 12.445 16.697L12.575 15.944L12.588 15.897C12.6 15.855 12.613 15.811 12.618 15.785C12.646 15.699 12.673 15.609 12.682 15.556L12.711 15.497C12.771 15.317 12.847 15.137 12.951 14.927L12.98 14.868C13.0062 14.8107 13.0356 14.755 13.068 14.701C13.153 14.535 13.254 14.38 13.378 14.197C13.438 14.115 13.498 14.031 13.589 13.921L13.624 13.879C13.65 13.846 13.678 13.814 13.708 13.782L13.755 13.728C13.871 13.595 14.005 13.461 14.125 13.346L14.515 13.014C14.538 12.999 14.559 12.982 14.588 12.96C14.626 12.93 14.664 12.905 14.723 12.867C14.755 12.843 14.793 12.819 14.833 12.793L14.877 12.765C14.927 12.73 14.98 12.698 15.034 12.665L15.16 12.592C15.214 12.564 15.27 12.532 15.323 12.508L15.371 12.482C15.405 12.463 15.436 12.445 15.493 12.422C15.606 12.371 15.716 12.322 15.847 12.27L15.911 12.253L15.91 12.252Z" fill="#3AD4A7"/>
<path fill-rule="evenodd" clip-rule="evenodd" d="M57.733 24.02C57.5101 23.867 57.3272 23.6627 57.1996 23.4243C57.0721 23.1859 57.0036 22.9204 57 22.65C57 21.705 57.814 20.97 58.838 20.97C59.347 20.97 59.705 21.137 59.962 21.298C61.312 22.224 62.787 22.789 64.522 22.789C66.122 22.789 67.097 22.196 67.097 21.231V21.182C67.097 20.261 66.483 19.793 63.499 19.084C59.906 18.237 57.586 17.311 57.586 14.03V13.987C57.586 10.985 60.19 9 63.833 9C66.001 9 67.888 9.52 69.491 10.47C69.927 10.702 70.358 11.198 70.358 11.91C70.358 12.85 69.54 13.585 68.52 13.585C68.139 13.585 67.836 13.485 67.534 13.325C66.231 12.615 65.004 12.212 63.783 12.212C62.273 12.212 61.488 12.851 61.488 13.655V13.697C61.488 14.785 62.252 15.139 65.334 15.87C68.956 16.743 71 17.95 71 20.835V20.881C71 24.161 68.292 26 64.445 26C62.102 26 59.725 25.338 57.733 24.02" fill="#273036"/>
<path fill-rule="evenodd" clip-rule="evenodd" d="M79.975 17.5C81.925 17.5 83.058 16.391 83.058 14.952V14.905C83.058 13.236 81.842 12.347 79.904 12.347H76.894V17.5H79.974H79.975ZM73 10.856C73 9.816 73.855 9 74.947 9H80.227C84.45 9 87 11.383 87 14.831V14.879C87 18.776 83.821 20.795 79.85 20.795H76.893V24.149C76.893 25.184 76.033 26 74.947 26C73.855 26 73 25.184 73 24.149V10.856Z" fill="#273036"/>
<path fill-rule="evenodd" clip-rule="evenodd" d="M102.108 17.543V17.504C102.108 14.684 99.98 12.335 96.976 12.335C93.983 12.335 91.894 14.637 91.894 17.457V17.504C91.894 20.32 94.025 22.666 97.03 22.666C100.029 22.666 102.108 20.369 102.108 17.543V17.543ZM88 17.543V17.504C88 12.829 91.806 9 97.03 9C102.254 9 106 12.774 106 17.457V17.504C106 22.17 102.204 26 96.976 26C91.751 26 88 22.223 88 17.543Z" fill="#273036"/>
<path fill-rule="evenodd" clip-rule="evenodd" d="M107 10.84C107 9.81 107.819 9 108.843 9C109.086 8.99761 109.326 9.04351 109.551 9.13503C109.776 9.22656 109.98 9.36187 110.152 9.5331C110.324 9.70433 110.46 9.90806 110.553 10.1324C110.645 10.3568 110.692 10.5973 110.691 10.84V16.45L117.481 9.718C117.945 9.272 118.394 9 119.037 9C120.067 9 120.737 9.786 120.737 10.69C120.737 11.272 120.472 11.704 120.067 12.08L115.351 16.473L120.499 22.919C120.786 23.281 121 23.664 121 24.213C121 25.24 120.21 26 119.133 26C118.415 26 117.983 25.65 117.577 25.122L112.789 18.868L110.691 20.82V24.165C110.692 24.4073 110.644 24.6472 110.551 24.871C110.459 25.0948 110.322 25.298 110.15 25.4687C109.979 25.6394 109.774 25.7742 109.55 25.8654C109.326 25.9566 109.085 26.0024 108.843 26C108.601 26.0021 108.361 25.9562 108.137 25.8648C107.913 25.7734 107.709 25.6385 107.538 25.4678C107.366 25.297 107.231 25.094 107.138 24.8703C107.046 24.6467 106.999 24.407 107 24.165V10.84Z" fill="#273036"/>
<path fill-rule="evenodd" clip-rule="evenodd" d="M125 24.132V10.872C125 9.824 125.818 9 126.856 9H136.21C137.125 9 137.873 9.753 137.873 10.673C137.873 11.603 137.125 12.332 136.21 12.332H128.692V15.779H135.123C136.043 15.779 136.787 16.531 136.787 17.456C136.787 18.381 136.044 19.1 135.123 19.1H128.693V22.675H136.335C137.253 22.675 138 23.428 138 24.353C138 24.5707 137.956 24.7862 137.872 24.987C137.788 25.1878 137.665 25.37 137.51 25.5231C137.356 25.6762 137.172 25.7972 136.97 25.879C136.769 25.9609 136.553 26.002 136.335 26H126.856C126.611 26.0019 126.368 25.9548 126.141 25.8614C125.914 25.7681 125.708 25.6303 125.535 25.4563C125.362 25.2823 125.226 25.0756 125.134 24.8482C125.042 24.6207 124.997 24.3773 125 24.132" fill="#273036"/>
<path fill-rule="evenodd" clip-rule="evenodd" d="M138.73 24.02C138.506 23.8681 138.323 23.664 138.196 23.4253C138.068 23.1866 138.001 22.9205 138 22.65C138 21.705 138.814 20.97 139.833 20.97C140.347 20.97 140.7 21.137 140.957 21.298C142.307 22.224 143.787 22.789 145.529 22.789C147.128 22.789 148.102 22.196 148.102 21.231V21.182C148.102 20.261 147.489 19.793 144.509 19.084C140.901 18.237 138.582 17.311 138.582 14.03V13.987C138.582 10.985 141.185 9 144.836 9C147.005 9 148.894 9.52 150.501 10.47C150.938 10.702 151.365 11.198 151.365 11.91C151.365 12.85 150.55 13.585 149.53 13.585C149.15 13.585 148.838 13.485 148.534 13.325C147.236 12.615 146.013 12.212 144.791 12.212C143.278 12.212 142.487 12.851 142.487 13.655V13.697C142.487 14.785 143.254 15.139 146.339 15.87C149.968 16.743 152 17.951 152 20.835V20.881C152 24.161 149.302 26 145.444 26C143.094 26 140.721 25.338 138.73 24.02Z" fill="#273036"/>
<path fill-rule="evenodd" clip-rule="evenodd" d="M50.817 16.784C50.817 16.784 49.99 17.3 48.269 17.17C47.203 17.09 45.757 16.303 45.757 14.532C45.757 13.178 46.977 12.287 48.269 12.255C50.264 12.208 51.126 13.288 51.219 14.512C51.334 16.019 50.817 16.784 50.817 16.784ZM48.337 9C44.6 9 42 11.696 42 14.665C42 17.361 44.247 19.783 47.277 19.783C48.77 19.783 49.884 19.032 49.884 19.032C48.772 20.684 46.605 22.119 45.489 23.15C45.252 23.37 45.043 23.612 44.944 23.915C44.894 24.063 44.86 24.215 44.86 24.375C44.86 25.272 45.663 26 46.656 26C47.114 26 47.526 25.838 47.846 25.583C47.8691 25.5685 47.8915 25.5528 47.913 25.536C50.447 23.728 55 19.897 55 14.666C55 11.626 52.222 9 48.338 9H48.337Z" fill="#273036"/>
</svg>
