<svg width="240" height="70" viewBox="0 0 240 70" fill="none" xmlns="http://www.w3.org/2000/svg">
<path d="M27.8205 32.6368H32.6368C31.6817 15.0584 17.558 0.934802 4.96137e-06 0V4.81626C14.9365 5.75107 26.8857 17.7003 27.8205 32.6368Z" transform="translate(207.363)" fill="#48BDE7"/>
<path d="M32.6368 4.81626V0C15.0584 0.955124 0.934805 15.0788 2.48069e-06 32.6368H4.81627C5.73075 17.7003 17.68 5.75107 32.6368 4.81626Z" transform="translate(170.946)" fill="#48BDE7"/>
<path d="M4.81626 -6.20172e-07H-4.96137e-06C0.955119 17.5784 15.0788 31.702 32.6368 32.6368V27.8205C17.7003 26.9061 5.75106 14.9568 4.81626 -6.20172e-07Z" transform="translate(170.926 36.4167)" fill="#48BDE7"/>
<path d="M10.6893 18.188C15.4039 15.5462 19.1228 13.4733 19.1228 8.16936C19.1228 3.3531 15.3836 6.20172e-07 10.0186 6.20172e-07C4.45047 6.20172e-07 0.528362 3.98307 0.467396 9.69349V10.3641H5.0398L5.06013 9.71382C5.16174 4.77562 8.57579 4.24725 10.0186 4.24725C14.2862 4.24725 14.6114 7.25488 14.6114 8.16936C14.6114 10.3641 13.7782 11.5021 8.51483 14.3675C4.20661 16.6842 -2.48069e-06 19.4683 -2.48069e-06 25.5851V27.8612H18.9806V23.4717H4.83658C5.40559 21.5005 7.53939 19.956 10.6893 18.188Z" transform="translate(184.785 20.3828)" fill="#48BDE7"/>
<path d="M10.039 8.63676C8.63677 8.63676 7.25488 8.96191 6.03557 9.57156L6.74683 4.34886H17.4564V0H2.78408L0.934802 14.6114L4.71465 16.0745L5.01948 15.6275C6.13718 13.9814 7.94582 12.9653 9.77478 12.9653C12.6402 12.9653 14.5504 15.0381 14.5504 18.127C14.5504 21.1753 12.4573 23.3091 9.46996 23.3091C6.32008 23.3091 4.91788 21.3379 4.67402 19.6715L4.59273 19.1025H4.96138e-06L0.0609679 19.8341C0.243864 21.9069 1.19899 23.8375 2.74345 25.26C4.4708 26.8451 6.78748 27.6783 9.46996 27.6783C14.9975 27.6783 19.0212 23.6546 19.0212 18.127C18.9806 12.6198 15.221 8.63676 10.039 8.63676Z" transform="translate(207.159 21.0334)" fill="#48BDE7"/>
<path d="M0 30.8078H22.3743V26.0932H4.83659V17.0906H20.6673V12.4166H4.83659V4.67401H22.3743V6.20172e-07H0V30.8078Z" transform="translate(0 17.4358)" fill="#191842"/>
<path d="M4.83658 0H0V32.9416H4.83658V0Z" transform="translate(27.2515 15.3025)" fill="#191842"/>
<path d="M11.6444 -3.10086e-07C5.2227 -3.10086e-07 6.20172e-07 5.46656 6.20172e-07 12.1728C6.20172e-07 18.9399 5.20238 24.2439 11.8679 24.2439C17.2126 24.2439 21.1956 21.4192 22.8011 16.481L23.0652 15.6884H18.0051L17.8425 16.0339C16.7045 18.4522 14.652 19.7325 11.8679 19.7325C8.00679 19.7325 5.56817 16.8061 4.97884 13.6969H23.3497V13.0872C23.3701 9.22609 22.0491 5.77139 19.6512 3.3531C17.4564 1.19899 14.6317 -3.10086e-07 11.6444 -3.10086e-07ZM11.6444 4.51144C14.4082 4.51144 16.8874 6.42169 17.9035 9.26674H5.30399C6.21847 6.78748 8.53515 4.51144 11.6444 4.51144Z" transform="translate(36.6401 24.5083)" fill="#191842"/>
<path d="M23.5733 -3.10086e-07C20.7282 -3.10086e-07 18.3099 1.15834 16.7248 3.27181C15.1601 1.15834 12.7824 -3.10086e-07 9.93736 -3.10086e-07C7.94582 -3.10086e-07 6.13718 0.690941 4.71466 1.97121V0.548689H-2.48069e-06V23.7155H4.81627V9.67317C4.81627 6.74683 6.78748 4.53176 9.40899 4.53176C12.2134 4.53176 13.7375 6.25911 13.7375 9.42931V23.7155H18.5335V9.67317C18.5335 6.68587 20.4437 4.53176 23.0856 4.53176C25.9916 4.53176 27.4547 6.17782 27.4547 9.42931V23.7155H32.2913V9.5106C32.3117 3.65792 28.9586 -3.10086e-07 23.5733 -3.10086e-07Z" transform="translate(64.2778 24.5083)" fill="#191842"/>
<path d="M11.6444 -3.10086e-07C5.22271 -3.10086e-07 1.24034e-06 5.46656 1.24034e-06 12.1728C1.24034e-06 18.9399 5.20238 24.2439 11.8679 24.2439C17.2126 24.2439 21.1956 21.4192 22.801 16.481L23.0652 15.6884H18.0051L17.8425 16.0339C16.7045 18.4522 14.652 19.7325 11.8679 19.7325C8.00679 19.7325 5.56817 16.8061 4.97883 13.6969H23.3497V13.0872C23.3701 9.22609 22.0491 5.77139 19.6512 3.3531C17.4767 1.19899 14.652 -3.10086e-07 11.6444 -3.10086e-07ZM11.6444 4.51144C14.4082 4.51144 16.8874 6.42169 17.9035 9.26674H5.30399C6.23879 6.78748 8.55548 4.51144 11.6444 4.51144Z" transform="translate(100.917 24.5083)" fill="#191842"/>
<path d="M10.5064 -3.10086e-07C8.29129 -3.10086e-07 6.27944 0.711262 4.71466 2.0525V0.548689H0V23.7155H4.83658V9.67317C4.83658 6.68587 7.01101 4.53176 9.978 4.53176C12.9653 4.53176 14.7333 6.48265 14.7333 9.75446V23.7155H19.5292V9.89671C19.5699 3.90178 16.0136 -3.10086e-07 10.5064 -3.10086e-07Z" transform="translate(128.535 24.5083)" fill="#191842"/>
<path d="M12.2134 23.3294C10.7096 23.431 9.59188 23.1262 8.8603 22.4353C8.14903 21.7646 7.78324 20.6876 7.78324 19.2447V9.36834H12.7621V4.69433H7.78324V6.20172e-07H2.98731V4.69433H0V9.36834H2.98731V19.2447C2.98731 22.1508 3.90178 24.5081 5.64946 26.0525C7.05166 27.2922 8.88062 27.9425 10.9941 27.9425C11.4208 27.9425 11.8679 27.9221 12.315 27.8612L12.8434 27.8002V23.2888L12.2134 23.3294Z" transform="translate(151.702 20.3831)" fill="#191842"/>
</svg>
