<svg xmlns="http://www.w3.org/2000/svg" viewBox="0 0 175.6 39.95"><defs><style>.cls-1{fill:#0faada;}.cls-2,.cls-3{fill:#68696e;}.cls-3{fill-rule:evenodd;}</style></defs><title>logo</title><g id="Layer_2" data-name="Layer 2"><g id="Layer_1-2" data-name="Layer 1"><polygon class="cls-1" points="155.03 18.01 155.1 18.15 155.2 18.28 155.32 18.39 155.46 18.48 155.61 18.53 155.76 18.56 155.92 18.56 156.08 18.53 156.23 18.48 156.37 18.39 156.49 18.28 156.59 18.15 156.66 18.01 156.7 17.85 156.72 17.69 156.72 11.73 156.7 11.56 156.65 11.39 156.57 11.24 156.46 11.11 156.33 11 156.18 10.92 156.01 10.87 155.84 10.86 155.67 10.87 155.51 10.92 155.36 11 155.23 11.11 155.12 11.24 155.04 11.39 154.99 11.56 154.97 11.73 154.97 17.69 154.99 17.85 155.03 18.01"/><polygon class="cls-1" points="155.03 8.55 155.1 8.7 155.2 8.82 155.32 8.93 155.46 9.02 155.61 9.07 155.76 9.11 155.92 9.11 156.08 9.07 156.23 9.02 156.37 8.93 156.49 8.82 156.59 8.7 156.66 8.55 156.7 8.39 156.72 8.23 156.72 2.27 156.7 2.1 156.65 1.94 156.57 1.78 156.46 1.65 156.33 1.54 156.18 1.46 156.01 1.41 155.84 1.4 155.67 1.41 155.51 1.46 155.36 1.54 155.23 1.65 155.12 1.78 155.04 1.94 154.99 2.1 154.97 2.27 154.97 8.23 154.99 8.39 155.03 8.55"/><polygon class="cls-1" points="147.79 6.93 150.38 12.3 150.47 12.44 150.57 12.56 150.7 12.66 150.84 12.73 151 12.78 151.16 12.79 151.32 12.78 151.47 12.74 151.62 12.67 151.75 12.57 151.86 12.46 151.94 12.32 152.01 12.17 152.04 12.02 152.04 11.85 152.01 11.7 151.96 11.54 149.37 6.17 149.28 6.03 149.18 5.91 149.05 5.81 148.91 5.74 148.75 5.69 148.59 5.67 148.43 5.69 148.27 5.73 148.13 5.8 148 5.89 147.89 6.01 147.8 6.15 147.74 6.3 147.71 6.46 147.71 6.62 147.74 6.78 147.79 6.93"/><polygon class="cls-1" points="152.72 22 152.6 21.87 152.47 21.77 152.32 21.69 152.15 21.65 151.98 21.64 151.81 21.66 145.99 22.98 145.83 23.04 145.68 23.12 145.55 23.24 145.45 23.37 145.37 23.52 145.33 23.69 145.31 23.86 145.34 24.03 145.39 24.19 145.48 24.34 145.59 24.47 145.72 24.57 145.88 24.65 146.04 24.7 146.21 24.71 146.38 24.69 152.2 23.36 152.36 23.31 152.51 23.22 152.64 23.11 152.74 22.97 152.82 22.82 152.87 22.66 152.88 22.48 152.85 22.31 152.8 22.15 152.72 22"/><polygon class="cls-1" points="147.27 15.72 147.34 15.88 147.44 16.02 147.56 16.14 152.22 19.86 152.35 19.95 152.5 20.01 152.66 20.04 152.82 20.05 152.98 20.02 153.13 19.97 153.27 19.89 153.39 19.78 153.5 19.66 153.57 19.51 153.62 19.36 153.64 19.2 153.63 19.04 153.59 18.88 153.52 18.74 153.43 18.61 153.31 18.5 148.65 14.78 148.5 14.68 148.34 14.62 148.18 14.59 148 14.59 147.84 14.63 147.68 14.69 147.54 14.79 147.42 14.91 147.32 15.06 147.26 15.22 147.23 15.38 147.23 15.55 147.27 15.72"/><polygon class="cls-1" points="165.54 13.68 165.63 13.82 165.76 13.95 165.9 14.04 166.05 14.11 166.22 14.15 166.39 14.15 166.56 14.12 166.72 14.05 166.86 13.96 171.53 10.24 171.64 10.13 171.74 10 171.81 9.85 171.84 9.7 171.86 9.54 171.84 9.38 171.79 9.22 171.71 9.08 171.61 8.96 171.49 8.85 171.35 8.77 171.2 8.71 171.04 8.69 170.88 8.69 170.72 8.73 170.57 8.79 170.44 8.88 165.78 12.6 165.65 12.72 165.56 12.86 165.49 13.01 165.45 13.18 165.45 13.35 165.48 13.52 165.54 13.68"/><polygon class="cls-1" points="166 18.44 165.84 18.52 165.72 18.63 165.61 18.77 165.53 18.92 165.49 19.09 165.48 19.26 165.5 19.43 165.56 19.59 165.64 19.74 165.75 19.87 165.89 19.97 166.04 20.05 166.21 20.1 166.38 20.11 166.54 20.09 172.36 18.76 172.53 18.7 172.67 18.62 172.8 18.51 172.91 18.37 172.98 18.22 173.03 18.05 173.04 17.88 173.02 17.71 172.97 17.55 172.88 17.4 172.77 17.27 172.63 17.17 172.48 17.09 172.31 17.05 172.14 17.03 171.97 17.06 166.16 18.38 166 18.44"/><polygon class="cls-1" points="158.15 19.58 158.24 19.72 158.36 19.84 158.5 19.94 158.66 20.01 158.82 20.04 159 20.05 159.17 20.02 159.32 19.95 159.47 19.86 164.13 16.14 164.25 16.02 164.35 15.88 164.42 15.72 164.46 15.55 164.46 15.38 164.43 15.22 164.36 15.06 164.27 14.91 164.15 14.79 164.01 14.69 163.85 14.63 163.69 14.59 163.51 14.59 163.34 14.62 163.19 14.68 163.04 14.78 158.38 18.5 158.26 18.61 158.16 18.75 158.09 18.91 158.06 19.08 158.05 19.25 158.08 19.42 158.15 19.58"/><polygon class="cls-1" points="166.24 23.37 166.13 23.24 166.01 23.12 165.86 23.04 165.69 22.98 159.88 21.66 159.71 21.64 159.54 21.65 159.37 21.69 159.22 21.77 159.08 21.87 158.97 22 158.89 22.15 158.83 22.31 158.81 22.48 158.82 22.66 158.87 22.82 158.94 22.97 159.05 23.11 159.18 23.22 159.33 23.31 159.49 23.36 165.31 24.69 165.47 24.71 165.65 24.7 165.81 24.65 165.97 24.57 166.1 24.47 166.21 24.34 166.3 24.19 166.35 24.03 166.37 23.86 166.36 23.69 166.32 23.52 166.24 23.37"/><polygon class="cls-1" points="139.87 9.83 139.94 9.98 140.04 10.12 140.16 10.24 144.83 13.96 144.96 14.05 145.11 14.11 145.27 14.15 145.43 14.15 145.59 14.13 145.74 14.07 145.88 13.99 146 13.88 146.1 13.76 146.18 13.62 146.22 13.46 146.24 13.3 146.23 13.14 146.19 12.99 146.13 12.84 146.03 12.71 145.91 12.6 141.25 8.88 141.11 8.79 140.95 8.72 140.78 8.69 140.61 8.69 140.44 8.73 140.28 8.8 140.14 8.89 140.02 9.02 139.93 9.16 139.87 9.32 139.84 9.49 139.84 9.66 139.87 9.83"/><polygon class="cls-1" points="159.68 12.17 159.75 12.32 159.83 12.46 159.94 12.57 160.07 12.67 160.22 12.74 160.37 12.78 160.53 12.79 160.69 12.78 160.85 12.73 160.99 12.66 161.12 12.56 161.22 12.44 161.31 12.3 163.9 6.93 163.95 6.77 163.98 6.6 163.97 6.42 163.93 6.26 163.86 6.11 163.76 5.97 163.63 5.85 163.49 5.76 163.33 5.7 163.16 5.68 162.99 5.68 162.82 5.72 162.66 5.8 162.53 5.9 162.41 6.02 162.32 6.17 159.73 11.54 159.68 11.7 159.65 11.85 159.65 12.02 159.68 12.17"/><polygon class="cls-1" points="169.76 31.78 169.69 31.63 169.59 31.5 169.48 31.39 164.82 27.67 164.67 27.58 164.51 27.51 164.34 27.48 164.17 27.48 164.01 27.52 163.85 27.59 163.71 27.68 163.59 27.81 163.49 27.95 163.43 28.11 163.4 28.28 163.4 28.45 163.44 28.62 163.51 28.77 163.6 28.92 163.73 29.04 168.39 32.75 168.53 32.84 168.67 32.91 168.83 32.94 168.99 32.94 169.15 32.92 169.3 32.86 169.44 32.78 169.56 32.68 169.66 32.55 169.74 32.41 169.79 32.26 169.81 32.09 169.8 31.93 169.76 31.78"/><polygon class="cls-1" points="160.92 30.96 160.98 30.81 161.01 30.65 161.01 30.49 160.98 30.33 160.93 30.18 158.34 24.8 158.25 24.66 158.13 24.53 158 24.43 157.84 24.36 157.68 24.32 157.5 24.31 157.34 24.34 157.17 24.39 157.03 24.48 156.9 24.6 156.8 24.74 156.73 24.89 156.69 25.06 156.68 25.23 156.71 25.4 156.77 25.56 159.36 30.93 159.44 31.07 159.54 31.19 159.67 31.29 159.81 31.37 159.97 31.41 160.13 31.43 160.29 31.42 160.45 31.38 160.59 31.3 160.72 31.21 160.83 31.09 160.92 30.96"/><polygon class="cls-1" points="156.65 32.08 156.57 31.92 156.46 31.79 156.33 31.68 156.18 31.6 156.01 31.55 155.84 31.54 155.67 31.55 155.51 31.6 155.36 31.68 155.23 31.79 155.12 31.92 155.04 32.08 154.99 32.24 154.97 32.41 154.97 38.38 154.99 38.55 155.04 38.71 155.12 38.86 155.23 38.99 155.36 39.1 155.51 39.18 155.67 39.23 155.84 39.25 156.01 39.23 156.18 39.18 156.33 39.1 156.46 38.99 156.57 38.86 156.65 38.71 156.7 38.55 156.72 38.38 156.72 32.41 156.7 32.24 156.65 32.08"/><polygon class="cls-1" points="165.03 38.7 162.44 33.33 162.35 33.18 162.24 33.05 162.1 32.95 161.95 32.88 161.78 32.84 161.61 32.83 161.44 32.86 161.28 32.92 161.13 33.01 161 33.12 160.91 33.26 160.83 33.41 160.79 33.58 160.78 33.75 160.81 33.92 160.87 34.08 163.46 39.46 163.54 39.59 163.65 39.72 163.78 39.81 163.92 39.89 164.07 39.94 164.23 39.95 164.39 39.94 164.55 39.9 164.7 39.83 164.82 39.73 164.94 39.61 165.02 39.48 165.08 39.33 165.11 39.17 165.12 39.01 165.09 38.85 165.03 38.7"/><polygon class="cls-1" points="175.54 25.63 175.46 25.48 175.36 25.34 175.23 25.23 175.08 25.14 174.92 25.09 169.1 23.76 168.94 23.74 168.78 23.75 168.62 23.79 168.48 23.85 168.34 23.95 168.23 24.06 168.14 24.19 168.08 24.34 168.04 24.5 168.03 24.66 168.06 24.82 168.11 24.97 168.19 25.11 168.29 25.23 168.42 25.34 168.56 25.41 168.71 25.47 174.53 26.79 174.7 26.81 174.87 26.8 175.03 26.76 175.19 26.68 175.32 26.58 175.43 26.45 175.52 26.3 175.57 26.14 175.6 25.97 175.58 25.79 175.54 25.63"/><polygon class="cls-1" points="148.09 28.92 148.18 28.77 148.25 28.62 148.29 28.45 148.29 28.28 148.26 28.11 148.19 27.95 148.1 27.81 147.98 27.68 147.84 27.59 147.68 27.52 147.52 27.48 147.34 27.48 147.18 27.51 147.02 27.58 146.87 27.67 142.21 31.39 142.09 31.51 141.99 31.65 141.92 31.81 141.89 31.97 141.88 32.15 141.92 32.31 141.98 32.47 142.07 32.62 142.19 32.74 142.33 32.84 142.49 32.9 142.66 32.94 142.83 32.94 143 32.91 143.16 32.85 143.3 32.75 147.96 29.04 148.09 28.92"/><polygon class="cls-1" points="143.13 25.41 143.27 25.34 143.4 25.23 143.5 25.11 143.58 24.97 143.63 24.82 143.66 24.66 143.65 24.5 143.61 24.34 143.55 24.19 143.46 24.06 143.34 23.95 143.21 23.85 143.07 23.79 142.91 23.75 142.75 23.74 142.59 23.76 136.77 25.09 136.61 25.14 136.46 25.23 136.33 25.34 136.23 25.48 136.15 25.63 136.11 25.79 136.09 25.97 136.12 26.14 136.17 26.3 136.25 26.45 136.37 26.58 136.5 26.68 136.66 26.76 136.82 26.8 136.99 26.81 137.16 26.79 142.98 25.47 143.13 25.41"/><polygon class="cls-1" points="138.71 18.22 138.78 18.37 138.89 18.51 139.02 18.62 139.16 18.7 139.33 18.76 145.14 20.09 145.3 20.11 145.46 20.1 145.62 20.06 145.77 20 145.9 19.9 146.01 19.79 146.1 19.65 146.17 19.51 146.2 19.35 146.21 19.19 146.19 19.03 146.13 18.88 146.05 18.74 145.95 18.61 145.82 18.51 145.68 18.43 145.53 18.38 139.72 17.06 139.54 17.03 139.38 17.05 139.21 17.09 139.06 17.17 138.92 17.27 138.81 17.4 138.72 17.55 138.67 17.71 138.65 17.88 138.66 18.05 138.71 18.22"/><polygon class="cls-1" points="150.85 33.41 150.78 33.26 150.68 33.12 150.56 33.01 150.41 32.92 150.25 32.86 150.08 32.83 149.91 32.84 149.74 32.88 149.59 32.95 149.45 33.05 149.33 33.18 149.25 33.33 146.66 38.7 146.6 38.85 146.57 39.01 146.58 39.17 146.6 39.33 146.67 39.48 146.75 39.61 146.86 39.73 146.99 39.83 147.14 39.9 147.29 39.94 147.46 39.95 147.62 39.94 147.77 39.89 147.91 39.81 148.04 39.72 148.15 39.59 148.23 39.46 150.82 34.08 150.88 33.92 150.9 33.75 150.9 33.58 150.85 33.41"/><polygon class="cls-1" points="155 25.25 155 25.09 154.97 24.93 154.91 24.78 154.82 24.65 154.72 24.53 154.58 24.43 154.44 24.36 154.28 24.32 154.12 24.31 153.96 24.33 153.81 24.37 153.66 24.45 153.54 24.55 153.43 24.66 153.35 24.8 150.76 30.18 150.7 30.34 150.68 30.51 150.68 30.68 150.72 30.84 150.79 31 150.9 31.14 151.02 31.25 151.17 31.34 151.33 31.4 151.5 31.43 151.67 31.42 151.83 31.38 151.99 31.31 152.13 31.21 152.25 31.08 152.33 30.93 154.92 25.56 154.98 25.41 155 25.25"/><path class="cls-2" d="M98.28,29.25H86.36a2.62,2.62,0,0,1-1.86-.75,2.59,2.59,0,0,1-.76-1.84V23.56H97.62q.76,0,1-.39a1.77,1.77,0,0,0,.18-.94V17.12a6,6,0,0,0-1.88-4.69,6.73,6.73,0,0,0-4.57-1.57h-6a6.58,6.58,0,0,0-4.52,1.57A6.11,6.11,0,0,0,80,17.12v9.35A6.52,6.52,0,0,0,81.84,31a6.27,6.27,0,0,0,4.52,1.89H98.77v-3.2A.49.49,0,0,0,98.28,29.25ZM83.73,17.07a2.46,2.46,0,0,1,2.62-2.69h6.09q2.59,0,2.58,2.69v2.47a.5.5,0,0,1-.49.5H84.18a.49.49,0,0,1-.45-.5Z"/><path class="cls-2" d="M128.83,12.7a6.3,6.3,0,0,0-4.5-1.84H104.18v2.73h.06a3.26,3.26,0,0,0-.06.58V33h3.73V14.78a.48.48,0,0,1,.45-.4h6.8a.5.5,0,0,1,.5.49v17.6a.49.49,0,0,0,.47.49h3.26V14.38h4.94a2.57,2.57,0,0,1,1.85.78,2.62,2.62,0,0,1,.75,1.84V32.47a.49.49,0,0,0,.47.49h3.26V17.22A6.36,6.36,0,0,0,128.83,12.7Z"/><path class="cls-2" d="M72.67,12.7a6.3,6.3,0,0,0-4.5-1.84H48v2.73h.06a3.26,3.26,0,0,0-.06.58V33h3.73V14.78a.48.48,0,0,1,.45-.4H59a.5.5,0,0,1,.5.49v17.6A.49.49,0,0,0,60,33h3.26V14.38h4.94a2.57,2.57,0,0,1,1.85.78A2.62,2.62,0,0,1,70.77,17V32.47a.49.49,0,0,0,.47.49h3.26V17.22A6.37,6.37,0,0,0,72.67,12.7Z"/><path class="cls-3" d="M14.61.48v10.4H6.29A6.17,6.17,0,0,0,1.8,12.77,6.56,6.56,0,0,0,0,17.34v9.14A6.5,6.5,0,0,0,1.84,31a6.32,6.32,0,0,0,4.54,1.89H17a1.34,1.34,0,0,0,1-.41,1.45,1.45,0,0,0,.4-1V0H14.61Zm0,28.33a.46.46,0,0,1-.49.44H6.38a2.67,2.67,0,0,1-1.88-.75,2.55,2.55,0,0,1-.77-1.84V17.16a2.56,2.56,0,0,1,.77-1.84,2.68,2.68,0,0,1,1.88-.75h6.07a2.48,2.48,0,0,1,1.47.73,2.43,2.43,0,0,1,.69,1.52Z"/><path class="cls-2" d="M36.3,29.25H30.16a2.62,2.62,0,0,1-1.86-.75,2.59,2.59,0,0,1-.76-1.84V23.56H41.42q.76,0,1-.39a1.76,1.76,0,0,0,.18-.94V17.12a6.05,6.05,0,0,0-1.87-4.69,6.73,6.73,0,0,0-4.57-1.57h-6a6.58,6.58,0,0,0-4.52,1.57,6.1,6.1,0,0,0-1.84,4.69v9.35A6.51,6.51,0,0,0,25.64,31a6.27,6.27,0,0,0,4.52,1.89H36.3ZM27.53,17.07a2.46,2.46,0,0,1,2.62-2.69h6.09q2.59,0,2.58,2.69v2.47a.5.5,0,0,1-.49.5H28a.49.49,0,0,1-.45-.5Z"/><path class="cls-2" d="M38.79,29.23V33h3.77V29.23Z"/></g></g></svg>