<svg xmlns="http://www.w3.org/2000/svg" xmlns:xlink="http://www.w3.org/1999/xlink" viewBox="0 0 82.9 82.9"><defs><path id="a" d="M0 0h82.9v82.9H0z"/></defs><clipPath id="b"><use xlink:href="#a" overflow="visible"/></clipPath><path clip-path="url(#b)" fill="#FFF" d="M22.7 0S0 0 0 22.7v37.5s0 22.7 22.7 22.7h37.5s22.7 0 22.7-22.7V22.7S82.9 0 60.2 0H22.7z"/><defs><path id="c" d="M25.8 29.8c-.3.4-.5.9-.7 1.3-.1.1-.1.2-.2.3-.2.4-.4.9-.6 1.3-.1.1-.1.3-.2.4 0 .1-.1.2-.1.3 1-1.3 4.4-5 8.9-5 1.8 0 3.5.6 5.2 1.7 1.9.3 3.4 1.5 4.1 3.3l.1.3v17.7c0 2.9-1.9 3.3-1.9 3.3l-9 3.1h31.5c5.9 0 10.6-4.8 10.6-10.6 0-3.2-1.4-6-3.6-7.9-.2-.2-.5-.4-.7-.6-.2-.2-.5-.3-.7-.5 0 0-.1 0-.1-.1-.2-.1-.5-.3-.7-.4-.1 0-.1-.1-.2-.1-.2-.1-.4-.2-.7-.3-.1 0-.2-.1-.3-.1-.2-.1-.4-.1-.6-.2-.1 0-.3-.1-.4-.1-.2 0-.4-.1-.5-.1-.2 0-.4-.1-.6-.1-.1 0-.3 0-.4-.1-.3 0-.7-.1-1-.1h-.3c-.1-.6-.2-1.2-.4-1.8 0-.1-.1-.3-.1-.4-.1-.4-.3-.9-.4-1.3 0-.1-.1-.3-.2-.4-.2-.4-.4-.9-.6-1.3 0-.1-.1-.2-.2-.3-.2-.4-.5-.9-.7-1.3-3.5-5.8-9.9-9.7-17.2-9.7-7.2.1-13.6 4-17.1 9.8"/></defs><clipPath id="d"><use xlink:href="#c" overflow="visible"/></clipPath><linearGradient id="e" gradientUnits="userSpaceOnUse" x1="-371.343" y1="345.192" x2="-370.343" y2="345.192" gradientTransform="matrix(49.4961 0 0 -49.4961 18404.2 17124.574)"><stop offset="0" stop-color="#0056a4"/><stop offset=".159" stop-color="#06a"/><stop offset=".74" stop-color="#0098af"/><stop offset="1" stop-color="#00a9aa"/></linearGradient><path clip-path="url(#d)" fill="url(#e)" d="M24.2 20.1h49.5v37.7H24.2z"/><defs><path id="f" d="M25.5 34.9l.1 19c2.5-5 9.4-4.2 9.4-4.2 2.3.3 2.6-1.1 2.6-1.1V34.2c.7-1 1.5 0 1.5 0L39 51.3l-12.9 5H11c-.8-.5-.1-1.2-.1-1.2h10.6c1.7 0 1.6-1.7 1.6-1.7V36.5H11.2c-2 0-2 1.6-2 1.6v17.7c0 1.9 1.9 1.9 1.9 1.9H26L39.6 53c.8-.6.9-1.7.9-1.7V34.1c-.7-1.8-2.2-2.1-3-2.1-1.6-1.2-3.1-1.7-4.5-1.7-4.3 0-7.5 4.6-7.5 4.6"/></defs><clipPath id="g"><use xlink:href="#f" overflow="visible"/></clipPath><linearGradient id="h" gradientUnits="userSpaceOnUse" x1="-366.88" y1="348.273" x2="-365.88" y2="348.273" gradientTransform="matrix(31.2714 0 0 -31.2714 11482.098 10935.018)"><stop offset="0" stop-color="#0056a4"/><stop offset=".159" stop-color="#06a"/><stop offset=".74" stop-color="#0098af"/><stop offset="1" stop-color="#00a9aa"/></linearGradient><path clip-path="url(#g)" fill="url(#h)" d="M9.2 30.3h31.3v27.5H9.2z"/></svg>