<svg width="193" height="31" viewBox="0 0 193 31" xmlns="http://www.w3.org/2000/svg"><title>Banner Inverse</title><defs><linearGradient x1="3.298%" y1="50%" y2="50%" id="a"><stop stop-color="#0056A4" offset="0%"/><stop stop-color="#00A9A9" offset="100%"/></linearGradient></defs><g fill="none"><path d="M73.384 17.704c0-.857.286-1.428.571-2 .286-.285.857-.57 1.714-.57.856 0 1.142.285 1.713.57.285.286.571 1.143.571 2v3.712c0 .856-.286 1.427-.571 1.998-.286.286-.857.572-1.713.572-.857 0-1.142-.286-1.714-.572-.285-.285-.57-1.142-.57-1.998v-3.712zm4.283-5.997c-.285-.285-.57-.57-.856-1.142-.286-.285-.857-.571-1.142-1.142l-1.714-.857c-.57-.285-1.142-.285-1.998-.285-2.57 0-4.284.856-5.711 2.855-1.142 1.999-1.713 4.569-1.713 8.28 0 3.427.57 6.283 1.713 8.282 1.142 1.998 3.14 2.855 5.71 2.855.572 0 1.428 0 2-.286l1.713-.856c.57-.286.856-.571 1.142-1.142.285-.286.57-.571.856-1.142v2.57h9.994v-6.283h-1.713V0H75.383v6.282h2.284v5.425zm-24.27 9.709c0 1.713-.857 2.57-2.285 2.57-1.428 0-1.999-.286-1.999-1.143 0-.57.286-.856.857-1.142.857-.285 1.999-.285 3.426-.285zm0 8.851h9.993v-6.281h-1.713v-6.282c0-1.428-.285-2.856-.571-3.998-.286-1.142-.857-1.999-1.713-2.855-.857-.857-1.713-1.428-3.141-1.714-1.428-.285-2.856-.57-4.854-.57-2 0-3.712 0-5.711.285-1.714.285-3.427.57-4.569.856v6.568c1.142-.286 2.57-.571 3.998-.857 1.427-.285 2.855-.285 4.283-.285 1.428 0 2.284.285 2.57.57.57.286.57.857.57 1.714-4.568 0-7.709.571-9.993 1.999-2.285 1.142-3.141 3.14-3.141 5.425 0 1.999.57 3.427 1.713 4.569 1.142 1.142 2.855 1.428 4.854 1.428.857 0 1.714 0 2.285-.286.57-.286 1.427-.571 1.713-.857.285-.285.857-.57 1.428-1.142.285-.285.57-.57.856-1.142v2.855h1.142zM31.41 15.705c.285.285.57 1.142.57 1.999v.285h-4.282v-.285c0-.857.285-1.428.57-2 .286-.285.857-.57 1.714-.57.571 0 1.142.285 1.428.57zm-5.997-6.568c-1.427.571-2.57 1.143-3.426 2a10.268 10.268 0 0 0-2.285 3.426c-.57 1.427-.856 3.14-.856 4.854 0 1.999.285 3.426.856 4.854s1.143 2.57 2.285 3.427c.856.856 1.999 1.713 3.426 1.998 1.428.571 2.856.571 4.569.571 1.142 0 2.284 0 3.14-.285.858 0 1.714-.286 2.57-.571.857-.286 1.428-.286 2-.571.57-.286 1.142-.571 1.427-.571v-5.997c-.856.286-1.999.571-3.426.857-1.428.285-2.856.285-4.569.285-1.428 0-2.284-.285-2.855-.57-.571-.572-.857-1.143-.857-2v-.285h11.993v-2.855c0-1.143-.286-2.285-.571-3.427-.286-1.142-.857-2.284-1.714-3.14-.856-.857-1.713-1.714-3.14-2.285-1.143-.571-2.856-.857-4.57-.857-1.141.571-2.855.571-3.997 1.142zM0 15.134h1.713v8.852H0v6.281h13.42v-6.281H9.994v-3.713c0-1.713.286-3.14 1.142-3.997.857-.857 1.999-1.142 3.427-1.142h1.427c.571 0 1.143 0 2 .285V8.852c-.572-.286-.857-.286-1.429-.286h-1.427c-.571 0-1.142 0-1.714.286-.57.285-.856.57-1.427.856-.286.286-.857.572-.857 1.143-.285.285-.57.856-.57 1.142h-.286v-2.57H0v5.71z" fill="#0056A4"/><path d="M177.804 17.704c0-.857.285-1.428.57-2 .286-.57.857-.57 1.714-.57s1.142.285 1.713.57c.286.286.571 1.143.571 2v3.712c0 .856-.285 1.427-.57 1.998-.286.286-.857.572-1.714.572s-1.142-.286-1.713-.572c-.571-.285-.571-1.142-.571-1.998v-3.712zm4.283-5.997c-.286-.285-.571-.57-.857-1.142-.285-.285-.857-.571-1.142-1.142l-1.713-.857c-.571-.285-1.142-.285-2-.285-2.569 0-4.568.856-5.71 2.855-1.142 1.999-1.713 4.569-1.713 8.28 0 3.427.57 6.283 1.713 8.282 1.142 1.998 3.141 2.855 5.71 2.855.572 0 1.429 0 2-.286l1.713-.856c.571-.286.857-.571 1.142-1.142.286-.286.571-.571.857-1.142v2.57h9.994v-6.283h-1.714V0h-10.565v6.282h2.285v5.425zm-28.269-2.855h-10.28v6.282h1.714v6.282c0 3.14.57 5.425 1.713 7.138 1.142 1.428 2.855 2.285 4.854 2.285.857 0 1.428 0 2.285-.286l1.713-.857c.571-.285.856-.57 1.428-.856l1.142-1.142v2.57h9.994v-6.282h-2V9.137h-10.279v6.282h1.714v5.997c0 .856-.286 1.427-.571 1.998-.286.572-.857.572-1.714.572-.57 0-1.142-.286-1.713-.572-.571-.285-.571-1.142-.571-1.998V8.852h.571zM131.26 23.414c-.285-.285-.57-1.142-.57-1.998v-3.712c0-.857.285-1.428.57-2 .286-.285.857-.57 1.713-.57.572 0 1.143.285 1.714.57.285.286.57 1.143.57 2v3.712c0 .856-.285 1.427-.57 1.998-.286.286-.857.572-1.714.572-.856 0-1.427-.286-1.713-.572zm11.707-8.566c-.57-1.428-1.142-2.57-2.284-3.426-.856-.857-1.999-1.714-3.426-2-1.428-.57-2.856-.57-4.569-.57s-3.141.285-4.569.57c-1.427.572-2.57 1.143-3.426 2a10.268 10.268 0 0 0-2.285 3.426c-.57 1.428-.856 3.141-.856 4.854 0 2 .285 3.427.856 4.855.572 1.427 1.143 2.57 2.285 3.426 1.142.857 1.999 1.713 3.426 1.999 1.428.571 2.856.571 4.569.571s3.14-.286 4.569-.571c1.427-.571 2.57-1.142 3.426-1.999a10.268 10.268 0 0 0 2.284-3.426c.572-1.428.857-3.141.857-4.855 0-1.998-.285-3.712-.857-4.854zm-33.694-7.995h1.714v17.133h-1.714v6.281h11.708v-6.281h-1.714V.57h-9.994v6.282zm-11.707 10.85c0-.856.286-1.427.571-1.998.286-.286.857-.571 1.714-.571.57 0 1.142.285 1.713.57.57.286.57 1.143.57 2v.57h6.283v-7.709c-.571-.285-.857-.571-1.428-.857l-1.713-.856c-.571-.286-1.428-.286-2.284-.571-.857-.286-1.714-.286-2.856-.286-1.713 0-3.14.286-4.569.571-1.427.571-2.57 1.142-3.426 2a10.268 10.268 0 0 0-2.284 3.426c-.571 1.427-.857 3.14-.857 4.854 0 1.999.286 3.426.857 4.854.57 1.428 1.142 2.57 2.284 3.427.857.856 1.999 1.713 3.426 1.998 1.428.571 2.856.571 4.57.571h2.569c.857 0 1.428-.285 2.284-.285.571 0 1.143-.286 1.714-.571.57-.286 1.142-.286 1.427-.571v-5.997c-1.142.286-2.284.286-3.426.571-1.142 0-2.285.286-3.712.286-1.142 0-1.999-.286-2.57-.857-.571-.57-.857-1.142-.857-2.284v-2.284z" fill="url(#a)"/></g></svg>