<svg width="122" height="30" viewBox="0 0 122 30" version="1.1" xmlns="http://www.w3.org/2000/svg" xmlns:xlink="http://www.w3.org/1999/xlink">
    <!-- Generator: Sketch 44.1 (41455) - http://www.bohemiancoding.com/sketch -->
    <desc>Created with Sketch.</desc>
    <defs>
        <polygon id="path-1" points="18.2114092 0.0603138075 18.2114092 12.6781381 0.0356865641 12.6781381 0.0356865641 0.0603138075 18.2114092 0.0603138075"></polygon>
        <polygon id="path-3" points="45.4830515 0.0156903766 0 0.0156903766 0 29.8744268 45.4830515 29.8744268 45.4830515 0.0156903766"></polygon>
    </defs>
    <g id="Symbols" stroke="none" stroke-width="1" fill="none" fill-rule="evenodd">
        <g id="Navigation-Bar-with-Breadcrumb" transform="translate(-30.000000, -23.000000)">
            <g id="Page-1" transform="translate(30.000000, 23.000000)">
                <path d="M71.7002759,16.1313138 C71.7002759,18.1499749 70.6583333,18.5736151 69.7841877,18.5736151 C68.0836954,18.5736151 68.0836954,16.9413138 68.0836954,16.157046 L68.0836954,9.53934728 L64.3463662,9.53934728 L64.3463662,18.0874644 C64.3463662,20.78759 65.5597344,22.1569205 67.9524359,22.1569205 C68.1412544,22.1569205 68.323441,22.1467531 68.5003723,22.1285523 C68.5003723,22.1285523 68.7408687,22.0980502 68.7816605,22.0908954 C69.0023867,22.0546192 69.2136031,22.0029038 69.41556,21.9358745 C70.1415538,21.7099331 71.1363231,21.2271715 71.7809836,20.2105607 L71.7809836,21.9511883 L75.4376051,21.9511883 L75.4376051,9.53934728 L71.7002759,9.53934728 L71.7002759,16.1313138 Z" id="Fill-1" fill="#00AA4E"></path>
                <path d="M84.2481698,9.53933473 L81.1048242,9.53933473 L81.1048242,9.0531841 C81.1048242,7.98787029 81.781017,7.35209623 82.9134273,7.35209623 C82.960976,7.35209623 83.0140304,7.35473222 83.0877309,7.35837238 C83.1834539,7.36339331 83.3244734,7.37079916 83.5545842,7.37494142 L83.9972878,4.2750251 C83.1108796,4.24954393 82.569575,4.23686611 82.3477227,4.23686611 C79.0144324,4.23686611 77.3848878,5.7041046 77.3678704,8.72142678 L77.3703729,8.72142678 L77.3703729,13.0685397 L77.3676201,13.4774937 L77.3676201,21.9511757 L81.1048242,21.9511757 L81.1048242,12.041887 L83.8675298,12.041887 L84.2481698,9.53933473 Z" id="Fill-3" fill="#00AA4E"></path>
                <path d="M86.952353,17.7776987 C86.952353,16.838159 87.721391,16.0737238 88.6663592,16.0737238 C89.6090751,16.0737238 90.4056412,16.8542259 90.4056412,17.7776987 C90.4056412,18.7041841 89.6253417,19.4576987 88.6663592,19.4576987 C87.7051243,19.4576987 86.952353,18.7196234 86.952353,17.7776987 M88.3310156,9.53937238 L85.9520782,9.53937238 L85.5375284,11.9885774 L87.1095141,11.9835565 C88.679873,11.9835565 90.1631428,11.9835565 90.1631428,13.6600418 C90.1631428,13.7020921 90.1627674,13.7464017 90.1617664,13.79159 L90.1617664,14.5359414 C90.0545315,14.4828452 89.9482976,14.4343933 89.8439407,14.3903347 C88.8989725,13.991046 88.1091633,13.9434728 88.1091633,13.9434728 L88.1102894,13.9442259 C87.9648905,13.9250209 87.8213684,13.9146025 87.6813499,13.9146025 C84.9344105,13.9146025 83.1594669,15.542636 83.1594669,18.0617573 C83.1594669,20.5265272 84.7708679,22.1828033 87.1695756,22.1828033 C87.4048166,22.1828033 87.6315489,22.164728 87.8506484,22.1305858 L87.8491469,22.1322176 C87.8491469,22.1322176 89.6110771,21.9149372 90.498111,20.5198745 L90.5135017,20.5051883 L90.5135017,21.9512134 L93.5772658,21.9512134 L93.5772658,13.8148117 C93.5772658,10.6595397 92.7844535,9.53937238 88.3310156,9.53937238" id="Fill-5" fill="#00AA4E"></path>
                <g id="Group-9" transform="translate(103.731282, 9.273013)">
                    <mask id="mask-2" fill="white">
                        <use xlink:href="#path-1"></use>
                    </mask>
                    <g id="Clip-8"></g>
                    <path d="M14.6592948,0.0603138075 C13.7564948,0.0603138075 12.9158835,0.3008159 12.173623,0.761610879 L12.1754999,0.758472803 C12.1754999,0.758472803 11.670983,1.05797071 10.6310425,1.91579498 L10.4404722,1.62721757 C9.73487426,0.558263598 8.7985399,0.0603138075 7.4938281,0.0603138075 C7.06463836,0.0603138075 6.64683528,0.127468619 6.24892759,0.254748954 L6.25092964,0.252866109 C6.25092964,0.252866109 4.981504,0.580732218 3.6110999,2.11198745 L3.6110999,0.266297071 L0.0356865641,0.266297071 L0.0356865641,12.6781381 L3.71921067,12.6781381 L3.71921067,6.08579498 C3.71921067,3.88148536 5.0214199,3.64361925 5.58124349,3.64361925 C7.28198605,3.64361925 7.28198605,5.21554393 7.28198605,6.06018828 L7.28198605,12.6781381 L10.965385,12.6781381 L10.965385,6.08579498 C10.965385,3.88148536 12.2677194,3.64361925 12.827543,3.64361925 C14.5284107,3.64361925 14.5284107,5.21554393 14.5284107,6.06018828 L14.5284107,12.6781381 L18.2114343,12.6781381 L18.2114343,4.15537657 C18.2114343,1.43817992 17.0163348,0.0603138075 14.6592948,0.0603138075" id="Fill-7" fill="#00AA4E" mask="url(#mask-2)"></path>
                </g>
                <polygon id="Fill-10" fill="#00AA4E" points="58.2945781 14.5117029 51.6478929 4.36567782 48.9471257 4.36567782 48.9471257 21.9512008 53.1152714 21.9512008 53.1152714 12.0117866 59.0822601 21.9512008 62.4627237 21.9512008 62.4627237 4.36567782 58.2945781 4.36567782"></polygon>
                <path d="M101.740217,9.52216318 C101.740217,9.52216318 100.179743,9.77320921 99.2068714,11.4254686 L99.2068714,9.53935983 L95.4696673,9.53935983 L95.4696673,21.9512008 L99.2068714,21.9512008 L99.2068714,16.0541297 C99.2068714,14.2073096 100.268459,13.148272 102.119856,13.148272 L102.25099,13.148272 L102.25099,9.44007113 C102.070305,9.45940167 101.900381,9.48751883 101.739216,9.52329289 C101.739341,9.52316736 101.740217,9.52216318 101.740217,9.52216318" id="Fill-12" fill="#00AA4E"></path>
                <g id="Group-16" transform="translate(0.000000, 0.109833)">
                    <mask id="mask-4" fill="white">
                        <use xlink:href="#path-3"></use>
                    </mask>
                    <g id="Clip-15"></g>
                    <path d="M15.1837571,21.0590711 L5.0926679,26.8530879 L-5.00512821e-05,23.8411632 L-5.00512821e-05,3.41693724 L4.67036021,0.196016736 L15.1837571,6.06497071 C17.1671643,4.08333891 22.9308197,0.0156401674 26.5187458,0.0156401674 C29.3385099,0.0156401674 31.961072,1.50798326 34.4610084,5.64785774 C38.0242843,11.5488201 40.1920053,21.1603682 42.1717838,23.9742176 C42.7014515,24.7272301 43.9934002,25.446477 45.4830515,24.906728 C44.297712,26.8804519 40.2908566,29.8744268 35.6290802,29.8744268 C29.5936464,29.8744268 26.949312,23.8160586 26.1592525,22.3840921 C25.4869387,21.1651381 21.9179069,13.3677741 21.3542043,12.3510377 C20.0472402,9.99195816 18.5106658,7.65346444 16.8621017,7.65346444 C16.3822351,7.65346444 15.6623725,7.79907113 15.2025264,8.57216736 L15.1837571,21.0590711 Z" id="Fill-14" fill="#00AA4E" mask="url(#mask-4)"></path>
                </g>
            </g>
        </g>
    </g>
</svg>