<?xml version="1.0" encoding="utf-8"?>
<!-- Generator: Adobe Illustrator 19.2.1, SVG Export Plug-In . SVG Version: 6.00 Build 0)  -->
<svg version="1.1" id="Layer_1" xmlns="http://www.w3.org/2000/svg" xmlns:xlink="http://www.w3.org/1999/xlink" x="0px" y="0px"
	 viewBox="0 0 288 19.5" style="enable-background:new 0 0 288 19.5;" xml:space="preserve">
<style type="text/css">
	.st0{fill:#FFFFFF;}
</style>
<title>Moelis_Logo</title>
<metadata><?xpacket begin="﻿" id="W5M0MpCehiHzreSzNTczkc9d"?>
<x:xmpmeta xmlns:x="adobe:ns:meta/" x:xmptk="Adobe XMP Core 5.6-c111 79.158366, 2015/09/25-01:12:00        ">
   <rdf:RDF xmlns:rdf="http://www.w3.org/1999/02/22-rdf-syntax-ns#">
      <rdf:Description rdf:about=""
            xmlns:dc="http://purl.org/dc/elements/1.1/">
         <dc:title>
            <rdf:Alt>
               <rdf:li xml:lang="x-default">Moelis_Logo</rdf:li>
            </rdf:Alt>
         </dc:title>
      </rdf:Description>
   </rdf:RDF>
</x:xmpmeta>
                                                                                                    
                                                                                                    
                                                                                                    
                                                                                                    
                                                                                                    
                                                                                                    
                                                                                                    
                                                                                                    
                                                                                                    
                                                                                                    
                                                                                                    
                                                                                                    
                                                                                                    
                                                                                                    
                                                                                                    
                                                                                                    
                                                                                                    
                                                                                                    
                                                                                                    
                                                                                                    
                           
<?xpacket end="w"?></metadata>
<path class="st0" d="M10,13.9v-0.6c1.9,0,2.2-0.4,2.2-2.9v-5l-4.2,9H7.5l-4.2-9v5c0,2.4,0.3,2.9,2.2,2.9v0.6H0v-0.6
	c1.9,0,2.2-0.4,2.2-2.9V5.9c0-2.4-0.3-2.9-2.2-2.9V2.4h4.2l4.1,8.8l4.1-8.8h4.2v0.7c-1.9,0-2.2,0.4-2.2,2.9v4.4
	c0,2.4,0.3,2.9,2.2,2.9v0.6H10z"/>
<path class="st0" d="M30,14.3c-3.8,0-6.9-2.8-6.9-6.2S26.3,2,30,2s6.9,2.8,6.9,6.2S33.8,14.4,30,14.3 M30,3c-3.2,0-4.3,2.9-4.3,5.1
	s1.1,5.1,4.3,5.1s4.3-2.8,4.3-5.1S33.2,3,30,3"/>
<path class="st0" d="M55.1,5.6h-0.5L54.4,5c-0.3-1.1-0.7-1.5-3.1-1.5h-1.9v3.8c2.7,0,2.9-0.2,2.9-2h0.7v5.1h-0.7c0-1.8-0.2-2-2.9-2
	v1.5c0,2.4,0.3,2.9,2.1,2.9H52c2.4,0,2.8-0.4,3.1-1.6l0.2-0.6h0.5l-0.2,3.2H44.8v-0.7c1.9,0,2.2-0.4,2.2-2.9V5.9
	c0-2.4-0.3-2.9-2.2-2.9V2.4h10.1L55.1,5.6z"/>
<path class="st0" d="M71.3,12.8h1.2c2.5,0,2.9-0.4,3.1-1.6l0.2-0.6h0.6l-0.2,3.2H64.6v-0.6c1.9,0,2.2-0.4,2.2-2.9V5.9
	c0-2.4-0.3-2.9-2.2-2.9V2.4h6.8v0.6c-1.9,0-2.2,0.4-2.2,2.9v4C69.2,12.4,69.5,12.8,71.3,12.8"/>
<path class="st0" d="M84.7,13.9v-0.6c1.9,0,2.2-0.4,2.2-2.9V5.9c0-2.4-0.3-2.9-2.2-2.9V2.4h6.8v0.6c-1.9,0-2.2,0.4-2.2,2.9v4.4
	c0,2.4,0.3,2.9,2.2,2.9v0.6H84.7z"/>
<path class="st0" d="M105.2,14.3c-1.1,0-2.2-0.4-3.1-1.2c-0.3,0.3-0.5,0.7-0.6,1.2h-0.7V9.6h0.7c0.1,2.1,1.8,3.7,3.9,3.6
	c1,0.1,1.9-0.6,2-1.5c0,0,0-0.1,0-0.1c0-0.9-0.8-1.6-2.2-2.2l-2-0.9c-1.4-0.5-2.3-1.8-2.4-3.3c0-1.7,1.6-3.1,3.7-3.1
	c1,0,1.9,0.3,2.7,0.9c0.2-0.3,0.4-0.6,0.5-0.9h0.7v4h-0.7c-0.2-1.6-1.1-3-3-3c-0.9-0.1-1.7,0.5-1.9,1.4c0,0.9,0.7,1.4,2.4,2.1
	l1.9,0.9c1.3,0.5,2.2,1.7,2.3,3.1C109.3,12.8,107.5,14.3,105.2,14.3"/>
<path class="st0" d="M159.6,13.9c-0.1-0.4-0.2-0.8-0.4-1.2c-1,1-2.3,1.6-3.7,1.6c-3.5,0.1-6.4-2.7-6.5-6.2c0.1-3.5,3.1-6.2,6.5-6.1
	c1.4,0,2.7,0.6,3.7,1.6c0.2-0.4,0.3-0.8,0.4-1.2h0.7v4.7h-0.7c-0.6-2.6-2-4.1-4.1-4.1c-3.1,0-3.9,2.9-3.9,5.1s0.8,5.1,3.9,5.1
	c2.1,0,3.6-1.6,4.1-4.1h0.7v4.8L159.6,13.9L159.6,13.9z"/>
<path class="st0" d="M175.8,14.3c-3.8,0-6.9-2.8-6.9-6.2S172,2,175.8,2s6.9,2.8,6.9,6.2S179.6,14.4,175.8,14.3 M175.8,3.1
	c-3.2,0-4.3,2.9-4.3,5.1s1.1,5.1,4.3,5.1s4.3-2.8,4.3-5.1S179,3,175.8,3.1"/>
<path class="st0" d="M199.6,13.9v-0.6c1.9,0,2.2-0.4,2.2-2.9v-5l-4.2,9H197l-4.2-9v5c0,2.4,0.3,2.9,2.2,2.9v0.6h-5.5v-0.6
	c1.9,0,2.2-0.4,2.2-2.9V5.9c0-2.4-0.3-2.9-2.2-2.9V2.4h4.2l4.1,8.8l4.1-8.8h4.2v0.6c-1.9,0-2.2,0.4-2.2,2.9v4.4
	c0,2.4,0.3,2.9,2.2,2.9v0.6H199.6L199.6,13.9z"/>
<path class="st0" d="M222,13.2v0.6h-6.9v-0.6c1.9,0,2.2-0.4,2.2-2.9V5.9c0-2.4-0.3-2.9-2.2-2.9V2.4h6c3,0,4.6,1.4,4.6,3.3
	s-1.6,3.3-4.6,3.3h-1.4v1.2C219.7,12.8,220,13.2,222,13.2 M221.1,3.4h-1.4V8h1.4c1.2,0.1,2.1-0.8,2.2-2c0-0.1,0-0.2,0-0.3
	c0.1-1.2-0.7-2.2-1.9-2.3C221.4,3.4,221.3,3.4,221.1,3.4"/>
<path class="st0" d="M235.4,11.3c-0.6,1.4-0.6,1.9,1.5,1.9v0.6h-5.5v-0.6c1.7,0,2-0.4,2.9-2.3l4.2-8.9h0.6l4.2,8.9
	c0.9,1.9,1.2,2.3,2.8,2.3v0.6h-6.6v-0.7c2,0,2.2-0.6,1.5-1.9l-0.5-1.1h-4.5L235.4,11.3z M238.2,5.4l-1.7,3.7h3.4L238.2,5.4z"/>
<path class="st0" d="M264.6,5.9v8.4h-0.7l-8-8.7v4.8c0,2.4,0.3,2.9,2.2,2.9v0.6h-5.5v-0.6c1.9,0,2.2-0.4,2.2-2.9V5.9
	c0-2.4-0.3-2.9-2.2-2.9V2.4h3.4l7.6,8.2V5.9c0-2.4-0.3-2.9-2.2-2.9V2.4h5.5v0.6C264.9,3.1,264.6,3.5,264.6,5.9"/>
<path class="st0" d="M284.5,5.4l-2.8,3.7v1.2c0,2.4,0.3,2.9,2.2,2.9v0.6h-6.8v-0.6c1.9,0,2.2-0.4,2.2-2.9V9.2l-2.8-3.8
	c-1.3-1.8-1.8-2.3-3.3-2.3V2.4h6.6v0.6c-1.7,0-1.9,0.5-0.9,1.9l2.2,2.9l2.1-2.9c1-1.4,0.9-1.9-0.8-1.9V2.4h5.4v0.6
	C286.4,3.1,285.8,3.6,284.5,5.4"/>
<path class="st0" d="M149,19c-0.5,0-1,0.1-1.5,0.1c-8.5,0-14.4-7.2-14.6-7.5c1.2-1.3,1.9-3,2.2-4.7l0,0c0.2-0.7,0.9-0.7,1.6-0.7V5.8
	h-3.9v0.5c1,0,1.4,0.2,1.4,0.7c-0.2,1.5-0.8,3-1.9,4.2c-1.9-2.3-3.8-4.8-4.3-5.4c2.6-0.8,3.5-2.1,3.5-3.2c0-1.3-1.2-2.5-3.8-2.5
	c-2.2,0-4.1,0.9-4.1,2.8c0,1.3,1.5,2.9,2,3.5c-2.2,0.9-4.7,2-4.7,4.5c0,0.1,0,4,5.4,4c1.9,0,3.7-0.6,5.1-1.8c0.5,0.5,6,6.4,13.8,6.4
	C146.5,19.4,147.7,19.3,149,19z M127.7,0.5c1,0,1.8,0.8,1.9,1.8c0,0.1,0,0.2,0,0.3c0.1,1.2-0.7,2.3-1.8,2.6c-0.1,0-1.9-2-1.9-3.2
	S126.7,0.5,127.7,0.5z M127.8,13.9c-0.8,0-2.2,0.1-3.8-2c-0.5-0.7-0.8-1.5-0.8-2.4c0-1.1,1.1-2.1,2.6-2.8l0.6,0.7
	c0.9,1.2,4.5,5.2,4.5,5.2C130.1,13.4,128.9,13.9,127.8,13.9z"/>
</svg>
