<?xml version="1.0" encoding="utf-8"?>
<!-- Generator: Adobe Illustrator 22.1.0, SVG Export Plug-In . SVG Version: 6.00 Build 0)  -->
<svg version="1.1" id="Layer_1" xmlns="http://www.w3.org/2000/svg" xmlns:xlink="http://www.w3.org/1999/xlink" x="0px" y="0px"
	 viewBox="0 0 148 32.2" style="enable-background:new 0 0 148 32.2;" xml:space="preserve">
<metadata><?xpacket begin="﻿" id="W5M0MpCehiHzreSzNTczkc9d"?>
<x:xmpmeta xmlns:x="adobe:ns:meta/" x:xmptk="Adobe XMP Core 5.6-c143 79.161356, 2017/09/07-01:11:22        ">
   <rdf:RDF xmlns:rdf="http://www.w3.org/1999/02/22-rdf-syntax-ns#">
      <rdf:Description rdf:about=""/>
   </rdf:RDF>
</x:xmpmeta>
                                                                                                    
                                                                                                    
                                                                                                    
                                                                                                    
                                                                                                    
                                                                                                    
                                                                                                    
                                                                                                    
                                                                                                    
                                                                                                    
                                                                                                    
                                                                                                    
                                                                                                    
                                                                                                    
                                                                                                    
                                                                                                    
                                                                                                    
                                                                                                    
                                                                                                    
                                                                                                    
                           
<?xpacket end="w"?></metadata>
<style type="text/css">
	.st0{fill:#002871;}
</style>
<g id="Design_1">
	<path class="st0" d="M8.8,10.9l2.8,8.6H6L8.8,10.9z M26,19.5l-2.8-8.6l-2.8,8.6H26z M32,16c0,8.8-7.2,16-16,16S0,24.8,0,16
		S7.2,0,16,0C24.8,0.1,32,7.2,32,16z M26.7,19.5L23.1,8.6l0,0h-3.5C19,7,17.6,5.9,16,5.9S13,7,12.4,8.6H8.7l0,0L5.3,19.5
		c0.6,1.6,2,2.7,3.6,2.7s3-1.1,3.6-2.7L9,9.4h5.5L15.4,26h1.1l1-16.6h5.3l-3.3,10.2c0.6,1.6,2,2.7,3.6,2.7
		C24.8,22.2,26.2,21.1,26.7,19.5z M40.5,16.6h4.9v-1.9h-4.9v-2.7h5.3v-1.9h-7.3v11.5h7.4v-1.9h-5.4V16.6z M53.3,13.4h2v11.5h-2v-4.4
		c-0.3,0.8-1.3,1.4-2.7,1.4c-1.2,0-2.2-0.4-3-1.2c-0.8-0.8-1.2-1.9-1.2-3.1s0.4-2.3,1.2-3.1s1.8-1.3,3-1.3c1.4,0,2.4,0.6,2.7,1.4
		V13.4z M53.4,17.5c0-0.7-0.2-1.3-0.7-1.8c-0.5-0.5-1.1-0.7-1.8-0.7s-1.3,0.2-1.8,0.7c-0.5,0.5-0.7,1.1-0.7,1.8s0.2,1.3,0.7,1.8
		s1.1,0.7,1.8,0.7s1.3-0.2,1.8-0.7C53.2,18.9,53.4,18.2,53.4,17.5z M64.2,19.1v-5.8h-2v4.8c0,1.1-0.8,1.9-1.8,1.9
		c-1.1,0-1.7-0.7-1.7-1.8v-4.9h-2v5.1c0,2.1,1.2,3.3,3.2,3.3c1.2,0,2-0.4,2.5-1.2c0.1,0.3,0.3,0.6,0.6,0.9c0.3,0.2,0.7,0.3,1.2,0.3
		c0.4,0,0.8,0,1-0.1V20c-0.1,0-0.3,0-0.4,0C64.4,20,64.2,19.9,64.2,19.1z M68.4,19.1v-5.8h-2v6.4c0,1.4,0.6,2.1,1.9,2.1
		c0.5,0,0.8,0,1-0.1V20c-0.1,0-0.2,0-0.3,0C68.6,20,68.4,19.9,68.4,19.1z M72.9,10.1h-2v3.2h-1v1.8h1V19c0,1.9,0.9,2.8,2.7,2.8
		c0.4,0,0.7,0,1-0.1v-1.8c-0.2,0-0.4,0.1-0.7,0.1c-0.7,0-1-0.3-1-1.2v-3.7h1.8v-1.8h-1.8V10.1z M67.5,12.4c0.6,0,1.2-0.5,1.2-1.2
		c0-0.6-0.5-1.2-1.2-1.2c-0.6,0-1.2,0.5-1.2,1.2C66.3,11.8,66.8,12.4,67.5,12.4z M83.4,13.4h-2v4.8c0,1.1-0.8,1.9-1.8,1.9
		c-1.1,0-1.7-0.7-1.7-1.8v-4.9h-2v5.1c0,2.1,1.2,3.3,3.2,3.3c1.1,0,2-0.4,2.4-1.1c0,0,0.1,0.8,0,1.6c-0.2,1-0.7,1.7-1.7,1.8
		c-1,0.1-1.8-0.3-2-1.4h-2c0,0.9,0.5,1.9,1.1,2.4c0.7,0.5,1.4,0.9,2.7,0.8c2.9-0.1,3.5-2.4,3.6-3.6c0-0.7,0-1,0-1.4v-1.8l0,0v-5.7
		H83.4z M86.9,12.1H90v9.5h2V12h3.1v-1.8h-8.2V12.1z M97.1,14.6v-1.2h-1.9v8.2h1.9v-4.3c0-1.4,0.9-2.2,2.2-2.2c0.3,0,0.6,0,0.8,0.1
		v-1.9c-0.2,0-0.4,0-0.6,0C98.4,13.2,97.5,13.8,97.1,14.6z M108.8,19.1v-5.7h-2v4.7c0,1.1-0.8,1.9-1.8,1.9c-1.1,0-1.7-0.7-1.7-1.8
		v-4.8h-2v5.1c0,2,1.2,3.3,3.1,3.3c1.2,0,2-0.4,2.5-1.2c0.1,0.3,0.3,0.6,0.6,0.9c0.3,0.2,0.7,0.3,1.2,0.3c0.4,0,0.7,0,1-0.1v-1.6
		c-0.1,0-0.3,0-0.4,0C108.9,20,108.8,19.9,108.8,19.1z M115.1,16.8c-0.3-0.1-0.8-0.3-1-0.3c-0.2-0.1-0.5-0.2-0.7-0.3
		c-0.2-0.1-0.4-0.3-0.4-0.6c0-0.4,0.4-0.7,1-0.7c0.7,0,1.2,0.2,1.6,0.7l1.1-1.2c-0.6-0.8-1.5-1.2-2.7-1.2c-0.8,0-1.5,0.2-2.1,0.7
		c-0.6,0.4-0.8,1-0.8,1.8c0,1.2,0.7,1.8,2,2.3c0.3,0.1,0.8,0.3,1,0.3c0.2,0.1,0.6,0.2,0.8,0.3c0.3,0.1,0.5,0.4,0.5,0.7
		c0,0.5-0.4,0.9-1.5,0.9c-1,0-1.8-0.4-2.2-1l-1.3,1.1c0.5,1,1.7,1.7,3.4,1.7c2.2,0,3.4-1.1,3.4-2.6C117.3,18,116.6,17.2,115.1,16.8z
		 M120.7,10.2h-2v3.1h-1v1.8h1v3.9c0,1.9,0.9,2.8,2.7,2.8c0.4,0,0.7,0,1-0.1V20c-0.2,0-0.4,0.1-0.7,0.1c-0.7,0-1-0.3-1-1.2v-3.7h1.8
		v-1.8h-1.8V10.2z M130.3,14.4c0.8,0.8,1.1,1.8,1.1,3c0,0.2,0,0.5,0,0.7H125c0.1,1.3,1,2.2,2.5,2.2c0.8,0,1.6-0.3,2.2-0.9l1.2,1.1
		c-0.9,1-2.1,1.5-3.5,1.5c-1.3,0-2.3-0.4-3.1-1.2c-0.8-0.8-1.2-1.8-1.2-3.1v-0.1c0-1.3,0.4-2.3,1.2-3.1c0.8-0.8,1.8-1.2,3.1-1.2
		C128.6,13.1,129.6,13.6,130.3,14.4z M129.5,16.6c0-0.5-0.2-0.9-0.6-1.3c-0.4-0.4-0.9-0.5-1.5-0.5s-1.1,0.2-1.6,0.5
		c-0.4,0.3-0.7,0.8-0.7,1.3H129.5z M139.6,14.4c0.8,0.8,1.1,1.8,1.1,3c0,0.2,0,0.5,0,0.7h-6.4c0.1,1.3,1,2.2,2.5,2.2
		c0.8,0,1.6-0.3,2.2-0.9l1.2,1.1c-0.9,1-2.1,1.5-3.5,1.5c-1.3,0-2.3-0.4-3.1-1.2c-0.8-0.8-1.2-1.8-1.2-3.1v-0.1
		c0-1.3,0.4-2.3,1.2-3.1s1.8-1.2,3.1-1.2C137.9,13.1,138.9,13.6,139.6,14.4z M138.8,16.6c0-0.5-0.2-0.9-0.6-1.3
		c-0.4-0.4-0.9-0.5-1.5-0.5s-1.1,0.2-1.6,0.5c-0.4,0.3-0.7,0.8-0.7,1.3H138.8z M145.7,16.8c-0.3-0.1-0.8-0.3-1-0.3
		c-0.2-0.1-0.5-0.2-0.7-0.3c-0.2-0.1-0.4-0.3-0.4-0.6c0-0.4,0.4-0.7,1-0.7c0.7,0,1.2,0.2,1.6,0.7l1.1-1.2c-0.6-0.8-1.5-1.2-2.7-1.2
		c-0.8,0-1.5,0.2-2.1,0.7c-0.6,0.4-0.8,1-0.8,1.8c0,1.2,0.7,1.8,2,2.3c0.3,0.1,0.8,0.3,1,0.3c0.2,0.1,0.6,0.2,0.8,0.3
		c0.3,0.1,0.5,0.4,0.5,0.7c0,0.5-0.4,0.9-1.5,0.9c-1,0-1.8-0.4-2.2-1l-1.3,1.1c0.5,1,1.7,1.7,3.4,1.7c2.2,0,3.4-1.1,3.4-2.6
		C147.9,18,147.2,17.2,145.7,16.8z"/>
</g>
<g id="Mobile_Search_bar">
</g>
<g id="mobile_drop_down">
</g>
<g id="Drop_Down_Menus">
	<g id="Trustee_Drop_Down">
	</g>
	<g id="Corporate_drop_down">
	</g>
	<g id="Super_drop_down">
	</g>
	<g id="Investor_Centre_Link">
	</g>
	<g id="About_Us_Drop_Down">
	</g>
	<g id="Drop_Down_Menu">
	</g>
</g>
<g id="Layer_10">
</g>
</svg>
