<?xml version="1.0" encoding="UTF-8"?>
<svg width="356px" height="48px" viewBox="0 0 356 48" version="1.1" xmlns="http://www.w3.org/2000/svg" xmlns:xlink="http://www.w3.org/1999/xlink">
    <!-- Generator: Sketch 46.2 (44496) - http://www.bohemiancoding.com/sketch -->
    <title>logo-w-strapline</title>
    <desc>Created with Sketch.</desc>
    <defs></defs>
    <g id="Toolkit-/-Branding-/-Guides" stroke="none" stroke-width="1" fill="none" fill-rule="evenodd">
        <g id="Toolkit" transform="translate(-440.000000, -980.000000)">
            <g id="section-brand" transform="translate(90.000000, 686.000000)">
                <g id="strapline" transform="translate(350.000000, 256.000000)">
                    <g id="logo-w-strapline" transform="translate(0.000000, 38.000000)">
                        <g>
                            <g id="mc_logo">
                                <path d="M21.6239259,47.7310989 C21.6239259,47.7310989 22.2204208,33.4806568 3.80584975,27.6514358 C0.923380203,26.7369095 -0.847416751,23.2844463 0.411232995,20.8940463 C1.62139543,18.5915621 4.96651472,18.1469305 8.07222792,19.7081937 C19.0293497,25.2231411 22.7143853,40.7756463 22.7143853,40.7756463 C31.9214183,27.1335411 46.2736619,28.9161095 52.5946898,30.53952 C59.0626949,32.2023411 60.0556746,36.4116884 58.983398,39.2760253 C57.9550629,42.0216253 54.3594259,43.7915621 47.9641518,40.5214989 C47.3989716,40.2628042 30.0521315,30.9068463 21.6239259,47.7310989" id="fan3" fill="#007491"></path>
                                <path d="M25.0479886,30.8432337 C25.0479886,30.8432337 32.6852449,13.2050021 53.7969226,16.0491284 C57.3566992,16.5281179 59.6613617,18.9538863 59.3416485,22.4932547 C58.980519,26.4903916 54.4085698,27.4069389 50.483118,26.3317389 C37.1869886,22.6877811 31.6523642,24.3470653 23.9317703,35.7725811 C21.4185114,21.7176758 12.5539201,19.6642863 9.76084898,15.39936 C8.86383376,14.0346442 8.33905964,11.5063074 9.92247335,9.98091789 C11.5079074,8.45300211 13.9090393,8.18167579 15.6828668,9.57064421 C19.3032525,12.4082021 24.4333109,24.2071074 25.0479886,30.8432337" id="fan2" fill="#FF8200"></path>
                                <path d="M28.264869,16.9026189 C28.264869,16.9026189 39.8492954,0.766534737 52.0696127,0.766534737 C56.1465873,0.766534737 58.9022827,2.68855579 59.1800746,5.37402947 C59.4659477,8.13327158 57.8593005,11.5771453 52.343869,11.2077979 C48.4820569,10.9602189 35.0424858,8.71432421 26.5304376,24.3203874 C26.5304376,24.3203874 25.9485898,14.1625768 20.655897,8.20350316 C17.8527244,5.04762947 18.1370822,2.11962947 20.9508614,0.380008421 C20.9508614,0.380008421 25.6556457,-2.01190737 27.1148107,5.20325053 C27.7688843,8.43491368 28.761864,13.5193768 28.264869,16.9026189" id="fan1" fill="#71C5E8"></path>
                                <path d="M148.668809,38.9057684 C148.809725,37.1919158 150.551733,35.8150737 152.65689,35.8150737 C154.623657,35.8150737 156.223738,37.2202105 156.223738,38.9057684 L148.668809,38.9057684 Z M145.243888,40.5347368 C145.243888,44.9724632 148.304649,47.8388211 152.742248,47.8388211 C154.8767,47.8388211 156.86872,47.2491789 158.694065,45.3104842 L156.672245,43.3445053 C155.605525,44.4106105 154.567088,44.9724632 152.85286,44.9724632 C150.353743,44.9724632 148.698608,43.5132632 148.585471,41.2658526 L159.594111,41.2658526 C159.649669,40.7029895 159.649669,40.0855579 159.649669,40.0855579 C159.649669,36.1237895 156.86872,32.9487158 152.65689,32.9487158 C148.416776,32.9487158 145.243888,35.8716632 145.243888,40.4215579 L145.243888,40.5347368 Z M137.76169,32.8936421 C133.492786,32.8936421 130.067865,36.0677053 130.067865,40.3937684 C130.067865,44.7193263 133.492786,47.8949053 137.76169,47.8949053 C139.867857,47.8949053 141.804824,47.1915789 143.43319,45.4509474 L141.355306,43.2874105 C140.402733,44.2696421 139.276918,44.8325053 137.76169,44.8325053 C135.289342,44.8325053 133.408943,42.9504 133.408943,40.3937684 C133.408943,37.8376421 135.289342,35.9570526 137.76169,35.9570526 C139.276918,35.9570526 140.402733,36.5173895 141.355306,37.5011368 L143.43319,35.3376 C141.804824,33.5969684 139.867857,32.8936421 137.76169,32.8936421 L137.76169,32.8936421 Z M123.07054,44.1872842 C123.07054,47.0223158 124.560009,47.7807158 126.329291,47.7807158 C127.200547,47.7807158 127.763202,47.6700632 128.01372,47.5584 L128.01372,44.7198316 C127.903108,44.7481263 127.620771,44.7749053 127.423286,44.7749053 C126.665167,44.7749053 126.441418,44.3252211 126.441418,43.2864 L126.441418,33.3423158 L123.07054,33.3423158 L123.07054,44.1872842 Z M122.734664,29.6928 C122.734664,30.8149895 123.660469,31.6855579 124.755474,31.6855579 C125.823205,31.6855579 126.749514,30.8149895 126.749514,29.6928 C126.749514,28.5680842 125.823205,27.6965053 124.755474,27.6965053 C123.660469,27.6965053 122.734664,28.5680842 122.734664,29.6928 L122.734664,29.6928 Z M112.388179,44.8602947 C109.889063,44.8602947 108.007654,42.9216 108.007654,40.4215579 C108.007654,37.9220211 109.889063,35.9843368 112.388179,35.9843368 C114.858507,35.9843368 116.7682,37.9220211 116.7682,40.4215579 C116.7682,42.9216 114.858507,44.8602947 112.388179,44.8602947 L112.388179,44.8602947 Z M112.388179,32.9214316 C108.092507,32.9214316 104.66506,36.1798737 104.66506,40.4215579 C104.66506,44.6642526 108.092507,47.9247158 112.388179,47.9247158 C116.656073,47.9247158 120.109278,44.6642526 120.109278,40.4215579 C120.109278,36.1798737 116.656073,32.9214316 112.388179,32.9214316 L112.388179,32.9214316 Z M101.982601,47.5013053 L101.982601,38.7370105 C101.982601,35.2537263 100.101192,33.0634105 96.8146617,33.0634105 C94.820116,33.0634105 93.3033723,33.9890526 92.6866744,35.3103158 L92.6866744,27.9223579 L89.3430703,27.9223579 L89.3430703,47.5013053 L92.6866744,47.5013053 L92.6866744,39.3559579 C92.6866744,37.4162526 93.9781541,36.0692211 95.8045094,36.0692211 C97.59955,36.0692211 98.6405119,37.3045895 98.6405119,39.2149895 L98.6405119,47.5013053 L101.982601,47.5013053 Z M78.4495881,27.5848421 C72.691215,27.5848421 68.0606769,31.8841263 68.0606769,37.7254737 C68.0606769,43.5683368 72.691215,47.8388211 78.4495881,47.8388211 C81.566918,47.8388211 84.346352,46.4892632 86.2277607,44.2691368 L83.8695602,42.2213053 C82.5477759,43.7648842 80.6108089,44.6637474 78.4495881,44.6637474 C74.5180754,44.6637474 71.5406515,41.7135158 71.5406515,37.7254737 C71.5406515,33.7374316 74.5180754,30.7589053 78.4495881,30.7589053 C80.6108089,30.7589053 82.4937327,31.6577684 83.8129916,33.1462737 L86.1994764,31.0959158 C84.2902886,28.9333895 81.566918,27.5848421 78.4495881,27.5848421 L78.4495881,27.5848421 Z M187.931913,11.6645053 C188.072324,9.95115789 189.814332,8.57431579 191.919489,8.57431579 C193.884235,8.57431579 195.486842,9.97844211 195.486842,11.6645053 L187.931913,11.6645053 Z M184.506992,13.2939789 C184.506992,17.7337263 187.567248,20.6016 192.005352,20.6016 C194.138794,20.6016 196.133339,20.0104421 197.956664,18.0707368 L195.935349,16.1027368 C194.869134,17.1718737 193.829182,17.7337263 192.115964,17.7337263 C189.617857,17.7337263 187.958177,16.2725053 187.84807,14.0240842 L198.855195,14.0240842 C198.910753,13.4622316 198.910753,12.8448 198.910753,12.8448 C198.910753,8.88303158 196.133339,5.70896842 191.919489,5.70896842 C187.67988,5.70896842 184.506992,8.63090526 184.506992,13.1818105 L184.506992,13.2939789 Z M174.159497,17.3957053 C171.774022,17.3957053 169.975446,15.5686737 169.975446,13.1242105 C169.975446,10.7105684 171.774022,8.85473684 174.159497,8.85473684 C176.60356,8.85473684 178.483454,10.7105684 178.483454,13.1242105 C178.483454,15.5686737 176.60356,17.3957053 174.159497,17.3957053 L174.159497,17.3957053 Z M178.23041,6.10105263 L178.23041,8.15242105 C177.753619,6.83115789 176.098484,5.79233684 173.710484,5.79233684 C169.724423,5.79233684 166.633357,8.99469474 166.633357,13.1242105 C166.633357,17.2552421 169.724423,20.3742316 173.710484,20.3742316 C176.069695,20.3742316 177.699575,19.4192842 178.316273,18.2945684 L178.316273,18.9973895 C178.316273,20.2625684 178.147578,21.7237895 176.968225,22.5953684 C176.211116,23.1582316 175.086816,23.4396632 173.85039,23.4396632 C171.941202,23.4396632 170.425974,22.8485053 168.993073,21.8935579 L167.363697,24.3936 C169.302685,25.7704421 171.576032,26.4454737 174.21556,26.4454737 C176.153537,26.4454737 177.949083,25.8553263 179.214804,24.8720842 C181.292687,23.2421053 181.600784,20.8815158 181.600784,17.9009684 L181.600784,6.10105263 L178.23041,6.10105263 Z M155.837355,17.5088842 C153.44986,17.5088842 151.652799,15.6530526 151.652799,13.1818105 C151.652799,10.7085474 153.44986,8.85473684 155.837355,8.85473684 C158.278893,8.85473684 160.161816,10.7085474 160.161816,13.1818105 C160.161816,15.6530526 158.278893,17.5088842 155.837355,17.5088842 L155.837355,17.5088842 Z M155.386827,5.79385263 C151.398745,5.79385263 148.31071,8.99469474 148.31071,13.1818105 C148.31071,17.3957053 151.398745,20.6016 155.386827,20.6016 C157.943522,20.6016 159.431981,19.5875368 160.245154,18.3804632 C160.442134,19.2788211 160.94721,19.7840842 161.396728,20.0948211 C162.013426,20.4601263 162.743261,20.5424842 163.361474,20.5424842 C163.951403,20.5424842 164.5979,20.4874105 165.019134,20.3201684 L165.019134,17.5922526 C164.822659,17.6210526 164.514058,17.6488421 164.317583,17.6488421 C163.557948,17.6488421 163.279146,17.1718737 163.279146,15.9905684 L163.279146,6.10256842 L159.908773,6.10256842 L159.908773,8.15393684 C159.403697,6.86096842 157.774827,5.79385263 155.386827,5.79385263 L155.386827,5.79385263 Z M138.346568,17.3957053 C135.959073,17.3957053 134.162012,15.5686737 134.162012,13.1242105 C134.162012,10.7105684 135.959073,8.85473684 138.346568,8.85473684 C140.789116,8.85473684 142.67204,10.7105684 142.67204,13.1242105 C142.67204,15.5686737 140.789116,17.3957053 138.346568,17.3957053 L138.346568,17.3957053 Z M142.418997,6.10105263 L142.418997,8.15242105 C141.942205,6.83115789 140.28404,5.79233684 137.896545,5.79233684 C133.909979,5.79233684 130.821943,8.99469474 130.821943,13.1242105 C130.821943,17.2552421 133.909979,20.3742316 137.896545,20.3742316 C140.256261,20.3742316 141.885131,19.4192842 142.50486,18.2945684 L142.50486,18.9973895 C142.50486,20.2625684 142.335154,21.7237895 141.156811,22.5953684 C140.396167,23.1582316 139.272877,23.4396632 138.037966,23.4396632 C136.129789,23.4396632 134.612035,22.8485053 133.178124,21.8935579 L131.550768,24.3936 C133.488745,25.7704421 135.763103,26.4454737 138.403136,26.4454737 C140.339598,26.4454737 142.13969,25.8553263 143.401875,24.8720842 C145.479758,23.2421053 145.78937,20.8815158 145.78937,17.9009684 L145.78937,6.10105263 L142.418997,6.10105263 Z M122.409395,15.8496 C122.409395,20.0933053 125.050438,20.6561684 126.98791,20.6561684 C127.633398,20.6561684 128.250096,20.6005895 128.728403,20.4874105 L128.728403,17.4810947 C128.307169,17.5644632 127.914725,17.5917474 127.548545,17.5917474 C126.340403,17.5917474 125.781284,17.0288842 125.781284,15.4842947 L125.781284,9.16345263 L128.895583,9.16345263 L128.895583,6.10256842 L125.781284,6.10256842 L125.781284,0.679073684 L122.409395,0.679073684 L122.409395,6.10256842 L120.640113,6.10256842 L120.640113,9.16345263 L122.409395,9.16345263 L122.409395,15.8496 Z M110.011796,20.2630737 L113.353885,20.2630737 L113.353885,13.1368421 C113.353885,10.8065684 114.840829,9.34484211 117.173271,9.34484211 C117.708652,9.34484211 118.184433,9.40042105 118.577888,9.4848 L118.577888,6.22585263 C118.436466,6.19806316 117.93139,6.14248421 117.56521,6.14248421 C115.543895,6.14248421 114.027657,7.06913684 113.353885,8.53086316 L113.353885,6.10155789 L110.011796,6.10155789 L110.011796,20.2630737 Z M99.4774231,17.6205474 C96.9793165,17.6205474 95.0968977,15.6808421 95.0968977,13.1813053 C95.0968977,10.6807579 96.9793165,8.74256842 99.4774231,8.74256842 C101.950781,8.74256842 103.858454,10.6807579 103.858454,13.1813053 C103.858454,15.6808421 101.950781,17.6205474 99.4774231,17.6205474 L99.4774231,17.6205474 Z M99.4774231,5.68016842 C95.1817505,5.68016842 91.7563241,8.94012632 91.7563241,13.1813053 C91.7563241,17.4245053 95.1817505,20.6844632 99.4774231,20.6844632 C103.747842,20.6844632 107.200542,17.4245053 107.200542,13.1813053 C107.200542,8.94012632 103.747842,5.68016842 99.4774231,5.68016842 L99.4774231,5.68016842 Z M69.0986084,0.679578947 L72.1033063,0.679578947 L79.1233596,11.6655158 L86.1156338,0.679578947 L89.0910373,0.679578947 L89.0910373,20.2620632 L85.7777378,20.2620632 L85.7777378,7.00042105 L79.1233596,17.3391158 L72.4119079,7.02922105 L72.4119079,20.2620632 L69.0986084,20.2620632 L69.0986084,0.679578947 Z" id="text" fill="#007491"></path>
                            </g>
                            <path d="M349.704007,38.2605804 C350.297135,38.2776696 351.047267,38.2959375 352.163161,38.2959375 C353.279637,38.2959375 354.064659,37.8357054 354.064659,36.8280268 C354.064659,36.2623125 353.628536,35.8386161 352.51206,35.8386161 C350.942597,35.8386161 350.104659,37.0054018 349.704007,38.2605804 L349.704007,38.2605804 Z M354.308888,43.1215982 C353.471531,43.4221339 352.233522,43.6519554 351.221135,43.6519554 C348.465417,43.6519554 347.62806,42.3260625 347.62806,40.1692768 C347.62806,38.0832054 348.796289,34.2829018 352.703954,34.2829018 C354.797346,34.2829018 355.826597,35.3082589 355.826597,36.5987946 C355.826597,38.1191518 354.972377,39.7455804 352.163161,39.7455804 C351.308941,39.7455804 350.226774,39.7455804 349.424888,39.6925446 C349.406862,39.8687411 349.406862,40.0278482 349.406862,40.1692768 C349.406862,41.3537411 349.861011,42.0785625 351.395584,42.0785625 C352.373082,42.0785625 353.262192,41.9023661 354.256553,41.5841518 L354.308888,43.1215982 Z M344.379813,34.5304018 L344.624042,33.3989732 C345.094474,31.0830804 346.402844,30.2521875 348.252007,30.2521875 C349.002139,30.2521875 349.909857,30.3405804 350.502404,30.4820089 L349.909857,32.0377232 C349.455707,31.9493304 348.75791,31.8786161 348.235144,31.8786161 C347.310562,31.8786161 346.699408,32.3912946 346.438315,33.6641518 L346.246421,34.5304018 L348.461346,34.5304018 L348.147337,36.0507589 L345.932412,36.0507589 L344.501928,42.9100446 C343.80413,46.2683839 342.443426,47.4174911 339.547567,47.4174911 L339.669681,45.8440982 C341.308923,45.8440982 342.129417,45.3490982 342.652765,42.8210625 L344.065804,36.0507589 L342.53065,36.0507589 L342.861522,34.5304018 L344.379813,34.5304018 Z M342.832448,31.4366518 C342.832448,32.0907589 342.378879,32.7625446 341.506633,32.7625446 C340.878615,32.7625446 340.425047,32.4620089 340.425047,31.7548661 C340.425047,31.0123661 340.93095,30.4289732 341.715972,30.4289732 C342.361434,30.4289732 342.832448,30.7295089 342.832448,31.4366518 L342.832448,31.4366518 Z M340.094174,43.4044554 L338.17465,43.4044554 L340.024395,34.5304018 L341.942756,34.5304018 L340.094174,43.4044554 Z M335.994033,41.0532054 C335.959144,41.2129018 335.941699,41.4073661 335.941699,41.5134375 C335.941699,41.8316518 336.116148,41.9371339 336.517381,41.9371339 C336.849417,41.9371339 337.093064,41.9023661 337.407655,41.8133839 L337.267514,43.3867768 C336.779056,43.5635625 336.291179,43.6342768 335.906809,43.6342768 C334.825223,43.6342768 333.952976,43.1392768 333.952976,42.0608839 C333.952976,41.7786161 334.022756,41.3714196 334.127426,40.9117768 L336.342932,30.3229018 L338.24443,30.3229018 L335.994033,41.0532054 Z M330.987337,36.1745089 C330.761135,36.1214732 330.621575,36.0861161 330.341875,36.0861161 C329.487073,36.0861161 328.492712,36.7932589 327.830386,37.8887411 L326.678439,43.4044554 L324.742633,43.4044554 L326.608659,34.5304018 L328.336289,34.5304018 L328.231038,35.5021339 C328.859056,34.7955804 329.644659,34.2652232 330.551214,34.2652232 C330.917558,34.2652232 331.214122,34.3182589 331.493822,34.3889732 L330.987337,36.1745089 Z M318.617716,38.2605804 C319.210844,38.2776696 319.960976,38.2959375 321.077452,38.2959375 C322.193346,38.2959375 322.978368,37.8357054 322.978368,36.8280268 C322.978368,36.2623125 322.542245,35.8386161 321.425769,35.8386161 C319.856307,35.8386161 319.018368,37.0054018 318.617716,38.2605804 L318.617716,38.2605804 Z M323.222597,43.1215982 C322.385822,43.4221339 321.147232,43.6519554 320.134844,43.6519554 C317.379126,43.6519554 316.541769,42.3260625 316.541769,40.1692768 C316.541769,38.0832054 317.709998,34.2829018 321.617663,34.2829018 C323.711056,34.2829018 324.740307,35.3082589 324.740307,36.5987946 C324.740307,38.1191518 323.886086,39.7455804 321.077452,39.7455804 C320.22265,39.7455804 319.140483,39.7455804 318.338597,39.6925446 C318.320571,39.8687411 318.320571,40.0278482 318.320571,40.1692768 C318.320571,41.3537411 318.774721,42.0785625 320.309293,42.0785625 C321.286791,42.0785625 322.175901,41.9023661 323.170263,41.5841518 L323.222597,43.1215982 Z M316.681329,36.0507589 L314.517575,36.0507589 L313.523214,40.8057054 C313.454016,41.0891518 313.419126,41.2659375 313.419126,41.4421339 C313.419126,41.7426696 313.61102,41.9371339 314.169258,41.9371339 C314.63969,41.9371339 315.197928,41.8133839 315.599743,41.7079018 L315.529381,43.2983839 C314.797276,43.5105268 314.308818,43.6342768 313.663355,43.6342768 C311.901417,43.6342768 311.482738,42.7862946 311.482738,41.9554018 C311.482738,41.7079018 311.517628,41.4073661 311.604271,41.0184375 L312.634104,36.0507589 L310.941945,36.0507589 L311.273399,34.5304018 L313.070227,34.5304018 L313.64591,31.8432589 L315.389822,31.8432589 L314.831584,34.5304018 L316.995337,34.5304018 L316.681329,36.0507589 Z M310.99428,36.0507589 L308.831108,36.0507589 L307.836747,40.8057054 C307.766967,41.0891518 307.732078,41.2659375 307.732078,41.4421339 C307.732078,41.7426696 307.923972,41.9371339 308.48221,41.9371339 C308.953223,41.9371339 309.511461,41.8133839 309.912694,41.7079018 L309.842915,43.2983839 C309.109646,43.5105268 308.621769,43.6342768 307.976307,43.6342768 C306.214368,43.6342768 305.79569,42.7862946 305.79569,41.9554018 C305.79569,41.7079018 305.83058,41.4073661 305.917804,41.0184375 L306.947056,36.0507589 L305.255478,36.0507589 L305.586351,34.5304018 L307.383179,34.5304018 L307.958862,31.8432589 L309.703355,31.8432589 L309.145117,34.5304018 L311.308289,34.5304018 L310.99428,36.0507589 Z M298.573487,38.2605804 C299.166615,38.2776696 299.916747,38.2959375 301.033223,38.2959375 C302.149699,38.2959375 302.934721,37.8357054 302.934721,36.8280268 C302.934721,36.2623125 302.498597,35.8386161 301.382122,35.8386161 C299.812078,35.8386161 298.975302,37.0054018 298.573487,38.2605804 L298.573487,38.2605804 Z M303.17895,43.1215982 C302.341593,43.4221339 301.103003,43.6519554 300.091778,43.6519554 C297.334897,43.6519554 296.498122,42.3260625 296.498122,40.1692768 C296.498122,38.0832054 297.666932,34.2829018 301.574016,34.2829018 C303.667408,34.2829018 304.696659,35.3082589 304.696659,36.5987946 C304.696659,38.1191518 303.841857,39.7455804 301.033223,39.7455804 C300.178421,39.7455804 299.097417,39.7455804 298.29495,39.6925446 C298.277505,39.8687411 298.277505,40.0278482 298.277505,40.1692768 C298.277505,41.3537411 298.731073,42.0785625 300.265646,42.0785625 C301.242562,42.0785625 302.132254,41.9023661 303.126615,41.5841518 L303.17895,43.1215982 Z M290.07606,37.4296875 L289.204395,41.6365982 C289.709716,41.8664196 290.250509,41.9901696 290.930862,41.9901696 C292.535796,41.9901696 293.8965,40.0107589 293.8965,37.7649911 C293.8965,36.7042768 293.495267,35.9623661 292.65791,35.9623661 C291.87347,35.9623661 290.948307,36.5805268 290.07606,37.4296875 L290.07606,37.4296875 Z M290.512183,35.4143304 C291.27976,34.7779018 292.152007,34.3005804 293.076589,34.3005804 C295.152536,34.3005804 295.850333,35.8203482 295.850333,37.4296875 C295.850333,40.7349911 293.96628,43.6519554 290.983778,43.6519554 C289.570157,43.6519554 288.210033,43.2453482 287.058668,42.7155804 L289.674826,30.3229018 L291.576324,30.3229018 L290.512183,35.4143304 Z M284.193047,35.3654196 L284.604166,33.3966161 C284.147108,33.0495268 283.758668,32.8415089 283.210315,32.8415089 C281.714122,32.8415089 281.222756,34.7395982 281.222756,35.7472768 C281.222756,36.6035089 281.54258,37.0902589 282.102562,37.0902589 C282.731161,37.0902589 283.508042,36.2446339 284.193047,35.3654196 L284.193047,35.3654196 Z M284.981558,36.4066875 C284.878633,36.9170089 284.821646,37.3913839 284.867003,37.7614554 L283.873223,37.9470804 C283.792976,37.6689375 283.815655,37.2982768 283.884853,36.8816518 C283.290562,37.5304554 282.627655,38.0048304 281.896712,38.0048304 C280.788377,38.0048304 280.217346,37.1945625 280.217346,35.8863482 C280.217346,34.1031696 281.131461,31.9033661 283.256254,31.9033661 C283.907531,31.9033661 284.398897,32.1467411 284.855373,32.4590625 L285.038544,32.0542232 L285.895672,32.0542232 L284.981558,36.4066875 Z M278.253047,32.9104554 C278.082086,32.8644911 277.990791,32.8415089 277.784941,32.8415089 C277.20228,32.8415089 276.471337,33.3854196 276.01428,34.1839018 L275.248448,37.8427768 L274.243038,37.8427768 L275.454298,32.0542232 L276.402139,32.0542232 L276.288747,32.7372054 C276.722544,32.2392589 277.259267,31.8803839 277.887866,31.8803839 C278.139073,31.8803839 278.344923,31.9263482 278.539144,31.9729018 L278.253047,32.9104554 Z M270.240007,33.2693304 C269.611989,33.8951518 269.337522,34.9482054 269.337522,35.7590625 C269.337522,36.7201875 270.023108,37.1014554 270.640078,37.1014554 C271.15354,37.1014554 271.565241,36.9282054 271.885064,36.5923125 C272.55902,35.9205268 272.810809,34.7284018 272.810809,34.0919732 C272.810809,33.3276696 272.410738,32.7831696 271.439637,32.7831696 C270.99421,32.7831696 270.548201,32.9570089 270.240007,33.2693304 L270.240007,33.2693304 Z M273.827267,33.9640982 C273.827267,35.6895268 272.947461,37.9936339 270.571461,37.9936339 C269.154932,37.9936339 268.332113,37.0902589 268.332113,35.7932411 C268.332113,34.3577411 268.97176,31.8915804 271.565241,31.8915804 C273.084694,31.8915804 273.827267,32.8986696 273.827267,33.9640982 L273.827267,33.9640982 Z M266.220113,32.0542232 L266.391655,31.2203839 C266.688219,29.7848839 267.47673,29.2174018 268.653681,29.2174018 C269.144465,29.2174018 269.750386,29.2869375 270.127196,29.3794554 L269.807373,30.2015089 C269.475919,30.1437589 268.972923,30.0972054 268.619373,30.0972054 C267.979725,30.0972054 267.545346,30.4678661 267.351126,31.3942232 L267.213893,32.0542232 L268.779285,32.0542232 L268.607743,32.8756875 L267.042932,32.8756875 L266.048571,37.6229732 C265.603144,39.7414554 264.723337,40.4827768 262.986985,40.4827768 L263.043972,39.6377411 C264.140677,39.6377411 264.723337,39.2900625 265.07747,37.5534375 L266.048571,32.8756875 L264.997804,32.8756875 L265.169346,32.0542232 L266.220113,32.0542232 Z M323.505787,20.8866696 C322.73821,20.6922054 321.796183,20.4800625 320.907073,20.4800625 C319.650456,20.4800625 319.354474,21.1341696 319.354474,21.5054196 C319.354474,21.9120268 319.580677,22.2302411 321.098386,22.7959554 C322.790544,23.4500625 323.174333,24.2632768 323.174333,25.1648839 C323.174333,26.6322054 322.110192,28.3470268 319.441117,28.3470268 C318.219972,28.3470268 316.824377,27.9751875 316.004465,27.6222054 L316.684818,26.0841696 C317.418086,26.3670268 318.482227,26.7382768 319.441117,26.7382768 C320.400589,26.7382768 321.237945,26.2432768 321.237945,25.3947054 C321.237945,24.9350625 320.854157,24.5991696 319.458562,24.0864911 C317.818738,23.4677411 317.487866,22.6545268 317.487866,21.6998839 C317.487866,20.3209554 318.56887,18.9420268 320.889047,18.9420268 C322.145082,18.9420268 323.366227,19.2072054 324.098915,19.4016696 L323.505787,20.8866696 Z M310.470932,22.9373839 C311.06406,22.9550625 311.814192,22.9727411 312.930668,22.9727411 C314.047144,22.9727411 314.832166,22.5130982 314.832166,21.5054196 C314.832166,20.9397054 314.396042,20.5154196 313.279567,20.5154196 C311.709522,20.5154196 310.872747,21.6822054 310.470932,22.9373839 L310.470932,22.9373839 Z M315.076395,27.7989911 C314.239038,28.0989375 313.000448,28.3287589 311.989223,28.3287589 C309.232342,28.3287589 308.395567,27.0028661 308.395567,24.8466696 C308.395567,22.7605982 309.564377,18.9597054 313.471461,18.9597054 C315.564853,18.9597054 316.594104,19.9850625 316.594104,21.2755982 C316.594104,22.7959554 315.739302,24.4223839 312.930668,24.4223839 C312.075866,24.4223839 310.994862,24.4223839 310.192395,24.3693482 C310.174368,24.5461339 310.174368,24.7052411 310.174368,24.8466696 C310.174368,26.0311339 310.628518,26.7559554 312.163091,26.7559554 C313.140007,26.7559554 314.029699,26.5791696 315.02406,26.2609554 L315.076395,27.7989911 Z M308.00073,21.1695268 C307.233152,20.8689911 306.692359,20.6568482 305.802668,20.6568482 C303.622633,20.6568482 303.081258,23.2555982 303.081258,24.7759554 C303.081258,26.0311339 303.691831,26.6145268 304.721663,26.6145268 C305.610774,26.6145268 306.273681,26.4017946 307.216289,25.9250625 L307.460518,27.4807768 C306.344042,28.0288125 305.453769,28.3116696 304.372183,28.3116696 C302.296818,28.3116696 301.128007,27.2686339 301.128007,24.8820268 C301.128007,22.9550625 301.842668,18.9597054 305.767778,18.9597054 C306.814474,18.9597054 307.808835,19.2955982 308.698527,19.6314911 L308.00073,21.1695268 Z M301.622862,16.1134554 C301.622862,16.7675625 301.169875,17.4393482 300.297628,17.4393482 C299.669611,17.4393482 299.216042,17.1388125 299.216042,16.4322589 C299.216042,15.6891696 299.721945,15.1063661 300.506967,15.1063661 C301.15243,15.1063661 301.622862,15.4063125 301.622862,16.1134554 L301.622862,16.1134554 Z M298.884589,28.0818482 L296.965646,28.0818482 L298.814809,19.2072054 L300.733752,19.2072054 L298.884589,28.0818482 Z M291.146016,21.2225625 C290.273769,22.1064911 289.872536,23.7682768 289.872536,24.8820268 C289.872536,26.1902411 290.762227,26.6846518 291.616448,26.6846518 C292.332271,26.6846518 292.873064,26.4554196 293.326633,26.0134554 C294.268659,25.0588125 294.635003,23.2202411 294.635003,22.3186339 C294.635003,21.2932768 294.111073,20.5684554 292.802703,20.5684554 C292.174685,20.5684554 291.564694,20.7982768 291.146016,21.2225625 L291.146016,21.2225625 Z M296.57139,22.1595268 C296.57139,24.7052411 295.315355,28.3116696 291.494333,28.3116696 C289.209628,28.3116696 287.936148,26.9675089 287.936148,24.9350625 C287.936148,22.7782768 288.86073,18.9420268 292.977152,18.9420268 C295.349663,18.9420268 296.57139,20.3739911 296.57139,22.1595268 L296.57139,22.1595268 Z M281.668183,20.1618482 C282.662544,19.4193482 283.622016,18.9597054 284.581487,18.9597054 C286.151531,18.9597054 287.058668,20.0380982 287.058668,21.3993482 C287.058668,21.7529196 287.006333,22.0888125 286.919108,22.4954196 L285.750298,28.0818482 L283.831355,28.0818482 L285.035056,22.2655982 C285.069945,22.1064911 285.08739,21.9650625 285.08739,21.8059554 C285.08739,21.3109554 284.843161,20.6922054 283.91858,20.6922054 C283.098668,20.6922054 282.121752,21.3816696 281.26695,22.1064911 L280.028359,28.0818482 L278.109417,28.0818482 L280.848271,14.9997054 L282.749769,14.9997054 L281.668183,20.1618482 Z M277.933223,21.1695268 C277.165646,20.8689911 276.625434,20.6568482 275.735161,20.6568482 C273.554544,20.6568482 273.014333,23.2555982 273.014333,24.7759554 C273.014333,26.0311339 273.624906,26.6145268 274.654157,26.6145268 C275.543267,26.6145268 276.206174,26.4017946 277.148782,25.9250625 L277.39243,27.4807768 C276.276536,28.0288125 275.386263,28.3116696 274.304677,28.3116696 C272.229311,28.3116696 271.0605,27.2686339 271.0605,24.8820268 C271.0605,22.9550625 271.775743,18.9597054 275.700271,18.9597054 C276.747549,18.9597054 277.74191,19.2955982 278.63102,19.6314911 L277.933223,21.1695268 Z M268.269311,20.8513125 C268.042527,20.7982768 267.902967,20.7629196 267.623848,20.7629196 C266.769047,20.7629196 265.774685,21.4700625 265.111778,22.5661339 L263.960412,28.0818482 L262.024025,28.0818482 L263.890633,19.2072054 L265.617681,19.2072054 L265.513011,20.1795268 C266.141029,19.4723839 266.926051,18.9420268 267.833188,18.9420268 C268.19895,18.9420268 268.496095,18.9950625 268.775214,19.0657768 L268.269311,20.8513125 Z M255.899108,22.9373839 C256.492236,22.9550625 257.242368,22.9727411 258.358844,22.9727411 C259.474738,22.9727411 260.260342,22.5130982 260.260342,21.5054196 C260.260342,20.9397054 259.824219,20.5154196 258.707743,20.5154196 C257.137699,20.5154196 256.300342,21.6822054 255.899108,22.9373839 L255.899108,22.9373839 Z M260.504571,27.7989911 C259.667214,28.0989375 258.428624,28.3287589 257.416818,28.3287589 C254.660518,28.3287589 253.823161,27.0028661 253.823161,24.8466696 C253.823161,22.7605982 254.991972,18.9597054 258.899637,18.9597054 C260.992448,18.9597054 262.021699,19.9850625 262.021699,21.2755982 C262.021699,22.7959554 261.167478,24.4223839 258.358844,24.4223839 C257.504042,24.4223839 256.422456,24.4223839 255.619989,24.3693482 C255.602544,24.5461339 255.602544,24.7052411 255.602544,24.8466696 C255.602544,26.0311339 256.056113,26.7559554 257.591267,26.7559554 C258.568183,26.7559554 259.457875,26.5791696 260.452236,26.2609554 L260.504571,27.7989911 Z M253.962721,20.7275625 L251.799549,20.7275625 L250.805188,25.4830982 C250.735408,25.7659554 250.700518,25.9427411 250.700518,26.1189375 C250.700518,26.4200625 250.892412,26.6145268 251.45065,26.6145268 C251.921663,26.6145268 252.479901,26.4907768 252.881135,26.3847054 L252.811355,27.9751875 C252.078668,28.1879196 251.59021,28.3116696 250.944747,28.3116696 C249.182809,28.3116696 248.76413,27.4630982 248.76413,26.6322054 C248.76413,26.3847054 248.79902,26.0841696 248.886245,25.6952411 L249.915496,20.7275625 L248.223337,20.7275625 L248.554791,19.2072054 L250.351619,19.2072054 L250.927302,16.5200625 L252.671796,16.5200625 L252.113558,19.2072054 L254.27673,19.2072054 L253.962721,20.7275625 Z M248.276254,20.7275625 L246.1125,20.7275625 L245.118721,25.4830982 C245.048941,25.7659554 245.014051,25.9427411 245.014051,26.1189375 C245.014051,26.4200625 245.205945,26.6145268 245.764183,26.6145268 C246.234615,26.6145268 246.792853,26.4907768 247.194086,26.3847054 L247.124888,27.9751875 C246.391619,28.1879196 245.903743,28.3116696 245.25828,28.3116696 C243.496342,28.3116696 243.077663,27.4630982 243.077663,26.6322054 C243.077663,26.3847054 243.112553,26.0841696 243.199778,25.6952411 L244.229029,20.7275625 L242.53687,20.7275625 L242.868324,19.2072054 L244.665152,19.2072054 L245.240835,16.5200625 L246.984747,16.5200625 L246.427091,19.2072054 L248.590263,19.2072054 L248.276254,20.7275625 Z M235.855461,22.9373839 C236.448007,22.9550625 237.198139,22.9727411 238.314615,22.9727411 C239.431091,22.9727411 240.216113,22.5130982 240.216113,21.5054196 C240.216113,20.9397054 239.779989,20.5154196 238.663514,20.5154196 C237.094051,20.5154196 236.256694,21.6822054 235.855461,22.9373839 L235.855461,22.9373839 Z M240.460342,27.7989911 C239.622985,28.0989375 238.384395,28.3287589 237.37317,28.3287589 C234.616289,28.3287589 233.779514,27.0028661 233.779514,24.8466696 C233.779514,22.7605982 234.948324,18.9597054 238.855989,18.9597054 C240.9488,18.9597054 241.978051,19.9850625 241.978051,21.2755982 C241.978051,22.7959554 241.123249,24.4223839 238.314615,24.4223839 C237.460395,24.4223839 236.378809,24.4223839 235.576342,24.3693482 C235.558897,24.5461339 235.558897,24.7052411 235.558897,24.8466696 C235.558897,26.0311339 236.012465,26.7559554 237.547619,26.7559554 C238.523954,26.7559554 239.413646,26.5791696 240.408007,26.2609554 L240.460342,27.7989911 Z M228.605346,21.2579196 C230.977857,21.2579196 231.65821,20.0380982 231.65821,18.9243482 C231.65821,18.3939911 231.326756,17.5807768 229.547373,17.5807768 C228.97169,17.5807768 228.570456,17.5984554 228.099443,17.6338125 L227.331866,21.2579196 L228.605346,21.2579196 Z M226.25028,26.5084554 C226.703848,26.5438125 227.105082,26.5609018 227.715655,26.5609018 C230.454509,26.5609018 230.890633,25.1295268 230.890633,24.2986339 C230.890633,23.5738125 230.437064,22.7959554 228.151778,22.7959554 L227.017857,22.7959554 L226.25028,26.5084554 Z M226.511954,16.1311339 C227.59354,16.0256518 228.396007,15.9720268 229.355478,15.9720268 C232.513011,15.9720268 233.576571,17.2802411 233.576571,18.8005982 C233.576571,20.0557768 233.106139,21.3639911 231.379091,22.0180982 C232.425787,22.4777411 232.844465,23.3086339 232.844465,24.2632768 C232.844465,26.1018482 231.65821,28.2055982 227.680765,28.2055982 C226.28517,28.2055982 225.133804,28.1342946 223.999884,28.0818482 L226.511954,16.1311339 Z" id="strapline" fill="#007491"></path>
                            <rect id="divider" fill="#FF8200" x="211" y="1" width="1" height="46"></rect>
                        </g>
                    </g>
                </g>
            </g>
        </g>
    </g>
</svg>