<?xml version="1.0" encoding="utf-8"?>
<!-- Generator: Adobe Illustrator 13.0.0, SVG Export Plug-In . SVG Version: 6.00 Build 14948)  -->
<!DOCTYPE svg PUBLIC "-//W3C//DTD SVG 1.1//EN" "http://www.w3.org/Graphics/SVG/1.1/DTD/svg11.dtd">
<svg version="1.1" id="Layer_1" xmlns="http://www.w3.org/2000/svg" xmlns:xlink="http://www.w3.org/1999/xlink" x="0px" y="0px"
	 width="687.488px" height="173.494px" viewBox="0 0 687.488 173.494" enable-background="new 0 0 687.488 173.494"
	 xml:space="preserve">
<g>
	<path fill="#147332" d="M199.229,161.867h-6.771v11.269h-4.722v-27.439h11.493c3.786,0,6.86,3.119,6.86,6.904v2.406
		C206.089,158.793,203.015,161.867,199.229,161.867 M201.367,152.512c0-1.248-1.025-2.316-2.272-2.316h-6.637v7.172h6.637
		c1.247,0,2.272-1.025,2.272-2.273V152.512z"/>
	<polygon fill="#147332" points="220.524,173.135 220.524,145.696 236.605,145.696 236.605,150.196 225.247,150.196 225.247,157.1 
		236.605,157.1 236.605,161.598 225.247,161.598 225.247,168.637 236.605,168.637 236.605,173.135 	"/>
	<polygon fill="#147332" points="261.955,150.196 261.955,173.135 257.232,173.135 257.232,150.196 250.417,150.196 
		250.417,145.696 268.77,145.696 268.77,150.196 	"/>
	<path fill="#147332" d="M295.901,173.135l-5.658-11.269h-3.163v11.269h-4.721v-27.439h11.492c3.787,0,6.905,3.119,6.905,6.904
		v2.406c0,3.342-2.45,6.146-5.658,6.771l6.014,11.357H295.901z M296.034,152.512c0-1.248-1.069-2.316-2.316-2.316h-6.638v7.172
		h6.638c1.247,0,2.316-1.025,2.316-2.273V152.512z"/>
	<path fill="#147332" d="M326.505,173.493h-4.632c-3.787,0-6.86-3.119-6.86-6.904V152.2c0-3.785,3.073-6.86,6.86-6.86h4.632
		c3.787,0,6.861,3.075,6.861,6.86v14.389C333.367,170.374,330.292,173.493,326.505,173.493 M328.645,152.11
		c0-1.246-1.025-2.271-2.272-2.271h-4.366c-1.246,0-2.271,1.025-2.271,2.271v14.611c0,1.246,1.025,2.271,2.271,2.271h4.366
		c1.247,0,2.272-1.025,2.272-2.271V152.11z"/>
	<polygon fill="#147332" points="348.159,173.135 348.159,145.696 352.881,145.696 352.881,168.637 364.24,168.637 364.24,173.135 	
		"/>
	<polygon fill="#147332" points="377.917,173.135 377.917,145.696 393.998,145.696 393.998,150.196 382.639,150.196 382.639,157.1 
		393.998,157.1 393.998,161.598 382.639,161.598 382.639,168.637 393.998,168.637 393.998,173.135 	"/>
	<path fill="#147332" d="M420.194,173.493h-4.854c-3.744,0-6.772-3.162-6.772-6.861v-20.936h4.722v21.025
		c0,1.203,1.024,2.271,2.271,2.271h4.41c1.203,0,2.228-1.025,2.228-2.271v-21.025h4.721v21.115
		C426.919,170.374,423.801,173.493,420.194,173.493"/>
	<polygon fill="#147332" points="459.974,173.135 459.974,153.268 453.16,163.514 446.433,153.225 446.433,173.135 441.711,173.135 
		441.711,145.696 446.746,145.696 453.205,155.319 459.619,145.696 464.696,145.696 464.696,173.135 	"/>
	<polygon fill="#147332" points="498.557,173.135 498.557,145.696 503.28,145.696 503.28,168.637 514.638,168.637 514.638,173.135 	
		"/>
	<rect x="528.894" y="145.651" fill="#147332" width="4.723" height="27.484"/>
	<polygon fill="#147332" points="567.204,173.135 567.204,153.268 560.389,163.514 553.664,153.225 553.664,173.135 
		548.941,173.135 548.941,145.696 553.974,145.696 560.433,155.319 566.849,145.696 571.926,145.696 571.926,173.135 	"/>
	<rect x="587.297" y="145.651" fill="#147332" width="4.723" height="27.484"/>
	<polygon fill="#147332" points="617.903,150.196 617.903,173.135 613.18,173.135 613.18,150.196 606.366,150.196 606.366,145.696 
		624.716,145.696 624.716,150.196 	"/>
	<polygon fill="#147332" points="638.307,173.135 638.307,145.696 654.388,145.696 654.388,150.196 643.03,150.196 643.03,157.1 
		654.388,157.1 654.388,161.598 643.03,161.598 643.03,168.637 654.388,168.637 654.388,173.135 	"/>
	<path fill="#147332" d="M680.761,173.135h-11.627v-27.438h11.493c3.608,0,6.86,3.073,6.86,6.771v13.898
		C687.488,170.061,684.415,173.135,680.761,173.135 M682.766,152.467c0-1.248-1.159-2.271-2.361-2.271h-6.548v18.44h6.682
		c1.202,0,2.228-1.024,2.228-2.271V152.467z"/>
</g>
<g>
	<defs>
		<polygon id="SVGID_1_" points="291.029,0 243.302,45.339 225.576,45.339 225.576,0 187.736,0 187.736,123.405 225.576,123.405 
			225.576,76.02 242.278,76.02 296.823,123.405 350.344,123.405 275.688,60.337 342.504,0 		"/>
	</defs>
	<clipPath id="SVGID_2_">
		<use xlink:href="#SVGID_1_"  overflow="visible"/>
	</clipPath>
	
		<linearGradient id="SVGID_3_" gradientUnits="userSpaceOnUse" x1="-77.3535" y1="384.3872" x2="-76.3535" y2="384.3872" gradientTransform="matrix(0 -123.4043 -123.4043 0 47703.9336 -9422.3672)">
		<stop  offset="0" style="stop-color:#147332"/>
		<stop  offset="0" style="stop-color:#227236"/>
		<stop  offset="0" style="stop-color:#32723C"/>
		<stop  offset="0" style="stop-color:#3E713F"/>
		<stop  offset="0" style="stop-color:#457141"/>
		<stop  offset="0" style="stop-color:#477142"/>
		<stop  offset="0.0036" style="stop-color:#466F41"/>
		<stop  offset="0.0824" style="stop-color:#344C31"/>
		<stop  offset="0.1564" style="stop-color:#273225"/>
		<stop  offset="0.2231" style="stop-color:#20221E"/>
		<stop  offset="0.2761" style="stop-color:#1D1D1B"/>
		<stop  offset="1" style="stop-color:#1D1D1B"/>
	</linearGradient>
	<rect x="187.736" y="0" clip-path="url(#SVGID_2_)" fill="url(#SVGID_3_)" width="162.608" height="123.404"/>
</g>
<g>
	<defs>
		<polygon id="SVGID_4_" points="364.488,0 364.488,123.405 501.701,123.405 501.701,93.747 402.329,93.747 402.329,73.975 
			494.369,73.975 494.369,48.407 402.329,48.407 402.329,28.635 499.485,28.635 499.485,0 		"/>
	</defs>
	<clipPath id="SVGID_5_">
		<use xlink:href="#SVGID_4_"  overflow="visible"/>
	</clipPath>
	
		<linearGradient id="SVGID_6_" gradientUnits="userSpaceOnUse" x1="-77.3535" y1="384.3872" x2="-76.3535" y2="384.3872" gradientTransform="matrix(0 -123.4043 -123.4043 0 47868.0586 -9422.3672)">
		<stop  offset="0" style="stop-color:#147332"/>
		<stop  offset="0" style="stop-color:#227236"/>
		<stop  offset="0" style="stop-color:#32723C"/>
		<stop  offset="0" style="stop-color:#3E713F"/>
		<stop  offset="0" style="stop-color:#457141"/>
		<stop  offset="0" style="stop-color:#477142"/>
		<stop  offset="0.0036" style="stop-color:#466F41"/>
		<stop  offset="0.0824" style="stop-color:#344C31"/>
		<stop  offset="0.1564" style="stop-color:#273225"/>
		<stop  offset="0.2231" style="stop-color:#20221E"/>
		<stop  offset="0.2761" style="stop-color:#1D1D1B"/>
		<stop  offset="1" style="stop-color:#1D1D1B"/>
	</linearGradient>
	<rect x="364.488" y="0" clip-path="url(#SVGID_5_)" fill="url(#SVGID_6_)" width="137.213" height="123.404"/>
</g>
<g>
	<defs>
		<polygon id="SVGID_7_" points="641.807,0 600.217,50.452 558.627,0 512.949,0 581.298,80.452 581.298,123.405 619.139,123.405 
			619.139,80.452 687.488,0 		"/>
	</defs>
	<clipPath id="SVGID_8_">
		<use xlink:href="#SVGID_7_"  overflow="visible"/>
	</clipPath>
	
		<linearGradient id="SVGID_9_" gradientUnits="userSpaceOnUse" x1="-77.3535" y1="384.3872" x2="-76.3535" y2="384.3872" gradientTransform="matrix(0 -123.4043 -123.4043 0 48035.1836 -9422.3672)">
		<stop  offset="0" style="stop-color:#147332"/>
		<stop  offset="0" style="stop-color:#227236"/>
		<stop  offset="0" style="stop-color:#32723C"/>
		<stop  offset="0" style="stop-color:#3E713F"/>
		<stop  offset="0" style="stop-color:#457141"/>
		<stop  offset="0" style="stop-color:#477142"/>
		<stop  offset="0.0036" style="stop-color:#466F41"/>
		<stop  offset="0.0824" style="stop-color:#344C31"/>
		<stop  offset="0.1564" style="stop-color:#273225"/>
		<stop  offset="0.2231" style="stop-color:#20221E"/>
		<stop  offset="0.2761" style="stop-color:#1D1D1B"/>
		<stop  offset="1" style="stop-color:#1D1D1B"/>
	</linearGradient>
	<rect x="512.949" y="0" clip-path="url(#SVGID_8_)" fill="url(#SVGID_9_)" width="174.539" height="123.404"/>
</g>
<g>
	<polygon fill="none" stroke="#1D1D1B" stroke-width="7.544" stroke-miterlimit="10" points="117.005,111.481 75.175,135.633 
		33.342,111.481 33.342,63.179 75.175,39.027 117.005,63.179 	"/>
</g>
<g>
	<defs>
		<path id="SVGID_10_" d="M65.412,135.047c0,4.957,4.019,8.977,8.978,8.977c4.956,0,8.975-4.02,8.975-8.977
			s-4.019-8.977-8.975-8.977C69.431,126.071,65.412,130.09,65.412,135.047"/>
	</defs>
	<clipPath id="SVGID_11_">
		<use xlink:href="#SVGID_10_"  overflow="visible"/>
	</clipPath>
	
		<linearGradient id="SVGID_12_" gradientUnits="userSpaceOnUse" x1="-77.354" y1="384.3853" x2="-76.354" y2="384.3853" gradientTransform="matrix(17.9531 0 0 -17.9531 1454.1577 7035.9766)">
		<stop  offset="0" style="stop-color:#147332"/>
		<stop  offset="0.2376" style="stop-color:#146F31"/>
		<stop  offset="0.4809" style="stop-color:#14632E"/>
		<stop  offset="0.7267" style="stop-color:#134E28"/>
		<stop  offset="0.973" style="stop-color:#123221"/>
		<stop  offset="1" style="stop-color:#122E20"/>
	</linearGradient>
	<rect x="65.412" y="126.071" clip-path="url(#SVGID_11_)" fill="url(#SVGID_12_)" width="17.953" height="17.953"/>
</g>
<g>
	<defs>
		<path id="SVGID_13_" d="M65.412,38.442c0,4.957,4.019,8.977,8.978,8.977c4.956,0,8.975-4.02,8.975-8.977s-4.019-8.976-8.975-8.976
			C69.431,29.466,65.412,33.485,65.412,38.442"/>
	</defs>
	<clipPath id="SVGID_14_">
		<use xlink:href="#SVGID_13_"  overflow="visible"/>
	</clipPath>
	
		<linearGradient id="SVGID_15_" gradientUnits="userSpaceOnUse" x1="-77.354" y1="384.3862" x2="-76.354" y2="384.3862" gradientTransform="matrix(17.9531 0 0 -17.9531 1454.1577 6939.3828)">
		<stop  offset="0" style="stop-color:#147332"/>
		<stop  offset="0.2376" style="stop-color:#146F31"/>
		<stop  offset="0.4809" style="stop-color:#14632E"/>
		<stop  offset="0.7267" style="stop-color:#134E28"/>
		<stop  offset="0.973" style="stop-color:#123221"/>
		<stop  offset="1" style="stop-color:#122E20"/>
	</linearGradient>
	<rect x="65.412" y="29.466" clip-path="url(#SVGID_14_)" fill="url(#SVGID_15_)" width="17.953" height="17.953"/>
</g>
<g>
	<defs>
		<path id="SVGID_16_" d="M107.101,65.268c0,4.957,4.018,8.976,8.977,8.976c4.957,0,8.975-4.019,8.975-8.976
			c0-4.959-4.018-8.978-8.975-8.978C111.119,56.29,107.101,60.309,107.101,65.268"/>
	</defs>
	<clipPath id="SVGID_17_">
		<use xlink:href="#SVGID_16_"  overflow="visible"/>
	</clipPath>
	
		<linearGradient id="SVGID_18_" gradientUnits="userSpaceOnUse" x1="-77.354" y1="384.3853" x2="-76.354" y2="384.3853" gradientTransform="matrix(17.9531 0 0 -17.9531 1495.8452 6966.1953)">
		<stop  offset="0" style="stop-color:#147332"/>
		<stop  offset="0.2376" style="stop-color:#146F31"/>
		<stop  offset="0.4809" style="stop-color:#14632E"/>
		<stop  offset="0.7267" style="stop-color:#134E28"/>
		<stop  offset="0.973" style="stop-color:#123221"/>
		<stop  offset="1" style="stop-color:#122E20"/>
	</linearGradient>
	<rect x="107.101" y="56.29" clip-path="url(#SVGID_17_)" fill="url(#SVGID_18_)" width="17.952" height="17.954"/>
</g>
<g>
	<defs>
		<path id="SVGID_19_" d="M106.959,110.272c0,4.956,4.018,8.978,8.977,8.978c4.957,0,8.976-4.021,8.976-8.978
			c0-4.957-4.019-8.976-8.976-8.976C110.977,101.296,106.959,105.315,106.959,110.272"/>
	</defs>
	<clipPath id="SVGID_20_">
		<use xlink:href="#SVGID_19_"  overflow="visible"/>
	</clipPath>
	
		<linearGradient id="SVGID_21_" gradientUnits="userSpaceOnUse" x1="-77.354" y1="384.3862" x2="-76.354" y2="384.3862" gradientTransform="matrix(17.9531 0 0 -17.9531 1495.7046 7011.2109)">
		<stop  offset="0" style="stop-color:#147332"/>
		<stop  offset="0.2376" style="stop-color:#146F31"/>
		<stop  offset="0.4809" style="stop-color:#14632E"/>
		<stop  offset="0.7267" style="stop-color:#134E28"/>
		<stop  offset="0.973" style="stop-color:#123221"/>
		<stop  offset="1" style="stop-color:#122E20"/>
	</linearGradient>
	<rect x="106.959" y="101.296" clip-path="url(#SVGID_20_)" fill="url(#SVGID_21_)" width="17.953" height="17.953"/>
</g>
<g>
	<defs>
		<path id="SVGID_22_" d="M23.579,110.272c0,4.956,4.02,8.978,8.977,8.978c4.958,0,8.976-4.021,8.976-8.978
			c0-4.957-4.018-8.976-8.976-8.976C27.599,101.296,23.579,105.315,23.579,110.272"/>
	</defs>
	<clipPath id="SVGID_23_">
		<use xlink:href="#SVGID_22_"  overflow="visible"/>
	</clipPath>
	
		<linearGradient id="SVGID_24_" gradientUnits="userSpaceOnUse" x1="-77.354" y1="384.3862" x2="-76.354" y2="384.3862" gradientTransform="matrix(17.9531 0 0 -17.9531 1412.3296 7011.2109)">
		<stop  offset="0" style="stop-color:#147332"/>
		<stop  offset="0.2376" style="stop-color:#146F31"/>
		<stop  offset="0.4809" style="stop-color:#14632E"/>
		<stop  offset="0.7267" style="stop-color:#134E28"/>
		<stop  offset="0.973" style="stop-color:#123221"/>
		<stop  offset="1" style="stop-color:#122E20"/>
	</linearGradient>
	<rect x="23.579" y="101.296" clip-path="url(#SVGID_23_)" fill="url(#SVGID_24_)" width="17.953" height="17.953"/>
</g>
<g>
	<defs>
		<path id="SVGID_25_" d="M23.579,62.594c0,4.958,4.02,8.977,8.977,8.977c4.958,0,8.976-4.019,8.976-8.977
			c0-4.957-4.018-8.977-8.976-8.977C27.599,53.617,23.579,57.637,23.579,62.594"/>
	</defs>
	<clipPath id="SVGID_26_">
		<use xlink:href="#SVGID_25_"  overflow="visible"/>
	</clipPath>
	
		<linearGradient id="SVGID_27_" gradientUnits="userSpaceOnUse" x1="-77.354" y1="384.3862" x2="-76.354" y2="384.3862" gradientTransform="matrix(17.9531 0 0 -17.9531 1412.3296 6963.5234)">
		<stop  offset="0" style="stop-color:#147332"/>
		<stop  offset="0.2376" style="stop-color:#146F31"/>
		<stop  offset="0.4809" style="stop-color:#14632E"/>
		<stop  offset="0.7267" style="stop-color:#134E28"/>
		<stop  offset="0.973" style="stop-color:#123221"/>
		<stop  offset="1" style="stop-color:#122E20"/>
	</linearGradient>
	<rect x="23.579" y="53.617" clip-path="url(#SVGID_26_)" fill="url(#SVGID_27_)" width="17.953" height="17.954"/>
</g>
<g>
	<defs>
		<path id="SVGID_28_" d="M73.714,0c-0.331,0.053-0.71,0.05-1.031,0.176c-3.402,0.586-6.173,3.865-6.327,7.269v1
			c0.107,0.666,0.245,1.357,0.507,1.994c0.266,0.512,0.541,1.019,0.853,1.5l1.001,1.355c2.237,2.66,4.198,5.516,5.673,8.631
			l0.405-0.86c1.22-2.969,3.141-5.598,5.239-8.068c0.228-0.33,0.471-0.656,0.736-0.971c0.393-0.605,0.779-1.217,1.089-1.882
			c0.212-0.562,0.344-1.169,0.418-1.757V7.415c-0.066-0.179-0.009-0.429-0.089-0.618c-0.364-3.178-3.083-6.066-6.238-6.621
			C75.629,0.05,75.249,0.053,74.92,0H73.714z"/>
	</defs>
	<clipPath id="SVGID_29_">
		<use xlink:href="#SVGID_28_"  overflow="visible"/>
	</clipPath>
	
		<linearGradient id="SVGID_30_" gradientUnits="userSpaceOnUse" x1="-77.3535" y1="384.3872" x2="-76.3535" y2="384.3872" gradientTransform="matrix(0 21.9248 -21.9248 0 8501.9102 1695.967)">
		<stop  offset="0" style="stop-color:#122E20"/>
		<stop  offset="0.3557" style="stop-color:#134827"/>
		<stop  offset="1" style="stop-color:#147332"/>
	</linearGradient>
	<rect x="66.356" clip-path="url(#SVGID_29_)" fill="url(#SVGID_30_)" width="15.921" height="21.925"/>
</g>
<g>
	<defs>
		<path id="SVGID_31_" d="M68.717,160.198l-1.001,1.354c-0.312,0.478-0.587,0.989-0.853,1.5c-0.262,0.637-0.4,1.326-0.507,1.991
			v1.001c0.154,3.403,2.925,6.684,6.327,7.27c0.321,0.126,0.7,0.123,1.031,0.181h1.206c0.329-0.058,0.709-0.055,1.03-0.181
			c3.155-0.555,5.874-3.441,6.238-6.624c0.08-0.185,0.023-0.437,0.089-0.613v-0.974c-0.074-0.588-0.206-1.192-0.418-1.756
			c-0.31-0.666-0.696-1.277-1.089-1.883c-0.265-0.314-0.508-0.642-0.736-0.975c-2.098-2.467-4.019-5.096-5.239-8.064l-0.405-0.857
			C72.915,154.68,70.954,157.537,68.717,160.198"/>
	</defs>
	<clipPath id="SVGID_32_">
		<use xlink:href="#SVGID_31_"  overflow="visible"/>
	</clipPath>
	
		<linearGradient id="SVGID_33_" gradientUnits="userSpaceOnUse" x1="-77.3545" y1="384.3862" x2="-76.3545" y2="384.3862" gradientTransform="matrix(0 21.9258 21.9258 0 -8353.6504 1847.6207)">
		<stop  offset="0" style="stop-color:#122E20"/>
		<stop  offset="0.3557" style="stop-color:#134827"/>
		<stop  offset="1" style="stop-color:#147332"/>
	</linearGradient>
	<rect x="66.356" y="151.567" clip-path="url(#SVGID_32_)" fill="url(#SVGID_33_)" width="15.921" height="21.927"/>
</g>
<g>
	<defs>
		<path id="SVGID_34_" d="M133.849,39.432l-0.708,0.709c-0.394,0.547-0.786,1.134-1.049,1.769c-0.174,0.548-0.34,1.104-0.459,1.664
			l-0.249,1.666c-0.299,3.463-0.933,6.87-2.093,10.111l0.897-0.321c2.96-1.236,6.176-1.733,9.407-1.999
			c0.395-0.075,0.797-0.128,1.207-0.165c0.706-0.15,1.412-0.309,2.101-0.56c0.546-0.25,1.07-0.583,1.537-0.95l0.688-0.686
			c0.082-0.171,0.297-0.309,0.374-0.499c1.991-2.506,2.108-6.468,0.27-9.093c-0.137-0.317-0.407-0.583-0.603-0.853l-0.853-0.852
			c-0.27-0.196-0.537-0.468-0.853-0.606c-1.243-0.877-2.768-1.298-4.302-1.298C137.216,37.469,135.257,38.147,133.849,39.432"/>
	</defs>
	<clipPath id="SVGID_35_">
		<use xlink:href="#SVGID_34_"  overflow="visible"/>
	</clipPath>
	
		<linearGradient id="SVGID_36_" gradientUnits="userSpaceOnUse" x1="-77.354" y1="384.4009" x2="-76.354" y2="384.4009" gradientTransform="matrix(0 -17.8825 17.8825 0 -6735.6123 -1327.9286)">
		<stop  offset="0" style="stop-color:#122E20"/>
		<stop  offset="0.3557" style="stop-color:#134827"/>
		<stop  offset="1" style="stop-color:#147332"/>
	</linearGradient>
	<rect x="129.291" y="37.469" clip-path="url(#SVGID_35_)" fill="url(#SVGID_36_)" width="18.319" height="17.882"/>
</g>
<g>
	<defs>
		<path id="SVGID_37_" d="M4.147,38.767c-0.316,0.138-0.583,0.41-0.854,0.606l-0.852,0.852c-0.196,0.27-0.466,0.536-0.603,0.853
			C0,43.703,0.117,47.665,2.107,50.171c0.078,0.19,0.293,0.328,0.376,0.499l0.686,0.686c0.468,0.367,0.991,0.7,1.538,0.95
			c0.688,0.251,1.395,0.41,2.102,0.56c0.409,0.037,0.811,0.09,1.206,0.165c3.231,0.266,6.447,0.763,9.407,1.999l0.897,0.321
			c-1.159-3.241-1.795-6.648-2.094-10.111l-0.248-1.666c-0.119-0.56-0.284-1.116-0.459-1.664c-0.263-0.635-0.655-1.222-1.049-1.769
			l-0.708-0.709c-1.408-1.285-3.366-1.963-5.312-1.963C6.915,37.469,5.39,37.89,4.147,38.767"/>
	</defs>
	<clipPath id="SVGID_38_">
		<use xlink:href="#SVGID_37_"  overflow="visible"/>
	</clipPath>
	
		<linearGradient id="SVGID_39_" gradientUnits="userSpaceOnUse" x1="-77.354" y1="384.4009" x2="-76.354" y2="384.4009" gradientTransform="matrix(0 -17.8825 -17.8825 0 6883.2168 -1327.9286)">
		<stop  offset="0" style="stop-color:#122E20"/>
		<stop  offset="0.3557" style="stop-color:#134827"/>
		<stop  offset="1" style="stop-color:#147332"/>
	</linearGradient>
	<rect y="37.469" clip-path="url(#SVGID_38_)" fill="url(#SVGID_39_)" width="18.319" height="17.882"/>
</g>
<g>
	<defs>
		<path id="SVGID_40_" d="M18.16,121.305c-2.96,1.236-6.176,1.736-9.407,1.998c-0.395,0.076-0.798,0.131-1.207,0.166
			c-0.707,0.15-1.412,0.31-2.102,0.562c-0.548,0.251-1.07,0.583-1.537,0.946l-0.687,0.688c-0.082,0.175-0.299,0.311-0.375,0.502
			c-1.99,2.504-2.108,6.467-0.271,9.092c0.138,0.319,0.409,0.584,0.603,0.855l0.854,0.852c0.271,0.196,0.538,0.467,0.853,0.603
			c2.821,1.993,7.099,1.635,9.615-0.666l0.708-0.706c0.393-0.548,0.785-1.133,1.049-1.77c0.174-0.549,0.339-1.104,0.458-1.664
			l0.25-1.666c0.299-3.463,0.933-6.869,2.092-10.113L18.16,121.305z"/>
	</defs>
	<clipPath id="SVGID_41_">
		<use xlink:href="#SVGID_40_"  overflow="visible"/>
	</clipPath>
	
		<linearGradient id="SVGID_42_" gradientUnits="userSpaceOnUse" x1="-77.354" y1="384.3716" x2="-76.354" y2="384.3716" gradientTransform="matrix(0 -17.8855 17.8855 0 -6864.7773 -1244.6443)">
		<stop  offset="0" style="stop-color:#122E20"/>
		<stop  offset="0.3557" style="stop-color:#134827"/>
		<stop  offset="1" style="stop-color:#147332"/>
	</linearGradient>
	<rect x="0.737" y="120.983" clip-path="url(#SVGID_41_)" fill="url(#SVGID_42_)" width="18.319" height="18.578"/>
</g>
<g>
	<defs>
		<path id="SVGID_43_" d="M131.072,131.096l0.252,1.666c0.118,0.561,0.283,1.115,0.457,1.664c0.263,0.637,0.657,1.222,1.05,1.77
			l0.708,0.706c2.516,2.301,6.794,2.659,9.614,0.666c0.316-0.136,0.582-0.406,0.853-0.603l0.854-0.852
			c0.194-0.271,0.466-0.536,0.603-0.855c1.837-2.625,1.719-6.588-0.27-9.092c-0.077-0.191-0.294-0.327-0.376-0.502l-0.686-0.688
			c-0.467-0.363-0.99-0.695-1.538-0.946c-0.689-0.252-1.395-0.411-2.102-0.562c-0.409-0.035-0.811-0.09-1.207-0.166
			c-3.23-0.262-6.447-0.762-9.407-1.998l-0.895-0.322C130.141,124.227,130.775,127.633,131.072,131.096"/>
	</defs>
	<clipPath id="SVGID_44_">
		<use xlink:href="#SVGID_43_"  overflow="visible"/>
	</clipPath>
	
		<linearGradient id="SVGID_45_" gradientUnits="userSpaceOnUse" x1="-77.354" y1="384.3716" x2="-76.354" y2="384.3716" gradientTransform="matrix(0 -17.8855 -17.8855 0 7012.8193 -1244.6443)">
		<stop  offset="0" style="stop-color:#122E20"/>
		<stop  offset="0.3557" style="stop-color:#134827"/>
		<stop  offset="1" style="stop-color:#147332"/>
	</linearGradient>
	<rect x="128.982" y="120.983" clip-path="url(#SVGID_44_)" fill="url(#SVGID_45_)" width="18.318" height="18.578"/>
</g>
</svg>
