<svg xmlns="http://www.w3.org/2000/svg" xmlns:xlink="http://www.w3.org/1999/xlink" width="612" height="293" viewBox="0 250.5 612 293"><defs><path id="a" d="M73 422.6V394c0-5-3.8-8-10-8s-10.5 3-10.5 8v28.6h-5.7V394c0-5-4-8-10-8s-10.5 3-10.5 8v28.6h-5.7V382h5.2l.3 4.3c2.2-3 5.7-5.5 12.5-5.5 5.4 0 9.8 2.6 12 6.5 2-3.6 6.6-6.5 14-6.5 8 0 14 5 14 12.8v29H73z"/></defs><clipPath id="b"><use xlink:href="#a" overflow="visible"/></clipPath><path clip-path="url(#b)" fill="#0094D3" d="M7.7 367.8h83.8v67.7H7.7z"/><defs><path id="c" d="M108.6 423.4c-12.2 0-21.5-9-21.5-21.3s9.4-21.2 21.6-21.2c12.2 0 21.3 9 21.3 21.3 0 12.5-9 21.4-21.4 21.4m0-37.4c-8.8 0-15.8 6.8-15.8 16.3 0 9.6 7 16 15.8 16 8.5 0 15.6-6.6 15.6-16 0-9.5-7-16.3-15.6-16.3"/></defs><clipPath id="d"><use xlink:href="#c" overflow="visible"/></clipPath><path clip-path="url(#d)" fill="#0094D3" d="M74 367.8H143v68.5H74z"/><defs><path id="e" d="M167 422.6v-27c0-5.6-4-9.7-11-9.7s-11.8 4-11.8 9.7v27h-5.6v-40.8h5l.4 4.8c2-3 6.2-6 13.2-6 9 0 15.6 5.2 15.6 14.3v27.6H167z"/></defs><clipPath id="f"><use xlink:href="#e" overflow="visible"/></clipPath><path clip-path="url(#f)" fill="#0094D3" d="M125.7 367.8h60v67.7h-60z"/><defs><path id="g" d="M212.2 423.4c-3-.5-5.5-3-6.3-6.3-2.2 4-6.8 6.4-12 6.4-7.6 0-13-5.2-13-12 0-8 6.5-12 13-12.7l11-1v-4c0-5-3.5-8-9.7-8-4 0-8 1.3-10.6 3l-1-4.6c3-2 7.4-3 12-3 9 0 15 5 15 13.5V413c0 4.3 2.4 6.4 5 7l-3.5 3.4zm-7-20.7l-9.8.8c-5.2.5-8.3 3.6-8.3 8 0 4 3.5 7 8 7 4.8 0 10.5-4.2 10.5-10.7v-5h-.3z"/></defs><clipPath id="h"><use xlink:href="#g" overflow="visible"/></clipPath><path clip-path="url(#h)" fill="#0094D3" d="M168.3 367.8h60.5v68.5h-60.5z"/><defs><path id="i" d="M233.7 423.4c-5 0-9-1.6-11.5-3.5l-1.5-6.5c3.4 3 8 5 13 5 4.7 0 8-2.5 8-6.6 0-4-2.8-6.3-7.5-8-7.6-2.5-12-6-12-12.6 0-6.5 5.2-11 12.5-11 4.3 0 8.5 1.6 9.8 2.7l-1 4.8c-1.6-1-5-2.6-9.2-2.6-4 0-7 2.4-7 6 0 3.7 2.6 5.5 7 7.3 7.8 3 12.4 6.5 12.4 13.2 1 7-4.4 11.7-13 11.7"/></defs><clipPath id="j"><use xlink:href="#i" overflow="visible"/></clipPath><path clip-path="url(#j)" fill="#0094D3" d="M207.8 367.8h52.7v68.5h-52.7z"/><defs><path id="k" d="M285.6 422.6v-27c0-5.6-4-9.7-11-9.7s-11.8 4-11.8 9.7v27H257v-64.2h5.8v28c2-2.8 6-5.4 13-5.4 9 0 15.6 5.3 15.6 14.3V423l-5.8-.4z"/></defs><clipPath id="l"><use xlink:href="#k" overflow="visible"/></clipPath><path clip-path="url(#l)" fill="#0094D3" d="M244.3 345.5h60v90h-60z"/><defs><path id="m" d="M358.5 373.8c-1.5 0-5-3.4-5-5 0-1.7 3.5-5 5-5 1.8 0 5 3.5 5 5 0 2-3.4 5-5 5zm-4 48.8h8.2V382h-8.3v40.6z"/></defs><clipPath id="n"><use xlink:href="#m" overflow="visible"/></clipPath><path clip-path="url(#n)" fill="#0094D3" d="M340.6 351h35.8v84.6h-35.8z"/><defs><path id="o" d="M391.7 423.4h-3.4l-17-41.5h8.4l7.3 17.8c1 2.6 2.4 6 3.4 9h.3c1-3.2 2.3-6.4 3.4-9l7.4-18h7.5l-17.3 41.6z"/></defs><clipPath id="p"><use xlink:href="#o" overflow="visible"/></clipPath><path clip-path="url(#p)" fill="#0094D3" d="M358.5 369h63.3v67.4h-63.3z"/><defs><path id="q" d="M442.6 366.3c-2-1-4.7-1.5-7-1.5-5.4 0-8.5 5-8.5 10.6v6.2H439l-1.3 6.5H427v34.4h-8V388h-7v-6.4h7v-4c0-13 6.6-19.8 18.2-19.8 2.4 0 4.8.5 7 1.3l-1.6 7.3z"/></defs><clipPath id="r"><use xlink:href="#q" overflow="visible"/></clipPath><path clip-path="url(#r)" fill="#0094D3" d="M399 345h58v90.3h-58z"/><g><defs><path id="s" d="M547 299c22.7 24.8 36.5 58 36.5 94 0 24-6.2 47-17 66.7-18.8 41-56.7 71.4-102.4 79.2 71.2-5.8 127.2-65.6 127.2-138.5 0-40-17-76-44.3-101.4"/></defs><clipPath id="t"><use xlink:href="#s" overflow="visible"/></clipPath><path clip-path="url(#t)" fill="#0094D3" d="M451.4 286h153v266h-153z"/></g><g><defs><path id="u" d="M363.7 483c-19.7-21.4-32-50.2-32-82 0-59.5 43.5-109.4 100-119.5-41.8 3-77.8 27.5-97 62.2-6.8 15-10.7 32-10.7 49.6.3 35.2 15.5 67.5 39.7 89.8"/></defs><clipPath id="v"><use xlink:href="#u" overflow="visible"/></clipPath><path clip-path="url(#v)" fill="#0094D3" d="M311.3 268.2H445V496H311.2z"/></g><g><defs><path id="w" d="M445.4 514.7c-31.4 0-60.2-12-81.7-32-24.3-22.2-39.4-54-39.4-89.6 0-17.5 4-34.4 10.6-49.5-9.7 17.4-15.4 37.6-15.4 59 0 67 54.2 121.6 121 121.6 7.4 0 14.4-.7 21.4-1.7 40-7 73-34 89.3-70-20.5 37.2-60.2 62.4-106 62.4"/></defs><clipPath id="x"><use xlink:href="#w" overflow="visible"/></clipPath><path clip-path="url(#x)" fill="#F59B87" d="M306.6 330.5h257.6V537H306.6z"/></g><g><defs><path id="y" d="M583.8 393c0-36.4-14-69.3-36.7-94-25-27.4-61.4-44.6-101.3-44.6-55.8 0-104 33.5-125.8 81.3C341.6 296 382.3 268 430 264c3.5 0 7.2-.4 11-.4 76.3 0 138.3 62.3 138.3 138.6 0 20.5-4.4 40-12.4 57.3 10.5-19.5 16.8-42 16.8-66.5"/></defs><clipPath id="z"><use xlink:href="#y" overflow="visible"/></clipPath><path clip-path="url(#z)" fill="#F59B87" d="M306.6 241.5h289.8v231.2H306.6z"/></g><path fill="#0094D3" d="M114.3 464.2H112v-22h2.3v22zM120.3 445.5c-.4 0-.8 0-1-.4-.4-.2-.5-.6-.5-1 0-.5 0-.8.4-1 .3-.4.7-.6 1-.6.6 0 1 .2 1.2.5s.5.5.5 1c0 .4-.3.8-.6 1-.3.4-.6.5-1 .5zm1.2 18.7H119v-15h2.5v15zM133.7 444.2c-.5-.2-1-.4-1.6-.4-1.6 0-2.4 1-2.4 3.2v2.3h3.5v2h-3.4v13h-2.4v-13h-2.5v-2h2.5V447c0-1.7.5-3 1.4-3.8s2-1.4 3.3-1.4c.7 0 1.2 0 1.7.3v2.2zM147.6 457.3H137c0 1.7.6 3 1.4 4s2 1.2 3.5 1.2c1.6 0 3.2-.5 4.6-1.6v2c-1.3 1-3 1.5-5.2 1.5-2 0-3.8-.7-5-2-1.2-1.4-1.8-3.3-1.8-5.7 0-2.3.7-4.2 2-5.7 1.3-1.3 3-2 5-2 1.8 0 3.3.6 4.4 1.8s1.6 3 1.6 5.3v1.3zm-2.4-2c0-1.4-.4-2.4-1-3.2-.7-.7-1.6-1-2.8-1-1 0-2 .4-2.8 1.2-.8.8-1.3 1.8-1.5 3h8.2zM158.5 463.6V461c1.3 1 2.7 1.5 4.2 1.5 2 0 3.2-.7 3.2-2 0-.5-.2-.8-.4-1-.2-.4-.4-.6-.7-.8l-1.2-.6c-.4 0-.8-.2-1.3-.4l-1.8-.8c-.5-.3-1-.6-1.2-1l-.8-1-.2-1.6c0-.7 0-1.3.5-1.8.3-.5.7-1 1.2-1.4.6-.3 1.2-.6 2-.8.5-.2 1.3-.3 2-.3 1.3 0 2.4.2 3.4.6v2.4c-1-.7-2.3-1-3.7-1h-1.3l-1 .5-.6.7v1.8l.8.7 1 .6c.3 0 .8.3 1.3.5l1.8.8c.6.2 1 .5 1.4 1 .3.2.6.6.8 1 .2.5.3 1 .3 1.6 0 .7 0 1.4-.5 2-.3.5-.7 1-1.3 1.3s-1 .6-1.8.8l-2.3.2c-1.5 0-2.8-.3-4-1zM179 464c-.7.3-1.4.5-2.3.5-2.6 0-4-1.5-4-4.4v-8.7h-2.5v-2h2.6v-3.6l2.3-.8v4.3h4v2h-4v8.4c0 1 .3 1.7.7 2 .3.6 1 .8 1.6.8.6 0 1.2-.2 1.6-.5v2zM192.7 464.2h-2.4v-2.4c-1 1.8-2.6 2.7-4.6 2.7-1.5 0-2.6-.4-3.5-1.2-.8-.7-1.2-1.8-1.2-3 0-3 1.6-4.5 5-5l4.3-.6c0-2.5-1-3.8-3-3.8-1.8 0-3.4.6-5 1.8v-2.5c1.6-1 3.3-1.4 5.2-1.4 3.5 0 5.2 1.8 5.2 5.5v9.7zm-2.4-7.6l-3.5.5c-1 .3-2 .6-2.5 1-.6.4-1 1-1 2 0 .8.4 1.4 1 1.8.4.5 1 .7 2 .7s2-.4 3-1.2c.7-1 1-2 1-3.2v-1.4zM205 451.7c-.4-.3-1-.5-1.8-.5-1 0-2 .5-2.6 1.5-.7 1-1 2.2-1 4v7.5h-2.4v-15h2.4v3.2c.4-1 1-2 1.6-2.5.7-.7 1.5-1 2.4-1 .6 0 1 0 1.4.2v2.5zM214.5 464c-.6.3-1.3.5-2.2.5-2.7 0-4-1.5-4-4.4v-8.7h-2.5v-2h2.5v-3.6l2.4-.8v4.3h3.8v2h-3.8v8.4c0 1 .2 1.7.5 2 .4.6 1 .8 1.7.8.5 0 1-.2 1.5-.5v2zM216.8 463.6V461c1.3 1 2.7 1.5 4.2 1.5 2 0 3.2-.7 3.2-2 0-.5 0-.8-.3-1l-.8-.8-1-.6c-.5 0-1-.2-1.4-.4l-1.8-.8c-.5-.3-1-.6-1.2-1l-.8-1-.2-1.6c0-.7 0-1.3.5-1.8s.7-1 1.2-1.4c.6-.3 1.2-.6 2-.8.6-.2 1.3-.3 2-.3 1.3 0 2.4.2 3.4.6v2.4c-1.2-.7-2.4-1-3.8-1H221l-1 .5-.6.7-.2.8c0 .4 0 .8.2 1l.7.7 1 .6c.4 0 1 .3 1.4.5l1.7.8c.7.2 1 .5 1.5 1 .3.2.6.6.8 1 .2.5.3 1 .3 1.6 0 .7 0 1.4-.5 2-.2.5-.6 1-1.2 1.3s-1 .6-1.8.8l-2.3.2c-1.5 0-2.8-.3-4-1zM250.8 464.2h-2.4v-8.6c0-3-1-4.7-3.4-4.7-1.2 0-2.2.4-3 1.3-.8 1-1.2 2-1.2 3.4v8.5h-2.4v-22h2.4v9.6c1.2-2 3-3 5-3 3.3 0 5 2.2 5 6.2v9.2zM267.3 457.3h-10.6c0 1.7.5 3 1.4 4s2 1.2 3.6 1.2c1.7 0 3.2-.5 4.6-1.6v2c-1.3 1-3 1.5-5.2 1.5-2 0-3.7-.7-5-2-1-1.4-1.7-3.3-1.7-5.7 0-2.3.6-4.2 2-5.7 1.3-1.3 3-2 4.8-2 2 0 3.6.6 4.7 1.8 1 1.3 1.6 3 1.6 5.3v1.3zm-2.5-2c0-1.4-.3-2.4-1-3.2-.6-.7-1.5-1-2.7-1-1 0-2 .4-2.8 1.2-.8.8-1.2 1.8-1.4 3h8zM278.6 451.7c-.4-.3-1-.5-1.8-.5-1 0-1.8.5-2.5 1.5s-1 2.2-1 4v7.5h-2.4v-15h2.2v3.2c.4-1 1-2 1.7-2.5.6-.7 1.3-1 2.2-1 .6 0 1 0 1.4.2v2.5zM293.2 457.3h-10.5c0 1.7.5 3 1.3 4s2 1.2 3.5 1.2c1.7 0 3.2-.5 4.6-1.6v2c-1.2 1-3 1.5-5 1.5s-3.8-.7-5-2c-1.2-1.4-1.8-3.3-1.8-5.7 0-2.3.7-4.2 2-5.7 1.3-1.3 3-2 5-2 1.8 0 3.3.6 4.4 1.8s1.6 3 1.6 5.3v1.3zm-2.5-2c0-1.4-.3-2.4-1-3.2-.6-.7-1.5-1-2.7-1-1 0-2 .4-2.8 1.2-.8.8-1.3 1.8-1.5 3h8z"/></svg>