<svg width="92" height="24" id="Layer_1" xmlns="http://www.w3.org/2000/svg" viewBox="0 0 92 24"><style>.st0{fill:#fff}</style><path class="st0" d="M15 11.8c0 1.5-.2 2.9-.6 4.2-.2.8-.6 1.4-.9 1.9-.4.4-.9.8-1.5 1.1-.6.3-1.4.4-2.4.4h-4V4.9h4c1.1 0 1.9.1 2.5.4.6.2 1.1.6 1.6 1.2s.8 1.3 1.1 2.3c.1.9.2 1.9.2 3m4.2 4.5c.4-1.4.5-2.9.5-4.6 0-3.5-.9-6.3-2.7-8.2-1.5-1.6-3.6-2.4-6.5-2.4H1v22h8.3c1.8 0 3.2-.1 4.1-.3.9-.2 1.7-.5 2.4-.9s1.4-1.1 2-2.1c.5-.9 1-2 1.4-3.5m12.7.5c0 1.3-.4 2.3-1.2 2.9-.8.6-1.6.9-2.6.9-.6 0-1.2-.2-1.6-.6-.4-.4-.6-.9-.6-1.6 0-.5.1-.9.3-1.2.2-.3.6-.6 1-.8.3-.1 1-.3 2.1-.5.6-.1 1-.2 1.4-.4s.7-.3 1.1-.5v1.8zm.5 6.3h4.7v-.7c-.3-.1-.6-.3-.7-.6-.2-.3-.3-.9-.3-1.9v-8.3c0-1.1-.2-2-.5-2.7-.2-.5-.6-1-1-1.4-.4-.4-1.1-.6-2-.9-.9-.2-1.9-.3-2.9-.3-2.5 0-4.3.5-5.5 1.6-1.2 1.1-1.9 2.4-2 4.1h4.2c.1-.8.4-1.4.8-1.8.4-.3 1.1-.5 2-.5.9 0 1.6.2 2 .5.4.3.6.8.6 1.4 0 .4-.1.7-.3.9-.2.2-.6.4-1.2.4l-3.6.5c-1.9.3-3.2.9-3.9 1.8-.7.9-1.1 2.1-1.1 3.4 0 .9.2 1.7.6 2.5.4.8 1 1.4 1.8 1.8.8.4 1.7.6 2.8.6 1 0 1.9-.2 2.7-.5.7-.3 1.6-1 2.4-1.9 0 .8.1 1.4.4 2m12.9.2c.5 0 1.2 0 2-.1V20h-.8c-.6 0-1.1 0-1.3-.1-.2-.1-.3-.2-.4-.4-.1-.2-.1-.5-.1-1V9.8h2.6v-3h-2.6V2.4h-4.2v4.4h-2.3v3.1h2.3V20c0 .8.2 1.5.5 1.9.3.5.8.8 1.4 1s1.5.4 2.9.4M59 16.8c0 1.3-.4 2.3-1.2 2.9-.8.6-1.6.9-2.6.9-.6 0-1.2-.2-1.6-.6-.4-.4-.6-.9-.6-1.6 0-.5.1-.9.3-1.2.2-.3.6-.6 1-.8.3-.1 1-.3 2.1-.5.6-.1 1-.2 1.4-.4.3-.1.7-.3 1.1-.5v1.8zm.6 6.3h4.7v-.7c-.3-.1-.6-.3-.7-.6-.2-.3-.3-.9-.3-1.9v-8.3c0-1.1-.2-2-.5-2.7-.2-.5-.6-1-1-1.4-.4-.4-1.1-.6-2-.9-.8-.2-1.8-.3-2.9-.3-2.5 0-4.3.5-5.5 1.6-1.2 1.1-1.9 2.4-2 4.1h4.2c.1-.8.4-1.4.8-1.8.4-.3 1.1-.5 2-.5.9 0 1.6.2 2 .5.4.3.6.8.6 1.4 0 .4-.1.7-.3.9-.2.2-.6.4-1.2.4l-3.6.5c-1.9.3-3.2.9-3.9 1.8-.7.9-1.1 2.1-1.1 3.4 0 .9.2 1.7.6 2.5.4.8 1 1.4 1.8 1.8.8.4 1.7.6 2.8.6 1 0 1.9-.2 2.7-.5s1.6-1 2.4-1.9c0 .8.1 1.4.4 2M71.1 5.4l-.7 2.5H69l.7-2.5h1.4zM75 3.9h-1.8l.9-3.5h-1.7l-.9 3.5h-1.4L71 .4h-1.7l-.9 3.5h-1.8l-.4 1.5H68l-.7 2.5h-1.8l-.4 1.5h1.8l-.9 3.5h1.7l.9-3.5H70l-.9 3.5h1.7l.9-3.5h1.8l.4-1.5h-1.8l.7-2.5h1.8l.4-1.5zm12.7 7.7c.9-.5 1.5-1.1 2-1.8.4-.7.7-1.6.7-2.7s-.3-2.1-.8-3c-.6-.9-1.4-1.6-2.5-2.1s-2.2-.8-3.5-.8c-1.1 0-2.1.2-3.1.6-1 .4-1.7.9-2.3 1.6-.6.7-1 1.5-1.3 2.4-.2.6-.3 1.4-.4 2.5h4c0-1.2.3-2.1.8-2.7.5-.6 1.2-.8 2.2-.8.9 0 1.5.2 2 .7.5.5.7 1.2.7 2 0 .7-.2 1.3-.5 1.8s-.9.8-1.5 1c-.5.1-1.3.2-2.4.2v3c1.2 0 2.1.1 2.6.2.8.2 1.3.5 1.7 1 .4.5.6 1.2.6 2.1 0 1-.3 1.9-.9 2.5-.6.6-1.4.9-2.3.9-1 0-1.7-.3-2.3-.9-.6-.6-.8-1.5-.9-2.8H76c0 1 .1 1.8.3 2.5.3 1 .8 1.9 1.4 2.6.6.7 1.4 1.2 2.4 1.6.9.3 2 .5 3.1.5 2.4 0 4.3-.6 5.7-1.9 1.4-1.3 2.1-2.9 2.1-5 0-.9-.2-1.7-.5-2.5-.3-.7-.8-1.3-1.4-1.9-.3-.3-.8-.6-1.4-.8"/></svg>