<svg id="Layer_1" data-name="Layer 1" xmlns="http://www.w3.org/2000/svg" xmlns:xlink="http://www.w3.org/1999/xlink" viewBox="0 0 170.96 65.11"><defs><style>.cls-1{fill:none;}.cls-2{clip-path:url(#clip-path);}.cls-3{fill:#fff;}</style><clipPath id="clip-path" transform="translate(-5.79 -7.98)"><rect class="cls-1" width="178.58" height="79.37"/></clipPath></defs><title>newcrest-logo-white</title><g class="cls-2"><path class="cls-3" d="M51.86,63.4A30,30,0,1,0,5.81,37c0,.34,0,.67,0,1v.18q0,.86.06,1.69c0,.18,0,.36,0,.54q0,.58.11,1.15,0,.37.1.74A30.06,30.06,0,0,0,20,63.57V53.3a21.94,21.94,0,0,1-6.16-14.7,9.76,9.76,0,0,1,1.62-.14c3.74,0,6.45,2.5,6.45,6.74v20A3.2,3.2,0,0,1,21,67.52c-.64.77-5.36,5.57-5.36,5.57H25s2.66-2.56,4.41-4.31c.39-.39.53-1,.53-2.61V42.79c0-5-3.75-7.47-8.21-7.47a22.14,22.14,0,0,0-7.91,1.46q.05-.95.18-1.87A21.87,21.87,0,0,1,22,33.46c6.54,0,9.9,4.35,9.9,9.4V73.09H40V40.68c0-7.1-4.07-11.27-12.47-11.27a26.75,26.75,0,0,0-13,3.26,21.56,21.56,0,0,1,.68-2.21,31.23,31.23,0,0,1,13.77-2.9c6.54,0,13,4.27,13,12.74V66.17c0,1.58.14,2.22.53,2.61,1.74,1.75,4.4,4.31,4.4,4.31h9.41s-4.72-4.8-5.36-5.57A3.2,3.2,0,0,1,50,65.2V38.5C50,28,42.21,23.73,32.9,23.73a35.24,35.24,0,0,0-16.31,3.59A22,22,0,1,1,51.86,53Z" transform="translate(-5.79 -7.98)"/><polygon class="cls-3" points="80.31 34.15 76.15 34.15 72.95 20.71 73.26 34.15 70.16 34.15 70.16 16.21 74.4 16.21 77.63 29.37 77.3 16.21 80.31 16.21 80.31 34.15"/><polygon class="cls-3" points="83.92 16.18 92.6 16.18 92.6 18.93 87.22 18.93 87.22 23.15 92.27 23.15 92.27 25.86 87.22 25.86 87.22 31.38 92.83 31.38 92.83 34.15 83.92 34.15 83.92 16.18"/><polygon class="cls-3" points="94.07 16.21 97.47 16.21 99.27 29.73 101.23 16.21 104.35 16.21 106.23 29.73 108.11 16.21 111.46 16.21 108 34.15 104.53 34.15 102.83 21.93 100.87 34.15 97.34 34.15 94.07 16.21"/><path class="cls-3" d="M125.69,30.74V28.45c0-1.35-.23-2.11-1.67-2.11s-1.52,1.14-1.52,2v9.61c0,1.07.18,2,1.65,2s1.55-1.12,1.55-2.21V35.39H129v2.54c0,1.45,0,4.57-4.87,4.57a6.77,6.77,0,0,1-3.48-.86,3.51,3.51,0,0,1-1.42-3.33V28.55c0-1.45.08-2.44.89-3.33a5.46,5.46,0,0,1,4-1.42C129,23.8,129,26.7,129,28v2.77Z" transform="translate(-5.79 -7.98)"/><path class="cls-3" d="M131.86,24.16h6.6c3.22,0,3.22,2.16,3.22,3.81V29.9c0,2.29-.71,2.69-2.31,3a2.88,2.88,0,0,1,2.43,3.1v3.66a3,3,0,0,0,.76,2.41h-3.63a4.19,4.19,0,0,1-.48-2V36.31c0-1.22,0-2.08-1.73-2.08h-1.57v7.9h-3.3Zm3.3,7.5h1.73c1.5,0,1.52-.81,1.52-1.73v-1.7c0-1.47-.79-1.47-1.52-1.47h-1.73Z" transform="translate(-5.79 -7.98)"/><polygon class="cls-3" points="139.14 16.18 147.82 16.18 147.82 18.93 142.44 18.93 142.44 23.15 147.49 23.15 147.49 25.86 142.44 25.86 142.44 31.38 148.05 31.38 148.05 34.15 139.14 34.15 139.14 16.18"/><path class="cls-3" d="M156.11,35.8h3.3v2.08c0,1,0,2.08,1.6,2.08s1.63-1.07,1.63-2.67a2.35,2.35,0,0,0-1.12-2.39l-3.15-2.11a4.47,4.47,0,0,1-2.13-4.22c0-1.4.13-2.74,1.29-3.71a5.62,5.62,0,0,1,3.6-1.07c1.93,0,4.57.79,4.57,3.86v1.78h-3.28v-1.3c0-.86,0-1.83-1.44-1.83-.89,0-1.52.33-1.52,1.78s.33,1.83,1,2.31l3.25,2.21a6.18,6.18,0,0,1,1.7,1.75,4.69,4.69,0,0,1,.48,2.82c0,1.6,0,2.59-.59,3.53-1,1.6-3,1.78-4.26,1.78-2.82,0-5-1.07-5-4.09Z" transform="translate(-5.79 -7.98)"/><polygon class="cls-3" points="161.04 16.21 170.96 16.21 170.96 18.8 167.66 18.8 167.66 34.15 164.34 34.15 164.34 18.8 161.04 18.8 161.04 16.21"/><polygon class="cls-3" points="76.47 50.65 75.36 50.65 75.53 41.91 74.1 50.65 72.58 50.65 71.13 41.91 71.33 50.65 70.16 50.65 70.16 40.98 71.97 40.98 73.32 49.61 74.64 40.98 76.47 40.98 76.47 50.65"/><rect class="cls-3" x="78.41" y="41" width="1.19" height="9.65"/><polygon class="cls-3" points="86.14 50.65 84.44 50.65 82.56 42.28 82.72 50.65 81.55 50.65 81.55 40.98 83.19 40.98 85.14 49.45 84.97 40.98 86.14 40.98 86.14 50.65"/><rect class="cls-3" x="88.07" y="41" width="1.19" height="9.65"/><polygon class="cls-3" points="95.8 50.65 94.11 50.65 92.22 42.28 92.39 50.65 91.21 50.65 91.21 40.98 92.85 40.98 94.8 49.45 94.64 40.98 95.8 40.98 95.8 50.65"/><path class="cls-3" d="M108.23,58.63h-1V58a2.31,2.31,0,0,1-1.77.81,1.83,1.83,0,0,1-1.73-1.12c-.16-.41-.27-.78-.27-3.49,0-1.46.05-3,.1-3.31a2,2,0,0,1,2.32-2c1.16,0,1.66.33,2,.77s.33.78.33,2.34H107a8.5,8.5,0,0,0-.05-1.37c-.08-.38-.33-.72-1-.72-1.14,0-1.19.79-1.23,1.59,0,.53-.05,2.54-.05,3.27s0,1.22.07,1.83c0,.4.07,1.24,1.08,1.24a1.37,1.37,0,0,0,1-.38c.22-.23.36-.47.36-1.72v-1H105.7v-1h2.54Z" transform="translate(-5.79 -7.98)"/><polygon class="cls-3" points="110.87 50.65 106.83 50.65 106.83 41 108.04 41 108.04 49.57 110.87 49.57 110.87 50.65"/><rect class="cls-3" x="111.95" y="41" width="1.19" height="9.65"/><polygon class="cls-3" points="121.38 50.65 120.27 50.65 120.44 41.91 119 50.65 117.49 50.65 116.04 41.91 116.23 50.65 115.07 50.65 115.07 40.98 116.88 40.98 118.23 49.61 119.55 40.98 121.38 40.98 121.38 50.65"/><rect class="cls-3" x="123.32" y="41" width="1.19" height="9.65"/><polygon class="cls-3" points="128.34 50.65 127.15 50.65 127.15 42.08 125.32 42.08 125.32 41 130.17 41 130.17 42.08 128.34 42.08 128.34 50.65"/><polygon class="cls-3" points="135.33 50.65 130.99 50.65 130.99 41 135.22 41 135.22 42.08 132.19 42.08 132.19 44.95 134.85 44.95 134.85 46.04 132.19 46.04 132.19 49.57 135.33 49.57 135.33 50.65"/><path class="cls-3" d="M142.47,58.63V49h1.82c.94,0,1.8,0,2.38.73.45.56.49,1.07.49,3.4,0,.52,0,1.14,0,2.45a4.34,4.34,0,0,1-.38,2.2c-.55.87-1.45.87-2.49.87Zm1.2-1.07h.78c.76,0,1.31-.07,1.45-.93.07-.45.08-1.8.08-2.31,0-.89,0-1.23,0-2.16s0-1.57-.45-1.87-.57-.2-1.84-.2Z" transform="translate(-5.79 -7.98)"/></g></svg>