<?xml version="1.0" encoding="UTF-8" standalone="no"?>
<svg width="277px" height="21px" viewBox="0 0 277 21" version="1.1" xmlns="http://www.w3.org/2000/svg" xmlns:xlink="http://www.w3.org/1999/xlink">
    <!-- Generator: Sketch 49.3 (51167) - http://www.bohemiancoding.com/sketch -->
    <title>corp_logo_nz</title>
    <desc>Created with Sketch.</desc>
    <defs>
        <linearGradient x1="0%" y1="50.1923978%" x2="99.7858495%" y2="50.0119017%" id="linearGradient-1">
            <stop stop-color="#0097D0" offset="0%"></stop>
            <stop stop-color="#4F8CC9" offset="44.7209176%"></stop>
            <stop stop-color="#9190C5" offset="99.9300036%"></stop>
        </linearGradient>
    </defs>
    <g id="company-desktop" stroke="none" stroke-width="1" fill="none" fill-rule="evenodd">
        <g id="Artboard" transform="translate(-1.000000, 0.000000)">
            <g id="corp_logo_nz" transform="translate(1.000000, 0.000000)">
                <path d="M81.8948427,20.9 C87.5525952,20.9 92.1383977,16.2200795 92.1383977,10.4489066 C92.1383977,4.67992048 87.5525952,0 81.8948427,0 C76.2370901,0 71.6512877,4.67992048 71.6512877,10.4489066 C71.6512877,16.2200795 76.2370901,20.9 81.8948427,20.9 Z M190.352609,14.8248509 C190.352609,16.4081511 189.038398,17.1691849 187.595553,17.1691849 C184.917822,17.1691849 182.857534,15.1244533 182.857534,15.1244533 L180.985909,17.7705765 C180.985909,17.7705765 183.314184,20.4166998 187.539811,20.4166998 C191.497451,20.4166998 193.8,17.8274354 193.8,14.7417495 C193.8,8.54850895 184.864224,9.39483101 184.864224,5.95487078 C184.864224,4.59025845 186.122693,3.63677932 187.726331,3.63677932 C190.108204,3.63677932 191.926231,5.32723658 191.926231,5.32723658 L193.424817,2.46023857 C193.424817,2.46023857 191.497451,0.389264414 187.752058,0.389264414 C184.116003,0.389264414 181.384674,2.79045726 181.384674,6.00954274 C181.384674,11.9600398 190.352609,11.3586481 190.352609,14.8248509 Z M9.81906279,20.4166998 C14.6621333,20.4166998 17.2841232,17.2807157 17.2841232,17.2807157 L15.4660958,14.7417495 C15.4660958,14.7417495 13.2450153,17.1998012 9.9541285,17.1998012 C5.99220098,17.1998012 3.55887429,13.9522863 3.55887429,10.2673956 C3.55887429,6.66560636 5.91502058,3.61053678 9.9262578,3.61053678 C12.9513009,3.61053678 15.118784,5.65526839 15.118784,5.65526839 L16.7781628,3.03538767 C16.7781628,3.03538767 14.3941458,0.389264414 9.76546529,0.389264414 C4.17417364,0.389264414 0,4.69960239 0,10.3220676 C0,16.0254473 4.01338112,20.4166998 9.81906279,20.4166998 Z M157.75675,0.715109344 L157.75675,13.1059642 C157.75675,15.7258449 156.071645,17.1998012 153.528979,17.1998012 C150.986314,17.1998012 149.326935,15.7258449 149.326935,13.1343936 L149.326935,0.715109344 L145.879543,0.715109344 L145.879543,13.1343936 C145.879543,17.473161 148.951752,20.4166998 153.558994,20.4166998 C158.134077,20.4166998 161.204142,17.473161 161.204142,13.1343936 L161.204142,0.715109344 L157.75675,0.715109344 Z M112.49473,0.715109344 L112.49473,20.0930417 L115.946409,20.0930417 L115.946409,12.8610338 L119.263023,12.8610338 L123.036287,20.0930417 L126.888876,20.0930417 L122.982689,12.8610338 C122.607507,12.1787276 122.339519,11.9053678 122.339519,11.9053678 C124.348354,11.0284294 125.551082,8.87435388 125.551082,6.55407555 C125.551082,3.99105368 124.348354,2.13439364 122.446714,1.25964215 C121.617025,0.879125249 120.680141,0.715109344 118.619853,0.715109344 L112.49473,0.715109344 Z M115.946409,3.74393638 L118.568399,3.74393638 C121.269713,3.74393638 122.045805,4.89204771 122.045805,6.74652087 C122.045805,8.68409543 120.894531,9.80159046 119.048633,9.80159046 L115.946409,9.80159046 L115.946409,3.74393638 Z M47.7875348,0.715109344 L47.7875348,8.93121272 L39.0897318,8.93121272 L39.0897318,0.715109344 L35.6380526,0.715109344 L35.6380526,20.0930417 L39.0897318,20.0930417 L39.0897318,11.9600398 L47.7875348,11.9600398 L47.7875348,20.0930417 L51.2370702,20.0930417 L51.2370702,0.715109344 L47.7875348,0.715109344 Z" id="Logo/Primary-Copy-2" fill="url(#linearGradient-1)"></path>
                <path d="M230,18.216 L230,3 L231.36,3 L231.36,18.216 L230,18.216 Z M254.816,15.672 L254.816,4.376 L256.384,4.376 L261.408,11.72 C261.824,12.328 262.352,13.352 262.352,13.352 L262.384,13.352 C262.384,13.352 262.272,12.344 262.272,11.72 L262.272,4.376 L263.856,4.376 L263.856,15.672 L262.304,15.672 L257.264,8.344 C256.848,7.72 256.32,6.696 256.32,6.696 L256.288,6.696 C256.288,6.696 256.4,7.704 256.4,8.344 L256.4,15.672 L254.816,15.672 Z M268.048,15.672 L268.048,14.616 L273.488,6.776 C273.92,6.136 274.304,5.736 274.304,5.736 L274.304,5.704 C274.304,5.704 274,5.752 273.456,5.752 L268.336,5.752 L268.336,4.376 L276.272,4.376 L276.272,5.416 L270.832,13.272 C270.4,13.896 270.016,14.296 270.016,14.296 L270.016,14.328 C270.016,14.328 270.32,14.296 270.864,14.296 L276.336,14.296 L276.336,15.672 L268.048,15.672 Z" id="|-NZ" fill="#9C9C9C" opacity="0.808768657"></path>
            </g>
        </g>
    </g>
</svg>