<?xml version="1.0" encoding="utf-8"?>
<!-- Generator: Adobe Illustrator 19.1.0, SVG Export Plug-In . SVG Version: 6.00 Build 0)  -->
<svg version="1.1" id="Aveo_Logo" xmlns="http://www.w3.org/2000/svg" xmlns:xlink="http://www.w3.org/1999/xlink" x="0px" y="0px"
	 viewBox="0 0 154.2 37.7" style="enable-background:new 0 0 154.2 37.7;" xml:space="preserve">
<style type="text/css">
	.st0{fill:#008DA0;}
</style>
<g>
	<g>
		<g>
			<g>
				<g>
					<path class="st0" d="M59.5,5.8c-2.4-6.2-13.3-7.6-24.4-3.3c-11.1,4.3-18.1,12.8-15.7,19c2.4,6.2,13.3,7.6,24.4,3.3
						C54.9,20.4,61.9,11.9,59.5,5.8z M39.6,23.5c-8.3,3.2-16.5,2.1-18.3-2.5C19.5,16.4,24.7,10,33,6.8c8.3-3.2,16.5-2.1,18.3,2.5
						C53.1,13.9,47.9,20.3,39.6,23.5z"/>
				</g>
			</g>
		</g>
		<g>
			<g>
				<path class="st0" d="M21.3,9C10.7,7.1,1.2,10.4,0.1,16.3C-1,22.2,6.8,28.6,17.5,30.5c10.7,1.9,20.2-1.3,21.2-7.3
					C39.8,17.3,32,10.9,21.3,9z M36.8,23.1c-0.8,4.3-7.5,6.6-15.1,5.2C14.2,27,8.7,22.5,9.5,18.2C10.2,14,17,11.6,24.5,13
					C32.1,14.3,37.6,18.9,36.8,23.1z"/>
			</g>
		</g>
	</g>
	<path class="st0" d="M80.6,31.3v-8.9c0-4.5-1.6-9.9-9.2-9.9c-2.9,0-5.8,0.8-7.9,2.1l-0.1,0l1.1,3.1l0.1-0.1c1.7-1.1,4-1.8,6.2-1.8
		c3.5,0,5.3,1.9,5.3,5.4v0.4h-0.1c-9.2,0-14.3,3.2-14.3,9c0,3.4,2.3,7,7.4,7c3,0,5.8-1.3,7.4-3.5l0.3,3H81l0-0.1
		C80.7,35.5,80.6,33.7,80.6,31.3z M76.1,28.9c0,0.4-0.1,0.9-0.2,1.3c-0.6,1.8-2.5,3.9-5.7,3.9c-1.9,0-4-1.1-4-4
		c0-3.5,3.1-5.3,9.3-5.3c0.2,0,0.4,0,0.6,0V28.9z M96.1,26.5c-0.8,2.3-1.5,4.2-2,6c-0.5-1.8-1-3.7-1.9-6L87.5,13l0-0.1h-4.9L91.8,37
		l0,0.1h4.3l9.5-24.1h-4.8L96.1,26.5z M117.6,12.4c-6.7,0-11.3,5.4-11.3,13c0,7.4,4.7,12.2,11.9,12.2c3.9,0,6.5-0.8,8-1.5l0.1,0
		l-0.8-3.3l-0.1,0.1c-1.5,0.6-3.3,1.2-6.6,1.2c-4.9,0-8-3-8.1-8.1h16.8l0-0.3c0.1-0.4,0.1-1.1,0.1-1.8c0-1.3-0.2-4.6-2-7.3
		C123.8,13.8,121.1,12.4,117.6,12.4z M110.7,22.6c0.3-2.6,2.1-6.8,6.5-6.8c1.7,0,3.1,0.5,4.1,1.5c1.7,1.7,1.9,4.4,1.9,5.3H110.7z
		 M142.6,12.4c-7.2,0-12,5.1-12,12.8c0,7.3,4.8,12.4,11.6,12.4c6,0,12-4,12-12.8C154.2,17.4,149.5,12.4,142.6,12.4z M142.4,34.2
		c-4.1,0-7.2-3.8-7.2-9.1c0-4.6,2.2-9.2,7.3-9.2c4.8,0,7.1,4.7,7.1,9.1C149.5,30.3,146.5,34.2,142.4,34.2z"/>
</g>
</svg>
