<?xml version="1.0" encoding="utf-8"?>
<!-- Generator: Adobe Illustrator 16.0.0, SVG Export Plug-In . SVG Version: 6.00 Build 0)  -->
<!DOCTYPE svg PUBLIC "-//W3C//DTD SVG 1.1//EN" "http://www.w3.org/Graphics/SVG/1.1/DTD/svg11.dtd">
<svg version="1.1" id="Layer_1" xmlns="http://www.w3.org/2000/svg" xmlns:xlink="http://www.w3.org/1999/xlink" x="0px" y="0px"
	 width="574.305px" height="134.716px" viewBox="212.847 433.333 574.305 134.716"
	 enable-background="new 212.847 433.333 574.305 134.716" xml:space="preserve">
<g>
	<path fill="none" stroke="#B59F5E" stroke-miterlimit="10" d="M772.569,478.125v-12.152v-2.084c0-4.861-3.819-8.681-8.681-8.681
		l0,0H496.181l-18.403,37.153h22.57l-38.195,74.306l36.806-22.917h233.681h31.598l0,0c4.861,0,8.681-3.819,8.681-8.681v-6.25v-7.986
		v-42.708H772.569z"/>
	<path fill="#B59F5E" d="M778.473,478.125h-1.042v43.056h1.042c4.86,0,8.68-3.819,8.68-8.681v-26.042
		C787.152,481.944,783.333,478.125,778.473,478.125z"/>
	<path fill="#B59F5E" d="M328.473,484.375h-12.5v12.848h11.805c5.209,0,7.64-1.736,7.64-6.598
		C335.417,488.194,334.375,484.375,328.473,484.375z"/>
	<path fill="#B59F5E" d="M484.375,433.333l-35.069,22.223H221.528c-4.861,0-8.681,3.819-8.681,8.681v71.527
		c0,4.861,3.819,8.681,8.681,8.681h228.125l19.098-37.5h-21.181L484.375,433.333z M275.694,484.723h-23.958v10.764h21.18v8.333
		h-21.18v20.139h-10.07v-47.916h34.028V484.723z M294.097,523.958h-10.069v-47.916h10.069V523.958z M346.527,523.958h-11.11
		c-0.694-2.431-1.042-4.86-1.042-9.722c0-6.598-0.348-9.028-7.986-9.028h-10.416v18.75h-9.723v-47.916h24.306
		c12.847,0,14.931,9.375,14.931,13.541c0,5.209-2.778,9.723-7.292,11.459c3.819,1.735,6.25,3.125,6.25,12.152
		c0,6.944,0,8.681,2.083,9.723V523.958z M372.569,525.348c-17.361,0-20.486-10.07-20.486-15.973h9.723
		c0,2.777,1.389,7.639,10.069,7.639c4.861,0,10.069-1.041,10.069-6.25c0-3.819-3.472-4.861-8.681-5.902l-5.208-1.042
		c-7.639-1.736-15.278-3.472-15.278-14.236c0-5.208,2.778-14.931,18.403-14.931c14.583,0,18.75,9.723,18.75,15.625h-9.723
		c-0.347-2.083-1.041-7.291-9.722-7.291c-3.819,0-8.334,1.389-8.334,5.902c0,3.819,3.125,4.514,5.209,4.861l11.806,2.777
		c6.597,1.736,12.5,4.167,12.5,12.848C391.319,523.958,376.736,525.348,372.569,525.348z M432.639,484.723h-14.583v39.583h-10.069
		v-39.583h-14.584v-8.334h38.89v8.334H432.639z"/>
	<g>
		<path fill="#FFFFFF" d="M549.652,491.319c-0.694-2.777-2.083-7.986-10.069-7.986c-4.514,0-11.458,3.125-11.458,16.319
			c0,8.334,3.125,15.625,11.458,15.625c5.209,0,9.028-3.125,10.069-8.68h9.723c-2.083,10.069-8.333,17.014-20.139,17.014
			c-12.153,0-21.181-8.334-21.181-24.306c0-16.319,9.375-24.306,21.181-24.306c13.889,0,19.444,9.375,19.791,16.319H549.652
			L549.652,491.319z"/>
		<path fill="#FFFFFF" d="M582.986,475c6.25,0,22.222,2.777,22.222,24.306c0,21.527-15.972,24.306-22.222,24.306
			s-22.223-2.778-22.223-24.306C560.764,477.777,576.736,475,582.986,475z M582.986,515.625c5.208,0,12.5-3.125,12.5-16.319
			c0-12.848-7.292-16.319-12.5-16.319c-5.209,0-12.5,3.125-12.5,16.319C570.139,512.5,577.777,515.625,582.986,515.625z"/>
		<path fill="#FFFFFF" d="M609.027,476.389h22.57c11.458,0,14.235,6.944,14.235,11.806c0,6.598-3.819,8.333-5.556,9.375
			c5.556,2.083,7.292,6.598,7.292,11.111c0,3.819-1.389,7.292-3.819,9.375c-2.777,2.431-5.208,4.167-14.583,4.167h-19.444v-45.834
			H609.027z M618.056,494.444h11.458c3.819,0,6.944-1.389,6.944-5.208s-2.777-4.861-6.944-4.861h-11.458V494.444z M618.056,514.583
			h11.806c4.861,0,7.291-2.083,7.291-6.597c0-4.167-3.472-5.556-6.944-5.556h-12.152V514.583z"/>
		<path fill="#FFFFFF" d="M656.25,522.569h-10.417l16.319-46.181h11.111l16.319,46.181h-10.416l-3.125-9.375h-17.015L656.25,522.569
			z M661.806,504.861h11.806l-5.556-18.403l0,0L661.806,504.861z"/>
		<path fill="#FFFFFF" d="M701.736,514.236h22.916v8.333h-32.639v-46.181h9.723V514.236L701.736,514.236z"/>
		<path fill="#FFFFFF" d="M741.667,522.569h-9.723v-38.194h-13.889v-8.333h37.5v8.333h-13.889V522.569z"/>
	</g>
</g>
</svg>
