<svg xmlns="http://www.w3.org/2000/svg" width="199" height="47.031" viewBox="0 0 199 47.031">
  <metadata><?xpacket begin="﻿" id="W5M0MpCehiHzreSzNTczkc9d"?>
<x:xmpmeta xmlns:x="adobe:ns:meta/" x:xmptk="Adobe XMP Core 5.6-c138 79.159824, 2016/09/14-01:09:01        ">
   <rdf:RDF xmlns:rdf="http://www.w3.org/1999/02/22-rdf-syntax-ns#">
      <rdf:Description rdf:about=""/>
   </rdf:RDF>
</x:xmpmeta>
                                                                                                    
                                                                                                    
                                                                                                    
                                                                                                    
                                                                                                    
                                                                                                    
                                                                                                    
                                                                                                    
                                                                                                    
                                                                                                    
                                                                                                    
                                                                                                    
                                                                                                    
                                                                                                    
                                                                                                    
                                                                                                    
                                                                                                    
                                                                                                    
                                                                                                    
                                                                                                    
                           
<?xpacket end="w"?></metadata>
<defs>
    <style>
      .cls-1 {
        fill: #2b41b1;
        fill-rule: evenodd;
      }
    </style>
  </defs>
  <path id="Logo_Blue" data-name="Logo Blue" class="cls-1" d="M792.153,198.9h-3.127v-24.81h14.065V159.681h24.193v3.2H806.219v14.405H792.153V198.9h0Zm-7.033.039h-3.129V166.922h14.066V152.516h31.225v3.205h-28.1v14.405H785.12v28.811Zm14.066,0.022h-3.128v-17.61h14.063v-14.4h17.164v3.2H813.221v14.405H799.186v14.406Zm21.066-7.18H803.06v-3.2h14.1V174.107h3.1v17.672Zm7.034,7.2H803.06v-3.2h21.1V174.107h3.13v24.874ZM853.37,172.6c0,2.35-.565,4.09-1.849,5.249a7.966,7.966,0,0,1-5.538,1.74,11.74,11.74,0,0,1-2.3-.245,6.175,6.175,0,0,1-2.113-.824,5.4,5.4,0,0,1-1.608-1.494,4.831,4.831,0,0,1-.775-2.29h3.338a2.406,2.406,0,0,0,.5,1.159,2.294,2.294,0,0,0,.834.7,3.145,3.145,0,0,0,1.074.336,7.85,7.85,0,0,0,1.221.062,3.841,3.841,0,0,0,2.948-1.009,4.222,4.222,0,0,0,.955-2.959v-2.381h-0.058a5.187,5.187,0,0,1-1.938,2.015,5.014,5.014,0,0,1-2.622.732,6.865,6.865,0,0,1-3.1-.641,5.719,5.719,0,0,1-2.116-1.771,7.588,7.588,0,0,1-1.22-2.593,11.871,11.871,0,0,1-.391-3.144,8.777,8.777,0,0,1,.478-2.961,7.586,7.586,0,0,1,1.341-2.471,6.933,6.933,0,0,1,2.146-1.709,6.4,6.4,0,0,1,2.891-.642,5.967,5.967,0,0,1,2.651.611,3.99,3.99,0,0,1,1.845,1.953h0.059v-2.136h3.339V172.6Zm-7.33-1.893a3.489,3.489,0,0,0,3.159-1.678,5.66,5.66,0,0,0,.717-1.739,8.715,8.715,0,0,0,.207-1.985,8.089,8.089,0,0,0-.239-1.923,5.1,5.1,0,0,0-.714-1.648,3.446,3.446,0,0,0-1.251-1.129,3.9,3.9,0,0,0-1.879-.427,3.325,3.325,0,0,0-1.877.488,3.74,3.74,0,0,0-1.22,1.251,5.552,5.552,0,0,0-.686,1.74,8.73,8.73,0,0,0-.208,1.953,8.032,8.032,0,0,0,.237,1.893,5.18,5.18,0,0,0,.714,1.648,3.75,3.75,0,0,0,1.224,1.159A4.1,4.1,0,0,0,846.04,170.71Zm13.492-4.187a6.579,6.579,0,0,0,.239,1.739,4.867,4.867,0,0,0,.743,1.466,3.452,3.452,0,0,0,1.253,1.006,4.107,4.107,0,0,0,1.816.366,3.931,3.931,0,0,0,2.354-.641,3.769,3.769,0,0,0,1.341-1.953h3.16a6.666,6.666,0,0,1-2.472,3.937,6.049,6.049,0,0,1-2.029,1.007,7.576,7.576,0,0,1-2.354.336,7.786,7.786,0,0,1-3.157-.61A6.6,6.6,0,0,1,858.1,171.5a7.538,7.538,0,0,1-1.43-2.595,10.626,10.626,0,0,1-.476-3.3,10.016,10.016,0,0,1,.507-3.143,7.99,7.99,0,0,1,1.46-2.624,6.77,6.77,0,0,1,5.331-2.473,6.62,6.62,0,0,1,3.217.763,7.234,7.234,0,0,1,2.356,2.015,8.715,8.715,0,0,1,1.577,6.287H859.532v0.091h0Zm7.807-2.26a5.323,5.323,0,0,0-.328-1.556,4.13,4.13,0,0,0-.776-1.312,4.3,4.3,0,0,0-1.163-.916,3.217,3.217,0,0,0-1.547-.335,3.9,3.9,0,0,0-1.61.3,3.294,3.294,0,0,0-1.222.886,4.487,4.487,0,0,0-.836,1.312,4.16,4.16,0,0,0-.326,1.617h7.808Zm6.173-6.4h3.157v2.29l0.057,0.061a5.576,5.576,0,0,1,2-2.015,5.278,5.278,0,0,1,2.74-.733,5.545,5.545,0,0,1,3.932,1.313,5.138,5.138,0,0,1,1.432,3.968v10.681h-3.338V163.66a4.164,4.164,0,0,0-.775-2.655,2.734,2.734,0,0,0-2.2-.824,3.49,3.49,0,0,0-1.521.3,2.95,2.95,0,0,0-1.131.885,3.71,3.71,0,0,0-.746,1.313,4.713,4.713,0,0,0-.269,1.587v9.156h-3.335V157.861Zm19.362,8.662a6.538,6.538,0,0,0,.238,1.739,4.826,4.826,0,0,0,.745,1.466,3.429,3.429,0,0,0,1.251,1.006,4.112,4.112,0,0,0,1.817.366,3.936,3.936,0,0,0,2.355-.641,3.778,3.778,0,0,0,1.339-1.953h3.162a6.654,6.654,0,0,1-2.477,3.937,6.015,6.015,0,0,1-2.024,1.007,7.6,7.6,0,0,1-2.355.336,7.782,7.782,0,0,1-3.157-.61,6.6,6.6,0,0,1-2.326-1.678,7.557,7.557,0,0,1-1.431-2.595,10.686,10.686,0,0,1-.474-3.3,10.015,10.015,0,0,1,.506-3.143,7.951,7.951,0,0,1,1.459-2.624,7.057,7.057,0,0,1,2.3-1.8,6.982,6.982,0,0,1,3.038-.671,6.625,6.625,0,0,1,3.219.763,7.244,7.244,0,0,1,2.353,2.015,8.729,8.729,0,0,1,1.579,6.287H892.874v0.091h0Zm7.807-2.26a5.357,5.357,0,0,0-.329-1.556,4.127,4.127,0,0,0-.775-1.312,4.327,4.327,0,0,0-1.163-.916,3.221,3.221,0,0,0-1.548-.335,3.9,3.9,0,0,0-1.609.3,3.286,3.286,0,0,0-1.222.886,4.443,4.443,0,0,0-.835,1.312,4.106,4.106,0,0,0-.326,1.617h7.807Zm6.112-6.371h3.13v2.991h0.058a3.53,3.53,0,0,1,.568-1.221,7.081,7.081,0,0,1,1.012-1.1,4.252,4.252,0,0,1,1.34-.792,3.629,3.629,0,0,1,1.492-.307,5.122,5.122,0,0,1,.8.031c0.15,0.03.3,0.03,0.447,0.061v3.3l-0.715-.091a5.377,5.377,0,0,0-.717-0.032,4.127,4.127,0,0,0-1.608.337,4.2,4.2,0,0,0-1.311,1.006,5.864,5.864,0,0,0-.894,1.679,7.547,7.547,0,0,0-.326,2.288v7.386h-3.339V157.892h0.058Zm23.123,12.093a2.213,2.213,0,0,0,.149.916,0.689,0.689,0,0,0,.624.274h0.359a2.755,2.755,0,0,0,.476-0.062v2.381c-0.117.031-.269,0.091-0.447,0.123a3.818,3.818,0,0,1-.564.122c-0.21.03-.387,0.061-0.6,0.091a3.143,3.143,0,0,1-.508.031,3.2,3.2,0,0,1-1.7-.428,2.124,2.124,0,0,1-.892-1.465,5.822,5.822,0,0,1-2.446,1.435,9.3,9.3,0,0,1-2.8.458,6.924,6.924,0,0,1-1.967-.276,4.617,4.617,0,0,1-1.67-.853,4,4,0,0,1-1.132-1.4,4.352,4.352,0,0,1-.417-1.986,4.886,4.886,0,0,1,.508-2.351,3.754,3.754,0,0,1,1.341-1.4,6.361,6.361,0,0,1,1.875-.733,16.34,16.34,0,0,1,2.089-.334,12.173,12.173,0,0,1,1.728-.244,9.257,9.257,0,0,0,1.459-.245,2.193,2.193,0,0,0,.983-0.549,1.589,1.589,0,0,0,.358-1.129,1.73,1.73,0,0,0-.3-1.069,2.042,2.042,0,0,0-.776-0.64,3.533,3.533,0,0,0-1.014-.3,6.045,6.045,0,0,0-1.041-.062,4.19,4.19,0,0,0-2.326.611,2.292,2.292,0,0,0-1.012,1.861h-3.339a5.29,5.29,0,0,1,.713-2.5,4.691,4.691,0,0,1,1.58-1.586,6.754,6.754,0,0,1,2.148-.856,13.063,13.063,0,0,1,2.472-.244,10.554,10.554,0,0,1,2.2.244,5.794,5.794,0,0,1,1.938.794,4.424,4.424,0,0,1,1.4,1.4,3.9,3.9,0,0,1,.538,2.076v7.905Zm-3.339-4.336a3.923,3.923,0,0,1-1.875.611c-0.744.061-1.492,0.183-2.236,0.305a9.663,9.663,0,0,0-1.011.244,4.13,4.13,0,0,0-.894.458,1.677,1.677,0,0,0-.6.764,2.6,2.6,0,0,0-.21,1.128,1.608,1.608,0,0,0,.327.976,2.172,2.172,0,0,0,.775.611,3.333,3.333,0,0,0,.985.3,5.768,5.768,0,0,0,.98.093,5.837,5.837,0,0,0,1.195-.153,3.891,3.891,0,0,0,1.221-.519,3.419,3.419,0,0,0,.953-0.915,2.262,2.262,0,0,0,.387-1.374V165.65h0Zm5.4-7.735h2.534v-4.67h3.338v4.67h3.007v2.564h-3.008v8.3c0,0.367,0,.672.028,0.947a1.488,1.488,0,0,0,.208.67,1.029,1.029,0,0,0,.479.4,2.331,2.331,0,0,0,.894.122h0.714a2.863,2.863,0,0,0,.716-0.091v2.656c-0.358.03-.745,0.091-1.076,0.121-0.354.031-.711,0.062-1.07,0.062a7.778,7.778,0,0,1-2.116-.245,2.848,2.848,0,0,1-1.25-.763,2.745,2.745,0,0,1-.628-1.251,7.446,7.446,0,0,1-.178-1.709v-9.157H932.04v-2.624h-0.06Zm11.711-5.945h3.338V155.2h-3.338v-3.235Zm0,5.921h3.338v15.535h-3.338V157.89Zm13.7,15.964a8.373,8.373,0,0,1-3.248-.61,6.61,6.61,0,0,1-2.412-1.71,7.182,7.182,0,0,1-1.492-2.594,10.536,10.536,0,0,1-.5-3.3,10.334,10.334,0,0,1,.5-3.265,7.18,7.18,0,0,1,1.492-2.595,6.965,6.965,0,0,1,2.412-1.709,8.944,8.944,0,0,1,6.5,0,6.607,6.607,0,0,1,2.412,1.709,7.158,7.158,0,0,1,1.489,2.595,10.826,10.826,0,0,1,0,6.561,7.146,7.146,0,0,1-1.489,2.594,7.024,7.024,0,0,1-2.412,1.71A8.384,8.384,0,0,1,957.388,173.854Zm0-2.716a3.609,3.609,0,0,0,1.939-.489,4.453,4.453,0,0,0,1.338-1.251,4.977,4.977,0,0,0,.776-1.77,7.37,7.37,0,0,0,.238-1.984,9.024,9.024,0,0,0-.238-1.984,5.592,5.592,0,0,0-.774-1.77,4.487,4.487,0,0,0-1.34-1.252,3.9,3.9,0,0,0-1.939-.487,3.6,3.6,0,0,0-1.936.487,4.459,4.459,0,0,0-1.342,1.252,5.011,5.011,0,0,0-.776,1.77,7.583,7.583,0,0,0-.237,1.984,8.863,8.863,0,0,0,.237,1.984,5.976,5.976,0,0,0,.776,1.77,4.1,4.1,0,0,0,1.342,1.251A3.6,3.6,0,0,0,957.388,171.138Zm10.26-13.277h3.189v2.29l0.059,0.061a5.555,5.555,0,0,1,2-2.015,5.273,5.273,0,0,1,2.741-.733,5.557,5.557,0,0,1,3.933,1.313A5.144,5.144,0,0,1,981,162.745v10.681h-3.339V163.66a4.153,4.153,0,0,0-.773-2.655,2.731,2.731,0,0,0-2.2-.824,3.49,3.49,0,0,0-1.521.3,2.975,2.975,0,0,0-1.134.885,3.767,3.767,0,0,0-.743,1.313,4.61,4.61,0,0,0-.267,1.587v9.156H967.68V157.861h-0.032ZM848.013,195.885h-1.694v-1.067h-0.032a2.091,2.091,0,0,1-1.049.984,3.661,3.661,0,0,1-1.457.3,3.965,3.965,0,0,1-1.67-.328,3.33,3.33,0,0,1-1.184-.892,3.766,3.766,0,0,1-.705-1.335,5.658,5.658,0,0,1-.236-1.655,5.15,5.15,0,0,1,.3-1.845,3.666,3.666,0,0,1,.791-1.281,3.1,3.1,0,0,1,1.129-.74,3.7,3.7,0,0,1,1.3-.235,4.52,4.52,0,0,1,.767.067,3.528,3.528,0,0,1,.753.222,2.943,2.943,0,0,1,.665.389,2.212,2.212,0,0,1,.511.556h0.03V185h1.788v10.888Zm-6.239-3.858a3.7,3.7,0,0,0,.133.991,2.614,2.614,0,0,0,.409.87,2.008,2.008,0,0,0,.7.609,2.07,2.07,0,0,0,1,.229,2.033,2.033,0,0,0,1.027-.244,2.1,2.1,0,0,0,.706-0.641,2.869,2.869,0,0,0,.406-0.892,3.8,3.8,0,0,0,.133-1.015,3.119,3.119,0,0,0-.6-2.042,2.007,2.007,0,0,0-1.639-.732,2.052,2.052,0,0,0-1.055.251,2.112,2.112,0,0,0-.707.657,2.671,2.671,0,0,0-.392.914A4.676,4.676,0,0,0,841.774,192.027Zm9.578,0.366a2.952,2.952,0,0,0,.134.885,2.142,2.142,0,0,0,.4.746,1.915,1.915,0,0,0,.676.512,2.267,2.267,0,0,0,.971.19,2.213,2.213,0,0,0,1.263-.327,1.961,1.961,0,0,0,.713-0.984H857.2a3.225,3.225,0,0,1-.484,1.143,3.372,3.372,0,0,1-.833.847,3.616,3.616,0,0,1-1.087.519,4.544,4.544,0,0,1-1.263.175,4.378,4.378,0,0,1-1.693-.3,3.5,3.5,0,0,1-1.247-.854,3.616,3.616,0,0,1-.77-1.311,5.213,5.213,0,0,1-.258-1.678,4.588,4.588,0,0,1,.276-1.595,4.02,4.02,0,0,1,.784-1.327,3.743,3.743,0,0,1,1.23-.906,3.809,3.809,0,0,1,1.63-.335,3.694,3.694,0,0,1,2.977,1.417,4.142,4.142,0,0,1,.731,1.472,4.37,4.37,0,0,1,.117,1.716h-5.957Zm4.17-1.143a2.761,2.761,0,0,0-.181-0.794,2.135,2.135,0,0,0-.406-0.664,1.992,1.992,0,0,0-.629-0.456,1.863,1.863,0,0,0-.822-0.176,2.191,2.191,0,0,0-.854.159,1.967,1.967,0,0,0-.659.443,2.2,2.2,0,0,0-.439.663,2.273,2.273,0,0,0-.18.825h4.17Zm2.352-3.25h1.944l2.052,6.055H861.9L863.877,188h1.851l-2.9,7.885H860.82Zm10.331,4.393a2.921,2.921,0,0,0,.134.885,2.1,2.1,0,0,0,.4.746,1.877,1.877,0,0,0,.673.512,2.27,2.27,0,0,0,.971.19,2.2,2.2,0,0,0,1.262-.327,1.94,1.94,0,0,0,.714-0.984h1.695a3.3,3.3,0,0,1-.487,1.143,3.377,3.377,0,0,1-.83.847,3.667,3.667,0,0,1-1.092.519,4.537,4.537,0,0,1-1.262.175,4.392,4.392,0,0,1-1.693-.3,3.514,3.514,0,0,1-1.245-.854,3.57,3.57,0,0,1-.768-1.311,5.185,5.185,0,0,1-.258-1.678,4.657,4.657,0,0,1,.273-1.595,4.1,4.1,0,0,1,.782-1.327,3.761,3.761,0,0,1,1.232-.906,3.82,3.82,0,0,1,1.631-.335,3.735,3.735,0,0,1,1.718.388,3.8,3.8,0,0,1,1.26,1.029,4.155,4.155,0,0,1,.729,1.472,4.408,4.408,0,0,1,.119,1.716h-5.958Zm4.171-1.143a2.763,2.763,0,0,0-.182-0.794,2.05,2.05,0,0,0-.408-0.664,1.972,1.972,0,0,0-.627-0.456,1.873,1.873,0,0,0-.822-0.176,2.2,2.2,0,0,0-.855.159,1.944,1.944,0,0,0-.656.443,2.118,2.118,0,0,0-.441.663,2.252,2.252,0,0,0-.18.825h4.171Zm3.2-6.253h1.787v10.888h-1.787V185Zm7.447,11.1a4.494,4.494,0,0,1-1.731-.314,3.587,3.587,0,0,1-2.087-2.172,5.226,5.226,0,0,1,0-3.34,3.585,3.585,0,0,1,2.087-2.173,4.958,4.958,0,0,1,3.462,0,3.585,3.585,0,0,1,2.087,2.173,5.244,5.244,0,0,1,0,3.34,3.587,3.587,0,0,1-2.087,2.172A4.5,4.5,0,0,1,883.02,196.1Zm0-1.373a2.078,2.078,0,0,0,1.034-.244,2.152,2.152,0,0,0,.721-0.641,2.755,2.755,0,0,0,.415-0.892,3.846,3.846,0,0,0,0-2.02,2.661,2.661,0,0,0-.415-0.892,2.185,2.185,0,0,0-.721-0.633,2.317,2.317,0,0,0-2.07,0,2.2,2.2,0,0,0-.721.633,2.681,2.681,0,0,0-.415.892,3.93,3.93,0,0,0,0,2.02,2.776,2.776,0,0,0,.415.892,2.172,2.172,0,0,0,.721.641A2.089,2.089,0,0,0,883.02,194.726ZM888.647,188h1.694v1.068h0.031a2.168,2.168,0,0,1,1.052-.983,3.542,3.542,0,0,1,1.455-.3,3.967,3.967,0,0,1,1.669.327,3.268,3.268,0,0,1,1.185.9,3.875,3.875,0,0,1,.706,1.334,5.5,5.5,0,0,1,.235,1.632,5.589,5.589,0,0,1-.213,1.541,3.9,3.9,0,0,1-.641,1.319,3.2,3.2,0,0,1-1.09.915,3.328,3.328,0,0,1-1.553.343,4.52,4.52,0,0,1-.783-0.069,3.4,3.4,0,0,1-.752-0.221,2.972,2.972,0,0,1-.667-0.389,2.2,2.2,0,0,1-.509-0.556h-0.032V198.8h-1.787V188Zm6.24,3.951a3.854,3.854,0,0,0-.141-1.036,2.842,2.842,0,0,0-.424-0.894,2.167,2.167,0,0,0-.706-0.626,1.96,1.96,0,0,0-.971-0.235,1.991,1.991,0,0,0-1.7.763,3.282,3.282,0,0,0-.572,2.028,3.864,3.864,0,0,0,.15,1.105,2.506,2.506,0,0,0,.444.878,2.228,2.228,0,0,0,.716.579,2.077,2.077,0,0,0,.963.213,2.02,2.02,0,0,0,1.033-.244,2.146,2.146,0,0,0,.7-0.632,2.536,2.536,0,0,0,.393-0.885A4.519,4.519,0,0,0,894.887,191.951ZM898.176,188h1.7v1.1h0.046a4.432,4.432,0,0,1,.44-0.534,2.352,2.352,0,0,1,.524-0.413,2.692,2.692,0,0,1,.667-0.266,3.4,3.4,0,0,1,.86-0.1,2.992,2.992,0,0,1,1.373.32,1.811,1.811,0,0,1,.9.991,3.591,3.591,0,0,1,1.05-.961,2.891,2.891,0,0,1,1.492-.35,2.983,2.983,0,0,1,2,.609,2.561,2.561,0,0,1,.712,2.044v5.444h-1.786v-4.6c0-.314-0.01-0.6-0.031-0.862a1.674,1.674,0,0,0-.182-0.671,1,1,0,0,0-.445-0.435,1.821,1.821,0,0,0-.813-0.152,1.535,1.535,0,0,0-1.319.549,2.562,2.562,0,0,0-.408,1.555v4.621h-1.786v-5.063a2.117,2.117,0,0,0-.306-1.243,1.3,1.3,0,0,0-1.122-.419,1.66,1.66,0,0,0-.665.137,1.622,1.622,0,0,0-.564.4,1.979,1.979,0,0,0-.394.641,2.4,2.4,0,0,0-.147.87v4.681h-1.79V188Zm15.036,4.393a3.016,3.016,0,0,0,.133.885,2.163,2.163,0,0,0,.4.746,1.893,1.893,0,0,0,.675.512,2.276,2.276,0,0,0,.971.19,2.192,2.192,0,0,0,1.261-.327,1.945,1.945,0,0,0,.714-0.984h1.693a3.263,3.263,0,0,1-.485,1.143,3.351,3.351,0,0,1-.832.847,3.621,3.621,0,0,1-1.09.519,4.535,4.535,0,0,1-1.261.175,4.385,4.385,0,0,1-1.693-.3,3.488,3.488,0,0,1-1.245-.854,3.588,3.588,0,0,1-.77-1.311,5.185,5.185,0,0,1-.258-1.678,4.635,4.635,0,0,1,.276-1.595,4.033,4.033,0,0,1,.782-1.327,3.741,3.741,0,0,1,1.232-.906,3.806,3.806,0,0,1,1.63-.335,3.686,3.686,0,0,1,2.975,1.417,4.079,4.079,0,0,1,.732,1.472,4.408,4.408,0,0,1,.117,1.716h-5.958Zm4.17-1.143a2.756,2.756,0,0,0-.177-0.794,2.145,2.145,0,0,0-.41-0.664,1.961,1.961,0,0,0-.627-0.456,1.873,1.873,0,0,0-.822-0.176,2.2,2.2,0,0,0-.856.159,1.967,1.967,0,0,0-.659.443,2.181,2.181,0,0,0-.438.663,2.294,2.294,0,0,0-.181.825h4.17Zm3.15-3.25h1.694v1.16l0.032,0.031a2.939,2.939,0,0,1,1.066-1.03,2.886,2.886,0,0,1,1.457-.373,3.076,3.076,0,0,1,2.1.67,2.53,2.53,0,0,1,.77,2.013v5.414h-1.787v-4.956a2.106,2.106,0,0,0-.407-1.35,1.5,1.5,0,0,0-1.176-.419,1.974,1.974,0,0,0-.814.159,1.76,1.76,0,0,0-.613.443,2.032,2.032,0,0,0-.392.663,2.365,2.365,0,0,0-.142.809v4.651h-1.787V188Zm8.185,0h1.349v-2.363h1.788V188h1.614v1.3h-1.614v4.209a4.283,4.283,0,0,0,.022.473,0.808,0.808,0,0,0,.109.335,0.531,0.531,0,0,0,.259.206,1.3,1.3,0,0,0,.47.069c0.126,0,.251,0,0.376-0.008a1.891,1.891,0,0,0,.378-0.053v1.343l-0.58.06a5.506,5.506,0,0,1-.583.03,4.125,4.125,0,0,1-1.135-.128,1.523,1.523,0,0,1-.673-0.382,1.3,1.3,0,0,1-.33-0.633,4.731,4.731,0,0,1-.1-0.87V189.3h-1.349V188Zm17.887,7.474a3.3,3.3,0,0,1-1.028,2.66,4.414,4.414,0,0,1-2.953.878,6.314,6.314,0,0,1-1.232-.122,3.731,3.731,0,0,1-1.128-.412,2.684,2.684,0,0,1-.855-0.763,2.27,2.27,0,0,1-.408-1.159h1.787a1.369,1.369,0,0,0,.267.595,1.383,1.383,0,0,0,.447.359,1.737,1.737,0,0,0,.572.168,5.546,5.546,0,0,0,.659.037,2.123,2.123,0,0,0,1.584-.518,2.066,2.066,0,0,0,.5-1.494V194.5h-0.032a2.675,2.675,0,0,1-1.026,1.023,2.819,2.819,0,0,1-1.4.365,3.78,3.78,0,0,1-1.653-.328,3.1,3.1,0,0,1-1.13-.9,3.709,3.709,0,0,1-.649-1.319,6.024,6.024,0,0,1-.2-1.6,4.62,4.62,0,0,1,.248-1.51,3.912,3.912,0,0,1,.723-1.258,3.445,3.445,0,0,1,1.152-.861,3.578,3.578,0,0,1,1.543-.32,3.189,3.189,0,0,1,1.414.312,2.139,2.139,0,0,1,.985.984h0.032V188H946.6v7.474Zm-3.967-.961a2.032,2.032,0,0,0,1.013-.237,1.988,1.988,0,0,0,.673-0.625,2.717,2.717,0,0,0,.376-0.885,4.273,4.273,0,0,0,.117-1,3.864,3.864,0,0,0-.123-0.977,2.616,2.616,0,0,0-.385-0.838,1.852,1.852,0,0,0-.673-0.579,2.152,2.152,0,0,0-1-.214,1.921,1.921,0,0,0-1,.244,1.971,1.971,0,0,0-.657.633,2.635,2.635,0,0,0-.361.885,4.475,4.475,0,0,0-.11.983,3.583,3.583,0,0,0,.126.953,2.532,2.532,0,0,0,.383.831,2.015,2.015,0,0,0,.659.595A1.9,1.9,0,0,0,942.637,194.513Zm5.77-6.513h1.678v1.526h0.031a1.763,1.763,0,0,1,.305-0.626,2.926,2.926,0,0,1,.551-0.556,2.7,2.7,0,0,1,.711-0.4,2.182,2.182,0,0,1,.8-0.152,3.762,3.762,0,0,1,.431.015l0.244,0.03v1.677c-0.126-.02-0.252-0.038-0.385-0.053a3.316,3.316,0,0,0-.382-0.023,2.11,2.11,0,0,0-.853.175,1.955,1.955,0,0,0-.7.519,2.522,2.522,0,0,0-.47.847,3.51,3.51,0,0,0-.176,1.158v3.752h-1.784V188Zm8.949,8.1a4.512,4.512,0,0,1-1.731-.314,3.728,3.728,0,0,1-1.287-.861,3.684,3.684,0,0,1-.8-1.311,5.208,5.208,0,0,1,0-3.34,3.7,3.7,0,0,1,.8-1.312,3.756,3.756,0,0,1,1.287-.861,4.963,4.963,0,0,1,3.464,0,3.573,3.573,0,0,1,2.086,2.173,5.208,5.208,0,0,1,0,3.34,3.575,3.575,0,0,1-2.086,2.172A4.494,4.494,0,0,1,957.356,196.1Zm0-1.373a2.082,2.082,0,0,0,1.037-.244,2.156,2.156,0,0,0,.722-0.641,2.778,2.778,0,0,0,.416-0.892,3.9,3.9,0,0,0,0-2.02,2.682,2.682,0,0,0-.416-0.892,2.188,2.188,0,0,0-.722-0.633,2.313,2.313,0,0,0-2.068,0,2.178,2.178,0,0,0-.722.633,2.664,2.664,0,0,0-.417.892,3.93,3.93,0,0,0,0,2.02,2.759,2.759,0,0,0,.417.892,2.146,2.146,0,0,0,.722.641A2.072,2.072,0,0,0,957.356,194.726Zm12.7,1.159H968.3v-1.1h-0.032a2.415,2.415,0,0,1-.98.953,2.706,2.706,0,0,1-1.325.359,3.022,3.022,0,0,1-2.311-.77A3.319,3.319,0,0,1,962.94,193v-5h1.787v4.835a2.094,2.094,0,0,0,.407,1.464,1.506,1.506,0,0,0,1.145.427,2.287,2.287,0,0,0,.939-0.168,1.613,1.613,0,0,0,.61-0.449,1.686,1.686,0,0,0,.34-0.679,3.471,3.471,0,0,0,.1-0.854V188h1.786v7.885ZM971.983,188h1.7v1.068h0.03a2.177,2.177,0,0,1,1.052-.983,3.554,3.554,0,0,1,1.456-.3,3.978,3.978,0,0,1,1.67.327,3.306,3.306,0,0,1,1.186.9,3.941,3.941,0,0,1,.7,1.334,5.5,5.5,0,0,1,.234,1.632,5.663,5.663,0,0,1-.21,1.541,4,4,0,0,1-.643,1.319,3.2,3.2,0,0,1-1.089.915,3.333,3.333,0,0,1-1.555.343,4.537,4.537,0,0,1-.783-0.069,3.436,3.436,0,0,1-.751-0.221,2.994,2.994,0,0,1-.667-0.389,2.168,2.168,0,0,1-.509-0.556H973.77V198.8h-1.787V188Zm6.24,3.951a3.777,3.777,0,0,0-.142-1.036,2.7,2.7,0,0,0-.423-0.894,2.154,2.154,0,0,0-.705-0.626,1.96,1.96,0,0,0-.971-0.235,1.993,1.993,0,0,0-1.7.763,3.289,3.289,0,0,0-.573,2.028,3.829,3.829,0,0,0,.151,1.105,2.444,2.444,0,0,0,.446.878,2.224,2.224,0,0,0,.712.579,2.094,2.094,0,0,0,.965.213,2.017,2.017,0,0,0,1.033-.244,2.17,2.17,0,0,0,.7-0.632,2.493,2.493,0,0,0,.389-0.885A4.3,4.3,0,0,0,978.223,191.951Z" transform="translate(-782 -151.969)"/>
</svg>
