<?xml version="1.0" encoding="utf-8"?>
<!-- Generator: Adobe Illustrator 21.0.0, SVG Export Plug-In . SVG Version: 6.00 Build 0)  -->
<svg version="1.1" id="Layer_1" xmlns="http://www.w3.org/2000/svg" xmlns:xlink="http://www.w3.org/1999/xlink" x="0px" y="0px"
	 viewBox="0 0 812 152" style="enable-background:new 0 0 812 152;" xml:space="preserve">
<style type="text/css">
	.st0{fill:#00558F;}
</style>
<g>
	<path class="st0" d="M170.9,83.9l-0.3,1.1c0,0-6.8,1.1-8.5,1.7c-1.7,0.5-17.5,6-20.1,5.5s-5.1-0.6-5.5-3.4s2.9-12.5,5.9-17.8
		c0,0-8.3,7.4-13.8,15.3s-7.9,7.3-8.9,6.9s-2.9-1.8-1.5-5.1c1.4-3.3,8.7-18,10.1-19.5c0,0-11,8.6-16.8,18.2
		c-5.8,9.7-9.1,8.8-9.8,8.3c-0.8-0.5-1.8-2.3-0.6-5.3c1.2-3.1,6.6-13,8.6-16.1c2.1-3.1,5.6-8.6,4.8-9.2c-0.8-0.6-13.1,9.2-15.4,12.5
		c-2.2,3.3-1.6-2.1-1.6-2.1s13.3-14.4,18.2-13.1c0,0,2.9,0.3,2.1,2.8c-0.7,2.5-12.4,19.6-13.2,25.6c0,0,16.2-19.2,17.9-20.8
		s7.8-7.3,9.3-7.5s2.9,0,2.3,2.5c-0.6,2.5-13.8,21.5-13.2,25.2c0.6,3.7,4.6-3.8,6-5.3s12.7-16.2,15.7-18.6c3-2.4,5.9-4.7,7.1-2.7
		c1.2,2-3.4,7.7-4.5,9.3c-1.1,1.7-8,14-6.1,16.6s10.1-0.7,12.2-1.4c0.9-0.3,7.1-2.2,11.8-3.5"/>
</g>
<path class="st0" d="M199.5,83.6c-5.5,32.5-45.3,57.7-93.6,57.7c-52,0-94.3-29.3-94.3-65.4s42.2-65.4,94.3-65.5
	c48.3,0,88,25.2,93.6,57.6h-36.4c-3.9-26.9-28-47.5-57.1-47.5c-31.9,0-57.7,24.8-57.7,55.3c0,30.6,25.9,55.3,57.7,55.3
	c29.1,0,53.2-20.7,57.1-47.6L199.5,83.6z"/>
<g>
	<path class="st0" d="M267.1,42.3c-4.6-3.6-9.9-5.3-15.1-5.3c-17.7,0-32,18.1-32,41.4c0,22.7,14.2,40.5,31.3,40.5
		c5.3,0,11.2-2,15.8-5.5v-11.6c-4.5,5.2-10.1,8.1-16,8.1c-13.4,0-23.6-14.7-23.6-31.9c0-17.4,10.3-32.1,23.7-32.1
		c5.7,0,11.6,2.7,15.9,7.7L267.1,42.3L267.1,42.3z"/>
	<path class="st0" d="M334.7,77.9c0,23.4-14.1,41-31.5,41s-31.5-17.6-31.5-41c0-22.5,14.3-41,31.5-41
		C320.5,37,334.7,55.4,334.7,77.9z M327.3,77.9c0-17.3-9.9-31.8-24-31.8s-24,14.5-24,31.8c0,17.9,11,31.8,24,31.8
		C316.3,109.7,327.3,95.8,327.3,77.9z"/>
	<polygon class="st0" points="370.3,118.9 388.3,65.3 388.4,65.3 395.4,117.2 403.2,117.2 390.9,35.3 370.3,97.2 349.6,35.3
		337.4,117.2 345.1,117.2 352.1,65.3 352.3,65.3 	"/>
	<path class="st0" d="M417.4,118.3h-7.5V39.7h8.6c18.5,0,24.2,8.3,24.2,22.7c0,16.6-9.6,22.9-21,22.9h-4.3L417.4,118.3L417.4,118.3z
		 M417.4,76.6h2.4c7.6,0,15.9-1.9,15.9-14.4c0-12.3-8.9-13.8-16.3-13.8h-2V76.6z"/>
	<path class="st0" d="M448.3,39.7v49.7c0,17.3,8.2,30.5,22,30.5s22-13.2,22-30.5V39.7h-7.5v46.4c0,12.8-2.9,24.7-14.5,24.7
		s-14.5-11.9-14.5-24.7V39.7L448.3,39.7L448.3,39.7z"/>
	<polygon class="st0" points="530.9,120 548.9,66.4 549.1,66.4 556.1,118.3 563.8,118.3 551.5,36.4 530.9,98.3 510.2,36.4
		498,118.3 505.7,118.3 512.7,66.4 512.9,66.4 	"/>
	<polygon class="st0" points="570.5,118.3 602.8,118.3 602.8,109.4 578,109.4 578,79.7 602.1,79.7 602.1,70.7 578,70.7 578,48.7
		602.8,48.7 602.8,39.7 570.5,39.7 	"/>
	<path class="st0" d="M611.4,39.7h12.5c18.4,0,33.7,12.7,33.7,38.9c0,26.8-15,39.7-34,39.7h-12.2V39.7z M618.9,109.4h2.6
		c15.3,0,28.5-7.5,28.5-30.3c0-22.9-13.3-30.3-28.5-30.3h-2.6V109.4z"/>
	<rect x="664.8" y="39.7" class="st0" width="7.5" height="78.6"/>
	<path class="st0" d="M727.3,43.4c-4.5-3.7-9.9-5.3-15.1-5.3c-17.7,0-32,18.1-32,41.4c0,22.7,14.2,40.5,31.3,40.5
		c5.3,0,11.1-2,15.8-5.5v-11.6c-4.5,5.2-10.1,8.1-16,8.1c-13.4,0-23.6-14.7-23.6-31.9c0-17.4,10.3-32.1,23.7-32.1
		c5.7,0,11.6,2.7,15.9,7.7L727.3,43.4L727.3,43.4z"/>
	<path class="st0" d="M768.9,50c-3.3-7.6-8.8-11.9-15.5-11.9c-9.1,0-17.7,7.6-17.7,20.3c0,10.9,6.2,16.1,13,19.9l4.2,2.3
		c5.2,2.8,10.4,6.5,10.4,14.9c0,8.2-4.6,15.3-11.1,15.3s-11.7-6.3-11.7-14.9L733,98c1.3,12.6,8.8,22,18.5,22
		c10.8,0,19.2-10.2,19.2-24.5c0-13.1-6.4-19.3-14.9-23.7l-4.3-2.2c-3.7-1.9-8.4-5.1-8.4-11.2c0-6.9,5.2-11.1,10-11.1
		c4.5,0,7.4,2.5,9.6,7.4L768.9,50z"/>
</g>
<g>
	<path class="st0" d="M198.9,24.5c4.8,0,8.7,3.9,8.7,8.8c0,5-3.9,8.9-8.7,8.9s-8.8-3.9-8.8-8.9C190.1,28.5,194,24.5,198.9,24.5
		L198.9,24.5z M198.9,25.9c-3.9,0-7.1,3.3-7.1,7.5s3.2,7.5,7.1,7.5c3.9,0,7.1-3.3,7.1-7.5C206,29.3,202.8,25.9,198.9,25.9
		L198.9,25.9z M197.2,38.5h-1.6v-9.9c0.8-0.1,1.6-0.2,2.8-0.2c1.5,0,2.5,0.3,3.1,0.7s0.9,1.1,0.9,2c0,1.3-0.9,2.1-1.9,2.4v0.1
		c0.9,0.2,1.5,0.9,1.7,2.4s0.5,2.1,0.6,2.4h-1.6c-0.2-0.3-0.5-1.2-0.7-2.5s-0.9-1.7-2.1-1.7h-1.1L197.2,38.5L197.2,38.5z
		 M197.2,33.1h1.1c1.3,0,2.4-0.5,2.4-1.7c0-0.9-0.6-1.7-2.4-1.7c-0.5,0-0.9,0-1.1,0.1V33.1z"/>
</g>
<g>
	<path class="st0" d="M775.9,27.4c4.8,0,8.7,3.9,8.7,8.8c0,5-3.8,8.9-8.7,8.9c-4.8,0-8.8-3.9-8.8-8.9
		C767.1,31.3,771,27.4,775.9,27.4L775.9,27.4z M775.9,28.7c-3.9,0-7.1,3.3-7.1,7.5s3.2,7.5,7.1,7.5c3.9,0,7.1-3.3,7.1-7.5
		C783,32.1,779.8,28.7,775.9,28.7L775.9,28.7z M774.2,41.4h-1.6v-9.9c0.8-0.1,1.6-0.2,2.8-0.2c1.5,0,2.5,0.3,3.1,0.7s0.9,1.1,0.9,2
		c0,1.3-0.9,2.1-1.9,2.4v0.1c0.9,0.2,1.5,0.9,1.7,2.4s0.5,2.1,0.6,2.4h-1.7c-0.2-0.3-0.5-1.2-0.7-2.5s-0.9-1.7-2.1-1.7h-1.1V41.4z
		 M774.2,35.9h1.1c1.3,0,2.4-0.5,2.4-1.7c0-0.9-0.6-1.7-2.4-1.7c-0.5,0-0.9,0-1.1,0.1V35.9z"/>
</g>
</svg>
