<svg width="221" height="39" viewBox="0 0 221 39" xmlns="http://www.w3.org/2000/svg" xmlns:xlink="http://www.w3.org/1999/xlink"><title>Logo</title><desc>Created using Figma</desc><use xlink:href="#a" fill="#FF5621"/><defs><path id="a" fill-rule="evenodd" d="M218.096 18.271c0 3.812-1.223 7.354-3.312 10.286l3.133 3.008a3.305 3.305 0 0 1 0 4.81 3.613 3.613 0 0 1-2.507.996 3.611 3.611 0 0 1-2.507-.996l-3.132-3.009a19.501 19.501 0 0 1-10.721 3.177c-10.503 0-19.047-8.197-19.047-18.272S188.547 0 199.05 0c10.502 0 19.046 8.196 19.046 18.271zm-31.131 0c0 6.393 5.421 11.594 12.085 11.594 2.046 0 3.975-.49 5.667-1.356l-4.88-4.688a3.304 3.304 0 0 1 0-4.811c1.384-1.328 3.629-1.328 5.013 0l4.878 4.688a11.165 11.165 0 0 0 1.408-5.427c0-6.393-5.422-11.593-12.086-11.593-6.664 0-12.085 5.2-12.085 11.593zM167.263 32.49c0 1.877 1.587 3.4 3.545 3.4s3.545-1.523 3.545-3.4V4.049c0-1.879-1.587-3.402-3.545-3.402s-3.545 1.523-3.545 3.402v28.44zM104.646 8.116H93.387c-1.957 0-3.545-1.523-3.545-3.4 0-1.88 1.588-3.402 3.545-3.402h11.259c1.958 0 3.545 1.523 3.545 3.401s-1.587 3.401-3.545 3.401zM3.545 35.89C1.587 35.89 0 34.367 0 32.49V4.715c0-1.879 1.587-3.4 3.545-3.4s3.545 1.521 3.545 3.4v27.774c0 1.878-1.587 3.401-3.545 3.401zm10.583-16.026V4.715c0-1.879 1.588-3.4 3.545-3.4 1.958 0 3.546 1.521 3.546 3.4v15.15c0 1.878-1.588 3.4-3.546 3.4-1.957 0-3.545-1.522-3.545-3.4zm14.13 12.625c0 1.878 1.586 3.401 3.544 3.401 1.959 0 3.545-1.523 3.545-3.4V4.715c0-1.879-1.586-3.4-3.545-3.4-1.958 0-3.545 1.521-3.545 3.4v27.774zm54.559 3.401c-1.958 0-3.545-1.523-3.545-3.4V4.715c0-1.879 1.587-3.4 3.545-3.4s3.545 1.521 3.545 3.4v27.774c0 1.878-1.587 3.401-3.545 3.401zm10.57-13.887h8.347c1.959 0 3.545-1.523 3.545-3.4 0-1.88-1.586-3.402-3.545-3.402h-8.346c-1.959 0-3.546 1.523-3.546 3.401s1.587 3.401 3.546 3.401zm25.341 13.887c-1.959 0-3.546-1.523-3.546-3.4V4.049c0-1.879 1.587-3.402 3.546-3.402 1.958 0 3.544 1.523 3.544 3.402v28.44c0 1.878-1.586 3.401-3.544 3.401zm22.547-7.465h15.398c1.958 0 3.544 1.523 3.544 3.401 0 1.879-1.586 3.401-3.544 3.401h-23.068c-.76 0-1.526-.232-2.173-.714a3.347 3.347 0 0 1-1.371-2.687 3.295 3.295 0 0 1 .744-2.085l15.197-17.123c1.2-1.484 3.428-1.753 4.975-.602 1.546 1.152 1.826 3.288.626 4.772l-10.328 11.637zM72.53 1.915c-1.49-1.218-3.727-1.044-4.995.387L54.704 16.62a3.34 3.34 0 0 0-.463.676 3.274 3.274 0 0 0-.497 1.73v13.466c0 1.877 1.586 3.4 3.545 3.4 1.958 0 3.545-1.523 3.545-3.4v-12.28L72.936 6.708c1.268-1.431 1.086-3.578-.406-4.794zm-25.365.388l6.059 6.86c1.269 1.432 1.087 3.578-.406 4.794-1.491 1.217-3.729 1.043-4.996-.389l-6.06-6.86c-1.267-1.431-1.086-3.578.406-4.794 1.492-1.216 3.73-1.042 4.997.39zm82.867 2.412c0-1.878 1.587-3.4 3.545-3.4h20.611c1.958 0 3.545 1.522 3.545 3.4 0 1.879-1.587 3.4-3.545 3.4h-20.611c-1.958 0-3.545-1.521-3.545-3.4z"/></defs></svg>