<svg xmlns="http://www.w3.org/2000/svg" viewBox="0 0 166.3 39"><title>Asset 1</title><g id="Layer_2" data-name="Layer 2"><g id="Layer_1-2" data-name="Layer 1"><path d="M27.9,28.4h3.2l1.1.4a2.5,2.5,0,0,1,.8.9,2.7,2.7,0,0,1,.3,1.4,2.4,2.4,0,0,1-.2.9l-.4.7-.6.6-.6.4h-.2l2.7,3.9H32.6l-2.9-4.3h.1l.7-.2.7-.4.5-.6a1.6,1.6,0,0,0,.2-.9,1.7,1.7,0,0,0-.5-1.4,2.2,2.2,0,0,0-1.5-.4h-.8v8.2H27.9Z" style="fill:#2c607c"/><path d="M35.4,28.4h5a4,4,0,0,1,0,.6v.6H36.7v2.6h3v1.1h-3v3.1h3.8a4.2,4.2,0,0,1,0,.6v.6H35.4Z" style="fill:#2c607c"/><path d="M42.1,36.2l.9.3h1.1a2.4,2.4,0,0,0,1.6-.4,1.4,1.4,0,0,0,.5-1.2,1.6,1.6,0,0,0-.1-.6l-.3-.4-.5-.3-.8-.3-.7-.3-.7-.3-.5-.5-.3-.6a2.5,2.5,0,0,1-.1-.8,2.2,2.2,0,0,1,.8-1.8,3.3,3.3,0,0,1,2.2-.7h1.2l1,.3a4,4,0,0,1-.3,1.1l-.8-.2H45a2,2,0,0,0-1.2.3,1.1,1.1,0,0,0-.4,1,1,1,0,0,0,.1.5l.3.4.4.3.5.2.7.3.9.4.7.5a2,2,0,0,1,.4.7,2.9,2.9,0,0,1,.1,1,2.6,2.6,0,0,1-.9,2.1,3.8,3.8,0,0,1-2.5.8H42.3l-.5-.2a2.9,2.9,0,0,1,.1-.6l.2-.6" style="fill:#2c607c"/><path d="M52.7,37.8a3.9,3.9,0,0,1-1.7-.4,3.3,3.3,0,0,1-1.2-1,4.3,4.3,0,0,1-.7-1.5,7.8,7.8,0,0,1,0-3.8,4.3,4.3,0,0,1,.7-1.5,3.3,3.3,0,0,1,1.2-1,4.3,4.3,0,0,1,3.4,0,3.3,3.3,0,0,1,1.2,1,4.3,4.3,0,0,1,.7,1.5,8,8,0,0,1,0,3.8,4.3,4.3,0,0,1-.7,1.5,3.2,3.2,0,0,1-1.2,1,3.9,3.9,0,0,1-1.7.4m0-1.1,1.1-.2a2.1,2.1,0,0,0,.8-.7,3.6,3.6,0,0,0,.5-1.1,7.5,7.5,0,0,0,0-3,3.5,3.5,0,0,0-.5-1.1,2.1,2.1,0,0,0-.8-.7l-1.1-.3-1.1.3a2.1,2.1,0,0,0-.8.7,3.4,3.4,0,0,0-.5,1.1,7.4,7.4,0,0,0,0,3,3.5,3.5,0,0,0,.5,1.1,2.1,2.1,0,0,0,.8.7l1.1.2" style="fill:#2c607c"/><path d="M58.2,28.4h1.3v5.2a7.9,7.9,0,0,0,.1,1.4,2.5,2.5,0,0,0,.3.9,1.4,1.4,0,0,0,.6.5l.9.2.9-.2a1.4,1.4,0,0,0,.6-.5,2.5,2.5,0,0,0,.3-.9,7.6,7.6,0,0,0,.1-1.4V28.4h1.3v5.4a7.2,7.2,0,0,1-.2,1.6,3.2,3.2,0,0,1-.6,1.2,2.5,2.5,0,0,1-1,.8,4.5,4.5,0,0,1-3,0,2.4,2.4,0,0,1-1-.8,3.1,3.1,0,0,1-.6-1.2,7.2,7.2,0,0,1-.2-1.6Z" style="fill:#2c607c"/><path d="M66.8,28.4H70l1.1.4a2.5,2.5,0,0,1,.8.9,2.7,2.7,0,0,1,.3,1.4,2.4,2.4,0,0,1-.2.9l-.4.7-.6.6-.6.4h-.2L73,37.6H71.5l-2.9-4.3h.1l.7-.2.7-.4.5-.6a1.6,1.6,0,0,0,.2-.9,1.7,1.7,0,0,0-.5-1.4,2.2,2.2,0,0,0-1.5-.4h-.8v8.2H66.8Z" style="fill:#2c607c"/><path d="M79.9,36.3a3.5,3.5,0,0,1,.4,1.1l-1.1.3H77.9a4.7,4.7,0,0,1-1.8-.3,3.6,3.6,0,0,1-1.3-.9A4.1,4.1,0,0,1,74,35a6.1,6.1,0,0,1-.3-2,6.3,6.3,0,0,1,.3-2,4.3,4.3,0,0,1,.8-1.5,3.7,3.7,0,0,1,1.3-1,4.4,4.4,0,0,1,1.8-.3h1.2l.9.2a2.3,2.3,0,0,1-.1.5l-.2.5H78a2.6,2.6,0,0,0-2.2.9,4.2,4.2,0,0,0-.8,2.7,5.1,5.1,0,0,0,.2,1.6,3,3,0,0,0,.6,1.1,2.5,2.5,0,0,0,.9.7l1.2.2h1l.8-.3" style="fill:#2c607c"/><path d="M81.7,28.4h5a3.8,3.8,0,0,1,0,.6v.6H83v2.6h3v1.1H83v3.1h3.8a4,4,0,0,1,0,.6v.6H81.7Z" style="fill:#2c607c"/><path d="M88.4,36.2l.9.3h1.1a2.4,2.4,0,0,0,1.6-.4,1.4,1.4,0,0,0,.5-1.2,1.6,1.6,0,0,0-.1-.6L92,34l-.5-.3-.8-.3L90,33l-.7-.3-.5-.5-.3-.6a2.5,2.5,0,0,1-.1-.8,2.2,2.2,0,0,1,.8-1.8,3.3,3.3,0,0,1,2.2-.7h1.2l1,.3a4.1,4.1,0,0,1-.3,1.1l-.8-.2h-1a2,2,0,0,0-1.2.3,1.1,1.1,0,0,0-.4,1,1,1,0,0,0,.1.5l.3.4.4.3.5.2.7.3.9.4.7.5a2,2,0,0,1,.4.7,2.8,2.8,0,0,1,.1,1,2.6,2.6,0,0,1-.9,2.1,3.8,3.8,0,0,1-2.5.8H88.6l-.5-.2a2.9,2.9,0,0,1,.1-.6l.2-.6" style="fill:#2c607c"/><path d="M98.4,28.4h1.3v8h3.6v.6a4.4,4.4,0,0,1,0,.6H98.4Z" style="fill:#2c607c"/><polygon points="104.6 28.4 104.9 28.4 105.3 28.4 105.6 28.4 105.9 28.4 105.9 37.6 105.6 37.7 105.3 37.7 104.9 37.7 104.6 37.6 104.6 28.4" style="fill:#2c607c"/><path d="M108.3,28.4h1.5l2.4,5.8,2.4-5.8h1.4l.4,9.2h-1.3l-.3-7.1-2.2,5.2h-1l-2.2-5.3-.3,7.2h-1.2Z" style="fill:#2c607c"/><polygon points="118.3 28.4 118.6 28.4 118.9 28.4 119.3 28.4 119.6 28.4 119.6 37.6 119.3 37.7 118.9 37.7 118.6 37.7 118.3 37.6 118.3 28.4" style="fill:#2c607c"/><path d="M123.4,29.6H121V28.4h6v1.1h-2.4v8.1h-1.3Z" style="fill:#2c607c"/><path d="M128.4,28.4h5a4,4,0,0,1,0,.6v.6h-3.7v2.6h3v1.1h-3v3.1h3.8a3.8,3.8,0,0,1,0,.6v.6h-5.1Z" style="fill:#2c607c"/><path d="M135,28.4h2.2a4.8,4.8,0,0,1,3.6,1.2,4.9,4.9,0,0,1,1.2,3.5,4.7,4.7,0,0,1-1.2,3.6,5,5,0,0,1-3.6,1.2H135Zm1.3,8.1h1l1.4-.2a2.6,2.6,0,0,0,1.1-.6,2.6,2.6,0,0,0,.7-1.1,5.4,5.4,0,0,0,.2-1.7,4.9,4.9,0,0,0-.2-1.6,2.9,2.9,0,0,0-.7-1.1,2.6,2.6,0,0,0-1-.6l-1.3-.2h-1Z" style="fill:#2c607c"/><path d="M27.9,1.3,30,1h2.8a15.2,15.2,0,0,1,3.2.3,7,7,0,0,1,2.5,1A4.7,4.7,0,0,1,40,4a5.7,5.7,0,0,1,.6,2.7,5.3,5.3,0,0,1-.3,1.8,5.2,5.2,0,0,1-.8,1.4,4.5,4.5,0,0,1-1.1,1l-1.3.6,1.7.5a5.1,5.1,0,0,1,1.6,1,5.2,5.2,0,0,1,1.1,1.7,6.3,6.3,0,0,1,.4,2.5,6.1,6.1,0,0,1-.7,3,5.7,5.7,0,0,1-1.9,2,8.4,8.4,0,0,1-2.8,1.1,17.3,17.3,0,0,1-3.5.3H30.5l-2.6-.3Zm5.3,9.2a4.9,4.9,0,0,0,3.2-.9,3.3,3.3,0,0,0,1.1-2.7,3,3,0,0,0-1.2-2.6,5.3,5.3,0,0,0-3.2-.9H31v7ZM31,21h2.4l2.1-.2a5.1,5.1,0,0,0,1.7-.6,3.3,3.3,0,0,0,1.2-1.2,3.9,3.9,0,0,0,.4-1.9,4.2,4.2,0,0,0-.4-1.9A3.3,3.3,0,0,0,37.2,14a4.5,4.5,0,0,0-1.6-.7l-2-.2H31Z" style="fill:#2c607c"/><path d="M56.5,18.3H48.2l-1.5,5.1H43.5L50.7,1.3h3.6l7.1,22.1H58.1ZM49,15.6h6.7L52.3,4.3Z" style="fill:#2c607c"/><path d="M66,4H60.3a5.8,5.8,0,0,1-.1-.7c0-.2,0-.5,0-.7s0-.5,0-.7V1.3H74.8v.6c0,.2,0,.5,0,.7s0,.5,0,.7a6,6,0,0,1-.1.7H69.1V23.4H66Z" style="fill:#2c607c"/><path d="M77.9,1.3H81v9.1h9.4V1.3h3.1V23.4H90.4V13.2H81V23.4H77.9Z" style="fill:#2c607c"/><path d="M98.2,1.3h3.1V13.8a18.6,18.6,0,0,0,.2,3.3,6,6,0,0,0,.8,2.2,3.3,3.3,0,0,0,1.5,1.2,5.5,5.5,0,0,0,2.2.4,5.4,5.4,0,0,0,2.2-.4,3.3,3.3,0,0,0,1.4-1.2,6,6,0,0,0,.8-2.2,18.8,18.8,0,0,0,.2-3.3V1.3h3.2V14.4a17.4,17.4,0,0,1-.4,4,7.6,7.6,0,0,1-1.3,3,5.9,5.9,0,0,1-2.4,1.8,10.8,10.8,0,0,1-7.3,0,5.9,5.9,0,0,1-2.4-1.8,7.6,7.6,0,0,1-1.3-3,17.4,17.4,0,0,1-.4-4Z" style="fill:#2c607c"/><path d="M118.6,1.3h4.7a15.6,15.6,0,0,1,3.1.3,7.8,7.8,0,0,1,2.7,1.1A6,6,0,0,1,131,4.4a6.6,6.6,0,0,1,.7,3.3,5.8,5.8,0,0,1-.4,2.2,7.1,7.1,0,0,1-1,1.8A7.2,7.2,0,0,1,129,13l-1.5.9-.4.2,6.4,9.3H130l-7-10.2h.2l1.7-.6a7.1,7.1,0,0,0,1.7-1,5.3,5.3,0,0,0,1.3-1.4,3.8,3.8,0,0,0,.5-2,4,4,0,0,0-1.3-3.3,5.3,5.3,0,0,0-3.5-1.1h-2V23.4h-3.1Z" style="fill:#2c607c"/><path d="M136.5,20.1l2.1.6a11.3,11.3,0,0,0,2.7.3,5.8,5.8,0,0,0,3.7-1,3.4,3.4,0,0,0,1.2-2.8,3.8,3.8,0,0,0-.3-1.5,2.9,2.9,0,0,0-.8-1.1l-1.3-.8-1.8-.8-1.7-.7-1.6-.8a5.1,5.1,0,0,1-1.3-1.1,5,5,0,0,1-.8-1.5,6,6,0,0,1-.3-2,5.4,5.4,0,0,1,1.9-4.4A8.1,8.1,0,0,1,143.6.9l2.8.2,2.3.6a9.6,9.6,0,0,1-.7,2.6l-1.9-.6-2.5-.2a4.9,4.9,0,0,0-3,.8,2.8,2.8,0,0,0-1,2.4,2.5,2.5,0,0,0,.3,1.2,3.1,3.1,0,0,0,.7.9l1,.7,1.2.6,1.7.7,2.2,1a6.8,6.8,0,0,1,1.6,1.3,4.9,4.9,0,0,1,1,1.7,6.9,6.9,0,0,1,.3,2.3,6.2,6.2,0,0,1-2.2,5,9.2,9.2,0,0,1-6.1,1.8h-1.7l-1.4-.2-1.3-.3-1.3-.4a7,7,0,0,1,.3-1.4l.5-1.4" style="fill:#2c607c"/><path d="M29.8,28.3h-2v9.2h1.3V29.4H30a2.2,2.2,0,0,1,1.5.4,1.7,1.7,0,0,1,.5,1.4,1.6,1.6,0,0,1-.2.9l-.5.6-.7.4-.7.2h-.1l2.9,4.3h1.5l-2.7-3.9h.2l.6-.4.6-.6.4-.7a2.4,2.4,0,0,0,.2-.9,2.7,2.7,0,0,0-.3-1.4,2.5,2.5,0,0,0-.8-.9l-1.1-.4H29.8" style="fill:#2c607c"/><path d="M40.4,28.4h-5v9.2h5.1v-.6a4,4,0,0,0,0-.6H36.7V33.3h3V32.2h-3V29.6h3.7V29a4,4,0,0,0,0-.6" style="fill:#2c607c"/><path d="M45,28.3a3.4,3.4,0,0,0-2.2.7,2.2,2.2,0,0,0-.8,1.8,2.5,2.5,0,0,0,.1.8l.3.6.5.5.7.3.7.3.8.3.5.3.3.4a1.6,1.6,0,0,1,.1.6,1.4,1.4,0,0,1-.5,1.2,2.4,2.4,0,0,1-1.6.4H42.9l-.9-.3-.2.6a2.9,2.9,0,0,0-.1.6l.5.2h1.8a3.8,3.8,0,0,0,2.5-.8,2.6,2.6,0,0,0,.9-2.1,2.9,2.9,0,0,0-.1-1,2,2,0,0,0-.4-.7l-.7-.5-.9-.4-.7-.3-.5-.2-.4-.3-.3-.4a1,1,0,0,1-.1-.5,1.1,1.1,0,0,1,.4-1,2,2,0,0,1,1.2-.3h1l.8.2a4.1,4.1,0,0,0,.3-1.1l-1-.3H45" style="fill:#2c607c"/><path d="M52.7,28.3a3.8,3.8,0,0,0-1.7.4,3.3,3.3,0,0,0-1.2,1,4.3,4.3,0,0,0-.7,1.5,7.8,7.8,0,0,0,0,3.8,4.3,4.3,0,0,0,.7,1.5,3.3,3.3,0,0,0,1.2,1,4.4,4.4,0,0,0,3.4,0,3.2,3.2,0,0,0,1.2-1,4.3,4.3,0,0,0,.7-1.5,8.1,8.1,0,0,0,0-3.8,4.2,4.2,0,0,0-.7-1.5,3.3,3.3,0,0,0-1.2-1,3.8,3.8,0,0,0-1.7-.4M50.2,33h0a6.8,6.8,0,0,1,.2-1.5,3.5,3.5,0,0,1,.5-1.1,2.1,2.1,0,0,1,.8-.7l1.1-.2,1.1.2a2.1,2.1,0,0,1,.8.7,3.4,3.4,0,0,1,.5,1.1,7.5,7.5,0,0,1,0,3,3.5,3.5,0,0,1-.5,1.1,2.1,2.1,0,0,1-.8.7l-1.1.2-1.1-.2a2.1,2.1,0,0,1-.8-.7,3.6,3.6,0,0,1-.5-1.1,6.7,6.7,0,0,1-.2-1.5" style="fill:#2c607c"/><path d="M64,28.4h-.6v5.2a7.6,7.6,0,0,1-.1,1.4,2.5,2.5,0,0,1-.3.9,1.4,1.4,0,0,1-.6.5l-.9.2-.9-.2a1.4,1.4,0,0,1-.6-.5,2.5,2.5,0,0,1-.3-.9,7.8,7.8,0,0,1-.1-1.4V28.4H58.2v5.4a7.2,7.2,0,0,0,.2,1.6,3.1,3.1,0,0,0,.6,1.2,2.5,2.5,0,0,0,1,.8,4.5,4.5,0,0,0,3,0,2.5,2.5,0,0,0,1-.8,3.2,3.2,0,0,0,.6-1.2,7.2,7.2,0,0,0,.2-1.6V28.4H64" style="fill:#2c607c"/><path d="M68.7,28.3h-2v9.2h1.3V29.4h.8a2.2,2.2,0,0,1,1.5.4,1.7,1.7,0,0,1,.5,1.4,1.6,1.6,0,0,1-.2.9l-.5.6-.7.4-.7.2h-.1l2.9,4.3H73l-2.7-3.9h.2l.6-.4.6-.6.4-.7a2.4,2.4,0,0,0,.2-.9,2.7,2.7,0,0,0-.3-1.4,2.5,2.5,0,0,0-.8-.9L70,28.4H68.7" style="fill:#2c607c"/><path d="M77.9,28.3a4.4,4.4,0,0,0-1.8.3,3.7,3.7,0,0,0-1.3,1,4.3,4.3,0,0,0-.8,1.5,6.4,6.4,0,0,0-.3,2,6.1,6.1,0,0,0,.3,2,4.1,4.1,0,0,0,.8,1.5,3.6,3.6,0,0,0,1.3.9,4.7,4.7,0,0,0,1.8.3h1.2l1.1-.3a3.5,3.5,0,0,0-.4-1.1l-.8.3h-1l-1.2-.2a2.5,2.5,0,0,1-.9-.7,3,3,0,0,1-.6-1.1,5.1,5.1,0,0,1-.2-1.6,4.2,4.2,0,0,1,.8-2.7,2.6,2.6,0,0,1,2.2-.9h1.8l.2-.5a2.4,2.4,0,0,0,.1-.5l-.9-.2H77.9" style="fill:#2c607c"/><path d="M86.7,28.4h-5v9.2h5.1v-.6a3.9,3.9,0,0,0,0-.6H83V33.3h3V32.2H83V29.6h3.7V29a3.9,3.9,0,0,0,0-.6" style="fill:#2c607c"/><path d="M91.3,28.3a3.4,3.4,0,0,0-2.2.7,2.2,2.2,0,0,0-.8,1.8,2.5,2.5,0,0,0,.1.8l.3.6.5.5.7.3.7.3.8.3.5.3.3.4a1.6,1.6,0,0,1,.1.6,1.4,1.4,0,0,1-.5,1.2,2.4,2.4,0,0,1-1.6.4H89.2l-.9-.3-.2.6a2.9,2.9,0,0,0-.1.6l.5.2h1.8a3.8,3.8,0,0,0,2.5-.8,2.6,2.6,0,0,0,.9-2.1,2.9,2.9,0,0,0-.1-1,2,2,0,0,0-.4-.7l-.7-.5-.9-.4L91,32l-.5-.2-.4-.3-.3-.4a1,1,0,0,1-.1-.5,1.1,1.1,0,0,1,.4-1,2,2,0,0,1,1.2-.3h1l.8.2a4.1,4.1,0,0,0,.3-1.1l-1-.3H91.3" style="fill:#2c607c"/><path d="M99,28.4h-.6v9.2h4.9a4.4,4.4,0,0,0,0-.6v-.6H99.7v-8H99Z" style="fill:#2c607c"/><polygon points="105.3 28.4 104.9 28.4 104.6 28.4 104.6 37.6 104.9 37.7 105.3 37.7 105.6 37.7 105.9 37.6 105.9 28.4 105.6 28.4 105.3 28.4" style="fill:#2c607c"/><path d="M115.2,28.4h-.7l-2.4,5.8-2.4-5.8h-1.5l-.4,9.2h1.2l.3-7.2,2.2,5.3h1l2.2-5.2.3,7.1h1.3l-.4-9.2h-.7" style="fill:#2c607c"/><polygon points="118.9 28.4 118.6 28.4 118.3 28.4 118.3 37.6 118.6 37.7 118.9 37.7 119.3 37.7 119.6 37.6 119.6 28.4 119.3 28.4 118.9 28.4" style="fill:#2c607c"/><path d="M127,28.4h-6v1.1h2.4v8.1h1.3V29.6H127V28.4Z" style="fill:#2c607c"/><path d="M133.4,28.4h-5v9.2h5.1v-.6a3.8,3.8,0,0,0,0-.6h-3.8V33.3h3V32.2h-3V29.6h3.7V29a4,4,0,0,0,0-.6" style="fill:#2c607c"/><path d="M137.3,28.3H135v9.2h2.2a5,5,0,0,0,3.6-1.2,4.7,4.7,0,0,0,1.2-3.6,4.9,4.9,0,0,0-1.2-3.5,4.8,4.8,0,0,0-3.6-1.2m-.9,1.2h1l1.3.2a2.5,2.5,0,0,1,1,.6,2.9,2.9,0,0,1,.7,1.1,4.9,4.9,0,0,1,.2,1.6,5.4,5.4,0,0,1-.2,1.7,2.6,2.6,0,0,1-.7,1.1,2.6,2.6,0,0,1-1.1.6l-1.4.2h-1Z" style="fill:#2c607c"/><path d="M32.8,1H30l-2.1.2V23.4l2.6.3H33a17.3,17.3,0,0,0,3.5-.3,8.4,8.4,0,0,0,2.8-1.1,5.7,5.7,0,0,0,1.9-2,6.1,6.1,0,0,0,.7-3,6.3,6.3,0,0,0-.4-2.5,5.2,5.2,0,0,0-1.1-1.7,5.1,5.1,0,0,0-1.6-1l-1.7-.5,1.3-.6a4.5,4.5,0,0,0,1.1-1,5.2,5.2,0,0,0,.8-1.4,5.3,5.3,0,0,0,.3-1.8A5.7,5.7,0,0,0,40,4.1a4.7,4.7,0,0,0-1.6-1.8,7,7,0,0,0-2.5-1A15.3,15.3,0,0,0,32.8,1M31,3.5h2.1a5.3,5.3,0,0,1,3.2.9,3,3,0,0,1,1.2,2.6,3.3,3.3,0,0,1-1.1,2.7,4.9,4.9,0,0,1-3.2.9H31Zm0,9.6h2.6l2,.2a4.5,4.5,0,0,1,1.6.7,3.3,3.3,0,0,1,1.1,1.3,4.2,4.2,0,0,1,.4,1.9,3.9,3.9,0,0,1-.4,1.9,3.3,3.3,0,0,1-1.2,1.2,5.1,5.1,0,0,1-1.7.6l-2.1.2H31Z" style="fill:#2c607c"/><path d="M52.5,1.2H50.7L43.5,23.4h3.2l1.5-5.1h8.4l1.5,5.1h3.3L54.2,1.3H52.5M49,15.6,52.3,4.3l3.4,11.3Z" style="fill:#2c607c"/><path d="M74.8,1.3H60.3a5.5,5.5,0,0,0-.1.7c0,.2,0,.5,0,.7s0,.5,0,.7a5.6,5.6,0,0,0,.1.7H66V23.4h3.1V4h5.7a5.5,5.5,0,0,0,.1-.7c0-.3,0-.5,0-.7s0-.5,0-.7V1.3" style="fill:#2c607c"/><path d="M91.9,1.2H90.4v9.1H81V1.3H77.9V23.4H81V13.2h9.4V23.4h3.1V1.3H91.9" style="fill:#2c607c"/><path d="M112.2,1.2h-1.6V13.8a18.8,18.8,0,0,1-.2,3.3,6,6,0,0,1-.8,2.2,3.3,3.3,0,0,1-1.4,1.2,5.3,5.3,0,0,1-2.2.4,5.5,5.5,0,0,1-2.2-.4,3.3,3.3,0,0,1-1.5-1.2,6,6,0,0,1-.8-2.2,18.6,18.6,0,0,1-.2-3.3V1.3H98.2V14.4a17.3,17.3,0,0,0,.4,4,7.6,7.6,0,0,0,1.3,3,5.9,5.9,0,0,0,2.4,1.8,10.8,10.8,0,0,0,7.3,0,5.9,5.9,0,0,0,2.4-1.8,7.6,7.6,0,0,0,1.3-3,17.4,17.4,0,0,0,.4-4V1.3h-1.6" style="fill:#2c607c"/><path d="M123.3.9h-4.7V23.4h3.1V3.7h2a5.3,5.3,0,0,1,3.5,1.1,4,4,0,0,1,1.3,3.3,3.8,3.8,0,0,1-.5,2,5.3,5.3,0,0,1-1.3,1.4,7.1,7.1,0,0,1-1.7,1l-1.7.6h-.2l7,10.2h3.5l-6.4-9.3.4-.2L129,13a7.2,7.2,0,0,0,1.4-1.3,7,7,0,0,0,1-1.8,5.8,5.8,0,0,0,.4-2.2,6.6,6.6,0,0,0-.8-3.3,5.9,5.9,0,0,0-1.9-2.1,7.8,7.8,0,0,0-2.7-1.1,15.6,15.6,0,0,0-3.1-.3" style="fill:#2c607c"/><path d="M143.6.9a8.1,8.1,0,0,0-5.3,1.6,5.4,5.4,0,0,0-1.9,4.4,6,6,0,0,0,.3,2,5,5,0,0,0,.8,1.5,5.1,5.1,0,0,0,1.3,1.1l1.6.8,1.7.7,1.8.8,1.3.8a2.9,2.9,0,0,1,.8,1.1,3.8,3.8,0,0,1,.3,1.5,3.4,3.4,0,0,1-1.2,2.8,5.8,5.8,0,0,1-3.7,1,11.3,11.3,0,0,1-2.7-.3l-2.1-.6-.5,1.4a7,7,0,0,0-.3,1.4l1.3.4,1.3.3,1.4.2h1.7a9.2,9.2,0,0,0,6.1-1.8,6.2,6.2,0,0,0,2.2-5,6.8,6.8,0,0,0-.4-2.3,4.9,4.9,0,0,0-1-1.7,6.8,6.8,0,0,0-1.6-1.3l-2.2-1-1.7-.7-1.2-.6-1-.7a3.1,3.1,0,0,1-.7-.9,2.5,2.5,0,0,1-.3-1.2,2.8,2.8,0,0,1,1-2.4,4.9,4.9,0,0,1,3-.8l2.5.2,1.9.6a9.6,9.6,0,0,0,.7-2.6l-2.3-.6L143.6.9" style="fill:#2c607c"/><path d="M166.2,1.3H151.6V2c0,.2,0,.5,0,.7s0,.5,0,.7a5.6,5.6,0,0,0,.1.7h5.7V23.4h3.1V4h5.7a5.8,5.8,0,0,0,.1-.7c0-.3,0-.5,0-.7s0-.5,0-.7V1.3" style="fill:#2c607c"/><path d="M16.7,19.5A13,13,0,0,1,0,25.1V37.9A12.9,12.9,0,0,0,5.3,39,13.1,13.1,0,0,0,16.7,19.5" style="fill:#cdcac3"/><path d="M5.3,0A12.9,12.9,0,0,0,0,1.1V13.9a13,13,0,0,1,16.7,5.6A13.1,13.1,0,0,0,5.3,0" style="fill:#cdcac3"/></g></g></svg>