<svg id="Layer_1" xmlns="http://www.w3.org/2000/svg" width="98" height="30" viewBox="0 0 98 30"><g fill="#002E6D"><path d="M6.2 10.6h8.1L8.1 29.5H0l6.2-18.9zM16.4 10.6h8.1v3.8c1.3-2.6 3.4-4.3 7.3-4.1v7H31c-4.2 0-6.6 2-6.6 6.4v5.9h-8.1v-19zM32.9 20.2c0-5.6 4.8-10 11.6-10 7.9 0 11.6 4.8 11.6 10.3v1.4H40.7c.6 2.1 2.5 3.1 5 3.1 1.9 0 3.4-.6 5.1-1.9l4.5 3c-2.2 2.3-5.4 3.8-10 3.8-7.3.1-12.4-3.9-12.4-9.7zm15.6-1.7c-.3-2.1-1.8-3.4-4-3.4-2.1 0-3.6 1.4-4 3.4h8zM56.8 27.2l3-4c2.6 1.4 5.5 2.2 7.9 2.2 1.4 0 2-.4 2-1v-.1c0-.7-1.3-1.1-3.7-1.6-4.5-1-8.2-2.2-8.2-6v-.1c0-4 3.9-6.3 9.2-6.3 3.4 0 6.8.8 9.5 2.2l-2.8 4.2c-2.4-1.1-5-1.7-6.8-1.7-1.2 0-1.9.4-1.9.9v.1c0 .7 1.3 1.1 3.7 1.7 4.5 1 8.2 2.3 8.2 6v.1c0 4.2-3.8 6.3-9.4 6.3-3.7-.1-7.5-1-10.7-2.9zM77.8 27.2l3-4c2.6 1.4 5.5 2.2 7.9 2.2 1.4 0 2-.4 2-1v-.1c0-.7-1.3-1.1-3.7-1.6-4.5-1-8.2-2.2-8.2-6v-.1c0-4 3.9-6.3 9.2-6.3 3.4 0 6.8.8 9.5 2.2l-2.8 4.2c-2.4-1.1-5-1.7-6.8-1.7-1.2 0-1.9.4-1.9.9v.1c0 .7 1.3 1.1 3.7 1.7 4.5 1 8.2 2.3 8.2 6v.1c0 4.2-3.8 6.3-9.4 6.3-3.7-.1-7.5-1-10.7-2.9z"/></g><circle fill="#D70036" cx="11.4" cy="4.3" r="4.3"/></svg>