<svg id="Layer_1" xmlns="http://www.w3.org/2000/svg" viewBox="0 0 160.5 80.1"><style>.st0,.st1,.st2{fill-rule:evenodd;clip-rule:evenodd}.st1,.st2{fill:#65b32e}.st2{fill:#005ca9}</style><path class="st0" d="M36.3 27.7c.3.2-.3.6.5.7.3 0 .3.5.3.8.4.3 1.1.3 1.7.2.1.8.6.9 1.4.7-.4 1.2-.1 1.9 1.3 1.4-.2 1.3 0 2.1 1.4 1.7-.2 1.4 0 1.9 1.1 1.7-.3.9 1 1 1.5.9.1 1.3 1.2 1.9 2 1.9.3.3.9-.2 1.2 0-.3.8-.1 1.9.9 2 .7-.1 1.2 0 .9.6 0 .6.4.8.8.9.7.1 1.4.2 1.3 1.1 0 .6.2.9.7.8.8-.2 1.1.2 1.3.7.3.6.6.8 1.1.4.5-.3 1-.4 1.5.2.3.4.6.4.9 0 .5-.5 1.1-.4 1.6 0 .5.5 1.1.6 1.9.2 1.1-.1 1.1.6.5 1.7-1.7 1.9-3.2 3.9-5.4 5.4-.5.5-.9.9-1.6.3-.4-.3-.8-.8-.7-1.4 0-.5-.3-.8-.8-1-.4-.1-.7-.3-.7-.9 0-.6-.2-1-.8-.9-.5.1-.8-.2-.6-.9 0-.5-.2-.8-.7-.8-.7.1-1.1-.2-1.1-.9.1-.3-.1-.7-.5-.7-.7-.1-1.2-.4-1.5-.8-.1-.5-.1-.8-.5-.9-.5-.2-1-.4-1.1-1-.2-.3-.5-.5-1-.4-.5.1-.8-.1-1.1-.5-.2-.3-.5-.4-.7-.8-.5.1-.9-.2-1.1-1-.3-.3-.6-.5-1-.6-.6.1-1-.1-1.2-.6-.3-.4-.7-.4-1-.5-.5.1-.7-.2-.8-.5-.7-1.3-.8-.8-1.1-.8-.8.3-1 0-1-.7 0-.4-.3-.6-1-.5-.7 0-1.1-.2-1.2-.9-.1-.7-.6-.7-1-.8-.6-.1-1-.4-1.1-1-.6.2-.9.1-1-.4-.1-.4-.3-.7-.9-.7-1 0-1.2-.6-1.4-1.2-.2-.2-.4-.4-.5-.7 2.8-.4 5.5-1 8.3-1.5z"/><path class="st1" d="M13 71.3c22.8-4.7 50.3-5.8 77.6.9 29.5 7.2 52.7 6.9 69.8 4.2-17 5.4-42.4 5.2-70.5-1.8-27.6-7-54.3-6.2-76.9-3.3z"/><path class="st2" d="M111.7 1.9c-1-1.3-3.3-3.1-5.9-.7-7.3 7.1-15.2 14.1-24.6 17.3-7 1.9-9.9 5-10.8 8.4-1.3 3.2-2.5 6.2-3.7 8.5-1.6 3.1-2.5 5.8-4.3 6.2-1.3.3-2.4-.6-4.2-1.7-1.6-1-3-2.4-4.5-3.5-3.2-2.7-6.4-5.6-9.6-8.4-2.3-2.1-4.8-2.2-7.6-1.3-4.5 1.2-8.9 2.1-13.3 2.1-3.7 0-7.4-.5-11.1-.6-4.4 0-6.4.6-7.8 1.3-1.8.9-2.9 1.6-3.5 2.6-1.1 1.8-.4 2.5.7 2.6.5.1.9.3.4.7C.7 36.7 0 38 0 39.3c-.1.8.4 1 1 .7 1.2-.5 1.1.6.8 1.4-.3.7-.3 1.6-.1 2.6.1.6.8.6 1.2.6.1-.1.1 0 .1.1 0 1.3.3 3.5 1 3.8.5.2.9.4 1 1 .1 1 .2 1.9.9 2 .5.1.6.6.7 1.3.2 1.3.5 2.4 1.6 2.7.6.2 1-.3 1.4-.4.2-.1.3 0 .3.3.3 2.4 1.5 2.7 2.9 2.5.5.8 1.1 1.9 2 2.5 1.3.7 1.4.7 1.3-.6-.3-7.7 2.9-14 9.8-19.1.3-.2.7-.1 1 0 9.8 3.2 17.5 8.2 24.5 13.9.3.3.2.4-.1.9-.6.7-1.2 1.4-1.9 1.8-2.1 0-3.6-.2-5.5.8-1.7.8-3.4.8-5 .8-1.7 0-1.7 1.9.1 2.2 1.3.1 2.6.3 4-.1 1.5 1.6 4.8 1.9 8.2 1.8-1.4 3.5-7 9.9-13.1 14C44 74 51.6 68 53.7 60.9c-2.2.6-4.7 1.1-6.7.6-.3-.1-.8-.3-.3-.5 1.5-.6 9.4-3.1 10.6-4.5.4-.5-5.1 1-5.7.9-.1 0-.1-.2-.1-.3.7-.6 1.3-1.2 1.9-1.9.5-.6.3-.9-.5-1.4-7.7-5.7-16-10.8-26.4-14.6-1.8-.7-5.1-1-7.5 0 1.5-.1 3.4 0 4.8.2 1.1.2 1.1.5.5 1.1-5.1 4.2-8.3 9.5-8.6 17.4 0 1-.6 1.6-1.5 0-.3-.8-.7-1.5-1-2.3-.9 1.7-1.9 1.8-2.3-.7-.1-.8-.2-1.6-.5-2.5-.3.6-.7 1.3-1.1 1.8-.6.7-1.2.3-1.6-1.1-.6-1-.7-2.2-.7-3.5-.8.9-1.4.9-1-.8.1-.9.3-2.9-.8-1.8-.7.6-1.1-.1-1.1-1 0-1.4.1-2.7.3-4 .1-.4-.2-.4-.4-.2l-1 1c-.4.6-.6-.3-.4-1 .4-.8.8-1.6 1.1-2.4.3-.7 0-1.3-.7-1-1.1.2-2.1 0-1.5-.8.7-1.3 1.9-2.3 2.7-3.5.1-.2.4-.5.1-.5-.8 0-1.6 0-2.3-.1-.8-.1-.1-1.4.7-1.9 3.7-2.5 8.4-3.2 13.7-2.4 3.9.5 7.8.6 12 .1 2.8-.6 5.7-.9 8.5-1.8 2.3-1 4.8-.7 7.3 1.8 4.4 4.7 9.5 9.2 16 12.9 2.1 1.1 3.5.4 4.6-.9 2.4-4.1 4.6-8.5 6.3-13.4.8-2.4 2-4.6 4.4-6.1 2.1-1.2 4.5-1.8 6.7-2.7 1.4-.6 2.8-1 4.2-1.7 5.5-2.8 10.2-5.9 15.6-11.1 1.4-1.3 3.4-3.1 4.7-4.2 2.2-1.9 3-1.3 4.2.4 1 1.3.8 2.3-.3 2.1-.4 0-.2.1.1.4.3.4 1.1 1.2 1.7 1.6.4.3.5.9.2 1.3-.2.4 0 .8.6 1.3.2.1.3.2.5.3.2.1.3.3.2.6-.4.9 0 1.3.6 1.7.7.6.8 1 .1 1.4-.2.1-.4.1-.6.2-.5.1-.4.1 0 .4l1.2 1.2c1 1.3.1 1.5-.6 1.5-.5-.1-1.1 0-1.6 0 .9.7 1.8 1.3 2.6 2 1 1 1.1 2.3-.8 1.6-.8-.3-1.7-.6-2.5-.8.4.7 1.2 1.5 2.9 2.9.8 1.2.7 2-.8 1.8-1.3-.2-2.9-1-4.1-1.4.9 1.2 2.2 2.3 2.7 3.6.2.8 0 1.2-.9 1.1-2.6-.3-3.9-1.2-5.3-2.2.3 1.9 1 3.6 1.8 5.3.4.9 0 1.2-1.2.8-1.9-1-2.6-2.4-4.2-3.3.5 1.2.7 2.4.7 3.5-.2 1.1-.6 1.2-1.4.6-2.5-1.9-3.1-3.3-4.4-4.8 0 1.1.3 2.2.1 3.3-.2 1.3-1.1 1.3-1.8.2-1.2-1.6-2.5-3.1-3.7-4.7.1 1 .2 2 .1 3-.2 1-.6 1.1-1.2.5-.8-.8-1.7-1.6-2.5-2.4 0 .4-.1.9-.1 1.3-.2.7-.5.8-.8.2-.6-.7-.9-1.3-1.1-1.9-.4-.9-.7-.9-.9.1-.3.9-.7 1.3-1 .3-.5-.7-.5-1.4-.6-2-.4.4-.7.9-1 1.3-.3.7-.6.7-.9 0-.5-.8-.7-1.7-.9-2.5-.3.6-.7 1.2-1.1 1.7-.3.4-.7.6-.8 0-.6-1.2-1-1.1-1.3-.3-.1.2-.1.4-.2.6-.3.9-.7.5-1 0-.2-.4-.3-.9-.3-1.2-1.1-.4-1.7-.2-2.2.2-.9.6-.7 1.2-.9 1.8.1.7-.2.9-.5 1-.5.2-.6.7-.7 1.2.1.4-.1.6-.3.7-.4.3-.5.6-.1 1 .1.4.1.8-.3.8-.5.3-.7.6-.2 1 .1.4.1.7-.2.8-.4.3-.7.7-.6 1.2.1.5 0 .8-.3 1-.7.3-.7 1.1-.6 1.9-.2 1.6-.6 1.8-1.1 2-.3.3-.6.7-.5 1.2.1.5-.2.8-.7 1-.4.2-.6.6-.6 1.2.2.8 0 1.3-.5 1.4-.5.2-.9.4-.8 1 .1.7 0 1.3-.6 1.5-.6.1-.7.5-.8 1 0 .6-.2.9-.5 1.1-2 1.1-2.8 2.4-3.4 3.6 1.8-1.2 3.9-2.3 6.2-2.7 1.1-.1 2.2-.1 3.3-.1 1.1.2 1.1-.9.9-1.4-.1-.4-.2-.8.1-1 .9-.4 1.2-1 .5-1.6-.1-.3 0-.6.2-.7.4-.1.5-.4.4-1.2 0-.3.3-.5.4-.7.7-.5 1.3-.9.7-1.5 0-.3 0-.6.3-.9.4-.4 1-.8.6-1.8 0-.1-.1-.2-.1-.3-.1-.3.2-.6.5-.7.5-.2.5-.7.5-1.3.4-.4.7-.8.6-1.6 0-.5.3-.8.7-1.1.8 0 .7-.5.4-1.1-.1-.4-.1-.7.5-1.1.5-.3.7-1.1.9-2.2.4-.6.8-1.3 1.3-1.9.7 0 1.2-.1 1.6-.6.9-.6 1.4.2 1.1 1.5-.9 1.3-1.9 2.6-2.8 3.9-2 3.5-2.7 6.2-2.7 10.7-.1 2.1-.9 5.4-1.6 7.5-.3.9-.6 1.7-.9 2.6-.2.6-.9 1.1-1.9 1.6-1.2.7-2.5 1.4-3.7 3-1.6 2-3.8 3.4-7.1 3.4-1.1 0-2.3.2-3.4-.1-.2-.1-.4-.3-.5-.5-.2-.2-.4-.3-.9-.2-.5.1-1 .3-1.2.9-2.5 3.9-5.2 10-13.7 15.9 2.9-1.4 6.1-3.2 9.3-7 2.2-2.1 4-4.5 5.6-7.2.3-.7.8-.9 1.6-.8 1.6.1 3.2.1 4.7 0 2.7 0 4.4-1 5.7-2.5 1.1-1 2.1-2 3.2-3 1.7-1.6 3.6-1.8 5.8-1.8 3.1.3 6.6-1.3 8.3-3.1.4-.6.8-.6 1.4-.7 1 .1 1.9-.2 3-.1 1.5 0 3 .2 4.5.4 3.2.3 6.5.7 9.1 1.2-3.2-2-8.3-4.4-12.4-5.6-2.5-1.7-4.1-2.2-6.7-.3-1.1.9-1.8 2-2.6 2.9-1 1.1-2 1.7-3.2 1.8h-2.6c-.4-.2-.5-.5-.4-1 .8-2.5 1.6-5.1 1.7-8.3-.3-5.3 2-9.5 5.2-13.4.6-.6 1.3-.7 1.9-.3.4.7.9.9 1.5.5.8-.3 1.3.2 1.8.7.2.4.5.7.7 1.1l.6-.6c.5-.3 1-.2 1.5.1.5.3.9.7 1.4 1 .6.1 1.1.1 1.1-.5.3-.4.6-.7.9-1.1.9.8 1.7 1.7 2.6 2.5.5.6 1.2.8 1.7.2.3-.3.6-.6.9-1 .3-.4.5-.2.9.1.7.5 1.4 1.1 2.1 1.6 1 .8 2.1.8 2.3-.2.3-1.6.9-1.9 1.9-1 2.5 1.7 3.8.6 3-2.2-.2-.6-.3-1.4-.4-1.9 1.4.3 2.9.6 4.3.6 1.6 0 1.4-.6 1-2-.1-.5-.5-1-.6-1.4.8.1 1.5.1 2.3.2 1.5.3 1.5-.6 1.1-1.8-.2-.5-.6-1.1-1-1.7 2.5-.3 2.2-1.7.1-4.1.7-.6 1.6-1.2.2-2.5-.2-.2-.3-.5-.1-.7.6-.9.2-1.8-.5-2.7-.2-.2-.2-.4-.1-.5.1-.6.3-1.3-1.1-1.9-.3-.4-.3-.7-.4-1.1.2-.8 0-1.4-.7-1.7-.3-.3-.4-.7-.4-1.1-.8-1-1.1-2.2-1.9-3.2z"/><path class="st0" d="M49.5 57.2c-2.1 0-3.6-.2-5.5.8-1.7.8-3.4.8-5 .8-1.7 0-1.7 1.9.1 2.2 1.3.1 2.6.3 4-.1 1.2.6 2.4.7 3.6.3 1.5-.6 9.4-3.1 10.6-4.5.4-.5-5.1 1-5.7.9-1-.1-1.5-.4-2.1-.4zM76.5 24.8c-1.1-.4-1.7-.2-2.2.2-.9.6-.7 1.2-.9 1.8.1.7-.2.9-.5 1-.5.2-.6.7-.7 1.2.1.4-.1.6-.3.7-.4.3-.5.6-.1 1 .1.4.1.8-.3.8-.5.3-.7.6-.2 1 .1.4.1.7-.2.8-.4.3-.7.7-.6 1.2.1.5 0 .8-.3 1-.7.3-.7 1.1-.6 1.9-.2 1.6-.6 1.8-1.1 2-.3.3-.6.7-.5 1.2.1.5-.2.8-.7 1-.4.2-.6.6-.6 1.2.2.8 0 1.3-.5 1.4-.5.2-.9.4-.8 1 .1.7 0 1.3-.6 1.5-.6.1-.7.5-.8 1 0 .6-.2.9-.5 1.1-2 1.1-2.8 2.4-3.4 3.6 1.8-1.2 3.9-2.3 6.2-2.7 1.1-.1 2.2-.1 3.3-.1 1.1.2 1.1-.9.9-1.4-.1-.4-.2-.8.1-1 .9-.4 1.2-1 .5-1.6-.1-.3 0-.6.2-.7.4-.1.5-.4.4-1.2 0-.3.3-.5.4-.7.7-.5 1.3-.9.7-1.5 0-.3 0-.6.3-.9.4-.4 1-.8.6-1.8 0-.1-.1-.2-.1-.3-.1-.3.2-.6.5-.7.5-.2.5-.7.5-1.3.4-.4.7-.8.6-1.6 0-.5.3-.8.7-1.1.8 0 .7-.5.4-1.1-.1-.4-.1-.7.5-1.1.5-.3.7-1.1.9-2.2.4-.6.8-1.3 1.3-1.9-2.5-.2-3-1.3-2.5-2.7zM89.2 51.1h.5c1.5 0 3 .2 4.5.4 3.2.3 6.5.7 9.1 1.2-3.2-2-8.3-4.4-12.4-5.6v.5c0 1.4-.7 2.7-1.7 3.5z"/></svg>