<svg xmlns="http://www.w3.org/2000/svg" viewBox="0 0 420.43 138.38"><defs><style>.cls-1{fill:#fff;}.cls-2{fill:#ffcb05;}.cls-3{fill:#72bf44;}.cls-4{fill:#ed1c24;}.cls-5{fill:#00aeef;}.cls-6{fill:#ec008c;}.cls-7{fill:#ee7900;}.cls-8{fill:#f57e20;}.cls-9{fill:#1d1d1b;}</style></defs><title>Asset 1</title><g id="Layer_2" data-name="Layer 2"><g id="Layer_1-2" data-name="Layer 1"><path class="cls-1" d="M182.27,104.76a120.49,120.49,0,0,1-17.39-1.14c-3.8-.66-5.23-1.9-5.23-6.18V39.67c0-4.28,1.33-5.61,5-6.18a147.18,147.18,0,0,1,17-1c18,0,30,4.75,30,19.86V54c0,6.18-2.95,11.5-8,14A15.16,15.16,0,0,1,212.2,82v1.43C212.2,100.2,198.71,104.76,182.27,104.76ZM196,53.35c0-5.23-3.33-7.6-13.11-7.6-1.52,0-5.89,0-7.22.1V62.28h10.64c7.51,0,9.69-3.42,9.69-7.51Zm.38,28.7c0-4.56-2.47-8.46-10.07-8.46H175.71V91.36c1.52,0,6.46.1,7.79.1,9.79,0,12.92-3,12.92-8.36Z"/><path class="cls-1" d="M241.39,104.76h-1.33c-6,0-22.71-1.81-22.71-24.14V51.45a1.91,1.91,0,0,1,1.81-2h11.69a2,2,0,0,1,1.9,2V80.62c0,9,2.85,11.12,7.32,11.12h1.33c4.47,0,7.32-2.09,7.32-11.12V51.45a2,2,0,0,1,1.9-2H262.3a1.91,1.91,0,0,1,1.81,2V80.62C264.1,103,247.38,104.76,241.39,104.76Z"/><path class="cls-1" d="M312.87,102.29a88.39,88.39,0,0,1-20.15,2.47c-15.4,0-23.85-8.93-23.85-24.33V73c0-14.92,7.79-24.33,23.85-24.33a66.39,66.39,0,0,1,7.79.66V32.92a1.91,1.91,0,0,1,1.9-1.9h11.4a2,2,0,0,1,2,1.9V99.53C315.82,101.05,315.44,101.72,312.87,102.29ZM300.52,61.9a71.25,71.25,0,0,0-7.79-.48c-6.75,0-8.55,4.94-8.55,11.59v7.41c0,6.75,1.81,11.69,8.55,11.69a52.63,52.63,0,0,0,7.79-.57Z"/><path class="cls-1" d="M365.06,102.29a88.4,88.4,0,0,1-20.15,2.47c-15.4,0-23.85-8.93-23.85-24.33V73c0-14.92,7.79-24.33,23.85-24.33a66.41,66.41,0,0,1,7.79.66V32.92a1.91,1.91,0,0,1,1.9-1.9H366a2,2,0,0,1,2,1.9V99.53C368,101.05,367.62,101.72,365.06,102.29ZM352.7,61.9a71.25,71.25,0,0,0-7.79-.48c-6.75,0-8.55,4.94-8.55,11.59v7.41c0,6.75,1.81,11.69,8.55,11.69a52.62,52.62,0,0,0,7.79-.57Z"/><path class="cls-1" d="M397.43,123.1a60.63,60.63,0,0,1-18.15-2.57c-1.33-.48-1.9-1-1.9-2.47V111.7a1.65,1.65,0,0,1,1.71-1.71h.19c4.28.38,13.59,1.14,18.15,1.14,6.56,0,7.89-1.52,7.89-7v-1a50.11,50.11,0,0,1-8,.86c-16.06,0-23.85-9.5-23.85-24.42V51.35a1.91,1.91,0,0,1,1.9-1.9h11.5a1.91,1.91,0,0,1,1.9,1.9V79.48c0,6.65,1.81,11.78,8.55,11.78a75.19,75.19,0,0,0,8-.57V51.35a1.91,1.91,0,0,1,1.9-1.9h11.31a1.91,1.91,0,0,1,1.9,1.9V104.1C420.43,117.78,413.11,123.1,397.43,123.1Z"/><path class="cls-1" d="M139.79,66.75a18.92,18.92,0,0,0-18.16-16.28h-.57A19,19,0,0,0,105.94,58l-.31.42a29.74,29.74,0,0,0-9.77-12.79l.33-.73h.86a22.6,22.6,0,0,0,18-9A22.47,22.47,0,0,0,97.78,0H97.1a22.63,22.63,0,0,0-18,8.94A22.31,22.31,0,0,0,74.76,25,18.88,18.88,0,0,0,57.37,12H56.8a18.92,18.92,0,0,0-11.39,34,18.82,18.82,0,0,0,9.78,3.73q-.76.86-1.44,1.77A29.88,29.88,0,0,0,47.8,71.88l-5.41,1.38a22.46,22.46,0,0,0-19.2-12h-.79a22.47,22.47,0,0,0-.63,44.92h.69a22.6,22.6,0,0,0,18-8.95,22.37,22.37,0,0,0,4.28-10.31L51.94,85a30,30,0,0,0,22.9,14.54,22.13,22.13,0,0,0-2.53,2.82,22.46,22.46,0,0,0,17.23,36h.69A22.47,22.47,0,0,0,103.77,98,22.35,22.35,0,0,0,95.29,94a29.34,29.34,0,0,0,6.48-6.29,29.86,29.86,0,0,0,4-7.19,18.9,18.9,0,0,0,14.7,7.75H121a19.07,19.07,0,0,0,15.14-7.54A18.81,18.81,0,0,0,139.79,66.75ZM75.61,29.11a22.25,22.25,0,0,0,7.51,11,29.57,29.57,0,0,0-4.42-.48h-.89a29.89,29.89,0,0,0-4.35.32A18.88,18.88,0,0,0,75.61,29.11Z"/><path class="cls-2" d="M35.05,93a15.77,15.77,0,1,1,2.4-14.33,15.53,15.53,0,0,1,.75,5.75A15.67,15.67,0,0,1,35.05,93Z"/><path class="cls-2" d="M38.08,81.31a15.89,15.89,0,0,0-.62-2.65A15.75,15.75,0,0,0,9.89,74,15.78,15.78,0,0,0,13,96.09,15.76,15.76,0,0,0,38.21,84.41,15.91,15.91,0,0,0,38.08,81.31Z"/><path class="cls-3" d="M99.2,103.89a14.86,14.86,0,1,0,2.93,20.81A14.89,14.89,0,0,0,99.2,103.89Z"/><path class="cls-4" d="M127.69,60.43a11,11,0,1,0,2.17,15.43A10.93,10.93,0,0,0,127.69,60.43Z"/><path class="cls-5" d="M95.08,82.54A21.9,21.9,0,0,1,80.33,91a22.26,22.26,0,0,1-2.59.15,21.58,21.58,0,0,1-19.34-12,21.67,21.67,0,0,1,7.36-27.79A21.33,21.33,0,0,1,71,48.89a21.84,21.84,0,0,1,6.78-1.09A21.72,21.72,0,0,1,89,50.93a22.07,22.07,0,0,1,1.85,1.24,21.74,21.74,0,0,1,4.27,30.37Z"/><path class="cls-5" d="M99.31,67.31a21.61,21.61,0,0,0-8.49-15.14A22.07,22.07,0,0,0,89,50.93,21.72,21.72,0,0,0,77.78,47.8,21.84,21.84,0,0,0,71,48.89a21.33,21.33,0,0,0-5.25,2.53A21.74,21.74,0,0,0,58.4,79.21a21.58,21.58,0,0,0,19.34,12A22.26,22.26,0,0,0,80.33,91a21.62,21.62,0,0,0,19-23.72Z"/><path class="cls-6" d="M111.42,20.29A14.48,14.48,0,1,0,108.65,31,14.38,14.38,0,0,0,111.42,20.29Z"/><path class="cls-7" d="M66.36,38A12,12,0,1,1,64,21.21,11.89,11.89,0,0,1,66.36,38Z"/><path class="cls-8" d="M64,21.21a12,12,0,0,0-16.77,2.37A12,12,0,1,0,64,21.21Z"/><path class="cls-9" d="M129.95,57.44a14.74,14.74,0,0,0-23.53,10.05l-2.85,0a25.83,25.83,0,0,0-10.2-18.68A26.34,26.34,0,0,0,90.61,47l3.07-6.71a18.39,18.39,0,0,0,3.39.32,18.31,18.31,0,0,0,11-32.94,18.31,18.31,0,1,0-22,29.25,18.57,18.57,0,0,0,2.44,1.56l-2.89,6.3a25.88,25.88,0,0,0-17.13.5l-2-3.35a15,15,0,0,0,2.14-2.27,14.72,14.72,0,1,0-6.85,5l1.86,3.06A25.93,25.93,0,0,0,52.44,74.83L39.93,78A18.3,18.3,0,0,0,7.85,72.48a18.34,18.34,0,0,0,3.61,25.65,18.29,18.29,0,0,0,29.32-14.7L54.11,80A25.86,25.86,0,0,0,77.74,95.4a26.36,26.36,0,0,0,4-.34L82.88,99a18.23,18.23,0,1,0,7.39-1.57,18.83,18.83,0,0,0-2.12.12L87,93.69a25.83,25.83,0,0,0,16.41-20.76l3.36,0a14.76,14.76,0,1,0,23.16-15.52ZM35.3,84.24a12.91,12.91,0,1,1-.61-4.69,12.67,12.67,0,0,1,.61,4.69ZM86.81,14.57a12.85,12.85,0,1,1,2.53,18A12.76,12.76,0,0,1,86.81,14.57Zm-30,25.51A9.3,9.3,0,1,1,62.4,23.34a9.3,9.3,0,0,1-5.61,16.74Zm33.48,62.82A12.73,12.73,0,0,1,98,105.5a12.85,12.85,0,0,1-7.74,23.11,12.85,12.85,0,0,1,0-25.7Zm7.64-30A20.52,20.52,0,0,1,80.18,89.79a21,21,0,0,1-2.44.14A20.35,20.35,0,0,1,59.51,78.65a20.44,20.44,0,0,1,6.94-26.2,20.11,20.11,0,0,1,4.95-2.38,20.59,20.59,0,0,1,6.39-1,20.48,20.48,0,0,1,10.55,3,20.81,20.81,0,0,1,1.74,1.17,20.6,20.6,0,0,1,7.84,19.73Zm30.58,1.94a9.3,9.3,0,1,1-1.83-13A9.24,9.24,0,0,1,128.49,74.83Z"/></g></g></svg>