<?xml version="1.0" encoding="UTF-8"?>
<svg width="196px" height="41px" viewBox="0 0 196 41" version="1.1" xmlns="http://www.w3.org/2000/svg" xmlns:xlink="http://www.w3.org/1999/xlink">
    <!-- Generator: Sketch 42 (36781) - http://www.bohemiancoding.com/sketch -->
    <title>Page 1</title>
    <desc>Created with Sketch.</desc>
    <defs>
        <polygon id="path-1" points="1.27218221e-20 0.233973918 1.27218221e-20 16.669846 23.0634134 16.669846 23.0634134 0.233973918 0 0.233973918"></polygon>
        <polygon id="path-3" points="17.8008592 0.0617356322 0.0294283951 0.0617356322 0.0294283951 22.0553138 17.8008592 22.0553138 17.8008592 0.0617356322"></polygon>
        <polygon id="path-5" points="7.75651765 4.0442023 7.75651765 0.0695586207 0.191683517 0.0695586207 0.191683517 4.0442023 7.75651765 4.0442023"></polygon>
    </defs>
    <g id="Page-1" stroke="none" stroke-width="1" fill="none" fill-rule="evenodd">
        <g id="Product---Item-Wide" transform="translate(-442.000000, -51.000000)">
            <g id="Page-1" transform="translate(442.000000, 51.000000)">
                <path d="M37.9417434,9.63518851 C35.7287469,10.1747862 33.2867064,9.80013103 31.2591041,8.39623448 C31.7317419,11.103177 31.7359661,13.9477287 31.1933947,16.8120736 C30.2359159,21.8989011 25.9169351,25.5167977 20.9202096,25.4970046 C22.6361619,27.2015678 25.0664686,28.1473954 27.653539,27.863223 C33.2533824,27.2505793 38.1182199,24.4969816 41.5116378,20.5166828 C41.3529966,16.4713494 40.0542986,12.7464759 37.9417434,9.63518851" id="Fill-1" fill="#020302"></path>
                <path d="M36.2261666,27.4376241 C33.7982066,28.7161644 31.10694,29.5856471 28.2251163,29.9372103 C23.1049511,30.5710609 18.3541661,27.5479 16.855524,22.7584402 C15.7605248,24.9215437 15.6056385,27.5351759 16.6621508,29.9216586 C18.949305,35.0890724 23.0429966,38.9030149 27.855736,40.9379345 C31.6373082,39.5547736 34.7810306,37.175831 37.0888363,34.2068655 C35.900436,32.2478195 35.5108735,29.8010149 36.2261666,27.4376241" id="Fill-3" fill="#020302"></path>
                <path d="M18.1952904,18.0532897 C15.8086334,17.6758069 13.2872724,18.3402897 11.3544792,20.0891517 C7.17114135,23.8762322 4.8290729,28.9649448 4.39210583,34.186554 C6.88108157,37.3770138 10.1050632,39.6357839 13.6322464,40.9209218 C15.1172774,39.1763011 17.3110305,38.040554 19.7709063,37.9962552 C17.8132375,36.0744391 16.1540768,33.7723126 14.9220268,31.1351172 C12.7381301,26.444623 14.1260051,20.9694736 18.1952904,18.0532897" id="Fill-5" fill="#020302"></path>
                <g id="Group-9" transform="translate(0.000000, 8.892382)">
                    <mask id="mask-2" fill="white">
                        <use xlink:href="#path-1"></use>
                    </mask>
                    <g id="Clip-8"></g>
                    <path d="M9.66715737,9.91568506 C13.4308942,6.3746046 19.047165,6.00183448 23.0634134,8.97834023 C22.6832379,6.58808736 21.2700179,4.38351264 19.0157183,3.07858161 C14.1335147,0.260891954 8.58905493,-0.396050575 3.50690721,0.809443678 C1.26152536,4.16955862 0.124284514,7.94768506 -9.38704788e-05,11.7130874 C2.10917579,12.5910529 3.86314568,14.3309609 4.67606402,16.669846 C5.88183032,14.2004207 7.54662326,11.9077195 9.66715737,9.91568506" id="Fill-7" fill="#020302" mask="url(#mask-2)"></path>
                </g>
                <g id="Group-12" transform="translate(11.733810, 0.409623)">
                    <mask id="mask-4" fill="white">
                        <use xlink:href="#path-3"></use>
                    </mask>
                    <g id="Clip-11"></g>
                    <path d="M13.0145317,22.0553138 C15.1599415,20.9483138 16.8106539,18.914808 17.3466543,16.3614977 C18.4993838,10.8297966 17.4025072,5.33108391 14.6854262,0.851244828 C10.8029432,-0.249157471 6.87258629,-0.165272414 3.27359214,0.889417241 C3.09899305,3.17504943 1.9913214,5.3866931 0.0294283951,6.88342874 C2.74228523,7.27599195 5.42885833,8.15160115 7.97227895,9.55785402 C12.4940199,12.0513138 14.5882703,17.2941299 13.0145317,22.0553138" id="Fill-10" fill="#020302" mask="url(#mask-4)"></path>
                </g>
                <path d="M55.6041311,2.49006667 L62.431331,2.49006667 C65.5539325,2.49006667 68.6216197,3.24126207 68.0316438,6.98168736 C67.8087014,8.39830805 66.8831385,9.7941931 65.3995156,10.2451931 L65.3798028,10.3752621 C67.0352086,10.9982736 67.9415281,12.2857678 67.6397345,14.2198368 C67.1135905,17.5502621 63.8539381,18.6878943 61.0298448,18.6878943 L53.0475686,18.6878943 L55.6041311,2.49006667 Z M59.0918887,14.8206989 L59.7564917,14.8206989 C60.7186641,14.8206989 62.1131101,14.7980782 62.3238493,13.4662851 C62.5392821,12.1137563 61.0345383,12.1368483 60.0967722,12.1368483 L59.5180607,12.1368483 L59.0918887,14.8206989 Z M60.591939,8.71923908 C61.4480378,8.71923908 62.4228827,8.63535402 62.5993592,7.51704368 C62.7889775,6.31343448 61.6831833,6.39873333 60.8270845,6.39873333 L60.4220334,6.39873333 L60.0568773,8.71923908 L60.591939,8.71923908 Z" id="Fill-13" fill="#020302"></path>
                <path d="M87.1607577,10.6336563 C86.3398603,15.8307598 81.8490966,18.9458172 76.9260594,18.9458172 C72.0067769,18.9458172 68.4974291,15.8307598 69.316449,10.6336563 C70.1218577,5.5407023 74.6642502,2.23242644 79.5614731,2.23242644 C84.4643282,2.23242644 87.9624115,5.5407023 87.1607577,10.6336563 M75.2082296,10.7213115 C74.9172311,12.5639552 75.9591934,13.8330701 77.7319374,13.8330701 C79.5093749,13.8330701 80.9512255,12.5639552 81.242224,10.7213115 C81.5135097,8.99978276 80.5851306,7.56007011 78.7241484,7.56007011 C76.8626968,7.56007011 75.480454,8.99978276 75.2082296,10.7213115" id="Fill-15" fill="#020302"></path>
                <path d="M91.4309727,18.6879414 L85.2266034,18.6879414 L93.3862947,2.49011379 L99.8685206,2.49011379 L103.070443,18.6879414 L96.8637266,18.6879414 L96.6482939,16.6681023 L92.2194847,16.6681023 L91.4309727,18.6879414 Z M96.2282235,12.8225851 L95.9940166,9.96766552 C95.9334702,9.27914828 95.9353476,8.56942414 95.9381637,7.88279195 L95.724139,7.88279195 L93.8753599,12.8225851 L96.2282235,12.8225851 Z" id="Fill-17" fill="#020302"></path>
                <path d="M106.843285,2.49006667 L113.92769,2.49006667 C117.561416,2.49006667 120.398651,4.03769885 119.755639,8.11931954 C119.367954,10.5670667 118.263098,11.5981931 115.967026,12.3286529 L115.946375,12.4601356 C116.211559,12.6948253 116.531657,12.9526069 116.779006,13.4238713 L119.456192,18.6878943 L112.694232,18.6878943 L110.947302,13.4903195 L110.842167,13.4903195 L110.024086,18.6878943 L104.289539,18.6878943 L106.843285,2.49006667 Z M111.443877,9.6645954 L111.852214,9.6645954 C112.815325,9.6645954 113.80425,9.51426207 113.991522,8.3115954 C114.188181,7.06462989 113.334898,6.91523908 112.328606,6.91523908 L111.881314,6.91523908 L111.443877,9.6645954 Z" id="Fill-19" fill="#020302"></path>
                <polygon id="Fill-21" fill="#020302" points="121.926722 2.49006667 134.24863 2.49006667 133.418346 7.75456092 130.214077 7.60564138 128.462454 18.6878943 122.601651 18.6878943 124.350927 7.60564138 121.096438 7.75456092"></polygon>
                <polygon id="Fill-23" fill="#020302" points="55.6488135 22.7604195 61.5082087 22.7604195 59.774421 33.7569023 64.6960502 33.7569023 63.8751528 38.9573046 53.0913123 38.9573046"></polygon>
                <path d="M84.0152987,30.8993908 C83.1953401,36.0983793 78.7017603,39.2129655 73.7824778,39.2129655 C68.861318,39.2129655 65.3524395,36.0983793 66.1733368,30.8993908 C66.974052,25.8102069 71.5206687,22.5014598 76.4178915,22.5014598 C81.3169918,22.5014598 84.81883,25.8102069 84.0152987,30.8993908 M72.0627707,30.9865747 C71.7731802,32.8329885 72.8118571,34.1021034 74.5902333,34.1021034 C76.363916,34.1021034 77.8034198,32.8329885 78.0977037,30.9865747 C78.3689894,29.2674023 77.438733,27.8281609 75.5791588,27.8281609 C73.7181766,27.8281609 72.3349951,29.2674023 72.0627707,30.9865747" id="Fill-25" fill="#020302"></path>
                <path d="M87.290205,22.7604195 L92.9153935,22.7604195 L96.762675,31.7389483 L96.9339887,31.7389483 C96.9114598,30.3845345 96.8762583,28.9891207 97.0912217,27.6139713 L97.8600209,22.7604195 L103.463619,22.7604195 L100.907995,38.9573046 L95.3029891,38.9573046 L91.4895009,30.4505115 L91.319126,30.4505115 C91.3336759,31.5664655 91.3388388,32.6192701 91.1708106,33.6913966 L90.3395875,38.9573046 L84.7345813,38.9573046 L87.290205,22.7604195 Z" id="Fill-27" fill="#020302"></path>
                <path d="M122.032139,29.4165575 C121.572643,32.0598793 121.222506,34.2724655 118.995898,36.3337759 C116.989416,38.2037529 114.19677,39.2127299 111.693244,39.2127299 C106.770676,39.2127299 103.273062,36.1631782 104.094898,30.9641897 C104.926591,25.679431 109.303302,22.5012241 114.372777,22.5012241 C117.174341,22.5012241 120.805721,23.8966379 121.629904,26.6672011 L115.836218,28.6879828 C115.517058,27.8693966 114.746851,27.4419598 113.806738,27.4419598 C111.710141,27.4419598 110.26876,29.246431 109.962742,31.2002931 C109.682069,32.9821437 110.527842,34.658431 112.433882,34.658431 C113.354752,34.658431 114.596189,34.2286379 115.031748,33.2403966 L112.378968,33.2403966 L112.981616,29.4165575 L122.032139,29.4165575 Z" id="Fill-29" fill="#020302"></path>
                <path d="M129.039429,22.7604195 L130.170099,26.9900172 L130.340004,26.9900172 C130.594393,26.4772816 130.825784,25.9612471 131.118191,25.463592 L132.699908,22.7604195 L139.289147,22.7604195 L132.315978,31.975523 L131.213,38.9573046 L125.477983,38.9573046 L126.582839,31.975523 L122.408418,22.7604195 L129.039429,22.7604195 Z" id="Fill-31" fill="#020302"></path>
                <polygon id="Fill-33" fill="#020302" points="140.357533 22.7604195 151.203798 22.7604195 150.505871 27.1841782 145.565937 27.1841782 145.320935 28.7299253 149.835636 28.7299253 149.169625 32.9416149 144.657271 32.9416149 144.406636 34.5307184 149.518353 34.5307184 148.820896 38.9573046 137.80191 38.9573046"></polygon>
                <path d="M155.986405,38.9573517 L149.783444,38.9573517 L157.943604,22.7604667 L164.426769,22.7604667 L167.627752,38.9573517 L161.421975,38.9573517 L161.204195,36.9360989 L156.775386,36.9360989 L155.986405,38.9573517 Z M160.787411,33.0910529 L160.551796,30.2347195 C160.49078,29.5480874 160.493127,28.837892 160.496412,28.1503172 L160.280979,28.1503172 L158.431261,33.0910529 L160.787411,33.0910529 Z" id="Fill-35" fill="#020302"></path>
                <path d="M171.400313,22.7604195 L178.484718,22.7604195 C182.119383,22.7604195 184.957087,24.3061667 184.312667,28.3868448 C183.924982,30.836477 182.822473,31.8666609 180.524993,32.597592 L180.503872,32.7253046 C180.76624,32.9623506 181.088685,33.2191897 181.336034,33.6913966 L184.01322,38.9573046 L177.255015,38.9573046 L175.505738,33.7569023 L175.397787,33.7569023 L174.579706,38.9573046 L168.846567,38.9573046 L171.400313,22.7604195 Z M176.001844,29.9330632 L176.407834,29.9330632 C177.3747,29.9330632 178.357523,29.7832011 178.548081,28.5805345 C178.744739,27.3340402 177.891926,27.1841782 176.886573,27.1841782 L176.436464,27.1841782 L176.001844,29.9330632 Z" id="Fill-37" fill="#020302"></path>
                <g id="Group-41" transform="translate(188.210310, 20.673991)">
                    <mask id="mask-6" fill="white">
                        <use xlink:href="#path-5"></use>
                    </mask>
                    <g id="Clip-40"></g>
                    <path d="M3.86671276,4.0442023 L3.86671276,0.0695586207 L4.83827221,0.0695586207 L5.83846216,3.2439954 L6.80579744,0.0695586207 L7.75670539,0.0695586207 L7.75670539,4.0442023 L7.15546498,4.0442023 L7.15546498,0.708593103 L6.13462352,4.0442023 L5.53807663,4.0442023 L4.47311605,0.660052874 L4.47311605,4.0442023 L3.86671276,4.0442023 Z M1.4725462,4.0442023 L1.4725462,0.660052874 L0.191683517,0.660052874 L0.191683517,0.0695586207 L3.42552151,0.0695586207 L3.42552151,0.660052874 L2.13339437,0.660052874 L2.13339437,4.0442023 L1.4725462,4.0442023 Z" id="Fill-39" fill="#020302" mask="url(#mask-6)"></path>
                </g>
            </g>
        </g>
    </g>
</svg>