<svg width="500" height="106" viewBox="0 0 500 106" fill="none" xmlns="http://www.w3.org/2000/svg">
<rect width="499.1" height="105.1" fill="black" fill-opacity="0" transform="translate(0.1)"/>
<rect width="259.6" height="84.8158" fill="black" fill-opacity="0" transform="translate(0.1)"/>
<path d="M36.9 44.6H36.7C36.5 44.6 36.3 44.8 36.2 44.9C36 45.1 35.8 45.2 35.5 45.4C35.1 45.7 34.7 45.9 34.3 46.2C34.1 46.3 33.9 46.4 33.7 46.4C33.6 46.4 33.5 46.4 33.3 46.5C33.2 46.5 33.1 46.6 33 46.7C32.9 46.9 32.8 47 32.6 47.2C31.6 47.7 30.7 48.3 29.7 48.8C29.1 49.1 28.4 49.3 27.9 49.7C27.3 50.2 26.7 50.5 26.1 50.9C26 50.9 25.9 51.1 25.9 51.2C25.9 51.3 26.1 51.3 26.2 51.3C26.4 51.3 26.8 51.3 26.6 51.6C26.5 51.8 26.3 51.9 26.2 51.9C25.9 52 25.6 52.1 25.4 52.4C25.3 52.5 25.3 52.7 25.2 52.8C25.1 52.9 25 52.9 24.8 52.9C24.7 52.9 24 53.6 24 53.7L23.6 54.1C23.4 54.2 23.3 54.4 23.1 54.5C22.9 54.6 22.4 55 22.3 54.7C22.2 54.6 22.3 54.4 22.1 54.4C22 54.4 21.9 54.4 21.8 54.5C21.6 54.5 21.5 54.6 21.5 54.9C21.5 55 21.6 55.2 21.6 55.3C21.5 55.4 21.3 55.5 21.2 55.5C21 55.6 20.9 55.8 20.8 55.9C20.7 56 20.6 56.2 20.4 56.3C19.8 56.4 19.4 56.8 19 57.2C18.9 57.3 18.7 57.4 18.5 57.5C18.4 57.6 18.2 57.6 18.1 57.7C17.8 57.9 17.6 58.2 17.3 58.3C16.7 58.5 16.3 59 15.7 59.3C15.4 59.5 15.1 59.7 14.9 59.9C14.2 60.7 13.3 61.2 12.4 61.7C12.2 61.8 12 61.9 11.9 62C11.2 62.6 10.5 63.1 9.7 63.6L8.5 64.5C8.3 64.6 7.8 64.9 7.9 65.2C8.1 65.2 8.5 65.1 8.7 64.9C9 64.7 9.1 64.4 9.4 64.2C9.8 64 10.1 63.8 10.4 63.5C10.6 63.4 10.8 63.3 10.8 63.6C10.8 63.9 10.7 64 10.4 64.1C10.1 64.2 9.8 64.4 9.5 64.6C9.4 64.7 9.2 64.8 9.3 64.9C9.4 64.9 9.6 64.8 9.7 64.8C9.8 64.8 9.9 64.7 10 64.7C10.1 64.7 10.7 64.5 10.7 64.5L10.8 64.6C10.3 65.1 9.8 65.6 9.1 66C8.6 66.3 8.2 66.5 7.7 66.8C7.5 66.9 7.3 67.1 7 67.2C6.8 67.3 6.7 67.4 6.6 67.5C6.8 67.5 7 67.4 7.1 67.3L7.7 67C8 66.8 8.4 66.7 8.7 66.5C9.1 66.3 9.5 66 9.9 65.8L10.5 65.5C10.6 65.5 11 65.3 11 65.4C11.1 65.5 10.5 65.9 10.4 66C10 66.3 9.6 66.5 9.3 66.8C8.9 67.4 8.3 67.6 7.6 67.9C7 68.1 6.5 68.3 6 68.7C5.7 69 5.4 69.3 5 69.5L3.5 70.4C2.3 71.1 1.2 71.8 0.1 72.5C1 72.2 1.8 71.8 2.6 71.4C2.7 71.1 2.9 71 3 71L3.9 70.7C4.1 70.6 4.4 70.6 4.6 70.5C4.7 70.5 5 70.4 5 70.2V69.9C5 69.6 5.4 69.4 5.6 69.3C5.7 69.3 6.1 69 6.2 69.1C6.3 69.3 5.7 69.4 5.8 69.6C5.8 69.7 6.4 69.5 6.5 69.4C7 69.3 6.5 70.1 6.4 70.2C6.3 70.3 6.1 70.5 6.1 70.7C6.2 70.9 6.6 70.5 6.7 70.4C6.8 70.3 7 70 7.4 70C8 69.9 8.6 69.4 9.2 69.1C9.8 68.8 10.4 68.6 10.9 68.3C11.2 68.2 11.5 68 11.7 67.9C11.9 67.9 12 67.9 12.1 68.1V68.8C12 68.9 11.9 68.7 11.9 68.7C11.8 68.6 11.7 68.5 11.6 68.6C11.5 68.7 11.7 69 11.8 69.2C11.9 69.3 12 69.5 12 69.6C11.9 69.9 11.6 70 11.4 70.2C11.1 70.4 10.9 70.6 10.6 70.8C10.2 71 10 71.3 9.7 71.6C9.6 71.7 9.4 71.9 9.5 72.1C9.6 72.3 10.1 72.1 10.3 72.1C10.4 72.1 10.6 72 10.6 72.1C10.6 72.2 10.3 72.4 10.3 72.4L9.9 72.8C9.4 73.3 8.9 73.8 8.3 74.2C7.8 74.6 7.2 75 6.6 75.3C6.5 75.4 5.7 75.6 5.7 75.9C5.9 75.9 6.1 75.8 6.2 75.7C6.3 75.6 6.4 75.6 6.6 75.6H7C7.1 75.6 7.2 75.5 7.3 75.4C7.6 75.2 7.9 75 8.2 74.9C8.8 74.5 9.4 74.2 10 73.8L10.6 73.5C10.9 73.4 11.1 73.1 11.4 73C11.5 72.9 11.7 73 11.9 73C12.1 73 12.2 72.9 12.3 72.8C12.6 72.5 12.9 72.3 13.3 72.1C13.6 72 13.8 71.8 14.1 71.8C14.8 71.6 14 72.7 13.9 72.9C13.5 73.3 13 73.6 12.5 73.8C12.4 73.9 12.2 73.9 12.1 74C10.7 74.9 9.1 75.5 7.7 76.5C6.1 77.6 4.4 78.5 2.7 79.5C2.5 79.6 2.2 79.7 2.1 80.1C2.3 80 2.4 80 2.5 80C2.9 79.7 3.3 79.5 3.7 79.2C4.7 78.7 5.7 78.3 6.6 77.7C7.4 77.3 8.1 76.7 8.8 76.2C9.1 76 9.4 75.8 9.7 75.8C10.3 75.7 10.7 75.2 11.4 75.1C12 75 12.5 74.4 13.1 74C13.3 73.9 13.5 73.7 13.8 73.6C14.2 73.4 14.5 73.2 14.9 73C15.2 72.9 15.5 72.6 15.8 72.5C15.9 72.4 16.1 72.3 16.3 72.3C16.6 72.3 15.9 72.9 15.9 72.9C15.7 73.1 15.5 73.2 15.3 73.4C15 73.7 14.8 74.1 14.4 74.2C14.3 74.2 14.2 74.4 14.2 74.5C14.3 74.7 14.2 74.8 14 74.9C13.2 75.4 12.5 75.9 11.7 76.3C11.3 76.5 11 76.8 10.6 77C10.4 77.1 10 77.3 9.9 77.5C9.9 77.7 10.3 77.5 10.3 77.4C10.5 77.3 10.7 77.2 11 77C11.4 76.8 11.7 76.6 12.1 76.4L12.7 76.1C12.8 76.1 12.9 76 13 76C13.1 76 13.3 75.9 13.3 75.9C12.9 76.7 12.9 76.7 12.4 77.1C11.8 77.5 11.1 77.8 10.5 78.2C10.3 78.3 9.4 78.7 9.6 79C10 79 10.3 78.8 10.6 78.7C10.9 78.6 11.2 78.5 11.4 78.3C11.6 78.2 11.8 78 12 77.8C12.5 77.5 13 77.2 13.5 77C14.3 76.7 15.1 76.2 15.9 75.7C16.5 75.4 17.1 75 17.7 74.7C17.9 74.6 18.2 74.5 18.4 74.3C18.5 74.3 18.6 74.2 18.7 74.2C18.9 74.2 18.6 74.5 18.5 74.6C18.3 74.8 18.2 74.9 18 75C17.6 75.3 17.1 75.4 16.7 75.7C16.5 75.8 16.2 76.2 16.5 76.3C17 76.4 17.5 76.1 17.9 75.8C18.7 75.3 19.5 74.9 20.4 74.7C20.5 74.7 20.7 74.6 20.8 74.6C21 74.7 20.2 75.4 20.1 75.4C19.8 75.6 19.5 75.6 19.3 75.8C19.1 76 19 76.3 18.7 76.5C18.2 76.9 17.7 77.3 17.2 77.8C17.1 77.9 16.3 78.5 16.5 78.7C16.7 78.8 17 78.5 17.1 78.4C17.3 78.2 17.6 78 17.8 77.9C19.5 76.4 21.4 75.1 23.3 73.9C23.6 73.7 24 73.5 24.2 73.2C24.3 73.1 24.6 73 24.7 73.1C25.2 73.4 25.4 73.2 25.6 72.8C25.9 72.4 26.2 72 26.8 72.1C26.9 72.1 27 72 27.1 72C27.6 71.7 28.1 71.4 28.5 71.1C28.7 71 29.1 70.8 29 71.1C29 71.5 28.6 71.7 28.3 71.8C28.1 71.9 28 72 27.8 72.1C27.3 72.4 26.8 73 26.2 73.1C26.1 73.1 26 73.3 25.9 73.4C25.8 73.5 25.7 73.7 25.5 73.8C25 74.1 24.6 74.4 24.1 74.7C23.6 75 23.2 75.3 22.7 75.6C22.5 75.8 22.2 75.9 22 76.1C21.8 76.2 21.6 76.3 21.4 76.5C21.3 76.6 21.4 76.6 21.4 76.7C21.5 76.8 21.4 76.9 21.3 77L21 77.3C20.7 77.6 20.4 77.8 20.1 78.1C19.5 78.6 18.9 79.1 18.3 79.7C18.2 79.8 18.1 79.9 18.1 80C18.1 80.1 18.6 79.8 18.6 79.7C18.8 79.6 18.9 79.4 19.1 79.3C19.6 79 20 78.6 20.5 78.2C21.8 77.2 23 76 24.6 75.5C24.7 75.5 24.7 75.4 24.8 75.4L27.2 73.9C27.4 73.8 27.5 73.7 27.7 73.6C27.8 73.6 28 73.5 28 73.6C28.2 73.7 27.6 74.1 27.5 74.1C27.2 74.3 27 74.4 26.7 74.6C25.4 75.5 24.2 76.3 22.9 77.2C22.8 77.3 22.6 77.4 22.5 77.5C22.1 77.9 21.7 78.1 21.3 78.4C20.6 78.8 19.9 79.3 19.3 79.9C19.2 80 19 80.1 19.1 80.3C19.5 80.3 19.9 80 20.2 79.9C20.6 79.7 21 79.5 21.4 79.2C22.1 78.8 22.8 78.3 23.5 77.8C23.8 77.6 24 77.4 24.3 77.3C24.4 77.2 24.5 77.1 24.7 77L24.9 76.8H25C25.1 76.8 25.2 76.9 25.4 76.8C25.6 76.8 26.1 76.6 26 76.3C26 76.2 25.9 76.2 25.9 76C25.9 75.9 26.1 75.8 26.1 75.7C26.3 75.6 26.4 75.4 26.6 75.3C27.1 75 27.7 74.7 28.2 74.4C28.5 74.2 28.8 73.9 29.1 73.9C29.5 73.8 29.8 73.6 30.2 73.4C30.4 73.3 30.6 73.1 30.9 73C31.1 72.9 31.3 72.6 31.4 72.6C31.4 72.7 31.3 72.8 31.2 72.9L31 73.1C30.8 73.3 30.6 73.3 30.4 73.5C30.2 73.7 30.1 73.9 29.8 74C29.6 74.1 29.3 74 29.1 74.1C29 74.2 28.9 74.2 28.8 74.3C28.6 74.4 28.4 74.6 28.2 74.7C28.1 74.8 27.8 74.9 27.8 75.1C27.8 75.2 27.9 75.2 27.9 75.3C27.9 75.4 27.6 75.5 27.5 75.6C27.3 75.7 27.1 75.7 26.9 75.6C26.8 75.6 26.6 75.7 26.5 75.8C26.4 75.9 26.3 76.2 26.3 76.3C26.4 76.6 26.9 76.2 27 76.2C27.1 76.1 27.3 76.1 27.4 76.1H27.6C27.7 76.2 26.7 76.8 26.6 76.8C26.1 76.9 26.2 77.4 25.8 77.6C25.3 77.9 24.8 78.3 24.3 78.5C24 78.6 23.8 78.9 23.5 79C23.1 79.2 22.7 79.4 22.4 79.6C22.1 79.8 21.2 80.2 21.1 80.6C21.4 80.7 21.7 80.4 22 80.5C21.9 80.8 21.4 81.1 21.1 81.3C20.7 81.6 20.2 81.9 19.7 82.2C19 82.7 18.3 83.2 17.5 83.7C17.1 83.9 16.4 84.3 16.3 84.8C16.6 84.9 17.1 84.5 17.3 84.3C17.8 83.9 18.3 83.6 18.9 83.2L21.3 81.7C21.8 81.4 22.4 81 22.9 80.7C23.3 80.4 23.8 80.2 24.3 79.9C24.6 79.7 24.8 79.5 25.1 79.4C25.3 79.3 25.4 79.4 25.5 79.4C25.7 79.4 25.9 79.3 26.1 79.2L27.6 78.3C28.7 77.7 29.8 77.1 31 76.6C31.3 76.5 31.5 76.2 31.8 76C32.1 75.8 32.5 76 32.8 75.7C33 75.5 33.3 75.5 33.5 75.5C33.6 75.5 34.1 75.3 34.1 75.4C34.1 75.5 33.9 75.6 33.8 75.7C33.6 75.8 33.4 75.9 33.3 76C33.1 76.1 33 76.2 32.9 76.3C32.8 76.4 32.7 76.6 32.8 76.6C32.9 76.7 33.2 76.6 33.3 76.6C33.5 76.6 33.4 76.7 33.3 76.8C33.2 76.9 33 77 32.8 77.1C32.6 77.2 32.5 77.1 32.3 77.1C32.1 77.1 31.8 77.4 31.7 77.5C31.5 77.7 31.3 77.8 31.1 78C31 78.1 30.6 78.3 30.5 78.2C30.4 78.1 30.4 77.9 30.3 78.1C30.2 78.2 30.1 78.4 30 78.5C29.9 78.6 29.6 78.7 29.6 78.9C29.8 79 30 78.8 30.2 78.7C30.5 78.6 30.8 78.5 31 78.4C32 78 33.1 77.6 34.1 77.1C34.2 77 34.4 77 34.5 77.1C34.7 77.2 34.5 77.3 34.6 77.4C34.8 77.6 34.9 77 35 76.9C35.2 76.7 35.4 77.1 35.6 77.1C35.7 77.1 36.2 77 36.2 77.2C36.3 77.4 35.6 77.5 35.6 77.7C35.8 77.8 36 77.6 36.2 77.6C36.4 77.5 36.6 77.5 36.8 77.4C37 77.3 37.2 77.3 37.3 77.2C37.4 77.2 37.5 77.1 37.6 77.2C37.7 77.3 37.6 77.5 37.6 77.5C37.4 77.8 37.6 77.9 37.8 77.9H39C39.4 77.9 39.7 77.8 39.8 77.3C39.8 77.2 40 77 40.1 77.1C40.2 77.1 40.5 77.4 40.5 77.5C40.5 77.6 40.3 77.7 40.4 77.9C40.5 78 40.7 78.2 40.8 78.2C40.9 78.3 41 78.3 41.1 78.3C41.3 78.3 41.2 77.9 41.3 77.8C41.4 77.5 42 77.6 42.3 77.6C42.6 77.5 42.9 77.4 43.2 77.4C43.8 77.2 44.4 77.2 44.9 77.2C45.2 77.2 45.5 77.1 45.7 77L46.6 76.7L47.5 76.4C47.6 76.4 48.1 76.1 48.2 76.2C48.3 76.3 47.9 76.5 48.2 76.6C48.3 76.6 48.6 76.6 48.7 76.5C48.8 76.5 49 76.5 48.9 76.6C48.8 76.7 48.6 76.8 48.5 76.8C48.3 76.9 48.2 77 48 77.1C47.8 77.2 47.6 77.3 47.4 77.3C47.3 77.2 47.2 77.2 47 77.2C46.9 77.2 46.8 77.3 46.7 77.4C46.5 77.5 46.3 77.6 46 77.7C45.5 77.9 45.1 78 44.6 78.1C44.4 78.1 44.1 78.3 43.9 78.4C43.7 78.5 43.7 78.6 43.6 78.8C43.6 79 43.5 79.2 43.8 79.1C44 79 44.2 78.9 44.4 78.7C44.7 78.5 45 78.4 45.2 78.2C45.5 78 45.8 77.9 46.1 77.8C46.3 77.8 46.4 77.7 46.6 77.7C46.7 77.7 46.9 77.7 46.8 77.8C46.7 78 46.4 78.2 46.3 78.3C45.9 78.6 45.5 78.9 45.1 79.1L43.6 80L43 80.3C42.9 80.4 42.9 80.5 43 80.5C43.2 80.5 43.3 80.4 43.5 80.3L44.4 79.7C45.6 79.1 46.8 78.4 47.9 77.8C48.6 77.4 49.4 77.1 50.2 76.8C50.5 76.7 50.8 76.5 51.2 76.4C51.4 76.3 51.6 76.3 51.7 76.3C51.9 76.3 52 76.3 52.1 76.2C52.2 76.1 52.2 75.9 52.4 75.9C52.6 75.9 52.7 76 52.9 76C53.1 76 53.3 76 53.4 75.8C53.5 75.7 53.5 75.5 53.6 75.4C53.8 75.3 54 75.4 54.2 75.4C54.4 75.4 54.5 75.3 54.7 75.3C54.8 75.2 54.9 75.1 55 74.9C55.1 74.8 55.1 74.5 55.3 74.5C55.4 74.5 55.9 74.8 55.9 74.9C55.9 75.1 55.5 75.3 55.4 75.4L54.5 75.7C54.3 75.8 54.1 75.8 54.1 75.9C54 76.3 53.6 76.4 53.3 76.6C53.1 76.7 52.9 76.8 52.6 77C52.5 77.1 52.2 77.1 52.1 77.3C52.2 77.3 52.4 77.2 52.6 77.2L53.2 76.9C53.6 76.7 54.1 76.5 54.5 76.3L57.2 75.1C57.4 75 57.7 74.9 57.9 74.8C58.2 74.7 58.4 74.6 58.7 74.6C58.9 74.6 59.2 74.9 59.3 74.7C59.4 74.6 59.3 74.4 59.4 74.3C59.5 74.2 59.6 74.1 59.8 74C60.8 73.6 61.7 73.2 62.6 72.8C63.8 72.2 65.2 72.2 66.4 71.5C66.6 71.3 66.9 71.5 66.7 71.8C66.5 72.1 64.7 72.8 64.3 72.8C64.1 72.8 63.9 72.8 63.8 72.9C63.7 73 63.7 73.1 63.7 73.2C63.7 73.3 63.7 73.3 63.8 73.4H64.3C64.8 73 65.5 73.3 66 72.8C66.1 72.7 66.5 72.8 66.8 72.8C66.9 72.8 67.1 72.9 67.2 72.8C67.4 72.8 67.4 72.7 67.5 72.6C67.6 72.5 67.7 72.4 67.8 72.4C68 72.3 68.2 72.2 68.5 72.1C68.7 72 69 72 69.2 71.9C69.3 71.9 69.4 71.8 69.5 71.8C69.7 71.7 69.8 71.7 69.9 71.9C70 72.1 70.1 72.2 70.2 72C70.3 71.8 70.3 71.6 70.5 71.5C70.7 71.4 70.9 71.4 71.2 71.4C71.6 71.4 72 71.3 72.4 71.1C72.5 71.1 72.5 70.9 72.6 70.8C72.7 70.7 72.8 70.9 73 70.9C73.5 70.8 73.9 70.8 74.4 70.8C74.8 70.9 75.1 70.8 75.5 70.7C75.7 70.7 75.9 70.6 76.1 70.6C76.2 70.6 76.4 70.5 76.4 70.6C76.4 70.7 76.3 70.8 76.3 70.8C76.3 70.8 76.1 71.1 76.2 71.1C76.4 71.2 76.7 71 76.9 70.9C77.1 70.8 77.3 70.8 77.5 70.7C78.3 70.4 79 70.2 79.8 69.9C80.4 69.7 81.1 69.4 81.7 69.2C82 69.1 82.4 69 82.7 69C82.8 69 83.4 68.8 83.2 69.1C83.1 69.2 82.9 69.3 82.7 69.4L81.5 70C82.5 69.8 83.5 69.5 84.5 69.2C86.4 68.6 88.3 67.9 90.2 67.4C92.6 66.8 94.9 66 97.2 65.3C98.3 65 99.4 64.6 100.5 64.4L105.6 63.2C106 63.1 106.5 63.1 107 63C107.7 62.8 108.5 62.7 109.2 62.4C109.8 62.2 110.3 61.9 111 62C111.1 62 111.3 61.9 111.4 61.9C111.5 61.9 111.7 61.8 111.8 61.8C112.3 61.9 112.7 61.9 113.2 61.8H113.6C113.8 61.9 113.7 61.9 113.6 62C113.3 62.2 113.1 62.7 112.6 62.7C112.3 62.7 112.1 62.8 111.9 62.9H111.5C111.4 62.9 111.3 62.8 111.2 62.8C111 62.7 110.6 62.8 110.4 62.9C110.1 63 109.9 63.1 109.6 63.1C108.3 63.4 107.1 63.7 105.8 64.1C105.4 64.2 105.1 64.4 104.7 64.5C105.7 64.3 106.6 64.1 107.5 63.9C108 63.8 108.5 63.8 109 63.6C109.5 63.4 110.1 63.1 110.7 63.5C110.8 63.6 111.1 63.5 111.3 63.5C112.2 63.2 113.2 62.9 114.1 62.7C116.3 62.3 118.5 61.7 120.7 61.1C121 61 121.4 61.1 121.6 61.1C121.9 61 122.1 60.8 122.3 60.8C124.9 60.2 127.4 59.6 130 59C130.7 58.8 131.5 58.6 132.2 58.5C132.5 58.4 132.9 58.4 133.3 58.4C133.4 58.4 133.6 58.3 133.7 58.4C133.9 58.6 133.2 58.8 133.1 58.8C132.8 58.9 132.4 59.1 132.1 59.2C131 59.5 129.8 59.8 128.6 60C128.4 60.1 128.1 60 127.9 60C127.5 60 127.2 60 126.9 60.2C126.7 60.3 126.6 60.4 126.4 60.5C126.4 60.5 126.2 60.6 126.3 60.7C126.4 60.8 126.7 60.7 126.7 60.7C127.7 60.5 128.8 60.3 129.8 60.1C131.1 59.8 132.4 59.5 133.7 59.3C134.3 59.2 134.8 59 135.3 58.8C135.6 58.7 135.9 58.7 136.1 58.6C136.3 58.6 136.5 58.6 136.7 58.5L137.3 58.2C137.8 58.1 138.4 58 138.9 57.9C139.1 57.9 139.3 57.8 139.5 57.8C139.6 57.8 139.7 57.9 139.8 57.9C139.9 58 139.9 58.1 140 58.1C140.2 58.1 140.3 57.9 140.5 58C140.6 58.1 140.7 58.2 140.9 58.1C141.1 58 141.3 57.8 141.5 57.7C141.6 57.6 141.6 57.6 141.6 57.5C141.6 57.4 141.5 57.4 141.4 57.3C141.3 57 142.4 57 142.6 57.1C143.2 57.5 143.8 57.2 144.4 57.1C144.8 57.1 145.2 56.9 145.7 56.8C145.8 56.8 146.1 56.7 146.1 56.6V56.3C146.1 56 146.9 56 147.1 56C147.4 56 147.6 56 147.9 55.9L148.2 55.6C148.3 55.4 148.8 55.5 148.9 55.7C149 55.9 148.7 56.3 149.1 56.2C149.3 56.2 149.5 55.9 149.7 55.8C149.9 55.7 150.2 55.7 150.4 55.9C150.5 56 150.5 56.2 150.5 56.3C150.6 56.5 151 56.3 151.1 56.2C151.2 56.2 151.4 56.2 151.4 56C151.4 55.8 151.1 55.6 151 55.5C150.9 55.4 150.7 55.3 150.8 55.2C150.9 55.1 151.2 55 151.3 55C151.4 55 151.5 55 151.6 55.1C151.7 55.2 151.7 55.3 151.9 55.3H152.3C152.5 55.3 152.6 55.2 152.8 55.2C153.1 55.2 153.5 55.3 153.8 55.1C154.4 54.8 154.8 55 155.2 55.4C155.4 55.6 155.9 55.6 155.9 55.3C155.9 55.1 155.6 54.9 155.5 54.8L155.2 54.5C155.1 54.3 155.5 54.2 155.7 54.1C155.8 54.1 155.8 54 155.9 54C156.2 53.9 156.3 54.5 156.5 54.7C156.6 54.8 156.7 55 156.8 54.9C157 54.9 157 54.5 157.1 54.3C157.2 54.1 157.6 54.1 157.7 54.3C157.8 54.4 157.8 54.6 157.9 54.8C158 54.9 158.4 54.9 158.4 54.8C158.4 54.7 158.3 54.5 158.2 54.5C158.1 54.4 157.9 54.2 158 54C158 54 158.5 53.9 158.6 53.9C158.7 53.9 158.9 53.8 159 53.9C159.1 54 159 54.2 159 54.3C159 54.4 159 54.5 159.1 54.5C159.3 54.6 159.4 54.4 159.4 54.3C159.4 54.2 159.4 53.9 159.5 53.7C159.6 53.6 159.7 53.6 159.8 53.6C160 53.6 160.2 53.5 160.3 53.6C160.5 53.7 160.5 53.8 160.5 54C160.7 54.4 161.3 54.2 161.6 54.1C162.1 54 162.6 54 163.1 53.9L164.3 53.6C164.5 53.5 164.7 53.5 164.9 53.4C165.1 53.3 165.2 53 165.3 52.8C165.4 52.7 165.5 52.5 165.6 52.5C165.8 52.5 166.1 52.8 166.3 52.9C166.4 53 166.6 53.1 166.8 53.1C167 53.1 167.2 52.8 167.4 52.8H168.7C168.9 52.7 168.8 52.6 168.8 52.4C168.8 52.2 169 52.2 169.2 52.2C170.1 52.1 171 52.3 171.9 52C172 51.9 172.3 52 172.4 52H172.9L173.8 51.7C173.9 51.6 174.1 51.6 174.2 51.6H174.6C174.7 51.6 174.8 51.5 174.9 51.5C175.1 51.4 175.4 51.4 175.6 51.4C176.1 51.4 176.6 51.4 177 51.1H177.9C178.6 51 179.3 51 179.9 50.6H180.2C181.8 50.4 183.4 50.3 185 50.1C187.6 49.8 190.1 49.4 192.7 49.2C194.1 49.1 195.4 49 196.8 48.9C198.4 48.8 199.9 48.6 201.5 48.4C202.6 48.3 203.8 48.1 204.9 48C207 47.9 209.2 47.8 211.3 47.7C212.5 47.6 213.6 47.5 214.8 47.4C217.1 47.3 219.4 47.3 221.7 47.3H227.6C228.8 47.3 229.9 47.4 231.1 47.5C232.7 47.6 234.4 47.7 236 47.7C237.2 47.7 238.3 48.2 239.5 48H239.7C240.7 48.2 241.6 48.3 242.6 48.5C243.8 48.7 244.9 48.9 246.1 49.2C247 49.4 248 49.7 248.9 49.9C249.7 50.1 250.5 50.4 251.4 50.3C251.8 50.3 252 50.1 252.3 50C252.7 49.9 253.1 50 253.6 50C253.9 50 254.2 50.1 254 49.7C253.7 49.2 252.9 49 252.5 48.8C252 48.5 251.3 47.7 252.4 48L253.9 48.3L255.7 48.6C255.9 48.6 256.1 48.7 256.3 48.4C256.4 48.3 256.6 48.2 256.8 48.2H257.7C258.2 48.2 259.5 48.3 259.7 47.8C258.8 47.1 257.5 46.7 256.5 46C256.1 45.7 255.7 45.4 255.2 45.1C254.7 44.8 254.2 44.4 253.7 44.1C252.2 43.2 250.7 42.4 249.2 41.5C249 41.4 248.6 41.2 248.5 41C248.3 40.4 247.9 40.2 247.4 40.1C246.8 40 246.4 39.6 245.9 39.3C245 38.8 244.1 38.3 243.3 37.7C242.6 37.1 241.8 36.7 241.2 35.9C240.8 35.3 240.3 34.9 239.8 34.3C239.6 34 239.4 33.9 239 33.8C238.6 33.7 238.2 33.5 237.8 33.3C237.7 33.2 237.6 33.2 237.6 33C237.6 32.8 237.7 32.7 237.6 32.5C237.6 32.4 237.4 32.3 237.4 32.2C237.3 32 237.2 31.9 237.1 31.7C237 31.6 236.6 31.2 236.9 31.1H237.4C237.6 31.1 237.8 31.1 238 31.2C239 31.5 240 32.1 241.1 32C241.3 32 241.4 32.1 241.6 32.2C241.7 32.2 242 32.3 242 32.1C242 32 241.9 31.8 241.9 31.8C241.3 30.9 240.7 30.1 240.1 29.2C239.9 28.9 239.7 28.7 239.6 28.5C239.2 27.7 238.7 26.9 238 26.4C237.9 26.3 237.8 26.2 237.8 26.1C237.3 25.3 236.8 24.4 236 23.8C235.9 23.7 235.9 23.6 235.8 23.6L234.6 22.1C234.4 21.9 234.3 21.6 234.1 21.4C234 21.2 233.9 21 233.7 20.8L231.9 18.7L231.6 18.1C231.5 17.9 231.5 17.8 231.4 17.6C230.8 16.8 230.1 16 229.5 15.1C228.8 14.1 228.1 13.1 227.1 12.4C226.9 12.3 226.7 11.9 226.7 11.7C226.6 11.4 226.9 11.2 226.8 11C226.7 10.8 226.5 10.8 226.3 10.7C226.1 10.5 225.8 10.3 225.6 10.2C225.4 10.1 225.2 9.9 225.1 9.8C224.7 8.9 223.9 8.5 223.1 8.1C221.9 7.5 220.6 6.9 219.4 6.4C217.9 5.8 216.4 5.2 214.9 4.7C212.7 4.1 210.5 3.7 208.3 3.1C205.8 2.5 203.2 2 200.6 1.7C198.6 1.4 196.7 1.2 194.7 0.9C192.9 0.7 191.1 0.6 189.2 0.5C188 0.4 186.8 0.5 185.6 0.4C182.2 0 178.8 0 175.3 0C175 0 174.7 0 174.5 0.2C174.2 0.4 173.9 0.3 173.6 0.2C173.5 0.2 173.3 0.1 173.2 0.1C171.8 0 170.4 0 168.9 0.1C168.5 0.1 168 0.1 167.7 0.5C167.6 0.6 167.5 0.5 167.5 0.4C167.4 0.3 167.3 0.3 167.2 0.3H166.8C166.6 0.3 166.3 0.3 166.1 0.2C165.9 0.2 165.8 0.2 165.6 0.3C165.4 0.4 165.3 0.4 165.1 0.4C164.8 0.4 164.5 0.4 164.2 0.3C163.9 0.2 163.6 0.3 163.4 0.4C162.4 0.8 161.2 0.6 160.2 0.8C160.1 0.8 160 0.7 159.8 0.7H159.1C158.7 0.7 158.3 0.9 158 1C157.8 1.1 157.6 1.1 157.4 1.1C157.2 1.1 157.1 0.9 156.8 1C156.7 1 156.6 1.1 156.6 1.1C156.4 1.2 156.2 1.2 156 1.3C155.6 1.4 155.2 1.4 154.7 1.5C154.5 1.5 154.4 1.7 154.2 1.8C154 1.8 153.9 2 153.7 2C153.5 2 153.4 1.9 153.2 1.9L152.6 1.6C152.2 1.4 152.1 1.4 152 1.8C151.9 2.1 151.8 2.1 151.5 2.2H150.8C150.6 2.2 150.3 2.2 150.2 2.5C150.2 2.6 150.2 2.8 150 2.8C149.9 2.9 149.7 2.9 149.5 2.9C149.2 2.9 148.9 3 148.6 3C148.4 3 148.1 3 147.9 3.1C147.7 3.1 147.7 3.1 147.6 2.9C147.6 2.8 147.5 2.7 147.4 2.7C147.3 2.7 147.1 2.8 147 2.9C146.8 3 146.5 3.2 146.3 3.3C145.8 3.5 145.3 3.5 144.9 3.7C144.7 3.8 144.6 3.8 144.4 3.7C144.3 3.7 144.2 3.5 144 3.6C144 3.6 144 3.7 143.9 3.8C143.8 3.9 143.7 4 143.6 4C143.5 4 143.3 4.1 143.2 4C143.1 3.9 143.1 3.7 143 3.7C142.9 3.7 142.8 3.7 142.7 3.8C142.4 4.2 142 4.1 141.7 4C141.4 4 141.2 3.8 140.9 3.8C140.7 3.8 140.5 3.9 140.4 4C140.3 4.1 140.1 4.3 139.9 4.2C139.7 4.1 139.5 3.8 139.3 4.1C139.2 4.2 139.2 4.4 139 4.4H138.5C138.3 4.4 138.1 4.6 138 4.7C137.9 4.8 137.7 4.9 137.5 4.9H136.9C136.8 4.9 136.7 4.9 136.6 4.8C136.5 4.7 136.5 4.5 136.3 4.6C136.2 4.7 136.1 4.7 136 4.8C135.8 4.8 135.6 4.5 135.5 4.7C135.5 4.8 135.5 4.9 135.4 5C135.4 5.2 135.3 5.4 135.1 5.5C134.9 5.6 134.5 5.6 134.3 5.5C134.2 5.4 134.1 5.2 134 5.1C133.9 5 133.9 4.9 133.8 4.9C133.7 4.9 133.6 4.9 133.5 5C133.4 5.1 133.4 5.2 133.3 5.3C133.2 5.5 133.1 5.6 132.9 5.7C132.6 5.9 132.3 6 131.9 6.1C130.4 6.5 128.8 6.9 127.3 7.2C127 7.3 126.6 7.4 126.3 7.2C126.2 7.2 126 7.1 126 7.2C125.7 7.7 125.2 7.5 124.7 7.5C123.8 7.5 123.1 8.2 122.3 8.6C121.7 8.9 121.3 9.1 120.7 8.9C120.6 8.9 120.4 8.8 120.3 8.9C120.1 9.1 120 9.1 119.8 8.9C119.7 8.8 119.6 8.8 119.4 8.8H118.8C118.7 8.8 118.5 8.8 118.4 8.9C118.3 9 118.4 9.1 118.3 9.2C118.2 9.3 118.1 9.2 118 9.2C117.8 9.1 117.5 9.1 117.3 9.2C117.2 9.2 117.1 9.3 117 9.4C116.9 9.5 116.9 9.6 116.8 9.7C116.6 9.8 116.4 9.6 116.3 9.7C116.2 9.7 116.2 9.9 116.2 9.9L115.9 10.2C115.7 10.4 115.3 10.4 115 10.4C114.6 10.5 114.3 10.6 113.9 10.6C113.6 10.6 113.3 10.4 113 10.5C112.8 10.5 112.6 10.6 112.5 10.6C112.1 10.7 111.8 10.8 111.4 10.9C111.2 11 111.1 11.1 111 11.2C110.9 11.3 110.8 11.4 110.6 11.4C110.3 11.5 110.1 11.2 109.9 11.1C109.6 10.9 109.4 11 109.1 11.2C108.9 11.3 108.8 11.5 108.8 11.7C108.8 11.9 108.9 12.1 108.9 12.3C108.9 12.4 109 12.6 108.9 12.7C108.8 12.9 108.6 12.8 108.5 12.7C108.4 12.6 108.4 12.4 108.3 12.4C108.2 12.4 108 12.4 107.8 12.5C107.3 12.6 106.8 12.6 106.3 12.7C106.2 12.7 106 12.6 105.9 12.5C105.8 12.4 106.1 12.3 105.9 12.2C105.8 12.2 105.7 12.2 105.6 12.3C105.4 12.4 105.2 12.4 105 12.5C104.6 12.6 104.2 12.7 103.8 12.9C103.1 13.2 102.2 13.3 101.5 13.6C101.4 13.7 101 13.7 101.1 13.9C101.1 14 101.3 14.1 101.4 14.2C101.5 14.3 101.8 14.6 101.6 14.8C101.5 15 101.1 14.8 100.9 14.8C100.4 14.9 99.8 15.1 99.3 15.3C99.1 15.4 98.9 15.3 98.7 15.2C98.6 15.2 98.2 15.1 98.3 14.9C98.3 14.9 98.4 14.8 98.5 14.8C98.6 14.8 98.7 14.7 98.8 14.7C98.9 14.6 99 14.4 98.9 14.3C98.8 14.1 98.4 14.4 98.2 14.5C98 14.5 97.7 14.4 97.6 14.6C98 14.5 98 14.6 98 14.6C97.9 14.7 97.8 14.9 97.7 15C97.4 15.2 97.1 15.3 96.7 15.3C96.4 15.4 96 15.5 95.7 15.5C95.5 15.6 95.1 15.6 95.1 15.8C95.1 16 95.4 16.5 95 16.5C94.9 16.5 94.9 16.4 94.8 16.4C94.4 15.9 94.4 15.9 93.8 16.1C93.5 16.2 93.2 16.3 92.9 16.3C92.8 16.3 92.7 16.2 92.5 16.2C92.4 16.2 92.3 16.3 92.3 16.4C92.2 16.5 92.1 16.7 92 16.5C91.9 16.4 91.9 16.3 91.8 16.3C91.6 16.3 91.5 16.4 91.4 16.4C91.2 16.5 91 16.6 90.8 16.6C90.5 16.7 90.3 16.8 90.4 17.1C90.4 17.5 90 17.2 89.9 17.2C89.7 17.1 89.5 17 89.2 17.1C88.9 17.2 88.5 17.6 88.9 17.8C89.1 17.9 89.3 17.8 89.5 17.8C89.6 17.8 89.8 17.7 89.9 17.9C89.9 18 89.8 18.1 89.7 18.2C89.5 18.3 89.3 18.3 89.1 18.4C88.5 18.5 88 18.7 87.4 18.9C87.1 19 86.8 19 86.4 18.9C86 18.7 85.5 18.1 85 18.7C84.9 19 84.8 19.4 84.7 19.7C84.7 19.8 84.6 20 84.5 20.1C84.4 20.2 84.2 20.1 84.2 20C84 19.8 83.7 19.7 83.5 19.5C83.2 19.3 82.7 19.5 82.3 19.6C81.9 19.7 81.4 19.8 81 20C80.7 20.1 80.3 20.2 80.4 20.7C80.4 21 80 21.1 79.8 21C79.7 20.9 79.6 20.9 79.4 20.9C79.3 20.9 79.2 21 79.2 21.1C79.1 21.3 78.9 21.5 78.7 21.6C78 21.9 77.2 22.2 76.5 22.5C76.2 22.6 75.8 22.6 75.5 22.7C75.2 22.8 74.9 23.1 74.6 23.2C74.3 23.3 74 23.4 73.8 23.5C73.3 23.7 72.8 24 72.3 24.1C72 24.2 71.8 24.3 71.5 24.3C71.3 24.3 71 24.3 70.9 24.5C70.8 24.6 70.7 24.9 70.7 25C70.7 25.2 70.7 25.4 71 25.4C71.3 25.3 71.5 25.2 71.8 25.1C72 25 72.2 25.1 72.4 25.2C72.6 25.4 72.4 25.5 72.2 25.6L71.7 26.1C71.6 26.2 71.4 26.3 71.3 26.3C71.1 26.3 70.8 26.2 70.6 26.3C70.5 26.3 70.4 26.4 70.3 26.4C70 26.5 69.7 26.6 69.5 26.7C68.9 26.9 68.4 27.1 67.8 27.3C67.6 27.4 67.4 27.5 67.3 27.3C67.1 27 67.4 26.9 67.6 26.8C67.7 26.7 67.8 26.7 68 26.7C68.1 26.6 68.3 26.6 68.4 26.5C68.7 26.2 69.1 25.9 69.5 25.7C69.7 25.6 70.5 25.5 70.4 25.1C70.4 24.9 69.6 25.2 69.5 25.3C69.1 25.4 68.6 25.6 68.2 25.8C67.8 26 67.4 26.1 66.9 26.2C66.7 26.3 65.9 26.6 66.3 26.9C66.4 27 66.5 27 66.6 27.1C66.7 27.2 66.9 27.3 66.9 27.5C66.9 27.7 66.6 27.7 66.4 27.8C66 28 65.6 28.4 65.1 28.4C64.5 28.5 64 28.8 63.5 29.1C63.2 29.3 63 29.4 62.7 29.3C62.6 29.2 62.5 29.1 62.5 28.9C62.5 28.6 62.8 28.5 63.1 28.3C63.7 28.1 64.3 27.8 65 27.5C65.2 27.4 65.4 27.2 65.4 27.1C65.5 27 65.4 26.9 65.2 26.9C65.1 26.9 65 26.8 64.8 26.9C64 27.2 63.2 27.5 62.4 27.9C62.1 28.1 61.8 28.2 61.4 28.2C61.1 28.2 60.9 28.1 60.7 28.4C60.6 28.5 60.5 28.6 60.4 28.8C60.3 28.9 60.3 29.2 60.4 29.4C60.6 29.6 60.9 29.3 61.1 29.3C61.2 29.3 61.4 29.3 61.5 29.4C61.6 29.5 61.3 29.7 61.3 29.7C61.2 29.8 61 29.8 60.8 29.9C60.7 30 60.5 30 60.4 30.1C60.3 30.2 60.3 30.4 60.4 30.5C60.6 30.6 60.9 30.5 61.1 30.4C61.8 30.1 62.5 29.9 63.2 29.6C63.3 29.6 63.4 29.5 63.4 29.6C63.6 29.6 63.7 29.7 63.9 29.7C64 29.7 64.2 29.8 64.3 29.8C64.4 29.9 64.1 30 64.1 30.2C64.1 30.3 64.3 30.4 64.4 30.4C64.7 30.6 63.7 30.9 63.6 30.9C63.3 30.9 63.1 30.6 62.9 30.4C62.7 30.3 62.6 30.4 62.5 30.5C62.4 30.7 62.2 30.8 62 30.9C61.3 31.1 61.1 31.5 60.9 32.1C60.8 32.4 60.5 32.9 60.2 32.7C60 32.6 59.9 32.2 59.6 32.2C59.4 32.2 59.2 32.3 59 32.4C58.9 32.5 58.8 32.5 58.7 32.4C58.6 32.4 58.6 32.3 58.5 32.2C58.4 32.1 58.3 32.3 58.2 32.3C58 32.5 57.9 32.8 57.8 33C57.7 33.2 57.2 33.7 57 33.4C56.9 33.3 56.9 33.1 56.8 33C56.7 32.9 56.7 32.7 56.5 32.7C56.4 32.7 56.4 32.7 56.3 32.8C56.2 32.9 55.9 33 56 33.2C56 33.3 56.2 33.3 56.2 33.4V34.3C56.2 34.4 56.2 34.6 56.1 34.6H55.9C55.7 34.5 55.8 34.1 55.5 34.1C55.3 34.1 55.2 34.2 55 34.3C54.6 34.5 54.2 34.6 53.9 34.8C53.7 34.9 53.3 35 53.2 35.2C53.1 35.4 53.2 35.6 53.1 35.7C53 35.9 52.8 36 52.5 36.1C52.4 36.1 52.3 36.2 52.2 36.2C52.1 36.2 52 36.3 51.9 36.3C51.7 36.3 51.8 36 51.6 35.9C51.4 35.8 51.3 36 51.1 36C50.9 36.1 50.6 36.2 50.4 36.3L49.8 36.6C49.7 36.7 49.5 36.7 49.4 36.8C49.2 37 49.4 37.4 49.3 37.7C49.2 38 48.6 38.1 48.2 38C47.8 37.9 48.5 37.5 48.3 37.4C48.2 37.3 48.1 37.4 48.1 37.4C47.9 37.5 47.7 37.6 47.6 37.8C47.5 37.9 47.4 38.1 47.4 38C46.9 37.7 47 38.3 46.7 38.4C46.5 38.3 46.3 38 46.1 38.2C45.9 38.4 46.2 38.5 46.3 38.6C46.5 38.8 46.5 39 46.3 39.1C46.1 39.3 45.7 38.9 45.4 39C44.7 39.3 44.1 39.6 43.6 40.3C43.4 40.6 43.1 40.9 42.8 41C42.3 41.2 41.8 41.4 41.2 41.6C40.9 41.7 40.5 41.9 40.3 42.2C40.2 42.3 40.2 42.5 40 42.5C39.9 42.5 39.8 42.3 39.6 42.3C39.4 42.3 39.2 42.4 39.1 42.5C38.9 42.7 38.8 42.9 38.6 43.1C38.5 43.3 38.4 43.5 38.2 43.4C38 43.4 37.9 43.2 37.7 43.4C37.6 43.5 37.6 43.6 37.5 43.7C37.2 44.5 37.1 44.6 36.9 44.6V44.6ZM12.6 64.5C12.8 64.4 12.9 64.3 13 64.2C13.1 64.1 13.3 64 13.4 64C13.5 64 13.9 63.8 13.7 63.7C13.6 63.6 13.4 63.8 13.3 63.9C13.2 64 13 64.1 12.9 64.3C12.7 64.5 12.5 64.6 12.2 64.8C12 64.9 11.9 65.1 11.8 65.3C12 65.3 12.4 65 12.5 64.9C12.5 64.7 12.5 64.6 12.6 64.5ZM16 66.2C16.1 66.1 16.3 66.1 16.4 66C16.4 66 16.7 65.9 16.6 65.8C16.4 65.9 16.3 65.9 16.1 66C15.9 66.2 15.7 66.2 15.5 66.3C15.4 66.4 15.2 66.4 15.1 66.5C15 66.6 14.9 66.8 15.1 66.7C15.4 66.6 15.7 66.4 16 66.2V66.2ZM14.7 67.7C14.7 67.6 15 67.6 15.1 67.6C15.2 67.6 15.2 67.6 15.3 67.5C15.3 67.4 15.4 67.4 15.4 67.3V66.9C15.2 66.9 15.1 67.1 15 67.2C14.9 67.4 14.8 67.6 14.6 67.5C14.5 67.5 14.4 67.4 14.3 67.4C14 67.6 14 67.8 13.9 68C13.8 68.1 13.6 68.2 13.6 68.3C13.6 68.4 13.8 68.3 13.9 68.3C14 68.3 14.1 68.3 14.2 68.2C14.4 68.1 14.6 67.9 14.7 67.7V67.7ZM39.1 75.8H39.4C39.6 75.8 39.8 75.8 40 75.7C40.3 75.5 40.4 75.2 40.6 74.9C40.7 74.7 40.6 74.7 40.4 74.7C40.2 74.7 40.1 74.8 39.9 74.8C39.7 74.9 39.7 75 39.7 75.2C39.7 75.4 39.6 75.5 39.5 75.6C39.3 75.7 39.1 75.8 39 75.8H38.6C38.1 75.9 37.6 76.1 37.1 76.3C36.9 76.4 36.7 76.5 36.7 76.7C36.7 77.1 37.3 76.8 37.5 76.7C38 76.5 38.7 76.4 39.1 76C39 75.9 39.1 75.8 39.1 75.8V75.8ZM83.2 21.2C83.2 21.1 83.2 21.1 83.2 21.2C82.8 21 82.1 21.4 81.8 21.6C81.3 21.8 80.8 22 80.3 22.1C80.1 22.1 79.9 22.2 79.7 22.3C78.7 22.7 77.7 23 76.8 23.4C76.2 23.7 75.5 23.9 74.9 24.2C74.8 24.3 74.6 24.3 74.5 24.3C74.4 24.3 74 24.4 74.1 24.6C74.2 24.8 74.5 24.7 74.7 24.6L75.6 24.3C76.2 24.1 76.8 23.9 77.3 23.7C78.1 23.4 79 23.2 79.7 22.7C79.8 22.7 79.8 22.7 79.9 22.6C80.2 22.5 80.5 22.4 80.9 22.3C81.4 22.1 82 21.9 82.5 21.8C82.5 21.8 83.4 21.4 83.2 21.2V21.2ZM13.9 75.8C13.8 75.9 13.8 76 13.9 76C14.1 76.1 14.6 75.8 14.8 75.6C14.9 75.5 15 75.3 15.2 75.3C15.5 75.2 15.8 75.1 16 75C16.1 74.9 16.3 74.9 16.4 74.8L16.7 74.5C16.8 74.4 17 74.5 17.1 74.4C17.3 74.4 17.4 74.3 17.6 74.3C17.9 74.2 18.2 74 18.4 73.8C18.6 73.6 18.8 73.6 19.1 73.5C19.6 73.2 20.2 73 20.6 72.7C20.8 72.6 21 72.4 21.2 72.3C21.5 72.2 21.7 72.1 22 71.9C22.1 71.9 22.5 71.5 22.4 71.4C22.3 71.3 22 71.5 21.9 71.5C21.7 71.6 21.5 71.7 21.3 71.7C21 71.8 20.7 72 20.3 72C20.2 72 20.1 72.1 20.1 72.2C19.9 72.7 19.5 72.6 19.1 72.5C19 72.5 18.3 72.4 18.4 72.7L18.6 73C18.5 73.2 18.4 73.4 18.2 73.4C18 73.4 17.9 73.3 17.7 73.3C17.4 73.4 17.4 73.9 17.1 73.9C16.3 74 15.7 74.7 15 74.9C14.7 75 14.5 75.2 14.2 75.3C14.2 75.5 14 75.6 13.9 75.8V75.8ZM120.2 10C120.3 10.1 120.5 10 120.7 10C121 9.9 121.4 9.9 121.7 9.8C122.4 9.6 123.1 9.4 123.7 9.1L124.3 8.8C124.3 8.8 124.8 8.5 124.7 8.5H124.3C124.2 8.5 124 8.6 123.8 8.6C123.5 8.7 123.2 8.7 122.9 8.8C122.6 8.9 122.4 8.9 122.2 9C122 9.1 121.9 9.3 121.6 9.4C121.3 9.5 120.9 9.5 120.6 9.5C120.5 9.5 120.3 9.5 120.2 9.6C120.1 9.8 120 9.9 120.2 10V10ZM92.9 18.8C93 18.9 93.2 18.8 93.3 18.8C93.6 18.8 93.9 18.7 94.2 18.7C94.8 18.6 95.5 18.4 96.1 18.1C96.2 18.1 97 17.6 97 17.6C96.9 17.5 96.7 17.6 96.6 17.6C96.4 17.6 96.3 17.7 96.1 17.7C95.8 17.8 95.5 17.9 95.1 17.9C94.5 18.1 93.9 18.2 93.2 18.4C93.2 18.5 92.9 18.7 92.9 18.8V18.8ZM72.9 26.2H72.7C72.5 26.2 72.3 26.3 72.1 26.4C71.7 26.5 71.3 26.7 70.8 26.9C70 27.2 69.2 27.5 68.4 27.7C68.1 27.7 67.9 27.9 67.9 28.2C67.9 28.5 68.7 28.1 68.9 28.1C69.7 27.8 70.4 27.4 71.3 27.2C71.7 27.1 72 27 72.3 26.8C72.5 26.7 72.6 26.6 72.8 26.4C72.8 26.3 72.9 26.3 72.9 26.2V26.2ZM119.2 11.3C119.2 11 118.3 11.4 118.2 11.4L117 11.7L114.6 12.3C114.5 12.3 114.3 12.4 114.3 12.5C114.2 12.7 114.4 12.7 114.5 12.7C114.7 12.6 115 12.6 115.2 12.5C115.7 12.4 116.1 12.2 116.6 12.1C116.7 12 119.1 11.5 119.2 11.3V11.3ZM129.2 7.8C129.1 7.7 128.8 7.8 128.6 7.8C128.2 7.8 127.9 7.9 127.5 8C126.9 8.1 126.3 8.3 125.8 8.6C125.8 8.6 125.7 8.6 125.7 8.7C125.7 8.8 126.2 8.7 126.3 8.7C126.6 8.6 126.9 8.5 127.1 8.6C127.6 8.8 128.1 8.5 128.6 8.5C128.8 8.5 128.9 8.4 129 8.2C129.2 8 129.3 7.9 129.2 7.8V7.8ZM13.7 70.8C13.5 70.8 13.3 70.9 13.1 70.9C13 71 12.8 71 12.6 71C12.5 71 12.2 70.7 12.2 71C12.2 71.5 11.9 71.5 11.6 71.7C11.5 71.8 11.1 72 11.2 72.1C11.2 72.2 11.8 71.9 11.8 71.9C12.1 71.8 12.3 71.7 12.6 71.5C12.9 71.4 13.1 71.2 13.3 71C13.4 71.1 13.7 70.9 13.7 70.8V70.8ZM95.4 17C95.5 17.2 96.7 16.8 96.9 16.8C97.2 16.7 97.5 16.6 97.7 16.4C97.8 16.3 98 16.2 98 16.1C98 16 97.8 16 97.8 16C97.7 16 97.6 16 97.4 16.1C97.2 16.1 96.9 16.2 96.7 16.3C96.5 16.4 96.3 16.5 96 16.6C95.9 16.7 95.8 16.7 95.7 16.8C95.6 16.8 95.4 16.9 95.4 17V17ZM87.2 20.2C87.2 20.2 87.2 20.3 87.2 20.2C87.5 20.2 87.7 20.1 87.8 20.1C88 20 88.2 20 88.4 19.9C88.6 19.8 88.6 19.5 88.5 19.4C88.3 19.3 88.1 19.4 88 19.4C87.8 19.5 87.6 19.5 87.4 19.4C87.3 19.4 87.2 19.2 87.1 19.2C87 19.2 86.9 19.3 86.9 19.4V19.7C87 19.9 87 20.2 87.2 20.2V20.2ZM19.9 69.4C20 69.3 20 69.2 19.8 69.2C19.5 69.1 19.1 69.5 18.9 69.6C18.5 69.8 18.2 70.1 17.9 70.3C17.8 70.4 17.5 70.5 17.5 70.7L17.8 70.6C17.9 70.5 18.1 70.5 18.2 70.4C18.5 70.3 18.7 70.2 19 70C19.3 69.9 19.5 69.7 19.7 69.5C19.8 69.6 19.9 69.5 19.9 69.4V69.4ZM11.1 63.4C11.3 63.4 11.9 62.9 11.9 62.9C12.1 62.8 12.4 62.5 12.2 62.3C12 62.1 11.5 62.4 11.3 62.6C11.1 62.7 11 63.1 11.1 63.4C11 63.4 11.1 63.4 11.1 63.4V63.4ZM117.6 10.6C117.7 10.5 117.7 10.5 117.5 10.5C117.3 10.5 117 10.6 116.8 10.6L115.3 10.9C115.2 10.9 115.1 11 115 11.1C114.9 11.3 115.2 11.3 115.3 11.3C115.6 11.2 115.8 11.2 116.1 11.1C116.5 11 116.8 10.9 117.2 10.9C117.3 10.7 117.5 10.7 117.6 10.6ZM112.2 12C112.1 11.9 111.8 11.8 111.7 11.8C111.5 11.8 111.3 11.9 111.1 12C111 12 110.9 12.2 110.8 12.4C110.7 12.6 110.8 12.7 111 12.6C111.3 12.6 111.5 12.6 111.7 12.4C111.8 12.4 112.2 12.2 112.2 12V12ZM73.4 26C73.6 26.1 74 25.9 74.2 25.9C74.5 25.8 74.7 25.8 75 25.7C75.1 25.6 75.3 25.6 75.4 25.5C75.5 25.5 75.7 25.4 75.8 25.3C75.9 25.1 75.5 25.3 75.4 25.3C75.2 25.4 75 25.4 74.7 25.5C74.5 25.6 74.2 25.7 74 25.8C73.8 25.8 73.4 25.9 73.4 26ZM17.4 58.5C17.4 58.6 17.3 58.6 17.3 58.7C17.3 59 17.8 58.6 17.9 58.5C18.2 58.3 18.4 58.2 18.7 58.1C19 58 19.3 57.8 19.5 57.7C19.6 57.6 19.8 57.5 19.9 57.4C20 57.3 20.1 57.3 20.1 57.2C20 57.2 19.8 57.3 19.7 57.3C19.6 57.3 19.5 57.4 19.4 57.4C19.1 57.5 18.9 57.7 18.6 57.8C18.3 57.9 18.1 58.1 17.8 58.2C17.7 58.3 17.5 58.4 17.4 58.5ZM110.8 13.6C110.9 13.7 111.1 13.6 111.1 13.6C111.4 13.6 111.6 13.5 111.8 13.4C112 13.3 112.2 13.2 112.4 13.2C112.5 13.1 112.8 13.1 112.8 12.9C112.7 12.8 112.5 12.9 112.4 12.9C112.2 13 112.1 13 111.9 13C111.6 13.1 111.3 13.1 110.9 13.2C110.8 13.2 110.8 13.3 110.7 13.3C110.7 13.4 110.7 13.5 110.8 13.6V13.6ZM94.3 17.4C94.1 17.3 93.9 17.4 93.7 17.4C93.6 17.4 93.4 17.4 93.3 17.5C93.2 17.6 93.1 17.7 93.1 17.8C93.1 17.9 93 18.1 93.1 18.1H93.5C93.7 18.1 93.8 18.1 94 18L94.3 17.7C94.3 17.6 94.4 17.5 94.3 17.4ZM28.3 50.3C28.5 50.4 28.8 50.3 28.9 50.2C29.1 50.1 29.2 50 29.4 49.9C29.5 49.8 29.7 49.6 29.6 49.5C29.6 49.4 29.4 49.5 29.3 49.5C29.1 49.5 29 49.6 28.9 49.7C28.8 49.8 28.6 49.9 28.5 50C28.4 50 28.2 50.2 28.3 50.3V50.3ZM30.2 70.4C30.2 70.4 30.1 70.3 30 70.3C29.9 70.3 29.7 70.3 29.6 70.4C29.5 70.4 29.3 70.4 29.3 70.5C29.2 70.6 29.1 71 29.4 71.1C29.5 71.1 29.7 70.9 29.8 70.8C29.9 70.7 30.1 70.6 30.2 70.4C30.2 70.5 30.3 70.5 30.2 70.4V70.4ZM16 67.1C16 67.1 15.9 67.1 16 67.1C15.9 67.4 16.8 66.9 16.8 66.8C17 66.7 17.3 66.5 17.5 66.4C17.6 66.4 18.3 65.9 18.1 65.9C18 65.9 17.8 66 17.8 66.1C17.7 66.2 17.6 66.2 17.4 66.3C17.2 66.4 17 66.5 16.9 66.6L16.3 66.9C16.2 67 16.1 67 16 67.1ZM14.7 69.8C14.8 69.7 14.8 69.7 14.7 69.6C14.5 69.5 13.2 70.4 13.3 70.5C13.4 70.7 14.2 70 14.3 70C14.4 70 14.6 69.9 14.7 69.8ZM12.6 69C12.7 69 12.7 68.8 12.8 68.8C12.9 68.7 13.3 68.2 13.2 68.1C13.1 68 12.9 68.2 12.8 68.2C12.6 68.3 12.4 68.5 12.4 68.7C12.5 68.8 12.5 68.9 12.6 69V69ZM135.7 57.9C135.6 57.8 135.4 57.9 135.3 58C135.2 58 135.1 58.1 135 58.2C134.8 58.3 134.9 58.4 135.1 58.4C135.3 58.4 135.5 58.6 135.7 58.4C135.8 58.3 135.8 58.2 135.8 58.1L135.7 57.9V57.9ZM114.1 61.6H114.3C114.5 61.6 114.9 61.5 115 61.3C115.1 61.1 114.9 61.2 114.7 61.2H114.4C114.3 61.2 114.2 61.1 114.1 61.3C114 61.4 114 61.5 114.1 61.6C114.1 61.5 114.1 61.6 114.1 61.6V61.6ZM39 76.6C39 76.5 38.8 76.5 38.7 76.5H38.4C38.3 76.5 38.2 76.7 38.1 76.9C38.1 77.2 38.4 76.9 38.6 76.9C38.6 76.8 39 76.7 39 76.6V76.6ZM41.9 76.1C41.9 76 41.8 76 41.8 76.1C41.6 76.1 41.3 76.2 41.1 76.3C41 76.4 40.9 76.7 41.1 76.8C41.2 76.8 41.4 76.6 41.5 76.6C41.5 76.4 41.9 76.2 41.9 76.1V76.1ZM113.9 11.6C114 11.7 114.2 11.6 114.3 11.6C114.5 11.6 114.7 11.5 114.7 11.3C114.6 11.2 114.3 11.2 114.1 11.3C114 11.3 113.9 11.4 113.8 11.5L113.9 11.6V11.6ZM16.2 70.4C16.3 70.3 16.3 70.2 16.2 70.2C16.1 70.2 15.8 70.4 15.7 70.5C15.6 70.6 15.5 70.7 15.4 70.7C15.3 70.7 15.1 70.8 15.1 70.9C15.1 71.1 15.4 70.9 15.5 70.8C15.7 70.7 15.9 70.6 16 70.5C16.1 70.5 16.1 70.4 16.2 70.4V70.4ZM140 57.2C140.1 57.2 140.1 57.1 140 57C140 56.9 140 56.9 139.9 56.8C139.8 56.8 139.7 56.9 139.7 56.9C139.6 57 139.4 57 139.6 57.1C139.7 57.1 139.8 57.2 139.9 57.2C139.9 57.3 139.9 57.3 140 57.2V57.2ZM87.4 67.2C87.4 67.1 87.2 67.1 87.1 67.1H86.8C86.7 67.2 86.5 67.4 86.6 67.5C86.9 67.6 87.2 67.4 87.4 67.2V67.2ZM11.1 64.7C11.3 64.6 11.5 64.5 11.8 64.4C11.9 64.3 12.3 64.1 12.2 64C12 64 11.8 64.2 11.6 64.3C11.4 64.3 11.3 64.5 11.1 64.7ZM11.9 67.1C12 67 12 66.9 11.9 66.9C11.7 66.9 11.5 67.1 11.4 67.1C11.2 67.2 11.1 67.3 10.9 67.4C10.7 67.7 11.1 67.5 11.2 67.5C11.5 67.4 11.7 67.3 11.9 67.1V67.1ZM7.6 69.3C7.6 69.3 7.6 69.4 7.6 69.3C7.6 69.6 8.2 69.1 8.3 69.1C8.3 69.1 8.6 68.8 8.5 68.8C8.4 68.7 8 69.1 7.9 69.2C7.8 69.2 7.7 69.2 7.6 69.3ZM83.8 68.5C83.8 68.4 83.8 68.4 83.7 68.3C83.5 68.1 83 68.5 83.3 68.6C83.4 68.7 83.6 68.7 83.7 68.6C83.8 68.6 83.8 68.6 83.8 68.5ZM41.6 74.5C41.7 74.4 41.7 74.4 41.7 74.3C41.5 74.3 41.2 74.4 41 74.6C40.9 74.7 41.1 74.7 41.2 74.7C41.3 74.7 41.5 74.6 41.6 74.5V74.5ZM15.9 59.8C15.7 59.7 15.5 59.8 15.5 59.9C15.5 60 15.5 60.1 15.7 60.1C15.7 60.1 15.9 59.9 15.9 59.8V59.8ZM133.9 58.1C133.8 58.1 133.7 58.4 133.7 58.4C133.7 58.7 134.1 58.7 134.1 58.4C134.1 58.3 134 58.1 133.9 58.1V58.1ZM64.8 30.1C64.8 30 64.8 30 64.7 29.9C64.5 29.9 64.4 30 64.4 30.2C64.4 30.2 64.5 30.3 64.6 30.3C64.7 30.3 64.8 30.2 64.8 30.1V30.1ZM31 71.6C30.9 71.6 30.9 71.7 30.9 71.7C30.9 72 31.7 71.3 31.5 71.2C31.4 71.2 31 71.6 31 71.6ZM85.5 67.7C85.4 67.8 85.3 67.9 85.4 68C85.5 68.1 85.7 68.1 85.7 68C85.8 67.9 85.7 67.8 85.6 67.7H85.5V67.7ZM48.9 33.9C48.9 33.7 49.1 33.6 49.2 33.5C49.3 33.4 49.5 33.3 49.6 33.2C49.7 33.1 49.9 33 50 32.9C50.1 32.8 50.1 32.6 50.2 32.6C50.3 32.6 50.4 32.7 50.5 32.7C50.8 32.8 50.9 32.5 51 32.4C51.2 32.2 51.7 32.2 51.7 32.5C51.7 32.9 51.5 33.5 51.1 33.4C50.7 33.4 50.3 33.7 49.8 33.5C49.6 33.4 49.3 33.6 49.2 33.7C49.2 33.8 49 34 48.9 33.9V33.9ZM56.2 30.5C56.3 30.7 56 30.9 55.9 31C55.7 31.2 55.5 31.3 55.2 31.3C55.1 31.3 54.9 31.3 54.9 31.4C54.7 31.9 54.1 31.9 53.7 32.2C53.5 32.3 52.5 32.7 52.5 32.3C52.5 32 52.9 31.7 53.3 31.7C53.6 31.7 53.7 31.6 53.9 31.5C54.3 31.2 54.7 31 55.2 30.7C55.4 30.6 56 30.2 56.2 30.5V30.5ZM37.4 39.3C37.3 39.2 37.5 39 37.6 38.9C37.7 38.8 37.9 38.7 38.1 38.6C38.5 38.5 38.9 38.2 39.4 38.1C39.7 38 39.9 37.9 40.2 37.8C40.3 37.8 40.6 37.6 40.5 37.9C40.4 38 40.2 38.1 40.2 38.3C40.2 38.4 40.3 38.5 40.3 38.6C40.3 38.7 40.2 38.8 40.1 38.8C39.8 39 39.7 39 39.4 38.8H39.1C38.8 38.9 38.5 38.9 38.2 39C38 39 37.9 39.1 37.8 39.2C37.8 39.3 37.6 39.4 37.4 39.3C37.4 39.4 37.4 39.3 37.4 39.3V39.3Z" fill="#E4002B"/>
<rect width="417.3" height="61.0009" fill="black" fill-opacity="0" transform="translate(81.9 44.0991)"/>
<path d="M162.1 62.2L156.3 85.7C154.2 94 150.8 97.7 147.4 97.7C145.5 97.7 144.7 96.5 144.7 94.7C144.7 93.9 144.9 93 145.1 91.9L152.6 62.2H134.5V62.4C136.2 63.7 137 64.7 137 66.5C137 67.6 136.7 69 136.2 71.3L131.3 91C130.9 92.5 130.7 94 130.7 95.3C130.7 100.6 133.6 104.8 139.8 104.8C146.7 104.8 151.1 100.3 154.6 93.3C154.2 95 154.1 95.9 154.1 96.7C154.1 101.4 157.2 104.9 162.7 104.9C166.6 104.9 170.6 103.5 173.9 99.6V99.4C172.5 100.1 171.4 100.3 170.6 100.3C168.8 100.3 167.8 99.3 167.8 97.5C167.8 97 167.9 96.5 168.1 95.9L176.6 62.1H162.1V62.2ZM221.6 73.6C221.9 72.5 221.9 71.4 221.9 70.5C221.9 65.4 219.4 61.4 213.5 61.4C206.7 61.4 201.9 66.1 198.3 73.7L201.1 62.3H183V62.5C184.6 63.8 185.4 64.8 185.4 66.6C185.4 67.7 185.1 69.1 184.6 71.4L176.5 104.2H190.8L196.5 81.3C198.6 72.9 202.4 68.8 205.5 68.8C207.3 68.8 207.9 69.8 207.9 71.4C207.9 72.2 207.7 73.3 207.4 74.4L200 104.1H214.2L220 81.1C222 72.8 225.8 68.6 229 68.6C230.7 68.6 231.3 69.6 231.3 71.1C231.3 71.9 231.1 73 230.8 74.2L226.1 93.3C225.8 94.4 225.7 95.5 225.7 96.6C225.7 101.3 228.6 104.8 234.6 104.8C238.4 104.8 242.3 103.4 245.7 99.5L245.6 99.3C244.3 100 243.2 100.2 242.3 100.2C240.5 100.2 239.6 99.2 239.6 97.4C239.6 96.9 239.7 96.4 239.9 95.8L245.1 74.9C245.5 73.2 245.8 71.5 245.8 69.9C245.8 65 243.4 61.2 237.3 61.2C230.2 61.4 225.3 66.1 221.6 73.6V73.6ZM292.9 73.6C293.2 72.5 293.2 71.4 293.2 70.5C293.2 65.4 290.7 61.4 284.8 61.4C278 61.4 273.2 66.1 269.6 73.7L272.4 62.3H254.3V62.5C255.9 63.8 256.7 64.8 256.7 66.6C256.7 67.7 256.4 69.1 255.9 71.4L247.8 104.2H262L267.7 81.3C269.8 72.9 273.6 68.8 276.7 68.8C278.5 68.8 279.1 69.8 279.1 71.4C279.1 72.2 278.9 73.3 278.6 74.4L271.2 104.1H285.4L291.2 81.1C293.2 72.8 297 68.6 300.2 68.6C301.9 68.6 302.5 69.6 302.5 71.1C302.5 71.9 302.3 73 302 74.2L297.3 93.3C297 94.4 296.9 95.5 296.9 96.6C296.9 101.3 299.8 104.8 305.8 104.8C309.6 104.8 313.5 103.4 316.9 99.5L316.8 99.3C315.5 100 314.4 100.2 313.5 100.2C311.7 100.2 310.8 99.2 310.8 97.4C310.8 96.9 310.9 96.4 311.1 95.8L316.3 74.9C316.7 73.2 317 71.5 317 69.9C317 65 314.6 61.2 308.5 61.2C301.5 61.4 296.6 66.1 292.9 73.6V73.6ZM376.6 74.6L379.6 62.2H361.5V62.4C363.1 63.7 363.9 64.7 363.9 66.5C363.9 67.6 363.6 69 363.1 71.3L355 104.1H369.3L374.7 82.3C376.7 74.6 380.3 69.3 384.2 69.3C386.4 69.3 387.6 70.7 387.6 72.8C387.6 75.5 385.9 77.3 383.8 77.5C384.4 78 385.8 78.7 387.8 78.7C392.8 78.7 397.5 74.9 397.5 68.7C397.5 64.4 394.5 61.3 390 61.3C383.7 61.4 379.7 67.6 376.6 74.6V74.6ZM397.9 76.5C397.9 82.5 401.6 85.7 408.3 89.3C413.6 92.1 415.7 94.1 415.7 97.2C415.7 101.1 412.4 103.6 407.8 103.6C403 103.6 400 100.6 400 96.6C400 93.8 401.4 91.9 403.4 91.9C402.1 90.6 400.3 89.9 398.2 89.8C394.5 89.8 391.5 92 391.5 95.8C391.5 101.1 397.4 105.1 407 105.1C417.9 105.1 426.3 98.6 426.3 89.9C426.3 83.8 422.9 81.1 414.8 76.5C409.9 73.6 408.1 72 408.1 69.1C408.1 65.5 411.2 62.9 415.2 62.9C419.2 62.9 421 65 421 68C421 70.4 419.9 72.5 418 72.8C419 74.2 421 74.9 423.1 74.9C426.6 74.9 429.3 72.8 429.3 69.4C429.3 64.5 424 61.4 416 61.4C405.9 61.4 397.9 68.2 397.9 76.5V76.5ZM345.1 62.8C346.6 62.8 347.3 64 347.3 66C347.3 73.4 341.6 81.2 333.2 82.8C334.9 73.3 340.6 62.8 345.1 62.8V62.8ZM318.4 88.8C318.4 99.1 325 105.1 334.5 105.1C342.8 105.1 349.2 100.9 352.9 92.8H352.5C349 97 345.8 98.9 341.5 98.9C336.4 98.9 332.7 95.6 332.7 88.4C332.7 87 332.9 85.5 333 84C346.5 83.6 357.3 79.8 357.3 70.4C357.3 65.1 352.9 61.4 345.4 61.4C330.1 61.3 318.4 75 318.4 88.8V88.8ZM456.1 62.8C457.6 62.8 458.3 64 458.3 66C458.3 73.4 452.6 81.2 444.2 82.8C446 73.3 451.7 62.8 456.1 62.8V62.8ZM429.5 88.8C429.5 99.1 436.1 105.1 445.6 105.1C453.9 105.1 460.3 100.9 464 92.8H463.6C460.1 97 456.9 98.9 452.6 98.9C447.5 98.9 443.8 95.6 443.8 88.4C443.8 87 444 85.5 444.1 84C457.6 83.6 468.4 79.8 468.4 70.4C468.4 65.1 464 61.4 456.5 61.4C441.2 61.3 429.5 75 429.5 88.8V88.8ZM492.9 47.5C487.5 56.1 480.8 61.1 471.6 63.3L471.3 64.4H475.1L468.2 92.4C467.9 93.6 467.7 94.9 467.7 96C467.7 101.4 471.2 105.1 477.9 105.1C484.2 105.1 488.6 102.4 492.2 97.2L492.1 96.9C490 98.8 487.7 99.8 485.9 99.8C483.5 99.8 481.8 98.4 481.8 95.8C481.8 95.3 481.9 94.8 482.1 94.2L489.4 64.4H498.3L499.2 62.3H490L493.7 47.6H492.9V47.5ZM91.3 64.2C91.3 81.1 114.5 79.2 114.5 92C114.5 98.4 110.2 103.4 102.9 103.4C94.2 103.4 87.9 95.5 85.8 84H85.6L81.9 104.6C83.9 103.2 85.6 102.3 87.7 102.3C91.2 102.3 95.4 105.1 103.2 105.1C115.7 105.1 126.9 96.8 126.9 83.9C126.9 66.8 103.8 69.7 103.8 56.3C103.8 50.5 107.9 45.8 114.6 45.8C123.1 45.8 127 53.3 128.6 62.5H128.8L133 45C131.6 46.2 130 47 128.3 47C124.7 47 120.8 44.1 114.1 44.1C101.4 44 91.3 51.9 91.3 64.2" fill="url(#paint0_linear)"/>
<defs>
<linearGradient id="paint0_linear" x1="81.943" y1="74.523" x2="499.273" y2="74.523" gradientUnits="userSpaceOnUse">
<stop stop-color="#470A68"/>
<stop offset="0.508" stop-color="#E4002B"/>
<stop offset="1" stop-color="#470A68"/>
</linearGradient>
</defs>
</svg>
