<svg xmlns="http://www.w3.org/2000/svg" viewBox="0 0 153.64 32.95"><defs><style>.cls-1{fill:#034ea2;}.cls-2{fill:#fff;}</style></defs><title>Asset 1</title><g id="Layer_2" data-name="Layer 2"><g id="Layer_1-2" data-name="Layer 1"><path class="cls-1" d="M151.56,14.57l.41,1h0l.4-1h.49v1.91h-.34V15.09h0l-.41,1h-.24l-.41-1h0v1.39h-.34V14.57Zm-2.06.28v-.28h1.32v.28h-.48v1.63H150V14.85ZM124.83,0H123.7l-.14,0-.07,0-.1,0-.27.06a5.59,5.59,0,0,0-.6.16L114.4,3.07a.65.65,0,0,1-.21,0l-.15,0a6.6,6.6,0,0,0-1.36-.15,6.16,6.16,0,0,0-2.2.41l-3.91,1.46-1.48.55h0a6,6,0,0,0-4.51-2h-.38a6.12,6.12,0,0,0-2.71.83l-3.8,2.15L92.41,7l-.14-.21a6.58,6.58,0,0,0-.55-.75,3.73,3.73,0,0,0-2.85-1.33,4.29,4.29,0,0,0-1.78.4A4.51,4.51,0,0,0,85.89,6a.58.58,0,0,0-.58-.41l-.19,0-1.07.17-2,.31a.93.93,0,0,0-.73.54L79.66,9.77a2.8,2.8,0,0,0-.47-.84,4.89,4.89,0,0,0-4-2h-.39a7,7,0,0,0-4.19,1.71l-.94-1C68.56,6.41,67.46,5.2,66.39,4a2.17,2.17,0,0,0-1.68-.78,2.75,2.75,0,0,0-.41,0,3.21,3.21,0,0,0-2.52,1.91,1.32,1.32,0,0,0-.12.48c0,.61-.07,1.11-.08,1.59a1.33,1.33,0,0,0,.1.53,2,2,0,0,0,.91,1l.91.53-.87.15-.42.07c-.49.08-.65.28-.67.78v.24s0,0,0,.07l-.4-.14L60,10.06a1.56,1.56,0,0,0-.53-.09l-.24,0a4.54,4.54,0,0,0-2.1.82l0,0a3.4,3.4,0,0,0-1.22-.22,4.81,4.81,0,0,0-1,.12c-.52.11-1.06.19-1.58.27l-.75.11-.22,0-.1,0a.45.45,0,0,0-.35.42l-.05,1-.65-.08-2-.27-1.4-.18-1.48-.19a7.09,7.09,0,0,0-.92-.06,7.47,7.47,0,0,0-2.93.62.62.62,0,0,1-.24.06h-.05l-1.67-.16-1.06-.1-1.66-.16-1.1-.11-.37,0-3.07-.3-1.36-.13-1.31-.13-1.82-.18L27.09,11l-1.31-.13-1.36-.13-1.59-.16L21,10.41l-1.34-.13-1.34-.13L16.54,10,14.9,9.82l-1.34-.13-1.34-.13-1.6-.16L8.78,9.22,7.46,9.09,6.08,9,4.35,8.78,2.7,8.62l-1.08-.1H1.48a.62.62,0,0,0-.63.58L.74,9.7c-.11.55-.23,1.13-.3,1.7-.1.76-.18,1.53-.25,2.28,0,.36-.07.72-.11,1.08a1.31,1.31,0,0,1,0,.16L0,15a.48.48,0,0,0,0,.09v2.63a.5.5,0,0,0,0,.07c0,.08,0,.16,0,.24a4.1,4.1,0,0,1,.06.45,33.88,33.88,0,0,0,.69,5l0,.1h0a.76.76,0,0,0,.62.7c2.68.76,5.37,1.43,8,2l1.94.38.29,0,.26,0,1.16-.17.42-.06,0,.12a.76.76,0,0,0,.68.63l2.67.41.31,0a3.67,3.67,0,0,0,.66-.08h.07l2.47-.45.29.4.21.29a.87.87,0,0,0,.68.38c.89.07,1.7.14,2.51.23h.23a4,4,0,0,0,.88-.12l.15,0L26.42,28l.07,0c.33,1.46.69,2.81,1.09,4.11a.72.72,0,0,0,.79.63l1.48.09L31,32.9l.21,0,.13,0h.6a.45.45,0,0,0,.18,0l.1,0,.16-.07L44.1,28.66a1,1,0,0,1,.32-.05h.33a6.58,6.58,0,0,0,2.31-.42l4.54-1.69.63-.24v.1c0,.14,0,.27,0,.41a.61.61,0,0,0,.62.59h.23l.86-.12c.72-.1,1.47-.2,2.21-.28a3.2,3.2,0,0,0,1-.33l4.39-2.12c0,.29,0,.58,0,.87,0,.58.41.66.64.66h.13l.18,0,.84-.14,2.33-.37a1.47,1.47,0,0,0,.69-.29l2.4-1.85.45-.34a4.87,4.87,0,0,0,2.57,1.47,5.7,5.7,0,0,0,1.2.13,6.53,6.53,0,0,0,1.73-.24,7.39,7.39,0,0,0,4.61-3.8l.11-.21.18.2c.56.62,1.11,1.23,1.66,1.86a.88.88,0,0,0,.68.33l.2,0,1.23-.21.46-.08.55-.09,1.13-.19c.49-.08.65-.27.66-.78v-.45c0-.06,0-.11,0-.17l.23.09c.41.16.84.32,1.25.49a3.05,3.05,0,0,0,1.22.3,2.12,2.12,0,0,0,.61-.09h0l.61-.09,2.22-.33a.65.65,0,0,0,.64-.71c0-.19,0-.38,0-.57s0-.19,0-.29l1.22.19.52.08L96,20c.85.13,1.72.26,2.58.4a8.18,8.18,0,0,0,1.38.12,7.16,7.16,0,0,0,3.47-.89.25.25,0,0,1,.13,0h.06l.71.07,3.39.33,4,.38,1.72.16,2,.19,3,.28,2.85.27,2.88.27,2.92.28,2.13.2,5.73.54,1.69.16,4,.38,2.12.2,2.66.25,2.44.23,3.44.33h.25a2.1,2.1,0,0,0,1.31-.43,1.1,1.1,0,0,0,.44-.73c.05-.35.12-.71.19-1.05v-.07a2,2,0,0,0-.46-1.74,3.71,3.71,0,0,0-2.71-1.32l-1.54-.05-1,0-.44,0a37.13,37.13,0,0,0-.12-6,1.8,1.8,0,0,0-.28-.85l-.18-.28c-.13-.21-.27-.43-.43-.64a10.89,10.89,0,0,0-5.76-3.86,7.09,7.09,0,0,0-1.94-.29,5.44,5.44,0,0,0-.78.06l-2.68.4-1.48.22-.6.08-.1-.48c-.12-.59-.25-1.19-.38-1.78a1.5,1.5,0,0,0-.29-.61l-.25-.3a14.82,14.82,0,0,0-1.07-1.22,10.63,10.63,0,0,0-5.44-3l-.53-.1-.25,0h-.09"/><path class="cls-2" d="M132.65,8.78a.39.39,0,0,0,0-.1c-.22-1.09-.43-2.18-.65-3.27a.92.92,0,0,0-.17-.34,10.93,10.93,0,0,0-3.89-3.36,8,8,0,0,0-4-1,3.17,3.17,0,0,0-2.89,1.73,7.58,7.58,0,0,0-.43,1.17.86.86,0,0,0,0,.38c.24,1.48.52,3,.73,4.44.15,1,.24,2.09.33,3.14s.12,2,.18,3a.85.85,0,0,0,.06.29,6.22,6.22,0,0,0,3.31,3.39,7.25,7.25,0,0,0,4.9.29,5.08,5.08,0,0,0,3-2.25.74.74,0,0,0,.13-.38c0-1.14-.09-2.28-.14-3.43a1.73,1.73,0,0,0,0-.25,22,22,0,0,0-3.62-.48c0,.75.07,1.51.13,2.26a1.06,1.06,0,0,1-.26.79,1.71,1.71,0,0,1-.82.56,2.4,2.4,0,0,1-2.76-1.07,1.22,1.22,0,0,1-.14-.48c-.1-1.15-.17-2.3-.28-3.45a47.14,47.14,0,0,0-.75-4.92,1,1,0,0,1,.11-.71,1.26,1.26,0,0,1,1.13-.66,3,3,0,0,1,2.42,1.15,1.44,1.44,0,0,1,.36.77c0,.23.08.45.13.67L129,8.19l3.64.59M46.17,17.73c0-.23,0-.46,0-.69a.94.94,0,0,0-.3-.72,1.57,1.57,0,0,0-.82-.47,2.06,2.06,0,0,0-2.19.93,1.1,1.1,0,0,0-.18.65c0,.46,0,.91,0,1.37,0,.29,0,.31.32.28l2.9-.32c.22,0,.24-.06.24-.29s0-.5,0-.75Zm3.37,4.4c0,.12,0,.23,0,.34,0,.58.09,1.17.13,1.75a.6.6,0,0,1,0,.26,5,5,0,0,1-4.18,3.35,5.4,5.4,0,0,1-5.12-2.13,2.66,2.66,0,0,1-.76-2c-.12-1.25-.22-2.5-.3-3.75-.06-1-.07-2-.08-3a1.2,1.2,0,0,1,.1-.49,6.32,6.32,0,0,1,4.41-3.73,5.58,5.58,0,0,1,3.09,0,4.23,4.23,0,0,1,2.44,1.94.92.92,0,0,1,.13.48q0,2.36.06,4.71c0,.26,0,.51,0,.78l-1,.13-5.16.56c-.44,0-.44.05-.41.49s.09,1.09.15,1.63a.86.86,0,0,0,.14.38,1.73,1.73,0,0,0,1.73.77,1.79,1.79,0,0,0,1.48-1.1,1.38,1.38,0,0,0,0-.65c0-.12,0-.23,0-.38l3.14-.36m64-12.21H115c.26,0,.3,0,.27-.29,0-.44-.11-.89-.13-1.33a1.15,1.15,0,0,0-.31-.72,2.12,2.12,0,0,0-1-.65,1.71,1.71,0,0,0-1.51.2,1.2,1.2,0,0,0-.61,1.06c0,.5.09,1,.15,1.51,0,.24,0,.24.28.24h1.43Zm4.8,2.28c-2-.07-4,0-6,0h-.15c-.15,0-.22.07-.21.22s0,.44,0,.66c0,.41,0,.82.05,1.22a.72.72,0,0,0,.08.31,1.73,1.73,0,0,0,1.68.92,1.82,1.82,0,0,0,1.62-1,.92.92,0,0,0,.07-.37c0-.19,0-.37,0-.58h3.15a1.79,1.79,0,0,1,0,.23c0,.58,0,1.15,0,1.73a.86.86,0,0,1-.13.41A5.38,5.38,0,0,1,116,18.24a6.11,6.11,0,0,1-4.37.17,4.8,4.8,0,0,1-2.92-2.88.72.72,0,0,1,0-.26q0-2.78-.24-5.54c-.06-.74-.13-1.48-.2-2.23a.88.88,0,0,1,0-.29,4.92,4.92,0,0,1,1.57-2.58,4.2,4.2,0,0,1,2.67-1,6.27,6.27,0,0,1,4.65,1.88,10.56,10.56,0,0,1,.89,1,.77.77,0,0,1,.15.35q.36,2.48.54,5c0,.08,0,.15,0,.27h-.31m25,3.37c-.08-1.09-.17-2.18-.24-3.27a1.09,1.09,0,0,0-.26-.65,3.05,3.05,0,0,0-2.09-1.14,1.21,1.21,0,0,0-1,.29.64.64,0,0,0-.24.63,11.38,11.38,0,0,1,.14,1.3c.07,1.22.12,2.44.17,3.66a.86.86,0,0,0,.13.45,2.42,2.42,0,0,0,1.63,1.1,1.8,1.8,0,0,0,1.17-.11.85.85,0,0,0,.55-.86c0-.47,0-.93,0-1.4h0m3.38,3.23a.78.78,0,0,1-.17.46,4,4,0,0,1-2.4,1.49,6.87,6.87,0,0,1-3.81-.31,6.42,6.42,0,0,1-3.86-3.51,1.32,1.32,0,0,1-.13-.57,42.42,42.42,0,0,0-.48-6.56,1.1,1.1,0,0,1,.09-.64A2.66,2.66,0,0,1,138,7.55a5.55,5.55,0,0,1,2.5.23,10.14,10.14,0,0,1,5.38,3.66l.21.29a2.46,2.46,0,0,1,.52,1.46c0,1,.11,2.08.16,3s-.07,1.81-.09,2.64M72.3,13.56c0,.28,0,.56,0,.83s.06.27.27.23l2.87-.49a.36.36,0,0,0,.35-.41c0-.47,0-.93,0-1.4a1,1,0,0,0-.26-.7,1.46,1.46,0,0,0-1.12-.53A2.12,2.12,0,0,0,72.5,12.2a1.16,1.16,0,0,0-.19.67c0,.23,0,.46,0,.68ZM79,17.48a2.31,2.31,0,0,1,0,.25c0,.63,0,1.25,0,1.88a.9.9,0,0,1-.08.37,6.59,6.59,0,0,1-4.7,3.78,4.89,4.89,0,0,1-2.51-.08A4.41,4.41,0,0,1,68.89,21a.86.86,0,0,1-.05-.32q0-4,0-8.08a.84.84,0,0,1,0-.29,7,7,0,0,1,4-4.26,5.49,5.49,0,0,1,2.89-.39,4.18,4.18,0,0,1,3.14,2.18.66.66,0,0,1,.08.31q0,2.8,0,5.61c0,.06,0,.12,0,.2l-1,.18L72.6,17c-.29,0-.31.07-.31.36,0,.61,0,1.21,0,1.82a1,1,0,0,0,.13.45,1.52,1.52,0,0,0,1.73.68A2.22,2.22,0,0,0,75.73,19a1,1,0,0,0,.07-.35c0-.22,0-.43,0-.69L79,17.48M33,24.47a.75.75,0,0,0,.15-.58,51.82,51.82,0,0,1-.46-5.55.83.83,0,0,0-.33-.69,2.11,2.11,0,0,0-2.61-.06.81.81,0,0,0-.41.81c.12,1.94.26,3.88.53,5.81a.49.49,0,0,0,.2.35,2.45,2.45,0,0,0,1.31.55A1.78,1.78,0,0,0,33,24.47M28.28,32a53,53,0,0,1-2.39-17.5l3.34-.12v1.11a1.05,1.05,0,0,0,.24-.09,1.36,1.36,0,0,0,.16-.18A4,4,0,0,1,33.46,14a3.11,3.11,0,0,1,1.94,1.3,5,5,0,0,1,.72,1.36,1.15,1.15,0,0,1,.06.32c.06,1.39.09,2.78.19,4.17.09,1.22.25,2.43.37,3.65a1.49,1.49,0,0,1,0,.41,4.82,4.82,0,0,1-.52,1.49A2.86,2.86,0,0,1,33,28.23a4.27,4.27,0,0,1-2.18-1c-.1-.08-.18-.26-.34-.18s-.05.26,0,.38q.45,2.27,1.07,4.49c0,.09,0,.19.08.32L28.28,32m121.11-9.89a.92.92,0,0,1-.13-.65c.08-.44.13-.89.17-1.33a.57.57,0,0,1,.29-.45,1.25,1.25,0,0,1,.83-.2,2.9,2.9,0,0,1,2.15,1.24,1,1,0,0,1,.18.84,11.3,11.3,0,0,0-.2,1.14.59.59,0,0,1-.33.46,1.72,1.72,0,0,1-.88.19,2.59,2.59,0,0,1-2.08-1.25m-87,3.17c-.26-5-.31-10-.14-15.07l3.48-.61c-.12,5.05-.11,10.07.07,15.13l-3.41.55M52.55,11.85l3.23-.53a2.29,2.29,0,0,1,0,.24c0,.49,0,1,0,1.46a.66.66,0,0,0,0,.18,1,1,0,0,0,.08.18c.06,0,.15-.06.18-.11s.14-.26.21-.39a4.19,4.19,0,0,1,2-1.89,3.27,3.27,0,0,1,1.15-.27c0,1.38-.06,2.75-.08,4.13l-.66.11a5,5,0,0,0-1.78.65,7.6,7.6,0,0,0-.75.59.52.52,0,0,0-.18.45c0,1.11,0,2.23.06,3.34.07,1.8.17,3.59.25,5.39,0,.26,0,.51.06.81l-3.4.45a109.75,109.75,0,0,1-.41-14.78M14.94,14.32a5.63,5.63,0,0,0,.57,0,.44.44,0,0,1,.46.29c.58,1.12,1.18,2.23,1.78,3.34a1.47,1.47,0,0,0,.11.18c.09.13.19.13.28,0s.08-.16.13-.24c.59-1,1.18-2.1,1.76-3.15a.38.38,0,0,1,.39-.23c.77,0,1.53,0,2.3,0l.28,0v.34c0,.82,0,1.63,0,2.45a.64.64,0,0,1-.17.45l-2.38,2.83-.26.34c.09.1.16.2.24.28l3.09,3.19a.76.76,0,0,1,.22.4c.17.9.36,1.79.54,2.69a.6.6,0,0,1,0,.11H24l-2.17-.18a.63.63,0,0,1-.51-.29c-.82-1.17-1.66-2.33-2.5-3.5-.07-.1-.17-.24-.26-.25s-.17.19-.22.31c-.36.94-.71,1.88-1.06,2.81l-.12.34c-1-.1-1.93-.28-2.9-.43,0-.1-.06-.19-.09-.28-.17-.8-.34-1.59-.52-2.39a.41.41,0,0,1,.12-.4l2.2-2.48.14-.16a.18.18,0,0,0,0-.26l-.14-.15-2.8-3.1a.68.68,0,0,1-.2-.5c0-.75,0-1.49,0-2.24,0-.1,0-.19,0-.32l1.94.13m87.39-4.19c0-.16,0-.3,0-.43,0-.34,0-.68-.07-1a1.06,1.06,0,0,0-.2-.45,1.82,1.82,0,0,0-2.92,0,1.46,1.46,0,0,0-.29,1q.13,2.88.19,5.75a1.27,1.27,0,0,0,.51,1,1.72,1.72,0,0,0,1.64.25,2,2,0,0,0,1-.7,1.27,1.27,0,0,0,.31-.9c0-.41,0-.81,0-1.26l3.14-.25c0,.1,0,.18,0,.25,0,.84,0,1.69.06,2.54a1,1,0,0,1-.13.54,6.27,6.27,0,0,1-4.41,3.21,5.37,5.37,0,0,1-2.8-.12,4.49,4.49,0,0,1-2.79-2.75.93.93,0,0,1,0-.32c0-2-.06-4-.11-5.94,0-.67-.07-1.33-.1-2a1,1,0,0,1,0-.32,6,6,0,0,1,2.09-3.15,4.94,4.94,0,0,1,3.09-1,5.32,5.32,0,0,1,4.6,2.6,1,1,0,0,1,.13.42c.06.58.1,1.17.15,1.75,0,.34,0,.67.07,1.05l-3.15.23M9.82,19.38a2.49,2.49,0,0,1-.3,0l-4.46-.79-.4-.06a1.13,1.13,0,0,0,0,.61c.09.84.19,1.68.28,2.52,0,.26,0,.28.3.33l5.26,1,.32.07.61,2.86-.25,0Q6.4,25,1.75,23.68a.33.33,0,0,1-.28-.29,34.62,34.62,0,0,1-.59-3.83,32.21,32.21,0,0,1-.15-3.49A33.48,33.48,0,0,1,1.5,9.42a1.47,1.47,0,0,1,0-.14c1,.15,2,.31,3,.45s2,.27,3,.38,2,.2,3,.3l-.34,2.9c-.32,0-.65-.05-1-.09l-4.17-.57c-.28,0-.34,0-.36.27-.05.85-.11,1.71-.16,2.56,0,.22,0,.23.22.27l2.41.4,2.24.32.29.06c0,1,.07,1.89.11,2.86M88.9,20.91c0-.13,0-.23,0-.33,0-2.32,0-4.63,0-6.95,0-1.1,0-2.21-.05-3.31a.9.9,0,0,0-.32-.7,1.64,1.64,0,0,0-1.48-.36,2.41,2.41,0,0,0-1.33.75.67.67,0,0,0-.19.51c0,1.74.06,3.48.06,5.22s0,3.58,0,5.37c0,.11,0,.22,0,.35L82.11,22c0-5.07,0-10.13,0-15.21l3.11-.49c0,.33,0,.63,0,.94a2,2,0,0,0,0,.27c0,.06.06.16.09.16a.34.34,0,0,0,.19-.09,1.2,1.2,0,0,0,.13-.2A4.35,4.35,0,0,1,87,6a3.16,3.16,0,0,1,4.32.73,5.2,5.2,0,0,1,.87,1.59,1.44,1.44,0,0,1,.07.41c.16,3.74.18,7.48.12,11.21,0,.14,0,.27,0,.44l-3.48.52M65.9,6.5a.89.89,0,0,1-.06.29,2.41,2.41,0,0,1-2.59,1.43,1.27,1.27,0,0,1-.81-.52.85.85,0,0,1-.17-.58c0-.45.05-.91.09-1.37a1,1,0,0,1,.1-.37,2.49,2.49,0,0,1,2.18-1.43,1.24,1.24,0,0,1,1.09.44,1,1,0,0,1,.24.68c0,.22,0,.44,0,.66H65.9c0,.26,0,.52,0,.77"/></g></g></svg>