<svg width="434" height="216" viewBox="0 0 434 216" xmlns="http://www.w3.org/2000/svg"><title>nib Logo Queen E</title><g fill="#009623" fill-rule="evenodd"><path d="M0 57.413h55.723v24.043C69.492 62.989 84.455 53 107.621 53c40.466 0 59.525 23.766 59.525 65.992v92.074h-60.993v-81.227c0-15.249-4.112-28.739-21.408-28.739-18.768 0-23.748 12.017-23.748 31.673v78.293H0V57.413zM183 211.073h61.012V57.42H183v153.653zm0-168.06h61.012V0H183v43.013zM346.323 171.548c-19.946 0-25.802-20.818-25.802-37.242 0-15.827 7.328-34.014 25.802-34.014 19.644 0 25.817 18.769 25.817 35.192 0 16.703-5.864 36.064-25.817 36.064zM321.979 0H261v211.134h54.828v-21.698h.585c7.623 14.676 21.724 26.097 47.209 26.097 50.158 0 69.5-36.649 69.5-82.114 0-46.326-27.565-80.351-66.846-80.351-18.186 0-32.269 5.879-44.297 19.946V0z"/></g></svg>