<?xml version="1.0" encoding="utf-8"?>
<!-- Generator: Adobe Illustrator 22.0.1, SVG Export Plug-In . SVG Version: 6.00 Build 0)  -->
<svg width="176px" version="1.1" id="Layer_1" xmlns="http://www.w3.org/2000/svg" xmlns:xlink="http://www.w3.org/1999/xlink" x="0px" y="0px"
	 viewBox="0 0 309 82" style="enable-background:new 0 0 309 82;" xml:space="preserve">
<style type="text/css">
	.st0{fill:#1C4247;}
	.st1{fill:#1D434A;}
	.st2{fill:#92BAA0;}
	.st3{fill:#D1DA48;}
	.st4{fill:#678A7D;}
	.st5{fill:#E4B33D;}
	.st6{fill:#D4CF4F;}
</style>
<path class="st0" d="M99.3,72.4c0,0.5,0.1,1,0.3,1.3c0.2,0.4,0.4,0.7,0.8,0.9c0.3,0.2,0.7,0.4,1.1,0.5c0.4,0.1,0.9,0.2,1.4,0.2
	s1-0.1,1.3-0.2c0.4-0.1,0.7-0.3,0.9-0.5s0.4-0.4,0.5-0.7c0.1-0.2,0.2-0.5,0.2-0.8c0-0.5-0.1-0.9-0.4-1.2c-0.2-0.2-0.5-0.4-0.8-0.5
	c-0.5-0.2-1.1-0.3-1.7-0.5c-0.6-0.2-1.4-0.4-2.4-0.6c-0.6-0.2-1.1-0.4-1.5-0.6c-0.4-0.2-0.7-0.5-0.9-0.8s-0.4-0.6-0.5-1
	c-0.1-0.3-0.1-0.7-0.1-1.1c0-0.7,0.1-1.3,0.4-1.8c0.3-0.5,0.7-0.9,1.1-1.3c0.5-0.3,1-0.6,1.6-0.7c0.6-0.2,1.2-0.2,1.8-0.2
	c0.7,0,1.4,0.1,2,0.3s1.2,0.5,1.7,0.8c0.5,0.4,0.9,0.8,1.1,1.4c0.3,0.5,0.4,1.2,0.4,1.9h-2.4c-0.1-0.9-0.4-1.5-0.9-1.9
	s-1.2-0.5-2.1-0.5c-0.3,0-0.6,0-0.9,0.1c-0.3,0.1-0.6,0.2-0.8,0.3s-0.4,0.3-0.6,0.5c-0.2,0.2-0.2,0.5-0.2,0.9c0,0.5,0.1,0.9,0.5,1.1
	c0.3,0.3,0.7,0.5,1.2,0.6c0,0,0.3,0.1,0.6,0.2c0.4,0.1,0.7,0.2,1.2,0.3c0.4,0.1,0.9,0.2,1.3,0.3c0.4,0.1,0.7,0.2,0.9,0.2
	c0.4,0.1,0.8,0.3,1.2,0.6c0.3,0.2,0.6,0.5,0.8,0.8s0.4,0.7,0.5,1c0.1,0.4,0.2,0.7,0.2,1.1c0,0.8-0.2,1.4-0.5,2
	c-0.3,0.5-0.7,1-1.2,1.3s-1.1,0.6-1.8,0.8s-1.3,0.2-2,0.2c-0.8,0-1.5-0.1-2.2-0.3s-1.3-0.5-1.8-0.9s-0.9-0.9-1.2-1.5
	s-0.5-1.4-0.5-2.2h2.4V72.4z"/>
<path class="st0" d="M118.6,77h-2.2v-1.4l0,0c-0.3,0.5-0.7,0.9-1.2,1.2s-1.1,0.5-1.6,0.5c-1.3,0-2.3-0.3-2.8-1
	c-0.6-0.6-0.9-1.6-0.9-2.9v-6.3h2.2v6.1c0,0.9,0.2,1.5,0.5,1.8c0.3,0.4,0.8,0.5,1.4,0.5c0.5,0,0.8-0.1,1.2-0.2
	c0.3-0.1,0.6-0.3,0.8-0.6c0.2-0.2,0.3-0.5,0.4-0.9c0.1-0.3,0.1-0.7,0.1-1.1v-5.8h2.2L118.6,77L118.6,77z"/>
<path class="st0" d="M122.5,73.8c0.1,0.6,0.3,1.1,0.7,1.3c0.4,0.3,0.9,0.4,1.5,0.4c0.2,0,0.4,0,0.7,0s0.5-0.1,0.7-0.2
	c0.2-0.1,0.4-0.2,0.6-0.4c0.1-0.2,0.2-0.4,0.2-0.7s-0.1-0.5-0.3-0.7s-0.4-0.3-0.7-0.4c-0.3-0.1-0.6-0.2-1-0.3s-0.8-0.2-1.2-0.2
	c-0.4-0.1-0.8-0.2-1.2-0.3s-0.7-0.3-1-0.5s-0.5-0.5-0.7-0.8s-0.3-0.8-0.3-1.3s0.1-1,0.4-1.4c0.3-0.4,0.6-0.7,1-0.9s0.9-0.4,1.3-0.5
	c0.5-0.1,1-0.1,1.4-0.1c0.5,0,1,0.1,1.5,0.2c0.5,0.1,0.9,0.3,1.3,0.5c0.4,0.2,0.7,0.6,0.9,1s0.4,0.9,0.5,1.4h-2.3
	c-0.1-0.5-0.3-0.9-0.7-1.1c-0.4-0.2-0.8-0.3-1.3-0.3c-0.2,0-0.3,0-0.5,0s-0.4,0.1-0.6,0.1c-0.2,0.1-0.3,0.2-0.5,0.3
	c-0.1,0.1-0.2,0.3-0.2,0.5c0,0.3,0.1,0.5,0.3,0.7s0.4,0.3,0.7,0.4c0.3,0.1,0.6,0.2,1,0.3s0.8,0.2,1.2,0.3s0.8,0.2,1.2,0.3
	s0.7,0.3,1,0.5c0.3,0.2,0.5,0.5,0.7,0.8s0.3,0.7,0.3,1.2c0,0.6-0.1,1.1-0.4,1.5c-0.3,0.4-0.6,0.7-1,1c-0.4,0.3-0.9,0.4-1.4,0.6
	c-0.5,0.1-1,0.2-1.6,0.2s-1.2-0.1-1.7-0.2c-0.5-0.1-1-0.4-1.4-0.6c-0.4-0.3-0.7-0.6-0.9-1.1c-0.2-0.4-0.3-0.9-0.4-1.5H122.5z"/>
<path class="st0" d="M129.9,67h1.7v-3h2.2v3h2v1.6h-2v5.3c0,0.2,0,0.4,0,0.6c0,0.2,0.1,0.3,0.1,0.4c0.1,0.1,0.2,0.2,0.3,0.3
	s0.3,0.1,0.6,0.1c0.2,0,0.3,0,0.5,0s0.3,0,0.5-0.1v1.7c-0.2,0-0.5,0-0.7,0.1c-0.2,0-0.5,0-0.7,0c-0.6,0-1-0.1-1.4-0.2
	c-0.4-0.1-0.6-0.3-0.8-0.5s-0.3-0.5-0.4-0.8c-0.1-0.3-0.1-0.7-0.1-1.1v-5.7H130V67H129.9z"/>
<path class="st0" d="M145.6,74.8c0,0.3,0,0.5,0.1,0.6s0.2,0.2,0.4,0.2h0.2c0.1,0,0.2,0,0.3,0v1.5c-0.1,0-0.2,0.1-0.3,0.1
	s-0.2,0.1-0.4,0.1c-0.1,0-0.3,0-0.4,0.1c-0.1,0-0.2,0-0.3,0c-0.4,0-0.8-0.1-1.1-0.3s-0.5-0.5-0.6-0.9c-0.4,0.4-1,0.7-1.6,0.9
	s-1.2,0.3-1.8,0.3c-0.4,0-0.9-0.1-1.3-0.2c-0.4-0.1-0.8-0.3-1.1-0.5s-0.6-0.5-0.8-0.9s-0.3-0.8-0.3-1.3c0-0.6,0.1-1.1,0.3-1.5
	s0.5-0.7,0.9-0.9s0.8-0.4,1.2-0.5c0.5-0.1,0.9-0.2,1.4-0.2c0.4-0.1,0.8-0.1,1.1-0.2c0.4,0,0.7-0.1,1-0.2c0.3-0.1,0.5-0.2,0.7-0.4
	s0.2-0.4,0.2-0.7s-0.1-0.5-0.2-0.7c-0.1-0.2-0.3-0.3-0.5-0.4c-0.2-0.1-0.4-0.2-0.7-0.2c-0.2,0-0.5,0-0.7,0c-0.6,0-1.1,0.1-1.5,0.4
	c-0.4,0.3-0.6,0.7-0.7,1.2h-2.2c0-0.6,0.2-1.2,0.5-1.6c0.3-0.4,0.6-0.8,1-1c0.4-0.3,0.9-0.4,1.4-0.5s1.1-0.2,1.6-0.2s1,0.1,1.4,0.2
	c0.5,0.1,0.9,0.3,1.3,0.5c0.4,0.2,0.7,0.5,0.9,0.9s0.3,0.8,0.3,1.3v5H145.6z M143.4,72c-0.3,0.2-0.7,0.3-1.2,0.4
	c-0.5,0-1,0.1-1.5,0.2c-0.2,0-0.5,0.1-0.7,0.2c-0.2,0.1-0.4,0.2-0.6,0.3c-0.2,0.1-0.3,0.3-0.4,0.5c-0.1,0.2-0.1,0.4-0.1,0.7
	c0,0.2,0.1,0.4,0.2,0.6c0.1,0.2,0.3,0.3,0.5,0.4c0.2,0.1,0.4,0.2,0.7,0.2c0.2,0,0.5,0.1,0.6,0.1c0.2,0,0.5,0,0.8-0.1
	s0.5-0.2,0.8-0.3c0.3-0.2,0.5-0.3,0.6-0.6c0.2-0.2,0.2-0.5,0.2-0.9L143.4,72L143.4,72z"/>
<path class="st0" d="M148,63.3h2.2v2.1H148V63.3z M148,67h2.2v9.9H148V67z"/>
<path class="st0" d="M152.6,67h2.1v1.5l0,0c0.3-0.6,0.8-1,1.3-1.3s1.1-0.5,1.8-0.5c1.1,0,1.9,0.3,2.6,0.8c0.6,0.6,0.9,1.4,0.9,2.5
	v6.8h-2.2v-6.1c0-0.8-0.2-1.3-0.5-1.7s-0.8-0.5-1.4-0.5c-0.4,0-0.7,0.1-1,0.2c-0.3,0.1-0.5,0.3-0.8,0.6c-0.2,0.2-0.4,0.5-0.5,0.8
	s-0.2,0.7-0.2,1V77h-2.2L152.6,67L152.6,67z"/>
<path class="st0" d="M171.9,74.8c0,0.3,0,0.5,0.1,0.6s0.2,0.2,0.4,0.2h0.2c0.1,0,0.2,0,0.3,0v1.5c-0.1,0-0.2,0.1-0.3,0.1
	s-0.2,0.1-0.4,0.1c-0.1,0-0.3,0-0.4,0.1c-0.1,0-0.2,0-0.3,0c-0.4,0-0.8-0.1-1.1-0.3s-0.5-0.5-0.6-0.9c-0.4,0.4-1,0.7-1.6,0.9
	s-1.2,0.3-1.8,0.3c-0.4,0-0.9-0.1-1.3-0.2c-0.4-0.1-0.8-0.3-1.1-0.5s-0.6-0.5-0.8-0.9s-0.3-0.8-0.3-1.3c0-0.6,0.1-1.1,0.3-1.5
	s0.5-0.7,0.9-0.9s0.8-0.4,1.2-0.5c0.5-0.1,0.9-0.2,1.4-0.2c0.4-0.1,0.8-0.1,1.1-0.2c0.4,0,0.7-0.1,1-0.2c0.3-0.1,0.5-0.2,0.7-0.4
	s0.2-0.4,0.2-0.7s-0.1-0.5-0.2-0.7c-0.1-0.2-0.3-0.3-0.5-0.4c-0.2-0.1-0.4-0.2-0.7-0.2c-0.2,0-0.5,0-0.7,0c-0.6,0-1.1,0.1-1.5,0.4
	c-0.4,0.3-0.6,0.7-0.7,1.2h-2.2c0-0.6,0.2-1.2,0.5-1.6c0.3-0.4,0.6-0.8,1-1c0.4-0.3,0.9-0.4,1.4-0.5s1.1-0.2,1.6-0.2s1,0.1,1.4,0.2
	c0.5,0.1,0.9,0.3,1.3,0.5c0.4,0.2,0.7,0.5,0.9,0.9s0.3,0.8,0.3,1.3v5H171.9z M169.8,72c-0.3,0.2-0.7,0.3-1.2,0.4
	c-0.5,0-1,0.1-1.5,0.2c-0.2,0-0.5,0.1-0.7,0.2c-0.2,0.1-0.4,0.2-0.6,0.3c-0.2,0.1-0.3,0.3-0.4,0.5c-0.1,0.2-0.1,0.4-0.1,0.7
	c0,0.2,0.1,0.4,0.2,0.6c0.1,0.2,0.3,0.3,0.5,0.4c0.2,0.1,0.4,0.2,0.7,0.2c0.2,0,0.5,0.1,0.6,0.1c0.2,0,0.5,0,0.8-0.1
	s0.5-0.2,0.8-0.3c0.2-0.2,0.5-0.3,0.6-0.6c0.2-0.2,0.3-0.5,0.3-0.9L169.8,72L169.8,72z"/>
<path class="st0" d="M174.4,63.3h2.2v5.1l0,0c0.2-0.2,0.3-0.5,0.6-0.7c0.2-0.2,0.5-0.4,0.7-0.5c0.3-0.1,0.5-0.2,0.8-0.3
	s0.6-0.1,0.9-0.1c0.8,0,1.5,0.1,2,0.4c0.6,0.3,1.1,0.7,1.5,1.1c0.4,0.5,0.7,1,0.9,1.7c0.2,0.6,0.3,1.3,0.3,2.1
	c0,0.7-0.1,1.3-0.3,1.9c-0.2,0.6-0.4,1.2-0.8,1.7c-0.4,0.5-0.8,0.9-1.3,1.2s-1.2,0.4-1.9,0.4c-0.3,0-0.7,0-1-0.1
	c-0.3,0-0.7-0.1-1-0.3c-0.3-0.1-0.6-0.3-0.8-0.5c-0.3-0.2-0.5-0.5-0.6-0.8l0,0V77h-2.1L174.4,63.3L174.4,63.3z M182,72
	c0-0.4-0.1-0.9-0.2-1.3c-0.1-0.4-0.3-0.8-0.5-1.1s-0.5-0.6-0.9-0.8c-0.3-0.2-0.7-0.3-1.2-0.3c-0.9,0-1.6,0.3-2.1,1
	c-0.5,0.6-0.7,1.5-0.7,2.6c0,0.5,0.1,1,0.2,1.4c0.1,0.4,0.3,0.8,0.5,1.1s0.5,0.6,0.9,0.7c0.3,0.2,0.7,0.3,1.2,0.3s0.9-0.1,1.3-0.3
	c0.3-0.2,0.6-0.5,0.9-0.8c0.2-0.3,0.4-0.7,0.5-1.1C182,72.9,182,72.5,182,72"/>
<rect x="186.1" y="63.3" class="st0" width="2.2" height="13.7"/>
<path class="st0" d="M192.4,72.6c0,0.4,0.1,0.8,0.2,1.1c0.1,0.4,0.3,0.7,0.5,0.9c0.2,0.3,0.5,0.5,0.8,0.6c0.3,0.2,0.7,0.2,1.2,0.2
	c0.6,0,1.2-0.1,1.5-0.4c0.4-0.3,0.7-0.7,0.9-1.2h2.1c-0.1,0.5-0.3,1-0.6,1.4s-0.6,0.8-1,1.1s-0.8,0.5-1.3,0.7
	c-0.5,0.1-1,0.2-1.5,0.2c-0.8,0-1.5-0.1-2.1-0.4c-0.6-0.3-1.1-0.6-1.5-1.1s-0.7-1-0.9-1.7c-0.2-0.6-0.3-1.3-0.3-2.1
	c0-0.7,0.1-1.4,0.3-2s0.5-1.2,1-1.7c0.4-0.5,0.9-0.9,1.5-1.1c0.6-0.3,1.3-0.4,2-0.4c0.8,0,1.5,0.2,2.1,0.5s1.1,0.8,1.5,1.3
	s0.7,1.2,0.9,1.9s0.2,1.4,0.1,2.2H192.4z M197.5,71.1c0-0.3-0.1-0.7-0.2-1c-0.1-0.3-0.3-0.6-0.5-0.8s-0.5-0.4-0.8-0.6
	c-0.3-0.1-0.6-0.2-1-0.2s-0.7,0.1-1,0.2c-0.3,0.1-0.6,0.3-0.8,0.6c-0.2,0.2-0.4,0.5-0.5,0.8s-0.2,0.7-0.2,1H197.5z"/>
<polygon class="st0" points="207,63.3 210.4,63.3 214.2,74 214.2,74 217.9,63.3 221.2,63.3 221.2,77 218.9,77 218.9,66.4 
	218.9,66.4 215.1,77 213.1,77 209.3,66.4 209.3,66.4 209.3,77 207,77 "/>
<path class="st0" d="M232,77h-2.2v-1.4l0,0c-0.3,0.5-0.7,0.9-1.2,1.2s-1.1,0.5-1.6,0.5c-1.3,0-2.3-0.3-2.8-1
	c-0.6-0.6-0.9-1.6-0.9-2.9v-6.3h2.2v6.1c0,0.9,0.2,1.5,0.5,1.8s0.8,0.5,1.4,0.5c0.5,0,0.8-0.1,1.2-0.2c0.3-0.1,0.6-0.3,0.7-0.6
	c0.2-0.2,0.3-0.5,0.4-0.9c0.1-0.3,0.1-0.7,0.1-1.1v-5.8h2.2L232,77L232,77z"/>
<path class="st0" d="M234,67h2.1v1.9l0,0c0.1-0.3,0.2-0.5,0.4-0.8c0.2-0.3,0.4-0.5,0.7-0.7c0.3-0.2,0.6-0.4,0.9-0.5s0.6-0.2,1-0.2
	c0.3,0,0.4,0,0.5,0s0.2,0,0.3,0v2.1c-0.2,0-0.3,0-0.5-0.1c-0.2,0-0.3,0-0.5,0c-0.4,0-0.7,0.1-1,0.2c-0.3,0.1-0.6,0.4-0.9,0.7
	c-0.2,0.3-0.4,0.6-0.6,1.1c-0.1,0.4-0.2,0.9-0.2,1.5v4.7H234L234,67L234,67z"/>
<path class="st0" d="M240.7,67h2.1v1.9l0,0c0.1-0.3,0.2-0.5,0.4-0.8c0.2-0.3,0.4-0.5,0.7-0.7c0.3-0.2,0.6-0.4,0.9-0.5s0.6-0.2,1-0.2
	c0.3,0,0.4,0,0.5,0s0.2,0,0.3,0v2.1c-0.2,0-0.3,0-0.5-0.1c-0.2,0-0.3,0-0.5,0c-0.4,0-0.7,0.1-1,0.2c-0.3,0.1-0.6,0.4-0.9,0.7
	c-0.2,0.3-0.4,0.6-0.6,1.1s-0.2,0.9-0.2,1.5v4.7h-2.2L240.7,67L240.7,67z"/>
<path class="st0" d="M255.5,74.8c0,0.3,0,0.5,0.1,0.6s0.2,0.2,0.4,0.2h0.2c0.1,0,0.2,0,0.3,0v1.5c-0.1,0-0.2,0.1-0.3,0.1
	c-0.1,0-0.2,0.1-0.4,0.1c-0.1,0-0.3,0-0.4,0.1c-0.1,0-0.2,0-0.3,0c-0.4,0-0.8-0.1-1.1-0.3c-0.3-0.2-0.5-0.5-0.6-0.9
	c-0.4,0.4-1,0.7-1.6,0.9s-1.2,0.3-1.8,0.3c-0.4,0-0.9-0.1-1.3-0.2c-0.4-0.1-0.8-0.3-1.1-0.5c-0.3-0.2-0.6-0.5-0.8-0.9
	c-0.2-0.4-0.3-0.8-0.3-1.3c0-0.6,0.1-1.1,0.3-1.5c0.2-0.4,0.5-0.7,0.9-0.9s0.8-0.4,1.2-0.5c0.5-0.1,0.9-0.2,1.4-0.2
	c0.4-0.1,0.8-0.1,1.1-0.2c0.4,0,0.7-0.1,1-0.2c0.3-0.1,0.5-0.2,0.7-0.4s0.2-0.4,0.2-0.7s-0.1-0.5-0.2-0.7s-0.3-0.3-0.5-0.4
	c-0.2-0.1-0.4-0.2-0.7-0.2c-0.2,0-0.5,0-0.7,0c-0.6,0-1.1,0.1-1.5,0.4c-0.4,0.3-0.6,0.7-0.7,1.2h-2.2c0-0.6,0.2-1.2,0.5-1.6
	c0.3-0.4,0.6-0.8,1-1c0.4-0.3,0.9-0.4,1.4-0.5s1.1-0.2,1.6-0.2s1,0.1,1.4,0.2c0.5,0.1,0.9,0.3,1.3,0.5s0.7,0.5,0.9,0.9
	c0.2,0.4,0.3,0.8,0.3,1.3v5H255.5z M253.3,72c-0.3,0.2-0.7,0.3-1.2,0.4c-0.5,0-1,0.1-1.5,0.2c-0.2,0-0.5,0.1-0.7,0.2
	c-0.2,0.1-0.4,0.2-0.6,0.3s-0.3,0.3-0.4,0.5s-0.1,0.4-0.1,0.7c0,0.2,0.1,0.4,0.2,0.6c0.1,0.2,0.3,0.3,0.5,0.4
	c0.2,0.1,0.4,0.2,0.7,0.2c0.2,0,0.5,0.1,0.6,0.1c0.2,0,0.5,0,0.8-0.1s0.5-0.2,0.8-0.3c0.2-0.2,0.5-0.3,0.6-0.6
	c0.2-0.2,0.3-0.5,0.3-0.9L253.3,72L253.3,72z"/>
<path class="st0" d="M256.5,67h2.4l2.6,7.4l0,0L264,67h2.3l-3.9,10.5c-0.2,0.4-0.4,0.9-0.5,1.3c-0.2,0.4-0.4,0.8-0.6,1.1
	s-0.6,0.6-0.9,0.8c-0.4,0.2-0.8,0.3-1.4,0.3c-0.5,0-1,0-1.5-0.1v-1.8c0.2,0,0.4,0.1,0.5,0.1c0.2,0,0.3,0,0.5,0c0.3,0,0.5,0,0.6-0.1
	c0.2-0.1,0.3-0.2,0.4-0.3s0.2-0.3,0.3-0.4c0.1-0.2,0.1-0.4,0.2-0.6l0.2-0.8L256.5,67z"/>
<path class="st0" d="M281.2,67.6c-0.1-0.4-0.2-0.8-0.4-1.1c-0.2-0.3-0.4-0.6-0.7-0.9c-0.3-0.2-0.6-0.4-1-0.6
	c-0.4-0.1-0.8-0.2-1.3-0.2c-0.7,0-1.4,0.1-1.9,0.4c-0.5,0.3-1,0.7-1.3,1.2s-0.6,1.1-0.7,1.7c-0.2,0.6-0.2,1.3-0.2,1.9
	c0,0.7,0.1,1.3,0.2,1.9c0.2,0.6,0.4,1.2,0.7,1.7c0.3,0.5,0.8,0.9,1.3,1.2s1.2,0.4,1.9,0.4c0.5,0,1-0.1,1.4-0.3s0.8-0.4,1.1-0.8
	c0.3-0.3,0.5-0.7,0.7-1.1c0.2-0.4,0.3-0.9,0.3-1.4h2.3c-0.1,0.8-0.2,1.6-0.5,2.2c-0.3,0.7-0.7,1.3-1.2,1.8s-1.1,0.9-1.8,1.1
	c-0.7,0.3-1.5,0.4-2.3,0.4c-1,0-1.9-0.2-2.8-0.6c-0.8-0.4-1.5-0.9-2.1-1.5c-0.6-0.7-1-1.4-1.3-2.3c-0.3-0.9-0.5-1.8-0.5-2.8
	s0.2-1.9,0.5-2.8c0.3-0.9,0.7-1.6,1.3-2.3c0.6-0.7,1.3-1.2,2.1-1.6c0.8-0.4,1.7-0.6,2.8-0.6c0.8,0,1.5,0.1,2.2,0.3s1.3,0.5,1.8,0.9
	s0.9,0.9,1.3,1.5c0.3,0.6,0.5,1.2,0.6,2h-2.5V67.6z"/>
<path class="st0" d="M289.8,77.3c-0.8,0-1.5-0.1-2.1-0.4c-0.6-0.3-1.1-0.6-1.6-1.1c-0.4-0.5-0.8-1-1-1.7c-0.2-0.6-0.3-1.3-0.3-2.1
	s0.1-1.5,0.3-2.1c0.2-0.6,0.6-1.2,1-1.7s1-0.8,1.6-1.1s1.3-0.4,2.1-0.4c0.8,0,1.5,0.1,2.1,0.4c0.6,0.3,1.1,0.6,1.6,1.1
	c0.4,0.5,0.8,1,1,1.7c0.2,0.6,0.3,1.3,0.3,2.1s-0.1,1.5-0.3,2.1c-0.2,0.6-0.6,1.2-1,1.7s-1,0.8-1.6,1.1
	C291.3,77.1,290.6,77.3,289.8,77.3 M289.8,75.5c0.5,0,0.9-0.1,1.3-0.3s0.7-0.5,0.9-0.8c0.2-0.3,0.4-0.7,0.5-1.1
	c0.1-0.4,0.2-0.8,0.2-1.3c0-0.4-0.1-0.8-0.2-1.3c-0.1-0.4-0.3-0.8-0.5-1.1s-0.5-0.6-0.9-0.8s-0.8-0.3-1.3-0.3s-0.9,0.1-1.3,0.3
	s-0.7,0.5-0.9,0.8c-0.2,0.3-0.4,0.7-0.5,1.1c-0.1,0.4-0.2,0.8-0.2,1.3c0,0.4,0.1,0.9,0.2,1.3c0.1,0.4,0.3,0.8,0.5,1.1
	s0.5,0.6,0.9,0.8S289.4,75.5,289.8,75.5"/>
<path class="st0" d="M306,77h-2.1v-1.3l0,0c-0.3,0.6-0.7,1-1.3,1.2c-0.6,0.3-1.2,0.4-1.8,0.4c-0.8,0-1.5-0.1-2-0.4
	c-0.6-0.3-1.1-0.7-1.4-1.1c-0.4-0.5-0.7-1-0.9-1.7c-0.2-0.6-0.3-1.3-0.3-2.1c0-0.9,0.1-1.7,0.4-2.3c0.2-0.7,0.6-1.2,1-1.6
	c0.4-0.4,0.9-0.7,1.4-0.9s1-0.3,1.6-0.3c0.3,0,0.6,0,0.9,0.1s0.6,0.2,0.9,0.3s0.6,0.3,0.8,0.5c0.3,0.2,0.5,0.4,0.6,0.7l0,0v-5.1h2.2
	L306,77L306,77z M298.4,72.1c0,0.4,0.1,0.8,0.2,1.2s0.3,0.8,0.5,1.1s0.5,0.6,0.9,0.8c0.3,0.2,0.8,0.3,1.2,0.3c0.5,0,0.9-0.1,1.3-0.3
	s0.6-0.5,0.9-0.8c0.2-0.3,0.4-0.7,0.5-1.1c0.1-0.4,0.2-0.8,0.2-1.3c0-1.1-0.2-2-0.7-2.6s-1.2-0.9-2-0.9c-0.5,0-0.9,0.1-1.3,0.3
	s-0.6,0.5-0.9,0.8c-0.2,0.3-0.4,0.7-0.5,1.2C298.4,71.2,298.4,71.7,298.4,72.1"/>
<path class="st1" d="M14.5,8.7c0,3.8-3.1,6.9-6.9,6.9c-3.8,0-6.8-3.1-6.8-6.9s3.1-6.9,6.9-6.9C11.4,1.8,14.5,4.9,14.5,8.7"/>
<path class="st2" d="M30.9,8.7c0,3.8-3.1,6.9-6.9,6.9s-6.9-3.1-6.9-6.9s3.1-6.9,6.9-6.9S30.9,4.9,30.9,8.7"/>
<path class="st3" d="M47.2,8.7c0,3.8-3.1,6.9-6.9,6.9s-6.9-3.1-6.9-6.9s3.1-6.9,6.9-6.9S47.2,4.9,47.2,8.7"/>
<path class="st4" d="M14.5,25c0,3.8-3.1,6.9-6.9,6.9c-3.8,0-6.9-3.1-6.9-6.9s3.1-6.9,6.9-6.9S14.5,21.2,14.5,25"/>
<path class="st2" d="M30.9,25c0,3.8-3.1,6.9-6.9,6.9s-6.9-3.1-6.9-6.9s3.1-6.9,6.9-6.9S30.9,21.2,30.9,25"/>
<path class="st1" d="M47.2,25c0,3.8-3.1,6.9-6.9,6.9s-6.9-3.1-6.9-6.9s3.1-6.9,6.9-6.9S47.2,21.2,47.2,25"/>
<path class="st4" d="M14.5,41.4c0,3.8-3.1,6.9-6.9,6.9c-3.8,0-6.9-3.1-6.9-6.9s3.1-6.9,6.9-6.9C11.4,34.5,14.5,37.6,14.5,41.4"/>
<path class="st4" d="M30.9,41.4c0,3.8-3.1,6.9-6.9,6.9s-6.9-3.1-6.9-6.9s3.1-6.9,6.9-6.9S30.9,37.6,30.9,41.4"/>
<path class="st1" d="M47.2,41.4c0,3.8-3.1,6.9-6.9,6.9s-6.9-3.1-6.9-6.9s3.1-6.9,6.9-6.9S47.2,37.6,47.2,41.4"/>
<path class="st4" d="M14.5,57.7c0,3.8-3.1,6.9-6.9,6.9c-3.8,0-6.9-3.1-6.9-6.9c0-3.8,3.1-6.9,6.9-6.9S14.5,53.9,14.5,57.7"/>
<path class="st5" d="M30.9,57.7c0,3.8-3.1,6.9-6.9,6.9s-6.9-3.1-6.9-6.9c0-3.8,3.1-6.9,6.9-6.9S30.9,53.9,30.9,57.7"/>
<path class="st4" d="M47.2,57.7c0,3.8-3.1,6.9-6.9,6.9s-6.9-3.1-6.9-6.9c0-3.8,3.1-6.9,6.9-6.9S47.2,53.9,47.2,57.7"/>
<path class="st2" d="M63.5,8.7c0,3.8-3.1,6.9-6.9,6.9s-6.9-3.1-6.9-6.9s3.1-6.9,6.9-6.9S63.5,4.9,63.5,8.7"/>
<path class="st1" d="M63.5,25c0,3.8-3.1,6.9-6.9,6.9s-6.9-3.1-6.9-6.9s3.1-6.9,6.9-6.9S63.5,21.2,63.5,25"/>
<path class="st1" d="M63.5,41.4c0,3.8-3.1,6.9-6.9,6.9s-6.9-3.1-6.9-6.9s3.1-6.9,6.9-6.9C60.4,34.5,63.5,37.6,63.5,41.4"/>
<path class="st4" d="M63.5,57.7c0,3.8-3.1,6.9-6.9,6.9s-6.9-3.1-6.9-6.9c0-3.8,3.1-6.9,6.9-6.9S63.5,53.9,63.5,57.7"/>
<path class="st4" d="M14.5,74c0,3.8-3.1,6.9-6.9,6.9c-3.8,0-6.9-3.1-6.9-6.9c0-3.8,3.1-6.9,6.9-6.9C11.4,67.1,14.5,70.2,14.5,74"/>
<path class="st4" d="M30.9,74c0,3.8-3.1,6.9-6.9,6.9s-6.9-3.1-6.9-6.9c0-3.8,3.1-6.9,6.9-6.9S30.9,70.2,30.9,74"/>
<path class="st4" d="M47.2,74c0,3.8-3.1,6.9-6.9,6.9s-6.9-3.1-6.9-6.9c0-3.8,3.1-6.9,6.9-6.9S47.2,70.2,47.2,74"/>
<path class="st6" d="M63.5,74c0,3.8-3.1,6.9-6.9,6.9s-6.9-3.1-6.9-6.9c0-3.8,3.1-6.9,6.9-6.9C60.4,67.1,63.5,70.2,63.5,74"/>
<path class="st2" d="M79.8,8.7c0,3.8-3.1,6.9-6.9,6.9S66,12.5,66,8.7s3.1-6.9,6.9-6.9S79.8,4.9,79.8,8.7"/>
<path class="st6" d="M79.8,25c0,3.8-3.1,6.9-6.9,6.9S66,28.8,66,25s3.1-6.9,6.9-6.9S79.8,21.2,79.8,25"/>
<path class="st1" d="M79.8,41.4c0,3.8-3.1,6.9-6.9,6.9S66,45.2,66,41.4s3.1-6.9,6.9-6.9C76.7,34.5,79.8,37.6,79.8,41.4"/>
<path class="st1" d="M79.8,57.7c0,3.8-3.1,6.9-6.9,6.9S66,61.5,66,57.7c0-3.8,3.1-6.9,6.9-6.9S79.8,53.9,79.8,57.7"/>
<path class="st6" d="M79.8,74c0,3.8-3.1,6.9-6.9,6.9S66,77.8,66,74c0-3.8,3.1-6.9,6.9-6.9C76.7,67.1,79.8,70.2,79.8,74"/>
<path class="st4" d="M17.9,44.7c-2.1-3.3-2.1-3.3-4.2,0v-6.6c2.1,3.3,2.3,3.2,4.2,0V44.7z"/>
<path class="st4" d="M17.9,77.3c-2.1-3.3-2.1-3.3-4.2,0v-6.6c2.1,3.3,2.3,3.2,4.2,0V77.3z"/>
<path class="st4" d="M34.2,77.3c-2.1-3.3-2.1-3.3-4.2,0v-6.6c2.1,3.3,2.3,3.2,4.2,0V77.3z"/>
<path class="st6" d="M66.9,77.3c-2.1-3.3-2.1-3.3-4.2,0v-6.6c2.1,3.3,2.3,3.2,4.2,0V77.3z"/>
<path class="st4" d="M50.6,61c-2.1-3.3-2.1-3.3-4.2,0v-6.6c2.1,3.3,2.3,3.2,4.2,0V61z"/>
<path class="st1" d="M50.6,44.7c-2.1-3.3-2.1-3.3-4.2,0v-6.6c2.1,3.3,2.3,3.2,4.2,0V44.7z"/>
<path class="st1" d="M76.2,47.4c-3.3,2.1-3.3,2.1,0,4.2h-6.6c3.3-2.1,3.2-2.3,0-4.2H76.2z"/>
<path class="st1" d="M59.9,31.1c-3.3,2.1-3.3,2.1,0,4.2h-6.6c3.3-2.1,3.2-2.3,0-4.2H59.9z"/>
<path class="st2" d="M27.3,14.8c-3.3,2.1-3.3,2.1,0,4.2h-6.6c3.3-2.1,3.2-2.3,0-4.2H27.3z"/>
<path class="st4" d="M43.6,63.8c-3.3,2.1-3.3,2.1,0,4.2H37c3.3-2.1,3.2-2.3,0-4.2H43.6z"/>
<path class="st4" d="M10.9,47.5c-3.3,2.1-3.3,2.1,0,4.2H4.3c3.3-2.1,3.2-2.3,0-4.2H10.9z"/>
<path class="st1" d="M50.6,28.3c-2.1-3.3-2.1-3.3-4.2,0v-6.6c2.1,3.3,2.3,3.2,4.2,0V28.3z"/>
<path d="M115.8,4.9h3.2l18.8,47.5h-3.1l-6-15.2H106l-6.1,15.2h-3.1L115.8,4.9z M127.7,34.7L117.5,7.8h-0.1l-10.6,26.9H127.7z"/>
<path d="M188.4,4.9v28.5c0,0.9,0,2,0.1,3.3c0.1,1.2,0.3,2.5,0.7,3.8s0.9,2.6,1.5,3.9c0.6,1.3,1.5,2.4,2.6,3.4s2.5,1.8,4.1,2.4
	c1.6,0.6,3.6,0.9,5.9,0.9c2.9,0,5.4-0.4,7.3-1.2c2-0.8,3.6-2,4.8-3.5c1.2-1.5,2.1-3.4,2.6-5.6s0.8-4.6,0.8-7.3V4.9h2.9v28.5
	c0,2.8-0.3,5.5-0.9,7.9s-1.6,4.6-3,6.4s-3.3,3.2-5.7,4.3c-2.4,1-5.3,1.6-8.9,1.6c-2.8,0-5.2-0.4-7.2-1.1c-2-0.7-3.6-1.6-5-2.8
	c-1.3-1.1-2.3-2.4-3.1-3.9s-1.3-2.9-1.7-4.4s-0.6-2.9-0.7-4.3c-0.1-1.4-0.1-2.6-0.1-3.7V4.9H188.4z"/>
<polygon points="227.3,4.9 231,4.9 261,48.5 261.1,48.5 261.1,4.9 264.1,4.9 264.1,52.4 260.6,52.4 230.4,8.5 230.3,8.5 230.3,52.4 
	227.3,52.4 "/>
<path d="M285.6,4.9h3.2l18.8,47.5h-3.1l-6-15.2h-22.7l-6.1,15.2h-3.1L285.6,4.9z M297.5,34.7L287.3,7.8h-0.1l-10.6,26.9H297.5z"/>
<path d="M174,47.5c2.3-2.3,4.1-5,5.3-8.2s1.8-6.7,1.8-10.6c0-3.5-0.5-6.7-1.5-9.7s-2.5-5.7-4.4-7.9c-1.9-2.2-4.3-4-7.1-5.3
	s-6-1.9-9.5-1.9s-6.7,0.6-9.5,1.9s-5.2,3-7.1,5.3c-1.9,2.2-3.4,4.9-4.4,7.9s-1.5,6.3-1.5,9.7c0,3.5,0.5,6.7,1.5,9.7s2.5,5.7,4.4,7.9
	c1.9,2.2,4.3,4,7.1,5.3s6,1.9,9.5,1.9c5.2,0,9.7-1.4,13.3-4.2c3.4,3.9,8,5.7,8.2,5.8l1-2.6C181,52.4,176.9,50.9,174,47.5 M158.5,51
	c-3.1,0-5.9-0.6-8.3-1.8c-2.4-1.2-4.5-2.8-6.2-4.8s-3-4.4-3.9-7.1s-1.3-5.6-1.3-8.6c0-3.1,0.4-5.9,1.3-8.6c0.9-2.7,2.2-5.1,3.9-7.1
	s3.7-3.6,6.2-4.8c2.4-1.2,5.2-1.8,8.3-1.8s5.9,0.6,8.3,1.8c2.4,1.2,4.5,2.8,6.2,4.8s3,4.4,3.9,7.1s1.3,5.6,1.3,8.6
	c0,3.5-0.6,6.6-1.7,9.6c-1,2.7-2.5,5.1-4.4,7.1c-3.5-3.5-8.2-5.2-8.4-5.3l-1,2.6c0,0,4.2,1.6,7.3,4.5l-0.4,0.3
	C166.6,49.8,162.9,51,158.5,51"/>
</svg>
