<?xml version="1.0" encoding="utf-8"?>
<!-- Generator: Adobe Illustrator 17.0.0, SVG Export Plug-In . SVG Version: 6.00 Build 0)  -->
<!DOCTYPE svg PUBLIC "-//W3C//DTD SVG 1.1//EN" "http://www.w3.org/Graphics/SVG/1.1/DTD/svg11.dtd">
<svg version="1.1" id="ASALEO" xmlns="http://www.w3.org/2000/svg" xmlns:xlink="http://www.w3.org/1999/xlink" x="0px" y="0px"
	 width="359.744px" height="201.726px" viewBox="0 0 359.744 201.726" enable-background="new 0 0 359.744 201.726"
	 xml:space="preserve">
<linearGradient id="SVGID_1_" gradientUnits="userSpaceOnUse" x1="301.444" y1="79.3265" x2="255.2853" y2="-3.4794">
	<stop  offset="0" style="stop-color:#705D85"/>
	<stop  offset="0.8303" style="stop-color:#00B0AD"/>
	<stop  offset="0.978" style="stop-color:#2CBEBB"/>
	<stop  offset="1" style="stop-color:#33C0BD"/>
</linearGradient>
<path fill="url(#SVGID_1_)" d="M294.804,63.638c0,0-2.48-2.685-3.56-4.327c-9.05-15.247-7.881-30.294-4.677-40.052
	c0.213-0.65,0.006-1.362-0.524-1.794c-9.865-8.037-19.212-13.349-23.925-15.801c-0.801-0.417-1.759-0.108-2.193,0.683
	c-2.753,5.016-5.101,14.093-3.691,24.44c1.18,8.655,5.671,20.617,18.653,29.756c1.72,1.211,3.713,2.243,5.601,3.161
	c3.558,1.73,9.245,3.742,12.626,4.744C294.62,64.895,295.064,64.185,294.804,63.638z"/>
<linearGradient id="SVGID_2_" gradientUnits="userSpaceOnUse" x1="271.7475" y1="174.8808" x2="360.6955" y2="24.0756">
	<stop  offset="0" style="stop-color:#321850"/>
	<stop  offset="0.2394" style="stop-color:#584371"/>
	<stop  offset="0.3749" style="stop-color:#705D85"/>
	<stop  offset="0.4932" style="stop-color:#55718E"/>
	<stop  offset="0.722" style="stop-color:#27939F"/>
	<stop  offset="0.8985" style="stop-color:#0BA8A9"/>
	<stop  offset="1" style="stop-color:#00B0AD"/>
</linearGradient>
<path fill="url(#SVGID_2_)" d="M357.993,19.263c-0.166-0.989-1.151-1.58-2.106-1.273c-12.387,3.983-21.024,7.558-28.768,15.904
	c-5.767,6.212-12.376,17.091-11.14,33.638c0.238,3.18,0.404,6.365,0.48,9.553c0.069,2.899,0.064,5.8-0.031,8.699
	c-0.087,2.635-0.249,5.268-0.503,7.892c-0.231,2.388-0.537,4.769-0.935,7.135c-0.363,2.157-0.801,4.302-1.328,6.425
	c-0.482,1.943-1.039,3.868-1.681,5.765c-0.591,1.745-1.254,3.466-1.996,5.153c-0.688,1.563-1.443,3.096-2.271,4.589
	c-0.773,1.395-1.608,2.756-2.506,4.074c-0.846,1.242-1.748,2.446-2.703,3.607c-0.907,1.103-1.862,2.167-2.86,3.189
	c-0.955,0.978-1.949,1.918-2.977,2.82c-0.989,0.868-2.01,1.7-3.056,2.499c-1.321,1.009-2.623,2.034-4.044,2.899
	c-1.363,0.83-2.75,1.66-4.184,2.359c-1.865,0.909-3.62,1.716-5.615,2.653c-1.441,0.677-1.479,1.213-0.846,2.217l1.327,2.207
	c0.443,0.735,1.023,1.211,2.286,0.716c1.011-0.353,6.408-2.587,12.727-5.7c7.663-3.775,14.961-8.151,21.625-13.509
	c5.738-4.614,11.009-9.802,15.749-15.434c5.659-6.724,10.555-14.073,14.696-21.821c0.502-0.939,0.993-1.885,1.473-2.836
	C363.972,62.652,359.401,27.675,357.993,19.263z"/>
<g>
	<linearGradient id="SVGID_3_" gradientUnits="userSpaceOnUse" x1="285.77" y1="71.0615" x2="202.4572" y2="7.3188">
		<stop  offset="0" style="stop-color:#705D85"/>
		<stop  offset="0.1728" style="stop-color:#4F7590"/>
		<stop  offset="0.4978" style="stop-color:#16A0A5"/>
		<stop  offset="0.6545" style="stop-color:#00B0AD"/>
		<stop  offset="0.9552" style="stop-color:#2CBEBB"/>
		<stop  offset="1" style="stop-color:#33C0BD"/>
	</linearGradient>
	<path fill="url(#SVGID_3_)" d="M252.1,32.267c-0.441-1.738-0.837-3.84-1.001-5.628c-0.069-0.758-0.696-1.361-1.451-1.45
		c-9.774-1.153-18.153-0.99-23.039-0.695c-1.09,0.066-1.662,0.087-2.447,0.175c-0.766,0.086-1.16,0.629-1.16,1.358
		c0,5.209,2.613,13.393,9.035,21.126c5.48,6.601,15.54,14.705,32.146,14.493c1.993-0.025,3.888-0.149,5.756-0.259
		c2.646-0.156,1.179-1.07,0.486-1.582C258.212,50.788,254.238,40.69,252.1,32.267z"/>
</g>
<linearGradient id="SVGID_4_" gradientUnits="userSpaceOnUse" x1="307.953" y1="108.3006" x2="305.996" y2="-6.8836">
	<stop  offset="0" style="stop-color:#705D85"/>
	<stop  offset="0.1461" style="stop-color:#636689"/>
	<stop  offset="0.4125" style="stop-color:#437F95"/>
	<stop  offset="0.7667" style="stop-color:#0EA6A8"/>
	<stop  offset="0.8547" style="stop-color:#00B0AD"/>
	<stop  offset="0.9812" style="stop-color:#2CBEBB"/>
	<stop  offset="1" style="stop-color:#33C0BD"/>
</linearGradient>
<path fill="url(#SVGID_4_)" d="M323.826,28.54c-0.052-0.173-0.121-0.356-0.201-0.555c-1.03-2.557-2.087-5.097-3.245-7.6
	c-1.762-3.806-3.695-7.546-5.773-11.186c-0.574-1.005-1.16-2.004-1.758-2.995c-0.523-0.867-1.055-1.728-1.597-2.583
	c-0.456-0.719-0.919-1.434-1.39-2.143c-0.171-0.258-0.343-0.515-0.516-0.771c-0.51-0.755-1.509-0.92-2.275-0.426
	c-4.811,3.102-11.195,9.952-14.886,19.702c-3.3,8.716-5.325,22.373,3.77,37.949c4.232,7.247,8.061,14.774,11.061,22.618
	c0.033,0.086,0.061,0.168,0.093,0.253c0.833,2.193,1.567,4.319,2.201,6.375c0.313,1.015,1.795,0.821,1.841-0.24
	c0.362-8.484-0.222-16.619-0.557-25.378c-0.291-7.608,2.352-15.143,5.973-21.839c0.739-1.366,1.537-2.701,2.403-3.991
	c0.87-1.297,1.807-2.548,2.818-3.738c0.517-0.608,1.069-1.185,1.62-1.762C323.972,29.637,324.01,29.153,323.826,28.54z"/>
<path fill="#321850" d="M220.169,170.212c2.28-10.997,10.595-19.177,20.786-19.177c6.839,0,11.667,3.755,11.667,8.449
	C252.622,169.541,234.786,171.419,220.169,170.212 M213.598,177.99c0,13.142,7.644,23.736,20.115,23.736
	c9.253,0,17.031-4.693,18.774-6.303c0.939-0.805,0.804-1.475,0.403-2.146l-1.207-2.012c-0.537-0.938-0.938-1.072-2.146-0.268
	c-2.548,1.878-8.448,5.23-14.617,5.23c-10.461,0-16.495-9.387-15.422-20.92c0,0,38.89,3.889,38.89-16.093
	c0-8.314-7.376-13.813-16.763-13.813C225.13,145.402,213.598,160.422,213.598,177.99 M180.475,198.642
	c-0.134,0.938,0.269,1.743,1.207,1.743h2.816c1.207,0,1.744-0.67,1.878-1.743l5.364-38.22c0.402-0.804,6.035-9.388,15.422-9.388
	c2.951,0,5.096,1.341,5.767,1.744c0.938,0.537,1.743,0.268,2.28-0.671l1.341-2.682c0.537-1.072,0-1.878-1.072-2.413
	c-1.073-0.537-3.487-1.61-7.108-1.61c-9.119,0-14.886,6.035-16.092,7.912l0.268-5.096c0-0.938-0.671-1.475-1.341-1.475h-1.743
	c-0.805,0-1.744,0.805-1.878,1.744L180.475,198.642z M163.781,186.572c-0.269,0.537-6.974,9.655-16.763,9.655
	c-8.717,0-13.947-8.851-13.947-19.177c0-14.214,8.985-26.016,21.322-26.016c9.119,0,13.142,6.839,13.41,7.376L163.781,186.572z
	 M174.911,148.487c0.134-0.939-0.537-1.744-1.341-1.744h-1.475c-0.804,0-1.61,0.403-1.878,1.475l-1.073,3.621
	c-0.938-1.341-5.766-6.437-14.617-6.437c-14.886,0-27.357,14.618-27.357,32.454c0,13.276,7.644,23.87,18.64,23.87
	c9.254,0,15.959-6.034,17.434-7.778l-0.269,4.56c-0.134,1.207,0.537,1.877,1.61,1.877h1.475c0.938,0,1.743-0.804,1.878-1.743
	L174.911,148.487z M78.921,177.454c0,13.813,9.923,24.273,21.591,24.273c10.46,0,17.836-7.107,20.383-10.326
	c0.671-0.805,0.537-1.609-0.134-2.146l-1.609-1.475c-0.804-0.804-1.475-0.804-2.548,0.268c-1.475,1.61-6.839,8.18-15.422,8.18
	c-9.388,0-16.227-8.448-16.227-19.445c0-14.617,11.264-25.748,22.931-25.748c7.108,0,11.399,4.292,12.606,5.767
	c0.671,0.804,1.609,1.207,2.682,0.268l1.072-0.938c0.804-0.804,1.207-1.609,0.671-2.414c-2.146-3.084-7.376-8.314-16.495-8.314
	C92.867,145.402,78.921,158.545,78.921,177.454"/>
<path fill="#321850" d="M268.146,122.717c-6.918,0-11.481-7.065-11.481-15.454c0-11.48,7.948-20.9,16.632-20.9
	c6.917,0,11.48,6.918,11.48,15.307C284.777,113.15,276.829,122.717,268.146,122.717 M243.419,108.44
	c0,14.718,10.155,26.934,22.96,26.934c17.956,0,31.644-16.19,31.644-35.176c0-14.277-9.714-26.64-22.96-26.64
	C257.254,73.558,243.419,89.601,243.419,108.44"/>
<path fill="#321850" d="M203.844,97.99c1.766-7.359,7.506-13.1,15.601-13.1c4.121,0,7.947,2.356,7.947,6.182
	C227.393,99.609,212.086,98.726,203.844,97.99 M188.096,109.028c0,14.424,8.684,26.346,22.961,26.346
	c8.83,0,17.084-3.599,22.333-8.668c1.589-1.534,1.619-2.65,0.736-3.827l-3.974-5.446c-1.03-1.324-1.996-1.002-3.533,0.148
	c-4.454,3.333-9.087,5.429-13.503,5.429c-8.242,0-12.216-7.211-11.48-15.16c15.454,1.766,39.003-0.736,39.003-17.514
	c0-10.892-8.684-16.779-19.722-16.779C201.195,73.558,188.096,90.337,188.096,109.028"/>
<path fill="#321850" d="M57.892,129.34c2.65,2.355,8.684,6.034,17.073,6.034c14.718,0,22.519-8.537,22.519-19.134
	c0-9.125-6.623-13.099-15.012-17.956c-4.269-2.502-6.917-4.268-6.917-7.506c0-2.649,2.061-5.004,6.623-5.004
	c5.74,0,9.566,2.208,10.744,2.796c1.03,0.589,2.65,0.147,3.533-1.177l2.796-5.004c1.031-1.472,0.884-3.091-0.588-4.269
	c-2.503-1.913-7.801-4.563-15.454-4.563c-15.307,0-21.341,9.567-21.341,18.103c0,8.095,5.74,12.953,12.952,17.22
	c5.74,3.386,8.095,5.446,8.095,8.684c0,3.827-3.533,5.887-7.212,5.887c-6.475,0-9.861-2.503-11.48-3.533
	c-1.325-0.883-2.502-0.294-3.238,0.736l-3.386,5.593C56.715,127.426,57.156,128.751,57.892,129.34"/>
<path fill="#321850" d="M163.189,131.128c-0.148,1.472,0.736,2.797,2.06,2.797h9.125c1.325,0,2.65-1.325,2.797-2.797l11.889-85.344
	c0.147-1.472-0.736-2.797-2.061-2.797h-8.977c-1.325,0-2.797,1.325-2.944,2.797L163.189,131.128z"/>
<path fill="#321850" d="M141.166,113.592c-0.589,1.177-5.887,9.125-13.247,9.125c-7.064,0-11.038-6.182-11.038-14.424
	c0-12.217,5.593-21.931,15.012-21.931c7.653,0,12.087,6.509,12.087,6.509L141.166,113.592z M159.269,77.826
	c0.147-1.472-0.736-2.797-2.061-2.797h-4.416c-1.177,0-2.208,0.883-2.796,2.061l-1.263,2.428c-1.177-1.472-7.421-5.96-16.252-5.96
	c-16.189,0-29.583,16.484-29.583,34.882c0,14.865,8.831,26.934,21.194,26.934c9.714,0,17.073-6.918,18.103-7.948l0.442,4.416
	c0.147,1.472,0.883,2.061,1.913,2.061h4.857c1.325,0,2.797-1.325,2.944-2.797L159.269,77.826z"/>
<path fill="#321850" d="M38.267,113.592c-0.589,1.177-5.887,9.125-13.247,9.125c-7.064,0-11.038-6.182-11.038-14.424
	c0-12.217,5.593-21.931,15.012-21.931c7.653,0,12.087,6.509,12.087,6.509L38.267,113.592z M56.37,77.826
	c0.147-1.472-0.736-2.797-2.061-2.797h-4.416c-1.177,0-2.208,0.883-2.796,2.061l-1.263,2.428c-1.177-1.472-7.421-5.96-16.252-5.96
	C13.394,73.558,0,90.042,0,108.44c0,14.865,8.831,26.934,21.194,26.934c9.714,0,17.073-6.918,18.103-7.948l0.442,4.416
	c0.147,1.472,0.883,2.061,1.913,2.061h4.857c1.325,0,2.797-1.325,2.944-2.797L56.37,77.826z"/>
</svg>
