<svg xmlns="http://www.w3.org/2000/svg" viewBox="0 0 60 60"><defs><style>.cls-1{fill:#fff;}.cls-2{fill:#54c4ca;}</style></defs><title>Navbar_Logo</title><g id="Layer_2" data-name="Layer 2"><g id="Layer_1-2" data-name="Layer 1"><path class="cls-1" d="M60,30A30,30,0,1,1,30,0,30,30,0,0,1,60,30Zm-33.53.18H23.21a.53.53,0,0,0-.59.59v8.3a.59.59,0,0,0,.15.43.6.6,0,0,0,.44.15.52.52,0,0,0,.58-.58V35.88h2.68a2.38,2.38,0,0,0,2.65-2.64v-.42a2.38,2.38,0,0,0-2.65-2.64Zm1.47,3.06a1.57,1.57,0,0,1-.33,1.13,1.6,1.6,0,0,1-1.14.34H23.79V31.35h2.68a1.6,1.6,0,0,1,1.14.34,1.61,1.61,0,0,1,.33,1.13Zm5.49,6.41h2A2.81,2.81,0,0,0,37.49,39a2.77,2.77,0,0,0,.67-2.05,2.39,2.39,0,0,0-2.72-2.74H33.71a2.23,2.23,0,0,1-.88-.13.77.77,0,0,1-.42-.43,2.23,2.23,0,0,1-.13-.88,2.42,2.42,0,0,1,.12-.86.72.72,0,0,1,.42-.42,2.21,2.21,0,0,1,.87-.13h1.67a2.14,2.14,0,0,1,1,.16.83.83,0,0,1,.42.56.66.66,0,0,0,.18.43.57.57,0,0,0,.42.14.66.66,0,0,0,.46-.16A.53.53,0,0,0,37.9,32c-.22-1.23-1.07-1.84-2.54-1.84H33.69a2.25,2.25,0,0,0-2.58,2.58,2.29,2.29,0,0,0,2.6,2.62h1.73a1.7,1.7,0,0,1,1.21.33A1.72,1.72,0,0,1,37,36.94a2.52,2.52,0,0,1-.14.93.84.84,0,0,1-.47.47,2.55,2.55,0,0,1-.94.14h-2a2.4,2.4,0,0,1-1.07-.18.87.87,0,0,1-.44-.66.86.86,0,0,0-.2-.44.71.71,0,0,0-.86,0,.52.52,0,0,0-.13.45,2.19,2.19,0,0,0,.83,1.49A3.15,3.15,0,0,0,33.43,39.65Zm15.89,0H51a3.18,3.18,0,0,0,2-.54,2.33,2.33,0,0,0,.81-1.71A.49.49,0,0,0,53.7,37a.59.59,0,0,0-.45-.16.58.58,0,0,0-.43.15.75.75,0,0,0-.18.44,1.11,1.11,0,0,1-.44.86,2.37,2.37,0,0,1-1.2.23H49.32a3.07,3.07,0,0,1-1.18-.18,1.12,1.12,0,0,1-.59-.6,3,3,0,0,1-.18-1.18V33.31a3.16,3.16,0,0,1,.17-1.19,1.1,1.1,0,0,1,.6-.6,2.86,2.86,0,0,1,1.17-.17H51a2.37,2.37,0,0,1,1.2.23,1.12,1.12,0,0,1,.44.86.72.72,0,0,0,.18.44.58.58,0,0,0,.43.15.63.63,0,0,0,.45-.15.52.52,0,0,0,.11-.45A2.36,2.36,0,0,0,53,30.72a3.18,3.18,0,0,0-2-.54H49.31a3.18,3.18,0,0,0-2.36.75,3.32,3.32,0,0,0-.76,2.38v3.21A3.27,3.27,0,0,0,47,38.89,3.23,3.23,0,0,0,49.32,39.65Z"/><path class="cls-2" d="M43.56,34.4h-.87v-.87a1,1,0,0,0-1-1V34.4H40.8a1,1,0,0,0-1,1h1.9v.87a1,1,0,0,0,1,1V35.43h.87a1,1,0,0,0,1-1Z"/></g></g></svg>