<svg id="Layer_1" data-name="Layer 1" xmlns="http://www.w3.org/2000/svg" viewBox="0 0 320.86 115.85"><defs><style>.cls-1{fill:#fff;}.cls-2{fill:#f6862e;}</style></defs><title>Celsius Resources Logo_Landscape Homepage</title><path class="cls-1" d="M142,67.38a16.46,16.46,0,1,1,14.28-24.5c-2.77,1.45-3,1.59-6.09,3.09A9.46,9.46,0,0,0,142,41.28a9.64,9.64,0,1,0,0,19.28,9.47,9.47,0,0,0,8.46-5c3.09,1.59,3.18,1.77,6.09,3.09A16.33,16.33,0,0,1,142,67.38Z"/><path class="cls-1" d="M167.08,54.33v6.91h18.32v6H160.17V34.69h23.69v6H167.08V48H181.9v6.32Z"/><path class="cls-1" d="M189.77,67.06V34.69h7V61.06h16.64v6Z"/><path class="cls-1" d="M222.27,57.65c.73,4.27,4.55,4.86,7.18,4.86s6.32-.73,6.32-4c0-6.91-19.32-2.46-19.32-14.59,0-6.68,6.27-9.82,12.14-9.82,6.77,0,13,3,13,10.46l-6.91-1c-.86-3.77-4.18-3.91-6.41-3.91s-4.91,1-4.91,3.68c0,2.41,1.55,3,9.68,4.91,2.41.59,9.64,2.09,9.64,9.46,0,6-4.64,10.41-13.5,10.41-7.27,0-13.82-3.55-13.82-11.55Z"/><path class="cls-1" d="M246.91,34.83h7.14V67.29h-7.14Z"/><path class="cls-1" d="M287.88,55c0,8.77-5.18,13-13.87,13s-13.82-4.18-13.82-13V34.83h7.14V55c0,3.55.91,7,6.68,7,5.09,0,6.73-2.18,6.73-7V34.83h7.14Z"/><path class="cls-1" d="M298.88,57.65c.73,4.27,4.55,4.86,7.18,4.86s6.32-.73,6.32-4c0-6.91-19.32-2.46-19.32-14.59,0-6.68,6.27-9.82,12.14-9.82,6.77,0,13,3,13,10.46l-6.91-1c-.86-3.77-4.18-3.91-6.41-3.91s-4.91,1-4.91,3.68c0,2.41,1.55,3,9.68,4.91,2.41.59,9.64,2.09,9.64,9.46,0,6-4.64,10.41-13.5,10.41-7.27,0-13.82-3.55-13.82-11.55Z"/><path class="cls-2" d="M137,87.39l4.56,6h-4.38l-4.11-5.86h-1.76v5.86h-3.6V77.12h7.34c4.1,0,5.68,2.58,5.68,5.22a4.88,4.88,0,0,1-3.88,5Zm-5.68-7.48v4.9h2.78c1.71,0,3.12-.39,3.12-2.46s-1.41-2.44-3.12-2.44Z"/><path class="cls-2" d="M147.24,86.91v3.47h9.19v3H143.78V77.05h11.88v3h-8.42v3.67h7.43v3.17Z"/><path class="cls-2" d="M161.41,88.57c.37,2.14,2.28,2.44,3.6,2.44s3.17-.36,3.17-2c0-3.47-9.69-1.23-9.69-7.32,0-3.35,3.15-4.93,6.09-4.93,3.4,0,6.52,1.48,6.52,5.25l-3.47-.5c-.43-1.89-2.1-2-3.22-2S162,80,162,81.36c0,1.21.78,1.48,4.86,2.46,1.21.3,4.83,1,4.83,4.74,0,3-2.33,5.22-6.77,5.22-3.65,0-6.93-1.78-6.93-5.79Z"/><path class="cls-2" d="M181,93.61a8.43,8.43,0,1,1,8.44-8.42A8.41,8.41,0,0,1,181,93.61Zm-5-8.42a4.95,4.95,0,1,0,5-5A5,5,0,0,0,176,85.2Z"/><path class="cls-2" d="M205.33,87.25c0,4.4-2.6,6.54-7,6.54s-6.93-2.1-6.93-6.54V77.12H195V87.25c0,1.78.46,3.53,3.35,3.53,2.55,0,3.38-1.09,3.38-3.53V77.12h3.58Z"/><path class="cls-2" d="M217.69,87.39l4.56,6h-4.38l-4.11-5.86H212v5.86h-3.6V77.12h7.34c4.1,0,5.68,2.58,5.68,5.22a4.88,4.88,0,0,1-3.88,5ZM212,79.91v4.9h2.78c1.71,0,3.12-.39,3.12-2.46s-1.41-2.44-3.12-2.44Z"/><path class="cls-2" d="M232.26,93.45a8.26,8.26,0,1,1,7.16-12.29c-1.39.73-1.51.8-3.06,1.55a4.74,4.74,0,0,0-4.1-2.35,4.83,4.83,0,0,0,0,9.67,4.75,4.75,0,0,0,4.24-2.53c1.55.8,1.6.89,3.06,1.55A8.19,8.19,0,0,1,232.26,93.45Z"/><path class="cls-2" d="M244.82,86.91v3.47H254v3H241.36V77.05h11.88v3h-8.42v3.67h7.43v3.17Z"/><path class="cls-2" d="M259,88.57c.36,2.14,2.28,2.44,3.6,2.44s3.17-.36,3.17-2c0-3.47-9.69-1.23-9.69-7.32,0-3.35,3.15-4.93,6.09-4.93,3.4,0,6.52,1.48,6.52,5.25l-3.47-.5c-.43-1.89-2.1-2-3.22-2s-2.46.48-2.46,1.85c0,1.21.78,1.48,4.86,2.46,1.21.3,4.83,1,4.83,4.74,0,3-2.33,5.22-6.77,5.22-3.65,0-6.93-1.78-6.93-5.79Z"/><path class="cls-2" d="M277.91,93.29V77.05h3.51V90.28h8.35v3Z"/><path class="cls-2" d="M293.37,80.13H288.2v-3h13.89v3H297V93.41h-3.58Z"/><path class="cls-2" d="M304.14,77.12h7c4.22,0,7.39,2.67,7.39,8.05,0,4.72-2.42,8.23-7.39,8.23h-7Zm3.58,13.27h3.19c2.08,0,4.06-1.28,4.06-4.88,0-3.28-1.16-5.38-4.7-5.38h-2.55Z"/><path class="cls-2" d="M73.46,103.63a45.49,45.49,0,1,1,28.79-80.71,56.16,56.16,0,1,0,0,70.45A45.3,45.3,0,0,1,73.46,103.63Z"/><path class="cls-2" d="M83.67,87.49a29.35,29.35,0,1,1,18.57-52.08,36.24,36.24,0,1,0,0,45.46A29.23,29.23,0,0,1,83.67,87.49Z"/><path class="cls-2" d="M91.68,74.83a16.69,16.69,0,1,1,10.56-29.61,20.6,20.6,0,1,0,0,25.85A16.62,16.62,0,0,1,91.68,74.83Z"/></svg>