<svg width="162" height="38" viewBox="0 0 162 38" fill="none" xmlns="http://www.w3.org/2000/svg">
<rect width="161.9" height="38" fill="black" fill-opacity="0" transform="translate(0.1)"/>
<path d="M117.4 30L110.6 9.1C109.6 5.9 108 5 105.5 5H93C94 5.4 94.6 7.9 94.6 7.9L100.7 28.9C101.4 31.5 103.6 32.9 106.1 32.9H119.4C118.4 32.8 117.4 30 117.4 30Z" fill="#D5002B"/>
<path d="M137.6 30L144.4 9.1C145.4 5.9 147 5 149.5 5H162C161 5.4 160.4 7.9 160.4 7.9L154.3 28.9C153.6 31.5 151.4 32.9 148.9 32.9H135.6C136.6 32.8 137.6 30 137.6 30Z" fill="#D5002B"/>
<path d="M135 5H120V33H135V5Z" fill="#D5002B"/>
<path d="M18.2 28.3H6.4L11.9 23.6C12.5 23.1 14.1 21.6 15.3 20.6C15.2 20 15.2 19.4 15.2 18.9C15.2 15.4 16.3 12.2 18 9.7C16.6 6.8 13.3 5 9.7 5C2.4 5 -0.4 10.6 0.6 11.8L3.1 14.1C3 13.6 4.5 9 9.4 9H9.9C11.9 9 14.9 10.3 14.9 13.2C14.9 15.5 13.4 17 9.5 20.5C9.5 20.5 1.2 27.4 0.1 28.3C0.1 29.6 0.1 32.3 0.1 32.3H22.7C20.9 31.4 19.4 30 18.2 28.3Z" fill="#D5002B"/>
<path d="M51.3 5C46.6 5 42.9 7.1 40.5 11C41.4 12.6 42 14.3 42.5 16.4C43 14.6 43.8 13.2 44.7 12.1C46.3 10.1 48.4 9.1 51.3 9.1C55.8 9.1 59.4 13.5 59.4 18.9C59.4 24.3 55.8 28.7 51.3 28.7C48.5 28.7 46.3 27.7 44.7 25.7C43.3 24 42.4 21.6 41.9 18.5V18.4C40.3 9.8 35.6 5 28.5 5C21.8 5 16.3 11.2 16.3 18.9C16.3 26.6 21.8 32.8 28.5 32.8C33.2 32.8 36.8 30.7 39.2 26.8C38.3 25.2 37.7 23.4 37.2 21.4C36.7 23.1 36 24.6 35.1 25.7C33.5 27.7 31.4 28.7 28.6 28.7C24.1 28.7 20.5 24.3 20.5 18.9C20.5 13.5 24.1 9.1 28.6 9.1C36.2 9.1 37.5 16.8 38 19.3V19.4C39.5 28.1 44.3 32.8 51.4 32.8C58.1 32.8 63.6 26.6 63.6 18.9C63.4 11.2 58 5 51.3 5Z" fill="#D5002B"/>
<path d="M79 0H78V38H79V0Z" fill="#2D373E"/>
</svg>
