<?xml version="1.0" encoding="UTF-8"?>
<svg width="211px" height="41px" viewBox="0 0 211 41" version="1.1" xmlns="http://www.w3.org/2000/svg" xmlns:xlink="http://www.w3.org/1999/xlink">
    <!-- Generator: Sketch 43.1 (39012) - http://www.bohemiancoding.com/sketch -->
    <title>Page 1</title>
    <desc>Created with Sketch.</desc>
    <defs>
        <polygon id="path-1" points="0 26.7626404 0 0.496599454 25.8155617 0.496599454 25.8155617 26.7626404 9.56225881e-16 26.7626404"></polygon>
        <polygon id="path-3" points="3.97671585 6.10689344 3.97671585 0.356855191 0.0358008197 0.356855191 0.0358008197 6.10689344 3.97671585 6.10689344"></polygon>
        <polygon id="path-5" points="0 40.4351522 210.941197 40.4351522 210.941197 0.576329781 0 0.576329781"></polygon>
    </defs>
    <g id="Symbols" stroke="none" stroke-width="1" fill="none" fill-rule="evenodd">
        <g id="caml_logo">
            <g id="Page-1">
                <g id="Group-3" transform="translate(0.000000, 0.079961)">
                    <mask id="mask-2" fill="white">
                        <use xlink:href="#path-1"></use>
                    </mask>
                    <g id="Clip-2"></g>
                    <path d="M21.8180918,12.2105585 C23.4201929,9.4110612 24.805529,6.08002842 25.8155617,2.11541913 C23.4542066,1.00680437 21.0830508,0.496599454 18.3014251,0.496599454 C8.19302623,0.496599454 -0.000230601093,8.69100929 -0.000230601093,18.7982552 C-0.000230601093,21.6536732 0.653523497,24.3545885 1.81921202,26.7626404 C4.52185683,26.3423699 15.0839634,23.9827443 21.8180918,12.2105585" id="Fill-1" fill="#F5811F" mask="url(#mask-2)"></path>
                </g>
                <path d="M34.3750131,10.1213126 C33.1124721,12.1996049 31.6527672,14.0282716 30.0593137,15.6251842 C20.1538437,25.5531377 5.1907153,26.7614874 1.85218798,26.9073426 C4.82809508,32.990023 11.0739257,37.1800448 18.3015404,37.1800448 C25.5118601,37.1800448 31.7467372,33.0090475 34.7284093,26.9488508 C35.9038984,24.5632825 36.573218,21.8836978 36.5985842,19.0501869 C36.6008902,18.9931131 36.6031962,18.9371923 36.6031962,18.8778126 C36.6031962,15.7058945 35.7949393,12.7224929 34.3750131,10.1213126" id="Fill-4" fill="#F5811F"></path>
                <path d="M51.0905369,31.1783055 C50.3370478,31.4475322 49.4492336,31.5824339 48.3452309,31.5824339 C46.4629495,31.5824339 44.7132637,30.8831361 43.4495697,29.6177126 C42.1040123,28.2721552 41.3776189,26.4434885 41.3776189,24.424576 C41.3776189,22.3537781 42.0769167,20.4985923 43.3953784,19.2054967 C44.6596489,17.9418027 46.3551434,17.269024 48.3452309,17.269024 C49.3414276,17.269024 50.6593128,17.4840596 51.4128019,17.8074776 L51.4664167,17.8074776 L51.2242855,20.0402727 L51.1447281,20.013177 C50.2292418,19.6367208 49.2878128,19.4211087 48.4536134,19.4211087 C47.1887664,19.4211087 46.0853402,19.9589858 45.305332,20.9817016 C44.5789385,21.8966115 44.1759631,23.1072672 44.1759631,24.424576 C44.1759631,25.9592262 44.687321,27.3578219 45.6016544,28.2450596 C46.3551434,29.0256443 47.3784358,29.402677 48.6150342,29.402677 C50.7942145,29.402677 51.9247363,28.1384066 51.9247363,28.1384066 L51.0905369,31.1783055 Z" id="Fill-6" fill="#6C6E70"></path>
                <path d="M62.8739068,24.3988063 C62.8739068,22.8924046 62.3360298,21.4384648 61.4205434,20.4981888 C60.6947265,19.7723719 59.752721,19.3941861 58.7311582,19.3941861 C56.0400434,19.3941861 54.5878331,21.9780713 54.5878331,24.3988063 C54.5878331,25.9334566 55.099191,27.4133391 56.0135243,28.3005768 C56.7393413,29.0252407 57.6542511,29.3757544 58.7311582,29.3757544 C59.8340079,29.3757544 60.7218221,29.0252407 61.4482156,28.3005768 C62.3360298,27.4133391 62.8739068,25.9334566 62.8739068,24.3988063 M65.6987702,24.3988063 C65.6987702,26.335279 65.0000489,28.1120604 63.761721,29.4305221 C62.4709314,30.8020221 60.6947265,31.5555112 58.7311582,31.5555112 C56.8477238,31.5555112 55.1251336,30.8550604 53.8337675,29.5919429 C52.5158822,28.2452325 51.7629697,26.3900467 51.7629697,24.3988063 C51.7629697,22.3268555 52.4893631,20.4710932 53.7807292,19.178574 C55.0449997,17.9148801 56.7664369,17.2426779 58.7311582,17.2426779 C60.7218221,17.2426779 62.4167402,17.8877844 63.6810107,19.1526314 C64.9729533,20.444574 65.6987702,22.3268555 65.6987702,24.3988063" id="Fill-8" fill="#6C6E70"></path>
                <path d="M79.2051339,23.1337287 L79.2051339,31.2595347 L76.5682104,31.2595347 L76.5682104,24.1835402 C76.5682104,20.873838 75.7876257,19.5559527 73.7704426,19.4216276 C71.1600383,19.4216276 69.734347,21.3846194 69.734347,24.9105101 L69.734347,31.2595347 L67.0985765,31.2595347 L67.0985765,17.5641358 L69.6536366,17.5641358 L69.6536366,19.610144 C70.4336448,18.1832997 72.1291393,17.2689664 74.0661885,17.2689664 C75.6267814,17.2689664 76.8639563,17.6990374 77.7258279,18.5603325 C78.692623,19.5288571 79.2051339,21.08945 79.2051339,23.1337287" id="Fill-10" fill="#6C6E70"></path>
                <path d="M88.5125399,31.2853044 C88.0017585,31.420206 87.3295563,31.5827798 86.6302585,31.5827798 C85.2316628,31.5827798 84.1282366,31.2334191 83.4289388,30.5047197 C82.7561601,29.8325175 82.406223,28.8374738 82.406223,27.5732033 L82.406223,19.7437197 L79.985488,19.7437197 L79.985488,19.3672634 L84.9082448,14.3908918 L85.0425699,14.3908918 L85.0425699,17.5922115 L88.6203459,17.5922115 L88.6203459,19.7437197 L85.0425699,19.7437197 L85.0425699,27.0895175 C85.0425699,27.8147579 85.258182,28.4344984 85.6888295,28.8657224 C86.0387667,29.2145066 86.5224525,29.4301186 87.060906,29.4301186 C88.1908514,29.4301186 89.2129907,28.6235913 89.2129907,28.6235913 L88.5125399,31.2853044 Z" id="Fill-12" fill="#6C6E70"></path>
                <path d="M99.193579,24.8029923 C98.9526008,24.8029923 98.7104697,24.7747437 98.4683385,24.7747437 C98.1991117,24.7482246 97.9304615,24.7482246 97.6883303,24.7482246 C96.9077456,24.7482246 95.8043194,24.8295115 94.8352183,25.1529295 C93.6528112,25.5553284 93.0613194,26.2822984 93.0613194,27.2779186 C93.0613194,27.7887 93.2481063,28.2723858 93.6257156,28.6499951 C94.0828822,29.1065852 94.8092757,29.4029077 95.507997,29.4029077 C96.6385189,29.4029077 97.6070434,29.052394 98.253303,28.4072874 C98.8713139,27.7887 99.193579,26.9274049 99.193579,25.9335142 L99.193579,24.8029923 Z M102.126825,31.2592464 L99.624803,31.2592464 C99.5706117,30.7749842 99.4910544,30.2371071 99.4639587,29.5920005 C98.9526008,30.2642027 97.6329861,31.5555689 95.2918085,31.5555689 C93.5715243,31.5555689 92.2000243,31.1254978 91.3387292,30.2642027 C90.6123358,29.5378093 90.2623986,28.5421891 90.2623986,27.2779186 C90.2623986,26.1744923 90.6394314,25.260159 91.3646719,24.5326126 C93.0065516,22.8653667 95.8043194,22.7310415 96.6114232,22.7310415 C97.5540052,22.7310415 98.253303,22.7310415 99.193579,22.7840798 C99.1676363,21.5469049 98.9255052,20.712129 98.3876281,20.1748284 C97.8756937,19.664047 97.0685899,19.4213393 95.9127019,19.4213393 C93.2746254,19.4213393 91.6609943,21.0897383 91.6609943,21.0897383 L91.9573167,18.4522383 C93.3559123,17.6451344 94.8092757,17.2427355 96.3151008,17.2427355 C98.1991117,17.2427355 99.5435161,17.6993257 100.459002,18.5877164 C101.401584,19.5291454 101.831655,20.927741 101.831655,22.9189814 L101.831655,28.5150934 C101.831655,29.7539978 102.045538,30.6400825 102.126825,31.1525934 L102.126825,31.2592464 Z" id="Fill-14" fill="#6C6E70"></path>
                <path d="M116.252237,23.1337287 L116.252237,31.2595347 L113.614161,31.2595347 L113.614161,24.1835402 C113.614161,20.873838 112.833576,19.5559527 110.816393,19.4216276 C108.207142,19.4216276 106.782603,21.3846194 106.782603,24.9105101 L106.782603,31.2595347 L104.144527,31.2595347 L104.144527,17.5641358 L106.701893,17.5641358 L106.701893,19.610144 C107.481901,18.1832997 109.175666,17.2689664 111.113292,17.2689664 C112.673885,17.2689664 113.91106,17.6990374 114.772931,18.5603325 C115.740879,19.5288571 116.252237,21.08945 116.252237,23.1337287" id="Fill-16" fill="#6C6E70"></path>
                <path d="M125.803907,25.0169325 C126.368304,24.4519598 126.689992,23.6725281 126.689992,22.8123861 C126.689992,22.0848396 126.394823,21.3843888 125.82985,20.8205691 C125.210686,20.2014052 124.350544,19.8520445 123.46273,19.8520445 C121.632334,19.8520445 120.152451,21.1976019 120.152451,22.8654243 C120.152451,23.7255664 120.448773,24.4519598 120.987227,24.9909899 C121.605238,25.6095773 122.466533,25.9335719 123.488672,25.9335719 C124.403006,25.9335719 125.210686,25.6095773 125.803907,25.0169325 M123.382019,40.4349216 C120.824653,40.4349216 118.646049,39.7062221 117.35353,38.416009 C116.602347,37.6630964 115.822339,36.3711538 116.44035,34.2467413 L119.615727,33.7878451 L119.615727,34.0576484 C119.050178,34.5678533 118.888181,35.1870172 118.888181,35.6453369 C118.888181,36.2362522 119.07612,36.7476101 119.480249,37.1517385 C120.206642,37.8516128 121.5522,38.2269161 123.46273,38.2269161 C125.345588,38.2269161 126.717088,37.8516128 127.443481,37.1246429 C128.034396,36.5337276 128.304776,35.7260473 127.416386,34.9731347 C125.264301,33.0885473 118.61953,34.1654544 118.61953,30.2907795 C118.61953,29.2957358 119.749476,28.2718669 121.013746,27.977274 L121.254724,27.9230828 L121.254724,27.6809516 L121.040842,27.6267604 C119.91032,27.1430746 119.021929,26.4702959 118.457533,25.6631921 C117.919656,24.8560883 117.62391,23.8869872 117.62391,22.7581948 C117.62391,21.3584462 118.107596,20.1477904 118.994834,19.2599762 C120.180123,18.0764161 122.062405,17.4313096 124.403006,17.4313096 L131.074872,17.4313096 L130.510476,19.5828178 L127.335099,19.5828178 L127.605478,19.8249489 C128.814981,21.0356046 129.219686,22.1649735 129.219686,23.1876893 C129.219686,27.1701702 125.479913,28.0850801 123.83861,28.3001156 C122.54782,28.4880555 121.310069,28.6235336 121.310069,29.5649626 C121.310069,30.398009 123.192927,31.017173 126.260498,31.6092413 C129.058265,32.1736374 130.725511,33.5451374 130.725511,35.8050281 C130.725511,38.6039489 127.793418,40.4349216 123.382019,40.4349216" id="Fill-18" fill="#6C6E70"></path>
                <path d="M141.46126,24.3988063 C141.46126,22.8924046 140.923383,21.4384648 140.007897,20.4981888 C139.28208,19.7723719 138.340075,19.3941861 137.317359,19.3941861 C134.627397,19.3941861 133.17461,21.9780713 133.17461,24.3988063 C133.17461,25.9334566 133.685968,27.4133391 134.600878,28.3005768 C135.326118,29.0252407 136.241605,29.3757544 137.317359,29.3757544 C138.421361,29.3757544 139.309176,29.0252407 140.034993,28.3005768 C140.923383,27.4133391 141.46126,25.9334566 141.46126,24.3988063 M144.285547,24.3988063 C144.285547,26.335279 143.586826,28.1120604 142.349075,29.4305221 C141.056555,30.8020221 139.28208,31.5555112 137.317359,31.5555112 C135.434501,31.5555112 133.713064,30.8550604 132.421121,29.5919429 C131.103812,28.2452325 130.349747,26.3900467 130.349747,24.3988063 C130.349747,22.3268555 131.074411,20.4710932 132.367506,19.178574 C133.631777,17.9148801 135.353214,17.2426779 137.317359,17.2426779 C139.309176,17.2426779 141.00467,17.8877844 142.267788,19.1526314 C143.559154,20.444574 144.285547,22.3268555 144.285547,24.3988063" id="Fill-20" fill="#6C6E70"></path>
                <path d="M159.536639,11.8091973 L158.454543,14.8456372 L160.602592,14.8456372 L159.536639,11.8091973 Z M161.240204,16.6789158 L160.780155,15.3783257 L158.268909,15.3783257 L157.808284,16.6789158 L157.153953,16.6789158 L159.269718,10.9294541 L159.786841,10.9294541 L161.894535,16.6789158 L161.240204,16.6789158 Z" id="Fill-22" fill="#F5811F"></path>
                <path d="M164.298436,16.7271691 C163.434258,16.7271691 162.869286,16.5092511 162.32795,15.967915 L162.74822,15.548221 C163.224411,16.0244123 163.668319,16.177762 164.314002,16.177762 C165.153966,16.177762 165.671089,15.7822811 165.671089,15.112385 C165.671089,14.8131801 165.582308,14.5549068 165.396097,14.3934861 C165.210463,14.2320653 165.065185,14.1836391 164.645491,14.1190708 L163.975018,14.0135708 C163.52304,13.9409314 163.167338,13.7962292 162.917136,13.5777347 C162.626578,13.3194615 162.481299,12.9643358 162.481299,12.5037101 C162.481299,11.526538 163.18348,10.8802784 164.322649,10.8802784 C165.057114,10.8802784 165.541376,11.0664888 166.034286,11.5103959 L165.638805,11.9064533 C165.283103,11.5830352 164.903764,11.4135434 164.298436,11.4135434 C163.531111,11.4135434 163.086627,11.8413085 163.086627,12.479497 C163.086627,12.7625598 163.167338,12.9885489 163.345477,13.1418986 C163.52304,13.2952484 163.821668,13.4082429 164.120297,13.4566691 L164.750414,13.5535216 C165.29175,13.634232 165.558095,13.7472265 165.799649,13.9570735 C166.114996,14.2239943 166.284488,14.6194751 166.284488,15.0956664 C166.284488,16.1051227 165.49295,16.7271691 164.298436,16.7271691" id="Fill-24" fill="#F5811F"></path>
                <path d="M168.913802,16.7271691 C168.049624,16.7271691 167.484651,16.5092511 166.943315,15.967915 L167.363586,15.548221 C167.839777,16.0244123 168.283684,16.177762 168.929944,16.177762 C169.769332,16.177762 170.286455,15.7822811 170.286455,15.112385 C170.286455,14.8131801 170.19825,14.5549068 170.012039,14.3934861 C169.826405,14.2320653 169.681127,14.1836391 169.261433,14.1190708 L168.590384,14.0135708 C168.138405,13.9409314 167.78328,13.7962292 167.532501,13.5777347 C167.24252,13.3194615 167.097242,12.9643358 167.097242,12.5037101 C167.097242,11.526538 167.799422,10.8802784 168.938015,10.8802784 C169.672479,10.8802784 170.157318,11.0664888 170.650228,11.5103959 L170.25417,11.9064533 C169.899045,11.5830352 169.519706,11.4135434 168.913802,11.4135434 C168.146477,11.4135434 167.701993,11.8413085 167.701993,12.479497 C167.701993,12.7625598 167.78328,12.9885489 167.960843,13.1418986 C168.138405,13.2952484 168.43761,13.4082429 168.735662,13.4566691 L169.36578,13.5535216 C169.907116,13.634232 170.174037,13.7472265 170.415591,13.9570735 C170.730362,14.2239943 170.90043,14.6194751 170.90043,15.0956664 C170.90043,16.1051227 170.108892,16.7271691 168.913802,16.7271691" id="Fill-26" fill="#F5811F"></path>
                <polygon id="Fill-28" fill="#F5811F" points="172.181996 16.6787429 172.181996 10.9292811 175.751124 10.9292811 175.751124 11.4781117 172.795395 11.4781117 172.795395 13.5050954 175.315288 13.5050954 175.315288 14.0545025 172.795395 14.0545025 172.795395 16.1293358 175.751124 16.1293358 175.751124 16.6787429"></polygon>
                <polygon id="Fill-30" fill="#F5811F" points="178.7121 11.4781117 178.7121 16.6787429 178.098701 16.6787429 178.098701 11.4781117 176.434914 11.4781117 176.434914 10.9292811 180.375887 10.9292811 180.375887 11.4781117"></polygon>
                <polygon id="Fill-32" fill="#F5811F" points="162.201292 26.3641617 162.201292 21.995424 160.626863 25.4602055 160.101669 25.4602055 158.503027 21.995424 158.503027 26.3641617 157.889628 26.3641617 157.889628 20.6141235 158.503027 20.6141235 160.376661 24.6928803 162.201292 20.6141235 162.814691 20.6141235 162.814691 26.3641617"></polygon>
                <path d="M166.122491,21.4948467 L165.040395,24.5312866 L167.188444,24.5312866 L166.122491,21.4948467 Z M167.826056,26.3639888 L167.366007,25.0639751 L164.854761,25.0639751 L164.394136,26.3639888 L163.739805,26.3639888 L165.85557,20.614527 L166.372693,20.614527 L168.480387,26.3639888 L167.826056,26.3639888 Z" id="Fill-34" fill="#F5811F"></path>
                <polygon id="Fill-36" fill="#F5811F" points="173.072635 26.3641617 170.020053 21.7532929 170.020053 26.3641617 169.406654 26.3641617 169.406654 20.6141235 169.987192 20.6141235 173.039774 25.2094268 173.039774 20.6141235 173.653749 20.6141235 173.653749 26.3641617"></polygon>
                <path d="M176.96178,21.4948467 L175.879684,24.5312866 L178.027733,24.5312866 L176.96178,21.4948467 Z M178.665345,26.3639888 L178.205296,25.0639751 L175.69405,25.0639751 L175.233425,26.3639888 L174.579094,26.3639888 L176.694859,20.614527 L177.211982,20.614527 L179.319676,26.3639888 L178.665345,26.3639888 Z" id="Fill-38" fill="#F5811F"></path>
                <path d="M183.491884,25.7505322 C183.088332,26.1869448 182.546996,26.4123574 181.957234,26.4123574 C181.391684,26.4123574 180.875138,26.2025104 180.487728,25.8151005 C179.946969,25.274341 179.946969,24.7087918 179.946969,23.4894885 C179.946969,22.2701852 179.946969,21.7046361 180.487728,21.1638765 C180.875138,20.7758902 181.38419,20.5660432 181.957234,20.5660432 C183.055471,20.5660432 183.798583,21.276871 183.968075,22.2863273 L183.354676,22.2863273 C183.192679,21.5593574 182.676133,21.1154503 181.957234,21.1154503 C181.577895,21.1154503 181.214698,21.2688 180.963919,21.5270732 C180.600723,21.898341 180.560367,22.2863273 180.560367,23.4894885 C180.560367,24.6926497 180.600723,25.0887071 180.963919,25.4599749 C181.214698,25.7182481 181.577895,25.8635268 181.957234,25.8635268 C182.376928,25.8635268 182.781633,25.694035 183.0474,25.3711934 C183.282037,25.0887071 183.370818,24.7739366 183.370818,24.329453 L183.370818,23.8930404 L181.957234,23.8930404 L181.957234,23.3522809 L183.984217,23.3522809 L183.984217,24.2648847 C183.984217,24.9267098 183.84701,25.3711934 183.491884,25.7505322" id="Fill-40" fill="#F5811F"></path>
                <polygon id="Fill-42" fill="#F5811F" points="185.411119 26.3641617 185.411119 20.6141235 188.980248 20.6141235 188.980248 21.1635306 186.024518 21.1635306 186.024518 23.1905142 188.544411 23.1905142 188.544411 23.7399213 186.024518 23.7399213 186.024518 25.8153311 188.980248 25.8153311 188.980248 26.3641617"></polygon>
                <polygon id="Fill-44" fill="#F5811F" points="194.565406 26.3641617 194.565406 21.995424 192.991554 25.4602055 192.465783 25.4602055 190.867141 21.995424 190.867141 26.3641617 190.253742 26.3641617 190.253742 20.6141235 190.867141 20.6141235 192.740775 24.6928803 194.565406 20.6141235 195.179381 20.6141235 195.179381 26.3641617"></polygon>
                <polygon id="Fill-46" fill="#F5811F" points="196.838729 26.3641617 196.838729 20.6141235 200.407858 20.6141235 200.407858 21.1635306 197.452705 21.1635306 197.452705 23.1905142 199.972598 23.1905142 199.972598 23.7399213 197.452705 23.7399213 197.452705 25.8153311 200.407858 25.8153311 200.407858 26.3641617"></polygon>
                <polygon id="Fill-48" fill="#F5811F" points="205.347794 26.3641617 202.295789 21.7532929 202.295789 26.3641617 201.681813 26.3641617 201.681813 20.6141235 202.262928 20.6141235 205.31551 25.2094268 205.31551 20.6141235 205.929486 20.6141235 205.929486 26.3641617"></polygon>
                <g id="Group-52" transform="translate(206.964481, 20.257557)">
                    <mask id="mask-4" fill="white">
                        <use xlink:href="#path-3"></use>
                    </mask>
                    <g id="Clip-51"></g>
                    <polygon id="Fill-50" fill="#F5811F" mask="url(#mask-4)" points="2.31298661 0.906262295 2.31298661 6.10689344 1.6995877 6.10689344 1.6995877 0.906262295 0.0358008197 0.906262295 0.0358008197 0.356855191 3.9767735 0.356855191 3.9767735 0.906262295"></polygon>
                </g>
                <polygon id="Fill-53" fill="#F5811F" points="157.88934 36.0492923 157.88934 30.2992541 158.502739 30.2992541 158.502739 35.5004617 161.442326 35.5004617 161.442326 36.0492923"></polygon>
                <mask id="mask-6" fill="white">
                    <use xlink:href="#path-5"></use>
                </mask>
                <g id="Clip-56"></g>
                <polygon id="Fill-55" fill="#F5811F" mask="url(#mask-6)" points="162.513814 36.0496959 163.127213 36.0496959 163.127213 30.2996577 162.513814 30.2996577"></polygon>
                <polygon id="Fill-57" fill="#F5811F" mask="url(#mask-6)" points="169.101857 36.0492923 169.101857 31.6805546 167.527428 35.1453361 167.002234 35.1453361 165.403592 31.6805546 165.403592 36.0492923 164.790193 36.0492923 164.790193 30.2992541 165.403592 30.2992541 167.277226 34.3780109 169.101857 30.2992541 169.715256 30.2992541 169.715256 36.0492923"></polygon>
                <polygon id="Fill-58" fill="#F5811F" mask="url(#mask-6)" points="171.375814 36.0496959 171.989213 36.0496959 171.989213 30.2996577 171.375814 30.2996577"></polygon>
                <polygon id="Fill-59" fill="#F5811F" mask="url(#mask-6)" points="175.339213 30.8489495 175.339213 36.0495806 174.725814 36.0495806 174.725814 30.8489495 173.062027 30.8489495 173.062027 30.2995423 177.003 30.2995423 177.003 30.8489495"></polygon>
                <polygon id="Fill-60" fill="#F5811F" mask="url(#mask-6)" points="178.074257 36.0492923 178.074257 30.2992541 181.643386 30.2992541 181.643386 30.8486612 178.687656 30.8486612 178.687656 32.8756448 181.208126 32.8756448 181.208126 33.4250519 178.687656 33.4250519 178.687656 35.5004617 181.643386 35.5004617 181.643386 36.0492923"></polygon>
                <path d="M185.912792,31.2689893 C185.613587,30.9622899 185.226754,30.8487189 184.78227,30.8487189 L183.530683,30.8487189 L183.530683,35.5005194 L184.78227,35.5005194 C185.226754,35.5005194 185.613587,35.3875249 185.912792,35.0802489 C186.308849,34.6680495 186.292131,33.8125194 186.292131,33.1097626 C186.292131,32.4075822 186.308849,31.6806123 185.912792,31.2689893 M186.340557,35.5166615 C185.994079,35.8637161 185.485027,36.04935 184.88777,36.04935 L182.917284,36.04935 L182.917284,30.2993117 L184.88777,30.2993117 C185.485027,30.2993117 185.994079,30.4855221 186.340557,30.8325768 C186.93839,31.4304101 186.906106,32.3107298 186.906106,33.1097626 C186.906106,33.9093719 186.93839,34.9188281 186.340557,35.5166615" id="Fill-61" fill="#F5811F" mask="url(#mask-6)"></path>
                <polygon id="Fill-62" fill="#6C6E70" mask="url(#mask-6)" points="152.039913 40.4351522 152.325858 40.4351522 152.325858 8.39197732 152.039913 8.39197732"></polygon>
            </g>
        </g>
    </g>
</svg>