<svg id="Layer_1" data-name="Layer 1" xmlns="http://www.w3.org/2000/svg" viewBox="0 0 960 444.09"><defs><style>.cls-1{fill:#6cb546;}</style></defs><title>IXUP-LogoLight Green</title><path class="cls-1" d="M763.88,127.09h-1.35V100.14H673.25V431.65h89.28V335.89c3.53,4.05,10.24,8.13,19.91,13,10,4.57,23.27,7,39.5,8.13,38.79-1.13,69.9-13.46,93.1-37.82q35.43-36.54,36.17-101.64c-1-36.2-12.89-65.4-36.17-87.67Q881,96,830.79,95c-18.26.15-33.1,4.09-43.82,11.36C775.43,112.66,767.89,119.82,763.88,127.09Zm.68,98.24c.18-12.82,4.68-24,13.9-32.31a50.8,50.8,0,0,1,34.45-13.46c13.87.15,25.75,4.84,35.12,13.46,9,8.28,13.53,19.49,14,32.31-.49,13.49-5,24.35-14,33-9.37,8.59-21.25,13-35.12,13.46-13.38-.49-24.93-4.87-34.45-13.46C769.24,249.68,764.74,238.82,764.56,225.33Z"/><path class="cls-1" d="M630.26,350.81V100.14H541.17V237.36a51.29,51.29,0,0,1-4.53,23c-3.19,7.12-9.9,10.87-20.39,11.36-11.21-.49-18.74-4.24-21.93-11.36a45.16,45.16,0,0,1-4.54-23V100.14H400.5v183.8c.49,26.27,8.7,45.28,24.26,56.3C440,351.33,457.7,357,477.27,357c25.93-1.31,47.3-11.21,63.9-29.72v23.54Z"/><rect class="cls-1" x="15.28" y="100.14" width="87.71" height="249.58"/><polygon class="cls-1" points="299.76 204.04 403.05 10.6 266.96 128.37 299.76 204.04"/><polyline class="cls-1" points="294.47 213.48 225.25 100.14 225.25 100.14 120.07 100.14 196.8 223.87 123.93 349.72 220.45 349.61"/><polygon class="cls-1" points="258.34 318.27 279.52 349.72 380.9 349.72 300.69 223.87 258.34 318.27"/></svg>