<svg xmlns="http://www.w3.org/2000/svg" viewBox="0 0 487.86 109.01"><defs><style>.cls-1{fill:#fff;}.cls-2{opacity:0.3;}.cls-3{fill:#09f;}.cls-4{opacity:0.6;}.cls-5{opacity:0.9;}.cls-6{fill:#083bb7;}</style></defs><title>OneMarket</title><g id="Layer_2" data-name="Layer 2"><g id="Layer_1-2" data-name="Layer 1"><circle class="cls-1" cx="54.51" cy="54.51" r="48.16"/><g class="cls-2"><path class="cls-3" d="M77.77,44.87a39.17,39.17,0,0,0-1.66,9.64h0a39.08,39.08,0,0,0,1.66,9.63A38.92,38.92,0,0,0,89,55l.33-.44L89,54.06A39.26,39.26,0,0,0,77.77,44.87Z"/><path class="cls-3" d="M32.91,54.51h0a40.13,40.13,0,0,0-1.66-9.64A39,39,0,0,0,20,54.06l-.34.45L20,55a38.66,38.66,0,0,0,11.24,9.19,40,40,0,0,0,1.66-9.63Z"/><path class="cls-3" d="M39.24,69.78h0a39.5,39.5,0,0,0-8-5.64A39,39,0,0,0,29.8,78.59c0,.18.05.37.07.55l.56.08a38.94,38.94,0,0,0,14.44-1.45,39.82,39.82,0,0,0-5.63-8Z"/><path class="cls-3" d="M69.78,39.24h0a39.82,39.82,0,0,0,8,5.63,38.94,38.94,0,0,0,1.45-14.44c0-.19,0-.37-.08-.56l-.55-.07a39,39,0,0,0-14.45,1.45,39.5,39.5,0,0,0,5.64,8Z"/><path class="cls-3" d="M54.51,32.91h0a40,40,0,0,0,9.63-1.66A38.66,38.66,0,0,0,55,20l-.44-.34-.45.34a39,39,0,0,0-9.19,11.24,40.22,40.22,0,0,0,9.64,1.66Z"/><path class="cls-3" d="M54.51,76.11h0a39.26,39.26,0,0,0-9.64,1.66A39.26,39.26,0,0,0,54.06,89l.45.33L55,89a38.92,38.92,0,0,0,9.19-11.24,39.08,39.08,0,0,0-9.63-1.66Z"/><path class="cls-3" d="M69.78,69.78h0a39.5,39.5,0,0,0-5.64,8,39,39,0,0,0,14.45,1.45l.55-.08c0-.18,0-.37.08-.55a39,39,0,0,0-1.45-14.45,39.5,39.5,0,0,0-8,5.64Z"/><path class="cls-3" d="M39.24,39.24h0a39.5,39.5,0,0,0,5.63-8A38.94,38.94,0,0,0,30.43,29.8l-.56.07c0,.19-.05.37-.07.56a38.94,38.94,0,0,0,1.45,14.44,39.82,39.82,0,0,0,8-5.63Z"/></g><g class="cls-4"><path class="cls-3" d="M79.14,29.87c0,.19,0,.37.08.56a38.94,38.94,0,0,1-1.45,14.44A39.26,39.26,0,0,1,89,54.06l.33.45c4.71-6.3,6.29-12.09,6.28-17C92.13,34,86.92,31,79.14,29.87Z"/><path class="cls-3" d="M29.87,79.14c0-.18-.05-.37-.07-.55a39,39,0,0,1,1.45-14.45A38.66,38.66,0,0,1,20,55l-.34-.44c-4.7,6.3-6.29,12.08-6.28,17C16.88,75,22.09,78,29.87,79.14Z"/><path class="cls-3" d="M54.51,19.67,55,20a38.66,38.66,0,0,1,9.19,11.24A39,39,0,0,1,78.59,29.8l.55.07c-1.13-7.78-4.1-13-7.6-16.48C66.59,13.38,60.81,15,54.51,19.67Z"/><path class="cls-3" d="M54.51,89.34,54.06,89a39.26,39.26,0,0,1-9.19-11.24,38.94,38.94,0,0,1-14.44,1.45l-.56-.08c1.13,7.78,4.1,13,7.61,16.48C42.42,95.63,48.21,94.05,54.51,89.34Z"/><path class="cls-3" d="M19.67,54.51l.34-.45a39,39,0,0,1,11.24-9.19A38.94,38.94,0,0,1,29.8,30.43c0-.19.05-.37.07-.56-7.78,1.13-13,4.1-16.48,7.61C13.38,42.42,15,48.21,19.67,54.51Z"/><path class="cls-3" d="M89.34,54.51,89,55a38.92,38.92,0,0,1-11.24,9.19,39,39,0,0,1,1.45,14.45c0,.18,0,.37-.08.55,7.78-1.13,13-4.1,16.48-7.6C95.63,66.59,94.05,60.81,89.34,54.51Z"/><path class="cls-3" d="M79.14,79.14l-.55.08a39,39,0,0,1-14.45-1.45A38.92,38.92,0,0,1,55,89l-.44.33c6.3,4.71,12.08,6.29,17,6.28C75,92.13,78,86.92,79.14,79.14Z"/><path class="cls-3" d="M29.87,29.87l.56-.07a38.94,38.94,0,0,1,14.44,1.45A39,39,0,0,1,54.06,20l.45-.34c-6.3-4.7-12.09-6.29-17-6.28C34,16.88,31,22.09,29.87,29.87Z"/></g><g class="cls-5"><path class="cls-3" d="M79.14,29.87c7.78,1.13,13,4.1,16.48,7.61A25.45,25.45,0,0,0,89,20.84l-.39-.39-.39-.38a25.4,25.4,0,0,0-16.63-6.68C75,16.88,78,22.09,79.14,29.87Z"/><path class="cls-3" d="M29.87,79.14c-7.78-1.13-13-4.1-16.48-7.6a25.4,25.4,0,0,0,6.68,16.63l.38.39.39.39a25.45,25.45,0,0,0,16.64,6.67C34,92.13,31,86.92,29.87,79.14Z"/><path class="cls-3" d="M102.67,54.51c0-.19,0-.37,0-.55a25.37,25.37,0,0,0-7-16.48c0,4.94-1.57,10.73-6.28,17,4.71,6.3,6.29,12.08,6.28,17a25.4,25.4,0,0,0,7-16.48C102.67,54.87,102.67,54.69,102.67,54.51Z"/><path class="cls-3" d="M19.67,54.51c-4.7-6.3-6.29-12.09-6.28-17A25.42,25.42,0,0,0,6.35,54c0,.18,0,.36,0,.55s0,.36,0,.55a25.46,25.46,0,0,0,7,16.48C13.38,66.59,15,60.81,19.67,54.51Z"/><path class="cls-3" d="M79.14,79.14c-1.13,7.78-4.1,13-7.6,16.48A25.41,25.41,0,0,0,88.17,89l.39-.39.39-.39a25.41,25.41,0,0,0,6.67-16.63C92.13,75,86.92,78,79.14,79.14Z"/><path class="cls-3" d="M29.87,29.87c1.13-7.78,4.1-13,7.61-16.48a25.44,25.44,0,0,0-16.64,6.68l-.39.38-.38.39a25.44,25.44,0,0,0-6.68,16.64C16.88,34,22.09,31,29.87,29.87Z"/><path class="cls-3" d="M54.51,89.34c-6.3,4.71-12.09,6.29-17,6.28a25.37,25.37,0,0,0,16.48,7h1.1a25.4,25.4,0,0,0,16.48-7C66.59,95.63,60.81,94.05,54.51,89.34Z"/><path class="cls-3" d="M54.51,19.67c6.3-4.7,12.08-6.29,17-6.28a25.46,25.46,0,0,0-16.48-7H54a25.42,25.42,0,0,0-16.48,7C42.42,13.38,48.21,15,54.51,19.67Z"/></g><path class="cls-6" d="M54.51,0A54.51,54.51,0,1,0,109,54.51,54.5,54.5,0,0,0,54.51,0ZM89,88.17l-.39.39-.39.39a25.41,25.41,0,0,1-16.63,6.67,25.4,25.4,0,0,1-16.48,7H54a25.37,25.37,0,0,1-16.48-7A25.45,25.45,0,0,1,20.84,89l-.39-.39-.38-.39a25.4,25.4,0,0,1-6.68-16.63,25.46,25.46,0,0,1-7-16.48c0-.19,0-.37,0-.55s0-.37,0-.55a25.42,25.42,0,0,1,7-16.48,25.44,25.44,0,0,1,6.68-16.64l.38-.39.39-.38a25.44,25.44,0,0,1,16.64-6.68A25.42,25.42,0,0,1,54,6.35h1.1a25.46,25.46,0,0,1,16.48,7,25.4,25.4,0,0,1,16.63,6.68l.39.38.39.39a25.45,25.45,0,0,1,6.67,16.64,25.37,25.37,0,0,1,7,16.48c0,.18,0,.36,0,.55s0,.36,0,.55a25.4,25.4,0,0,1-7,16.48A25.41,25.41,0,0,1,89,88.17Z"/><path class="cls-1" d="M156.5,39.53c8.9,0,16,6.66,16,14.91s-7.09,15-16,15-15.86-6.65-15.86-15S147.6,39.53,156.5,39.53Zm0,25.63a10.65,10.65,0,1,0,0-21.3,10.65,10.65,0,1,0,0,21.3Z"/><path class="cls-1" d="M210.06,40.4V68.62h-4.28L189.49,49h0V68.62h-4.84V40.4h4.28L205.17,60h.05V40.4Z"/><path class="cls-1" d="M241.36,56H230.51V64.3h19.1v4.32H225.67V40.4h22.9v4.32H230.51v7h10.85Z"/><path class="cls-1" d="M288.34,68.62V49.43h-.21l-9.38,15.82H278L268.6,49.43h-.22V68.62h-4.62V40.4h5L278.54,57h.08l9.81-16.64h4.75V68.62Z"/><path class="cls-1" d="M317.35,40.36h4.41l13.09,28.21h-5.31L326.12,61H312.68l-3.37,7.6h-5.05Zm-2.94,16.72h10l-4.84-10.93h-.26Z"/><path class="cls-1" d="M346.33,68.57V40.36h15.55c3.77,0,6.36,1,8.17,3A8.18,8.18,0,0,1,372.3,49c0,3.8-2.51,6.7-6.22,8.08l6.74,11.49h-5.58l-6.05-10.84h-10V68.57Zm4.84-23.89v8.73h11.58A4.61,4.61,0,0,0,367.46,49a4,4,0,0,0-1.17-2.81,5.56,5.56,0,0,0-4.41-1.51Z"/><path class="cls-1" d="M391.81,54.31l14.73-14h6L401,51.16l14,17.41h-6.26L397.51,54.4l-5.7,5.31v8.86H387V40.36h4.84Z"/><path class="cls-1" d="M442.55,56H431.7v8.25h19.1v4.32H426.86V40.36h22.9v4.32H431.7v7h10.85Z"/><path class="cls-1" d="M460.85,40.36h27v4.32H476.8V68.57H472V44.68H460.85Z"/></g></g></svg>
