<?xml version="1.0" encoding="UTF-8"?> <!-- Generator: Adobe Illustrator 22.0.1, SVG Export Plug-In . SVG Version: 6.00 Build 0) --> <svg xmlns="http://www.w3.org/2000/svg" xmlns:xlink="http://www.w3.org/1999/xlink" id="Layer_1" x="0px" y="0px" viewBox="0 0 479.5 82.3" style="enable-background:new 0 0 479.5 82.3;" xml:space="preserve"> <style type="text/css"> .st0{fill:#FFFFFF;} .st1{fill:#001CA8;} </style> <path class="st0" d="M384.2,18.7c-0.4,0-2.2,0-2.6,0c-9.3,0-14.9,4.6-14.9,16v21h6.4V35.9c0-7.5,3.3-11,9.8-11.1 c6.5,0.1,9.8,3.7,9.8,11.1v19.8h6.4v-21C399.1,23.3,393.6,18.7,384.2,18.7z"></path> <path class="st0" d="M32.4,49.8c-3,3.8-8.1,5.9-13.6,5.9C7.7,55.6,0,48.3,0,37.2C0,27,7.5,18.8,17.9,18.8c5.6,0,10.6,1.3,13.9,4.6 l-2.9,4.9c-3-2.7-6.4-3.7-10.1-3.7c-6.3,0-12.1,5.1-12.1,12.5c0,7.8,5.7,12.5,12.7,12.5c4.2,0,7.8-1.9,10.1-4.5L32.4,49.8z"></path> <path class="st0" d="M54.6,18.8c11.3,0,18.8,7.8,18.8,18.4c0,10.6-7.5,18.4-18.8,18.4c-11.3,0-18.8-7.8-18.8-18.4 C35.8,26.6,43.3,18.8,54.6,18.8z M54.6,49.8c7.1,0,12.1-5,12.1-12.5c0-7.4-5.1-12.5-12.1-12.5c-6.9,0-12.1,5.1-12.1,12.5 C42.4,44.6,47.5,49.8,54.6,49.8z"></path> <path class="st0" d="M116.3,28.8c0-6.2,5-10,12-10c5.8,0,10,2.1,12.1,4.2l-3,4.8c-2.1-1.9-5.2-3.4-8.9-3.4c-3.5,0-5.6,2-5.6,4.4 c0,7.4,19,3.9,19,16.3c0,7.4-6.6,10.7-13.6,10.7c-5.7,0-11.4-3-13-5.5l3.5-4.5c2,2.4,6.7,4.5,10.2,4.5c3.3,0,6.3-1.6,6.3-4.9 C135.3,38.2,116.3,41.7,116.3,28.8z"></path> <path class="st0" d="M146.4,9.8h6.3v9.8h12.9v5.9h-12.9v15.4c0,5.6,1.8,8.8,6.3,8.8c2.4,0,4.3-1,5.6-2l2,4.9c-1.9,1.6-5.1,3-9,3 c-7.9,0-11-5-11-14V9.8z"></path> <path class="st0" d="M200.4,51c-3.4,3.1-8.5,4.6-13.2,4.6c-11.4,0-18.9-7.3-18.9-18.4c0-10.3,6.6-18.4,18.2-18.4 c9.1,0,16.4,6.4,16.4,16.1c0,1.7-0.2,3.1-0.4,4.2h-27.1c0.5,6.7,5.4,10.6,12.3,10.6c4.5,0,8.5-1.6,10.8-3.7L200.4,51z M174.9,34.1 h21.4c-0.3-5.8-4.1-9.4-10.2-9.4C179.7,24.7,175.6,28.7,174.9,34.1z"></path> <path class="st0" d="M208.5,0h6.3v42.6c0,4.8,1.2,7,4.2,7c1.7,0,3.3-0.8,4.5-1.6l1.4,4.8c-1.9,1.5-4.6,2.7-8.3,2.7 c-5.3,0-8-3.2-8-10V0z"></path> <path class="st0" d="M228.6,0h6.3v42.6c0,4.8,1.2,7,4.2,7c1.7,0,3.3-0.8,4.5-1.6l1.4,4.8c-1.9,1.5-4.6,2.7-8.3,2.7 c-5.3,0-8-3.2-8-10V0z"></path> <path class="st0" d="M251.4,22c3.1-2,7.4-3.2,11.8-3.2c10,0,13.6,5.2,13.6,14.4v21.6h-6v-4.5c-2.1,2.7-5.5,5.1-11.3,5.1 c-6.4,0-10.8-4.1-10.8-10.9c0-7.2,5.7-11.2,13.3-11.2c2.7,0,6.4,0.5,8.8,2.3c0-6.6-1-11.1-8-11.1c-4.3,0-6.9,1.1-9.7,2.6L251.4,22z M270.8,45.2v-4.5c-2.2-1.6-4.9-2.4-7.9-2.4c-3.8,0-7.5,1.7-7.5,5.8c0,3.4,2.3,5.6,6.3,5.6C266.3,49.8,269,47.3,270.8,45.2z"></path> <path class="st0" d="M281.8,9.8h6.3v9.8H301v5.9h-12.9v15.4c0,5.6,1.8,8.8,6.3,8.8c2.4,0,4.3-1,5.6-2l2,4.9c-1.9,1.6-5.1,3-9,3 c-7.9,0-11-5-11-14V9.8z"></path> <path class="st0" d="M342,18.8c11.3,0,18.8,7.8,18.8,18.4c0,10.6-7.5,18.4-18.8,18.4c-11.3,0-18.8-7.8-18.8-18.4 C323.2,26.6,330.7,18.8,342,18.8z M342,49.8c7.1,0,12.1-5,12.1-12.5c0-7.4-5.1-12.5-12.1-12.5c-6.9,0-12.1,5.1-12.1,12.5 C329.8,44.6,334.9,49.8,342,49.8z"></path> <path class="st0" d="M95.5,18.7c-0.4,0-2.2,0-2.6,0c-9.3,0-14.9,4.6-14.9,16v21h6.4V35.9c0-7.5,3.3-11,9.8-11.1 c6.5,0.1,9.8,3.7,9.8,11.1v19.8h6.4v-21C110.4,23.3,104.8,18.7,95.5,18.7z"></path> <g> <polygon class="st0" points="308.7,25.8 308.7,55 314.9,55 314.9,19.5 "></polygon> </g> <g> <g> <path class="st1" d="M252.9,79.9V61.4c1,0,4.4-0.1,5-0.1c5.1,0,6.6,2.5,6.6,5.5c0,2.9-2,4.7-4,5.2l6.2,7.8h-2.8l-5.7-7.4h-3v7.4 H252.9z M255.1,63.5v6.9h2.7c2.1,0,4.2-1.3,4.2-3.5c0-1.9-1.1-3.4-4.3-3.4C257.1,63.5,256,63.5,255.1,63.5z"></path> </g> <g> <path class="st1" d="M269.9,61.4h10.5v2.1h-8.2v6h7.4v2.1h-7.4v6.2h8.5v2.1h-10.7V61.4z"></path> </g> <g> <path class="st1" d="M284.1,66c0-2.7,2.1-4.8,5.6-4.8c2.1,0,4.1,0.8,5.1,1.9l-1.2,1.7c-1-1-2.1-1.5-3.8-1.5 c-2.1,0-3.3,1.1-3.3,2.7c0,4.6,9.1,2.9,9.1,9.2c0,3-2.7,5-6,5c-2.3,0-4.9-1-5.9-2.8l1.3-1.5c1.1,1.4,3,2.2,4.6,2.2 c1.9,0,3.6-1,3.6-2.9C293.1,70.7,284.1,72.1,284.1,66z"></path> </g> <g> <path class="st1" d="M307.6,61.1c5.4,0,9.5,3.9,9.5,9.5c0,5.5-4.1,9.5-9.5,9.5s-9.5-3.9-9.5-9.5C298.1,65.3,302.1,61.1,307.6,61.1 z M307.6,78.1c4.2,0,7.1-3.2,7.1-7.4c0-4.3-3.1-7.4-7.1-7.4c-4,0-7.1,3.1-7.1,7.4C300.5,74.9,303.6,78.1,307.6,78.1z"></path> </g> <g> <path class="st1" d="M335.7,72.2c0,5.7-3.4,8-7.2,8c-4.4,0-7.7-2.7-7.7-8.2V61.4h2.3v10.2c0,4,2,6.5,5.4,6.5c3,0,4.9-2.1,4.9-6.3 V61.4h2.2V72.2z"></path> </g> <g> <path class="st1" d="M341,79.9V61.4c1,0,4.4-0.1,5-0.1c5.1,0,6.6,2.5,6.6,5.5c0,2.9-2,4.7-4,5.2l6.2,7.8H352l-5.7-7.4h-3v7.4H341z M343.3,63.5v6.9h2.7c2.1,0,4.2-1.3,4.2-3.5c0-1.9-1.1-3.4-4.3-3.4C345.3,63.5,344.1,63.5,343.3,63.5z"></path> </g> <g> <path class="st1" d="M371.1,78.1c-1.2,1.3-3.5,2.1-5.9,2.1c-5.6,0-9.4-3.8-9.4-9.5c0-5.3,3.4-9.5,9.2-9.5c2.4,0,4.3,0.7,5.6,1.8 l-1,1.7c-1.2-0.9-2.6-1.4-4.6-1.4c-4,0-6.9,3-6.9,7.4c0,4.4,2.9,7.4,7.2,7.4c1.8,0,3.5-0.6,4.7-1.6L371.1,78.1z"></path> </g> <g> <path class="st1" d="M374.7,61.4h10.5v2.1h-8.2v6h7.4v2.1h-7.4v6.2h8.5v2.1h-10.7V61.4z"></path> </g> <g> <path class="st1" d="M388.9,66c0-2.7,2.1-4.8,5.6-4.8c2.1,0,4,0.8,5.1,1.9l-1.2,1.7c-1-1-2.1-1.5-3.8-1.5c-2.1,0-3.3,1.1-3.3,2.7 c0,4.6,9.1,2.9,9.1,9.2c0,3-2.7,5-6,5c-2.3,0-4.9-1-5.9-2.8l1.3-1.5c1.1,1.4,3,2.2,4.6,2.2c1.9,0,3.6-1,3.6-2.9 C397.9,70.7,388.9,72.1,388.9,66z"></path> </g> </g> <g> <path class="st1" d="M448.4,82.3l-19-44.4l18.3-10.9l31.8-17.6L448.4,82.3z M432.9,39l15.4,36.1l25.2-59.3L449,29.4L432.9,39z"></path> <polygon class="st1" points="456.3,61.9 410.6,48.6 479.5,9 464.2,44.9 461.6,43.8 473.6,15.7 417.8,47.7 457.1,59.1 "></polygon> </g> <g> <polygon class="st1" points="315,19.4 315,13.1 308.7,13.1 308.7,13.2 "></polygon> </g> </svg> 