<?xml version="1.0" encoding="utf-8"?>
<!-- Generator: Adobe Illustrator 18.1.1, SVG Export Plug-In . SVG Version: 6.00 Build 0)  -->
<svg version="1.1" id="Layer_1" xmlns="http://www.w3.org/2000/svg" xmlns:xlink="http://www.w3.org/1999/xlink" x="0px" y="0px"
	 viewBox="0 0 170 156" enable-background="new 0 0 170 156" xml:space="preserve">
<polygon fill="#0066BD" points="28.5,137.7 28.5,155.9 41.3,155.9 41.3,153.4 31.2,153.4 31.2,147.9 39.6,147.9 39.6,145.5 
	31.2,145.5 31.2,140.2 41.3,140.2 41.3,137.7 "/>
<polygon fill="#0066BD" points="22.3,137.8 14,148.8 5.6,137.7 3.1,137.7 3.1,155.9 5.7,155.9 5.7,142.3 14,153 14.2,153 
	22.3,142.3 22.3,155.9 25,155.9 25,137.7 "/>
<polygon fill="#0066BD" points="42.8,137.7 42.8,140.2 48.8,140.2 48.8,155.9 51.5,155.9 51.5,140.2 57.5,140.2 57.5,137.7 "/>
<polygon fill="#0066BD" points="119.6,137.7 119.6,140.2 125.7,140.2 125.7,155.9 128.4,155.9 128.4,140.2 134.4,140.2 134.4,137.7 
	"/>
<polygon fill="#0066BD" points="75.1,137.7 75.1,155.9 85.8,155.9 85.8,153.4 77.8,153.4 77.8,137.7 "/>
<polygon fill="#0066BD" points="111.3,137.7 111.3,155.9 122,155.9 122,153.4 114,153.4 114,137.7 "/>
<path fill="#0066BD" d="M63.9,140.9l4,9h-8.1L63.9,140.9z M62.7,137.6L54.3,156h2.8l1.6-3.5h10.4l1.6,3.5h2.9l-8.4-18.4H62.7z"/>
<path fill="#0066BD" d="M142.3,153.6l-4,0V140h4c4.2,0,7.2,2.8,7.2,6.9C149.4,150.8,146.5,153.6,142.3,153.6 M142.3,137.7l-6.4,0
	l0,18.2h6.3c5.6,0,9.7-3.8,9.7-9.1C151.9,141.5,147.9,137.7,142.3,137.7"/>
<path fill="#0066BD" d="M94.6,145.4c-3.8-0.8-4.5-1.7-4.5-3.1c0-1.5,1.4-2.5,3.4-2.5c1.3,0,2.5,0.3,3.6,1l0.1,0.1l2.2-1.7l-0.2-0.1
	c-1.7-1.2-3.5-1.7-5.6-1.7c-3.6,0-6.1,2.2-6.1,5.2c0,3.4,2.5,4.6,6.2,5.4c3.6,0.8,4.3,1.6,4.3,3c0,1.7-1.9,2.4-3.8,2.4h-6.7v2.5h6.8
	c3.8,0,6.4-2.1,6.4-5.2C100.6,147.9,98.8,146.3,94.6,145.4"/>
<polygon fill="#0066BD" points="11.5,97.1 16.4,104.1 23.7,104.1 17.4,96.7 20.3,89.3 41.3,78.6 17.4,87.9 "/>
<polygon fill="#0066BD" points="80.4,76.6 84.4,78.4 88.9,74.5 82.2,73.5 77.3,76.6 73.7,72.6 67.5,79.3 77.7,81.1 "/>
<path fill="#0066BD" d="M141.5,46.4c2-2.1,4-4.8,5.5-8c1.5-3.2,2.5-7,2.7-11c0-1,0.1-2,0-3c-0.1-1-0.1-2-0.3-3.1
	c-0.2-1-0.4-2.1-0.7-3c-0.3-1-0.6-2-1.1-3.1c-1.7-4.2-4.6-7.8-8.1-10.5c-1.8-1.4-3.8-2.5-6-3.3c-2.2-0.8-4.6-1.3-7.1-1.3
	c-2.5,0-5,0.5-7.3,1.4c-0.6,0.2-1.1,0.5-1.6,0.8c-0.5,0.3-0.9,0.5-1.3,0.8c-0.9,0.5-1.7,1.2-2.5,1.8c-1.6,1.3-3.1,2.9-4.3,4.7
	c-1.2,1.8-2.2,3.9-2.6,6c-0.4,2.1-0.4,4.3,0,6.2c0.4,2,1.2,3.9,2.1,5.3c0.3,0.5,0.7,1,1,1.4c0.3,0.4,0.6,0.7,1,1.1
	c0.7,0.7,1.5,1.2,2.3,1.7c1.6,0.9,3.3,1.4,5,1.6c1.6,0.1,3.2-0.1,4.6-0.6c0.3-0.1,0.7-0.2,1-0.4c0.3-0.2,0.7-0.3,1-0.5
	c0.2-0.2,0.4-0.3,0.7-0.5c0.3-0.2,0.6-0.5,0.9-0.7c1.9-1.8,2.7-4,2.8-5.7c0.1-1.7-0.4-3-0.8-3.7c-0.4-0.7-0.9-1-1.1-0.9
	c-0.5,0.2-0.1,1.9-1.1,3.9c-0.3,0.7-0.9,1.4-1.6,1.9c-0.7,0.5-1.7,0.9-3,1c-0.7,0-1.5-0.1-2.2-0.4c-0.1,0-0.1-0.1-0.2-0.1
	c-0.5-0.3-1.9-1.1-2.6-2.8c-0.4-1-0.4-1.8-0.4-2.6c0.1-0.8,0.3-1.7,0.6-2.4c0.4-0.7,0.9-1.3,1.5-1.9c0.7-0.6,1.4-1.1,2.4-1.6
	c0.5-0.2,0.9-0.5,1.5-0.6c0.1,0,0.2-0.1,0.3-0.1c1.4-0.4,3-0.1,3-0.1c0.7,0.2,1.4,0.5,2,1c0.7,0.5,1.3,1,1.9,1.7
	c1.1,1.3,1.9,2.9,2,4.3c0.1,0.3,0.1,0.8,0.1,1.2c0,0,0,0,0,0c0,0.1,0,0.2,0,0.5c0,0.2,0,0.5,0,0.7c0,0.2,0,0.4,0,0.7
	c-0.2,2.3-1.1,6.3-5.3,8.6c-2.3,1.4-4.5,1.7-4.5,1.7c-1.2,0.3-2.5,0.3-3.7,0.3c-2.1-0.2-4.1-0.8-5.9-1.8c-1-0.6-1.9-1.2-2.6-2
	c-0.3-0.3-0.7-0.7-1-1l-0.2-0.2c-0.4-0.4-0.8-1-1.1-1.5l-0.1-0.1c-0.6-0.9-1.1-1.9-1.5-3l-14.9-5.5L53.4,38.3l-29.7,7.4L13.6,61
	l0.8-0.1L25.1,56l-4.3,4.5l5.3,8.5L11.7,80L2.5,97.7l0,6.3h10.7L9.1,97l7.1-11.1l26.1-9.5l2-5.2l4.6-12.2l-2.3,11.6l7-1.7
	c3.3-0.1,17.2,1.8,17.2,1.8l5.1-2.2l1.9,2.8l15.5,2.1L85.7,80l-5-1.5l-3.4,7.2l9.1-0.8l19.8-15.5l-20.5-9l9,1.7l4-8l12.5-3l1.8,0.4
	c-0.1,2.8-0.6,11.9-0.8,12.7l4.2,5.7h2.5l3.7-4.7l-1.7,4.7h2.5c3.6-5.9,9.3-15.1,11-18c0.3-0.2,0.7-0.4,1-0.6
	C137.4,50.1,139.5,48.6,141.5,46.4"/>
<path fill="#384A59" d="M70.3,122.4h-3.9v-9.7h4c3.8,0,6,1.7,6,4.8C76.4,120.4,73.9,122.4,70.3,122.4 M79.6,117.4
	c0-4.7-3.5-7.7-9-7.7h-7.5v20.8h3.2v-5.1h3.8h2.3l3.2,5.1h3.7l-3.8-6.3C77.9,122.9,79.6,120.7,79.6,117.4"/>
<path fill="#384A59" d="M139.3,122.4h-3.9v-9.7h4c3.8,0,6,1.7,6,4.8C145.4,120.4,143,122.4,139.3,122.4 M148.7,117.4
	c0-4.7-3.5-7.7-9-7.7h-7.5v20.8h3.2v-5.1h3.8h2.3l3.2,5.1h3.7l-3.8-6.3C147,122.9,148.7,120.7,148.7,117.4"/>
<path fill="#384A59" d="M17.1,124l-0.2,0.3c-1.4,2-3.7,3.2-6.1,3.2c-4.2,0-7.6-3.4-7.6-7.6c0-4.2,3.4-7.6,7.6-7.6
	c2.6,0,5,1.4,6.4,3.7l0.2,0.3l2.5-2.1l-0.1-0.2c-2-3-5.4-4.9-9-4.9c-5.9,0-10.8,4.8-10.8,10.8c0,5.9,4.8,10.8,10.8,10.8
	c3.4,0,6.6-1.6,8.7-4.4l0.2-0.2L17.1,124z"/>
<path fill="#384A59" d="M50.9,122.4H47v-9.7h4c3.8,0,6,1.7,6,4.8C57,120.4,54.5,122.4,50.9,122.4 M51.2,109.7h-7.4v20.8H47v-5.1h3.8
	c4.7,0,9.5-2.5,9.5-8C60.2,112.7,56.7,109.7,51.2,109.7"/>
<rect x="83" y="109.7" fill="#384A59" width="3.2" height="20.8"/>
<path fill="#384A59" d="M106.2,124.3c-1.4,2-3.7,3.2-6.1,3.2c-4.2,0-7.6-3.4-7.6-7.6c0-4.2,3.4-7.6,7.6-7.6c2.6,0,5.1,1.4,6.4,3.7
	l0.2,0.3l2.5-2.1l-0.1-0.2c-2-3-5.4-4.9-9-4.9c-5.9,0-10.8,4.8-10.8,10.8c0,5.9,4.8,10.8,10.8,10.8c3.4,0,6.6-1.6,8.7-4.4l0.2-0.2
	l-2.5-2.1L106.2,124.3z"/>
<polygon fill="#384A59" points="166.8,109.7 166.8,124.7 154.2,109.7 151.3,109.7 151.3,130.5 154.4,130.5 154.4,115 167.5,130.5 
	170,130.5 170,109.7 "/>
<path fill="#384A59" d="M119.6,127.4c-4.2,0-7.6-3.4-7.6-7.6c0-4.2,3.4-7.6,7.6-7.6c4.2,0,7.6,3.4,7.6,7.6
	C127.1,124,123.7,127.4,119.6,127.4 M119.6,109.1c-5.9,0-10.8,4.8-10.8,10.8c0,5.9,4.8,10.8,10.8,10.8c5.9,0,10.8-4.8,10.8-10.8
	C130.3,113.9,125.5,109.1,119.6,109.1"/>
<path fill="#384A59" d="M26.1,123.5l4.4-9.9l4.4,9.9H26.1z M29.1,109.5l-9.6,21.1h3.3l1.8-3.9h11.7l1.8,3.9h3.5l-9.6-21.1H29.1z"/>
<polygon fill="#0066BD" points="28.5,137.7 28.5,155.9 41.3,155.9 41.3,153.4 31.2,153.4 31.2,147.9 39.6,147.9 39.6,145.5 
	31.2,145.5 31.2,140.2 41.3,140.2 41.3,137.7 "/>
<polygon fill="#0066BD" points="22.3,137.8 14,148.8 5.6,137.7 3.1,137.7 3.1,155.9 5.7,155.9 5.7,142.3 14,153 14.2,153 
	22.3,142.3 22.3,155.9 25,155.9 25,137.7 "/>
<polygon fill="#0066BD" points="42.8,137.7 42.8,140.2 48.8,140.2 48.8,155.9 51.5,155.9 51.5,140.2 57.5,140.2 57.5,137.7 "/>
<polygon fill="#0066BD" points="119.6,137.7 119.6,140.2 125.7,140.2 125.7,155.9 128.4,155.9 128.4,140.2 134.4,140.2 134.4,137.7 
	"/>
<polygon fill="#0066BD" points="75.1,137.7 75.1,155.9 85.8,155.9 85.8,153.4 77.8,153.4 77.8,137.7 "/>
<polygon fill="#0066BD" points="111.3,137.7 111.3,155.9 122,155.9 122,153.4 114,153.4 114,137.7 "/>
<path fill="#0066BD" d="M63.9,140.9l4,9h-8.1L63.9,140.9z M62.7,137.6L54.3,156h2.8l1.6-3.5h10.4l1.6,3.5h2.9l-8.4-18.4H62.7z"/>
<path fill="#0066BD" d="M142.3,153.6l-4,0V140h4c4.2,0,7.2,2.8,7.2,6.9C149.4,150.8,146.5,153.6,142.3,153.6 M142.3,137.7l-6.4,0
	l0,18.2h6.3c5.6,0,9.7-3.8,9.7-9.1C151.9,141.5,147.9,137.7,142.3,137.7"/>
<path fill="#0066BD" d="M94.6,145.4c-3.8-0.8-4.5-1.7-4.5-3.1c0-1.5,1.4-2.5,3.4-2.5c1.3,0,2.5,0.3,3.6,1l0.1,0.1l2.2-1.7l-0.2-0.1
	c-1.7-1.2-3.5-1.7-5.6-1.7c-3.6,0-6.1,2.2-6.1,5.2c0,3.4,2.5,4.6,6.2,5.4c3.6,0.8,4.3,1.6,4.3,3c0,1.7-1.9,2.4-3.8,2.4h-6.7v2.5h6.8
	c3.8,0,6.4-2.1,6.4-5.2C100.6,147.9,98.8,146.3,94.6,145.4"/>
<polygon fill="#0066BD" points="11.5,97.1 16.4,104.1 23.7,104.1 17.4,96.7 20.3,89.3 41.3,78.6 17.4,87.9 "/>
<polygon fill="#0066BD" points="80.4,76.6 84.4,78.4 88.9,74.5 82.2,73.5 77.3,76.6 73.7,72.6 67.5,79.3 77.7,81.1 "/>
<path fill="#0066BD" d="M141.5,46.4c2-2.1,4-4.8,5.5-8c1.5-3.2,2.5-7,2.7-11c0-1,0.1-2,0-3c-0.1-1-0.1-2-0.3-3.1
	c-0.2-1-0.4-2.1-0.7-3c-0.3-1-0.6-2-1.1-3.1c-1.7-4.2-4.6-7.8-8.1-10.5c-1.8-1.4-3.8-2.5-6-3.3c-2.2-0.8-4.6-1.3-7.1-1.3
	c-2.5,0-5,0.5-7.3,1.4c-0.6,0.2-1.1,0.5-1.6,0.8c-0.5,0.3-0.9,0.5-1.3,0.8c-0.9,0.5-1.7,1.2-2.5,1.8c-1.6,1.3-3.1,2.9-4.3,4.7
	c-1.2,1.8-2.2,3.9-2.6,6c-0.4,2.1-0.4,4.3,0,6.2c0.4,2,1.2,3.9,2.1,5.3c0.3,0.5,0.7,1,1,1.4c0.3,0.4,0.6,0.7,1,1.1
	c0.7,0.7,1.5,1.2,2.3,1.7c1.6,0.9,3.3,1.4,5,1.6c1.6,0.1,3.2-0.1,4.6-0.6c0.3-0.1,0.7-0.2,1-0.4c0.3-0.2,0.7-0.3,1-0.5
	c0.2-0.2,0.4-0.3,0.7-0.5c0.3-0.2,0.6-0.5,0.9-0.7c1.9-1.8,2.7-4,2.8-5.7c0.1-1.7-0.4-3-0.8-3.7c-0.4-0.7-0.9-1-1.1-0.9
	c-0.5,0.2-0.1,1.9-1.1,3.9c-0.3,0.7-0.9,1.4-1.6,1.9c-0.7,0.5-1.7,0.9-3,1c-0.7,0-1.5-0.1-2.2-0.4c-0.1,0-0.1-0.1-0.2-0.1
	c-0.5-0.3-1.9-1.1-2.6-2.8c-0.4-1-0.4-1.8-0.4-2.6c0.1-0.8,0.3-1.7,0.6-2.4c0.4-0.7,0.9-1.3,1.5-1.9c0.7-0.6,1.4-1.1,2.4-1.6
	c0.5-0.2,0.9-0.5,1.5-0.6c0.1,0,0.2-0.1,0.3-0.1c1.4-0.4,3-0.1,3-0.1c0.7,0.2,1.4,0.5,2,1c0.7,0.5,1.3,1,1.9,1.7
	c1.1,1.3,1.9,2.9,2,4.3c0.1,0.3,0.1,0.8,0.1,1.2c0,0,0,0,0,0c0,0.1,0,0.2,0,0.5c0,0.2,0,0.5,0,0.7c0,0.2,0,0.4,0,0.7
	c-0.2,2.3-1.1,6.3-5.3,8.6c-2.3,1.4-4.5,1.7-4.5,1.7c-1.2,0.3-2.5,0.3-3.7,0.3c-2.1-0.2-4.1-0.8-5.9-1.8c-1-0.6-1.9-1.2-2.6-2
	c-0.3-0.3-0.7-0.7-1-1l-0.2-0.2c-0.4-0.4-0.8-1-1.1-1.5l-0.1-0.1c-0.6-0.9-1.1-1.9-1.5-3l-14.9-5.5L53.4,38.3l-29.7,7.4L13.6,61
	l0.8-0.1L25.1,56l-4.3,4.5l5.3,8.5L11.7,80L2.5,97.7l0,6.3h10.7L9.1,97l7.1-11.1l26.1-9.5l2-5.2l4.6-12.2l-2.3,11.6l7-1.7
	c3.3-0.1,17.2,1.8,17.2,1.8l5.1-2.2l1.9,2.8l15.5,2.1L85.7,80l-5-1.5l-3.4,7.2l9.1-0.8l19.8-15.5l-20.5-9l9,1.7l4-8l12.5-3l1.8,0.4
	c-0.1,2.8-0.6,11.9-0.8,12.7l4.2,5.7h2.5l3.7-4.7l-1.7,4.7h2.5c3.6-5.9,9.3-15.1,11-18c0.3-0.2,0.7-0.4,1-0.6
	C137.4,50.1,139.5,48.6,141.5,46.4"/>
<path fill="#384A59" d="M70.3,122.4h-3.9v-9.7h4c3.8,0,6,1.7,6,4.8C76.4,120.4,73.9,122.4,70.3,122.4 M79.6,117.4
	c0-4.7-3.5-7.7-9-7.7h-7.5v20.8h3.2v-5.1h3.8h2.3l3.2,5.1h3.7l-3.8-6.3C77.9,122.9,79.6,120.7,79.6,117.4"/>
<path fill="#384A59" d="M139.3,122.4h-3.9v-9.7h4c3.8,0,6,1.7,6,4.8C145.4,120.4,143,122.4,139.3,122.4 M148.7,117.4
	c0-4.7-3.5-7.7-9-7.7h-7.5v20.8h3.2v-5.1h3.8h2.3l3.2,5.1h3.7l-3.8-6.3C147,122.9,148.7,120.7,148.7,117.4"/>
<path fill="#384A59" d="M17.1,124l-0.2,0.3c-1.4,2-3.7,3.2-6.1,3.2c-4.2,0-7.6-3.4-7.6-7.6c0-4.2,3.4-7.6,7.6-7.6
	c2.6,0,5,1.4,6.4,3.7l0.2,0.3l2.5-2.1l-0.1-0.2c-2-3-5.4-4.9-9-4.9c-5.9,0-10.8,4.8-10.8,10.8c0,5.9,4.8,10.8,10.8,10.8
	c3.4,0,6.6-1.6,8.7-4.4l0.2-0.2L17.1,124z"/>
<path fill="#384A59" d="M50.9,122.4H47v-9.7h4c3.8,0,6,1.7,6,4.8C57,120.4,54.5,122.4,50.9,122.4 M51.2,109.7h-7.4v20.8H47v-5.1h3.8
	c4.7,0,9.5-2.5,9.5-8C60.2,112.7,56.7,109.7,51.2,109.7"/>
<rect x="83" y="109.7" fill="#384A59" width="3.2" height="20.8"/>
<path fill="#384A59" d="M106.2,124.3c-1.4,2-3.7,3.2-6.1,3.2c-4.2,0-7.6-3.4-7.6-7.6c0-4.2,3.4-7.6,7.6-7.6c2.6,0,5.1,1.4,6.4,3.7
	l0.2,0.3l2.5-2.1l-0.1-0.2c-2-3-5.4-4.9-9-4.9c-5.9,0-10.8,4.8-10.8,10.8c0,5.9,4.8,10.8,10.8,10.8c3.4,0,6.6-1.6,8.7-4.4l0.2-0.2
	l-2.5-2.1L106.2,124.3z"/>
<polygon fill="#384A59" points="166.8,109.7 166.8,124.7 154.2,109.7 151.3,109.7 151.3,130.5 154.4,130.5 154.4,115 167.5,130.5 
	170,130.5 170,109.7 "/>
<path fill="#384A59" d="M119.6,127.4c-4.2,0-7.6-3.4-7.6-7.6c0-4.2,3.4-7.6,7.6-7.6c4.2,0,7.6,3.4,7.6,7.6
	C127.1,124,123.7,127.4,119.6,127.4 M119.6,109.1c-5.9,0-10.8,4.8-10.8,10.8c0,5.9,4.8,10.8,10.8,10.8c5.9,0,10.8-4.8,10.8-10.8
	C130.3,113.9,125.5,109.1,119.6,109.1"/>
<path fill="#384A59" d="M26.1,123.5l4.4-9.9l4.4,9.9H26.1z M29.1,109.5l-9.6,21.1h3.3l1.8-3.9h11.7l1.8,3.9h3.5l-9.6-21.1H29.1z"/>
</svg>
