<svg id="Layer_2" xmlns="http://www.w3.org/2000/svg" viewBox="0 0 301.7 44.8"><style>.st0{fill:#434C4D;} .st1{fill:#7AB800;}</style><path class="st0" d="M72.4 1h8.5v42.8h-8.5z"/><path class="st1" d="M227.3 1h8.5v42.8h-8.5z"/><path class="st0" d="M98.4 1c-3.5 0-6.1.9-7.8 2.6-1.7 1.8-2.6 4-2.6 6.8v2.4h-5.1v5.7H88v25.3h8.5V18.5h5.9v-5.7h-5.9V11c0-1.3.2-2.2.8-2.7s1.3-.8 2.5-.8c1.1 0 2.1.1 3.1.2V1.3c-.7 0-1.5-.1-2.2-.2-.8-.1-1.5-.1-2.3-.1zM30.9 21.5c-1.4-.9-2.8-1.6-4.2-2-1.4-.4-2.5-.7-3.3-.9-2.7-.7-4.8-1.2-6.5-1.7-1.7-.4-3-.9-3.9-1.3-.9-.4-1.6-.9-1.9-1.4-.3-.5-.5-1.2-.5-2 0-.9.2-1.7.6-2.3.4-.6.9-1.1 1.5-1.5.6-.4 1.3-.7 2.1-.8.8-.2 1.5-.2 2.3-.2 1.2 0 2.2.1 3.2.3 1 .2 1.9.5 2.6 1 .8.5 1.4 1.1 1.8 2 .5.8.7 1.9.8 3.2h9.1c0-2.5-.5-4.6-1.4-6.3-.9-1.7-2.2-3.2-3.8-4.3C27.8 2.2 26 1.4 23.9.9c-2-.7-4.2-.9-6.4-.9-1.9 0-3.8.3-5.8.8-1.9.5-3.6 1.3-5.2 2.4-1.5 1.1-2.7 2.4-3.6 4-1 1.6-1.5 3.6-1.5 5.8 0 2 .4 3.6 1.1 5 .7 1.4 1.7 2.5 2.9 3.4 1.2.9 2.6 1.7 4.1 2.2 1.5.6 3.1 1.1 4.7 1.5 1.6.4 3.1.8 4.6 1.2 1.5.4 2.9.8 4.1 1.3 1.2.5 2.2 1.1 2.9 1.8.7.7 1.1 1.7 1.1 2.8 0 1.1-.3 2-.8 2.7-.6.7-1.3 1.2-2.1 1.7-.8.4-1.7.7-2.7.8-1 .1-1.9.2-2.7.2-1.2 0-2.4-.1-3.6-.4-1.2-.3-2.2-.8-3-1.4s-1.5-1.4-2.1-2.4-.8-2.2-.8-3.7H0c0 2.6.4 4.9 1.4 6.8 1 1.9 2.3 3.5 4 4.7 1.7 1.2 3.7 2.1 5.9 2.7 2.2.6 4.5.9 6.9.9 2.9 0 5.5-.3 7.7-1s4.1-1.6 5.6-2.8c1.5-1.2 2.6-2.7 3.4-4.3.8-1.7 1.1-3.5 1.1-5.5 0-2.4-.5-4.4-1.5-5.9-1-1.6-2.2-2.8-3.6-3.8zM65.3 17.6c-1.3-1.7-2.9-3.1-4.8-4.1-2-1-4.3-1.5-6.9-1.5-2.4 0-4.5.4-6.4 1.3-1.9.8-3.6 2-5 3.4-1.4 1.5-2.5 3.2-3.2 5.2-.8 2-1.1 4.2-1.1 6.5 0 2.4.4 4.6 1.1 6.6.7 2 1.8 3.7 3.1 5.2 1.4 1.4 3 2.5 5 3.3 2 .8 4.2 1.2 6.6 1.2 3.5 0 6.5-.8 9-2.4 2.5-1.6 4.3-4.3 5.5-8h-7.5c-.3 1-1 1.9-2.3 2.7-1.2.9-2.7 1.3-4.4 1.3-2.4 0-4.2-.6-5.5-1.9-1.3-1.2-2-3.2-2.1-6h22.4c.2-2.4 0-4.7-.6-6.9-.7-2.2-1.6-4.1-2.9-5.9zm-19 7.4c0-.6.2-1.3.4-2 .2-.8.6-1.5 1.1-2.2.5-.7 1.3-1.2 2.2-1.7.9-.5 2-.7 3.4-.7 2.1 0 3.6.6 4.6 1.7 1 1.1 1.7 2.8 2.1 4.9H46.3z"/><path class="st1" d="M221.9 37V20.8c0-1.9-.4-3.4-1.3-4.5-.8-1.1-1.9-2-3.2-2.7-1.3-.6-2.8-1.1-4.4-1.3-1.6-.2-3.2-.3-4.7-.3-1.7 0-3.4.2-5.1.5-1.7.3-3.2.9-4.6 1.7-1.4.8-2.5 1.9-3.4 3.2-.9 1.3-1.4 3-1.5 5h8.5c.2-1.7.7-2.9 1.7-3.6 1-.7 2.3-1.1 4-1.1.8 0 1.5.1 2.1.2.7.1 1.2.3 1.7.6s.9.7 1.2 1.3c.3.5.4 1.3.4 2.2 0 .9-.2 1.6-.8 2-.6.5-1.3.8-2.3 1.1-1 .2-2.1.4-3.3.5-1.2.1-2.5.3-3.8.5-1.3.2-2.6.5-3.8.8-1.3.3-2.4.8-3.4 1.5s-1.8 1.6-2.4 2.7c-.6 1.1-.9 2.6-.9 4.3 0 1.6.3 3 .8 4.1.5 1.2 1.3 2.1 2.2 2.9 1 .8 2.1 1.3 3.4 1.7 1.3.4 2.7.5 4.1.5 1.9 0 3.8-.3 5.6-.8 1.8-.6 3.4-1.5 4.8-2.9 0 .5.1 1 .2 1.5s.2 1 .4 1.5h8.6c-.4-.6-.7-1.6-.8-2.9.1-1.3 0-2.6 0-4zm-8.5-5.1c0 .5-.1 1.1-.1 1.9-.1.8-.4 1.6-.8 2.4-.4.8-1.1 1.5-2 2-.9.6-2.2.8-3.9.8-.7 0-1.3-.1-2-.2-.6-.1-1.2-.3-1.7-.6s-.9-.7-1.1-1.2c-.3-.5-.4-1.2-.4-1.9 0-.8.1-1.5.4-2 .3-.5.7-1 1.1-1.3.5-.3 1-.6 1.6-.8.6-.2 1.2-.4 1.9-.5.7-.1 1.4-.2 2-.3.7-.1 1.3-.2 1.9-.3.6-.1 1.2-.3 1.7-.4.5-.2 1-.4 1.3-.7v3.1zM251.8 3.5h-8.5v9.3h-5.2v5.7h5.2v18.3c0 1.6.3 2.8.8 3.8s1.2 1.7 2.1 2.2 1.9.9 3.1 1.1c1.2.2 2.4.3 3.7.3.8 0 1.7 0 2.6-.1.9 0 1.7-.1 2.4-.2v-6.6c-.4.1-.8.1-1.3.2-.4 0-.9.1-1.4.1-1.4 0-2.4-.2-2.9-.7-.5-.5-.7-1.4-.7-2.9V18.5h6.2v-5.7h-6.2V3.5zM187.2 17.6c-1.3-1.7-2.9-3.1-4.8-4.1-2-1-4.3-1.5-6.9-1.5-2.4 0-4.5.4-6.4 1.3-1.9.8-3.6 2-5 3.4-1.4 1.5-2.5 3.2-3.2 5.2-.8 2-1.1 4.2-1.1 6.5 0 2.4.4 4.6 1.1 6.6.7 2 1.8 3.7 3.1 5.2 1.4 1.4 3 2.5 5 3.3 2 .8 4.2 1.2 6.6 1.2 3.5 0 6.5-.8 9-2.4 2.5-1.6 4.3-4.3 5.5-8h-7.5c-.3 1-1 1.9-2.3 2.7-1.2.9-2.7 1.3-4.4 1.3-2.4 0-4.2-.6-5.5-1.9-1.3-1.2-2-3.2-2.1-6h22.4c.2-2.4 0-4.7-.6-6.9-.7-2.2-1.6-4.1-2.9-5.9zm-19 7.4c0-.6.2-1.3.4-2 .2-.8.6-1.5 1.1-2.2.5-.7 1.3-1.2 2.2-1.7.9-.5 2-.7 3.4-.7 2.1 0 3.6.6 4.6 1.7 1 1.1 1.7 2.8 2.1 4.9h-13.8zM289.2 19.5c-.3-1.6-.9-2.9-1.8-4-.8-1.1-2-2-3.4-2.6-1.5-.6-3.3-.9-5.6-.9-1.6 0-3.2.4-4.9 1.2-1.7.8-3.1 2.1-4.1 3.9h-.2V1h-8.5v42.8h8.5V27.6c0-3.2.5-5.4 1.6-6.8 1-1.4 2.7-2.1 5-2.1 2 0 3.5.6 4.3 1.9.8 1.3 1.2 3.2 1.2 5.7v17.5h8.5v-19c-.1-1.9-.2-3.7-.6-5.3zM153.4 1l-7 29.5h-.1L139 1h-8.9l-7.4 29.2h-.1L115.8 1h-9.4l11.3 42.9h9.6l7.1-29.2h.1l7.3 29.2h9.3L162.7 1z"/><g><path class="st1" d="M301.7 39.9c0 2.2-1.7 3.9-4 3.9-2.2 0-4-1.7-4-3.9s1.8-3.9 4-3.9 4 1.8 4 3.9zm-7 0c0 1.7 1.3 3.1 3 3.1s3-1.4 3-3.1c0-1.7-1.3-3.1-3-3.1s-3 1.4-3 3.1zm2.4 2.1h-.9v-3.9c.4-.1.9-.1 1.5-.1.7 0 1.1.1 1.4.3.2.2.4.5.4.9s-.3.8-.8.9c.4.1.6.4.7 1 .1.6.2.8.3 1h-1c-.1-.1-.2-.5-.3-.9-.1-.4-.3-.6-.8-.6h-.4V42zm0-2.2h.4c.5 0 .9-.2.9-.6 0-.4-.3-.6-.8-.6h-.5v1.2z"/></g></svg>