<svg width="130" height="38" viewBox="0 0 130 38" xmlns="http://www.w3.org/2000/svg"><title>Group</title><desc>Created with Sketch.</desc><g fill="none" fill-rule="evenodd"><g fill="#888"><g><g><path d="M.247 1.165h2.82c.732 0 1.36.268 1.882.803.52.536.783 1.178.783 1.927v1.687H.247V1.165zm0 6.265h5.486V28.795H.247V7.43z"/><path d="M32.685 19.26c-.262 3.213-1.437 5.73-3.527 7.55-2.143 1.768-4.964 2.65-8.464 2.65-4.076 0-7.185-1.256-9.327-3.774-2.144-2.41-3.214-5.97-3.214-10.683 0-4.82 1.098-8.433 3.292-10.843C13.69 1.644 16.93.385 21.165.385c3.447 0 6.19.884 8.23 2.65 1.93 1.715 3.028 4.125 3.29 7.23h-3.37c-1.254 0-2.143-.563-2.665-1.687-.366-.695-.81-1.312-1.332-1.848-1.046-.803-2.43-1.205-4.154-1.205-2.404 0-4.26.804-5.565 2.41-1.255 1.607-1.882 3.963-1.882 7.068 0 3 .627 5.302 1.88 6.908 1.203 1.662 3.005 2.49 5.41 2.49 1.67 0 3.056-.427 4.153-1.284.993-.803 1.7-2.09 2.117-3.855h5.408"/><path d="M37.25 26.89c-1.097-.963-1.88-2.26-2.35-3.895-.472-1.632-.707-3.333-.707-5.1 0-1.446.196-2.892.588-4.337.393-1.446 1.007-2.65 1.843-3.615 1.358-1.606 3.108-2.556 5.25-2.85 2.143-.295 4.077-.122 5.8.52 1.987.804 3.45 2.197 4.39 4.178.888 1.768 1.333 3.83 1.333 6.185 0 1.715-.184 3.187-.55 4.418-.365 1.233-.835 2.277-1.41 3.133-1.254 1.766-2.848 2.865-4.78 3.293-1.725.48-3.463.52-5.213.12-1.75-.402-3.148-1.085-4.193-2.05zm3.762-14.136c-1.097 1.233-1.595 3.067-1.49 5.503.105 2.437.55 4.136 1.333 5.1.314.43.862.79 1.646 1.084.785.296 1.58.323 2.392.082.81-.242 1.528-.844 2.155-1.807.627-.965.967-2.517 1.02-4.66 0-1.927-.302-3.373-.902-4.337-.6-.964-1.293-1.58-2.077-1.847-.784-.267-1.568-.28-2.352-.04-.783.242-1.36.55-1.724.924z"/><path d="M55.296 1.188h2.82c.733 0 1.36.255 1.882.763.522.51.784 1.14.784 1.89v24.98h-5.486V1.187"/><path d="M62.76 1.188h2.822c.732 0 1.358.255 1.88.763.523.51.785 1.14.785 1.89v24.98H62.76V1.187"/><path d="M84.49 22.232h3.92c-.577 2.25-1.674 3.964-3.293 5.14-1.62 1.233-3.658 1.848-6.114 1.848-2.978 0-5.304-.99-6.976-2.97-1.672-1.93-2.508-4.687-2.508-8.275 0-3.426.81-6.104 2.43-8.032 1.67-1.98 3.997-2.972 6.975-2.972 3.135 0 5.565.965 7.29 2.893 1.67 1.98 2.507 4.74 2.507 8.273V19.02c0 .268-.027.455-.078.562h-13.56c.052 1.66.444 2.89 1.176 3.695.68.857 1.697 1.284 3.057 1.284.888 0 1.646-.185 2.273-.56.157-.053.3-.148.43-.282l.432-.44c.05-.162.247-.376.588-.644.34-.268.823-.402 1.45-.402zm-9.405-6.264h7.994c-.106-1.447-.472-2.517-1.098-3.214-.68-.75-1.646-1.124-2.9-1.124-1.15 0-2.09.375-2.822 1.124-.732.75-1.124 1.82-1.175 3.214z"/><path d="M104.18 27.533v-1.365c-.94 1.5-2.207 2.437-3.8 2.81-1.595.375-3.174.242-4.742-.4-1.567-.643-2.913-1.834-4.036-3.574-1.125-1.74-1.686-4.03-1.686-6.868 0-3.32.745-6.01 2.234-8.072 1.49-2.06 3.88-3.093 7.172-3.093 2.508 0 4.832.698 6.975 2.09 2.142 1.393 3.214 3.963 3.214 7.71v11.326c0 3.747-1.07 6.305-3.213 7.67-2.143 1.366-4.467 2.048-6.975 2.048-4.808 0-7.787-2.302-8.935-6.907h5.72c.42.75 1.06 1.325 1.922 1.727.86.4 1.723.508 2.585.32.862-.187 1.646-.71 2.35-1.565.707-.858 1.11-2.143 1.216-3.857zm-8.934-9.236c0 3.694 1.045 5.742 3.136 6.144 2.09.403 3.63-.092 4.623-1.484.47-.59.81-1.513 1.02-2.772.208-1.257.22-2.502.04-3.735-.185-1.232-.616-2.33-1.295-3.294-.68-.964-1.672-1.446-2.978-1.446-1.777 0-2.978.67-3.606 2.008-.626 1.34-.94 2.866-.94 4.58z"/><path d="M125.754 22.232h3.92c-.576 2.25-1.674 3.964-3.293 5.14-1.62 1.233-3.657 1.848-6.113 1.848-2.978 0-5.303-.99-6.975-2.97-1.673-1.93-2.508-4.687-2.508-8.275 0-3.426.81-6.104 2.43-8.032 1.672-1.98 3.997-2.972 6.975-2.972 3.135 0 5.564.965 7.29 2.893 1.67 1.98 2.507 4.74 2.507 8.273V19.02c0 .268-.028.455-.08.562H116.35c.05 1.66.442 2.89 1.174 3.695.68.857 1.698 1.284 3.057 1.284.89 0 1.647-.185 2.274-.56.157-.053.3-.148.43-.282l.432-.44c.052-.162.248-.376.588-.644.34-.268.823-.402 1.45-.402zm-9.405-6.264h7.993c-.105-1.447-.47-2.517-1.096-3.214-.68-.75-1.647-1.124-2.9-1.124-1.15 0-2.09.375-2.823 1.124-.732.75-1.124 1.82-1.175 3.214z"/></g></g></g></g></svg>