<?xml version="1.0" encoding="utf-8"?>
<!-- Generator: Adobe Illustrator 19.0.0, SVG Export Plug-In . SVG Version: 6.00 Build 0)  -->
<svg version="1.1" id="Layer_1" xmlns="http://www.w3.org/2000/svg" xmlns:xlink="http://www.w3.org/1999/xlink" x="0px" y="0px"
	 viewBox="0 0 158.8 46.7" style="enable-background:new 0 0 158.8 46.7;" xml:space="preserve">
<style type="text/css">
	.st0{fill:#64A70B;}
	.st1{fill:#205C40;}
</style>
<g>
	<path class="st0" d="M50.9,0c-7.8,0-10.6,6.4-11.1,8c5.7-1.6,5.7-3,9-4.6c4.2-2,8.7,0.3,8.7,0.3C53.2,2.9,51,2.5,47.1,5.7
		c-2.7,2.2-5.5,2.9-7,3.1c1.3,0.9,5.2,2.8,11.6-0.9C59.5,3.4,64.2,9,64.2,9S61.7,0,50.9,0"/>
	<path class="st1" d="M26.3,32.4h3.1V7.9h0l-8.8,23.3c-0.4,0.9-1.1,1.4-2.1,1.4c-0.9,0-1.8-0.5-2.1-1.4L7.6,7.9H7.5v24.6h3.1v3.4H0
		v-3.4h3.6V5.8H0V2.4h8C9.1,2.4,9.8,3,10.1,4l6.3,16.7c0.8,2.1,2,5.9,2,5.9h0.2c0,0,1.3-3.6,2.1-5.8L27,4c0.4-1,1.1-1.6,2.2-1.6H37
		v3.4h-3.5v26.6H37v3.4H26.3V32.4z"/>
	<path class="st1" d="M49.3,35.8h-8.9v-3.1h2.6V16.1h-2.6v-3.1h5.9c0.4,0,0.6,0.2,0.6,0.6v19.2h2.5V35.8z"/>
	<path class="st1" d="M69.4,24.3c0-5.4-3.3-8.5-7.1-8.5c-4,0-7.2,3.2-7.2,8.4c0,5.2,3,8.6,7.2,8.6C66.4,32.9,69.4,29.6,69.4,24.3
		 M75.7,35.8h-4c-1.4,0-2-0.5-2-2v-2.6h0c-0.9,2.3-3.5,4.9-7.8,4.9c-6.2,0-10.5-4.7-10.5-11.9c0-6.8,4.2-11.6,10.5-11.6
		c4.1,0,6.6,2.2,7.5,4.3h0c0,0,0-0.8,0-1.3V5.5h-2.6V2.4h5.9c0.4,0,0.6,0.2,0.6,0.6v29.7h2.5V35.8z"/>
	<path class="st1" d="M111.5,16.1h-2.6l-6.2,18.8c-0.2,0.7-0.5,1-1.1,1H99c-0.7,0-1-0.3-1.2-1l-3.9-15.6h-0.1l-4,15.6
		c-0.1,0.7-0.5,1-1.2,1h-2.7c-0.7,0-0.9-0.3-1.1-1l-6.2-18.8h-2.5v-3.1h8.7v3.1h-2.1l4.7,15.7h0.1l4.1-15.7h-1.8v-3.1h8.1v3.1h-1.6
		l4,15.7h0.1l4.7-15.7h-2.1v-3.1h8.7V16.1z"/>
	<path class="st1" d="M129.7,24.4c0-5.4-3.2-8.5-7.1-8.5c-4,0-7.2,3.3-7.2,8.6c0,5.1,3.1,8.5,7.2,8.5
		C126.5,32.9,129.7,29.7,129.7,24.4 M136,35.8h-4c-1.3,0-2-0.5-2-2v-2.7h-0.1c-1.1,2.4-3.3,5-7.8,5c-6.4,0-10.5-4.9-10.5-11.8
		c0-7.2,4.3-11.7,10.5-11.7c4.4,0,6.8,2.2,7.7,4.2h0v-3.9h3.5v19.8h2.6V35.8z"/>
	<path class="st1" d="M140.5,41c0.5,0.3,2.5,2.3,7.1,2.3c4.1,0,7.6-1.8,7.6-6.7v-4.6h-0.1c-0.6,1.1-2.3,4-7.3,4c-5,0-8-3.2-8-8.1
		l0-12h-2.6v-3.1h4.4c1.4,0,2,0.5,2,2v12.2c0,3.5,1.7,5.7,5.1,5.7c4.7,0,6.1-3.9,6.1-4V16.1h-2.5v-3.1h5.8c0.3,0,0.6,0.2,0.6,0.6
		v23.2c0,6.9-4.7,10-11.1,10c-6.1,0-8.7-2.8-9-3.1L140.5,41z"/>
</g>
</svg>
