<?xml version="1.0" encoding="utf-8"?><svg xmlns="http://www.w3.org/2000/svg" width="230" height="82" viewBox="0 0 230 82"><path fill="#FFF" d="M227.3 18.9c-4-4.4-10.4-5.4-15.7-5.3-4.8-.1-8.9.8-10.1 1.2-7.7 2.2-10.2 5.6-12.1 9.1-2.9 5.5-3.2 11.2-3.9 14.6-2.3-.4-8-1.2-14.2-1.1-4.4 0-9.1.3-13.1 1.5-21.7 6.7-25.5 26.3-14.8 36.6 4.4 4.2 10.9 6.7 17.9 6.5 7 .1 14.6-2.2 21.6-7.9 9.3-7.5 10.9-20.3 11.8-27.5.3-2.8.5-4.6.6-5.1 1.4.2 4 .4 7.2.4 6.6.1 16.5-1 23.2-6.8 6.7-5.9 4.3-13.2 1.6-16.2m-42.5 24.9c-.9 7.2-1.2 17.5-8.9 26.4-5.3 6.2-12.7 9.2-19.1 9.4-4.1-.1-7.7-1.4-9.9-3.9-8.9-9.9-1.7-22.4 1.4-26 6.2-7 16.2-10.4 27.4-10.5 3.1 0 6.3.3 9.6.8-.3 1.8-.3 2.7-.5 3.8zm34.4-15c-3.2 8-10.2 11.4-18.5 11.6-1.7 0-3.4-.2-5.2-.5l.5-4.2c.6-5.1 2.4-10.5 6.2-15.5 1.9-2.5 5-4.4 8.1-5.1 0 0 1.7-.5 3.6-.2.7.1 1.3.3 2 .6.1 0 .2.1.2.1.2.1.4.2.5.3.1.1.2.1.3.2 4 2.7 4.3 7.7 2.3 12.7zM3.8 1H0V0h13.5C18.9 0 22 2.5 22 8.2c0 5.7-3.4 8.1-7.7 8.1H8.5v12.1h3.7v1H0v-1h3.8V1m4.7 14h3.2c4.8 0 5.4-2.4 5.4-7.2C17.1 3.9 16 1 12 1H8.5v14zM27.6 18.1v.3c0 5.8.8 10.2 6 10.2 3.7 0 5.6-2.3 6.7-5.3l.9.3c-1.8 4.8-4.5 6.2-9 6.2-6.1 0-9.2-4.8-9.2-10.6 0-5.6 3.6-10.6 9.5-10.6 5.2 0 8.8 3.8 8.8 9.3H27.6m8.8-1.1c0-3-.2-7-4.3-7-3.5 0-4.4 4.4-4.4 7h8.7zM47 10.3h-3.5v-1h7.7V14h.1c.9-2.4 2.6-5.2 5.7-5.2 2.4 0 3.7 1.6 3.7 3.9 0 1.6-.7 2.8-2.1 2.8-1.1 0-2-.8-2-2.1 0-.6.2-1.6.2-2.1 0-.6-.4-1-1-1-2.1 0-4.5 4.7-4.5 9.1v9h3.4v1H43.5v-1H47V10.3M61.7 37.4h3.6V10.3h-3.4v-1h7.6v3h.1c1.2-2.6 3.2-3.5 5.9-3.5 4.3 0 7.7 3 7.7 10.6 0 5.6-2 10.7-8.4 10.6-2.3 0-4.4-.9-5.3-2.8h-.1v10.4H73v1H61.7v-1.2m7.5-16.6c0 3.6.7 7.9 4.8 7.9 3.3 0 4.6-3.4 4.6-9.3 0-5.3-.8-9.3-4.6-9.3-1.8 0-4.8 1.3-4.8 7.4v3.3zM91.3 18.1v.3c0 5.8.8 10.2 6 10.2 3.7 0 5.6-2.3 6.7-5.3l.9.3c-1.8 4.8-4.5 6.2-9 6.2-6.1 0-9.2-4.8-9.2-10.6 0-5.6 3.6-10.6 9.5-10.6 5.2 0 8.8 3.8 8.8 9.3H91.3m8.8-1.1c0-3-.2-7-4.3-7-3.5 0-4.4 4.4-4.4 7h8.7zM107.1 9.3h2.8V3.8h4.2v5.5h4.5v1h-4.5v14.3c0 2.4.5 3.6 2.2 3.6 1.6 0 2.2-1.2 2.9-2.5l.9.4-.4.7c-.8 1.5-2.2 2.8-5.1 2.8-4.2 0-4.6-2.4-4.6-5.1V10.3h-2.8v-1M138.1 25.5c-1.3 2.8-3.8 4.4-7.1 4.4-4 0-6-1.7-6-5.8V10.3h-3.2v-1h7.4v14.6c0 2.3.4 4.5 3.3 4.5 3.8 0 5.7-3.6 5.7-7.4V10.3h-3.7v-1h7.9v19.1h3.5v1h-7.7v-3.9M155.9 17.5c1.7-.4 2.9-.8 4.5-1.3v-1.7c0-2.8-.5-4.7-3.2-4.7-2 0-3.4.6-3.4 3.3 0 1.6-.6 2.1-2 2.1-1.1 0-1.9-.3-1.9-1.5 0-3.9 4-5 7.2-5 6.2 0 7.5 2.6 7.5 6v10.4c0 3.1.9 3.2 3.2 3.2v1h-3.1c-2.3 0-3.9-.2-4.5-2.7-1.6 2.5-3.6 3.2-6.3 3.2-4.2 0-5.6-2.2-5.6-6 0-3.4 1.8-5 5.2-5.8l2.4-.5m.3 1.1c-2.5.7-3.2 1.6-3.2 5.3 0 2.5.4 4.7 2.7 4.7 3.6 0 4.8-4.5 4.8-7.3v-3.9l-4.3 1.2z"/><path fill="#FFF" d="M169.4 0h7.6v28.4h3.5v1h-11.1v-1h3.5V1h-3.5V0"/></svg>