<?xml version="1.0" encoding="utf-8"?>
<!-- Generator: Adobe Illustrator 21.0.2, SVG Export Plug-In . SVG Version: 6.00 Build 0)  -->
<svg version="1.1" id="Layer_1" xmlns="http://www.w3.org/2000/svg" xmlns:xlink="http://www.w3.org/1999/xlink" x="0px" y="0px"
	 viewBox="0 0 135.5 120.4" style="enable-background:new 0 0 135.5 120.4;" xml:space="preserve">
<style type="text/css">
	.st0{fill:#CFAA6A;}
	.st1{fill:#FFFFFF;}
</style>
<g>
	<path class="st0" d="M119.3,12.4c-0.5-0.6-1.3-0.9-2.1-0.9H87.3v0H75.7l-0.5-1.3c2.5,0,7.8,0,7.8,0c0,0,0,0,0,0
		c0.4,0,0.8-0.2,1-0.5c0.3-0.3,0.4-0.7,0.4-1c0-0.2,0-0.4-0.1-0.6l0,0L83,4.6c-0.1-0.4-0.4-0.7-0.6-0.9c-0.3-0.2-0.6-0.4-1.1-0.4h-4
		c0-0.1,0-0.1-0.1-0.2l-0.3-0.9c0,0-0.7-2.2-2.2-2.2c-1.5,0-13.7,0-13.7,0c-0.4,0.1-0.8,0.3-1.1,0.5c-0.4,0.3-0.6,0.7-0.8,1.2
		l-3.6,9.8H40.2v0H14c-0.8,0-1.6,0.3-2.1,0.9c-0.5,0.6-0.7,1.4-0.7,2.1c0,0.5,0.1,1.1,0.3,1.7l6.4,16.2c0,0.1,0.4,1,1.3,1.9
		c1,0.9,2.6,1.8,5,1.8h3.2l0.7,1.7c0.1,0.2,0.4,0.8,1.1,1.5c0.8,0.7,2.1,1.4,3.9,1.4h4.6l0.7,1.5c0.1,0.2,0.3,0.7,1,1.2
		c0.7,0.6,1.8,1,3.3,1h4.7l-0.1,0.1c-0.2,0.2-7.7,17.7-7.7,17.7c-0.2,0.5-0.3,0.9-0.3,1.4c0,0.7,0.2,1.3,0.7,1.8
		c0.5,0.5,1.2,0.7,1.9,0.7h3.5l0,0h40.2l0,0h3.5c0.7,0,1.4-0.2,1.9-0.7c0.5-0.5,0.7-1.2,0.7-1.8c0-0.5-0.1-0.9-0.3-1.4
		c0,0-7.5-17.4-7.7-17.7l-0.1-0.1h4.7c1.6,0,2.7-0.5,3.3-1c0.6-0.5,0.9-1,1-1.2l0.7-1.5H98c1.8,0,3.1-0.7,3.9-1.4
		c0.7-0.7,1-1.3,1.1-1.5l0.7-1.7h3.2c2.4,0,4-0.9,5-1.8c1-0.9,1.3-1.8,1.3-1.9l6.5-16.2c0.2-0.6,0.3-1.1,0.3-1.7
		C120.1,13.7,119.8,13,119.3,12.4z M58.4,38.4c0.8,0,1.6-0.3,2.2-0.8c0.3-0.3,0.7-0.6,0.9-0.9l1.3,3.6c0.2,0.6,0.6,1.2,1,1.8
		c-0.1,0-0.3,0.1-0.4,0.1H51.2l1.5-3.7H58.4z M53.6,36.2l1.7-4.3l2.5-5.6l2.7,7.5l-0.4,1.1c-0.1,0.3-0.4,0.7-0.8,1
		c-0.3,0.3-0.7,0.4-0.9,0.4H53.6z M65.6,27.2l2.7,6.6l-2,5.7c-0.1,0.4-0.4,0.8-0.7,1.2c0,0,0,0,0,0c0,0,0,0,0,0
		c-0.3-0.4-0.5-0.8-0.7-1.2l-2-5.7L65.6,27.2z M65,19.7c0-0.1,0-0.1,0-0.1c0,0,0-0.5,0.6-0.5c0.6,0,0.6,0.5,0.6,0.5c0,0,0,0,0,0.1
		c0,0.1,0,0.2-0.1,0.4l-0.5,1.3l-0.5-1.3C65,19.9,65,19.8,65,19.7z M55,44.5C55,44.5,55,44.5,55,44.5l2.4,0c0,0-3.8,8.4-3.8,8.6H51
		l3.7-8.2C54.7,44.8,54.8,44.6,55,44.5z M59.6,44.9c0-0.1,0.2-0.3,0.3-0.4c0,0,0,0,0,0h2.3c0,0-3.8,8.4-3.8,8.6h-2.6L59.6,44.9z
		 M64.5,44.9c0-0.1,0.2-0.3,0.3-0.4c0,0,0,0,0,0h1.4c0,0,0,0,0,0c0.2,0.1,0.3,0.3,0.3,0.4l3.7,8.2h-9.5L64.5,44.9z M68.9,44.5h2.3
		c0,0,0,0,0,0c0.2,0.1,0.3,0.3,0.3,0.4l3.7,8.2h-2.6C72.7,52.9,68.9,44.5,68.9,44.5z M73.9,44.5h2.3c0,0,0,0,0,0
		c0.2,0.1,0.3,0.3,0.3,0.4l3.7,8.2h-2.6C77.6,52.9,73.9,44.5,73.9,44.5z M67.8,42.1c-0.1,0-0.2,0-0.4-0.1c0.4-0.5,0.7-1.1,1-1.8
		l1.3-3.6c0.3,0.3,0.6,0.7,0.9,0.9c0.6,0.5,1.4,0.8,2.2,0.8h5.7l1.5,3.7H67.8z M72.8,36.2c-0.2,0-0.6-0.1-0.9-0.4
		c-0.3-0.3-0.6-0.6-0.8-1l-0.4-1.1l2.7-7.5l2.5,5.6l1.7,4.3H72.8z M69.4,30.7l-2.6-6.4l1.4-3.4c0.2-0.4,0.3-0.8,0.3-1.2
		c0-0.6-0.2-1.2-0.6-1.6c0,0-0.3-0.2-0.4-0.3c-0.1-0.1-0.2-0.1-0.4-0.2c-0.1,0-0.2-0.1-0.3-0.1c0,0-0.1,0-0.1,0h0
		c-0.3-0.1-0.7-0.1-1-0.1c-0.4,0-0.7,0.1-1,0.1h0c0,0,0,0,0,0c-0.2,0.1-0.4,0.1-0.5,0.2c0,0-0.1,0-0.1,0c-0.2,0.1-0.5,0.3-0.5,0.4
		c-0.4,0.4-0.6,1.1-0.6,1.6c0,0.4,0.1,0.8,0.3,1.2l1.4,3.4l-2.6,6.4l-5.4-15.2h0c-0.1-0.4-0.2-0.7-0.2-0.9c0-0.4,0.1-0.6,0.2-0.7
		c0.1-0.1,0.2-0.2,0.4-0.2h17.4c0.3,0,0.3,0.1,0.4,0.2c0.1,0.1,0.2,0.3,0.2,0.7c0,0.3,0,0.6-0.2,0.9h0L69.4,30.7z M81.3,6.3L82,7.9
		h-7.5l-0.9-2.5c3,0,6.1,0,6.6,0C81.1,5.5,81.3,6.3,81.3,6.3z M74.4,2.2C74.4,2.2,74.4,2.2,74.4,2.2c0.1,0.1,0.2,0.2,0.2,0.2
		l0.3,0.9h-2.2l-0.4-1.1L74.4,2.2z M65.8,2.2C65.8,2.2,65.8,2.2,65.8,2.2l3.2,0c0,0,0,0,0,0h0.8c0,0,0,0,0,0C70,2.3,70,2.4,70.1,2.4
		l0.3,0.9h-2.7l0,0c-0.6,0-1.1,0.5-1.1,1.1s0.5,1.1,1.1,1.1l0,0c0.1,0,1.6,0,3.5,0l2.2,6h-11l3.2-9C65.6,2.4,65.7,2.3,65.8,2.2z
		 M61.1,2.4c0-0.1,0.1-0.2,0.2-0.2c0,0,0,0,0.1,0h2L60,11.4h-2.2L61.1,2.4z M24.2,34c-1.9,0-2.9-0.6-3.5-1.2
		c-0.3-0.3-0.5-0.6-0.6-0.8c-0.1-0.1-0.1-0.2-0.1-0.2c0,0,0,0,0,0c0,0,0,0,0,0l-6.4-16.2c-0.1-0.4-0.2-0.7-0.2-0.9
		c0-0.4,0.1-0.6,0.2-0.7c0.1-0.1,0.2-0.2,0.5-0.2h40.1c-0.1,0.3-0.1,0.6-0.1,0.9c0,0.5,0.1,1.1,0.3,1.7v0l0.4,1.2H22.9
		c-0.6,0-1.3,0.2-1.7,0.7c-0.4,0.4-0.6,1.1-0.6,1.6c0,0.4,0.1,0.8,0.3,1.2l0,0L26.5,34H24.2z M33.2,38.6c-1.3,0-2-0.4-2.4-0.8
		c-0.2-0.2-0.4-0.4-0.5-0.5c0-0.1-0.1-0.1-0.1-0.2c0,0,0,0,0,0l0,0l-7.4-17c-0.1-0.2-0.1-0.3-0.1-0.4c0-0.1,0-0.1,0-0.1
		c0,0,0.1,0,0.1,0l32.6,0l1,2.7H32.1c-0.4,0-0.9,0.1-1.2,0.5c-0.4,0.3-0.5,0.8-0.5,1.2c0,0.3,0.1,0.6,0.2,0.8l6.3,13.8H33.2z
		 M38.1,36.1l-5.3-11.7h23.5L53.3,31l0,0l-2.2,5.2H38.1z M42.8,42.3c-1.1,0-1.7-0.3-2-0.6c-0.2-0.1-0.2-0.2-0.3-0.3c0,0,0-0.1,0-0.1
		l0,0l-1.4-3h11.1l-1.7,4C47,42.3,44.6,42.3,42.8,42.3z M49.3,45.7c0.2-0.3,0.4-0.5,0.7-0.7c0.4-0.3,0.9-0.5,1.2-0.5l0,0h1.2
		c0,0-3.8,8.4-3.8,8.6h-2.5L49.3,45.7z M43.8,63.6c-0.1,0.2-0.1,0.3-0.2,0.5H42c-0.2,0-0.3-0.1-0.3-0.1c0,0-0.1-0.1-0.1-0.3
		c0-0.1,0-0.3,0.1-0.5l2.4-5.6l0.7-1.7c0,0,0.3-0.5,0.5-0.5c0.5,0,2.1,0,2.1,0L43.8,63.6z M48.6,64.1H46l3.7-8.2
		c0-0.1,0.2-0.3,0.3-0.4c0.2-0.1,0.4-0.2,0.4-0.2h2l-3.7,8.2C48.7,63.7,48.6,63.9,48.6,64.1z M53.6,64.1H51l3.7-8.2
		c0-0.1,0.2-0.3,0.3-0.4c0.2-0.1,0.3-0.2,0.4-0.2h2l-3.7,8.2C53.6,63.7,53.6,63.9,53.6,64.1z M58.5,64.1h-2.6l3.7-8.2
		c0-0.1,0.2-0.3,0.3-0.4c0.2-0.1,0.3-0.2,0.4-0.2h2l-3.7,8.2C58.6,63.7,58.5,63.9,58.5,64.1z M65.6,64.1h-4.8l3.7-8.2
		c0-0.1,0.2-0.3,0.3-0.4c0.2-0.1,0.3-0.2,0.4-0.2h0.7c0.1,0,0.2,0,0.4,0.2c0.2,0.1,0.3,0.3,0.3,0.4l3.7,8.2H65.6z M72.7,64.1
		c0-0.2-0.1-0.4-0.2-0.5l-3.7-8.2h2c0,0,0.2,0,0.4,0.2c0.2,0.1,0.3,0.3,0.3,0.4l3.7,8.2H72.7z M77.7,64.1c0-0.2-0.1-0.4-0.2-0.5
		l-3.7-8.2h2c0,0,0.2,0,0.4,0.2c0.2,0.1,0.3,0.3,0.3,0.4l3.7,8.2H77.7z M82.6,64.1c0-0.2-0.1-0.4-0.2-0.5l-3.7-8.2h2
		c0,0,0.2,0,0.4,0.2c0.2,0.1,0.3,0.3,0.3,0.4l3.7,8.2H82.6z M86.3,55.9l0.7,1.7l2.4,5.6c0.1,0.2,0.1,0.4,0.1,0.5
		c0,0.2-0.1,0.3-0.1,0.3c0,0-0.1,0.1-0.3,0.1h-1.6c0-0.2-0.1-0.4-0.2-0.5l-3.7-8.2c0,0,2.1,0,2.2,0.1C86.2,55.7,86.3,55.9,86.3,55.9
		z M85.1,53.1h-2.5c0-0.2-3.8-8.6-3.8-8.6H80c0,0,0,0,0,0c0.3,0,0.8,0.2,1.2,0.5c0.3,0.2,0.5,0.4,0.7,0.7L85.1,53.1z M90.8,41.4
		L90.8,41.4C90.8,41.4,90.8,41.4,90.8,41.4c-0.1,0.1-0.2,0.3-0.3,0.4c-0.3,0.2-0.9,0.6-2,0.6c-1.8,0-4.3,0-5.6,0l-1.7-4h11.1
		L90.8,41.4z M93.2,36.1h-13L77.9,31l0,0l-2.9-6.5h23.5L93.2,36.1z M101,37L101,37C101,37,100.9,37.1,101,37c0,0.1-0.1,0.1-0.1,0.2
		c-0.1,0.1-0.2,0.3-0.5,0.5c-0.4,0.4-1.1,0.8-2.4,0.8h-3.5l6.3-13.8c0.1-0.3,0.2-0.5,0.2-0.8c0-0.4-0.2-0.9-0.5-1.2
		c-0.4-0.3-0.8-0.5-1.2-0.5H74.7l1-2.7l32.6,0c0.1,0,0.1,0,0.1,0c0,0,0,0,0,0.1c0,0.1,0,0.2-0.1,0.4L101,37z M117.7,15.5l-6.5,16.2
		c0,0,0,0,0,0c0,0,0,0,0,0c0,0-0.1,0.1-0.1,0.2c-0.1,0.2-0.3,0.5-0.6,0.8c-0.6,0.6-1.6,1.2-3.5,1.2h-2.3l5.7-13.1l0,0
		c0.2-0.4,0.3-0.8,0.3-1.2c0-0.6-0.2-1.2-0.6-1.6c-0.4-0.4-1.1-0.7-1.7-0.7H76.5l0.4-1.2v0c0.2-0.6,0.3-1.1,0.3-1.7
		c0-0.3,0-0.6-0.1-0.9h40.1c0.3,0,0.4,0.1,0.4,0.2c0.1,0.1,0.2,0.3,0.2,0.7C117.9,14.8,117.8,15.1,117.7,15.5z"/>
	<g>
		<path class="st1" d="M0,77.7h14v3.7H4.3v6.1h7.9v3.7H4.3v6.3h10.3v3.7H0V77.7z"/>
		<path class="st1" d="M24.6,95.3c0,0-0.2,0.5-0.5,0.9l-2.9,4.9h-4.7l5.5-8.5l-5.4-8.3h4.8l2.6,4.6c0.3,0.4,0.6,1.1,0.6,1.1h0.1
			c0,0,0.3-0.6,0.6-1.1l2.6-4.6h4.8l-5.4,8.3l5.5,8.5h-4.7l-2.9-4.9C24.9,95.9,24.7,95.3,24.6,95.3L24.6,95.3z"/>
		<path class="st1" d="M43.3,83.9c4.4,0,6.5,2.5,6.5,2.5l-1.8,2.9c0,0-1.8-1.8-4.4-1.8c-3.1,0-5.1,2.3-5.1,5.2c0,2.8,2,5.3,5.2,5.3
			c2.8,0,5-2.1,5-2.1l1.6,3c0,0-2.4,2.7-6.9,2.7c-5.6,0-9.1-3.9-9.1-8.8C34.2,87.9,37.7,83.9,43.3,83.9z"/>
		<path class="st1" d="M60.7,83.9c4.9,0,7.5,3.5,7.5,8c0,0.5-0.1,1.6-0.1,1.6H56.5c0.3,2.9,2.5,4.5,5,4.5c2.7,0,4.9-1.8,4.9-1.8
			l1.6,3c0,0-2.6,2.4-6.8,2.4c-5.6,0-9-4-9-8.8C52.2,87.5,55.7,83.9,60.7,83.9z M64,90.6c-0.1-2.3-1.5-3.5-3.3-3.5
			c-2.1,0-3.6,1.3-4,3.5H64z"/>
		<path class="st1" d="M71.4,77.7h4.2v17.6c0,1.8,0.6,2.3,1.7,2.3c0.3,0,0.6,0,0.6,0v3.7c0,0-0.6,0.1-1.3,0.1
			c-2.3,0-5.2-0.6-5.2-5.4V77.7z"/>
		<path class="st1" d="M81.5,96.1c0,0,1.8,1.8,4.6,1.8c1.2,0,2.2-0.5,2.2-1.5c0-2.5-8.2-2.2-8.2-7.6c0-3.1,2.8-5,6.4-5
			c3.8,0,5.6,1.9,5.6,1.9l-1.6,3.1c0,0-1.6-1.5-4.1-1.5c-1.1,0-2.1,0.5-2.1,1.5c0,2.4,8.2,2.1,8.2,7.5c0,2.8-2.4,5-6.4,5
			c-4.2,0-6.5-2.5-6.5-2.5L81.5,96.1z"/>
		<path class="st1" d="M95.9,77.7h4.2v3.7h-4.2V77.7z M95.9,84.3h4.2v16.8h-4.2V84.3z"/>
		<path class="st1" d="M112.7,83.9c5.1,0,9.3,3.7,9.3,8.8c0,5.2-4.1,8.8-9.2,8.8c-5.1,0-9.3-3.6-9.3-8.8
			C103.5,87.5,107.6,83.9,112.7,83.9z M112.8,97.9c2.7,0,5-2.1,5-5.2c0-3.1-2.3-5.2-5-5.2c-2.7,0-5,2.1-5,5.2
			C107.7,95.8,110,97.9,112.8,97.9z"/>
		<path class="st1" d="M125.4,84.3h4v2.9c0,0.6-0.1,1.2-0.1,1.2h0.1c0.8-2.4,2.8-4.3,5.3-4.3c0.4,0,0.8,0.1,0.8,0.1v4.1
			c0,0-0.4-0.1-1-0.1c-1.8,0-3.8,1-4.6,3.5c-0.3,0.8-0.4,1.7-0.4,2.7v6.7h-4.2V84.3z"/>
	</g>
	<g>
		<path class="st1" d="M40.7,109.5c2.4,0,3.8,1.2,3.8,1.2l-0.6,0.8c0,0-1.2-1.1-3.2-1.1c-2.6,0-4.3,2-4.3,4.5c0,2.6,1.8,4.5,4.2,4.5
			c2.1,0,3.3-1.5,3.3-1.5v-1.8h-1.8v-0.9H45v5h-1v-0.8c0-0.2,0-0.5,0-0.5h0c0,0-1.2,1.4-3.4,1.4c-2.9,0-5.2-2.3-5.2-5.5
			C35.4,111.9,37.7,109.5,40.7,109.5z"/>
		<path class="st1" d="M58.2,109.5c3,0,5.4,2.4,5.4,5.4c0,3.1-2.4,5.5-5.4,5.5c-3,0-5.4-2.4-5.4-5.5
			C52.8,111.8,55.2,109.5,58.2,109.5z M58.2,119.4c2.4,0,4.3-2,4.3-4.6c0-2.5-1.9-4.4-4.3-4.4c-2.4,0-4.3,1.9-4.3,4.4
			C53.9,117.4,55.8,119.4,58.2,119.4z"/>
		<path class="st1" d="M71.9,109.6h1v9.6h4.9v0.9h-5.9V109.6z"/>
		<path class="st1" d="M85.7,109.6h3.4c3.2,0,5.3,1.9,5.3,5.3c0,3.4-2.1,5.3-5.3,5.3h-3.4V109.6z M89,119.3c2.6,0,4.3-1.5,4.3-4.4
			c0-2.8-1.7-4.3-4.3-4.3h-2.3v8.7H89z"/>
	</g>
</g>
</svg>
