<?xml version="1.0" encoding="utf-8"?>
<!-- Generator: Adobe Illustrator 21.0.0, SVG Export Plug-In . SVG Version: 6.00 Build 0)  -->
<!DOCTYPE svg PUBLIC "-//W3C//DTD SVG 1.1//EN" "http://www.w3.org/Graphics/SVG/1.1/DTD/svg11.dtd">
<svg version="1.1" id="Layer_1" xmlns="http://www.w3.org/2000/svg" xmlns:xlink="http://www.w3.org/1999/xlink" x="0px" y="0px"
	 viewBox="0 0 337.8 92.2" style="enable-background:new 0 0 337.8 92.2;" xml:space="preserve">
<style type="text/css">
	.st0{fill:#D85050;}
	.st1{fill:#F78E1E;}
	.st2{opacity:0.61;fill:#FFCC04;}
	.st3{opacity:0.61;fill:#F78E1E;}
</style>
<ellipse transform="matrix(0.9864 -0.1642 0.1642 0.9864 -9.0003 12.9986)" class="st0" cx="74.1" cy="60.9" rx="6.6" ry="6.6"/>
<g>
	<g>
		<path class="st1" d="M121.2,67v-8.3h3.7c1.5,0,2.3,0.9,2.3,2.1c0,1.1-0.7,1.8-1.5,1.9c0.9,0.1,1.6,1.1,1.6,2.1
			c0,1.3-0.9,2.3-2.4,2.3H121.2z M126.2,61c0-0.8-0.5-1.4-1.4-1.4h-2.5v2.7h2.5C125.7,62.3,126.2,61.7,126.2,61z M126.4,64.7
			c0-0.8-0.5-1.4-1.5-1.4h-2.6v2.9h2.6C125.8,66.1,126.4,65.5,126.4,64.7z"/>
		<path class="st1" d="M131.9,67v-8.3h1V67H131.9z"/>
		<path class="st1" d="M137.4,62.9c0-2.5,1.7-4.3,4.1-4.3c2.5,0,4.2,1.9,4.2,4.3s-1.7,4.3-4.2,4.3C139.1,67.2,137.4,65.3,137.4,62.9
			z M144.7,62.9c0-2-1.2-3.4-3.1-3.4c-1.9,0-3.1,1.4-3.1,3.4c0,1.9,1.2,3.4,3.1,3.4C143.4,66.2,144.7,64.8,144.7,62.9z"/>
		<path class="st1" d="M150.2,67v-8.3h3.4c1.7,0,2.6,1.2,2.6,2.5s-1,2.5-2.6,2.5h-2.3V67H150.2z M155.1,61.2c0-0.9-0.7-1.6-1.7-1.6
			h-2.2v3.2h2.2C154.4,62.8,155.1,62.1,155.1,61.2z"/>
		<path class="st1" d="M166.3,67v-3.8h-4.9V67h-1v-8.3h1v3.6h4.9v-3.6h1V67H166.3z"/>
		<path class="st1" d="M178.1,67l-0.7-1.9h-4.2l-0.7,1.9h-1.2l3.4-8.3h1.3l3.4,8.3H178.1z M175.3,59.7l-1.8,4.5h3.5L175.3,59.7z"/>
		<path class="st1" d="M188,67l-2.1-3.3h-1.7V67h-1v-8.3h3.4c1.5,0,2.6,1,2.6,2.5c0,1.5-1,2.3-2.2,2.4l2.3,3.4H188z M188.1,61.2
			c0-1-0.7-1.6-1.7-1.6h-2.2v3.2h2.2C187.4,62.8,188.1,62.1,188.1,61.2z"/>
		<path class="st1" d="M200.8,67v-7l-2.8,7h-0.4l-2.8-7v7h-1v-8.3h1.5l2.6,6.4l2.6-6.4h1.5V67H200.8z"/>
		<path class="st1" d="M212.6,67l-0.7-1.9h-4.2L207,67h-1.2l3.4-8.3h1.3l3.4,8.3H212.6z M209.8,59.7l-1.8,4.5h3.5L209.8,59.7z"/>
		<path class="st1" d="M216.9,62.9c0-2.6,1.9-4.3,4.3-4.3c1.5,0,2.5,0.7,3.2,1.7l-0.9,0.5c-0.5-0.7-1.4-1.2-2.3-1.2
			c-1.8,0-3.2,1.4-3.2,3.4c0,2,1.4,3.4,3.2,3.4c1,0,1.8-0.5,2.3-1.2l0.9,0.5c-0.7,1-1.7,1.7-3.2,1.7
			C218.8,67.2,216.9,65.4,216.9,62.9z"/>
		<path class="st1" d="M228.6,67v-8.3h5.5v0.9h-4.4v2.7h4.3v0.9h-4.3v2.9h4.4V67H228.6z"/>
		<path class="st1" d="M238.5,63.8v-5.1h1.1v5.1c0,1.5,0.8,2.5,2.4,2.5s2.4-1,2.4-2.5v-5.1h1.1v5.1c0,2.1-1.2,3.4-3.4,3.4
			C239.7,67.2,238.5,65.8,238.5,63.8z"/>
		<path class="st1" d="M252.2,67v-7.4h-2.6v-0.9h6.3v0.9h-2.7V67H252.2z"/>
		<path class="st1" d="M260.1,67v-8.3h1V67H260.1z"/>
		<path class="st1" d="M265.6,62.9c0-2.6,1.9-4.3,4.3-4.3c1.5,0,2.5,0.7,3.2,1.7l-0.9,0.5c-0.5-0.7-1.4-1.2-2.3-1.2
			c-1.8,0-3.2,1.4-3.2,3.4c0,2,1.4,3.4,3.2,3.4c1,0,1.8-0.5,2.3-1.2l0.9,0.5c-0.7,1-1.7,1.7-3.2,1.7
			C267.5,67.2,265.6,65.4,265.6,62.9z"/>
		<path class="st1" d="M283.2,67l-0.7-1.9h-4.2l-0.7,1.9h-1.2l3.4-8.3h1.3l3.4,8.3H283.2z M280.4,59.7l-1.8,4.5h3.5L280.4,59.7z"/>
		<path class="st1" d="M288.2,67v-8.3h1v7.4h3.9V67H288.2z"/>
		<path class="st1" d="M296.8,65.8l0.6-0.8c0.5,0.6,1.4,1.2,2.6,1.2c1.5,0,2-0.8,2-1.5c0-2.2-4.9-1-4.9-3.9c0-1.4,1.2-2.3,2.9-2.3
			c1.3,0,2.3,0.4,3,1.2l-0.6,0.8c-0.6-0.7-1.5-1-2.4-1c-1,0-1.7,0.5-1.7,1.3c0,1.9,4.9,0.8,4.9,3.9c0,1.2-0.8,2.5-3.1,2.5
			C298.6,67.2,297.5,66.6,296.8,65.8z"/>
	</g>
	<path class="st0" d="M118.8,43.6c0,1.7-1.4,3.2-3.1,3.2c-1.1,0-2.2-0.6-2.7-1.6l-10.2-18.7v18.8c0,0.8-0.7,1.5-1.5,1.5
		c-0.8,0-1.5-0.6-1.5-1.5V27.1c0-1.7,1.4-3.2,3.1-3.2c1.1,0,2.2,0.6,2.7,1.6l10.2,18.8V25.3c0-0.8,0.6-1.5,1.5-1.5
		c0.8,0,1.5,0.6,1.5,1.5V43.6z"/>
	<path class="st0" d="M130.2,47c-4.7,0-8-1.7-8-6.8v-3.8c0-5.9,1.3-8.2,7.5-8.2c6.4,0,7.3,2.4,7.3,7.2v1.9c0,0.8-0.7,1.5-1.5,1.5
		h-10.3v1.6c0,2.9,2.2,3.9,5,3.9c1.4,0,3.8-0.1,5.3-0.5c0.6,0.1,1,0.7,1,1.3c0,0.7-0.5,1.3-1.2,1.4C133.6,46.9,131.5,47,130.2,47z
		 M125.2,36.2h8.8v-1.6c0-2.2-0.5-3.7-4.3-3.7C126.8,30.9,125.3,31.1,125.2,36.2z"/>
	<path class="st0" d="M151.1,45.4c-1.3,1.7-3.3,1.7-5.1,1.7c-4.5,0-6.2-3-6.2-7V29.9c0-0.8,0.6-1.5,1.5-1.5c0.8,0,1.5,0.6,1.5,1.5
		v9.3c0,2.5,0,5.1,4.2,5.1c3.5,0,4.7-1.2,4.7-3.9V29.9c0-0.8,0.6-1.5,1.5-1.5c0.8,0,1.5,0.6,1.5,1.5c0,13.9,0,15.5,0,15.5v-0.1
		c0,0.8-0.7,1.5-1.5,1.5c-0.8,0-1.5-0.6-1.5-1.4H151.1z"/>
	<path class="st0" d="M158.7,29.9c0-0.8,0.6-1.5,1.5-1.5c0.8,0,1.5,0.6,1.5,1.4h0.5c1.2-1.6,3.1-1.7,4.8-1.7c0.7,0,1.3,0.6,1.3,1.3
		c0,0.7-0.6,1.3-1.3,1.3h-0.6c-3.5,0-4.7,1.2-4.7,3.9v10.6c0,0.8-0.7,1.5-1.5,1.5c-0.8,0-1.5-0.6-1.5-1.5
		C158.7,40.1,158.7,29.8,158.7,29.9z"/>
	<path class="st0" d="M183.9,35.6v4c0,4.1-0.2,7.4-7.4,7.4c-7.2,0-7.4-3.3-7.4-7.4v-4c0-4.1,0.2-7.4,7.4-7.4
		C183.7,28.2,183.9,31.5,183.9,35.6z M180.9,35.6c0-2.1,0-4.8-4.4-4.8c-4.4,0-4.4,2.7-4.4,4.8v3.9c0,2.1,0,4.8,4.4,4.8
		c4.4,0,4.4-2.7,4.4-4.8V35.6z"/>
	<path class="st0" d="M195.1,44.3c2.2,0,5.5-0.4,5.5-4.2c0-4.4-14.1-2.7-14.1-10.3c0-4.7,3.4-6.3,8.8-6.3c1.8,0,4.4,0.2,6.4,0.6
		c0.6,0.1,1,0.7,1,1.3c0,0.7-0.5,1.3-1.2,1.3c-1.5-0.4-4-0.6-6-0.6c-4,0-5.9,1.6-5.9,3.6c0,4.6,14.1,2.8,14.1,10.3
		c0,6.4-4.4,6.8-8.4,6.8c-2.1,0-5.8-0.3-7.8-1.4c-0.6-0.3-0.8-0.8-0.8-1.3c0-0.8,0.6-1.5,1.5-1.5C190.9,44.3,193.6,44.3,195.1,44.3z
		"/>
	<path class="st0" d="M219.9,45.3c0,0.6-0.4,1.1-1,1.3c-1.6,0.3-3.7,0.5-5,0.5c-4.7,0-7.8-1.7-7.8-6.8V35c0-5.1,3.1-6.8,7.8-6.8
		c1.4,0,3.4,0.1,5,0.5c0.6,0.1,1,0.7,1,1.3c0,0.7-0.5,1.3-1.2,1.3c-1.5-0.3-3.5-0.4-4.8-0.4c-2.8,0-4.8,1-4.8,3.9v5.7
		c0,2.9,2,3.9,4.8,3.9c1.3,0,3.3-0.1,4.8-0.4C219.4,43.9,219.9,44.5,219.9,45.3z"/>
	<path class="st0" d="M222.9,23.4c0-0.8,0.6-1.5,1.5-1.5c0.8,0,1.5,0.6,1.5,1.5v0.9c0,0.8-0.7,1.5-1.5,1.5c-0.8,0-1.5-0.6-1.5-1.5
		V23.4z M222.9,29.9c0-0.8,0.6-1.5,1.5-1.5c0.8,0,1.5,0.6,1.5,1.5v15.4c0,0.8-0.7,1.5-1.5,1.5c-0.8,0-1.5-0.6-1.5-1.5V29.9z"/>
	<path class="st0" d="M237.3,47c-4.7,0-8-1.7-8-6.8v-3.8c0-5.9,1.3-8.2,7.5-8.2c6.4,0,7.3,2.4,7.3,7.2v1.9c0,0.8-0.7,1.5-1.5,1.5
		h-10.3v1.6c0,2.9,2.2,3.9,5,3.9c1.4,0,3.8-0.1,5.3-0.5c0.6,0.1,1,0.7,1,1.3c0,0.7-0.5,1.3-1.2,1.4C240.6,46.9,238.6,47,237.3,47z
		 M232.3,36.2h8.8v-1.6c0-2.2-0.5-3.7-4.3-3.7C233.9,30.9,232.4,31.1,232.3,36.2z"/>
	<path class="st0" d="M250.9,29.9c1.3-1.7,3.3-1.7,5.1-1.7c4.5,0,6.2,3,6.2,7v10.1c0,0.8-0.7,1.5-1.5,1.5s-1.5-0.6-1.5-1.5V36
		c0-2.5,0-5.1-4.2-5.1c-3.5,0-4.7,1.2-4.7,3.9v10.6c0,0.8-0.7,1.5-1.5,1.5c-0.8,0-1.5-0.6-1.5-1.5c0-5.2,0-15.5,0-15.4
		c0-0.8,0.6-1.5,1.5-1.5c0.8,0,1.5,0.6,1.5,1.4H250.9z"/>
	<path class="st0" d="M273.2,46.8c-4.2,0-5.5-1.2-5.5-5.5V31.1h-2.4c-0.7,0-1.3-0.6-1.3-1.3c0-0.7,0.6-1.3,1.3-1.3h2.4v-4
		c0-0.8,0.6-1.5,1.5-1.5c0.8,0,1.5,0.6,1.5,1.5v4h3.3c0.7,0,1.3,0.6,1.3,1.3c0,0.7-0.6,1.3-1.3,1.3h-3.3v10.1c0,2,0.2,2.9,2.5,2.9
		h0.8c0.7,0,1.3,0.6,1.3,1.3c0,0.7-0.6,1.3-1.3,1.3H273.2z"/>
	<path class="st0" d="M277.6,23.4c0-0.8,0.6-1.5,1.5-1.5s1.5,0.6,1.5,1.5v0.9c0,0.8-0.7,1.5-1.5,1.5s-1.5-0.6-1.5-1.5V23.4z
		 M277.6,29.9c0-0.8,0.6-1.5,1.5-1.5s1.5,0.6,1.5,1.5v15.4c0,0.8-0.7,1.5-1.5,1.5s-1.5-0.6-1.5-1.5V29.9z"/>
	<path class="st0" d="M285.9,31.1H284c-0.7,0-1.3-0.6-1.3-1.3c0-0.7,0.6-1.3,1.3-1.3h1.9V28c0-5.1,1.1-6.4,4.6-6.4
		c0.4,0,1.6,0,2.9,0.3c0.6,0.1,1,0.6,1,1.2c0,0.7-0.5,1.3-1.2,1.3c-1.1-0.1-1.6-0.1-2.2-0.1c-2,0-2,0.8-2,3.8v0.5h3.9
		c0.7,0,1.3,0.6,1.3,1.3c0,0.7-0.6,1.3-1.3,1.3h-3.9v14.2c0,0.8-0.7,1.5-1.5,1.5c-0.8,0-1.5-0.6-1.5-1.5V31.1z M297.1,23.4
		c0-0.8,0.6-1.5,1.5-1.5c0.8,0,1.5,0.6,1.5,1.5v0.9c0,0.8-0.7,1.5-1.5,1.5c-0.8,0-1.5-0.6-1.5-1.5V23.4z M297.1,29.9
		c0-0.8,0.6-1.5,1.5-1.5c0.8,0,1.5,0.6,1.5,1.5v15.4c0,0.8-0.7,1.5-1.5,1.5c-0.8,0-1.5-0.6-1.5-1.5V29.9z"/>
	<path class="st0" d="M317.4,45.3c0,0.6-0.4,1.1-1,1.3c-1.6,0.3-3.7,0.5-5,0.5c-4.7,0-7.8-1.7-7.8-6.8V35c0-5.1,3.1-6.8,7.8-6.8
		c1.4,0,3.4,0.1,5,0.5c0.6,0.1,1,0.7,1,1.3c0,0.7-0.5,1.3-1.2,1.3c-1.5-0.3-3.5-0.4-4.8-0.4c-2.8,0-4.8,1-4.8,3.9v5.7
		c0,2.9,2,3.9,4.8,3.9c1.3,0,3.3-0.1,4.8-0.4C316.8,43.9,317.4,44.5,317.4,45.3z"/>
</g>
<ellipse transform="matrix(0.9864 -0.1642 0.1642 0.9864 -7.4599 2.9156)" class="st2" cx="13.9" cy="46.6" rx="12.8" ry="12.8"/>
<ellipse transform="matrix(0.9864 -0.1642 0.1642 0.9864 -9.2509 6.3457)" class="st0" cx="33.8" cy="59.1" rx="12.7" ry="12.7"/>
<ellipse transform="matrix(0.9864 -0.1642 0.1642 0.9864 -8.1442 10.213)" class="st2" cx="57.7" cy="54.4" rx="12.8" ry="12.8"/>
<ellipse transform="matrix(0.9864 -0.1642 0.1642 0.9864 -10.6175 10.5855)" class="st0" cx="58.7" cy="69.5" rx="8.4" ry="8.4"/>
<ellipse transform="matrix(0.9864 -0.1642 0.1642 0.9864 -6.0492 8.4577)" class="st3" cx="48.1" cy="40.8" rx="12.8" ry="12.8"/>
<ellipse transform="matrix(0.9864 -0.1642 0.1642 0.9864 -3.033 8.5412)" class="st0" cx="50.1" cy="22.6" rx="9.8" ry="9.8"/>
<ellipse transform="matrix(0.9864 -0.1642 0.1642 0.9864 -3.6461 10.7769)" class="st2" cx="63.4" cy="27.4" rx="11" ry="11"/>
<ellipse transform="matrix(0.9864 -0.1642 0.1642 0.9864 -4.9693 3.3001)" class="st0" cx="17.5" cy="31.7" rx="10.1" ry="10.1"/>
<ellipse transform="matrix(0.9864 -0.1642 0.1642 0.9864 -5.3066 12.1201)" class="st0" cx="70.7" cy="38.2" rx="11.1" ry="11.1"/>
<ellipse transform="matrix(0.9864 -0.1642 0.1642 0.9864 -9.2879 4.0942)" class="st3" cx="20.1" cy="58.2" rx="8.4" ry="8.4"/>
<ellipse transform="matrix(0.9864 -0.1642 0.1642 0.9864 -3.9219 5.025)" class="st3" cx="28.4" cy="26.2" rx="8.7" ry="8.7"/>
<ellipse transform="matrix(0.9864 -0.1642 0.1642 0.9864 -6.255 5.6945)" class="st2" cx="31.3" cy="40.7" rx="11" ry="11"/>
<ellipse transform="matrix(0.9864 -0.1642 0.1642 0.9864 -3.7289 6.6503)" class="st2" cx="38.4" cy="25.9" rx="8.8" ry="8.8"/>
<ellipse transform="matrix(0.9864 -0.1642 0.1642 0.9864 -7.046 12.7665)" class="st3" cx="73.7" cy="49" rx="7.3" ry="7.3"/>
<ellipse transform="matrix(0.9864 -0.1642 0.1642 0.9864 -9.9709 12.0161)" class="st3" cx="67.7" cy="66.3" rx="4.8" ry="4.8"/>
<ellipse transform="matrix(0.9864 -0.1642 0.1642 0.9864 -10.36 8.7389)" class="st3" cx="47.7" cy="67" rx="6.1" ry="6.1"/>
</svg>
