<?xml version="1.0" encoding="UTF-8"?>
<svg viewBox="0 0 144 36" version="1.1" xmlns="http://www.w3.org/2000/svg" xmlns:xlink="http://www.w3.org/1999/xlink">
    <!-- Generator: Sketch 46.2 (44496) - http://www.bohemiancoding.com/sketch -->
    <title>Page 1</title>
    <desc>Created with Sketch.</desc>
    <defs>
        <polygon id="path-1" points="0 35.3999626 0 0.0667738732 35.3332635 0.0667738732 35.3332635 35.3999626"></polygon>
    </defs>
    <g id="Checkout" stroke="none" stroke-width="1" fill="none" fill-rule="evenodd">
        <g id="Checkout-|-Desktop" transform="translate(-84.000000, -19.000000)">
            <g id="L1-Nav" transform="translate(-156.000000, 0.000000)">
                <g id="Lockup" transform="translate(240.000000, 19.000000)">
                    <g id="Page-1">
                        <g id="Group-3">
                            <mask id="mask-2" fill="white">
                                <use xlink:href="#path-1"></use>
                            </mask>
                            <g id="Clip-2"></g>
                            <path d="M35.3332635,17.7333682 C35.3332635,27.4904309 27.4236072,35.3999626 17.6666692,35.3999626 C7.90960648,35.3999626 -4.98591549e-05,27.4904309 -4.98591549e-05,17.7333682 C-4.98591549e-05,7.97630556 7.90960648,0.0667738732 17.6666692,0.0667738732 C27.4236072,0.0667738732 35.3332635,7.97630556 35.3332635,17.7333682" id="Fill-1" fill="#E60000" mask="url(#mask-2)"></path>
                        </g>
                        <path d="M17.4197457,27.7458995 C12.6441758,27.7619001 7.67582697,23.6394624 7.65412095,17.0199458 C7.63965027,12.6423675 9.97470308,8.42863985 12.9594649,5.92870811 C15.8707697,3.49042193 19.8591591,1.92571645 23.4763388,1.91356099 C23.9419758,1.91194853 24.428951,1.95126772 24.7270716,2.05322475 C21.5642468,2.71668964 19.0472067,5.69378523 19.0582437,9.07126681 C19.0586116,9.18289859 19.0685449,9.30222056 19.0794592,9.35778838 C24.3719267,10.6615236 26.7744276,13.8914031 26.7891436,18.3605195 C26.8037369,22.8295118 23.3154444,27.7260539 17.4197457,27.7458995" id="Fill-4" fill="#FFFFFF"></path>
                        <polygon id="Fill-6" fill="#E60000" points="46.4876937 24.8756757 41.1405405 12.4378378 44.6349006 12.4378378 47.9702243 20.6953325 51.1996881 12.4378378 54.5351351 12.4378378 49.346895 24.8756757"></polygon>
                        <path d="M64.6453545,18.1254666 C64.6453545,17.5931344 64.5819884,17.0877527 64.4567618,16.6085796 C64.3311587,16.1294064 64.142566,15.7169912 63.8912344,15.3708393 C63.6396519,15.024811 63.3348669,14.7496203 62.9758756,14.5458852 C62.6168843,14.3421501 62.1952797,14.2394171 61.7105599,14.2394171 C61.2263419,14.2394171 60.8043609,14.3421501 60.4452441,14.5458852 C60.0862528,14.7496203 59.7810914,15.024811 59.5302617,15.3708393 C59.2786792,15.7169912 59.0900865,16.1294064 58.9647344,16.6085796 C58.8388804,17.0877527 58.7761416,17.5931344 58.7761416,18.1254666 C58.7761416,18.6757245 58.8388804,19.1859276 58.9647344,19.6561997 C59.0900865,20.12573 59.274413,20.5387634 59.5165847,20.8934454 C59.7587564,21.2482511 60.0639178,21.5281397 60.4319435,21.7318748 C60.7997182,21.9357335 61.2263419,22.0377247 61.7105599,22.0377247 C62.1952797,22.0377247 62.6168843,21.9357335 62.9758756,21.7318748 C63.3348669,21.5281397 63.6396519,21.2482511 63.8912344,20.8934454 C64.142566,20.5387634 64.3311587,20.12573 64.4567618,19.6561997 C64.5819884,19.1859276 64.6453545,18.6757245 64.6453545,18.1254666 M67.9297297,18.1385709 C67.9297297,18.9700772 67.7991076,19.787861 67.5391181,20.5921697 C67.2788776,21.3972201 66.8932851,22.1173396 66.3815876,22.7541355 C65.8700156,23.3905604 65.2240571,23.9034834 64.4434612,24.2924097 C63.6624888,24.6813361 62.7516472,24.8756757 61.7105599,24.8756757 C60.669598,24.8756757 59.7587564,24.6813361 58.978035,24.2924097 C58.1974391,23.9034834 57.5514806,23.3905604 57.0399086,22.7541355 C56.5283366,22.1173396 56.1419911,21.3972201 55.8823781,20.5921697 C55.6216357,19.787861 55.4918919,18.9700772 55.4918919,18.1385709 C55.4918919,17.3076828 55.6216357,16.4941022 55.8823781,15.6984473 C56.1419911,14.9026689 56.5283366,14.1912031 57.0399086,13.5630611 C57.5514806,12.9355371 58.1974391,12.4315153 58.978035,12.0512427 C59.7587564,11.671341 60.669598,11.4810811 61.7105599,11.4810811 C62.7516472,11.4810811 63.6578461,11.671341 64.4297841,12.0512427 C65.2013456,12.4315153 65.8473041,12.9355371 66.3684124,13.5630611 C66.8886424,14.1912031 67.2788776,14.9026689 67.5391181,15.6984473 C67.7991076,16.4941022 67.9297297,17.3076828 67.9297297,18.1385709" id="Fill-8" fill="#E60000"></path>
                        <path d="M77.0869945,14.5007061 C76.455712,14.2497733 75.8677068,14.123932 75.3240887,14.123932 C74.7625925,14.123932 74.2802532,14.2320281 73.8765776,14.4473454 C73.4732719,14.6624127 73.1397525,14.9534597 72.8767592,15.3213611 C72.6136426,15.6893875 72.415997,16.1012771 72.284562,16.5592794 C72.1528804,17.0165318 72.0872862,17.4869058 72.0872862,17.971401 C72.0872862,18.5093818 72.1443729,19.0252435 72.2584229,19.5186113 C72.3725963,20.0121041 72.5480484,20.4421138 72.7845328,20.8101402 C73.0215103,21.1777917 73.31989,21.4737124 73.6795484,21.6977773 C74.0392068,21.9218423 74.4645827,22.0336873 74.9555529,22.0336873 C75.3588586,22.0336873 75.7714116,21.9218423 76.1923488,21.6977773 C76.6131627,21.4737124 76.9116656,21.2087834 77.0869945,20.9038651 L77.0869945,14.5007061 Z M77.3528236,24.5808797 L77.2194159,23.5890205 C76.9201731,23.9284295 76.5245119,24.2282242 76.032802,24.4867799 C75.5403523,24.7460854 74.9599916,24.8756757 74.2923363,24.8756757 C73.4134727,24.8756757 72.6394118,24.6882259 71.9717565,24.3124516 C71.3036081,23.9375521 70.7411255,23.4370612 70.2838156,22.8112289 C69.8268755,22.1860215 69.4795468,21.4618405 69.2423227,20.6394359 C69.0050986,19.8176562 68.8864865,18.9596361 68.8864865,18.0653758 C68.8864865,17.2256008 69.0091674,16.4030712 69.2553922,15.5987868 C69.5016171,14.7945023 69.8749615,14.0751951 70.3759187,13.4402403 C70.8769992,12.8060352 71.5058158,12.2965468 72.2618753,11.9121498 C73.0173182,11.5281277 73.9050593,11.3356793 74.9249751,11.3356793 C75.5930003,11.3356793 76.3133035,11.459771 77.0869945,11.7075796 L77.0869945,6.6972973 L80.3675676,6.6972973 L80.3675676,24.5808797 L77.3528236,24.5808797 Z" id="Fill-10" fill="#E60000"></path>
                        <path d="M90.5015825,18.5894918 C90.1456111,18.6074173 89.7811141,18.6384471 89.4075974,18.682581 C89.0340807,18.726715 88.6781093,18.784324 88.3401774,18.8549136 C87.6286052,18.9963401 87.1348663,19.2393859 86.858837,19.584422 C86.5831785,19.9292108 86.445411,20.3050294 86.445411,20.7113833 C86.445411,21.1357863 86.6007238,21.4763719 86.9122142,21.7328928 C87.2237047,21.9894137 87.6640664,22.1173651 88.2332994,22.1173651 C88.6598226,22.1173651 89.0737429,22.0290972 89.4737011,21.8521905 C89.8741535,21.6756546 90.2166571,21.4543667 90.5015825,21.1889448 L90.5015825,18.5894918 Z M90.765503,24.5719302 L90.6339134,23.6173015 C90.2789305,24.0100567 89.8265836,24.3184999 89.2769963,24.5412713 C88.7270384,24.7639191 88.1244446,24.8756757 87.4679794,24.8756757 C86.918145,24.8756757 86.3899333,24.7829573 85.8847035,24.5971496 C85.3792265,24.4115892 84.9316984,24.1461673 84.5412542,23.8013785 C84.1511807,23.4567133 83.8363542,23.0323103 83.5967747,22.5286639 C83.3573187,22.0245231 83.2378378,21.4543667 83.2378378,20.8175767 C83.2378378,20.1809104 83.3615197,19.619655 83.6102425,19.1335633 C83.8587182,18.6474717 84.195291,18.2361728 84.6211964,17.9000377 C85.0471019,17.5641499 85.5346629,17.289827 86.0846208,17.077811 C86.6345787,16.8657949 87.2109782,16.7064429 87.8139426,16.6002494 C88.239848,16.5119815 88.7054157,16.4458424 89.2111397,16.4013375 C89.7166167,16.3575744 90.1377033,16.3176437 90.4750175,16.2817926 L90.4750175,16.0962322 C90.4750175,15.3892235 90.292769,14.8854535 89.9285192,14.5841805 C89.5647635,14.2838965 89.0629933,14.1331982 88.4234556,14.1331982 C88.0500625,14.1331982 87.6947089,14.1780739 87.3577654,14.2663418 C87.0200806,14.3546097 86.717857,14.4648828 86.4515889,14.5976556 C86.1848266,14.7303047 85.9495716,14.8627066 85.7455769,14.9954793 C85.5408408,15.1282521 85.3768789,15.2474261 85.2524557,15.3536196 L84.1657606,13.0459204 C84.3069877,12.9225431 84.5233383,12.7722157 84.8151829,12.5949381 C85.1067805,12.4185259 85.4599101,12.2460697 85.8754366,12.0778167 C86.2905925,11.9099346 86.7588784,11.7690026 87.2805415,11.6534137 C87.8015868,11.5386901 88.3629121,11.4810811 88.963776,11.4810811 C89.6705294,11.4810811 90.3158744,11.5737995 90.8991931,11.7596072 C91.4822646,11.9454148 91.9860118,12.236427 92.4101874,12.6342507 C92.8342394,13.0314564 93.1657463,13.5351027 93.4042138,14.1443244 C93.6429284,14.7534225 93.7621622,15.4912137 93.7621622,16.3565854 L93.7621622,24.5719302 L90.765503,24.5719302 Z" id="Fill-12" fill="#E60000"></path>
                        <path d="M103.923467,9.9856478 C103.819626,9.93219591 103.616417,9.85644125 103.313961,9.75838381 C103.011263,9.66045097 102.609439,9.61148455 102.107763,9.61148455 C101.658068,9.61148455 101.282235,9.74966206 100.979778,10.0258925 C100.677081,10.3021229 100.525732,10.7521654 100.525732,11.3755216 L100.525732,11.9905299 L103.223297,11.9905299 L103.223297,14.6638721 L100.551722,14.6638721 L100.551722,24.8756757 L97.3356784,24.8756757 L97.3356784,14.6638721 L95.6756757,14.6638721 L95.6756757,11.9905299 L97.3356784,11.9905299 L97.3356784,11.2955307 C97.3356784,10.4582423 97.4393983,9.74966206 97.6467174,9.17053758 C97.854399,8.59128851 98.1436786,8.11906782 98.5158857,7.75350172 C98.8873675,7.38843402 99.3238859,7.12117455 99.8255616,6.95159873 C100.326875,6.78202291 100.871586,6.6972973 101.459453,6.6972973 C102.237594,6.6972973 102.881432,6.77367494 103.391811,6.92456129 C103.901586,7.07631981 104.199932,7.17886272 104.286486,7.23231462 L103.923467,9.9856478 Z" id="Fill-14" fill="#E60000"></path>
                        <path d="M112.483192,18.1254666 C112.483192,17.5931344 112.419826,17.0877527 112.2946,16.6085796 C112.168997,16.1294064 111.980404,15.7169912 111.729072,15.3708393 C111.47749,15.024811 111.172705,14.7496203 110.813713,14.5458852 C110.454722,14.3421501 110.033118,14.2394171 109.548398,14.2394171 C109.06418,14.2394171 108.642199,14.3421501 108.283082,14.5458852 C107.924091,14.7496203 107.618929,15.024811 107.3681,15.3708393 C107.116517,15.7169912 106.927924,16.1294064 106.802698,16.6085796 C106.676718,17.0877527 106.613979,17.5931344 106.613979,18.1254666 C106.613979,18.6757245 106.676718,19.1859276 106.802698,19.6561997 C106.927924,20.12573 107.112251,20.5387634 107.354423,20.8934454 C107.596594,21.2482511 107.901756,21.5281397 108.269781,21.7318748 C108.637556,21.9357335 109.06418,22.0377247 109.548398,22.0377247 C110.033118,22.0377247 110.454722,21.9357335 110.813713,21.7318748 C111.172705,21.5281397 111.47749,21.2482511 111.729072,20.8934454 C111.980404,20.5387634 112.168997,20.12573 112.2946,19.6561997 C112.419826,19.1859276 112.483192,18.6757245 112.483192,18.1254666 M115.767568,18.1385709 C115.767568,18.9700772 115.636945,19.787861 115.376956,20.5921697 C115.116715,21.3972201 114.731123,22.1173396 114.219425,22.7541355 C113.707853,23.3905604 113.061895,23.9034834 112.281299,24.2924097 C111.500327,24.6813361 110.589485,24.8756757 109.548398,24.8756757 C108.507436,24.8756757 107.596594,24.6813361 106.815873,24.2924097 C106.035277,23.9034834 105.389318,23.3905604 104.877746,22.7541355 C104.366174,22.1173396 103.979829,21.3972201 103.720216,20.5921697 C103.459474,19.787861 103.32973,18.9700772 103.32973,18.1385709 C103.32973,17.3076828 103.459474,16.4941022 103.720216,15.6984473 C103.979829,14.9026689 104.366174,14.1912031 104.877746,13.5630611 C105.389318,12.9355371 106.035277,12.4315153 106.815873,12.0512427 C107.596594,11.671341 108.507436,11.4810811 109.548398,11.4810811 C110.589485,11.4810811 111.495684,11.671341 112.267622,12.0512427 C113.039183,12.4315153 113.685142,12.9355371 114.20625,13.5630611 C114.72648,14.1912031 115.116715,14.9026689 115.376956,15.6984473 C115.636945,16.4941022 115.767568,17.3076828 115.767568,18.1385709" id="Fill-16" fill="#E60000"></path>
                        <path d="M125.859115,24.8756757 L125.859115,17.4191112 C125.859115,16.4252902 125.654878,15.6570504 125.246281,15.1142653 C124.837683,14.5722386 124.269545,14.3009093 123.541494,14.3009093 C123.026247,14.3009093 122.551226,14.4365107 122.116307,14.7075873 C121.68114,14.9789166 121.304078,15.2770377 120.984128,15.6027087 L120.984128,24.8756757 L117.681081,24.8756757 L117.681081,11.806373 L120.691244,11.806373 L120.851157,12.836843 C121.366032,12.4031205 121.947331,12.0686032 122.595922,11.8335438 C123.244016,11.5988635 123.896705,11.4810811 124.553863,11.4810811 C125.228651,11.4810811 125.849803,11.5854677 126.418686,11.7929771 C126.986452,12.000992 127.475006,12.3308335 127.883479,12.7826277 C128.291704,13.234422 128.606812,13.8223233 128.829052,14.5450677 C129.051043,15.2683177 129.162162,16.1358891 129.162162,17.1480347 L129.162162,24.8756757 L125.859115,24.8756757 Z" id="Fill-18" fill="#E60000"></path>
                        <path d="M139.909041,16.6961569 C139.871466,16.2608326 139.772094,15.8818873 139.612628,15.5595647 C139.452245,15.2373638 139.254811,14.9761692 139.01967,14.7758591 C138.784137,14.5757926 138.52962,14.4278432 138.256511,14.3316456 C137.983795,14.2363005 137.705973,14.1880799 137.423699,14.1880799 C136.820922,14.1880799 136.24708,14.3972792 135.700862,14.814947 C135.155038,15.2332236 134.834403,15.8600907 134.74053,16.6961569 L139.909041,16.6961569 Z M134.656215,19.021215 C134.731497,20.0837716 135.088528,20.850186 135.727833,21.320458 C136.366745,21.7904865 137.194058,22.0257443 138.209116,22.0257443 C138.679005,22.0257443 139.120744,21.9867782 139.534466,21.9079937 C139.947795,21.8298179 140.314646,21.7299673 140.634102,21.607833 C140.953689,21.4861857 141.226666,21.3639296 141.45238,21.2420388 C141.677964,21.120148 141.846987,21.006781 141.959844,20.9021814 L142.886921,23.5412818 C142.755473,23.6282249 142.544815,23.7460973 142.254817,23.8938032 C141.964296,24.0418743 141.60386,24.1810564 141.17338,24.3118363 C140.742245,24.4424945 140.236484,24.5552526 139.656357,24.6514502 C139.075837,24.7467953 138.438758,24.7950159 137.746167,24.7950159 C136.86583,24.7950159 136.027912,24.6646012 135.232021,24.4031631 C134.436131,24.1420903 133.738303,23.7369647 133.139584,23.1881516 C132.539688,22.6397038 132.062206,21.9562142 131.706876,21.1374392 C131.350892,20.3190294 131.173097,19.3437812 131.173097,18.2113291 C131.173097,17.1491377 131.336752,16.2084719 131.664588,15.3898186 C131.99203,14.5710436 132.441494,13.8834138 133.012849,13.3258334 C133.583942,12.7686182 134.24917,12.3420613 135.007486,12.0456754 C135.765801,11.7498984 136.57557,11.601462 137.437316,11.601462 C138.298538,11.601462 139.094428,11.7322419 139.825119,11.9933147 C140.555285,12.2545093 141.187258,12.6596349 141.721038,13.2080827 C142.254817,13.756774 142.676133,14.4668093 142.985115,15.3374579 C143.293966,16.2084719 143.448457,17.24497 143.448457,18.4463433 L143.448457,19.021215 L134.656215,19.021215 Z" id="Fill-20" fill="#E60000"></path>
                    </g>
                </g>
            </g>
        </g>
    </g>
</svg>