<svg xmlns="http://www.w3.org/2000/svg" viewBox="0 0 350.43 56.1"><defs><style>.cls-1{fill:#f58220;}.cls-2{fill:#008a5b;}.cls-3{fill:#b2d235;}</style></defs><title>Asset 4</title><g id="Layer_2" data-name="Layer 2"><g id="Text"><path class="cls-1" d="M54.66,19.33a4.58,4.58,0,0,0-2.74-2.56L57.29,9.6a.45.45,0,0,0,.07-.49.43.43,0,0,0-.42-.22h-.53a.83.83,0,0,0-.81.36l-5.34,7.22h-3v-7c0-.37-.18-.56-.53-.56H46.2a.49.49,0,0,0-.56.56V25.18a.49.49,0,0,0,.56.56h.48c.35,0,.53-.19.53-.56V17.94h2.66a3.16,3.16,0,0,1,3.33,2l2.7,5.37c.18.33.4.39.8.39h.46a.45.45,0,0,0,.42-.2.46.46,0,0,0,0-.48Z"/><path class="cls-1" d="M67.33,9.23a.61.61,0,0,0-.64-.45h-.46a.63.63,0,0,0-.63.44L59.23,25.1a.45.45,0,0,0,0,.44.48.48,0,0,0,.43.19h.39c.33,0,.64,0,.77-.42l2-4.92h7.29l2,4.88c.1.46.5.46.76.46h.41a.51.51,0,0,0,.45-.2.44.44,0,0,0,0-.44ZM69.57,19H63.32l3.13-7.82Z"/><path class="cls-1" d="M88.77,8.89h-.46c-.37,0-.56.18-.56.53V19.8c0,.89,0,1.76.09,2.54,0,.28,0,.53,0,.78l-.4-.64c-.38-.61-.8-1.3-1.27-2L78.29,9.17a.62.62,0,0,0-.54-.28h-.46a.49.49,0,0,0-.56.56V25.18a.49.49,0,0,0,.56.56h.46c.35,0,.53-.19.53-.56V14.46c0-.82,0-1.65-.08-2.37,0-.2,0-.39,0-.57l.29.5c.33.56.7,1.2,1.12,1.79l8.15,11.62a.55.55,0,0,0,.55.31h.48c.35,0,.53-.19.53-.56V9.45C89.3,9.08,89.12,8.89,88.77,8.89Z"/><path class="cls-1" d="M105.79,17h-5.66a.5.5,0,0,0-.56.56V18a.5.5,0,0,0,.56.56h4.66v1.74c0,2.73-1.78,4.3-4.87,4.3S95,23,95,20.1V14.46c0-2.87,1.68-4.39,4.87-4.39,2.75,0,4.1.89,4.79,3.18a.51.51,0,0,0,.72.35l.44-.15a.52.52,0,0,0,.35-.7c-.86-2.9-2.81-4.19-6.3-4.19-4.1,0-6.45,2.16-6.45,5.92V20.1c0,3.79,2.36,6,6.47,6s6.42-2.17,6.42-5.8V17.57A.51.51,0,0,0,105.79,17Z"/><path class="cls-1" d="M116.43,9.23a.61.61,0,0,0-.64-.45h-.46a.63.63,0,0,0-.63.44L108.33,25.1a.45.45,0,0,0,0,.44.48.48,0,0,0,.43.19h.39c.33,0,.64,0,.77-.42l2-4.92h7.29l2,4.88c.1.46.5.46.76.46h.41a.5.5,0,0,0,.45-.2.44.44,0,0,0,0-.44ZM118.68,19h-6.25l3.13-7.81Z"/><path class="cls-1" d="M135.73,20a4.41,4.41,0,0,0-1.32-1.62,4.31,4.31,0,0,0,3.51-4.58c0-3-1.84-4.86-4.93-4.86h-6.6a.49.49,0,0,0-.56.56V25.18a.49.49,0,0,0,.56.56h.48c.35,0,.53-.19.53-.56V18.56H131a3.16,3.16,0,0,1,3.33,2l2.39,4.73c.17.38.45.41.81.41h.44a.45.45,0,0,0,.44-.23.43.43,0,0,0,0-.45Zm.57-6.2c0,2.13-1.22,3.31-3.42,3.31h-5.47V10.4h5.47C135.09,10.4,136.3,11.59,136.3,13.75Z"/><path class="cls-1" d="M147.92,8.57c-4.11,0-6.47,2.16-6.47,5.94v5.61c0,3.77,2.36,5.94,6.47,5.94s6.42-2.16,6.42-5.94V14.51C154.35,10.73,152,8.57,147.92,8.57Zm4.85,5.94v5.61c0,2.86-1.72,4.43-4.85,4.43S143,23,143,20.12V14.51c0-2.86,1.74-4.43,4.89-4.43S152.77,11.65,152.77,14.51Z"/><path class="cls-1" d="M164.48,8.57c-4.11,0-6.47,2.16-6.47,5.94v5.61c0,3.77,2.36,5.94,6.47,5.94s6.42-2.16,6.42-5.94V14.51C170.91,10.73,168.56,8.57,164.48,8.57Zm4.85,5.94v5.61c0,2.86-1.72,4.43-4.85,4.43s-4.89-1.57-4.89-4.43V14.51c0-2.86,1.74-4.43,4.89-4.43S169.33,11.65,169.33,14.51Z"/><path class="cls-1" d="M183.09,8.89h-.48a.49.49,0,0,0-.56.56V25.18a.49.49,0,0,0,.56.56h.48c.35,0,.53-.19.53-.56V9.45C183.62,9.08,183.44,8.89,183.09,8.89Z"/><path class="cls-1" d="M194.18,16.51c-2.69-.29-4.92-.72-4.92-3.17,0-2.06,1.62-3.24,4.43-3.24A4.75,4.75,0,0,1,198.53,13a.48.48,0,0,0,.7.25l.44-.2a.49.49,0,0,0,.28-.75c-1.28-2.6-3.15-3.71-6.26-3.71-3.72,0-6,1.85-6,4.84,0,3.9,3.6,4.33,6.23,4.65,2.82.34,4.67.73,4.67,3.1s-1.56,3.38-4.76,3.38a4.84,4.84,0,0,1-5-3.26.51.51,0,0,0-.71-.31l-.44.16a.5.5,0,0,0-.3.75c1.17,2.9,3.15,4.19,6.43,4.19,4.08,0,6.33-1.76,6.33-5C200.14,17.19,196.7,16.79,194.18,16.51Z"/><path class="cls-1" d="M213.63,24.23h-8.11V9.45c0-.37-.18-.56-.53-.56h-.48a.49.49,0,0,0-.56.56V25.18a.49.49,0,0,0,.56.56h9.13c.35,0,.53-.19.53-.56v-.41A.48.48,0,0,0,213.63,24.23Z"/><path class="cls-1" d="M223.74,9.23a.61.61,0,0,0-.64-.45h-.46a.63.63,0,0,0-.63.44L215.65,25.1a.45.45,0,0,0,0,.44.48.48,0,0,0,.43.19h.39c.33,0,.64,0,.77-.42l2-4.92h7.29l2,4.88c.1.46.5.46.76.46h.41a.51.51,0,0,0,.45-.2.44.44,0,0,0,0-.44ZM226,19h-6.25l3.13-7.81Z"/><path class="cls-1" d="M245.19,8.89h-.46c-.37,0-.56.18-.56.53V19.8c0,.89,0,1.76.09,2.54,0,.28,0,.53,0,.78l-.4-.64c-.38-.61-.8-1.3-1.27-2L234.71,9.17a.62.62,0,0,0-.54-.28h-.46a.49.49,0,0,0-.56.56V25.18a.49.49,0,0,0,.56.56h.46c.35,0,.53-.19.53-.56V14.46c0-.82,0-1.65-.08-2.37,0-.2,0-.39,0-.57l.3.5c.33.56.7,1.2,1.12,1.79l8.15,11.62a.55.55,0,0,0,.55.31h.48c.35,0,.53-.19.53-.56V9.45C245.72,9.08,245.54,8.89,245.19,8.89Z"/><path class="cls-1" d="M255.61,8.89h-4.69a.49.49,0,0,0-.56.56V25.18a.49.49,0,0,0,.56.56h4.69c4.34,0,6.93-2.37,6.93-6.33V15.22C262.53,11.26,259.94,8.89,255.61,8.89ZM261,15.22v4.19c0,3.07-1.94,4.82-5.33,4.82h-3.7V10.4h3.7C259.07,10.4,261,12.11,261,15.22Z"/><path class="cls-2" d="M53.52,32.86H45.71c-.41,0-.59.18-.59.59V53.32c0,.41.18.59.59.59h.61c.39,0,.56-.19.56-.59V45.89h6.64c4.09,0,6.63-2.49,6.63-6.49S57.61,32.86,53.52,32.86Zm4.81,6.55c0,3-1.84,4.81-4.92,4.81H46.88V34.54H53.4C56.49,34.54,58.33,36.36,58.33,39.41Z"/><path class="cls-2" d="M76.63,52.23H66.28V33.45c0-.4-.18-.59-.56-.59H65.1c-.41,0-.59.18-.59.59V53.32c0,.41.18.59.59.59H76.63c.38,0,.56-.19.56-.59v-.52A.5.5,0,0,0,76.63,52.23Z"/><path class="cls-2" d="M89,33.21a.66.66,0,0,0-.7-.5h-.58a.68.68,0,0,0-.69.48L79,53.26a.46.46,0,0,0,0,.46.5.5,0,0,0,.45.19h.49c.39,0,.73,0,.87-.46l2.5-6.28h9.35l2.52,6.25c.1.45.44.49.85.49h.52a.54.54,0,0,0,.48-.2.45.45,0,0,0,0-.45Zm3.11,12.4H83.89l4-10c0-.11.07-.22.1-.33,0,.11.06.22.1.33Z"/><path class="cls-2" d="M115.9,32.86h-.58c-.4,0-.59.18-.59.56v13.1c0,1.12.06,2.22.12,3.19,0,.51.06,1,.07,1.39-.22-.34-.46-.73-.72-1.15-.48-.77-1-1.64-1.6-2.49l-10-14.31a.67.67,0,0,0-.59-.3h-.58c-.41,0-.59.18-.59.59V53.32c0,.41.18.59.59.59H102c.38,0,.56-.19.56-.59V39.78c0-1-.05-2.07-.1-3,0-.42,0-.81-.06-1.16.18.29.38.63.6,1,.42.71.88,1.51,1.41,2.25l10.3,14.68a.58.58,0,0,0,.59.34h.61c.38,0,.56-.19.56-.59V33.45C116.46,33,116.28,32.86,115.9,32.86Z"/><path class="cls-2" d="M135.36,34v-.52c0-.41-.18-.59-.59-.59H120.83c-.41,0-.59.18-.59.59V34c0,.39.19.56.59.56h6.09V53.32c0,.41.18.59.59.59h.61c.38,0,.56-.19.56-.59V34.54h6.09C135.18,34.54,135.36,34.36,135.36,34Z"/><path class="cls-2" d="M144.79,33.21a.66.66,0,0,0-.7-.5h-.58a.67.67,0,0,0-.69.48l-8,20.06a.46.46,0,0,0,0,.45.5.5,0,0,0,.45.19h.49c.39,0,.73,0,.87-.46l2.5-6.28h9.35L151,53.42c.1.45.44.49.85.49h.52a.54.54,0,0,0,.48-.2.45.45,0,0,0,0-.45Zm3.11,12.4h-8.22l4-10c0-.11.07-.22.1-.33,0,.1.06.21.1.33Z"/><path class="cls-2" d="M166.77,32.86H152.83c-.41,0-.59.18-.59.59V34c0,.39.19.56.59.56h6.09V53.32c0,.41.18.59.59.59h.61c.38,0,.56-.19.56-.59V34.54h6.09c.4,0,.59-.18.59-.56v-.52C167.37,33,167.18,32.86,166.77,32.86Z"/><path class="cls-2" d="M172.35,32.86h-.61c-.41,0-.59.18-.59.59V53.32c0,.41.18.59.59.59h.61c.38,0,.56-.19.56-.59V33.45C172.91,33,172.73,32.86,172.35,32.86Z"/><path class="cls-2" d="M186.14,32.45c-5.12,0-8.06,2.69-8.06,7.39v7.09c0,4.7,2.94,7.39,8.06,7.39s8-2.69,8-7.39V39.84C194.14,35.15,191.23,32.45,186.14,32.45Zm6.23,7.39v7.09c0,3.68-2.21,5.71-6.23,5.71s-6.29-2-6.29-5.71V39.84c0-3.68,2.23-5.71,6.29-5.71S192.37,36.16,192.37,39.84Z"/><path class="cls-2" d="M214.4,32.86h-.58c-.4,0-.59.18-.59.56v13.1c0,1.12.06,2.22.12,3.19,0,.51.06,1,.07,1.39-.22-.34-.46-.73-.72-1.15-.48-.77-1-1.64-1.6-2.49l-10-14.31a.67.67,0,0,0-.58-.3h-.58c-.41,0-.59.18-.59.59V53.32c0,.41.18.59.59.59h.58c.38,0,.56-.19.56-.59V39.78c0-1-.05-2.07-.1-3,0-.42,0-.81-.06-1.16.18.29.38.63.6,1,.41.71.88,1.51,1.41,2.25l10.3,14.68a.58.58,0,0,0,.59.34h.61c.38,0,.56-.19.56-.59V33.45C215,33,214.78,32.86,214.4,32.86Z"/><path class="cls-2" d="M241.11,32.86H227.18c-.41,0-.59.18-.59.59V34c0,.39.19.56.59.56h6.09V53.32c0,.41.18.59.59.59h.61c.38,0,.56-.19.56-.59V34.54h6.09c.4,0,.59-.18.59-.56v-.52C241.71,33,241.52,32.86,241.11,32.86Z"/><path class="cls-2" d="M246.69,32.86h-.61c-.41,0-.59.18-.59.59V53.32c0,.41.18.59.59.59h.61c.39,0,.56-.19.56-.59V33.45C247.25,33,247.07,32.86,246.69,32.86Z"/><path class="cls-2" d="M271.23,32.86h-.55a.7.7,0,0,0-.71.46l-7.54,13.38-7.6-13.41a.73.73,0,0,0-.73-.42h-.46c-.41,0-.59.18-.59.59V53.32c0,.41.18.59.59.59h.52c.41,0,.59-.18.59-.59V40c0-1.25,0-2.53-.11-3.9.57,1.18,1.11,2.19,1.69,3.19l5.25,9.27a.63.63,0,0,0,.69.42h.38a.64.64,0,0,0,.65-.4l5.17-9.17c.62-1.08,1.18-2.13,1.76-3.3-.09,1.28-.13,2.59-.13,3.89V53.32c0,.4.18.59.56.59h.58c.38,0,.56-.19.56-.59V33.45C271.79,33,271.61,32.86,271.23,32.86Z"/><path class="cls-2" d="M289.44,43c1.74-.82,2.65-2.45,2.65-4.75,0-3.44-2.07-5.41-5.68-5.41h-8.25c-.41,0-.59.18-.59.59V53.32c0,.41.18.59.59.59h8.63c3.75,0,6-2.13,6-5.7C292.79,45.54,291.61,43.72,289.44,43Zm-10.1-.67V34.54h6.93c2.63,0,4,1.34,4,3.88s-1.39,3.94-4,3.94ZM291,48.09c0,2.71-1.46,4.14-4.23,4.14h-7.39V44h7.39C289.46,44,291,45.46,291,48.09Z"/><path class="cls-2" d="M310.46,52.23H299.38V44.09h9.43c.39,0,.56-.19.56-.59V43a.5.5,0,0,0-.56-.56h-9.43V34.54h10.67c.4,0,.59-.18.59-.56v-.52c0-.41-.18-.59-.59-.59H298.21c-.41,0-.59.18-.59.59V53.32c0,.41.18.59.59.59h12.25a.53.53,0,0,0,.59-.59v-.52A.52.52,0,0,0,310.46,52.23Z"/><path class="cls-2" d="M327.9,46.77A5.24,5.24,0,0,0,326,44.61c2.9-.51,4.61-2.61,4.61-5.73,0-3.77-2.28-6-6.11-6h-8.33c-.41,0-.59.18-.59.59V53.32c0,.41.18.59.59.59h.61c.39,0,.56-.19.56-.59V44.85H322a4.09,4.09,0,0,1,4.31,2.64l3,6c.17.38.43.45.92.45h.55a.46.46,0,0,0,.45-.23.43.43,0,0,0-.06-.46Zm.93-7.88c0,2.72-1.62,4.29-4.43,4.29h-7V34.54h7C327.26,34.54,328.83,36.08,328.83,38.88Z"/><path class="cls-2" d="M343,42.47c-3.45-.37-6.31-.93-6.31-4.11,0-2.67,2.08-4.2,5.71-4.2,3.08,0,4.87,1.07,6.2,3.69a.5.5,0,0,0,.74.27l.57-.26a.56.56,0,0,0,.36-.32.57.57,0,0,0-.07-.48c-1.59-3.24-3.92-4.62-7.8-4.62-4.63,0-7.5,2.3-7.5,6,0,4.83,4.49,5.37,7.77,5.76,3.51.42,6,1,6,4s-2,4.37-6.12,4.37a6.21,6.21,0,0,1-6.37-4.18c-.19-.38-.38-.47-.76-.34l-.56.21c-.49.19-.44.5-.32.8,1.46,3.61,3.93,5.22,8,5.22,5.08,0,7.88-2.18,7.88-6.14C350.43,43.32,346.14,42.83,343,42.47Z"/></g><g id="Icon"><path class="cls-2" d="M2.31,56A1.92,1.92,0,0,1,.39,54.12v-7.9a1.92,1.92,0,0,1,3.84,0v7.9A1.92,1.92,0,0,1,2.31,56"/><path class="cls-2" d="M8.5,56.1a1.92,1.92,0,0,1-1.92-1.92V44.84L.81,40.74A1.92,1.92,0,0,1,3,37.61l7.38,5.25V54.17A1.92,1.92,0,0,1,8.5,56.1"/><path class="cls-1" d="M14.21,56a1.92,1.92,0,0,1-1.92-1.92V41.64L1.34,33.91a2.25,2.25,0,0,1-1-1.83V21.46a1.92,1.92,0,0,1,3.84,0v9.79L15.18,39a2.25,2.25,0,0,1,1,1.84v13.3A1.92,1.92,0,0,1,14.21,56"/><path class="cls-2" d="M32.43,56a1.92,1.92,0,0,1-1.92-1.92v-7.9a1.92,1.92,0,0,1,3.84,0v7.9A1.92,1.92,0,0,1,32.43,56"/><path class="cls-2" d="M26.25,56.1a1.92,1.92,0,0,1-1.92-1.92V42.86l7.38-5.25a1.92,1.92,0,0,1,2.23,3.13l-5.77,4.1v9.33a1.92,1.92,0,0,1-1.92,1.92"/><path class="cls-1" d="M20.54,56a1.92,1.92,0,0,1-1.92-1.92V40.81a2.25,2.25,0,0,1,1-1.83l10.95-7.73V21.46a1.92,1.92,0,0,1,3.84,0V32.08a2.25,2.25,0,0,1-1,1.83L22.46,41.64V54.12A1.92,1.92,0,0,1,20.54,56"/><path class="cls-3" d="M8.52,31.59A1.92,1.92,0,0,1,6.6,29.66l0-20.8a1.92,1.92,0,1,1,3.84,0l0,20.8a1.92,1.92,0,0,1-1.92,1.92"/><path class="cls-3" d="M14.27,35.19a1.92,1.92,0,0,1-1.92-1.92V1.92a1.92,1.92,0,1,1,3.84,0V33.27a1.92,1.92,0,0,1-1.92,1.92"/><path class="cls-3" d="M25.82,31.59a1.92,1.92,0,0,0,1.92-1.92l0-20.8a1.92,1.92,0,1,0-3.84,0l0,20.8a1.92,1.92,0,0,0,1.92,1.92"/><path class="cls-3" d="M20.07,35.19A1.92,1.92,0,0,0,22,33.27V1.92a1.92,1.92,0,0,0-3.84,0V33.27a1.92,1.92,0,0,0,1.92,1.92"/></g></g></svg>