<svg id="Layer_1" data-name="Layer 1" xmlns="http://www.w3.org/2000/svg" viewBox="0 0 2436.29 777.53"><defs><style>.cls-1{fill:#323f51;}.cls-2{fill:#12ebd1;}.cls-3{fill:#fff;}</style></defs><title>WISR_logomark_mint_RBG</title><path class="cls-1" d="M448.11,220.54h0S268.94,255.68,224.45,454.86h0V767.35c210.78-50.76,223.05-290,223.65-328.56Z" transform="translate(-0.79 -0.12)"/><path class="cls-2" d="M448.11,220.54H.79S180,255.69,224.45,454.87h0C268.94,255.68,448.11,220.54,448.11,220.54Z" transform="translate(-0.79 -0.12)"/><path d="M224.45,454.86h0C180,255.81,1,220.59.79,220.55V438.79h0c.6,38.6,12.87,277.8,223.64,328.56Z" transform="translate(-0.79 -0.12)"/><line y1="220.42" y2="220.43"/><path class="cls-3" d="M72.27,357.45a57.07,57.07,0,1,0,80.7,0,57.07,57.07,0,0,0-80.7,0" transform="translate(-0.79 -0.12)"/><path d="M114.7,408.42a10.82,10.82,0,1,1,8.54-12.7,10.82,10.82,0,0,1-8.54,12.7" transform="translate(-0.79 -0.12)"/><path class="cls-3" d="M295.65,357.45a57.07,57.07,0,1,0,80.7,0,57.07,57.07,0,0,0-80.7,0" transform="translate(-0.79 -0.12)"/><path d="M338.08,408.42a10.82,10.82,0,1,1,8.54-12.7,10.82,10.82,0,0,1-8.54,12.7" transform="translate(-0.79 -0.12)"/><path class="cls-2" d="M1100.83,221.53h196.7c-20.6,284.24-122.55,487.12-154.48,545.82H947.38c-11.33-41.19-27.8-117.4-56.64-230.69C864,650,846.46,726.16,836.16,767.35H640.49C609.59,708.65,507.64,505.77,485,221.53H682.71c9.27,171,47.38,349.12,54.59,356.33,7.2-9.27,46.34-184.34,55.61-356.33h196.7c10.3,171,47.37,349.12,55.61,356.33C1053.46,568.59,1090.53,393.52,1100.83,221.53Z" transform="translate(-0.79 -0.12)"/><path class="cls-2" d="M1333.41,180.34V.12h204.94V180.34ZM1592.93,741.6c-20.6,11.33-71.06,25.75-113.28,25.75-84.45,0-143.15-28.84-143.15-192.58V221.53h195.67V573.74c0,28.83,2.06,36,13.39,36,2.06,0,6.18-1,22.66-4.12Z" transform="translate(-0.79 -0.12)"/><path class="cls-2" d="M2024.42,366.74c-41.19-6.18-66.94-9.27-108.13-9.27-53.55,0-90.63,5.15-90.63,26.78,0,52.52,225.54-4.12,225.54,213.18,0,176.1-156.54,180.22-228.63,180.22-86.5,0-161.68-7.21-202.88-14.42L1629,620.08c49.43,5.15,116.37,11.33,158.6,11.33,38.1,0,64.88-5.15,64.88-25.75,0-59.73-225.54-5.14-225.54-215.23,0-175.08,156.54-179.2,233.78-179.2,76.21,0,137,4.12,174,12.36Z" transform="translate(-0.79 -0.12)"/><path class="cls-2" d="M2410.31,379.1a542.51,542.51,0,0,0-63.85-4.12,207.49,207.49,0,0,0-60.76,9.27v383.1H2091.06V269.93c52.52-37.07,140.05-58.7,215.23-58.7,48.41,0,73.12,2.06,130.79,14.42Z" transform="translate(-0.79 -0.12)"/></svg>