<?xml version="1.0" encoding="utf-8"?>
<!-- Generator: Adobe Illustrator 18.1.0, SVG Export Plug-In . SVG Version: 6.00 Build 0)  -->
<svg version="1.1" id="Layer_1" xmlns="http://www.w3.org/2000/svg" xmlns:xlink="http://www.w3.org/1999/xlink" x="0px" y="0px"
	 viewBox="0 0 92 44" enable-background="new 0 0 92 44" xml:space="preserve">
<g>
	<path fill="#276681" d="M2.4,19.5c26.3-7.9,58.5-3.6,64.8-2.5c0.4,2.7,0.6,5.1,0.8,7.1c-2.8-0.9-30.8-9-67.7-3.6L2.4,19.5L2.4,19.5
		z"/>
	<path fill="#276681" d="M15.7,13.1C38,6.8,56.5,7.1,65.5,7.6c0.4,1.9,0.7,3.8,1,5.5c-7.2-1.4-25-3.6-53.8,1.4L15.7,13.1L15.7,13.1z
		"/>
	<path fill="#276681" d="M29.4,6.5C40,3.2,54,0.9,63.7,0.3c0.3,1.3,0.7,2.5,1,3.8c-9.5-0.1-22,0.7-37.6,3.6L29.4,6.5L29.4,6.5z"/>
	<path fill-rule="evenodd" clip-rule="evenodd" fill="#696765" d="M23.1,41.1l0.5,2.4h3.9l-3-13.9h-4l-7.6,13.9h3.8l1.3-2.4H23.1
		L23.1,41.1z M22.5,38.3h-3l2.2-4.4h0L22.5,38.3L22.5,38.3z"/>
	<path fill="#696765" d="M39.6,29.6l-1.2,7.3c-0.3,1.8-0.7,3.8-3.1,3.8c-2.3,0-2.1-2-1.9-3.8l1.2-7.3h-3.6l-1.2,7.8
		c-0.3,1.8-0.5,3.6,0.7,4.9c1,1.1,2.7,1.6,4.4,1.6c1.6,0,3.5-0.4,4.9-1.6c1.6-1.3,2-3.1,2.2-4.9l1.2-7.8H39.6L39.6,29.6z"/>
	<path fill="#696765" d="M55.8,30.4c-1.1-0.7-2.8-1.1-4.2-1.1c-2.8,0-5.1,1.8-5.5,4.7c-0.4,2.7,1,3.3,3.1,3.9
		c0.7,0.2,2.1,0.6,1.9,1.6c-0.2,1-1.1,1.4-2,1.4c-1.2,0-2.2-0.6-3-1.4l-2,2.9c1.3,1,2.9,1.6,4.6,1.6c1.4,0,2.9-0.4,4.2-1.3
		c1.3-0.9,1.8-2.4,2-3.8c0.4-2.3-1-3.2-2.8-3.8l-0.9-0.3c-0.6-0.2-1.5-0.5-1.4-1.3c0.1-0.8,1.1-1.2,1.7-1.2c0.9,0,1.7,0.4,2.3,0.9
		L55.8,30.4L55.8,30.4z"/>
	<polygon fill="#696765" points="64.5,32.7 67.5,32.7 68,29.6 58.4,29.6 57.9,32.7 60.9,32.7 59.2,43.5 62.8,43.5 64.5,32.7 	"/>
	<path fill-rule="evenodd" clip-rule="evenodd" fill="#696765" d="M76,41.1l0.5,2.4h3.9l-3-13.9h-4l-7.6,13.9h3.8l1.3-2.4H76
		L76,41.1z M75.4,38.3h-3l2.2-4.4h0L75.4,38.3L75.4,38.3z"/>
	<polygon fill="#696765" points="88.6,29.6 85,29.6 82.7,43.5 90.7,43.5 91.2,40.4 86.9,40.4 88.6,29.6 	"/>
</g>
</svg>
