<?xml version="1.0" encoding="utf-8"?>
<!-- Generator: Adobe Illustrator 18.1.0, SVG Export Plug-In . SVG Version: 6.00 Build 0)  -->
<!DOCTYPE svg PUBLIC "-//W3C//DTD SVG 1.1//EN" "http://www.w3.org/Graphics/SVG/1.1/DTD/svg11.dtd">
<svg version="1.1" id="Layer_1" xmlns="http://www.w3.org/2000/svg" xmlns:xlink="http://www.w3.org/1999/xlink" x="0px" y="0px"
	 viewBox="0 0 762.9 214.1" enable-background="new 0 0 762.9 214.1" xml:space="preserve">
<g>
	<path fill="#FEFEFE" d="M119.7,0.1c1.9,2.2,2.9,3.4,3.9,4.6c21,24.1,22.8,53.4,4.8,79.9c-3.2,4.7-6.8,9.2-10.3,13.8
		c-5,6.8-9.9,13.7-11.8,22.1c-3.7,16.8,0.1,32.3,8.4,46.9c9.8,17.3,24,30.5,39,43.2c2.8,2.4,5.5,3.4,9.1,3.4
		c198-0.1,396-0.1,593.9,0.1c5.1,0,6.1-1.4,6.1-6.2c-0.2-66.9-0.2-133.9,0-200.8c0-5.4-1.1-7.1-6.8-7.1
		C546.5,0.2,336.9,0.1,127.3,0.1C125.1,0.1,123,0.1,119.7,0.1z"/>
	<path fill="#FEFEFE" d="M93.7,213.9c-9-11.4-16.1-22.2-21-34.4C59,144.9,61.9,113.4,89.4,86.2c5.5-5.4,10.8-11,15.7-16.9
		c12.8-15.4,14.8-32.7,6.1-48.2C107.4,14.3,102.4,8.5,97,3c-2-2.1-4.1-2.9-7-2.9c-28.3,0.1-56.6,0.1-84.8,0C1.3,0,0,0.7,0,4.9
		c0.2,68,0.1,136,0,204c0,4,1,5.1,5,5.1c23.1-0.2,46.2-0.1,69.3-0.1C80.3,213.9,86.3,213.9,93.7,213.9z"/>
	<path fill="#B61338" d="M119.7,0.1c3.4,0,5.5,0,7.6,0c209.6,0,419.2,0,628.8-0.1c5.8,0,6.8,1.6,6.8,7.1l0,200.8
		c0,4.8-1,6.2-6.1,6.2L162.9,214c-3.6,0-6.3-1-9.1-3.4c-15-12.6-29.2-25.9-39-43.2c-8.3-14.6-12.1-30.1-8.4-46.9
		c1.9-8.4,6.7-15.3,11.8-22.1c3.4-4.6,7-9,10.3-13.8c18-26.5,16.2-55.8-4.8-79.9C122.5,3.5,121.5,2.3,119.7,0.1z M608.9,144
		c-11.1,5.6-23.1,3.3-34.8,3.6c-3.5,0.1-4.9-2.6-4.9-5.9c-0.1-9.7,0-19.3-0.1-29c0-2.6,1-3.4,3.4-3.3c10.3,0.4,20.7-1,31,1.9
		c0-4.8,0-9.4,0-14.3c-10.3,3.5-20.8,1.5-31.1,2.1c-2.6,0.1-3.3-0.9-3.3-3.4c0.1-8.4,0.1-16.8,0-25.2c-0.1-2.9,1-3.7,3.8-3.5
		c11,0.7,22.5-2.7,32.7,5.9c0-5.5-0.1-9.8,0-14.1c0.1-2.6-0.8-3.2-3.4-3c-8.2,0.4-16.4,0.5-24.7,0.5c-10.8,0.1-21.7,0-33.6,0
		c4.8,6.3,4.1,12.9,4.2,19.2c0,18.3,0.2,36.5,0,54.8c-0.1,9.3,1.7,18.9-3.7,28c19.9,0,39.1,0,58.2,0c1.1,0,2.9,0.5,3.2-1.2
		C606.6,152.7,609.7,148.8,608.9,144l0.3,0.1L608.9,144z M353.5,158c14.3,0,27.7,0.5,41.1-0.1c13.6-0.7,26.4-4.5,37.7-12.5
		c26.3-18.5,27.2-58.8,1.7-76.8c-6.3-4.5-13.5-7.3-21-9.2c-19.5-4.9-39.3-2.5-59.8-3.2c4.1,7,4,14,3.9,20.9c0,20.8,0,41.5,0,62.3
		C357.2,145.7,357.2,151.9,353.5,158z M236.1,158.1c-2.9-13.3-1.6-26.4-1.8-39.5c0-1.8-1.5-4.7,1.4-5.5c2.6-0.7,4.8,1.1,6.3,3.3
		c0.7,1,1.4,2.1,2.2,3.1c9.3,12.9,17.4,26.8,30.7,36.3c1.4,1,2.6,2.5,4.6,2.5c7.1,0,14.1,0,21.2,0c-14.6-12.4-24.5-27.8-34.5-43.2
		c-2.7-4.2-3.5-6.1,2.2-8.4c11.4-4.6,17-13.6,16.4-23.9c-0.7-12-6.8-19.7-19.5-23.3c-18.1-5.2-36.7-2.5-56.2-3.2
		c4.1,5,4.1,9.8,4.1,14.6c0,21.1,0,42.2,0,63.4c0,8,0.5,16.1-3.6,23.9C218.5,158.1,227,158.1,236.1,158.1z M645.5,158.1
		c10.2,0,19.5,0,29.6,0c-5-6.5-4.3-13.5-4.3-20.5c0-7.1,0.3-14.3,0-21.4c-0.2-4.5,1-8.3,3.4-12c10.2-15.8,18.7-32.8,31.7-47.8
		c-5.6,0-10.2,0.2-14.8-0.1c-2.8-0.1-3.9,0.7-4.7,3.6c-4,13.7-11.8,25.3-20.1,37.6c-7-13.3-16.4-24.3-21-38
		c-0.6-1.7-0.8-3.3-3.3-3.2c-8.5,0.2-17,0.1-26.5,0.1c9.5,11.4,15.2,24.3,23.4,35.4c9.1,12.3,12.7,25.4,11.2,40.4
		C649.1,140.7,651.1,149.7,645.5,158.1z M467.7,56.6c3.5,6.7,3.5,13.3,3.6,20c0.1,11.3,0.5,22.5,0.2,33.8
		c-0.3,15.9,1.9,32.1-3.5,47.9c19.4,0,38.7,0,58,0c1.3,0,2.6,0.1,3-1.5c1.2-4.3,3.3-8.5,3.6-13.4c-9.9,3.9-19.9,4.4-30,4.2
		c-8.6-0.1-10.4-2-10.4-10.4c0-17,0-34,0-50.9c0-10-0.6-20,3.9-29.7C486.5,56.6,477.4,56.6,467.7,56.6z M306.2,56.4
		c3.3,5.4,3.7,10.8,3.8,16.1c0.2,22,0.3,44,0.3,66c0,6.6-0.2,13.2-4,19.5c9.7,0,18.7,0,27.9,0c-5.5-16.7-2.9-33.8-2.9-50.6
		c0-17-2.6-34.2,3-51C325.1,56.4,316.1,56.4,306.2,56.4z"/>
	<path fill="#014270" d="M93.7,213.9C86.3,213.9,5,214,5,214c-4,0-5-1.1-5-5.1c0.1-68,0-204,0-204C0,0.7,1.3,0,5.2,0.1L90,0
		c2.9,0,5,0.9,7,3c5.4,5.5,10.4,11.3,14.2,18.1c8.7,15.6,6.7,32.8-6.1,48.2c-4.9,5.9-10.2,11.5-15.7,16.9
		c-27.5,27.2-30.4,58.8-16.7,93.3C77.5,191.7,84.7,202.6,93.7,213.9z"/>
	<path fill="#FEFEFE" d="M608.9,144l0.3,0.1C609.2,144.1,608.9,143.9,608.9,144C608.8,143.9,608.9,144,608.9,144z"/>
	<path fill="#B61338" d="M378.3,105.2c0-11.8,0.1-23.6-0.1-35.4c-0.1-3.3,0.9-4.5,4.2-4.2c4.1,0.4,8.3,0.1,12.3,0.7
		c17.8,2.8,28.6,13.2,32.4,31c6.1,28.6-12.5,51.9-41.1,51.5c-5.8-0.1-7.7-1.8-7.8-7.7C378.2,129.1,378.3,117.1,378.3,105.2z"/>
	<path fill="#B61338" d="M234.1,85.2c0-5.5,0.2-11.1-0.1-16.6c-0.2-3.5,1.1-4.3,4.3-3.8c3.5,0.5,7.1,1,10.4,2.3
		c8.2,3.1,12.6,9.1,12.8,17.3c0.2,8.3-4.1,15.1-12,18.5c-1,0.4-2,0.8-3,1.1c-11.8,3.4-12.5,2.9-12.4-9.1
		C234.1,91.6,234.1,88.4,234.1,85.2z"/>
</g>
</svg>
