<?xml version="1.0" encoding="utf-8"?>
<!-- Generator: Adobe Illustrator 21.1.0, SVG Export Plug-In . SVG Version: 6.00 Build 0)  -->
<svg version="1.1" id="Layer_1" xmlns="http://www.w3.org/2000/svg" xmlns:xlink="http://www.w3.org/1999/xlink" x="0px" y="0px"
	 viewBox="0 0 146.3 55.1" style="enable-background:new 0 0 146.3 55.1;" xml:space="preserve">
<style type="text/css">
	.st0{fill:#58595B;}
	.st1{fill:#95BCB9;}
</style>
<g id="Layer_1_1_">
</g>
<g id="Layer_2">
	<g>
		<path class="st0" d="M28.9,33.9l-8,19.8h-2.1l-3.6-10L15,42.9l-0.3,0.8l-3.6,10H9L1.1,33.9h3.2l5.4,13.5l0.2,0.8l0.2-0.8L14,36.8
			h1.7l3.9,10.6l0.2,0.8l0.2-0.8l5.4-13.5C25.4,33.9,28.9,33.9,28.9,33.9z"/>
		<path class="st0" d="M45.8,50.7v3H32V33.9h13.6v2.9H35.1v5.1h8.3v2.9h-8.3v5.9C35.1,50.7,45.8,50.7,45.8,50.7z"/>
		<path class="st0" d="M58.1,33.9c3.4,0,5.8,2.1,5.8,5c0,2-1.4,3.6-2.9,4c2,0.3,4.1,2.3,4.1,4.9c0,3.4-2.3,5.9-6.7,5.9h-8.1V33.9
			H58.1z M57.5,41.8c1.9,0,3.3-1.1,3.3-2.7s-1.3-2.7-3.3-2.7h-4.1v5.3L57.5,41.8L57.5,41.8z M58.1,51c2.1,0,3.7-1.3,3.7-3.3
			s-1.7-3.3-3.8-3.3h-4.6V51H58.1z"/>
		<path class="st0" d="M79.8,39.6c-0.5-2.2-2.3-3.4-4.4-3.4c-2.2,0-3.8,1-3.8,2.7c0,1.8,2.4,2.4,5,3.2c2.8,0.9,6.4,2,6.4,6
			c0,3.4-3,5.9-7.4,5.9c-4.2,0-7-2.4-7.8-5.9l3.1-0.8c0.3,2.1,2.1,3.9,4.9,3.9c2.4,0,4-1.3,4-2.9c0-2.3-3.2-3.1-6-4
			c-2.3-0.8-5.4-1.9-5.4-5.3c0-3.1,3-5.5,7.1-5.5c3.6,0,6.5,2.2,7.3,5.3L79.8,39.6z"/>
		<path class="st0" d="M101.5,33.9v2.9h-6.4v16.9H92V36.8h-6.4v-2.9H101.5z"/>
		<path class="st0" d="M118.7,50.7v3h-13.8V33.9h13.6v2.9h-10.5v5.1h8.3v2.9h-8.3v5.9C107.9,50.7,118.7,50.7,118.7,50.7z"/>
		<path class="st0" d="M134.2,53.7l-4.4-7.1c-0.2,0-0.4,0-0.5,0h-3.3v7.1H123V33.9h6.5c4.7,0,7.6,2.5,7.6,6.4c0,2.8-1.4,4.8-4,5.8
			l4.8,7.7L134.2,53.7L134.2,53.7z M129.7,43.6c2.7,0,4-1.5,4-3.4c0-2-1.4-3.4-4-3.4H126v6.8C126,43.6,129.7,43.6,129.7,43.6z"/>
	</g>
	<g>
		<path class="st0" d="M17.2,9.1V12h-6.4v16.8H7.7V12H1.3V9.1H17.2z"/>
		<path class="st0" d="M34.8,25.9v2.9H21.1V9.1h13.6V12H24.2v5.1h8.3V20h-8.3v5.9H34.8z"/>
		<path class="st0" d="M57.9,9.1v19.8h-3.1V15.5l0.1-0.8l-0.4,0.8L49.2,24h-1.3l-5.3-8.5l-0.4-0.8l0.1,0.8v13.4h-3.1V9.1h2.9
			l6.2,9.9l0.3,0.6l0.3-0.6l6.2-9.9H57.9z"/>
		<path class="st0" d="M69.1,9.1c4.7,0,7.5,2.4,7.5,6.5s-2.8,6.5-7.5,6.5h-3.4v6.8h-3.1V9.1H69.1z M69,19.1c2.8,0,4.3-1.3,4.3-3.5
			c0-2.3-1.6-3.5-4.3-3.5h-3.4v7.1L69,19.1L69,19.1z"/>
		<path class="st0" d="M93.6,25.9v2.9H80.2V9.1h3.1v16.8C83.4,25.9,93.6,25.9,93.6,25.9z"/>
		<path class="st0" d="M110.9,25.9v2.9H97.1V9.1h13.6V12h-10.5v5.1h8.3V20h-8.3v5.9H110.9z"/>
	</g>
	<g>
		<path class="st1" d="M121,27.7c-1.8-0.7-3.2-1.8-4.3-3.3s-1.6-3.3-1.6-5.5c0-1.8,0.5-3.4,1.6-4.8c1.1-1.3,2.6-2.2,4.5-2.5v-0.1
			c-1.6-1.2-2.3-2.6-2.3-4.3c0-1.6,0.6-2.9,1.8-3.9s2.8-1.5,4.9-1.5c1.5,0,2.7,0.3,3.7,1s1.5,1.6,1.5,2.9c0,0.8-0.2,1.5-0.7,2
			c-0.5,0.6-1.1,0.9-1.8,0.9c-0.5,0-0.9-0.1-1.2-0.4c-0.3-0.2-0.5-0.5-0.5-0.6c0,0,0.1-0.1,0.3-0.3c0.2-0.2,0.4-0.4,0.6-0.7
			c0.2-0.3,0.3-0.6,0.3-1c0-0.7-0.3-1.3-0.8-1.7s-1.1-0.6-1.9-0.6c-1.2,0-2.1,0.4-2.8,1.1s-1,1.6-1,2.7c0,1.8,0.8,3.1,2.3,3.9h1.2
			c0.4,0,0.7,0,0.8,0.1s0.2,0.3,0.2,0.8c0,0.2-0.1,0.5-0.2,0.6c-0.1,0.2-0.3,0.3-0.5,0.3h-1.3c-1.6,0.1-2.8,0.8-3.6,1.9
			s-1.2,2.4-1.2,3.8c0,1.6,0.4,3,1.1,4.1c0.7,1.2,1.8,2.1,3.1,2.7c1.3,0.6,2.8,1,4.5,1c1.8,0,3.5-0.4,5-1.1c1.5-0.8,2.7-1.8,3.6-3.1
			c0.9-1.3,1.3-2.8,1.3-4.5c0-1.4-0.4-2.7-1.2-3.7c-0.8-1.1-1.9-1.6-3.3-1.6c-0.7,0-1.4,0.2-2.1,0.6c-0.7,0.4-1,1-1,1.7
			c0,0.4,0.1,0.7,0.3,1s0.5,0.5,0.9,0.5c0.6,0.1,1.2,0,1.6-0.4c0.4-0.3,0.6-0.5,0.7-0.5c0.1,0,0.3,0.2,0.5,0.5s0.3,0.7,0.3,1.1
			c0,0.7-0.3,1.3-0.8,1.7s-1.1,0.6-1.9,0.6c-0.9,0-1.7-0.4-2.3-1.1c-0.6-0.8-0.9-1.7-0.9-2.9c0-1.8,0.5-3.1,1.4-4.1
			c0.9-0.9,2-1.6,3.3-1.9c1.3-0.3,2.9-0.6,5-0.9c1.8-0.2,3.1-0.4,4-0.7c0.5-0.2,1-0.5,1.4-0.8c0.4-0.4,0.5-0.8,0.5-1.2
			c0-0.7-0.5-1.2-1.4-1.3c-0.6-0.1-1.2,0-1.6,0.4c-0.4,0.3-0.6,0.5-0.7,0.5c-0.1,0-0.3-0.2-0.5-0.6s-0.3-0.8-0.2-1.3
			c0.1-0.7,0.4-1.2,0.9-1.6c0.5-0.3,1.1-0.5,1.7-0.5c0.5,0,1,0.1,1.4,0.3c0.6,0.3,1,0.7,1.3,1.3s0.4,1.2,0.4,2
			c0,1.3-0.4,2.5-1.3,3.5c-0.9,1-2,1.8-3.4,2.3s-3,0.8-4.7,0.8c2.1,1.8,3.2,3.9,3.2,6.3c0,2.3-0.5,4.3-1.6,6s-2.6,3-4.5,3.9
			s-4,1.4-6.4,1.4C124.6,28.8,122.7,28.4,121,27.7z"/>
	</g>
</g>
</svg>
