<svg id="Layer_1" xmlns="http://www.w3.org/2000/svg" viewBox="0 0 847.5 288.5"><style>.st0{fill:#069}</style><path class="st0" d="M720.9 114.3h-1.7c-1.2-4.7-2.1-5.3-8.1-5.3h-14.3v19.8c0 2.7 1 3.8 4.2 3.8h10.1c8.5 0 10.6-.4 14-7.6h1.7l-2.6 10.3h-45v-1.6c4.5 0 6.6-1.4 6.6-8.7V90.4c0-6.9-1.6-8.8-6.6-8.8V80h45v9.3h-1.1c-1.3-6.1-3.3-6.6-9.7-6.6h-16.7V105H713c3.9 0 5.5-.7 6.3-5.4h1.7v14.7zM753.7 125c0 6.8 1.8 8.8 6.6 8.8v1.6h-24v-1.6c4.4 0 6.6-1.4 6.6-8.8V90.2c0-7.3-1.9-8.6-6.6-8.6V80h26.9c13 0 20.2 5.9 20.2 14.5s-4.4 11.2-12.9 13.6c10.8 6.7 14.5 25 24.1 25.6v1.6h-12.8C771 122.7 767 110 758.3 110h-4.6v15zm0-17.5h7.1c9.8 0 13.6-6.4 13.6-12.8 0-7.4-5.8-12.6-14.7-12.6h-6.1v25.4zM397 102.8c4.5 0 3.5-.1 6-.1 10-.1 17.3-7.2 17.3-16.7s-5-17.3-18.2-17.3h-9v53.6c0 8.6 2.1 11 8.2 11v2.1h-30v-2.1c5.1 0 8.2-1.6 8.2-10.8V79.1c0-8.5-2.1-11-8.2-11V66h30.4c20 0 29.8 5.4 30 19.7.2 11.5-11.1 20.1-27.6 20.1H397v-3zM462.3 112.9l-20.6.1-4.4 11.1c-1.9 5.4-2.9 9.6 3.1 9.7v1.6h-16.6v-1.6c5-.5 6.3-2.2 9-8.8l17.3-45h10.2l17.9 47.2c1.7 5.1 3.1 6.7 8.3 6.7v1.6H463v-1.6c3.9 0 5.9-1.6 4.5-5.4l-5.2-15.6zm-10.4-26.4h-.2l-8.6 23 17.9-.1-9.1-22.9zM602.5 79.9v10.7h-1.1c-1.1-4.6-3-7.9-12.2-7.9h-8.8v42.6c0 6.7 1.3 8.5 6.3 8.5v1.6H563v-1.6c4.1 0 6.6-1.2 6.6-8.8V82.6h-8.4c-7.8 0-11.3 2.1-11.8 7.9h-1.7V79.8h54.8zM509.7 124.9c0 6.8 1.8 8.8 6.6 8.8v1.6h-24v-1.6c4.4 0 6.6-1.4 6.6-8.8V90.2c0-7.3-1.9-8.6-6.6-8.6V80h26.9c13 0 20.2 5.9 20.2 14.5s-4.4 11.2-12.9 13.6c10.8 6.7 14.5 25 24 25.6v1.6h-12.8C527 122.8 523.1 110 514.4 110h-4.7v14.9zm0-17.5h7.1c9.8 0 13.6-6.4 13.6-12.8 0-7.4-5.8-12.6-14.7-12.6h-6.1v25.4zM836.3 92.1h-1.7c-.9-8.2-9.3-11.4-15.2-11.4-6.1 0-10.4 4.3-10.4 9.5 0 10.3 19.6 10.7 27.9 18.7 4 3.9 5 7.9 5 11.5-.1 10.7-12.2 16.3-21.3 16.3-6.2 0-13.6-2.9-15.6-2.9-1 0-1.7.7-2.2 2.1h-1.7v-15h1.7c.1 10.3 11.2 13.6 16.3 13.6 7 0 12.6-4.8 12.7-10.8.1-11.2-19-12.5-25.4-18.7-3.5-3.4-5-7.3-5-11.6 0-8.5 8.7-14.9 18.1-14.9 6.2 0 11.4 2.1 13.6 2.1.9 0 1.1-.2 1.5-1.5h1.6v13zM607.7 79.9v1.6c6.9.6 8.6 4.1 8.6 10.3v32.4c0 8-2.3 9.5-7.2 9.5v1.6h18.7v-1.6c-5.3 0-7.6-2-7.6-7.6V87.2h.2l40.8 48.2h3V90.3c0-6.5 1.8-8.7 7.5-8.7V80H653v1.6c5.1 0 7.1 1.8 7.1 9.1v31.1L625.5 80h-17.8zM250.5 134.8h-45.1v-1.6c4.6 0 6.6-2.4 6.6-9.3V89c0-6.4-1.9-8-6.6-8v-1.6h23.8V81c-4.9 0-6.5 2.8-6.5 8.7v35.9c0 4.3 1.7 5.3 6.6 5.3h11.5c7 0 8.9-1.4 11.4-9.4h1.7l-3.4 13.3zM14.2 78.5c0-8.9-2.3-11-8.2-11v-2.1h30v2.1c-5.7 0-8.1 2.4-8.1 11v20.9l22.3-22.2c2.4-2.3 3.8-3.9 3.8-5.8 0-2.2-1.3-3.3-4.5-3.9v-2.1h27.3v2.1h-3.5c-5 0-8.5 2.9-13.4 7.6L38.6 96.4l28.6 29c6.2 6 7.9 6.9 13.6 7.3v2.1H61.7l-33.8-34v20.9c0 9.1 2.5 11 8.1 11v2.1H6v-2.1c5.6 0 8.2-1.8 8.2-11V78.5zM131.9 113.8h-1.7c-1.2-4.7-2.1-5.3-8.1-5.3h-14.4V127c0 2.7 1 3.8 4.2 3.8H122c8.5 0 10.6-.4 14-7.6h1.7l-2.6 11.6h-45v-1.6c4.5 0 6.6-1.4 6.6-8.7V89.8c0-6.9-1.6-8.8-6.6-8.8v-1.6h45v9.3H134c-1.3-6.1-3.3-6.6-9.7-6.6h-16.7v21.8h16.2c3.9 0 5.5-.7 6.3-5.4h1.7v15.3zM195.7 134.8h-45.1v-1.6c4.7 0 6.6-2.4 6.6-9.3V89c0-6.4-1.9-8-6.6-8v-1.6h23.8V81c-4.9 0-6.5 2.8-6.5 8.7v35.9c0 4.3 1.7 5.3 6.6 5.3H186c7 0 8.9-1.4 11.4-9.4h1.7l-3.4 13.3zM286 124.3c0 6.7 1.4 8.8 6.4 8.8v1.6H268v-1.6c4.4 0 7.1-.9 7.1-8.8v-15l-12.3-20.8c-4-6.1-5.8-7.3-10.3-7.5v-1.6h25.8V81c-6.4 0-7.1 2.1-4.7 5.5L284 105l8.9-15.6c2.8-4.4 3-8.4-1.8-8.4v-1.6h17.1V81c-4.4.3-6 1.5-9.2 6.3l-13 22v15zM336.5 104.7V79.1h4.6v25.5h25.5v4.6h-25.5v25.5h-4.6v-25.5H311v-4.6h25.5z"/><g><path class="st0" d="M137.7 181.6v1.2c-1.8 0-3.2.4-4 1.3-.8.8-1.2 2.3-1.2 4.4v11.2c-1 .3-2.8.5-5.5.7-2.7.2-4.7.3-6.2.3-7.7 0-13.7-1.9-18-5.7-4.3-3.8-6.4-8.8-6.4-15 0-4.3.9-8.2 2.8-11.7s4.5-6.2 7.9-8.3c3.4-2 6.9-3.1 10.7-3.1 2.3 0 4.7.4 7.4 1.2 1.7.5 3 .7 3.9.7 1.2 0 2-.5 2.3-1.4h1.3v12.3h-1.2c-.5-3.4-2-6.1-4.6-8.2-2.6-2-5.7-3.1-9.2-3.1-4.4 0-8 1.8-10.8 5.3s-4.2 8.1-4.2 13.6c0 6.1 1.6 11.2 4.9 15.2 3.3 4 7.3 6 12.3 6 4.7 0 7-1.5 7-4.4v-4.5c0-2.6-.3-4.4-1-5.4s-1.9-1.5-3.6-1.5h-1.6v-1.2h17zM152.6 186.2h-2.4v8c0 1.7.2 2.9.7 3.6.5.7 1.4 1 2.6 1v.8H143v-.8c1.3 0 2.2-.3 2.6-1 .5-.7.7-1.9.7-3.6v-18.3c0-1.7-.2-2.9-.7-3.6-.4-.7-1.3-1-2.6-1v-.8h12c2.9 0 5.3.7 7.1 2.2 1.8 1.4 2.6 3.3 2.6 5.5 0 3.6-2 6-6 7.2.9.6 1.7 1.3 2.6 2.3.8 1 1.9 2.6 3.3 4.9 1.5 2.5 2.7 4.2 3.6 5 .9.8 1.8 1.2 2.7 1.3v.8h-6c-1.2-1.5-2.7-3.6-4.4-6.5-1.9-3-3.3-4.9-4.4-5.8-1.1-.8-2.2-1.2-3.5-1.2zm.7-14.6h-3.1v13.3h3.6c2.1 0 3.8-.6 5-1.8 1.2-1.2 1.8-2.9 1.8-4.9 0-2-.7-3.6-2-4.8-1.3-1.2-3.1-1.8-5.3-1.8zM173.6 184.9c0-4.3 1.5-7.9 4.5-10.8 3-2.9 6.7-4.3 11.2-4.3 4.3 0 8 1.5 11 4.4 3 2.9 4.5 6.5 4.5 10.8 0 4.3-1.5 8-4.5 11s-6.7 4.5-11.1 4.5c-4.3 0-8-1.5-11-4.5-3.1-3.1-4.6-6.7-4.6-11.1zm4.4.1c0 4.3 1 7.7 3 10.3 2 2.6 4.7 3.9 8 3.9s6-1.3 8.1-4c2.1-2.7 3.1-6 3.1-10 0-4.3-1-7.8-3-10.4-2-2.6-4.6-3.9-7.9-3.9-3.4 0-6.1 1.3-8.2 3.9-2 2.5-3.1 5.9-3.1 10.2zM233.5 193.5V176c0-1.7-.2-2.9-.7-3.6-.5-.7-1.3-1-2.4-1.1v-.8h10.3v.8c-1.2 0-2.1.3-2.6 1s-.7 1.9-.7 3.6v18.2c0 1.7.2 2.9.7 3.6.5.7 1.3 1 2.6 1v.8h-7.2v-4.1c-2.7 3.2-6 4.8-9.7 4.8-3.1 0-5.5-.9-7.3-2.8-1.8-1.8-2.6-4.3-2.6-7.3V176c0-1.7-.2-2.9-.7-3.6-.5-.7-1.3-1-2.6-1v-.8h10.5v.8c-1.3 0-2.2.3-2.7 1s-.7 1.9-.7 3.6v14.8c0 2.4.7 4.3 2 5.6 1.3 1.4 3.1 2.1 5.5 2.1 3.4-.1 6.2-1.7 8.3-5zM245.6 170.5h10.6c3.5 0 6.2.8 8.3 2.3 2 1.5 3 3.5 3 6 0 2.4-.9 4.3-2.7 5.6-1.8 1.3-4.3 2-7.6 2-1.3 0-2.8-.1-4.5-.3v8.2c0 1.8.2 3 .7 3.6.5.7 1.3 1 2.6 1v.8h-10.5v-.8c1.3 0 2.1-.3 2.6-1s.7-1.9.7-3.5V176c0-1.7-.2-3-.7-3.6-.5-.7-1.3-1-2.6-1v-.9zm10.8 1.1h-3.6v13.1c1 .3 2.2.5 3.6.5 2.2 0 3.9-.6 5.2-1.7 1.3-1.1 1.9-2.7 1.9-4.6 0-2.1-.6-3.8-1.9-5.2-1.3-1.4-3-2.1-5.2-2.1zM323.5 191.8v-12.1h-22.7v12.1c0 2.5.3 4.2 1 5.2s2 1.5 3.8 1.5v1.2h-15.1v-1.2c1.8 0 3.1-.5 3.7-1.5.7-1 1-2.7 1-5.1v-26c0-2.6-.3-4.3-1-5.2-.7-.9-1.9-1.4-3.7-1.4V158h15.1v1.2c-1.8 0-3.1.5-3.8 1.5-.7 1-1 2.7-1 5.1v11.9h22.7v-11.9c0-2.6-.3-4.3-1-5.2-.7-.9-1.9-1.4-3.7-1.4V158h14.9v1.2c-1.8 0-3 .5-3.7 1.5-.7 1-1 2.7-1 5.2v26c0 2.5.3 4.2 1 5.2s1.9 1.4 3.7 1.4v1.2h-14.9v-1.2c1.8 0 3.1-.5 3.7-1.4.7-1.1 1-2.8 1-5.3zM340.9 184.9c0-4.3 1.5-7.9 4.5-10.8 3-2.9 6.7-4.3 11.2-4.3 4.3 0 8 1.5 11 4.4 3 2.9 4.5 6.5 4.5 10.8 0 4.3-1.5 8-4.5 11s-6.7 4.5-11.1 4.5c-4.3 0-8-1.5-11-4.5-3.1-3.1-4.6-6.7-4.6-11.1zm4.5.1c0 4.3 1 7.7 3 10.3 2 2.6 4.7 3.9 8 3.9s6-1.3 8.1-4c2.1-2.7 3.1-6 3.1-10 0-4.3-1-7.8-3-10.4-2-2.6-4.6-3.9-7.9-3.9-3.4 0-6.1 1.3-8.2 3.9-2.1 2.5-3.1 5.9-3.1 10.2zM400.3 193.3h.8l-1.8 6.4h-21.1v-.8c1.2 0 2-.4 2.5-1.1.5-.7.8-2 .8-3.8v-18.4c0-1.6-.2-2.7-.7-3.3-.5-.6-1.3-.9-2.6-.9v-.8h10.4v.8c-1.2 0-2 .4-2.5 1.1-.5.7-.8 1.9-.8 3.5v19.5c0 1.1.2 1.8.7 2.2.5.4 1.3.6 2.6.6h5.8c1.8 0 3-.3 3.8-.9.8-.7 1.5-2.1 2.1-4.1zM404.1 199.7v-.8c1.2 0 2.1-.3 2.6-1s.7-1.9.7-3.6V176c0-1.7-.2-3-.7-3.6-.5-.7-1.3-1-2.6-1v-.8h13.5c5 0 9 1.4 12 4.3s4.5 6.4 4.5 10.8c0 4.3-1.4 7.7-4.2 10.3-2.8 2.6-6.8 3.8-11.8 3.8h-14zm12.7-28.1h-5.5v21.5c0 2.1.2 3.5.7 4.3.5.8 1.5 1.1 3 1.1h3c3.6 0 6.4-1.2 8.5-3.5 2.1-2.3 3.1-5.5 3.1-9.5 0-4.2-1.1-7.6-3.4-10.2-2.3-2.4-5.4-3.7-9.4-3.7zM449.3 170.5v.8c-1.2 0-2.1.3-2.6 1s-.7 1.9-.7 3.6v18.2c0 1.7.2 2.9.7 3.6.5.7 1.3 1 2.6 1v.8h-10.5v-.8c1.3 0 2.1-.3 2.6-1s.7-1.9.7-3.6V176c0-1.8-.2-3-.7-3.7-.5-.7-1.3-1-2.6-1v-.8h10.5zM474.9 171.3v-.8h8.8v.8c-1.4 0-2.4.3-2.9 1s-.8 1.9-.8 3.6v23.7h-.9l-20.7-25.4v20.5c0 1.4.3 2.5.9 3.1.6.6 1.6.9 2.9.9v.8h-8.8v-.8c1.4 0 2.4-.4 2.9-1.1s.7-2 .7-3.9v-17.1c0-1.8-.3-3.2-1-4-.7-.8-1.8-1.3-3.3-1.4v-.8h7.5l18.3 22.7V176c0-1.8-.3-3-.8-3.7-.5-.6-1.4-1-2.8-1zM518.6 187v.8c-1.3 0-2.2.3-2.8.9-.6.6-.8 1.6-.8 3.1v7.8c-.7.2-2 .3-3.8.5-1.9.1-3.3.2-4.3.2-5.4 0-9.6-1.3-12.6-4s-4.5-6.1-4.5-10.5c0-3 .7-5.8 2-8.2 1.3-2.4 3.2-4.4 5.5-5.8 2.4-1.4 4.9-2.1 7.5-2.1 1.6 0 3.3.3 5.2.8 1.2.3 2.1.5 2.7.5.8 0 1.4-.3 1.6-1h.9v8.6h-.8c-.3-2.4-1.4-4.3-3.2-5.7-1.8-1.4-4-2.2-6.4-2.2-3.1 0-5.6 1.2-7.6 3.7s-3 5.6-3 9.5c0 4.3 1.1 7.8 3.4 10.6s5.1 4.2 8.6 4.2c3.3 0 4.9-1 4.9-3.1v-3.2c0-1.8-.2-3-.7-3.8-.5-.7-1.3-1.1-2.5-1.1h-1.1v-.5h11.8zM538.4 170.1h.8v6.8h-.8c-.2-1.9-.9-3.4-2.1-4.4-1.2-1.1-2.6-1.6-4.4-1.6-1.6 0-2.8.4-3.8 1.2-1 .8-1.4 1.9-1.4 3.2 0 1.2.4 2.3 1.2 3.4.8 1 2.5 2.3 5.2 3.9 3.1 1.8 5.2 3.4 6.2 4.8 1.1 1.4 1.6 2.9 1.6 4.7 0 2.3-.8 4.2-2.4 5.9-1.6 1.6-3.6 2.4-5.9 2.4-1.3 0-3-.4-5.1-1.1-.8-.3-1.4-.4-1.6-.4-.5 0-.9.4-1.1 1.1h-.8v-7.9h.8c0 2.2.7 3.9 2.1 5.2 1.4 1.3 3 2 4.9 2 1.8 0 3.2-.5 4.3-1.4 1.1-.9 1.6-2.2 1.6-3.8 0-1.2-.4-2.3-1.3-3.4s-2.7-2.5-5.5-4.2c-2.3-1.4-3.8-2.5-4.6-3.3-.8-.8-1.3-1.7-1.7-2.7-.4-1-.5-2-.5-3.2 0-2.2.7-4.1 2.2-5.4 1.5-1.4 3.4-2.1 5.7-2.1 1.3 0 2.7.3 4.2.8.7.2 1.2.3 1.5.3.2 0 .4 0 .5-.1 0-.2.1-.4.2-.7zM595.8 190.6h1.2l-2.6 9.1h-30.2v-1.2c1.7 0 2.9-.5 3.6-1.6.7-1.1 1.1-2.9 1.1-5.4v-26.2c0-2.3-.3-3.8-1-4.7-.7-.9-1.9-1.3-3.7-1.3V158h14.9v1.2c-1.7 0-2.8.5-3.6 1.5-.7 1-1.1 2.7-1.1 5v27.8c0 1.5.3 2.6 1 3.2.7.6 1.9.9 3.8.9h8.3c2.6 0 4.4-.4 5.4-1.3 1.1-.9 2-2.8 2.9-5.7zM610.9 170.5v.8c-1.2 0-2.1.3-2.6 1s-.7 1.9-.7 3.6v18.2c0 1.7.2 2.9.7 3.6.5.7 1.3 1 2.6 1v.8h-10.5v-.8c1.3 0 2.1-.3 2.6-1s.7-1.9.7-3.6V176c0-1.8-.2-3-.7-3.7-.5-.7-1.3-1-2.6-1v-.8h10.5zM642.4 170.5h6.9v.8c-2.2 0-3.3 1.3-3.3 3.9v.7l1.5 18c.2 1.9.5 3.2 1 3.8.5.6 1.4 1 2.6 1.1v.8h-10.5v-.8c1.1-.2 1.9-.5 2.4-1.1.5-.5.7-1.4.7-2.5v-.8l-1.6-18.9-10 24.1h-.8l-9.9-24-1.6 17.9v.8c0 2.5 1.3 4 3.8 4.5v.8h-9.1v-.8c1.2-.2 2.1-.6 2.6-1.3.5-.7.9-2 1.1-4.1l1.8-20.1c-1-1.1-2.3-1.8-3.8-2v-.8h7.4l9.3 22.9 9.5-22.9zM665.4 170.5v.8c-1.2 0-2.1.3-2.6 1s-.7 1.9-.7 3.6v18.2c0 1.7.2 2.9.7 3.6.5.7 1.3 1 2.6 1v.8h-10.5v-.8c1.3 0 2.1-.3 2.6-1s.7-1.9.7-3.6V176c0-1.8-.2-3-.7-3.7-.5-.7-1.3-1-2.6-1v-.8h10.5zM688.4 171.9H684v22.4c0 1.8.2 2.9.6 3.6.4.6 1.3.9 2.5.9v.8h-10.3v-.8c1.3 0 2.2-.4 2.6-1.1.5-.7.7-1.9.7-3.6v-22.3h-4.2c-2 0-3.5.3-4.4 1-.9.6-1.4 1.7-1.6 3.2h-.9v-6.7h.8c.8.7 2.2 1.1 4.4 1.1h15.3c2.2 0 3.7-.4 4.6-1.1h.9v6.7h-.6c-.4-1.6-1-2.7-2-3.3-.8-.5-2.2-.8-4-.8zM717.7 181.5h.8v7.1h-.8c-.3-1.2-.7-2-1.1-2.3-.4-.3-1.4-.5-2.9-.5h-7.2v10.4c0 .7.2 1.2.5 1.5.3.3.9.4 1.7.4h5.1c1.8 0 3.1-.1 3.8-.3.7-.2 1.3-.6 1.8-1.1.5-.5 1-1.4 1.5-2.6h.8l-1.3 5.4h-21v-.8c1.3 0 2.2-.3 2.6-1 .4-.7.7-1.9.7-3.6V176c0-1.8-.2-3-.7-3.7-.5-.7-1.3-1-2.6-1v-.8h21v4.9h-.5c-.3-1.4-.7-2.3-1.3-2.8-.6-.5-1.8-.7-3.6-.7h-8.4v12.5h8.2c1.1 0 1.9-.2 2.3-.6.1-.4.4-1.2.6-2.3zM726 199.7v-.8c1.2 0 2.1-.3 2.6-1s.7-1.9.7-3.6V176c0-1.7-.2-3-.7-3.6-.5-.7-1.3-1-2.6-1v-.8h13.5c5 0 9 1.4 12 4.3 3 2.8 4.5 6.4 4.5 10.8 0 4.3-1.4 7.7-4.2 10.3-2.8 2.6-6.8 3.8-11.8 3.8h-14zm12.7-28.1h-5.5v21.5c0 2.1.2 3.5.7 4.3.5.8 1.5 1.1 3 1.1h3c3.6 0 6.4-1.2 8.5-3.5 2.1-2.3 3.1-5.5 3.1-9.5 0-4.2-1.1-7.6-3.4-10.2-2.3-2.4-5.4-3.7-9.4-3.7z"/></g></svg>