<?xml version="1.0" encoding="utf-8"?>
<!-- Generator: Adobe Illustrator 16.0.0, SVG Export Plug-In . SVG Version: 6.00 Build 0)  -->
<!DOCTYPE svg PUBLIC "-//W3C//DTD SVG 1.1//EN" "http://www.w3.org/Graphics/SVG/1.1/DTD/svg11.dtd">
<svg version="1.1" id="Ebene_1" xmlns="http://www.w3.org/2000/svg" xmlns:xlink="http://www.w3.org/1999/xlink" x="0px" y="0px"
	 width="165px" height="30px" viewBox="0 0 165 30" enable-background="new 0 0 165 30" xml:space="preserve">
<g id="wOQ4Ey_1_">
	<g>
		<g>
			<path fill="#405273" d="M141.883,27.98c-0.061,0.092-0.152,0.06-0.23,0.06c-0.934,0-1.865,0-2.814,0c-4.621,0-9.256,0-13.877,0
				c-0.244,0-0.244,0-0.244-0.243c0-8.491,0-16.982,0-25.474c0-0.275,0.016-0.291,0.289-0.291c5.539,0,11.08,0,16.617,0
				c0.092,0,0.213-0.03,0.26,0.107c0,1.438,0,2.862,0,4.299c-0.047,0.108-0.137,0.093-0.215,0.093c-3.869,0-7.725,0-11.596,0
				c-0.262,0-0.262,0-0.262,0.259c0,1.898,0,3.779,0,5.677c0,0.167,0.047,0.214,0.215,0.214c3.26,0,6.518,0,9.775,0
				c0.047,0,0.092,0,0.154,0c0.105,0.016,0.182,0.061,0.154,0.185c-0.018,0.061,0,0.107,0,0.168c0,1.315,0,2.615,0,3.932
				c0,0.245-0.018,0.261-0.246,0.261c-3.273,0-6.547,0-9.82,0c-0.232,0-0.232,0-0.232,0.243c0,1.96,0,3.918,0,5.875
				c0,0.214,0.016,0.23,0.246,0.23c2.416,0,4.834,0,7.252,0c1.529,0,3.059,0,4.59,0C141.883,25.013,141.883,26.497,141.883,27.98z"
				/>
			<path fill="#405273" d="M13.473,14.946c0-4.345,0-8.69,0-13.035c0-0.276-0.029-0.229,0.245-0.229c3.703,0,7.42,0,11.123,0
				c0.337,0,0.673-0.031,0.996,0.029c0.306,0.062,0.627,0.031,0.933,0.138c0.168,0.062,0.336,0.046,0.521,0.076
				c0.55,0.093,1.07,0.261,1.576,0.475c0.336,0.137,0.672,0.321,0.963,0.566c0.153,0.124,0.307,0.229,0.445,0.352
				c0.459,0.383,0.841,0.842,1.178,1.331c0.213,0.321,0.413,0.658,0.581,1.01c0.153,0.336,0.306,0.674,0.414,1.026
				c0.122,0.366,0.244,0.734,0.305,1.117c0.077,0.428,0.137,0.857,0.137,1.285c0,0.536,0.032,1.072-0.029,1.591
				c-0.062,0.521-0.169,1.042-0.321,1.546c-0.138,0.458-0.322,0.886-0.551,1.3c-0.2,0.368-0.443,0.719-0.72,1.025
				c-0.153,0.168-0.29,0.337-0.458,0.49c-0.397,0.368-0.81,0.704-1.27,0.979c-0.214,0.138-0.429,0.277-0.657,0.367
				c-0.077,0.029-0.137,0.093-0.077,0.229c0.108,0.275,0.229,0.566,0.321,0.841c0.107,0.353,0.275,0.675,0.397,1.025
				c0.091,0.276,0.215,0.536,0.306,0.812c0.107,0.336,0.26,0.673,0.383,1.01c0.108,0.26,0.2,0.535,0.307,0.796
				c0.137,0.353,0.259,0.704,0.396,1.056c0.107,0.26,0.199,0.536,0.307,0.796c0.107,0.275,0.199,0.551,0.305,0.826
				c0.107,0.291,0.215,0.582,0.323,0.872c0.122,0.322,0.259,0.643,0.366,0.979c0.108,0.291,0.229,0.581,0.336,0.872
				c0.108,0.352,0.26,0.674,0.398,1.024c0.076,0.169,0.138,0.353,0.199,0.521c0.031,0.106,0.031,0.198-0.137,0.183
				c-0.352-0.015-0.704,0-1.041,0c-1.591,0-3.196,0-4.788,0c-0.261,0-0.261-0.015-0.338-0.261c-0.092-0.305-0.214-0.61-0.322-0.917
				c-0.106-0.29-0.198-0.597-0.305-0.888c-0.061-0.183-0.137-0.367-0.199-0.55c-0.077-0.214-0.153-0.428-0.23-0.659
				c-0.106-0.29-0.213-0.565-0.306-0.855c-0.076-0.215-0.137-0.428-0.215-0.643c-0.061-0.2-0.137-0.398-0.214-0.611
				c-0.076-0.231-0.168-0.444-0.244-0.674c-0.092-0.291-0.213-0.566-0.321-0.857c-0.092-0.275-0.184-0.551-0.292-0.826
				c-0.137-0.383-0.259-0.78-0.414-1.178c-0.105-0.291-0.182-0.581-0.29-0.871c-0.076-0.215-0.138-0.429-0.229-0.644
				c-0.031-0.077-0.062-0.092-0.138-0.092c-1.27,0-2.54,0-3.794,0c-0.093,0-0.139,0.029-0.123,0.121c0,0.047,0,0.094,0,0.123
				c0,3.352,0,6.701,0,10.036c0,0.2-0.061,0.231-0.229,0.231c-1.76,0-3.519,0-5.263,0c-0.168,0-0.198-0.048-0.198-0.2
				C13.473,23.682,13.473,19.32,13.473,14.946z M19.165,9.79c0,1.072,0,2.127,0,3.198c0,0.153,0.029,0.2,0.184,0.2
				c1.04,0,2.08,0,3.121,0c0.856,0,1.714-0.032,2.54-0.261c0.444-0.123,0.796-0.399,1.086-0.734c0.321-0.368,0.582-0.765,0.735-1.24
				c0.122-0.367,0.214-0.733,0.229-1.101c0.017-0.245-0.015-0.49-0.045-0.734c-0.077-0.521-0.277-0.994-0.567-1.423
				c-0.26-0.383-0.566-0.72-0.963-0.934c-0.399-0.229-0.873-0.276-1.316-0.291c-1.606-0.031-3.197-0.031-4.805-0.031
				c-0.153,0-0.199,0.046-0.199,0.199C19.165,7.664,19.165,8.719,19.165,9.79z"/>
			<path fill="#405273" d="M87.906,15.053c0,4.267,0,8.537,0,12.821c0,0.166-0.063,0.214-0.217,0.214c-1.389,0-2.781,0-4.189,0
				c-0.152,0-0.199-0.107-0.26-0.184c-0.567-0.872-1.131-1.759-1.699-2.632c-0.32-0.489-0.645-0.995-0.966-1.484
				c-0.534-0.811-1.055-1.638-1.574-2.463c-0.396-0.627-0.827-1.254-1.239-1.896c-0.49-0.781-1.01-1.531-1.484-2.313
				c-0.184-0.289-0.396-0.564-0.581-0.856c-0.382-0.61-0.75-1.238-1.162-1.834c-0.275-0.398-0.505-0.827-0.796-1.224
				c-0.183-0.261-0.336-0.535-0.505-0.795c-0.031-0.046-0.062-0.076-0.075-0.123c-0.032-0.062-0.077-0.046-0.124-0.031
				c-0.061,0.016-0.061,0.061-0.061,0.122c0,0.152,0.014,0.305,0.014,0.459c0,4.987,0,9.96,0,14.948c0,0.29,0,0.29-0.306,0.29
				c-1.501,0-2.984,0-4.484,0c-0.229,0-0.258-0.016-0.258-0.246c0-8.506,0-17.027,0-25.533c0-0.168,0.045-0.245,0.229-0.245
				c1.347,0.016,2.708,0,4.053,0c0.184,0,0.277,0.062,0.366,0.215c0.323,0.504,0.675,0.994,1.012,1.483
				c0.29,0.444,0.566,0.902,0.855,1.331c0.322,0.475,0.612,0.948,0.919,1.423c0.368,0.565,0.735,1.131,1.101,1.713
				c0.382,0.612,0.797,1.193,1.18,1.806c0.213,0.353,0.442,0.689,0.642,1.04c0.213,0.368,0.473,0.688,0.704,1.041
				c0.337,0.551,0.718,1.072,1.039,1.623c0.26,0.474,0.566,0.918,0.857,1.36c0.23,0.337,0.444,0.674,0.673,1.009
				c0.353,0.505,0.705,0.995,0.981,1.545c0.016,0.017,0.029,0.017,0.044,0.031c0.032,0.076,0.108,0.152,0.169,0.137
				c0.076-0.016,0.045-0.122,0.045-0.198c0-5.125,0-10.25,0-15.36c0-0.184,0.063-0.214,0.232-0.214c1.543,0,3.09,0,4.648,0
				c0.154,0,0.232,0.016,0.232,0.214C87.906,6.501,87.906,10.769,87.906,15.053z"/>
			<path fill="#405273" d="M111.344,13.6c1.563,0,3.107,0,4.666,0c0.262,0,0.262,0,0.262,0.26c0,1.286,0.014,2.585-0.016,3.869
				c-0.014,0.581,0,1.162-0.076,1.729c-0.123,0.903-0.246,1.806-0.52,2.661c-0.168,0.536-0.414,1.041-0.674,1.546
				c-0.383,0.75-0.918,1.376-1.514,1.957c-0.4,0.368-0.797,0.735-1.256,1.024c-0.414,0.277-0.826,0.521-1.285,0.72
				c-0.352,0.154-0.719,0.291-1.086,0.429c-0.354,0.138-0.721,0.214-1.088,0.291c-0.52,0.106-1.041,0.184-1.576,0.214
				c-0.611,0.029-1.225,0.046-1.834-0.03c-0.598-0.06-1.195-0.153-1.775-0.322c-0.504-0.137-1.01-0.335-1.484-0.549
				c-0.426-0.199-0.842-0.429-1.225-0.689c-0.396-0.276-0.779-0.566-1.146-0.871c-0.352-0.307-0.672-0.657-0.979-1.023
				c-0.598-0.752-1.039-1.563-1.348-2.465c-0.105-0.319-0.184-0.657-0.26-0.994c-0.061-0.245-0.092-0.506-0.123-0.75
				c-0.076-0.841-0.166-1.683-0.199-2.538c-0.029-0.766-0.063-1.531-0.063-2.311c0-0.703-0.014-1.408,0-2.111
				c0.02-0.474,0.02-0.949,0.033-1.422c0.029-0.445,0.029-0.903,0.076-1.347c0.061-0.537,0.094-1.086,0.184-1.621
				c0.092-0.628,0.229-1.254,0.457-1.867c0.43-1.162,1.133-2.157,2.051-2.998c0.568-0.536,1.195-1.01,1.867-1.393
				c0.475-0.275,0.982-0.49,1.5-0.688c0.611-0.229,1.238-0.353,1.883-0.445c0.979-0.152,1.973-0.107,2.969-0.045
				c0.535,0.031,1.053,0.168,1.59,0.292c0.719,0.167,1.393,0.443,2.035,0.765c0.58,0.291,1.131,0.688,1.637,1.117
				c0.842,0.735,1.516,1.606,2.035,2.586c0.262,0.489,0.504,0.994,0.658,1.515c0.107,0.337,0.184,0.688,0.275,1.041
				c0.061,0.199,0.074,0.429,0.166,0.627c0.109,0.229,0.031,0.352-0.244,0.352c-1.561,0-3.104,0-4.666,0
				c-0.213,0-0.26-0.046-0.32-0.292c-0.107-0.519-0.338-0.979-0.598-1.438c-0.365-0.642-0.887-1.147-1.529-1.515
				c-0.627-0.351-1.332-0.49-2.051-0.535c-0.488-0.031-0.965-0.016-1.439,0.076c-1.145,0.229-2.002,0.856-2.613,1.85
				c-0.354,0.583-0.537,1.209-0.629,1.867c-0.121,0.872-0.152,1.744-0.184,2.631c-0.029,0.934-0.061,1.882-0.045,2.814
				c0.016,0.552-0.016,1.101,0.031,1.651c0.045,0.581,0,1.164,0.076,1.729c0.076,0.612,0.105,1.224,0.26,1.82
				c0.121,0.475,0.367,0.903,0.643,1.3c0.367,0.537,0.842,0.966,1.408,1.24c0.32,0.154,0.656,0.244,1.01,0.322
				c0.473,0.105,0.934,0.076,1.406,0.076c0.842,0,1.623-0.229,2.342-0.673c0.748-0.444,1.301-1.088,1.668-1.867
				c0.168-0.383,0.291-0.78,0.367-1.194c0.137-0.658,0.105-1.315,0.137-1.988c0-0.199-0.061-0.245-0.26-0.245
				c-1.439,0-2.893,0-4.33,0c-0.213,0-0.242-0.031-0.213-0.244c0.016-0.124,0-0.245,0-0.367c0-1.07,0-2.156,0-3.227
				c0-0.352,0-0.352,0.352-0.352C108.301,13.6,109.828,13.6,111.344,13.6L111.344,13.6z"/>
			<path fill="#405273" d="M58.363,28.149c-0.826,0-1.636,0-2.463,0c-0.122,0-0.183-0.029-0.214-0.138
				c-0.093-0.276-0.184-0.566-0.292-0.841c-0.199-0.566-0.366-1.133-0.565-1.698c-0.168-0.475-0.321-0.964-0.474-1.453v-0.018
				c-0.153-0.489-0.153-0.489-0.658-0.489c-2.8,0-5.599,0-8.385,0c-0.061,0-0.137,0-0.199-0.016
				c-0.107-0.015-0.153,0.047-0.198,0.124c-0.276,0.534-0.428,1.115-0.612,1.667c-0.214,0.657-0.46,1.3-0.658,1.957
				c-0.076,0.276-0.213,0.521-0.26,0.813c-0.016,0.062-0.045,0.076-0.108,0.076c-0.061,0-0.107,0-0.168,0c-1.621,0-3.244,0-4.865,0
				c-0.229,0-0.229-0.015-0.152-0.229c0.138-0.351,0.244-0.703,0.383-1.041c0.213-0.504,0.381-1.04,0.581-1.562
				c0.168-0.443,0.336-0.901,0.49-1.36c0.123-0.352,0.244-0.703,0.398-1.04c0.138-0.322,0.244-0.674,0.368-1.011
				c0.168-0.474,0.367-0.934,0.52-1.407c0.124-0.366,0.245-0.734,0.384-1.087c0.198-0.505,0.382-1.024,0.566-1.545
				c0.137-0.366,0.26-0.735,0.397-1.086c0.168-0.461,0.305-0.917,0.489-1.361c0.123-0.292,0.229-0.597,0.306-0.903
				c0.076-0.26,0.184-0.504,0.276-0.75c0.137-0.366,0.275-0.734,0.413-1.116c0.107-0.276,0.2-0.552,0.292-0.827
				c0.137-0.367,0.274-0.734,0.413-1.117c0.122-0.352,0.26-0.72,0.382-1.071c0.138-0.367,0.275-0.735,0.396-1.101
				c0.139-0.369,0.276-0.72,0.414-1.088c0.153-0.444,0.306-0.887,0.475-1.316c0.076-0.184,0.152-0.382,0.229-0.565
				c0.215-0.566,0.414-1.131,0.611-1.699c0.215-0.566,0.414-1.147,0.612-1.714C47.531,2.016,47.622,2,47.729,2
				c0.98,0,1.959,0,2.938,0c0.214,0,0.442,0,0.658,0c0.107,0,0.185,0.031,0.229,0.153c0.137,0.368,0.274,0.735,0.413,1.102
				c0.137,0.398,0.307,0.794,0.459,1.178c0.167,0.443,0.322,0.902,0.491,1.346c0.121,0.337,0.244,0.657,0.368,0.994
				c0.107,0.307,0.213,0.627,0.336,0.935c0.167,0.428,0.321,0.855,0.474,1.284c0.2,0.52,0.368,1.055,0.582,1.576
				c0.168,0.444,0.321,0.903,0.505,1.346c0.184,0.429,0.306,0.888,0.476,1.332c0.184,0.504,0.382,0.995,0.566,1.483
				c0.137,0.383,0.26,0.749,0.397,1.132c0.093,0.261,0.2,0.505,0.292,0.766c0.167,0.521,0.382,1.039,0.58,1.56
				c0.247,0.674,0.507,1.362,0.751,2.034c0.121,0.336,0.243,0.659,0.336,0.995c0.106,0.352,0.29,0.688,0.397,1.04
				c0.198,0.673,0.521,1.285,0.718,1.959c0.153,0.475,0.353,0.934,0.521,1.408c0.121,0.305,0.245,0.611,0.336,0.934
				c0.107,0.352,0.258,0.673,0.382,1.01c0,0.015,0.016,0.029,0.031,0.045c0.153,0.476,0.153,0.476-0.337,0.476
				C59.847,28.149,59.111,28.149,58.363,28.149z M53.528,17.059c0-0.276-0.03-0.537-0.076-0.781
				c-0.046-0.245-0.107-0.489-0.167-0.72c-0.108-0.382-0.292-0.748-0.476-1.102c-0.321-0.595-0.671-1.192-1.163-1.698
				c-0.168-0.167-0.335-0.352-0.505-0.505c-0.031-0.031-0.076-0.091-0.121-0.046c-0.047,0.046-0.031,0.107-0.016,0.153
				c0,0.016,0.03,0.03,0.03,0.045c0.2,0.307,0.399,0.613,0.582,0.934c0.214,0.368,0.398,0.75,0.536,1.147
				c0.092,0.245,0.153,0.505,0.213,0.765c0.061,0.292,0.061,0.582,0.016,0.873c-0.03,0.198-0.092,0.412-0.213,0.564
				c-0.247,0.322-0.566,0.521-0.995,0.461c-0.368-0.047-0.628-0.261-0.812-0.566c-0.167-0.277-0.199-0.597-0.244-0.904
				c-0.046-0.29,0.015-0.596,0.091-0.871c0.093-0.352,0.153-0.704,0.261-1.056c0.076-0.274,0.199-0.536,0.276-0.81
				c0.061-0.245,0.152-0.49,0.152-0.735c0-0.551,0.045-1.102-0.076-1.651c-0.061-0.323-0.138-0.644-0.23-0.965
				c-0.137-0.442-0.26-0.886-0.382-1.331c-0.139-0.474-0.292-0.947-0.382-1.438c-0.031-0.153-0.046-0.305-0.138-0.444
				c-0.031-0.046-0.046-0.107-0.123-0.091c-0.077,0.015-0.062,0.077-0.062,0.123c0,0.199-0.045,0.381-0.107,0.566
				c-0.106,0.352-0.153,0.72-0.259,1.072c-0.076,0.244-0.123,0.504-0.184,0.75c-0.076,0.259-0.168,0.52-0.184,0.811
				c0,0.063-0.031,0.123-0.046,0.168c-0.108,0.307-0.214,0.613-0.382,0.904c-0.107,0.184-0.168,0.413-0.275,0.611
				c-0.244,0.505-0.49,1.01-0.765,1.499c-0.23,0.4-0.414,0.827-0.659,1.224c-0.184,0.306-0.335,0.644-0.489,0.98
				c-0.168,0.353-0.292,0.718-0.383,1.085c-0.061,0.229-0.123,0.46-0.123,0.688c0,0.2-0.046,0.397,0.015,0.582
				c0.107,0.366,0.123,0.734,0.306,1.087c0.138,0.259,0.23,0.549,0.413,0.794c0.291,0.368,0.612,0.688,0.994,0.965
				c0.475,0.337,1.009,0.519,1.56,0.627c0.459,0.093,0.948,0.093,1.423,0c0.153-0.029,0.321-0.046,0.474-0.108
				c0.367-0.135,0.705-0.318,1.04-0.549c0.536-0.397,0.965-0.888,1.27-1.454C53.42,18.174,53.574,17.608,53.528,17.059z"/>
			<path fill="#E65A00" d="M53.528,17.059c0.031,0.55-0.107,1.116-0.383,1.606c-0.305,0.58-0.734,1.07-1.27,1.454
				c-0.321,0.228-0.671,0.412-1.04,0.55c-0.152,0.062-0.321,0.076-0.474,0.105c-0.476,0.076-0.948,0.076-1.424,0
				c-0.551-0.105-1.087-0.29-1.56-0.626c-0.383-0.275-0.704-0.597-0.995-0.965c-0.199-0.242-0.275-0.535-0.413-0.795
				c-0.184-0.338-0.199-0.72-0.306-1.086c-0.045-0.185,0-0.383-0.014-0.581c0-0.244,0.061-0.46,0.121-0.689
				c0.108-0.366,0.229-0.733,0.384-1.086c0.152-0.335,0.305-0.658,0.489-0.979c0.245-0.399,0.428-0.827,0.658-1.225
				c0.275-0.489,0.52-0.995,0.765-1.5c0.093-0.199,0.152-0.413,0.275-0.611c0.168-0.292,0.276-0.597,0.382-0.903
				c0.015-0.062,0.046-0.108,0.046-0.167c0.015-0.276,0.108-0.536,0.185-0.812C49.033,8.505,49.079,8.245,49.14,8
				c0.108-0.351,0.153-0.719,0.259-1.071c0.046-0.184,0.107-0.368,0.107-0.566c0-0.046-0.015-0.107,0.062-0.123
				c0.076-0.016,0.092,0.029,0.122,0.092c0.076,0.137,0.107,0.305,0.138,0.444c0.091,0.49,0.244,0.963,0.382,1.438
				c0.137,0.445,0.244,0.888,0.382,1.331c0.094,0.307,0.17,0.643,0.231,0.964c0.106,0.551,0.061,1.102,0.076,1.652
				c0,0.245-0.092,0.49-0.153,0.734c-0.077,0.276-0.2,0.536-0.276,0.812c-0.107,0.352-0.168,0.703-0.261,1.055
				c-0.076,0.276-0.137,0.582-0.091,0.872c0.045,0.306,0.077,0.627,0.244,0.902c0.184,0.307,0.429,0.521,0.812,0.565
				c0.428,0.062,0.764-0.137,0.995-0.458c0.122-0.153,0.184-0.367,0.213-0.567c0.047-0.289,0.047-0.58-0.016-0.871
				c-0.061-0.26-0.122-0.52-0.213-0.765c-0.138-0.399-0.322-0.781-0.537-1.149c-0.184-0.32-0.383-0.626-0.582-0.932
				c-0.014-0.015-0.03-0.03-0.03-0.046c-0.015-0.045-0.046-0.123,0.016-0.152c0.061-0.047,0.091,0.029,0.121,0.045
				c0.168,0.168,0.337,0.337,0.505,0.505c0.475,0.504,0.826,1.086,1.163,1.697c0.184,0.353,0.368,0.721,0.476,1.103
				c0.061,0.229,0.122,0.475,0.167,0.72C53.513,16.521,53.528,16.766,53.528,17.059z"/>
		</g>
	</g>
</g>
</svg>
