<?xml version="1.0" encoding="utf-8"?>
<!-- Generator: Adobe Illustrator 21.1.0, SVG Export Plug-In . SVG Version: 6.00 Build 0)  -->
<svg version="1.1" id="Ebene_1" xmlns="http://www.w3.org/2000/svg" xmlns:xlink="http://www.w3.org/1999/xlink" x="0px" y="0px"
	 viewBox="0 0 386 139" style="enable-background:new 0 0 386 139;" xml:space="preserve">
<style type="text/css">
	.st0{fill:#FFFFFF;}
	.st1{fill:#1B618C;}
	.st2{fill:#4E6E61;}
</style>
<title>kfw-ipex_logo_1280@2x</title>
<g id="Ebene_2">
	<rect class="st0" width="386" height="139"/>
</g>
<g id="Ebene_1_1_">
	<path class="st1" d="M175.4,68.5v0.2c0,0-0.1,0-0.1,0c-0.1-0.1-0.1-0.2-0.1-0.3L175.4,68.5z"/>
	<path class="st1" d="M175.3,68.7h0.1c0,0,0,0.1-0.1,0.1S175.3,68.7,175.3,68.7z"/>
	<path class="st2" d="M13.9,108.8h5.5c0.7,0,1.4,0.1,2,0.3c0.5,0.2,1,0.4,1.4,0.8c0.4,0.3,0.7,0.8,0.8,1.2c0.2,0.5,0.3,1,0.3,1.6
		c0,0.6-0.2,1.3-0.5,1.9c-0.4,0.7-0.9,1.2-1.6,1.5c0.5,0.1,0.9,0.4,1.2,0.7c0.3,0.3,0.6,0.6,0.8,1c0.2,0.4,0.3,0.7,0.4,1.1
		c0.1,0.3,0.1,0.7,0.1,1c0,0.6-0.1,1.2-0.4,1.7c-0.2,0.5-0.6,1-1,1.3c-0.4,0.4-0.9,0.7-1.4,0.8c-0.5,0.2-1.1,0.3-1.6,0.3h-6.1V108.8
		z M22,112.9c0-0.7-0.2-1.4-0.7-1.9c-0.6-0.5-1.5-0.8-2.3-0.7h-3.2v5.2h3.2c0.8,0.1,1.6-0.2,2.2-0.7C21.7,114.2,22,113.6,22,112.9z
		 M22.4,119.8c0-0.4-0.1-0.7-0.2-1.1c-0.1-0.3-0.3-0.7-0.6-0.9c-0.3-0.3-0.6-0.5-1-0.6c-0.4-0.2-0.9-0.2-1.3-0.2h-3.6v5.8h3.6
		c0.5,0,1-0.1,1.4-0.2c0.4-0.1,0.7-0.3,1-0.6c0.2-0.3,0.4-0.6,0.5-0.9C22.4,120.5,22.4,120.1,22.4,119.8z"/>
	<path class="st2" d="M35.3,122.8h1.5l0.1,1.1c-0.3,0.1-0.6,0.3-0.9,0.3c-0.3,0.1-0.7,0.1-1,0.1c-0.4,0-0.7-0.1-1-0.3
		c-0.3-0.3-0.4-0.7-0.4-1.1l0,0c-0.7,0.6-1.4,1-2.3,1.2c-0.3,0.1-0.6,0.1-0.9,0.2h-0.6c-0.5,0-1.1-0.1-1.5-0.3
		c-0.4-0.2-0.7-0.4-1-0.8c-0.2-0.3-0.4-0.6-0.5-1c-0.1-0.3-0.1-0.7-0.1-1c0-0.9,0.3-1.7,1-2.3c0.9-0.7,2-1,3.1-1l2.8-0.2V117
		c0.1-0.7-0.1-1.4-0.5-1.9c-0.5-0.4-1.2-0.6-1.9-0.6c-0.6,0-1.1,0.1-1.7,0.2c-0.6,0.1-1.1,0.3-1.7,0.4l-0.4-1.2
		c0.7-0.3,1.4-0.5,2.1-0.7c0.7-0.1,1.4-0.2,2.1-0.2c1-0.1,1.9,0.2,2.7,0.8c0.7,0.7,1.1,1.8,1,2.8L35.3,122.8z M30.8,119.1
		c-0.6,0-1.2,0.2-1.6,0.6c-0.4,0.3-0.6,0.8-0.5,1.3c0,0.5,0.1,1,0.5,1.4c0.4,0.4,1,0.5,1.5,0.5c0.5,0,1-0.1,1.5-0.4
		c0.6-0.3,1.1-0.6,1.5-1.1v-2.6L30.8,119.1z"/>
	<path class="st2" d="M45.9,124.1v-7.2c0-0.3,0-0.7-0.1-1c0-0.3-0.1-0.5-0.2-0.8c-0.1-0.2-0.3-0.4-0.6-0.5c-0.3-0.1-0.7-0.2-1-0.2
		c-0.6,0-1.2,0.1-1.7,0.3c-0.6,0.2-1.1,0.4-1.6,0.7v8.6h-1.8v-10.9h1.8v0.9h0.1c0.6-0.4,1.3-0.7,2-0.9c0.6-0.2,1.2-0.3,1.8-0.3
		c0.6,0,1.2,0.1,1.8,0.3c0.4,0.2,0.7,0.5,1,0.8c0.2,0.3,0.4,0.7,0.4,1.1c0.1,0.4,0.1,0.8,0.1,1.2v7.7L45.9,124.1z"/>
	<path class="st2" d="M52.2,117.7c0.7-0.8,1.5-1.5,2.2-2.3c0.7-0.7,1.5-1.5,2.2-2.3h2.1c-0.7,0.7-1.4,1.4-2.1,2.2l-2.1,2.2
		c0.1,0.2,0.2,0.3,0.4,0.5c0.1,0.1,0.3,0.3,0.4,0.5l3.8,5.7h-2c-0.6-0.9-1.2-1.8-1.8-2.8l-1.8-2.8l-1.2,1.2v4.3h-1.9v-15.9h1.8v6.9
		l-0.1,2.5L52.2,117.7z"/>
	<path class="st2" d="M74.9,122.8h1.5l0.1,1.1c-0.3,0.1-0.6,0.3-0.9,0.3c-0.3,0.1-0.7,0.1-1,0.1c-0.4,0-0.7-0.1-1-0.3
		c-0.3-0.3-0.4-0.7-0.4-1.1l0,0c-0.7,0.6-1.4,1-2.3,1.2c-0.3,0.1-0.6,0.1-0.9,0.2h-0.6c-0.5,0-1.1-0.1-1.6-0.3
		c-0.4-0.2-0.7-0.4-1-0.8c-0.2-0.3-0.4-0.6-0.5-1c-0.1-0.3-0.1-0.7-0.2-1c0-0.9,0.3-1.7,1-2.3c0.9-0.7,2-1,3.1-1l2.8-0.2V117
		c0.1-0.7-0.1-1.4-0.5-1.9c-0.5-0.4-1.2-0.6-1.9-0.6c-0.6,0-1.1,0.1-1.7,0.2c-0.6,0.1-1.1,0.3-1.7,0.4l-0.4-1.2
		c0.7-0.3,1.4-0.5,2.1-0.7c0.7-0.1,1.4-0.2,2.2-0.2c1-0.1,1.9,0.2,2.7,0.8c0.7,0.7,1.1,1.8,1,2.8L74.9,122.8z M70.3,119.1
		c-0.6,0-1.2,0.2-1.7,0.6c-0.4,0.3-0.6,0.8-0.5,1.3c0,0.5,0.1,1,0.5,1.4c0.4,0.4,1,0.5,1.5,0.5c0.5,0,1-0.1,1.5-0.4
		c0.5-0.3,1-0.6,1.5-1.1v-2.6L70.3,119.1z"/>
	<path class="st2" d="M81.5,124.4c-0.6,0-1.2-0.1-1.7-0.3c-0.4-0.2-0.7-0.5-0.9-0.8c-0.2-0.3-0.3-0.7-0.4-1.1
		c-0.1-0.4-0.1-0.8-0.1-1.2v-7.7h1.8v7.2c0,0.3,0,0.7,0.1,1c0,0.3,0.1,0.5,0.2,0.8c0.1,0.2,0.3,0.4,0.6,0.5c0.3,0.1,0.7,0.2,1,0.2
		c0.5,0,1-0.1,1.5-0.3c0.6-0.2,1.2-0.6,1.7-1.1v-8.3h1.8v10.9h-1.8v-1.2l0,0c-0.6,0.5-1.4,1-2.2,1.2c-0.3,0.1-0.6,0.2-0.9,0.2
		C82,124.3,81.8,124.4,81.5,124.4z"/>
	<path class="st2" d="M89.8,122.2c0.6,0.3,1.3,0.5,1.9,0.6c0.5,0.1,1,0.1,1.4,0.1c0.3,0,0.7,0,1-0.1c0.3-0.1,0.5-0.1,0.8-0.3
		c0.2-0.1,0.4-0.3,0.5-0.5c0.1-0.3,0.2-0.5,0.2-0.8c0-0.3-0.1-0.5-0.2-0.7c-0.1-0.2-0.3-0.4-0.5-0.5c-0.2-0.2-0.5-0.3-0.8-0.4
		l-0.9-0.3l-1.4-0.5c-0.4-0.1-0.8-0.3-1.2-0.6c-0.3-0.2-0.6-0.5-0.8-0.8c-0.2-0.4-0.3-0.8-0.3-1.3c0-0.5,0.1-0.9,0.3-1.4
		c0.2-0.4,0.5-0.7,0.8-1c0.4-0.3,0.8-0.5,1.2-0.6c0.5-0.1,1-0.2,1.5-0.2c0.3,0,0.5,0,0.8,0c0.3,0,0.6,0,0.9,0.1
		c0.3,0.1,0.6,0.1,0.9,0.2c0.3,0.1,0.5,0.2,0.8,0.4l-0.6,1.3c-0.5-0.2-1-0.4-1.5-0.5c-0.4-0.1-0.8-0.1-1.2-0.1c-0.3,0-0.6,0-0.8,0.1
		c-0.2,0-0.5,0.1-0.7,0.3c-0.2,0.1-0.4,0.3-0.5,0.5c-0.1,0.2-0.2,0.5-0.2,0.8c0,0.2,0.1,0.5,0.2,0.6c0.2,0.2,0.4,0.3,0.6,0.5
		c0.2,0.1,0.5,0.3,0.8,0.3l0.7,0.2l1.4,0.5c0.4,0.1,0.8,0.4,1.2,0.6c0.4,0.2,0.6,0.6,0.9,0.9c0.2,0.4,0.3,0.9,0.3,1.4
		c0,0.5-0.1,1-0.3,1.4c-0.2,0.4-0.5,0.7-0.9,1c-0.4,0.3-0.9,0.5-1.4,0.6c-0.6,0.1-1.1,0.2-1.7,0.2c-0.3,0-0.7,0-1-0.1
		c-0.4,0-0.7-0.1-1-0.2c-0.3-0.1-0.7-0.1-1-0.3c-0.3-0.1-0.6-0.2-0.8-0.4L89.8,122.2z"/>
	<path class="st2" d="M110.7,122.2l0.9-3.1l3-10.2h2l-4.8,15.3h-2.2l-4.8-15.3h2l3.1,10.2l0.9,3.1H110.7z"/>
	<path class="st2" d="M122,113c0.6,0,1.2,0.1,1.8,0.3c0.5,0.2,0.9,0.4,1.2,0.7c0.3,0.3,0.6,0.7,0.8,1.1c0.2,0.4,0.3,0.8,0.4,1.2
		c0.1,0.4,0.1,0.7,0.2,1.1c0,0.3,0,0.6,0,0.8v0.8h-7.3c0,0.5,0,1,0.1,1.4c0.1,0.4,0.2,0.9,0.5,1.2c0.3,0.4,0.6,0.7,1,0.8
		c0.5,0.2,1,0.3,1.5,0.3c0.6,0,1.2-0.1,1.8-0.2c0.6-0.2,1.2-0.3,1.7-0.6l0.4,1.2c-0.6,0.3-1.3,0.6-2,0.8c-0.7,0.2-1.4,0.3-2.1,0.2
		c-0.8,0-1.6-0.1-2.4-0.4c-0.6-0.3-1.1-0.7-1.5-1.2c-0.4-0.5-0.6-1.1-0.8-1.8c-0.1-0.7-0.2-1.4-0.2-2.2c0-0.4,0-0.7,0.1-1.1
		c0-0.4,0.1-0.8,0.3-1.2c0.1-0.4,0.3-0.8,0.5-1.2c0.2-0.4,0.5-0.8,0.9-1.1c0.4-0.3,0.8-0.6,1.3-0.8C120.8,113,121.4,112.9,122,113z
		 M122,114.3c-0.5,0-0.9,0.1-1.3,0.3c-0.3,0.2-0.7,0.5-0.9,0.8c-0.2,0.3-0.4,0.7-0.5,1.1c-0.1,0.4-0.2,0.9-0.2,1.3h5.6
		c0-0.5,0-1-0.1-1.4c-0.1-0.4-0.2-0.8-0.4-1.1c-0.2-0.3-0.5-0.6-0.8-0.7C122.9,114.4,122.5,114.3,122,114.3L122,114.3z"/>
	<path class="st2" d="M130.8,114.7c0.3-0.2,0.6-0.5,0.9-0.7c0.3-0.2,0.7-0.4,1-0.6c0.3-0.2,0.7-0.3,1-0.4c0.3-0.1,0.6-0.2,0.9-0.2
		c0.1,0,0.3,0,0.4,0.1c0.1,0.1,0.2,0.3,0.2,0.4c0,0.1,0,0.2-0.1,0.4l-0.1,0.5c-0.1,0.2-0.1,0.3-0.2,0.5c-0.1,0.1-0.2,0.3-0.2,0.4
		l-1.9,0.2l-1.9,0.2v8.5H129v-10.9h1.8l-0.1,1.4L130.8,114.7z"/>
	<path class="st2" d="M144.9,122.8h1.5l0.1,1.1c-0.3,0.1-0.6,0.3-0.9,0.3c-0.3,0.1-0.7,0.1-1,0.1c-0.4,0-0.7-0.1-1-0.3
		c-0.3-0.3-0.4-0.7-0.4-1.1l0,0c-0.7,0.6-1.4,1-2.3,1.2c-0.3,0.1-0.6,0.1-0.9,0.2h-0.6c-0.5,0-1.1-0.1-1.6-0.3
		c-0.4-0.2-0.7-0.4-1-0.8c-0.2-0.3-0.4-0.6-0.5-1c-0.1-0.3-0.1-0.7-0.1-1c0-0.9,0.3-1.7,1-2.3c0.9-0.7,2-1,3.1-1l2.8-0.2V117
		c0.1-0.7-0.1-1.4-0.5-1.9c-0.5-0.4-1.2-0.6-1.9-0.6c-0.6,0-1.1,0.1-1.7,0.2c-0.6,0.1-1.1,0.3-1.7,0.4l-0.4-1.2
		c0.7-0.3,1.4-0.5,2.1-0.7c0.7-0.1,1.4-0.2,2.1-0.2c1-0.1,1.9,0.2,2.7,0.8c0.7,0.7,1.1,1.8,1,2.8L144.9,122.8z M140.4,119.1
		c-0.6,0-1.2,0.2-1.7,0.6c-0.4,0.3-0.6,0.8-0.5,1.3c0,0.5,0.1,1,0.5,1.4c0.4,0.4,1,0.5,1.5,0.5c0.5,0,1-0.1,1.5-0.4
		c0.6-0.3,1.1-0.6,1.5-1.1v-2.6L140.4,119.1z"/>
	<path class="st2" d="M155.5,124.1v-7.2c0-0.3,0-0.7-0.1-1c0-0.3-0.1-0.5-0.2-0.8c-0.1-0.2-0.3-0.4-0.6-0.5c-0.3-0.1-0.7-0.2-1-0.2
		c-0.6,0-1.2,0.1-1.7,0.3c-0.6,0.2-1.1,0.4-1.6,0.7v8.6h-1.8v-10.9h1.8v0.9h0.1c0.6-0.4,1.3-0.7,2-0.9c0.6-0.2,1.2-0.3,1.8-0.3
		c0.6,0,1.2,0.1,1.8,0.3c0.4,0.2,0.7,0.5,1,0.8c0.2,0.3,0.4,0.7,0.4,1.1c0.1,0.4,0.1,0.8,0.1,1.2v7.7L155.5,124.1z"/>
	<path class="st2" d="M162.5,110.4v2.8h3.3v1.3h-3.3v6.4c0,0.4,0.1,0.9,0.3,1.3c0.3,0.4,0.8,0.6,1.2,0.5c0.7,0,1.4-0.2,2.1-0.4
		l0.3,1.2c-0.4,0.2-0.9,0.4-1.3,0.4c-0.5,0.1-0.9,0.2-1.4,0.2c-2,0-3-0.9-3-2.7v-7h-1.5v-1l1.7-0.5l0.6-2.4L162.5,110.4z"/>
	<path class="st2" d="M178.3,122.3l0.8-3.3l1.6-5.8h1.8l-3.2,10.9h-2l-1.6-5.1l-1.1-3.9h-0.1l-1,3.9l-1.4,5.1h-2l-3.2-10.9h1.8
		l1.5,5.6l0.9,3.5h0.1l0.9-3.6l1.6-5.5h1.8l1.8,5.8l0.9,3.3L178.3,122.3z"/>
	<path class="st2" d="M193.2,118.7c0,0.7-0.1,1.4-0.2,2.1c-0.1,0.6-0.4,1.3-0.8,1.8c-0.4,0.5-0.9,1-1.5,1.3
		c-0.7,0.3-1.6,0.5-2.4,0.5c-0.8,0-1.5-0.1-2.2-0.5c-0.6-0.3-1.1-0.7-1.4-1.2c-0.4-0.5-0.6-1.1-0.8-1.8c-0.2-0.7-0.2-1.4-0.2-2.1
		c0-0.7,0.1-1.4,0.3-2.1c0.2-0.7,0.5-1.3,0.9-1.8c0.4-0.5,0.9-1,1.5-1.3c0.7-0.3,1.5-0.5,2.3-0.5c0.8,0,1.6,0.1,2.3,0.5
		c0.6,0.3,1.1,0.7,1.5,1.3c0.4,0.6,0.6,1.2,0.8,1.8C193.1,117.3,193.2,118,193.2,118.7z M191.3,118.7c0-0.5,0-1-0.1-1.5
		c-0.1-0.5-0.2-1-0.4-1.4c-0.2-0.4-0.5-0.7-0.9-1c-0.4-0.3-0.9-0.4-1.4-0.4c-0.5,0-1.1,0.1-1.5,0.4c-0.4,0.3-0.7,0.6-0.9,1
		c-0.2,0.4-0.4,0.9-0.5,1.4c-0.1,0.5-0.1,1-0.1,1.5c0,0.5,0,1.1,0.1,1.6c0.1,0.5,0.2,0.9,0.4,1.3c0.2,0.4,0.5,0.7,0.9,0.9
		c0.5,0.3,1,0.4,1.6,0.3c0.5,0,1-0.1,1.4-0.4c0.4-0.3,0.7-0.6,0.9-1c0.2-0.4,0.4-0.9,0.4-1.3C191.2,119.7,191.3,119.2,191.3,118.7
		L191.3,118.7z"/>
	<path class="st2" d="M197.6,114.7c0.3-0.2,0.6-0.5,0.9-0.7c0.3-0.2,0.7-0.4,1-0.6c0.3-0.2,0.7-0.3,1-0.4c0.3-0.1,0.6-0.2,0.9-0.2
		c0.1,0,0.3,0,0.4,0.1c0.1,0.1,0.2,0.3,0.2,0.4c0,0.1,0,0.2-0.1,0.4l-0.1,0.5c-0.1,0.2-0.1,0.3-0.2,0.5c-0.1,0.1-0.2,0.3-0.2,0.4
		l-1.9,0.2l-1.9,0.2v8.5h-1.8v-10.9h1.8l-0.1,1.4L197.6,114.7z"/>
	<path class="st2" d="M206,110.4v2.8h3.3v1.3H206v6.4c0,0.4,0.1,0.9,0.3,1.3c0.3,0.4,0.8,0.6,1.2,0.5c0.7,0,1.4-0.2,2.1-0.4l0.3,1.2
		c-0.4,0.2-0.9,0.4-1.3,0.4c-0.5,0.1-0.9,0.2-1.4,0.2c-2,0-3-0.9-3-2.7v-7h-1.6v-1l1.7-0.5l0.6-2.4L206,110.4z"/>
	<path class="st2" d="M214.5,124.4c-0.6,0-1.2-0.1-1.7-0.3c-0.4-0.2-0.7-0.5-0.9-0.8c-0.2-0.3-0.3-0.7-0.4-1.1
		c-0.1-0.4-0.1-0.8-0.1-1.2v-7.7h1.8v7.2c0,0.3,0,0.7,0.1,1c0,0.3,0.1,0.5,0.2,0.8c0.1,0.2,0.3,0.4,0.6,0.5c0.3,0.1,0.7,0.2,1,0.2
		c0.5,0,1-0.1,1.5-0.3c0.6-0.2,1.2-0.6,1.7-1.1v-8.3h1.9v10.9h-1.8v-1.2l0,0c-0.6,0.5-1.3,1-2.1,1.2c-0.3,0.1-0.6,0.2-0.9,0.2
		C215,124.4,214.8,124.4,214.5,124.4z"/>
	<path class="st2" d="M229.7,124.1v-7.2c0-0.3,0-0.7-0.1-1c0-0.3-0.1-0.5-0.2-0.8c-0.1-0.2-0.3-0.4-0.6-0.5c-0.3-0.1-0.7-0.2-1-0.2
		c-0.6,0-1.2,0.1-1.7,0.3c-0.6,0.2-1.1,0.4-1.6,0.7v8.6h-1.8v-10.9h1.8v0.9h0.1c0.6-0.4,1.3-0.7,2-0.9c0.6-0.2,1.2-0.3,1.8-0.3
		c0.6,0,1.2,0.1,1.8,0.3c0.4,0.2,0.7,0.5,1,0.8c0.2,0.3,0.4,0.7,0.4,1.1c0.1,0.4,0.1,0.8,0.1,1.2v7.7L229.7,124.1z"/>
	<path class="st2" d="M235.6,119.7c-0.4-0.2-0.8-0.6-1-1c-0.3-0.6-0.5-1.2-0.4-1.8c0-0.6,0.1-1.2,0.4-1.8c0.2-0.5,0.6-0.9,1-1.2
		c0.4-0.3,0.9-0.5,1.4-0.7c0.5-0.1,1-0.2,1.6-0.2c0.4,0,0.7,0,1.1,0.1c0.3,0,0.7,0.1,1,0.2h3.5v1.2h-1.7v0.1c0.3,0.3,0.5,0.6,0.6,1
		c0.1,0.4,0.2,0.9,0.2,1.3c0,1.1-0.5,2.1-1.3,2.8c-0.4,0.3-0.9,0.6-1.4,0.7c-0.6,0.2-1.2,0.3-1.8,0.2h-1.2c-0.4,0-0.9,0-1.3,0.2
		c-0.3,0.1-0.5,0.4-0.5,0.7c0,0.2,0.1,0.4,0.3,0.6c0.3,0.1,0.5,0.2,0.8,0.2h2.9c1.1-0.1,2.2,0.2,3.1,0.8c1.1,1,1.4,2.6,0.7,3.9
		c-0.3,0.5-0.6,0.8-1.1,1.1c-0.5,0.3-1.1,0.6-1.7,0.7c-0.7,0.2-1.5,0.3-2.2,0.2c-0.8,0-1.6-0.1-2.3-0.3c-0.5-0.1-1-0.4-1.4-0.7
		c-0.3-0.3-0.6-0.6-0.7-1c-0.1-0.4-0.2-0.8-0.2-1.2c0-0.6,0.2-1.1,0.5-1.6c0.3-0.4,0.6-0.7,1-0.9c-0.4-0.1-0.7-0.3-1-0.5
		c-0.2-0.3-0.4-0.7-0.4-1.1c0-0.3,0-0.6,0.1-0.8c0.1-0.2,0.2-0.4,0.4-0.6c0.2-0.1,0.4-0.3,0.6-0.3
		C235.3,119.8,235.5,119.8,235.6,119.7L235.6,119.7z M236.9,123.5c-0.2,0.1-0.3,0.1-0.5,0.3c-0.2,0.1-0.3,0.3-0.4,0.5
		c-0.1,0.2-0.2,0.4-0.3,0.6c-0.1,0.2-0.1,0.4-0.1,0.6c0,0.3,0,0.6,0.1,0.8c0.1,0.3,0.3,0.5,0.5,0.7c0.3,0.2,0.6,0.4,1,0.5
		c0.5,0.1,1.1,0.2,1.6,0.2c0.8,0.1,1.7-0.2,2.4-0.6c0.5-0.3,0.9-0.9,0.8-1.6c0-0.2,0-0.5-0.1-0.7c-0.1-0.2-0.2-0.5-0.4-0.7
		c-0.2-0.2-0.5-0.4-0.8-0.5c-0.4-0.1-0.9-0.2-1.3-0.2H236.9z M241.4,116.8c0-0.3,0-0.6-0.1-0.9c-0.1-0.3-0.2-0.6-0.4-0.8
		c-0.2-0.3-0.5-0.5-0.8-0.6c-0.4-0.2-0.8-0.2-1.3-0.2c-0.7-0.1-1.4,0.2-2,0.7c-0.5,0.5-0.7,1.2-0.7,1.8c0,0.7,0.2,1.3,0.6,1.8
		c0.5,0.5,1.1,0.7,1.7,0.7c0.4,0,0.8,0,1.1-0.2c0.3-0.1,0.6-0.2,0.9-0.4c0.3-0.2,0.5-0.5,0.6-0.8
		C241.3,117.5,241.4,117.2,241.4,116.8L241.4,116.8z"/>
	<path class="st1" d="M213.9,68.8c0.1,0,0.1-0.1,0.1-0.2c1.1-4.4,10.6-37.4,14.2-49.6c0.3-0.9,0.9-3.5,1.1-3.8
		c0.4-1.2,1.5-2.1,2.8-2.2c0.6-0.1,1.2-0.1,1.8-0.1h6.9c0.7,0,1.4,0.1,2,0.3c1.8,0.5,2.8,2.4,2.2,4.2c0,0,0,0,0,0l0,0
		c-1.4,5.3-23,73.1-23.4,73.9c-0.8,1.5-2.3,2.5-4,2.6h-7.6c-0.4,0-0.8-0.1-1.1-0.1c-1.1-0.2-2.2-0.9-2.8-1.9c-0.6-1-1-2-1.4-3.1
		c0,0-22.4-70.7-22.6-71.3c-0.6-1.7,0.4-3.6,2.1-4.2c0.5-0.2,1.1-0.3,1.7-0.3h8.2c0.5,0,1,0.1,1.5,0.2c0.9,0.2,1.7,0.8,2,1.6
		C197.8,15.2,213.8,68.5,213.9,68.8z"/>
	<path class="st1" d="M88.9,34.1c0-2.4,0.2-4.7,0.8-7c0.7-3.1,2.1-5.9,4.1-8.3c2.2-2.5,5.1-4.3,8.3-5.1c1.6-0.4,3.3-0.7,5-0.7H132
		c0.7,0,1.3,0.1,2,0.2c1.4,0.3,2.6,1.4,2.9,2.8c0.2,0.9,0.4,1.8,0.4,2.7v5.1c0,1-0.1,2-0.5,3c-0.4,1.2-1.4,2.1-2.7,2.4
		c-0.7,0.2-1.4,0.3-2.1,0.3h-19.3c-2.4-0.1-4.6,1.2-5.8,3.3c-0.5,0.9-0.8,1.9-0.9,3V88c0,0.8,0,1.6-0.2,2.4
		c-0.2,1.7-1.5,3.1-3.2,3.3c-0.8,0.2-1.7,0.2-2.5,0.2h-6.2c-0.8,0-1.6-0.2-2.4-0.5c-1.1-0.4-1.9-1.4-2.2-2.5
		c-0.2-0.7-0.3-1.4-0.3-2.2v-2.5C88.9,77.6,88.9,42.8,88.9,34.1z"/>
	<path class="st1" d="M175.5,68.5c0.5-2.9,1.4-5.7,2.1-8.6c0.9-3.3,1.9-6.7,2.8-10c0.2-0.6,0.5-1.2,1-1.7c0.5-0.5,1.2-0.8,1.9-0.8
		c0.3,0,0.5,0.1,0.8,0.3c0.7,0.3,1.2,0.9,1.4,1.5c1.3,4.4,5.1,15.5,5.1,15.5c0.5,1,0.6,2.2,0.4,3.2c-0.2,0.7-7.5,23.4-7.7,23.8
		c-0.5,1-1.4,1.7-2.5,1.9c-0.9,0.2-1.8,0.3-2.6,0.2h-6.5c-0.5,0-0.9-0.1-1.4-0.2c-1.1-0.2-2.1-0.9-2.7-1.8c-0.6-0.9-1-1.9-1.4-3
		L162,75.8l-16.3-52c-0.4-1.4-0.9-2.6-1.2-3.9c-0.2-1-0.6-1.9-0.7-2.9c-0.3-1.2,0.2-2.4,1.2-3.1c0.6-0.5,1.4-0.8,2.2-0.8
		c0.5-0.1,1-0.1,1.5-0.1h6.8c0.6,0,1.2,0.1,1.8,0.2c0.9,0.1,1.7,0.6,2.2,1.4c0.7,1,1.2,2,1.5,3.1c3.5,11.9,7,23.8,10.4,35.7
		c1.4,4.8,2.7,9.6,4,14.4l0.2,0.6c0,0.1,0.1,0.2,0.1,0.3l0,0L175.5,68.5L175.5,68.5z"/>
	<path class="st1" d="M65,94c-0.7,0-1.3-0.1-2-0.3c-1.4-0.3-2.7-1.2-3.4-2.5c-0.5-0.8-1.1-1.6-1.6-2.4l-19-26.7
		c-0.6-0.9-1.3-1.7-2-2.5c-1-1.4-1.6-2.9-1.8-4.6c-0.1-1.2-0.1-2.3-0.1-3.5c0.1-2.1,1-4,2.4-5.5c1.3-1.5,2.6-3.1,3.7-4.8l16-22.5
		c0.5-0.8,1.1-1.5,1.7-2.3c0.8-1.2,1.9-2.1,3.2-2.7c0.9-0.4,1.9-0.6,2.9-0.6h8.8c0.7,0,1.4,0.1,2.1,0.3c1.1,0.2,2,1.2,1.9,2.4
		c-0.1,1.6-0.5,3.1-1.3,4.4c-0.1,0.1-0.2,0.3-0.3,0.4L53.1,52c-0.2,0.2-0.3,0.5-0.6,0.6c-0.1,0-0.1,0.1,0,0.2c0,0.1,0.1,0.2,0.2,0.2
		l24.6,34c0.2,0.3,0.4,0.5,0.6,0.8c0.9,1.1,1.3,2.6,1,4c-0.1,0.7-0.6,1.3-1.3,1.6c-0.5,0.2-1.1,0.4-1.7,0.4C75.4,93.9,66.7,94,65,94
		z"/>
	<path class="st1" d="M13.1,19.1c0-0.9,0.1-1.9,0.3-2.8c0.3-1.4,1.3-2.5,2.7-2.9c0.8-0.3,1.6-0.4,2.5-0.4h6c0.9,0,1.8,0.2,2.7,0.4
		c1.3,0.4,2.3,1.4,2.6,2.7c0.2,0.7,0.3,1.3,0.3,2V19c0,23,0,45.9,0,68.9c0,0.9-0.1,1.9-0.3,2.8c-0.3,1.3-1.3,2.4-2.6,2.8
		c-0.6,0.3-1.3,0.4-1.9,0.5c-2.5,0.1-5,0.1-7.5,0c-0.6,0-1.2-0.1-1.8-0.3c-1.3-0.3-2.3-1.4-2.5-2.7c-0.2-1-0.3-2-0.2-3L13.1,19.1z"
		/>
	<path class="st1" d="M122.1,47.5h5.2c0.7,0,1.3,0.1,2,0.3c1.1,0.3,2.1,1.1,2.5,2.2c0.3,0.7,0.4,1.4,0.5,2.2c0,0.9,0,1.7,0,2.6
		c0,1.2,0,2.5-0.1,3.7c-0.1,0.7-0.2,1.3-0.4,1.9c-0.4,1.5-1.6,2.6-3.1,2.8c-0.6,0.1-1.2,0.2-1.8,0.2H117c-0.7,0-1.4-0.1-2.1-0.3
		c-1.4-0.3-2.4-1.3-2.8-2.6c-0.2-0.6-0.3-1.3-0.4-2c-0.1-2.1-0.1-4.2,0-6.3c0-0.5,0.1-1,0.3-1.6c0.3-1.5,1.6-2.7,3.1-2.9
		c0.6-0.1,1.2-0.2,1.8-0.2H122.1z"/>
	<path class="st1" d="M175.5,68.5v0.2h-0.1c-0.1-0.1-0.1-0.2-0.1-0.3L175.5,68.5z"/>
</g>
</svg>
