<?xml version="1.0" encoding="utf-8"?>
<!-- Generator: Adobe Illustrator 22.0.1, SVG Export Plug-In . SVG Version: 6.00 Build 0)  -->
<svg version="1.1" id="Layer_1" xmlns="http://www.w3.org/2000/svg" xmlns:xlink="http://www.w3.org/1999/xlink" x="0px" y="0px"
	 viewBox="0 0 520.9 168.3" style="enable-background:new 0 0 520.9 168.3;" xml:space="preserve">
<style type="text/css">
	.st0{fill:#002D62;}
	.st1{display:none;}
</style>
<g id="Layer_1_1_">
	<g>
		<path class="st0" d="M105,4c31.3,0,43.3,16.9,36.6,38.7c-6.4,21.1-29.4,37.8-50,42.3l20.4,43.6c6.1,12.5,17,25,27.7,33.6h-21.5
			c-12.4,0-19.2-3.1-23.5-12l-17.3-36.2L66.1,80c19.6-2.8,43.9-11.8,50.8-34.4c5.3-17.4-6.2-27.4-22-26.7
			c-5.4,0.2-10.8,0.9-16.5,1.9L45.8,128.7c-3.3,11.1-10.1,28.6,0.6,32.9l-0.2,0.7H1.5l0.2-0.7c13.2-4.4,17-22.1,20.3-32.9L49.5,38
			c3.3-11.1,10.3-28.6-0.2-33.2l0.2-0.7H105V4z"/>
		<path class="st0" d="M198.9,48.9c3.8,0,9.5,0.6,13-2h0.5L195,103.7c-2.1,7-4.7,12.5,0.7,15.9l-0.1,0.5H176l3-9.8
			c-7.8,8.3-14.3,11.7-24.6,11.7c-17.2,0-23.8-10-17.3-31.3l7-23.1c2.1-7,5.4-14.6,0.1-18.4l0.1-0.5h10.2c3.2,0,8.3-0.1,10.9-2h0.5
			l-12.5,41.4c-4.1,13.8-2.4,20.2,8.3,20.2c8.6,0,18.4-5.9,21.9-17.5l7-23.1c2.2-7.1,5.4-14.6,0.1-18.5l0.1-0.5h8V48.9z"/>
		<path class="st0" d="M234.4,48.9c3.3,0,10.4-0.1,13.1-2h0.5l-3.4,10.6c5.3-6.7,12.6-10.6,20-10.6l5.9,0.5l-4.9,16.1
			c-1-1.8-3.6-2.4-6-2.4c-11.1,0-17.6,6-22.3,21.5l-6.3,21c-2.1,7-4.7,12.5,0.7,16.2l-0.1,0.5h-26.7l0.1-0.5
			c7.6-3.8,7.7-9.3,9.8-16.2l10.9-35.9c2.1-7,6.1-14.5,0.9-18.3l0.1-0.5H234.4z"/>
		<path class="st0" d="M309.8,122c-9.4-0.6-19.6-3.7-16-15.6l7.2-23c-4.9,2.2-8.8,2.7-14,3.9c-7.5,1.7-15.8,3.3-18.7,12.5
			c-2.9,9.3,5.9,10.9,13.7,10.9c3.6,0,6.5-0.1,10.3-1.2l-12.6,11.8c-2.6,0.5-5.4,0.7-7.8,0.7c-14.7,0-23.5-11.1-19.7-23.5
			c8.5-28,48.2-15,53.1-31.4c2.2-7.2-4.2-8.1-9.6-8.1c-7.5,0-14.1,2.8-21.7,6l14.3-17.2l9.8-0.9c15.7,0,27.8,4.6,22.4,22.8
			l-7.6,24.7c-3.6,11.9-3.9,14.9,7.8,16.3L309.8,122z"/>
		<path class="st0" d="M359.6,19.1c3.3,0,8.5,0.1,11.5-2.4h0.5l-26.3,86.8c-2.1,7-4.8,12.5,0.5,16.2l-0.1,0.5h-26.3l0.1-0.5
			c7.5-3.8,8.3-9.3,10.3-16.2L349.7,38c2.1-7,5.4-14.6,0.2-18.4l0.1-0.5H359.6z"/>
		<path class="st0" d="M428.7,66.3h-0.5c-2.8-5-10.4-7.6-17-7.3c-14.3,0.4-24.2,8.5-29.8,22.3c-6.8,16.6,4.9,29.2,21.1,29.2
			c7.5,0,17.4-2.7,24.4-7.1h0.5l-13.3,15.7c-6.9,2.4-14.7,3-21.1,3c-22.5,0-36.4-16.4-29.5-36.9c8.5-25.6,31.2-38.2,53.2-38.2
			c5.3,0,11.4,0.5,17.2,2.1L428.7,66.3z"/>
		<path class="st0" d="M434.1,85.6c7-23.7,30.2-38.8,51.6-38.7c9.3,0.1,16.3,2.8,21.7,8.9c5.7,6.5,7.6,17.9,4.5,28.2
			c-6.5,21.6-29.5,38.1-50.1,38.1C441.2,122,427.8,106.9,434.1,85.6z M494.2,86.5c4.4-13.6,1.3-28.1-14-27.7
			c-11.7,0.2-23.9,9.7-28.1,23.1c-4.2,13.8-2.1,28.1,12.9,28.1C478.5,110,490.1,99.6,494.2,86.5z"/>
	</g>
</g>
<g id="Square_Logo_Guides" class="st1">
</g>
<g id="Horizontal_Logo_Guides">
</g>
</svg>
