<?xml version="1.0" encoding="utf-8"?>
<!-- Generator: Adobe Illustrator 22.0.0, SVG Export Plug-In . SVG Version: 6.00 Build 0)  -->
<svg version="1.1" id="Layer_1" xmlns="http://www.w3.org/2000/svg" xmlns:xlink="http://www.w3.org/1999/xlink" x="0px" y="0px"
	 viewBox="0 0 401.5 63.2" style="enable-background:new 0 0 401.5 63.2;" xml:space="preserve">
<style type="text/css">
	.st0{fill:#FFFFFF;}
</style>
<g>
	<path class="st0" d="M326,1c35.1,1.3,60.2,10.6,61.2,19.7c1.4,12.6-42.6,30.4-101.1,41c73.1-9.8,115.3-25.6,113.8-39.5
		C398.8,11.4,376.4,0.2,326,1z"/>
	<path class="st0" d="M307.2,2.2c35.1,1.3,60.2,8.8,61.2,17.9c1.4,12.6-42.6,30.4-101.1,41c73.1-9.8,115.3-25.6,113.8-39.5
		C379.9,10.7,357.5,1.3,307.2,2.2z"/>
	<path class="st0" d="M288,3.3c35.1,1.3,60.2,7,61.2,16.1c1.4,12.6-42.6,30.4-101.1,41c73.1-9.8,115.3-25.6,113.8-39.5
		C360.7,10,338.3,2.5,288,3.3z"/>
	<g>
		<path class="st0" d="M22.2,14.9H8.1c-0.3,0-0.6,0-0.8,0.1c-0.2,0.1-0.3,0.2-0.5,0.3c-0.3,0.3-0.4,0.6-0.4,1c0,0.4,0.2,0.8,0.5,1
			c0.1,0.1,0.3,0.2,0.4,0.2c0.2,0,0.4,0.1,0.7,0.1h8.6c1.1,0,2,0.2,2.8,0.5c0.8,0.3,1.4,0.8,1.9,1.3c0.5,0.5,0.9,1.2,1.2,1.9
			c0.3,0.7,0.4,1.4,0.4,2.2c0,0.7-0.1,1.4-0.4,2.1c-0.3,0.7-0.6,1.2-1.1,1.8c-0.5,0.6-1.2,1.1-2,1.5c-0.8,0.4-1.8,0.6-2.9,0.6H1.5
			v-5h14.3c0.4,0,0.7,0,0.9-0.1c0.2-0.1,0.4-0.2,0.5-0.4c0.2-0.3,0.3-0.6,0.3-0.9c0-0.4-0.1-0.8-0.4-1c-0.1-0.2-0.3-0.3-0.5-0.3
			c-0.2-0.1-0.5-0.1-0.9-0.1h-8c-1.3,0-2.4-0.2-3.2-0.5c-0.8-0.3-1.5-0.8-2-1.3s-0.9-1.2-1.2-1.8C1.1,17.1,1,16.4,1,15.6
			c0-0.8,0.1-1.5,0.5-2.2c0.3-0.7,0.7-1.3,1.2-1.9s1.2-1,2-1.3c0.8-0.3,1.8-0.5,3.2-0.5h14.4V14.9z"/>
		<path class="st0" d="M49.5,28.5c0.1,0.2,0.1,0.3,0.2,0.4c0,0.1,0.1,0.3,0.1,0.4h-5.9c0-0.1-0.1-0.3-0.1-0.4c0-0.1-0.1-0.2-0.1-0.3
			l-1-2.4H31l-1,2.4c0,0.1-0.1,0.2-0.1,0.3c0,0.1-0.1,0.2-0.1,0.3h-6.1c0-0.2,0.1-0.3,0.1-0.4c0-0.1,0.1-0.3,0.2-0.4l7-15.6
			c0.6-1.2,1.3-2.1,2.2-2.7c0.9-0.6,2.1-0.9,3.5-0.9c1.4,0,2.5,0.3,3.4,0.9c0.9,0.6,1.7,1.5,2.2,2.7L49.5,28.5z M40.7,22l-3-7
			c-0.1-0.2-0.2-0.4-0.4-0.5c-0.2-0.1-0.3-0.1-0.5-0.1c-0.2,0-0.3,0-0.5,0.1c-0.2,0.1-0.3,0.2-0.4,0.5l-3,7H40.7z"/>
		<path class="st0" d="M70.6,9.7v5.2H62v14.4h-5.3V14.9h-8.6V9.7H70.6z"/>
		<path class="st0" d="M79.3,29.3c-1.2,0-2.3-0.1-3.2-0.4c-0.9-0.2-1.6-0.6-2.1-1.1c-0.6-0.5-1-1.2-1.2-1.9
			c-0.3-0.8-0.4-1.7-0.4-2.8V9.7h5.3v12.8c0,1.2,0.6,1.8,1.9,1.8h8.2c1.3,0,1.9-0.6,1.9-1.8V9.7H95v13.4c0,2.2-0.5,3.8-1.6,4.8
			c-1.1,1-2.8,1.5-5.3,1.5H79.3z"/>
		<path class="st0" d="M103.8,29.3h-5.3V10.9c0-0.8,0.4-1.2,1.3-1.2h13.9c1.2,0,2.2,0.2,3,0.5c0.8,0.3,1.5,0.8,2,1.4
			c0.5,0.5,0.9,1.1,1.1,1.8c0.3,0.7,0.4,1.4,0.4,2.1c0,0.8-0.1,1.5-0.4,2.3c-0.3,0.7-0.8,1.3-1.5,1.8c0.7,0.4,1.1,0.9,1.4,1.5
			c0.3,0.6,0.5,1.5,0.5,2.6v3.9c0,0.4,0,0.8,0,1c0,0.3,0,0.5,0.1,0.8h-5.3c-0.1-0.4-0.1-0.9-0.1-1.3v-3.9c0-0.6-0.2-1.1-0.5-1.3
			c-0.3-0.3-0.9-0.4-1.7-0.4h-9.1V29.3z M113,17.9c0.4,0,0.7-0.1,0.9-0.2c0.2-0.1,0.4-0.3,0.6-0.5c0.3-0.3,0.4-0.6,0.4-1
			c0-0.4-0.1-0.8-0.4-1.1c-0.3-0.3-0.8-0.5-1.4-0.5h-8.9c-0.3,0-0.4,0.1-0.4,0.4v2.8H113z"/>
		<path class="st0" d="M148,25.5c0,0.7-0.1,1.4-0.3,1.9s-0.5,1-0.8,1.3c-0.3,0.3-0.7,0.6-1.2,0.8c-0.4,0.2-0.9,0.2-1.4,0.2
			c-0.8,0-1.6-0.1-2.2-0.4s-1.2-0.6-1.6-1.2l-10.8-12.5c-0.2-0.2-0.3-0.3-0.5-0.3c-0.1,0-0.3,0-0.3,0.1c-0.1,0.1-0.1,0.2-0.1,0.4
			v13.3h-5.2V13.9c0-0.8,0.1-1.5,0.3-2.1c0.2-0.6,0.5-1.1,0.9-1.4c0.4-0.4,0.9-0.6,1.5-0.8c0.6-0.2,1.2-0.2,1.8-0.2
			c0.9,0,1.7,0.1,2.4,0.4c0.6,0.3,1.3,0.8,1.9,1.5l9.6,11.5c0.1,0.1,0.2,0.2,0.2,0.2c0.1,0,0.2,0,0.3,0c0.3,0,0.4-0.2,0.4-0.5V9.7
			h5.1V25.5z"/>
		<path class="st0" d="M177.7,29.8c-0.7,0-1.3-0.1-1.9-0.4c-0.6-0.3-1.1-0.7-1.4-1.4l-6-12.3c-0.1-0.2-0.2-0.2-0.4-0.2
			c-0.1,0-0.2,0-0.3,0.1c-0.1,0.1-0.1,0.2-0.1,0.4v13.4h-5.1V15c0-1.1,0.2-2,0.5-2.7s0.8-1.3,1.4-1.8c0.4-0.3,1-0.6,1.5-0.9
			c0.6-0.2,1.2-0.3,1.9-0.3c1.2,0,2.3,0.3,3,1c0.8,0.7,1.4,1.6,1.9,2.6l4.4,9.6c0.1,0.3,0.3,0.4,0.5,0.4c0.2,0,0.4-0.1,0.5-0.4
			l4.4-9.6c0.5-1.1,1.1-2,1.9-2.6c0.8-0.7,1.8-1,3.1-1c0.7,0,1.3,0.1,1.9,0.3c0.6,0.2,1.1,0.5,1.5,0.9c0.6,0.5,1,1.1,1.4,1.8
			c0.3,0.7,0.5,1.6,0.5,2.7v14.4h-5.1V15.9c0-0.2,0-0.3-0.1-0.4c-0.1-0.1-0.2-0.1-0.3-0.1c-0.2,0-0.3,0.1-0.4,0.2L181,28
			c-0.3,0.6-0.8,1.1-1.4,1.4C179,29.6,178.4,29.8,177.7,29.8z"/>
		<path class="st0" d="M217,9.7v5.2H202c-0.3,0-0.5,0.2-0.5,0.5v2.2h15.3v3.8h-15.3v2.4c0,0.3,0.2,0.5,0.5,0.5H217v5h-17.9
			c-1.8,0-2.8-0.9-2.8-2.7V12.4c0-1.8,0.9-2.6,2.8-2.6H217z"/>
		<path class="st0" d="M241.2,9.7v5.2h-8.6v14.4h-5.3V14.9h-8.6V9.7H241.2z"/>
		<path class="st0" d="M265.2,28.5c0.1,0.2,0.1,0.3,0.2,0.4c0,0.1,0.1,0.3,0.1,0.4h-5.9c0-0.1-0.1-0.3-0.1-0.4
			c0-0.1-0.1-0.2-0.1-0.3l-1-2.4h-11.6l-1,2.4c0,0.1-0.1,0.2-0.1,0.3c0,0.1-0.1,0.2-0.1,0.3h-6.1c0-0.2,0.1-0.3,0.1-0.4
			c0-0.1,0.1-0.3,0.2-0.4l7-15.6c0.6-1.2,1.3-2.1,2.2-2.7c0.9-0.6,2.1-0.9,3.5-0.9c1.4,0,2.5,0.3,3.4,0.9c0.9,0.6,1.7,1.5,2.2,2.7
			L265.2,28.5z M256.4,22l-3-7c-0.1-0.2-0.2-0.4-0.4-0.5c-0.2-0.1-0.3-0.1-0.5-0.1c-0.2,0-0.3,0-0.5,0.1c-0.2,0.1-0.3,0.2-0.4,0.5
			l-3,7H256.4z"/>
		<path class="st0" d="M273,29.3c-1.2,0-2.2-0.1-3-0.4c-0.8-0.3-1.5-0.7-2-1.2c-0.5-0.5-0.8-1.2-1.1-2c-0.2-0.8-0.3-1.7-0.3-2.8V9.7
			h5.3v12.8c0,0.7,0.1,1.2,0.4,1.5c0.2,0.3,0.7,0.4,1.4,0.4h13.6v5H273z"/>
		<path class="st0" d="M309.7,14.9h-14.1c-0.3,0-0.6,0-0.8,0.1c-0.2,0.1-0.3,0.2-0.5,0.3c-0.3,0.3-0.4,0.6-0.4,1
			c0,0.4,0.2,0.8,0.5,1c0.1,0.1,0.3,0.2,0.4,0.2c0.2,0,0.4,0.1,0.7,0.1h8.6c1.1,0,2,0.2,2.8,0.5c0.8,0.3,1.4,0.8,1.9,1.3
			c0.5,0.5,0.9,1.2,1.2,1.9c0.3,0.7,0.4,1.4,0.4,2.2c0,0.7-0.1,1.4-0.4,2.1c-0.3,0.7-0.6,1.2-1.1,1.8c-0.5,0.6-1.2,1.1-2,1.5
			c-0.8,0.4-1.8,0.6-2.9,0.6H289v-5h14.3c0.4,0,0.7,0,0.9-0.1c0.2-0.1,0.4-0.2,0.5-0.4c0.2-0.3,0.3-0.6,0.3-0.9c0-0.4-0.1-0.8-0.4-1
			c-0.1-0.2-0.3-0.3-0.5-0.3c-0.2-0.1-0.5-0.1-0.9-0.1h-8c-1.3,0-2.4-0.2-3.2-0.5c-0.8-0.3-1.5-0.8-2-1.3c-0.5-0.5-0.9-1.2-1.2-1.8
			c-0.3-0.7-0.4-1.4-0.4-2.3c0-0.8,0.1-1.5,0.5-2.2c0.3-0.7,0.7-1.3,1.2-1.9c0.5-0.5,1.2-1,2-1.3c0.8-0.3,1.8-0.5,3.2-0.5h14.4V14.9
			z"/>
	</g>
</g>
</svg>
