<svg xmlns="http://www.w3.org/2000/svg" xmlns:xlink="http://www.w3.org/1999/xlink" viewBox="0 0 147.78522 72.00195"><defs><linearGradient id="linear-gradient" x1="-132.01866" y1="1537.44046" x2="-84.44381" y2="1585.01535" gradientTransform="matrix(1, 0, 0, -1, 225.8477, 1613.58887)" gradientUnits="userSpaceOnUse"><stop offset="0" stop-color="#fff"/><stop offset="0.46999" stop-color="#0377aa"/><stop offset="0.89999" stop-color="#16264e"/><stop offset="1" stop-color="#16264e"/></linearGradient><linearGradient id="linear-gradient-2" x1="-138.31999" y1="1651.52258" x2="-78.0103" y2="1651.52258" gradientTransform="matrix(1, 0, 0, -1, 225.79552, 1669)" gradientUnits="userSpaceOnUse"><stop offset="0" stop-color="#16264e"/><stop offset="0.09999" stop-color="#16264e"/><stop offset="0.53" stop-color="#0377aa"/><stop offset="1" stop-color="#fff"/></linearGradient><linearGradient id="linear-gradient-3" x1="-130.37991" y1="1599.23291" x2="-130.37991" y2="1669" gradientTransform="matrix(1, 0, 0, -1, 225.8477, 1669)" xlink:href="#linear-gradient-2"/></defs><title>Asset 1</title><g id="Layer_2" data-name="Layer 2"><g id="Layer_1-2" data-name="Layer 1"><polygon points="127.804 29.519 147.785 34.955 87.448 69.767 127.804 29.519" fill="url(#linear-gradient)"/><polygon points="93.485 20.18 87.476 0 147.785 34.955 93.485 20.18" fill="url(#linear-gradient-2)"/><polygon points="103.488 53.769 87.448 69.767 87.476 0 103.488 53.769" fill="url(#linear-gradient-3)"/><path d="M57.623,46.1394l5.18918-3.215c9.134-5.63062,12.20651-9.87085,12.20651-16.68311,0-9.42957-7.38226-16.15491-17.61813-16.15491-6.138,0-11.1221,2.40857-13.90262,6.65234-1.97073,3.069-2.56158,5.47424-2.56158,11.32031h9.53027c-.01736-6.69421,2.485-10.07947,7.08688-10.07947a7.3069,7.3069,0,0,1,7.51089,7.53528,10.33382,10.33382,0,0,1-2.996,7.23633c-1.46329,1.39026-3.92059,2.99951-9.13754,6.50293C46.03864,43.88025,41.628,48.52026,41.13446,54.547L22.66132,31.42346l20.4404-20.44031H31.15933L9.74228,32.29932,9.72491,10.98315H.02432V59.64233H9.718l.02777-15.33105,6.63159-6.62817L33.89468,59.64233H74.81708V52.21143H52.13837S52.691,49.21887,57.623,46.1394Z" fill="#16264e"/><path d="M3.92746,66.87524,3.1976,64.89063a3.90037,3.90037,0,0,1-.12167-.41,3.39855,3.39855,0,0,1-.12164.41l-.79938,1.98462ZM0,69.23523H.54568L2.76663,63.7959h.77853L5.561,69.23523h.57349v.53528H4.11865v-.53528h.63254l-.6395-1.81775H1.94983L1.2547,69.23523h.71942v.53528H0Z" fill="#647882"/><path d="M9.67624,66.59033h-.6326l-.03476-.62561a1.51387,1.51387,0,0,0-.77505-.15991c-.44489,0-1.01837.146-1.01837.67432,0,.47607.42752.62207,1.074.7334,1.11917.18762,1.59186.53162,1.59186,1.25464,0,.78552-.52832,1.41113-1.80386,1.41113a4.329,4.329,0,0,1-1.51193-.26758L6.53076,68.4845h.63257l.03473.657a2.65391,2.65391,0,0,0,.99753.19458c.46225,0,1.01837-.19458,1.01837-.73328,0-.438-.45184-.59094-.93146-.69519-1.17828-.25366-1.76566-.46228-1.76566-1.32068,0-.69519.46921-1.32776,1.73785-1.32776a4.613,4.613,0,0,1,1.39023.26758Z" fill="#647882"/><path d="M13.6246,66.59033H12.992l-.03476-.62561a1.50094,1.50094,0,0,0-.77161-.15991c-.44833,0-1.0184.146-1.0184.67432,0,.47607.42755.62207,1.074.7334,1.12265.18762,1.59189.53162,1.59189,1.25464,0,.78552-.52832,1.41113-1.80389,1.41113a4.34275,4.34275,0,0,1-1.51538-.2677l-.03131-1.1261h.636l.03131.657a2.69166,2.69166,0,0,0,1.001.19458c.45877,0,1.01489-.19458,1.01489-.73328,0-.438-.45184-.59094-.93149-.69519-1.17477-.25366-1.76913-.46228-1.76913-1.32068,0-.69519.46921-1.32776,1.73782-1.32776a4.63273,4.63273,0,0,1,1.39029.26758Z" fill="#647882"/><path d="M17.55212,67.09082a1.19214,1.19214,0,0,0-1.1713-1.28589A1.29982,1.29982,0,0,0,15.074,67.09082Zm-2.47815.53882a1.51126,1.51126,0,0,0,1.67526,1.66479,3.01279,3.01279,0,0,0,1.32422-.34753l-.02435.60474a3.96078,3.96078,0,0,1-1.45279.30933,2.31467,2.31467,0,0,1-.212-4.61218c1.73782,0,1.90466,1.58142,1.90466,2.36694Z" fill="#647882"/><path d="M18.567,65.37036h.69516l.03473-1.0741.69513-.04163-.03476,1.11572H21.3475v.53516H19.95721c0,.73694-.03476,1.47717-.03476,2.21057,0,.629,0,1.17822.67429,1.17822a2.35123,2.35123,0,0,0,.87241-.18066l-.02783.55615a2.57341,2.57341,0,0,1-.994.205c-1.22687,0-1.22687-.87927-1.22687-1.4458s.02777-1.88733.03473-2.52686h-.6951Z" fill="#647882"/><path d="M23.638,63.7959h1.61273l1.929,4.77551a2.83322,2.83322,0,0,1,.09387.36841h.0174a3.45,3.45,0,0,1,.09381-.36841l1.92206-4.77551h1.6474v.53516h-.775l.04858,4.90417h.72644v.53528H28.88281v-.53528h.643V64.85242a3.69431,3.69431,0,0,1-.146.45886l-1.80737,4.45923h-.65l-1.82819-4.494a2.43785,2.43785,0,0,1-.11816-.36841h-.0174v4.33069h.72644v.53516H23.66931v-.53516h.69507l.05219-4.90417h-.74384Z" fill="#647882"/><path d="M34.24573,67.7511c-1.04269,0-2.08539,0-2.08539.82727a.75077.75077,0,0,0,.82718.75769C33.46021,69.33948,34.24573,69.07544,34.24573,67.7511Zm-1.99152-1.08435h-.62915V65.624a4.126,4.126,0,0,1,1.54669-.34753c1.13306,0,1.73785.41711,1.73785,1.58826,0,.38586-.05215,1.5885-.05215,2.381H35.49V69.781H34.22488v-.17737a4.35,4.35,0,0,1,.08685-.775H34.2944a1.42161,1.42161,0,0,1-1.47717,1.04272,1.22081,1.22081,0,0,1-1.36942-1.26526c0-1.23022,1.31729-1.34851,2.78058-1.34851v-.31628c0-.82715-.31635-1.14343-1.008-1.14343a2.73466,2.73466,0,0,0-.98361.17725Z" fill="#647882"/><path d="M38.99695,69.23523h.563c0-.69507.03476-1.39026.03476-2.10974,0-.424-.01736-1.27905-1.001-1.27905-.62567,0-1.30685.37537-1.30685,1.57458v1.81775h.6395V69.774H36.01135v-.53528H36.564l.03473-3.32971h-.69513v-.53528h1.40765a5.14984,5.14984,0,0,1-.02435.52832l-.06949.44141a1.61945,1.61945,0,0,1,1.564-1.074c1.213,0,1.5119.82019,1.5119,1.65784,0,.75427-.03473,1.63013-.03473,2.31482h.64993v.53528H38.99695Z" fill="#647882"/><path d="M44.18954,67.7511c-1.04266,0-2.08539,0-2.08539.82727a.75081.75081,0,0,0,.82718.75769C43.40753,69.33948,44.18954,69.07544,44.18954,67.7511Zm-1.98462-1.08435h-.63257V65.624a4.126,4.126,0,0,1,1.54669-.34753c1.13654,0,1.73782.41711,1.73782,1.58826,0,.38586-.05209,1.5885-.05209,2.381h.63257V69.781H44.17563v-.17737a4.81373,4.81373,0,0,1,.087-.775,1.42176,1.42176,0,0,1-1.47726,1.04272A1.22079,1.22079,0,0,1,41.416,68.60608c0-1.23022,1.31726-1.34851,2.78052-1.34851v-.31628c0-.82715-.31284-1.14343-1.00452-1.14343a2.697,2.697,0,0,0-.9801.17725Z" fill="#647882"/><path d="M46.50439,66.87537a1.11227,1.11227,0,0,0,1.13654,1.08789,1.1331,1.1331,0,0,0,1.23383-1.1123,1.1933,1.1933,0,0,0-2.37036.02441Zm.83414,3.00293c-.08337,0-.96625.25037-.96625.83069,0,.69519,1.04272.77515,1.47025.77515.54565,0,1.425-.15991,1.425-.8689,0-.39282-.34753-.504-.75421-.56311ZM50.067,65.90564h-.39627c-.11816,0-.46921-.03479-.58737-.04175a1.39068,1.39068,0,0,1,.42056,1.04272,1.66222,1.66222,0,0,1-1.86295,1.57092c-.17728,0-.79245.10437-.79245.41711,0,.22253.205.28149.76114.365l1.17825.19812c.69516.10779,1.18872.34753,1.18872,1.067,0,1.01489-1.04269,1.47717-2.16187,1.47717s-2.10278-.34753-2.10278-1.20605c0-.66382.53873-.95581,1.11221-1.08093v-.01733c-.3476-.08-.67429-.27454-.67429-.69519s.44489-.56995.80286-.66382v-.01746a1.41091,1.41091,0,0,1-1.1087-1.484,1.66909,1.66909,0,0,1,1.82819-1.59888,3.338,3.338,0,0,1,.76117.10437h1.64053Z" fill="#647882"/><path d="M53.32712,67.09082a1.19205,1.19205,0,0,0-1.16782-1.28589,1.29637,1.29637,0,0,0-1.30688,1.28589Zm-2.47812.53882a1.5118,1.5118,0,0,0,1.67178,1.66479,3.0173,3.0173,0,0,0,1.3277-.34753l-.02777.60474a3.95078,3.95078,0,0,1-1.45282.30933,2.31467,2.31467,0,0,1-.212-4.61218c1.73782,0,1.90118,1.58142,1.90118,2.36694Z" fill="#647882"/><path d="M54.49146,69.23535h.563l.03476-3.32971h-.69513v-.53528h1.41113a4.85607,4.85607,0,0,1-.02432.52832l-.06955.44141h.02084a1.61606,1.61606,0,0,1,1.56406-1.074,1.23736,1.23736,0,0,1,1.33121,1.0426h.02084a1.48754,1.48754,0,0,1,1.49106-1.0426c1.213,0,1.51535.82019,1.51535,1.65784,0,.75427-.03821,1.63013-.03821,2.31482h.65V69.774H60.35489v-.53528h.53876c0-.71594.03476-1.425.03476-2.134,0-.63953-.13556-1.2583-.95584-1.2583-.57346,0-1.25467.37549-1.26166,1.57458l-.01736,1.81775h.6326V69.774H57.418v-.53528h.563c0-.71594.03479-1.425.03479-2.134,0-.63953-.13556-1.2583-.95581-1.2583-.57,0-1.25473.37549-1.26514,1.57458v1.81775h.63947V69.774H54.52274Z" fill="#647882"/><path d="M65.74561,67.09082a1.19214,1.19214,0,0,0-1.17126-1.28589,1.29632,1.29632,0,0,0-1.30341,1.28589Zm-2.47467.53882a1.51025,1.51025,0,0,0,1.67184,1.66479A2.98851,2.98851,0,0,0,66.267,68.9469l-.02435.60474a3.93786,3.93786,0,0,1-1.45285.30933,2.31467,2.31467,0,0,1-.212-4.61218c1.73779,0,1.90466,1.58142,1.90466,2.36694Z" fill="#647882"/><path d="M69.906,69.23535h.563c0-.69519.03473-1.39026.03473-2.10974,0-.42407-.01733-1.27905-.9975-1.27905-.62555,0-1.30688.37537-1.30688,1.57446v1.81775h.63953V69.774H66.92737v-.53528H67.494l.03119-3.32959h-.69507V65.3739h1.36249a4.81969,4.81969,0,0,1-.02789.52832l-.066.44141h.0174a1.61282,1.61282,0,0,1,1.56055-1.074c1.21307,0,1.512.82019,1.512,1.65784,0,.75427-.03479,1.63013-.03479,2.31482h.65v.53528H69.89215Z" fill="#647882"/><path d="M71.88718,65.37036h.6951l.03479-1.0741.69516-.04163-.03479,1.11572h1.39029v.53516H73.27744c-.01736.73694-.03476,1.47717-.03476,2.21057,0,.629,0,1.17822.67429,1.17822a2.34083,2.34083,0,0,0,.86893-.18079l-.02432.55627a2.57739,2.57739,0,0,1-.9906.205c-1.23041,0-1.23041-.87927-1.23041-1.4458s.02435-1.88733.03482-2.52686h-.69516Z" fill="#647882"/></g></g></svg>