<?xml version="1.0" encoding="UTF-8"?>
<svg width="189px" height="41px" viewBox="0 0 189 41" version="1.1" xmlns="http://www.w3.org/2000/svg" xmlns:xlink="http://www.w3.org/1999/xlink">
    <!-- Generator: Sketch 43.1 (39012) - http://www.bohemiancoding.com/sketch -->
    <title>Page 1</title>
    <desc>Created with Sketch.</desc>
    <defs>
        <polygon id="path-1" points="0 26.8073014 0 0.497428169 25.8030521 0.497428169 25.8030521 26.8073014 3.40341887e-16 26.8073014"></polygon>
        <polygon id="path-3" points="0 40.5026296 188.756259 40.5026296 188.756259 0.577291549 0 0.577291549"></polygon>
    </defs>
    <g id="Symbols" stroke="none" stroke-width="1" fill="none" fill-rule="evenodd">
        <g id="global_growth_logo">
            <g id="Page-1">
                <g id="Group-3" transform="translate(0.000000, 0.080094)">
                    <mask id="mask-2" fill="white">
                        <use xlink:href="#path-1"></use>
                    </mask>
                    <g id="Clip-2"></g>
                    <path d="M21.807546,12.2309352 C23.4088601,9.4267662 24.7935155,6.09017465 25.8030521,2.1189493 C23.442857,1.00848451 21.0728662,0.497428169 18.292607,0.497428169 C8.18917409,0.497428169 -5.76219512e-05,8.70551268 -5.76219512e-05,18.8296254 C-5.76219512e-05,21.6898085 0.653375305,24.395231 1.81849116,26.8073014 C4.51980823,26.3863296 15.0767259,24.0227662 21.807546,12.2309352" id="Fill-1" fill="#F5811F" mask="url(#mask-2)"></path>
                </g>
                <path d="M34.3582985,10.1382028 C33.0963777,12.2199634 31.6373899,14.0516817 30.0447192,15.6512592 C20.1441155,25.5957803 5.18833811,26.8061465 1.85145091,26.9522451 C4.82589604,33.0450761 11.0686582,37.2420901 18.2927223,37.2420901 C25.4994997,37.2420901 31.7313137,33.0641324 34.711521,26.9938225 C35.8864326,24.6042732 36.5554235,21.9202169 36.5807771,19.0819775 C36.583082,19.0248085 36.5853869,18.9687944 36.5853869,18.9093155 C36.5853869,15.7321042 35.7775271,12.7437239 34.3582985,10.1382028" id="Fill-4" fill="#F5811F"></path>
                <path d="M51.0653223,31.2303352 C50.3122034,31.5000113 49.4248253,31.635138 48.3213649,31.635138 C46.4400082,31.635138 44.691182,30.9346732 43.4281088,29.667138 C42.0832125,28.3193352 41.3571759,26.4876169 41.3571759,24.4653352 C41.3571759,22.3910817 42.0561302,20.5328 43.3739442,19.2375465 C44.6375936,17.9717437 46.3322552,17.2978423 48.3213649,17.2978423 C49.3170723,17.2978423 50.6343101,17.5132366 51.387429,17.8371944 L51.4410174,17.8371944 L51.1990052,20.0737155 L51.1194869,20.0465746 C50.2044503,19.6694901 49.2634838,19.4535183 48.4296942,19.4535183 C47.1654686,19.4535183 46.0625845,19.992293 45.2829595,21.0167155 C44.5569229,21.9331521 44.1541454,23.1458282 44.1541454,24.4653352 C44.1541454,26.0025465 44.6652521,27.4034761 45.5791363,28.2921944 C46.3322552,29.0740817 47.3550448,29.4517437 48.5910357,29.4517437 C50.7691454,29.4517437 51.8991119,28.1853634 51.8991119,28.1853634 L51.0653223,31.2303352 Z" id="Fill-6" fill="#6C6E70"></path>
                <path d="M62.8429034,24.4395225 C62.8429034,22.930607 62.3052905,21.4742408 61.390254,20.5323958 C60.6647936,19.8053676 59.7232509,19.4265507 58.7021899,19.4265507 C56.0123973,19.4265507 54.5609003,22.0147479 54.5609003,24.4395225 C54.5609003,25.9767338 55.072007,27.4590859 55.9858912,28.3478042 C56.7113515,29.0736775 57.6258119,29.4247761 58.7021899,29.4247761 C59.8044979,29.4247761 60.6918759,29.0736775 61.4179125,28.3478042 C62.3052905,27.4590859 62.8429034,25.9767338 62.8429034,24.4395225 M65.666379,24.4395225 C65.666379,26.3792268 64.9680009,28.1589732 63.7302814,29.4796352 C62.4401259,30.8534239 60.6647936,31.6081704 58.7021899,31.6081704 C56.8196808,31.6081704 55.0979369,30.9065507 53.8072052,29.6413254 C52.4899674,28.2923676 51.7374247,26.4340859 51.7374247,24.4395225 C51.7374247,22.3641141 52.4634613,20.5058324 53.754193,19.2105789 C55.0178424,17.9447761 56.7384338,17.2714521 58.7021899,17.2714521 C60.6918759,17.2714521 62.3859613,17.9176352 63.6496107,19.184593 C64.9409186,20.4786915 65.666379,22.3641141 65.666379,24.4395225" id="Fill-8" fill="#6C6E70"></path>
                <path d="M79.1661649,23.1723338 L79.1661649,31.3117 L76.5305369,31.3117 L76.5305369,24.2238972 C76.5305369,20.9086718 75.7503357,19.5885873 73.7341436,19.454038 C71.1250216,19.454038 69.7000308,21.4203056 69.7000308,24.9520803 L69.7000308,31.3117 L67.0655552,31.3117 L67.0655552,17.5934465 L69.6193601,17.5934465 L69.6193601,19.642869 C70.3989851,18.2136437 72.0936466,17.2977845 74.0297442,17.2977845 C75.5895704,17.2977845 76.8261375,17.7285732 77.6875857,18.5913056 C78.6539058,19.5614465 79.1661649,21.1246437 79.1661649,23.1723338" id="Fill-10" fill="#6C6E70"></path>
                <path d="M88.4689409,31.3375127 C87.9584104,31.4726394 87.2865384,31.6354845 86.5875841,31.6354845 C85.1896756,31.6354845 84.0867915,31.2855408 83.3878372,30.5556254 C82.715389,29.8823014 82.3656238,28.8855972 82.3656238,27.6192169 L82.3656238,19.7766676 L79.946078,19.7766676 L79.946078,19.3995831 L84.8664165,14.414907 L85.0006756,14.414907 L85.0006756,17.621569 L88.5766939,17.621569 L88.5766939,19.7766676 L85.0006756,19.7766676 L85.0006756,27.1347239 C85.0006756,27.8611746 85.2161817,28.4819493 85.6466177,28.913893 C85.9963829,29.2632592 86.4798311,29.479231 87.0180201,29.479231 C88.1474104,29.479231 89.1690476,28.6713577 89.1690476,28.6713577 L88.4689409,31.3375127 Z" id="Fill-12" fill="#6C6E70"></path>
                <path d="M99.1447326,24.8443831 C98.9038729,24.8443831 98.6618607,24.8160873 98.4198485,24.8160873 C98.150754,24.7895239 97.8822357,24.7895239 97.6402235,24.7895239 C96.8600223,24.7895239 95.7571381,24.8709465 94.7885131,25.1949042 C93.6066869,25.5979746 93.0154857,26.3261577 93.0154857,27.3234394 C93.0154857,27.8350732 93.2021808,28.3195662 93.5796046,28.6978056 C94.0365466,29.1551577 94.7625832,29.4519746 95.4609613,29.4519746 C96.5909277,29.4519746 97.5589765,29.1008761 98.2049186,28.454693 C98.8226259,27.8350732 99.1447326,26.9723408 99.1447326,25.9767915 L99.1447326,24.8443831 Z M102.076538,31.3114113 L99.5757448,31.3114113 C99.5215802,30.8263408 99.4420619,30.2875662 99.4149796,29.6413831 C98.9038729,30.314707 97.5849064,31.6082282 95.244879,31.6082282 C93.5254399,31.6082282 92.1546137,31.1774394 91.2937418,30.314707 C90.5677052,29.5871014 90.2179399,28.5898197 90.2179399,27.3234394 C90.2179399,26.2181718 90.5947875,25.3023127 91.3196716,24.5735521 C92.9607448,22.9035239 95.7571381,22.7689746 96.5638454,22.7689746 C97.5059643,22.7689746 98.2049186,22.7689746 99.1447326,22.8221014 C99.1188027,21.582862 98.8767905,20.746693 98.3391777,20.2084958 C97.8274948,19.696862 97.0207875,19.4537493 95.8654674,19.4537493 C93.2286869,19.4537493 91.6158485,21.1249324 91.6158485,21.1249324 L91.9120253,18.483031 C93.3099338,17.6745803 94.7625832,17.2715099 96.2676686,17.2715099 C98.150754,17.2715099 99.4944979,17.728862 100.409534,18.6187352 C101.351653,19.5617352 101.781513,20.9626648 101.781513,22.9572282 L101.781513,28.5626789 C101.781513,29.8036507 101.995291,30.6912141 102.076538,31.2045803 L102.076538,31.3114113 Z" id="Fill-14" fill="#6C6E70"></path>
                <path d="M116.19501,23.1723338 L116.19501,31.3117 L113.55823,31.3117 L113.55823,24.2238972 C113.55823,20.9086718 112.778029,19.5885873 110.761837,19.454038 C108.153867,19.454038 106.730029,21.4203056 106.730029,24.9520803 L106.730029,31.3117 L104.093248,31.3117 L104.093248,17.5934465 L106.649358,17.5934465 L106.649358,19.642869 C107.428983,18.2136437 109.121916,17.2977845 111.05859,17.2977845 C112.618416,17.2977845 113.854983,17.7285732 114.716431,18.5913056 C115.683904,19.5614465 116.19501,21.1246437 116.19501,23.1723338" id="Fill-16" fill="#6C6E70"></path>
                <path d="M125.741988,25.0586803 C126.306107,24.4927648 126.627638,23.7120324 126.627638,22.8504549 C126.627638,22.1216944 126.332613,21.4200746 125.767918,20.8553141 C125.149058,20.2351169 124.289339,19.8851732 123.401961,19.8851732 C121.572464,19.8851732 120.093308,21.2329761 120.093308,22.9035817 C120.093308,23.7651592 120.389485,24.4927648 120.927674,25.0326944 C121.545381,25.6523141 122.406253,25.9768493 123.427891,25.9768493 C124.341775,25.9768493 125.149058,25.6523141 125.741988,25.0586803 M123.32129,40.5023986 C120.76518,40.5023986 118.587647,39.7724831 117.295763,38.4801169 C116.544948,37.7259479 115.765323,36.4318493 116.383031,34.3038915 L119.556848,33.8442296 L119.556848,34.1144831 C118.991577,34.6255394 118.829659,35.2457366 118.829659,35.7048211 C118.829659,36.2967225 119.017506,36.8089338 119.421436,37.2137366 C120.147473,37.9147789 121.492369,38.2907085 123.401961,38.2907085 C125.283894,38.2907085 126.65472,37.9147789 127.380756,37.1865958 C127.971381,36.5946944 128.241628,35.7856662 127.353674,35.0314972 C125.202647,33.1437648 118.561141,34.222469 118.561141,30.3413282 C118.561141,29.3446239 119.690531,28.3190465 120.95418,28.023962 L121.19504,27.9696803 L121.19504,27.7271451 L120.981262,27.6728634 C119.851296,27.1883704 118.963342,26.514469 118.399223,25.7060183 C117.86161,24.8975676 117.566009,23.9268493 117.566009,22.7961732 C117.566009,21.3940887 118.049458,20.1814127 118.936259,19.2921169 C120.120967,18.1065817 122.002323,17.4603986 124.341775,17.4603986 L131.010363,17.4603986 L130.446244,19.6154972 L127.272427,19.6154972 L127.542674,19.8580324 C128.751583,21.0707085 129.156089,22.201962 129.156089,23.2263845 C129.156089,27.2155113 125.418153,28.1319479 123.777656,28.3473423 C122.4875,28.5355958 121.250357,28.6713 121.250357,29.6143 C121.250357,30.4487366 123.13229,31.0689338 126.198354,31.6619901 C128.994747,32.2273282 130.661174,33.6011169 130.661174,35.8647789 C130.661174,38.6683704 127.730522,40.5023986 123.32129,40.5023986" id="Fill-18" fill="#6C6E70"></path>
                <path d="M141.391649,24.4395225 C141.391649,22.930607 140.854036,21.4742408 139.939,20.5323958 C139.213539,19.8053676 138.271997,19.4265507 137.249783,19.4265507 C134.561143,19.4265507 133.10907,22.0147479 133.10907,24.4395225 C133.10907,25.9767338 133.620177,27.4590859 134.534637,28.3478042 C135.259521,29.0736775 136.174558,29.4247761 137.249783,29.4247761 C138.353244,29.4247761 139.240622,29.0736775 139.966082,28.3478042 C140.854036,27.4590859 141.391649,25.9767338 141.391649,24.4395225 M144.214548,24.4395225 C144.214548,26.3792268 143.51617,28.1589732 142.279027,29.4796352 C140.987143,30.8534239 139.213539,31.6081704 137.249783,31.6081704 C135.36785,31.6081704 133.647259,30.9065507 132.355951,29.6413254 C131.039289,28.2923676 130.285594,26.4340859 130.285594,24.4395225 C130.285594,22.3641141 131.009902,20.5058324 132.302363,19.2105789 C133.566012,17.9447761 135.286603,17.2714521 137.249783,17.2714521 C139.240622,17.2714521 140.935283,17.9176352 142.19778,19.184593 C143.488512,20.4786915 144.214548,22.3641141 144.214548,24.4395225" id="Fill-20" fill="#6C6E70"></path>
                <mask id="mask-4" fill="white">
                    <use xlink:href="#path-3"></use>
                </mask>
                <g id="Clip-23"></g>
                <polygon id="Fill-22" fill="#6C6E70" mask="url(#mask-4)" points="151.96522 40.5026296 152.251024 40.5026296 152.251024 8.40598169 151.96522 8.40598169"></polygon>
                <path d="M161.118178,16.0797958 C160.714825,16.5163592 160.173755,16.7427254 159.584858,16.7427254 C159.019587,16.7427254 158.503294,16.5325282 158.115498,16.1444718 C157.575005,15.6028099 157.575005,15.0363169 157.575005,13.8149789 C157.575005,12.5936408 157.575005,12.0271479 158.115498,11.4854859 C158.503294,11.0968521 159.01152,10.8866549 159.584858,10.8866549 C160.68198,10.8866549 161.424727,11.5980915 161.594136,12.6092324 L160.981038,12.6092324 C160.81912,11.8810493 160.302828,11.4369789 159.584858,11.4369789 C159.205706,11.4369789 158.842111,11.5905845 158.591456,11.8492887 C158.228438,12.2211761 158.188102,12.6092324 158.188102,13.8149789 C158.188102,15.0201479 158.228438,15.4168662 158.591456,15.7887535 C158.842111,16.0468803 159.205706,16.1929789 159.584858,16.1929789 C160.004346,16.1929789 160.408276,16.0226268 160.673913,15.6998239 C160.908434,15.4168662 160.997172,15.100993 160.997172,14.6557676 L160.997172,14.2192042 L159.584858,14.2192042 L159.584858,13.6775423 L161.61027,13.6775423 L161.61027,14.591669 C161.61027,15.2545986 161.47313,15.6998239 161.118178,16.0797958" id="Fill-24" fill="#F5811F" mask="url(#mask-4)"></path>
                <polygon id="Fill-25" fill="#F5811F" mask="url(#mask-4)" points="163.035895 16.694507 163.035895 10.9348732 163.649568 10.9348732 163.649568 16.1447606 166.587712 16.1447606 166.587712 16.694507"></polygon>
                <path d="M170.151975,11.8491732 C169.90132,11.590469 169.538877,11.4368634 169.159149,11.4368634 C168.779996,11.4368634 168.416402,11.590469 168.166323,11.8491732 C167.803304,12.221638 167.762969,12.6091169 167.762969,13.8148634 C167.762969,15.0200324 167.803304,15.4080887 168.166323,15.7805535 C168.416402,16.0392577 168.779996,16.1928634 169.159149,16.1928634 C169.538877,16.1928634 169.90132,16.0392577 170.151975,15.7805535 C170.514993,15.4080887 170.555329,15.0200324 170.555329,13.8148634 C170.555329,12.6091169 170.514993,12.221638 170.151975,11.8491732 M170.627932,16.1443563 C170.240713,16.5324127 169.731911,16.7431873 169.159149,16.7431873 C168.58581,16.7431873 168.077585,16.5324127 167.690365,16.1443563 C167.149295,15.6026944 167.149295,15.0367789 167.149295,13.8148634 C167.149295,12.5935254 167.149295,12.0276099 167.690365,11.4853704 C168.077585,11.0967366 168.58581,10.8865394 169.159149,10.8865394 C169.731911,10.8865394 170.240713,11.0967366 170.627932,11.4853704 C171.169002,12.0276099 171.169002,12.5935254 171.169002,13.8148634 C171.169002,15.0367789 171.169002,15.6026944 170.627932,16.1443563" id="Fill-26" fill="#F5811F" mask="url(#mask-4)"></path>
                <path d="M174.789908,14.0333183 L173.22432,14.0333183 L173.22432,16.1445296 L174.789908,16.1445296 C175.499811,16.1445296 175.944076,15.7316423 175.944076,15.0848817 C175.944076,14.4375437 175.499811,14.0333183 174.789908,14.0333183 M174.725372,11.4855437 L173.22432,11.4855437 L173.22432,13.4835718 L174.725372,13.4835718 C175.363247,13.4835718 175.855914,13.1676986 175.855914,12.4805155 C175.855914,11.7927549 175.363247,11.4855437 174.725372,11.4855437 M174.846954,16.6942761 L172.610646,16.6942761 L172.610646,10.9352197 L174.77435,10.9352197 C175.774667,10.9352197 176.469012,11.5097972 176.469012,12.472431 C176.469012,13.078769 176.105417,13.5563324 175.621393,13.7336141 C176.17053,13.9363042 176.557173,14.4132901 176.557173,15.1010507 C176.557173,16.1445296 175.863405,16.6942761 174.846954,16.6942761" id="Fill-27" fill="#F5811F" mask="url(#mask-4)"></path>
                <path d="M179.64669,11.8170662 L178.564549,14.8585732 L180.71212,14.8585732 L179.64669,11.8170662 Z M181.349418,16.6943338 L180.889019,15.3921507 L178.379583,15.3921507 L177.919184,16.6943338 L177.265174,16.6943338 L179.3799,10.9352775 L179.896769,10.9352775 L182.003427,16.6943338 L181.349418,16.6943338 Z" id="Fill-28" fill="#F5811F" mask="url(#mask-4)"></path>
                <polygon id="Fill-29" fill="#F5811F" mask="url(#mask-4)" points="182.928433 16.694507 182.928433 10.9348732 183.542106 10.9348732 183.542106 16.1447606 186.48025 16.1447606 186.48025 16.694507"></polygon>
                <path d="M161.118178,25.7810887 C160.714825,26.2176521 160.173755,26.4440183 159.584858,26.4440183 C159.019587,26.4440183 158.503294,26.2338211 158.115498,25.8457648 C157.575005,25.3041028 157.575005,24.7376099 157.575005,23.5162718 C157.575005,22.2949338 157.575005,21.7284408 158.115498,21.1867789 C158.503294,20.7981451 159.01152,20.5879479 159.584858,20.5879479 C160.68198,20.5879479 161.424727,21.2993845 161.594136,22.3105254 L160.981038,22.3105254 C160.81912,21.5823423 160.302828,21.1382718 159.584858,21.1382718 C159.205706,21.1382718 158.842111,21.2918775 158.591456,21.5505817 C158.228438,21.922469 158.188102,22.3105254 158.188102,23.5162718 C158.188102,24.7214408 158.228438,25.1181592 158.591456,25.489469 C158.842111,25.7487507 159.205706,25.8942718 159.584858,25.8942718 C160.004346,25.8942718 160.408276,25.7239197 160.673913,25.4011169 C160.908434,25.1181592 160.997172,24.8022859 160.997172,24.3570606 L160.997172,23.9204972 L159.584858,23.9204972 L159.584858,23.3788352 L161.61027,23.3788352 L161.61027,24.292962 C161.61027,24.9558915 161.47313,25.4011169 161.118178,25.7810887" id="Fill-30" fill="#F5811F" mask="url(#mask-4)"></path>
                <path d="M165.183234,21.1867789 L163.649914,21.1867789 L163.649914,23.2974127 L165.183234,23.2974127 C165.852801,23.2974127 166.329335,22.9503563 166.329335,22.2464268 C166.329335,21.5424972 165.852801,21.1867789 165.183234,21.1867789 L165.183234,21.1867789 Z M166.337402,26.3960887 L165.029384,23.8396521 L163.649914,23.8396521 L163.649914,26.3960887 L163.035664,26.3960887 L163.035664,20.6364549 L165.239704,20.6364549 C166.240597,20.6364549 166.943009,21.2433704 166.943009,22.2377648 C166.943009,23.079131 166.434207,23.6288775 165.69146,23.7830606 L167.055948,26.3960887 L166.337402,26.3960887 Z" id="Fill-31" fill="#F5811F" mask="url(#mask-4)"></path>
                <path d="M171.113109,21.5504662 C170.862454,21.291762 170.500012,21.1381563 170.120283,21.1381563 C169.74113,21.1381563 169.377536,21.291762 169.127457,21.5504662 C168.764438,21.922931 168.724103,22.3104099 168.724103,23.5161563 C168.724103,24.7213254 168.764438,25.1093817 169.127457,25.4818465 C169.377536,25.7405507 169.74113,25.8941563 170.120283,25.8941563 C170.500012,25.8941563 170.862454,25.7405507 171.113109,25.4818465 C171.476127,25.1093817 171.516463,24.7213254 171.516463,23.5161563 C171.516463,22.3104099 171.476127,21.922931 171.113109,21.5504662 M171.589066,25.8456493 C171.201847,26.2337056 170.693045,26.4444803 170.120283,26.4444803 C169.546945,26.4444803 169.038719,26.2337056 168.651499,25.8456493 C168.110429,25.3039873 168.110429,24.7380718 168.110429,23.5161563 C168.110429,22.2948183 168.110429,21.7289028 168.651499,21.1866634 C169.038719,20.7980296 169.546945,20.5878324 170.120283,20.5878324 C170.693045,20.5878324 171.201847,20.7980296 171.589066,21.1866634 C172.130137,21.7289028 172.130137,22.2948183 172.130137,23.5161563 C172.130137,24.7380718 172.130137,25.3039873 171.589066,25.8456493" id="Fill-32" fill="#F5811F" mask="url(#mask-4)"></path>
                <polygon id="Fill-33" fill="#F5811F" mask="url(#mask-4)" points="177.954045 26.3958 177.381283 26.3958 176.106109 21.7853211 174.830359 26.3958 174.257597 26.3958 172.788237 20.6361662 173.442246 20.6361662 174.564145 25.2795606 175.831252 20.6361662 176.380389 20.6361662 177.647496 25.2795606 178.769395 20.6361662 179.423405 20.6361662"></polygon>
                <polygon id="Fill-34" fill="#F5811F" mask="url(#mask-4)" points="182.066927 21.1867789 182.066927 26.3960887 181.453829 26.3960887 181.453829 21.1867789 179.79086 21.1867789 179.79086 20.6364549 183.729896 20.6364549 183.729896 21.1867789"></polygon>
                <polygon id="Fill-35" fill="#F5811F" mask="url(#mask-4)" points="188.142528 26.3958 188.142528 23.7666028 185.414705 23.7666028 185.414705 26.3958 184.800455 26.3958 184.800455 20.6361662 185.414705 20.6361662 185.414705 23.2168563 188.142528 23.2168563 188.142528 20.6361662 188.755625 20.6361662 188.755625 26.3958"></polygon>
                <polygon id="Fill-36" fill="#F5811F" mask="url(#mask-4)" points="157.792527 36.097093 157.792527 30.3374592 158.406201 30.3374592 158.406201 35.5473465 161.344345 35.5473465 161.344345 36.097093"></polygon>
                <polygon id="Fill-37" fill="#F5811F" mask="url(#mask-4)" points="162.414384 36.0971507 163.028058 36.0971507 163.028058 30.3375169 162.414384 30.3375169"></polygon>
                <polygon id="Fill-38" fill="#F5811F" mask="url(#mask-4)" points="169.000112 36.097093 169.000112 31.7210648 167.426457 35.1916282 166.901521 35.1916282 165.303664 31.7210648 165.303664 36.097093 164.68999 36.097093 164.68999 30.3374592 165.303664 30.3374592 167.175801 34.4230225 169.000112 30.3374592 169.61321 30.3374592 169.61321 36.097093"></polygon>
                <polygon id="Fill-39" fill="#F5811F" mask="url(#mask-4)" points="171.272607 36.0971507 171.88628 36.0971507 171.88628 30.3375169 171.272607 30.3375169"></polygon>
                <polygon id="Fill-40" fill="#F5811F" mask="url(#mask-4)" points="175.234404 30.8880718 175.234404 36.0973817 174.621306 36.0973817 174.621306 30.8880718 172.958337 30.8880718 172.958337 30.3377479 176.897373 30.3377479 176.897373 30.8880718"></polygon>
                <polygon id="Fill-41" fill="#F5811F" mask="url(#mask-4)" points="177.968105 36.097093 177.968105 30.3374592 181.53548 30.3374592 181.53548 30.8877831 178.581778 30.8877831 178.581778 32.9181493 181.100434 32.9181493 181.100434 33.4678958 178.581778 33.4678958 178.581778 35.5473465 181.53548 35.5473465 181.53548 36.097093"></polygon>
                <path d="M185.802788,31.3081775 C185.50373,31.0009662 185.117087,30.8877831 184.672822,30.8877831 L183.421849,30.8877831 L183.421849,35.5473465 L184.672822,35.5473465 C185.117087,35.5473465 185.50373,35.4341634 185.802788,35.1263746 C186.198651,34.7134873 186.181941,33.8565296 186.181941,33.1526 C186.181941,32.4492479 186.198651,31.7210648 185.802788,31.3081775 M186.230343,35.562938 C185.883459,35.9111493 185.375234,36.097093 184.777694,36.097093 L182.808176,36.097093 L182.808176,30.3374592 L184.777694,30.3374592 C185.375234,30.3374592 185.883459,30.5239803 186.230343,30.8716141 C186.827883,31.4698676 186.795615,32.3522338 186.795615,33.1526 C186.795615,33.9535437 186.827883,34.9646845 186.230343,35.562938" id="Fill-42" fill="#F5811F" mask="url(#mask-4)"></path>
            </g>
        </g>
    </g>
</svg>