<?xml version="1.0" encoding="UTF-8"?>
<svg width="157px" height="58px" viewBox="0 0 157 58" version="1.1" xmlns="http://www.w3.org/2000/svg" xmlns:xlink="http://www.w3.org/1999/xlink">
    <!-- Generator: Sketch 47.1 (45422) - http://www.bohemiancoding.com/sketch -->
    <title>cs-logo-vert</title>
    <desc>Created with Sketch.</desc>
    <defs></defs>
    <g id="Symbols" stroke="none" stroke-width="1" fill="none" fill-rule="evenodd">
        <g id="logo-/-cs-logo-vert" fill-rule="nonzero">
            <g id="cs-logo-vert">
                <path d="M111.462028,28.1407823 L111.353737,28.1407823 L109.296211,28.345358 C106.710766,28.5772104 103.989959,28.7681476 101.174396,28.9181697 L99.536497,29 C98.7649246,29 99.0356518,28.6999557 99.3199153,28.6317639 C99.6041788,28.563572 107.184539,27.7725462 108.863047,27.5816089 C119.462015,26.2177714 126.527994,23.62648 126.527994,20.7624212 C126.527994,16.3163107 110.013638,12.7157796 89.654956,12.7157796 C72.3419548,12.7157796 59.319979,14.8297278 53.2421545,16.5345247 C49.966356,17.8028937 48.6397929,16.8618457 50.6973193,15.9889897 C58.8191337,13.4522519 73.1405999,11.3928571 89.654956,11.3928571 C115.035626,11.3928571 135.678571,15.3889012 135.678571,20.3123548 C135.678571,23.7083103 125.878249,26.6678378 111.475564,28.1680591" id="Shape" fill="#DBE5EB"></path>
                <g id="Group" transform="translate(18.642857, 0.000000)">
                    <path d="M70.9146667,16.3533835 C87.6554,16.3533835 101.229333,18.4929511 101.229333,21.1231203 C101.229333,22.8947368 94.7333333,24.5300752 85.26,25.2796053 L85.26,25.2796053 L83.9066667,25.375 C82.2014667,25.4976504 80.5233333,25.6475564 78.6692667,25.7156955 L77.5866,25.7156955 C77.2482667,25.7156955 77.343,25.4840226 77.4242,25.4703947 C77.5054,25.4567669 82.5262667,25.0479323 83.636,24.9525376 C90.6192,24.1893797 95.2882,22.8402256 95.2882,21.2730263 C95.2882,18.9017857 84.4615333,16.9666353 70.9282,16.9666353 C62.4022,16.9666353 55.2295333,17.6071429 50.8853333,18.7791353 C50.4116667,18.9290414 49.7214667,18.4111842 50.8853333,17.9614662 C57.4866933,16.715015 64.2005705,16.1759821 70.9146667,16.3533835" id="Shape" fill="#DBE5EB"></path>
                    <path d="M28.3117333,1.68984962 L28.4335333,1.68984962 L30.7206667,1.48543233 C33.6438667,1.21287594 36.7294667,0.994830827 39.9233333,0.831296992 L41.7774,0.722274436 C42.6570667,0.722274436 42.3593333,1.07659774 42.021,1.14473684 C41.6826667,1.21287594 33.1025333,2.13956767 31.1943333,2.35761278 C19.2038,3.95206767 11.1920667,6.89567669 11.1920667,10.2481203 C11.1920667,15.3858083 29.8951333,19.5559211 52.983,19.5559211 C72.5928,19.5559211 87.3576667,17.1029135 94.2461333,15.1405075 C97.9678,13.6823308 99.4564667,14.7725564 97.1287333,15.7673872 C87.9666667,18.7109962 71.7266667,21.0958647 52.983,21.0958647 C24.2111333,21.0958647 0.8932,16.4760338 0.8932,10.7659774 C0.8932,6.82753759 11.9905333,3.40695489 28.3252667,1.6762218" id="Shape" fill="#004270"></path>
                </g>
                <path d="M72.7974385,15.5013542 C53.7874291,15.5013542 38.3214286,13.1440813 38.3214286,10.2557745 C38.3214286,8.24820695 45.6674394,6.51263244 56.4759876,5.65779723 L56.557459,5.65779723 L58.0782598,5.55418084 C60.0199965,5.4117083 61.9209974,5.25628372 64.0392556,5.17857143 L65.2613276,5.17857143 C65.6551064,5.17857143 65.5328992,5.4376124 65.4378491,5.45056445 C65.3427991,5.4635165 59.6397963,5.9168382 58.3769885,6.03340664 C50.4335203,6.86233775 45.1242962,8.36477539 45.1242962,10.0744458 C45.1242962,12.6648555 57.5079595,14.8148956 72.7838599,14.8148956 C82.4789647,14.8148956 90.6396902,14.115485 95.5822926,12.8202801 C96.1118572,12.6519035 96.9401504,13.2217936 95.5822926,13.7139715 C88.0771985,15.0921911 80.4377535,15.6914756 72.7974385,15.5013542" id="Shape" fill="#004270"></path>
                <path d="M15.5357143,42.538144 C14.0182165,41.0448779 11.930245,40.1947538 9.74367787,40.179898 C5.40182891,40.179898 1.88206488,43.5184212 1.88206488,47.6366982 C1.88206488,51.7549752 5.40182891,55.0934984 9.74367787,55.0934984 C11.9148323,55.0397205 13.9780787,54.1841217 15.494045,52.7089033 L15.494045,55.1988949 C13.8467002,56.3360041 11.8643762,56.953537 9.82701652,56.9642857 C6.3161617,56.9642858 3.07199802,55.1877132 1.31657058,52.3037857 C-0.43885686,49.4198581 -0.43885686,45.8667129 1.31657058,42.9827853 C3.07199802,40.0988578 6.3161617,38.3222852 9.82701652,38.3222853 C11.8706917,38.2950812 13.8653386,38.9164529 15.494045,40.0876761 L15.5357143,42.538144 Z" id="Shape" fill="#A0ACB6"></path>
                <polygon id="Shape" fill="#A0ACB6" points="22.793531 56.0770718 27.9642857 56.0770718 27.9642857 58 20.7142857 58 20.7142857 39.3571429 22.793531 39.3571429"></polygon>
                <polygon id="Shape" fill="#A0ACB6" points="32.1071429 39.3571429 41.4285714 39.3571429 41.4285714 41.2800711 34.1055309 41.2800711 34.1055309 46.8170133 41.2182148 46.8170133 41.2182148 48.7535793 34.1055309 48.7535793 34.1055309 56.063434 41.4285714 56.063434 41.4285714 58 32.1071429 58"></polygon>
                <path d="M51.0093442,51.9165337 L48.8148934,56.9642857 L46.6071429,56.9642857 L54.9992548,38.3214286 L63.1785714,56.9642857 L60.9176221,56.9642857 L58.7763701,51.9165337 L51.0093442,51.9165337 Z M54.9992548,42.9528711 L51.8871245,50.0821703 L57.9916877,50.0821703 L54.9992548,42.9528711 Z" id="Shape" fill="#A0ACB6"></path>
                <polygon id="Shape" fill="#A0ACB6" points="67.3214286 38.3214286 81.8248299 53.1035162 81.8248299 39.0889855 83.8928571 39.0889855 83.8928571 58 69.3894558 43.2311461 69.3894558 57.1795081 67.3214286 57.1795081"></polygon>
                <path d="M99.692321,43.3496 C98.7536388,42.6150832 97.5616736,42.1991708 96.3210475,42.1732617 C95.3925187,42.1732617 94.1497188,42.6644799 94.1497188,43.6469162 C94.1497188,44.6293526 95.5782245,45.0688637 96.4067578,45.3273996 L97.706698,45.676423 C100.420859,46.4003235 102.520762,47.6412958 102.520762,50.5110442 C102.654259,52.3078309 101.888551,54.0638162 100.435144,55.2939582 C98.8603486,56.4199004 96.8988467,57.0100411 94.8925417,56.9615148 C92.4331324,56.9379535 90.0405154,56.2342894 88.0357143,54.9449348 L90.207043,51.2349447 C91.4144332,52.3220691 93.0205946,52.9705991 94.7211211,53.0576228 C95.9067808,53.0576228 97.1781509,52.5146974 97.1781509,51.2737251 C97.1781509,50.0327528 95.1782429,49.5415346 94.0925785,49.2571451 C90.9070108,48.4427571 88.8071074,47.693003 88.8071074,44.2674024 C88.7384039,42.6457876 89.4332354,41.0739383 90.7188855,39.9425743 C92.0045355,38.8112104 93.7602679,38.2265789 95.5496544,38.3340036 C97.6862999,38.3670596 99.7829911,38.8635577 101.663659,39.7818046 L99.692321,43.3496 Z" id="Shape" fill="#004270"></path>
                <polygon id="Shape" fill="#004270" points="112.440231 43.4621173 112.440231 46.5715331 117.778553 46.5715331 117.778553 50.6765075 112.440231 50.6765075 112.440231 53.8950256 118.071429 53.8950256 118.071429 58 107.714286 58 107.714286 39.3571429 118.071429 39.3571429 118.071429 43.4621173"></polygon>
                <path d="M126.30061,54.7565789 L125.074278,58 L120.142857,58 L127.005098,39.3571429 L132.06698,39.3571429 L138.785714,58 L133.841248,58 L132.680146,54.7702068 L126.30061,54.7565789 Z M129.536039,45.0808271 L129.536039,45.0808271 L127.618265,51.0089286 L131.53209,51.0089286 L129.536039,45.0808271 Z" id="Shape" fill="#004270"></path>
                <path d="M153.539703,43.3654073 C152.598346,42.6303474 151.402984,42.2141276 150.158823,42.1881993 C149.227648,42.1881993 147.981307,42.6797806 147.981307,43.6629433 C147.981307,44.6461061 149.413883,45.085942 150.244778,45.344669 L151.548422,45.6939505 C154.270317,46.4183862 156.376205,47.660276 156.376205,50.532146 C156.515987,52.3132407 155.770397,54.0580722 154.341946,55.2927234 C152.762663,56.4194979 150.795572,57.0100749 148.78355,56.9615127 C146.312231,56.9405694 143.907372,56.2362605 141.892857,54.9434419 L144.070373,51.230709 C145.275381,52.3205084 146.880707,52.9739924 148.582989,53.0676709 C149.772027,53.0676709 151.04702,52.5243441 151.04702,51.2824544 C151.04702,50.0405646 149.041413,49.5489833 147.952655,49.2643836 C144.75801,48.4493934 142.652123,47.699085 142.652123,44.2709519 C142.583591,42.6505384 143.278492,41.0797608 144.564564,39.9480097 C145.850635,38.8162586 147.607471,38.2294916 149.399557,38.3331665 C151.542292,38.3662469 153.644958,38.8631121 155.530984,39.7820379 L153.539703,43.3654073 Z" id="Shape" fill="#004270"></path>
            </g>
        </g>
    </g>
</svg>