<svg width="235" height="39" viewBox="0 0 235 39" version="1.1" xmlns="http://www.w3.org/2000/svg" xmlns:xlink="http://www.w3.org/1999/xlink"><title>Logo/Inverted</title><defs><path id="a" d="M9.663 12.333V.413H.42v11.92h9.244z"/></defs><g stroke="none" stroke-width="1" fill="none" fill-rule="evenodd"><path fill="#FEFEFE" d="M110.215 0l-6.71 38.546h1.614L111.83 0zM118.817 13.422h8.948l-.296 1.713h-3.534l-1.81 10.207h-1.881l1.81-10.207h-3.534zM133.651 15.118l-.748 4.169h2.68c1.341 0 2.055-1.056 2.247-2.076.173-1.003-.14-2.093-1.428-2.093h-2.75zm4.718 10.224h-2.245l-2.229-4.377h-1.288l-.766 4.377h-1.863l2.107-11.92h4.682c2.577 0 3.309 1.886 2.978 3.789-.314 1.748-1.498 3.443-3.743 3.685l2.367 4.446zM146.154 20.723h3.587l-.889-5-2.698 5zm3.917 1.644h-4.84l-1.653 2.975h-1.968l6.633-11.92h2.002l2.42 11.92h-1.95l-.644-2.975zM165.324 25.342H163.6l-3.656-8.529-1.497 8.53h-1.845l2.107-11.92h1.776l3.603 8.46 1.497-8.46h1.846zM172.465 21.882c-.14.969.61 1.955 2.036 1.955 1.41 0 2.264-.761 2.542-1.626.279-1.108-.452-1.678-1.55-1.938l-1.444-.38c-2.454-.692-2.576-2.145-2.385-3.201.365-2.041 2.438-3.409 4.544-3.409 2.21 0 3.673 1.35 3.273 3.53h-1.846c.21-1.09-.54-1.8-1.775-1.8-1.097 0-2.177.658-2.35 1.644-.105.467-.035 1.194 1.305 1.557l1.48.399c2.28.639 3.081 1.989 2.559 3.702-.505 1.868-2.35 3.2-4.648 3.2-2.49 0-3.935-1.695-3.586-3.633h1.845zM186.655 15.118l-.748 4.169h2.855c1.34 0 2.089-1.056 2.28-2.076.175-1.003-.173-2.093-1.462-2.093h-2.925zm-1.566-1.696h4.822c2.594 0 3.325 1.886 2.977 3.789-.348 1.903-1.724 3.754-4.317 3.754h-2.96l-.766 4.377h-1.863l2.107-11.92zM201.387 23.716c2.384 0 4.578-1.92 5.013-4.308.436-2.387-1.079-4.325-3.464-4.325-2.368 0-4.561 1.938-4.979 4.325-.435 2.387 1.062 4.308 3.43 4.308m1.862-10.432c3.43 0 5.623 2.733 5.014 6.124-.61 3.373-3.76 6.107-7.19 6.107-3.412 0-5.57-2.734-4.962-6.107.593-3.391 3.726-6.124 7.138-6.124M215.543 15.118l-.749 4.169h2.682c1.34 0 2.054-1.056 2.245-2.076.174-1.003-.139-2.093-1.427-2.093h-2.751zm4.718 10.224h-2.246l-2.228-4.377h-1.288l-.767 4.377h-1.862l2.106-11.92h4.684c2.576 0 3.307 1.886 2.977 3.789-.314 1.748-1.498 3.443-3.744 3.685l2.368 4.446z"/><g transform="translate(225.189 13.01)"><mask id="b" fill="#fff"><use xlink:href="#a"/></mask><path fill="#FEFEFE" mask="url(#b)" d="M.715.413h8.949l-.296 1.712H5.834l-1.81 10.208H2.142l1.81-10.208H.42z"/></g><path d="M75.083 26.765a1711.34 1711.34 0 0 1-8.828-2.7l-.635 3.592c2.99.665 5.979 1.34 8.966 2.022l.497-2.914z" fill="#A0A2A5"/><path d="M42.872 23.767l-5.061 4.853c3.162.471 6.305.996 9.462 1.5l4.958-4.343c-3.117-.682-6.236-1.353-9.359-2.01M28.133 10.291c1.846.616 3.695 1.228 5.543 1.84C34.447 5.972 31.361.044 22.618.044H7.923c-.756 0-1.402.539-1.533 1.279l-.264 1.492a2073.733 2073.733 0 0 0 22.007 7.476" fill="#FEFEFE"/><path d="M30.138 20.246a16.005 16.005 0 0 0 3.28-6.657c-3.12-1.028-6.24-2.058-9.354-3.102.188.734.175 1.568.013 2.39-.449 2.287-1.965 4.742-5.052 4.742h-3.068a942.09 942.09 0 0 1 14.181 2.627M43.716 22.957c3.16.651 6.316 1.313 9.47 1.987l3.672-3.196c.163-.149.325-.3.485-.456-2.984-.938-5.967-1.877-8.945-2.83l-4.682 4.495z" fill="#A0A2A5"/><path d="M11.334 25.97a579.28 579.28 0 0 0-9.118-1.028l-.637 3.606a287.4 287.4 0 0 1 9.135 1.057l.62-3.634zM62.412 11.823c.687-6.27-4.012-10.496-10.27-10.496-3.437 0-6.48.983-9.006 2.765 6.375 2.634 12.8 5.234 19.276 7.73M36.863 29.537s-3.597 3.522-3.764 3.788c7.236 1.441 14.439 3.136 21.518 5.162h2.42a.845.845 0 0 0 .837-.703l.768-4.578c-7.24-1.291-14.501-2.527-21.78-3.67M76.82 17.147l1.423-7.71C75.32 8.232 72.4 7.024 69.48 5.82l-1.44 8.142a480.297 480.297 0 0 0 8.78 3.184M71.897 4.74l8.375 3.45h4.377c2.422 0 3.355 1.477 3.43 3.217 2.938 1.212 5.875 2.43 8.812 3.647a16.17 16.17 0 0 0 .56-2.177c.123-.708.174-1.877.177-2.678C90.935 6.7 85.435 3.685 78.817.044h-7.01c-.756 0-1.402.539-1.533 1.279l-.453 2.563 2.076.854" fill="#FEFEFE"/><path d="M12.76 17.053l.187.033 1.834-9.763-8.916-3.032L3.873 15.57c2.966.476 5.928.971 8.887 1.484" fill="#A0A2A5"/><path d="M1.334 29.934l-1.32 7.469a.925.925 0 0 0 .916 1.084h7.483a.928.928 0 0 0 .917-.77l1.132-6.632a299.65 299.65 0 0 0-9.128-1.151M97.571 8.688C96.956 3.936 93.585.043 86.501.043h-5.01c5.335 2.928 10.696 5.81 16.08 8.645M64.455 34.254l-.557 3.149a.926.926 0 0 0 .916 1.084h7.483a.929.929 0 0 0 .918-.77l.304-1.788c-3.017-.565-6.04-1.123-9.064-1.675M32.644 34.45l-.633 3.262a.661.661 0 0 0 .654.775h16.817c-4.7-1.258-12.075-3.002-16.838-4.038M96.18 16.844c-2.78-1.151-5.561-2.296-8.342-3.445-.567 2.123-2.076 4.22-4.93 4.22h-4.741a372.11 372.11 0 0 0 13.92 4.555c1.788-1.48 3.155-3.329 4.093-5.33M58.103 30.453l-8.084-.022c2.834.461 5.929 1.144 8.757 1.632l.163-.63a.844.844 0 0 0-.836-.98M67.811 15.258l-1.317 7.459c3.18.99 6.364 1.971 9.552 2.937h5.851c3.635 0 6.658-1.009 9.055-2.63a525.702 525.702 0 0 1-23.14-7.766M9.896 24.757c2.457.287 4.914.589 7.37.897h.748c4.956 0 8.776-1.874 11.42-4.625a727.577 727.577 0 0 0-25.715-4.59l-1.322 7.483c2.5.263 5 .542 7.499.835M74.4 30.772c-2.987-.689-5.976-1.374-8.967-2.053l-.8 4.418c3.023.54 6.054 1.069 9.07 1.639l.696-4.004zM41.776 5.175c-2.237 1.994-3.974 4.697-5.098 7.95l6.374 2.107c.598.2 1.245-.121 1.442-.717l.152-.458c.9-2.391 2.278-4.416 5.306-4.416 2.976 0 3.593 1.618 3.368 2.957-.168 1.171-1.235 2.343-2.302 3.348l-1.45 1.392c2.944.953 5.891 1.898 8.842 2.836 1.778-2.009 3.188-4.41 3.772-6.982a639.045 639.045 0 0 1-20.406-8.017" fill="#FEFEFE"/></g></svg>