<?xml version="1.0" encoding="utf-8"?>
<!-- Generator: Adobe Illustrator 18.1.1, SVG Export Plug-In . SVG Version: 6.00 Build 0)  -->
<svg version="1.1" xmlns="http://www.w3.org/2000/svg" xmlns:xlink="http://www.w3.org/1999/xlink" x="0px" y="0px"
	 viewBox="0 0 570 126.7" enable-background="new 0 0 570 126.7" xml:space="preserve">
<g id="Layer_1" display="none">
	<path display="inline" fill-rule="evenodd" clip-rule="evenodd" fill="#58BF93" d="M339.6,34.1c8.6,0,15.6-7,15.6-15.6
		c0-8.6-7-15.6-15.6-15.6c-8.6,0-15.6,7-15.6,15.6C324,27.1,331,34.1,339.6,34.1z"/>
	<path display="inline" fill="#FFFFFF" d="M507.5,84.8c0.3,6.7,2.3,12,5.8,15.9c3.5,3.9,8.1,5.9,13.9,5.9c3.8,0,7.2-0.9,10.1-2.6
		c2.9-1.8,4.8-4.2,5.6-7.3h24c-2.7,9.1-7.5,16-14.3,20.9c-6.8,4.9-14.9,7.3-24.4,7.3c-29.3,0-44-16-44-47.9c0-6.8,0.9-13,2.9-18.4
		c1.9-5.5,4.7-10.2,8.3-14.1c3.6-3.9,8.1-6.9,13.3-9c5.3-2.1,11.3-3.1,18.1-3.1c13.6,0,23.8,4.3,30.8,13.1
		c7,8.7,10.5,21.8,10.5,39.4H507.5L507.5,84.8z M83.2,90.9c-0.6,5.1-2.1,9.8-4.4,13.9c-2.3,4.2-5.3,7.8-8.9,10.7
		c-3.6,3-7.6,5.3-12.2,7c-4.6,1.7-9.6,2.5-14.9,2.5c-6,0-11.4-1-16.4-2.9c-4.9-1.9-9.2-4.9-12.8-8.9c-3.6-4-6.3-8.9-8.3-14.8
		c-2-5.9-3-12.8-3-20.7c0-7.9,1-14.7,3-20.4c2-5.7,4.7-10.4,8.3-14c3.6-3.6,7.9-6.3,13-8.1c5.1-1.8,10.7-2.7,16.9-2.7
		c5.7,0,11,0.8,15.6,2.3c4.7,1.6,8.8,3.8,12.3,6.8c3.5,3,6.3,6.6,8.3,10.8c2,4.2,3.2,8.8,3.6,13.9H60c-0.6-4.5-2.4-8.1-5.5-10.6
		c-3-2.6-6.8-3.8-11.2-3.8c-2.5,0-4.8,0.4-7,1.3c-2.2,0.8-4,2.2-5.6,4.2c-1.6,2-2.9,4.6-3.9,7.9c-1,3.3-1.4,7.3-1.4,12.1
		c0,9.7,1.7,16.8,5.2,21.5c3.5,4.7,7.4,7,12,7c4.6,0,8.4-1.3,11.6-3.7c3.2-2.5,5.1-6.2,5.6-10.9H83.2L83.2,90.9z M89.1,122.8v-88
		H111v10.6c1.9-3,3.9-5.3,6-7c2.1-1.7,4.2-3,6.4-3.8c2.2-0.9,4.5-1.5,6.7-1.7c2.3-0.3,4.6-0.4,6.9-0.4h3.1v23.8
		c-2.1-0.4-4.3-0.5-6.4-0.5c-14.2,0-21.3,7.1-21.3,21.3v45.8H89.1L89.1,122.8z M166.8,84.8c0.3,6.7,2.3,12,5.8,15.9
		c3.5,3.9,8.1,5.9,13.9,5.9c3.8,0,7.2-0.9,10.1-2.6c2.9-1.8,4.8-4.2,5.6-7.3h24c-2.8,9.1-7.5,16-14.3,20.9
		c-6.8,4.9-14.9,7.3-24.3,7.3c-29.4,0-44.1-16-44.1-47.9c0-6.8,1-13,2.9-18.4c1.9-5.5,4.7-10.2,8.3-14.1c3.6-3.9,8.1-6.9,13.3-9
		c5.2-2.1,11.3-3.1,18.1-3.1c13.6,0,23.9,4.3,30.9,13.1c7,8.7,10.5,21.8,10.5,39.4H166.8L166.8,84.8z M203.5,70.1
		c-0.1-3.2-0.7-6-1.7-8.5c-1-2.5-2.4-4.5-4-6.1c-1.7-1.6-3.6-2.8-5.7-3.6c-2.2-0.8-4.4-1.2-6.6-1.2c-4.6,0-8.7,1.7-12.1,5.1
		c-3.4,3.4-5.3,8.1-5.8,14.2H203.5L203.5,70.1z M295.6,122.8l-0.2-10.7c-5.4,8.7-13.5,13-24.5,13c-5.6,0-10.7-1.1-15.4-3.2
		c-4.7-2.2-8.7-5.2-12-9.3c-3.3-4-6-9-7.9-14.8c-1.9-5.8-2.9-12.4-2.9-19.9c0-6.7,0.8-12.8,2.4-18.3c1.6-5.5,4-10.3,7.1-14.4
		c3.1-4.1,6.9-7.2,11.4-9.4c4.5-2.2,9.6-3.3,15.3-3.3c10.8,0,19.6,4.6,26.1,13.8V2.5H318v120.2H295.6L295.6,122.8z M276.3,106.1
		c5.6,0,10.3-2.3,14-7c3.8-4.6,5.6-10.7,5.6-18.3c0-19.1-6.5-28.6-19.5-28.6c-13.4,0-20,9.1-20,27.2c0,7.9,1.9,14.3,5.6,19.2
		C265.7,103.7,270.4,106.1,276.3,106.1L276.3,106.1z M327.8,122.8V42c3.5,1.7,7.5,2.7,11.6,2.7c4.2,0,8.1-1,11.6-2.7v80.8H327.8
		L327.8,122.8z M360.9,122.8V2.5h22.9v43.7c6.6-9.2,15.3-13.8,26.1-13.8c5.7,0,10.8,1.1,15.3,3.3c4.5,2.2,8.3,5.3,11.4,9.4
		c3.1,4.1,5.4,8.8,7,14.4c1.6,5.6,2.4,11.7,2.4,18.3c0,7.4-1,14-2.9,19.9c-1.9,5.8-4.5,10.8-7.9,14.8c-3.3,4.1-7.4,7.2-12.1,9.3
		c-4.7,2.2-9.8,3.2-15.3,3.2c-11,0-19.1-4.3-24.5-13l-0.2,10.7H360.9L360.9,122.8z M402.6,106.1c5.8,0,10.6-2.5,14.3-7.4
		c3.7-5,5.5-11.4,5.5-19.2c0-18.1-6.7-27.2-20-27.2c-13,0-19.5,9.5-19.5,28.6c0,7.5,1.9,13.6,5.6,18.3
		C392.3,103.8,397,106.1,402.6,106.1L402.6,106.1z M453.8,122.8V2.5H477v120.2H453.8L453.8,122.8z M544.1,70.1
		c-0.1-3.2-0.7-6-1.7-8.5c-1-2.5-2.4-4.5-4-6.1c-1.7-1.6-3.6-2.8-5.7-3.6c-2.1-0.8-4.3-1.2-6.6-1.2c-4.6,0-8.7,1.7-12.1,5.1
		c-3.4,3.4-5.3,8.1-5.8,14.2H544.1z"/>
</g>
<g id="Layer_2">
	<path fill-rule="evenodd" clip-rule="evenodd" fill="#58BF93" d="M339.6,34.1c8.6,0,15.6-7,15.6-15.6c0-8.6-7-15.6-15.6-15.6
		c-8.6,0-15.6,7-15.6,15.6C324,27.1,331,34.1,339.6,34.1z"/>
	<path fill="#2856A2" d="M507.5,84.8c0.3,6.7,2.3,12,5.8,15.9c3.5,3.9,8.1,5.9,13.9,5.9c3.8,0,7.2-0.9,10.1-2.6
		c2.9-1.8,4.8-4.2,5.6-7.3h24c-2.7,9.1-7.5,16-14.3,20.9c-6.8,4.9-14.9,7.3-24.4,7.3c-29.3,0-44-16-44-47.9c0-6.8,0.9-13,2.9-18.4
		c1.9-5.5,4.7-10.2,8.3-14.1c3.6-3.9,8.1-6.9,13.3-9c5.3-2.1,11.3-3.1,18.1-3.1c13.6,0,23.8,4.3,30.8,13.1
		c7,8.7,10.5,21.8,10.5,39.4H507.5L507.5,84.8z M83.2,90.9c-0.6,5.1-2.1,9.8-4.4,13.9c-2.3,4.2-5.3,7.8-8.9,10.7
		c-3.6,3-7.6,5.3-12.2,7c-4.6,1.7-9.6,2.5-14.9,2.5c-6,0-11.4-1-16.4-2.9c-4.9-1.9-9.2-4.9-12.8-8.9c-3.6-4-6.3-8.9-8.3-14.8
		c-2-5.9-3-12.8-3-20.7c0-7.9,1-14.7,3-20.4c2-5.7,4.7-10.4,8.3-14c3.6-3.6,7.9-6.3,13-8.1c5.1-1.8,10.7-2.7,16.9-2.7
		c5.7,0,11,0.8,15.6,2.3c4.7,1.6,8.8,3.8,12.3,6.8c3.5,3,6.3,6.6,8.3,10.8c2,4.2,3.2,8.8,3.6,13.9H60c-0.6-4.5-2.4-8.1-5.5-10.6
		c-3-2.6-6.8-3.8-11.2-3.8c-2.5,0-4.8,0.4-7,1.3c-2.2,0.8-4,2.2-5.6,4.2c-1.6,2-2.9,4.6-3.9,7.9c-1,3.3-1.4,7.3-1.4,12.1
		c0,9.7,1.7,16.8,5.2,21.5c3.5,4.7,7.4,7,12,7c4.6,0,8.4-1.3,11.6-3.7c3.2-2.5,5.1-6.2,5.6-10.9H83.2L83.2,90.9z M89.1,122.8v-88
		H111v10.6c1.9-3,3.9-5.3,6-7c2.1-1.7,4.2-3,6.4-3.8c2.2-0.9,4.5-1.5,6.7-1.7c2.3-0.3,4.6-0.4,6.9-0.4h3.1v23.8
		c-2.1-0.4-4.3-0.5-6.4-0.5c-14.2,0-21.3,7.1-21.3,21.3v45.8H89.1L89.1,122.8z M166.8,84.8c0.3,6.7,2.3,12,5.8,15.9
		c3.5,3.9,8.1,5.9,13.9,5.9c3.8,0,7.2-0.9,10.1-2.6c2.9-1.8,4.8-4.2,5.6-7.3h24c-2.8,9.1-7.5,16-14.3,20.9
		c-6.8,4.9-14.9,7.3-24.3,7.3c-29.4,0-44.1-16-44.1-47.9c0-6.8,1-13,2.9-18.4c1.9-5.5,4.7-10.2,8.3-14.1c3.6-3.9,8.1-6.9,13.3-9
		c5.2-2.1,11.3-3.1,18.1-3.1c13.6,0,23.9,4.3,30.9,13.1c7,8.7,10.5,21.8,10.5,39.4H166.8L166.8,84.8z M203.5,70.1
		c-0.1-3.2-0.7-6-1.7-8.5c-1-2.5-2.4-4.5-4-6.1c-1.7-1.6-3.6-2.8-5.7-3.6c-2.2-0.8-4.4-1.2-6.6-1.2c-4.6,0-8.7,1.7-12.1,5.1
		c-3.4,3.4-5.3,8.1-5.8,14.2H203.5L203.5,70.1z M295.6,122.8l-0.2-10.7c-5.4,8.7-13.5,13-24.5,13c-5.6,0-10.7-1.1-15.4-3.2
		c-4.7-2.2-8.7-5.2-12-9.3c-3.3-4-6-9-7.9-14.8c-1.9-5.8-2.9-12.4-2.9-19.9c0-6.7,0.8-12.8,2.4-18.3c1.6-5.5,4-10.3,7.1-14.4
		c3.1-4.1,6.9-7.2,11.4-9.4c4.5-2.2,9.6-3.3,15.3-3.3c10.8,0,19.6,4.6,26.1,13.8V2.5H318v120.2H295.6L295.6,122.8z M276.3,106.1
		c5.6,0,10.3-2.3,14-7c3.8-4.6,5.6-10.7,5.6-18.3c0-19.1-6.5-28.6-19.5-28.6c-13.4,0-20,9.1-20,27.2c0,7.9,1.9,14.3,5.6,19.2
		C265.7,103.7,270.4,106.1,276.3,106.1L276.3,106.1z M327.8,122.8V42c3.5,1.7,7.5,2.7,11.6,2.7c4.2,0,8.1-1,11.6-2.7v80.8H327.8
		L327.8,122.8z M360.9,122.8V2.5h22.9v43.7c6.6-9.2,15.3-13.8,26.1-13.8c5.7,0,10.8,1.1,15.3,3.3c4.5,2.2,8.3,5.3,11.4,9.4
		c3.1,4.1,5.4,8.8,7,14.4c1.6,5.6,2.4,11.7,2.4,18.3c0,7.4-1,14-2.9,19.9c-1.9,5.8-4.5,10.8-7.9,14.8c-3.3,4.1-7.4,7.2-12.1,9.3
		c-4.7,2.2-9.8,3.2-15.3,3.2c-11,0-19.1-4.3-24.5-13l-0.2,10.7H360.9L360.9,122.8z M402.6,106.1c5.8,0,10.6-2.5,14.3-7.4
		c3.7-5,5.5-11.4,5.5-19.2c0-18.1-6.7-27.2-20-27.2c-13,0-19.5,9.5-19.5,28.6c0,7.5,1.9,13.6,5.6,18.3
		C392.3,103.8,397,106.1,402.6,106.1L402.6,106.1z M453.8,122.8V2.5H477v120.2H453.8L453.8,122.8z M544.1,70.1
		c-0.1-3.2-0.7-6-1.7-8.5c-1-2.5-2.4-4.5-4-6.1c-1.7-1.6-3.6-2.8-5.7-3.6c-2.1-0.8-4.3-1.2-6.6-1.2c-4.6,0-8.7,1.7-12.1,5.1
		c-3.4,3.4-5.3,8.1-5.8,14.2H544.1z"/>
</g>
</svg>
