<svg width="202" height="68" viewBox="0 0 202 68" fill="none" xmlns="http://www.w3.org/2000/svg">
<rect width="201.96" height="66.845" fill="black" fill-opacity="0" transform="translate(0.0398173 0.997031)"/>
<path d="M15.64 45.48C14.9173 44.7569 14.0524 44.1917 13.1 43.82C12.2637 43.4975 11.3763 43.3281 10.48 43.32C9.70901 43.3195 8.94397 43.4549 8.22 43.72C7.47085 43.9825 6.78821 44.4057 6.22 44.96C5.61919 45.5606 5.14335 46.2744 4.82 47.06C4.45308 47.9952 4.28287 48.9961 4.32 50C4.31503 50.8497 4.45017 51.6943 4.72 52.5C4.97838 53.2496 5.37904 53.9423 5.9 54.54C6.43006 55.1649 7.09282 55.6636 7.84 56C8.68636 56.3614 9.5999 56.5386 10.52 56.52C11.4344 56.5058 12.3349 56.2944 13.16 55.9C14.1043 55.4621 14.9801 54.8894 15.76 54.2L18.24 57C17.2014 58.0549 15.9821 58.9152 14.64 59.54C13.3487 60.1367 11.9425 60.4438 10.52 60.44C8.96812 60.4688 7.42771 60.1689 6 59.56C4.75523 59.0177 3.63789 58.2205 2.72 57.22C1.83872 56.2425 1.15907 55.1007 0.72 53.86C0.262506 52.5763 0.032392 51.2227 0.04 49.86C0.032499 48.4956 0.26958 47.1408 0.74 45.86C1.18049 44.62 1.85999 43.4784 2.74 42.5C3.66006 41.5209 4.76906 40.7385 6 40.2C7.41383 39.5917 8.9411 39.2917 10.48 39.32C11.8544 39.3067 13.2165 39.5791 14.48 40.12C15.8075 40.7235 17.0139 41.5639 18.04 42.6L15.64 45.48ZM24.84 39.64L25.12 41.8C25.3924 41.2722 25.7662 40.8033 26.22 40.42C26.6084 40.1019 27.0392 39.8393 27.5 39.64C27.9082 39.4622 28.3389 39.341 28.78 39.28C29.1579 39.2292 29.5387 39.2025 29.92 39.2C30.6969 39.2113 31.4695 39.3188 32.22 39.52C33.0478 39.7281 33.8375 40.0656 34.56 40.52L32.72 44C31.9822 43.5323 31.1479 43.2383 30.28 43.14C29.4823 43.0399 28.6722 43.136 27.92 43.42C27.2008 43.6992 26.5763 44.1779 26.12 44.8C25.6209 45.5133 25.3681 46.37 25.4 47.24V60H21.08V39.64H24.84ZM38.92 49.88C38.8954 50.8822 39.0864 51.878 39.48 52.8C39.8209 53.5799 40.31 54.2863 40.92 54.88C41.4913 55.4303 42.173 55.853 42.92 56.12C43.638 56.3816 44.3958 56.517 45.16 56.52C45.9374 56.5194 46.7088 56.384 47.44 56.12C48.1896 55.8584 48.8724 55.4351 49.44 54.88C50.0374 54.2843 50.513 53.5777 50.84 52.8C51.5605 50.92 51.5605 48.84 50.84 46.96C50.5153 46.2044 50.0388 45.5237 49.44 44.96C48.8635 44.426 48.1825 44.0173 47.44 43.76C46.7088 43.496 45.9374 43.3606 45.16 43.36C44.3958 43.3631 43.638 43.4984 42.92 43.76C42.18 44.0227 41.5 44.4307 40.92 44.96C40.3091 45.5219 39.8192 46.2024 39.48 46.96C39.0864 47.882 38.8954 48.8778 38.92 49.88V49.88ZM55.72 49.88C55.7306 51.291 55.4657 52.6905 54.94 54C54.4348 55.2602 53.6827 56.4066 52.7278 57.3718C51.773 58.3369 50.6347 59.1013 49.38 59.62C46.6729 60.7132 43.6471 60.7132 40.94 59.62C39.6814 59.0966 38.5393 58.3284 37.58 57.36C36.6295 56.3942 35.8756 55.2531 35.36 54C34.8214 52.6937 34.5494 51.2929 34.56 49.88C34.5508 48.4607 34.8226 47.0537 35.36 45.74C35.8669 44.4882 36.6221 43.352 37.58 42.4C38.5482 41.4525 39.6887 40.6989 40.94 40.18C43.6471 39.0868 46.6729 39.0868 49.38 40.18C50.6313 40.6989 51.7718 41.4525 52.74 42.4C53.6969 43.3488 54.4461 44.4862 54.94 45.74C55.4643 47.0569 55.7292 48.4626 55.72 49.88V49.88ZM59.16 67.68V40.48C60.506 39.9958 61.901 39.6605 63.32 39.48C64.5941 39.3237 65.8764 39.2435 67.16 39.24C68.7204 39.2103 70.2689 39.5173 71.7 40.14C72.9448 40.7015 74.0663 41.5035 75 42.5C75.886 43.4664 76.5664 44.6027 77 45.84C77.4493 47.0704 77.6794 48.3701 77.68 49.68C77.6797 51.349 77.2996 52.9961 76.5684 54.4965C75.8373 55.9969 74.7743 57.3113 73.46 58.34C72.1403 59.3675 70.588 60.0544 68.94 60.34C67.0843 60.6324 65.184 60.4182 63.44 59.72V67.72L59.16 67.68ZM67.16 42.96C66.5467 42.96 65.9333 43 65.32 43.08C64.7143 43.1321 64.1129 43.2257 63.52 43.36V55.76C64.6611 56.2992 65.9204 56.54 67.18 56.46C68.2939 56.3951 69.3732 56.0493 70.3175 55.4548C71.2617 54.8603 72.04 54.0364 72.58 53.06C73.1614 52.0295 73.4582 50.863 73.44 49.68C73.4351 48.8769 73.3 48.0799 73.04 47.32C72.7811 46.5343 72.3813 45.8024 71.86 45.16C71.3097 44.5007 70.6287 43.9627 69.86 43.58C69.0197 43.1725 68.0935 42.9735 67.16 43V42.96ZM88.32 60C85.8933 60.2667 84.06 59.8733 82.82 58.82C81.58 57.7667 80.9733 56.08 81 53.76V32H85.36V53.76C85.311 54.4372 85.518 55.1081 85.94 55.64C86.3267 56.0667 87.1333 56.2267 88.36 56.12L88.32 60ZM93.72 49.84C93.6954 50.8422 93.8864 51.838 94.28 52.76C94.6209 53.5399 95.11 54.2463 95.72 54.84C96.2913 55.3903 96.973 55.813 97.72 56.08C98.438 56.3416 99.1958 56.4769 99.96 56.48C100.737 56.4794 101.509 56.344 102.24 56.08C102.99 55.8184 103.672 55.3951 104.24 54.84C104.837 54.2443 105.313 53.5377 105.64 52.76C106.36 50.88 106.36 48.8 105.64 46.92C105.315 46.1644 104.839 45.4837 104.24 44.92C103.664 44.386 102.982 43.9773 102.24 43.72C101.509 43.456 100.737 43.3206 99.96 43.32C99.1958 43.323 98.438 43.4584 97.72 43.72C96.98 43.9827 96.3 44.3907 95.72 44.92C95.1091 45.4819 94.6192 46.1624 94.28 46.92C93.8807 47.8543 93.6896 48.8644 93.72 49.88V49.84ZM110.52 49.84C110.531 51.251 110.266 52.6505 109.74 53.96C109.235 55.2202 108.483 56.3666 107.528 57.3318C106.573 58.2969 105.435 59.0613 104.18 59.58C101.473 60.6732 98.4471 60.6732 95.74 59.58C94.4814 59.0567 93.3393 58.2884 92.38 57.32C91.4338 56.366 90.6801 55.2389 90.16 54C89.6214 52.6937 89.3494 51.2929 89.36 49.88C89.3508 48.4607 89.6227 47.0537 90.16 45.74C90.6669 44.4882 91.422 43.352 92.38 42.4C93.3482 41.4525 94.4887 40.6989 95.74 40.18C98.4471 39.0868 101.473 39.0868 104.18 40.18C105.431 40.6989 106.572 41.4525 107.54 42.4C108.497 43.3488 109.246 44.4862 109.74 45.74C110.264 47.0569 110.529 48.4626 110.52 49.88V49.84ZM131.28 59C131.312 60.3312 131.06 61.6539 130.54 62.88C130.087 63.9162 129.427 64.8487 128.6 65.62C127.798 66.3545 126.851 66.9131 125.82 67.26C124.77 67.6194 123.67 67.8151 122.56 67.84C120.947 67.8692 119.344 67.5839 117.84 67C116.274 66.3834 114.857 65.4429 113.68 64.24L116.04 61.44C116.903 62.2533 117.924 62.8798 119.04 63.28C120.168 63.718 121.37 63.9353 122.58 63.92C123.131 63.9215 123.678 63.8337 124.2 63.66C124.707 63.4947 125.177 63.2295 125.58 62.88C126.011 62.515 126.353 62.0568 126.58 61.54C126.838 60.9057 126.961 60.2245 126.94 59.54C125.771 59.9571 124.541 60.1735 123.3 60.18C121.724 60.2124 120.161 59.8984 118.72 59.26C117.459 58.6898 116.329 57.866 115.4 56.84C114.519 55.8471 113.84 54.6923 113.4 53.44C112.949 52.1891 112.719 50.8696 112.72 49.54C112.749 48.247 112.999 46.9685 113.46 45.76C113.924 44.5039 114.636 43.3539 115.554 42.3782C116.471 41.4025 117.575 40.621 118.8 40.08C120.224 39.4562 121.766 39.1491 123.32 39.18C124.591 39.1848 125.86 39.2716 127.12 39.44C128.555 39.6387 129.963 39.9941 131.32 40.5L131.28 59ZM123.28 43C122.39 42.9732 121.505 43.1503 120.694 43.5177C119.883 43.8851 119.167 44.4332 118.6 45.12C118.071 45.7527 117.664 46.4784 117.4 47.26C117.137 48.026 117.002 48.8301 117 49.64C117.003 50.4564 117.138 51.2669 117.4 52.04C117.656 52.8209 118.056 53.5467 118.58 54.18C119.132 54.8272 119.813 55.3517 120.58 55.72C121.433 56.1337 122.372 56.3393 123.32 56.32C124.565 56.3259 125.805 56.1507 127 55.8C127 53.6667 127 51.6 127 49.6C127 47.6 127 45.52 127 43.36C126.387 43.2533 125.76 43.1733 125.12 43.12C124.48 43.0667 123.867 43.0267 123.28 43ZM135.76 36.84V32H140.2V36.88L135.76 36.84ZM140.16 39.6V60H135.8V39.64L140.16 39.6ZM158.48 45.44C157.757 44.7169 156.892 44.1517 155.94 43.78C155.104 43.4575 154.216 43.2881 153.32 43.28C152.549 43.2795 151.784 43.4149 151.06 43.68C150.311 43.9425 149.628 44.3657 149.06 44.92C148.459 45.5206 147.983 46.2344 147.66 47.02C147.285 47.9399 147.101 48.9267 147.12 49.92C147.115 50.7697 147.25 51.6143 147.52 52.42C147.774 53.1838 148.175 53.8904 148.7 54.5C149.237 55.1442 149.914 55.6572 150.68 56C151.526 56.3614 152.44 56.5386 153.36 56.52C154.274 56.5058 155.175 56.2944 156 55.9C156.944 55.4621 157.82 54.8894 158.6 54.2L161.08 57C160.041 58.0549 158.822 58.9152 157.48 59.54C156.189 60.1367 154.783 60.4438 153.36 60.44C151.795 60.4745 150.24 60.1745 148.8 59.56C147.555 59.0177 146.438 58.2205 145.52 57.22C144.639 56.2425 143.959 55.1007 143.52 53.86C143.063 52.5763 142.832 51.2227 142.84 49.86C142.833 48.4956 143.07 47.1408 143.54 45.86C143.98 44.62 144.66 43.4784 145.54 42.5C146.468 41.502 147.591 40.7055 148.84 40.16C150.254 39.5517 151.781 39.2517 153.32 39.28C154.694 39.2667 156.056 39.5391 157.32 40.08C158.648 40.6835 159.854 41.5239 160.88 42.56L158.48 45.44Z" fill="black"/>
<path d="M160.48 32.64L159.48 36H159.19L158.19 32.64V36H157.67V32H158.49L159.33 34.92L160.17 32H161V36H160.48V32.64ZM155.9 32.64H155V32H157.33V32.64H156.42V36H155.9V32.64Z" fill="black"/>
<path d="M193.91 16L175.32 19.28L174.95 19.12C148.95 7.93 127.75 12.04 114.55 17.46C107.107 20.4892 100.201 24.7 94.1 29.93C93.4 30.61 92.7 31.29 92 32C93 31.05 122.53 2.72 175.48 25.61L202 23.36C201.26 21.8 198.42 18.99 193.91 15.97" fill="black"/>
<path d="M91 31C143.85 -21.76 199.09 10.51 202 13.41L175.49 18C124.35 -3.66 91 31 91 31Z" fill="black"/>
<path d="M194.65 25.34L174.94 27L174.63 26.86C133.46 8.86 106.89 22.63 97.13 29.63C95.42 31 93.72 32.47 92 34C92 34 126 5.08 174.82 34L202 33C201.29 31.47 198.73 28.56 194.65 25.3" fill="black"/>
<path d="M193.91 16L175.32 19.28L174.95 19.12C148.95 7.93 127.75 12.04 114.55 17.46C107.107 20.4892 100.201 24.7 94.1 29.93C93.4 30.61 92.7 31.29 92 32C93 31.05 122.53 2.72 175.48 25.61L202 23.36C201.26 21.8 198.42 18.99 193.91 15.97" fill="black"/>
</svg>
