<svg xmlns="http://www.w3.org/2000/svg" viewBox="-23049 -4870 75 53.997"><defs><style>.cls-1{fill:#fff}</style></defs><path id="IS_Logo_RGB_v.2" data-name="IS Logo RGB v.2" class="cls-1" d="M64.5 16.164c-1.569 1.793-2.568 1.141-2.568 1.141 0 .53 1.223 1.243 1.529 1.508-.815.611-2.812-.1-3.159.163a18.063 18.063 0 0 1-3.159 2.058 9.462 9.462 0 0 1-2.364.428 19.577 19.577 0 0 0-2.283.571c-.713-.122-.285-.856-.815-.856s-1.182-1.467-1-1.569 1.141-1.467.958-1.793a17.6 17.6 0 0 1-.53-2.323s.041-.245.856-1c-1.182 0-1.569 1.386-1.223 1.712s.713 2.181-.245 2.935-.713.245-.856 1.1 2.568 3.995 2.568 3.995S54.5 25.8 50.5 27.414c-6.318.611-8.4-.224-8.4-.224s.143-.53-.754-.571c-1.651 0-1.569-.183-1.569-.713s1-1.508 1.243-1.753a2.883 2.883 0 0 1 1.712-.387c.611.041.673.713.815.9s3.3.673 3.75.1c-1.141-.387-1.651-.571-1.651-.571-1.039.143-3.954-2.323-5.38-4.932a9.947 9.947 0 0 0 2.466 3.546 18.691 18.691 0 0 0-4.232 1.956c-.958.754-3.24.326-5.279.734-.713.143-1.834-2.772-2.4-3.2a2.206 2.206 0 0 0 .367.632 4.79 4.79 0 0 1 .611 3.607c-2.799 4.932-6.772 3.791-6.833 4.056s-5.89 8.723-5.89 8.723-.693.815-1.141 1.386c-.245-.2-1.264-.9-1.386-1.264a1.461 1.461 0 0 1 .693-1.651 5.978 5.978 0 0 0 1.141-.9 14.761 14.761 0 0 0 2.017-2.911c-.51-5.625.387-5.951.754-6.583s1.732-1.325 1.019-1.447a6.64 6.64 0 0 1-2.018-3.363S20.1 22.136 18 22.2s-1.61-3.2-1.671-4.1.326-4.932-.51-5.747-2.853.245-2.853.245-2.527 1.508-2.527.061.958-1.957 1.08-2.4 1.773-.571 3.22-.245 2.711 2.649 2.527 3.159-.571 6.4.571 7.092 1.447-.448 1.447-.448 1.508-6.073 7.6-6.827c0 0 2.649-1.141 3.159-2.527s2.527-5.768 6.135-6.135c1.08-.163 1.59-1.447 1.59-1.447S39.6-.283 42.391.084s2.853.856 4.178 1.508 1.732.02 2.344.082c2.446 0 2.364.591 3.913 2.16a70.252 70.252 0 0 1 7.6 9.293 10.717 10.717 0 0 0 4.074 3.037zM40.863 47.53c0-.2-.02-.285-.02-.408a3.161 3.161 0 0 0-.082-.428 2.23 2.23 0 0 0-.183-.469 2.415 2.415 0 0 0-1.406-1.243 3.728 3.728 0 0 0-2.446-.082 3.19 3.19 0 0 0-1.019.51 2.62 2.62 0 0 0-.734.836 2.41 2.41 0 0 0-.285 1.121 2.211 2.211 0 0 0 .245 1.08 2.669 2.669 0 0 0 .611.734 3.91 3.91 0 0 0 .713.469 6.177 6.177 0 0 0 .611.265q.52.214.856.367a4.377 4.377 0 0 1 .53.285.766.766 0 0 1 .285.285.8.8 0 0 1 .082.367.888.888 0 0 1-.224.591.754.754 0 0 1-.632.265 1.193 1.193 0 0 1-.265-.041.767.767 0 0 1-.306-.183.907.907 0 0 1-.245-.428 1.505 1.505 0 0 1-.1-.673h-2.2v.387a3.673 3.673 0 0 0 .1.938 2.489 2.489 0 0 0 .489.917 2.82 2.82 0 0 0 .978.713 4.561 4.561 0 0 0 3.077.041 2.8 2.8 0 0 0 .958-.632 2.409 2.409 0 0 0 .53-.876 3.28 3.28 0 0 0 .163-.978 3 3 0 0 0-.082-.734 1.786 1.786 0 0 0-.326-.652 2.979 2.979 0 0 0-.632-.611 6.415 6.415 0 0 0-1.039-.571c-.408-.183-.734-.326-.978-.448a5.069 5.069 0 0 1-.571-.306.823.823 0 0 1-.265-.265.952.952 0 0 1-.061-.346.618.618 0 0 1 .245-.51.87.87 0 0 1 .55-.2.912.912 0 0 1 .408.082.868.868 0 0 1 .245.224.961.961 0 0 1 .122.306.564.564 0 0 0 .061.265zm1.121 6.522h2.079l-.082-6.726.02-.02 1.916 6.746h1.508l1.916-6.746.02.041-.082 6.705h2.079v-8.968h-2.914l-1.753 5.91h-.02l-1.771-5.91h-2.916zm16.3-1.427l.428 1.427h2.466l-3.567-8.967h-1.769l-3.587 8.967H54.7l.469-1.427zm-1.569-4.687h.041l.917 3.057H55.8zm5.238 6.114H64.2V51.2h.061l2.058 2.853h2.609L66.5 50.974a2.534 2.534 0 0 0 1.06-.428 3.28 3.28 0 0 0 .693-.713 3.194 3.194 0 0 0 .367-.856 3.52 3.52 0 0 0-.163-2.181 2.782 2.782 0 0 0-.836-1.1 3.35 3.35 0 0 0-.448-.285 3.009 3.009 0 0 0-.55-.2 4.54 4.54 0 0 0-.734-.1c-.285-.02-.611-.02-1.019-.02h-2.913zm2.247-6.93h.876a1.756 1.756 0 0 1 1.06.265 1.022 1.022 0 0 1 .408.9 2.494 2.494 0 0 1-.041.387 1.1 1.1 0 0 1-.2.408 1.263 1.263 0 0 1-.448.346 2.217 2.217 0 0 1-.815.143h-.856zm6.726 6.929h2.242v-6.929H75v-2.038h-5.707v2.038h1.63zM0 54.052h2.242v-8.968H0zm3.261 0H5.3v-3.689a3.14 3.14 0 0 1 .041-.387 1.254 1.254 0 0 1 .143-.469 1.059 1.059 0 0 1 .346-.387 1.1 1.1 0 0 1 .673-.163 1.048 1.048 0 0 1 .611.143.872.872 0 0 1 .306.367 1.837 1.837 0 0 1 .122.448 3.17 3.17 0 0 1 .02.408v3.73H9.6v-4.241a4.06 4.06 0 0 0-.082-.856 3.485 3.485 0 0 0-.183-.611 1.666 1.666 0 0 0-.245-.408 3.644 3.644 0 0 0-.265-.285 2.266 2.266 0 0 0-.754-.408 3.049 3.049 0 0 0-.958-.163 2.326 2.326 0 0 0-.754.1 2.435 2.435 0 0 0-.53.224 2.226 2.226 0 0 0-.346.265c-.082.1-.143.245-.2.245H5.3v-.611H3.261zm13.166-6.726h-2.079L13.064 51.4h-.02l-1.284-4.074H9.681l2.4 6.726H14zm4.5 4.28a1.405 1.405 0 0 1-.489.489 1.331 1.331 0 0 1-.734.2 1.768 1.768 0 0 1-1.039-.346 1.384 1.384 0 0 1-.53-.958h5.034c.02 0 .02-.122.041-.2 0-.1.02-.2.02-.285a3.773 3.773 0 0 0-.265-1.427 3.628 3.628 0 0 0-.734-1.162 3.563 3.563 0 0 0-1.121-.774 3.768 3.768 0 0 0-1.406-.285 3.294 3.294 0 0 0-1.406.306 3.623 3.623 0 0 0-1.121.795 3.537 3.537 0 0 0-.734 1.141 3.452 3.452 0 0 0-.245 1.365 3.582 3.582 0 0 0 2.181 3.3 3.142 3.142 0 0 0 1.365.265 3.2 3.2 0 0 0 1.916-.611 4.52 4.52 0 0 0 .774-.754 4.034 4.034 0 0 0 .591-1.039zm-2.772-1.834a1.229 1.229 0 0 1 .122-.387 1.748 1.748 0 0 1 .265-.408 1.434 1.434 0 0 1 .469-.306 1.855 1.855 0 0 1 1.325 0 1.325 1.325 0 0 1 .734.713 1.23 1.23 0 0 1 .122.387zm10.965-.815a2.255 2.255 0 0 0-.346-1.08 2.206 2.206 0 0 0-.673-.632 2.974 2.974 0 0 0-.795-.326 3.056 3.056 0 0 0-.754-.082 3.306 3.306 0 0 0-1 .163 2.548 2.548 0 0 0-.836.448 2.083 2.083 0 0 0-.571.693 1.989 1.989 0 0 0-.2.9 1.56 1.56 0 0 0 .122.611 1.644 1.644 0 0 0 .346.489 1.8 1.8 0 0 0 .51.367 3.963 3.963 0 0 0 .611.265c.326.122.591.224.815.306.183.061.367.143.55.224a1.187 1.187 0 0 1 .306.224.549.549 0 0 1 .1.306.437.437 0 0 1-.224.387.981.981 0 0 1-.489.143l-.143-.02-.245-.061a1.7 1.7 0 0 1-.245-.163.578.578 0 0 1-.143-.346h-1.971a2.525 2.525 0 0 0 .367 1.08 2.184 2.184 0 0 0 .693.673 2.61 2.61 0 0 0 .856.346 3.751 3.751 0 0 0 .836.1 3.193 3.193 0 0 0 1.06-.163 2.746 2.746 0 0 0 .876-.448 2.456 2.456 0 0 0 .591-.713 2.274 2.274 0 0 0 .224-.958 1.754 1.754 0 0 0-.2-.9 2.449 2.449 0 0 0-.53-.591 2.589 2.589 0 0 0-.754-.367c-.285-.1-.571-.183-.856-.265a4.34 4.34 0 0 1-.713-.285.487.487 0 0 1-.306-.448.512.512 0 0 1 .122-.285.54.54 0 0 1 .448-.163.952.952 0 0 1 .346.061.444.444 0 0 1 .183.143.41.41 0 0 1 .082.163c0 .041.02.1.02.143zm3.485-3.872h-1.831v2.242h-1.019v1.427h1.019v5.3h1.834v-5.3h1.019v-1.428h-1.018z" transform="translate(-23049 -4870.055)"/></svg>