<?xml version="1.0" encoding="UTF-8"?>
<svg width="350px" height="156px" viewBox="0 0 350 156" version="1.1" xmlns="http://www.w3.org/2000/svg" xmlns:xlink="http://www.w3.org/1999/xlink">
    <!-- Generator: Sketch 48.2 (47327) - http://www.bohemiancoding.com/sketch -->
    <title>logo-new</title>
    <desc>Created with Sketch.</desc>
    <defs></defs>
    <g id="Page-1" stroke="none" stroke-width="1" fill="none" fill-rule="evenodd">
        <g id="logo-new" fill-rule="nonzero">
            <path d="M329.8,0 L47.4,0 C21.3,0 0,21.3 0,47.4 L0,135.3 C0,146.4 9.1,155.5 20.2,155.5 L302.6,155.5 C328.6,155.5 350,134.2 350,108.1 L350,20.2 C350,9.1 340.9,0 329.8,0" id="Shape" fill="#FF7F00"></path>
            <path d="M179.6,99.2 L176,99.2 C175,99.1 174.7,98.8 174.6,97.8 L174.6,50.1 C174.6,47.8 174.1,46.1 172.9,44.9 C171.7,43.7 169.9,43.2 167.7,43.2 L156.5,43.2 C156.3,43.2 156.2,43.3 156,43.4 C155.9,43.5 155.8,43.7 155.8,43.9 L155.8,53.9 C155.8,54.1 155.9,54.2 156,54.4 C156.1,54.5 156.3,54.6 156.5,54.6 L160.2,54.6 C161.3,54.7 161.5,54.9 161.6,56 L161.6,103.5 C161.6,105.8 162.1,107.6 163.3,108.8 C164.5,110 166.3,110.5 168.6,110.5 L179.8,110.5 C180,110.5 180.1,110.4 180.3,110.3 C180.4,110.2 180.5,110 180.5,109.8 L180.5,99.9 C180.5,99.7 180.4,99.6 180.3,99.4 C180,99.2 179.8,99.2 179.6,99.2" id="Shape" fill="#FFFFFF"></path>
            <path d="M133.8,60.6 C126.5,60.6 120.3,63.2 116,67.7 C111.6,72.2 109.1,78.6 109.1,86 C109.1,92.9 111.6,99.3 116.1,103.9 C120.6,108.5 127.2,111.4 135.2,111.4 C147.3,111.4 154.6,104.1 154.7,104.1 C154.9,103.9 155,103.6 154.8,103.3 L149.9,95.1 C149.8,94.9 149.6,94.8 149.4,94.8 C149.2,94.8 149,94.8 148.9,95 C148.9,95 147.5,96.3 145.2,97.6 C142.9,98.9 139.7,100.2 136,100.2 C129.3,100.2 123.7,96.3 122.5,88.8 L154.4,88.8 C154.7,88.8 155,88.5 155,88.2 C155,88.2 155.3,85.2 155.3,83.8 C155.3,77.4 153.4,71.6 149.7,67.4 C146.2,63.2 140.7,60.6 133.8,60.6 Z M123,79.3 C124.5,74.1 128.3,71.1 133.8,71 C138.1,71 141.6,74.3 142,79.3 L123,79.3 Z" id="Shape" fill="#FFFFFF"></path>
            <path d="M315,99.1 C314.8,99 314.6,98.9 314.5,99 C314.5,99 313.7,99.2 312.5,99.2 C309.3,99.1 303.8,98.3 303.8,90.9 L303.8,72.4 L313.9,72.4 C314.1,72.4 314.2,72.3 314.4,72.2 C314.5,72.1 314.6,71.9 314.6,71.7 L314.6,62.3 C314.6,62.1 314.5,62 314.4,61.8 C314.3,61.7 314.1,61.6 313.9,61.6 L303.8,61.6 L303.8,49.5 C303.8,49.3 303.7,49.2 303.6,49 C303.5,48.9 303.3,48.8 303.1,48.8 L291.6,48.8 C291.4,48.8 291.3,48.9 291.1,49 C291,49.1 290.9,49.3 290.9,49.5 L290.9,61.8 L285.1,61.8 C284.9,61.8 284.8,61.9 284.6,62 C284.5,62.1 284.4,62.3 284.4,62.5 L284.4,71.9 C284.4,72.1 284.5,72.2 284.6,72.4 C284.7,72.5 284.9,72.6 285.1,72.6 L290.6,72.6 L290.6,92.6 C290.6,100.7 294,105.5 298.3,108 C302.6,110.6 307.6,111 310.9,111.1 C313.1,111.1 314.6,110.8 314.6,110.8 C314.9,110.7 315.1,110.5 315.1,110.2 L315.1,99.6 C315.2,99.4 315.1,99.2 315,99.1" id="Shape" fill="#FFFFFF"></path>
            <path d="M208.8,60.6 C201.5,60.6 195.4,63.2 191,67.7 C186.6,72.2 184.1,78.6 184.1,86 C184.1,92.9 186.6,99.2 191.1,103.9 C195.6,108.5 202.2,111.4 210.2,111.4 C222.3,111.4 229.6,104.1 229.7,104.1 C229.9,103.9 230,103.6 229.8,103.3 L224.9,95.1 C224.8,94.9 224.6,94.8 224.4,94.8 C224.2,94.8 224,94.8 223.9,95 C223.9,95 222.5,96.3 220.2,97.6 C217.9,98.9 214.7,100.2 211,100.2 C204.3,100.2 198.7,96.3 197.5,88.8 L229.4,88.8 C229.7,88.8 230,88.5 230,88.2 C230,88.2 230.3,85.2 230.3,83.8 C230.3,77.4 228.4,71.6 224.7,67.4 C221.1,63.2 215.7,60.6 208.8,60.6 Z M198,79.3 C199.5,74.1 203.3,71 208.8,71 C213.1,71 216.6,74.3 217,79.3 L198,79.3 Z" id="Shape" fill="#FFFFFF"></path>
            <path d="M277.6,93.8 C277.5,93.6 277.3,93.5 277.1,93.5 C276.9,93.5 276.7,93.6 276.6,93.7 C276.6,93.7 275.2,95.2 272.7,96.8 C270.3,98.4 266.9,99.9 263,99.9 C255.6,99.9 248.9,95.3 248.9,86 C248.9,77.8 254.5,71.9 262.3,71.9 C263.7,71.9 265.3,72.2 266.5,72.7 C267.7,73.3 268.4,74 268.4,74.9 L268.4,77.5 C268.4,77.7 268.5,77.8 268.6,78 C268.7,78.1 268.9,78.2 269.1,78.2 L279.5,78.2 C279.7,78.2 279.8,78.1 280,78 C280.1,77.9 280.2,77.7 280.2,77.5 L280.2,72 C280.2,67.6 277.2,64.7 273.5,63 C269.8,61.3 265.5,60.7 262.3,60.7 C254,60.7 247.4,63.6 242.8,68.3 C238.2,73 235.8,79.3 235.8,86.2 C235.8,93.2 238.4,99.6 243,104.2 C247.6,108.8 254.2,111.6 262.1,111.6 C275.3,111.6 282.5,102.9 282.6,102.8 C282.8,102.6 282.8,102.3 282.7,102.1 L277.6,93.8 Z" id="Shape" fill="#FFFFFF"></path>
            <path d="M88.3,71.6 C84.4,69.8 80.5,68.4 77.7,66.7 C74.8,65 73.2,63.2 73.2,60.8 C73.2,57.1 76.8,54.4 82.2,54.4 C84.3,54.4 86.4,54.9 87.9,55.7 C89.4,56.5 90.3,57.6 90.3,58.8 L90.3,61.8 C90.3,62 90.4,62.1 90.5,62.3 C90.6,62.4 90.8,62.5 91,62.5 L102,62.5 C102.2,62.5 102.3,62.4 102.5,62.3 C102.6,62.2 102.7,62 102.7,61.8 L102.7,55.7 C102.7,50.7 99.5,47.2 95.5,45.1 C91.4,43 86.5,42.1 82.5,42 C69.5,42 59.9,50.1 59.9,61.2 C59.9,71.9 68,76.9 75.8,80.7 C83.7,84.4 91.1,87.1 90.9,92 C90.9,96.7 86.9,99.1 82.1,99.2 C77.7,99.2 73.8,97.3 71,95.4 C68.2,93.5 66.6,91.6 66.6,91.6 C66.5,91.5 66.3,91.4 66.1,91.4 C65.9,91.4 65.7,91.5 65.6,91.6 L58.7,100.1 C58.5,100.3 58.5,100.7 58.7,100.9 C58.7,101 67,111.3 81.9,111.4 C88.9,111.4 94.6,109.1 98.5,105.5 C102.4,101.8 104.5,96.8 104.5,91.4 C104.1,80.3 96,75.2 88.3,71.6" id="Shape" fill="#FFFFFF"></path>
            <path d="M53.5,105.1 C51.6,102.9 52,98.2 51.9,97.8 L51.9,68.7 C51.9,66.4 51.4,64.7 50.2,63.5 C49,62.3 47.3,61.8 45,61.8 L35.4,61.8 C35.2,61.8 35.1,61.9 34.9,62 C34.8,62.1 34.7,62.3 34.7,62.5 L34.7,72.5 C34.7,72.7 34.8,72.8 34.9,73 C35,73.1 35.2,73.2 35.4,73.2 L37.5,73.2 C38.6,73.3 38.8,73.5 38.9,74.6 L38.9,103.6 C38.9,105.9 39.4,107.7 40.6,108.9 C41.8,110.1 43.5,110.6 45.8,110.6 L57,110.6 C57.2,110.6 57.3,110.5 57.5,110.4 C57.6,110.3 57.7,110.1 57.7,109.9 L57.7,109.4 C55.3,107.2 53.8,105.5 53.5,105.1" id="Shape" fill="#FFFFFF"></path>
            <path d="M43.5,56.5 C47.3,56.5 50.4,53.4 50.4,49.6 C50.4,45.8 47.3,42.7 43.5,42.7 C39.7,42.7 36.6,45.8 36.6,49.6 C36.6,53.4 39.6,56.5 43.5,56.5" id="Shape" fill="#FFFFFF"></path>
        </g>
    </g>
</svg>