<?xml version="1.0" encoding="utf-8"?>
<!-- Generator: Adobe Illustrator 22.0.1, SVG Export Plug-In . SVG Version: 6.00 Build 0)  -->
<svg version="1.1" id="Layer_1" xmlns="http://www.w3.org/2000/svg" xmlns:xlink="http://www.w3.org/1999/xlink" x="0px" y="0px"
	 viewBox="0 0 157.3 31.8" style="enable-background:new 0 0 157.3 31.8;" xml:space="preserve">
<style type="text/css">
	.st0{fill:#FFFFFF;}
</style>
<g>
	<polygon class="st0" points="6.7,21.4 6.7,27.8 12.2,31 17.6,27.8 17.6,21.4 12.2,18.2 	"/>
	<polygon class="st0" points="12.6,17.4 18,20.6 23.5,17.4 23.5,11 18,7.8 12.6,11 	"/>
	<polygon class="st0" points="0.8,11 0.8,17.4 6.3,20.6 11.7,17.4 11.7,11 6.3,7.8 	"/>
	<path class="st0" d="M40.5,30.5c-0.2-0.6-0.3-1.3-0.4-2c-0.7,0.8-1.6,1.4-2.7,1.9c-1.1,0.5-2.5,0.7-4,0.7c-2.5,0-4.4-0.6-5.6-1.7
		c-1.2-1.1-1.8-2.6-1.8-4.4c0-1.6,0.3-2.9,0.8-3.8c0.5-0.9,1.2-1.7,2.1-2.2c0.9-0.5,2-0.9,3.2-1.2c1.2-0.3,2.6-0.5,4.1-0.7
		c1.5-0.2,2.5-0.5,3-0.8c0.5-0.3,0.8-0.9,0.8-1.7c0-0.7-0.3-1.3-1-1.7c-0.7-0.4-1.6-0.6-2.7-0.6c-1.3,0-2.3,0.3-2.9,0.9
		c-0.6,0.6-1,1.4-1.1,2.4h-5.4c0-1.1,0.2-2.2,0.6-3.1c0.3-1,0.9-1.8,1.7-2.5c0.8-0.7,1.8-1.2,3-1.6c1.2-0.4,2.7-0.6,4.5-0.6
		c1.7,0,3.2,0.2,4.4,0.6c1.2,0.4,2.2,1,2.9,1.7c0.7,0.7,1.3,1.6,1.6,2.7c0.3,1.1,0.5,2.3,0.5,3.7v14H40.5z M40.1,19.6
		c-0.3,0.3-0.7,0.5-1.3,0.7c-0.6,0.2-1.4,0.4-2.5,0.6c-1.7,0.3-2.8,0.7-3.5,1.3c-0.6,0.5-0.9,1.2-0.9,2.2c0,1.6,0.9,2.5,2.8,2.5
		c0.7,0,1.4-0.1,2.1-0.4c0.6-0.3,1.2-0.6,1.7-1c0.5-0.4,0.8-0.9,1.1-1.5c0.3-0.6,0.4-1.2,0.4-1.9L40.1,19.6z"/>
	<path class="st0" d="M48.4,30.5V8.4h5.5V11c0.5-0.8,1-1.3,1.5-1.8c0.5-0.4,1.1-0.7,1.6-1c0.6-0.2,1.1-0.4,1.7-0.4
		c0.6-0.1,1.2-0.1,1.8-0.1h0.8v6c-0.5-0.1-1.1-0.1-1.6-0.1c-3.6,0-5.3,1.8-5.3,5.3v11.5H48.4z"/>
	<path class="st0" d="M82.1,22.4c-0.2,1.3-0.5,2.5-1.1,3.5c-0.6,1-1.3,1.9-2.2,2.7c-0.9,0.7-1.9,1.3-3.1,1.8
		c-1.2,0.4-2.4,0.6-3.8,0.6c-1.5,0-2.9-0.2-4.1-0.7c-1.2-0.5-2.3-1.2-3.2-2.2c-0.9-1-1.6-2.2-2.1-3.7c-0.5-1.5-0.7-3.2-0.7-5.2
		c0-2,0.2-3.7,0.7-5.1c0.5-1.4,1.2-2.6,2.1-3.5c0.9-0.9,2-1.6,3.3-2c1.3-0.4,2.7-0.7,4.2-0.7c1.4,0,2.7,0.2,3.9,0.6
		c1.2,0.4,2.2,1,3.1,1.7c0.9,0.7,1.6,1.6,2.1,2.7c0.5,1,0.8,2.2,0.9,3.5h-5.9c-0.2-1.1-0.6-2-1.4-2.7c-0.8-0.6-1.7-1-2.8-1
		c-0.6,0-1.2,0.1-1.8,0.3c-0.5,0.2-1,0.6-1.4,1.1c-0.4,0.5-0.7,1.2-1,2c-0.2,0.8-0.4,1.8-0.4,3c0,2.4,0.4,4.2,1.3,5.4
		c0.9,1.2,1.9,1.8,3,1.8c1.1,0,2.1-0.3,2.9-0.9c0.8-0.6,1.3-1.5,1.4-2.7H82.1z"/>
	<path class="st0" d="M97.7,30.5V16.8c0-1.7-0.3-2.8-0.9-3.4c-0.6-0.6-1.5-0.9-2.9-0.9c-0.7,0-1.4,0.1-1.9,0.4
		c-0.6,0.3-1,0.7-1.4,1.2c-0.4,0.5-0.7,1.1-0.9,1.7c-0.2,0.6-0.3,1.3-0.3,2.1v12.7h-5.8V0.7h5.8l0,10.5c0.2-0.5,0.5-0.9,1-1.4
		c0.4-0.4,0.9-0.8,1.5-1.1c0.6-0.3,1.2-0.5,1.9-0.7c0.7-0.2,1.4-0.3,2.2-0.3c2.3,0,4.1,0.6,5.5,1.9c1.4,1.2,2.1,3,2.1,5.2v15.6H97.7
		z"/>
	<polygon class="st0" points="108.5,30.5 108.5,5.9 99.6,5.9 99.6,0.7 123.8,0.7 123.8,5.9 114.8,5.9 114.8,30.5 	"/>
	<rect x="124.8" y="0.7" class="st0" width="6.2" height="29.8"/>
	<path class="st0" d="M149.9,10c-0.1-1.5-0.7-2.5-1.6-3.2c-0.9-0.7-2.3-1.1-4.1-1.1c-3.4,0-5.1,1.2-5.1,3.5c0,0.8,0.3,1.5,1,2.1
		c0.7,0.6,1.8,1,3.4,1.4c1.8,0.4,3.4,0.8,4.8,1.2c1.3,0.4,2.6,0.8,3.7,1.3c0.6,0.3,1.2,0.6,1.8,1c0.6,0.4,1,0.9,1.4,1.4
		c0.4,0.6,0.7,1.3,0.9,2.1c0.2,0.8,0.3,1.8,0.3,2.9c0,1.4-0.3,2.6-0.9,3.6c-0.6,1.1-1.3,1.9-2.3,2.7c-1,0.7-2.1,1.3-3.4,1.7
		c-1.3,0.4-2.7,0.6-4.1,0.6c-4.1,0-7.2-0.8-9.3-2.4c-2.1-1.6-3.2-4-3.3-7.1h5.7c0,1.5,0.6,2.6,1.8,3.4c1.2,0.8,2.6,1.3,4.3,1.3
		c1.9,0,3.3-0.3,4.3-1c1-0.7,1.5-1.6,1.5-2.8c0-0.5-0.1-0.9-0.2-1.3c-0.1-0.4-0.3-0.7-0.7-1c-0.3-0.3-0.8-0.6-1.4-0.8
		c-0.6-0.2-1.3-0.5-2.2-0.7c-2.2-0.5-4-0.9-5.6-1.4c-1.6-0.5-2.9-1.1-3.9-1.7c-1-0.7-1.8-1.5-2.3-2.5c-0.5-1-0.7-2.3-0.7-3.8
		c0-1.2,0.2-2.3,0.6-3.3c0.4-1,1.1-1.9,2-2.7c0.9-0.8,2-1.4,3.3-1.8c1.3-0.4,2.8-0.7,4.6-0.7c1.7,0,3.3,0.2,4.6,0.7
		c1.4,0.4,2.5,1.1,3.5,1.9c1,0.8,1.7,1.8,2.3,2.9c0.5,1.2,0.8,2.4,0.9,3.8H149.9z"/>
</g>
</svg>
