<svg style="position: absolute; width: 0; height: 0; overflow: hidden;" version="1.1" xmlns="http://www.w3.org/2000/svg" xmlns:xlink="http://www.w3.org/1999/xlink">
<defs>
<symbol id="icon-arrow" viewBox="0 0 19 32">
<title>arrow</title>
<path class="path1" d="M2.676 32l-2.676-2.632 13.353-13.368-13.353-13.353 2.676-2.647 16 16-16 16z"></path>
</symbol>
<symbol id="icon-bars" viewBox="0 0 55 32">
<title>bars</title>
<path class="path1" d="M4.131 0h46.594v7.017h-46.594v-7.017z"></path>
<path class="path2" d="M4.131 12.349h46.594v7.017h-46.594v-7.017z"></path>
<path class="path3" d="M4.131 24.703h46.594v7.017h-46.594v-7.017z"></path>
</symbol>
<symbol id="icon-bubble" viewBox="0 0 55 32">
<title>bubble</title>
<path class="path1" d="M45.32 4.291v16.257c0 2.349-1.949 4.291-4.291 4.291h-10.309c-10.76 9.166-7.497 6.36-7.497 6.36-1.834 1.486-3.206 0.8-3.149-1.543l0.171-4.811h-6.411c-2.349 0-4.291-1.949-4.291-4.291v-16.263c-0.006-2.343 1.943-4.291 4.291-4.291h27.189c2.349 0 4.297 1.949 4.297 4.291z"></path>
</symbol>
<symbol id="icon-calendar" viewBox="0 0 30 32">
<title>calendar</title>
<path class="path1" d="M26.897 4.035h-4.351v-3.006c0-0.593-0.475-1.028-1.028-1.028s-1.028 0.435-1.028 1.028v3.046h-11.392v-3.046c0-0.593-0.475-1.028-1.028-1.028s-1.028 0.435-1.028 1.028v3.046h-4.351c-1.503-0.040-2.69 1.187-2.69 2.69v22.507c0 1.503 1.187 2.729 2.69 2.729h24.208c1.503 0 2.69-1.226 2.69-2.729v-22.507c0-1.503-1.187-2.729-2.69-2.729zM9.928 27.491h-6.447v-6.408h6.447v6.408zM9.928 19.303h-6.447v-6.408h6.447v6.408zM8.069 8.742c-1.108 0-2.017-0.91-2.017-2.017 0-0.752 0.396-1.384 1.028-1.74v1.74c0 0.554 0.435 1.028 1.028 1.028 0.554 0 1.028-0.435 1.028-1.028v-1.74c0.593 0.356 1.028 0.989 1.028 1.74-0.079 1.108-0.989 2.017-2.096 2.017zM17.998 27.491h-6.408v-6.408h6.447v6.408zM17.998 19.303h-6.408v-6.408h6.447v6.408zM20.529 4.984v1.74c0 0.554 0.435 1.028 1.028 1.028 0.554 0 1.028-0.435 1.028-1.028v-1.74c0.593 0.356 1.028 0.989 1.028 1.74 0 1.108-0.91 2.017-2.017 2.017s-2.017-0.91-2.017-2.017c-0.079-0.752 0.316-1.384 0.949-1.74zM26.106 27.491h-6.447v-6.408h6.447v6.408zM26.106 19.303h-6.447v-6.408h6.447v6.408z"></path>
</symbol>
<symbol id="icon-cells" viewBox="0 0 41 32">
<title>cells</title>
<path class="path1" d="M28.177 30.939c-7.091 0-12.84-5.749-12.84-12.84s5.749-12.84 12.84-12.84c7.091 0 12.84 5.749 12.84 12.84-0.013 7.086-5.754 12.827-12.839 12.84zM28.177 9.149c-4.882 0-8.84 3.958-8.84 8.84s3.958 8.84 8.84 8.84c4.882 0 8.84-3.958 8.84-8.84-0.049-4.867-3.975-8.8-8.834-8.862z"></path>
<path class="path2" d="M10.254 20.508c-5.663 0-10.254-4.591-10.254-10.254s4.591-10.254 10.254-10.254c5.663 0 10.254 4.591 10.254 10.254-0.013 5.658-4.596 10.242-10.253 10.254zM10.254 3.889c-3.515 0-6.365 2.85-6.365 6.365s2.85 6.365 6.365 6.365c3.515 0 6.365-2.85 6.365-6.365-0.013-3.506-2.857-6.343-6.365-6.343 0 0 0 0 0 0z"></path>
<path class="path3" d="M12 32c-3.869 0-7.006-3.136-7.006-7.006s3.136-7.006 7.006-7.006c3.869 0 7.006 3.136 7.006 7.006s-3.136 7.006-7.006 7.006zM12 21.901c-1.709 0-3.094 1.385-3.094 3.094s1.385 3.094 3.094 3.094c1.709 0 3.094-1.385 3.094-3.094s-1.385-3.094-3.094-3.094z"></path>
</symbol>
<symbol id="icon-chart" viewBox="0 0 26 32">
<title>chart</title>
<path class="path1" d="M7.812 8.462l1.476-2.043c0.137 0.037 0.294 0.059 0.457 0.059 0.484 0 0.924-0.192 1.247-0.503l4.375 2.395c0 0.217 0 0.444 0 0.66 0.031 0.575 0.467 1.039 1.026 1.114 0.042 0.004 0.084 0.006 0.127 0.006 0.747 0 1.352-0.605 1.352-1.352 0-0.296-0.095-0.571-0.257-0.794l5.214-5.651c0.209 0.112 0.458 0.177 0.722 0.177 0.212 0 0.415-0.042 0.599-0.119 0.239-0.127 0.448-0.301 0.616-0.508 0.106-0.183 0.166-0.397 0.166-0.626 0-0.365-0.154-0.693-0.4-0.925-0.238-0.223-0.558-0.359-0.909-0.359-0.255 0-0.494 0.072-0.697 0.197-0.52 0.348-0.634 0.967-0.324 1.947-0.784 0.846-1.599 1.703-2.404 2.58s-1.558 1.734-2.342 2.59c-0.153 0.147-0.318 0.286-0.492 0.414-0.205-0.088-0.431-0.144-0.67-0.144-0.452 0-0.857 0.203-1.127 0.523l-4.357-2.34c0.015-0.088 0.024-0.189 0.024-0.292 0-0.413-0.141-0.793-0.378-1.095-0.255-0.199-0.563-0.35-0.9-0.427-0.665-0.127-1.089 0.379-1.377 1.38l0.423 0.867c-0.506 0.712-0.96 1.476-1.538 2.146-0.276 0.338-0.548 0.715-0.797 1.108-0.957 1.451-1.958 2.803-2.938 4.175-0.103 0.144-0.227 0.268-0.32 0.371-0.164-0.076-0.356-0.12-0.558-0.12-0.491 0-0.922 0.26-1.162 0.65-0.068 0.164-0.106 0.347-0.106 0.539 0 0.451 0.208 0.853 0.533 1.116 0.204 0.137 0.452 0.217 0.718 0.217 0.332 0 0.635-0.124 0.865-0.329 0.234-0.255 0.377-0.598 0.377-0.974s-0.144-0.719-0.38-0.976l2.921-3.9c0.020-0.005 0.043-0.009 0.067-0.009s0.047 0.003 0.069 0.009h0.060c0.003 0.009 0.004 0.020 0.004 0.031s-0.002 0.022-0.005 0.032q0 10.731 0 21.422c0.175 0.184 0.422 0.298 0.695 0.298 0.046 0 0.091-0.003 0.136-0.009l4.257 0.001c0.043 0.010 0.093 0.016 0.143 0.016 0.359 0 0.65-0.291 0.65-0.65 0-0.038-0.003-0.076-0.010-0.113 0.001-0.12 0.001-0.244 0.001-0.368q0-10.577 0-21.154c0-0.072 0-0.144 0-0.227 0-0.691-0.134-0.826-0.836-0.826h-3.519c-0.040 0.014-0.086 0.021-0.134 0.021-0.164 0-0.307-0.091-0.38-0.226z"></path>
<path class="path2" d="M26.324 31.711q0-0.444 0-0.887 0-12.135 0-24.271s0-0.103 0-0.144c0-0.671 0-0.722-0.722-0.722h-4.86c-0.156 0.284-0.248 0.622-0.248 0.981 0 0.018 0 0.035 0.001 0.053q0 12.102 0 24.196c-0.004 0.056-0.006 0.12-0.006 0.186s0.002 0.13 0.006 0.195c0.025 0.351 0.311 0.636 0.668 0.662 0.047 0.003 0.099 0.005 0.152 0.005s0.105-0.002 0.157-0.005h4.028c0.043 0.006 0.093 0.010 0.143 0.010 0.262 0 0.501-0.098 0.683-0.259z"></path>
<path class="path3" d="M19.441 22.135q0-4.406 0-8.823c0-0.877 0-0.877-0.857-0.877h-4.19c-0.044-0.011-0.094-0.017-0.146-0.017-0.353 0-0.64 0.286-0.64 0.64 0 0.042 0.004 0.084 0.012 0.124-0.001 0.14-0.001 0.295-0.001 0.44q0 8.668 0 17.347c0 0.124 0 0.248 0 0.372-0.003 0.023-0.005 0.049-0.005 0.075 0 0.319 0.259 0.578 0.578 0.578 0.020 0 0.040-0.001 0.059-0.003 0.297 0 0.596 0 0.895 0h3.426c0.079 0.006 0.171 0.010 0.263 0.010s0.184-0.004 0.275-0.010c0.171-0.015 0.313-0.165 0.318-0.35 0-0.176 0-0.351 0-0.527q0-4.489 0-8.967v0z"></path>
<path class="path4" d="M0 31.835c0.217 0.069 0.472 0.124 0.735 0.153 1.432 0.002 2.856 0.002 4.28 0.002 0.65 0 0.795-0.144 0.795-0.784q0-6.192 0-12.476c0-0.537 0-0.547-0.557-0.681-0.173-0.046-0.372-0.072-0.578-0.072-1.218 0-2.436 0-3.664 0-0.385 0.028-0.738 0.079-1.082 0.154l0.051 13.705z"></path>
</symbol>
<symbol id="icon-cloud-arrow" viewBox="0 0 55 32">
<title>cloud-arrow</title>
<path class="path1" d="M45.029 15.869c0.783-1.503 1.24-3.137 1.24-4.897-0.063-6.074-5.223-10.971-11.623-10.971-4.766 0-8.88 2.743-10.646 6.594-1.309-1.109-3.006-1.829-4.897-1.829-4.114 0-7.377 3.263-7.377 7.251 0 1.046 0.194 2.023 0.651 2.937-4.051 0.851-6.989 4.246-6.989 8.423 0 4.766 3.92 8.623 8.817 8.623h26.451c4.897 0 8.817-3.851 8.817-8.623-0.006-3.2-1.766-6.006-4.446-7.509zM37.383 19.594l-7.966 7.446c-0.114 0.114-0.251 0.16-0.389 0.16s-0.274-0.046-0.389-0.16l-7.966-7.446c-0.114-0.091-0.16-0.229-0.16-0.389 0-0.069 0.023-0.137 0.046-0.206 0.091-0.206 0.274-0.32 0.497-0.32h4.789v-7.989c0-0.297 0.229-0.52 0.52-0.52h5.314c0.297 0 0.52 0.251 0.52 0.52v7.994h4.789c0.206 0 0.411 0.137 0.497 0.32 0.023 0.069 0.046 0.137 0.046 0.206 0.011 0.131-0.034 0.269-0.149 0.383z"></path>
</symbol>
<symbol id="icon-cloud" viewBox="0 0 44 32">
<title>cloud</title>
<path class="path1" d="M29.257 0c-4.767 0-8.882 2.743-10.645 6.596-1.306-1.11-3.004-1.829-4.898-1.829-4.114 0-7.38 3.265-7.38 7.249 0 1.045 0.196 2.024 0.653 2.939-4.049 0.849-6.988 4.245-6.988 8.424 0 4.767 3.918 8.62 8.816 8.62h26.449c4.898 0 8.816-3.853 8.816-8.62 0-3.2-1.763-6.008-4.441-7.51 0.784-1.502 1.241-3.135 1.241-4.898-0.065-6.073-5.224-10.971-11.624-10.971v0z"></path>
</symbol>
<symbol id="icon-cream" viewBox="0 0 18 32">
<title>cream</title>
<path class="path1" d="M-0.002 5.141l11.628-5.141 0.504 1.139-11.628 5.141-0.504-1.139z"></path>
<path class="path2" d="M11.58 2.076c-0.14 0.583-0.301 1.078-0.495 1.555l5.288 15.821-1.293 0.593-4.918-14.576c-1.4 2.177-4.010 4.076-8.555 0.979l9.433 16.018 6.235-2.498z"></path>
<path class="path3" d="M12.927 22.134l1.59 2.848 2.094-0.759-0.777-3.275-2.907 1.186z"></path>
<path class="path4" d="M14.902 30.968c-0.062 0.024-0.134 0.038-0.21 0.038-0.282 0-0.519-0.197-0.579-0.461s-0.594-0.704 0.415-2.49c-0.073 0.233-0.116 0.501-0.116 0.778 0 0.64 0.225 1.228 0.6 1.689 0.029 0.044 0.048 0.105 0.048 0.17 0 0.117-0.063 0.22-0.157 0.276zM15.579 25.451c-1.869 2.284-2.213 3.738-2.13 4.598 0.099 1.077 0.998 1.913 2.092 1.913 1.117 0 2.030-0.872 2.096-1.973 0.16-1.892-2.058-4.538-2.058-4.538z"></path>
</symbol>
<symbol id="icon-dna" viewBox="0 0 32 32">
<title>dna</title>
<path class="path1" d="M31.934 8.408c-0.135-0.158-0.334-0.258-0.556-0.258-0.205 0-0.39 0.085-0.523 0.221-0.608 0.56-1.339 0.996-2.146 1.264l-4.162-4.086c-0.138-0.138-0.329-0.224-0.54-0.224-0.422 0-0.763 0.342-0.763 0.763 0 0.211 0.085 0.402 0.224 0.54l3.391 3.391c-0.392 0.043-0.846 0.067-1.305 0.067s-0.914-0.024-1.361-0.072c0.033 0.002 0.006 0.001-0.021 0.001-0.423 0-0.766 0.343-0.766 0.766 0 0.396 0.301 0.722 0.686 0.762 0.477 0.044 0.988 0.081 1.527 0.081 0.126 0.006 0.273 0.010 0.421 0.010 2.24 0 4.291-0.815 5.87-2.164 0.143-0.124 0.241-0.322 0.241-0.542 0-0.203-0.083-0.387-0.217-0.519z"></path>
<path class="path2" d="M22.746 10.99c0-0.066-2.144-6.352 1.021-9.706 0.127-0.136 0.206-0.32 0.206-0.521 0-0.422-0.342-0.764-0.764-0.764-0.22 0-0.418 0.093-0.558 0.242-3.749 3.982-1.503 10.823-1.357 11.246 0.080 0.248 1.349 4.463-1.152 7.548l-7.088-7.096c0.579-0.461 1.255-0.833 1.988-1.080l4.080 4.019c0.138 0.138 0.329 0.224 0.54 0.224 0.422 0 0.763-0.342 0.763-0.763 0-0.211-0.085-0.402-0.224-0.54l-3.318-3.318c0.268-0.024 0.58-0.038 0.894-0.038 0.5 0 0.992 0.035 1.473 0.103-0.025-0.002 0.011 0 0.047 0 0.423 0 0.765-0.343 0.765-0.765 0-0.387-0.287-0.706-0.659-0.758-0.469-0.069-1.006-0.108-1.551-0.108-0.931 0-1.836 0.114-2.701 0.328-0.012-0.008-0.093 0.016-0.168 0.051-1.402 0.393-2.609 1.111-3.577 2.070l0.001-0.001c-3.785 3.763-2.093 9.342-2.005 9.619v0c0 0.066 2.144 6.352-1.021 9.706-0.135 0.138-0.218 0.327-0.218 0.536 0 0.424 0.344 0.768 0.768 0.768 0.216 0 0.411-0.089 0.55-0.232 3.749-3.982 1.495-10.822 1.357-11.245-0.066-0.241-1.356-4.419 1.123-7.497l7.081 7.081c-0.573 0.44-1.238 0.797-1.958 1.036l-4.095-4.034c-0.141-0.135-0.332-0.219-0.543-0.219-0.433 0-0.784 0.351-0.784 0.784 0 0.222 0.092 0.422 0.24 0.565l3.326 3.326c-0.251 0.021-0.543 0.034-0.838 0.034-0.507 0-1.005-0.036-1.493-0.106 0.025 0.002-0.010 0-0.046 0-0.423 0-0.765 0.343-0.765 0.765 0 0.387 0.287 0.706 0.659 0.758 0.488 0.069 1.047 0.109 1.615 0.11 0.078 0.002 0.169 0.004 0.26 0.004 2.346 0 4.48-0.909 6.068-2.393l-0.005 0.005c3.792-3.763 2.086-9.356 2.005-9.619v0z"></path>
<path class="path3" d="M8.058 25.473l-3.413-3.413c0.583-0.101 1.255-0.158 1.94-0.158 0.457 0 0.909 0.026 1.353 0.076-0.034-0.003-0.010-0.002 0.015-0.002 0.431 0 0.78-0.349 0.78-0.78 0-0.406-0.311-0.74-0.707-0.776-0.441-0.057-0.947-0.089-1.461-0.089-1.322 0-2.594 0.214-3.783 0.609l0.085-0.024c-1.018 0.352-1.893 0.882-2.631 1.558-0.153 0.139-0.252 0.345-0.252 0.575 0 0.432 0.35 0.782 0.782 0.782 0.202 0 0.387-0.077 0.526-0.203 0.477-0.438 1.035-0.799 1.646-1.057l4.041 3.989c0.138 0.137 0.329 0.222 0.54 0.222 0.423 0 0.766-0.343 0.766-0.766 0-0.212-0.086-0.405-0.226-0.543z"></path>
</symbol>
<symbol id="icon-dog" viewBox="0 0 55 32">
<title>dog</title>
<path class="path1" d="M54.223 7.093c-0.618 0.402-1.115 0.941-1.459 1.575-0.479 0.909-1.395 1.503-2.449 1.503-0.27 0-0.53-0.039-0.777-0.111-0.341-0.11-0.654-0.273-0.932-0.48s0.008 2.386-1.334 2.354c-0.24 0-1.15-0.128-1.15-0.128-0.483 2.919-1.871 5.451-3.862 7.361-1.267 1.288-2.187 2.914-2.611 4.73-0.261 0.925-0.404 1.909-0.404 2.927s0.142 2.003 0.409 2.935c0.399 0.093 0.931 0.268 1.476 0.413 0.638 0.289 0.999 0.832 0.999 1.458 0 0.018 0 0.036-0.001 0.053-0.057 0.1-0.132 0.185-0.221 0.252l-4.939 0.002c-0.982-1.48-1.715-3.217-2.093-5.083-0.799-3.64-0.415-5.813-0.751-5.925-3.659 1.598-8.212-1.15-9.010-1.598-0.288-0.283-0.683-0.458-1.12-0.458-0.206 0-0.404 0.039-0.585 0.11-0.948 0.108-1.283 0.571-2.066 1.993-1.498 2.035-3.070 3.831-4.781 5.484-0.795 0.81-0.012 2.871-0.012 2.935 0.815 0.119 1.509 0.561 1.959 1.189 0.294 0.232 1.012 0.872 0.294 1.319l-0.16 0.048h-3.083c-0.015 0.001-0.032 0.001-0.049 0.001-0.487 0-0.884-0.382-0.909-0.862-0.388-0.744-0.697-1.605-0.884-2.51-0.255-0.988-0.474-2.132-0.62-3.299-0.525 1.141-1.915 1.541-1.915 2.052-0.086 0.887-0.204 1.667-0.361 2.433s1.208 0.587 1.623 0.938c0.13 0.128 0.21 0.305 0.21 0.501 0 0.355-0.264 0.649-0.606 0.696l-0.243 0.048h-1.358c-0.487-0.106-0.904-0.233-1.306-0.388-0.453-0.252-0.797-0.784-0.797-1.395 0-0.064 0.004-0.127 0.011-0.189-0.001-0.059-0.002-0.137-0.002-0.216 0-0.788 0.041-1.566 0.121-2.333 0.168-1.102 0.551-2.988 0.551-2.988 0.559-0.975 1.741-3.195 1.693-3.099-1.006 0-3.099 1.709-4.218 2.46-0.642 0.374-1.414 0.594-2.237 0.594-0.146 0-0.291-0.007-0.434-0.021s-2.682 1.040-3.688-0.222 3.195-3.083 7.429-6.119 3.035-6.39 5.064-8.755 5.624-3.339 9.729-3.387c10.129 0.623 12.046-0.399 14.858-1.102s4.681-3.083 7.78-4.33 4.521 0.399 5.672 1.134c0.495 0.413 0.807 1.030 0.807 1.72 0 0.201-0.026 0.395-0.076 0.58s1.314 0.895 2.608 1.534c0.32 0.164 0.534 0.492 0.534 0.87 0 0.289-0.126 0.549-0.326 0.727z"></path>
</symbol>
<symbol id="icon-download" viewBox="0 0 32 32">
<title>download</title>
<path class="path1" d="M0 16.981c0-0.128 0.043-0.256 0.085-0.384 0.171-0.384 0.512-0.597 0.939-0.597h9.003v-15.019c0-0.555 0.427-0.981 0.981-0.981h9.984c0.555 0 0.981 0.469 0.981 0.981v15.019h9.003c0.384 0 0.768 0.256 0.939 0.597 0.043 0.128 0.085 0.256 0.085 0.384 0 0.256-0.085 0.512-0.299 0.725l-14.976 13.995c-0.213 0.213-0.469 0.299-0.725 0.299s-0.512-0.085-0.725-0.299l-14.976-13.995c-0.213-0.171-0.299-0.427-0.299-0.725z"></path>
</symbol>
<symbol id="icon-droplet" viewBox="0 0 21 32">
<title>droplet</title>
<path class="path1" d="M7.136 26.95s-2.36 1.061-3.842-2.086c0 0-2.781-3.421 2.049-12.149-0.362 1.142-0.57 2.455-0.57 3.817 0 3.127 1.099 5.997 2.931 8.246 0.131 0.213 0.22 0.5 0.22 0.809 0 0.58-0.313 1.086-0.78 1.359zM10.447 0c-9.13 11.142-10.795 18.296-10.447 22.468 0.472 5.273 4.87 9.375 10.226 9.375 5.465 0 9.933-4.272 10.247-9.658 0.77-9.267-10.025-22.184-10.025-22.184z"></path>
</symbol>
<symbol id="icon-envelope" viewBox="0 0 48 32">
<title>envelope</title>
<path class="path1" d="M23.905 20.996c-0.506 0-1.012-0.126-1.518-0.506l-22.387-16.696v25.296c0 1.771 1.391 2.909 3.162 2.909h41.36c1.771 0 3.162-1.138 3.162-2.909v-25.296l-22.387 16.696c-0.379 0.379-0.885 0.506-1.391 0.506z"></path>
<path class="path2" d="M44.648 0l-20.743 15.557-20.743-15.557z"></path>
</symbol>
<symbol id="icon-facebook" viewBox="0 0 15 32">
<title>facebook</title>
<path class="path1" d="M0 10.583h3.328v-3.22c0-1.414 0-3.603 1.065-4.992 1.084-1.453 2.798-2.384 4.729-2.384 0.136 0 0.272 0.005 0.406 0.014 0.25-0.013 0.564-0.020 0.88-0.020 1.788 0 3.523 0.226 5.179 0.65l-0.976 4.869c-0.791-0.228-1.704-0.372-2.646-0.399-1.306 0-2.454 0.457-2.454 1.747v3.736h5.275l-0.366 4.784h-4.909v16.641h-6.182v-16.641h-3.328v-4.784z"></path>
</symbol>
<symbol id="icon-family" viewBox="0 0 40 32">
<title>family</title>
<path class="path1" d="M35.031 15.234c1.003 0 1.816-0.813 1.816-1.816s-0.813-1.816-1.816-1.816c-1.003 0-1.816 0.813-1.816 1.816s0.813 1.816 1.816 1.816z"></path>
<path class="path2" d="M22.022 5.21c1.425-0.006 2.577-1.163 2.577-2.588 0-1.429-1.159-2.588-2.588-2.588-1.425 0-2.582 1.152-2.588 2.576 0 0.004 0 0.008 0 0.012 0 1.429 1.159 2.588 2.588 2.588 0.004 0 0.008 0 0.012 0z"></path>
<path class="path3" d="M7.946 5.222c1.437-0.006 2.599-1.173 2.599-2.611 0-1.442-1.169-2.611-2.611-2.611s-2.611 1.169-2.611 2.611c0.006 1.443 1.178 2.611 2.622 2.611 0 0 0 0 0 0z"></path>
<path class="path4" d="M32.556 30.933c0 0.592 0.48 1.073 1.073 1.073s1.073-0.48 1.073-1.073v-6.38h0.829v6.38c0 0.592 0.48 1.073 1.073 1.073s1.073-0.48 1.073-1.073v-11.93h0.829v4.041c-0.004 0.028-0.006 0.061-0.006 0.095 0 0.439 0.356 0.795 0.795 0.795s0.795-0.356 0.795-0.795c0-0.033-0.002-0.066-0.006-0.099v-4.537c-0.038-1.299-1.1-2.338-2.406-2.338-0.004 0-0.009 0-0.013 0h-4.96l-1.601-0.159-2.043-7.186c-0.293-1.565-1.625-2.742-3.241-2.792h-6.657c-1.631 0.040-2.974 1.22-3.266 2.771l-1.082 3.767-1.078-3.746c-0.291-1.554-1.605-2.725-3.206-2.792h-5.149c-1.621 0.051-2.953 1.227-3.243 2.771l-2.081 7.241c-0.045 0.118-0.071 0.253-0.071 0.395 0 0.502 0.326 0.928 0.778 1.078 0.099 0.029 0.204 0.044 0.312 0.044 0.516 0 0.952-0.345 1.090-0.817l2.011-7.046h0.988l-2.895 12.18h2.554v8.65c0 0.715 0.579 1.294 1.294 1.294s1.294-0.579 1.294-1.294v-8.65h1.135v8.65c0 0.715 0.579 1.294 1.294 1.294s1.294-0.579 1.294-1.294v-8.65h2.486l-2.906-12.18h0.988l2.009 7.038c0.12 0.467 0.538 0.807 1.035 0.807 0.015 0 0.031 0 0.046-0.001 0.012 0.001 0.029 0.001 0.046 0.001 0.51 0 0.941-0.336 1.085-0.799l2.011-7.046h0.908v20.58c0 0.843 0.684 1.527 1.527 1.527s1.527-0.684 1.527-1.527v-11.715h1.135v11.726c0 0.84 0.681 1.521 1.521 1.521s1.521-0.681 1.521-1.521v-20.592h0.988l1.873 6.811c0.169 0.453 0.533 0.799 0.988 0.939l2.622 0.718v12.771z"></path>
</symbol>
<symbol id="icon-file" viewBox="0 0 26 32">
<title>file</title>
<path class="path1" d="M16 0h-12.866c-1.649 0-3.134 1.485-3.134 3.134v25.567c0 1.814 1.485 3.134 3.134 3.134h19.134c1.814 0 3.134-1.485 3.134-3.134v-19.134l-9.402-9.567zM23.258 11.216h-8.907v-8.742l8.907 8.742z"></path>
</symbol>
<symbol id="icon-googleplus" viewBox="0 0 31 32">
<title>googleplus</title>
<path class="path1" d="M10.14 30.42c-3.819 0-6.584-2.436-6.584-5.333 0-2.831 3.424-5.202 7.243-5.136 0.856 0 1.712 0.132 2.436 0.395 2.041 1.449 3.556 2.239 3.951 3.885 0.066 0.329 0.132 0.658 0.132 1.053 0 2.897-1.844 5.136-7.177 5.136zM11.128 13.432c-2.568-0.066-5.004-2.831-5.399-6.189-0.461-3.358 1.251-5.926 3.819-5.86s5.004 2.765 5.399 6.123c0.461 3.358-1.251 6.058-3.819 5.926zM16.395 18.436c-0.922-0.658-2.634-2.173-2.634-3.095 0-1.053 0.329-1.58 1.909-2.831 1.646-1.251 2.831-3.095 2.831-5.202 0-2.502-1.119-4.938-3.226-5.728h3.161l2.239-1.58h-9.877c-4.477 0-8.626 3.358-8.626 7.243 0 4.016 3.029 7.243 7.506 7.243 0.329 0 0.593 0 0.922 0-0.263 0.593-0.527 1.185-0.527 1.844 0 1.119 0.593 1.975 1.317 2.765-0.593 0-1.119 0-1.712 0-5.465-0.066-9.679 3.49-9.679 7.111 0 3.556 4.675 5.794 10.14 5.794 6.255 0 9.745-3.556 9.745-7.111 0-2.897-0.856-4.609-3.49-6.453zM30.881 13.761h-3.885v-3.885h-3.095v3.885h-3.885v3.095h3.885v3.885h3.095v-3.885h3.885v-3.095z"></path>
</symbol>
<symbol id="icon-graph" viewBox="0 0 26 32">
<title>graph</title>
<path class="path1" d="M7.762 8.443c0.545-0.681 0.953-1.362 1.498-2.043 0.681 0 1.226 0.136 1.634-0.409 1.498 0.817 2.86 1.634 4.357 2.451 0 0.272 0 0.409 0 0.681 0 0.545 0.409 0.953 0.953 1.089 0.409 0.136 0.953-0.272 1.226-0.545 0.272-0.545 0.272-0.953 0-1.498 1.77-1.906 3.404-3.813 5.174-5.583 0.409 0.136 0.953 0.272 1.362 0 0.272-0.136 0.409-0.272 0.545-0.545 0.545-0.681 0.409-1.362 0-1.634-0.409-0.408-1.089-0.408-1.634-0.136-0.545 0.408-0.681 0.953-0.272 1.906-0.817 0.817-1.634 1.77-2.451 2.587s-1.498 1.77-2.315 2.587c-0.136 0.136-0.272 0.272-0.545 0.409-0.681-0.136-1.226-0.272-1.77 0.408-1.498-0.817-2.86-1.498-4.357-2.315 0-0.409 0.136-1.089-0.409-1.362-0.136-0.272-0.545-0.545-0.817-0.545-0.545-0.136-1.089 0.409-1.362 1.362 0.136 0.272 0.272 0.545 0.409 0.953-0.545 0.681-0.953 1.498-1.498 2.179-0.409 0.272-0.545 0.681-0.817 1.089-0.953 1.362-1.906 2.723-2.86 4.085-0.136 0.136-0.272 0.272-0.272 0.409-0.817-0.272-1.498 0-1.77 0.545s0 1.362 0.408 1.634c0.409 0.272 1.089 0.272 1.634-0.136s0.545-1.089 0-1.906c0.953-1.362 1.906-2.587 2.86-3.949 0 0 0.136 0 0.136 0s0 0 0 0 0 0 0 0c0 7.217 0 14.298 0 21.515 0.272 0.272 0.545 0.272 0.817 0.272 1.362 0 2.86 0 4.221 0 0.545 0 0.681-0.136 0.817-0.681 0-0.136 0-0.272 0-0.409 0-7.081 0-14.026 0-21.106 0-0.136 0-0.136 0-0.272 0-0.681-0.136-0.817-0.817-0.817-1.226 0-2.315 0-3.54 0-0.136 0-0.409 0-0.545-0.272z"></path>
<path class="path2" d="M26.281 31.728c0-0.272 0-0.545 0-0.953 0-8.034 0-16.204 0-24.238 0 0 0-0.136 0-0.136 0-0.681 0-0.681-0.681-0.681-1.634 0-3.268 0-4.902 0-0.136 0.272-0.272 0.681-0.272 1.089 0 8.034 0 16.068 0 24.238 0 0.136 0 0.272 0 0.409 0 0.409 0.272 0.681 0.681 0.681 0.136 0 0.136 0 0.272 0 1.362 0 2.723 0 4.085 0 0.272-0.136 0.545-0.136 0.817-0.409z"></path>
<path class="path3" d="M19.472 22.060c0-2.996 0-5.855 0-8.851 0-0.817 0-0.817-0.817-0.817-1.362 0-2.723 0-4.221 0-0.545 0-0.681 0.136-0.817 0.681 0 0.136 0 0.272 0 0.409 0 5.719 0 11.574 0 17.294 0 0.136 0 0.272 0 0.409 0 0.409 0.272 0.681 0.681 0.681 0.272 0 0.545 0 0.953 0 1.089 0 2.315 0 3.404 0 0.136 0 0.409 0 0.545 0s0.272-0.136 0.272-0.409c0-0.136 0-0.409 0-0.545 0-2.86 0-5.855 0-8.851 0 0 0 0 0 0z"></path>
<path class="path4" d="M0 31.864c0.272 0 0.545 0.136 0.817 0.136 1.362 0 2.86 0 4.221 0 0.681 0 0.817-0.136 0.817-0.817 0-4.221 0-8.306 0-12.528 0-0.545 0-0.545-0.545-0.681-0.136 0-0.409-0.136-0.545-0.136-1.226 0-2.451 0-3.677 0-0.272 0-0.681 0.136-0.953 0.136-0.136 4.766-0.136 9.26-0.136 13.889z"></path>
</symbol>
<symbol id="icon-info" viewBox="0 0 14 32">
<title>info</title>
<path class="path1" d="M9.235 9.127c-2.52 0-4.563-2.043-4.563-4.564s2.043-4.564 4.564-4.564 4.564 2.043 4.564 4.564c0 0.019 0 0.038 0 0.057-0.030 2.494-2.062 4.507-4.563 4.507 0 0 0 0 0 0zM11.248 29.467c-2.018 1.582-4.594 2.538-7.393 2.538-0.256 0-0.511-0.008-0.763-0.024-1.522-0.109-2.743-1.399-2.743-2.974 0-0.377 0.070-0.738 0.198-1.070 0.676-2.836 1.395-5.675 2.095-8.532 0.087-0.182 0.138-0.397 0.138-0.623 0-0.748-0.558-1.366-1.28-1.461-0.277-0.001-0.546-0.127-0.834-0.198-0.008 0-0.018 0.001-0.028 0.001-0.377 0-0.683-0.306-0.683-0.683 0-0.241 0.125-0.452 0.313-0.574 0.137-0.16 0.291-0.297 0.462-0.41 1.905-1.338 4.234-2.18 6.752-2.304 0.223-0.044 0.445-0.068 0.672-0.068 1.368 0 2.53 0.884 2.945 2.111 0.082 0.332 0.125 0.689 0.125 1.055s-0.043 0.723-0.125 1.064c-0.623 2.772-1.341 5.539-2.024 8.324-0.105 0.204-0.166 0.445-0.166 0.701 0 0.852 0.682 1.545 1.53 1.563 0.158 0.026 0.297 0.063 0.43 0.113 0.306 0.080 0.581 0.25 0.792 0.479 0.002 0.017 0.002 0.036 0.002 0.054 0 0.365-0.16 0.692-0.413 0.916z"></path>
</symbol>
<symbol id="icon-joint" viewBox="0 0 18 32">
<title>joint</title>
<path class="path1" d="M5.686 17.339c-2.601 0-4.707 0.765-4.707 1.683 0 0.019 0 0.042 0 0.064 0 1.484 0.442 2.864 1.2 4.018 1.248 1.885 0.824 8.336 0.824 8.336-0.306 0.729 4.743 0.535 4.743 0.535s1.224-9.026 2.489-12.504c0.108-0.123 0.179-0.282 0.194-0.456-0.036-0.956-2.142-1.686-4.742-1.686v0zM10.082 0h-4.131c0.229 5.89-0.306 7.802-0.612 8.414-0.073 0.077-0.136 0.164-0.186 0.259-0.615 0.965-1.023 2.337-2.451 3.449-1.948 1.53 1.948 4.513 4.36 4.513s4.131-1.912 4.36-4.513v-0.229c0.535-2.178-1.341-11.892-1.341-11.892v0zM12.418 19.429c-0.069-0.056-0.158-0.089-0.255-0.089-0.225 0-0.408 0.183-0.408 0.408 0 0.098 0.035 0.188 0.092 0.258l3.253 3.324c0.077 0.073 0.182 0.117 0.297 0.117 0.003 0 0.007 0 0.010 0 0.117-0.005 0.223-0.048 0.306-0.118 0.069-0.074 0.112-0.174 0.112-0.285s-0.043-0.211-0.113-0.286zM17.731 17.135l-4.625-0.459c-0.019-0.003-0.042-0.005-0.064-0.005-0.234 0-0.423 0.189-0.423 0.423 0 0.23 0.183 0.416 0.411 0.423l4.667 0.459c0 0 0.001 0 0.002 0 0.218 0 0.398-0.167 0.417-0.381 0.001-0.011 0.001-0.023 0.001-0.035 0-0.221-0.167-0.403-0.382-0.426zM12.749 14.84c0.003 0 0.007 0 0.010 0 0.096 0 0.187-0.019 0.27-0.053l3.626-2.905c0.096-0.076 0.157-0.193 0.157-0.324 0-0.228-0.185-0.412-0.412-0.412-0.097 0-0.186 0.033-0.256 0.089l-3.65 2.881c-0.096 0.078-0.156 0.196-0.156 0.329 0 0.093 0.030 0.179 0.081 0.249 0.075 0.093 0.191 0.152 0.32 0.152 0.007 0 0.014 0 0.021-0.001h-0.001z"></path>
<path class="path2" d="M0.061 31.551h0.882s1.183-3.478 1.413-4.743-1.377-4.319-1.377-4.319c-1.336 1.953-0.918 9.062-0.918 9.062z"></path>
</symbol>
<symbol id="icon-linkedin" viewBox="0 0 35 32">
<title>linkedin</title>
<path class="path1" d="M7.676 32h-6.77v-21.75h6.797v21.75zM4.105 7.531h-0.054c-0.084 0.007-0.182 0.010-0.281 0.010-2.079 0-3.766-1.684-3.77-3.762 0-2.148 1.64-3.78 4.151-3.78 0.092-0.008 0.2-0.013 0.308-0.013 2.090 0 3.785 1.693 3.788 3.782 0 2.103-1.595 3.77-4.142 3.77zM34.855 32h-7.667v-11.247c0-2.945-1.205-4.957-3.852-4.957-1.705 0.005-3.152 1.107-3.671 2.637-0.125 0.431-0.193 0.896-0.193 1.375 0 0.164 0.008 0.325 0.023 0.485l-0.002 11.761h-7.712s0.1-19.938 0-21.75h7.631v3.408c0.453-1.495 2.891-3.625 6.779-3.625 4.83 0 8.619 3.127 8.619 9.86v12.053z"></path>
</symbol>
<symbol id="icon-loudhailer" viewBox="0 0 42 32">
<title>loudhailer</title>
<path class="path1" d="M40.43 9.040h-1.276v8.263h1.276c0.666 0 1.165-0.555 1.165-1.165v-5.934c0-0.665-0.555-1.165-1.165-1.165z"></path>
<path class="path2" d="M29.227 29.948c-0.166 0.61 0.222 1.276 0.832 1.442l2.052 0.555c0.111 0 0.222 0.055 0.333 0.055 0.499 0 0.998-0.333 1.165-0.887l2.995-11.425h-4.659l-2.718 10.26z"></path>
<path class="path3" d="M30.281 23.127l0.943-3.438h-2.107l-0.776 2.939c-0.166 0.61 0.111 1.276 0.666 1.386 0.055 0 0.166 0.055 0.222 0.055 0.444 0 0.887-0.388 1.054-0.943z"></path>
<path class="path4" d="M0 0.998v24.402c0 0.998 0.832 1.22 1.442 0.666 0 0 9.151-7.653 23.127-8.652v-8.485c-13.92-0.998-23.127-8.652-23.127-8.652-0.61-0.499-1.442-0.333-1.442 0.721z"></path>
<path class="path5" d="M37.269 7.376h-10.815c-0.666 0-1.165 0.555-1.165 1.165v9.262c0 0.666 0.555 1.165 1.165 1.165h10.759c0.111 0 0.222 0 0.333-0.055 0.444-0.111 0.776-0.444 0.832-0.887 0-0.055 0-0.166 0-0.222v-9.262c0-0.055 0-0.166 0-0.222-0.111-0.555-0.555-0.943-1.109-0.943z"></path>
</symbol>
<symbol id="icon-magnifier" viewBox="0 0 33 32">
<title>magnifier</title>
<path class="path1" d="M12.976 23.097v0c-0.019 0-0.041 0-0.063 0-5.624 0-10.184-4.559-10.184-10.184s4.559-10.184 10.184-10.184c5.624 0 10.184 4.559 10.184 10.184 0 0.022 0 0.044 0 0.066-0.035 5.572-4.546 10.082-10.117 10.117zM32.525 30.005l-9.302-9.218c1.659-2.153 2.66-4.888 2.66-7.857 0-7.143-5.791-12.934-12.934-12.934s-12.934 5.791-12.934 12.934c0 7.143 5.791 12.934 12.934 12.934 3.217 0 6.16-1.175 8.423-3.118l9.222 9.253z"></path>
</symbol>
<symbol id="icon-marker" viewBox="0 0 22 32">
<title>marker</title>
<path class="path1" d="M10.88 0c-5.994 0-10.88 4.886-10.88 10.88 0 0.091 0 0.274 0 0.371 0 1.109 0.274 2.211 0.646 3.229 2.303 7.56 10.234 17.52 10.234 17.52s7.931-9.869 10.234-17.52c0.371-1.017 0.554-2.12 0.646-3.229 0-0.091 0-0.274 0-0.371-0.091-5.994-4.977-10.88-10.88-10.88zM10.88 16.137c-2.949 0-5.349-2.4-5.349-5.349 0-2.857 2.4-5.257 5.349-5.257s5.349 2.4 5.349 5.349c-0.091 2.863-2.491 5.257-5.349 5.257z"></path>
</symbol>
<symbol id="icon-pipeline" viewBox="0 0 70 32">
<title>pipeline</title>
<path class="path1" d="M25.71 3.309c-2.759 2.105-4.76 5.080-5.598 8.511l-16.133 0.104c-0.040-0.002-0.088-0.002-0.135-0.002-1.085 0-2.060 0.465-2.739 1.207-0.688 0.758-1.107 1.766-1.107 2.872s0.42 2.113 1.108 2.873c0.676 0.75 1.656 1.221 2.745 1.221 0.045 0 0.090-0.001 0.135-0.002h16.105c0.925 3.476 2.917 6.396 5.598 8.469 2.664 2.148 6.044 3.432 9.724 3.432s7.060-1.284 9.718-3.428c2.703-2.109 4.746-5.009 5.781-8.352l14.937-0.12c0.040 0.002 0.088 0.002 0.135 0.002 1.085 0 2.060-0.465 2.739-1.207 0.688-0.758 1.107-1.766 1.107-2.872s-0.42-2.113-1.108-2.873c-0.676-0.748-1.655-1.219-2.743-1.219-0.009 0-0.018 0-0.027 0h-14.903c-1.015-3.521-3.075-6.47-5.818-8.571-2.702-2.111-6.099-3.368-9.789-3.368-3.681 0-7.071 1.251-9.766 3.351zM40.838 10.433c1.364 1.346 2.251 3.174 2.383 5.207l0.001 0.754c-0.131 2.085-1.036 3.936-2.428 5.289-1.312 1.337-3.135 2.164-5.151 2.164-0.039 0-0.078 0-0.118-0.001-0.039 0.001-0.091 0.002-0.144 0.002-2.149 0-4.091-0.885-5.483-2.31-1.427-1.373-2.312-3.297-2.312-5.428 0-0.031 0-0.062 0.001-0.093-0.001-0.037-0.001-0.087-0.001-0.137 0-2.14 0.892-4.073 2.324-5.445 1.397-1.438 3.345-2.329 5.501-2.329 0.048 0 0.095 0 0.143 0.001 2.083 0.006 3.964 0.898 5.28 2.32z"></path>
</symbol>
<symbol id="icon-plus" viewBox="0 0 32 32">
<title>plus</title>
<path class="path1" d="M32 12.949h-12.949v-12.949h-6.102v12.949h-12.949v6.102h12.949v12.949h6.102v-12.949h12.949z"></path>
</symbol>
<symbol id="icon-regeneus" viewBox="0 0 190 32">
<title>regeneus</title>
<path class="path1" fill="#508fcc" d="M4.832 17.773c0.497 0 0.9 0.403 0.9 0.9s-0.403 0.9-0.9 0.9c-0.497 0-0.9-0.403-0.9-0.9s0.403-0.9 0.9-0.9z"></path>
<path class="path2" fill="#508fcc" d="M23.829 9.44c0.008 0 0.017 0 0.027 0 0.75 0 1.359 0.608 1.359 1.359s-0.608 1.359-1.359 1.359c-0.75 0-1.359-0.608-1.359-1.359s0.608-1.359 1.359-1.359z"></path>
<path class="path3" fill="#508fcc" d="M18.484 13.174c-0.808-0.748-1.833-1.273-2.97-1.471-0.954-0.214-1.739-0.692-2.326-1.351-1.318-1.966-0.823-3.343-1.57-5.575-0.77-2.103-2.754-3.578-5.083-3.578-0.083 0-0.165 0.002-0.247 0.006-2.958 0-3.894 1.169-3.894 1.169-0.87 0.692-1.535 1.607-1.913 2.658-0.643 2.264-1.003 6.188 1.904 7.799 1.235 0.61 2.676 1.018 4.196 1.14 1.124 0.35 2.049 0.929 2.795 1.685 0.523 0.667 0.622 3.384 0.622 2.601 0.303 1.183 1.079 2.145 2.11 2.689 2.165 1.172 5.206 0.596 6.457-1.024 1.044-1.305 1.233-5.273-0.081-6.749zM7.361 10.43c-1.854 0-3.357-1.503-3.357-3.357s1.503-3.357 3.357-3.357c1.854 0 3.357 1.503 3.357 3.357s-1.503 3.357-3.357 3.357zM14.515 19.24c-1.327 0-2.403-1.076-2.403-2.403s1.076-2.403 2.403-2.403c1.327 0 2.403 1.076 2.403 2.403-0.005 1.323-1.079 2.394-2.403 2.394-0.003 0-0.006 0-0.009 0z"></path>
<path class="path4" fill="#508fcc" d="M17.998 0c-2.659 0-4.814 2.155-4.814 4.814s2.155 4.814 4.814 4.814c2.659 0 4.814-2.155 4.814-4.814s-2.155-4.814-4.814-4.814zM17.296 5.813c-1.158 0-2.097-0.939-2.097-2.097s0.939-2.097 2.097-2.097c1.158 0 2.097 0.939 2.097 2.097s-0.939 2.097-2.097 2.097z"></path>
<path class="path5" fill="#508fcc" d="M87.577 24.162h0.729v6.056h-0.729v-6.056zM89.449 25.827h0.729v4.382h-0.729v-4.373zM89.449 24.162h0.729v0.855h-0.729v-0.855zM93.183 30.218h-0.684l-1.611-4.382h0.774l0.9 2.628q0.153 0.423 0.279 0.9 0.099-0.351 0.27-0.837l0.963-2.7h0.756zM95.469 25.836h0.729v4.382h-0.729v-4.382zM95.469 24.171h0.729v0.846h-0.729v-0.855zM100.094 30.227v-2.7c0.002-0.032 0.003-0.069 0.003-0.106 0-0.206-0.031-0.405-0.088-0.592-0.056-0.139-0.163-0.263-0.299-0.344-0.144-0.087-0.314-0.137-0.495-0.137-0.007 0-0.015 0-0.022 0s-0.017 0-0.026 0c-0.301 0-0.576 0.113-0.784 0.298-0.218 0.258-0.351 0.597-0.351 0.966 0 0.062 0.004 0.123 0.011 0.183l-0.001 2.386h-0.729v-4.346h0.657v0.621c0.279-0.436 0.76-0.721 1.309-0.721 0.024 0 0.048 0.001 0.071 0.002 0.001 0 0.006 0 0.011 0 0.255 0 0.497 0.053 0.717 0.149 0.186 0.077 0.351 0.207 0.472 0.37 0.109 0.159 0.188 0.344 0.226 0.543 0.011 0.117 0.016 0.242 0.016 0.369s-0.005 0.252-0.016 0.376l0.001 2.684h-0.738zM105.278 31.127c-0.143 0.29-0.366 0.521-0.64 0.671-0.307 0.163-0.663 0.257-1.040 0.257-0.023 0-0.046 0-0.069-0.001-0.026 0.002-0.061 0.002-0.096 0.002-0.43 0-0.829-0.132-1.158-0.358-0.277-0.218-0.457-0.561-0.457-0.946 0-0.039 0.002-0.078 0.005-0.116l0.711 0.113c0.015 0.196 0.109 0.368 0.251 0.485 0.191 0.132 0.426 0.21 0.68 0.21 0.024 0 0.048-0.001 0.072-0.002 0.020 0.002 0.048 0.003 0.076 0.003 0.262 0 0.505-0.078 0.708-0.212 0.181-0.137 0.316-0.336 0.372-0.566 0.039-0.23 0.060-0.488 0.060-0.75 0-0.074-0.002-0.148-0.005-0.221-0.276 0.362-0.701 0.586-1.178 0.586-0.006 0-0.013 0-0.019 0-0.021 0.001-0.046 0.002-0.072 0.002-0.533 0-1.005-0.257-1.301-0.654-0.307-0.418-0.49-0.937-0.49-1.499 0-0.025 0-0.050 0.001-0.075 0-0.004 0-0.014 0-0.023 0-0.409 0.083-0.799 0.232-1.154 0.128-0.318 0.351-0.597 0.635-0.796 0.275-0.185 0.606-0.292 0.962-0.292 0.015 0 0.030 0 0.045 0.001 0.003 0 0.009 0 0.016 0 0.508 0 0.959 0.246 1.239 0.626l0.003-0.581h0.675v3.789c0.005 0.068 0.007 0.146 0.007 0.226 0 0.439-0.078 0.859-0.222 1.248zM104.459 26.754c-0.2-0.248-0.503-0.405-0.843-0.405-0.001 0-0.002 0-0.003 0-0.335 0.001-0.634 0.158-0.826 0.403-0.219 0.296-0.349 0.665-0.349 1.065 0 0.047 0.002 0.094 0.005 0.141-0.004 0.040-0.007 0.095-0.007 0.149 0 0.414 0.13 0.797 0.352 1.111 0.194 0.236 0.493 0.39 0.827 0.39 0.005 0 0.010 0 0.015 0 0.002 0 0.006 0 0.009 0 0.336 0 0.636-0.153 0.834-0.394 0.219-0.303 0.349-0.679 0.349-1.086 0-0.052-0.002-0.104-0.006-0.156 0.004-0.035 0.006-0.084 0.006-0.133 0-0.405-0.134-0.779-0.36-1.080zM111.010 26.664c-0.153-0.099-0.339-0.159-0.539-0.162-0.004 0-0.007 0-0.010 0-0.16 0-0.307 0.054-0.424 0.145-0.126 0.101-0.22 0.239-0.267 0.398-0.082 0.261-0.128 0.554-0.128 0.857 0 0.017 0 0.034 0 0.051v2.292h-0.756v-4.409h0.657v0.666c0.115-0.242 0.273-0.446 0.465-0.61 0.132-0.097 0.295-0.154 0.47-0.155 0.283 0.008 0.544 0.097 0.761 0.246zM115.438 28.22h-3.222c0 0.003 0 0.006 0 0.009 0 0.42 0.153 0.805 0.407 1.101 0.216 0.236 0.528 0.385 0.876 0.385 0.008 0 0.016 0 0.024 0s0.020 0 0.031 0c0.249 0 0.478-0.081 0.663-0.219 0.206-0.175 0.362-0.407 0.444-0.672l0.759 0.080c-0.103 0.426-0.34 0.785-0.662 1.041-0.344 0.225-0.76 0.357-1.207 0.357-0.577 0-1.103-0.22-1.498-0.581-0.348-0.405-0.561-0.938-0.561-1.52 0-0.050 0.002-0.1 0.005-0.15-0.004-0.040-0.005-0.095-0.005-0.15 0-0.596 0.213-1.141 0.566-1.566 0.343-0.373 0.839-0.609 1.39-0.609 0.023 0 0.045 0 0.068 0.001 0.017-0.001 0.041-0.001 0.064-0.001 0.534 0 1.014 0.233 1.344 0.602 0.346 0.415 0.555 0.951 0.555 1.536 0 0.052-0.002 0.104-0.005 0.156s0 0.101 0 0.191zM114.43 26.772c-0.206-0.264-0.524-0.432-0.882-0.432-0.006 0-0.013 0-0.019 0s-0.014 0-0.022 0c-0.322 0-0.613 0.131-0.823 0.342-0.225 0.234-0.367 0.549-0.378 0.898l2.412 0.002c-0.009-0.312-0.112-0.598-0.282-0.832zM119.685 31.073c-0.143 0.29-0.366 0.521-0.64 0.671-0.307 0.163-0.661 0.257-1.038 0.257-0.024 0-0.048 0-0.071-0.001-0.026 0.002-0.061 0.003-0.096 0.003-0.43 0-0.829-0.132-1.158-0.358-0.277-0.216-0.457-0.558-0.457-0.942 0-0.041 0.002-0.081 0.006-0.12l0.71 0.113c0.015 0.196 0.109 0.368 0.251 0.485 0.19 0.132 0.425 0.21 0.677 0.21 0.025 0 0.050-0.001 0.074-0.002 0.020 0.002 0.048 0.003 0.076 0.003 0.262 0 0.505-0.078 0.708-0.212 0.18-0.138 0.314-0.337 0.372-0.566 0.038-0.233 0.060-0.494 0.060-0.76 0-0.071-0.001-0.141-0.004-0.211-0.277 0.362-0.704 0.586-1.183 0.586-0.005 0-0.010 0-0.015 0-0.021 0.001-0.047 0.002-0.072 0.002-0.533 0-1.005-0.257-1.301-0.654-0.307-0.418-0.49-0.937-0.49-1.499 0-0.025 0-0.050 0.001-0.075 0-0.006 0-0.017 0-0.028 0-0.407 0.083-0.795 0.232-1.148 0.128-0.318 0.352-0.597 0.635-0.796 0.264-0.177 0.581-0.284 0.922-0.292 0.007 0 0.014 0 0.020 0 0.508 0 0.959 0.246 1.239 0.626l0.003-0.527h0.675v3.789c0.004 0.064 0.006 0.14 0.006 0.216 0 0.442-0.078 0.866-0.221 1.259zM118.785 26.754c-0.2-0.248-0.503-0.405-0.843-0.405-0.001 0-0.002 0-0.003 0-0.335 0.001-0.634 0.158-0.826 0.403-0.219 0.296-0.349 0.665-0.349 1.065 0 0.047 0.002 0.094 0.005 0.141-0.004 0.040-0.007 0.095-0.007 0.149 0 0.414 0.13 0.797 0.352 1.111 0.192 0.236 0.49 0.39 0.823 0.39 0.007 0 0.013 0 0.020 0 0.002 0 0.006 0 0.009 0 0.336 0 0.636-0.153 0.834-0.394 0.219-0.302 0.35-0.677 0.35-1.083 0-0.053-0.002-0.106-0.007-0.158 0.004-0.035 0.006-0.084 0.006-0.133 0-0.405-0.134-0.779-0.36-1.080zM124.67 28.22h-3.186c0 0.002 0 0.003 0 0.005 0 0.421 0.153 0.807 0.407 1.104 0.216 0.236 0.528 0.385 0.875 0.385 0.008 0 0.016 0 0.024 0s0.020 0 0.031 0c0.249 0 0.478-0.081 0.663-0.219 0.206-0.174 0.363-0.407 0.444-0.672l0.759 0.080c-0.103 0.426-0.34 0.785-0.662 1.041-0.344 0.225-0.76 0.357-1.207 0.357-0.577 0-1.103-0.22-1.498-0.581-0.348-0.405-0.561-0.938-0.561-1.52 0-0.050 0.002-0.1 0.005-0.15-0.004-0.040-0.005-0.095-0.005-0.15 0-0.596 0.213-1.141 0.566-1.566 0.343-0.373 0.839-0.609 1.39-0.609 0.023 0 0.045 0 0.068 0.001 0.017-0.001 0.041-0.001 0.064-0.001 0.534 0 1.014 0.233 1.344 0.602 0.346 0.414 0.555 0.949 0.555 1.533 0 0.053-0.002 0.106-0.005 0.159s0 0.101 0 0.191zM123.699 26.772c-0.206-0.264-0.524-0.432-0.882-0.432-0.006 0-0.013 0-0.019 0s-0.016 0-0.026 0c-0.32 0-0.61 0.131-0.819 0.342-0.225 0.234-0.367 0.55-0.378 0.898l2.412 0.002c-0.010-0.312-0.113-0.597-0.282-0.832zM128.432 30.2v-2.7c0.002-0.032 0.003-0.069 0.003-0.106 0-0.206-0.031-0.405-0.088-0.592-0.056-0.139-0.163-0.263-0.299-0.344-0.142-0.087-0.311-0.137-0.491-0.137-0.009 0-0.018 0-0.027 0-0.007 0-0.016 0-0.026 0-0.301 0-0.576 0.113-0.784 0.298-0.218 0.258-0.351 0.597-0.351 0.966 0 0.062 0.004 0.123 0.011 0.183l-0.001 2.386h-0.729v-4.319h0.657v0.621c0.279-0.436 0.76-0.721 1.309-0.721 0.024 0 0.048 0.001 0.071 0.002 0.001 0 0.006 0 0.011 0 0.255 0 0.497 0.053 0.717 0.149 0.19 0.076 0.358 0.206 0.481 0.37 0.11 0.159 0.189 0.344 0.226 0.543 0.011 0.117 0.017 0.242 0.017 0.369s-0.006 0.252-0.017 0.376l0.001 2.684h-0.738zM134.029 28.193h-3.222c0 0.002 0 0.003 0 0.005 0 0.421 0.153 0.807 0.407 1.104 0.216 0.236 0.528 0.385 0.875 0.385 0.008 0 0.016 0 0.024 0 0.007 0 0.016 0 0.025 0 0.247 0 0.476-0.081 0.66-0.218 0.181-0.177 0.317-0.406 0.382-0.663l0.758 0.080c-0.102 0.426-0.339 0.785-0.662 1.041-0.324 0.235-0.725 0.374-1.158 0.374-0.031 0-0.062-0.001-0.092-0.002-0.024 0.002-0.057 0.002-0.090 0.002-0.552 0-1.051-0.228-1.408-0.596-0.35-0.407-0.563-0.94-0.563-1.522 0-0.050 0.002-0.1 0.005-0.15-0.003-0.038-0.005-0.090-0.005-0.143 0-0.599 0.216-1.148 0.575-1.572 0.342-0.374 0.837-0.61 1.386-0.61 0.024 0 0.048 0 0.072 0.001 0.017-0.001 0.040-0.001 0.064-0.001 0.534 0 1.014 0.233 1.344 0.602 0.346 0.415 0.555 0.951 0.555 1.536 0 0.052-0.002 0.104-0.005 0.156s0 0.101 0 0.191zM132.913 26.754c-0.206-0.264-0.524-0.432-0.882-0.432-0.006 0-0.013 0-0.019 0s-0.016 0-0.026 0c-0.321 0-0.61 0.131-0.819 0.342-0.224 0.235-0.366 0.55-0.378 0.898l2.394 0.002c-0.010-0.312-0.113-0.597-0.282-0.832zM136.936 26.628c-0.153-0.099-0.339-0.159-0.539-0.162-0.004 0-0.007 0-0.010 0-0.16 0-0.307 0.054-0.424 0.145-0.126 0.101-0.221 0.239-0.267 0.398-0.082 0.26-0.128 0.552-0.128 0.855 0 0.018 0 0.036 0 0.053v2.292h-0.729v-4.373h0.657v0.666c0.115-0.242 0.273-0.446 0.465-0.61 0.132-0.097 0.295-0.154 0.47-0.155 0.283 0.008 0.544 0.097 0.761 0.246zM140.589 30.227c-0.076-0.158-0.128-0.341-0.144-0.534-0.223 0.197-0.482 0.363-0.766 0.483-0.252 0.098-0.523 0.151-0.807 0.151-0.007 0-0.015 0-0.022 0-0.031 0.002-0.069 0.004-0.107 0.004-0.377 0-0.723-0.134-0.992-0.357-0.236-0.214-0.385-0.526-0.385-0.871 0-0.009 0-0.018 0-0.028 0-0.003 0-0.008 0-0.013 0-0.413 0.205-0.778 0.518-1 0.156-0.106 0.333-0.19 0.522-0.242 0.192-0.047 0.413-0.085 0.637-0.109 0.506-0.047 0.95-0.136 1.375-0.266-0.047-0.087-0.047-0.159-0.047-0.186 0.003-0.026 0.005-0.056 0.005-0.086 0-0.213-0.080-0.407-0.212-0.553-0.203-0.159-0.462-0.255-0.745-0.255-0.032 0-0.064 0.001-0.096 0.004-0.027-0.003-0.063-0.005-0.1-0.005-0.244 0-0.472 0.069-0.667 0.187-0.18 0.161-0.309 0.385-0.353 0.638l-0.721-0.092c0.052-0.288 0.166-0.543 0.327-0.761 0.164-0.197 0.383-0.35 0.635-0.433 0.292-0.106 0.619-0.166 0.959-0.166 0.027 0 0.054 0 0.081 0.001 0.019-0.001 0.046-0.001 0.073-0.001 0.295 0 0.578 0.050 0.841 0.142 0.186 0.062 0.359 0.177 0.494 0.326 0.11 0.142 0.189 0.312 0.225 0.497 0.010 0.11 0.015 0.229 0.015 0.349s-0.005 0.24-0.015 0.357l0.001 0.974c-0.002 0.085-0.004 0.185-0.004 0.286 0 0.362 0.018 0.72 0.052 1.073 0.032 0.155 0.098 0.333 0.19 0.495l-0.769-0.008zM140.382 28.014c-0.347 0.13-0.752 0.228-1.172 0.277-0.262 0.030-0.478 0.084-0.682 0.161-0.101 0.046-0.199 0.13-0.268 0.234-0.067 0.103-0.105 0.225-0.105 0.357 0 0.195 0.085 0.37 0.22 0.491 0.159 0.125 0.362 0.201 0.582 0.201 0.023 0 0.046-0.001 0.069-0.003 0.007 0 0.018 0.001 0.030 0.001 0.266 0 0.515-0.070 0.73-0.193 0.205-0.114 0.372-0.29 0.476-0.502 0.079-0.201 0.122-0.425 0.122-0.66 0-0.033-0.001-0.066-0.003-0.099v-0.265zM143.163 29.381c0.027 0.061 0.070 0.11 0.125 0.143 0.066 0.035 0.142 0.056 0.224 0.056 0.010 0 0.021 0 0.031-0.001h0.323l0.117 0.63c-0.167 0.038-0.359 0.061-0.557 0.063-0.023 0.001-0.048 0.002-0.073 0.002-0.2 0-0.389-0.047-0.556-0.131-0.129-0.075-0.235-0.193-0.297-0.334-0.063-0.219-0.098-0.465-0.098-0.719 0-0.065 0.002-0.13 0.007-0.194v-2.511h-0.54v-0.549h0.54v-1.089l0.729-0.45v1.53h0.738v0.576h-0.738v2.574c-0.010 0.061-0.016 0.131-0.016 0.202s0.006 0.142 0.017 0.21zM144.558 25.827h0.729v4.382h-0.729v-4.373zM144.558 24.162h0.729v0.855h-0.729v-0.855zM148.292 30.218h-0.684l-1.647-4.382h0.774l0.9 2.628c0.099 0.288 0.189 0.576 0.279 0.9q0.099-0.351 0.27-0.837l0.963-2.7h0.756zM154.313 28.211h-3.222c0 0.002 0 0.003 0 0.005 0 0.421 0.153 0.807 0.407 1.104 0.216 0.236 0.528 0.385 0.875 0.385 0.008 0 0.016 0 0.024 0 0.007 0 0.016 0 0.025 0 0.247 0 0.476-0.081 0.66-0.218 0.206-0.174 0.363-0.406 0.444-0.672l0.759 0.080c-0.103 0.426-0.34 0.785-0.662 1.041-0.344 0.225-0.76 0.357-1.207 0.357-0.577 0-1.103-0.22-1.498-0.581-0.348-0.405-0.561-0.938-0.561-1.52 0-0.050 0.002-0.1 0.005-0.15-0.004-0.040-0.005-0.095-0.005-0.15 0-0.596 0.213-1.141 0.566-1.566 0.343-0.373 0.839-0.609 1.39-0.609 0.023 0 0.045 0 0.068 0.001 0.017-0.001 0.041-0.001 0.064-0.001 0.534 0 1.014 0.233 1.344 0.602 0.346 0.415 0.555 0.951 0.555 1.536 0 0.052-0.002 0.104-0.005 0.156s0 0.101 0 0.191zM153.296 26.763c-0.206-0.264-0.524-0.432-0.882-0.432-0.006 0-0.013 0-0.019 0s-0.014 0-0.022 0c-0.322 0-0.613 0.131-0.823 0.342-0.224 0.235-0.366 0.55-0.378 0.898l2.412 0.002c-0.009-0.312-0.112-0.598-0.282-0.832zM162.691 30.191v-2.736c0.001-0.028 0.002-0.060 0.002-0.093 0-0.194-0.027-0.383-0.078-0.561-0.047-0.119-0.138-0.228-0.255-0.299-0.121-0.075-0.264-0.119-0.418-0.119-0.009 0-0.018 0-0.027 0-0.007 0-0.017 0-0.027 0-0.285 0-0.543 0.117-0.727 0.306-0.189 0.233-0.303 0.532-0.303 0.858 0 0.043 0.002 0.086 0.006 0.128v2.541h-0.729v-2.853c0.002-0.027 0.003-0.058 0.003-0.090 0-0.243-0.068-0.47-0.186-0.662-0.122-0.145-0.309-0.24-0.518-0.24-0.022 0-0.045 0.001-0.067 0.003 0.001 0-0.001 0-0.003 0-0.208 0-0.402 0.060-0.565 0.165-0.187 0.096-0.335 0.256-0.417 0.451-0.078 0.245-0.121 0.521-0.121 0.806 0 0.035 0.001 0.070 0.002 0.105v2.272h-0.729v-4.337h0.657v0.612c0.137-0.216 0.318-0.392 0.533-0.518 0.222-0.129 0.48-0.202 0.756-0.202 0.009 0 0.018 0 0.027 0 0.017-0.001 0.039-0.001 0.060-0.001 0.266 0 0.515 0.074 0.727 0.203 0.195 0.131 0.346 0.326 0.423 0.556 0.275-0.452 0.769-0.756 1.334-0.757 0.026-0.002 0.057-0.003 0.087-0.003 0.351 0 0.669 0.138 0.903 0.363 0.221 0.267 0.356 0.613 0.356 0.99 0 0.044-0.002 0.088-0.005 0.131v3.009h-0.729zM168.279 28.211h-3.222c0 0.002 0 0.003 0 0.005 0 0.421 0.153 0.807 0.407 1.104 0.218 0.236 0.531 0.385 0.879 0.385 0.007 0 0.013 0 0.020 0s0.016 0 0.026 0c0.247 0 0.476-0.081 0.66-0.218 0.206-0.174 0.363-0.407 0.444-0.672l0.759 0.080c-0.103 0.426-0.34 0.785-0.662 1.041-0.344 0.225-0.76 0.357-1.207 0.357-0.577 0-1.103-0.22-1.498-0.581-0.348-0.405-0.561-0.938-0.561-1.52 0-0.050 0.002-0.1 0.005-0.15-0.004-0.040-0.005-0.095-0.005-0.15 0-0.596 0.213-1.141 0.566-1.566 0.343-0.373 0.839-0.609 1.39-0.609 0.023 0 0.045 0 0.068 0.001 0.017-0.001 0.041-0.001 0.064-0.001 0.534 0 1.014 0.233 1.344 0.602 0.346 0.415 0.555 0.951 0.555 1.536 0 0.052-0.002 0.104-0.005 0.156s0 0.101 0 0.191zM167.262 26.763c-0.206-0.264-0.524-0.432-0.882-0.432-0.006 0-0.013 0-0.019 0s-0.016 0-0.026 0c-0.321 0-0.61 0.131-0.819 0.342-0.224 0.235-0.366 0.55-0.378 0.898l2.412 0.002c-0.010-0.312-0.113-0.597-0.282-0.832zM172.023 30.191v-0.495c-0.238 0.397-0.665 0.658-1.154 0.658-0.018 0-0.036 0-0.055-0.001-0.001 0-0.005 0-0.010 0-0.351 0-0.677-0.108-0.947-0.292-0.289-0.198-0.52-0.472-0.664-0.794-0.153-0.344-0.239-0.732-0.239-1.139 0-0.021 0-0.043 0.001-0.064 0-0.009 0-0.023 0-0.038 0-0.413 0.079-0.807 0.224-1.168 0.238-0.63 0.856-1.086 1.58-1.086 0.008 0 0.016 0 0.025 0 0.003 0 0.008 0 0.013 0 0.249 0 0.482 0.063 0.686 0.175 0.192 0.104 0.357 0.249 0.485 0.424l0.003-2.21h0.729v6.056h-0.675zM171.69 26.745c-0.192-0.258-0.496-0.423-0.839-0.423-0.002 0-0.005 0-0.007 0s-0.007 0-0.011 0c-0.329 0-0.622 0.158-0.806 0.402-0.209 0.314-0.333 0.698-0.333 1.11 0 0.060 0.003 0.12 0.008 0.178-0.004 0.035-0.006 0.086-0.006 0.136 0 0.419 0.133 0.806 0.36 1.122 0.189 0.245 0.487 0.405 0.823 0.408 0.003 0 0.006 0 0.010 0 0.328 0 0.62-0.154 0.808-0.394 0.214-0.3 0.34-0.67 0.34-1.071 0-0.052-0.002-0.103-0.006-0.153 0.005-0.044 0.007-0.102 0.007-0.161 0-0.43-0.13-0.83-0.353-1.163zM173.858 25.845h0.729v4.382h-0.729v-4.391zM173.858 24.18h0.729v0.837h-0.729v-0.855zM178.106 26.583c-0.158-0.14-0.367-0.225-0.596-0.225-0.009 0-0.018 0-0.027 0s-0.019 0-0.030 0c-0.348 0-0.659 0.157-0.867 0.404-0.22 0.311-0.351 0.695-0.351 1.111 0 0.059 0.003 0.118 0.008 0.176-0.005 0.044-0.008 0.104-0.008 0.164 0 0.416 0.127 0.802 0.345 1.122 0.195 0.242 0.499 0.399 0.84 0.399 0.020 0 0.039-0.001 0.058-0.002 0.006 0 0.016 0.001 0.027 0.001 0.267 0 0.51-0.103 0.691-0.271 0.207-0.216 0.344-0.504 0.368-0.823l0.72 0.094c-0.056 0.47-0.277 0.879-0.602 1.178-0.307 0.27-0.71 0.434-1.152 0.434-0.016 0-0.033 0-0.049-0.001-0.028 0.002-0.063 0.003-0.098 0.003-0.526 0-1-0.226-1.329-0.586-0.341-0.413-0.546-0.945-0.546-1.525 0-0.056 0.002-0.111 0.006-0.166-0.001-0.010-0.001-0.030-0.001-0.051 0-0.427 0.086-0.834 0.242-1.204 0.137-0.323 0.384-0.599 0.695-0.776 0.303-0.174 0.656-0.274 1.033-0.274 0.004 0 0.007 0 0.011 0 0.020-0.001 0.045-0.001 0.070-0.001 0.408 0 0.784 0.136 1.086 0.365 0.298 0.251 0.508 0.608 0.57 1.013l-0.71 0.117c-0.048-0.265-0.177-0.493-0.359-0.665zM179.951 25.854h0.729v4.382h-0.882v-4.4zM179.951 24.189h0.729v0.828h-0.882v-0.855zM184.576 30.245v-2.7c0.002-0.032 0.003-0.069 0.003-0.106 0-0.206-0.031-0.405-0.088-0.592-0.056-0.139-0.163-0.263-0.299-0.344-0.142-0.087-0.311-0.137-0.491-0.137-0.009 0-0.018 0-0.027 0-0.007 0-0.016 0-0.026 0-0.301 0-0.576 0.113-0.784 0.298-0.218 0.258-0.351 0.597-0.351 0.966 0 0.062 0.004 0.123 0.011 0.183l-0.001 2.386h-0.729v-4.364h0.657v0.621c0.279-0.436 0.76-0.721 1.309-0.721 0.024 0 0.048 0.001 0.071 0.002 0.001 0 0.006 0 0.011 0 0.255 0 0.497 0.053 0.717 0.149 0.19 0.076 0.357 0.206 0.481 0.371 0.109 0.159 0.187 0.344 0.226 0.543 0.011 0.117 0.016 0.242 0.016 0.369s-0.005 0.252-0.016 0.376l0.001 2.683h-0.729zM190.173 28.238h-3.222c0 0.002 0 0.003 0 0.005 0 0.421 0.153 0.807 0.407 1.104 0.216 0.236 0.528 0.385 0.875 0.385 0.008 0 0.016 0 0.024 0 0.006 0 0.014 0 0.023 0 0.248 0 0.478-0.081 0.663-0.218 0.206-0.174 0.363-0.406 0.444-0.672l0.759 0.080c-0.103 0.426-0.34 0.785-0.662 1.041-0.344 0.225-0.76 0.357-1.207 0.357-0.577 0-1.103-0.22-1.498-0.581-0.348-0.405-0.561-0.938-0.561-1.52 0-0.050 0.002-0.1 0.005-0.15-0.004-0.040-0.005-0.095-0.005-0.15 0-0.596 0.213-1.141 0.566-1.566 0.321-0.354 0.777-0.587 1.287-0.617 0.025-0.001 0.049-0.002 0.073-0.002 0.534 0 1.014 0.233 1.344 0.602 0.346 0.415 0.555 0.951 0.555 1.536 0 0.052-0.002 0.104-0.005 0.156s0 0.101 0 0.191zM188.976 26.772c-0.206-0.264-0.524-0.432-0.882-0.432-0.006 0-0.013 0-0.019 0s-0.014 0-0.022 0c-0.322 0-0.613 0.131-0.823 0.342-0.224 0.235-0.365 0.55-0.378 0.898l2.412 0.002c-0.010-0.312-0.113-0.597-0.282-0.832z"></path>
<path class="path6" fill="#fff" d="M29.471 0.756h2.637v2.934c0.664-1.029 1.491-1.89 2.455-2.572 0.781-0.558 1.713-0.891 2.722-0.919 0.864 0.033 1.655 0.289 2.33 0.713l-1.36 2.184c-0.396-0.196-0.86-0.322-1.349-0.35-0.98 0.034-1.85 0.432-2.494 1.062-0.875 0.877-1.508 1.996-1.791 3.248-0.329 1.733-0.513 3.674-0.513 5.659 0 0.462 0.010 0.923 0.030 1.38l-0.002 6.72h-2.664v-20.058z"></path>
<path class="path7" fill="#fff" d="M57.593 14.155l2.205 1.143c-0.648 1.315-1.476 2.437-2.47 3.388-0.89 0.826-1.935 1.49-3.087 1.943-1.195 0.451-2.5 0.699-3.863 0.699-0.060 0-0.121 0-0.181-0.001-0.142 0.009-0.318 0.013-0.496 0.013-2.849 0-5.407-1.243-7.163-3.216-1.723-1.919-2.771-4.458-2.771-7.241 0-0.030 0-0.060 0-0.090s-0.001-0.072-0.001-0.114c0-2.538 0.882-4.87 2.357-6.706 1.751-2.274 4.499-3.738 7.59-3.738 0.123 0 0.245 0.002 0.367 0.007 0.078-0.004 0.19-0.006 0.303-0.006 3.198 0 6.042 1.516 7.851 3.869 1.401 1.826 2.235 4.114 2.235 6.597 0 0.1-0.001 0.199-0.004 0.298l-17.997-0.015c-0.001 0.034-0.001 0.074-0.001 0.114 0 2.174 0.85 4.15 2.236 5.613 1.297 1.373 3.136 2.23 5.174 2.23 0.056 0 0.111-0.001 0.167-0.002-0.006 0-0.003 0 0 0 1.067 0 2.088-0.195 3.030-0.55 0.89-0.319 1.708-0.799 2.418-1.402 0.81-0.809 1.514-1.745 2.072-2.771zM57.593 8.756c-0.279-1.262-0.802-2.37-1.519-3.325-0.681-0.823-1.554-1.497-2.549-1.949-1.035-0.497-2.198-0.778-3.427-0.783-0.049-0.001-0.105-0.002-0.161-0.002-1.906 0-3.642 0.725-4.949 1.915-1.118 1.098-1.938 2.506-2.322 4.085l14.926 0.059z"></path>
<path class="path8" fill="#fff" d="M81.647 0.756h2.583v15.982c0 2.817-0.243 8.099-0.738 9.422-0.654 1.819-1.891 3.294-3.481 4.236-1.674 0.963-3.638 1.519-5.731 1.519-0.118 0-0.236-0.002-0.353-0.005-0.048 0.002-0.125 0.002-0.202 0.002-1.587 0-3.111-0.268-4.53-0.76-1.202-0.407-2.319-1.078-3.257-1.939-0.974-1.006-1.775-2.199-2.34-3.517l2.77-0.076c0.693 1.253 1.698 2.259 2.914 2.932 1.253 0.625 2.684 0.979 4.198 0.979 0.119 0 0.238-0.002 0.357-0.007 0.084 0.004 0.203 0.007 0.322 0.007 1.517 0 2.949-0.365 4.212-1.011 1.034-0.529 1.907-1.368 2.488-2.393 0.519-1.247 0.811-2.66 0.811-4.141 0-0.244-0.008-0.487-0.024-0.727l0.002-4.269c-0.954 1.199-2.159 2.156-3.539 2.8-1.368 0.649-2.901 1.013-4.521 1.013-1.91 0-3.701-0.507-5.247-1.393-1.529-0.853-2.805-2.11-3.685-3.625-0.863-1.486-1.357-3.215-1.357-5.059 0-0.031 0-0.063 0-0.094 0-0.005 0-0.016 0-0.027 0-3.82 2.076-7.156 5.161-8.941 1.526-0.903 3.305-1.421 5.205-1.421 0.013 0 0.026 0 0.039 0 0.038-0.001 0.084-0.001 0.131-0.001 1.474 0 2.87 0.332 4.119 0.926 1.429 0.749 2.678 1.78 3.677 3.021l0.017-3.433zM74.034 2.7c-0.015 0-0.033 0-0.050 0-1.48 0-2.869 0.394-4.066 1.083-1.203 0.679-2.205 1.676-2.892 2.875-0.688 1.183-1.082 2.559-1.082 4.026 0 0.040 0 0.080 0.001 0.121-0.001 0.042-0.002 0.099-0.002 0.156 0 2.054 0.848 3.909 2.214 5.236 1.524 1.336 3.532 2.15 5.73 2.15s4.205-0.814 5.738-2.157c1.335-1.354 2.166-3.227 2.166-5.294 0-0.113-0.002-0.226-0.007-0.338 0.001-0.016 0.001-0.053 0.001-0.091 0-1.43-0.37-2.773-1.021-3.939-0.65-1.145-1.607-2.099-2.759-2.748-1.163-0.685-2.52-1.079-3.969-1.081z"></path>
<path class="path9" fill="#fff" d="M105.728 14.155l2.178 1.143c-0.647 1.315-1.476 2.438-2.47 3.388-0.89 0.826-1.935 1.49-3.087 1.943-1.195 0.451-2.5 0.699-3.863 0.699-0.060 0-0.121 0-0.181-0.001-0.142 0.009-0.318 0.013-0.496 0.013-2.849 0-5.407-1.243-7.163-3.216-1.723-1.919-2.771-4.458-2.771-7.241 0-0.030 0-0.060 0-0.090s-0.001-0.072-0.001-0.114c0-2.538 0.882-4.87 2.357-6.706 1.751-2.274 4.499-3.738 7.59-3.738 0.12 0 0.239 0.002 0.357 0.007 0.078-0.004 0.191-0.006 0.303-0.006 3.198 0 6.042 1.516 7.851 3.869 1.401 1.827 2.235 4.116 2.235 6.6 0 0.099-0.001 0.197-0.004 0.295l-17.997-0.014c-0.001 0.034-0.001 0.074-0.001 0.114 0 2.174 0.85 4.15 2.236 5.613 1.297 1.372 3.135 2.229 5.173 2.229 0.040 0 0.080 0 0.121-0.001-0.004 0-0.001 0 0.002 0 1.067 0 2.088-0.195 3.030-0.55 0.872-0.324 1.675-0.803 2.372-1.402 0.843-0.808 1.573-1.744 2.154-2.775zM105.683 8.756c-0.279-1.262-0.801-2.37-1.519-3.325-0.681-0.823-1.554-1.497-2.549-1.949-1.030-0.494-2.186-0.775-3.408-0.783-0.045-0.001-0.095-0.001-0.145-0.001-1.901 0-3.634 0.722-4.939 1.906-1.117 1.098-1.938 2.505-2.322 4.084l14.935 0.059z"></path>
<path class="path10" fill="#fff" d="M112.486 0.756h2.583v3.6c0.913-1.261 2.056-2.296 3.377-3.059 1.216-0.674 2.604-1.054 4.081-1.054 0.014 0 0.027 0 0.041 0 0.033-0.001 0.075-0.001 0.117-0.001 1.438 0 2.776 0.427 3.894 1.16 1.117 0.739 2.005 1.801 2.53 3.052 0.555 1.593 0.866 3.378 0.866 5.235 0 0.295-0.008 0.588-0.023 0.88l0.002 10.236h-2.583v-9.566c0.010-0.257 0.016-0.558 0.016-0.861 0-1.329-0.11-2.633-0.323-3.902-0.192-1.077-0.809-2.121-1.684-2.872-0.857-0.639-1.928-1.019-3.088-1.019-0.084 0-0.168 0.002-0.251 0.006-1.588 0.006-3.048 0.601-4.162 1.581-1.17 0.961-2.030 2.274-2.42 3.777-0.256 1.407-0.397 2.969-0.397 4.564 0 0.331 0.006 0.66 0.018 0.987l-0.001 7.305h-2.592v-20.049z"></path>
<path class="path11" fill="#fff" d="M151.46 14.155l2.169 1.143c-0.639 1.315-1.459 2.437-2.444 3.389-0.889 0.825-1.934 1.489-3.086 1.942-1.196 0.451-2.501 0.699-3.865 0.699-0.060 0-0.12 0-0.179-0.001-0.142 0.009-0.318 0.013-0.496 0.013-2.849 0-5.407-1.243-7.163-3.216-1.739-1.925-2.798-4.476-2.798-7.274 0-0.018 0-0.036 0-0.055 0-0.032-0.001-0.074-0.001-0.115 0-2.538 0.882-4.87 2.357-6.706 1.751-2.274 4.499-3.738 7.59-3.738 0.123 0 0.245 0.002 0.367 0.007 0.078-0.004 0.19-0.006 0.303-0.006 3.198 0 6.042 1.516 7.851 3.869 1.401 1.827 2.235 4.116 2.235 6.6 0 0.099-0.001 0.197-0.004 0.295l-17.997-0.014c0 0.034-0.001 0.074-0.001 0.114 0 2.174 0.85 4.15 2.236 5.613 1.297 1.373 3.136 2.23 5.174 2.23 0.056 0 0.111-0.001 0.167-0.002-0.006 0-0.003 0 0 0 1.067 0 2.088-0.195 3.030-0.55 0.89-0.319 1.708-0.799 2.418-1.402 0.842-0.808 1.572-1.744 2.154-2.774zM151.505 8.756c-0.279-1.262-0.801-2.37-1.519-3.325-0.681-0.823-1.554-1.497-2.549-1.949-1.044-0.501-2.219-0.783-3.459-0.783-0.018 0-0.036 0-0.053 0-0.040-0.001-0.090-0.001-0.14-0.001-1.901 0-3.634 0.722-4.939 1.906-1.117 1.098-1.938 2.505-2.322 4.084l14.935 0.059z"></path>
<path class="path12" fill="#fff" d="M157.867 0.756h2.583v9.359c-0.010 0.242-0.016 0.525-0.016 0.81 0 1.382 0.14 2.731 0.407 4.034 0.333 1.089 1.082 2.098 2.075 2.775 1.017 0.684 2.247 1.085 3.57 1.085 0.058 0 0.115-0.001 0.173-0.002 0.047 0.002 0.112 0.003 0.177 0.003 1.295 0 2.499-0.391 3.5-1.061 0.936-0.633 1.662-1.559 2.044-2.648 0.273-1.228 0.422-2.595 0.422-3.997 0-0.338-0.009-0.675-0.026-1.009l0.002-9.348h2.637v9.845c0.012 0.232 0.019 0.505 0.019 0.779 0 1.964-0.364 3.843-1.027 5.573-0.595 1.278-1.595 2.402-2.839 3.169-1.336 0.769-2.899 1.213-4.566 1.213-0.121 0-0.241-0.002-0.36-0.007-0.083 0.004-0.202 0.007-0.32 0.007-1.675 0-3.246-0.443-4.603-1.218-1.247-0.761-2.258-1.896-2.869-3.25-0.642-1.7-1.004-3.612-1.004-5.608 0-0.297 0.008-0.593 0.024-0.886l-0.002-9.615z"></path>
<path class="path13" fill="#fff" d="M190.308 2.952l-1.656 1.71c-1.010-1.119-2.431-1.852-4.022-1.961-0.036-0.001-0.058-0.002-0.079-0.002-0.81 0-1.546 0.315-2.092 0.83-0.547 0.468-0.893 1.16-0.898 1.932 0.014 0.72 0.292 1.372 0.74 1.866 0.866 0.847 1.885 1.546 3.010 2.050 1.606 0.727 2.909 1.696 3.97 2.886 0.645 0.868 1.027 1.946 1.027 3.113 0 0.017 0 0.034 0 0.051 0.001 0.029 0.001 0.067 0.001 0.105 0 1.601-0.666 3.047-1.736 4.075-1.071 1.060-2.543 1.714-4.167 1.714-0.061 0-0.121-0.001-0.181-0.003 0.005 0 0.001 0-0.004 0-1.2 0-2.335-0.279-3.344-0.776-1-0.478-1.873-1.181-2.554-2.044l1.608-1.815c0.988 1.286 2.498 2.13 4.207 2.213 0.038 0.001 0.068 0.001 0.098 0.001 0.989 0 1.89-0.38 2.563-1.002 0.663-0.564 1.083-1.401 1.086-2.337 0-0.007 0-0.015 0-0.023 0-0.746-0.272-1.428-0.723-1.952-0.92-0.861-1.994-1.58-3.172-2.108-1.535-0.691-2.766-1.626-3.751-2.778-0.625-0.857-0.993-1.913-0.993-3.055 0-0.026 0-0.051 0.001-0.077-0.001-0.038-0.002-0.088-0.002-0.138 0-1.436 0.597-2.732 1.557-3.654 0.974-0.949 2.303-1.534 3.77-1.534 0.058 0 0.115 0.001 0.173 0.003q2.763 0 5.562 2.699z"></path>
</symbol>
<symbol id="icon-syringe" viewBox="0 0 29 32">
<title>syringe</title>
<path class="path1" d="M5.156 8.944l3.788-3.788 1.993 1.993-1.917 1.917c-0.123 0.117-0.199 0.281-0.199 0.463s0.076 0.347 0.199 0.463c0.125 0.108 0.288 0.174 0.466 0.179 0.014 0.001 0.029 0.002 0.044 0.002 0.166 0 0.317-0.069 0.424-0.18l1.917-1.917 1.917 1.917-1.917 1.917c-0.123 0.117-0.199 0.281-0.199 0.463s0.076 0.347 0.199 0.463c0.125 0.108 0.288 0.174 0.466 0.179 0.001 0 0.002 0 0.003 0 0.192 0 0.363-0.092 0.47-0.235l1.918-1.918 4.664 4.664-3.801 3.833zM2.843 9.41c-0.123 0.117-0.199 0.281-0.199 0.463s0.076 0.347 0.199 0.463c0.125 0.108 0.288 0.174 0.466 0.179 0.014 0.001 0.029 0.002 0.044 0.002 0.166 0 0.317-0.069 0.424-0.18l0.467-0.467 10.86 10.86c0.125 0.107 0.287 0.174 0.465 0.179 0.003 0 0.006 0 0.009 0 0.177 0 0.338-0.068 0.459-0.179l0.108-0.108 1.386 0.856c0.112 0.070 0.248 0.111 0.394 0.111 0.208 0 0.396-0.084 0.532-0.22l2.881-2.881c0.136-0.136 0.22-0.324 0.22-0.532 0-0.146-0.041-0.282-0.113-0.397l-0.854-1.383 0.109-0.109c0.123-0.117 0.199-0.281 0.199-0.463s-0.076-0.347-0.199-0.463l-10.861-10.861 0.466-0.466c0.122-0.119 0.198-0.285 0.198-0.47 0-0.362-0.293-0.655-0.655-0.655-0.178 0-0.339 0.071-0.457 0.186l-5.558 5.59z"></path>
<path class="path2" d="M23.637 21.6c0.166 0.207 0.266 0.472 0.266 0.761 0 0.163-0.032 0.319-0.090 0.461l2.705 2.694v1.604c-0.167-0.004-0.317-0.072-0.428-0.179l-3.194-3.194c-0.134 0.055-0.29 0.087-0.453 0.087-0.289 0-0.554-0.1-0.763-0.268l-2.381-2.062 2.338-2.338z"></path>
<path class="path3" d="M0.243 4.938l4.664-4.702c0.144-0.148 0.346-0.241 0.569-0.241s0.424 0.092 0.568 0.24c0.149 0.144 0.241 0.346 0.241 0.569s-0.092 0.424-0.24 0.568l-0.933 0.933 1.917 1.917-2.868 2.805-1.917-1.917-0.894 0.965c-0.146 0.148-0.345 0.242-0.567 0.249-0.010 0-0.020 0.001-0.030 0.001-0.216 0-0.409-0.096-0.539-0.249-0.132-0.146-0.213-0.34-0.213-0.553 0-0.229 0.093-0.436 0.244-0.585z"></path>
<path class="path4" d="M11.244 13.339h4.306c0.373 0 0.711 0.149 0.959 0.39l1.424 1.424c0.111 0.115 0.18 0.271 0.18 0.444s-0.068 0.329-0.18 0.444l-1.916 1.916c-0.115 0.111-0.271 0.18-0.444 0.18s-0.329-0.068-0.444-0.18l-2.287-2.338-0.607-0.569-1.175-1.175c-0.070-0.055-0.115-0.141-0.115-0.236 0-0.166 0.134-0.3 0.3-0.3 0 0 0 0 0 0z"></path>
<path class="path5" d="M26.94 28.109c0.116-0.144 0.234-0.307 0.344-0.475l0.084-0.164c0.012-0.027 0.039-0.046 0.070-0.046s0.058 0.019 0.070 0.046l0.032 0.071c0.116 0.189 0.234 0.351 0.363 0.505 0.704 0.633 1.209 1.099 1.209 2.025 0 1.316-0.997 2.204-2.134 1.853-0.719-0.287-1.218-0.978-1.218-1.785 0-0.046 0.002-0.092 0.005-0.138 0-0.786 0.428-1.176 1.175-1.891z"></path>
</symbol>
<symbol id="icon-twitter" viewBox="0 0 39 32">
<title>twitter</title>
<path class="path1" d="M39.369 3.792c-1.343 0.628-2.901 1.091-4.537 1.309 1.591-1.015 2.843-2.586 3.438-4.451-1.455 0.834-3.167 1.514-4.99 1.887-1.581-1.543-3.668-2.515-5.981-2.515-4.465 0-8.084 3.619-8.084 8.084 0 0.641 0.075 1.264 0.215 1.862-6.752-0.394-12.683-3.594-16.658-8.456-0.72 1.124-1.126 2.525-1.126 4.021 0 2.794 1.416 5.257 3.569 6.712-1.322-0.031-2.576-0.404-3.67-1.025l0.040 0.123c0 0.002 0 0.004 0 0.006 0 3.895 2.758 7.146 6.427 7.906-0.579 0.191-1.304 0.295-2.053 0.295-0.007 0-0.014 0-0.021 0-0.019 0-0.043 0-0.067 0-0.514 0-1.017-0.048-1.505-0.141 1.109 3.244 4.073 5.553 7.585 5.619-2.717 2.154-6.203 3.455-9.992 3.455-0.013 0-0.026 0-0.039 0-0.002 0-0.008 0-0.013 0-0.672 0-1.334-0.041-1.985-0.12 3.573 2.283 7.85 3.636 12.443 3.636 0.008 0 0.016 0 0.023 0 14.859 0 22.984-12.264 22.984-22.986 0-0.348 0-0.705 0-1.022 1.587-1.155 2.923-2.54 3.99-4.122z"></path>
</symbol>
</defs>
</svg>
