<?xml version="1.0" standalone="no"?>
<!DOCTYPE svg PUBLIC "-//W3C//DTD SVG 1.1//EN" "http://www.w3.org/Graphics/SVG/1.1/DTD/svg11.dtd">
<svg width="100%" height="100%" viewBox="0 0 284 80" version="1.1" xmlns="http://www.w3.org/2000/svg" xmlns:xlink="http://www.w3.org/1999/xlink" xml:space="preserve" style="fill-rule:evenodd;clip-rule:evenodd;stroke-linejoin:round;stroke-miterlimit:1.41421;">
    <g id="Layer 1">
        <clipPath id="_clip1">
            <path d="M100.922,0L0,80L77.76,80L82.408,64.219C73.629,70.251 62.847,76.669 55.907,76.144C42.726,75.163 49.531,46.663 66.08,35.309C57.761,42.27 48.574,64.846 58.708,67.678C62.889,68.848 76.453,58.811 85.898,52.127L100.922,0Z"/>
        </clipPath>
        <g clip-path="url(#_clip1)">
            <path d="M130.854,36.717L31.045,118.082L0,80L99.809,-1.366L130.854,36.717Z" style="fill:url(#_Linear2);fill-rule:nonzero;"/>
        </g>
        <path d="M95.604,44.008L99.098,52.028C110.543,42.721 122.213,31.947 126.438,32.648C135.652,33.03 127.13,57.836 118.844,64.785C135.364,53.451 141.134,25.447 128.988,24.01C128.647,23.97 128.3,23.95 127.945,23.95C118.917,23.952 105.289,36.568 95.604,44.008Z" style="fill:url(#_Linear3);fill-rule:nonzero;"/>
        <path d="M61.329,36.818C73.202,26.307 79.404,36.525 82.72,44.19L90.19,60.852C101.599,85.159 115.762,72.776 121.914,64.978C105.693,78.089 98.94,56.066 96.57,51.529L93.316,44.083C87.815,30.865 81.951,26.562 76.6,26.561C70.348,26.56 64.796,32.431 61.329,36.818Z" style="fill:url(#_Linear4);fill-rule:nonzero;"/>
        <path d="M168.016,45.833C168.669,45.616 169.077,45.833 169.24,46.484L169.973,49.012C170.109,49.501 169.851,49.895 169.199,50.193C167.432,50.982 165.491,51.376 163.371,51.376C159.539,51.376 156.687,50.221 154.812,47.912C152.938,45.603 152,41.824 152,36.582C152,31.365 152.923,27.601 154.771,25.291C156.62,22.982 159.431,21.828 163.207,21.828C165.518,21.828 167.432,22.208 168.954,22.968C169.579,23.267 169.824,23.662 169.688,24.15L169.036,26.678C168.872,27.302 168.452,27.506 167.773,27.289C166.686,26.854 165.463,26.636 164.104,26.636C161.713,26.636 160.001,27.377 158.969,28.858C157.936,30.339 157.42,32.914 157.42,36.582C157.42,40.276 157.944,42.864 158.99,44.346C160.036,45.827 161.794,46.566 164.267,46.566C165.544,46.566 166.794,46.322 168.016,45.833" style="fill:rgb(40,40,44);fill-rule:nonzero;"/>
        <path d="M178.552,46.078L187.112,46.078C187.764,46.078 188.089,46.39 188.089,47.015L188.089,49.99C188.089,50.641 187.764,50.968 187.112,50.968L174.151,50.968C173.498,50.968 173.173,50.641 173.173,49.99L173.173,23.213C173.173,22.588 173.498,22.276 174.151,22.276L177.574,22.276C178.226,22.276 178.552,22.588 178.552,23.213L178.552,46.078Z" style="fill:rgb(40,40,44);fill-rule:nonzero;"/>
        <path d="M204.729,40.005L201.672,27.615L201.591,27.615L198.453,40.005L204.729,40.005ZM203.956,22.276C204.634,22.276 205.056,22.588 205.218,23.213L212.676,49.909C212.759,50.207 212.731,50.459 212.594,50.662C212.459,50.866 212.229,50.968 211.903,50.968L208.316,50.968C207.746,50.968 207.378,50.669 207.216,50.071L205.749,44.651L197.475,44.651L196.049,50.071C195.885,50.669 195.519,50.968 194.948,50.968L191.322,50.968C191.022,50.968 190.797,50.866 190.648,50.662C190.499,50.459 190.465,50.207 190.546,49.909L198.004,23.213C198.168,22.588 198.588,22.276 199.269,22.276L203.956,22.276Z" style="fill:rgb(40,40,44);fill-rule:nonzero;"/>
        <path d="M229.787,49.379C228.06,50.683 225.744,51.335 222.838,51.335C219.957,51.335 217.688,50.983 216.031,50.276C215.38,50.004 215.107,49.609 215.216,49.093L215.827,46.484C215.964,45.778 216.37,45.561 217.05,45.833C218.599,46.403 220.256,46.69 222.022,46.69C225.31,46.69 226.954,45.575 226.954,43.347C226.954,42.341 226.6,41.506 225.894,40.84C225.187,40.175 223.992,39.379 222.308,38.456C221.248,37.913 220.378,37.418 219.699,36.968C219.02,36.52 218.327,35.942 217.621,35.236C216.915,34.53 216.384,33.701 216.031,32.75C215.678,31.799 215.502,30.726 215.502,29.531C215.502,26.949 216.242,25.02 217.722,23.743C219.203,22.466 221.492,21.828 224.59,21.828C226.764,21.828 228.733,22.153 230.499,22.806C231.152,23.05 231.409,23.431 231.274,23.947L230.663,26.515C230.527,27.166 230.119,27.384 229.439,27.166C228.136,26.732 226.695,26.515 225.119,26.515C223.652,26.515 222.586,26.759 221.921,27.248C221.255,27.737 220.922,28.525 220.922,29.612C220.922,30.59 221.289,31.426 222.022,32.118C222.756,32.811 223.87,33.566 225.364,34.38C226.587,35.06 227.517,35.617 228.155,36.052C228.795,36.486 229.495,37.063 230.255,37.783C231.016,38.504 231.559,39.326 231.885,40.249C232.212,41.173 232.374,42.233 232.374,43.428C232.374,46.09 231.512,48.074 229.787,49.379" style="fill:rgb(40,40,44);fill-rule:nonzero;"/>
        <path d="M249.227,49.379C247.501,50.683 245.185,51.335 242.278,51.335C239.398,51.335 237.128,50.983 235.471,50.276C234.82,50.004 234.547,49.609 234.656,49.093L235.268,46.484C235.404,45.778 235.811,45.561 236.49,45.833C238.039,46.403 239.696,46.69 241.462,46.69C244.75,46.69 246.394,45.575 246.394,43.347C246.394,42.341 246.04,41.506 245.334,40.84C244.628,40.175 243.432,39.379 241.748,38.456C240.688,37.913 239.818,37.418 239.139,36.968C238.46,36.52 237.767,35.942 237.061,35.236C236.355,34.53 235.825,33.701 235.471,32.75C235.118,31.799 234.942,30.726 234.942,29.531C234.942,26.949 235.682,25.02 237.163,23.743C238.644,22.466 240.932,21.828 244.03,21.828C246.205,21.828 248.173,22.153 249.94,22.806C250.592,23.05 250.849,23.431 250.714,23.947L250.103,26.515C249.967,27.166 249.559,27.384 248.88,27.166C247.576,26.732 246.135,26.515 244.559,26.515C243.093,26.515 242.026,26.759 241.361,27.248C240.696,27.737 240.362,28.525 240.362,29.612C240.362,30.59 240.729,31.426 241.462,32.118C242.196,32.811 243.31,33.566 244.804,34.38C246.027,35.06 246.958,35.617 247.596,36.052C248.235,36.486 248.935,37.063 249.695,37.783C250.456,38.504 250.999,39.326 251.325,40.249C251.652,41.173 251.814,42.233 251.814,43.428C251.814,46.09 250.952,48.074 249.227,49.379" style="fill:rgb(40,40,44);fill-rule:nonzero;"/>
        <path d="M255.128,23.213C255.128,22.588 255.44,22.276 256.065,22.276L259.529,22.276C260.153,22.276 260.467,22.588 260.467,23.213L260.467,49.99C260.467,50.642 260.153,50.968 259.529,50.968L256.065,50.968C255.44,50.968 255.128,50.642 255.128,49.99L255.128,23.213Z" style="fill:rgb(40,40,44);fill-rule:nonzero;"/>
        <path d="M280.385,45.833C281.037,45.616 281.446,45.833 281.609,46.484L282.342,49.012C282.478,49.501 282.22,49.895 281.568,50.193C279.801,50.982 277.859,51.376 275.739,51.376C271.908,51.376 269.055,50.221 267.181,47.912C265.306,45.603 264.368,41.824 264.368,36.582C264.368,31.365 265.292,27.601 267.14,25.291C268.988,22.982 271.8,21.828 275.576,21.828C277.886,21.828 279.801,22.208 281.323,22.968C281.948,23.267 282.193,23.662 282.056,24.15L281.405,26.678C281.241,27.302 280.821,27.506 280.142,27.289C279.055,26.854 277.831,26.636 276.473,26.636C274.082,26.636 272.37,27.377 271.338,28.858C270.305,30.339 269.789,32.914 269.789,36.582C269.789,40.276 270.312,42.864 271.358,44.346C272.404,45.827 274.163,46.566 276.636,46.566C277.912,46.566 279.163,46.322 280.385,45.833" style="fill:rgb(40,40,44);fill-rule:nonzero;"/>
        <path d="M157.425,73.897L153.332,65.531L153.332,78.528C153.332,78.709 153.243,78.798 153.063,78.798L152.321,78.798C152.126,78.798 152.029,78.709 152.029,78.528L152.029,63.283C152.029,63.118 152.126,63.036 152.321,63.036L153.086,63.036C153.25,63.036 153.363,63.095 153.423,63.215L157.74,72.029L162.08,63.215C162.125,63.095 162.23,63.036 162.396,63.036L163.182,63.036C163.347,63.036 163.43,63.118 163.43,63.283L163.43,78.528C163.43,78.709 163.347,78.798 163.182,78.798L162.418,78.798C162.252,78.798 162.17,78.709 162.17,78.528L162.17,65.531L158.078,73.897C158.002,74.016 157.891,74.077 157.74,74.077C157.606,74.077 157.5,74.016 157.425,73.897" style="fill:rgb(40,40,44);fill-rule:nonzero;"/>
        <path d="M167.814,63.282C167.814,63.117 167.896,63.035 168.062,63.035L168.826,63.035C169.02,63.035 169.12,63.117 169.12,63.282L169.12,78.527C169.12,78.708 169.02,78.798 168.826,78.798L168.062,78.798C167.896,78.798 167.814,78.708 167.814,78.527L167.814,63.282Z" style="fill:rgb(40,40,44);fill-rule:nonzero;"/>
        <path d="M183.049,78.527C183.049,78.708 182.958,78.798 182.778,78.798L182.015,78.798C181.834,78.798 181.706,78.723 181.632,78.573L174.706,65.374L174.706,78.527C174.706,78.708 174.623,78.798 174.458,78.798L173.717,78.798C173.522,78.798 173.424,78.708 173.424,78.527L173.424,63.282C173.424,63.117 173.522,63.035 173.717,63.035L174.458,63.035C174.668,63.035 174.803,63.102 174.862,63.238L181.789,76.459L181.789,63.282C181.789,63.117 181.879,63.035 182.059,63.035L182.778,63.035C182.958,63.035 183.049,63.117 183.049,63.282L183.049,78.527Z" style="fill:rgb(40,40,44);fill-rule:nonzero;"/>
        <path d="M188.638,71.31L188.638,77.607L194.53,77.607C194.709,77.607 194.799,77.689 194.799,77.853L194.799,78.528C194.799,78.708 194.709,78.798 194.53,78.798L187.626,78.798C187.432,78.798 187.333,78.708 187.333,78.528L187.333,63.283C187.333,63.118 187.424,63.036 187.604,63.036L194.462,63.036C194.642,63.036 194.732,63.118 194.732,63.283L194.732,63.957C194.732,64.136 194.642,64.227 194.462,64.227L188.638,64.227L188.638,70.141L194.283,70.141C194.462,70.141 194.553,70.231 194.553,70.411L194.553,71.04C194.553,71.22 194.462,71.31 194.283,71.31L188.638,71.31Z" style="fill:rgb(40,40,44);fill-rule:nonzero;"/>
        <path d="M201.994,71.85C203.493,71.85 204.543,71.565 205.141,70.996C205.742,70.426 206.041,69.444 206.041,68.05C206.041,66.625 205.738,65.632 205.132,65.071C204.524,64.507 203.464,64.227 201.949,64.227L199.588,64.227L199.588,71.85L201.994,71.85ZM201.972,63.036C203.89,63.036 205.269,63.421 206.108,64.194C206.949,64.965 207.369,66.251 207.369,68.05C207.369,69.594 207.05,70.748 206.412,71.512C205.775,72.278 204.797,72.742 203.478,72.907L207.233,78.46C207.294,78.537 207.308,78.612 207.279,78.686C207.248,78.761 207.181,78.798 207.076,78.798L206.176,78.798C206.012,78.798 205.884,78.731 205.795,78.595L202.061,73.041L199.588,73.041L199.588,78.528C199.588,78.708 199.498,78.798 199.317,78.798L198.577,78.798C198.382,78.798 198.283,78.708 198.283,78.528L198.283,63.283C198.283,63.118 198.382,63.036 198.577,63.036L201.972,63.036Z" style="fill:rgb(40,40,44);fill-rule:nonzero;"/>
        <path d="M218.495,73.086L215.976,64.519L215.932,64.519L213.413,73.086L218.495,73.086ZM216.448,63.035C216.629,63.035 216.74,63.125 216.786,63.306L221.508,78.506C221.554,78.7 221.478,78.798 221.283,78.798L220.474,78.798C220.308,78.798 220.204,78.716 220.159,78.551L218.878,74.278L213.054,74.278L211.749,78.551C211.704,78.716 211.606,78.798 211.456,78.798L210.602,78.798C210.422,78.798 210.354,78.7 210.399,78.506L215.099,63.306C215.159,63.125 215.279,63.035 215.46,63.035L216.448,63.035Z" style="fill:rgb(40,40,44);fill-rule:nonzero;"/>
        <path d="M226.122,77.584L231.743,77.584C231.924,77.584 232.014,77.674 232.014,77.853L232.014,78.527C232.014,78.708 231.924,78.798 231.743,78.798L225.111,78.798C224.916,78.798 224.817,78.708 224.817,78.527L224.817,63.282C224.817,63.117 224.916,63.035 225.111,63.035L225.852,63.035C226.032,63.035 226.122,63.117 226.122,63.282L226.122,77.584Z" style="fill:rgb(40,40,44);fill-rule:nonzero;"/>
        <path d="M242.016,77.978C241.214,78.66 240.056,79 238.542,79C237.073,79 235.986,78.843 235.282,78.528C235.086,78.423 235.004,78.311 235.034,78.191L235.259,77.562C235.334,77.382 235.439,77.322 235.574,77.382C236.413,77.681 237.395,77.832 238.519,77.832C239.644,77.832 240.491,77.584 241.06,77.09C241.63,76.594 241.915,75.898 241.915,74.999C241.915,74.518 241.84,74.096 241.691,73.728C241.539,73.36 241.288,73.016 240.937,72.694C240.584,72.371 240.266,72.116 239.982,71.929C239.696,71.742 239.276,71.491 238.721,71.175C238.137,70.846 237.687,70.572 237.373,70.355C237.058,70.138 236.705,69.845 236.316,69.478C235.925,69.111 235.645,68.691 235.472,68.219C235.3,67.747 235.214,67.211 235.214,66.61C235.214,64.078 236.661,62.81 239.553,62.81C240.648,62.81 241.6,62.96 242.41,63.26C242.605,63.321 242.679,63.432 242.634,63.597L242.432,64.204C242.372,64.37 242.26,64.43 242.094,64.384C241.42,64.13 240.596,64.001 239.62,64.001C238.497,64.001 237.695,64.22 237.215,64.654C236.735,65.089 236.495,65.742 236.495,66.61C236.495,67.06 236.563,67.457 236.699,67.802C236.833,68.147 237.065,68.465 237.395,68.758C237.725,69.051 238.01,69.28 238.249,69.444C238.49,69.609 238.871,69.841 239.396,70.141C239.951,70.457 240.341,70.684 240.566,70.828C240.79,70.969 241.117,71.209 241.544,71.546C241.971,71.884 242.279,72.192 242.465,72.468C242.653,72.747 242.826,73.113 242.983,73.571C243.14,74.028 243.219,74.518 243.219,75.042C243.219,76.318 242.819,77.295 242.016,77.978" style="fill:rgb(40,40,44);fill-rule:nonzero;"/>
        <path d="M254.982,77.584L260.603,77.584C260.784,77.584 260.874,77.674 260.874,77.853L260.874,78.527C260.874,78.708 260.784,78.798 260.603,78.798L253.97,78.798C253.775,78.798 253.677,78.708 253.677,78.527L253.677,63.282C253.677,63.117 253.775,63.035 253.97,63.035L254.711,63.035C254.892,63.035 254.982,63.117 254.982,63.282L254.982,77.584Z" style="fill:rgb(40,40,44);fill-rule:nonzero;"/>
        <path d="M261.878,63.282C261.878,63.117 261.968,63.035 262.149,63.035L270.222,63.035C270.386,63.035 270.468,63.117 270.468,63.282L270.468,63.98C270.468,64.159 270.386,64.249 270.222,64.249L266.825,64.249L266.825,78.527C266.825,78.708 266.735,78.798 266.556,78.798L265.814,78.798C265.618,78.798 265.522,78.708 265.522,78.527L265.522,64.249L262.149,64.249C261.968,64.249 261.878,64.159 261.878,63.98L261.878,63.282Z" style="fill:rgb(40,40,44);fill-rule:nonzero;"/>
        <path d="M275.057,64.249L275.057,77.584L277.193,77.584C278.033,77.584 278.745,77.482 279.329,77.28C279.914,77.078 280.427,76.726 280.87,76.223C281.312,75.721 281.642,75.02 281.859,74.12C282.077,73.222 282.185,72.104 282.185,70.77C282.185,68.312 281.777,66.609 280.96,65.666C280.143,64.722 278.879,64.249 277.17,64.249L275.057,64.249ZM274.045,78.798C273.851,78.798 273.752,78.708 273.752,78.527L273.752,63.282C273.752,63.117 273.843,63.035 274.023,63.035L277.17,63.035C279.299,63.035 280.892,63.615 281.949,64.777C283.006,65.939 283.535,67.937 283.535,70.77C283.535,72.299 283.396,73.589 283.119,74.639C282.841,75.687 282.421,76.516 281.859,77.123C281.297,77.73 280.642,78.161 279.892,78.416C279.142,78.671 278.243,78.798 277.193,78.798L274.045,78.798Z" style="fill:rgb(40,40,44);fill-rule:nonzero;"/>
    </g>
    <defs>
        <linearGradient id="_Linear2" x1="0" y1="0" x2="1" y2="0" gradientUnits="userSpaceOnUse" gradientTransform="matrix(-100.326,81.787,-81.787,-100.326,108.711,23.0713)"><stop offset="0%" style="stop-color:rgb(140,45,102);stop-opacity:1"/><stop offset="100%" style="stop-color:rgb(39,111,184);stop-opacity:1"/></linearGradient>
        <linearGradient id="_Linear3" x1="0" y1="0" x2="1" y2="0" gradientUnits="userSpaceOnUse" gradientTransform="matrix(39.8721,0,0,39.8721,95.604,44.3672)"><stop offset="0%" style="stop-color:rgb(255,221,46);stop-opacity:1"/><stop offset="100%" style="stop-color:rgb(250,166,26);stop-opacity:1"/></linearGradient>
        <linearGradient id="_Linear4" x1="0" y1="0" x2="1" y2="0" gradientUnits="userSpaceOnUse" gradientTransform="matrix(60.585,0,0,60.585,61.3291,50.8525)"><stop offset="0%" style="stop-color:rgb(255,221,46);stop-opacity:1"/><stop offset="100%" style="stop-color:rgb(250,166,26);stop-opacity:1"/></linearGradient>
    </defs>
</svg>
