<svg width="320" height="80" viewBox="0 0 320 80" fill="none" xmlns="http://www.w3.org/2000/svg">
<rect width="320" height="80" fill="black" fill-opacity="0"/>
<path d="M7.8 80L71.7 43.7V35.4L15 67.8L14.7 20.9L7.7 17L7.8 80Z" fill="black"/>
<path d="M7.6 0L1 4L57.1 35L16 58.5V66.2L71.2 34.8L7.6 0Z" fill="black"/>
<path d="M0 76L6.8 79.7V15.5L48.8 38.6L55.4 35L0.1 4.6L0 76Z" fill="black"/>
<path d="M121.8 51H116.8L115.9 36H115.8L111.1 51H107L102.3 36H102.2L101.4 51H96.3L98 29H104.5L109.1 43.5H109.2L113.7 29H120.2L121.8 51ZM135.6 42.5L132.9 34.6L130.2 42.5H135.6V42.5ZM144 51H138.4L136.8 46.6H129L127.4 51H122L130.3 29H135.7L144 51V51ZM162.7 48.4C161.6 49.5 159.3 51.4 154.8 51.4C148.3 51.4 143.3 47.1 143.3 40.1C143.3 33 148.4 28.8 154.8 28.8C159.3 28.8 161.8 30.7 162.4 31.3L160.8 35.6C160.4 35.1 158 33.3 155.1 33.3C151.4 33.3 148.5 35.8 148.5 40.1C148.5 44.4 151.5 46.9 155.1 46.9C157.8 46.9 159.8 45.8 161 44.6L162.7 48.4V48.4ZM173.9 33.6C173.3 33.2 172.5 33 171.4 33H169.4V38.9H171.4C172.5 38.9 173.2 38.7 173.9 38.3C174.5 37.9 175 37.1 175 35.9C174.9 34.8 174.5 34 173.9 33.6ZM177.9 41.2C176.4 42.4 174.4 42.9 172.2 42.9H169.5V51H164.3V29H172.2C174.5 29 176.5 29.4 177.9 30.7C179.4 31.9 180.2 33.6 180.2 36C180.2 38.3 179.3 40 177.9 41.2V41.2ZM201 51H195.8V41.8H187V51H181.9V29H187V37.5H195.8V29H201V51ZM218.7 51H204.2V29H218.4V33.1H209.3V37.6H217.9V41.7H209.3V46.8H218.7V51ZM230.9 33.5C230.3 33 229.4 32.9 228.3 32.9H226.3V38.5H228.3C229.5 38.5 230.3 38.4 230.9 37.9C231.6 37.4 232 36.8 232 35.7C232 34.7 231.6 34 230.9 33.5V33.5ZM238.5 51H232.5L227.9 42.6H226.3V51H221.1V29H229C231.5 29 233.4 29.5 234.8 30.6C236.3 31.7 237.2 33.4 237.2 35.6C237.2 39.8 234.5 41.4 232.9 41.9L238.5 51V51ZM251.6 49.5C250 50.7 248 51.3 245.6 51.3C242.4 51.3 239.6 49.6 237.8 48L240.4 44.2C242 45.9 244.4 47 246.1 47C247.8 47 249 46.2 249 44.7C249 43.2 247.4 42.6 246.4 42.3C245.4 41.9 243.8 41.4 243.1 41.1C242.6 40.8 241.4 40.4 240.5 39.5C239.5 38.6 238.8 37.3 238.8 35.3C238.8 33.2 239.8 31.5 241.1 30.5C242.3 29.4 244.4 28.7 246.9 28.7C249.5 28.7 252.4 29.9 253.9 31.4L251.7 35C250.4 33.7 248.4 32.8 246.8 32.8C245.1 32.8 243.9 33.4 243.9 34.8C243.9 36.1 245.1 36.6 246.1 37C247.1 37.4 248.7 38 249.4 38.2C250 38.4 251.5 39 252.5 40C253.4 40.9 254.2 42.3 254.2 44.2C254.2 46.4 253.2 48.3 251.6 49.5V49.5ZM267.5 33C263.8 33 261.1 35.6 261.1 39.9C261.1 44.1 263.9 46.8 267.5 46.8C271.2 46.8 273.9 44.1 273.9 39.9C273.9 35.7 271.2 33 267.5 33ZM267.5 51.4C261 51.4 255.8 47.2 255.8 40.1C255.8 33 260.9 28.7 267.5 28.7C274 28.7 279.2 33 279.2 40.1C279.2 47.2 274 51.4 267.5 51.4V51.4ZM302 51H296.7L287 36.1C287 36.1 287.1 38.7 287.1 41.1V51H282.1V29H287.6L297 43.8C297 43.8 296.9 41.3 296.9 39V29H301.9V51H302ZM317.4 49.5C315.8 50.7 313.8 51.3 311.4 51.3C308.2 51.3 305.4 49.6 303.6 48L306.2 44.2C307.8 45.9 310.2 47 311.9 47C313.6 47 314.8 46.2 314.8 44.7C314.8 43.2 313.2 42.6 312.2 42.3C311.2 41.9 309.6 41.4 308.9 41.1C308.4 40.8 307.2 40.4 306.3 39.5C305.3 38.6 304.6 37.3 304.6 35.3C304.6 33.2 305.6 31.5 306.9 30.5C308.1 29.4 310.2 28.7 312.7 28.7C315.3 28.7 318.2 29.9 319.7 31.4L317.5 35C316.2 33.7 314.2 32.8 312.6 32.8C310.9 32.8 309.7 33.4 309.7 34.8C309.7 36.1 310.9 36.6 311.9 37C312.9 37.4 314.5 38 315.2 38.2C315.8 38.4 317.3 39 318.3 40C319.2 40.9 320 42.3 320 44.2C320 46.4 319 48.3 317.4 49.5" fill="black"/>
</svg>
