<svg id="Layer_1" data-name="Layer 1" xmlns="http://www.w3.org/2000/svg" viewBox="0 0 309.62 194.73"><defs><style>.cls-1{fill:#fff;}.cls-2{fill:#002156;}</style></defs><title>logo-au</title><path class="cls-1" d="M337.14,54.17C315.91,42.86,285.8,51.76,266.08,72s-27.82,50.59-16,71.52c15.12,26.69,55.73,28.76,86.49-2.81S364.22,68.58,337.14,54.17Zm-85.62,87.9c-11.66-20.17-3.9-49.64,15.29-69.34s48.45-28.23,68.91-17.11c25.89,14.08,28.6,53.09-.89,83.36S266.28,167.59,251.53,142.07Z" transform="translate(-48.96 -49.21)"/><path class="cls-1" d="M273.94,145.09h0c.38-.71.31-1.4-.17-1.67a.91.91,0,0,0-.44-.12.83.83,0,0,0-.24,0,1.52,1.52,0,0,0-.83.77,2.24,2.24,0,0,0,.18,2.15A1.88,1.88,0,0,0,273.94,145.09Z" transform="translate(-48.96 -49.21)"/><path class="cls-1" d="M269.49,148.73a1.75,1.75,0,0,0,.23,2.31.93.93,0,0,0,.76.1,2,2,0,0,0,1.12-1.05,3,3,0,0,0-.2-2.87A2.72,2.72,0,0,0,269.49,148.73Z" transform="translate(-48.96 -49.21)"/><path class="cls-1" d="M335,56.35c-20.09-11-48.91-2.69-67.84,16.74s-26.51,48.46-14.95,68.25c14.56,24.93,52.86,26.41,81.72-3.22S360.33,70.25,335,56.35Zm-24.57,5c2-2,7.23-6.12,13.42-.39A10.21,10.21,0,0,0,331,64.07a10.43,10.43,0,0,1,5.41,1.64c4.6,3,2.73,6.53,1.36,9.1-.23.44-.45.85-.63,1.24a5.59,5.59,0,0,0,0,2.92c.28,1.92.63,4.32-1.26,6.26a5.93,5.93,0,0,1-4.42,1.9,12.41,12.41,0,0,1-4-.86l-.53-.18.15-.18c.14-.18.39-.49.43-.58l.07-.12.13,0c.41.14,4.12,1.28,6.58-1.24,1.83-1.88,1.48-4,1.19-5.7-.07-.42-.14-.82-.16-1.17a3.65,3.65,0,0,1,.6-2A12.3,12.3,0,0,0,337.31,71a3.49,3.49,0,0,0-.56-2.77c-1-1.38-3.23-2.24-7.17-2.77-3.36-.45-3.89-.89-5.29-2.06a31.61,31.61,0,0,0-2.86-2.15c-3.71-2.48-6.88-1.93-10.92,1.91A13.59,13.59,0,0,1,305.39,66a11.54,11.54,0,0,0-5,2.91,4.44,4.44,0,0,0-1.48,3.42,4.91,4.91,0,0,0,2.27,3.22l.14.1-.69.9-.12-.06c-1.89-.94-3-2.23-3.28-3.73s.44-3.3,2-4.95a11.37,11.37,0,0,1,4.86-2.72A14.34,14.34,0,0,0,310.45,61.37Zm24.9,47.33-.13.14-.12-.15a7.18,7.18,0,0,1,.94-9.33l.12-.13.12.13C338.45,101.79,338,105.9,335.34,108.7ZM314.1,105.3a4,4,0,0,0-1.5.77c-.06.06,0,.27,0,.49a2.78,2.78,0,0,1-.72,2.64,11,11,0,0,0-2.73,4.89,6.17,6.17,0,0,1-1.49,2.89,2,2,0,0,1-1.4.75h-.12c-.86-.09-1.5-1.07-2.12-2a9.69,9.69,0,0,0-1-1.35c-.33-.35-.68-.67-1-.95-.71-.65-1.27-1.16-1.29-1.71a1,1,0,0,1,.31-.69,6.4,6.4,0,0,1,2.83-1.77H304l.66.68-.19.1c-1.08.56-1.72,1.15-1.77,1.6a.54.54,0,0,0,.23.48,16.41,16.41,0,0,1,2.49,3.06,1.32,1.32,0,0,0,.93.69.87.87,0,0,0,.74-.28,2.24,2.24,0,0,0,.3-1.1,5.82,5.82,0,0,1,1.53-3.63c1.83-1.88,1.91-3,2-3.92a2.27,2.27,0,0,1,.6-1.66,9.61,9.61,0,0,1,2.7-1.7,6.73,6.73,0,0,0,1.65-1c.63-.65,1-2.24,1.44-3.94.46-1.86.93-3.78,1.8-4.67l.68-.7-.42.89a12.34,12.34,0,0,0-.86,4.28c-.16,2-.32,3.92-1.68,5.31A6.48,6.48,0,0,1,314.1,105.3Zm-5.62,28.31-.23.1v-.25a10.32,10.32,0,0,1,5.87-9.29l.21-.09,0,.23C314.67,127.9,312.09,132,308.49,133.61ZM289.35,96.19c0-.15,0-.31,0-.48v-.07l.3-.3.11.08c.56.4,1.28.92.67,1.91l-.05.05a.57.57,0,0,0-.19.24.9.9,0,0,1-.31.37l-.06,0-.07,0a.76.76,0,0,1-.5-.51.64.64,0,0,1,.16-.58A3.94,3.94,0,0,0,289.35,96.19ZM289,93.25a1.55,1.55,0,0,0-1.08,1.23c0,.14,0,.27,0,.4a1.67,1.67,0,0,1-1,1.76,1.84,1.84,0,0,0-1,1.24,1.34,1.34,0,0,0,.38,1.19c.63.67,1.6.82,3,.46l.23-.06-.07.75-.06,0a3.35,3.35,0,0,1-2,.71,2.38,2.38,0,0,1-1.72-.65h0c-1.93-2.1-1.14-3.34-.71-3.78a2.28,2.28,0,0,1,.66-.43,1.87,1.87,0,0,0,.51-.32,1.65,1.65,0,0,0,.45-1.41,1.9,1.9,0,0,1,.51-1.59,3.56,3.56,0,0,1,2.56-1h0a3.16,3.16,0,0,1,2.2.79,1.48,1.48,0,0,1,.34,1,1.22,1.22,0,0,0,.39.94l.16.12-.62.57-.1,0a1.27,1.27,0,0,1-.72-.74,2.51,2.51,0,0,0-.49-.72A1.58,1.58,0,0,0,289,93.25Zm-6.17,9.95c-2.43,1.91-6.5,5.1-7.95,6.59l-.13.13-.12-.15s-.58-.72-.77-1l-.07-.12.11-.09c2.72-2.26,10.29-7.39,10.37-7.44l.15-.1.37.65-.11.09C284.33,102,283.66,102.53,282.8,103.2ZM283,118l-.36.68A15.93,15.93,0,0,0,281,122.2l0,.25-1.49-1,.07-.13a17.7,17.7,0,0,1,2.78-4l.15-.13Zm22.43-47.22a2.71,2.71,0,0,0-2.25-1.44l-.23,0,.48-.82h.1c1.23,0,3.17.88,3.52,2.21a5.31,5.31,0,0,1,5-.18h0a7.55,7.55,0,0,0,3.28.25l1-.05c3.11-.12,5.75,1.92,6.88,2.79l.15.11-.77.77-.11-.08a11.26,11.26,0,0,0-7-2.18,7,7,0,0,1-4-.31,5.1,5.1,0,0,0-4.07.08c-.89.58-3.42,4.36-4.25,5.6l-.28.41-.13-.06c-.33-.16-.85-.48-.88-.5l-.16-.1.12-.14c1.77-2.22,3-3.9,3.56-4.72A1.79,1.79,0,0,0,305.41,70.73Zm9.43-6.92-.09-.14.73-.47.09.09c1.63,1.58.9,4.37.31,5.9l0,.12-1.77-.2.16-.23C315.19,67.55,315.67,65.13,314.84,63.81Zm11.27,3.54,0,.13H326c-2.35.12-5.4.83-6.88,2.45L319,70l-1.88-.49.24-.2A11.67,11.67,0,0,1,326,66.76l.12,0,0,.12A1.58,1.58,0,0,1,326.11,67.35Zm6.57,7.46.07.13-.84.62-.09-.15c-.88-1.4-3.52-1.44-5.11-1l-.12,0-.85-1.31L326,73C327.57,72.52,331.41,72.66,332.68,74.81Zm-22.37-1.52-.09.19a39.55,39.55,0,0,1-4.65,6.89l-.1.12-1.12-.9.14-.13a29.71,29.71,0,0,0,5-6.27l.07-.12.13,0a3,3,0,0,0,.43.13ZM305,83c3.41.46,9.53,2,12.16,7.21l.53,1-.8-.86a18.73,18.73,0,0,0-11.6-5.79c-2.9-.16-4.31-1.79-5.55-3.23-1-1.12-1.8-2.09-3.15-2l-.95,0,.88-.37a3.15,3.15,0,0,1,3.6.64h0c.16.14.35.35.58.59A7.56,7.56,0,0,0,305,83Zm.34,16.59-.16.1-.81-1.79.16-.06a6.55,6.55,0,0,1,5.53,0,4.86,4.86,0,0,1,2.46,3.06l0,.11-.68.44-.09-.13C310,98.75,307.62,98.13,305.3,99.55Zm3.29,3.3a2.11,2.11,0,0,1-2,2h0a1.34,1.34,0,0,1-1-.38,1.36,1.36,0,0,1-.4-1,2,2,0,0,1,.6-1.41,1.72,1.72,0,0,1,2.37-.27A1.37,1.37,0,0,1,308.6,102.85ZM294.71,83.94a11.07,11.07,0,0,1,3.08,1.94,5.74,5.74,0,0,0,4.38,1.74l.91,0-.84.36a4.86,4.86,0,0,1-1.87.36,6.29,6.29,0,0,1-4-1.56c-2.36-1.91-6.59-2.37-8.53-1.48l-.32.15.09-.34c.38-1.39,2.47-4.31,5.09-4.94,1.76-.42,3.43.22,5,1.92,2.83,3.11,5,3.28,6.63,3.41a3.58,3.58,0,0,1,2.46.79l.83.82-1-.56a4.54,4.54,0,0,0-2.14-.22,9.46,9.46,0,0,1-7.53-2.53h0a8.3,8.3,0,0,1-1-1.14,5.67,5.67,0,0,0-.65-.75,2.39,2.39,0,0,0-2-.55,5,5,0,0,0-3.19,2A11.43,11.43,0,0,1,294.71,83.94Zm3.8,6.54a6.72,6.72,0,0,1-3.8-1.52c-2-1.4-5.27-2.49-7.68-.95l-.35.22.1-.4c0-.09.06-.37.08-.47v-.07l.05,0c2.31-1.75,5.68-1.23,7.69.13l.57.39C297,89,298.4,90,300.89,89.55l1.4-.25-1.31.57A6.18,6.18,0,0,1,298.51,90.48Zm1.07,1.26-.76.53a2.93,2.93,0,0,1-1.71.56,7.42,7.42,0,0,1-3.07-1c-2-1-4.33-2.12-7.68-.83l-.31.12.09-.32a5.36,5.36,0,0,1,.64-1l0,0,0,0c3.89-1.27,6.34.12,8.31,1.25,1.27.72,2.36,1.35,3.51,1ZM297,66.65a7.47,7.47,0,0,1-4.64,1.73,4.49,4.49,0,0,1-2.29-.56l-.21-.12.19-.15c2.21-1.72,5.12-2.21,6.92-1.16l.2.12Zm-6,5,.23.1L291,72a8.72,8.72,0,0,1-5.84,2.45,5.46,5.46,0,0,1-2.11-.39l-.24-.1.19-.17C285.35,71.62,288.69,70.76,291,71.68Zm-5.77,5.39.26.06-.17.21A10.08,10.08,0,0,1,278,80.85a5.88,5.88,0,0,1-1.37-.15l-.27-.06.18-.21C278.89,77.86,282.51,76.45,285.2,77.08Zm-5.09,6.49.29,0-.19.22c-2.13,2.46-5.34,4.12-7.8,4.12a4.8,4.8,0,0,1-.76-.06l-.3,0,.21-.23C274,84.9,277.65,83.19,280.11,83.57Zm-5.72,7.66.29-.05-.11.28a11.69,11.69,0,0,1-8.06,6.64l-.31.06.13-.28A12,12,0,0,1,274.39,91.23Zm16.88,17.31a18.43,18.43,0,0,0,6,4.38,7.34,7.34,0,0,1,2,1.25,4,4,0,0,1,.86,1.53,3,3,0,0,0,.6,1.12,2.37,2.37,0,0,0,1.4.53,3,3,0,0,1,1.83.76,3.55,3.55,0,0,1,.67,2,3.76,3.76,0,0,0,.83,2.25l-.21.25a7.79,7.79,0,0,0-1.82-1,6.89,6.89,0,0,1-2.79-2h0a1.76,1.76,0,0,1-.31-.76,1.43,1.43,0,0,0-.23-.59.58.58,0,0,0-.17,0c-.53,0-1.64.13-4.14-2.64s-4.17-5.15-4.74-6.88l-.25-.75ZM322,116l.17-.12.08.19c1.47,3.5-.24,8.32-3.88,11l-.18.13-.07-.21A10,10,0,0,1,322,116Zm-2.21-23.65-.84.93.57-1.12s.51-1,1.14-2.06a64.11,64.11,0,0,1,5.63-7.71c-1.4-1.12-1.74-3.11-2-4.72a6.66,6.66,0,0,0-.51-2l-.08-.13.89-.61.1.1A6,6,0,0,1,326.08,78c.36,1.42.73,2.89,2.46,3.9l.22.13-.21.15A37.37,37.37,0,0,0,324.3,87C322.9,88.78,321.32,90.74,319.84,92.39Zm7.84,26.16-.16.13-.09-.19a9.26,9.26,0,0,1,2.63-11.14l.15-.12.1.16C332.33,110.69,331.18,115.59,327.68,118.55ZM289.27,65.94c.15-2.2,2-4.81,4.37-6.21l.25-.15v.29c0,2.07-1.87,4.75-4.37,6.22l-.27.16Zm-3.07-1.77.21-.17.05.26c.44,2.14-1.21,5.37-3.85,7.51l-.23.19,0-.29C282.06,69.35,283.68,66.19,286.2,64.17Zm-7,6.15.18-.18.09.23c.78,2-.44,5.27-2.83,7.68l-.2.2-.08-.27C275.73,75.79,276.9,72.64,279.23,70.32ZM273,77.44l.17-.18.1.23c.89,2.11-.29,5.68-2.76,8.31l-.19.2-.09-.26C269.47,83.41,270.63,79.92,273,77.44ZM266.35,87l.12-.18.14.17c1.33,1.6.9,5-1,7.88l-.14.21-.14-.2C264.08,93,264.51,89.74,266.35,87Zm-3.1,17.68c1.53-14,15.33-28.52,16.9-30.13,4-4.08,12.26-11.18,18.74-14l.13-.06.43.7-.17.08c-6.46,2.86-14.65,10-18.57,14.11C279.21,77,266,91.17,264.25,104.92l0,.19-1-.27Zm-12.06,15.54c-.12-.09-.12-.25-.14-.5-.05-.87-.07-1.44-.08-1.89,0-.27,0-.48,0-.69s0-.25,0-.43,0-.51-.06-.71.08-.34.17-.38l.08,0,.11,0a.29.29,0,0,1,.12.26.91.91,0,0,0,0,.26s.08,0,.27-.06.89-.38,1.57-.69l1.76-.83c1.29-.61,1.55-.73,1.83-.88s.35-.25.38-.5a2.56,2.56,0,0,0,0-.34.34.34,0,0,1,.16-.35.2.2,0,0,1,.19,0,.34.34,0,0,1,.14.3c0,.33,0,.72.06,1,0,.13,0,.24,0,.32s0,.36.06.69c.05.6.13,1.5.15,1.61a3,3,0,0,0,.08.35l-.13.12h0l.15-.06a.43.43,0,0,1,0,.12.25.25,0,0,1-.19.26l-.11,0a3.62,3.62,0,0,0-.45.15l-.14.05-.46.18a.28.28,0,0,1-.24,0,.22.22,0,0,1-.08-.16.33.33,0,0,1,.2-.3,1.2,1.2,0,0,0,.28-.18c.1-.09.19-.19.21-.66,0-.12,0-.78-.06-1.13l-2.06,1c0,.27.09,1.22.12,1.41s.06.26.07.26.21.09.22.22a.27.27,0,0,1-.17.27l-.09,0a4.4,4.4,0,0,0-.56.19l-.58.23a.33.33,0,0,1-.31,0,.21.21,0,0,1-.09-.17.27.27,0,0,1,.18-.28l.06,0,.21-.13a.6.6,0,0,0,.23-.55c0-.15,0-.78-.05-1.13l-1.89.89c-.51.26-.62.4-.56,1.29a2,2,0,0,0,.14.75c0,.07.09.16.48,0a.3.3,0,0,1,.27,0,.22.22,0,0,1,.08.17c0,.17-.14.25-.23.29a7,7,0,0,1-1,.34h-.12A.3.3,0,0,1,251.19,120.24Zm1,5.44a2.11,2.11,0,0,1-.7-1.32,3.8,3.8,0,0,1,0-1.5.56.56,0,0,1,.33-.45c.52-.32,1.08-.62,1.15-.66s.28-.12.37-.07a.21.21,0,0,1,.12.15c0,.09,0,.23-.21.35a2.56,2.56,0,0,0-.38.32,1.81,1.81,0,0,0-.56,1.67.73.73,0,0,0,.37.57.68.68,0,0,0,.62-.09A2.83,2.83,0,0,0,254.4,123l.23-.6a4.78,4.78,0,0,1,1.83-2.67,1.52,1.52,0,0,1,1.41-.2,1.78,1.78,0,0,1,1,1.34,5.55,5.55,0,0,1,.13,1.33.35.35,0,0,1-.16.33l-.18.1c-.16.09-.43.23-.88.51h0c-.18.11-.3.16-.41.11a.21.21,0,0,1-.12-.16c0-.07,0-.22.22-.36a1.76,1.76,0,0,0,.46-.53,1.46,1.46,0,0,0,.19-1.13.67.67,0,0,0-.33-.51.64.64,0,0,0-.56.1c-.34.21-.58.52-1,1.64l-.13.36c-.6,1.64-1.11,2.4-2,2.93a2,2,0,0,1-1.06.34A1.35,1.35,0,0,1,252.22,125.67Zm4.18,4.65c-.74.59-1.38,1.09-1.72,1.41s-.32.35-.28.55a2.79,2.79,0,0,0,.13.44c.07.23,0,.34-.08.38a.22.22,0,0,1-.14.05h-.06a.31.31,0,0,1-.2-.21c-.14-.39-.27-.77-.37-1.06l-.11-.32-.13-.33c-.1-.23-.21-.51-.29-.72a.35.35,0,0,1,.08-.43.21.21,0,0,1,.19,0,.27.27,0,0,1,.18.21,1,1,0,0,0,.12.23s.09,0,.34-.16,1-.73,1.72-1.32l3.48-2.75-.49-1.1c-.22-.49-.31-.53-.41-.52a1.06,1.06,0,0,0-.29.08.29.29,0,0,1-.24,0,.22.22,0,0,1-.13-.13.33.33,0,0,1,.15-.37c.16-.13,1-.59,1.08-.62a.37.37,0,0,1,.3-.06l.07,0,.05.09a.44.44,0,0,1,0,.17.78.78,0,0,0,0,.28,7.31,7.31,0,0,0,.29.85l1.37,3.34a2.4,2.4,0,0,0,.36.66l.06.08c.06.2-.07.3-.2.41h0l-.5.38-.52.4a.34.34,0,0,1-.29.08.21.21,0,0,1-.14-.13c-.07-.2.08-.33.18-.41l.08-.07c.24-.21.25-.66,0-1.22l-.33-.88Zm1.72,5.8a1.89,1.89,0,0,1,.51-2.14,1.37,1.37,0,0,1,1.12-.41,1,1,0,0,1,.69.49,1.9,1.9,0,0,1-.51,2.16,1.45,1.45,0,0,1-1,.42h-.17A.94.94,0,0,1,258.13,136.12Zm3.36,8.47a.24.24,0,0,1-.18.1h0a.31.31,0,0,1-.22-.13h0c-.26-.31-.49-.61-.67-.84l-.32-.4-.28-.32c-.22-.25-.52-.58-.75-.87a.29.29,0,0,1,0-.4.26.26,0,0,1,.36-.07l0,0a3.61,3.61,0,0,0,.48.46c.11.07.16.11.43-.19s1.09-1.27,1.73-2.06l1.22-1.48.55-.69.43-.54a1.25,1.25,0,0,0,.19-.25c-.06,0-.47-.14-.67-.19l-.32-.09a.3.3,0,0,1-.2-.13c-.08-.09,0-.26,0-.34a.36.36,0,0,1,.31-.12c.13,0,2.17.15,2.57.16a.52.52,0,0,1,.38.11c.11.13.08.29-.08.49s-1,1.1-2,2.39L263,141c-.68.84-1.36,1.67-1.69,2.13s-.26.42-.16.63a3.32,3.32,0,0,0,.32.48l0,0A.3.3,0,0,1,261.49,144.59Zm1.45,2.25a.45.45,0,0,1-.24-.11.33.33,0,0,1,0-.37.46.46,0,0,1,.31-.18H263A6.46,6.46,0,0,0,268,143.1c1.17-1.73,1.2-2.93.71-3.34a.61.61,0,0,0-.49-.13,1.93,1.93,0,0,0-1.16.9c-1,1.5-.57,2.39-.4,2.53a.9.9,0,0,0,.49.25h.11a.26.26,0,0,1,.21.06.28.28,0,0,1,0,.36.47.47,0,0,1-.21.15,1.47,1.47,0,0,1-1.42-.38c-1.14-1-.7-2.6-.13-3.43a3,3,0,0,1,2-1.39,2.15,2.15,0,0,1,1.7.52c1.17,1,1.16,2.81,0,4.58a6.94,6.94,0,0,1-5.73,3.13A5,5,0,0,1,262.94,146.84ZM273,150.55a3.07,3.07,0,0,1-1.83,1.59,2.35,2.35,0,0,1-.63.09,2.62,2.62,0,0,1-1.37-.41,2.66,2.66,0,0,1-1-3.73,3.15,3.15,0,0,1,2.76-1.72,2.9,2.9,0,0,1,0-2.69,2.49,2.49,0,0,1,1.45-1.23,2.35,2.35,0,0,1,1.84.26,2.08,2.08,0,0,1,.91,3,2.71,2.71,0,0,1-2.25,1.47A3.67,3.67,0,0,1,273,150.55Zm8.05-4.5c-.07.2-.32.25-.46.28a7.74,7.74,0,0,0-4.57,4.76,4.23,4.23,0,0,0-.26,2.87.84.84,0,0,0,.47.47.85.85,0,0,0,.68,0,2.49,2.49,0,0,0,1.15-1.52,3,3,0,0,0,.17-2.29.88.88,0,0,0-.49-.49,1.2,1.2,0,0,0-.48-.09h-.1a.47.47,0,0,1-.2,0,.22.22,0,0,1-.12-.12.32.32,0,0,1,0-.25.39.39,0,0,1,.28-.24,2.19,2.19,0,0,1,1.54,0,2,2,0,0,1,1.14,1,3.29,3.29,0,0,1,0,2.43,4,4,0,0,1-2,2.29,2.66,2.66,0,0,1-1.08.24,2.56,2.56,0,0,1-.92-.17h0c-1.63-.63-2.11-2.49-1.24-4.73a8,8,0,0,1,6-4.83.58.58,0,0,1,.31,0,.29.29,0,0,1,.17.15A.27.27,0,0,1,281.09,146.05Zm8.25-12.6c-.91.15-2.43.57-2.62,1.08-.12.32.3,1,.67,1.68.13.23.26.45.38.67l.08.15-.15.07a6,6,0,0,1-2.63.63c-2.93,0-5.22-2.33-6.17-3.9l-.07-.11.77-.8.11.19a5.77,5.77,0,0,0,4.22,3,2.54,2.54,0,0,0,1.45-.08c.12-.12-.11-.76-.24-1.15-.22-.62-.4-1.15-.23-1.46s.7-.59,1.31-.82l.5-.2c-1.81-2-3.51-3.31-5.82-3.46a4.7,4.7,0,0,1-1.5,2.46,4.05,4.05,0,0,1-3,.87,3.93,3.93,0,0,1-2.55-1.71,6.17,6.17,0,0,1-.65-6.14,10.22,10.22,0,0,1-5.44-3.61c-3.83-5.24-2.84-9.86-2.83-9.91l0-.12h.13s1.67,0,2.9-.17c0-.42.13-1.74.16-2.4v-.15l1.27-.1v.19s-.08,1.44,0,3.63v.14l-.14,0a21.9,21.9,0,0,1-2.89.36l0,.36a11.21,11.21,0,0,0,2.22,6.42,9.83,9.83,0,0,0,6.53,4.05c1.48-7.27-2.4-10.59-4.06-12L271,111l0-.11a7.73,7.73,0,0,0,.35-1.37l0-.25.21.14a13.1,13.1,0,0,1,4.86,6.59h0c5.22-4.45,5.58-4.42,5.72-4.41h.07l.07.06c.23.27-.25.86-3.45,4.2-.66.69-1.34,1.4-2,2.06.2,2.24.41,6-.41,6.88a1.19,1.19,0,0,1-1.22.21,2,2,0,0,0-.41-.06,4.49,4.49,0,0,0,.13,4.64,2.22,2.22,0,0,0,3.15.39c.49-.35.86-.89.57-1.31s.28-.74.88-1.18c.28-.21.76-.57.77-.7a12.32,12.32,0,0,0-2.32-2.05l-.09-.07,0-.11a11.94,11.94,0,0,0,.41-1.67l0-.29.23.18a15.77,15.77,0,0,0,1.79,1.24c.28.13,1-.38,1.54-.83a9.06,9.06,0,0,1,1.31-.89c.58-.29,1-.32,1.09-.09s-.53,1-1,1.3a3.75,3.75,0,0,0-1.53,2.37,1.63,1.63,0,0,0,.26,1.27,2.46,2.46,0,0,0,1.09.57c1.36.49,3.64,1.32,6.23,5.48l.13.21Zm-8.27-2.35a.59.59,0,0,1,.39-.33,3.32,3.32,0,0,1,2,.29h0c.39.24.05,1.11-.16,1.47s-.42.46-.56.46a.31.31,0,0,1-.16,0S280.82,131.87,281.07,131.11Zm-9.14-13.17c.18-.26.51-.55.84-.5.15,0,.34.13.44.47h0l.11.4c.27,1,.51,1.79.14,2.13a.28.28,0,0,1-.18.06h-.06c-.46-.08-1.26-1.32-1.44-1.62A.93.93,0,0,1,271.92,117.93Zm19.34,10.24-.47.49c-.87.9-1.25,1.16-1.47,1.16a.25.25,0,0,1-.14,0c-.25-.16-.1-.58.23-1.45.08-.22.17-.45.24-.65a3.32,3.32,0,0,0,.12-1.92c-.25-.33-.48-.65-.68-.93-.45-.64-.84-1.19-1.11-1.19h0a23.19,23.19,0,0,0-3.49,3l-.12.13-.12-.13a3.8,3.8,0,0,1-.37-.48l-.06-.09.06-.09c1.42-2.07,2.51-3.71,2.75-4.08-3.35-7.2-4.68-11,1.13-18.57l.09-.12.13.08c.15.1.39.21.39.21l.17.08-.3.45c-1.58,2.39-4.87,7.37-1.53,13.95,2.84,5.61,4.31,7,5,7.12a.56.56,0,0,0,.51-.13,18.93,18.93,0,0,1,3.44-2.32c.2-.06.31-.15.32-.23s-.14-.34-.63-.64-.46-.7-.51-1.17a2,2,0,0,0-.6-1.47,4.49,4.49,0,0,1-1.07-1.47l-.24-.56.49.36a3.7,3.7,0,0,0,1.26.48,3,3,0,0,1,1.56.72,2.18,2.18,0,0,1,.42,1.17c.08.54.16,1,.67,1.25l.31.14c.76.33,1.47.65,1.46,1.1,0,.28-.29.51-.87.72C295.1,124.2,293.32,126,291.26,128.17Zm6.09,12.32-.85-1.42.22-.05c13.85-3.38,26.4-14.86,27.78-16.16,5.44-5.12,14.47-15.82,17.07-24.34l.06-.18,1,.5,0,.13c-2.51,8.67-11.48,19.55-16.89,24.75-1.4,1.35-14.11,13.26-28.27,16.75ZM318.56,136A12.36,12.36,0,0,1,311,139a6.51,6.51,0,0,1-3.74-1.05l-.18-.13.18-.14c3.81-2.93,8.56-3.71,11.3-1.86l.18.12ZM330,127.38a12.86,12.86,0,0,1-8.87,4.27,6.52,6.52,0,0,1-2.56-.48l-.22-.09.17-.17c3.46-3.48,8.26-5.07,11.42-3.78l.22.09ZM340,117a11.38,11.38,0,0,1-9.15,5.22,7.65,7.65,0,0,1-2.07-.28l-.22-.06.13-.19c2.76-3.94,7.37-6,11.21-4.94l.22.06Zm6.83-10.72a9.06,9.06,0,0,1-8,4.94,7.89,7.89,0,0,1-1.41-.13l-.22,0,.11-.2a9.26,9.26,0,0,1,9.43-4.81l.21,0Zm.21-11-1.58-2.88-3.87-.06,2.95-2.7-.45-3.09,3.14,1.12,3.4-2-.74,3.38,2.79,2.06-3.92.93Z" transform="translate(-48.96 -49.21)"/><path class="cls-2" d="M308.24,244.41" transform="translate(-48.96 -49.21)"/><path class="cls-1" d="M63.89,202.59c-.17,4.78,5.08,6.58,9.31,6.58,3.74,0,8.77-1.32,9.64-5.82.72-3.73-2.88-4.77-5.81-5.33l-5.54-1c-5.19-1-9.63-3.53-8.42-9.75,1.42-7.26,8.71-10.31,15.15-10.31s11.72,2.34,12.19,8.85l-5.19,1c-.63-3.88-3.9-5.54-7.91-5.54-3.18,0-7.72,1.24-8.47,5.12s2.28,4.64,5.3,5.12l4.94.9c2.47.48,5,1,6.87,2.42a7.78,7.78,0,0,1,2.68,8c-1.55,8-9.87,10.87-16.72,10.87s-13.08-2.84-13.48-10Z" transform="translate(-48.96 -49.21)"/><path class="cls-1" d="M96.68,213h-5.4l6.84-35.15h5.39ZM105,171.59h-6l1.18-6.09h6Z" transform="translate(-48.96 -49.21)"/><path class="cls-1" d="M102.12,213l9.23-47.47h5.4L107.52,213Z" transform="translate(-48.96 -49.21)"/><path class="cls-1" d="M129.06,213h-5.67l-5.69-35.15h6L128,206.4l15.18-28.58H148Z" transform="translate(-48.96 -49.21)"/><path class="cls-1" d="M172.38,203.35a19.45,19.45,0,0,1-16.95,10.32c-10.66,0-14.49-8.45-12.58-18.28s9.34-18.46,19.86-18.46c10.92,0,13.86,9.13,11.69,18.89H148.87c-.54,2.77-.9,5.32-.09,8,1,3.32,4.29,5.33,8,5.33,4.56,0,8.4-2.63,10.73-6.77Zm-3.15-11.55c1.21-5.81-1.09-10.73-7.32-10.73-5.88,0-10.69,5.19-12,10.73Z" transform="translate(-48.96 -49.21)"/><path class="cls-1" d="M186.75,177.82l-1.59,8.23h.14c2.59-4.77,6.43-9.2,12.1-9.2l2,.14-1,5.19h-1.11c-4.15,0-7.44,2-10.14,5.53a16.46,16.46,0,0,0-3.2,7.54L180.47,213h-5.4l6.83-35.15Z" transform="translate(-48.96 -49.21)"/><path class="cls-1" d="M232.74,199.23c-1.3,9.45-8,14.46-17.34,14.46-5.3,0-9.59-1.21-13.46-5a19.26,19.26,0,0,1-5.44-13.89c0-11,7.59-19.12,18.83-19.12,9,0,16.19,5.3,17.26,14.46l-12.53,1.08-.07-.36c-.5-2.5-1.07-5.37-4.22-5.37-4.51,0-4.51,5.95-4.51,9.16,0,3.44.07,9,4.72,9,3.08,0,4.22-2.8,4.58-5.45Z" transform="translate(-48.96 -49.21)"/><path class="cls-1" d="M256.79,213V190.2c0-2.44-.5-4.51-3.43-4.51a4,4,0,0,0-3.36,1.79,5,5,0,0,0-.79,3.51v22H235V163.85H249.2v16.83a12.69,12.69,0,0,1,10.32-5c3.58,0,7.37,1,9.38,4s2.07,6.67,2.07,10.39V213Z" transform="translate(-48.96 -49.21)"/><path class="cls-1" d="M312.14,200.73c-2.21,8.87-10.1,13-18.76,13-5.37,0-10.59-1.15-14.76-4.8a18.29,18.29,0,0,1-6-13.75A20.4,20.4,0,0,1,278,181.32c3.73-3.87,9.3-5.65,14.54-5.65,12.17,0,19.62,7.88,19.62,19.91v1.93H287.65c-.21,3.94,1.21,6.8,5.52,6.8,3.22,0,5-1.29,5.58-4.44Zm-14.32-10.38c0-3.58-1.15-6.3-5.16-6.3-3.72,0-5.22,2.94-5.08,6.3Z" transform="translate(-48.96 -49.21)"/><path class="cls-1" d="M331.61,213H317.44V186.62h-5.15v-9h5.15v-.5c0-3.58.22-6.95,2.65-10,2.79-3.43,7.23-4,11.46-4h8.89v9.25l-4.82.05c-3.66,0-4.15,1.64-4.15,5.15h9v9h-8.88Z" transform="translate(-48.96 -49.21)"/><path class="cls-1" d="M49,226.82h1V232h0a2.9,2.9,0,0,1,5.4,1.45v5.61h-1v-5.29c0-1.68-.71-2.23-2-2.23s-2.37.83-2.37,2.7v4.83H49Z" transform="translate(-48.96 -49.21)"/><path class="cls-1" d="M60.65,230.61c2.07,0,3.75,1.52,3.75,4.35s-1.68,4.36-3.75,4.36S56.9,237.79,56.9,235,58.57,230.61,60.65,230.61ZM57.93,235c0,2.14,1.18,3.39,2.71,3.39s2.71-1.25,2.71-3.39-1.17-3.38-2.71-3.38S57.93,232.84,57.93,235Z" transform="translate(-48.96 -49.21)"/><path class="cls-1" d="M66.22,236.81a2.21,2.21,0,0,0,2.4,1.64c.85,0,2-.33,2-1.69,0-2.46-4.91-.56-4.91-3.87,0-1.19,1-2.28,2.84-2.28,1.62,0,2.72.48,3.12,1.88l-1,.24a1.78,1.78,0,0,0-2-1.26c-1.55,0-1.95.63-1.95,1.45,0,2.14,4.91.54,4.91,3.87,0,1.36-1.14,2.52-3.22,2.52a3.17,3.17,0,0,1-3.24-2.19Z" transform="translate(-48.96 -49.21)"/><path class="cls-1" d="M73.37,230.82h1v1.24h0a2.62,2.62,0,0,1,2.44-1.45c1.81,0,3.47,1.43,3.47,4.21,0,3.44-1.76,4.49-3.4,4.49a2.47,2.47,0,0,1-2.5-1.38h0v5.46h-1Zm3.45.76c-2.06,0-2.47,1.8-2.47,3.38s.42,3.39,2.45,3.39c1.49,0,2.5-1.29,2.5-3.39S78.29,231.58,76.83,231.58Z" transform="translate(-48.96 -49.21)"/><path class="cls-1" d="M81.83,227.4h1V229h-1Zm0,3.42h1v8.28h-1Z" transform="translate(-48.96 -49.21)"/><path class="cls-1" d="M83.92,230.82h1.69v-3.54h1v3.54h1.79v.86H86.65v5.47c0,.62,0,1.19.6,1.19a1.92,1.92,0,0,0,1.14-.41v1a3.46,3.46,0,0,1-1.36.34,1.31,1.31,0,0,1-1.41-1.47v-6.16H83.92Z" transform="translate(-48.96 -49.21)"/><path class="cls-1" d="M96.72,239.21c-1.28,0-2.06,0-2.16-1.45h0a3.07,3.07,0,0,1-2.9,1.56c-1.35,0-2.65-.68-2.65-2.19,0-1.77,1.54-2.28,3-2.65l2.54-.65V233c0-1.07-.75-1.52-2.07-1.52a1.8,1.8,0,0,0-2,2l-1.18-.21a3,3,0,0,1,3.27-2.66c3.07,0,3.07,1.78,3.07,2.59v4.06c0,1.07.48,1.08,1.19,1.08Zm-5-.86a2.7,2.7,0,0,0,2.78-2.68v-.94l-3,.82c-.83.23-1.48.62-1.48,1.55S90.94,238.35,91.71,238.35Z" transform="translate(-48.96 -49.21)"/><path class="cls-1" d="M97.64,226.82h1V239.1h-1Z" transform="translate(-48.96 -49.21)"/><path class="cls-1" d="M100.67,227.4h1V229h-1Zm0,3.42h1v8.28h-1Z" transform="translate(-48.96 -49.21)"/><path class="cls-1" d="M102.76,230.82h1.7v-3.54h1v3.54h1.79v.86h-1.79v5.47c0,.62,0,1.19.6,1.19a1.93,1.93,0,0,0,1.14-.41v1a3.49,3.49,0,0,1-1.36.34,1.31,1.31,0,0,1-1.41-1.47v-6.16h-1.7Z" transform="translate(-48.96 -49.21)"/><path class="cls-1" d="M107.42,230.82h1l2.4,7h0l2.73-7h1l-4.09,10.52c-.37,1-.75,2.06-2,2.06a2.74,2.74,0,0,1-1.11-.31V242a2.41,2.41,0,0,0,1.07.41c.63,0,.89-.72,1-1.11l.85-2.18Z" transform="translate(-48.96 -49.21)"/><path class="cls-1" d="M120.8,234.93v.23c0,1.84.81,3.19,2.67,3.19a2.67,2.67,0,0,0,2.69-1.77l1,.26a3.81,3.81,0,0,1-3.75,2.47c-2.07,0-3.75-1.52-3.75-4.36s1.67-4.35,3.75-4.35c2.45,0,3.66,1.86,3.75,4.32Zm5.15-.86c-.23-1.21-.85-2.49-2.57-2.49a2.62,2.62,0,0,0-2.58,2.49Z" transform="translate(-48.96 -49.21)"/><path class="cls-1" d="M134,243.39v-5.56h0a2.51,2.51,0,0,1-2.5,1.49c-1.64,0-3.41-1-3.41-4.49,0-2.78,1.66-4.21,3.47-4.21a2.63,2.63,0,0,1,2.44,1.45h0v-1.24h1v12.57Zm-2.39-5c2,0,2.45-1.77,2.45-3.39s-.42-3.38-2.47-3.38c-1.47,0-2.49,1.3-2.49,3.38S130.15,238.35,131.64,238.35Z" transform="translate(-48.96 -49.21)"/><path class="cls-1" d="M142.49,237.89h0a2.9,2.9,0,0,1-5.39-1.46v-5.61h1v5.3c0,1.67.71,2.22,2,2.22s2.37-.82,2.37-2.7v-4.83h1v8.28h-1Z" transform="translate(-48.96 -49.21)"/><path class="cls-1" d="M145.53,227.4h1V229h-1Zm0,3.42h1v8.28h-1Z" transform="translate(-48.96 -49.21)"/><path class="cls-1" d="M148.57,230.82h1v1.24h0a2.62,2.62,0,0,1,2.43-1.45c1.81,0,3.47,1.43,3.47,4.21,0,3.44-1.77,4.49-3.4,4.49a2.47,2.47,0,0,1-2.5-1.38h0v5.46h-1Zm3.46.76c-2.06,0-2.47,1.8-2.47,3.38s.41,3.39,2.45,3.39c1.49,0,2.51-1.29,2.51-3.39S153.49,231.58,152,231.58Z" transform="translate(-48.96 -49.21)"/><path class="cls-1" d="M157.12,230.82h1v1.33h0a2.39,2.39,0,0,1,2.3-1.54,2.16,2.16,0,0,1,2.38,1.81h0a2.55,2.55,0,0,1,2.59-1.81c2.4,0,2.4,2,2.4,3v5.47h-1v-5.35c0-.94,0-2.18-1.59-2.18S163,232.89,163,234.5v4.6h-1v-5.21c0-1.08-.1-2.32-1.59-2.32-1.28,0-2.24,1.14-2.24,3v4.55h-1Z" transform="translate(-48.96 -49.21)"/><path class="cls-1" d="M170.64,234.93v.23c0,1.84.82,3.19,2.67,3.19a2.67,2.67,0,0,0,2.69-1.77l1,.26a3.8,3.8,0,0,1-3.75,2.47c-2.07,0-3.75-1.52-3.75-4.36s1.68-4.35,3.75-4.35c2.46,0,3.66,1.86,3.75,4.32Zm5.15-.86c-.23-1.21-.85-2.49-2.58-2.49a2.62,2.62,0,0,0-2.58,2.49Z" transform="translate(-48.96 -49.21)"/><path class="cls-1" d="M178.45,230.82h1V232h0a2.9,2.9,0,0,1,5.39,1.46v5.61h-1v-5.29c0-1.68-.7-2.23-2-2.23s-2.36.83-2.36,2.7v4.83h-1Z" transform="translate(-48.96 -49.21)"/><path class="cls-1" d="M186,230.82h1.69v-3.54h1v3.54h1.79v.86h-1.79v5.47c0,.62,0,1.19.6,1.19a1.92,1.92,0,0,0,1.14-.41v1a3.44,3.44,0,0,1-1.36.34,1.31,1.31,0,0,1-1.42-1.47v-6.16H186Z" transform="translate(-48.96 -49.21)"/><path class="cls-1" d="M197.11,231.69H195.3v-.86h1.81v-2.63c0-1.25.85-1.69,2-1.69a2.33,2.33,0,0,1,.92.17v1a2,2,0,0,0-1-.18c-.71,0-1,.39-1,1.23v2.12H200v.86h-1.82v7.42h-1Z" transform="translate(-48.96 -49.21)"/><path class="cls-1" d="M206.52,237.89h0a2.9,2.9,0,0,1-5.39-1.46v-5.61h1v5.3c0,1.67.71,2.22,2,2.22s2.37-.82,2.37-2.7v-4.83h1v8.28h-1Z" transform="translate(-48.96 -49.21)"/><path class="cls-1" d="M209.57,230.82h1V232h0A2.89,2.89,0,0,1,216,233.5v5.61h-1v-5.29c0-1.68-.71-2.23-2-2.23s-2.37.83-2.37,2.7v4.83h-1Z" transform="translate(-48.96 -49.21)"/><path class="cls-1" d="M223.44,238h0a2.53,2.53,0,0,1-2.41,1.33c-1.56,0-3.49-1.18-3.49-4.25,0-2.9,1.57-4.45,3.47-4.45a2.67,2.67,0,0,1,2.43,1.29h0v-5.09h1V239.1h-1Zm-2.39.36c1.93,0,2.45-1.77,2.45-3.39s-.41-3.38-2.38-3.38c-1.56,0-2.57,1.3-2.57,3.38S219.55,238.35,221,238.35Z" transform="translate(-48.96 -49.21)"/><path class="cls-1" d="M226.48,227.4h1V229h-1Zm0,3.42h1v8.28h-1Z" transform="translate(-48.96 -49.21)"/><path class="cls-1" d="M229.52,230.82h1V232h0A2.9,2.9,0,0,1,236,233.5v5.61h-1v-5.29c0-1.68-.71-2.23-2-2.23s-2.37.83-2.37,2.7v4.83h-1Z" transform="translate(-48.96 -49.21)"/><path class="cls-1" d="M238.56,240.2a2.29,2.29,0,0,0,2.57,2.22c1.45,0,2.6-.36,2.6-2.86v-1.71l0,0a3,3,0,0,1-2.72,1.5c-1.47,0-3.53-1.18-3.53-4.25,0-2.9,1.57-4.45,3.47-4.45a2.83,2.83,0,0,1,2.76,1.57h0v-1.36h1v8.65c0,1.71-.28,3.92-3.64,3.92-2.12,0-3.4-.78-3.63-3Zm2.52-8.62c-1.56,0-2.57,1.3-2.57,3.38s1,3.39,2.57,3.39c2,0,2.62-1.4,2.62-3.22S243.25,231.58,241.08,231.58Z" transform="translate(-48.96 -49.21)"/><path class="cls-1" d="M333.38,233.27a.22.22,0,0,0,0,.2.54.54,0,0,1-.24.31,1.38,1.38,0,0,0-.24.15.34.34,0,0,1,0,.24q-.06.15-.16.15c-.1,0-.12,0-.08,0s0-.07,0-.11a1.86,1.86,0,0,0-.18.39c0,.09-.11.17-.27.23l0,.14s0,.05,0,0a.13.13,0,0,0-.13,0c-.06,0-.12.06-.18.18l-.12.3a1.63,1.63,0,0,0-.48.37,6.81,6.81,0,0,0-.52.58q0-.11.14-.31a3.67,3.67,0,0,1,.19-.35.12.12,0,0,0,0-.1.09.09,0,0,1,0-.08l.39-.72a6.08,6.08,0,0,1,.49-.74,3.65,3.65,0,0,1,.45-.55q.29-.3.47-.52a.23.23,0,0,0,.09-.12.38.38,0,0,0,0-.12s.12,0,.23-.09l.27-.2a.66.66,0,0,1,0,.33,2,2,0,0,0,0,.28,1.12,1.12,0,0,1-.06.2m7.31-8.79a1,1,0,0,0-.46-.25l-.54-.11a2.9,2.9,0,0,0-.42,0q-.69,1-1.25,1.82t-1,1.74q-.49.88-1,1.76l-1,1.93-.07,0-.07.07a1.27,1.27,0,0,1-.27-.3,2.34,2.34,0,0,0-.18-.25,1.27,1.27,0,0,0-.43-.17.83.83,0,0,1-.41-.19.31.31,0,0,0,0,.1s0,0-.12.06-.14,0-.14-.1,0-.09-.09-.08l-.3,0a.7.7,0,0,0-.24.07l-.27.14a.86.86,0,0,0-.23.16,6.17,6.17,0,0,0-.51.47q-.23.24-.42.47-.4.52-.93,1.31t-1,1.62a14.27,14.27,0,0,0-.89,1.68,4.5,4.5,0,0,0-.42,1.5,1.57,1.57,0,0,0,.16.87,4,4,0,0,0,.72.9l.44,0,.34,0a.73.73,0,0,0,.35-.1,1.89,1.89,0,0,0,.24-.22,2.58,2.58,0,0,1,.38-.31l.52-.37c-.07.06-.14,0-.21,0a1.21,1.21,0,0,1,.28-.32l.35-.3a6.31,6.31,0,0,0,.71-.74q.35-.42.63-.78t.46-.66a5.7,5.7,0,0,1,.43-.5q0,.3,0,1.07a3.12,3.12,0,0,0,.16,1.08,3.57,3.57,0,0,0,.3.55q.16.24.23.37l.25.18a1.21,1.21,0,0,0,.34.18l.34.12a.68.68,0,0,0,.22.06c.08,0,.1,0,.07,0s0,0,.07,0l.61-.07a3.69,3.69,0,0,0,.57-.12q.47-.12.81-.24a.59.59,0,0,1,.36-.26l.51-.19a2.31,2.31,0,0,1,.14-.26.43.43,0,0,1,.15-.15q.16-.11.42-.33a1.21,1.21,0,0,0,.33-.4l.11-.36a3.18,3.18,0,0,1,.14-.39,3,3,0,0,1-.54.28l-1,.44q-.53.25-1.08.44a4.42,4.42,0,0,1-.94.24,1.19,1.19,0,0,1-.41,0,2.23,2.23,0,0,1-.42-.12l0-.39a2.46,2.46,0,0,1,.07-.25,4.31,4.31,0,0,1,.16-.42q.1-.24.18-.5a3.62,3.62,0,0,0,.11-.44.15.15,0,0,0,0-.16l-.06-.18a16.38,16.38,0,0,1,.78-2.31q.32-.69.62-1.4.08-.16.21-.39a3.87,3.87,0,0,0,.22-.41l.25-.55q.14-.32.25-.55a.55.55,0,0,0,.07-.27.36.36,0,0,1,.06-.23,18.86,18.86,0,0,1,1.09-1.81,3.5,3.5,0,0,0,.6-1.28.63.63,0,0,1,.18-.26l.25-.26a2.8,2.8,0,0,0,.15-.3,1.33,1.33,0,0,0,.1-.27.55.55,0,0,0-.17-.48m-12.61,12.47-.84.23-1,.27a.55.55,0,0,0-.46,0,.9.9,0,0,1-.39.09h-.35a.64.64,0,0,1-.33-.07,2.19,2.19,0,0,1-.42-.26q-.22-.17-.2-.31a1,1,0,0,1,.28-.34q.26-.25.65-.58t.79-.72q.4-.39.74-.66t.77-.81a8,8,0,0,0,.59-.72l.25-.51q.13-.28.24-.57l.2-.5a2.22,2.22,0,0,0,.09-.26q0-.23,0-.28l-.16-.1a.26.26,0,0,1-.12-.18,1.28,1.28,0,0,1,0-.48l-.11-.14a.16.16,0,0,0-.14-.07c-.08,0-.11,0-.08,0s0,0-.1,0-.11,0-.1-.14a1,1,0,0,0,0-.3,1.35,1.35,0,0,1-.34-.16.61.61,0,0,0-.28-.11q-.14,0-.08,0s0,0-.08,0-.09,0-.08-.07,0,0,.06,0-.08.22-.27.3l-.46.18a2,2,0,0,0-.56.39,4.32,4.32,0,0,0-.86.86l-.38.39q-.33.41-.59.78l-.45.65q-.36.52-.7,1.11a7.75,7.75,0,0,0-.47.91l-.3.67a3,3,0,0,0-.2,1.08q0,.7.05,1t.06.36a.24.24,0,0,0,.07.14l.2.14a5,5,0,0,0,.59.64,1.76,1.76,0,0,0,.72.3l.2.34a.24.24,0,0,1,.19-.18.72.72,0,0,1,.28,0l.32.1a.75.75,0,0,0,.26.07c.06,0,.1,0,.1,0v-.07a2,2,0,0,0,.46-.12,2,2,0,0,1,.46-.12l-.13,0s0,0,0-.07a3.42,3.42,0,0,0,.49,0,3.22,3.22,0,0,0,.46-.1,1.36,1.36,0,0,1,.25-.56.46.46,0,0,1,.5-.22l.19-.31a1.24,1.24,0,0,1,.17-.24q-.25-.07-.22-.23a.9.9,0,0,0,.31-.15,1.2,1.2,0,0,1,.34-.17.33.33,0,0,1-.22-.09m-12.17-.25h-.1l-.06.34h.1Zm6.83-7.05a.65.65,0,0,0-.21-.31l0-.12a.37.37,0,0,0,0-.12,4.44,4.44,0,0,0-.91-.74,1.79,1.79,0,0,0-1.19-.33l-.08-.07s-.07,0-.16,0-.28.11-.4.32a4.8,4.8,0,0,0-.34.73,5.16,5.16,0,0,0-.23.78l-.09.47q-.11.36-.2.59a2.42,2.42,0,0,0-.13.45.46.46,0,0,0,0,.18.47.47,0,0,1,0,.18,2.48,2.48,0,0,1-.19.58,2.4,2.4,0,0,0-.18.56q-.07.39-.15,1a11.87,11.87,0,0,1-.24,1.25q-.16.66-.37,1.31a5,5,0,0,1-.51,1.12,6.13,6.13,0,0,1-.33.52,1.94,1.94,0,0,1-.44.45.79.79,0,0,1-.35-.61,2.2,2.2,0,0,0-.16-.7.42.42,0,0,0-.29.14l-.08-.09a.27.27,0,0,0,0-.33,1.13,1.13,0,0,1-.15-.28.51.51,0,0,0,0-.41c.13-.11.18-.16.16-.17a.37.37,0,0,1-.11-.1,1.29,1.29,0,0,1,.07-.26c0-.07,0-.1,0-.1a.24.24,0,0,0-.11-.08.14.14,0,0,1-.08-.08,1.9,1.9,0,0,1,.11-.24.39.39,0,0,0,.06-.22.39.39,0,0,1-.2,0,3.3,3.3,0,0,0-.49.74,2.76,2.76,0,0,0-.26.65,2.26,2.26,0,0,0,0,.82,4.67,4.67,0,0,0,.29.93,4.82,4.82,0,0,0,.45.83,1.82,1.82,0,0,0,.51.53s.08,0,.14.1a1.27,1.27,0,0,0,.24.2l.3.22a.51.51,0,0,0,.31.11c.1,0,.15,0,.15,0s0,0,0,0,.07,0,.07.06.05,0,.15,0a1.37,1.37,0,0,0,.91-.34,3,3,0,0,0,.68-.83,5.88,5.88,0,0,0,.45-1l.28-.82a13.61,13.61,0,0,0,.66-2.61,17.62,17.62,0,0,1,.59-2.59.35.35,0,0,1,.23-.2,1.08,1.08,0,0,0,.35.26.81.81,0,0,0,.3.1,1.07,1.07,0,0,0,.28,0,.68.68,0,0,0,.25-.11,2.47,2.47,0,0,0,.35-.83,4.37,4.37,0,0,0,.14-.85.39.39,0,0,0,.09-.1.52.52,0,0,0,.05-.17.69.69,0,0,0-.06-.33m-8.48,6.64a11.29,11.29,0,0,1-1.8.93,1.22,1.22,0,0,1,.13-.74q.18-.33.52-1,.08-.16.17-.41a2.21,2.21,0,0,1,.19-.41,3.9,3.9,0,0,0,.57-1.19,11.16,11.16,0,0,1,.45-1.22,1.14,1.14,0,0,1,.11-.24.53.53,0,0,0,.08-.19,1,1,0,0,0-.42-.82,1.28,1.28,0,0,0-.9-.36l-.29.07a.9.9,0,0,1-.28,0,.84.84,0,0,0-.21.24.43.43,0,0,1-.15.17q-.06.23-.08.32a13.67,13.67,0,0,0-1.21,2.39l-.16.35-.27.59a5.28,5.28,0,0,0-.29.82,3.93,3.93,0,0,0-.15.69,3.43,3.43,0,0,0,0,.87,2.69,2.69,0,0,0,.32.94,2.37,2.37,0,0,0,.64.73,1.46,1.46,0,0,0,1,.25,2.06,2.06,0,0,0,.45-.09,3.36,3.36,0,0,0,.56-.2q.16-.07.17-.17l0-.15a7.27,7.27,0,0,1,.68-.57,5.29,5.29,0,0,1,.74-.48.65.65,0,0,1,.14-.39l.19-.14a.51.51,0,0,0,.15-.18.11.11,0,0,0-.11-.07l-.12,0a1,1,0,0,0,.31-.36,1.39,1.39,0,0,0,.12-.42c0-.14,0-.28.06-.41a.41.41,0,0,1,.17-.28,16.25,16.25,0,0,1-1.6,1.14m2.06-9.66c0-.14,0-.23,0-.3a.42.42,0,0,0-.15-.22.92.92,0,0,1-.22-.26,1.6,1.6,0,0,0-.4.08l-.35.1-.44.07a4.42,4.42,0,0,1-.64,0,.65.65,0,0,1,0,.4.7.7,0,0,0,0,.37,4.59,4.59,0,0,0,.15.65.79.79,0,0,0,.34.49.1.1,0,0,1,0,.08.16.16,0,0,0,0,.08l.41.2a.92.92,0,0,0,.5.09.79.79,0,0,0,.55-.17.62.62,0,0,0,.14-.36q0-.22,0-.47a.66.66,0,0,1,.18-.45.35.35,0,0,1-.11-.39m-5.08,10.29a1.38,1.38,0,0,1-.41.11c-.06,0-.1,0-.1,0a.21.21,0,0,1,0,.08q-.06-.09,0-.14a5.64,5.64,0,0,0-.78.43,1.22,1.22,0,0,1-.43.23c-.08,0-.11,0-.09,0s0,0-.11,0a.3.3,0,0,0-.17.07l-.2.14-.63.2a.85.85,0,0,1-.25.07.4.4,0,0,1-.2,0,.33.33,0,0,0-.17,0,.18.18,0,0,0-.13.06.28.28,0,0,1-.2.06,1,1,0,0,1-.54-.18l-.12-.17a.43.43,0,0,1-.07-.19q0-.2.06-.53t.06-.42q0-.25.17-.69t.3-.91l.34-.92q.16-.45.28-.73a6.38,6.38,0,0,1,.35-.8q.22-.41.45-.8l3.61-7.22a.44.44,0,0,1,0-.31.44.44,0,0,0,0-.31,2.16,2.16,0,0,0-.09-.37q-.07-.22-.11-.37h-.19s0,0-.05,0a.52.52,0,0,1-.29-.14.36.36,0,0,0-.24-.11l-.18,0-.14,0a1.27,1.27,0,0,1-.34.73,4.37,4.37,0,0,0-.62,1,1,1,0,0,1-.25.34,1.61,1.61,0,0,0-.27.32l-.86,1.58q-.4.74-.63,1.22t-.44,1q-.21.52-.35.91a.7.7,0,0,1-.17.24.69.69,0,0,0-.18.28l-1.09,2.48a11.5,11.5,0,0,0-.79,2.64,5,5,0,0,0-.06,1,3.81,3.81,0,0,0,.2,1.11,3.4,3.4,0,0,0,.54,1,2,2,0,0,0,.89.66,4,4,0,0,1,.47.18,1.52,1.52,0,0,0,.38.14c.08,0,.11,0,.09,0s0,0,.12,0a.58.58,0,0,1,.21,0q.09,0,.33-.12l.12.14.42-.1.4-.12a.85.85,0,0,0,.37-.19,3.1,3.1,0,0,1,.3-.24,3,3,0,0,1,.52-.3,4.3,4.3,0,0,0,.51-.27,1.78,1.78,0,0,0,.16-.24.56.56,0,0,1,.26-.24q-.26,0-.08-.3a.94.94,0,0,1,.39-.36q-.16-.16.11-.23l-.38.14a.33.33,0,0,1,0-.09.45.45,0,0,0,.27-.19,1.66,1.66,0,0,1,.24-.28l-.48.2m-11.59-2.64a12.11,12.11,0,0,1-1.35,1.54l-.11-.16q.57-.79,1.26-1.66a15.33,15.33,0,0,1,1.41-1.54.31.31,0,0,1-.06.11.1.1,0,0,0,0,.14l.17-.14q-.67.82-1.33,1.7m5.84,2.48-1.08.43-1.1.41a2.73,2.73,0,0,1-.65.18,1.59,1.59,0,0,0-.34,0,.64.64,0,0,1-.38,0,2.54,2.54,0,0,0,0-.39,2.34,2.34,0,0,1,0-.32l.12-.45q.11-.41.28-1t.38-1.16q.22-.61.39-1l.31-.74q.18-.42.38-.8t.32-.65a2.26,2.26,0,0,0,.13-.34q0-.14,0-.08s0,0,0,0a.26.26,0,0,0,.06-.25,1.72,1.72,0,0,0-.06-.27,1.11,1.11,0,0,0-.44-.31,1.34,1.34,0,0,0-.53-.15c-.06,0-.08,0-.05,0s0,0-.1,0-.11,0-.09-.09,0-.09-.09-.09-.24,0-.23.11-.08.19-.25.34l-.19,0-.19,0a.56.56,0,0,1-.37-.2h-.19a.92.92,0,0,1-.34.32.42.42,0,0,1-.23.07.87.87,0,0,0-.3.07.1.1,0,0,0,0,.1.1.1,0,0,1,0,.1q-.19.14-.4.32a1.37,1.37,0,0,1-.39.25,5.94,5.94,0,0,0-.61.43,4.57,4.57,0,0,0-.49.43q-.38.39-1,1.1t-1.17,1.52a17.16,17.16,0,0,0-1,1.6,4.39,4.39,0,0,0-.54,1.29,1,1,0,0,0,0,.32,2.06,2.06,0,0,1,0,.36,6.64,6.64,0,0,1,.52.56,1.16,1.16,0,0,0,1.09.24,1,1,0,0,1,.26,0,1.25,1.25,0,0,0,.66-.27,7.3,7.3,0,0,0,.78-.62q.38-.35.69-.69l.43-.48q.27-.34.53-.61t.5-.59a5.89,5.89,0,0,1-.05.64q0,.32-.08.52a1.87,1.87,0,0,0,.09.39,3.74,3.74,0,0,0,.28.7,2.62,2.62,0,0,0,.48.66.9.9,0,0,0,.65.3h1a.76.76,0,0,0,.27-.1l.45-.24.5-.27a1.27,1.27,0,0,1,.45-.16.16.16,0,0,1-.11-.07s-.06-.08-.06-.09l.58-.39a4.62,4.62,0,0,0,.46-.36q-.07-.16.15-.32a.58.58,0,0,1,.25-.2.55.55,0,0,0,.25-.23l-.54.23m-13-5.09v-.11l.17,0v.11Zm2.75,4.9a1.33,1.33,0,0,1-.41.22h-.1l0,0s0,0,.06,0h0a3,3,0,0,0-.39.19l-.51.27-.49.23a1.08,1.08,0,0,1-.39.1.46.46,0,0,1-.3,0q0-.34.06-.66a2.2,2.2,0,0,1,.12-.59,7.52,7.52,0,0,1,.15-.83q.11-.49.2-.92l.16-.77a1.48,1.48,0,0,0,.06-.39c0-.15,0-.25,0-.3a.79.79,0,0,0,0-.17.62.62,0,0,0-.09-.25,4.16,4.16,0,0,1-.22-.56l-.08,0s-.05,0,0-.07.06-.05.06-.07v0l-.28-.28q-.16-.17-.26-.17a.52.52,0,0,0-.19.07l-.17.09a1,1,0,0,0-.08-.17.74.74,0,0,0-.15-.17,1,1,0,0,1-.43.11,1,1,0,0,0-.37.07,1.21,1.21,0,0,0-.42.26l-.45.41a5.6,5.6,0,0,0-.43.43,3.26,3.26,0,0,1-.36.35,2.51,2.51,0,0,1,.32-1l.12-.14a.37.37,0,0,0,.08-.18q.13-.34.25-.74t.22-.69a1.3,1.3,0,0,1,.18-.28.36.36,0,0,0,.1-.24l0-.25-.09,0h-.09a.18.18,0,0,1,0-.19.67.67,0,0,0,.07-.19.88.88,0,0,1-.31-.14l-.23-.18a.59.59,0,0,1,0,.2.35.35,0,0,1-.12.18,2.45,2.45,0,0,0-.18-.27l-.16-.23a1.19,1.19,0,0,0-.36.2l-.4.3q0,.14,0,.27c0,.09,0,.16,0,.2q-.69,1.2-1.39,2.48t-1.2,2.2a2.61,2.61,0,0,0-.18.55,2.62,2.62,0,0,1-.18.55,4,4,0,0,1-.19.35,3.86,3.86,0,0,1-.24.35,6.45,6.45,0,0,1-.26.78,4.63,4.63,0,0,0-.19.53.52.52,0,0,0,0,.26.41.41,0,0,0,.12.15.7.7,0,0,1,0,.23,2.41,2.41,0,0,0,.06.41,1.14,1.14,0,0,0,.16.37.33.33,0,0,0,.33.15c.08,0,.1,0,.07,0s0,0,.09,0a.16.16,0,0,1,.17.09.22.22,0,0,0,.19.11,1.77,1.77,0,0,0,.45-.31,7.27,7.27,0,0,0,.55-.49,5.19,5.19,0,0,0,.52-.57l.45-.59c0-.09,0-.14,0-.16q.6-.57,1.27-1.27t1.24-1.23s0,0,0,.06,0,0,0,.06q-.07.5-.15,1.08a3.73,3.73,0,0,0-.05.92,3.9,3.9,0,0,0,.11,1.07,10.7,10.7,0,0,0,.3,1s.07.11.18.2a3.36,3.36,0,0,0,.39.27,2.67,2.67,0,0,0,.44.22,1,1,0,0,0,.31.08l.41,0a2.58,2.58,0,0,0,.53,0,3.2,3.2,0,0,1,.23-.27.78.78,0,0,1,.29-.23,1.67,1.67,0,0,1,.44-.28,1,1,0,0,0,.4-.28.42.42,0,0,1,.17-.22l.23-.17a.21.21,0,0,1,0-.18.28.28,0,0,0,0-.18.32.32,0,0,0,.16-.2.29.29,0,0,1,.1-.18s0,0,.1,0l0,0a.31.31,0,0,1-.18,0l.13-.11.12-.09s0,0,0-.09a.08.08,0,0,1,0-.11,1.3,1.3,0,0,1,.25-.48,4.33,4.33,0,0,0-.57.33m-11.76-3.38q-.1.22-.24.49l-.28.52a2.26,2.26,0,0,1-.2.32l-.25.3-.46.53q-.24.28-.47.52t-.33.24c-.1,0-.11,0,0-.07s.07-.07,0-.07a1.27,1.27,0,0,0-.45.26q-.36.26-.62.42l0-.2a2.8,2.8,0,0,1,.23-.4q.22-.35.53-.8l.66-.92.6-.82q.21-.25.62-.65a5.6,5.6,0,0,0,.66-.76,3.2,3.2,0,0,1,.11.44,1.2,1.2,0,0,1,0,.4l-.1.24m-.39-1.26.06-.34h.12l-.06.34Zm2.24.33a7.42,7.42,0,0,0-.64-1.42.14.14,0,0,0-.11,0l-.12,0a.39.39,0,0,1-.07-.16.19.19,0,0,1,0-.09l-.34-.39a3.07,3.07,0,0,0-.28-.3.47.47,0,0,0-.32-.06q-.15,0-.21-.15a1.44,1.44,0,0,1-.44.19,4.94,4.94,0,0,0-.68.27,2.9,2.9,0,0,0-.62.4.72.72,0,0,0-.28.55.28.28,0,0,1-.11.07l-.05,0q.17,0,.14.16a.24.24,0,0,1,.1-.18.16.16,0,0,1,0,.14c.06-.08.12-.1.18-.08l.14,0a.53.53,0,0,0-.11.24.4.4,0,0,1-.11.22,1.2,1.2,0,0,1-.36.26.92.92,0,0,0-.33.26.35.35,0,0,0-.1.17.12.12,0,0,1-.09.1l-.1,0-.1,0a2.53,2.53,0,0,1-.33.41,4,4,0,0,0-.36.41.31.31,0,0,0-.11.19.28.28,0,0,1-.08.17,5.4,5.4,0,0,0-.36.5q-.24.36-.52.84t-.52,1a3.51,3.51,0,0,0-.31.87,2.28,2.28,0,0,0,0,.4l0,.51q.21,0,.27.3a.7.7,0,0,0,.16.39l.61.53a1.25,1.25,0,0,0,.85.26,3.43,3.43,0,0,0,1.56-.48.84.84,0,0,0,.12-.18.36.36,0,0,1,.14-.16,17.37,17.37,0,0,0,2.63-2.32,5,5,0,0,0,1.34-2.48,2.91,2.91,0,0,0-.1-1.42m-13,4.44h-.1l-.06.34h.1Zm6.83-7.05a.65.65,0,0,0-.21-.31l0-.12a.37.37,0,0,0,0-.12,4.44,4.44,0,0,0-.91-.74,1.78,1.78,0,0,0-1.19-.33l-.08-.07s-.07,0-.16,0-.28.11-.4.32a4.76,4.76,0,0,0-.34.73,5.16,5.16,0,0,0-.23.78l-.09.47q-.11.36-.2.59a2.39,2.39,0,0,0-.13.45.46.46,0,0,0,0,.18.47.47,0,0,1,0,.18,2.48,2.48,0,0,1-.19.58,2.4,2.4,0,0,0-.18.56q-.07.39-.15,1a11.87,11.87,0,0,1-.24,1.25q-.16.66-.37,1.31a5,5,0,0,1-.51,1.12,6,6,0,0,1-.33.52,1.94,1.94,0,0,1-.44.45.79.79,0,0,1-.35-.61,2.2,2.2,0,0,0-.16-.7.42.42,0,0,0-.29.14l-.08-.09a.27.27,0,0,0,0-.33,1.15,1.15,0,0,1-.15-.28.51.51,0,0,0,0-.41c.13-.11.18-.16.16-.17a.37.37,0,0,1-.11-.1,1.29,1.29,0,0,1,.07-.26c0-.07,0-.1,0-.1a.24.24,0,0,0-.11-.08.14.14,0,0,1-.08-.08,1.79,1.79,0,0,1,.11-.24.39.39,0,0,0,.06-.22.39.39,0,0,1-.2,0,3.3,3.3,0,0,0-.49.74,2.78,2.78,0,0,0-.26.65,2.25,2.25,0,0,0,0,.82,4.64,4.64,0,0,0,.29.93,4.82,4.82,0,0,0,.45.83,1.82,1.82,0,0,0,.51.53s.08,0,.14.1a1.25,1.25,0,0,0,.24.2l.3.22a.51.51,0,0,0,.31.11c.1,0,.15,0,.15,0s0,0,0,0,.07,0,.07.06.05,0,.15,0a1.37,1.37,0,0,0,.91-.34,3,3,0,0,0,.68-.83,5.88,5.88,0,0,0,.45-1l.28-.82a13.61,13.61,0,0,0,.66-2.61,17.62,17.62,0,0,1,.59-2.59.35.35,0,0,1,.23-.2,1.08,1.08,0,0,0,.35.26.81.81,0,0,0,.3.1,1.07,1.07,0,0,0,.28,0,.68.68,0,0,0,.25-.11,2.47,2.47,0,0,0,.35-.83,4.34,4.34,0,0,0,.14-.85.39.39,0,0,0,.09-.1.53.53,0,0,0,.05-.17.69.69,0,0,0-.06-.33m-6,2.12a.65.65,0,0,0-.08-.23,2.12,2.12,0,0,0-1-.75,3,3,0,0,0-1.16-.27,1.9,1.9,0,0,0-.68.16,4.31,4.31,0,0,0-.76.4q-.36.24-.68.49a1.84,1.84,0,0,0-.45.48,1.88,1.88,0,0,1,.12-.43,1,1,0,0,0,.09-.36,3.54,3.54,0,0,0,0-.5,3.65,3.65,0,0,0-.07-.5.83.83,0,0,0-.31-.43.74.74,0,0,0-.44-.2h-.29a4.12,4.12,0,0,0-.25.68q-.1.36-.2.68-.14.5-.29,1t-.27.87a13,13,0,0,1-.4,1.29q-.23.64-.51,1.27a4.88,4.88,0,0,1-.19.56q-.13.31-.24.61t-.23.55a2,2,0,0,0-.12.28,1.06,1.06,0,0,0,0,.55,3.63,3.63,0,0,1,.15.64c.13,0,.19,0,.17.1a.25.25,0,0,0,0,.22l.35.16a.84.84,0,0,0,.27.09,1,1,0,0,0,.48-.14,1.64,1.64,0,0,1,.18-1,7.27,7.27,0,0,1,.58-1,.89.89,0,0,0,.14-.3.57.57,0,0,1,.16-.27l.26-.22a1,1,0,0,0,.22-.26s0,0,0-.06a.12.12,0,0,1,0-.1,8.22,8.22,0,0,0,.72-.84s0,0-.06-.06,0-.06,0-.1,0,0,.08,0h0a.16.16,0,0,0,.1,0l.08,0a.1.1,0,0,0,0-.1.05.05,0,0,1,0-.08l.09-.09.08,0s0-.14.1-.27.09,0,.08.11q.57-.66,1.28-1.35a3.83,3.83,0,0,1,1.47-.94q0,.23,0,.39t0,.27a1.75,1.75,0,0,1,.58,0,2.93,2.93,0,0,0,.42,0q0-.16.16-.3a1,1,0,0,0,.3-.3.91.91,0,0,1-.09-.27m-8.33,5.18-.84.23-1,.27a.55.55,0,0,0-.46,0,.91.91,0,0,1-.39.09h-.35a.64.64,0,0,1-.33-.07,2.17,2.17,0,0,1-.42-.26q-.22-.17-.2-.31a1,1,0,0,1,.27-.34q.26-.25.65-.58t.79-.72q.4-.39.74-.66t.77-.81a8.06,8.06,0,0,0,.59-.72l.25-.51q.13-.28.24-.57l.2-.5a2.14,2.14,0,0,0,.09-.26c0-.15,0-.25,0-.28l-.16-.1a.27.27,0,0,1-.12-.18,1.28,1.28,0,0,1,0-.48l-.11-.14a.16.16,0,0,0-.14-.07c-.08,0-.11,0-.08,0s0,0-.1,0-.11,0-.1-.14a1,1,0,0,0,0-.3,1.35,1.35,0,0,1-.34-.16.61.61,0,0,0-.28-.11q-.14,0-.08,0s0,0-.08,0-.09,0-.08-.07,0,0,.06,0-.08.22-.27.3l-.46.18a2,2,0,0,0-.56.39,4.34,4.34,0,0,0-.86.86l-.38.39q-.33.41-.59.78l-.45.65q-.35.52-.7,1.11a7.76,7.76,0,0,0-.47.91l-.3.67a3,3,0,0,0-.2,1.08q0,.7.05,1t.06.36a.24.24,0,0,0,.07.14l.2.14a5,5,0,0,0,.59.64,1.76,1.76,0,0,0,.72.3l.2.34a.24.24,0,0,1,.19-.18.72.72,0,0,1,.28,0l.32.1a.75.75,0,0,0,.26.07c.06,0,.1,0,.1,0v-.07a2,2,0,0,0,.46-.12,2,2,0,0,1,.46-.12l-.13,0s0,0,0-.07a3.42,3.42,0,0,0,.49,0,3.2,3.2,0,0,0,.46-.1,1.36,1.36,0,0,1,.25-.56.46.46,0,0,1,.5-.22l.18-.31a1.24,1.24,0,0,1,.17-.24q-.25-.07-.22-.23a.89.89,0,0,0,.31-.15A1.21,1.21,0,0,1,265,237a.33.33,0,0,1-.22-.09m-5.89-4.76a1,1,0,0,0-.58-.76l-.21-.2a1.36,1.36,0,0,0-.24-.2l-.68-.16a2.7,2.7,0,0,0-.52-.09,1.39,1.39,0,0,0-.65.22,8.42,8.42,0,0,0-.78.5q-.4.28-.73.57a4.17,4.17,0,0,0-.49.47s0,0,0,0v0a2.23,2.23,0,0,1,.33-.36l.31-.3h-.22l-.1-.09q.18-.36.38-.83t.37-.9q.17-.43.31-.74a3.1,3.1,0,0,0,.15-.35,1.52,1.52,0,0,0,0-.25q0-.18,0-.41a2,2,0,0,0,0-.44,2.12,2.12,0,0,1,0-.37,3.73,3.73,0,0,1-.43-.4q-.2-.22-.3-.22a.18.18,0,0,0-.17.09.16.16,0,0,1-.15.09c-.1,0-.15,0-.15,0s0,0-.08,0a.36.36,0,0,1,0,.36q-.44,1-1,2.14t-1.1,2.14a.94.94,0,0,1,0,.32.69.69,0,0,1-.1.27q-.21.36-.39.72t-.34.72a.61.61,0,0,0,0,.3.42.42,0,0,1,0,.27L250.12,237q-.57,1.45-1.1,2.7a.89.89,0,0,0-.48.48l-.33.57a.88.88,0,0,0-.12.39.46.46,0,0,1-.1.3l-.14.12a.23.23,0,0,0-.07.12,1.47,1.47,0,0,0-.06.47.91.91,0,0,1,0,.35l-.15.24a1.51,1.51,0,0,1-.17.22l.28.3.26.3a.22.22,0,0,0,0,.11.26.26,0,0,1,0,.07.31.31,0,0,1,.17.12.22.22,0,0,0,.17.1c.1,0,.15,0,.17-.07s.07-.07.17-.07.1,0,0,.07,0,.07,0,.07h.17a1.9,1.9,0,0,0,.32-.41,2.15,2.15,0,0,0,.2-.41q.29-.7.52-1.41a8.41,8.41,0,0,1,.59-1.36q.15-.3.36-.67a4.32,4.32,0,0,0,.31-.65l.4-1q.23-.55.46-1.07t.47-1a6.44,6.44,0,0,1,.39-.67,2.3,2.3,0,0,1,.37-.49,3.56,3.56,0,0,0,.36-.42s0,.08,0,.1,0,0,.05,0a.77.77,0,0,0,.18-.16l.34-.35.36-.4a1.4,1.4,0,0,1,.34-.3,2.71,2.71,0,0,1,1.77-.7,8.46,8.46,0,0,1-1,1.74,6.61,6.61,0,0,1-1.71,1.67,5.17,5.17,0,0,0-.51.39.79.79,0,0,1-.39.23.27.27,0,0,1-.16,0l-.09,0c.11,0,.16.05.14.16a1.33,1.33,0,0,0-.33.23.48.48,0,0,0-.16.23.41.41,0,0,0,.08.23,3.77,3.77,0,0,1,.19.4l.21.48a4.38,4.38,0,0,0,.22.42h.36s.07,0,.11.06v0h.31a.83.83,0,0,0,.32,0,7.09,7.09,0,0,0,1.54-1,12.07,12.07,0,0,0,2.57-3.12,4.91,4.91,0,0,0,.59-1.53,2.82,2.82,0,0,0,0-.9" transform="translate(-48.96 -49.21)"/></svg>