<?xml version="1.0" encoding="utf-8"?>
<!-- Generator: Adobe Illustrator 16.0.4, SVG Export Plug-In . SVG Version: 6.00 Build 0)  -->
<!DOCTYPE svg PUBLIC "-//W3C//DTD SVG 1.1//EN" "http://www.w3.org/Graphics/SVG/1.1/DTD/svg11.dtd">
<svg version="1.1" id="Layer_1" xmlns="http://www.w3.org/2000/svg" xmlns:xlink="http://www.w3.org/1999/xlink" viewBox="0 0 210.866 85.283" preserveAspectRatio="xMinYMin meet"
	 xml:space="preserve">
<g>
	<path d="M210.595,83.421v-1.562h-14.25v-0.045l14.25-5.936v-1.336l-14.25-5.756v-0.045h14.25v-1.562h-15.812v2.242l13.909,5.799
		l-13.909,5.777v2.424H210.595L210.595,83.421z M210.595,65.751v-1.562h-15.812v1.562H210.595L210.595,65.751z M210.595,62.987
		v-1.562h-13.638V61.38l13.638-7.906v-2.107h-15.812v1.564h13.909v0.045l-13.909,8.041v1.971H210.595L210.595,62.987z
		 M210.595,50.167v-8.02h-1.361v6.456h-6.092v-5.867h-1.359v5.867h-5.642v-6.184h-1.358v7.748H210.595L210.595,50.167z
		 M196.141,39.949v-1.608c0-2.152,0.159-3.987,2.741-3.987c2.197,0,2.9,2.106,2.9,3.941v1.654H196.141L196.141,39.949z
		 M210.595,41.513v-1.563h-7.453v-1.291c0-1.495,0.066-2.175,2.106-3.081l5.347-2.288v-1.722l-6.118,2.696
		c-1.064,0.498-1.743,0.77-1.902,2.038h-0.046c-0.249-1.948-1.607-3.511-3.646-3.511c-2.899,0-4.1,1.835-4.1,4.644v4.078H210.595
		L210.595,41.513z M210.595,32.882v-1.519l-4.237-1.699V21.69l4.237-1.699V18.36l-15.812,6.275v1.767L210.595,32.882L210.595,32.882
		z M204.999,22.211v6.864l-8.724-3.443L204.999,22.211L204.999,22.211z M210.595,18.066V10.16h-1.361v6.343h-14.451v1.563H210.595
		L210.595,18.066z M210.187,9.82c0.362-0.838,0.68-2.039,0.68-3.579c0-2.447-1.27-5.188-4.463-5.188
		c-4.621,0-4.646,7.249-7.816,7.249c-2.038,0-2.718-1.79-2.718-3.421c0-1.064,0.203-2.175,0.589-2.877l-1.429-0.249
		c-0.406,1.087-0.521,2.333-0.521,3.104c0,2.786,1.587,5.006,4.124,5.006c4.146,0,4.53-7.249,7.634-7.249
		c2.242,0,3.24,1.609,3.24,3.557c0,1.473-0.341,2.561-0.929,3.489L210.187,9.82L210.187,9.82z"/>
</g>
<g>
	<path fill="#FFFFFF" d="M101.237,41.155C101.237,13.772,83.399,0,50.542,0C17.525,0,0,13.772,0,41.155
		c0,25.38,14.24,40.837,41.204,43.65l59.392-34.858C101.019,47.164,101.237,44.236,101.237,41.155z M50.542,61.811
		c-7.668,0-8.609-8.762-8.609-20.655c0-9.7,0.941-17.683,8.609-17.683s8.759,7.982,8.759,17.683
		C59.301,53.049,58.21,61.811,50.542,61.811z"/>
	<path fill="#FFFFFF" d="M50.542,85.283c28.019,0,45.106-11.614,49.532-32.497L45.001,85.117
		C46.797,85.223,48.638,85.283,50.542,85.283z"/>
	<polygon fill="#FFFFFF" points="186.8,1.879 103.27,50.91 103.27,83.403 109.36,83.403 187.144,33.53 187.144,1.879 	"/>
	<polygon fill="#FFFFFF" points="104.681,1.879 104.681,25.352 142.494,25.352 182.485,1.879 	"/>
	<polygon fill="#FFFFFF" points="117.382,83.403 188.24,83.403 188.24,59.93 153.984,59.93 	"/>
</g>
</svg>
