<?xml version="1.0" encoding="utf-8"?>
<!-- Generator: Adobe Illustrator 22.0.1, SVG Export Plug-In . SVG Version: 6.00 Build 0)  -->
<svg version="1.1" id="Layer_1" xmlns="http://www.w3.org/2000/svg" xmlns:xlink="http://www.w3.org/1999/xlink" x="0px" y="0px"
	 viewBox="0 0 651.7 129.6" style="enable-background:new 0 0 651.7 129.6;" xml:space="preserve">
<style type="text/css">
	.st0{fill:#FFFFFF;}
</style>
<g>
	<g>
		<path class="st0" d="M233.1,84.6h-27.2v28.3h-18.1v-96c15.1,0,30.2-0.1,45.3-0.1C280,16.7,280.2,84.6,233.1,84.6z M205.9,68h27.2
			c23.2,0,23.1-34,0-34h-27.2V68z"/>
		<path class="st0" d="M469.9,112.9h-21.5l-28-32.1H403v32.1h-18.1V16.7c15.2,0,30.5,0.1,45.7,0.1c22.6,0.1,34.6,15.2,34.6,31.8
			c0,13.2-6,26.5-24.3,30.2l29.1,32.8V112.9z M403,33.7v30.7h27.6c11.5,0,16.5-7.7,16.5-15.4c0-7.7-5.1-15.4-16.5-15.4H403z"/>
		<path class="st0" d="M554.4,17.4l-42.7,46l46.2,48.4v1.1h-22.4l-40.2-42.5v42.5h-18.1v-96h18.1v40.6l36.5-40.6h22.5V17.4z"/>
		<path class="st0" d="M651.7,64c0.4,24.3-14.4,48.8-48,48.8c-11.8,0-25.9,0-37.7,0v-96c11.8,0,25.9,0,37.7,0
			C636.6,16.8,651.3,40.3,651.7,64z M583.9,95.5h19.8c21.8,0,30.5-15.9,30-31.6c-0.4-15-9.2-29.9-30-29.9h-19.8V95.5z"/>
		<polygon class="st0" points="333.5,16.8 313.8,16.8 270.7,112.9 290.3,112.9 323.6,37 356.9,112.9 376.6,112.9 		"/>
		<polygon class="st0" points="303.8,112.9 343.3,112.9 323.6,67.8 		"/>
	</g>
	<g>
		<path class="st0" d="M64.7,7.9v11.2c22.1,3.5,39,22.7,39,45.7c0,25.5-20.8,46.3-46.3,46.3c-4.1,0-8.1-0.5-12-1.6V87.1v-8.6h18.8
			c27.1,0,31.6-32.4,13.7-43.4c1.4,2.3,2.7,5.4,2.9,9.2c0.3,5.4-1.6,10.8-5.7,16.2c-1.7,3.7-5.3,6.5-10.9,6.5H45.4v0V47.6H32.8v39.5
			h0.1V104v12.6c4,1.9,8.2,3.3,12.5,4.2c3.9,0.8,7.9,1.3,12,1.3c31.6,0,57.4-25.7,57.4-57.4C114.8,35.6,92.9,11.5,64.7,7.9z"/>
		<path class="st0" d="M78.9,44.4c-0.3-5.3-3-9.2-4.6-11.2c-2.9-1.1-6.2-1.8-10-1.8c-1.2,0-2.3,0-3.5,0V18.6V7.5
			c-1.1-0.1-2.2-0.1-3.4-0.1c-3.2,0-6.4,0.3-9.5,0.8C20.8,12.7,0,36.4,0,64.8c0,21.2,11.5,39.7,28.6,49.6V101
			c-10.7-8.5-17.5-21.6-17.5-36.2c0-22.3,15.8-40.9,36.8-45.3v12.1v11.9h10.2h2.7h3.5c8,0,12,5.9,12,11.7
			C78.2,51.6,79.1,48,78.9,44.4z"/>
	</g>
	<rect x="150.6" class="st0" width="1.4" height="129.6"/>
</g>
</svg>
