<svg id="Layer_1" data-name="Layer 1" xmlns="http://www.w3.org/2000/svg" viewBox="0 0 74 92"><defs><style>.cls-1{fill:#7abc4c}.cls-2{fill:#00bcdf}.cls-3{fill:#95c970}</style></defs><path class="cls-1" d="M11.432 77.713l.072-.1a5.088 5.088 0 0 1 2.126-.484 2.355 2.355 0 0 1 1.911.689c.417.469.417.791.417 2.228v.909a35.873 35.873 0 0 0 .086 3.752l-.086.1-.758.043-.1-.088-.014-.513a3.322 3.322 0 0 1-2.04.733 2.281 2.281 0 0 1-2.446-2.389 2.382 2.382 0 0 1 .747-1.773 4.877 4.877 0 0 1 2.471-.894l1.264-.19v-.191a2.954 2.954 0 0 0-.129-.967 1.4 1.4 0 0 0-1.408-.674 3.739 3.739 0 0 0-2.04.557l-.117-.061zm2.873 2.873a4.931 4.931 0 0 0-2.126.674 1.627 1.627 0 0 0 1.02 2.946 2.61 2.61 0 0 0 1.882-.791v-2.947zm4.411 2.579l1.293.4a10.729 10.729 0 0 1 1.681.557 2 2 0 0 1 1.336 1.891c0 1.612-1.494 2.491-3.1 2.491-1.451 0-3.032-.777-3.032-2.374a2.818 2.818 0 0 1 1.379-2.213l-.632-.278-.041-.152a14.064 14.064 0 0 0 .8-1.319 2.374 2.374 0 0 1-1.336-2.257 2.586 2.586 0 0 1 .862-1.993 3.882 3.882 0 0 1 2.715-.674l.647.014h1.9l.057.1-.057.615-.1.088-1.437-.088a2.362 2.362 0 0 1 .963 1.964 2.548 2.548 0 0 1-2.658 2.535 3.522 3.522 0 0 1-.776-.1zm-.934 2.858c0 .7.546 1.744 2.2 1.744 1.509 0 2.112-.894 2.112-1.642a1.427 1.427 0 0 0-1.078-1.348c-.532-.205-1.394-.44-2.083-.645a2.588 2.588 0 0 0-1.151 1.891zm2.126-8.031a1.842 1.842 0 0 0-1.954 1.935 1.776 1.776 0 0 0 1.882 1.847 1.815 1.815 0 0 0 1.882-1.935 1.759 1.759 0 0 0-1.809-1.848zm10.015 2.96h-5.445a3.807 3.807 0 0 0 .316 1.612 2.619 2.619 0 0 0 2.457 1.6 3.427 3.427 0 0 0 2.414-.967l.115.073-.057.835-.072.147a4.3 4.3 0 0 1-2.471.718c-2.342 0-3.606-1.685-3.606-3.9 0-2.3 1.25-3.942 3.376-3.942a2.767 2.767 0 0 1 2.385 1.114 4.283 4.283 0 0 1 .675 2.623zm-.862-.752a2.739 2.739 0 0 0-.374-1.422 1.926 1.926 0 0 0-1.767-.938 2.243 2.243 0 0 0-1.738.762 3.154 3.154 0 0 0-.647 1.6h4.526zm7.098 3.873a3.012 3.012 0 0 1-2.159.836c-2.069 0-3.233-1.744-3.233-3.737a4 4 0 0 1 1.111-2.872 4.974 4.974 0 0 1 3.549-1.07c.187 0 .374 0 .647.015a32.048 32.048 0 0 0-.129-3.825l.1-.088c.359-.059.431-.073.876-.176l.086.088c-.014 1.334-.029 2.653-.029 3.972 0 2.506 0 5.159.115 7.518l-.086.073a6.584 6.584 0 0 0-.761.029l-.086-.088v-.675zm-.014-1.348c-.014-1.3-.057-3.4-.057-4.719-.244-.015-.4-.029-.761-.029a5.021 5.021 0 0 0-2.04.337 2.9 2.9 0 0 0-1.58 2.8c0 1.656.862 2.99 2.457 2.99a2.579 2.579 0 0 0 1.983-.894v-.485zm9.928.675l-.086.865-.115.176a3.643 3.643 0 0 1-1.983.542c-1.724 0-3.419-1.114-3.419-3.84 0-2.242 1.221-4.016 3.592-4.016a3.19 3.19 0 0 1 1.825.5l.072.132-.1.821-.129.059a2.367 2.367 0 0 0-1.724-.7 2.579 2.579 0 0 0-1.724.674 3.372 3.372 0 0 0-.905 2.521c0 2.242 1.379 3.063 2.557 3.063a2.776 2.776 0 0 0 2-.85zm1.15-5.687l.072-.1a5.088 5.088 0 0 1 2.126-.484 2.355 2.355 0 0 1 1.911.689c.417.469.417.791.417 2.228v.909a35.873 35.873 0 0 0 .086 3.752l-.086.1-.761.044-.1-.088-.014-.513a3.322 3.322 0 0 1-2.04.733 2.281 2.281 0 0 1-2.442-2.389 2.382 2.382 0 0 1 .747-1.773 4.877 4.877 0 0 1 2.471-.894l1.264-.19v-.192a2.954 2.954 0 0 0-.129-.967 1.4 1.4 0 0 0-1.408-.674 3.739 3.739 0 0 0-2.04.557l-.117-.061zm2.877 2.873a4.931 4.931 0 0 0-2.126.674 1.627 1.627 0 0 0 1.02 2.946 2.61 2.61 0 0 0 1.882-.791v-2.947zm6.261-2.404l-.115.088a1.092 1.092 0 0 0-.6-.191 1.231 1.231 0 0 0-.891.381c-.488.5-.575 1.26-.575 2.682 0 1.084.057 2.535.086 3.576l-.086.088-.862.015-.086-.088c.029-.982.043-1.48.043-2.492 0-1.583 0-3.312-.129-4.778l.086-.088.848-.132.086.088-.018 1.159a2.606 2.606 0 0 1 .273-.572 1.644 1.644 0 0 1 1.307-.762 1.725 1.725 0 0 1 .647.146l.1.1zm6.954 2.77H57.87a3.806 3.806 0 0 0 .316 1.612 2.619 2.619 0 0 0 2.457 1.6 3.426 3.426 0 0 0 2.414-.967l.115.073-.057.835-.072.147a4.3 4.3 0 0 1-2.471.718c-2.342 0-3.606-1.685-3.606-3.9 0-2.3 1.25-3.942 3.376-3.942a2.767 2.767 0 0 1 2.385 1.114 4.283 4.283 0 0 1 .675 2.623zm-.862-.752a2.739 2.739 0 0 0-.374-1.422 1.925 1.925 0 0 0-1.767-.938 2.243 2.243 0 0 0-1.739.762 3.155 3.155 0 0 0-.647 1.6h4.526z"/><circle id="_Path_" data-name="&lt;Path&gt;" class="cls-2" cx="29.189" cy="14.334" r="7.834"/><path id="_Path_2" data-name="&lt;Path&gt;" class="cls-2" d="M14.75 24.884a4.269 4.269 0 0 1 3.866-5.678 3.8 3.8 0 0 1 4.144 2.642 24.127 24.127 0 0 0 22.106 14.259 24.247 24.247 0 0 0 10.057-2.178 24.33 24.33 0 0 1-40.173-9.045z"/><path class="cls-3" d="M45.811 6.5a7.834 7.834 0 1 0 7.833 7.834A7.833 7.833 0 0 0 45.811 6.5"/><path class="cls-3" d="M55.033 19.9a4.744 4.744 0 0 0-3.867 2.089 11.928 11.928 0 0 1-1.192 1.425c-2.816 2.938-7.223 3.7-11.055 3.7a33.949 33.949 0 0 1-7.669-.911A20.1 20.1 0 0 0 45.591 32.3a20.973 20.973 0 0 0 11.433-3.293 5.717 5.717 0 0 0 2.412-5.43 4.331 4.331 0 0 0-3.8-3.635 5.035 5.035 0 0 0-.6-.036"/><path class="cls-2" d="M15.376 49.2a3.294 3.294 0 0 0-1.281-.288 2.389 2.389 0 0 0-1.345.416c-1.313.929-1.313 2.338-1.313 5.669 0 3.618.1 5.508.224 7.3l-.16.224c-1.506 0-1.857.031-3.4.1l-.16-.193c.032-2.433.064-4.644.064-7.622a68.839 68.839 0 0 0-.288-8.294l.192-.223c1.217-.225 1.986-.384 3.331-.641l.192.193-.16 2.722a3.988 3.988 0 0 1 3.907-3.074 3.289 3.289 0 0 1 .9.1l.128.192c-.32 1.538-.384 1.857-.608 3.266zm14.985 9.576c-.16 1.281-.192 1.6-.256 2.85l-.192.224a10.461 10.461 0 0 1-5.124 1.217c-5.252 0-8.551-3.011-8.551-8.583 0-5.956 3.587-8.871 7.782-8.871a6.686 6.686 0 0 1 5.252 2.209C31.1 50 31.033 53.172 31 54.581l-.224.193c-5-.032-5.861-.032-11.112 0a6.238 6.238 0 0 0 1.217 4 5.2 5.2 0 0 0 4.131 1.729 8.352 8.352 0 0 0 2.786-.481 8.043 8.043 0 0 0 2.302-1.406zm-2.978-8.358a3.58 3.58 0 0 0-3.491-2.5c-1.793 0-3.907 1.217-4.227 4.419 3.875.032 5.092 0 8.038-.031a6.982 6.982 0 0 0-.32-1.888zm9.288 8.358C37.5 59 41.6 59.993 42.5 60.281s3.907 1.217 3.907 4.708c0 2.754-2.338 5.7-7.462 5.7-4.771 0-7.238-2.306-7.238-5.028 0-2.338 1.6-3.651 2.85-4.644-.672-.288-.9-.384-1.5-.672l-.064-.384a94.658 94.658 0 0 0 2.177-3.267 4.974 4.974 0 0 1-3.074-4.8 6.194 6.194 0 0 1 .673-2.85c1.537-2.947 4.739-3.107 6.5-3.107.513 0 1.153.032 1.794.032l.796.031c1.825.031 2.53.031 4.836 0l.16.192c-.1 1.088-.1 1.088-.16 2.114l-.195.194-2.69-.192a4.591 4.591 0 0 1 1.505 3.586c0 2.978-2.274 5.54-6.277 5.54a9.882 9.882 0 0 1-1.409-.1zm.1 3.106c-1.121 1.122-1.89 2.05-1.89 3.491 0 1.185.961 3.171 4.227 3.171 2.626 0 3.875-1.41 3.875-2.914 0-2.114-1.889-2.595-3.907-3.139zm2.017-13.77a3.35 3.35 0 0 0-3.394 3.651 3.258 3.258 0 0 0 3.394 3.555c2.627 0 3.3-2.05 3.267-3.555-.036-1.73-.868-3.651-3.27-3.651zm13.738 14.54c-1.665.032-1.922.032-3.491.128l-.16-.224c.1-1.7.192-3.171.192-6.725a66.344 66.344 0 0 0-.321-9.16l.16-.223c1.377-.225 1.857-.288 3.459-.641l.321.193c-.1 1.665-.192 3.394-.192 7.525 0 5.956.064 6.757.192 8.935zm9.556-9.703c1.281.416 4.2 1.409 4.2 4.8a4.775 4.775 0 0 1-1.794 3.779 7.9 7.9 0 0 1-5.124 1.537 11.8 11.8 0 0 1-4.387-.8l-.48-.193-.16-.288c.128-1.249.128-1.409.192-2.69l.321-.1a6.842 6.842 0 0 0 4.45 1.544c2.53 0 3.459-1.409 3.459-2.4 0-1.474-1.377-1.954-3.331-2.594L58.4 55.19c-1.313-.417-4.2-1.346-4.2-4.644s2.882-4.932 6.469-4.932a12.246 12.246 0 0 1 4.612.9l.16.225c-.128 1.185-.16 1.313-.256 2.53l-.288.128a7.106 7.106 0 0 0-4.131-1.281 5.216 5.216 0 0 0-1.377.16 2.1 2.1 0 0 0-1.762 1.921c0 1.377 1.313 1.793 3.3 2.4z"/><path class="cls-1" d="M49.281 68.45h16.996v.179H49.281zm-41.558 0h20.211v.179H7.723z"/></svg>