<svg xmlns="http://www.w3.org/2000/svg" viewBox="0 0 360 91.207">
  <title>Asset 1</title>
  <g id="e87d4e10-f8de-4657-8029-675c21447c6b" data-name="Layer 2">
    <g id="2f4d6f70-ac0e-4a2f-880d-da08ecbed8d7" data-name="Layer 1">
      <g>
        <path d="M360,64.478a8.667,8.667,0,1,0-10.1,8.539V81.1H68.95V62.867a20.657,20.657,0,0,0,13.815,4.928c13.571,0,23.05-10.749,23.05-26.139,0-15.333-9.479-26.042-23.05-26.042A20.508,20.508,0,0,0,68.95,20.578V16.671H55.483V81.1H17.214a8.672,8.672,0,1,0,0,2.876H352.773V73.016A8.662,8.662,0,0,0,360,64.478ZM80.56,28.109c8.234,0,11.169,7.045,11.169,13.637,0,6.55-2.934,13.549-11.169,13.549-8.569,0-11.61-7.3-11.61-13.549C68.95,35.455,71.991,28.109,80.56,28.109ZM8.672,88.638a6.1,6.1,0,1,1,6.1-6.1A6.109,6.109,0,0,1,8.672,88.638Z" style="fill: #fff"/>
        <path d="M17.845,67.795a20.094,20.094,0,0,0,13.286-4.908v3.849H44.6V16.671H31.131V44.478c0,6.268-4.267,10.645-10.376,10.645-5.04,0-7.288-2.657-7.288-8.614V16.671H0V48.71C0,60.482,6.838,67.795,17.845,67.795Z" style="fill: #fff"/>
        <path d="M134.014,67.795a20.308,20.308,0,0,0,13.726-4.923v3.865H161.3V0H147.74V20.534a20.311,20.311,0,0,0-13.726-4.919c-13.623,0-23.138,10.746-23.138,26.132C110.876,57.084,120.391,67.795,134.014,67.795Zm2.116-39.686c8.569,0,11.61,7.346,11.61,13.637,0,6.55-3.05,13.549-11.61,13.549-10.363,0-11.169-10.37-11.169-13.549C124.962,35.155,127.9,28.109,136.13,28.109Z" style="fill: #fff"/>
        <path d="M188.583,35.639c-6.412.713-19.756,2.2-19.756,15.984,0,9.975,6.8,16.171,17.758,16.171,3.477,0,9.947-.719,14.8-5.457,1.872,3.251,5.444,5.1,9.9,5.1a17.235,17.235,0,0,0,6.838-1.34l1.236-.615L217.6,54.417l-2.475,1.756a3.281,3.281,0,0,1-1.467.27c-.889,0-1.381,0-1.381-2.35V33.018c0-11.223-7.277-17.4-20.491-17.4a35.443,35.443,0,0,0-20.073,5.944l-1.45.937,5.7,10.744,1.752-1.247a23.909,23.909,0,0,1,13.37-4.327c1.772,0,7.552.291,7.552,4.028C198.637,34.166,196.126,34.847,188.583,35.639Zm10.142,8.522V47.3c0,8.482-7.469,9.142-9.759,9.142-4.368,0-6.582-1.681-6.582-5,0-3.089,1.694-4.351,6.972-5.2.757-.123,1.5-.227,2.2-.327A23.06,23.06,0,0,0,198.725,44.161Z" style="fill: #fff"/>
        <path d="M227.043,50.3c0,4.945.725,8.047,2.495,10.7,2.837,4.506,7.586,6.791,14.117,6.791a19.613,19.613,0,0,0,12.163-3.826l1.283-.975-5.712-10.638-1.766,1.414a7.348,7.348,0,0,1-4.644,1.613c-3.07,0-4.38-1.493-4.38-4.993V27.932h14.288V16.671H240.6V4.235H227.043V16.671h-7.759V27.932h7.759Z" style="fill: #fff"/>
        <path d="M285.464,67.795a28.444,28.444,0,0,0,21.476-8.97l1.29-1.362-9.086-8.7-1.3,1.4a15.823,15.823,0,0,1-12.024,5.216c-6.779,0-11.057-3.325-12.1-9.375H308.58l.188-1.677a32.9,32.9,0,0,0,.186-3.552c0-15.053-9.828-25.165-24.458-25.165-14.818,0-25.167,10.818-25.167,26.308C259.33,57.639,269.588,67.795,285.464,67.795Zm-.881-40.567c5.5,0,9.3,2.893,10.492,7.96H273.989C275.164,30.264,279.183,27.227,284.583,27.227Z" style="fill: #fff"/>
        <path d="M330.13,41.3c0-8.274,4.784-12.044,9.229-12.044a9.039,9.039,0,0,1,4.408,1.189l2.034,1.078,3.871-13.06-1.151-.772a13.525,13.525,0,0,0-7.221-1.91,16.134,16.134,0,0,0-11.17,4.936V16.671H316.66V66.737h13.47Z" style="fill: #fff"/>
      </g>
    </g>
  </g>
</svg>
