<svg width="302" height="50" viewBox="0 0 302 50" fill="none" xmlns="http://www.w3.org/2000/svg">
<rect width="301.68" height="48.17" fill="black" fill-opacity="0" transform="translate(0.16 0.919986)"/>
<path d="M173.1 26.21C173.047 26.2076 172.995 26.1943 172.947 26.1711C172.899 26.1478 172.857 26.115 172.822 26.0748C172.788 26.0345 172.762 25.9876 172.746 25.9369C172.73 25.8862 172.724 25.8328 172.73 25.78V10.71C172.73 9.04 172.83 7.14 172.93 5.94H172.86L167 25.81C166.975 25.9238 166.912 26.0255 166.821 26.0982C166.73 26.171 166.616 26.2105 166.5 26.21H163.5C163.389 26.2189 163.28 26.1858 163.192 26.1172C163.105 26.0485 163.047 25.9496 163.03 25.84L157.43 5.94V6.87C157.5 8.14 157.63 9.6 157.63 11.24V25.77C157.636 25.8253 157.63 25.8812 157.612 25.934C157.594 25.9867 157.566 26.0351 157.528 26.0758C157.49 26.1165 157.444 26.1487 157.392 26.1701C157.341 26.1915 157.286 26.2017 157.23 26.2H154.46C154.405 26.1987 154.351 26.1865 154.301 26.1641C154.252 26.1416 154.207 26.1094 154.169 26.0694C154.132 26.0293 154.103 25.9822 154.084 25.9307C154.066 25.8793 154.057 25.8247 154.06 25.77V2.31C154.054 2.24546 154.062 2.18046 154.084 2.11925C154.105 2.05804 154.139 2.00199 154.183 1.95479C154.227 1.90759 154.281 1.87029 154.341 1.84534C154.401 1.82039 154.465 1.80834 154.53 1.81H159.2C159.313 1.80427 159.425 1.83802 159.516 1.90549C159.607 1.97297 159.672 2.06999 159.7 2.18L163.47 14.81C164.23 17.3684 164.822 19.974 165.24 22.61C165.619 19.9543 166.207 17.3328 167 14.77C168.17 11 169.3 7.24 170.5 3.47C170.63 3.04 170.8 2.57 170.93 2.1C171.06 1.63 172.1 1.8 172.73 1.8H175.83C175.89 1.79096 175.952 1.79551 176.01 1.81333C176.069 1.83114 176.122 1.86177 176.167 1.90298C176.213 1.94418 176.248 1.99493 176.271 2.0515C176.294 2.10808 176.304 2.16906 176.3 2.23V25.77C176.3 26.07 176.13 26.2 175.93 26.2L173.1 26.21ZM181.71 26.21C181.653 26.2114 181.597 26.2012 181.544 26.1801C181.491 26.1589 181.443 26.1273 181.403 26.0871C181.363 26.0469 181.331 25.999 181.31 25.9462C181.289 25.8934 181.279 25.8368 181.28 25.78V2.24C181.279 2.18316 181.289 2.12663 181.31 2.07384C181.331 2.02105 181.363 1.9731 181.403 1.93289C181.443 1.89269 181.491 1.86106 181.544 1.83994C181.597 1.81882 181.653 1.80863 181.71 1.81H184.81C184.868 1.80549 184.926 1.81352 184.98 1.83353C185.034 1.85355 185.083 1.88507 185.124 1.92594C185.165 1.9668 185.196 2.01604 185.216 2.07026C185.236 2.12447 185.245 2.18238 185.24 2.24V25.77C185.245 25.8276 185.236 25.8855 185.216 25.9397C185.196 25.994 185.165 26.0432 185.124 26.0841C185.083 26.1249 185.034 26.1565 184.98 26.1765C184.926 26.1965 184.868 26.2045 184.81 26.2L181.71 26.21ZM203.74 26.21C203.609 26.2063 203.481 26.1633 203.374 26.0867C203.267 26.0101 203.186 25.9033 203.14 25.78L196.84 13.11C195.64 10.68 194.74 8.44 193.74 6.04H193.64C193.84 8.14 193.97 10.24 193.97 12.51V25.77C193.968 25.8784 193.926 25.9822 193.852 26.0615C193.778 26.1409 193.678 26.1902 193.57 26.2H190.57C190.515 26.1987 190.461 26.1865 190.411 26.1641C190.362 26.1416 190.317 26.1094 190.279 26.0694C190.242 26.0293 190.213 25.9822 190.194 25.9307C190.176 25.8793 190.167 25.8247 190.17 25.77V2.34C190.17 2.07 190.24 1.81 190.64 1.81H195.17C195.47 1.81 195.57 1.98 195.67 2.18L201.67 14.55C202.906 16.9573 203.975 19.4465 204.87 22H204.97C204.77 19.8 204.64 16.93 204.64 14.8V2.21C204.647 2.10622 204.691 2.00851 204.765 1.93496C204.839 1.86142 204.936 1.81702 205.04 1.81H208.04C208.144 1.81702 208.241 1.86142 208.315 1.93496C208.389 2.00851 208.433 2.10622 208.44 2.21V25.77C208.44 26.04 208.31 26.2 207.97 26.2L203.74 26.21ZM213.17 26.21V1.81H226.27C226.57 1.81 226.67 2.08 226.67 2.31V4.87C226.676 4.92533 226.67 4.98124 226.652 5.03399C226.634 5.08673 226.606 5.13509 226.568 5.17582C226.53 5.21654 226.484 5.2487 226.432 5.27011C226.381 5.29153 226.326 5.30172 226.27 5.3H217.14V12.1H225.44C225.496 12.0983 225.551 12.1085 225.602 12.1299C225.654 12.1513 225.7 12.1835 225.738 12.2242C225.776 12.2649 225.804 12.3133 225.822 12.366C225.84 12.4188 225.846 12.4747 225.84 12.53V15.06C225.843 15.1147 225.834 15.1693 225.816 15.2207C225.797 15.2722 225.768 15.3193 225.731 15.3594C225.693 15.3994 225.648 15.4316 225.599 15.4541C225.549 15.4765 225.495 15.4887 225.44 15.49H217.14V22.69H226.27C226.331 22.6863 226.392 22.6964 226.449 22.7193C226.505 22.7422 226.556 22.7775 226.597 22.8225C226.638 22.8676 226.669 22.9212 226.687 22.9796C226.704 23.038 226.709 23.0996 226.7 23.16V25.76C226.706 25.8153 226.7 25.8712 226.682 25.924C226.664 25.9767 226.636 26.0251 226.598 26.0658C226.56 26.1065 226.514 26.1387 226.462 26.1601C226.411 26.1815 226.356 26.1917 226.3 26.19L213.17 26.21ZM243.14 26.21C243.032 26.2206 242.922 26.1974 242.828 26.1437C242.733 26.09 242.657 26.0084 242.61 25.91L238.21 17.14H234.58V25.77C234.584 25.825 234.577 25.8803 234.559 25.9323C234.54 25.9843 234.512 26.0321 234.474 26.0724C234.436 26.1128 234.391 26.145 234.34 26.167C234.29 26.1889 234.235 26.2002 234.18 26.2H231C230.943 26.2014 230.887 26.1912 230.834 26.1701C230.781 26.1489 230.733 26.1173 230.693 26.0771C230.653 26.0369 230.621 25.989 230.6 25.9362C230.579 25.8834 230.569 25.8268 230.57 25.77V1.77H238.77C244.14 1.77 246.34 4.57 246.34 8.64V10.21C246.34 13.14 245.21 15.41 242.21 16.58L247.08 25.75C247.109 25.7948 247.125 25.8469 247.125 25.9002C247.125 25.9536 247.11 26.0059 247.082 26.0511C247.054 26.0963 247.013 26.1324 246.965 26.1552C246.917 26.1781 246.863 26.1867 246.81 26.18L243.14 26.21ZM242.37 9C242.37 6.4 241.24 5.23 238.2 5.23H234.57V13.66H238.27C241.27 13.66 242.37 12.33 242.37 9.83V9ZM264.24 26.21C264.11 26.2087 263.985 26.1604 263.887 26.074C263.79 25.9877 263.727 25.8691 263.71 25.74L261.91 19.57H253.91L252.04 25.74C251.91 26.14 251.74 26.21 251.44 26.21H248.54C248.27 26.21 248.17 25.98 248.27 25.71L255.74 2.28C255.87 1.91 256.07 1.71 256.41 1.71H259.78C259.943 1.70376 260.102 1.75888 260.226 1.86445C260.35 1.97001 260.43 2.11831 260.45 2.28L267.75 25.71C267.775 25.7621 267.786 25.8196 267.784 25.8772C267.781 25.9349 267.764 25.9909 267.734 26.0404C267.704 26.0899 267.663 26.1313 267.613 26.1609C267.564 26.1905 267.508 26.2074 267.45 26.21H264.24ZM258.07 6.11L254.94 16.31H261L258.07 6.11ZM270.41 26.21V2.21C270.411 2.15528 270.423 2.10137 270.446 2.05144C270.468 2.00152 270.501 1.95659 270.541 1.91931C270.581 1.88203 270.628 1.85315 270.679 1.83438C270.731 1.8156 270.785 1.80732 270.84 1.81H274C274.053 1.80711 274.107 1.81548 274.156 1.83456C274.206 1.85364 274.252 1.88301 274.289 1.92074C274.327 1.95848 274.356 2.00374 274.375 2.05358C274.395 2.10341 274.403 2.15671 274.4 2.21V22.71H284.27C284.57 22.71 284.67 22.91 284.67 23.21V25.78C284.676 25.8353 284.67 25.8912 284.652 25.944C284.634 25.9967 284.606 26.0451 284.568 26.0858C284.53 26.1265 284.484 26.1587 284.432 26.1801C284.381 26.2015 284.326 26.2117 284.27 26.21H270.41ZM288.5 19.64C288.87 19.51 289.13 19.54 289.27 20.07C289.74 21.97 291.17 23.2 293.87 23.2C295.74 23.2 297.8 22.27 297.8 19.93C297.8 17.8 296.47 16.93 293.17 15.4C288.8 13.4 286.34 11.8 286.34 7.87C286.34 3.94 289.57 1.47 293.71 1.47C298.31 1.47 300.61 3.8 301.51 6.47C301.543 6.54144 301.56 6.61953 301.559 6.69836C301.557 6.7772 301.538 6.85471 301.503 6.92503C301.467 6.99536 301.416 7.05665 301.353 7.10429C301.29 7.15193 301.217 7.18466 301.14 7.2L298.74 8.07C298.674 8.10593 298.6 8.12576 298.525 8.12789C298.449 8.13002 298.375 8.11439 298.306 8.08226C298.238 8.05012 298.179 8.0024 298.132 7.94294C298.086 7.88348 298.054 7.81396 298.04 7.74C297.744 6.8578 297.165 6.09808 296.393 5.57903C295.621 5.05999 294.699 4.81072 293.77 4.87C291.44 4.87 290.24 5.97 290.24 7.87C290.24 9.77 292.07 10.6 295.61 12.27C299.48 14.04 301.81 15.8 301.84 19.74C301.87 23.68 298.67 26.61 293.84 26.61C289.01 26.61 286.51 24.01 285.74 21.18C285.714 21.1079 285.702 21.0312 285.707 20.9546C285.712 20.878 285.732 20.8031 285.766 20.7347C285.801 20.6662 285.85 20.6056 285.909 20.5566C285.968 20.5077 286.036 20.4714 286.11 20.45L288.5 19.64Z" fill="#455465"/>
<path d="M153.65 48.44V33.57C153.65 33.5354 153.657 33.5012 153.671 33.4695C153.685 33.4378 153.705 33.4093 153.73 33.3858C153.756 33.3623 153.785 33.3443 153.818 33.333C153.851 33.3216 153.886 33.3172 153.92 33.32H155.86C155.893 33.3186 155.926 33.3241 155.957 33.3361C155.988 33.3482 156.016 33.3666 156.04 33.3901C156.063 33.4136 156.082 33.4417 156.094 33.4727C156.106 33.5037 156.111 33.5368 156.11 33.57V46.27H162.22C162.41 46.27 162.47 46.39 162.47 46.58V48.17C162.474 48.2048 162.471 48.2402 162.46 48.2736C162.45 48.307 162.432 48.3376 162.408 48.3634C162.384 48.3891 162.355 48.4093 162.323 48.4225C162.29 48.4358 162.255 48.4417 162.22 48.44H153.65ZM170.81 48.44C170.774 48.4414 170.738 48.4354 170.705 48.4223C170.672 48.4092 170.641 48.3894 170.616 48.364C170.591 48.3387 170.571 48.3084 170.558 48.275C170.545 48.2416 170.539 48.2058 170.54 48.17V33.59C170.539 33.5542 170.545 33.5184 170.558 33.485C170.571 33.4516 170.591 33.4213 170.616 33.396C170.641 33.3706 170.672 33.3508 170.705 33.3377C170.738 33.3246 170.774 33.3186 170.81 33.32H172.73C172.766 33.317 172.803 33.3219 172.837 33.3344C172.871 33.3469 172.902 33.3666 172.928 33.3924C172.953 33.4181 172.973 33.4491 172.986 33.4832C172.998 33.5173 173.003 33.5538 173 33.59V48.18C173.003 48.2162 172.998 48.2527 172.986 48.2868C172.973 48.3209 172.953 48.3519 172.928 48.3777C172.902 48.4034 172.871 48.4231 172.837 48.4356C172.803 48.4481 172.766 48.453 172.73 48.45L170.81 48.44ZM194.27 48.44C194.237 48.4389 194.204 48.4308 194.174 48.4163C194.144 48.4018 194.117 48.3812 194.095 48.3558C194.074 48.3304 194.058 48.3007 194.048 48.2687C194.039 48.2367 194.036 48.2031 194.04 48.17V38.84C194.04 37.84 194.1 36.63 194.16 35.84L190.49 48.2C190.476 48.2714 190.437 48.3357 190.38 48.3814C190.324 48.4271 190.253 48.4514 190.18 48.45H188.3C188.231 48.4558 188.163 48.4353 188.109 48.3925C188.055 48.3498 188.02 48.2881 188.01 48.22L184.54 35.89V36.47C184.54 37.26 184.66 38.16 184.66 39.18V48.18C184.664 48.2148 184.661 48.2501 184.65 48.2836C184.64 48.317 184.622 48.3476 184.598 48.3734C184.574 48.3991 184.545 48.4193 184.513 48.4325C184.48 48.4458 184.445 48.4517 184.41 48.45H182.7C182.666 48.4487 182.632 48.4407 182.601 48.4264C182.57 48.4122 182.542 48.3919 182.519 48.3668C182.496 48.3418 182.478 48.3123 182.466 48.2803C182.454 48.2482 182.449 48.2142 182.45 48.18V33.64C182.447 33.6003 182.453 33.5604 182.466 33.5229C182.479 33.4853 182.5 33.451 182.528 33.4219C182.555 33.3928 182.588 33.3696 182.624 33.3538C182.661 33.338 182.7 33.3299 182.74 33.33H185.63C185.7 33.3257 185.77 33.3465 185.827 33.3885C185.884 33.4306 185.924 33.4913 185.94 33.56L188.27 41.39C188.739 42.9743 189.103 44.5878 189.36 46.22C189.611 44.5758 189.993 42.954 190.5 41.37C191.22 39.04 191.92 36.7 192.67 34.37C192.75 34.1 192.86 33.81 192.94 33.52C193.02 33.23 193.66 33.33 194.05 33.33H196C196.037 33.3256 196.075 33.3294 196.111 33.3411C196.147 33.3529 196.18 33.3723 196.207 33.3979C196.235 33.4236 196.257 33.455 196.271 33.4899C196.285 33.5248 196.292 33.5623 196.29 33.6V48.18C196.29 48.37 196.19 48.45 196.06 48.45L194.27 48.44ZM206 48.44C205.964 48.4414 205.928 48.4354 205.895 48.4223C205.862 48.4092 205.831 48.3894 205.806 48.364C205.781 48.3387 205.761 48.3084 205.748 48.275C205.735 48.2416 205.729 48.2058 205.73 48.17V33.59C205.729 33.5542 205.735 33.5184 205.748 33.485C205.761 33.4516 205.781 33.4213 205.806 33.396C205.831 33.3706 205.862 33.3508 205.895 33.3377C205.928 33.3246 205.964 33.3186 206 33.32H207.92C207.956 33.317 207.993 33.3219 208.027 33.3344C208.061 33.3469 208.092 33.3666 208.118 33.3924C208.143 33.4181 208.163 33.4491 208.176 33.4832C208.188 33.5173 208.193 33.5538 208.19 33.59V48.18C208.193 48.2162 208.188 48.2527 208.176 48.2868C208.163 48.3209 208.143 48.3519 208.118 48.3777C208.092 48.4034 208.061 48.4231 208.027 48.4356C207.993 48.4481 207.956 48.453 207.92 48.45L206 48.44ZM220.63 48.44C220.596 48.4387 220.562 48.4307 220.531 48.4164C220.5 48.4022 220.472 48.3819 220.449 48.3568C220.426 48.3318 220.408 48.3023 220.396 48.2703C220.384 48.2382 220.379 48.2041 220.38 48.17V35.47H216.31C216.275 35.4717 216.24 35.4658 216.207 35.4525C216.175 35.4393 216.146 35.4191 216.122 35.3934C216.098 35.3676 216.08 35.337 216.07 35.3036C216.059 35.2701 216.056 35.2348 216.06 35.2V33.62C216.056 33.5843 216.059 33.548 216.07 33.5136C216.08 33.4792 216.098 33.4474 216.121 33.4201C216.145 33.3928 216.174 33.3708 216.206 33.3553C216.239 33.3397 216.274 33.3311 216.31 33.33H227C227.035 33.3325 227.07 33.3421 227.102 33.358C227.134 33.374 227.162 33.3961 227.185 33.423C227.209 33.45 227.226 33.4812 227.237 33.5151C227.248 33.5489 227.253 33.5845 227.25 33.62V35.21C227.253 35.2445 227.248 35.2791 227.237 35.3118C227.226 35.3445 227.208 35.3745 227.184 35.3999C227.161 35.4252 227.132 35.4455 227.101 35.4593C227.069 35.473 227.035 35.4801 227 35.48H222.91V48.18C222.911 48.2158 222.905 48.2516 222.892 48.285C222.879 48.3184 222.859 48.3487 222.834 48.374C222.809 48.3994 222.778 48.4192 222.745 48.4323C222.712 48.4454 222.676 48.4514 222.64 48.45L220.63 48.44ZM235 48.44V33.33H243.12C243.31 33.33 243.37 33.49 243.37 33.64V35.23C243.374 35.2648 243.371 35.3001 243.36 35.3336C243.35 35.367 243.332 35.3976 243.308 35.4234C243.284 35.4491 243.255 35.4693 243.223 35.4825C243.19 35.4958 243.155 35.5017 243.12 35.5H237.46V39.71H242.6C242.635 39.7083 242.67 39.7142 242.703 39.7275C242.735 39.7407 242.764 39.7609 242.788 39.7866C242.812 39.8124 242.83 39.843 242.84 39.8764C242.851 39.9099 242.854 39.9452 242.85 39.98V41.55C242.853 41.5845 242.848 41.6191 242.837 41.6518C242.826 41.6845 242.808 41.7145 242.784 41.7399C242.761 41.7652 242.732 41.7855 242.701 41.7993C242.669 41.813 242.635 41.8201 242.6 41.82H237.46V46.28H243.12C243.158 46.2764 243.197 46.2816 243.232 46.2953C243.268 46.3089 243.3 46.3305 243.326 46.3585C243.352 46.3866 243.372 46.4202 243.383 46.4569C243.394 46.4935 243.396 46.5322 243.39 46.57V48.18C243.394 48.2148 243.391 48.2501 243.38 48.2836C243.37 48.317 243.352 48.3476 243.328 48.3734C243.304 48.3991 243.275 48.4193 243.243 48.4325C243.21 48.4458 243.175 48.4517 243.14 48.45L235 48.44ZM252.16 48.44V33.33H257.45C261.02 33.33 262.74 35.52 262.74 38.33V43.51C262.74 46.3 261.01 48.4 257.45 48.4L252.16 48.44ZM260.26 38.69C260.26 36.69 259.39 35.49 257.06 35.49H254.62V46.28H257.06C259.39 46.28 260.26 45.12 260.26 43.16V38.69Z" fill="#BC6228"/>
<path d="M59.19 48.33V1.67H76.72C85.77 1.67 90.72 6.32 90.72 13.21V14.21C90.8006 16.3323 90.2034 18.4251 89.015 20.1853C87.8266 21.9455 86.1086 23.2816 84.11 24C88.89 24.89 92.11 28.91 92.11 34.58V35.41C92.11 42.93 86.5 48.28 76.62 48.28L59.19 48.33ZM81.75 14.74C81.75 10.6 78.88 9.45 73.85 9.45H68.37V20.73H74.42C79.71 20.73 81.75 18.56 81.75 15.44V14.74ZM74.36 40.24C80.22 40.24 82.96 38.84 82.96 34.12C82.9 29.59 80.09 28.06 75.57 28.06H68.37V40.23L74.36 40.24ZM127.18 36.22C128.26 36.6 128.07 37.43 127.69 38.64C126.22 43.1 121.32 49.09 112.2 49.09C100.6 49.09 94.93 43.09 94.93 32.45V18C94.93 8.12 100.47 0.92 112.33 0.92C122.08 0.91 126.48 6.2 128 12C128.26 13 128.06 13.72 127.17 14L121.75 15.66C121.551 15.7643 121.33 15.8181 121.105 15.8168C120.881 15.8155 120.66 15.759 120.463 15.6523C120.265 15.5456 120.097 15.392 119.972 15.2051C119.848 15.0181 119.772 14.8034 119.75 14.58C118.86 11.2 116.75 8.91 112.17 8.91C106.82 8.91 104.08 12.8 104.08 18.85V31.25C104.08 37.31 106.95 41 112.24 41C116.76 41 118.8 38.51 119.76 35.07C119.81 34.8628 119.904 34.6689 120.036 34.502C120.169 34.3351 120.336 34.1992 120.527 34.1039C120.718 34.0086 120.927 33.9562 121.14 33.9504C121.353 33.9445 121.564 33.9853 121.76 34.07L127.18 36.22ZM131.72 48.33C131.607 48.3261 131.496 48.3 131.393 48.2532C131.29 48.2064 131.198 48.1397 131.121 48.057C131.043 47.9744 130.983 47.8773 130.944 47.7715C130.904 47.6656 130.886 47.553 130.89 47.44V2.56C130.886 2.44705 130.904 2.33441 130.944 2.22853C130.983 2.12265 131.043 2.02561 131.121 1.94295C131.198 1.8603 131.29 1.79364 131.393 1.74681C131.496 1.69997 131.607 1.67387 131.72 1.67H139.18C139.298 1.66726 139.415 1.68841 139.524 1.73217C139.633 1.77593 139.732 1.84139 139.815 1.92458C139.899 2.00778 139.964 2.10698 140.008 2.2162C140.052 2.32542 140.073 2.44238 140.07 2.56V47.44C140.077 47.5588 140.059 47.6778 140.017 47.789C139.975 47.9003 139.91 48.0014 139.826 48.0856C139.741 48.1697 139.64 48.235 139.529 48.2772C139.418 48.3193 139.299 48.3373 139.18 48.33H131.72Z" fill="#455465"/>
<path d="M40.77 28.59C42.589 28.0157 44.4747 27.6796 46.38 27.59V47.93H0.16V30.31H0.25C1.92 29.96 3.1 28.84 4.85 28.56C6.23881 28.2356 7.56824 27.6957 8.79 26.96C12.79 25.1 13.01 30.07 16.4 30.54C18.03 30.76 19.73 29.54 20.79 28.43C22.34 26.84 23.02 24.28 25.88 25.78C27.49 26.63 28.39 28.51 29.55 29.78C30.71 31.05 32.55 32.63 34.64 32.05C36.89 31.42 38.57 29.33 40.77 28.56" fill="#BC6228"/>
<path d="M46.38 16.47V26.28C44.7518 26.394 43.1321 26.6077 41.53 26.92C39.05 27.4 37.35 29.2 35.11 30.22C30.89 32.12 29.39 25.45 25.9 24.17C23.63 23.34 21.9 24.41 20.5 26.17C19.81 27.03 19.18 28.28 18.06 28.66C16.45 29.22 14.87 27.97 13.82 26.84C12.77 25.71 11.94 24.7 10.52 24.53C10.0863 24.4747 9.64566 24.519 9.23156 24.6593C8.81746 24.7996 8.44075 25.0324 8.13 25.34C7.43 25.96 7.22 26.5 6.26 26.83C5.38493 27.0066 4.49998 27.1302 3.61 27.2C2.43478 27.5866 1.28287 28.0406 0.16 28.56V20.34C2.40294 20.5011 4.645 20.0152 6.62 18.94C8.62 17.94 10.2 16.22 12.23 15.28C14.54 14.22 16.61 15.1 18.67 16.28C21.32 17.76 23.67 19.18 26.77 18.56C28.91 18.13 30.77 17.65 32.97 18.18C34.4097 18.6919 35.8832 19.1029 37.38 19.41C39.79 19.67 40.59 17.98 42.51 16.96C43.691 16.308 45.0809 16.1463 46.38 16.51" fill="#F4BB18"/>
<path d="M46.38 1.71V14.83C45.3667 14.682 44.3337 14.7451 43.346 15.0152C42.3582 15.2854 41.4369 15.7569 40.64 16.4C39.58 17.22 39.03 17.95 37.64 17.89C36.2708 17.6642 34.9298 17.2921 33.64 16.78C32.3378 16.4279 30.9823 16.316 29.64 16.45C27.64 16.64 25.74 17.58 23.75 17.07C20.75 16.3 18.44 13.74 15.3 13.32C11.73 12.85 9.35 15.69 6.5 17.32C4.62076 18.5177 2.37903 19.0135 0.17 18.72V1.72L46.38 1.71Z" fill="#4C7738"/>
</svg>
