<?xml version="1.0" encoding="utf-8"?>
<!-- Generator: Adobe Illustrator 21.0.1, SVG Export Plug-In . SVG Version: 6.00 Build 0)  -->
<svg version="1.1" id="Layer_1" xmlns="http://www.w3.org/2000/svg" xmlns:xlink="http://www.w3.org/1999/xlink" x="0px" y="0px"
	 viewBox="0 0 604 130" style="enable-background:new 0 0 604 130;" xml:space="preserve">
<style type="text/css">
	.st0{fill:#59CBE8;}
	.st1{fill:#FFFFFF;}
</style>
<g>
	<g>
		<path class="st0" d="M82.7,24.1c-1.9,0-14.2,0-19.8,0c-22.6,0-41,18.4-41,41s18.4,41,41,41c1.9,0,14.2,0,19.8,0
			c22.6,0,41-18.4,41-41C123.7,42.4,105.3,24.1,82.7,24.1z M82.7,97.7c-18,0-32.6-14.6-32.6-32.6c0-2.3-1.9-4.2-4.2-4.2
			s-4.2,1.9-4.2,4.2c0,13,6.1,24.6,15.6,32.1c-15.3-2.7-27-16.1-27-32.1c0-18,14.6-32.6,32.6-32.6s32.6,14.6,32.6,32.6
			c0,2.3,1.9,4.2,4.2,4.2c2.3,0,4.2-1.9,4.2-4.2c0-13-6.1-24.6-15.6-32.1c15.3,2.7,27,16.1,27,32.1C115.4,83,100.7,97.7,82.7,97.7z"
			/>
	</g>
	<g>
		<path class="st1" d="M477,42h-7.4c-0.7,0-1.3,0.6-1.3,1.3v28.2c0,2.7-0.7,4.8-2,6.2c-1.3,1.4-3.2,2.1-5.7,2.1s-4.3-0.7-5.7-2.1
			c-1.3-1.4-2-3.5-2-6.2V43.3c0-0.7-0.6-1.3-1.3-1.3h-7.4c-0.7,0-1.3,0.6-1.3,1.3v28.6c0,2.8,0.5,5.3,1.4,7.5s2.2,4,3.8,5.5
			s3.5,2.6,5.6,3.4c2.1,0.7,4.4,1.1,6.9,1.1c2.4,0,4.8-0.4,6.9-1.1c2.2-0.8,4.1-1.9,5.7-3.4c1.6-1.5,2.9-3.3,3.8-5.5
			c0.9-2.2,1.4-4.7,1.4-7.5V43.3C478.3,42.6,477.7,42,477,42z"/>
		<path class="st1" d="M421.7,60.7l-7-1.4c-1.5-0.3-2.6-0.9-3.4-1.7c-0.8-0.8-1.2-1.9-1.2-3.1c0-1.4,0.6-2.7,1.8-3.7
			s2.8-1.6,4.8-1.6c1.5,0,2.8,0.2,3.8,0.7s1.9,1.1,2.6,1.7c0.7,0.7,1.1,1.4,1.5,2.3c0.1,0.3,0.2,0.6,0.3,0.9
			c0.2,0.7,0.9,1.1,1.6,0.9l6.8-1.9c0.7-0.2,1.1-0.9,0.9-1.6c-0.2-0.8-0.6-1.7-1-2.7c-0.7-1.5-1.7-2.9-3.1-4.2
			c-1.4-1.3-3.2-2.4-5.3-3.4c-2.2-0.9-4.9-1.4-8.1-1.4c-2.4,0-4.6,0.4-6.7,1.2c-2,0.8-3.8,1.9-5.3,3.2c-1.5,1.4-2.7,2.9-3.6,4.7
			c-0.9,1.8-1.3,3.7-1.3,5.7c0,3.2,1,6,3.1,8.5c2.1,2.4,5.2,4.1,9.3,5l6.8,1.5c1.8,0.4,3.2,1,4.1,1.9c0.9,0.9,1.3,2,1.3,3.2
			c0,1.4-0.6,2.7-1.7,3.7c-1.2,1-2.9,1.6-5.2,1.6c-3,0-5.2-0.8-6.8-2.4c-1.2-1.2-2-2.6-2.4-4.2c-0.2-0.7-0.9-1.1-1.6-0.9l-7,2
			c-0.7,0.2-1.1,0.9-0.9,1.5c0.2,1,0.6,2,1.1,3.2c0.8,1.6,1.9,3.1,3.4,4.5s3.4,2.6,5.8,3.5c2.3,0.9,5.2,1.4,8.5,1.4
			c2.9,0,5.4-0.4,7.7-1.3c2.2-0.9,4-2,5.4-3.4s2.5-3,3.2-4.7s1.1-3.5,1.1-5.2c0-3.4-1.1-6.3-3.4-8.8C429.3,63.4,426,61.7,421.7,60.7
			z"/>
		<path class="st1" d="M498.3,42H490c-0.7,0-1.3,0.6-1.3,1.3v43.4c0,0.7,0.6,1.3,1.3,1.3h8.3c0.7,0,1.3-0.6,1.3-1.3V43.3
			C499.6,42.6,499,42,498.3,42z"/>
		<path class="st1" d="M368.1,40.6c-13.4,0-24.4,10.9-24.4,24.4c0,13.4,10.9,24.4,24.4,24.4c13.4,0,24.4-10.9,24.4-24.4
			C392.5,51.5,381.5,40.6,368.1,40.6z M368.1,78.8c-7.6,0-13.8-6.2-13.8-13.8c0-7.6,6.2-13.8,13.8-13.8s13.8,6.2,13.8,13.8
			S375.7,78.8,368.1,78.8z"/>
		<circle class="st1" cx="494.1" cy="26.3" r="7.1"/>
		<path class="st1" d="M587.4,54.6c-1-2.9-2.5-5.4-4.4-7.5s-4.3-3.7-7.1-4.8c-2.8-1.1-6-1.7-9.5-1.7c-2.9,0-5.7,0.6-8.4,1.7
			c-2.7,1.2-5.1,2.8-7.2,4.9c-2.1,2.1-3.7,4.6-5,7.6c-1.2,3-1.8,6.3-1.8,9.9c0,3.9,0.6,7.4,1.9,10.4c1.3,3.1,3,5.6,5.2,7.7
			c2.1,2.1,4.6,3.7,7.5,4.8c2.8,1.1,5.8,1.7,9,1.7c2.8,0,5.3-0.4,7.6-1.1c2.3-0.8,4.3-1.8,6-3.1c1.8-1.3,3.2-2.9,4.4-4.6
			c0.9-1.4,1.7-2.8,2.3-4.4c0.3-0.7-0.1-1.5-0.8-1.7l-6.8-2.2c-0.6-0.2-1.3,0.1-1.6,0.7c-0.8,1.8-1.9,3.3-3.4,4.6
			c-1.8,1.5-4.4,2.3-7.7,2.3c-1.7,0-3.3-0.3-4.8-0.9s-2.8-1.4-3.9-2.5c-1.1-1.1-2-2.3-2.7-3.8c-0.5-1-0.8-2.1-1-3.3
			c-0.1-0.8,0.5-1.5,1.3-1.5h31.1c0.7,0,1.2-0.5,1.3-1.2l0,0c0.1-0.7,0.1-1.4,0.1-2.3C588.9,60.9,588.4,57.6,587.4,54.6z M576.4,60
			h-19.6c-0.8,0-1.5-0.8-1.3-1.6c0.2-0.7,0.4-1.3,0.7-2c0.6-1.2,1.3-2.3,2.3-3.3c0.9-1,2.1-1.8,3.4-2.4c1.4-0.6,2.9-0.9,4.6-0.9
			c1.9,0,3.5,0.3,4.9,0.9s2.6,1.3,3.5,2.3c0.9,0.9,1.7,2,2.1,3.3c0.3,0.7,0.5,1.5,0.6,2.3C577.8,59.2,577.2,60,576.4,60z"/>
		<path class="st1" d="M537,78.7L537,78.7c-0.8,0.1-1.6,0.1-2.3,0.1c-2,0-3.5-0.5-4.4-1.4s-1.4-2.4-1.4-4.4V52.9
			c0-0.7,0.6-1.3,1.3-1.3h7c0.7,0,1.3-0.6,1.3-1.3v-7.1c0-0.7-0.6-1.3-1.3-1.3h-7c-0.7,0-1.3-0.6-1.3-1.3V29.1
			c0-0.7-0.6-1.3-1.3-1.3h-7.4c-0.7,0-1.3,0.6-1.3,1.3v5.6c0,2-0.6,3.7-1.7,5.1c-1.1,1.4-2.9,2.1-5.4,2.1h-1.1
			c-0.7,0-1.3,0.6-1.3,1.3v7.1c0,0.7,0.6,1.3,1.3,1.3h5.9c0.7,0,1.3,0.6,1.3,1.3v21.9c0,4.3,1.2,7.7,3.7,10.1s5.8,3.6,10.1,3.6
			c2,0,3.6-0.1,4.6-0.4c0.4-0.1,0.8-0.2,1.1-0.3c0.6-0.2,0.9-0.7,0.9-1.2V80C538.5,79.2,537.8,78.6,537,78.7z"/>
		<path class="st1" d="M227,45c-1.6-1.5-3.5-2.6-5.7-3.4c-2.1-0.8-4.5-1.1-6.9-1.1c-2.5,0-4.8,0.4-7,1.1c-2.2,0.8-4.1,1.9-5.7,3.4
			s-2.9,3.4-3.8,5.6s-1.4,4.7-1.4,7.6v28.9c0,0.7,0.6,1.3,1.3,1.3h7.5c0.7,0,1.3-0.6,1.3-1.3V58.6c0-2.8,0.7-4.9,2-6.3
			s3.2-2.1,5.8-2.1c2.5,0,4.4,0.7,5.7,2.1c1.4,1.4,2,3.5,2,6.3V87c0,0.7,0.6,1.3,1.3,1.3h7.4c0.7,0,1.3-0.6,1.3-1.3V58.1
			c0-2.8-0.5-5.4-1.4-7.6C229.9,48.4,228.6,46.5,227,45z"/>
		<path class="st1" d="M283.4,42h-8.7c-0.5,0-1,0.3-1.2,0.9L263,71.6c-0.4,1.1-2,1.1-2.4,0L250,42.9c-0.2-0.5-0.7-0.8-1.2-0.8h-9.3
			c-0.9,0-1.5,0.9-1.2,1.8L256,87.3c0.2,0.5,0.7,0.8,1.2,0.8h9.2c0.5,0,1-0.3,1.2-0.8l17-43.4C284.9,42.9,284.3,42,283.4,42z"/>
		<path class="st1" d="M181.8,47.1c-1.9-2.1-4.3-3.7-7.1-4.8c-2.8-1.1-6-1.7-9.5-1.7c-2.9,0-5.7,0.6-8.4,1.7
			c-2.7,1.2-5.1,2.8-7.2,4.9s-3.7,4.6-5,7.6c-1.2,3-1.8,6.3-1.8,9.9c0,3.9,0.6,7.4,1.9,10.4c1.3,3.1,3,5.6,5.2,7.7
			c2.1,2.1,4.6,3.7,7.5,4.8c2.8,1.1,5.8,1.7,9,1.7c2.8,0,5.3-0.4,7.6-1.1c2.3-0.8,4.3-1.8,6-3.1c1.8-1.3,3.2-2.9,4.4-4.6
			c0.9-1.4,1.7-2.8,2.3-4.4c0.3-0.7-0.1-1.5-0.8-1.7l-6.8-2.2c-0.6-0.2-1.3,0.1-1.6,0.7c-0.8,1.8-1.9,3.3-3.4,4.6
			c-1.8,1.5-4.4,2.3-7.7,2.3c-1.7,0-3.3-0.3-4.8-0.9s-2.8-1.4-3.9-2.5s-2-2.3-2.7-3.8c-0.5-1-0.8-2.1-1-3.3
			c-0.1-0.8,0.5-1.5,1.3-1.5h31.1c0.7,0,1.2-0.5,1.3-1.2l0,0c0.1-0.7,0.1-1.4,0.1-2.3c0-3.7-0.5-6.9-1.5-9.9
			C185.2,51.7,183.8,49.2,181.8,47.1z M175.2,60h-19.6c-0.8,0-1.5-0.8-1.3-1.6c0.2-0.7,0.4-1.3,0.7-2c0.6-1.2,1.3-2.3,2.3-3.3
			c0.9-1,2.1-1.8,3.4-2.4c1.4-0.6,2.9-0.9,4.6-0.9c1.9,0,3.5,0.3,4.9,0.9s2.6,1.3,3.5,2.3c0.9,0.9,1.7,2,2.1,3.3
			c0.3,0.7,0.5,1.5,0.6,2.3C176.7,59.2,176.1,60,175.2,60z"/>
		<path class="st1" d="M302.6,42h-8.3c-0.7,0-1.3,0.6-1.3,1.3v43.4c0,0.7,0.6,1.3,1.3,1.3h8.3c0.7,0,1.3-0.6,1.3-1.3V43.3
			C303.9,42.6,303.3,42,302.6,42z"/>
		<circle class="st1" cx="298.4" cy="26.3" r="7.1"/>
		<path class="st1" d="M340.1,41.6L340.1,41.6c-0.5-0.1-1.1-0.1-1.8-0.1c-3,0-5.7,0.7-8.1,2.1c-1.1,0.7-2.1,1.4-3,2.4
			c-0.8,0.9-2.2,0.3-2.2-0.9v-1.7c0-0.7-0.6-1.3-1.3-1.3h-8.1c-0.7,0-1.3,0.6-1.3,1.3v43.4c0,0.7,0.6,1.3,1.3,1.3h8.4
			c0.7,0,1.3-0.6,1.3-1.3V66.2c0-4.3,1-7.7,3-10s5.1-3.5,9.4-3.5c0.7,0,1.4,0,2.2,0.1s1.4-0.5,1.4-1.3v-8.6
			C341.2,42.2,340.7,41.6,340.1,41.6z"/>
	</g>
</g>
</svg>
