<?xml version="1.0" encoding="utf-8"?>
<!-- Generator: Adobe Illustrator 21.1.0, SVG Export Plug-In . SVG Version: 6.00 Build 0)  -->
<!DOCTYPE svg PUBLIC "-//W3C//DTD SVG 1.1//EN" "http://www.w3.org/Graphics/SVG/1.1/DTD/svg11.dtd">
<svg version="1.1" id="Layer_1" xmlns="http://www.w3.org/2000/svg" xmlns:xlink="http://www.w3.org/1999/xlink" x="0px" y="0px"
	 viewBox="0 0 473.3 111.3" style="enable-background:new 0 0 473.3 111.3;" xml:space="preserve">
<style type="text/css">
	.st0{fill:#FFFFFF;}
</style>
<title>Asset 1</title>
<g>
	<path class="st0" d="M69.5,28.1L37.9,4.6l-0.3-0.2c-0.9-0.7-2.5-0.7-3.4,0L2.4,28.1c-0.9,0.7-1.4,2.2-1.1,3.3l12.2,38.4
		c0,0,0,0,0,0c0.4,1.1,1.6,2,2.7,2h39.4c1.2,0,2.4-0.9,2.8-2l12.2-38.4C70.9,30.3,70.5,28.8,69.5,28.1z M32,13.7l4-5.1
		c0.1-0.1,0.2-0.2,0.3-0.2l3.6,4.7c0.2,0.3,0.2,0.7,0,0.9l-3.7,5.3c-0.2,0.3-0.5,0.3-0.7,0l-3.6-5.2C31.9,14,32,13.8,32,13.7z
		 M57.8,46.4c-0.9,12.4-11.4,21.7-23.5,20.8c-5.3-0.4-10-2.7-13.5-6.2c-4.2-4.4-6.6-10.6-6.1-17.3C15.6,31.3,26.2,22,38.2,22.9
		c5.3,0.4,10,2.7,13.5,6.2C55.9,33.5,58.3,39.7,57.8,46.4z"/>
	<g id="XMLID_58_">
		<g id="XMLID_110_">
			<path id="XMLID_138_" class="st0" d="M466.7,22.5c-3,0-5-2.2-5-5.2c0-2.9,2.1-5.2,5.1-5.2c2.9,0,5.1,2.2,5.1,5.2
				C471.8,20.3,469.6,22.5,466.7,22.5z M466.7,13.2c-2.3,0-4,1.8-4,4.2c0,2.4,1.7,4.2,4,4.2c2.3,0,4-1.8,4-4.2
				C470.6,15,469,13.2,466.7,13.2z M467.8,20.2c-0.9-1.5-1.4-2.4-1.6-2.4h-0.3v2.4h-1v-5.8h1.6c1.3,0,2,0.7,2,1.6
				c0,0.9-0.7,1.4-1.2,1.5h0c0.2,0.1,0.9,1.2,1.8,2.7H467.8z M466.4,15.3h-0.5V17h0.4c0.6,0,1.1-0.3,1.1-0.9
				C467.4,15.6,467,15.3,466.4,15.3z"/>
		</g>
		<path id="XMLID_108_" class="st0" d="M122.3,6.2h-28V9h6.1c2.6,0,2.9,2.1,2.9,13.8v44.9c0,0.8-0.9,1-2.1,1h-4.3v2.8h22.4v-2.8
			h-5.8c-2.3,0-3.4-0.3-3.4-15v-43c0-1,1.9-1,3.8-1h4.5c15.1,0,17.6,11.2,17.6,15.3c0,9.7-8.1,14.1-17.2,14.1
			c-1.5,0-2.9-0.1-4.4-0.3c0.3,1.1,0.5,1.8,0.7,2.7c1.6,0.2,2.7,0.4,4.3,0.4c11.4,0,23.3-6.1,23.3-18.6
			C142.8,14.5,135.8,6.2,122.3,6.2z"/>
		<path id="XMLID_74_" class="st0" d="M155,14.3c0-9.1-1.1-8.9-2.9-8.9h-5.5V2.9c4.9-0.3,9.7-1.1,14.5-2.4v52.9
			c0,15.5,0.5,15.5,4.4,15.5h4.2v2.5h-20.4v-2.5h3.8c0.9,0,2,0,2-1V14.3z"/>
		<path id="XMLID_71_" class="st0" d="M202.1,37c0-2.3,0-7.3-7.6-7.3c-3.3,0-7.5,1-10.1,3.2c0,4.3-1.8,8.9-5,8.9
			c-1.2,0-2.2-1.1-2.2-2.2c0-8.2,12.2-13.7,20-13.7c10.8,0,10.9,5.7,10.9,13.3v16.3c0,6.5,0,11.2,7.3,12.7l-3.3,4.6
			c-3.9,0-9-4.3-9.7-9.8c-3.7,4.2-11.1,9.8-17,9.8c-5.7,0-9.1-3.9-9.1-9.6c0-9.2,10.8-13.7,25.7-19.6V37z M202.6,46.7
			c-9.4,3.3-19.2,7.1-19.2,15.2c0,3.8,2,6.3,5.9,6.3c5.4,0,10.4-4,13.3-8.4V46.7z"/>
		<path id="XMLID_69_" class="st0" d="M229.7,27.7H241c-0.3,2.4-0.8,2.5-1.6,2.5h-9.8v29.4c0,4.6,0.5,9.5,7.3,9.5
			c2.4,0,4.9-0.7,7.1-1.6l0.9,2c-3.2,1.9-8.6,3.6-12.3,3.6c-5.9,0-9.1-3.9-9.1-9.5V30.1h-2.3c-2.2,0-2.6,0-2.6-0.7
			c0-0.5,0.4-1,1-1.6l8.4-10.2h1.5V27.7z"/>
		<path id="XMLID_65_" class="st0" d="M264.7,53.4c0,15.5,0.5,15.5,4.4,15.5h4.2v2.5h-20.4v-2.5h3.9c0.9,0,2,0,2-1V39.3
			c0-9.1-1.1-9.1-2.9-9.1h-5.5v-2.5c1.5,0,4.8-0.5,7.3-0.8c3.2-0.4,5.6-0.8,7.2-0.8V53.4z M261.5,8.8c2.1,0,3.8,1.7,3.8,3.8
			c0,2.2-1.8,3.9-3.8,3.9c-2.1,0-3.9-1.7-3.9-3.9C257.6,10.5,259.4,8.8,261.5,8.8z"/>
		<path id="XMLID_63_" class="st0" d="M292.5,53.4c0,15.5,0.5,15.5,4.4,15.5h4.2v2.5h-20.4v-2.5h3.8c0.9,0,2,0,2-1V39.3
			c0-9.1-1.1-9.1-2.9-9.1h-5.5v-2.5c1.5,0,4.8-0.5,7.3-0.8c3.2-0.4,5.6-0.8,7.2-0.8v8.2c5.4-4.4,10.9-8.2,17.7-8.2
			c9.9,0,12.6,6.6,12.6,12.7v14.7c0,15.5,0.5,15.5,4.4,15.5h4.2v2.5h-20.4v-2.5h3.9c0.9,0,2,0,2-1V41.1c0-8.1-3.8-10.5-8.6-10.5
			c-6.2,0-11,3-15.6,6.8V53.4z"/>
		<path id="XMLID_61_" class="st0" d="M331.3,27.7c1.5,0,4.8-0.5,7.3-0.8c3.2-0.4,5.6-0.8,7.2-0.8v27.4c0,8.1,0,14.7,9.5,14.7
			c5.1,0,10.4-2.9,13.9-6.7V39.3c0-9.1-1.1-9.1-2.9-9.1h-5.5v-2.5c1.5,0,4.8-0.5,7.3-0.8c3.2-0.4,5.6-0.8,7.2-0.8v29.7
			c0,6.5,0,11.2,7.4,12.7l-3.3,4.6c-5.1-0.6-8.5-4.5-9.6-8.9c-5,4.5-10.4,8.9-17.2,8.9c-12.8,0-12.8-12.3-12.8-22.9V39.3
			c0-9.1-1.2-9.1-2.9-9.1h-5.5V27.7z"/>
		<path id="XMLID_59_" class="st0" d="M388.5,27.7c1.5,0,4.8-0.5,7.3-0.8c3.2-0.4,5.6-0.8,7.2-0.8v8.2c5.3-3.7,9.7-8.2,16-8.2
			c5.8,0,10.4,3.2,11.4,8.7c2.6-1.8,10.6-8.7,16.5-8.7c9.9,0,12.6,6.6,12.6,12.7v14.7c0,15.5,0.5,15.5,4.4,15.5h4.2v2.5h-20.4v-2.5
			h3.9c0.9,0,2,0,2-1V41.1c0-8.1-3.9-10.5-8.7-10.5c-6,0.2-9.6,3.6-13.5,6.8v16c0,15.5,0.5,15.5,4.4,15.5h4.2v2.5h-20.4v-2.5h3.8
			c0.9,0,2,0,2-1V41.1c0-8.1-3.9-10.5-8.7-10.5c-6,0.2-9.6,3.6-13.5,6.8v16c0,15.5,0.5,15.5,4.4,15.5h4.2v2.5h-20.4v-2.5h3.8
			c0.9,0,2,0,2-1V39.3c0-9.1-1.1-9.1-2.9-9.1h-5.5V27.7z"/>
	</g>
	<path id="XMLID_48_" class="st0" d="M53.3,45c-7.9,0-26,0-34.4,0c-0.6,0-1.5,0.1-1.5,1.3c0.7,9.8,8.7,17.8,18.6,17.8
		c9.8,0,17.8-7.7,18.6-17.6C54.7,46,54.8,45,53.3,45z"/>
	<g>
		<path class="st0" d="M109.7,110.1l-1.9-4.8H101l-1.8,4.8h-3.4l7.4-19.2h2.6l7.7,19.2H109.7z M105.2,98.1c-0.3-1-0.6-1.7-0.7-2.4h0
			c-0.1,0.7-0.4,1.4-0.7,2.3l-1.7,4.4h4.6L105.2,98.1z"/>
		<path class="st0" d="M127.3,110.4c-2.7,0-4.6-0.9-5.9-1.7l1.4-2.6c1,0.7,2.5,1.4,4.3,1.4c1.5,0,3.2-0.6,3.2-2.2
			c0-2.7-4.6-3.2-7-5.8c-0.8-0.8-1.2-1.9-1.2-3.4c0-2.8,2.2-5.2,6.2-5.2c2,0,3.7,0.5,4.7,1.1L133,95c-1.5-0.8-2.9-1.3-4.5-1.3
			c-1.5,0-2.8,0.7-2.8,1.9c0,3.5,8.3,3.3,8.3,9.3C134.1,108.3,131.1,110.4,127.3,110.4z"/>
		<path class="st0" d="M148.7,110.4c-2.7,0-4.6-0.9-5.9-1.7l1.4-2.6c1,0.7,2.5,1.4,4.3,1.4c1.5,0,3.2-0.6,3.2-2.2
			c0-2.7-4.6-3.2-7-5.8c-0.8-0.8-1.2-1.9-1.2-3.4c0-2.8,2.2-5.2,6.2-5.2c2,0,3.7,0.5,4.7,1.1l-0.1,3.1c-1.5-0.8-2.9-1.3-4.5-1.3
			c-1.5,0-2.8,0.7-2.8,1.9c0,3.5,8.3,3.3,8.3,9.3C155.4,108.3,152.4,110.4,148.7,110.4z"/>
		<path class="st0" d="M165.1,110.1V91h10.6l-1,2.9h-6.2v5h6.2v2.9h-6.2v5.4h7.1v2.9H165.1z"/>
		<path class="st0" d="M198.4,93.9h-5.2v16.2h-3.5V93.9h-5.5V91h15.1L198.4,93.9z"/>
		<path class="st0" d="M237.5,110.1V98.8c0-0.7,0-1.3,0.1-2.1h0c-0.3,0.6-0.8,1.5-1.2,2l-3.9,6.1h-1.7l-4.3-6.2
			c-0.4-0.5-0.8-1.1-1.2-1.9h-0.1c0.1,0.8,0.1,1.4,0.1,2v11.5h-3.5V91h3.3l5.3,7.7c0.6,0.8,0.9,1.4,1.3,2h0.1
			c0.3-0.6,0.6-1.3,1.2-2.1l4.9-7.6h3.3v19.1H237.5z"/>
		<path class="st0" d="M263.9,110.1l-1.9-4.8h-6.8l-1.8,4.8H250l7.4-19.2h2.6l7.7,19.2H263.9z M259.4,98.1c-0.3-1-0.6-1.7-0.7-2.4h0
			c-0.1,0.7-0.4,1.4-0.7,2.3l-1.7,4.4h4.6L259.4,98.1z"/>
		<path class="st0" d="M290.7,110.1L282,98.9c-0.8-1.1-1.4-1.8-1.9-2.6h-0.1c0.1,0.6,0.1,1.7,0.1,2.6v11.2h-3.5V91h3.6l8.3,10.8
			c0.9,1.2,1.4,1.9,1.9,2.7h0.1c-0.1-0.8-0.1-1.9-0.1-2.8V91h3.5v19.1H290.7z"/>
		<path class="st0" d="M316.8,110.1l-1.9-4.8h-6.8l-1.8,4.8h-3.4l7.4-19.2h2.6l7.7,19.2H316.8z M312.3,98.1c-0.3-1-0.6-1.7-0.7-2.4
			h0c-0.1,0.7-0.4,1.4-0.7,2.3l-1.7,4.4h4.6L312.3,98.1z"/>
		<path class="st0" d="M337.9,110.4c-6,0-9.7-4.2-9.7-9.6c0-5.7,4.3-9.9,10.6-9.9c2.4,0,4.2,0.5,5.6,1l-0.1,3.3
			c-1.4-0.8-3.2-1.4-5.2-1.4c-5,0-7.2,3.1-7.2,6.8c0,4,2.5,7,6.7,7c1.3,0,2.3-0.2,3-0.5v-6.5h3.5v8.1
			C343.6,109.6,341,110.4,337.9,110.4z"/>
		<path class="st0" d="M355.7,110.1V91h10.6l-1,2.9h-6.2v5h6.2v2.9h-6.2v5.4h7.1v2.9H355.7z"/>
		<path class="st0" d="M392,110.1V98.8c0-0.7,0-1.3,0.1-2.1h0c-0.3,0.6-0.8,1.5-1.2,2l-3.9,6.1h-1.7l-4.3-6.2
			c-0.4-0.5-0.8-1.1-1.2-1.9h-0.1c0.1,0.8,0.1,1.4,0.1,2v11.5h-3.5V91h3.3l5.3,7.7c0.6,0.8,0.9,1.4,1.3,2h0.1
			c0.3-0.6,0.6-1.3,1.2-2.1l4.9-7.6h3.3v19.1H392z"/>
		<path class="st0" d="M406.2,110.1V91h10.6l-1,2.9h-6.2v5h6.2v2.9h-6.2v5.4h7.1v2.9H406.2z"/>
		<path class="st0" d="M440.8,110.1l-8.6-11.2c-0.8-1.1-1.4-1.8-1.9-2.6h-0.1c0.1,0.6,0.1,1.7,0.1,2.6v11.2h-3.5V91h3.6l8.3,10.8
			c0.9,1.2,1.4,1.9,1.9,2.7h0.1c-0.1-0.8-0.1-1.9-0.1-2.8V91h3.5v19.1H440.8z"/>
		<path class="st0" d="M467.5,93.9h-5.2v16.2h-3.5V93.9h-5.5V91h15.1L467.5,93.9z"/>
	</g>
</g>
</svg>
