<svg xmlns="http://www.w3.org/2000/svg" viewBox="0 0 166.7 183.9"><g fill="#FFF"><path d="M109.7 94.2l-2.4 1.8.7.9 2.4-1.7c13.5-9.8 19.1-27.1 14-43l-3.1-9.6C116.1 26.7 101.4 16 84.7 16H74.4C57.7 16 43 26.7 37.8 42.6L34.7 52c-4.5 13.9-.6 29.4 9.9 39.5.2.2.6.2.8 0 .2-.2.2-.6 0-.8-10.2-9.9-14-24.9-9.6-38.4l3.1-9.6c5-15.4 19.3-25.8 35.5-25.8h10.1c16.2 0 30.5 10.4 35.5 25.8l3.1 9.6c5.2 15.5-.3 32.3-13.4 41.9"/><path d="M117.4 95.8c12.8-9.3 18.1-25.6 13.2-40.7l-6.3-19.4c-4.9-15-18.8-25.1-34.6-25.1H69.3c-15.8 0-29.7 10.1-34.6 25.1l-.1.2c-.1.3.1.6.4.7.3.1.6-.1.7-.4l.1-.2C40.5 21.4 54 11.6 69.3 11.6h20.4c15.3 0 28.8 9.8 33.5 24.4l6.3 19.4c4.7 14.6-.4 30.4-12.8 39.4l-6.7 4.9.7.9 6.7-4.8z"/><path d="M94.9 5.3H90c-.3 0-.6.3-.6.6s.2.6.6.6h4.8c14.4 0 27.1 9.2 31.5 22.9l9.5 29.3c4.5 13.7-.4 28.6-12 37.1l-11 8 .7.9 11-8c12.1-8.8 17.1-24.2 12.5-38.3l-9.5-29.3c-4.6-14.3-17.7-23.8-32.6-23.8"/><path d="M113.9 108.9L80.2 62.5c-.4-.5-1.1-.6-1.6-.3-.5.4-.6 1.1-.2 1.6l22.3 30.7c-6.3 4.1-13.6 6.2-21.1 6.2-12.5 0-24.4-6-31.7-16.1-6.1-8.5-8.6-18.8-7-29.1C42.5 45.1 48 36 56.5 29.9c6.7-4.9 14.7-7.5 23-7.5 12.5 0 24.4 6 31.7 16.1 12.2 16.9 9.1 40.3-6.9 53.3l1.3 1.8c16.9-13.8 20.3-38.6 7.4-56.4-7.8-10.7-20.3-17.1-33.5-17.1-8.8 0-17.2 2.7-24.3 7.9-8.9 6.5-14.8 16.1-16.6 27-1.7 11 .9 21.9 7.4 30.9C53.8 96.6 66.3 103 79.5 103c8 0 15.7-2.3 22.4-6.7l1.6 2.3-3.1 2.3c-11.4 7.7-26 8.6-38.2 2.2-.3-.1-.6 0-.8.2-.1.3 0 .6.2.8 5.6 2.9 11.7 4.3 17.8 4.3 7.6 0 15.1-2.2 21.6-6.6l3.2-2.3 2.1 3-6.2 4.5c-12.4 9-29.1 9-41.5 0L42.1 95c-12.1-8.8-17.3-24.3-13-38.6.1-.3-.1-.6-.4-.7-.3-.1-.6.1-.7.4-4.4 14.8 1 30.8 13.4 39.9l16.5 12c6.4 4.7 13.9 7 21.4 7 7.5 0 15-2.3 21.4-7l6.2-4.5 2.1 3-10 7.2c-11.7 8.5-27.3 8.5-39 0L35.1 95.6c-11.7-8.5-16.5-23.4-12-37.1l9.5-29.3C37 15.6 49.7 6.4 64.1 6.4H69c.3 0 .6-.2.6-.6 0-.3-.3-.6-.6-.6h-4.8c-14.9 0-28 9.5-32.6 23.7L22 58.2c-4.6 14.2.4 29.6 12.4 38.3l24.9 18.1c6 4.4 13.1 6.6 20.1 6.6 7.1 0 14.1-2.2 20.1-6.6l10.2-7.4 2.1 3-14.3 10.4c-10.9 7.9-25.6 7.9-36.5 0L28 96.4c-10.9-7.9-15.4-21.9-11.3-34.7l12.7-39.1C33.6 9.7 45.5 1.1 59 1.1h41c13.5 0 25.4 8.6 29.5 21.5l3.4 10.5c.1.3.4.5.7.4.3-.1.5-.4.4-.7l-3.4-10.5C126.3 8.9 114 0 100 0H59C45 0 32.7 8.9 28.4 22.2L15.7 61.3c-4.3 13.3.4 27.7 11.7 36l33.2 24.1c5.7 4.1 12.3 6.2 18.9 6.2 6.6 0 13.2-2.1 18.9-6.2l15-10.9h.1l.1-.1.1-.1.8-.6-.6-.8zM143.3 61.3l-2.8-8.5c-.1-.3-.4-.5-.7-.4-.3.1-.5.4-.4.7l2.8 8.5c4.2 12.8-.4 26.8-11.3 34.7l-15.3 11.1.7.9 15.3-11.1c11.3-8.2 16-22.6 11.7-35.9M157.7 142.1c-2.1-1.1-5.7-1.9-8.8-1.9-2.5 0-4.6.6-6.2 1.7-1.7 1.2-2.6 3-2.6 5 0 4.4 4.3 5.8 9.4 7.1 4.2 1 7.4 2.1 7.4 5.2 0 1.5-.6 2.8-1.8 3.6-1.3.9-3.1 1.4-5.3 1.4-3.6 0-5.1-.3-8.8-2.1-.1-.1-.3-.1-.4-.1-.5 0-.9.4-.9.9 0 .4.2.7.6.9 4 2 5.6 2.3 9.5 2.3 2.7 0 5-.6 6.6-1.8 1.7-1.2 2.6-3 2.6-5.2 0-4.4-4.2-5.8-8.9-7-4.5-1.1-7.9-2.2-7.9-5.2 0-1.4.6-2.6 1.8-3.5 1.2-.9 2.9-1.3 4.9-1.3 2.3 0 5.7.6 7.8 1.7.2.1.4.2.6.2.5 0 1-.5 1-1 0-.4-.2-.7-.6-.9M130.8 140.3c-.5 0-1 .4-1 1v23.6c0 .5.4 1 1 1 .5 0 1-.4 1-1v-23.6c-.1-.5-.5-1-1-1M64.1 140.3c-.5 0-1 .4-1 1v23.6c0 .5.4 1 1 1 .5 0 1-.4 1-1v-23.6c0-.5-.4-1-1-1M95.8 141.3c0-.3-.1-.5-.3-.7-.2-.2-.4-.3-.7-.3-.5 0-1 .5-1 1v20.8l-17.4-21.4c-.2-.2-.4-.3-.7-.3-.5 0-.9.4-.9.9v23.6c0 .5.4 1 1 1 .5 0 1-.4 1-1v-20.8l17.5 21.4c.2.2.4.3.7.3.2 0 .4-.1.5-.2.2-.2.4-.4.4-.7v-23.6zM121.9 140.3h-18.2c-.5 0-.9.4-.9.9 0 .3.1.5.3.7.2.2.4.3.6.3h8.1v22.7c0 .5.4 1 1 1 .5 0 1-.4 1-1v-22.7h8.2c.2 0 .3-.1.4-.2.2-.2.4-.5.4-.8.1-.5-.4-.9-.9-.9M53.8 141.3c0-.5-.4-1-1-1-.5 0-1 .4-1 1v14.2c0 3.1-1.1 5.6-3.2 7.1-1.4 1-3.1 1.5-5.2 1.5-2.6 0-4.7-.8-6.2-2.5-1.4-1.5-2.1-3.7-2.1-6.2v-14.2c0-.5-.4-1-1-1-.5 0-1 .4-1 1v14.4c0 3 .9 5.5 2.6 7.4 1.8 2 4.5 3.1 7.6 3.1 2.5 0 4.7-.6 6.4-1.9 2.6-1.9 4-4.9 4-8.6v-14.3h.1zM11.8 154.3c0-.3.2-.5.4-.6.4-.3 1-.2 1.3.2l9.2 12.6c.2.2.2.6.1.9-.1.2-.2.4-.3.5-.4.3-1 .2-1.3-.2L12 155c-.2-.2-.2-.4-.2-.7"/><path d="M19.4 162c-1.8 1.3-4 2.1-6.5 2.1-6.1 0-11-4.9-11-11s4.9-11 11-11 11 4.9 11 11c0 3-1.2 5.6-3.1 7.6l1.2 1.6c2.4-2.4 3.9-5.6 3.9-9.2 0-7.2-5.8-13-13-13s-13 5.8-13 13 5.8 13 13 13c2.8 0 5.5-.9 7.6-2.5l-1.1-1.6zM164.1 139c-1.4 0-2.6 1.1-2.6 2.6 0 1.4 1.1 2.6 2.6 2.6 1.4 0 2.6-1.1 2.6-2.6 0-1.4-1.2-2.6-2.6-2.6m0 4.8c-1.2 0-2.2-1-2.2-2.2 0-1.2 1-2.2 2.2-2.2 1.2 0 2.2 1 2.2 2.2 0 1.2-1 2.2-2.2 2.2"/><path d="M164.8 142.8l-.5-1h-.5v1h-.3v-2.5h.8c.2 0 .3 0 .4.1.1 0 .2.1.3.2s.1.1.1.2v.3c0 .2 0 .3-.1.4l-.3.3.6 1.1h-.5zm-1.1-1.3h.5c.2 0 .3 0 .4-.1.1-.1.1-.2.1-.3 0-.1 0-.3-.1-.3-.1-.1-.2-.1-.4-.1h-.5v.8zM9.2 181.8l.4.4c.1.1.3.2.5.3s.4.2.6.2c.2.1.4.1.7.1.5 0 .9-.1 1.2-.3.3-.2.4-.5.4-.9s-.2-.7-.5-.9c-.3-.2-.8-.4-1.4-.5l-.9-.3c-.3-.1-.5-.3-.7-.5-.2-.2-.3-.4-.5-.6-.1-.2-.2-.5-.2-.8 0-.3.1-.6.2-.8.1-.3.3-.5.5-.7.2-.2.5-.3.8-.5.3-.1.7-.2 1.1-.2.4 0 .7 0 1 .1.3.1.5.2.7.3.2.1.3.2.5.4l.3.3-.7.7c0-.1-.1-.1-.2-.2l-.3-.3c-.1-.1-.3-.2-.5-.2-.2-.1-.4-.1-.6-.1-.2 0-.5 0-.6.1-.2.1-.3.1-.4.3l-.3.3c-.1.1-.1.3-.1.4 0 .2 0 .4.1.5.1.1.2.3.4.4.2.1.3.2.6.3.2.1.5.1.8.2.3.1.6.2.8.3.3.1.5.3.7.4.2.2.4.4.5.7.1.3.2.6.2 1 0 .3-.1.6-.2.9-.1.3-.3.5-.6.7-.2.2-.5.4-.9.5-.3.1-.7.2-1.1.2-.4 0-.7 0-1-.1-.3-.1-.6-.2-.8-.3-.2-.1-.5-.3-.6-.4-.2-.2-.3-.3-.4-.5l.5-.9zM19.4 176h1.1l3 7.7h-1.2l-.8-2.1h-3.1l-.8 2.1h-1.2l3-7.7zm1.7 4.6l-1.2-3.4-1.3 3.4h2.5zM26.3 176h1.1l4.1 6v-6h1.1v7.7h-1.1l-4.2-6v6h-1M36.2 176h2.6c.6 0 1.2.1 1.7.2s.9.4 1.3.7c.4.3.7.7.9 1.2.2.5.3 1.1.3 1.7 0 .6-.1 1.2-.3 1.7-.2.5-.5.9-.9 1.2-.4.3-.8.6-1.3.7-.5.2-1.1.2-1.7.2h-2.5V176zm2.5 6.7c1 0 1.7-.2 2.2-.7.5-.5.8-1.2.8-2.1 0-.9-.3-1.6-.8-2.1s-1.3-.7-2.3-.7h-1.4v5.7h1.5zM48 176h1.1l3 7.7h-1.2l-.8-2.1H47l-.8 2.1H45l3-7.7zm1.8 4.6l-1.2-3.4-1.3 3.4h2.5zM54.9 176H56v6.7h4v1h-5.1M61.7 176h1.2l1.5 6.2 1.7-5.9h1l1.7 5.9 1.4-6.2h1.2l-2.1 7.7h-1.2l-1.5-5.7-1.7 5.7h-1.1M77.6 183.9c-.6 0-1.1-.1-1.5-.3-.5-.2-.9-.5-1.2-.9-.4-.4-.6-.8-.8-1.3-.2-.5-.3-1-.3-1.6 0-.6.1-1.1.3-1.6.2-.5.5-.9.8-1.3.3-.4.8-.7 1.2-.9.5-.2 1-.3 1.5-.3.6 0 1.1.1 1.5.3.5.2.9.5 1.2.9.4.4.6.8.8 1.3.2.5.3 1 .3 1.6 0 .6-.1 1.1-.3 1.6-.2.5-.5.9-.8 1.3-.4.4-.8.7-1.2.9-.4.2-.9.3-1.5.3m0-1.1c.4 0 .8-.1 1.1-.2.3-.2.6-.4.9-.7.2-.3.4-.6.6-1 .1-.4.2-.7.2-1.2 0-.4-.1-.8-.2-1.2-.1-.4-.3-.7-.6-1-.2-.3-.5-.5-.9-.6-.3-.2-.7-.2-1.1-.2-.4 0-.8.1-1.1.2l-.9.6c-.2.3-.4.6-.6 1-.1.4-.2.8-.2 1.2 0 .4.1.8.2 1.2.1.4.3.7.6 1 .2.3.5.5.9.7.3.2.7.2 1.1.2M88.3 183.9c-.6 0-1.1-.1-1.5-.3-.5-.2-.9-.5-1.2-.9-.4-.4-.6-.8-.8-1.3-.2-.5-.3-1-.3-1.6 0-.6.1-1.1.3-1.6.2-.5.5-.9.8-1.3.3-.4.8-.7 1.2-.9.5-.2 1-.3 1.5-.3s1.1.1 1.5.3c.5.2.9.5 1.2.9.4.4.6.8.8 1.3.2.5.3 1 .3 1.6 0 .6-.1 1.1-.3 1.6-.2.5-.5.9-.8 1.3-.4.4-.8.7-1.2.9-.5.2-1 .3-1.5.3m0-1.1c.4 0 .8-.1 1.1-.2.3-.2.6-.4.9-.7.2-.3.4-.6.6-1 .1-.4.2-.7.2-1.2 0-.4-.1-.8-.2-1.2-.1-.4-.3-.7-.6-1-.2-.3-.5-.5-.9-.6-.3-.2-.7-.2-1.1-.2-.4 0-.8.1-1.1.2l-.9.6c-.2.3-.4.6-.6 1-.1.4-.2.8-.2 1.2 0 .4.1.8.2 1.2.1.4.3.7.6 1 .2.3.5.5.9.7.3.2.6.2 1.1.2M95.4 176H98c.6 0 1.2.1 1.7.2s.9.4 1.3.7c.4.3.7.7.9 1.2.2.5.3 1.1.3 1.7 0 .6-.1 1.2-.3 1.7-.2.5-.5.9-.9 1.2-.4.3-.8.6-1.3.7-.5.2-1.1.2-1.7.2h-2.5V176zm2.5 6.7c1 0 1.7-.2 2.2-.7.5-.5.8-1.2.8-2.1 0-.9-.3-1.6-.8-2.1s-1.3-.7-2.3-.7h-1.4v5.7h1.5zM111.3 176h1.1l3 7.7h-1.2l-.8-2.1h-3.1l-.8 2.1h-1.2l3-7.7zm1.8 4.6l-1.2-3.4-1.3 3.4h2.5zM118.2 176h1.1v6.7h4v1h-5.1M126.2 176h2.6c.4 0 .7.1 1 .2.3.1.5.2.7.4.2.2.3.4.4.6.1.2.1.5.1.8 0 .2 0 .5-.1.7-.1.2-.2.4-.3.5-.1.1-.3.3-.4.3-.2.1-.3.1-.4.2.2 0 .3.1.5.1.2.1.4.2.5.3.2.1.3.3.4.6.1.2.2.5.2.9s-.1.8-.2 1c-.1.3-.4.5-.6.7-.3.2-.6.3-.9.4-.4.1-.7.1-1.1.1h-2.5V176zm2.4 3.2c.2 0 .3 0 .5-.1.2 0 .3-.1.5-.2.1-.1.2-.2.3-.4.1-.1.1-.3.1-.5s0-.4-.1-.6c-.1-.1-.2-.3-.3-.3-.1-.1-.3-.1-.5-.2h-1.9v2.2h1.4zm0 3.5h.6c.2 0 .4-.1.6-.2.2-.1.3-.2.4-.4.1-.2.2-.4.2-.7 0-.3-.1-.5-.2-.7-.1-.2-.3-.3-.4-.4-.2-.1-.4-.2-.6-.2-.2 0-.4-.1-.6-.1h-1.4v2.6h1.4zM134.7 176h1.1v4.5c0 .3 0 .7.1.9.1.3.2.5.3.7.1.2.3.4.6.5.2.1.6.2.9.2.4 0 .7-.1.9-.2.2-.1.4-.3.6-.5.1-.2.3-.5.3-.7.1-.3.1-.6.1-.9V176h1.1v4.7c0 .4-.1.8-.2 1.2-.1.4-.3.7-.6 1-.2.3-.6.5-.9.7-.4.2-.8.2-1.4.2-.5 0-1-.1-1.4-.2-.4-.2-.7-.4-1-.7-.3-.3-.4-.6-.6-1-.1-.4-.2-.8-.2-1.2V176zM144.5 176h1l2.3 4 2.4-4h1l.4 7.7h-1.1l-.3-5.9-2.1 3.6h-.6l-2.1-3.5-.3 5.8h-1"/></g></svg>