<?xml version="1.0" encoding="utf-8"?>
<!-- Generator: Adobe Illustrator 21.0.2, SVG Export Plug-In . SVG Version: 6.00 Build 0)  -->
<svg version="1.1" id="PARINGA_FULL" xmlns="http://www.w3.org/2000/svg" xmlns:xlink="http://www.w3.org/1999/xlink" x="0px"
	 y="0px" viewBox="0 0 250 55.8" style="enable-background:new 0 0 250 55.8;" xml:space="preserve">
<style type="text/css">
	.st0{fill:#003E7E;}
	.st1{fill:#D1181F;}
</style>
<g>
	<g>
		<path d="M12.3,21.8c0,0,70.1-21.2,131.9-3.6c61.8,17.7,83.5,18.9,83.5,18.9s-21.4-3.6-63.2-19.9c-43-16.8-113.2-28-164.5-1
			c0,0,7.2-2.6,19-4.8c4.3-0.8,9.1-1.2,14.4-1.9c0,0-5.1,2.4-9.2,4.7C20.2,16.6,12.3,21.8,12.3,21.8"/>
		<path class="st0" d="M57.6,28.7c0,0,32.5-12.2,65.5-6.1c18.8,3.5,44.3,9.3,44.3,9.3s-16.2-5.7-21.5-7.3
			c-30.7-9.3-59.5-12.7-87.5-0.6c0,0,5.3-2,14-2.3c0,0-3.2,1.2-5.9,2.3C63.6,25.4,57.6,28.7,57.6,28.7"/>
		<path class="st1" d="M163,6.1c0,0,16.2,13.1,43.5,22c11.7,3.8,27.5,6.2,43.5,5.8c0,0-21-1.9-40.7-8.8
			c-11.2-3.9-21.9-10.4-28.5-16.9l3.1,7.4c0,0-4.1-1.3-8.4-3.2C171.1,10.4,163,6.1,163,6.1"/>
	</g>
	<g>
		<path d="M1,45.6h3c1.8,0,3.5,0.6,3.5,2.7c0,2.2-1.9,2.8-3.3,2.8h-2v4.5H1V45.6z M2.2,50h2c1.2,0,2-0.5,2-1.6c0-1.1-0.8-1.6-2-1.6
			h-2V50z"/>
		<path d="M14.5,45.6h1.1l4.2,10h-1.4l-1-2.4h-5l-1,2.4h-1.3L14.5,45.6z M15.1,47.2L15.1,47.2L13,52.1H17L15.1,47.2z"/>
		<path d="M23.2,45.6h2.5c1.9,0,4,0.3,4,2.7c0,1.4-0.9,2.4-2.5,2.6l2.8,4.6h-1.4l-2.7-4.5h-1.5v4.5h-1.2V45.6z M24.3,50h1.1
			c1.3,0,3,0,3-1.6c0-1.4-1.3-1.6-2.4-1.6h-1.7V50z"/>
		<path d="M33.7,45.6h1.2v10h-1.2V45.6z"/>
		<path d="M39.4,45.6h1.5l5.8,8.3h0v-8.3h1.2v10h-1.5l-5.8-8.3h0v8.3h-1.2V45.6z"/>
		<path d="M60.7,54.9c-1.1,0.6-2.4,0.9-3.7,0.9c-3.1,0-5.3-2.1-5.3-5.2c0-3.1,2.4-5.2,5.4-5.2c1.3,0,2.6,0.4,3.5,1.3l-0.9,0.9
			C59,46.9,58,46.5,57,46.5c-2.3,0-4,1.7-4,4.1c0,2.4,1.7,4.1,4.1,4.1c0.8,0,1.7-0.2,2.5-0.6v-3.1h-2.3V50h3.5V54.9z"/>
		<path d="M68.4,45.6h1.1l4.2,10h-1.4l-1-2.4h-5l-1,2.4H64L68.4,45.6z M68.9,47.2L68.9,47.2l-2.1,4.9h4.1L68.9,47.2z"/>
		<path d="M81.9,45.6h2.5c1.9,0,4,0.3,4,2.7c0,1.4-0.9,2.4-2.5,2.6l2.8,4.6h-1.4l-2.7-4.5h-1.5v4.5h-1.2V45.6z M83.1,50h1.1
			c1.3,0,3,0,3-1.6c0-1.4-1.3-1.6-2.4-1.6h-1.7V50z"/>
		<path d="M92.4,45.6h6.3v1.1h-5.1v3.1h4.7V51h-4.7v3.5h5.3v1.1h-6.5V45.6z"/>
		<path d="M107.5,47.4c-0.4-0.6-1.1-0.9-1.8-0.9c-1,0-2.1,0.5-2.1,1.7c0,0.9,0.5,1.3,2.1,1.8c1.5,0.5,3,1,3,3c0,2-1.7,2.9-3.5,2.9
			c-1.2,0-2.4-0.4-3.1-1.4l1-0.8c0.4,0.7,1.3,1.1,2.1,1.1c1,0,2.2-0.6,2.2-1.7c0-1.2-0.8-1.4-2.6-2c-1.4-0.5-2.5-1.1-2.5-2.7
			c0-1.9,1.6-2.9,3.4-2.9c1.1,0,2.1,0.3,2.8,1.2L107.5,47.4z"/>
		<path d="M112,50.6c0-3,2.2-5.2,5.2-5.2c3,0,5.2,2.2,5.2,5.2c0,3-2.2,5.2-5.2,5.2C114.1,55.8,112,53.6,112,50.6z M121.1,50.6
			c0-2.3-1.6-4.1-3.9-4.1c-2.3,0-3.9,1.8-3.9,4.1s1.6,4.1,3.9,4.1C119.5,54.8,121.1,52.9,121.1,50.6z"/>
		<path d="M133.7,51.8c0,2.2-1,4.1-3.8,4.1c-2.7,0-3.8-1.9-3.8-4.1v-6.2h1.2v6c0,1.6,0.6,3.1,2.6,3.1c2,0,2.6-1.5,2.6-3.1v-6h1.2
			V51.8z"/>
		<path d="M138.1,45.6h2.5c1.9,0,4,0.3,4,2.7c0,1.4-0.9,2.4-2.5,2.6l2.8,4.6h-1.4l-2.7-4.5h-1.5v4.5h-1.2V45.6z M139.3,50h1.1
			c1.3,0,3,0,3-1.6c0-1.4-1.3-1.6-2.4-1.6h-1.7V50z"/>
		<path d="M155.6,47.7c-0.6-0.8-1.5-1.2-2.5-1.2c-2.2,0-3.8,2-3.8,4.1c0,2.3,1.6,4.1,3.8,4.1c1.2,0,2.2-0.5,2.9-1.4l0.9,0.7
			c-0.9,1.2-2.2,1.7-3.8,1.7c-2.9,0-5.1-2.2-5.1-5.2c0-2.9,2.1-5.2,5.1-5.2c1.4,0,2.7,0.5,3.5,1.6L155.6,47.7z"/>
		<path d="M160.5,45.6h6.3v1.1h-5.1v3.1h4.7V51h-4.7v3.5h5.3v1.1h-6.5V45.6z"/>
		<path d="M175.6,47.4c-0.4-0.6-1.1-0.9-1.8-0.9c-1,0-2.1,0.5-2.1,1.7c0,0.9,0.5,1.3,2.1,1.8c1.5,0.5,3,1,3,3c0,2-1.7,2.9-3.5,2.9
			c-1.2,0-2.4-0.4-3.1-1.4l1-0.8c0.4,0.7,1.3,1.1,2.1,1.1c1,0,2.2-0.6,2.2-1.7c0-1.2-0.8-1.4-2.6-2c-1.4-0.5-2.5-1.1-2.5-2.7
			c0-1.9,1.6-2.9,3.4-2.9c1.1,0,2.1,0.3,2.8,1.2L175.6,47.4z"/>
		<path d="M185.5,45.6h1.2v8.9h4.6v1.1h-5.7V45.6z"/>
		<path d="M194.5,45.6h1.2v10h-1.2V45.6z"/>
		<path d="M200.1,45.6h1.8l3.4,7.8h0l3.4-7.8h1.7v10h-1.2v-8.4h0l-3.6,8.4h-0.7l-3.6-8.4h0v8.4h-1.2V45.6z"/>
		<path d="M214.8,45.6h1.2v10h-1.2V45.6z"/>
		<path d="M227.1,46.7h-3.3v8.9h-1.2v-8.9h-3.3v-1.1h7.8V46.7z"/>
		<path d="M230.5,45.6h6.3v1.1h-5.1v3.1h4.7V51h-4.7v3.5h5.3v1.1h-6.5V45.6z"/>
		<path d="M240.6,45.6h3.8c2,0,4.9,1.3,4.9,5c0,3.7-2.9,5-4.9,5h-3.8V45.6z M241.8,54.5h2.3c2.3,0,4-1.2,4-3.9c0-2.7-1.7-3.9-4-3.9
			h-2.3V54.5z"/>
	</g>
</g>
</svg>
