<?xml version="1.0" encoding="UTF-8" standalone="no"?>
<svg
   xmlns:dc="http://purl.org/dc/elements/1.1/"
   xmlns:cc="http://creativecommons.org/ns#"
   xmlns:rdf="http://www.w3.org/1999/02/22-rdf-syntax-ns#"
   xmlns:svg="http://www.w3.org/2000/svg"
   xmlns="http://www.w3.org/2000/svg"
   xmlns:sodipodi="http://sodipodi.sourceforge.net/DTD/sodipodi-0.dtd"
   xmlns:inkscape="http://www.inkscape.org/namespaces/inkscape"
   viewBox="0 0 6108.333 757.94183"
   height="757.94183"
   width="6108.333"
   xml:space="preserve"
   id="svg2"
   version="1.1"
   sodipodi:docname="somnomed-logo.svg"
   inkscape:version="0.92.1 r15371"><sodipodi:namedview
     pagecolor="#ffffff"
     bordercolor="#666666"
     borderopacity="1"
     objecttolerance="10"
     gridtolerance="10"
     guidetolerance="10"
     inkscape:pageopacity="0"
     inkscape:pageshadow="2"
     inkscape:window-width="2560"
     inkscape:window-height="1377"
     id="namedview4515"
     showgrid="false"
     fit-margin-top="0"
     fit-margin-left="0"
     fit-margin-right="0"
     fit-margin-bottom="0"
     inkscape:zoom="0.22890316"
     inkscape:cx="3335.5795"
     inkscape:cy="231.11209"
     inkscape:window-x="-8"
     inkscape:window-y="-8"
     inkscape:window-maximized="1"
     inkscape:current-layer="svg2" /><metadata
     id="metadata8"><rdf:RDF><cc:Work
         rdf:about=""><dc:format>image/svg+xml</dc:format><dc:type
           rdf:resource="http://purl.org/dc/dcmitype/StillImage" /><dc:title></dc:title></cc:Work></rdf:RDF></metadata><defs
     id="defs6"><clipPath
       id="clipPath18"
       clipPathUnits="userSpaceOnUse"><path
         id="path16"
         d="M 0,576 H 4680 V 0 H 0 Z"
         inkscape:connector-curvature="0" /></clipPath></defs><g
     transform="matrix(1.3333333,0,0,-1.3333333,-88.500482,763.10872)"
     id="g10"><g
       id="g12"><g
         clip-path="url(#clipPath18)"
         id="g14"><g
           transform="translate(1261.4878,146.9687)"
           id="g20"><path
             id="path22"
             style="fill:#6d7071;fill-opacity:1;fill-rule:nonzero;stroke:none"
             d="m 0,0 c 15.426,-27.499 46.95,-63.718 101.947,-63.718 50.303,0 92.557,32.865 92.557,87.193 0,42.254 -27.498,60.363 -48.29,71.764 l -21.463,12.074 c -31.523,17.438 -83.837,48.291 -84.508,121.397 0,61.034 42.925,150.238 172.371,150.238 48.291,0 75.118,-10.731 97.252,-20.791 L 295.11,287.061 c -14.085,18.78 -45.608,44.267 -88.533,44.267 -42.925,0 -85.85,-25.487 -85.85,-77.131 0,-43.596 26.829,-59.693 46.279,-71.095 l 22.133,-13.414 c 55.669,-34.205 87.863,-59.022 87.863,-118.044 0,-65.729 -46.95,-163.651 -187.798,-163.651 -54.997,0 -81.155,11.402 -107.983,22.803 z"
             inkscape:connector-curvature="0" /></g><g
           transform="translate(1832.9336,252.9395)"
           id="g24"><path
             id="path26"
             style="fill:#6d7071;fill-opacity:1;fill-rule:nonzero;stroke:none"
             d="m 0,0 c 0,66.4 -36.218,97.252 -74.448,97.252 -89.204,0 -114.02,-124.08 -114.02,-173.711 0,-65.73 37.559,-96.583 74.447,-96.583 C -20.792,-173.042 0,-36.889 0,0 m -116.703,-218.648 c -87.192,0 -154.933,58.351 -154.933,149.566 0,142.19 107.984,212.614 194.505,212.614 91.886,0 159.628,-61.035 159.628,-154.933 0,-91.886 -63.047,-207.247 -199.2,-207.247"
             inkscape:connector-curvature="0" /></g><g
           transform="translate(2379.5576,43.6797)"
           id="g28"><path
             id="path30"
             style="fill:#6d7071;fill-opacity:1;fill-rule:nonzero;stroke:none"
             d="m 0,0 c -9.39,0 -40.912,2.684 -40.912,38.23 0,6.037 2.012,18.11 12.743,69.753 l 20.121,95.242 C -2.683,228.04 0,242.796 0,252.856 c 0,33.535 -25.485,52.315 -54.997,52.315 -55.669,0 -70.423,-41.584 -77.13,-73.777 L -181.09,0 h -79.813 l 41.584,194.504 c 4.024,18.78 8.048,34.878 8.048,52.986 0,35.548 -24.816,57.681 -59.022,57.681 -25.487,0 -52.315,-13.414 -59.693,-18.109 L -391.02,0 h -79.813 l 73.106,344.072 h 142.86 c 59.693,0 80.484,-6.036 107.984,-35.547 22.133,21.462 58.351,40.912 109.995,40.912 35.546,0 116.033,-10.06 116.033,-91.886 0,-23.476 -5.366,-44.267 -10.063,-67.07 L 28.17,0 Z"
             inkscape:connector-curvature="0" /></g><g
           transform="translate(2527.7861,387.7515)"
           id="g32"><path
             id="path34"
             style="fill:#6d7071;fill-opacity:1;fill-rule:nonzero;stroke:none"
             d="m 0,0 h 129.445 c 46.28,0 149.569,-4.694 149.569,-96.582 0,-15.425 -3.355,-38.23 -10.732,-72.435 l -37.559,-175.055 h -28.841 c -28.17,0 -40.242,16.769 -40.242,38.231 0,10.061 2.012,22.133 8.718,52.986 l 22.805,102.616 c 5.365,25.489 6.706,36.219 6.706,48.963 0,24.145 -14.754,57.009 -67.069,57.009 -30.853,0 -55.669,-10.731 -67.071,-16.767 L 5.366,-344.072 h -78.473 z"
             inkscape:connector-curvature="0" /></g><g
           transform="translate(3106.6074,252.9395)"
           id="g36"><path
             id="path38"
             style="fill:#6d7071;fill-opacity:1;fill-rule:nonzero;stroke:none"
             d="m 0,0 c 0,66.4 -36.217,97.252 -74.448,97.252 -89.202,0 -114.02,-124.08 -114.02,-173.711 0,-65.73 37.561,-96.583 74.448,-96.583 C -20.791,-173.042 0,-36.889 0,0 m -116.702,-218.648 c -87.191,0 -154.933,58.351 -154.933,149.566 0,142.19 107.985,212.614 194.505,212.614 91.886,0 159.627,-61.035 159.627,-154.933 0,-91.886 -63.046,-207.247 -199.199,-207.247"
             inkscape:connector-curvature="0" /></g><g
           transform="translate(3638.4785,43.6797)"
           id="g40"><path
             id="path42"
             style="fill:#6d7071;fill-opacity:1;fill-rule:nonzero;stroke:none"
             d="M 0,0 89.202,419.861 C 71.766,412.483 70.424,403.765 58.35,378.949 L -70.426,112.008 C -109.997,29.512 -133.471,0 -213.285,0 h -36.889 l -22.133,366.206 c -2.011,39.57 -2.682,52.984 -11.402,52.984 -6.707,0 -8.719,-4.694 -15.427,-37.558 L -379.62,0 h -70.424 l 100.607,473.518 h 144.872 L -179.75,51.644 c 13.414,6.037 16.769,12.745 32.865,46.95 l 130.117,279.684 c 27.498,59.693 51.644,95.24 114.691,95.24 h 81.154 L 78.472,0 Z"
             inkscape:connector-curvature="0" /></g><g
           transform="translate(3906.0938,195.2588)"
           id="g44"><path
             id="path46"
             style="fill:#6d7071;fill-opacity:1;fill-rule:nonzero;stroke:none"
             d="m 0,0 c 0,24.817 12.072,53.657 44.938,53.657 18.78,0 31.523,-5.366 50.302,-5.366 14.755,0 47.62,3.355 47.62,45.608 0,36.219 -26.828,62.376 -61.034,62.376 -70.424,0 -116.703,-84.509 -116.703,-163.652 0,-95.91 75.79,-109.324 106.643,-109.324 57.009,0 94.569,32.192 114.69,55.668 l -16.097,-79.815 c -20.122,-9.389 -57.68,-20.12 -107.312,-20.12 -140.179,0 -181.762,79.813 -181.762,154.933 0,108.653 83.838,207.247 199.87,207.247 100.606,0 139.508,-64.387 139.508,-112.008 C 220.663,10.062 154.933,0 99.265,0 Z"
             inkscape:connector-curvature="0" /></g><g
           transform="translate(4401.0752,241.5381)"
           id="g48"><path
             id="path50"
             style="fill:#6d7071;fill-opacity:1;fill-rule:nonzero;stroke:none"
             d="m 0,0 c 5.364,24.815 7.377,36.217 7.377,48.291 0,38.23 -22.804,64.388 -61.704,64.388 -61.034,0 -126.094,-60.364 -126.094,-169.69 0,-11.401 1.342,-99.263 84.511,-99.263 30.85,0 52.985,8.718 66.399,16.767 z m -93.229,-197.858 c -81.155,0 -169.017,37.559 -169.017,149.568 0,79.813 57.01,200.54 211.942,200.54 36.219,0 65.73,-6.707 79.815,-13.414 L 67.74,319.255 h 79.145 L 36.217,-197.858 Z"
             inkscape:connector-curvature="0" /></g><g
           transform="translate(4606.4502,532.4687)"
           id="g52"><path
             id="path54"
             style="fill:#6d7071;fill-opacity:1;fill-rule:nonzero;stroke:none"
             d="m 0,0 h 3.84 c 4.694,0 8.321,1.493 8.321,5.12 0,3.2 -2.348,5.334 -7.681,5.334 C 2.347,10.454 0.854,10.24 0,10.027 Z M -0.213,-19.628 H -8.32 v 34.989 c 3.2,0.426 7.68,1.066 13.44,1.066 6.828,0 9.814,-1.066 12.161,-2.773 2.134,-1.494 3.627,-4.054 3.627,-7.467 0,-4.267 -3.201,-7.041 -7.254,-8.321 V -2.56 c 3.413,-1.067 5.12,-3.841 6.187,-8.534 1.067,-5.334 1.921,-7.254 2.56,-8.534 h -8.534 c -1.067,1.28 -1.706,4.267 -2.773,8.534 -0.641,3.627 -2.987,5.334 -7.467,5.334 h -3.84 z M 5.12,26.454 c -15.147,0 -26.667,-12.587 -26.667,-27.948 0,-15.574 11.52,-27.948 27.093,-27.948 15.362,-0.213 26.669,12.374 26.669,27.735 0,15.574 -11.307,28.161 -26.882,28.161 z m 0.641,7.041 c 19.841,0 35.414,-15.361 35.414,-34.989 0,-19.627 -15.573,-35.201 -35.629,-35.201 -20.054,0 -36.055,15.574 -36.055,35.201 0,19.628 16.001,34.989 36.055,34.989 z"
             inkscape:connector-curvature="0" /></g><g
           transform="translate(620.0264,512.957)"
           id="g56"><path
             id="path58"
             style="fill:#5078b6;fill-opacity:1;fill-rule:nonzero;stroke:none"
             d="m 0,0 c 39.866,22.088 177.242,65.186 327.546,58.721 150.306,-6.465 234.886,-36.633 273.135,-91.583 38.25,-54.951 15.623,-130.372 -72.728,-209.566 -88.351,-79.192 -164.312,-110.977 -164.312,-110.977 0,0 22.088,29.764 2.29,61.28 -19.798,31.516 -105.456,65.051 -139.8,76.769 -34.344,11.717 -129.295,45.657 -185.457,73.536 -56.162,27.879 -86.87,56.97 -85.254,89.698 C -42.963,-19.395 0,0 0,0"
             inkscape:connector-curvature="0" /></g><g
           transform="translate(308.3726,407.501)"
           id="g60"><path
             id="path62"
             style="fill:#00559f;fill-opacity:1;fill-rule:nonzero;stroke:none"
             d="m 0,0 c -5.311,-2.94 8.361,4.536 9.341,5.181 8.766,5.765 -143.888,-72.266 -208.939,-159.122 -72.324,-96.567 -35.556,-152.326 -10.506,-176.164 25.051,-23.839 75.961,-57.374 179.397,-69.092 103.436,-11.717 261.417,1.616 338.186,18.99 76.769,17.374 151.921,35.557 241.215,82.021 89.294,46.465 73.536,98.183 53.738,115.154 -19.798,16.97 -64.243,40 -153.537,69.495 -89.294,29.495 -172.124,61.011 -214.145,86.466 -42.02,25.455 -82.829,58.99 -73.536,99.799 C 161.214,72.728 67.88,37.576 0,0"
             inkscape:connector-curvature="0" /></g></g></g></g></svg>