<?xml version="1.0" encoding="utf-8"?>
<!-- Generator: Adobe Illustrator 21.1.0, SVG Export Plug-In . SVG Version: 6.00 Build 0)  -->
<svg version="1.1" id="Layer_1" xmlns="http://www.w3.org/2000/svg" xmlns:xlink="http://www.w3.org/1999/xlink" x="0px" y="0px"
	 viewBox="0 0 745 235" style="enable-background:new 0 0 745 235;" xml:space="preserve">
<style type="text/css">
	.st0{fill:#292B68;}
	.st1{fill:#FFFFFF;}
</style>
<g>
	<g>
		<path class="st0" d="M116.9,0C63,0,17.7,36.4,4.1,86h17.1c-0.8,2.8-6.1,5.6-6.6,8.5l-12.4,0C0.7,101.7,0,109.2,0,116.9
			c0,64.5,52.3,116.9,116.9,116.9c64.5,0,116.9-52.3,116.9-116.9S181.4,0,116.9,0z"/>
	</g>
	<path class="st1" d="M116.9,9.3c-42.5,0-81.2,25.1-98.4,64v0c-0.6,1.4-1.2,2.8-1.7,4.1h5.4v0H60v87.3h9.5v-42.9h34.7v-8.4H69.6v-36
		h28.9c1.9,0,3,1,3,3v6.4h8.9v-9.5c0-4.6-3.7-8.3-8.3-8.3H28.5C46,36.8,79.8,16.4,116.9,16.4c56.7,0,102.6,47.2,100.4,104.5
		c-2,52.1-44.3,94.4-96.4,96.4c-57.2,2.2-104.5-43.7-104.5-100.4c0-10.6,1.6-21,4.8-30.9h-7.4H4.1c-0.8,2.8-1.4,5.6-2,8.5l9.5,0
		c-1.6,7.3-2.3,14.8-2.3,22.4c0,60.7,50.6,109.9,111.8,107.5c55.8-2.2,101.1-47.4,103.3-103.3C226.7,59.9,177.6,9.3,116.9,9.3z"/>
	<path class="st1" d="M177.2,146.9v6.4c0,2-1.1,3-3,3h-30.6h-3c-1.9,0-3-1-3-3v-32.6h36v-8.4h-36V77.4h32.7c1.9,0,3,1,3,3v6.4h9
		v-9.5c0-5.9-2.5-8.3-8.3-8.3h-54.8v8.4h8.9v78.9h-8.9v8.4h17.2h7.3h34.1c5.9,0,8.3-2.5,8.3-8.3v-9.5H177.2z"/>
</g>
<g>
	<g>
		<path class="st0" d="M267.3,144h6.1V90.6h-6.1v-5.7h18.5v5.7h-6.2V144h6.2v5.7h-18.5V144z"/>
		<path class="st0" d="M296.2,110.8c0-1.3-0.7-2-2-2h-3.9v-5.4h6.4c3.9,0,5.6,1.7,5.6,5.2v2.1c0,1.8-0.2,3.3-0.2,3.3h0.2
			c1.7-4.2,7.6-11.7,18.4-11.7c11.5,0,15.6,6.5,15.6,18v22c0,1.4,0.7,2,2,2h3.9v5.4h-6.5c-4,0-5.6-1.7-5.6-5.6v-22.2
			c0-7.3-1.1-13.7-10-13.7c-7.9,0-14.7,5.4-16.9,13.1c-0.6,1.9-0.7,4.1-0.7,6.3v22.2h-6.3V110.8z"/>
		<path class="st0" d="M344.4,110.9c-0.6-1.7-1.6-2.1-3.2-2.1h-0.8v-5.4h2.5c4.4,0,5.8,0.9,7.4,5.1l11.1,28.9
			c0.8,2.3,1.6,5.4,1.6,5.4h0.2c0,0,0.7-3.1,1.6-5.4l11.1-28.9c1.6-4.1,2.9-5.1,7.3-5.1h2.4v5.4h-0.8c-1.7,0-2.7,0.5-3.2,2.1
			l-15.1,38.8h-6.8L344.4,110.9z"/>
		<path class="st0" d="M409,102.2c12.8,0,19.4,9.9,19.4,21.4c0,1.1-0.2,3.1-0.2,3.1h-35.5c0.2,11.7,8.4,18.4,18,18.4
			c8.5,0,13.9-5.7,13.9-5.7l3,4.7c0,0-6.7,6.6-17.2,6.6c-13.7,0-24.2-9.9-24.2-24.2C386.1,111.4,396.6,102.2,409,102.2z M422,121.8
			c-0.4-9.6-6.3-14.3-13.1-14.3c-7.6,0-14.4,5-15.9,14.3H422z"/>
		<path class="st0" d="M437.3,138.3c0,0,5.2,7,14.3,7c5.2,0,9.8-2.5,9.8-7.4c0-10.1-26-8.3-26-23.2c0-8.4,7.2-12.5,16.5-12.5
			c4.7,0,14.1,1.8,14.1,8.4v4h-5.9v-2.2c0-3.4-5-4.7-8-4.7c-6.4,0-10.3,2.2-10.3,6.7c0,10.4,26,8,26,23.4c0,7.7-7,13-16.2,13
			c-12.1,0-17.8-8.1-17.8-8.1L437.3,138.3z"/>
		<path class="st0" d="M478.3,108.6h-6.1v-5.3h6.2V90.5h6.2v12.8h11.6v5.3h-11.6v23.6c0,10.9,6.9,12.2,10.4,12.2
			c1.3,0,2.1-0.2,2.1-0.2v5.6c0,0-1.1,0.2-2.7,0.2c-5.3,0-16.1-1.8-16.1-17.2V108.6z"/>
		<path class="st0" d="M506.8,110.8c0-1.3-0.7-2-2-2h-3.9v-5.4h6.4c3.9,0,5.6,1.7,5.6,5.2v2.1c0,1.8-0.2,3.3-0.2,3.3h0.2
			c2.3-6.3,9.6-11.7,16.8-11.7c8.6,0,13,4,14.4,11.6h0.2c2.5-6.3,9.2-11.6,17-11.6c11.2,0,15.4,6.5,15.4,18v22c0,1.4,0.7,2,2,2h3.9
			v5.4H576c-4,0-5.6-1.7-5.6-5.6v-22.3c0-7.6-1.6-13.8-10-13.8c-7,0-12.8,6.3-14.6,13.1c-0.6,2-0.8,4.2-0.8,6.7v21.9h-6.3v-27.9
			c0-7-1-13.8-9.8-13.8c-7.6,0-13.2,6.5-15.1,13.6c-0.6,1.9-0.7,4.1-0.7,6.2v21.9h-6.3V110.8z"/>
		<path class="st0" d="M605.5,102.2c12.8,0,19.4,9.9,19.4,21.4c0,1.1-0.2,3.1-0.2,3.1h-35.5c0.2,11.7,8.4,18.4,18,18.4
			c8.5,0,13.9-5.7,13.9-5.7l3,4.7c0,0-6.7,6.6-17.2,6.6c-13.7,0-24.2-9.9-24.2-24.2C582.7,111.4,593.1,102.2,605.5,102.2z
			 M618.5,121.8c-0.4-9.6-6.3-14.3-13.1-14.3c-7.6,0-14.4,5-15.9,14.3H618.5z"/>
		<path class="st0" d="M635.6,110.8c0-1.3-0.7-2-2-2h-3.9v-5.4h6.4c3.9,0,5.6,1.7,5.6,5.2v2.1c0,1.8-0.2,3.3-0.2,3.3h0.2
			c1.7-4.2,7.6-11.7,18.4-11.7c11.5,0,15.6,6.5,15.6,18v22c0,1.4,0.7,2,2,2h3.9v5.4h-6.5c-4,0-5.6-1.7-5.6-5.6v-22.2
			c0-7.3-1.1-13.7-10-13.7c-7.9,0-14.7,5.4-16.9,13.1c-0.6,1.9-0.7,4.1-0.7,6.3v22.2h-6.3V110.8z"/>
		<path class="st0" d="M687.9,108.6h-6.1v-5.3h6.2V90.5h6.2v12.8h11.6v5.3h-11.6v23.6c0,10.9,6.9,12.2,10.4,12.2
			c1.3,0,2.1-0.2,2.1-0.2v5.6c0,0-1.1,0.2-2.7,0.2c-5.3,0-16.1-1.8-16.1-17.2V108.6z"/>
		<path class="st0" d="M714.6,138.3c0,0,5.2,7,14.3,7c5.2,0,9.8-2.5,9.8-7.4c0-10.1-26-8.3-26-23.2c0-8.4,7.2-12.5,16.5-12.5
			c4.7,0,14.1,1.8,14.1,8.4v4h-5.9v-2.2c0-3.4-5-4.7-8-4.7c-6.4,0-10.3,2.2-10.3,6.7c0,10.4,26,8,26,23.4c0,7.7-7,13-16.2,13
			c-12.1,0-17.8-8.1-17.8-8.1L714.6,138.3z"/>
	</g>
</g>
<g>
	<path class="st0" d="M272.2,174.9c-0.2-0.8-0.8-0.9-1.6-0.9h-0.5v-2.7h1.3c2.2,0,3.1,0.4,3.7,2.5l5.3,20.9c0.4,1.5,0.6,3.2,0.6,3.2
		h0.1c0,0,0.4-1.7,0.8-3.2l6.7-23.2h3l6.1,23.2c0.4,1.5,0.7,3.2,0.7,3.2h0.1c0,0,0.3-1.7,0.7-3.2l5.3-20.9c0.5-2.1,1.5-2.5,3.7-2.5
		h1.3v2.7h-0.5c-0.9,0-1.4,0.1-1.6,0.9l-7,26.6h-3.6l-5.6-21c-0.5-1.9-1-4.5-1-4.5H290c0,0-0.5,2.5-1.1,4.4l-6.2,21.1h-3.6
		L272.2,174.9z"/>
	<path class="st0" d="M319.7,179.4c6,0,9.1,4.6,9.1,10c0,0.5-0.1,1.5-0.1,1.5h-16.6c0.1,5.5,3.9,8.6,8.4,8.6c4,0,6.5-2.7,6.5-2.7
		l1.4,2.2c0,0-3.1,3.1-8,3.1c-6.4,0-11.3-4.6-11.3-11.3C309.1,183.7,313.9,179.4,319.7,179.4z M325.8,188.5
		c-0.2-4.5-2.9-6.7-6.1-6.7c-3.6,0-6.7,2.3-7.4,6.7H325.8z"/>
	<path class="st0" d="M346.3,174h-2.8v-2.7h12.9c4.7,0,8.2,2.9,8.2,7.6c0,3.3-1.7,5.5-3.9,6.6v0.1c3.1,0.9,5.1,3.8,5.1,7.5
		c0,5.4-4,8.5-9,8.5h-7.8c-1.9,0-2.6-0.8-2.6-2.6V174z M356.3,184.4c3.1,0,5.1-2.2,5.1-5.3c0-3.1-2-5.2-5.2-5.2h-7v10.5H356.3z
		 M350.3,198.9h6.5c3.7,0,5.9-2.3,5.9-5.9c0-3.6-2.4-6-5.9-6h-7.4v10.9C349.3,198.6,349.7,198.9,350.3,198.9z"/>
	<path class="st0" d="M382.4,188.2h1.2V188c0-4.5-1.6-6.1-5.6-6.1c-1.1,0-4.2,0.3-4.2,1.9v1.4H371v-2.1c0-3,5.2-3.7,7.1-3.7
		c6.8,0,8.5,3.7,8.5,8.3v10.4c0,0.6,0.3,0.9,0.9,0.9h1.8v2.5h-3c-1.9,0-2.6-0.8-2.6-2.6c0-0.9,0-1.6,0-1.6h-0.1c0,0-1.8,4.7-7.2,4.7
		c-3.6,0-7.4-2.1-7.4-6.4C369.1,188.5,378.7,188.2,382.4,188.2z M377,199.6c4.1,0,6.6-4.3,6.6-8v-1h-1.2c-3.4,0-10.2,0.1-10.2,4.9
		C372.2,197.5,373.8,199.6,377,199.6z"/>
	<path class="st0" d="M402.9,179.4c2.5,0,7.7,1,7.7,4.6v1.9h-2.8v-1.2c0-1.8-3.1-2.7-4.9-2.7c-4.6,0-8.4,3.5-8.4,8.7
		c0,5.3,3.9,8.7,8.5,8.7c4.4,0,7-3.1,7-3.1l1.4,2.2c0,0-2.9,3.5-8.5,3.5c-6.5,0-11.4-4.6-11.4-11.3
		C391.5,184.1,396.4,179.4,402.9,179.4z"/>
	<path class="st0" d="M415.5,174.8c0-0.6-0.3-0.9-0.9-0.9h-1.8v-2.5h3.1c1.9,0,2.6,0.6,2.6,2.5v14.4h2.2c0.8,0,1.9-0.3,2.5-1
		l5.6-7.2h3.6l-6.2,7.9c-1.1,1.3-1.6,1.5-1.6,1.5v0.1c0,0,0.6,0.3,1.3,1.6l3.9,7c0.4,0.7,0.8,0.9,2,0.9h1.2v2.5h-2
		c-2.2,0-2.8-0.3-3.7-2.2l-4.3-7.7c-0.5-0.9-1.5-0.9-2.3-0.9h-2v10.8h-2.9V174.8z"/>
	<path class="st0" d="M447.7,195.6c0,0,3.1,3.7,7.8,3.7c3.3,0,6-2.2,6-5.4c0-7.5-14.9-6-14.9-15.4c0-4.2,3.7-7.7,9.3-7.7
		c2.9,0,8.2,1.2,8.2,5.2v2.2h-2.8v-1.4c0-1.8-2.5-3.1-5.3-3.1c-3.9,0-6.2,2.3-6.2,4.9c0,7,14.9,5.3,14.9,15.3c0,4.5-3.5,8.4-9.2,8.4
		c-6.2,0-9.6-4.3-9.6-4.3L447.7,195.6z"/>
	<path class="st0" d="M469.9,183.4c0-0.6-0.3-0.9-0.9-0.9h-1.8v-2.5h3.1c1.8,0,2.6,0.8,2.6,2.5v10.5c0,3.4,0.6,6.4,4.7,6.4
		c4.9,0,8-4.3,8-9v-10.4h2.9v18.2c0,0.6,0.3,0.9,0.9,0.9h1.8v2.5h-3c-1.8,0-2.6-0.8-2.6-2.4v-1c0-0.9,0.1-1.6,0.1-1.6h-0.1
		c-0.9,2.1-3.7,5.5-8.4,5.5c-5.1,0-7.3-2.8-7.3-8.4V183.4z"/>
	<path class="st0" d="M504.9,179.4c2.5,0,7.7,1,7.7,4.6v1.9h-2.8v-1.2c0-1.8-3.1-2.7-4.9-2.7c-4.6,0-8.4,3.5-8.4,8.7
		c0,5.3,3.9,8.7,8.5,8.7c4.4,0,7-3.1,7-3.1l1.4,2.2c0,0-2.9,3.5-8.5,3.5c-6.5,0-11.4-4.6-11.4-11.3
		C493.5,184.1,498.5,179.4,504.9,179.4z"/>
	<path class="st0" d="M527.2,179.4c2.5,0,7.7,1,7.7,4.6v1.9h-2.8v-1.2c0-1.8-3.1-2.7-4.9-2.7c-4.6,0-8.4,3.5-8.4,8.7
		c0,5.3,3.9,8.7,8.5,8.7c4.4,0,7-3.1,7-3.1l1.4,2.2c0,0-2.9,3.5-8.5,3.5c-6.5,0-11.4-4.6-11.4-11.3
		C515.8,184.1,520.8,179.4,527.2,179.4z"/>
	<path class="st0" d="M548.8,179.4c6,0,9.1,4.6,9.1,10c0,0.5-0.1,1.5-0.1,1.5h-16.6c0.1,5.5,3.9,8.6,8.4,8.6c4,0,6.5-2.7,6.5-2.7
		l1.4,2.2c0,0-3.1,3.1-8,3.1c-6.4,0-11.3-4.6-11.3-11.3C538.1,183.7,543,179.4,548.8,179.4z M554.9,188.5c-0.2-4.5-2.9-6.7-6.1-6.7
		c-3.6,0-6.7,2.3-7.4,6.7H554.9z"/>
	<path class="st0" d="M562.5,196.3c0,0,2.4,3.3,6.7,3.3c2.4,0,4.6-1.2,4.6-3.4c0-4.7-12.1-3.9-12.1-10.8c0-3.9,3.4-5.9,7.7-5.9
		c2.2,0,6.6,0.9,6.6,3.9v1.9h-2.8v-1c0-1.6-2.3-2.2-3.7-2.2c-3,0-4.8,1-4.8,3.1c0,4.9,12.1,3.7,12.1,10.9c0,3.6-3.3,6.1-7.6,6.1
		c-5.6,0-8.3-3.8-8.3-3.8L562.5,196.3z"/>
	<path class="st0" d="M581,196.3c0,0,2.4,3.3,6.7,3.3c2.4,0,4.6-1.2,4.6-3.4c0-4.7-12.1-3.9-12.1-10.8c0-3.9,3.4-5.9,7.7-5.9
		c2.2,0,6.6,0.9,6.6,3.9v1.9h-2.8v-1c0-1.6-2.3-2.2-3.7-2.2c-3,0-4.8,1-4.8,3.1c0,4.9,12.1,3.7,12.1,10.9c0,3.6-3.3,6.1-7.6,6.1
		c-5.6,0-8.3-3.8-8.3-3.8L581,196.3z"/>
</g>
</svg>
