<?xml version="1.0" encoding="utf-8"?><svg xmlns="http://www.w3.org/2000/svg" width="165" height="60" viewBox="0 0 165 60"><path fill="#9B9B9B" d="M162.5 14.4c-2.9-3.1-7.4-3.8-11.2-3.7-3.4-.1-6.4.6-7.2.8-5.5 1.5-7.3 4-8.6 6.5-2.1 3.9-2.3 7.9-2.7 10.3-1.6-.3-5.7-.8-10.1-.8-3.1 0-6.5.2-9.3 1.1-15.5 4.8-18.2 18.6-10.6 25.9 3.1 3 7.8 4.7 12.8 4.6 5 .1 10.4-1.6 15.4-5.6 6.6-5.3 7.8-14.3 8.4-19.4.2-2 .4-3.3.4-3.6 1 .1 2.8.3 5.1.3 4.7 0 11.7-.7 16.5-4.8 4.8-4.4 3.1-9.5 1.1-11.6M132.3 32c-.7 5.1-.9 12.4-6.4 18.7-3.8 4.4-9.1 6.5-13.6 6.6-2.9-.1-5.5-1-7.1-2.7-6.3-7-1.2-15.8 1-18.4 4.4-5 11.6-7.4 19.5-7.4 2.2 0 4.5.2 6.8.6-.1 1.1-.1 1.8-.2 2.6zm24.5-10.6c-2.3 5.7-7.3 8.1-13.2 8.2-1.2 0-2.5-.1-3.7-.3l.3-3c.4-3.6 1.7-7.4 4.4-11 1.4-1.8 3.6-3.1 5.8-3.6 0 0 1.2-.3 2.5-.1.5.1 1 .2 1.4.4.1 0 .1.1.2.1.1.1.3.1.4.2.1 0 .2.1.2.1 2.9 1.9 3.1 5.5 1.7 9zM3.2 1.7H.5V1h9.6c3.8 0 6.1 1.8 6.1 5.8s-2.4 5.7-5.5 5.7H6.6V21h2.6v.7H.5V21h2.7V1.7m3.4 9.9h2.3c3.4 0 3.8-1.7 3.8-5.1 0-2.8-.8-4.8-3.6-4.8H6.6v9.9zM20.2 13.8v.2c0 4.1.6 7.2 4.3 7.2 2.7 0 4-1.6 4.7-3.7l.6.2c-1.3 3.4-3.2 4.4-6.4 4.4-4.4 0-6.6-3.4-6.6-7.5 0-3.9 2.5-7.5 6.8-7.5 3.7 0 6.3 2.7 6.3 6.6h-9.7m6.2-.8c0-2.1-.1-4.9-3.1-4.9-2.5 0-3.1 3.1-3.1 4.9h6.2zM34 8.3h-2.5v-.7H37v3.3h.1c.6-1.7 1.9-3.7 4.1-3.7 1.7 0 2.7 1.1 2.7 2.8 0 1.2-.5 1.9-1.5 1.9-.8 0-1.5-.6-1.5-1.5 0-.4.1-1.1.1-1.5 0-.4-.3-.7-.7-.7-1.5 0-3.2 3.3-3.2 6.5v6.4h2.4v.7h-7.9v-.7H34V8.3M44.5 27.5h2.6V8.3h-2.4v-.7H50v2.1h.1c.9-1.8 2.3-2.5 4.2-2.5 3.1 0 5.5 2.1 5.5 7.5 0 4-1.5 7.5-6 7.5-1.7 0-3.1-.6-3.8-2v7.3h2.5v.7h-8.1v-.7m5.5-11.8c0 2.5.5 5.6 3.4 5.6 2.4 0 3.3-2.4 3.3-6.6 0-3.7-.6-6.6-3.3-6.6-1.3 0-3.4.9-3.4 5.2v2.4zM65.6 13.8v.2c0 4.1.6 7.2 4.3 7.2 2.7 0 4-1.6 4.7-3.7l.6.2c-1.3 3.4-3.2 4.4-6.4 4.4-4.4 0-6.6-3.4-6.6-7.5 0-3.9 2.5-7.5 6.8-7.5 3.7 0 6.3 2.7 6.3 6.6h-9.7m6.3-.8c0-2.1-.1-4.9-3.1-4.9-2.5 0-3.1 3.1-3.1 4.9h6.2zM76.9 7.6h2V3.7h3v3.9h3.2v.7h-3.2v10.1c0 1.7.3 2.5 1.5 2.5 1.1 0 1.6-.8 2-1.7l.7.3-.2.5c-.6 1-1.6 2-3.7 2-3 0-3.3-1.7-3.3-3.6V8.3h-2v-.7M99 19.1c-1 2-2.7 3.1-5.1 3.1-2.9 0-4.3-1.2-4.3-4.1V8.3h-2.3v-.7h5.3V18c0 1.6.3 3.2 2.3 3.2 2.7 0 4.1-2.6 4.1-5.3V8.3h-2.7v-.7h5.6v13.5h2.5v.7H99v-2.7M111.7 13.4c1.2-.3 2.1-.6 3.2-.9v-1.2c0-2-.4-3.3-2.3-3.3-1.5 0-2.4.4-2.4 2.4 0 1.1-.4 1.5-1.5 1.5-.8 0-1.3-.2-1.3-1.1 0-2.8 2.8-3.5 5.2-3.5 4.5 0 5.3 1.8 5.3 4.2v7.4c0 2.2.7 2.2 2.3 2.2v.7H118c-1.6 0-2.8-.1-3.2-1.9-1.1 1.7-2.6 2.2-4.5 2.2-3 0-4-1.6-4-4.2 0-2.4 1.3-3.5 3.7-4.1l1.7-.4m.2.8c-1.8.5-2.3 1.2-2.3 3.7 0 1.8.3 3.3 1.9 3.3 2.5 0 3.4-3.2 3.4-5.2v-2.8l-3 1z"/><path fill="#9B9B9B" d="M121.3 1h5.4v20.1h2.5v.7h-7.9v-.7h2.5V1.7h-2.5V1"/></svg>