<?xml version="1.0" encoding="utf-8"?>
<!-- Generator: Adobe Illustrator 15.0.0, SVG Export Plug-In . SVG Version: 6.00 Build 0)  -->
<!DOCTYPE svg PUBLIC "-//W3C//DTD SVG 1.1//EN" "http://www.w3.org/Graphics/SVG/1.1/DTD/svg11.dtd">
<svg version="1.1" id="Layer_1" xmlns="http://www.w3.org/2000/svg" xmlns:xlink="http://www.w3.org/1999/xlink" x="0px" y="0px"
	 width="315px" height="46px" viewBox="0 0 315 46" enable-background="new 0 0 315 46" xml:space="preserve">
<g>
	<g>
		<polygon fill="#08746B" points="27.153,0 52.828,44.465 27.153,29.644 		"/>
		<polygon fill="#EFB045" points="52.105,45.75 0.724,45.75 26.415,30.918 		"/>
		<polygon fill="#C82027" points="25.676,0 25.676,29.644 0,44.465 		"/>
	</g>
	<g>
		<path d="M68.591,31.781l2.184-2.616c1.513,1.248,3.097,2.04,5.017,2.04c1.513,0,2.425-0.6,2.425-1.584v-0.048
			c0-0.937-0.576-1.416-3.385-2.137c-3.384-0.863-5.568-1.8-5.568-5.136v-0.048c0-3.049,2.448-5.064,5.881-5.064
			c2.448,0,4.536,0.768,6.24,2.136l-1.92,2.784c-1.488-1.032-2.952-1.656-4.369-1.656c-1.416,0-2.16,0.648-2.16,1.464v0.049
			c0,1.104,0.721,1.464,3.625,2.208c3.408,0.888,5.328,2.112,5.328,5.04v0.048c0,3.337-2.544,5.209-6.168,5.209
			C73.175,34.469,70.607,33.581,68.591,31.781z"/>
		<path d="M89.832,27.604l-6.456-10.177h4.32l4.009,6.745l4.08-6.745h4.2l-6.457,10.105v6.696h-3.696V27.604z"/>
		<path d="M102.288,17.427h7.681c2.136,0,3.792,0.601,4.896,1.704c0.937,0.937,1.44,2.257,1.44,3.841v0.048
			c0,2.712-1.464,4.416-3.601,5.208l4.104,6.001h-4.32l-3.6-5.377h-2.904v5.377h-3.696V17.427z M109.728,25.588
			c1.8,0,2.832-0.96,2.832-2.376v-0.049c0-1.584-1.104-2.399-2.904-2.399h-3.672v4.824H109.728z"/>
		<path d="M125.399,17.307h3.408l7.201,16.922h-3.864l-1.536-3.769h-7.104l-1.536,3.769h-3.769L125.399,17.307z M129.288,27.197
			l-2.232-5.449l-2.232,5.449H129.288z"/>
		<path d="M138.599,17.427h3.696v6.648h6.816v-6.648h3.696v16.802h-3.696v-6.744h-6.816v6.744h-3.696V17.427z"/>
		<path d="M164.518,17.427h7.057c2.064,0,3.721,0.648,4.729,1.656c0.792,0.792,1.272,1.92,1.272,3.12v0.049
			c0,2.808-2.089,4.416-4.921,4.8l5.545,7.177h-1.584l-5.353-6.961h-5.497v6.961h-1.248V17.427z M171.431,26.14
			c2.808,0,4.896-1.416,4.896-3.84v-0.048c0-2.257-1.776-3.673-4.825-3.673h-5.736v7.561H171.431z"/>
		<path d="M181.87,17.427h11.953v1.152h-10.705v6.601h9.625v1.152h-9.625v6.744h10.825v1.152H181.87V17.427z"/>
		<path d="M196.87,31.781l0.816-0.937c1.848,1.705,3.552,2.497,6.024,2.497c2.521,0,4.248-1.417,4.248-3.337v-0.048
			c0-1.776-0.936-2.809-4.752-3.576c-4.032-0.816-5.665-2.185-5.665-4.729v-0.048c0-2.496,2.28-4.416,5.4-4.416
			c2.448,0,4.057,0.672,5.761,2.04l-0.792,0.983c-1.584-1.368-3.168-1.896-5.017-1.896c-2.472,0-4.104,1.416-4.104,3.168v0.048
			c0,1.776,0.912,2.856,4.896,3.673c3.889,0.792,5.521,2.184,5.521,4.632v0.048c0,2.713-2.328,4.585-5.568,4.585
			C200.95,34.469,198.886,33.581,196.87,31.781z"/>
		<path d="M212.566,25.876v-0.048c0-4.585,3.385-8.689,8.473-8.689c5.089,0,8.425,4.057,8.425,8.641v0.049
			c0,4.584-3.384,8.688-8.473,8.688C215.903,34.517,212.566,30.46,212.566,25.876z M228.167,25.876v-0.048
			c0-4.152-3.024-7.561-7.177-7.561s-7.129,3.359-7.129,7.512v0.049c0,4.152,3.024,7.561,7.177,7.561S228.167,30.029,228.167,25.876
			z"/>
		<path d="M233.446,27.245v-9.817h1.248v9.697c0,3.96,2.136,6.24,5.688,6.24c3.408,0,5.593-2.064,5.593-6.12v-9.817h1.248V27.1
			c0,4.824-2.809,7.393-6.889,7.393C236.302,34.493,233.446,31.949,233.446,27.245z"/>
		<path d="M251.95,17.427h7.057c2.064,0,3.721,0.648,4.729,1.656c0.792,0.792,1.272,1.92,1.272,3.12v0.049
			c0,2.808-2.089,4.416-4.921,4.8l5.545,7.177h-1.584l-5.353-6.961h-5.497v6.961h-1.248V17.427z M258.863,26.14
			c2.808,0,4.896-1.416,4.896-3.84v-0.048c0-2.257-1.776-3.673-4.825-3.673h-5.736v7.561H258.863z"/>
		<path d="M268.557,25.876v-0.048c0-4.753,3.553-8.689,8.401-8.689c3,0,4.8,1.104,6.528,2.688l-0.889,0.912
			c-1.464-1.416-3.144-2.472-5.664-2.472c-4.032,0-7.081,3.288-7.081,7.512v0.049c0,4.248,3.097,7.561,7.105,7.561
			c2.424,0,4.08-0.937,5.784-2.616l0.84,0.815c-1.776,1.753-3.696,2.929-6.673,2.929C272.11,34.517,268.557,30.701,268.557,25.876z"
			/>
		<path d="M287.013,17.427h11.953v1.152h-10.705v6.601h9.625v1.152h-9.625v6.744h10.825v1.152h-12.073V17.427z"/>
		<path d="M302.013,31.781l0.816-0.937c1.848,1.705,3.552,2.497,6.024,2.497c2.521,0,4.248-1.417,4.248-3.337v-0.048
			c0-1.776-0.936-2.809-4.752-3.576c-4.032-0.816-5.665-2.185-5.665-4.729v-0.048c0-2.496,2.28-4.416,5.4-4.416
			c2.448,0,4.057,0.672,5.761,2.04l-0.792,0.983c-1.584-1.368-3.168-1.896-5.017-1.896c-2.472,0-4.104,1.416-4.104,3.168v0.048
			c0,1.776,0.912,2.856,4.896,3.673c3.889,0.792,5.521,2.184,5.521,4.632v0.048c0,2.713-2.328,4.585-5.568,4.585
			C306.093,34.469,304.03,33.581,302.013,31.781z"/>
	</g>
</g>
</svg>
