<svg xmlns="http://www.w3.org/2000/svg" viewBox="0 0 209 42">
  <g>
    <path style="fill:#fff" d="M76 18.5c0-4.7-.6-6.1-2.7-6.1s-2.7 1.5-2.7 6.1v3.2c0 4.8.7 6.1 2.7 6.1 2.1 0 2.7-1.4 2.7-6.1v-3.2zm-2.7 14.4c-5.5 0-9.2-2.7-9.2-11.2v-3.2c0-8.6 3.7-11.3 9.2-11.3 5.5 0 9.2 2.7 9.2 11.3v3.2c0 8.5-3.6 11.2-9.2 11.2z"/>
    <path style="fill:#fff" d="M85.3 10.9h6.3V6.7h-6.3v4.2zm-1.1 21.6v-4.2l1.2-.1V17.7l-1.2-.2v-4.2h7.3v14.8l1.2.1v4.2h-8.5z"/>
    <path style="fill:#fff" d="M94.3 32.5v-4.2l1.2-.2V11l-1.2-.2V6.7h7.3v21.4l1.2.2v4.2z"/>
    <path style="fill:#fff" d="M117.8 32.9c-3.1 0-6-.4-7.4-.8v-5.6h3.9l.3 1.6h2c2 0 2.7-.8 2.7-2.4 0-1.3-.6-2-2.1-3l-2.7-1.8c-2.8-1.9-4.6-3.5-4.6-7 0-4.5 2.7-6.7 8.6-6.7 2.8 0 5.6.5 7 .9v5.4h-3.9l-.3-1.6h-2.1c-1.8 0-2.7.5-2.7 2 0 1.1.6 1.8 2.1 2.7l2.4 1.5c3.3 2.1 5.1 3.9 5.1 7.3-.3 5-3.3 7.5-8.3 7.5"/>
    <path style="fill:#fff" d="M137.7 21.1c0-2.6-.3-3.8-2-3.8s-2 1.2-2 3.8v.3h4v-.3zm-4 3.4v.3c0 2.8.3 3.5 3.2 3.5 1.5 0 4.1-.1 5.9-.3v4c-1.2.4-3.7.9-6.4.9-5.7 0-8.8-1.9-8.8-8.5v-2.7c0-6.1 2.9-8.7 8-8.7 6.1 0 7.9 3.9 7.9 8.9v2.6h-9.8z"/>
    <path style="fill:#fff" d="M154.1 24.1H153c-1.7 0-2.2.3-2.2 2.3v1c0 1.3.4 1.6 1.3 1.6.8 0 1.5-.3 2-.5v-4.4zm.3 8.4v-1c-1 .7-2.8 1.4-4.7 1.4-3.7 0-4.7-2.3-4.7-5.3v-1c0-4.7 3.3-5.4 7.9-5.4h.9v-1.3c0-2.1-.3-2.5-2.4-2.5h-1.1l-.3 1.3h-3.9v-4.6c.9-.3 3.8-1.1 6.7-1.1 4.8 0 7 1.6 7 6.9v8.2l1.2.1v4.2h-6.6z"/>
    <path style="fill:#fff" d="M169.9 18.4v9.7l1.2.1v4.2h-8.5v-4.2l1.2-.1V17.7l-1.2-.2v-4.2h6.8v1.4c1.7-1.6 3.8-1.7 5.1-1.7v4.9c-1.5 0-3.2.2-4.6.5"/>
    <path style="fill:#fff" d="M183 32.9c-5.4 0-7.5-2.8-7.5-8.5v-2.8c0-5.8 2.1-8.5 7.5-8.5 2.6 0 4.9.5 5.6.8V19h-3.7l-.3-1.2h-.6c-1.8 0-2.5.6-2.5 3.9v2.8c0 3.3.6 3.9 2.5 3.9 1.1 0 2.7-.1 4.6-.2v4.1c-1.1.1-3.1.6-5.6.6"/>
    <path style="fill:#fff" d="M201.2 32.5V19.8c0-1.7-.3-2.2-1.4-2.2-.8 0-1.6.3-2.3.7v9.9l1.2.1v4.2h-8.5v-4.2l1.2-.1V11l-1.2-.2V6.7h7.3v7.5c1.3-.7 3-1.1 4.4-1.1 4.8 0 5.4 3.1 5.4 6.7v8.4l1.2.1v4.2h-7.3z"/>
    <g>
      <path style="fill:#fff" d="M53.33 21.1c0 11.5-11.8 20.9-26.3 20.9S.73 32.7.73 21.1 12.53.2 27.03.2s26.3 9.3 26.3 20.9"/>
      <path style="fill:#00335c" d="M36.03 25.3l-4.8-1.7-1-.3c-2 4.8-4.7 8.7-8.2 11.5-1.2 1-2.5 1.9-3.9 2.6.3.2.7.4 1 .6l2.1.9c1.3.5 2.7.8 4.1 1 8.3 1.1 16.6-3.4 20.1-11.1l-9.4-3.5zm-12.4-4.4l-4.8-1.7-9.4-3.4c-1.2 4.1-1 8.3.5 12.1.6 1.6 1.4 3.1 2.5 4.4.2.3.4.6.7.8 5.1-1.9 9-5.9 11.5-11.9l-1-.3zm20.5-6.6c-.6-1.6-1.5-3.1-2.5-4.4-.2-.3-.4-.6-.7-.8-5.1 1.9-9 5.9-11.4 11.8l1 .3 4.8 1.7 9.4 3.4c1.1-4.1.9-8.3-.6-12zm-9.3-10.1l-2.1-.9c-1.4-.5-2.7-.8-4.1-1-8.3-1.1-16.5 3.3-20 11l9.5 3.4 4.8 1.7 1 .3c2-4.8 4.7-8.6 8.2-11.5 1.2-1 2.5-1.8 3.9-2.6-.5 0-.8-.2-1.2-.4zm17.5 16.9c0 11-11.3 19.9-25.3 19.9s-25.3-8.9-25.3-19.9c0-11 11.3-19.9 25.3-19.9s25.3 8.9 25.3 19.9z"/>
      <path style="fill:#009ee0" d="M18.13 16.8l4.8 1.7c2-4.9 4.9-9 8.5-11.9 1.1-.9 2.2-1.7 3.4-2.4l-2.1-.9c-1.4-.5-2.7-.8-4.1-1-4.5 3.6-8.1 8.5-10.5 14.5"/>
      <path style="fill:#009ee0" d="M30.53 21.2l4.8 1.7c2-4.7 4.9-7.5 8.9-8.6-.6-1.6-1.5-3.1-2.5-4.4-5.1 1.7-8.8 5.5-11.2 11.3"/>
      <path style="fill:#009ee0" d="M23.63 20.9l-4.8-1.7c-2 4.7-4.9 7.5-8.9 8.7.6 1.6 1.4 3.1 2.5 4.4 5-1.8 8.8-5.6 11.2-11.4"/>
      <path style="fill:#009ee0" d="M36.03 25.3l-4.8-1.7c-2 5-4.9 9-8.5 12-1.1.9-2.3 1.7-3.5 2.4l2.1.9c1.3.5 2.7.8 4.1 1 4.5-3.6 8.1-8.5 10.6-14.6"/>
      <path style="fill:#009ee0" d="M36.03 25.3l-4.8-1.7c-2 5-4.9 9-8.5 12-1.1.9-2.3 1.7-3.5 2.4l2.1.9c1.3.5 2.7.8 4.1 1 4.5-3.6 8.1-8.5 10.6-14.6m-12.4-4.4l-4.8-1.7c-2 4.7-4.9 7.5-8.9 8.7.6 1.6 1.4 3.1 2.5 4.4 5-1.8 8.8-5.6 11.2-11.4m6.9.3l4.8 1.7c2-4.7 4.9-7.5 8.9-8.6-.6-1.6-1.5-3.1-2.5-4.4-5.1 1.7-8.8 5.5-11.2 11.3m-1.9-18.8c1.4.2 2.8.5 4.1 1 .7.3 1.4.5 2.1.9-1.2.7-2.4 1.5-3.4 2.4-3.6 3-6.5 7-8.5 11.9l-4.8-1.7c2.5-6.1 6-11 10.5-14.5"/>
    </g>
  </g>
</svg>
