<svg viewBox="0 0 219 39" xmlns="http://www.w3.org/2000/svg" xmlns:xlink="http://www.w3.org/1999/xlink"><defs><path id="a" d="M.578.13h29.925v36.963H.578z"/><path id="c" d="M0 .565h14v13.244H0z"/></defs><g fill="none" fill-rule="evenodd"><path d="M58.36 7.37h-8.256v10.197h8.256c3.16 0 5.543-1.995 5.543-5.098 0-3.103-2.384-5.099-5.543-5.099zm-2.493 16.958h-5.763v13.244h-7.87V.61h17.29c7.703 0 12.413 5.043 12.413 11.914 0 6.54-4.1 10.03-8.09 10.972l8.312 14.076h-9.033l-7.26-13.244zm20.223-5.209c0-11.36 8.59-19.12 19.396-19.12 8.424 0 13.134 4.434 15.739 9.034l-6.761 3.325c-1.552-2.992-4.877-5.375-8.978-5.375-6.428 0-11.305 5.153-11.305 12.136 0 6.982 4.877 12.136 11.305 12.136 4.101 0 7.426-2.328 8.978-5.375l6.76 3.269c-2.659 4.6-7.314 9.088-15.738 9.088-10.806 0-19.395-7.758-19.395-19.118m65.166 2.937h-17.456v15.516h-7.87V.61h7.87v14.518h17.456V.61h7.924v36.962h-7.924zM156.437.61h26.156v6.76h-18.286v8.036h17.899v6.76h-17.9v8.59h18.287v6.816h-26.156z" fill="#E5460C" fill-rule="nonzero"/><g transform="translate(188.164 .479)"><mask id="b" fill="#fff"><use xlink:href="#a"/></mask><path d="M16.704 6.892H8.447v10.196h8.257c3.16 0 5.542-1.995 5.542-5.098 0-3.103-2.383-5.098-5.542-5.098zm-2.493 16.957H8.447v13.244H.577V.131h17.291c7.703 0 12.413 5.043 12.413 11.914 0 6.54-4.1 10.03-8.09 10.973l8.312 14.075H21.47L14.21 23.85z" fill="#E5460C" fill-rule="nonzero" mask="url(#b)"/></g><path fill="#E5460C" fill-rule="nonzero" d="M23.698.61H15.11l15.104 36.962h8.589z"/><g transform="translate(0 23.763)"><mask id="d" fill="#fff"><use xlink:href="#c"/></mask><path fill="#E5460C" fill-rule="nonzero" mask="url(#d)" d="M5.412.565L0 13.809h8.59L14 .565z"/></g></g></svg>