<?xml version="1.0" encoding="utf-8"?>
<!-- Generator: Adobe Illustrator 21.1.0, SVG Export Plug-In . SVG Version: 6.00 Build 0)  -->
<svg version="1.1" id="Layer_1" xmlns="http://www.w3.org/2000/svg" xmlns:xlink="http://www.w3.org/1999/xlink" x="0px" y="0px"
	 viewBox="0 0 589.8 213.6" style="enable-background:new 0 0 589.8 213.6;" xml:space="preserve">
<style type="text/css">
	.st0{fill:#94D600;}
	.st1{fill:#55C1E9;}
</style>
<rect x="547.1" y="42.3" class="st0" width="42.7" height="77.1"/>
<rect x="477.3" class="st1" width="70.1" height="42.7"/>
<rect x="547.1" width="42.7" height="42.7"/>
<g>
	<path d="M478.5,102.3V87.1h-26.6v75.8h26.6v-23.5c0-17.5,7.8-25.5,21.7-25.5h2.2v-28C489.8,85.2,482.8,92,478.5,102.3z"/>
	<path d="M36.3,64.8H0v98h35.8c33.9,0,53.7-21,53.7-49.3v-0.3C89.4,85,69.9,64.8,36.3,64.8z M62.7,113.9c0,15.8-10.4,24.8-26,24.8
		H26.1V88.9h10.6c15.6,0,26,9.1,26,24.8V113.9z"/>
	<path d="M134.7,85.5c-24.1,0-41.6,18-41.6,39.6v0.3c0,21.5,17.3,39.3,41.3,39.3c24.1,0,41.6-18,41.6-39.6v-0.3
		C176.1,103.3,158.7,85.5,134.7,85.5z M150.4,125.4c0,9.1-6.1,16.8-15.7,16.8c-9.3,0-16-7.8-16-17.1v-0.3c0-9.1,6.1-16.8,15.7-16.8
		c9.3,0,16,7.8,16,17.1V125.4z"/>
	<path d="M338.8,85.4c-10.8,0-17.8,6-22.7,12.3V87l-52.7,0l-10.2,38.4l-11.8-38.7h-22l-11.6,38.4l-9.9-38.1h-26.1l23.1,76.3h22.8
		l12.6-39.4l12.3,39.4h23l16.6-54.1h7.3v53.5h26.6v-41c0-8.3,4.8-12.7,11.2-12.7c6.3,0,10.6,4.5,10.6,12.7v41h26.6v-49.6
		C364.6,96,354.9,85.4,338.8,85.4z"/>
	<path d="M407.9,85.4c-22.4,0-38.2,17.5-38.2,39.6v0.3c0,23.5,16.8,39.4,40.6,39.4c15.1,0,25.6-6.2,32.9-15.4l-14.7-12.2
		c-5.5,5.3-10.5,7.7-16.8,7.7c-8.3,0-14.3-4.2-16.4-12.5H446c0.1-1.8,0.1-3.8,0.1-5.5C446.1,104.6,434.1,85.4,407.9,85.4z
		 M394.9,118.7c1.4-8.3,6.2-13.7,13.2-13.7c7.3,0,12.2,5.3,13.2,13.7H394.9z"/>
</g>
<path d="M2.1,193.7V205H0v-25.6h9c5,0,8,2.5,8,7.2c0,4.2-2.5,6.5-6.5,7l7.7,11.4h-2.5l-7.6-11.3H2.1z M2.1,191.8H9c3.9,0,6-2,6-5.2
	c0-3.4-2.1-5.2-6-5.2H2.1V191.8z"/>
<path d="M36.4,199.6c-0.7,3.4-3.3,5.7-7.2,5.7c-4.9,0-8.2-3.9-8.2-9.6c0-5.5,3.1-9.6,8.2-9.6c4.9,0,7.5,3.8,7.5,9v0.7H23
	c0,4.7,2.6,7.6,6.2,7.6c2.6,0,4.6-1.5,5.2-3.9H36.4z M23.1,194.3h11.5c-0.1-3.2-1.7-6.3-5.4-6.3C25.8,187.9,23.5,190.4,23.1,194.3z"
	/>
<path d="M43.3,205h-2.1v-27.1h2.1V205z"/>
<path d="M59.8,205v-1.7c-0.8,1-2.8,2-5.1,2c-3.7,0-6.8-2.2-6.8-5.7c0-3.4,3.1-5.7,6.9-5.7c2.2,0,4.2,1,5,2v-3.3
	c0-2.7-1.7-4.6-4.6-4.6c-2.3,0-3.8,1-4.5,3.2h-2c0.7-3.1,3.3-5,6.5-5c4.1,0,6.6,2.5,6.6,6.4V205H59.8z M59.8,198.4
	c-0.6-1.6-2.7-2.7-4.9-2.7c-2.6,0-5.1,1.3-5.1,3.9s2.5,4,5.1,4c2.2,0,4.3-1.2,4.9-2.7V198.4z"/>
<path d="M68.3,188.3h-3.1v-1.8h3.1v-4.7h2v4.7h4.8v1.8h-4.8v12.2c0,2.1,0.9,3,2.7,3c0.9,0,1.8-0.3,2.5-0.7v2
	c-0.7,0.4-1.7,0.6-2.7,0.6c-2.7,0-4.5-1.5-4.5-4.7V188.3z"/>
<path d="M80.9,182.3c-0.8,0-1.4-0.6-1.4-1.4c0-0.7,0.6-1.4,1.4-1.4c0.8,0,1.4,0.7,1.4,1.4C82.3,181.6,81.7,182.3,80.9,182.3z
	 M81.9,205h-2.1v-18.5h2.1V205z"/>
<path d="M94.7,205.3c-4.9,0-8.2-3.9-8.2-9.6c0-5.7,3.3-9.6,8.2-9.6c4.9,0,8.2,3.9,8.2,9.6C102.9,201.4,99.6,205.3,94.7,205.3z
	 M94.7,187.9c-3.7,0-6.1,3.1-6.1,7.8c0,4.7,2.4,7.8,6.1,7.8c3.7,0,6.1-3.1,6.1-7.8C100.8,191.1,98.4,187.9,94.7,187.9z"/>
<path d="M107.5,186.5h2.1v3c1.1-1.7,3.3-3.3,5.9-3.3c4.2,0,6.4,2.7,6.4,6.6V205h-2v-12c0-2.9-1.5-5-4.7-5c-2.5,0-4.6,1.8-5.5,4v13
	h-2.1V186.5z"/>
<path d="M127.9,200.2c0.8,2.2,2.6,3.4,5.2,3.4c2.5,0,4.5-1.1,4.5-3.4c0-1.6-1.1-2.6-3.4-3.3l-3.5-1c-2.6-0.7-4.4-2-4.4-4.7
	c0-3.2,2.8-5.1,6.2-5.1c3.8,0,6.2,2,6.9,5h-2c-0.7-2.2-2.2-3.2-4.8-3.2c-2.3,0-4.2,1.1-4.2,3.2c0,1.7,1.1,2.4,3.3,3l3.3,0.9
	c3.2,0.8,4.6,2.6,4.6,5c0,3.3-2.8,5.2-6.5,5.2c-3.7,0-6.6-1.9-7.2-5.2H127.9z"/>
<path d="M144.2,177.9h2.1v11.5c1.1-1.7,3.3-3.3,5.9-3.3c4.2,0,6.4,2.7,6.4,6.6V205h-2v-12c0-2.9-1.5-5-4.7-5c-2.5,0-4.6,1.8-5.5,4
	v13h-2.1V177.9z"/>
<path d="M165.3,182.3c-0.8,0-1.4-0.6-1.4-1.4c0-0.7,0.6-1.4,1.4-1.4c0.8,0,1.4,0.7,1.4,1.4C166.8,181.6,166.1,182.3,165.3,182.3z
	 M166.4,205h-2.1v-18.5h2.1V205z"/>
<path d="M174.4,212h-2.1v-25.6h2.1v2.7c1-1.6,3.2-3.1,5.7-3.1c5.5,0,8.1,4.5,8.1,9.6c0,5.1-2.6,9.6-8.1,9.6c-2.5,0-4.7-1.5-5.7-3.1
	V212z M174.4,199.8c1.2,2.4,3.3,3.7,5.5,3.7c3.9,0,6.2-3.2,6.2-7.7c0-4.5-2.3-7.7-6.2-7.7c-2.2,0-4.3,1.3-5.5,3.7V199.8z"/>
<path d="M193.2,200.2c0.8,2.2,2.6,3.4,5.2,3.4c2.5,0,4.5-1.1,4.5-3.4c0-1.6-1.1-2.6-3.4-3.3l-3.5-1c-2.6-0.7-4.4-2-4.4-4.7
	c0-3.2,2.8-5.1,6.2-5.1c3.8,0,6.2,2,6.9,5h-2c-0.7-2.2-2.2-3.2-4.8-3.2c-2.3,0-4.2,1.1-4.2,3.2c0,1.7,1.1,2.4,3.3,3l3.3,0.9
	c3.2,0.8,4.6,2.6,4.6,5c0,3.3-2.8,5.2-6.5,5.2c-3.7,0-6.6-1.9-7.2-5.2H193.2z"/>
<path d="M225.4,186.1c3.9,0,6.4,2.3,7.1,5.7h-2.1c-0.5-2.4-2.3-3.9-5-3.9c-3.6,0-6.1,3.1-6.1,7.7c0,4.7,2.5,7.7,6.1,7.7
	c2.6,0,4.4-1.5,5-3.9h2.1c-0.7,3.4-3.2,5.7-7.1,5.7c-4.9,0-8.2-3.9-8.2-9.6C217.3,190,220.6,186.1,225.4,186.1z"/>
<path d="M245.7,188.4c-0.5-0.2-1-0.3-1.7-0.3c-2.2,0-4,1.6-4.9,4V205H237v-18.5h2.1v3c0.8-1.8,2.7-3.3,5-3.3c0.7,0,1.2,0.1,1.6,0.2
	V188.4z"/>
<path d="M263.2,199.6c-0.7,3.4-3.3,5.7-7.2,5.7c-4.9,0-8.2-3.9-8.2-9.6c0-5.5,3.1-9.6,8.2-9.6c4.9,0,7.5,3.8,7.5,9v0.7h-13.6
	c0,4.7,2.6,7.6,6.2,7.6c2.6,0,4.6-1.5,5.2-3.9H263.2z M249.9,194.3h11.5c-0.1-3.2-1.7-6.3-5.4-6.3
	C252.6,187.9,250.4,190.4,249.9,194.3z"/>
<path d="M278.6,205v-1.7c-0.8,1-2.8,2-5.1,2c-3.7,0-6.8-2.2-6.8-5.7c0-3.4,3.1-5.7,6.9-5.7c2.2,0,4.2,1,5,2v-3.3
	c0-2.7-1.7-4.6-4.6-4.6c-2.3,0-3.8,1-4.5,3.2h-2c0.7-3.1,3.3-5,6.5-5c4.1,0,6.6,2.5,6.6,6.4V205H278.6z M278.6,198.4
	c-0.6-1.6-2.7-2.7-4.9-2.7c-2.6,0-5.1,1.3-5.1,3.9s2.5,4,5.1,4c2.2,0,4.3-1.2,4.9-2.7V198.4z"/>
<path d="M287.1,188.3H284v-1.8h3.1v-4.7h2v4.7h4.8v1.8h-4.8v12.2c0,2.1,0.9,3,2.7,3c0.9,0,1.8-0.3,2.5-0.7v2
	c-0.7,0.4-1.7,0.6-2.7,0.6c-2.7,0-4.5-1.5-4.5-4.7V188.3z"/>
<path d="M299.7,182.3c-0.8,0-1.4-0.6-1.4-1.4c0-0.7,0.6-1.4,1.4-1.4c0.8,0,1.4,0.7,1.4,1.4C301.1,181.6,300.5,182.3,299.7,182.3z
	 M300.7,205h-2.1v-18.5h2.1V205z"/>
<path d="M306.7,186.5h2.1v3c1.1-1.7,3.3-3.3,5.9-3.3c4.2,0,6.4,2.7,6.4,6.6V205h-2v-12c0-2.9-1.5-5-4.7-5c-2.5,0-4.6,1.8-5.5,4v13
	h-2.1V186.5z"/>
<path d="M339.1,201.8c-1,1.6-3.2,3-5.7,3c-5.4,0-8-4.4-8-9.4c0-4.9,2.6-9.4,8-9.4c2.5,0,4.7,1.5,5.7,3.1v-2.7h2.1v17.2
	c0,5.8-3.2,8.8-7.8,8.8c-4.2,0-6.9-2.1-7.6-5.6h2.1c0.6,2.6,2.7,3.8,5.5,3.8c3.7,0,5.7-2.4,5.7-6.9V201.8z M339.1,191.6
	c-1.2-2.3-3.2-3.6-5.5-3.6c-3.8,0-6.1,3.1-6.1,7.5c0,4.4,2.2,7.5,6.1,7.5c2.2,0,4.3-1.3,5.5-3.6V191.6z"/>
<path d="M356.7,200.2c0.8,2.2,2.6,3.4,5.2,3.4c2.5,0,4.5-1.1,4.5-3.4c0-1.6-1.1-2.6-3.4-3.3l-3.5-1c-2.6-0.7-4.4-2-4.4-4.7
	c0-3.2,2.8-5.1,6.2-5.1c3.8,0,6.2,2,6.9,5h-2c-0.7-2.2-2.2-3.2-4.8-3.2c-2.3,0-4.2,1.1-4.2,3.2c0,1.7,1.1,2.4,3.3,3l3.3,0.9
	c3.2,0.8,4.6,2.6,4.6,5c0,3.3-2.8,5.2-6.5,5.2c-3.7,0-6.6-1.9-7.2-5.2H356.7z"/>
<path d="M387,205h-2v-3c-1.1,1.7-3.2,3.3-5.9,3.3c-4.2,0-6.4-2.7-6.4-6.6v-12.2h2v12c0,2.9,1.5,5,4.7,5c2.5,0,4.6-1.8,5.5-4v-13h2
	V205z"/>
<path d="M399.8,186.1c3.9,0,6.4,2.3,7.1,5.7h-2.1c-0.5-2.4-2.3-3.9-5-3.9c-3.6,0-6.1,3.1-6.1,7.7c0,4.7,2.5,7.7,6.1,7.7
	c2.6,0,4.4-1.5,5-3.9h2.1c-0.7,3.4-3.2,5.7-7.1,5.7c-4.9,0-8.2-3.9-8.2-9.6C391.6,190,394.9,186.1,399.8,186.1z"/>
<path d="M418,186.1c3.9,0,6.4,2.3,7.1,5.7H423c-0.5-2.4-2.3-3.9-5-3.9c-3.6,0-6.1,3.1-6.1,7.7c0,4.7,2.5,7.7,6.1,7.7
	c2.6,0,4.4-1.5,5-3.9h2.1c-0.7,3.4-3.2,5.7-7.1,5.7c-4.9,0-8.2-3.9-8.2-9.6C409.9,190,413.2,186.1,418,186.1z"/>
<path d="M443.5,199.6c-0.7,3.4-3.3,5.7-7.2,5.7c-4.9,0-8.2-3.9-8.2-9.6c0-5.5,3.1-9.6,8.2-9.6c4.9,0,7.5,3.8,7.5,9v0.7h-13.6
	c0,4.7,2.6,7.6,6.2,7.6c2.6,0,4.6-1.5,5.2-3.9H443.5z M430.2,194.3h11.5c-0.1-3.2-1.7-6.3-5.4-6.3
	C432.9,187.9,430.7,190.4,430.2,194.3z"/>
<path d="M448.9,200.2c0.7,2.2,2.6,3.4,5.2,3.4c2.5,0,4.5-1.1,4.5-3.4c0-1.6-1.1-2.6-3.4-3.3l-3.5-1c-2.6-0.7-4.4-2-4.4-4.7
	c0-3.2,2.8-5.1,6.2-5.1c3.8,0,6.2,2,6.9,5h-2c-0.7-2.2-2.2-3.2-4.8-3.2c-2.3,0-4.2,1.1-4.2,3.2c0,1.7,1.1,2.4,3.3,3l3.3,0.9
	c3.2,0.8,4.6,2.6,4.6,5c0,3.3-2.8,5.2-6.5,5.2c-3.7,0-6.6-1.9-7.2-5.2H448.9z"/>
<path d="M465.7,200.2c0.8,2.2,2.6,3.4,5.2,3.4c2.5,0,4.5-1.1,4.5-3.4c0-1.6-1.1-2.6-3.4-3.3l-3.5-1c-2.6-0.7-4.4-2-4.4-4.7
	c0-3.2,2.8-5.1,6.2-5.1c3.8,0,6.2,2,6.9,5h-2c-0.7-2.2-2.2-3.2-4.8-3.2c-2.3,0-4.2,1.1-4.2,3.2c0,1.7,1.1,2.4,3.3,3l3.3,0.9
	c3.2,0.8,4.6,2.6,4.6,5c0,3.3-2.8,5.2-6.5,5.2c-3.7,0-6.6-1.9-7.2-5.2H465.7z"/>
</svg>
