<svg id="Layer_1" data-name="Layer 1" xmlns="http://www.w3.org/2000/svg" viewBox="0 0 709.67 130.39"><title>sonic-healthcare</title><circle cx="60.09" cy="65.17" r="58.09" transform="translate(-1.13 1.06) rotate(-1)" style="fill:#004b8d"/><path d="M86,38.68s0-7.44-2.29-11.5c-1.08-1.94-10.94-5.57-20.5-8.72l-2-.64C56,19.5,50.55,21.36,46.4,23l1.34.55c6.92,2.05,23,7,31.18,10.59a11.16,11.16,0,0,1,3.16,2,4,4,0,0,1,1.38,2.51l0,.66a4.05,4.05,0,0,1-1.39,2.52,11.18,11.18,0,0,1-3.16,2C68.38,48.57,44.47,55.42,44.47,55.42a19.91,19.91,0,0,0-6.35,3.45c-2.12,1.92-2.3,2.83-2.3,2.83l-.17,3.68-.1,6.32A19.44,19.44,0,0,1,41,67.39c3.63-2,12-4.64,12-4.64s28.59-8,30.76-11.88C86,46.82,86,39.38,86,39.38Z" style="fill:none;stroke:#fff;stroke-width:2.8843900000000002px;isolation:isolate"/><path d="M41.11,29.34a11.18,11.18,0,0,1-3.16-2,4,4,0,0,1-1.39-2.51l0-.65a4.05,4.05,0,0,1,1.39-2.52,11.14,11.14,0,0,1,3.16-2c8.76-3.9,26.66-9.27,32.54-11a58.27,58.27,0,0,0-36.39,3.1,3.19,3.19,0,0,0-.93.88C34,16.71,34,24.15,34,24.15l0,.7s0,7.44,2.29,11.5c1.08,1.94,10.94,5.57,20.5,8.72l2,.64c5.18-1.69,10.59-3.55,14.74-5.23l-1.34-.54C65.37,37.89,49.26,33,41.11,29.34Z" style="fill:none;stroke:#fff;stroke-width:2.8843900000000002px;isolation:isolate"/><path d="M86,38.68s0-7.44-2.29-11.5c-1.08-1.94-10.94-5.57-20.5-8.72l-2-.64C56,19.5,50.55,21.36,46.4,23l1.34.55c6.92,2.05,23,7,31.18,10.59a11.16,11.16,0,0,1,3.16,2,4,4,0,0,1,1.38,2.51l0,.66a4.05,4.05,0,0,1-1.39,2.52,11.18,11.18,0,0,1-3.16,2C68.38,48.57,44.47,55.42,44.47,55.42a19.91,19.91,0,0,0-6.35,3.45c-2.12,1.92-2.3,2.83-2.3,2.83l-.17,3.68-.1,6.32A19.44,19.44,0,0,1,41,67.39c3.63-2,12-4.64,12-4.64s28.59-8,30.76-11.88C86,46.82,86,39.38,86,39.38Z" style="fill:#e31837;isolation:isolate"/><path d="M41.11,29.34a11.18,11.18,0,0,1-3.16-2,4,4,0,0,1-1.39-2.51l0-.65a4.05,4.05,0,0,1,1.39-2.52,11.14,11.14,0,0,1,3.16-2c8.76-3.9,26.66-9.27,32.54-11a58.27,58.27,0,0,0-36.39,3.1,3.19,3.19,0,0,0-.93.88C34,16.71,34,24.15,34,24.15l0,.7s0,7.44,2.29,11.5c1.08,1.94,10.94,5.57,20.5,8.72l2,.64c5.18-1.69,10.59-3.55,14.74-5.23l-1.34-.54C65.37,37.89,49.26,33,41.11,29.34Z" style="fill:#e31837;isolation:isolate"/><path d="M34,91.72s0,7.44,2.29,11.5c1.08,1.94,10.94,5.57,20.5,8.72l2,.64c5.18-1.69,10.59-3.55,14.74-5.23l-1.34-.55c-6.92-2.05-23-7-31.18-10.59a11.16,11.16,0,0,1-3.16-2,4,4,0,0,1-1.38-2.51l0-.66a4.05,4.05,0,0,1,1.39-2.51,11.19,11.19,0,0,1,3.16-2C51.65,81.82,75.56,75,75.56,75a19.89,19.89,0,0,0,6.35-3.45c2.12-1.92,2.3-2.83,2.3-2.83L84.38,65l.1-6.32A19.44,19.44,0,0,1,79,63c-3.63,2-12,4.64-12,4.64s-28.59,8-30.76,11.88C34,83.58,34,91,34,91Z" style="fill:none;stroke:#fff;stroke-width:2.8843900000000002px;isolation:isolate"/><path d="M78.92,101.05a11.18,11.18,0,0,1,3.16,2,4,4,0,0,1,1.39,2.51l0,.65a4,4,0,0,1-1.39,2.52,11.18,11.18,0,0,1-3.16,2c-8.76,3.9-26.66,9.26-32.54,11a58.28,58.28,0,0,0,36.39-3.1,3.19,3.19,0,0,0,.92-.89C86,113.68,86,106.24,86,106.24l0-.7S86,98.1,83.69,94c-1.08-1.94-10.94-5.57-20.5-8.72l-2-.65C56,86.36,50.55,88.23,46.4,89.91l1.34.54C54.66,92.51,70.76,97.42,78.92,101.05Z" style="fill:none;stroke:#fff;stroke-width:2.8843900000000002px;isolation:isolate"/><path d="M34,91.72s0,7.44,2.29,11.5c1.08,1.94,10.94,5.57,20.5,8.72l2,.64c5.18-1.69,10.59-3.55,14.74-5.23l-1.34-.55c-6.92-2.05-23-7-31.18-10.59a11.16,11.16,0,0,1-3.16-2,4,4,0,0,1-1.38-2.51l0-.66a4.05,4.05,0,0,1,1.39-2.51,11.19,11.19,0,0,1,3.16-2C51.65,81.82,75.56,75,75.56,75a19.89,19.89,0,0,0,6.35-3.45c2.12-1.92,2.3-2.83,2.3-2.83L84.38,65l.1-6.32A19.44,19.44,0,0,1,79,63c-3.63,2-12,4.64-12,4.64s-28.59,8-30.76,11.88C34,83.58,34,91,34,91Z" style="fill:#e31837;isolation:isolate"/><path d="M78.92,101.05a11.18,11.18,0,0,1,3.16,2,4,4,0,0,1,1.39,2.51l0,.65a4,4,0,0,1-1.39,2.52,11.18,11.18,0,0,1-3.16,2c-8.76,3.9-26.66,9.26-32.54,11a58.28,58.28,0,0,0,36.39-3.1,3.19,3.19,0,0,0,.92-.89C86,113.68,86,106.24,86,106.24l0-.7S86,98.1,83.69,94c-1.08-1.94-10.94-5.57-20.5-8.72l-2-.65C56,86.36,50.55,88.23,46.4,89.91l1.34.54C54.66,92.51,70.76,97.42,78.92,101.05Z" style="fill:#e31837;isolation:isolate"/><rect x="145.84" y="16.06" width="1.59" height="98.5" style="fill:#fff"/><path d="M199.76,20a18.67,18.67,0,0,0-8.36-2.56c-4.84,0-7.53,2.1-7.53,4.86,0,2.56,3,4.46,9.19,7.78,6.63,3.58,10.5,6.86,10.5,11.47,0,5.68-7.25,9.37-15,9.37-4.63,0-10.16-1.23-13.62-3.73l3-3c2.83,1.48,5.94,3.12,10.5,3.12,4.77,0,8.43-1.89,8.43-5.88,0-4.51-7.26-7.42-11.19-9.57-4-2.3-8.5-4.5-8.5-9.57,0-4.81,6.29-8.45,13.82-8.45,5,0,9.26,1.33,12,3.58Z" style="fill:#fff"/><path d="M218.07,31.77c0-10,10.23-17.92,24.19-17.92s24.18,7.88,24.18,17.92c0,10.7-9.26,19.15-24.18,19.15s-24.19-8.45-24.19-19.15m41,0c0-6.7-4.84-14.33-16.79-14.33s-16.79,7.63-16.79,14.33c0,7,4.28,15.56,16.79,15.56S259,38.78,259,31.77" style="fill:#fff"/><path d="M325.46,50.3h-5.25C309.7,41,291.66,24.91,288.76,21.79h-.14V50.3H283.1V14.47h5c10.64,9.31,28.47,25,31.72,28.56h.14V14.47h5.53Z" style="fill:#fff"/><rect x="344.6" y="14.46" width="6.7" height="35.83" style="fill:#fff"/><path d="M407,20.56a27.59,27.59,0,0,0-12.64-3.12c-12,0-19,6.34-19,14.74,0,9.06,8.43,15.15,19,15.15a27.26,27.26,0,0,0,12.23-2.66l2.63,3A36.12,36.12,0,0,1,394,50.91c-17.28,0-26.06-8.75-26.06-18.63,0-9,9.54-18.43,26.89-18.43a29.22,29.22,0,0,1,14.93,3.63Z" style="fill:#fff"/><polygon points="214.13 115.21 207.43 115.21 207.43 97.4 183.8 97.4 183.8 115.21 177.09 115.21 177.09 79.38 183.8 79.38 183.8 93.81 207.43 93.81 207.43 79.38 214.13 79.38 214.13 115.21" style="fill:#fff"/><polygon points="257.12 82.96 239.98 82.96 239.98 94.53 256.77 94.53 256.77 98.11 239.98 98.11 239.98 111.62 260.08 111.62 260.08 115.21 233.28 115.21 233.28 79.37 257.12 79.37 257.12 82.96" style="fill:#fff"/><path d="M293.88,79.38l18,35.83h-7.74l-5-10.55H280.75l-5.18,10.55h-6.49l19.69-35.83Zm3.73,21.7c-2.42-5-4.77-9.93-7.19-16.38h-.14a144.89,144.89,0,0,1-7.67,16.38Z" style="fill:#fff"/><polygon points="324.97 79.38 331.68 79.38 331.68 111.62 351.78 111.62 351.78 115.21 324.97 115.21 324.97 79.38" style="fill:#fff"/><polygon points="375.76 115.21 375.76 82.96 360.29 82.96 360.29 79.38 398.01 79.38 398.01 82.96 382.46 82.96 382.46 115.21 375.76 115.21" style="fill:#fff"/><polygon points="448.74 115.21 442.03 115.21 442.03 97.4 418.4 97.4 418.4 115.21 411.7 115.21 411.7 79.38 418.4 79.38 418.4 93.81 442.03 93.81 442.03 79.38 448.74 79.38 448.74 115.21" style="fill:#fff"/><path d="M504.43,85.47a27.59,27.59,0,0,0-12.64-3.12c-12,0-19,6.35-19,14.74,0,9.06,8.43,15.15,19,15.15A27.23,27.23,0,0,0,504,109.58l2.63,3a36.06,36.06,0,0,1-15.2,3.28c-17.28,0-26.05-8.75-26.05-18.63,0-9,9.54-18.42,26.88-18.42a29.26,29.26,0,0,1,14.92,3.63Z" style="fill:#fff"/><path d="M541.4,79.38l18,35.83H551.7l-5-10.55H528.27l-5.18,10.55h-6.49l19.69-35.83Zm3.73,21.7c-2.42-5-4.76-9.93-7.19-16.38h-.14a144.5,144.5,0,0,1-7.67,16.38Z" style="fill:#fff"/><path d="M572.5,79.38h13.82c7.88,0,14,3,14,9.21,0,5.27-3.45,8.24-8.08,10.45l12,15.25-6.77,1.54-11.2-15.46H579.2v14.84h-6.7Zm6.7,17.4H583c8.57,0,10.15-4.71,10.15-7.73,0-4.4-3.73-6.09-8.22-6.09H579.2Z" style="fill:#fff"/><polygon points="642.29 82.96 625.15 82.96 625.15 94.53 641.94 94.53 641.94 98.11 625.15 98.11 625.15 111.62 645.26 111.62 645.26 115.21 618.45 115.21 618.45 79.37 642.29 79.37 642.29 82.96" style="fill:#fff"/><circle cx="60.09" cy="65.17" r="58.09" style="fill:none;stroke:#fff;stroke-miterlimit:10"/></svg>