<svg width="260" height="50" viewBox="0 0 260 50" xmlns="http://www.w3.org/2000/svg" xmlns:xlink="http://www.w3.org/1999/xlink"><defs><path id="a" d="M53.429.097H0v49.688h53.429V.097z"/></defs><g fill="none" fill-rule="evenodd"><path d="M67.916 35.864l1.276-3.268 1.305 3.268h-2.58zm2.034-6.368l-1.515.126c-.28.8-.617 1.557-1.136 2.735l-3.17 7.181h2.37c.169-.448.618-1.64.842-2.173h3.745l.969 2.286 2.412-.113a74.335 74.335 0 0 1-1.333-2.86l-3.184-7.182zM77.523 32.301c0-.617.477-1.037 1.235-1.037.7 0 1.542.307 2.131.673l.464-1.767c-.617-.393-1.642-.73-2.665-.73-1.95 0-3.338 1.165-3.338 3.015 0 2.694 4.151 2.89 4.151 4.404 0 .716-.505 1.11-1.304 1.11-1.15 0-2.413-.562-3.044-1.067l-.084 2.076c.758.448 2.02.813 3.071.813 2.104 0 3.507-1.206 3.507-3.114 0-2.805-4.124-2.93-4.124-4.376M85.784 29.608c-.463.056-1.865.07-2.413.07.07.673.098 2.484.098 3.381v3.1c0 .91-.028 2.707-.098 3.38h2.413c-.043-.393-.056-1.487-.056-2.02v-5.836c0-.546.013-1.668.056-2.075M90.805 35.864l1.276-3.268 1.304 3.268h-2.58zm2.034-6.368l-1.515.126c-.281.8-.617 1.557-1.136 2.735l-3.17 7.181h2.37c.169-.448.618-1.64.841-2.173h3.745l.97 2.286 2.412-.113a74.335 74.335 0 0 1-1.333-2.86l-3.184-7.182zM105.237 33.059v2.79l-5.301-6.353-1.39.126c.07.674.085 2.385.07 3.283l-.027 3.254c-.015.91-.07 2.706-.14 3.38h2.314c-.042-.393-.056-1.473-.056-2.02v-4.096l5.301 6.326 1.347-.126c-.043-.392-.028-1.515-.028-2.062l.042-5.877c0-.547.028-1.67.084-2.076-.477.057-1.781.07-2.328.07.084.674.112 2.483.112 3.38M115.881 37.785a5.93 5.93 0 0 1-.94-.07c-.013-.225-.013-.463-.013-.66v-4.922c0-.182 0-.52.013-.73.282-.028.561-.042.912-.042 2.02 0 3.184 1.207 3.184 3.142 0 1.824-.912 3.282-3.156 3.282m-.225-8.176c-1.458 0-2.565.083-3.07.083.069.674.098 2.469.098 3.366v3.1c0 .912-.03 2.707-.098 3.38h3.393c3.199 0 5.289-2.048 5.289-5.174 0-2.834-1.978-4.755-5.612-4.755M125.32 37.771c-.028-.21-.028-.546-.028-.73v-1.794l3.17.028c0-.617.014-1.193.042-1.67l-3.212.015v-1.487c0-.168 0-.505.028-.715.407-.014.87-.014 1.29-.014.898 0 1.684.014 2.44.028 0-.701.043-1.249.114-1.838-.912.043-1.936.07-3.03.07-1.165 0-2.216-.027-3.156-.07.07.673.098 2.567.098 3.465v3.1c0 .91-.029 2.762-.098 3.436.953-.056 2.174-.07 3.31-.07 1.052 0 2.16.014 3.058.07 0-.687.028-1.263.098-1.852-.884.028-1.796.043-2.834.043-.42 0-.883-.015-1.29-.015M136.512 32.007l-1.612 4.418-2.554-6.83-2.44.11c.393.857.87 1.979 1.234 2.863l3.016 7.167 1.487-.112c.266-.814.56-1.557 1.066-2.735l3.015-7.195h-2.398c-.238.7-.533 1.528-.814 2.314M143.244 37.771c-.028-.21-.028-.546-.028-.73v-1.794l3.17.028c0-.617.014-1.193.042-1.67l-3.212.015v-1.487c0-.168 0-.505.028-.715.407-.014.87-.014 1.29-.014.898 0 1.684.014 2.44.028 0-.701.043-1.249.113-1.838-.912.043-1.935.07-3.03.07-1.164 0-2.215-.027-3.155-.07.069.673.098 2.567.098 3.465v3.1c0 .91-.03 2.762-.098 3.436.953-.056 2.173-.07 3.31-.07 1.051 0 2.16.014 3.057.07 0-.687.028-1.263.099-1.852-.884.028-1.796.043-2.834.043-.42 0-.883-.015-1.29-.015M151.294 37.73c-.028-.253-.028-.59-.028-.785v-5.262c0-.546.013-1.668.056-2.075-.463.056-1.85.07-2.398.07.069.673.098 2.484.098 3.381v3.086c0 .911-.029 2.777-.098 3.45.94-.057 2.09-.07 3.212-.07 1.094 0 2.16.013 3.072.07.028-.688.056-1.29.126-1.894a91.73 91.73 0 0 1-2.903.043c-.38 0-.773-.015-1.137-.015M160.915 38.01c-1.599 0-2.777-1.304-2.777-3.422 0-1.824 1.122-3.366 2.805-3.366 1.6 0 2.777 1.304 2.777 3.422 0 1.822-1.122 3.366-2.805 3.366m.154-8.57c-3.057 0-5.134 2.343-5.134 5.428 0 2.707 1.936 4.923 4.854 4.923 3.057 0 5.134-2.342 5.134-5.428 0-2.706-1.936-4.923-4.854-4.923M170.536 34.671c-.196 0-.378 0-.588-.027v-3.24c.35-.028.533-.028.813-.028 1.276 0 1.879.574 1.879 1.626 0 1.08-.8 1.67-2.104 1.67m.197-5.064c-.828 0-2.61.07-3.114.07.07.673.098 2.484.098 3.38v3.101c0 .91-.028 2.707-.098 3.38h2.412c-.042-.393-.056-1.487-.056-2.02v-1.192c.17.014.351.014.519.014 3.03 0 4.348-1.586 4.348-3.592 0-1.808-1.388-3.141-4.109-3.141M186.315 33.045c-.112-.898-.35-2.722-.435-3.52h-1.402c-.211.518-.604 1.387-.856 1.976l-2.131 4.783-2.175-4.755c-.28-.588-.66-1.444-.912-2.02l-1.43.1c-.056.742-.281 2.538-.407 3.436l-.422 3.113c-.125.926-.392 2.637-.56 3.38h2.23a33.67 33.67 0 0 1 .182-2.019l.435-3.535 2.455 5.751 1.024-.085c.197-.504 1.753-4.137 2.455-5.75l.476 3.62c.084.56.21 1.723.24 2.13l2.243-.111a67.138 67.138 0 0 1-.575-3.381l-.435-3.113zM191.377 37.771c-.028-.21-.028-.546-.028-.73v-1.794l3.17.028c0-.617.014-1.193.042-1.67l-3.212.015v-1.487c0-.168 0-.505.028-.715.407-.014.87-.014 1.29-.014.899 0 1.684.014 2.44.028 0-.701.043-1.249.114-1.838-.912.043-1.936.07-3.03.07-1.165 0-2.216-.027-3.156-.07.07.673.098 2.567.098 3.465v3.1c0 .91-.029 2.762-.098 3.436.953-.056 2.174-.07 3.31-.07 1.052 0 2.16.014 3.058.07 0-.687.028-1.263.098-1.852-.884.028-1.796.043-2.834.043-.42 0-.883-.015-1.29-.015M203.762 33.059v2.79l-5.302-6.353-1.39.126c.071.674.086 2.385.071 3.283l-.028 3.254c-.014.91-.07 2.706-.14 3.38h2.314c-.041-.393-.056-1.473-.056-2.02v-4.096l5.302 6.326 1.346-.126c-.042-.392-.028-1.515-.028-2.062l.043-5.877c0-.547.028-1.67.084-2.076-.478.057-1.782.07-2.328.07.084.674.112 2.483.112 3.38M207.464 29.594c0 .645-.015 1.375-.056 1.936.995-.013 1.95-.028 3.113-.028.028.743.028 1.64.028 2.188v2.469c0 .91-.028 2.706-.098 3.38h2.413c-.042-.393-.056-1.487-.056-2.02v-5.12c0-.224 0-.589.014-.897 1.164 0 2.048.015 3.058.028 0-.744.041-1.319.112-1.936-1.347.043-2.708.07-4.306.07-1.586 0-2.89-.027-4.222-.07M223.775 37.87c-.351 0-.8-.028-1.15-.056v-2.58c.252-.043.56-.043.925-.043 1.417 0 2.048.546 2.048 1.332 0 .925-.715 1.347-1.823 1.347zm-1.15-6.551c.224-.014.505-.042.925-.042 1.08 0 1.67.42 1.67 1.206 0 .772-.617 1.235-1.698 1.235-.21 0-.715-.015-.897-.015V31.32zm3.156 2.975c.897-.338 1.584-1.081 1.584-2.147 0-1.206-.953-2.54-3.604-2.54-1.263 0-2.918.086-3.367.086.07.672.098 2.468.098 3.366v3.1c0 .91-.028 2.706-.098 3.38h3.633c2.54 0 3.788-1.29 3.788-2.876 0-1.121-.674-2.005-2.034-2.37zM232.162 35.864l1.276-3.268 1.304 3.268h-2.58zm2.034-6.368l-1.515.126c-.28.8-.617 1.557-1.137 2.735l-3.17 7.181h2.371c.169-.448.617-1.64.842-2.173h3.744l.968 2.286 2.414-.113a72.549 72.549 0 0 1-1.333-2.86l-3.184-7.182zM246.594 33.059v2.79l-5.302-6.353-1.39.126c.071.674.086 2.385.071 3.283l-.028 3.254c-.013.91-.07 2.706-.14 3.38h2.314c-.041-.393-.055-1.473-.055-2.02v-4.096l5.302 6.326 1.345-.126c-.041-.392-.026-1.515-.026-2.062l.04-5.877c0-.547.029-1.67.085-2.076-.476.057-1.782.07-2.328.07.085.674.112 2.483.112 3.38M257.126 39.665l2.638-.169c-.576-.645-1.544-1.78-2.091-2.411l-2.258-2.708 4.137-4.727h-2.65c-.645.8-1.487 1.88-2.062 2.553l-1.473 1.823v-2.343c0-.546.014-1.668.056-2.075-.463.056-1.851.07-2.397.07.069.673.098 2.483.098 3.381v3.1c0 .911-.03 2.706-.098 3.38h2.397c-.042-.393-.056-1.488-.056-2.02v-2.483l3.76 4.629zM24.832 37.734c.123.944.48 1.338 1.367 1.506a8.349 8.349 0 0 0 3.382-.043c1.018-.227 1.906-.693 2.581-1.51.508-.615.838-1.33 1.117-2.068.55-1.452.729-2.963.668-4.506-.04-1.047-.184-2.08-.53-3.074-.393-1.13-.982-2.136-1.92-2.902-1.07-.874-2.338-1.231-3.682-1.372-.945-.1-1.892-.07-2.838-.002-.239.017-.239.014-.239.255v6.545c0 1.963-.005 3.928.004 5.892.002.427.034.857.09 1.28M45.676 30.123c.724-.194 1.203-.648 1.424-1.349.361-1.147.342-2.305-.016-3.45-.262-.842-.837-1.36-1.712-1.507-.99-.165-1.99-.094-2.996-.086l-.04 6.778c.049.005.087.013.125.013 1.09 0 2.161-.117 3.215-.399M10.33 25.79l-3.02 7.486h5.993c-.98-2.516-2.107-4.96-2.973-7.486M45.971 39.204a2.307 2.307 0 0 0 1.52-1.236c.722-1.424.825-2.918.435-4.444-.224-.876-.776-1.464-1.686-1.686a16.324 16.324 0 0 0-3.233-.444c-.22-.009-.442-.004-.687-.005l-.001.248c-.011 1.907-.023 3.815-.033 5.723a4.51 4.51 0 0 0 .02.461c.067.662.372 1.133 1.047 1.325.87.247 1.743.29 2.618.058" fill="#002569"/><g transform="translate(0 .117)"><mask id="b" fill="#fff"><use xlink:href="#a"/></mask><path d="M1.489 39.39c.32-.039.64-.074.96-.12.845-.12 1.414-.598 1.74-1.373.425-1.013.845-2.031 1.266-3.049 1.685-4.077 3.372-8.156 5.052-12.236.056-.134.124-.18.264-.172.21.01.422.01.634 0 .115-.005.172.036.217.14.53 1.232 4.612 10.649 6.121 14.126.198.454.389.915.615 1.354.348.675.877 1.134 1.655 1.248.12.017.25.009.371-.014.29-.055.58-.12.866-.192.392-.1.633-.37.72-.75.072-.31.131-.63.132-.945.009-3.959.006-7.917.004-11.875 0-.408-.044-.81-.227-1.184a.918.918 0 0 0-.514-.474c-.484-.189-.992-.257-1.505-.297l-.354-.023v-.814h.208c1.388.008 6.892-.009 8.257.01 1.435.02 2.841.224 4.161.842 2.51 1.172 4.05 3.138 4.678 5.808.443 1.878.369 3.764-.313 5.578-.955 2.538-2.8 4.135-5.395 4.877-.863.246-1.748.341-2.642.342-4.956.004-9.914.002-14.872.002h-.2v-.833c.264 0 .527.017.785-.004.248-.02.502-.05.736-.128.49-.162.639-.428.533-.935a4.091 4.091 0 0 0-.232-.694c-.436-1.054-.883-2.103-1.317-3.157-.054-.13-.12-.165-.252-.165-2.194.003-4.387.004-6.58-.002-.146 0-.208.053-.259.181-.432 1.087-.87 2.17-1.307 3.255-.11.272-.196.545-.141.847a.747.747 0 0 0 .427.58c.315.155.651.207.995.22.238.01.476.002.725.002v.823H1.489v-.8zm35.594-.005c.294-.03.589-.046.88-.09.264-.04.524-.104.785-.165.476-.112.74-.432.834-.895.052-.262.097-.53.098-.797.007-3.98.008-7.96-.003-11.94 0-.332-.077-.669-.16-.992-.084-.328-.313-.544-.64-.658-.468-.164-.951-.234-1.442-.27-.113-.01-.227-.015-.352-.024v-.814h.185c2.81 0 5.62-.007 8.43.003a5.456 5.456 0 0 1 3.203 1.04 2.82 2.82 0 0 1 1.091 1.496 4.432 4.432 0 0 1-.074 2.89 2.75 2.75 0 0 1-1.082 1.356 7.805 7.805 0 0 1-2.835 1.149c-.07.013-.139.029-.208.045l.003.02c.296.042.593.074.887.129a7.178 7.178 0 0 1 2.864 1.203c.833.59 1.327 1.4 1.5 2.403.155.904.114 1.799-.188 2.67-.392 1.123-1.189 1.885-2.217 2.43-.808.43-1.68.62-2.588.622-2.94.007-8.913-.001-8.97-.004v-.807zM0 49.785h53.429V.097H0v49.688z" fill="#002569" mask="url(#b)"/></g></g></svg>
