<svg xmlns="http://www.w3.org/2000/svg" viewBox="-1380 19.044 160.457 56.846"><defs><style>.a{fill:#fff;}.b{fill:#f25432;}.c{fill:#004c6a;}</style></defs><g transform="translate(-1380 19.044)"><g transform="translate(0 13.572)"><g transform="translate(29.044)"><path class="a" d="M87.115,49.735V44.694l-4.188,5.041L78.7,44.694v5.041H74.9V35l8.027,9.5L90.915,35V49.735Z" transform="translate(-74.9 -35)"/></g><g transform="translate(13.494 0.078)"><path class="a" d="M47.79,44.1c0,3.994-2.443,6.359-6.476,6.359-4.072,0-6.514-2.365-6.514-6.359V35.8h3.8v8.259c0,1.978.892,3.1,2.714,3.1s2.714-1.125,2.714-3.1V35.8H47.79Z" transform="translate(-34.8 -35.567)"/><path class="a" d="M129.653,35.8c2.714,0,4.692,1.28,4.692,4.11a3.721,3.721,0,0,1-1.2,2.714,3.539,3.539,0,0,1,1.784,3.3c0,2.792-1.939,4.343-4.886,4.343H123.1V35.8ZM126.9,41.267h2.288c.814,0,1.318-.31,1.318-1.086s-.5-1.086-1.28-1.086H126.9Zm0,5.661h2.676c.931,0,1.473-.388,1.473-1.241s-.543-1.241-1.512-1.241h-2.676v2.482Z" transform="translate(-88.86 -35.567)"/><path class="a" d="M173.349,42.645c0,4.537-3.257,7.445-7.755,7.445-4.576,0-7.794-2.908-7.794-7.445s3.257-7.445,7.794-7.445S173.349,38.147,173.349,42.645Zm-11.672,0c0,2.559,1.512,4.149,3.916,4.149,2.365,0,3.878-1.551,3.878-4.149,0-2.559-1.512-4.149-3.878-4.149C163.19,38.5,161.678,40.086,161.678,42.645Z" transform="translate(-110.105 -35.2)"/></g><g transform="translate(0 0.31)"><path class="a" d="M7.174,35.8v9.074c0,1.512-.582,2.288-1.706,2.288-.892,0-1.435-.659-1.629-1.784H0a5.039,5.039,0,0,0,5.429,5.08c3.49,0,5.545-2.133,5.545-5.7V35.8Z" transform="translate(0 -35.8)"/></g></g><g transform="translate(69.858)"><path class="b" d="M200.763,5.274c-3.141,2.908-5.429,8.027-5.429,15.7,0,3.994.659,10.7.659,13.727,0,4.886-1.9,6.476-4.459,6.476-2.753,0-4.576-1.861-4.77-6.243h-6.592c-.427,10.121,7.019,15.511,16.945,15.511,10.121,0,20.823-6.049,20.823-22.064V0c-6.127,0-13.145,1.59-17.178,5.274" transform="translate(-180.155)"/><path class="b" d="M283.41,15.613c.155,8.686,2.947,12.486,10.663,12.486s10.547-3.8,10.7-12.486l.271-12.835L283.1,2.7Z" transform="translate(-243.182 -1.653)"/><path class="b" d="M371.923,6.457l-12.874,7.019L345.4,5.1l.039,25.67,25.709.427Z" transform="translate(-281.324 -3.122)"/><path class="b" d="M303.288,85.442a6.073,6.073,0,0,0,2.87-5.506c-.039-3.8-2.365-6.476-9.539-6.437l-10.819.116,1.2,28.229,10.7-.116c7.6-.078,11.245-3.257,11.168-8.376a8.106,8.106,0,0,0-5.584-7.91" transform="translate(-244.835 -44.999)"/><path class="b" d="M360.211,101.2c7.755,0,11.71-5.467,11.71-12.021,0-6.592-4.459-12.137-11.71-12.176-7.251-.078-11.711,5.584-11.711,12.176,0,6.514,3.955,12.021,11.711,12.021" transform="translate(-283.222 -47.141)"/><g transform="translate(17.405 20.128)"><path class="a" d="M227.352,52.021a3.156,3.156,0,1,1-2.21,3.878,3.172,3.172,0,0,1,2.21-3.878" transform="translate(-225.041 -51.907)"/><path class="c" d="M227.057,57.426a1.326,1.326,0,1,1-.931,1.629,1.337,1.337,0,0,1,.931-1.629" transform="translate(-225.677 -55.257)"/></g></g></g></svg>