<?xml version="1.0" encoding="utf-8"?>
<!-- Generator: Adobe Illustrator 21.1.0, SVG Export Plug-In . SVG Version: 6.00 Build 0)  -->
<svg version="1.1" id="Layer_1" xmlns="http://www.w3.org/2000/svg" xmlns:xlink="http://www.w3.org/1999/xlink" x="0px" y="0px"
	 viewBox="0 0 156.1 31.6" style="enable-background:new 0 0 156.1 31.6;" xml:space="preserve">
<style type="text/css">
	.st0{fill:#78BC42;}
</style>
<g>
	<polygon class="st0" points="0,9.8 13.8,9.8 13.8,15.9 10.2,15.9 10.2,31.3 3.5,31.3 3.5,15.9 0,15.9 	"/>
	<path class="st0" d="M21.5,20.5c0,2.4,1.9,4.3,4.3,4.3s4.3-1.9,4.3-4.3s-1.9-4.3-4.3-4.3S21.5,18.2,21.5,20.5 M36.9,20.5
		c0,6.1-5,11.1-11.1,11.1s-11.1-5-11.1-11.1s5-11.1,11.1-11.1S36.9,14.4,36.9,20.5"/>
	<path class="st0" d="M39.6,31.3V15.9c0-1.9,0.6-3.5,1.7-4.7c1.2-1.2,2.6-1.8,4.5-1.8c2.2,0,3.9,1,5,3c0.7-1.1,1.5-1.9,2.3-2.3
		c0.8-0.5,1.8-0.7,3-0.7c1.9,0,3.4,0.6,4.4,1.8s1.5,2.9,1.5,5.2v14.8h-6.3V17.4c0-0.7-0.1-1.1-0.2-1.4c-0.1-0.2-0.3-0.3-0.7-0.3
		c-0.6,0-0.9,0.5-0.9,1.6v13.9h-6.3V17.4c0-0.7-0.1-1.1-0.2-1.4c-0.1-0.2-0.3-0.3-0.7-0.3c-0.6,0-0.9,0.6-0.9,1.7v13.8L39.6,31.3
		L39.6,31.3z"/>
	<rect x="65.6" y="9.8" class="st0" width="6.7" height="21.5"/>
	<path class="st0" d="M90.7,31.3H79.4c-2.3,0-4.6-1.1-4.6-4.3c0-1,0.1-1.7,1.3-3.2l6.6-7.8h-6.8V9.8h10.2c2.3,0,4.6,1.1,4.6,4.3
		c0,1-0.1,1.7-1.3,3.2l-6.3,7.8h7.6L90.7,31.3z"/>
	<path class="st0" d="M99.1,20.5c0,2.4,1.9,4.3,4.3,4.3s4.3-1.9,4.3-4.3s-1.9-4.3-4.3-4.3C101.1,16.2,99.1,18.2,99.1,20.5
		 M114.5,20.5c0,6.1-5,11.1-11.1,11.1s-11.1-5-11.1-11.1s5-11.1,11.1-11.1S114.5,14.4,114.5,20.5"/>
	<path class="st0" d="M117.2,31.3V17.4c0-2.4,0.7-4.4,2.2-5.8c1.4-1.5,3.4-2.2,5.8-2.2s4.2,0.7,5.5,2.1s1.9,3.4,1.9,6.1v13.6h-6.3
		V17.7c0-1.3-0.5-1.9-1.4-1.9s-1.3,0.6-1.3,1.9v13.6L117.2,31.3z"/>
	<path class="st0" d="M147.8,18.3V23h-4.1c-0.6,0-1,0.1-1.2,0.2c-0.2,0.2-0.4,0.4-0.4,0.8s0.1,0.7,0.4,0.9c0.2,0.1,0.7,0.2,1.5,0.2
		h4.3v6.1h-5c-2.3,0-4.1-0.6-5.4-1.7c-1.2-1.1-1.9-2.7-1.9-4.8v-8.3c0-2,0.6-3.6,1.8-4.7s2.8-1.7,4.9-1.7h5.5v6.1h-4
		c-1.1,0-1.6,0.4-1.6,1.1c0,0.4,0.1,0.7,0.4,0.9c0.3,0.2,0.7,0.2,1.4,0.2L147.8,18.3z"/>
	<path class="st0" d="M67.4,3.8c0,0.8,0.7,1.5,1.5,1.5s1.5-0.7,1.5-1.5s-0.7-1.5-1.5-1.5S67.4,3,67.4,3.8 M72.7,3.8
		c0,2.1-1.7,3.8-3.8,3.8c-2.1,0-3.8-1.7-3.8-3.8S66.8,0,68.9,0S72.7,1.7,72.7,3.8"/>
	<path class="st0" d="M153.3,4.6c0.4,0,0.8,0.1,1.2,0.3c0.4,0.2,0.7,0.5,0.9,0.9s0.3,0.8,0.3,1.2c0,0.4-0.1,0.8-0.3,1.2
		s-0.5,0.7-0.9,0.9s-0.8,0.3-1.2,0.3s-0.8-0.1-1.2-0.3s-0.7-0.5-0.9-0.9c-0.2-0.4-0.3-0.8-0.3-1.2c0-0.4,0.1-0.8,0.3-1.2
		c0.2-0.4,0.5-0.7,0.9-0.9C152.4,4.7,152.8,4.6,153.3,4.6 M153.3,5c-0.3,0-0.7,0.1-1,0.3c-0.3,0.2-0.6,0.4-0.8,0.7
		c-0.2,0.3-0.3,0.7-0.3,1c0,0.4,0.1,0.7,0.3,1s0.4,0.6,0.8,0.7c0.3,0.2,0.7,0.3,1,0.3s0.7-0.1,1-0.3s0.6-0.4,0.7-0.8
		c0.2-0.3,0.3-0.7,0.3-1c0-0.4-0.1-0.7-0.3-1s-0.4-0.6-0.8-0.8C153.9,5.1,153.6,5,153.3,5 M152.2,8.4V5.8h0.9c0.3,0,0.5,0,0.7,0.1
		c0.1,0,0.2,0.1,0.3,0.3c0.1,0.1,0.1,0.2,0.1,0.4c0,0.2-0.1,0.4-0.2,0.5c-0.1,0.1-0.3,0.2-0.5,0.2c0.1,0,0.2,0.1,0.2,0.1
		c0.1,0.1,0.2,0.3,0.4,0.5l0.3,0.5h-0.5L153.7,8c-0.2-0.3-0.3-0.5-0.4-0.6c-0.1-0.1-0.2-0.1-0.3-0.1h-0.2v1.1L152.2,8.4z M152.6,6.9
		h0.5c0.2,0,0.4,0,0.5-0.1s0.1-0.2,0.1-0.3c0-0.1,0-0.1-0.1-0.2c0-0.1-0.1-0.1-0.2-0.1c-0.1,0-0.2,0-0.4,0h-0.5L152.6,6.9z"/>
</g>
</svg>
