<svg id="Logo" xmlns="http://www.w3.org/2000/svg" viewBox="0 0 148.935 39.283"><defs><style>.cls-1{fill:#fff}</style></defs><title>Anchor_1</title><path class="cls-1" d="M54.81 31.282a.494.494 0 0 0-.736.038 7.48 7.48 0 0 1-6.012 2.658c-4.244 0-7.113-3.048-7.59-7.173H61.18a.507.507 0 0 0 .505-.513c-.2-10.862-6.682-15.507-13.8-15.507-7.95 0-13.748 5.918-13.748 14.167s5.918 14.226 13.927 14.226a14.31 14.31 0 0 0 10.1-3.837.5.5 0 0 0 0-.708zm-6.868-15.3A7.01 7.01 0 0 1 55 22.442H40.47c.718-3.826 3.467-6.456 7.472-6.456zM22.66 34.516c-1.436 2.69-5.082 4.662-9.027 4.662C5.8 39.178.063 33.2.063 24.952s5.62-14.166 13.45-14.166c4 0 7.772 2.032 9.266 4.722-.06-1.853-.06-4.065-.06-6.157V.606a.5.5 0 0 1 .5-.5h4.918a.5.5 0 0 1 .5.5v37.357a.5.5 0 0 1-.5.5h-4.98a.5.5 0 0 1-.5-.5zm-16.5-9.564c0 5.14 3.406 9.086 8.367 9.086 4.9 0 8.368-3.945 8.368-9.086s-3.467-9.026-8.368-9.026c-4.96 0-8.366 3.886-8.366 9.026zm92.22 3.706V12a.5.5 0 0 1 .5-.5h4.98a.5.5 0 0 1 .5.5v15.88c0 4.245 2.808 6.158 6.335 6.158s6.336-1.913 6.336-6.157V12a.5.5 0 0 1 .5-.5h4.92a.5.5 0 0 1 .5.5v16.658c0 5.68-4.483 10.52-12.254 10.52s-12.314-4.84-12.314-10.52zm44.332 2.27c0-1.912-1.554-2.63-5.02-3.825l-1.555-.538c-4.662-1.614-7.65-3.646-7.65-7.95 0-4.483 4.183-7.83 10.1-7.83a15.39 15.39 0 0 1 9.915 3.39.506.506 0 0 1 .068.7l-2.63 3.36a.5.5 0 0 1-.69.09 11.39 11.39 0 0 0-6.6-2.575c-2.213 0-4 1.016-4 2.57 0 1.435.955 2.032 3.346 2.87l3.168 1.135c5.38 1.913 7.71 4.543 7.71 8.548 0 3.826-3.406 8.31-10.938 8.31a16.377 16.377 0 0 1-10.455-3.64.508.508 0 0 1-.085-.69l2.584-3.558a.5.5 0 0 1 .71-.094 13.168 13.168 0 0 0 7.246 3.02c3.344-.003 4.78-1.62 4.78-3.29zm-50.106 3.307a.5.5 0 0 1 0 .706l-3.522 3.523a.5.5 0 0 1-.706 0l-8.11-8.11a1.067 1.067 0 0 1-.354-.852v-9.04a1.067 1.067 0 0 1 .353-.853l8.11-8.11a.5.5 0 0 1 .707 0l3.522 3.522a.5.5 0 0 1 0 .705l-7.462 7.462a.976.976 0 0 0-.353.852v1.88a.976.976 0 0 0 .354.853zm-20-7.462a.976.976 0 0 0 .353-.852v-1.88a.976.976 0 0 0-.354-.853l-7.462-7.462a.5.5 0 0 1 0-.706l3.524-3.52a.5.5 0 0 1 .706 0l8.11 8.11a1.067 1.067 0 0 1 .354.852V29.5a1.067 1.067 0 0 1-.353.852l-8.11 8.11a.5.5 0 0 1-.707 0l-3.522-3.522a.5.5 0 0 1 0-.706z"/></svg>