<svg xmlns="http://www.w3.org/2000/svg" width="162" height="44" viewBox="0 0 162 44">
    <g fill="#FF6753" fill-rule="nonzero">
        <path d="M49.661 28.32c.727 0 1.316-.588 1.316-1.313s-.59-1.313-1.316-1.313h-2.449v-3.626a1.561 1.561 0 0 0-1.561-1.482c-.833 0-1.52.652-1.561 1.482v3.626h-.517c-.727 0-1.316.588-1.316 1.313s.589 1.312 1.316 1.312h.517v7.685c0 2.925 1.624 3.91 3.92 3.91a6.346 6.346 0 0 0 2.142-.352c.488-.195.812-.662.825-1.187a1.303 1.303 0 0 0-1.316-1.26 7.685 7.685 0 0 1-.76.076c-1.058 0-1.678-.478-1.678-1.665V28.32h2.438zM55.232 26.279a1.523 1.523 0 0 0-1.548 1.54v10.544c.041.83.728 1.483 1.561 1.483.834 0 1.52-.652 1.561-1.483V27.82a1.542 1.542 0 0 0-1.574-1.54M67.31 26.218c-2.115 0-3.377 1.085-4.255 2.321v-.66a1.542 1.542 0 0 0-1.575-1.536 1.523 1.523 0 0 0-1.548 1.536v10.545c0 .86.7 1.557 1.561 1.557a1.56 1.56 0 0 0 1.562-1.557v-6.13c0-2.067 1.262-3.303 3.068-3.303 1.807 0 2.913 1.187 2.913 3.254v6.18a1.515 1.515 0 0 0 1.575 1.516 1.523 1.523 0 0 0 1.547-1.517v-7.112c0-3.08-1.78-5.098-4.848-5.098M86.035 26.218c-.799 0-1.236.527-1.495 1.16l-3.422 8.854-3.662-8.853c-.285-.71-.723-1.161-1.521-1.161a1.485 1.485 0 0 0-1.53 1.472c.016.253.078.501.183.732l5.054 11.049-.102.277c-.476.952-.932 1.346-1.727 1.4a1.739 1.739 0 0 0-3.327.652c.002.514.242.999.65 1.312l.038.03c.042.031.08.061.126.088.065.04.134.076.205.106l.106.042.061.023c.69.267 1.425.396 2.164.379 2.194 0 3.423-1.009 4.59-3.732l4.978-11.68c.076-.236.12-.483.13-.731a1.455 1.455 0 0 0-1.495-1.438M100.862 33.053c0 2.621-1.753 4.26-3.894 4.26s-3.97-1.715-3.97-4.26V33c0-2.545 1.856-4.263 3.97-4.263s3.894 1.691 3.894 4.263v.053zm-3.13-6.964c-2.217 0-3.635 1.111-4.643 2.5V22.06a1.515 1.515 0 0 0-1.574-1.518 1.523 1.523 0 0 0-1.548 1.518v16.25c0 .858.698 1.555 1.56 1.555.86 0 1.558-.697 1.558-1.556v-.69a5.595 5.595 0 0 0 4.647 2.344c3.225 0 6.317-2.496 6.317-6.91V33c0-4.438-3.118-6.911-6.317-6.911zM110.49 29.355c1.7-1.138 3.572-.535 4.88.97l-5.758 3.874c-.966-1.863-.692-3.793.879-4.848m7.986 3.695a1.138 1.138 0 0 0-.498.67 4.78 4.78 0 0 1-1.993 2.743c-1.658 1.115-3.655.99-5.187-.61l7.039-4.746a1.41 1.41 0 0 0 .38-2.021c-1.78-2.534-5.56-4.218-9.127-1.817-3.21 2.158-3.67 6.266-1.464 9.407l.03.041c2.381 3.388 6.511 4.01 9.763 1.825a6.828 6.828 0 0 0 3.015-4.172 1.306 1.306 0 0 0-.228-.987 1.24 1.24 0 0 0-1.734-.333M131.288 34.897c0 1.691-1.574 2.852-3.635 2.852-1.495 0-2.662-.732-2.662-2.018v-.05c0-1.388 1.186-2.218 3.198-2.218a8.843 8.843 0 0 1 3.096.527l.003.907zm-3.019-8.706a11.248 11.248 0 0 0-4.252.74 1.675 1.675 0 0 0-.9.884 1.631 1.631 0 0 0-.145.675 1.73 1.73 0 1 0 3.38.482 9.268 9.268 0 0 1 1.522-.125c2.194 0 3.376 1.009 3.376 2.901v.326c-1.182-.38-2.419-.569-3.662-.557-3.327 0-5.62 1.41-5.62 4.29v.05c0 2.673 2.281 4.11 4.822 4.11a5.585 5.585 0 0 0 4.407-1.945v.505c0 .679.62 1.285 1.521 1.285a1.474 1.474 0 0 0 1.521-1.464v-6.554c0-1.741-.464-3.156-1.471-4.112-1.008-.956-2.476-1.487-4.514-1.487l.015-.004zM144.397 26.218c-2.115 0-3.377 1.085-4.256 2.321v-.66a1.542 1.542 0 0 0-1.574-1.536 1.523 1.523 0 0 0-1.548 1.536v10.545c.041.83.728 1.482 1.561 1.482.834 0 1.52-.652 1.561-1.482v-6.13c0-2.067 1.263-3.303 3.07-3.303 1.806 0 2.912 1.187 2.912 3.254v6.18a1.515 1.515 0 0 0 1.575 1.516 1.523 1.523 0 0 0 1.547-1.517v-7.112c0-3.08-1.78-5.098-4.848-5.098M157.748 31.817c-1.6-.505-3.068-.907-3.068-1.897v-.05c0-.758.695-1.312 1.901-1.312a5.74 5.74 0 0 1 1.658.285c.157.859.934 1.465 1.808 1.41a1.724 1.724 0 0 0 1.615-1.626v-.046-.045a1.268 1.268 0 0 0-.107-.478c-.11-.301-.304-.564-.559-.759l-.076-.06-.06-.042-.088-.057a8.83 8.83 0 0 0-4.096-.998c-2.708 0-4.849 1.54-4.849 4.062v.05c0 2.549 2.244 3.357 4.256 3.91 1.597.478 3.042.831 3.042 1.867v.049c0 .884-.76 1.438-2.114 1.438a6.517 6.517 0 0 1-2.396-.494 1.728 1.728 0 0 0-1.741-1.632 1.728 1.728 0 0 0-1.716 1.659v.125c.005.142.039.281.099.41.117.347.344.646.647.853.041.03.084.058.129.084a8.31 8.31 0 0 0 4.883 1.396c2.837 0 5.054-1.389 5.054-4.173v-.05c0-2.396-2.244-3.28-4.23-3.883M55.244 20.555a1.698 1.698 0 0 0-1.67 1.716c.012.933.777 1.681 1.712 1.675a1.698 1.698 0 0 0 1.688-1.7 1.713 1.713 0 0 0-1.73-1.691M19.615 14.706c-.243-1.942.954-2.466 1.456-2.822l-.51-.414-.706.156-1.1 3.144.35 1.078.51-1.142z"/>
        <path d="M17.994 13.88c-.662-1.047-2.258-1.306-2.322-1.28-.37.144-.855.301-1.09.37-1.39.419-2.85.557-4.295.407-2.038-.256-3.92-1.425-5.504-2.63-.4-.304-.782-.634-1.14-.987a12.94 12.94 0 0 1-2.566-3.742.237.237 0 0 1 .283-.317c.7.177 1.456-.051 2.126-.35.86-.416 1.748-.766 2.66-1.05 4.529-1.265 10.672.57 11.84 4.846.214.784.086 1.391 0 2.041l.046.337s.059.417.933.357c1.1-.252 1.392-1.53 1.436-1.555l.786-1.795a5.49 5.49 0 0 1 .106-.588C23.117.214 32.968-.68 37.443.348c.741.177 1.472.393 2.19.647.473.16.936.35 1.385.57a.855.855 0 0 1-.157 1.557l-.2.068c-1.296.476-2.012 1.821-2.722 2.896a18.006 18.006 0 0 1-4.671 4.863c-2.25 1.579-5.157 2.588-7.95 2.063a7.722 7.722 0 0 1-.764-.185 6.587 6.587 0 0 1-2.494-1.314 2.702 2.702 0 0 1-.243-.25 4.56 4.56 0 0 0-.345.495l-.239.254-.804.667-.658.441c-.049.165-.084.347-.1.551.298 1.433.547 4.436-.168 10.367-.048.402-.053.708.646 1.205 2.93-.601 4.732-2.095 8.76-2.095l.009-.008c2.32 0 7.206 1.265 7.206 7.636 0 6.519-10.11 10.948-18.243 10.948C9.749 41.724 0 37.765 0 29.753c0-3.68 3.406-6.884 8.332-6.884 3.993 0 4.593 1.721 7.153 2.373 1.573-.592 3.364-3.005 2.51-11.361zm-6.62 13.381h-.012a1.425 1.425 0 0 0-.348-.427 5.376 5.376 0 0 0-1.203-.801 6.395 6.395 0 0 0-.376-.174 7.28 7.28 0 0 0-1.237-.393 4.846 4.846 0 0 0-1.063-.14c-.351-.024-.7.058-1.004.237a.855.855 0 0 0-.176.168.607.607 0 0 0-.089.513c.082.307.3.56.593.684.11.049.225.089.342.12.176.044.355.075.536.09.476.055.924.01 1.4.055a4.612 4.612 0 0 1 .924.188c.17.051.338.114.507.18.283.148.6.22.92.208a.373.373 0 0 0 .285-.508z"/>
    </g>
</svg>
