<svg width="498" height="143" viewBox="0 0 498 143" fill="none" xmlns="http://www.w3.org/2000/svg">
<rect width="496.5" height="141.8" fill="black" fill-opacity="0" transform="translate(0.900002 0.700001)"/>
<rect width="496.5" height="141.8" fill="black" fill-opacity="0" transform="translate(0.900002 0.700001)"/>
<rect width="271.172" height="74.2" fill="black" fill-opacity="0" transform="translate(0.900002 0.700001)"/>
<path d="M48.9 58.9L39 19.3H38.8L29.1 58.9H16.1L0.900002 0.700001H13.7L22.9 40.3H23L33.1 0.700001H45.1L55 40.8H55.2L64.7 0.700001H77.2L61.6 58.9H48.9Z" fill="url(#paint0_linear)"/>
<path d="M78.1 23C79.3 21.2 80.8 19.8 82.7 18.7C84.5 17.6 86.6 16.8 88.9 16.4C91.2 15.9 93.5 15.7 95.9 15.7C98 15.7 100.2 15.9 102.3 16.1C104.5 16.4 106.5 17 108.2 17.9C110 18.8 111.5 20 112.6 21.5C113.7 23 114.3 25.1 114.3 27.7V49.6C114.3 51.5 114.4 53.3 114.6 55.1C114.8 56.8 115.2 58.1 115.7 59H104C103.8 58.3 103.6 57.7 103.5 57C103.4 56.3 103.3 55.6 103.2 54.9C101.4 56.8 99.2 58.1 96.7 58.9C94.2 59.7 91.6 60 89 60C87 60 85.1 59.8 83.4 59.3C81.7 58.8 80.1 58.1 78.8 57C77.5 56 76.5 54.7 75.7 53.1C75 51.5 74.6 49.7 74.6 47.5C74.6 45.1 75 43.1 75.9 41.6C76.7 40.1 77.8 38.8 79.2 37.9C80.5 37 82.1 36.3 83.8 35.8C85.5 35.3 87.2 35 89 34.7C90.7 34.4 92.4 34.2 94.1 34C95.8 33.8 97.3 33.6 98.6 33.3C99.9 33 100.9 32.5 101.7 31.9C102.5 31.3 102.8 30.4 102.8 29.2C102.8 28 102.6 27 102.2 26.2C101.8 25.5 101.2 24.9 100.6 24.5C99.9 24.1 99.1 23.8 98.2 23.7C97.3 23.6 96.3 23.5 95.3 23.5C93 23.5 91.2 24 89.9 25C88.6 26 87.8 27.6 87.6 29.9H76C76.2 27 76.9 24.8 78.1 23ZM101 39.3C100.3 39.5 99.5 39.7 98.6 39.9C97.8 40.1 96.9 40.2 96 40.3C95.1 40.4 94.2 40.5 93.2 40.7C92.3 40.9 91.5 41.1 90.6 41.4C89.8 41.7 89 42 88.4 42.5C87.8 43 87.3 43.5 86.9 44.3C86.5 45 86.3 45.9 86.3 47C86.3 48 86.5 48.9 86.9 49.6C87.3 50.3 87.8 50.9 88.4 51.3C89.1 51.7 89.8 52 90.7 52.2C91.6 52.4 92.5 52.4 93.4 52.4C95.7 52.4 97.4 52 98.7 51.3C99.9 50.5 100.9 49.6 101.5 48.6C102.1 47.5 102.5 46.5 102.6 45.4C102.7 44.3 102.8 43.4 102.8 42.8V38.5C102.3 38.7 101.7 39.1 101 39.3Z" fill="url(#paint1_linear)"/>
<path d="M132 16.8V22.7H132.2C133.7 20.3 135.6 18.5 137.9 17.4C140.2 16.3 142.6 15.7 145.1 15.7C148.2 15.7 150.7 16.1 152.7 17C154.7 17.8 156.2 19 157.4 20.5C158.5 22 159.3 23.8 159.8 26C160.3 28.1 160.5 30.5 160.5 33.1V59H148.9V35.1C148.9 31.6 148.4 29 147.3 27.3C146.2 25.6 144.3 24.7 141.5 24.7C138.3 24.7 136.1 25.6 134.7 27.5C133.3 29.4 132.6 32.5 132.6 36.8V58.9H121V16.8H132Z" fill="url(#paint2_linear)"/>
<path d="M206.4 62C205.9 64.2 204.9 66.2 203.4 68.1C201.9 70 199.7 71.6 196.8 72.9C193.9 74.2 190.1 74.9 185.2 74.9C183.1 74.9 181 74.6 178.9 74.1C176.8 73.6 174.8 72.8 173 71.7C171.2 70.6 169.8 69.2 168.6 67.5C167.4 65.8 166.8 63.7 166.6 61.3H178.1C178.6 63.5 179.7 65 181.3 65.8C182.9 66.6 184.7 67.1 186.8 67.1C190.1 67.1 192.4 66.1 193.9 64.2C195.4 62.2 196.1 59.8 196.1 56.8V51.3H195.9C194.7 53.5 192.9 55.2 190.6 56.2C188.3 57.3 185.9 57.8 183.3 57.8C180.1 57.8 177.4 57.2 175.2 56.1C172.9 55 171 53.5 169.6 51.5C168.1 49.6 167.1 47.3 166.4 44.7C165.7 42.1 165.4 39.4 165.4 36.5C165.4 33.8 165.8 31.2 166.6 28.6C167.4 26.1 168.5 23.8 170.1 21.9C171.6 20 173.5 18.4 175.8 17.3C178.1 16.2 180.6 15.6 183.6 15.6C186.4 15.6 188.8 16.1 190.9 17.1C193 18.1 194.7 19.9 196.2 22.3H196.4V16.7H207.4V56.1C207.1 57.9 206.8 59.8 206.4 62ZM190.5 48C191.7 47.3 192.8 46.5 193.6 45.4C194.4 44.3 195 43.1 195.4 41.7C195.8 40.3 196 38.9 196 37.3C196 35.6 195.8 33.9 195.5 32.4C195.2 30.9 194.6 29.5 193.9 28.3C193.1 27.1 192.1 26.2 190.9 25.4C189.6 24.7 188.1 24.3 186.2 24.3C184.6 24.3 183.2 24.6 182 25.3C180.8 26 179.9 26.8 179.1 27.9C178.3 29 177.7 30.3 177.4 31.7C177 33.1 176.9 34.6 176.9 36.2C176.9 37.7 177 39.2 177.3 40.7C177.6 42.2 178.1 43.5 178.8 44.7C179.5 45.9 180.5 46.9 181.7 47.6C182.9 48.4 184.4 48.7 186.2 48.7C187.8 49 189.3 48.6 190.5 48Z" fill="url(#paint3_linear)"/>
<path d="M225.5 0.700001V58.9H213.9V0.700001H225.5Z" fill="url(#paint4_linear)"/>
<path d="M244.5 48.8C246.2 50.5 248.7 51.3 252 51.3C254.3 51.3 256.3 50.7 258 49.5C259.7 48.3 260.7 47.1 261.1 45.8H271.3C269.7 50.9 267.2 54.5 263.8 56.6C260.4 58.8 256.4 59.9 251.6 59.9C248.3 59.9 245.3 59.4 242.6 58.3C239.9 57.2 237.7 55.7 235.8 53.8C234 51.8 232.5 49.5 231.5 46.8C230.5 44.1 230 41.1 230 37.8C230 34.6 230.5 31.7 231.5 29C232.5 26.3 234 23.9 235.9 22C237.8 20 240.1 18.5 242.7 17.3C245.3 16.2 248.3 15.6 251.5 15.6C255.1 15.6 258.2 16.3 260.9 17.7C263.6 19.1 265.7 20.9 267.5 23.3C269.2 25.6 270.4 28.3 271.2 31.3C272 34.3 272.2 37.4 272 40.7H241.6C241.8 44.4 242.8 47.1 244.5 48.8ZM257.6 26.6C256.2 25.1 254.1 24.3 251.3 24.3C249.5 24.3 247.9 24.6 246.7 25.2C245.5 25.8 244.5 26.6 243.8 27.5C243.1 28.4 242.6 29.4 242.3 30.4C242 31.4 241.8 32.4 241.8 33.2H260.6C260 30.4 259 28.2 257.6 26.6Z" fill="url(#paint5_linear)"/>
<rect width="495.7" height="74.2" fill="black" fill-opacity="0" transform="translate(1.7 68.3)"/>
<path d="M1.7 79V68.3H49.4V79H31.9V126.4H19.1V79H1.7Z" fill="#939598"/>
<path d="M57.1 116.4C58.8 118.1 61.3 118.9 64.6 118.9C66.9 118.9 68.9 118.3 70.6 117.1C72.3 115.9 73.3 114.7 73.7 113.4H83.9C82.3 118.5 79.8 122.1 76.4 124.2C73 126.4 69 127.5 64.2 127.5C60.9 127.5 57.9 127 55.2 125.9C52.5 124.8 50.3 123.3 48.4 121.4C46.6 119.4 45.1 117.1 44.1 114.4C43.1 111.7 42.6 108.7 42.6 105.4C42.6 102.2 43.1 99.3 44.1 96.6C45.1 93.9 46.6 91.5 48.5 89.6C50.4 87.6 52.7 86.1 55.3 84.9C57.9 83.8 60.9 83.2 64.1 83.2C67.7 83.2 70.8 83.9 73.5 85.3C76.2 86.7 78.3 88.5 80.1 90.9C81.8 93.2 83 95.9 83.8 98.9C84.6 101.9 84.8 105 84.6 108.3H54.2C54.4 112 55.4 114.7 57.1 116.4ZM70.2 94.2C68.8 92.7 66.7 91.9 63.9 91.9C62.1 91.9 60.5 92.2 59.3 92.8C58.1 93.4 57.1 94.2 56.4 95.1C55.7 96 55.2 97 54.9 98C54.6 99 54.4 100 54.4 100.8H73.2C72.5 97.9 71.6 95.7 70.2 94.2Z" fill="#939598"/>
<path d="M109 91.9C107.2 91.9 105.6 92.3 104.4 93.2C103.2 94 102.1 95.1 101.3 96.5C100.5 97.8 100 99.3 99.6 100.9C99.3 102.5 99.1 104.1 99.1 105.7C99.1 107.2 99.3 108.8 99.6 110.3C99.9 111.9 100.5 113.3 101.2 114.6C101.9 115.9 102.9 116.9 104.2 117.7C105.4 118.5 107 118.9 108.8 118.9C111.6 118.9 113.7 118.1 115.2 116.6C116.7 115.1 117.6 113 118 110.4H129.2C128.4 116 126.3 120.3 122.7 123.2C119.1 126.1 114.5 127.6 108.9 127.6C105.7 127.6 102.9 127.1 100.2 126C97.6 124.9 95.3 123.5 93.5 121.6C91.7 119.7 90.2 117.4 89.2 114.8C88.2 112.2 87.7 109.3 87.7 106.1C87.7 102.8 88.2 99.8 89.1 97C90 94.2 91.4 91.8 93.3 89.7C95.1 87.7 97.4 86.1 100.1 84.9C102.8 83.8 105.8 83.2 109.2 83.2C111.7 83.2 114.1 83.5 116.4 84.2C118.7 84.9 120.8 85.8 122.6 87.2C124.4 88.5 125.9 90.2 127 92.2C128.1 94.2 128.8 96.5 129 99.2H117.7C116.8 94.3 113.9 91.9 109 91.9Z" fill="#939598"/>
<path d="M144.9 68.3V90.2H145.1C146.6 87.8 148.4 86 150.7 84.9C153 83.8 155.2 83.2 157.4 83.2C160.5 83.2 163 83.6 165 84.5C167 85.3 168.5 86.5 169.7 88C170.8 89.5 171.6 91.3 172.1 93.5C172.6 95.6 172.8 98 172.8 100.6V126.5H161.2V102.7C161.2 99.2 160.7 96.6 159.6 94.9C158.5 93.2 156.6 92.3 153.8 92.3C150.6 92.3 148.4 93.2 147 95.1C145.6 97 144.9 100.1 144.9 104.4V126.5H133.3V68.3H144.9Z" fill="#939598"/>
<path d="M190.3 84.3V90.2H190.5C192 87.8 193.9 86 196.2 84.9C198.5 83.8 200.9 83.2 203.4 83.2C206.5 83.2 209 83.6 211 84.5C213 85.3 214.5 86.5 215.7 88C216.8 89.5 217.6 91.3 218.1 93.5C218.6 95.6 218.8 98 218.8 100.6V126.5H207.2V102.7C207.2 99.2 206.7 96.6 205.6 94.9C204.5 93.2 202.6 92.3 199.8 92.3C196.6 92.3 194.4 93.2 193 95.1C191.6 97 190.9 100.1 190.9 104.4V126.5H179.3V84.4H190.3V84.3Z" fill="#939598"/>
<path d="M225 96.3C226 93.6 227.5 91.2 229.4 89.3C231.3 87.4 233.6 85.9 236.2 84.8C238.9 83.7 241.9 83.2 245.2 83.2C248.5 83.2 251.5 83.7 254.2 84.8C256.9 85.9 259.2 87.4 261.1 89.3C263 91.2 264.5 93.6 265.5 96.3C266.5 99 267 102.1 267 105.5C267 108.9 266.5 111.9 265.5 114.6C264.5 117.3 263 119.6 261.1 121.6C259.2 123.5 256.9 125 254.2 126C251.5 127 248.5 127.5 245.2 127.5C241.9 127.5 238.9 127 236.2 126C233.5 125 231.3 123.5 229.4 121.6C227.5 119.7 226 117.3 225 114.6C224 111.9 223.5 108.8 223.5 105.5C223.4 102.1 223.9 99 225 96.3ZM235.5 110.4C235.8 112 236.4 113.4 237.2 114.7C238 116 239 117 240.3 117.8C241.6 118.6 243.2 118.9 245.2 118.9C247.2 118.9 248.8 118.5 250.1 117.8C251.4 117 252.5 116 253.3 114.7C254.1 113.4 254.6 112 255 110.4C255.3 108.8 255.5 107.2 255.5 105.5C255.5 103.8 255.3 102.2 255 100.5C254.7 98.9 254.1 97.4 253.3 96.2C252.5 95 251.5 93.9 250.1 93.1C248.8 92.3 247.1 91.9 245.2 91.9C243.2 91.9 241.6 92.3 240.3 93.1C239 93.9 237.9 94.9 237.2 96.2C236.4 97.5 235.9 98.9 235.5 100.5C235.2 102.1 235 103.8 235 105.5C235 107.1 235.2 108.8 235.5 110.4Z" fill="#939598"/>
<path d="M283.6 68.3V126.5H272V68.3H283.6Z" fill="#939598"/>
<path d="M290.1 96.3C291.1 93.6 292.6 91.2 294.5 89.3C296.4 87.4 298.7 85.9 301.3 84.8C304 83.7 307 83.2 310.3 83.2C313.6 83.2 316.6 83.7 319.3 84.8C322 85.9 324.3 87.4 326.2 89.3C328.1 91.2 329.6 93.6 330.6 96.3C331.6 99 332.1 102.1 332.1 105.5C332.1 108.9 331.6 111.9 330.6 114.6C329.6 117.3 328.1 119.6 326.2 121.6C324.3 123.5 322 125 319.3 126C316.6 127 313.6 127.5 310.3 127.5C307 127.5 304 127 301.3 126C298.6 125 296.4 123.5 294.5 121.6C292.6 119.7 291.1 117.3 290.1 114.6C289.1 111.9 288.6 108.8 288.6 105.5C288.6 102.1 289.1 99 290.1 96.3ZM300.6 110.4C300.9 112 301.5 113.4 302.3 114.7C303.1 116 304.1 117 305.4 117.8C306.7 118.6 308.3 118.9 310.3 118.9C312.3 118.9 313.9 118.5 315.2 117.8C316.5 117 317.6 116 318.4 114.7C319.2 113.4 319.7 112 320.1 110.4C320.4 108.8 320.6 107.2 320.6 105.5C320.6 103.8 320.4 102.2 320.1 100.5C319.8 98.9 319.2 97.4 318.4 96.2C317.6 95 316.6 93.9 315.2 93.1C313.9 92.3 312.2 91.9 310.3 91.9C308.3 91.9 306.7 92.3 305.4 93.1C304.1 93.9 303 94.9 302.3 96.2C301.5 97.5 301 98.9 300.6 100.5C300.3 102.1 300.1 103.8 300.1 105.5C300.1 107.1 300.3 108.8 300.6 110.4Z" fill="#939598"/>
<path d="M376.4 129.6C375.9 131.8 374.9 133.8 373.4 135.7C371.9 137.6 369.7 139.2 366.8 140.5C363.9 141.8 360.1 142.5 355.2 142.5C353.1 142.5 351 142.2 348.9 141.7C346.8 141.2 344.8 140.4 343 139.3C341.2 138.2 339.8 136.8 338.6 135.1C337.4 133.4 336.8 131.3 336.6 128.9H348.1C348.6 131.1 349.7 132.6 351.3 133.4C352.9 134.2 354.7 134.7 356.8 134.7C360.1 134.7 362.4 133.7 363.9 131.8C365.4 129.8 366.1 127.4 366.1 124.4V118.9H365.9C364.7 121.1 362.9 122.8 360.6 123.8C358.3 124.9 355.9 125.4 353.3 125.4C350.1 125.4 347.4 124.8 345.2 123.7C342.9 122.6 341 121.1 339.6 119.1C338.1 117.2 337.1 114.9 336.4 112.3C335.7 109.7 335.4 107 335.4 104.1C335.4 101.4 335.8 98.8 336.6 96.2C337.4 93.7 338.5 91.4 340.1 89.5C341.6 87.6 343.5 86 345.8 84.9C348.1 83.8 350.6 83.2 353.6 83.2C356.4 83.2 358.8 83.7 360.9 84.7C363 85.7 364.7 87.5 366.2 89.9H366.4V84.3H377.4V123.7C377.1 125.5 376.9 127.4 376.4 129.6ZM360.5 115.6C361.7 114.9 362.8 114.1 363.6 113C364.4 111.9 365 110.7 365.4 109.3C365.8 107.9 366 106.5 366 104.9C366 103.2 365.8 101.5 365.5 100C365.2 98.5 364.6 97.1 363.9 95.9C363.1 94.7 362.1 93.8 360.9 93C359.6 92.3 358.1 91.9 356.2 91.9C354.6 91.9 353.2 92.2 352 92.9C350.8 93.6 349.9 94.4 349.1 95.5C348.3 96.6 347.7 97.9 347.4 99.3C347 100.7 346.9 102.2 346.9 103.8C346.9 105.3 347 106.8 347.3 108.3C347.6 109.8 348.1 111.1 348.8 112.3C349.5 113.5 350.5 114.5 351.7 115.2C352.9 116 354.4 116.3 356.2 116.3C357.9 116.5 359.3 116.2 360.5 115.6Z" fill="#939598"/>
<path d="M383.9 77.8V68.3H395.5V77.8H383.9ZM395.5 84.3V126.4H383.9V84.3H395.5V84.3Z" fill="#939598"/>
<path d="M414.5 116.4C416.2 118.1 418.7 118.9 422 118.9C424.3 118.9 426.3 118.3 428 117.1C429.7 115.9 430.7 114.7 431.1 113.4H441.3C439.7 118.5 437.2 122.1 433.8 124.2C430.4 126.4 426.4 127.5 421.6 127.5C418.3 127.5 415.3 127 412.6 125.9C409.9 124.8 407.7 123.3 405.8 121.4C404 119.4 402.5 117.1 401.5 114.4C400.5 111.7 400 108.7 400 105.4C400 102.2 400.5 99.3 401.5 96.6C402.5 93.9 404 91.5 405.9 89.6C407.8 87.6 410.1 86.1 412.7 84.9C415.3 83.8 418.3 83.2 421.5 83.2C425.1 83.2 428.2 83.9 430.9 85.3C433.6 86.7 435.7 88.5 437.5 90.9C439.2 93.2 440.4 95.9 441.2 98.9C442 101.9 442.2 105 442 108.3H411.6C411.9 112 412.8 114.7 414.5 116.4ZM427.6 94.2C426.2 92.7 424.1 91.9 421.3 91.9C419.5 91.9 417.9 92.2 416.7 92.8C415.5 93.4 414.5 94.2 413.8 95.1C413.1 96 412.6 97 412.3 98C412 99 411.8 100 411.8 100.8H430.6C430 97.9 429 95.7 427.6 94.2Z" fill="#939598"/>
<path d="M456 116C456.5 116.9 457.2 117.6 458 118.2C458.8 118.8 459.8 119.2 460.8 119.5C461.9 119.8 463 119.9 464.1 119.9C464.9 119.9 465.8 119.8 466.7 119.6C467.6 119.4 468.4 119.1 469.1 118.7C469.8 118.3 470.4 117.7 470.9 117.1C471.4 116.4 471.6 115.6 471.6 114.5C471.6 112.8 470.4 111.5 468.1 110.6C465.8 109.7 462.6 108.9 458.4 108C456.7 107.6 455.1 107.2 453.5 106.7C451.9 106.2 450.5 105.5 449.2 104.7C447.9 103.9 446.9 102.8 446.2 101.5C445.4 100.2 445.1 98.7 445.1 96.8C445.1 94.1 445.6 91.9 446.7 90.1C447.8 88.4 449.2 87 450.9 86C452.6 85 454.6 84.3 456.8 83.9C459 83.5 461.2 83.3 463.5 83.3C465.8 83.3 468 83.5 470.1 84C472.2 84.4 474.2 85.2 475.8 86.2C477.5 87.2 478.9 88.6 480 90.3C481.1 92 481.8 94.2 482 96.8H471C470.8 94.6 470 93.1 468.5 92.3C467 91.5 465.2 91.1 463.1 91.1C462.4 91.1 461.7 91.1 461 91.2C460.2 91.3 459.5 91.5 458.9 91.7C458.3 92 457.7 92.4 457.3 92.9C456.9 93.4 456.6 94.1 456.6 95C456.6 96 457 96.9 457.7 97.5C458.5 98.2 459.5 98.7 460.7 99.1C461.9 99.5 463.3 99.9 464.9 100.2C466.5 100.5 468.1 100.9 469.7 101.3C471.4 101.7 473 102.1 474.6 102.7C476.2 103.2 477.6 104 478.9 104.9C480.1 105.8 481.2 106.9 481.9 108.2C482.7 109.5 483 111.2 483 113.1C483 115.9 482.4 118.2 481.3 120.1C480.2 122 478.7 123.5 476.9 124.6C475.1 125.7 473.1 126.5 470.7 127C468.4 127.5 466 127.7 463.7 127.7C461.3 127.7 458.9 127.5 456.5 127C454.2 126.5 452.1 125.7 450.3 124.6C448.5 123.5 447 122 445.8 120.1C444.6 118.2 444 115.9 443.9 113.1H454.9C455.2 114 455.5 115.1 456 116Z" fill="#939598"/>
<path d="M482.4 70.1V77.8H480V70.1H477.3V68.3H485.1V70.1H482.4ZM495.1 77.8V71.1L492.6 77.8H491L488.6 71.1V77.8H486.4V68.3H489.5L491.9 74.6L494.3 68.3H497.4V77.8H495.1Z" fill="#939598"/>
<defs>
<linearGradient id="paint0_linear" x1="273.487" y1="74.6704" x2="-4.51259" y2="19.6703" gradientUnits="userSpaceOnUse">
<stop stop-color="#EF4137"/>
<stop offset="0.0149511" stop-color="#EF433B"/>
<stop offset="0.0894113" stop-color="#ED4D4C"/>
<stop offset="0.1682" stop-color="#EC5459"/>
<stop offset="0.2522" stop-color="#EC5961"/>
<stop offset="0.345" stop-color="#EB5C66"/>
<stop offset="0.4641" stop-color="#EB5D68"/>
<stop offset="1" stop-color="#F9A946"/>
</linearGradient>
<linearGradient id="paint1_linear" x1="273.487" y1="74.6704" x2="-4.5126" y2="19.6703" gradientUnits="userSpaceOnUse">
<stop stop-color="#EF4137"/>
<stop offset="0.0149511" stop-color="#EF433B"/>
<stop offset="0.0894113" stop-color="#ED4D4C"/>
<stop offset="0.1682" stop-color="#EC5459"/>
<stop offset="0.2522" stop-color="#EC5961"/>
<stop offset="0.345" stop-color="#EB5C66"/>
<stop offset="0.4641" stop-color="#EB5D68"/>
<stop offset="1" stop-color="#F9A946"/>
</linearGradient>
<linearGradient id="paint2_linear" x1="273.487" y1="74.6704" x2="-4.51259" y2="19.6703" gradientUnits="userSpaceOnUse">
<stop stop-color="#EF4137"/>
<stop offset="0.0149511" stop-color="#EF433B"/>
<stop offset="0.0894113" stop-color="#ED4D4C"/>
<stop offset="0.1682" stop-color="#EC5459"/>
<stop offset="0.2522" stop-color="#EC5961"/>
<stop offset="0.345" stop-color="#EB5C66"/>
<stop offset="0.4641" stop-color="#EB5D68"/>
<stop offset="1" stop-color="#F9A946"/>
</linearGradient>
<linearGradient id="paint3_linear" x1="273.487" y1="74.6704" x2="-4.51261" y2="19.6703" gradientUnits="userSpaceOnUse">
<stop stop-color="#EF4137"/>
<stop offset="0.0149511" stop-color="#EF433B"/>
<stop offset="0.0894113" stop-color="#ED4D4C"/>
<stop offset="0.1682" stop-color="#EC5459"/>
<stop offset="0.2522" stop-color="#EC5961"/>
<stop offset="0.345" stop-color="#EB5C66"/>
<stop offset="0.4641" stop-color="#EB5D68"/>
<stop offset="1" stop-color="#F9A946"/>
</linearGradient>
<linearGradient id="paint4_linear" x1="273.487" y1="74.6704" x2="-4.51271" y2="19.6702" gradientUnits="userSpaceOnUse">
<stop stop-color="#EF4137"/>
<stop offset="0.0149511" stop-color="#EF433B"/>
<stop offset="0.0894113" stop-color="#ED4D4C"/>
<stop offset="0.1682" stop-color="#EC5459"/>
<stop offset="0.2522" stop-color="#EC5961"/>
<stop offset="0.345" stop-color="#EB5C66"/>
<stop offset="0.4641" stop-color="#EB5D68"/>
<stop offset="1" stop-color="#F9A946"/>
</linearGradient>
<linearGradient id="paint5_linear" x1="273.487" y1="74.6704" x2="-4.5126" y2="19.6703" gradientUnits="userSpaceOnUse">
<stop stop-color="#EF4137"/>
<stop offset="0.0149511" stop-color="#EF433B"/>
<stop offset="0.0894113" stop-color="#ED4D4C"/>
<stop offset="0.1682" stop-color="#EC5459"/>
<stop offset="0.2522" stop-color="#EC5961"/>
<stop offset="0.345" stop-color="#EB5C66"/>
<stop offset="0.4641" stop-color="#EB5D68"/>
<stop offset="1" stop-color="#F9A946"/>
</linearGradient>
</defs>
</svg>
