<svg width="421" height="127" viewBox="0 0 421 127" fill="none" xmlns="http://www.w3.org/2000/svg">
<rect width="420.7" height="126.233" fill="black" fill-opacity="0" transform="translate(0 0.3)"/>
<rect width="420.7" height="126.233" fill="black" fill-opacity="0" transform="translate(0 0.3)"/>
<path d="M151.4 100.9C149.3 101.7 146.4 103.2 138.6 96.7C136.6 95 115.7 75.5 92 89.1C85 93.1 79.4 96.1 74.6 97.6C92.6 121.2 133.8 104.4 133.8 104.4C95.9 126.5 61.4 103.2 51.1 69.7C51.1 69.7 54.8 93.4 73.7 110.5C115 147.7 149.8 109.7 151.4 100.9Z" fill="url(#paint0_linear)"/>
<rect width="156.9" height="125.5" fill="black" fill-opacity="0" transform="translate(0 0.3)"/>
<path d="M73.8 99.2C72.7 97.6 72.2 96.5 72.2 96.5L74.1 95.9C78.3 94.6 83.2 92.1 91.2 87.5C92.7 86.6 94.2 85.9 95.7 85.3C95.6 85.1 95.5 85 95.5 84.8C94.7 82.9 94.2 80.9 94.2 78.8V0.3H62.8V78.9C62.8 81.1 62.4 83.1 61.6 84.9C61.4 85.4 61.1 85.9 60.8 86.4C65.5 93.5 71.5 99.5 78.3 103.8C76.7 102.5 75.2 101 73.8 99.2Z" fill="#025045"/>
<path d="M125.6 0.3V78.9C125.6 81.1 125.2 83.1 124.3 84.9C124.2 85.1 124.1 85.4 124 85.6C130.8 88.3 136.2 92.4 139.3 95.1L139.6 95.4C146.3 101 148.8 100.1 150.5 99.4L152.5 98.6C152.7 98.1 153 97.6 153.2 97.1C155.7 91.4 156.9 85.3 156.9 78.8V0.3H125.6Z" fill="#025045"/>
<path d="M72.5 111.7C65.3 105.2 60.3 97.8 56.8 91.1C55.7 92 54.5 92.7 53.1 93.2C51.2 94 49.1 94.4 47 94.4C44.8 94.4 42.8 94 41 93.2C39.1 92.4 37.5 91.3 36 89.9C34.6 88.5 33.5 86.8 32.7 84.9C31.9 83 31.5 81 31.5 78.9V0.3H0V78.9C0 85.4 1.2 91.4 3.7 97.2C6.2 102.9 9.5 107.9 13.8 112.1C18.1 116.3 23 119.7 28.7 122.1C34.4 124.6 40.5 125.8 47 125.8C52.9 125.8 58.5 124.8 63.9 122.7C68.6 120.9 72.8 118.4 76.7 115.2C75.3 114.1 73.9 113 72.5 111.7Z" fill="#025045"/>
<rect width="238.3" height="79" fill="black" fill-opacity="0" transform="translate(182.4 20.8)"/>
<rect width="238.3" height="78.2" fill="black" fill-opacity="0" transform="translate(182.4 21.6)"/>
<path d="M213.4 54.1H208.1L202.2 34.5L196.3 54.1H191L182.4 21.8H189L194 42.2L199.9 21.8H204.6L210.5 42.2L215.5 21.8H222.1L213.4 54.1Z" fill="#025045"/>
<path d="M225.7 54.1V30.4H231.6V54.1H225.7V54.1Z" fill="#025045"/>
<path d="M251.9 54.1V39.8C251.9 39 251.8 38.3 251.6 37.8C251.4 37.3 251.1 36.8 250.7 36.5C250.3 36.2 249.9 35.9 249.4 35.8C248.9 35.6 248.5 35.6 248 35.6C247.5 35.6 247.1 35.7 246.6 35.8C246.1 36 245.7 36.2 245.3 36.5C244.9 36.8 244.6 37.3 244.4 37.8C244.2 38.3 244 39 244 39.8V54.1H238.1V30.4H243.9V32.6C244.7 31.8 245.6 31.2 246.6 30.8C247.6 30.4 248.7 30.2 249.8 30.2C251 30.2 252 30.4 253 30.7C253.9 31.1 254.7 31.6 255.4 32.2C256.4 33.2 257 34.2 257.3 35.3C257.6 36.4 257.8 37.6 257.8 38.9V54H251.9V54.1Z" fill="#025045"/>
<path d="M282 57.2C281.5 58.4 280.8 59.4 279.9 60.3C279 61.2 277.9 61.9 276.6 62.3C275.3 62.8 273.9 63 272.3 63C270.5 63 268.9 62.8 267.6 62.3C266.3 61.9 265 61.1 263.7 59.9L267.4 56.2C268.1 56.8 268.8 57.3 269.5 57.6C270.2 57.9 271.1 58 272.1 58C273 58 273.7 57.9 274.3 57.6C274.9 57.3 275.4 56.9 275.8 56.5C276.2 56 276.5 55.5 276.6 54.9C276.8 54.3 276.8 53.7 276.8 53.1V50.7C276 51.6 275.2 52.2 274.3 52.5C273.4 52.8 272.4 53 271.2 53C270 53 269 52.8 268 52.5C267 52.1 266.2 51.6 265.5 51C265 50.5 264.5 49.9 264.2 49.2C263.9 48.5 263.6 47.8 263.5 47C263.3 46.2 263.3 45.4 263.2 44.5C263.2 43.6 263.1 42.6 263.1 41.6C263.1 40.6 263.1 39.6 263.2 38.7C263.2 37.8 263.3 37 263.5 36.2C263.7 35.4 263.9 34.7 264.2 34C264.5 33.3 265 32.7 265.5 32.2C266.2 31.5 267 31 268 30.7C269 30.3 270.1 30.2 271.2 30.2C272.5 30.2 273.5 30.4 274.4 30.8C275.3 31.2 276.1 31.8 276.9 32.7V30.5H282.6V53.3C282.8 54.7 282.5 56 282 57.2ZM276.8 39.3C276.7 38.6 276.6 37.9 276.3 37.3C276 36.7 275.6 36.3 275.1 35.9C274.6 35.6 273.9 35.4 273 35.4C272.1 35.4 271.4 35.6 270.9 35.9C270.4 36.2 270 36.7 269.7 37.3C269.4 37.9 269.3 38.5 269.2 39.3C269.1 40 269.1 40.8 269.1 41.6C269.1 42.4 269.1 43.2 269.2 43.9C269.3 44.6 269.4 45.3 269.7 45.9C270 46.5 270.3 46.9 270.9 47.3C271.4 47.6 272.1 47.8 273 47.8C273.9 47.8 274.6 47.6 275.1 47.3C275.6 47 276 46.5 276.3 45.9C276.6 45.3 276.7 44.7 276.8 43.9C276.9 43.2 276.9 42.4 276.9 41.6C276.9 40.8 276.8 40.1 276.8 39.3Z" fill="#025045"/>
<path d="M301.5 54.1V52.1C300.7 52.9 299.9 53.5 299 53.8C298.1 54.2 297 54.3 295.7 54.3C293.1 54.3 291.1 53.6 289.7 52.2C289.1 51.5 288.6 50.7 288.3 49.8C288 48.9 287.8 47.9 287.8 46.8C287.8 45.9 288 45 288.3 44.1C288.6 43.3 289.1 42.5 289.8 41.9C290.5 41.3 291.3 40.8 292.3 40.4C293.3 40 294.5 39.9 295.9 39.9H301.5V38.7C301.5 37.4 301.2 36.5 300.5 35.9C299.8 35.3 298.7 35 297.1 35C296.5 35 296 35 295.6 35.1C295.2 35.2 294.8 35.3 294.4 35.4C294.1 35.6 293.7 35.7 293.4 36C293.1 36.2 292.8 36.5 292.5 36.9L288.7 33.2C289.9 31.9 291.1 31.1 292.4 30.6C293.7 30.1 295.3 29.9 297.3 29.9C300.6 29.9 303.2 30.6 304.9 32C306.6 33.4 307.5 35.5 307.5 38.3V53.9H301.5V54.1ZM301.3 44.1H296.6C295.5 44.1 294.7 44.3 294.2 44.8C293.6 45.3 293.3 45.9 293.3 46.8C293.3 47.6 293.6 48.3 294.1 48.8C294.7 49.3 295.5 49.5 296.7 49.5C297.5 49.5 298.2 49.4 298.8 49.3C299.4 49.2 299.9 48.9 300.4 48.3C301 47.8 301.3 46.8 301.3 45.3V44.1V44.1Z" fill="#025045"/>
<path d="M326.5 36.9C326 36.4 325.6 36.1 325.1 35.9C324.6 35.7 324.1 35.5 323.3 35.5C322.8 35.5 322.4 35.6 321.9 35.7C321.4 35.9 321 36.1 320.7 36.5C320.3 36.9 320 37.3 319.8 37.9C319.6 38.4 319.5 39.1 319.5 39.9V54.2H313.6V30.4H319.4V32.7C320 32 320.8 31.4 321.9 30.9C323 30.4 324.1 30.2 325.4 30.2C326.6 30.2 327.6 30.4 328.4 30.7C329.3 31 330.1 31.6 330.9 32.4L326.5 36.9Z" fill="#025045"/>
<path d="M345.9 54.1V52.1C345.1 52.9 344.3 53.5 343.4 53.8C342.5 54.2 341.4 54.3 340.1 54.3C337.5 54.3 335.5 53.6 334.1 52.2C333.5 51.5 333 50.7 332.7 49.8C332.4 48.9 332.2 47.9 332.2 46.8C332.2 45.9 332.4 45 332.7 44.1C333 43.3 333.5 42.5 334.2 41.9C334.9 41.3 335.7 40.8 336.7 40.4C337.7 40 338.9 39.9 340.3 39.9H345.9V38.7C345.9 37.4 345.6 36.5 344.9 35.9C344.2 35.3 343.1 35 341.5 35C340.9 35 340.4 35 340 35.1C339.6 35.2 339.2 35.3 338.8 35.4C338.5 35.6 338.1 35.7 337.8 36C337.5 36.2 337.2 36.5 336.9 36.9L333.1 33.2C334.3 31.9 335.5 31.1 336.8 30.6C338.1 30.1 339.7 29.9 341.7 29.9C345 29.9 347.6 30.6 349.3 32C351 33.4 351.9 35.5 351.9 38.3V53.9H345.9V54.1ZM345.8 44.1H341.1C340 44.1 339.2 44.3 338.7 44.8C338.1 45.3 337.8 45.9 337.8 46.8C337.8 47.6 338.1 48.3 338.6 48.8C339.2 49.3 340 49.5 341.2 49.5C342 49.5 342.7 49.4 343.3 49.3C343.9 49.2 344.4 48.9 344.9 48.3C345.5 47.8 345.8 46.8 345.8 45.3V44.1V44.1Z" fill="#025045"/>
<path d="M387.5 54.1L385.6 48.4H374.1L372.1 54.1H365.5L377.3 21.8H382.3L394.1 54.1H387.5ZM379.9 31.3L375.8 43.1H383.8L379.9 31.3Z" fill="#025045"/>
<path d="M419.9 46.6C419.4 48.1 418.6 49.5 417.5 50.7C416.2 52.1 414.8 53 413.3 53.6C411.8 54.1 410.1 54.4 408.4 54.4C406.6 54.4 405 54.1 403.6 53.5C402.2 52.9 400.9 52 399.7 50.9C398.9 50.1 398.3 49.2 397.8 48.3C397.4 47.4 397.1 46.4 396.9 45.3C396.7 44.2 396.6 43.1 396.6 41.9C396.6 40.7 396.6 39.4 396.6 38C396.6 36.6 396.6 35.3 396.6 34.1C396.6 32.9 396.7 31.8 396.9 30.7C397.1 29.6 397.4 28.6 397.8 27.7C398.2 26.8 398.9 25.9 399.7 25.1C400.8 23.9 402.1 23.1 403.6 22.5C405 21.9 406.6 21.6 408.5 21.6C410.4 21.6 412 21.9 413.5 22.5C414.9 23.1 416.1 23.8 417.1 24.8C418.1 25.8 418.9 26.9 419.5 28.1C420.1 29.3 420.5 30.6 420.7 32H414.3C413.9 30.5 413.3 29.3 412.3 28.5C411.3 27.7 410.1 27.3 408.4 27.3C407.5 27.3 406.7 27.5 406.1 27.8C405.4 28.1 404.9 28.5 404.4 29C404.1 29.3 403.8 29.7 403.7 30.1C403.5 30.5 403.3 31 403.2 31.7C403.1 32.4 403 33.2 403 34.2C403 35.2 402.9 36.5 402.9 38C402.9 39.5 402.9 40.8 403 41.9C403 42.9 403.1 43.8 403.2 44.4C403.3 45.1 403.5 45.6 403.7 46C403.9 46.4 404.1 46.8 404.4 47.1C404.9 47.6 405.4 48 406.1 48.3C406.8 48.6 407.6 48.8 408.4 48.8C409.4 48.8 410.2 48.6 411 48.3C411.8 48 412.4 47.5 412.9 47C413.4 46.4 413.8 45.7 414 45C414.2 44.3 414.3 43.5 414.3 42.7V41.5H408.4V36.2H420.6V40.9C420.6 43.1 420.4 45.1 419.9 46.6Z" fill="#025045"/>
<path d="M185.9 99.5V67.2H192.2V93.9H206.9V99.5H185.9Z" fill="#025045"/>
<path d="M211.5 99.5V75.8H217.4V99.5H211.5Z" fill="#025045"/>
<path d="M251.5 99.5V85.2C251.5 84.4 251.4 83.7 251.2 83.2C251 82.7 250.7 82.2 250.3 81.9C249.9 81.6 249.5 81.3 249 81.2C248.5 81.1 248.1 81 247.6 81C247.1 81 246.7 81.1 246.2 81.2C245.7 81.4 245.3 81.6 244.9 81.9C244.5 82.2 244.2 82.7 244 83.2C243.8 83.7 243.6 84.4 243.6 85.2V99.6H237.7V85.2C237.7 84.4 237.6 83.7 237.4 83.2C237.2 82.7 236.9 82.2 236.5 81.9C236.1 81.6 235.7 81.3 235.2 81.2C234.7 81 234.3 81 233.8 81C233.3 81 232.9 81.1 232.4 81.2C231.9 81.4 231.5 81.6 231.1 81.9C230.7 82.2 230.4 82.7 230.2 83.2C230 83.7 229.8 84.4 229.8 85.2V99.5H224V75.8H229.8V78C230.6 77.2 231.5 76.6 232.5 76.2C233.5 75.8 234.6 75.6 235.7 75.6C237 75.6 238.2 75.8 239.3 76.3C240.3 76.8 241.2 77.5 242 78.6C243 77.5 244.1 76.8 245.2 76.3C246.3 75.8 247.6 75.6 249.1 75.6C250.3 75.6 251.4 75.8 252.4 76.1C253.4 76.5 254.3 77 254.9 77.6C255.9 78.6 256.5 79.6 256.9 80.7C257.3 81.8 257.5 83 257.5 84.3V99.4H251.5V99.5Z" fill="#025045"/>
<path d="M263.8 99.5V75.8H269.7V99.5H263.8Z" fill="#025045"/>
<path d="M283.7 99.5C282.5 99.5 281.4 99.3 280.6 98.9C279.7 98.5 279 98 278.4 97.4C277.8 96.8 277.4 96 277.2 95.2C276.9 94.4 276.8 93.6 276.8 92.7V81H274.3V76.5H276.8V69.5H282.7V76.5H286.9V81H282.7V92.4C282.7 93.8 283.4 94.5 284.7 94.5H286.8V99.5H283.7Z" fill="#025045"/>
<path d="M296.8 89.5C296.8 91 297.2 92.3 298.1 93.3C299 94.3 300.3 94.8 301.9 94.8C303.2 94.8 304.2 94.6 305 94.3C305.8 93.9 306.5 93.4 307.3 92.6L310.9 96.1C310.3 96.7 309.7 97.2 309.1 97.7C308.5 98.2 307.8 98.5 307.1 98.9C306.4 99.2 305.6 99.5 304.8 99.6C304 99.8 303 99.8 301.9 99.8C300.5 99.8 299.2 99.6 297.8 99.3C296.5 98.9 295.3 98.3 294.3 97.4C293.3 96.5 292.5 95.2 291.8 93.7C291.2 92.1 290.9 90.2 290.9 87.8C290.9 85.9 291.2 84.1 291.7 82.6C292.2 81.1 292.9 79.8 293.8 78.8C294.7 77.8 295.8 77 297 76.5C298.3 76 299.7 75.7 301.2 75.7C302.8 75.7 304.3 76 305.6 76.6C306.9 77.2 308 78 308.8 79C309.7 80 310.3 81.2 310.8 82.6C311.3 84 311.5 85.5 311.5 87.1V89.7H296.8V89.5ZM305.6 84.1C305.5 83.7 305.4 83.3 305.2 82.9C304.9 82.2 304.4 81.6 303.7 81.2C303 80.7 302.2 80.5 301.2 80.5C300.2 80.5 299.4 80.7 298.7 81.2C298 81.7 297.6 82.3 297.2 82.9C297 83.3 296.9 83.7 296.8 84.1C296.7 84.5 296.7 84.9 296.6 85.4H305.6C305.7 85 305.7 84.5 305.6 84.1Z" fill="#025045"/>
<path d="M330 99.5V97.3C329.2 98.2 328.3 98.9 327.4 99.2C326.5 99.6 325.4 99.8 324.1 99.8C323 99.8 321.9 99.6 320.8 99.2C319.8 98.8 318.9 98.3 318.3 97.6C317.7 97 317.2 96.3 316.9 95.6C316.6 94.8 316.3 94 316.2 93.1C316.1 92.2 316 91.3 315.9 90.4C315.9 89.5 315.9 88.6 315.9 87.7C315.9 86.8 315.9 85.9 315.9 85C315.9 84.1 316 83.2 316.2 82.3C316.4 81.4 316.6 80.6 316.9 79.8C317.2 79 317.7 78.3 318.3 77.7C319 77 319.8 76.5 320.8 76.1C321.8 75.7 322.9 75.5 324 75.5C325.2 75.5 326.3 75.7 327.2 76C328.1 76.3 329 77 329.8 77.8V67H335.7V99.3H330V99.5ZM329.8 85C329.7 84.2 329.5 83.5 329.2 82.9C328.9 82.3 328.5 81.8 328 81.5C327.5 81.2 326.8 81 325.9 81C325 81 324.3 81.2 323.8 81.5C323.3 81.8 322.9 82.3 322.6 82.9C322.3 83.5 322.1 84.2 322.1 85C322 85.8 322 86.7 322 87.7C322 88.7 322 89.6 322.1 90.4C322.2 91.2 322.4 92 322.6 92.6C322.9 93.2 323.3 93.7 323.8 94C324.3 94.3 325 94.5 325.9 94.5C326.8 94.5 327.5 94.3 328 94C328.5 93.7 328.9 93.2 329.2 92.6C329.5 92 329.7 91.3 329.8 90.4C329.9 89.6 329.9 88.7 329.9 87.7C329.9 86.7 329.9 85.8 329.8 85Z" fill="#025045"/>
<path d="M228.6 27.2C230.367 27.2 231.8 25.7673 231.8 24C231.8 22.2327 230.367 20.8 228.6 20.8C226.833 20.8 225.4 22.2327 225.4 24C225.4 25.7673 226.833 27.2 228.6 27.2Z" fill="#025045"/>
<path d="M214.5 72.6C216.267 72.6 217.7 71.1673 217.7 69.4C217.7 67.6327 216.267 66.2 214.5 66.2C212.733 66.2 211.3 67.6327 211.3 69.4C211.3 71.1673 212.733 72.6 214.5 72.6Z" fill="#025045"/>
<path d="M266.8 72.6C268.567 72.6 270 71.1673 270 69.4C270 67.6327 268.567 66.2 266.8 66.2C265.033 66.2 263.6 67.6327 263.6 69.4C263.6 71.1673 265.033 72.6 266.8 72.6Z" fill="#025045"/>
<defs>
<linearGradient id="paint0_linear" x1="91.3662" y1="110.363" x2="99.8946" y2="88.7914" gradientUnits="userSpaceOnUse">
<stop stop-color="#A5CD39"/>
<stop offset="0.0813106" stop-color="#94C73E"/>
<stop offset="0.1957" stop-color="#82C242"/>
<stop offset="0.32" stop-color="#77BF44"/>
<stop offset="0.4708" stop-color="#74BE45"/>
<stop offset="0.4725" stop-color="#7FC142"/>
<stop offset="0.476" stop-color="#90C63F"/>
<stop offset="0.4804" stop-color="#9CCA3C"/>
<stop offset="0.4866" stop-color="#A3CC3A"/>
<stop offset="0.5039" stop-color="#A5CD39"/>
<stop offset="0.5895" stop-color="#94C73E"/>
<stop offset="0.7101" stop-color="#82C242"/>
<stop offset="0.841" stop-color="#77BF44"/>
<stop offset="1" stop-color="#74BE45"/>
</linearGradient>
</defs>
</svg>
