<svg version="1.1" id="logo" xmlns="http://www.w3.org/2000/svg" xmlns:xlink="http://www.w3.org/1999/xlink" x="0px" y="0px"
	 width="395.374px" height="345.088px" viewBox="0 0 395.374 345.088" style="enable-background:new 0 0 395.374 345.088;"
	 xml:space="preserve">
<g>
	<path style="fill:#00446E;" d="M87.294,288.448v8.721h-17.04v46.72h-10.16v-46.72h-17.04v-8.721H87.294z"/>
	<path style="fill:#00446E;" d="M127.294,343.888c-0.749-2.187-1.524-4.347-2.326-6.48c-0.803-2.132-1.578-4.319-2.325-6.56H99.226
		c-0.749,2.24-1.511,4.44-2.286,6.6c-0.775,2.16-1.538,4.308-2.285,6.44H84.172c2.078-5.92,4.05-11.387,5.915-16.4
		c1.865-5.012,3.69-9.76,5.475-14.239c1.785-4.48,3.556-8.747,5.315-12.801c1.759-4.052,3.571-8.052,5.436-12h9.623
		c1.866,3.948,3.68,7.948,5.44,12c1.76,4.054,3.533,8.32,5.32,12.801c1.788,4.479,3.627,9.228,5.521,14.239
		c1.893,5.014,3.88,10.48,5.96,16.4H127.294z M110.935,299.168c-1.228,2.827-2.627,6.268-4.2,10.319
		c-1.574,4.054-3.214,8.454-4.92,13.2h18.24c-1.708-4.746-3.36-9.172-4.96-13.28C113.495,305.302,112.107,301.888,110.935,299.168z"
		/>
	<path style="fill:#00446E;" d="M160.414,287.888c8,0,14.12,1.468,18.36,4.4c4.24,2.934,6.36,7.413,6.36,13.439
		c0,7.521-3.708,12.614-11.12,15.28c1.013,1.228,2.16,2.72,3.44,4.479c1.28,1.761,2.586,3.668,3.92,5.721
		c1.333,2.054,2.613,4.16,3.84,6.319c1.226,2.16,2.32,4.28,3.28,6.36h-11.28c-1.014-1.92-2.108-3.853-3.28-5.8
		c-1.174-1.946-2.36-3.84-3.56-5.681c-1.2-1.84-2.387-3.572-3.56-5.199c-1.173-1.627-2.267-3.08-3.28-4.36
		c-0.748,0.054-1.388,0.08-1.92,0.08c-0.534,0-1.04,0-1.52,0h-4.88v20.96h-10.08v-54.64c2.452-0.533,5.066-0.893,7.84-1.08
		C155.746,287.982,158.226,287.888,160.414,287.888z M161.134,296.608c-2.134,0-4.107,0.08-5.92,0.24v17.92h4.4
		c2.452,0,4.612-0.133,6.48-0.399c1.866-0.267,3.426-0.747,4.68-1.44c1.253-0.692,2.2-1.626,2.84-2.8
		c0.64-1.173,0.96-2.666,0.96-4.48c0-1.706-0.32-3.146-0.96-4.319c-0.64-1.173-1.56-2.106-2.76-2.801
		c-1.2-0.692-2.627-1.186-4.28-1.479C164.92,296.755,163.106,296.608,161.134,296.608z"/>
	<path style="fill:#00446E;" d="M217.693,345.088c-3.788,0-7.04-0.548-9.76-1.641c-2.721-1.092-4.975-2.626-6.761-4.6
		c-1.787-1.973-3.107-4.292-3.959-6.96c-0.854-2.666-1.28-5.6-1.28-8.8v-34.641h10.159v33.681c0,2.507,0.28,4.653,0.841,6.439
		c0.56,1.788,1.359,3.24,2.399,4.36s2.267,1.947,3.68,2.479c1.413,0.534,3,0.801,4.761,0.801c1.76,0,3.359-0.267,4.8-0.801
		c1.439-0.532,2.68-1.359,3.72-2.479s1.84-2.572,2.4-4.36c0.56-1.786,0.84-3.933,0.84-6.439v-33.681h10.16v34.641
		c0,3.2-0.44,6.134-1.32,8.8c-0.88,2.668-2.214,4.987-4,6.96c-1.787,1.974-4.067,3.508-6.84,4.6
		C224.76,344.541,221.48,345.088,217.693,345.088z"/>
	<path style="fill:#00446E;" d="M278.492,296.048c-5.707,0-10.067,1.773-13.08,5.32c-3.014,3.547-4.52,8.467-4.52,14.76
		c0,2.987,0.359,5.72,1.08,8.2c0.72,2.479,1.786,4.6,3.2,6.359c1.412,1.76,3.172,3.134,5.279,4.12c2.106,0.987,4.572,1.48,7.4,1.48
		c1.76,0,3.28-0.066,4.56-0.2c1.28-0.133,2.293-0.307,3.04-0.521v-19.92h10.08v26.641c-1.388,0.533-3.733,1.119-7.04,1.76
		c-3.308,0.64-7.12,0.96-11.439,0.96c-4,0-7.654-0.64-10.96-1.92c-3.308-1.28-6.12-3.146-8.44-5.601
		c-2.32-2.452-4.12-5.466-5.4-9.04c-1.279-3.572-1.92-7.68-1.92-12.319c0-4.641,0.707-8.746,2.12-12.32
		c1.413-3.572,3.347-6.6,5.8-9.08c2.453-2.479,5.333-4.359,8.641-5.64c3.306-1.28,6.826-1.92,10.56-1.92
		c2.561,0,4.84,0.174,6.84,0.52c2,0.348,3.721,0.734,5.16,1.16c1.44,0.428,2.627,0.88,3.561,1.36c0.933,0.479,1.586,0.827,1.96,1.04
		l-3.04,8.239c-1.601-0.96-3.588-1.772-5.96-2.439C283.599,296.382,281.105,296.048,278.492,296.048z"/>
	<path style="fill:#00446E;" d="M344.092,343.888c-0.748-2.187-1.523-4.347-2.326-6.48c-0.802-2.132-1.577-4.319-2.324-6.56h-23.418
		c-0.749,2.24-1.511,4.44-2.286,6.6c-0.775,2.16-1.537,4.308-2.285,6.44H300.97c2.077-5.92,4.05-11.387,5.915-16.4
		c1.865-5.012,3.69-9.76,5.475-14.239c1.785-4.48,3.557-8.747,5.315-12.801c1.759-4.052,3.571-8.052,5.437-12h9.622
		c1.866,3.948,3.68,7.948,5.44,12c1.76,4.054,3.532,8.32,5.319,12.801c1.788,4.479,3.628,9.228,5.521,14.239
		c1.893,5.014,3.88,10.48,5.96,16.4H344.092z M327.732,299.168c-1.228,2.827-2.628,6.268-4.2,10.319
		c-1.573,4.054-3.214,8.454-4.92,13.2h18.24c-1.708-4.746-3.36-9.172-4.96-13.28C330.292,305.302,328.904,301.888,327.732,299.168z"
		/>
</g>
<linearGradient id="SVGID_1_" gradientUnits="userSpaceOnUse" x1="197.6872" y1="259.278" x2="197.6872" y2="0">
	<stop  offset="0" style="stop-color:#005A88"/>
	<stop  offset="0.1343" style="stop-color:#0083BF"/>
	<stop  offset="0.275" style="stop-color:#4FA3DA"/>
	<stop  offset="0.3814" style="stop-color:#4ABAEA"/>
	<stop  offset="0.509" style="stop-color:#45C5F0"/>
	<stop  offset="0.6071" style="stop-color:#67CBDD"/>
	<stop  offset="0.7458" style="stop-color:#79CDD0"/>
	<stop  offset="0.8746" style="stop-color:#8FD0BA"/>
	<stop  offset="0.9969" style="stop-color:#9AD2A8"/>
</linearGradient>
<path style="fill:url(#SVGID_1_);" d="M124.372,211.619c-11.266,2.351-21.564-0.125-30.366-7.525
	c-3.707-3.117-7.057-6.784-9.184-11.313c-2.607-5.549-4.377-11.44-3.694-17.499c0.554-4.918,1.268-9.88,3.889-14.512
	c4.079-7.211,7.964-14.653,10.784-22.414c2.046-5.63,1.768-11.925-0.271-17.844c-0.949-2.756-1.711-5.609-2.98-8.212
	c-1.4-2.871-3.331-5.478-4.939-8.253c-0.978-1.688-1.77-3.482-2.668-5.217c-3.138-6.066-4.289-12.515-3.697-19.291
	c0.41-4.693,1.843-8.956,4.028-13.235c5.277-10.336,13.704-16.041,24.662-18.617c0.384-0.09,0.773-0.18,1.165-0.216
	c2.061-0.188,4.123-0.358,5.579-0.483c16.289,0.056,30.473,10.99,34.598,26.011c2.926,10.653,1.183,20.487-4.497,29.825
	c-3.952,6.497-7.716,13.116-9.367,20.655c-1.344,6.14-1.009,12.225,1.687,17.94c2.961,6.279,6.156,12.452,9.411,18.586
	c3.653,6.882,4.715,14.065,3.722,21.786C150.274,197.034,138.381,208.696,124.372,211.619z M186.763,1.842
	c-21.367,6.968-30.947,31.153-20.48,51.096c3.623,6.903,8.001,13.398,10.317,20.981c1.828,5.984,2.227,12.013-0.022,17.713
	c-2.621,6.644-5.899,13.068-9.345,19.338c-6.44,11.715-6.957,23.471-1.062,35.453c3.062,6.222,6.525,12.257,9.377,18.57
	c2.626,5.813,3.232,11.958,1.644,18.306c-1.672,6.684-4.76,12.702-8.269,18.514c-4.088,6.774-6.981,13.852-6.872,21.078
	c0.059,9.298,2.727,16.897,8.162,23.339c8.721,10.337,19.941,14.515,33.333,12.596c13.883-1.99,22.834-10.326,27.939-22.867
	c3.97-9.751,3.147-19.562-1.639-28.966c-3.073-6.039-6.469-11.925-9.286-18.079c-3.368-7.358-3.806-15.114-0.671-22.635
	c2.481-5.953,5.456-11.728,8.582-17.378c7.089-12.811,7.201-25.489,0.015-38.265c-2.481-4.41-4.965-8.833-7.138-13.398
	c-3.476-7.303-4.841-15.048-2.135-22.814c1.906-5.471,4.396-10.845,7.372-15.816c5.884-9.828,9.142-20.07,5.724-31.349
	c-1.47-4.85-3.53-9.867-6.592-13.825C216.205,1.138,200.669-2.693,186.763,1.842z M271.653,47.686
	c-10.958,2.576-19.385,8.281-24.662,18.617c-2.185,4.279-3.618,8.542-4.028,13.235c-0.592,6.776,0.559,13.224,3.697,19.291
	c0.898,1.735,1.69,3.53,2.668,5.217c1.608,2.775,3.539,5.382,4.939,8.253c1.269,2.603,2.031,5.456,2.98,8.212
	c2.039,5.919,2.316,12.215,0.271,17.844c-2.82,7.761-6.705,15.203-10.784,22.414c-2.62,4.632-3.334,9.594-3.889,14.512
	c-0.683,6.06,1.088,11.95,3.694,17.499c2.128,4.529,5.477,8.196,9.184,11.313c8.802,7.4,19.1,9.876,30.366,7.525
	c14.009-2.923,25.902-14.585,27.862-29.828c0.993-7.721-0.069-14.904-3.722-21.786c-3.255-6.133-6.45-12.307-9.411-18.586
	c-2.696-5.715-3.031-11.8-1.687-17.94c1.651-7.539,5.415-14.159,9.367-20.655c5.68-9.338,7.423-19.172,4.497-29.825
	c-4.126-15.021-18.31-25.955-34.598-26.011c-1.456,0.125-3.518,0.295-5.579,0.483C272.426,47.506,272.037,47.596,271.653,47.686z
	 M71.32,129.557c-0.426-20.187-15.792-35.201-35.954-35.51c-19.39-0.297-35.373,16.068-35.363,35.618
	c-0.269,19.213,15.97,36.595,36.916,35.729C54.298,164.674,71.748,149.825,71.32,129.557z M324.054,129.721
	c0.426,20.187,15.792,35.201,35.954,35.51c19.39,0.297,35.373-16.068,35.363-35.618c0.269-19.213-15.97-36.595-36.916-35.729
	C341.076,94.604,323.626,109.453,324.054,129.721z"/>
</svg>
