<?xml version="1.0" encoding="utf-8"?>
<!-- Generator: Adobe Illustrator 19.2.1, SVG Export Plug-In . SVG Version: 6.00 Build 0)  -->
<svg version="1.1" id="South32_x5F_Master_x5F_Yellow_x5F_CMYK.eps"
	 xmlns="http://www.w3.org/2000/svg" xmlns:xlink="http://www.w3.org/1999/xlink" x="0px" y="0px" viewBox="0 0 596 727.8"
	 style="enable-background:new 0 0 596 727.8;" xml:space="preserve">
<style type="text/css">
	.st0{fill:#FFFFFF;}
</style>
<path class="st0" d="M58.7,668.6c-5-7-12.5-9.5-19.8-9.5c-6.2,0-10,2.3-10,6.1c0,5.1,7.8,6.2,16.1,7.5c18.4,2.9,33.6,8.3,33.6,26.1
	c0,16.3-12.8,29.1-37,29.1c-19.6,0-34.7-8.4-41.6-23l18.7-9.3c5.5,9.7,14.4,13.1,23.6,13.1c7.9,0,12.7-2.5,12.7-6.7
	c0-6-9.7-6.6-16.4-7.8C21.9,691.4,5,685.5,5,666.9c0-16.7,13.5-26.8,34.3-26.8c13.6,0,28.6,4.3,37.6,18.2L58.7,668.6z M128.3,727.8
	c-27.8,0-44.1-19.4-44.1-43.9c0-24.2,16.3-43.9,44.1-43.9c27.8,0,44.4,19.7,44.4,43.9C172.6,708.4,156.1,727.8,128.3,727.8z
	 M128.8,662c-12.8,0-19.2,10.4-19.2,22c0,11.8,6.4,22,19.2,22c13,0,19.4-10.2,19.4-22C148.3,672.4,141.8,662,128.8,662z
	 M220.3,727.8c-23.3,0-38.1-11.9-38.1-34.8v-51.4h24.2V693c0,8.9,4.4,13.1,14,13.1c9.3,0,14-4.2,14-13.1v-51.4h24V693
	C258.3,715.9,243.5,727.8,220.3,727.8z M317.8,663v63.3h-24V663h-25v-21.4h74.2V663H317.8z M407.7,726.3v-33.6h-29.7v33.6h-24.2
	v-84.7h24.2v29.7h29.7v-29.7H432v84.7H407.7z M486.2,727.8c-18.9,0-30.6-9.5-36.9-23.9l19.6-7.8c2.8,6.9,8.4,11.7,17.4,11.7
	c7.4,0,10.8-3.3,10.8-7.8c0-5-4.2-7.6-11.7-7.6h-7.9v-18.3h7.5c7.5,0,10-3.3,10-7.2c0-4.6-3.6-6.9-9.4-6.9
	c-7.1,0-13.2,3.3-16.8,10.7l-17.8-9c8-14,20-21.6,36.6-21.6c18.9,0,30.9,9.8,30.9,23.6c0,8.5-4.6,14.5-11.4,17.8
	c8.3,2.8,14.1,9.8,14.1,19.3C521.3,714.8,508.8,727.8,486.2,727.8z M529,726.3v-16.9c29.9-21.2,38.9-29.9,38.9-39.8
	c0-5.3-4.1-9-9.4-9c-5.2,0-10.4,3.3-13.6,10.7l-18.8-10c7.2-12.5,18.4-21.1,34.7-21.1c18.9,0,32.3,10.3,32.3,28.1
	c0,12.5-8.9,25.6-28.9,36.7H596v21.4H529z M272.3,0H5v53.5h267.3V0z M272.3,106.9H5v53.5h267.3V106.9z M272.3,213.9H5v53.5h267.3
	V213.9z M325.7,0v267.3h53.5V0L325.7,0z M432.7,0v267.3h53.5V0L432.7,0z M539.6,0v267.3h53.5V0L539.6,0z M325.7,588.1h267.3v-53.5
	H325.7V588.1z M325.7,481.2h267.3v-53.5H325.7V481.2z M325.7,374.3h267.3v-53.5H325.7V374.3z M272.3,588.1V320.8h-53.5v267.3H272.3z
	 M165.4,588.1V320.8h-53.5v267.3H165.4z M58.4,588.1V320.8H5v267.3H58.4z"/>
</svg>
