<svg xmlns="http://www.w3.org/2000/svg" viewBox="0 0 149.9 87.8" enable-background="new 0 0 149.9 87.8"><g fill="#fff"><path d="M0 87.8l10-68.2 6.6-19.6 4.4 87.8zM24.5 87.8l-5.1-73.8 6.1 17.4 10.2 56.4zM61.9 48.3c0-3.1-.2-3.5-1.7-3.9-.3-.1-1-.1-1.3-.1-.2 0-.3-.1-.3-.2 0-.2.2-.3.6-.3 1.7 0 4.1.1 4.3.1.2 0 2.6-.1 3.7-.1.4 0 .6.1.6.3 0 .2-.2.2-.3.2-.3 0-.5 0-1 .1-1 .2-1.3.8-1.4 2.2-.1 1.2-.1 2.4-.1 4v4.3c0 1.7 0 1.8-.5 2.1-2.4 1.3-5.9 1.7-8.1 1.7-2.9 0-8.3-.4-12.6-4.1-2.3-2-4.6-6.1-4.6-10.9 0-6.1 3-10.4 6.4-12.6 3.4-2.1 7.2-2.4 10.2-2.4 2.4 0 5.1.5 5.8.7.8.2 2.1.3 3.1.4.4 0 .5.2.5.3 0 .5-.3 1.6-.3 5.4 0 .6-.1.8-.3.8-.2 0-.2-.2-.3-.6 0-.5-.2-1.6-.8-2.5-1-1.5-4.1-3.1-9-3.1-2.4 0-5.3.2-8.2 2.5-2.2 1.8-3.8 5.2-3.8 9.7 0 5.4 2.7 9.3 4.1 10.6 3 2.9 6.5 4.1 10 4.1 1.4 0 3.4-.2 4.4-.8.5-.3.8-.7.8-1.3v-6.6"/><path d="M76.7 40.2c0-6 0-7-.1-8.3-.1-1.3-.4-1.9-1.6-2.2-.3-.1-1-.1-1.3-.1-.2 0-.3-.1-.3-.2 0-.2.2-.3.6-.3 1.7 0 4.1.1 4.3.1.5 0 2.9-.1 5.2-.1 3.8 0 10.8-.3 15.3 4.4 1.9 2 3.7 5.2 3.7 9.7 0 4.8-2 8.5-4.1 10.8-1.6 1.7-5.1 4.4-11.6 4.4-1.6 0-3.7-.1-5.3-.2l-3.2-.2h-3.7c-.4 0-.6 0-.6-.3 0-.1.1-.2.3-.2.3 0 .8-.1 1.1-.2.8-.2 1-1 1.1-2.1.2-1.6.2-4.6.2-8.3v-6.7m3.2 4.2c0 4.1 0 7.6.1 8.3 0 1 .1 2.5.4 2.9.5.7 2 1.5 6.5 1.5 3.6 0 6.8-1.3 9.1-3.6 2-2 3.1-5.6 3.1-9.1 0-4.9-2.1-8-3.7-9.6-3.6-3.8-8-4.3-12.5-4.3-.8 0-2.2.1-2.5.3-.3.2-.5.3-.5.8v12.8zM114.6 47c0 3.7 0 6.7.2 8.3.1 1.1.3 1.9 1.5 2.1.5.1 1.4.2 1.7.2.2 0 .3.1.3.2 0 .2-.2.3-.6.3-2.1 0-4.5-.1-4.7-.1-.2 0-2.6.1-3.7.1-.4 0-.6-.1-.6-.3 0-.1.1-.2.3-.2.3 0 .8-.1 1.1-.2.8-.2 1-1 1.1-2.1.2-1.6.2-4.6.2-8.3v-6.7c0-6 0-7-.1-8.3-.1-1.3-.5-1.9-1.3-2.1-.4-.1-.9-.2-1.2-.2-.1 0-.3-.1-.3-.2 0-.2.2-.3.6-.3 1.3 0 3.7.1 3.9.1.2 0 2.6-.1 3.7-.1.4 0 .6.1.6.3 0 .2-.2.2-.3.2-.3 0-.5 0-1 .1-1 .2-1.3.8-1.4 2.2-.1 1.2-.1 2.3-.1 8.3v6.7M40.4 68.3v-2.3c0-.4-.1-.5-.5-.6h-.4l-.1-.1c0-.1.1-.1.2-.1h2.9000000000000004c1.4 0 1.9.4 2.1.6.3.2.6.7.6 1.3 0 1.5-1.2 2.6-2.9 2.6h-.3c-.1 0-.1-.1-.1-.1 0-.1.1-.1.3-.1 1.2 0 2.1-.8 2.1-1.7 0-.3 0-1-.6-1.6-.6-.6-1.2-.5-1.5-.5-.2 0-.5.1-.6.1-.1 0-.1.1-.1.2v4.4c0 1 0 1.9.1 2.3 0 .3.1.5.4.6h.5c.1 0 .1 0 .1.1s-.1.1-.2.1h-2.5c-.1 0-.2 0-.2-.1 0 0 0-.1.1-.1h.3c.2-.1.2-.3.3-.6.1-.4.1-1.3.1-2.3v-2.1"/><path d="M47.6 68.3v-2.3c0-.4-.1-.5-.5-.6h-.4l-.1-.1c0-.1.1-.1.2-.1h2.7c.7 0 1.5.1 2.1.5.3.2.8.7.8 1.5s-.3 1.6-1.4 2.4c.9 1.1 1.7 2.1 2.3 2.8.6.6 1 .7 1.2.7h.4c.1 0 .1.1.1.1 0 .1-.1.1-.3.1h-.7c-.6 0-.9-.1-1.2-.2-.5-.3-.9-.8-1.5-1.6-.5-.6-1-1.3-1.2-1.6l-.2-.1h-1.4s-.1 0-.1.1v.3c0 1 0 1.9.1 2.3 0 .3.1.5.4.6.2 0 .4.1.5.1.1 0 .1.1.1.1 0 .1-.1.1-.2.1h-2.5c-.1 0-.2 0-.2-.1 0 0 0-.1.1-.1s.2 0 .3-.1c.2 0 .2-.3.3-.6.1-.4.1-1.3.1-2.3v-1.9m1.1.9c0 .1 0 .1.1.1.2.1.7.2 1.2.2.3 0 .6 0 .8-.2.4-.2.7-.8.7-1.6 0-1.3-.7-2.1-1.9-2.1-.3 0-.7 0-.8.1l-.1.1v3.4zM59.4 65c2.5 0 4.4 1.5 4.4 4 0 2.4-1.8 4.4-4.5 4.4-3 0-4.3-2.3-4.3-4.2 0-1.7 1.3-4.2 4.4-4.2m.2 8c1 0 3-.5 3-3.6 0-2.6-1.6-3.9-3.3-3.9-1.9 0-3.2 1.2-3.2 3.5 0 2.4 1.5 4 3.5 4M66.1 68.3v-2.3c0-.4-.1-.5-.5-.6h-.4l-.1-.1c0-.1 0-.1.2-.1h2.9000000000000004c1.4 0 1.9.4 2.1.6.3.2.6.7.6 1.3 0 1.5-1.2 2.6-2.9 2.6h-.3l-.1-.1c0-.1.1-.1.3-.1 1.2 0 2.1-.8 2.1-1.7 0-.3 0-1-.6-1.6-.6-.6-1.3-.5-1.5-.5-.2 0-.5.1-.6.1-.1 0-.1.1-.1.2v6.7c0 .3.1.5.4.6h.5c.1 0 .1 0 .1.1s0 .1-.2.1h-2.5c-.1 0-.2 0-.2-.1 0 0 0-.1.1-.1h.3c.2-.1.2-.3.3-.6.1-.4.1-1.3.1-2.3v-2.1M73.3 68.3v-2.3c0-.4-.1-.5-.5-.6h-.4l-.1-.1c0-.1 0-.1.2-.1h3.9000000000000004c.2 0 .4 0 .5-.1h.2v.1c0 .1-.1.2-.1.5 0 .1 0 .6-.1.7 0 .1-.1.1-.1.1-.1 0-.1-.1-.1-.1 0-.1 0-.2-.1-.4s-.2-.3-.8-.3h-1.6c-.1 0-.1 0-.1.1v2.9c0 .1 0 .1.1.1h1.9c.3 0 .4 0 .5-.2.1-.1.1-.1.2-.1 0 0 .1 0 .1.1s-.1.2-.1.6v.7c0 .1 0 .2-.1.2 0 0-.1 0-.1-.1s0-.2-.1-.4c0-.2-.1-.3-.6-.3h-1.7c-.1 0-.1 0-.1.1v2.7c0 .7.2.9 1.3.9.3 0 .8 0 1.1-.1.3-.1.4-.3.5-.7 0-.1 0-.2.1-.2s.1.1.1.2-.1.8-.2 1c-.1.3-.2.3-.6.3h-3.9c-.1 0-.2 0-.2-.1 0 0 0-.1.1-.1h.3c.2 0 .2-.3.3-.6.1-.4.1-1.3.1-2.3v-2.1"/><path d="M80.3 68.3v-2.3c0-.4-.1-.5-.5-.6h-.4l-.1-.1c0-.1.1-.1.2-.1h2.7c.7 0 1.5.1 2.1.5.3.2.8.7.8 1.5s-.3 1.6-1.4 2.4c.9 1.1 1.7 2.1 2.3 2.8.6.6 1 .7 1.2.7h.4c.1 0 .1.1.1.1 0 .1-.1.1-.3.1h-.7c-.6 0-.9-.1-1.2-.2-.5-.3-.9-.8-1.5-1.6-.5-.6-1-1.3-1.2-1.6l-.2-.1h-1.4s-.1 0-.1.1v.3c0 1 0 1.9.1 2.3 0 .3.1.5.4.6.2 0 .4.1.5.1.1 0 .1.1.1.1 0 .1-.1.1-.2.1h-2.5c-.1 0-.2 0-.2-.1 0 0 0-.1.1-.1s.2 0 .3-.1c.2 0 .2-.3.3-.6.1-.4.1-1.3.1-2.3v-1.9m1.1.9c0 .1 0 .1.1.1.2.1.7.2 1.2.2.3 0 .6 0 .8-.2.4-.2.7-.8.7-1.6 0-1.3-.7-2.1-1.9-2.1-.3 0-.7 0-.8.1l-.1.1v3.4zM90.6 70.1v2.3c0 .3.1.5.4.6.2 0 .4.1.5.1.1 0 .1 0 .1.1s0 .1-.2.1h-2.5999999999999996c-.1 0-.2 0-.2-.1 0 0 0-.1.1-.1s.2 0 .3-.1c.2 0 .3-.3.3-.6v-6.8h-1.6c-.7 0-1 .1-1.1.3-.1.2-.1.3-.2.3 0 .1-.1.1-.1.1s-.1 0-.1-.1l.2-1.2c0-.1.1-.2.1-.2.1 0 .2.1.5.1s.7.1.9.1h4.2c.4 0 .6 0 .8-.1.2 0 .3-.1.3-.1.1 0 .1.1.1.1v1.2c0 .1 0 .1-.1.1s-.1 0-.1-.2v-.1c0-.3-.3-.6-1.3-.6h-1.4v4.8M97.4 70.5c0-.6-.1-.8-.2-1.1-.1-.2-1.6-2.6-2-3.1-.3-.4-.5-.6-.7-.8-.2-.1-.4-.2-.5-.2-.1 0-.1-.1-.1-.1 0-.1 0-.1.1-.1h2.1c.1 0 .2 0 .2.1 0 0-.1.1-.2.1s-.1.1-.1.2.1.3.2.4l2 3.3c.2-.5 1.6-2.8 1.8-3.1.1-.2.2-.4.2-.6 0-.2 0-.2-.2-.3-.1 0-.2-.1-.2-.1s.1-.1.2-.1h1.9000000000000001c.1 0 .1 0 .1.1s-.1.1-.1.1c-.1 0-.3 0-.5.1s-.3.2-.6.5c-.4.4-1.9 3-2.2 3.4-.2.4-.1.7-.1 1.1v2c0 .3.1.5.4.6h.5c.1 0 .1.1.1.1 0 .1-.1.1-.2.1h-2.5c-.1 0-.2 0-.2-.1 0 0 0-.1.1-.1h.3c.2-.1.3-.3.3-.6v-1.8M112.7 70.5c0-.9 0-1-.5-1.1h-.4l-.1-.1c0-.1.1-.1.2-.1h2.4000000000000004c.1 0 .2 0 .2.1l-.1.1h-.3c-.3 0-.4.2-.4.6v2.3c0 .5 0 .5-.2.6-.7.4-1.7.5-2.4.5-.8 0-2.4-.1-3.7-1.1-.7-.6-1.3-1.7-1.3-3.1 0-1.7.9-2.9 1.9-3.5 1-.6 2.1-.7 3-.7.7 0 1.5.1 1.7.2.2.1.6.1.9.1.1 0 .1.1.1.1 0 .2-.1.4-.1 1.5 0 .2-.1.2-.1.2-.1 0-.1-.1-.1-.2s-.1-.5-.2-.7c-.3-.4-1.1-.8-2.6-.8-.7 0-1.5.1-2.3.7-.6.5-1.1 1.5-1.1 2.7 0 1.5.8 2.6 1.2 3 .9.8 1.8 1.1 2.8 1.1.4 0 .9 0 1.2-.2.1-.1.2-.1.2-.3v-1.9"/><path d="M117.1 68.3v-2.3c0-.4-.1-.5-.5-.6h-.4l-.1-.1c0-.1.1-.1.2-.1h2.7c.7 0 1.5.1 2.1.5.3.2.8.7.8 1.5s-.3 1.6-1.4 2.4c.9 1.1 1.7 2.1 2.3 2.8.6.6 1 .7 1.2.7h.4c.1 0 .1.1.1.1 0 .1-.1.1-.3.1h-.7c-.6 0-.9-.1-1.2-.2-.5-.3-.9-.8-1.5-1.6-.5-.6-1-1.3-1.2-1.6 0 0-.1-.1-.2-.1h-1.4c-.1 0-.1 0-.1.1v.3c0 1 0 1.9.1 2.3 0 .3.1.5.4.6.2 0 .4.1.5.1.1 0 .1.1.1.1 0 .1-.1.1-.2.1h-2.5c-.1 0-.2 0-.2-.1 0 0 0-.1.1-.1s.2 0 .3-.1c.2 0 .2-.3.3-.6.1-.4.1-1.3.1-2.3v-1.9m1.1.9c0 .1 0 .1.1.1.2.1.7.2 1.2.2.3 0 .6 0 .8-.2.4-.2.7-.8.7-1.6 0-1.3-.7-2.1-1.9-2.1-.3 0-.7 0-.8.1-.1 0-.1.1-.1.1v3.4zM128.9 65c2.5 0 4.4 1.5 4.4 4 0 2.4-1.8 4.4-4.5 4.4-3 0-4.3-2.3-4.3-4.2 0-1.7 1.3-4.2 4.4-4.2m.2 8c1 0 3-.5 3-3.6 0-2.6-1.6-3.9-3.3-3.9-1.9 0-3.2 1.2-3.2 3.5 0 2.4 1.5 4 3.5 4M135.3 68.3v-2.3c0-.3-.1-.5-.5-.6h-.4l-.1-.1c0-.1.1-.1.2-.1h2.4000000000000004c.1 0 .2 0 .2.1 0 0 0 .1-.1.1h-.3c-.3 0-.4.2-.4.6v3.8c0 1.6.3 2.2.8 2.6.5.5 1 .6 1.7.6s1.3-.3 1.7-.8c.5-.6.6-1.5.6-2.6v-3.6999999999999997c0-.3-.1-.5-.4-.6h-.4l-.1-.1c0-.1.1-.1.2-.1h2.1c.1 0 .2 0 .2.1 0 0 0 .1-.1.1h-.3c-.3.1-.4.2-.4.6v3.4c0 1.2-.2 2.5-1 3.2-.8.7-1.7.8-2.3.8-.4 0-1.5 0-2.3-.8-.5-.5-1-1.2-1-2.8v-1.4M145.2 68.3v-2.3c0-.4-.1-.5-.5-.6h-.4l-.1-.1c0-.1 0-.1.2-.1h2.9000000000000004c1.4 0 1.9.4 2.1.6.3.2.6.7.6 1.3 0 1.5-1.2 2.6-2.9 2.6h-.3c-.1 0-.1-.1-.1-.1 0-.1.1-.1.3-.1 1.2 0 2.1-.8 2.1-1.7 0-.3 0-1-.6-1.6-.6-.6-1.3-.5-1.5-.5-.2 0-.5.1-.6.1-.1 0-.1.1-.1.2v4.4c0 1 0 1.9.1 2.3 0 .3.1.5.4.6h.5c.1 0 .1 0 .1.1s-.1.1-.2.1h-2.5c-.1 0-.2 0-.2-.1 0 0 0-.1.1-.1h.3c.2-.1.2-.3.3-.6.1-.4.1-1.3.1-2.3v-2.1"/></g></svg>