<?xml version="1.0" encoding="utf-8"?>
<!-- Generator: Adobe Illustrator 15.0.0, SVG Export Plug-In . SVG Version: 6.00 Build 0)  -->
<!DOCTYPE svg PUBLIC "-//W3C//DTD SVG 1.1//EN" "http://www.w3.org/Graphics/SVG/1.1/DTD/svg11.dtd">
<svg version="1.1" id="Layer_1" xmlns="http://www.w3.org/2000/svg" xmlns:xlink="http://www.w3.org/1999/xlink" x="0px" y="0px"
	 width="404.1px" height="196.9px" viewBox="0 0 404.1 196.9" enable-background="new 0 0 404.1 196.9" xml:space="preserve">
<rect x="0" y="0" fill="#00ADEE" width="404.1" height="154.601"/>
<g>
	<path d="M12.6,177.8h-8V188H2.7v-20.5h1.8v8.7h8v-8.7h1.8V188h-1.8v-10.2H12.6z"/>
	<path d="M37.5,167.1c4.2,0,6.6,3.199,6.6,10.6s-2.399,10.6-6.6,10.6S30.9,185.1,30.9,177.7S33.3,167.1,37.5,167.1z M37.5,186.8
		c2.899,0,4.7-2.399,4.7-9.1s-1.801-9.1-4.7-9.1c-2.9,0-4.7,2.399-4.7,9.1S34.6,186.8,37.5,186.8z"/>
	<path d="M60.6,167.5h1.8v19h8.5v1.601H60.6V167.5z"/>
	<path d="M86.4,167.5h4.9c6,0,7.4,3.601,7.4,10.3c0,6.7-1.5,10.301-7.4,10.301h-4.9V167.5z M88.2,186.5h3c4,0,5.699-2,5.699-8.7
		c0-6.8-1.699-8.699-5.699-8.699h-3V186.5z"/>
	<path d="M115.4,167.5h1.801V188H115.4V167.5z"/>
	<path d="M134.1,167.5h2.5l7.9,17.9h0.1v-17.9h1.8V188h-2.5L136,170.1l0,0V188h-1.8v-20.5H134.1z"/>
	<path d="M168.9,179.1V177.5h6.601V188h-1.4V184.6H174c-0.7,2.3-2.4,3.699-4.5,3.699c-4.2,0-6.601-3.199-6.601-10.6
		s2.301-10.6,6.601-10.6c3.899,0,5.7,2.6,5.899,6.1h-1.8c0-2.5-1.399-4.5-4.1-4.5c-2.9,0-4.7,2.4-4.7,9.1c0,6.7,1.8,9.101,4.7,9.101
		c2.8,0,4.3-2.4,4.3-7.3v-0.4h-4.9V179.1z"/>
	<path d="M201.1,172.7c0-2.5-1.2-4.1-3.7-4.1s-3.899,1.6-3.899,3.699c0,6.101,10,2.801,10,10c0,4-2.5,6-6.2,6c-3.9,0-6-2-6-6.1v-0.6
		h1.8v0.8c0,2.6,1.4,4.399,4.101,4.399c2.6,0,4.399-1.3,4.399-4.199c0-6.101-10-2.601-10-10.101c0-3.2,2.101-5.399,5.7-5.399
		c3.8,0,5.6,1.899,5.6,5.6H201.1L201.1,172.7z"/>
	<path d="M239.8,167.5h1.8v19h8.5v1.601H239.7V167.5H239.8z"/>
	<path d="M265.7,167.5h1.8V188h-1.8V167.5z"/>
	<path d="M284.6,167.5h3.2l4.9,18.2h0.1l4.9-18.2h3V188H298.9v-18.8h-0.1l-5.3,18.8h-1.7l-5.3-18.8H286.4V188h-1.8V167.5
		L284.6,167.5z"/>
	<path d="M317.7,167.5h1.8V188h-1.8V167.5z"/>
	<path d="M340.3,169H335v-1.6H347.4v1.6h-5.3v19h-1.8V169L340.3,169z"/>
	<path d="M362.7,167.5H372.9v1.601h-8.3v7.5h7.8v1.6h-7.8v8.4h8.601v1.6h-10.4v-20.7H362.7z"/>
	<path d="M389,167.5h4.899c6,0,7.4,3.601,7.4,10.3c0,6.7-1.5,10.301-7.4,10.301H389V167.5z M390.9,186.5h3c4,0,5.7-2,5.7-8.7
		c0-6.8-1.7-8.699-5.7-8.699h-3V186.5z"/>
</g>
<g>
	<path fill="#FFFFFF" d="M58.3,94.8c-1.8-8.399-8.7-13.1-16.6-13.1c-14.4,0-20.4,12-20.4,23.9c0,11.8,6.1,23.899,20.4,23.899
		c10,0,16.399-7.7,17.399-17.399h5.2c-1.4,13.399-9.9,21.8-22.6,21.8C24.6,133.9,16.1,120.5,16.1,105.6
		C16.1,90.7,24.6,77.3,41.7,77.3c10.3,0,20.399,6.2,21.8,17.5H58.3z"/>
	<path fill="#FFFFFF" d="M70.4,78.4H75.2v21.8H75.4c1.801-4.7,7-7.9,12.5-7.9c11,0,14.4,5.801,14.4,15.101v25.2h-4.8v-24.5
		c0-6.7-2.2-11.801-10-11.801c-7.7,0-12.101,5.801-12.3,13.4v22.9H70.4V78.4z"/>
	<path fill="#FFFFFF" d="M109,105.5c0.5-9.2,6.8-13.1,15.899-13.1c6.9,0,14.4,2.1,14.4,12.6v20.8c0,1.9,0.9,2.9,2.8,2.9
		c0.5,0,1-0.1,1.5-0.3v4c-1.1,0.2-1.8,0.3-3.1,0.3c-4.9,0-5.601-2.8-5.601-6.8H134.7c-3.4,5.1-6.7,8-14.301,8
		c-7.3,0-13.1-3.601-13.1-11.5c0-10.9,10.7-11.4,21-12.601c3.9-0.399,6.2-1.1,6.2-5.3c0-6.5-4.601-8.1-10.3-8.1
		c-6,0-10.301,2.7-10.5,9.1H109z M134.5,111.3h-0.2c-0.6,1.101-2.7,1.5-4,1.7c-8.1,1.4-18.2,1.4-18.2,9c0,4.8,4.2,7.7,8.7,7.7
		c7.4,0,13.7-4.6,13.7-12.3V111.3z"/>
	<path fill="#FFFFFF" d="M149.1,93.5h4.8v6.8h0.2c1.8-4.699,7-7.899,12.5-7.899c11,0,14.4,5.8,14.4,15.1v25.2h-4.8v-24.5
		c0-6.7-2.2-11.8-10-11.8c-7.7,0-12.101,5.8-12.301,13.399v22.9h-4.8V93.5L149.1,93.5z"/>
	<path fill="#FFFFFF" d="M196.8,93.5h8v4h-8v26.4c0,3.1,0.5,4.899,3.9,5.2c1.399,0,2.699-0.101,4.1-0.2v4.1c-1.4,0-2.8,0.2-4.3,0.2
		c-6.4,0-8.601-2.1-8.5-8.8V97.5h-6.8v-4h6.8V81.7h4.8V93.5z"/>
	<path fill="#FFFFFF" d="M226.7,78.4h5.5l12.3,47.5h0.2L257.9,78.4h6.5l13.301,47.5h0.199l12.4-47.5h5.2l-15,54.2H275l-13.7-48.5
		H261l-13.7,48.5h-5.6L226.7,78.4z"/>
	<path fill="#FFFFFF" d="M298.8,114.4c0,7,3.8,15.399,12.9,15.399c7,0,10.8-4,12.3-10h4.8c-2.1,8.9-7.1,14.101-17.1,14.101
		c-12.5,0-17.7-9.601-17.7-20.7c0-10.3,5.2-20.7,17.7-20.7s17.6,11,17.199,22h-30.1V114.4z M324.2,110.3
		c-0.2-7.199-4.801-14-12.5-14c-7.9,0-12.101,6.801-12.9,14H324.2z"/>
	<path fill="#FFFFFF" d="M360.2,104.9C360,99,355.4,96.3,349.9,96.3c-4.3,0-9.3,1.7-9.3,6.801c0,4.199,4.8,5.8,8.101,6.6l6.399,1.4
		c5.5,0.8,11.2,4,11.2,10.899c0,8.5-8.4,11.8-15.7,11.8c-9.2,0-15.3-4.199-16.1-13.8h4.8c0.4,6.5,5.2,9.8,11.5,9.8
		c4.6,0,10.7-2,10.7-7.399c0-4.601-4.3-6.101-8.601-7.101L346.7,113.9c-6.2-1.601-10.9-3.9-10.9-10.5c0-8,7.8-11,14.7-11
		c7.899,0,14,4.1,14.399,12.6H360.2V104.9z"/>
	<path fill="#FFFFFF" d="M380.1,93.5h8v4h-8v26.4c0,3.1,0.5,4.899,3.9,5.2c1.399,0,2.7-0.101,4.1-0.2v4.1c-1.399,0-2.8,0.2-4.3,0.2
		c-6.4,0-8.6-2.1-8.5-8.8V97.5h-6.8v-4h6.8V81.7h4.8V93.5z"/>
</g>
</svg>
