<?xml version="1.0" encoding="utf-8"?>
<!-- Generator: Adobe Illustrator 21.0.2, SVG Export Plug-In . SVG Version: 6.00 Build 0)  -->
<svg version="1.1" id="Calque_1" xmlns="http://www.w3.org/2000/svg" xmlns:xlink="http://www.w3.org/1999/xlink" x="0px" y="0px"
	 viewBox="0 0 297.3 28.3" style="enable-background:new 0 0 297.3 28.3;" xml:space="preserve">
<style type="text/css">
	.st0{fill:#E5E6E7;}
</style>
<g>
	<g>
		<path class="st0" d="M4.1,10.5c0.4-0.6,1.2-1.4,1.7-1.7c0,0,0.1,0,0.2,0h4.5c0,0,0.1,0,0.2,0c0.6,0.3,1.7,1.8,1.7,1.8l3.9-1.1
			c-0.3-0.6-0.5-0.9-0.8-1.3c-1-1.3-2.7-3.2-4.9-3.2H5.8C5,4.9,4,5.3,3.4,5.6C2.6,6.1,1.1,7.7,0.6,8.4C0.2,9.1,0,9.8,0,10.6v12.1
			c0,0.7,0.2,1.5,0.6,2.2c0.5,0.7,2,2.3,2.8,2.7C4,28,5,28.3,5.8,28.3h4.8c2.2,0,3.9-1.8,4.9-3.2c0.3-0.4,0.5-0.8,0.8-1.5l-3.9-1
			c0,0-0.9,1.4-1.7,1.8c-0.1,0-0.2,0-0.2,0H6.1c0,0-0.2,0-0.3,0C5.2,24.1,4,23.1,4,22.6c0,0,0-11.7,0-11.7C4,10.9,4,10.6,4.1,10.5z"
			/>
		<polygon class="st0" points="33.7,14.7 25.3,14.7 25.3,5.1 21.3,5.1 21.3,28.1 25.3,28.1 25.3,18.6 33.7,18.6 33.7,28.1 
			37.7,28.1 37.7,5.1 33.7,5.1 		"/>
		<path class="st0" d="M48.7,5.1l-8,23H45l1.7-4.9h8.7l1.7,4.9h4.3l-8-23H48.7z M47.9,19.4l3.1-9.1l3.1,9.1H47.9z"/>
		<polygon class="st0" points="74.4,16.4 69,5.1 64.4,5.1 64.4,28.1 68.4,28.1 68.4,12.4 73,22.4 75.6,22.4 80.2,12.4 80.2,28.1 
			84.3,28.1 84.3,5.1 79.7,5.1 		"/>
		<path class="st0" d="M103.3,5.9c-0.8-0.5-1.8-0.8-2.7-0.8H89.8v23h4V19h6.8c0.9,0,1.9-0.3,2.7-0.8c0.5-0.4,1.7-1.5,2.1-2
			c0.5-0.7,0.7-1.5,0.7-2.3v-3.4c0-0.8-0.2-1.7-0.7-2.3C105.1,7.6,103.9,6.3,103.3,5.9z M102.1,13.7c0,0.1,0,0.2,0,0.2
			c-0.3,0.5-1.1,1.3-1.4,1.3h-6.8V8.9h6.8c0.1,0,0.1,0,0.2,0c0.4,0,1,0.8,1.2,1.2c0,0.1,0,0.3,0,0.3V13.7z"/>
		<rect x="110.5" y="5.1" class="st0" width="4" height="23"/>
		<path class="st0" d="M134.1,5.6c-0.6-0.4-1.6-0.7-2.4-0.7h-5.8c-0.8,0-1.8,0.3-2.4,0.7c-0.8,0.5-2.3,2.1-2.8,2.8
			c-0.5,0.7-0.6,1.5-0.6,2.2v12c0,0.7,0.2,1.5,0.6,2.2c0.5,0.7,2,2.3,2.8,2.8c0.6,0.4,1.5,0.7,2.4,0.7h5.8c0.8,0,1.8-0.3,2.4-0.7
			c0.8-0.5,2.3-2.1,2.8-2.8c0.5-0.7,0.6-1.5,0.6-2.2v-12c0-0.7-0.2-1.5-0.6-2.2C136.4,7.7,134.9,6.1,134.1,5.6z M133.5,22.6
			c0,0,0,0.1,0,0.2c-0.5,0.7-1.3,1.4-1.7,1.7c-0.1,0-0.2,0-0.2,0H126c0,0-0.1,0-0.2,0c-0.4-0.2-1.2-1-1.7-1.7c0,0,0-0.2,0-0.2V10.7
			c0,0,0-0.1,0-0.2c0.5-0.7,1.3-1.5,1.7-1.7c0,0,0.2,0,0.2,0h5.5c0,0,0.1,0,0.2,0c0.4,0.2,1.2,1,1.7,1.7c0,0,0,0.2,0,0.2V22.6z"/>
		<polygon class="st0" points="154.9,20.6 147,5.1 142.7,5.1 142.7,28.1 146.7,28.1 146.7,12.8 154.7,28.1 158.9,28.1 158.9,5.1 
			154.9,5.1 		"/>
		<rect x="173.5" y="5.1" class="st0" width="4" height="23"/>
		<path class="st0" d="M196.6,18.2c0.5-0.4,1.7-1.5,2.1-2c0.5-0.7,0.7-1.5,0.7-2.3v-3.4c0-0.8-0.2-1.7-0.7-2.3
			c-0.3-0.5-1.5-1.7-2.1-2.1c-0.8-0.5-1.8-0.8-2.7-0.8h-10.8v23h4V19h4.4l4.3,9.1h4.4l-4.6-9.4C196,18.6,196.3,18.4,196.6,18.2z
			 M195.4,13.7c0,0.1,0,0.2,0,0.2c-0.3,0.5-1.1,1.3-1.4,1.3h-6.8V8.9h7c0.4,0,1,0.8,1.2,1.2c0,0.1,0,0.3,0,0.3V13.7z"/>
		<path class="st0" d="M218.5,5.6c-0.6-0.4-1.6-0.7-2.4-0.7h-5.8c-0.8,0-1.8,0.3-2.4,0.7c-0.8,0.5-2.3,2.1-2.8,2.8
			c-0.5,0.7-0.6,1.5-0.6,2.2v12c0,0.7,0.2,1.5,0.6,2.2c0.5,0.7,2,2.3,2.8,2.8c0.6,0.4,1.5,0.7,2.4,0.7h5.8c0.8,0,1.8-0.3,2.4-0.7
			c0.8-0.5,2.3-2.1,2.8-2.8c0.5-0.7,0.6-1.5,0.6-2.2v-12c0-0.7-0.2-1.5-0.6-2.2C220.8,7.7,219.3,6.1,218.5,5.6z M217.8,22.6
			c0,0,0,0.1,0,0.2c-0.5,0.7-1.3,1.4-1.7,1.7c-0.1,0-0.2,0-0.2,0h-5.5c0,0-0.1,0-0.2,0c-0.4-0.2-1.2-1-1.7-1.7c0,0,0-0.2,0-0.2V10.7
			c0,0,0-0.1,0-0.2c0.5-0.7,1.3-1.5,1.7-1.7c0,0,0.2,0,0.2,0h5.5c0,0,0.1,0,0.2,0c0.4,0.2,1.2,1,1.7,1.7c0,0,0,0.2,0,0.2V22.6z"/>
		<polygon class="st0" points="239.3,20.6 231.4,5.1 227,5.1 227,28.1 231.1,28.1 231.1,12.8 239,28.1 243.3,28.1 243.3,5.1 
			239.3,5.1 		"/>
		<path class="st0" d="M284.4,11.8L275.2,0L253,28.1h44.3v-23L284.4,11.8z M275.2,5.3l6.3,8l-21.3,11.1L275.2,5.3z M266.5,24.8
			l17-8.9l7,8.9H266.5z M294,23.9l-7.5-9.5l7.5-3.9V23.9z"/>
	</g>
</g>
</svg>
