<svg width="290" height="120" xmlns="http://www.w3.org/2000/svg">
 <metadata>
 </metadata>

 <style type="text/css">.st0{fill:#003A5D;}
	.st1{fill:#53575A;}
	.st2{fill:#E1251B;}</style>
 <g>
  <title>background</title>
  <rect fill="none" id="canvas_background" height="122" width="292" y="-1" x="-1"/>
 </g>
 <g>
  <title>Layer 1</title>
  <g id="svg_1">
   <g id="svg_2">
    <path id="svg_3" d="m132.805,24.614l2.631,0l34.53,65.772l-17.979,0l-3.617,-7.783l-28.61,0l-3.508,7.783l-17.868,0l34.421,-65.772zm1.643,27.844l-0.877,0l-8.111,17.211l-0.986,1.754l19.073,0l-0.986,-1.754l-8.113,-17.211z" class="st0"/>
    <path id="svg_4" d="m203.29,90.386l-33.324,0l0,-65.772l32.775,0c16.114,0 24.007,6.796 24.007,17.978c0,5.371 -2.522,10.304 -7.345,12.606l0,1.863c5.811,2.192 9.208,7.454 9.208,13.702c0.001,12.278 -9.207,19.623 -25.321,19.623zm-0.877,-52.069l-16.553,0l0,13.264l16.442,0c5.152,0 7.563,-3.069 7.563,-6.687c0.001,-3.617 -2.41,-6.577 -7.452,-6.577zm-16.552,24.116l0,14.251l17.978,0c4.933,0 7.673,-3.398 7.673,-7.016c0,-3.728 -2.74,-7.235 -7.783,-7.235l-17.868,0z" class="st0"/>
    <path id="svg_5" d="m228.612,24.614l57.221,0l0,13.702l-20.607,0l0,52.069l-15.896,0l0,-52.069l-20.718,0l0,-13.702z" class="st0"/>
   </g>
   <g id="svg_6">
    <path id="svg_7" d="m7.866,105.2l0.395,0l5.185,9.876l-2.7,0l-0.543,-1.169l-4.296,0l-0.527,1.169l-2.683,0l5.169,-9.876zm0.247,4.181l-0.132,0l-1.218,2.584l-0.148,0.263l2.864,0l-0.148,-0.263l-1.218,-2.584z" class="st1"/>
    <path id="svg_8" d="m19.35,115.076l-4.099,0l0,-9.876l4.099,0c3.292,0 5.234,2.107 5.234,4.938c0.001,2.831 -1.942,4.938 -5.234,4.938zm-1.712,-7.818l0,5.761l1.531,0c1.712,0 2.947,-0.971 2.947,-2.881c0,-1.91 -1.235,-2.881 -2.947,-2.881l-1.531,0l0,0.001z" class="st1"/>
    <path id="svg_9" d="m30.559,110.994l0.099,0l0.741,-1.745l1.877,-4.049l2.716,0l-5.185,9.876l-0.428,0l-5.136,-9.876l2.667,0l1.893,4.049l0.756,1.745z" class="st1"/>
    <path id="svg_10" d="m40.326,105.2l0.395,0l5.185,9.876l-2.7,0l-0.543,-1.169l-4.296,0l-0.527,1.169l-2.683,0l5.169,-9.876zm0.247,4.181l-0.132,0l-1.218,2.584l-0.148,0.263l2.864,0l-0.148,-0.263l-1.218,-2.584z" class="st1"/>
    <path id="svg_11" d="m57.011,115.076l-0.543,0l-6.387,-5.448l0,5.448l-2.37,0l0,-9.876l0.543,0l6.387,5.234l0,-5.218l2.37,0l0,9.86z" class="st1"/>
    <path id="svg_12" d="m68.306,114.089c0,0 -1.103,1.202 -3.523,1.202c-3.308,0 -5.3,-2.321 -5.3,-5.152c0,-2.831 1.992,-5.152 5.3,-5.152c2.436,0 3.523,1.202 3.523,1.202l-1.366,1.827c0,0 -1.021,-0.741 -2.123,-0.741c-1.679,0 -2.864,1.152 -2.864,2.864c0,1.712 1.185,2.864 2.864,2.864c1.399,0 2.123,-0.741 2.123,-0.741l1.366,1.827z" class="st1"/>
    <path id="svg_13" d="m77.108,111.077l-4.346,0l0,1.942l5.465,0l0,2.057l-7.852,0l0,-9.876l7.852,0l0,2.057l-5.465,0l0,1.942l4.346,0l0,1.878z" class="st1"/>
    <path id="svg_14" d="m84.952,115.076l-4.099,0l0,-9.876l4.099,0c3.292,0 5.234,2.107 5.234,4.938c0.001,2.831 -1.941,4.938 -5.234,4.938zm-1.712,-7.818l0,5.761l1.531,0c1.712,0 2.946,-0.971 2.946,-2.881c0,-1.91 -1.235,-2.881 -2.946,-2.881l-1.531,0l0,0.001z" class="st1"/>
    <path id="svg_15" d="m101.99,115.076l-5.004,0l0,-9.876l4.922,0c2.42,0 3.605,1.02 3.605,2.7c0,0.806 -0.379,1.547 -1.103,1.893l0,0.28c0.872,0.329 1.383,1.119 1.383,2.057c0,1.844 -1.383,2.946 -3.803,2.946zm-0.131,-7.818l-2.486,0l0,1.992l2.469,0c0.774,0 1.136,-0.461 1.136,-1.004s-0.362,-0.988 -1.119,-0.988zm-2.486,3.621l0,2.14l2.7,0c0.741,0 1.152,-0.51 1.152,-1.053c0,-0.56 -0.412,-1.087 -1.169,-1.087l-2.683,0z" class="st1"/>
    <path id="svg_16" d="m108.37,105.2l4.658,0c2.502,0 4.099,1.284 4.099,3.44c0,1.383 -0.625,2.37 -1.646,2.946l0,0.214l2.222,3.111l0,0.165l-2.716,0l-1.942,-2.881l-2.288,0l0,2.881l-2.387,0l0,-9.876zm4.559,2.058l-2.173,0l0,2.963l2.189,0c1.103,0 1.712,-0.493 1.712,-1.481c0.001,-0.956 -0.625,-1.482 -1.728,-1.482z" class="st1"/>
    <path id="svg_17" d="m124.298,105.2l0.395,0l5.185,9.876l-2.7,0l-0.543,-1.169l-4.296,0l-0.527,1.169l-2.683,0l5.169,-9.876zm0.247,4.181l-0.132,0l-1.218,2.584l-0.148,0.263l2.864,0l-0.148,-0.263l-1.218,-2.584z" class="st1"/>
    <path id="svg_18" d="m134.07,109.447l4.033,-4.247l2.913,0l0,0.214l-3.802,4.032l3.802,5.399l0,0.23l-2.897,0c-0.872,-1.284 -1.712,-2.584 -2.568,-3.885l-1.482,1.58l0,2.305l-2.387,0l0,-9.875l2.387,0l0,4.247l0.001,0z" class="st1"/>
    <path id="svg_19" d="m145.374,115.076l-2.387,0l0,-9.876l2.387,0l0,9.876z" class="st1"/>
    <path id="svg_20" d="m157.675,115.076l-0.543,0l-6.387,-5.448l0,5.448l-2.37,0l0,-9.876l0.543,0l6.387,5.234l0,-5.218l2.37,0l0,9.86z" class="st1"/>
    <path id="svg_21" d="m165.184,109.2l4.971,0l0,1.103c0,2.881 -1.564,4.988 -4.724,4.988c-3.292,0 -5.284,-2.321 -5.284,-5.152c0,-2.831 1.992,-5.152 5.284,-5.152c2.617,0 3.72,1.234 3.72,1.234l-1.415,1.811c0,0 -0.938,-0.757 -2.337,-0.757c-1.597,0 -2.782,1.152 -2.782,2.864c0,1.712 1.185,2.864 2.782,2.864c1.415,0 2.156,-0.856 2.189,-1.827l0,-0.099l-2.403,0l0,-1.877l-0.001,0z" class="st1"/>
    <path id="svg_22" d="m175.935,105.2l8.592,0l0,2.057l-3.095,0l0,7.819l-2.387,0l0,-7.819l-3.111,0l0,-2.057l0.001,0z" class="st1"/>
    <path id="svg_23" d="m193.278,111.077l-4.345,0l0,1.942l5.465,0l0,2.057l-7.851,0l0,-9.876l7.851,0l0,2.057l-5.465,0l0,1.942l4.345,0l0,1.878z" class="st1"/>
    <path id="svg_24" d="m205.033,114.089c0,0 -1.103,1.202 -3.522,1.202c-3.309,0 -5.3,-2.321 -5.3,-5.152c0,-2.831 1.992,-5.152 5.3,-5.152c2.436,0 3.522,1.202 3.522,1.202l-1.366,1.827c0,0 -1.02,-0.741 -2.123,-0.741c-1.679,0 -2.864,1.152 -2.864,2.864c0,1.712 1.185,2.864 2.864,2.864c1.399,0 2.123,-0.741 2.123,-0.741l1.366,1.827z" class="st1"/>
    <path id="svg_25" d="m216.238,115.076l-2.387,0l0,-3.868l-4.362,0l0,3.868l-2.387,0l0,-9.876l2.387,0l0,4.131l4.362,0l0,-4.131l2.387,0l0,9.876z" class="st1"/>
    <path id="svg_26" d="m228.572,115.076l-0.543,0l-6.387,-5.448l0,5.448l-2.37,0l0,-9.876l0.543,0l6.387,5.234l0,-5.218l2.37,0l0,9.86z" class="st1"/>
    <path id="svg_27" d="m231.044,110.138c0,-2.831 1.992,-5.152 5.267,-5.152c3.309,0 5.3,2.321 5.3,5.152c0,2.831 -1.992,5.152 -5.3,5.152c-3.276,0 -5.267,-2.321 -5.267,-5.152zm8.098,0c0,-1.712 -1.234,-2.847 -2.831,-2.847c-1.564,0 -2.798,1.136 -2.798,2.847c0,1.712 1.235,2.847 2.798,2.847c1.597,0.001 2.831,-1.135 2.831,-2.847z" class="st1"/>
    <path id="svg_28" d="m244.084,115.076l0,-9.876l2.387,0l0,7.819l5.02,0l0,2.057l-7.407,0z" class="st1"/>
    <path id="svg_29" d="m252.874,110.138c0,-2.831 1.992,-5.152 5.267,-5.152c3.309,0 5.3,2.321 5.3,5.152c0,2.831 -1.992,5.152 -5.3,5.152c-3.275,0 -5.267,-2.321 -5.267,-5.152zm8.099,0c0,-1.712 -1.234,-2.847 -2.831,-2.847c-1.564,0 -2.798,1.136 -2.798,2.847c0,1.712 1.235,2.847 2.798,2.847c1.596,0.001 2.831,-1.135 2.831,-2.847z" class="st1"/>
    <path id="svg_30" d="m270.363,109.2l4.971,0l0,1.103c0,2.881 -1.564,4.988 -4.724,4.988c-3.292,0 -5.284,-2.321 -5.284,-5.152c0,-2.831 1.992,-5.152 5.284,-5.152c2.617,0 3.72,1.234 3.72,1.234l-1.415,1.811c0,0 -0.938,-0.757 -2.337,-0.757c-1.597,0 -2.782,1.152 -2.782,2.864c0,1.712 1.185,2.864 2.782,2.864c1.415,0 2.156,-0.856 2.189,-1.827l0,-0.099l-2.403,0l0,-1.877l-0.001,0z" class="st1"/>
    <path id="svg_31" d="m283.083,105.2l2.749,0l-3.687,6.107l0,3.769l-2.387,0l0,-3.786l-3.637,-6.09l2.749,0l1.712,2.996l0.346,0.757l0.099,0l0.346,-0.757l1.71,-2.996z" class="st1"/>
   </g>
   <path id="svg_32" d="m90.067,46.759c0,-24.218 -19.632,-43.85 -43.85,-43.85c-24.218,0 -43.85,19.632 -43.85,43.85c0,12.109 4.908,23.071 12.843,31.007l-12.62,12.619l0.001,0.001l6.029,0l6.029,0l-0.001,-0.001l7.18,-7.18l6.169,-6.169l9.965,-9.965l6.976,-6.976l1.278,-1.278l1.278,1.278l6.976,6.976l9.965,9.965l6.169,6.169l7.18,7.18l-0.001,0.001l6.029,0l6.029,0l0.001,-0.001l-12.619,-12.619c7.936,-7.935 12.844,-18.898 12.844,-31.007zm-34.38,9.47l-9.47,-9.47l-9.47,9.47c-2.426,-2.426 -3.929,-5.776 -3.929,-9.47c0,-7.388 6.011,-13.399 13.399,-13.399c7.388,0 13.399,6.011 13.399,13.399c0,3.694 -1.503,7.044 -3.929,9.47zm6.034,6.034c3.968,-3.968 6.422,-9.449 6.422,-15.503c0,-12.109 -9.816,-21.925 -21.925,-21.925c-12.109,0 -21.925,9.816 -21.925,21.925c0,6.054 2.454,11.536 6.422,15.503l-9.474,9.474c-6.672,-6.672 -10.346,-15.542 -10.346,-24.977s3.674,-18.306 10.346,-24.977c6.672,-6.672 15.542,-10.346 24.977,-10.346s18.306,3.674 24.977,10.346c6.672,6.672 10.346,15.542 10.346,24.977s-3.674,18.306 -10.346,24.977l-9.474,-9.474z" class="st2"/>
  </g>
 </g>
</svg>