<?xml version="1.0" encoding="utf-8"?>
<!-- Generator: Adobe Illustrator 22.1.0, SVG Export Plug-In . SVG Version: 6.00 Build 0)  -->
<svg version="1.1" id="Layer_1" xmlns="http://www.w3.org/2000/svg" xmlns:xlink="http://www.w3.org/1999/xlink" x="0px" y="0px"
	 viewBox="0 0 164 51" style="enable-background:new 0 0 164 51;" xml:space="preserve">
<style type="text/css">
	.st0{fill:#1A222C;}
	.st1{fill:#FFFFFF;}
</style>
<title>Group 2</title>
<desc>Created with Sketch.</desc>
<g id="Page-1">
	<g id="Desktop-HD-Copy-3" transform="translate(-39.000000, -37.000000)">
		<g id="Group-2" transform="translate(39.000000, 37.000000)">
			<g id="Group">
				<path id="Combined-Shape" class="st0" d="M6.7,44.4L0,51V39.5V4.9C0,2.2,2.2,0,4.9,0h154.1c2.7,0,4.9,2.2,4.9,4.9v34.6
					c0,2.7-2.2,4.9-4.9,4.9H6.7z"/>
			</g>
			<path id="rmaglobal" class="st1" d="M26.5,16.8v4.5c-0.5-0.1-1-0.2-1.4-0.2c-1.8,0-3.5,1.1-3.5,4.1v6.5H17v-15h4.4v2
				c0.8-1.7,2.7-2.2,3.9-2.2C25.7,16.7,26.2,16.8,26.5,16.8z M33.4,31.8h-4.6v-15h4.3v1.7c0.7-1.3,2.7-2.2,4.3-2.2
				c2.1,0,3.7,0.9,4.4,2.4c1.2-1.7,2.6-2.4,4.6-2.4c2.8,0,5.5,1.7,5.5,5.7v9.7h-4.4v-8.7c0-1.4-0.7-2.5-2.4-2.5s-2.5,1.2-2.5,2.6
				v8.7h-4.5v-8.7c0-1.4-0.7-2.5-2.4-2.5c-1.6,0-2.5,1.2-2.5,2.6V31.8z M54.5,27.7c0-2.7,1.9-4.2,4.4-4.5l3.5-0.5
				c0.8-0.1,1.1-0.5,1.1-1c0-0.9-0.7-1.6-2.2-1.6c-1.6,0-2.5,1.1-2.5,2.2l-4-0.8c0.2-2.1,2.2-5,6.5-5c4.8,0,6.6,2.7,6.6,5.8v7.3
				c0,1.2,0.1,2.2,0.2,2.3H64c0-0.1-0.1-0.7-0.1-1.7c-0.8,1.3-2.2,2.1-4.2,2.1C56.4,32.2,54.5,30.1,54.5,27.7z M60.8,28.9
				c1.3,0,2.7-0.7,2.7-3v-0.7l-2.8,0.5c-1,0.2-1.7,0.6-1.7,1.7C59,28.2,59.5,28.9,60.8,28.9z M70.7,32.6l2.7-0.6
				c0.2,2,1.7,3.6,3.9,3.6c3,0,4.4-1.6,4.4-4.7v-2.1c-0.7,1.3-2.2,2.4-4.4,2.4c-3.8,0-6.6-2.9-6.6-7c0-3.9,2.7-7.1,6.6-7.1
				c2.2,0,3.7,0.8,4.4,2.3v-2h2.8v13.4c0,3.7-1.8,7.3-7.2,7.3C73.7,38,71,35.7,70.7,32.6z M77.7,28.7c2.4,0,4.1-1.8,4.1-4.6
				s-1.7-4.6-4.1-4.6c-2.5,0-4.2,1.8-4.2,4.6C73.6,26.9,75.2,28.7,77.7,28.7z M91.5,31.8h-2.8V10h2.8V31.8z M102,29.7
				c2.4,0,4.5-1.8,4.5-5.2c0-3.3-2.1-5.2-4.5-5.2s-4.5,1.8-4.5,5.2C97.5,27.9,99.6,29.7,102,29.7z M102,16.9c4.3,0,7.4,3.3,7.4,7.7
				c0,4.4-3.1,7.7-7.4,7.7c-4.3,0-7.4-3.3-7.4-7.7C94.6,20.2,97.7,16.9,102,16.9z M115.4,31.8h-2.8V10h2.8v9.4
				c0.7-1.3,2.4-2.5,4.8-2.5c4.4,0,6.6,3.4,6.6,7.6c0,4.3-2.4,7.7-6.7,7.7c-2.1,0-3.8-0.9-4.7-2.5V31.8z M123.9,24.5
				c0-3.1-1.6-5.1-4.3-5.1c-2.5,0-4.3,2-4.3,5.1s1.8,5.2,4.3,5.2C122.2,29.7,123.9,27.6,123.9,24.5z M129,27.9c0-2.6,1.9-4,4.4-4.4
				l3.9-0.6c0.9-0.1,1.1-0.6,1.1-1.1c0-1.4-0.9-2.6-3.1-2.6c-2,0-3.1,1.2-3.3,2.9l-2.7-0.6c0.3-2.8,2.8-4.7,5.9-4.7
				c4.3,0,6,2.5,6,5.3v7.3c0,1.3,0.1,2,0.2,2.4h-2.8c-0.1-0.4-0.1-0.9-0.1-2c-0.6,1-2.1,2.4-4.6,2.4C130.9,32.3,129,30.2,129,27.9z
				 M134.2,29.9c2.3,0,4.2-1.1,4.2-4.3v-0.7l-4.4,0.7c-1.2,0.2-2.1,0.9-2.1,2.2C131.9,28.9,132.8,29.9,134.2,29.9z M148,31.8h-2.8
				V10h2.8V31.8z"/>
		</g>
	</g>
</g>
</svg>
