<svg xmlns="http://www.w3.org/2000/svg" width="233" height="123" viewBox="0 0 233 123"><style>.a{fill:#1A1918;}.b{fill:#FFF;}.c{fill:#52BCC4;}</style><path d="M16.5 105v17.1c0 0.4-0.1 0.5-0.5 0.5h-0.8c-0.4 0-0.5-0.1-0.5-0.5l0-10.4c0-1.4 0.1-2.9 0.3-4.5h-0.1c-0.6 1.5-1.2 2.7-2 4l-3.9 6.8c-0.2 0.3-0.3 0.4-0.6 0.4h-0.5c-0.3 0-0.4-0.1-0.6-0.4l-3.9-6.9c-0.7-1.2-1.3-2.4-1.9-3.9H1.5c0.2 1.7 0.3 3.1 0.3 4.6v10.4c0 0.4-0.1 0.5-0.5 0.5H0.5c-0.4 0-0.5-0.1-0.5-0.5v-17.1c0-0.4 0.1-0.5 0.5-0.5h0.7c0.4 0 0.5 0.1 0.7 0.4l6.3 11.2 6.3-11.2c0.2-0.4 0.3-0.4 0.7-0.4h0.7C16.3 104.5 16.5 104.7 16.5 105" class="a"/><path d="M23.5 104.5h0.8c0.4 0 0.5 0.1 0.5 0.5v17.1c0 0.4-0.1 0.5-0.5 0.5h-0.8c-0.4 0-0.5-0.1-0.5-0.5v-17.1C23 104.7 23.1 104.5 23.5 104.5" class="a"/><path d="M45 105v17.1c0 0.4-0.1 0.5-0.5 0.5h-0.8c-0.3 0-0.4-0.1-0.5-0.3l-8.1-11.7c-0.9-1.4-1.7-3.1-2-3.6h-0.1c0 0.7 0.3 2.6 0.3 4.5v10.6c0 0.4-0.1 0.5-0.5 0.5h-0.8c-0.4 0-0.5-0.1-0.5-0.5v-17.1c0-0.4 0.1-0.5 0.5-0.5h0.8c0.3 0 0.4 0.1 0.5 0.3l7.9 11.5c1 1.5 1.8 3.2 2.3 3.9h0.1c0-0.8-0.3-2.7-0.3-4.7v-10.3c0-0.4 0.1-0.5 0.5-0.5h0.8C44.8 104.5 45 104.7 45 105" class="a"/><path d="M52 104.5h0.8c0.4 0 0.5 0.1 0.5 0.5v17.1c0 0.4-0.1 0.5-0.5 0.5h-0.8c-0.4 0-0.5-0.1-0.5-0.5v-17.1C51.5 104.7 51.6 104.5 52 104.5" class="a"/><path d="M73.5 105v17.1c0 0.4-0.1 0.5-0.5 0.5h-0.8c-0.3 0-0.4-0.1-0.5-0.3l-8.1-11.7c-0.9-1.4-1.7-3.1-2-3.6h-0.1c0 0.7 0.3 2.6 0.3 4.5v10.6c0 0.4-0.1 0.5-0.5 0.5h-0.8c-0.4 0-0.5-0.1-0.5-0.5v-17.1c0-0.4 0.1-0.5 0.5-0.5h0.8c0.3 0 0.4 0.1 0.5 0.3l7.9 11.5c1 1.5 1.8 3.2 2.3 3.9h0.1c0-0.8-0.3-2.7-0.3-4.7v-10.3c0-0.4 0.1-0.5 0.5-0.5h0.8C73.4 104.5 73.5 104.7 73.5 105" class="a"/><path d="M93.5 113.8v3.1c0 3.6-2.4 6.1-7 6.1 -4.6 0-7-2.4-7-6.4v-6c0-4 2.4-6.4 7-6.4 3.9 0 5.9 1.5 6.8 4.4 0.1 0.4 0.1 0.5-0.3 0.7l-0.8 0.3c-0.4 0.1-0.5 0.1-0.7-0.3 -0.7-2.2-2.1-3.3-5-3.3 -3.4 0-5.2 1.7-5.2 4.7v6c0 3 1.8 4.7 5.2 4.7 3.3 0 5.2-1.8 5.2-4.4v-1.9h-4.9c-0.4 0-0.5-0.1-0.5-0.5v-0.7c0-0.4 0.1-0.5 0.5-0.5H93C93.4 113.3 93.5 113.4 93.5 113.8" class="a"/><path d="M108.4 104.5h0.8c0.4 0 0.5 0.1 0.5 0.5v17.1c0 0.4-0.1 0.5-0.5 0.5h-0.8c-0.4 0-0.5-0.1-0.5-0.5v-17.1C107.9 104.7 108 104.5 108.4 104.5" class="a"/><path d="M129.9 105v17.1c0 0.4-0.1 0.5-0.5 0.5h-0.8c-0.3 0-0.4-0.1-0.5-0.3l-8.1-11.7c-0.9-1.4-1.7-3.1-2-3.6h-0.1c0 0.7 0.3 2.6 0.3 4.5v10.6c0 0.4-0.1 0.5-0.5 0.5h-0.8c-0.4 0-0.5-0.1-0.5-0.5v-17.1c0-0.4 0.1-0.5 0.5-0.5h0.8c0.3 0 0.4 0.1 0.5 0.3l7.9 11.5c1 1.5 1.8 3.2 2.3 3.9h0.1c0-0.8-0.3-2.7-0.3-4.7v-10.3c0-0.4 0.1-0.5 0.5-0.5h0.8C129.8 104.5 129.9 104.7 129.9 105" class="a"/><path d="M142.9 104.2c3.9 0 5.9 1.5 6.8 4.4 0.1 0.4 0.1 0.5-0.3 0.7l-0.8 0.3c-0.4 0.1-0.5 0.1-0.7-0.3 -0.7-2.2-2.1-3.3-5-3.3 -3.4 0-5.1 1.7-5.1 4.7v6.1c0 2.9 1.8 4.7 5.1 4.7 3 0 4.4-1.1 5.1-3.4 0.2-0.4 0.3-0.4 0.7-0.3l0.8 0.3c0.3 0.1 0.4 0.3 0.3 0.6 -0.9 2.9-2.9 4.5-6.8 4.5 -4.5 0-7-2.4-7-6.4v-6C135.9 106.6 138.3 104.2 142.9 104.2" class="a"/><path d="M156.4 121.6v0.2c0 0.8-0.2 1-1 1h-0.2c-0.8 0-1-0.2-1-1v-0.2c0-0.8 0.3-1 1-1h0.2C156.2 120.6 156.4 120.8 156.4 121.6" class="a"/><path d="M92.6 19.3h9.1l2.8 8.7c5.8-4.9 7.9-8.1 19-8.5 3.5-0.1 11.2 0 14.1 0v10.4c-2.3-0.2-8.4-0.1-12.2-0.1 -9.6 0-12.4 3-20.9 8.2v50H92.6V19.3" class="b"/><path d="M156.1 77.2c-4.2-1.1-7-3.6-7-14.5V30h18.4c2.9-5 6-8.6 10.3-10.7h-28.7V0.1h-9.4l-2.5 19.2 -17.3 0.4v10.4h17.3v33.5c0 18.2 7 24.5 17 24.5h12.6l2.7-3.3 -2.7-4.7C166 79.9 156.1 77.2 156.1 77.2" class="b"/><path d="M174.7 27.2l2.2-2.1C176.1 25.8 175.4 26.5 174.7 27.2" class="c"/><path d="M191.8 57.8h11.2c9.4 0 11.7-8.2 11.5-14.3 -0.3-8.5-2.5-13.5-11.6-13.5h-10.4c-9.7 0-11.6 6.9-11.6 13.5C180.8 49.9 182.8 57.8 191.8 57.8L191.8 57.8zM190.8 112.1h17c7.3 0 9.1-4 9.1-9.5v-6.8c0-5.5-1.4-8.2-8.2-8.2h-22.5c-3.6 0-5.7-0.9-5.7-0.9v15.8C180.5 111.2 186.3 112.1 190.8 112.1L190.8 112.1zM176.4 62.5c-5.7-3.6-7.5-12.1-7.5-18.9 0-16.4 8.5-24.5 22.8-24.5h40.8V27.3l-9.7 2.3c1.4 2.8 3.6 5.4 3.6 14.5 0 8.3-3.3 24.7-21.9 24.7h-19c-2.1 0-5.3 0.4-5.3 3.6 0 3.3 2.4 4.1 5.3 4.1h25.8c11.2 0 17.7 6.9 17.7 18.5v8c0 8.3-3 19.9-20 19.9h-19.4c-12.2 0-20.9-6.4-20.9-19.9V90.3l5.4-5.4c-3.6-2.4-5.3-6.9-5.3-11.2C168.7 69 171.1 63.7 176.4 62.5L176.4 62.5z" class="b"/><path d="M45.4 66.3l17.4-9.2L40.6 20.3l-18.8 31.3" class="c"/><path d="M0 88.1L46 66 22.1 51 0 88.1" fill="#2B474E"/><path d="M81.9 88.1H0L46 66 81.9 88.1" fill="#172A2D"/><path d="M62.8 57.1l18.7 30.6L46 66 62.8 57.1" fill="#25676D"/></svg>