<svg xmlns="http://www.w3.org/2000/svg" xmlns:xlink="http://www.w3.org/1999/xlink" x="0px" y="0px" viewBox="0 0 426 145" style="enable-background:new 0 0 426 145;" xml:space="preserve"> <style type="text/css"> .st0{display:none;} .st1{display:inline;} .st2{fill:#FFD923;} .st3{fill:#2E2A25;} .st4{fill:#FFFFFF;} </style> <g id="Layer_1" class="st0"> <g class="st1"> <polygon class="st2" points="180.4,6.1 148.5,50.8 182.3,95.3 211.2,95.3 177,50.7 211.2,6.1 180.4,6.1 "></polygon> <path class="st3" d="M24.9,132.8h-6.5v-11.3h6.5c4.4,0,6.9,1.9,6.9,5.6C31.8,130.8,29.3,132.8,24.9,132.8L24.9,132.8z M34.5,127 c0-5.2-3.5-8.2-9.6-8.2h-9.2v24.3h2.8v-7.7h6.5c0.6,0,1.1,0,1.6-0.1l5,7.7h3.2l-5.7-8.3C32.6,133.7,34.5,131,34.5,127L34.5,127z"></path> <polygon class="st3" points="46.3,132.2 58.6,132.2 58.6,129.5 46.3,129.5 46.3,121.5 60,121.5 60,118.8 43.6,118.8 43.6,143.1 60.5,143.1 60.5,140.5 46.3,140.5 46.3,132.2 "></polygon> <path class="st3" d="M70.8,124.8c0-2,2-3.2,5.2-3.2c1.9,0,4.5,0.6,6.7,2l1.2-2.6c-2-1.4-4.9-2.3-7.7-2.3c-5,0-8.4,2.5-8.4,6.3 c0,8.7,13.7,5.3,13.6,11.7c0,2.3-2.2,3.7-5.7,3.7c-2.7,0-5.8-1.2-8.1-3.4l-1.2,2.5c2.3,2.2,5.8,3.7,9.3,3.7c5.2,0,8.8-2.6,8.8-6.7 C84.5,127.8,70.8,131,70.8,124.8L70.8,124.8z"></path> <path class="st3" d="M103.4,140.6c-5.4,0-9.9-4.3-9.9-9.6c0-5.3,4.5-9.6,9.9-9.6c5.4,0,9.9,4.2,9.9,9.6 C113.2,136.3,108.8,140.6,103.4,140.6L103.4,140.6z M103.4,118.8c-7.1,0-12.7,5.3-12.7,12.2c0,6.8,5.6,12.3,12.7,12.3 c7.1,0,12.7-5.4,12.7-12.3C116.1,124.1,110.4,118.8,103.4,118.8L103.4,118.8z"></path> <path class="st3" d="M141,133.1c0,4.7-2.8,7.5-7.4,7.5c-4.6,0-7.5-2.7-7.5-7.5v-14.3h-2.8v14.3c0,6.3,3.9,10.1,10.2,10.1 c6.4,0,10.2-3.8,10.2-10.1v-14.3H141V133.1L141,133.1z"></path> <path class="st3" d="M162.6,132.8h-6.5v-11.3h6.5c4.4,0,6.9,1.9,6.9,5.6C169.5,130.8,167,132.8,162.6,132.8L162.6,132.8z M172.1,127c0-5.2-3.5-8.2-9.6-8.2h-9.2v24.3h2.8v-7.7h6.5c0.6,0,1.1,0,1.6-0.1l5,7.7h3.2l-5.7-8.3 C170.2,133.7,172.1,131,172.1,127L172.1,127z"></path> <path class="st3" d="M191.6,140.5c-5.5,0-9.9-4.3-9.9-9.6c0-5.3,4.4-9.6,9.9-9.6c2.7,0,5.3,1.1,7.2,3.1l1.7-2.1 c-2.3-2.2-5.6-3.5-8.9-3.5c-7,0-12.7,5.4-12.7,12.2c0,6.9,5.6,12.3,12.6,12.3c3.4,0,6.6-1.5,9-3.7l-1.7-1.9 C196.9,139.4,194.3,140.5,191.6,140.5L191.6,140.5z"></path> <polygon class="st3" points="211,132.2 223.3,132.2 223.3,129.5 211,129.5 211,121.5 224.8,121.5 224.8,118.8 208.3,118.8 208.3,143.1 225.2,143.1 225.2,140.5 211,140.5 211,132.2 "></polygon> <path class="st3" d="M235.5,124.8c0-2,2-3.2,5.2-3.2c1.9,0,4.5,0.6,6.7,2l1.2-2.6c-2-1.4-4.9-2.3-7.7-2.3c-5,0-8.4,2.5-8.4,6.3 c0,8.7,13.7,5.3,13.6,11.7c0,2.3-2.2,3.7-5.7,3.7c-2.7,0-5.8-1.2-8.1-3.4l-1.2,2.5c2.3,2.2,5.8,3.7,9.3,3.7c5.2,0,8.8-2.6,8.8-6.7 C249.2,127.8,235.5,131,235.5,124.8L235.5,124.8z"></path> <polygon class="st3" points="272.7,118.8 269.9,118.8 269.9,143.1 283.3,143.1 283.3,140.5 272.7,140.5 272.7,118.8 "></polygon> <polygon class="st3" points="290.6,143.1 293.4,143.1 293.4,118.8 290.6,118.8 290.6,143.1 "></polygon> <polygon class="st3" points="315.8,136.3 307,118.8 303.5,118.8 303.5,143.1 306.2,143.1 306.2,123.1 315,140.6 316.6,140.6 325.5,123.1 325.5,143.1 328.1,143.1 328.1,118.8 324.7,118.8 315.8,136.3 "></polygon> <polygon class="st3" points="338.3,143.1 341,143.1 341,118.8 338.3,118.8 338.3,143.1 "></polygon> <polygon class="st3" points="347.9,121.5 355.8,121.5 355.8,143.1 358.6,143.1 358.6,121.5 366.5,121.5 366.5,118.8 347.9,118.8 347.9,121.5 "></polygon> <polygon class="st3" points="376.1,132.2 388.3,132.2 388.3,129.5 376.1,129.5 376.1,121.5 389.8,121.5 389.8,118.8 373.3,118.8 373.3,143.1 390.3,143.1 390.3,140.5 376.1,140.5 376.1,132.2 "></polygon> <path class="st3" d="M408.5,140.5h-7.1v-19h7c5.4,0,9.8,4.1,9.8,9.5C418.2,136.4,414,140.5,408.5,140.5L408.5,140.5z M408.5,118.8 h-9.8v24.3h9.7c7.1,0,12.6-5.2,12.6-12.1C421,124.1,415.6,118.8,408.5,118.8L408.5,118.8z"></path> <path class="st2" d="M409.4,16.8l7.1,2.1l-7.1,2.1V16.8L409.4,16.8z M404.7,22.3c-0.3,0.1-0.5,0.4-0.5,0.7c0,0.6,0.4,1.4,0.9,1.4 c0.1,0,0.1,0,0.2,0l13.5-4.1c0.5-0.2,0.7-0.8,0.7-1.4c0-0.6-0.2-1.2-0.7-1.4l-13.5-4.1c-0.1,0-0.1,0-0.2,0c-0.5,0-0.9,0.8-0.9,1.4 c0,0.4,0.1,0.7,0.5,0.8l2.9,0.9v5.1L404.7,22.3L404.7,22.3z"></path> <path class="st2" d="M415.5,26.3c-5,0-3.5,6.7-7.2,6.7c-1.5,0-2.2-1.1-2.2-2.6c0-2.3,1.6-2.8,1.6-3.5c0-0.5-0.7-1-1.2-1 c-1,0-2.4,1.9-2.4,4.6c0,2.7,1.5,4.7,4.4,4.7c5.5,0,4.1-6.7,7.2-6.7c1.3,0,1.9,1.1,1.9,2.6c0,1.8-0.8,2.3-0.8,2.9 c0,0.6,0.8,0.9,1.2,0.9c1.1,0,1.5-2.4,1.5-3.8C419.5,28.8,418.6,26.3,415.5,26.3L415.5,26.3z"></path> <path class="st2" d="M419.5,38.4c0-0.6-0.4-1.4-1-1.4c-0.2,0-0.4,0.1-0.5,0.2l-6.1,3.5l-6.1-3.6c-0.2-0.1-0.3-0.1-0.4-0.1 c-0.6,0-1.1,0.8-1.1,1.4c0,0.3,0.2,0.6,0.5,0.7l5.5,3l-5.5,3.1c-0.2,0.1-0.5,0.4-0.5,0.7c0,0.6,0.5,1.4,1.1,1.4 c0.1,0,0.3-0.1,0.4-0.1l6.1-3.6l6.1,3.5c0.2,0.1,0.4,0.2,0.5,0.2c0.6,0,1-0.7,1-1.4c0-0.4-0.3-0.7-0.6-0.8l-5.3-2.9l5.3-2.9 C419.2,39,419.5,38.7,419.5,38.4L419.5,38.4z"></path> <path class="st2" d="M416.4,50.5c0-0.7-0.6-1.2-1.2-1.2c-0.7,0-1.2,0.5-1.2,1.2c0,0.7,0.6,1.2,1.2,1.2 C415.9,51.7,416.4,51.2,416.4,50.5L416.4,50.5z"></path> <path class="st2" d="M410,50.5c0-0.7-0.6-1.2-1.2-1.2c-0.7,0-1.2,0.5-1.2,1.2c0,0.7,0.6,1.2,1.2,1.2C409.5,51.7,410,51.2,410,50.5 L410,50.5z"></path> <path class="st2" d="M414.8,61.8h-6c-1.8,0-2.7-0.9-2.7-2.5c0-1.6,0.9-2.4,2.7-2.4h6c1.8,0,2.7,0.9,2.7,2.4 C417.5,60.8,416.6,61.8,414.8,61.8L414.8,61.8z M414.8,54.6h-6c-3.4,0-4.6,2-4.6,4.6c0,2.6,1.3,4.7,4.6,4.7h6 c3.4,0,4.6-2.1,4.6-4.7C419.4,56.6,418.1,54.6,414.8,54.6L414.8,54.6z"></path> <path class="st2" d="M419.4,68.2c0-0.5-0.2-1.1-0.7-1.1H405c-0.5,0-0.7,0.6-0.7,1.1c0,0.6,0.2,1.1,0.7,1.1h4.3l1.7,1.3l-6.4,4.2 c-0.3,0.2-0.4,0.5-0.4,0.8c0,0.6,0.5,1.3,1.1,1.3c0.1,0,0.3,0,0.4-0.1l7.2-4.7l5,4c0.1,0.1,0.3,0.2,0.4,0.2c0.6,0,1.1-0.7,1.1-1.3 c0-0.2-0.1-0.5-0.3-0.6l-6.7-5.1h6.3C419.2,69.3,419.4,68.8,419.4,68.2L419.4,68.2z"></path> <path class="st2" d="M408.7,81.1h10c0.5,0,0.7-0.6,0.7-1.1c0-0.6-0.2-1.1-0.7-1.1h-10c-3.4,0-4.6,2.1-4.6,4.7 c0,2.7,1.3,4.8,4.6,4.8h10c0.5,0,0.7-0.6,0.7-1.1c0-0.6-0.2-1.1-0.7-1.1h-10c-1.8,0-2.7-1-2.7-2.6 C406.1,82.1,406.9,81.1,408.7,81.1L408.7,81.1z"></path> <path class="st3" d="M81.1,61.1c-1.4,3.1-3.3,5.8-5.7,8.2c-2.4,2.3-5.2,4.1-8.4,5.4c-3.2,1.3-6.5,1.9-10.1,1.9 c-3.5,0-6.9-0.6-10.1-1.9c-3.2-1.3-6-3.1-8.3-5.4c-2.4-2.3-4.3-5-5.7-8.2c-1.4-3.1-2.1-6.5-2.1-10.3c0-3.7,0.7-7.1,2.1-10.3 c1.4-3.1,3.3-5.8,5.7-8.2c2.4-2.3,5.2-4.1,8.3-5.4c3.2-1.3,6.5-1.9,10.1-1.9c3.5,0,6.9,0.6,10.1,1.9c3.2,1.3,6,3.1,8.4,5.4 c2.4,2.3,4.3,5,5.7,8.2c1.4,3.1,2.1,6.5,2.1,10.3C83.2,54.6,82.5,58,81.1,61.1L81.1,61.1z M94,15.9C89.5,11.5,84,8,77.7,5.5 C71.3,3,64.4,1.7,56.9,1.7c-7.6,0-14.5,1.3-20.8,3.8c-6.3,2.5-11.7,6-16.2,10.4c-4.5,4.4-8.1,9.7-10.6,15.6 c-2.6,6-3.8,12.4-3.8,19.3c0,6.9,1.3,13.4,3.8,19.3c2.6,6,6.1,11.2,10.6,15.6c4.5,4.4,9.9,7.9,16.2,10.4 c6.3,2.5,13.2,3.8,20.8,3.8c7.5,0,14.4-1.3,20.8-3.8c6.3-2.5,11.8-6,16.4-10.4c4.6-4.4,8.1-9.7,10.7-15.6c2.6-6,3.8-12.4,3.8-19.3 c0-6.9-1.3-13.4-3.8-19.3C102.2,25.6,98.6,20.4,94,15.9L94,15.9z"></path> <polygon class="st3" points="251.9,4.3 227.7,4.3 227.7,97.4 280.9,97.4 280.9,76.9 251.9,76.9 251.9,4.3 "></polygon> <path class="st3" d="M363.1,61.1c-1.4,3.1-3.3,5.8-5.7,8.2c-2.4,2.3-5.2,4.1-8.4,5.4c-3.2,1.3-6.5,1.9-10.1,1.9 c-3.5,0-6.9-0.6-10.1-1.9c-3.2-1.3-5.9-3.1-8.3-5.4c-2.4-2.3-4.3-5-5.7-8.2c-1.4-3.1-2.1-6.5-2.1-10.3c0-3.7,0.7-7.1,2.1-10.3 c1.4-3.1,3.3-5.8,5.7-8.2c2.4-2.3,5.2-4.1,8.3-5.4c3.2-1.3,6.5-1.9,10.1-1.9c3.5,0,6.9,0.6,10.1,1.9c3.2,1.3,6,3.1,8.4,5.4 c2.4,2.3,4.3,5,5.7,8.2c1.4,3.1,2.1,6.5,2.1,10.3C365.2,54.6,364.5,58,363.1,61.1L363.1,61.1z M386.7,31.5 c-2.6-6-6.1-11.2-10.7-15.6c-4.6-4.4-10-7.9-16.4-10.4c-6.3-2.5-13.3-3.8-20.7-3.8c-7.6,0-14.5,1.3-20.8,3.8 c-6.3,2.5-11.7,6-16.2,10.4c-4.5,4.4-8.1,9.7-10.6,15.6c-2.6,6-3.8,12.4-3.8,19.3c0,6.9,1.3,13.4,3.8,19.3 c2.6,6,6.1,11.2,10.6,15.6c4.5,4.4,9.9,7.9,16.2,10.4c6.3,2.5,13.2,3.8,20.8,3.8c7.5,0,14.4-1.3,20.7-3.8 c6.3-2.5,11.8-6,16.4-10.4c4.6-4.4,8.1-9.7,10.7-15.6c2.6-6,3.8-12.4,3.8-19.3C390.5,43.9,389.2,37.5,386.7,31.5L386.7,31.5z"></path> <path class="st3" d="M206.8,93.6h-8.6l-32.5-42.8l32.5-42.6h8.6l-32,42.7L206.8,93.6L206.8,93.6z M183.1,93.6l-24.9-33.3l5.1-6.6 l30.1,39.9H183.1L183.1,93.6z M151.1,50.9l4.8-6.5l4.9,6.4l-4.9,6.5L151.1,50.9L151.1,50.9z M183.1,8.1h10.3l-30.1,39.7l-4.8-6.7 L183.1,8.1L183.1,8.1z M214.5,4.3h-33.4l-33.1,44.3v-5.9V4.3h-2.9v93.1h2.9V59v-5.9l32.9,44l0.2,0.3h33.4l-34.9-46.6L214.5,4.3 L214.5,4.3z"></path> <polygon class="st3" points="142.3,4.3 123.9,4.3 123.9,50.9 123.9,97.4 142.3,97.4 142.3,4.3 "></polygon> </g> </g> <g id="Layer_2"> <g> <path class="st4" d="M34.5,127.3c0-5.1-3.5-8.1-9.5-8.1h-9.2v24.2h2.8v-7.6h6.4c0.6,0,1.1,0,1.6-0.1l5,7.7h3.1l-5.7-8.2 C32.5,134,34.5,131.3,34.5,127.3z M24.9,133h-6.4v-11.2h6.4c4.4,0,6.9,1.9,6.9,5.5C31.8,131.1,29.3,133,24.9,133z"></path> <polygon class="st4" points="46.2,132.4 58.4,132.4 58.4,129.8 46.2,129.8 46.2,121.8 59.9,121.8 59.9,119.1 43.5,119.1 43.5,143.3 60.3,143.3 60.3,140.7 46.2,140.7 "></polygon> <path class="st4" d="M70.6,125.1c0-2,2-3.2,5.1-3.2c1.9,0,4.5,0.6,6.7,2l1.2-2.6c-2-1.3-4.9-2.2-7.7-2.2c-5,0-8.4,2.5-8.4,6.3 c0,8.7,13.6,5.3,13.6,11.6c0,2.3-2.2,3.7-5.7,3.7c-2.7,0-5.8-1.2-8.1-3.4l-1.2,2.5c2.3,2.2,5.7,3.7,9.3,3.7c5.2,0,8.7-2.6,8.7-6.6 C84.2,128,70.6,131.3,70.6,125.1z"></path> <path class="st4" d="M103,119.1c-7.1,0-12.7,5.3-12.7,12.2c0,6.8,5.6,12.2,12.7,12.2c7,0,12.6-5.4,12.6-12.2 C115.7,124.4,110.1,119.1,103,119.1z M103,140.8c-5.4,0-9.9-4.3-9.9-9.6c0-5.3,4.5-9.5,9.9-9.5s9.8,4.2,9.8,9.5 C112.8,136.6,108.4,140.8,103,140.8z"></path> <path class="st4" d="M140.5,133.4c0,4.7-2.8,7.4-7.4,7.4c-4.6,0-7.4-2.7-7.4-7.4v-14.2h-2.8v14.2c0,6.3,3.8,10.1,10.2,10.1 c6.3,0,10.1-3.8,10.1-10.1v-14.2h-2.8V133.4z"></path> <path class="st4" d="M171.5,127.3c0-5.1-3.5-8.1-9.5-8.1h-9.2v24.2h2.8v-7.6h6.4c0.6,0,1.1,0,1.6-0.1l5,7.7h3.1l-5.7-8.2 C169.6,134,171.5,131.3,171.5,127.3z M162,133h-6.4v-11.2h6.4c4.4,0,6.9,1.9,6.9,5.5C168.9,131.1,166.4,133,162,133z"></path> <path class="st4" d="M190.9,140.7c-5.5,0-9.8-4.3-9.8-9.5c0-5.3,4.4-9.5,9.8-9.5c2.7,0,5.3,1.1,7.2,3l1.7-2.1 c-2.3-2.2-5.5-3.5-8.8-3.5c-7,0-12.6,5.4-12.6,12.1c0,6.8,5.5,12.3,12.5,12.3c3.4,0,6.6-1.5,9-3.7l-1.7-1.9 C196.2,139.6,193.6,140.7,190.9,140.7z"></path> <polygon class="st4" points="210.3,132.4 222.5,132.4 222.5,129.8 210.3,129.8 210.3,121.8 223.9,121.8 223.9,119.1 207.5,119.1 207.5,143.3 224.4,143.3 224.4,140.7 210.3,140.7 "></polygon> <path class="st4" d="M234.6,125.1c0-2,2-3.2,5.1-3.2c1.9,0,4.5,0.6,6.7,2l1.2-2.6c-2-1.3-4.9-2.2-7.7-2.2c-5,0-8.4,2.5-8.4,6.3 c0,8.7,13.6,5.3,13.6,11.6c0,2.3-2.2,3.7-5.7,3.7c-2.7,0-5.8-1.2-8.1-3.4l-1.2,2.5c2.3,2.2,5.7,3.7,9.3,3.7c5.2,0,8.7-2.6,8.7-6.6 C248.2,128,234.6,131.3,234.6,125.1z"></path> <polygon class="st4" points="271.6,119.1 268.9,119.1 268.9,143.3 282.2,143.3 282.2,140.7 271.6,140.7 "></polygon> <rect x="289.5" y="119.1" class="st4" width="2.8" height="24.2"></rect> <polygon class="st4" points="314.6,136.6 305.8,119.1 302.3,119.1 302.3,143.3 305,143.3 305,123.4 313.8,140.8 315.4,140.8 324.2,123.4 324.3,143.3 326.8,143.3 326.8,119.1 323.4,119.1 "></polygon> <rect x="336.9" y="119.1" class="st4" width="2.8" height="24.2"></rect> <polygon class="st4" points="346.5,121.8 354.4,121.8 354.4,143.3 357.2,143.3 357.2,121.8 365.1,121.8 365.1,119.1 346.5,119.1 "></polygon> <polygon class="st4" points="374.6,132.4 386.8,132.4 386.8,129.8 374.6,129.8 374.6,121.8 388.3,121.8 388.3,119.1 371.8,119.1 371.8,143.3 388.7,143.3 388.7,140.7 374.6,140.7 "></polygon> <path class="st4" d="M406.9,119.1h-9.8v24.2h9.7c7.1,0,12.5-5.2,12.5-12.1C419.3,124.4,413.9,119.1,406.9,119.1z M406.9,140.7h-7 v-18.9h6.9c5.4,0,9.7,4,9.7,9.5C416.5,136.7,412.3,140.7,406.9,140.7z"></path> </g> <g> <path class="st2" d="M403.1,23c-0.3,0.1-0.5,0.4-0.5,0.7c0,0.6,0.4,1.4,0.9,1.4c0.1,0,0.1,0,0.2,0l13.4-4.1 c0.5-0.2,0.7-0.8,0.7-1.4s-0.2-1.2-0.7-1.4l-13.4-4.1c-0.1,0-0.1,0-0.2,0c-0.5,0-0.9,0.8-0.9,1.4c0,0.4,0.1,0.7,0.5,0.8L406,17 v5.1L403.1,23z M407.8,17.5l7.1,2.1l-7.1,2.1V17.5z"></path> <path class="st2" d="M413.8,27c-5,0-3.5,6.7-7.2,6.7c-1.5,0-2.2-1.1-2.2-2.6c0-2.3,1.6-2.8,1.6-3.5c0-0.5-0.7-1-1.2-1 c-1,0-2.4,1.9-2.4,4.6c0,2.7,1.4,4.7,4.4,4.7c5.5,0,4.1-6.7,7.2-6.7c1.3,0,1.9,1.1,1.9,2.6c0,1.8-0.8,2.3-0.8,2.9 c0,0.6,0.8,0.9,1.2,0.9c1.1,0,1.5-2.4,1.5-3.8C417.8,29.5,416.9,27,413.8,27z"></path> <path class="st2" d="M417.8,39c0-0.6-0.4-1.4-1-1.4c-0.2,0-0.4,0.1-0.5,0.2l-6.1,3.5l-6.1-3.6c-0.2-0.1-0.3-0.1-0.4-0.1 c-0.6,0-1.1,0.8-1.1,1.4c0,0.3,0.2,0.6,0.5,0.7l5.5,3l-5.5,3.1c-0.2,0.1-0.5,0.4-0.5,0.7c0,0.6,0.5,1.4,1.1,1.4 c0.1,0,0.3-0.1,0.4-0.1l6.1-3.6l6.1,3.5c0.2,0.1,0.4,0.2,0.5,0.2c0.6,0,1-0.7,1-1.4c0-0.4-0.3-0.7-0.6-0.8l-5.3-2.9l5.3-2.9 C417.5,39.7,417.8,39.4,417.8,39z"></path> <path class="st2" d="M414.8,51.1c0-0.7-0.6-1.2-1.2-1.2c-0.7,0-1.2,0.5-1.2,1.2c0,0.7,0.6,1.2,1.2,1.2 C414.2,52.3,414.8,51.8,414.8,51.1z"></path> <path class="st2" d="M408.4,51.1c0-0.7-0.6-1.2-1.2-1.2c-0.7,0-1.2,0.5-1.2,1.2c0,0.7,0.6,1.2,1.2,1.2 C407.8,52.3,408.4,51.8,408.4,51.1z"></path> <path class="st2" d="M413.1,55.2h-6c-3.3,0-4.6,2-4.6,4.6c0,2.6,1.3,4.7,4.6,4.7h6c3.3,0,4.6-2,4.6-4.7 C417.7,57.2,416.5,55.2,413.1,55.2z M413.1,62.3h-6c-1.8,0-2.7-0.9-2.7-2.5c0-1.5,0.8-2.4,2.7-2.4h6c1.8,0,2.7,0.9,2.7,2.4 C415.8,61.4,415,62.3,413.1,62.3z"></path> <path class="st2" d="M417.7,68.8c0-0.5-0.2-1.1-0.7-1.1h-13.7c-0.5,0-0.7,0.6-0.7,1.1c0,0.6,0.2,1.1,0.7,1.1h4.3l1.7,1.3l-6.4,4.2 c-0.3,0.2-0.4,0.5-0.4,0.8c0,0.6,0.5,1.3,1.1,1.3c0.1,0,0.3,0,0.4-0.1l7.2-4.7l5,4c0.1,0.1,0.3,0.2,0.4,0.2c0.6,0,1.1-0.7,1.1-1.3 c0-0.2-0.1-0.5-0.3-0.6l-6.7-5h6.3C417.5,69.9,417.7,69.3,417.7,68.8z"></path> <path class="st2" d="M407.1,81.6h9.9c0.5,0,0.7-0.6,0.7-1.1c0-0.6-0.2-1.1-0.7-1.1h-9.9c-3.3,0-4.6,2.1-4.6,4.7 c0,2.7,1.3,4.7,4.6,4.7h9.9c0.5,0,0.7-0.6,0.7-1.1c0-0.6-0.2-1.1-0.7-1.1h-9.9c-1.8,0-2.7-1-2.7-2.5 C404.5,82.6,405.3,81.6,407.1,81.6z"></path> </g> <path class="st4" d="M93.7,16.6c-4.6-4.4-10-7.9-16.3-10.4c-6.3-2.5-13.2-3.8-20.7-3.8c-7.5,0-14.5,1.3-20.7,3.8 c-6.3,2.5-11.7,6-16.2,10.4c-4.5,4.4-8,9.6-10.6,15.6c-2.5,5.9-3.8,12.4-3.8,19.2c0,6.9,1.3,13.3,3.8,19.2 c2.5,5.9,6.1,11.1,10.6,15.6c4.5,4.4,9.9,7.9,16.2,10.4c6.3,2.5,13.2,3.8,20.7,3.8c7.5,0,14.3-1.3,20.7-3.8 c6.3-2.5,11.7-6,16.3-10.4s8.1-9.6,10.6-15.6c2.5-5.9,3.8-12.4,3.8-19.2c0-6.9-1.3-13.3-3.8-19.2C101.8,26.3,98.3,21.1,93.7,16.6z M80.9,61.7c-1.4,3.1-3.3,5.8-5.7,8.1c-2.4,2.3-5.2,4.1-8.4,5.4c-3.2,1.3-6.5,1.9-10,1.9s-6.9-0.6-10-1.9c-3.2-1.3-5.9-3.1-8.3-5.4 c-2.4-2.3-4.3-5-5.7-8.1c-1.4-3.1-2.1-6.5-2.1-10.2c0-3.7,0.7-7.1,2.1-10.2c1.4-3.1,3.3-5.8,5.7-8.1c2.4-2.3,5.1-4.1,8.3-5.4 c3.2-1.3,6.5-1.9,10-1.9s6.9,0.6,10,1.9c3.2,1.3,5.9,3.1,8.4,5.4c2.4,2.3,4.3,5,5.7,8.1c1.4,3.1,2.1,6.5,2.1,10.2 C83,55.1,82.3,58.5,80.9,61.7z"></path> <polygon class="st4" points="250.9,5.1 226.8,5.1 226.8,97.8 279.8,97.8 279.8,77.4 250.9,77.4 "></polygon> <path class="st4" d="M385.1,32.2c-2.5-5.9-6.1-11.1-10.6-15.6c-4.6-4.4-10-7.9-16.3-10.4c-6.3-2.5-13.2-3.8-20.7-3.8 c-7.5,0-14.5,1.3-20.7,3.8c-6.3,2.5-11.7,6-16.2,10.4c-4.5,4.4-8,9.6-10.6,15.6c-2.5,5.9-3.8,12.4-3.8,19.2 c0,6.9,1.3,13.3,3.8,19.2c2.5,5.9,6.1,11.1,10.6,15.6c4.5,4.4,9.9,7.9,16.2,10.4c6.3,2.5,13.2,3.8,20.7,3.8 c7.5,0,14.3-1.3,20.7-3.8c6.3-2.5,11.7-6,16.3-10.4c4.6-4.4,8.1-9.6,10.6-15.6c2.5-5.9,3.8-12.4,3.8-19.2 C388.9,44.6,387.7,38.2,385.1,32.2z M361.6,61.7c-1.4,3.1-3.3,5.8-5.7,8.1c-2.4,2.3-5.2,4.1-8.4,5.4c-3.2,1.3-6.5,1.9-10,1.9 s-6.9-0.6-10-1.9c-3.2-1.3-5.9-3.1-8.3-5.4c-2.4-2.3-4.3-5-5.7-8.1c-1.4-3.1-2.1-6.5-2.1-10.2c0-3.7,0.7-7.1,2.1-10.2 c1.4-3.1,3.3-5.8,5.7-8.1c2.4-2.3,5.1-4.1,8.3-5.4c3.2-1.3,6.5-1.9,10-1.9s6.9,0.6,10,1.9c3.2,1.3,5.9,3.1,8.4,5.4 c2.4,2.3,4.3,5,5.7,8.1c1.4,3.1,2.1,6.5,2.1,10.2C363.7,55.1,363,58.5,361.6,61.7z"></path> <g> <path class="st4" d="M213.7,5.1h-33.3l-32.9,44.1v-5.8V5.1h-2.9v92.7h2.9V59.6v-5.8l32.7,43.8l0.2,0.3h33.3L179,51.5L213.7,5.1z M182.4,8.9h10.2l-29.9,39.5l-4.8-6.7L182.4,8.9z M150.6,51.5l4.8-6.4l4.8,6.4l-4.8,6.5L150.6,51.5z M182.4,94l-24.8-33.2l5-6.5 l30,39.7H182.4z M206,94h-8.6L165,51.4l32.3-42.5h8.6l-31.8,42.5L206,94z"></path> <polygon class="st4" points="141.8,5.1 123.4,5.1 123.4,51.5 123.4,97.8 141.8,97.8 "></polygon> </g> </g> </svg>