<svg id="Calque_1" data-name="Calque 1" xmlns="http://www.w3.org/2000/svg" viewBox="0 0 283.46 96.13"><defs><style>.cls-1{fill:#3b3836;}.cls-2{fill:#e1251b;}</style></defs><title>LOGO_URW_RGB_red&amp;amp;black_verysmall</title><path class="cls-1" d="M16.22,76.32V63.51h1.89V76.14a2,2,0,0,0,2,2.24c1.4,0,2-.94,2-2.22V63.51H23.9V76.19A3.61,3.61,0,0,1,20,80.05C17.79,80.05,16.22,78.86,16.22,76.32Z"/><path class="cls-1" d="M28,63.52h2l4.16,11.53h0V63.52H36V79.83H34.19L29.78,67.31h-.07V79.83H28Z"/><path class="cls-1" d="M40.21,63.52h1.9V79.83h-1.9Z"/><path class="cls-1" d="M46.37,63.52h3.91c2.29,0,3.34,1.48,3.34,4.07,0,2.08-.82,3.5-2.17,3.77v.09c1.64.37,2.31,1.9,2.31,3.85,0,3.27-1.4,4.53-3.37,4.53h-4Zm3.34,7.18c1.19,0,2.08-.85,2.08-2.91,0-1.89-.73-2.65-1.81-2.65H48.27V70.7Zm.3,7.5c1.21,0,1.85-1,1.85-3S51,72.3,49.73,72.3H48.27v5.9Z"/><path class="cls-1" d="M60.06,63.47h2.52l3.27,16.36H64L63,75H59.4l-.91,4.88H56.72ZM62.7,73.4l-1.45-7.76h-.06L59.72,73.4Z"/><path class="cls-1" d="M69.42,63.52h1.9V79.83h-1.9Z"/><path class="cls-1" d="M75.59,63.52h1.9V78.18h4.6v1.65h-6.5Z"/><path class="cls-1" d="M84.24,72.38h3.93v1.51H84.24Z"/><path class="cls-1" d="M91.71,63.52H95.3c2.59,0,3.87,1.64,3.87,4.53,0,2.31-.85,3.79-2.17,4.23l2.33,7.55H97.41l-2.17-7.12H93.61v7.12h-1.9Zm3.55,7.73c1.35,0,2-1.08,2-3,0-1.61-.48-3.09-2.08-3.09H93.61v6.13Z"/><path class="cls-1" d="M102.75,76.16v-9a3.69,3.69,0,0,1,4-3.87c2.22,0,3.94,1.17,3.94,3.68v9.13a3.7,3.7,0,0,1-4,4C104.33,80.05,102.75,78.77,102.75,76.16Zm6.07,0V66.94a2.09,2.09,0,0,0-4.17.07v9.18a2.09,2.09,0,1,0,4.17,0Z"/><path class="cls-1" d="M114.67,63.52h3.87c2.15,0,3.8,1.09,3.8,3.43v9.17c0,2.52-1.65,3.71-3.84,3.71h-3.83Zm3.71,14.68a1.94,1.94,0,0,0,2.06-2.1v-9a1.87,1.87,0,0,0-2.06-2h-1.81V78.2Z"/><path class="cls-1" d="M128.62,63.47h2.52l3.27,16.36h-1.9L131.57,75H128L127,79.83h-1.76Zm2.63,9.93-1.44-7.76h-.07l-1.46,7.76Z"/><path class="cls-1" d="M137.88,63.52h2.29l2.47,7h.05l2.54-7h2.17V79.83h-1.69v-13h-.05l-2.4,6.77H142l-2.36-6.75h0V79.83h-1.7Z"/><path class="cls-1" d="M151.34,76.39V67c0-2.27,1.58-3.73,4-3.73S159,64.65,159,66.58v1.85h-1.7V66.85a1.83,1.83,0,0,0-2-2,1.92,1.92,0,0,0-2.06,2.18v9.13a1.94,1.94,0,0,0,2.1,2.19,1.84,1.84,0,0,0,2-1.94v-1.6H159v1.69a3.42,3.42,0,0,1-3.71,3.52C152.94,80.05,151.34,78.75,151.34,76.39Z"/><path class="cls-1" d="M162.63,76.16v-9a3.68,3.68,0,0,1,4-3.87c2.22,0,3.93,1.17,3.93,3.68v9.13a3.69,3.69,0,0,1-4,4C164.21,80.05,162.63,78.77,162.63,76.16Zm6.06,0V66.94a2.08,2.08,0,0,0-4.16.07v9.18a2.08,2.08,0,1,0,4.16,0Z"/><path class="cls-1" d="M173.9,72.38h3.94v1.51H173.9Z"/><path class="cls-1" d="M180.16,63.51H182l1.51,11.92h.07l1.78-11.92h1.88l1.78,11.9h.05l1.49-11.9h1.69L190,79.94h-1.76L186.3,67.47h-.07l-1.9,12.47h-1.76Z"/><path class="cls-1" d="M195.72,63.52h6.47v1.62h-4.57v5.35h3.66v1.63h-3.66V78.2h4.6v1.63h-6.5Z"/><path class="cls-1" d="M204.28,76l1.78-.07c.14,1.49.67,2.61,2,2.61s1.79-1.19,1.79-2.29a4.8,4.8,0,0,0-1.42-3.09L206.48,71a6.24,6.24,0,0,1-1.95-4,3.37,3.37,0,0,1,3.55-3.66c1.8,0,3.22,1,3.38,3.82l-1.69,0c-.18-1.58-.71-2.34-1.81-2.34s-1.67.66-1.67,2a4.94,4.94,0,0,0,1.6,2.93l1.7,1.92a6.56,6.56,0,0,1,2,4.51c0,2.28-1.28,3.93-3.59,3.93S204.44,78.59,204.28,76Z"/><path class="cls-1" d="M216.58,65.12h-3.12v-1.6h8.1v1.6h-3.08V79.83h-1.9Z"/><path class="cls-1" d="M225,63.52h6.45v1.6h-4.56v5.42h3.62v1.65h-3.62v7.64H225Z"/><path class="cls-1" d="M234.56,63.52h1.9V79.83h-1.9Z"/><path class="cls-1" d="M240.73,63.52h6.48v1.62h-4.58v5.35h3.66v1.63h-3.66V78.2h4.6v1.63h-6.5Z"/><path class="cls-1" d="M251,63.52h1.89V78.18h4.6v1.65H251Z"/><path class="cls-1" d="M259.58,63.52h3.86c2.15,0,3.8,1.09,3.8,3.43v9.17c0,2.52-1.65,3.71-3.84,3.71h-3.82Zm3.7,14.68a1.94,1.94,0,0,0,2.06-2.1v-9a1.87,1.87,0,0,0-2.06-2h-1.81V78.2Z"/><path class="cls-2" d="M164,24.74c-.76-4.7-1.37-8.43-1.37-8.43l-12.32,5-.06,0,.23.92s3.13-1.21,4.18-.05a1.77,1.77,0,0,1,.44.78c.29.93.72,2.85,1.5,7.09a2.34,2.34,0,0,1-.39,1.79l-.05.05-5.54,5.6c-.22-1.42-.15-1,0,0h0c-1.24-8.08-3.4-21.2-3.4-21.2l-12.38,5.05.22.91s3.14-1.21,4.19,0a1.71,1.71,0,0,1,.44.77c.28.93.72,2.85,1.5,7.09a2.26,2.26,0,0,1-.51,1.92l-5.47,5.53c-1.24-8.08-3.39-21.14-3.39-21.14l-12.38,5.05.23.92s3.13-1.21,4.18,0c.49.55.83.31,4.91,24.76v.07c.06.46.33,3.49-2.86,6.2l1,1.15s9.88-6.47,8.89-13.41l-.09-.56L142,34.28c.57,3.24,1.29,7.4,2.18,12.74h0v.08c.07.5.3,3.5-2.86,6.19l.95,1.14S152.14,48,151.14,41c0-.16,0-.34-.07-.51h0l6.35-6.33,4.91-4.9A6.71,6.71,0,0,0,164,24.74Z"/></svg>