<svg version="1.1" id="svg-logo" xmlns="http://www.w3.org/2000/svg" xmlns:xlink="http://www.w3.org/1999/xlink" x="0px" y="0px"
	 width="221px" height="30px" viewBox="0 0 221 30" enable-background="new 0 0 221 30" xml:space="preserve">
<path fill="#333F48" d="M22.968,22.755L3.371,0.411H0v28.771h3.911V7.025l19.432,22.157h3.58V0.411h-3.954V22.755z M53.305,4.221
	c-2.937,2.815-4.406,6.371-4.406,10.669c0,4.189,1.458,7.67,4.374,10.45c2.919,2.781,6.568,4.174,10.951,4.174
	c4.589,0,8.388-1.393,11.404-4.174c3.014-2.78,4.52-6.29,4.52-10.533c0-4.243-1.493-7.771-4.479-10.586
	C72.681,1.405,68.942,0,64.452,0C59.959,0,56.246,1.405,53.305,4.221 M72.61,7.032c2.168,2.08,3.255,4.644,3.255,7.694
	c0,3.127-1.086,5.746-3.255,7.846c-2.17,2.101-4.875,3.152-8.117,3.152c-3.229,0-5.919-1.031-8.066-3.093
	c-2.149-2.057-3.221-4.638-3.221-7.741c0-3.202,1.069-5.832,3.212-7.888c2.14-2.06,4.873-3.088,8.199-3.088
	C67.776,3.914,70.439,4.951,72.61,7.032 M122.85,22.755l-19.6-22.344h-3.372v28.771h3.914V7.025l19.432,22.157h3.577V0.411h-3.951
	V22.755z M152.666,29.182h4.163V0.411h-4.163V29.182z M216.498,28.091c1.476-0.728,2.597-1.67,3.357-2.823
	c0.762-1.154,1.145-2.462,1.145-3.931c0-1.854-0.628-3.446-1.884-4.78c-1.252-1.333-2.943-2.195-5.064-2.595
	c2.954-1.22,4.432-3.246,4.432-6.074c0-1.472-0.355-2.765-1.061-3.882c-0.708-1.118-1.734-1.998-3.081-2.637
	s-3.218-0.958-5.617-0.958h-7.617v28.771h9.843C213.169,29.182,215.02,28.82,216.498,28.091 M214.177,8.216
	c0,1.333-0.47,2.419-1.405,3.256c-0.936,0.835-2.513,1.255-4.734,1.255h-2.769V4.078h3.581
	C212.399,4.078,214.177,5.456,214.177,8.216 M213.696,16.929c0.96,0.357,1.697,0.898,2.217,1.627c0.521,0.729,0.78,1.533,0.78,2.406
	c0,0.855-0.247,1.652-0.738,2.394c-0.494,0.741-1.144,1.286-1.955,1.635c-0.812,0.35-2.355,0.528-4.63,0.528h-4.101v-9.126h3.892
	C211.229,16.393,212.741,16.572,213.696,16.929"/>
</svg>
