<?xml version="1.0" encoding="UTF-8" standalone="no"?>
<svg width="459px" height="68px" viewBox="0 0 459 68" version="1.1" xmlns="http://www.w3.org/2000/svg" xmlns:xlink="http://www.w3.org/1999/xlink">
    <!-- Generator: Sketch 41 (35326) - http://www.bohemiancoding.com/sketch -->
    <title>Logo</title>
    <desc>Created with Sketch.</desc>
    <defs>
        <polygon id="path-1" points="10.1494662 9.84048043 10.1494662 0.171886121 0.354310498 0.171886121 0.354310498 9.84048043 10.1494662 9.84048043"></polygon>
    </defs>
    <g id="Desktop" stroke="none" stroke-width="1" fill="none" fill-rule="evenodd">
        <g id="News---Detail" transform="translate(-581.000000, -62.000000)">
            <g id="Desktop/Default-Navigation">
                <g id="Default-Navigation">
                    <g id="Header---Default">
                        <g id="Global-Header" transform="translate(0.000000, 33.000000)">
                            <g id="Logo" transform="translate(581.000000, 29.000000)">
                                <path d="M99.1872954,56.4286788 C99.1872954,62.4180916 99.2916548,64.628056 100.806913,64.628056 L104.11879,64.628056 L104.11879,66.3724956 L90.6359609,66.3724956 L90.6359609,64.628056 L93.3748843,64.628056 C94.0112722,64.628056 94.2476157,64.2218728 94.2476157,63.6970062 L94.2476157,39.4088835 C94.2476157,33.4215169 94.1279093,31.2135988 92.6228826,31.2135988 L89.1933452,31.2135988 L89.1933452,29.4712055 L102.677198,29.4712055 L102.677198,31.2135988 L100.053888,31.2135988 C99.4154537,31.2135988 99.1872954,31.6228514 99.1872954,32.1456717 L99.1872954,56.4286788" id="Fill-1" fill="#231F1F"></path>
                                <path d="M114.763554,50.5895641 C119.036152,50.5895641 123.399809,49.0517972 123.399809,44.1827135 C123.399809,39.5213256 119.874097,36.6453025 115.95448,36.6453025 L113.419159,36.6453025 C112.966935,36.6453025 112.287576,36.6954359 112.287576,37.3348932 L112.287576,50.5895641 L114.763554,50.5895641 Z M108.053857,43.3386299 C108.053857,38.2219484 107.961775,36.338363 106.665467,36.338363 L103.74238,36.338363 L103.74238,34.8599377 L117.636508,34.8599377 C122.015512,34.8599377 127.62125,37.0821797 127.62125,43.3918327 C127.62125,47.8598488 124.23673,50.5895641 119.874097,51.3804448 C128.063243,63.2385409 129.757549,64.8816904 131.19198,64.8816904 L132.433038,64.8816904 L132.433038,66.3764858 L126.721917,66.3764858 C125.580102,66.3764858 125.040912,66.3222598 115.95448,52.0741281 L112.287576,52.0741281 L112.287576,57.8834698 C112.287576,62.9970819 112.373519,64.8816904 113.666757,64.8816904 L116.498786,64.8816904 L116.498786,66.3764858 L104.981392,66.3764858 L104.981392,64.8816904 L107.317202,64.8816904 C107.861508,64.8816904 108.053857,64.5297331 108.053857,64.0826246 L108.053857,43.3386299 L108.053857,43.3386299 Z" id="Fill-3" fill="#231F1F"></path>
                                <path d="M135.310187,49.6958585 C135.310187,60.9073354 141.957473,65.6833141 147.817972,65.6833141 C154.519484,65.6833141 159.037633,60.5656094 159.037633,51.5313568 C159.037633,40.3076023 152.387278,35.5520863 146.521664,35.5520863 C139.828336,35.5520863 135.310187,40.6605827 135.310187,49.6958585 M131.092838,51.0832251 C131.092838,41.7031539 137.740125,33.9089368 147.617438,33.9089368 C157.596041,33.9089368 163.257028,40.4631183 163.257028,50.141944 C163.257028,59.5199689 156.603603,67.3131628 146.724244,67.3131628 C136.74871,67.3131628 131.092838,60.7671664 131.092838,51.0832251" id="Fill-5" fill="#231F1F"></path>
                                <path d="M191.25165,59.4140747 L191.344755,59.4140747 L191.344755,41.5461032 C191.344755,39.275774 191.25165,36.338363 189.756855,36.338363 L187.131499,36.338363 L187.131499,34.861984 L196.206677,34.861984 L196.206677,36.338363 L194.379364,36.338363 C193.775716,36.338363 193.229364,36.5931228 193.229364,37.3348932 L193.229364,66.0306673 C193.229364,66.4685676 193.181277,66.8195018 192.834435,66.8195018 C192.678919,66.8195018 192.490663,66.6742171 192.139729,66.2680338 L191.545289,65.5784431 L170.04827,39.6584253 L169.955165,39.6584253 L169.955165,59.6719039 C169.955165,61.9534875 170.04827,64.8857829 171.538972,64.8857829 L174.172513,64.8857829 L174.172513,66.3723932 L165.088127,66.3723932 L165.088127,64.8857829 L166.925672,64.8857829 C167.518065,64.8857829 168.06851,64.6392082 168.06851,63.8820907 L168.06851,42.049484 C168.06851,38.0316459 167.625494,36.338363 165.287638,36.338363 L163.750894,36.338363 L163.750894,34.861984 L170.945556,34.861984 L191.25165,59.4140747" id="Fill-7" fill="#231F1F"></path>
                                <path d="M249.681063,31.2100178 L247.058777,31.2100178 C246.427504,31.2100178 246.195254,31.6213167 246.195254,32.1472064 L246.195254,56.4281673 C246.195254,62.4175801 246.310867,64.6295907 247.816917,64.6295907 L251.126748,64.6295907 L251.126748,66.3760765 L237.645965,66.3760765 L237.645965,64.6295907 L240.380796,64.6295907 C241.021277,64.6295907 241.252504,64.2203381 241.252504,63.6964947 L241.252504,35.1020107 L241.138937,34.9823043 L228.119586,65.7949377 C227.99988,66.0762989 227.889382,66.2000979 227.077015,66.2000979 C226.788492,66.2000979 226.552149,65.5012989 226.205307,64.7452046 L212.54343,35.749653 L212.432931,35.8611744 L212.432931,58.5225178 C212.432931,61.1990302 212.54343,64.6295907 214.291962,64.6295907 L217.369542,64.6295907 L217.369542,66.3760765 L206.740227,66.3760765 L206.740227,64.6295907 L208.883688,64.6295907 C209.584533,64.6295907 210.222967,64.3420907 210.222967,63.4703826 L210.222967,37.9002758 C210.222967,33.1948932 209.702193,31.2100178 206.971455,31.2100178 L205.174835,31.2100178 L205.174835,29.4747865 L214.462825,29.4747865 L228.532931,58.4672687 L241.370165,29.4747865 L249.681063,29.4747865 L249.681063,31.2100178" id="Fill-9" fill="#231F1F"></path>
                                <path d="M255.590058,49.6958585 C255.590058,60.9073354 262.240414,65.6833141 268.094773,65.6833141 C274.802424,65.6833141 279.315458,60.5656094 279.315458,51.5313568 C279.315458,40.3076023 272.671241,35.5520863 266.810743,35.5520863 C260.101045,35.5520863 255.590058,40.6605827 255.590058,49.6958585 M251.374755,51.0832251 C251.374755,41.7031539 258.025111,33.9089368 267.894239,33.9089368 C277.873866,33.9089368 283.535876,40.4631183 283.535876,50.141944 C283.535876,59.5199689 276.886544,67.3131628 267.002069,67.3131628 C257.026535,67.3131628 251.374755,60.7671664 251.374755,51.0832251" id="Fill-11" fill="#231F1F"></path>
                                <path d="M283.036793,34.8604493 L294.55214,34.8604493 L294.55214,36.3378514 L292.326828,36.3378514 C291.768198,36.3378514 291.57278,36.6949244 291.57278,37.1328247 L291.57278,55.9512856 C291.57278,63.2390525 296.387638,65.2730383 300.015663,65.2730383 C310.291997,65.2730383 310.436259,57.3857162 310.436259,53.4650756 L310.436259,41.5455916 C310.436259,39.2773087 310.333946,36.3378514 308.849382,36.3378514 L306.21891,36.3378514 L306.21891,34.8604493 L315.298181,34.8604493 L315.298181,36.3378514 L313.466775,36.3378514 C312.874382,36.3378514 312.322914,36.5946575 312.322914,37.3343817 L312.322914,54.9977269 C312.322914,62.6415436 307.456899,67.3131628 299.757834,67.3131628 C287.897691,67.3131628 287.360547,59.5741948 287.360547,54.3582696 L287.360547,43.3381183 C287.360547,38.2214368 287.252095,36.3378514 285.963972,36.3378514 L283.036793,36.3378514 L283.036793,34.8604493" id="Fill-13" fill="#231F1F"></path>
                                <path d="M342.753101,59.4140747 L342.851321,59.4140747 L342.851321,41.5461032 C342.851321,39.275774 342.753101,36.338363 341.267513,36.338363 L338.639088,36.338363 L338.639088,34.861984 L347.71222,34.861984 L347.71222,36.338363 L345.868536,36.338363 C345.279213,36.338363 344.734907,36.5931228 344.734907,37.3348932 L344.734907,66.0306673 C344.734907,66.4685676 344.687843,66.8195018 344.341001,66.8195018 C344.180369,66.8195018 343.990067,66.6742171 343.637086,66.2680338 L343.040601,65.5784431 L321.553812,39.6584253 L321.449453,39.6584253 L321.449453,59.6719039 C321.449453,61.9534875 321.553812,64.8857829 323.044515,64.8857829 L325.670894,64.8857829 L325.670894,66.3723932 L316.597762,66.3723932 L316.597762,64.8857829 L318.432238,64.8857829 C319.024631,64.8857829 319.570983,64.6392082 319.570983,63.8820907 L319.570983,42.049484 C319.570983,38.0316459 319.113643,36.338363 316.77988,36.338363 L315.254391,36.338363 L315.254391,34.861984 L322.447006,34.861984 L342.753101,59.4140747" id="Fill-15" fill="#231F1F"></path>
                                <path d="M364.091023,57.8833674 C364.091023,62.9969795 364.195383,64.8856806 365.480436,64.8856806 L369.302856,64.8856806 L369.302856,66.3763835 L355.394404,66.3763835 L355.394404,64.8856806 L359.129858,64.8856806 C359.671094,64.8856806 359.859351,64.5296308 359.859351,64.0825222 L359.859351,36.6452002 L358.632616,36.6452002 C352.817135,36.6452002 349.98306,37.6826557 349.495027,39.1784742 C349.403968,39.4608585 349.201388,39.8742037 348.808505,39.8742037 C348.513843,39.8742037 348.245783,39.7135721 348.245783,39.3687767 C348.245783,39.0659297 348.949698,36.8825667 349.653612,34.8608585 L374.320294,34.8608585 C375.005792,36.8825667 375.70766,39.0659297 375.70766,39.3687767 C375.70766,39.7135721 375.459039,39.8742037 375.167447,39.8742037 C374.754101,39.8742037 374.567891,39.4608585 374.466601,39.1784742 C373.969359,37.6826557 371.141423,36.6452002 365.329012,36.6452002 L364.091023,36.6452002 L364.091023,57.8833674" id="Fill-17" fill="#231F1F"></path>
                                <path d="M384.190956,39.5704359 L378.697762,52.7739502 L388.562798,52.7739502 L384.190956,39.5704359 Z M377.991802,54.5582918 C376.901143,57.334048 375.121917,62.2021085 375.121917,63.5925445 C375.121917,64.6402313 375.605859,64.8857829 376.361953,64.8857829 L379.483528,64.8857829 L379.483528,66.3723932 L369.46093,66.3723932 L369.46093,64.8857829 L370.452344,64.8857829 C371.192069,64.8857829 371.936908,64.7292438 372.230547,64.085694 L384.791535,34.3565569 C386.033617,34.061895 387.41996,33.7211922 387.724853,33.7211922 C387.974497,33.7211922 388.218003,33.8634075 388.218003,34.2102491 C388.218003,34.8599377 387.319693,34.8026423 387.319693,35.739831 C387.319693,37.8832918 393.491223,54.4621174 395.909907,61.0643861 C397.045583,64.1859609 397.647184,64.8857829 398.944515,64.8857829 L400.430102,64.8857829 L400.430102,66.3723932 L389.315823,66.3723932 L389.315823,64.8857829 L391.992335,64.8857829 C392.337131,64.8857829 392.689088,64.7292438 392.689088,64.3875178 C392.689088,64.0427224 391.296606,60.5650979 389.256481,54.5582918 L377.991802,54.5582918 L377.991802,54.5582918 Z" id="Fill-19" fill="#231F1F"></path>
                                <path d="M408.11863,57.8833674 C408.11863,62.9969795 408.222989,64.8856806 409.509066,64.8856806 L412.335979,64.8856806 L412.335979,66.3763835 L400.822678,66.3763835 L400.822678,64.8856806 L403.160534,64.8856806 C403.699724,64.8856806 403.899235,64.5296308 403.899235,64.0825222 L403.899235,43.3385276 C403.899235,38.2218461 403.80613,36.3382607 402.515961,36.3382607 L399.590827,36.3382607 L399.590827,34.8608585 L411.097989,34.8608585 L411.097989,36.3382607 L408.8604,36.3382607 C408.324279,36.3382607 408.11863,36.6953336 408.11863,37.1342571 L408.11863,57.8833674" id="Fill-21" fill="#231F1F"></path>
                                <path d="M439.791717,59.4140747 L439.875614,59.4140747 L439.875614,41.5461032 C439.875614,39.275774 439.791717,36.338363 438.302037,36.338363 L435.660311,36.338363 L435.660311,34.861984 L444.752883,34.861984 L444.752883,36.338363 L442.916361,36.338363 C442.315783,36.338363 441.780685,36.5931228 441.780685,37.3348932 L441.780685,66.0306673 C441.780685,66.4685676 441.721343,66.8195018 441.380641,66.8195018 C441.226148,66.8195018 441.035845,66.6742171 440.682865,66.2680338 L440.087402,65.5784431 L418.597544,39.6584253 L418.495231,39.6584253 L418.495231,59.6719039 C418.495231,61.9534875 418.597544,64.8857829 420.079039,64.8857829 L422.71258,64.8857829 L422.71258,66.3723932 L413.63024,66.3723932 L413.63024,64.8857829 L415.476993,64.8857829 C416.069386,64.8857829 416.612669,64.6392082 416.612669,63.8820907 L416.612669,42.049484 C416.612669,38.0316459 416.157375,36.338363 413.821566,36.338363 L412.290961,36.338363 L412.290961,34.861984 L419.48153,34.861984 L439.791717,59.4140747" id="Fill-23" fill="#231F1F"></path>
                                <polygon id="Fill-25" fill="#13477D" points="4.76595196 57.8194217 6.69557829 60.2012722 6.86337189 60.253452 5.25705516 56.7686655 6.69557829 54.5546085 10.0719128 58.8169751 7.36368327 53.1232473 8.63850534 51.0155961 13.2221352 57.0960676 9.35879004 49.5719573 10.7973132 47.1982918 15.7175534 54.2220907 11.5094128 45.6410854 12.7402402 43.7175979 18.1556762 51.0155961 13.6201335 42.2739591 14.7844573 40.2757829 19.7077669 47.1430427 15.7175534 38.6203559 16.7744484 36.7459786 22.3044751 43.9324555 17.7668861 34.7999822 18.8207117 33.1926423 24.9073221 41.053363 19.8663523 31.1545641 20.8608363 29.6515836 27.1694662 38.567153 27.222669 38.5078114 22.0261833 27.5510943 22.8518505 26.2312544 29.9390836 35.9602135 24.0796085 23.7941548 24.961548 22.6277847 33.431032 34.9626601 26.2302313 19.9655961 27.0016726 18.8626601 36.911726 33.7471797 28.4974911 15.9405961 29.2750712 14.9440658 40.3913968 32.6350356 30.6655071 12.2767616 31.3203114 11.2863701 43.7769395 30.9775623 32.8161299 8.41034698 33.431032 7.58365658 46.042153 27.6605694 34.9698221 4.7608363 37.7404626 0.000204626335 75.810169 66.392242 0.000204626335 66.392242"></polygon>
                                <g id="Group-29" transform="translate(448.131673, 34.573154)">
                                    <mask id="mask-2" fill="white">
                                        <use xlink:href="#path-1"></use>
                                    </mask>
                                    <g id="Clip-28"></g>
                                    <path d="M4.97579626,2.49439502 C4.79674822,2.49439502 4.61667705,2.49439502 4.61667705,2.63967972 L4.61667705,4.8036032 L4.99114324,4.8036032 C5.57330516,4.8036032 6.20048488,4.51405694 6.20048488,3.74261566 C6.20048488,3.35177936 5.92423932,2.49439502 4.97579626,2.49439502 L4.97579626,2.49439502 Z M3.26512011,7.1905694 L3.63140125,7.1905694 C3.74087633,7.1905694 3.77770907,7.15578292 3.77770907,7.05346975 L3.77770907,3.62802491 C3.77770907,2.51485765 3.71939057,2.49439502 3.45337633,2.49439502 L3.06560943,2.49439502 L3.06560943,2.17313167 L5.30115214,2.17313167 C6.51663256,2.17313167 7.06298488,2.89546263 7.06298488,3.62802491 C7.06298488,4.36467972 6.60257562,4.8036032 5.92833185,4.94786477 C6.64452402,6.11730427 7.22157028,6.92762456 7.52441726,7.1905694 L7.79350089,7.1905694 L7.79350089,7.50262456 L6.61587633,7.50262456 C6.36418594,7.50262456 5.35230872,5.62313167 5.09550267,5.11872776 L4.61667705,5.11872776 L4.61667705,6.06410142 C4.61667705,7.17112989 4.63509342,7.1905694 4.90724644,7.1905694 L5.30115214,7.1905694 L5.30115214,7.50262456 L3.26512011,7.50262456 L3.26512011,7.1905694 Z M5.25306495,0.785765125 C2.96534253,0.785765125 1.08584964,2.67753559 1.08584964,5.01539146 C1.08584964,7.35938612 2.96534253,9.2419484 5.25306495,9.2419484 C7.59808274,9.2419484 9.43051157,7.35938612 9.43051157,5.01539146 C9.43051157,2.67753559 7.59808274,0.785765125 5.25306495,0.785765125 L5.25306495,0.785765125 Z M5.25306495,9.84048043 C2.52744217,9.84048043 0.354310498,7.68678826 0.354310498,5.01539146 C0.354310498,2.34911032 2.52744217,0.171886121 5.25306495,0.171886121 C7.98687278,0.171886121 10.1497731,2.34911032 10.1497731,5.01539146 C10.1497731,7.68678826 7.98687278,9.84048043 5.25306495,9.84048043 L5.25306495,9.84048043 Z" id="Fill-27" fill="#231F1F" mask="url(#mask-2)"></path>
                                </g>
                            </g>
                        </g>
                    </g>
                </g>
            </g>
        </g>
    </g>
</svg>